<svg width="24.000000" height="24.000000" viewBox="0 0 24 24" fill="none" xmlns="http://www.w3.org/2000/svg" xmlns:xlink="http://www.w3.org/1999/xlink">
	<desc>
			Created with Pixso.
	</desc>
	<defs>
		<clipPath id="clip25_295">
			<rect width="24.000000" height="24.000000" fill="white" fill-opacity="0"/>
		</clipPath>
	</defs>
	<g clip-path="url(#clip25_295)">
		<path d="M4.5 11.99C4.5 10.82 4.49 9.65 4.5 8.47C4.49 7.91 4.56 7.34 4.7 6.79C5.01 5.63 5.77 4.94 6.93 4.67C7.51 4.55 8.11 4.49 8.7 4.5C10.95 4.5 13.2 4.5 15.45 4.5C16.01 4.49 16.58 4.56 17.13 4.69C18.33 4.98 19.05 5.74 19.32 6.93C19.44 7.5 19.5 8.07 19.49 8.65C19.49 10.92 19.49 13.19 19.49 15.46C19.5 16.03 19.43 16.59 19.3 17.13C19.01 18.33 18.25 19.04 17.05 19.32C16.47 19.44 15.88 19.5 15.28 19.49C13.04 19.49 10.81 19.49 8.57 19.49C8 19.5 7.43 19.43 6.87 19.3C5.67 19.01 4.95 18.25 4.67 17.05C4.53 16.44 4.5 15.83 4.5 15.21C4.5 14.14 4.5 13.06 4.5 11.99Z" fill="#FFFFFF" fill-opacity="0" fill-rule="nonzero"/>
		<path d="M4.5 8.47C4.49 7.91 4.56 7.34 4.7 6.79C5.01 5.63 5.77 4.94 6.93 4.67C7.51 4.55 8.11 4.49 8.7 4.5C10.95 4.5 13.2 4.5 15.45 4.5C16.01 4.49 16.58 4.56 17.13 4.69C18.33 4.98 19.05 5.74 19.32 6.93C19.44 7.5 19.5 8.07 19.49 8.65C19.49 10.92 19.49 13.19 19.49 15.46C19.5 16.03 19.43 16.59 19.3 17.13C19.01 18.33 18.25 19.04 17.05 19.32C16.47 19.44 15.88 19.5 15.28 19.49C13.04 19.49 10.81 19.49 8.57 19.49C8 19.5 7.43 19.43 6.87 19.3C5.67 19.01 4.95 18.25 4.67 17.05C4.53 16.44 4.5 15.83 4.5 15.21C4.5 14.14 4.5 13.06 4.5 11.99C4.5 10.82 4.49 9.65 4.5 8.47Z" stroke="#FFFFFF" stroke-opacity="0" stroke-width="1.500000"/>
		<path d="M4.5 11.99C4.5 10.82 4.49 9.65 4.5 8.47C4.49 7.91 4.56 7.34 4.7 6.79C5.01 5.63 5.77 4.94 6.93 4.67C7.51 4.55 8.11 4.49 8.7 4.5C10.95 4.5 13.2 4.5 15.45 4.5C16.01 4.49 16.58 4.56 17.13 4.69C18.33 4.98 19.05 5.74 19.32 6.93C19.44 7.5 19.5 8.07 19.49 8.65C19.49 10.92 19.49 13.19 19.49 15.46C19.5 16.03 19.43 16.59 19.3 17.13C19.01 18.33 18.25 19.04 17.05 19.32C16.47 19.44 15.88 19.5 15.28 19.49C13.04 19.49 10.81 19.49 8.57 19.49C8 19.5 7.43 19.43 6.87 19.3C5.67 19.01 4.95 18.25 4.67 17.05C4.53 16.44 4.5 15.83 4.5 15.21C4.5 14.14 4.5 13.06 4.5 11.99Z" fill="#000000" fill-opacity="0" fill-rule="nonzero"/>
		<path d="M4.5 8.47C4.49 7.91 4.56 7.34 4.7 6.79C5.01 5.63 5.77 4.94 6.93 4.67C7.51 4.55 8.11 4.49 8.7 4.5C10.95 4.5 13.2 4.5 15.45 4.5C16.01 4.49 16.58 4.56 17.13 4.69C18.33 4.98 19.05 5.74 19.32 6.93C19.44 7.5 19.5 8.07 19.49 8.65C19.49 10.92 19.49 13.19 19.49 15.46C19.5 16.03 19.43 16.59 19.3 17.13C19.01 18.33 18.25 19.04 17.05 19.32C16.47 19.44 15.88 19.5 15.28 19.49C13.04 19.49 10.81 19.49 8.57 19.49C8 19.5 7.43 19.43 6.87 19.3C5.67 19.01 4.95 18.25 4.67 17.05C4.53 16.44 4.5 15.83 4.5 15.21C4.5 14.14 4.5 13.06 4.5 11.99C4.5 10.82 4.49 9.65 4.5 8.47Z" stroke="#FFFFFF" stroke-opacity="0" stroke-width="1.500000"/>
		<circle cx="12.000000" cy="12.000000" r="8.000000" fill="#FFFFFF" fill-opacity="0"/>
		<circle cx="12.000000" cy="12.000000" r="8.000000" stroke="#000000" stroke-opacity="0" stroke-width="1.500000"/>
		<path d="M12 5C15.86 5 19 8.24 19 12.25L19 15.33L18.36 15.33L18.36 12.25C18.36 8.58 15.51 5.62 12 5.62C8.48 5.62 5.63 8.58 5.63 12.25L5.63 15.33L5 15.33L5 12.25C5 8.24 8.13 5 12 5Z" fill="#64BB5C" fill-opacity="1.000000" fill-rule="evenodd"/>
		<path d="M19 12.25L19 15.33L18.36 15.33L18.36 12.25C18.36 8.58 15.51 5.62 12 5.62C8.48 5.62 5.63 8.58 5.63 12.25L5.63 15.33L5 15.33L5 12.25C5 8.24 8.13 5 12 5C15.86 5 19 8.24 19 12.25Z" stroke="#64BB5C" stroke-opacity="1.000000" stroke-width="1.500000" stroke-linejoin="round"/>
		<path d="M10 15C9.72388 15 9.5 15.2239 9.5 15.5L9.5 18.5C9.5 18.7761 9.72388 19 10 19C10.2761 19 10.5 18.7761 10.5 18.5L10.5 15.5C10.5 15.2239 10.2761 15 10 15ZM11.5 16C11.5 15.7239 11.7239 15.5 12 15.5C12.2761 15.5 12.5 15.7239 12.5 16L12.5 18C12.5 18.2761 12.2761 18.5 12 18.5C11.7239 18.5 11.5 18.2761 11.5 18L11.5 16ZM14 16C13.7239 16 13.5 16.2239 13.5 16.5L13.5 17.5C13.5 17.7761 13.7239 18 14 18C14.2761 18 14.5 17.7761 14.5 17.5L14.5 16.5C14.5 16.2239 14.2761 16 14 16Z" clip-rule="evenodd" fill="#64BB5C" fill-opacity="0.501961" fill-rule="evenodd"/>
		<path d="M6.5 13.66C7.32 13.66 8 14.33 8 15.16L8 18.99L7.66 18.99C6.19 18.99 5 17.8 5 16.33L5 15.16C5 14.33 5.67 13.66 6.5 13.66ZM17.5 13.66C16.67 13.66 16 14.33 16 15.16L16 18.99L16.33 18.99C17.8 18.99 19 17.8 19 16.33L19 15.16C19 14.33 18.32 13.66 17.5 13.66Z" fill="#64BB5C" fill-opacity="1.000000" fill-rule="evenodd"/>
		<path d="M8 15.16L8 18.99L7.66 18.99C6.19 18.99 5 17.8 5 16.33L5 15.16C5 14.33 5.67 13.66 6.5 13.66C7.32 13.66 8 14.33 8 15.16ZM16 15.16L16 18.99L16.33 18.99C17.8 18.99 19 17.8 19 16.33L19 15.16C19 14.33 18.32 13.66 17.5 13.66C16.67 13.66 16 14.33 16 15.16Z" stroke="#64BB5C" stroke-opacity="1.000000" stroke-width="1.500000" stroke-linejoin="round"/>
	</g>
</svg>
