<svg width="24.000000" height="24.000000" viewBox="0 0 24 24" fill="none" xmlns="http://www.w3.org/2000/svg" xmlns:xlink="http://www.w3.org/1999/xlink">
	<desc>
			Created with Pixso.
	</desc>
	<defs>
		<clipPath id="clip25_230">
			<rect width="24.000000" height="24.000000" fill="white" fill-opacity="0"/>
		</clipPath>
	</defs>
	<g clip-path="url(#clip25_230)">
		<path d="M4.5 11.99C4.5 10.82 4.49 9.65 4.5 8.47C4.49 7.91 4.56 7.34 4.7 6.79C5.01 5.63 5.77 4.94 6.93 4.67C7.51 4.55 8.11 4.49 8.7 4.5C10.95 4.5 13.2 4.5 15.45 4.5C16.01 4.49 16.58 4.56 17.13 4.69C18.33 4.98 19.05 5.74 19.32 6.93C19.44 7.5 19.5 8.07 19.49 8.65C19.49 10.92 19.49 13.19 19.49 15.46C19.5 16.03 19.43 16.59 19.3 17.13C19.01 18.33 18.25 19.04 17.05 19.32C16.47 19.44 15.88 19.5 15.28 19.49C13.04 19.49 10.81 19.49 8.57 19.49C8 19.5 7.43 19.43 6.87 19.3C5.67 19.01 4.95 18.25 4.67 17.05C4.53 16.44 4.5 15.83 4.5 15.21C4.5 14.14 4.5 13.06 4.5 11.99Z" fill="#FFFFFF" fill-opacity="0" fill-rule="nonzero"/>
		<path d="M4.5 8.47C4.49 7.91 4.56 7.34 4.7 6.79C5.01 5.63 5.77 4.94 6.93 4.67C7.51 4.55 8.11 4.49 8.7 4.5C10.95 4.5 13.2 4.5 15.45 4.5C16.01 4.49 16.58 4.56 17.13 4.69C18.33 4.98 19.05 5.74 19.32 6.93C19.44 7.5 19.5 8.07 19.49 8.65C19.49 10.92 19.49 13.19 19.49 15.46C19.5 16.03 19.43 16.59 19.3 17.13C19.01 18.33 18.25 19.04 17.05 19.32C16.47 19.44 15.88 19.5 15.28 19.49C13.04 19.49 10.81 19.49 8.57 19.49C8 19.5 7.43 19.43 6.87 19.3C5.67 19.01 4.95 18.25 4.67 17.05C4.53 16.44 4.5 15.83 4.5 15.21C4.5 14.14 4.5 13.06 4.5 11.99C4.5 10.82 4.49 9.65 4.5 8.47Z" stroke="#FFFFFF" stroke-opacity="0" stroke-width="1.500000"/>
		<path d="M4.5 11.99C4.5 10.82 4.49 9.65 4.5 8.47C4.49 7.91 4.56 7.34 4.7 6.79C5.01 5.63 5.77 4.94 6.93 4.67C7.51 4.55 8.11 4.49 8.7 4.5C10.95 4.5 13.2 4.5 15.45 4.5C16.01 4.49 16.58 4.56 17.13 4.69C18.33 4.98 19.05 5.74 19.32 6.93C19.44 7.5 19.5 8.07 19.49 8.65C19.49 10.92 19.49 13.19 19.49 15.46C19.5 16.03 19.43 16.59 19.3 17.13C19.01 18.33 18.25 19.04 17.05 19.32C16.47 19.44 15.88 19.5 15.28 19.49C13.04 19.49 10.81 19.49 8.57 19.49C8 19.5 7.43 19.43 6.87 19.3C5.67 19.01 4.95 18.25 4.67 17.05C4.53 16.44 4.5 15.83 4.5 15.21C4.5 14.14 4.5 13.06 4.5 11.99Z" fill="#000000" fill-opacity="0" fill-rule="nonzero"/>
		<path d="M4.5 8.47C4.49 7.91 4.56 7.34 4.7 6.79C5.01 5.63 5.77 4.94 6.93 4.67C7.51 4.55 8.11 4.49 8.7 4.5C10.95 4.5 13.2 4.5 15.45 4.5C16.01 4.49 16.58 4.56 17.13 4.69C18.33 4.98 19.05 5.74 19.32 6.93C19.44 7.5 19.5 8.07 19.49 8.65C19.49 10.92 19.49 13.19 19.49 15.46C19.5 16.03 19.43 16.59 19.3 17.13C19.01 18.33 18.25 19.04 17.05 19.32C16.47 19.44 15.88 19.5 15.28 19.49C13.04 19.49 10.81 19.49 8.57 19.49C8 19.5 7.43 19.43 6.87 19.3C5.67 19.01 4.95 18.25 4.67 17.05C4.53 16.44 4.5 15.83 4.5 15.21C4.5 14.14 4.5 13.06 4.5 11.99C4.5 10.82 4.49 9.65 4.5 8.47Z" stroke="#FFFFFF" stroke-opacity="0" stroke-width="1.500000"/>
		<circle cx="12.000000" cy="12.000000" r="8.000000" fill="#FFFFFF" fill-opacity="0"/>
		<circle cx="12.000000" cy="12.000000" r="8.000000" stroke="#000000" stroke-opacity="0" stroke-width="1.500000"/>
		<path d="" fill="#000000" fill-opacity="0" fill-rule="nonzero"/>
		<path d="M13.9 5.72L12 9L9.63 4.7" stroke="#FFFFFF" stroke-opacity="0" stroke-width="1.500000" stroke-linecap="round"/>
		<path d="M9.55 4.55C9.63 4.51 9.74 4.54 9.78 4.62L12 7.66L13.75 5.64C13.79 5.57 13.88 5.54 13.95 5.57C14.03 5.61 14.09 5.73 14.04 5.81L12.14 8.08C12.13 8.1 12.12 8.11 12.1 8.12L12.05 8.15L12 8.16L11.97 8.16C11.95 8.15 11.92 8.14 11.91 8.14C11.9 8.13 11.87 8.11 11.87 8.1L9.49 4.78C9.44 4.7 9.47 4.6 9.55 4.55Z" fill="#FFD15D" fill-opacity="1.000000" fill-rule="nonzero"/>
		<path d="M9.78 4.62L12 7.66L13.75 5.64C13.79 5.57 13.88 5.54 13.95 5.57C14.03 5.61 14.09 5.73 14.04 5.81L12.14 8.08C12.13 8.1 12.12 8.11 12.1 8.12L12.05 8.15L12 8.16L11.97 8.16C11.95 8.15 11.92 8.14 11.91 8.14C11.9 8.13 11.87 8.11 11.87 8.1L9.49 4.78C9.44 4.7 9.47 4.6 9.55 4.55C9.63 4.51 9.74 4.54 9.78 4.62Z" stroke="#FFD15D" stroke-opacity="1.000000" stroke-width="1.500000"/>
		<path d="M6.5 9L17.5 9C18.6 9 19.5 9.89 19.5 11L19.5 17.5C19.5 18.6 18.6 19.5 17.5 19.5L6.5 19.5C5.39 19.5 4.5 18.6 4.5 17.5L4.5 11C4.5 9.89 5.39 9 6.5 9Z" fill="#FF783F" fill-opacity="1.000000" fill-rule="evenodd"/>
		<path d="M17.5 9C18.6 9 19.5 9.89 19.5 11L19.5 17.5C19.5 18.6 18.6 19.5 17.5 19.5L6.5 19.5C5.39 19.5 4.5 18.6 4.5 17.5L4.5 11C4.5 9.89 5.39 9 6.5 9L17.5 9Z" stroke="#FF783F" stroke-opacity="1.000000" stroke-width="1.500000"/>
		<path d="M14.18 14.61L11.33 16.33C11.17 16.42 10.96 16.37 10.87 16.21C10.84 16.16 10.82 16.1 10.82 16.04L10.82 12.61C10.82 12.43 10.97 12.28 11.16 12.28C11.22 12.28 11.28 12.3 11.33 12.33L14.18 14.04C14.34 14.14 14.39 14.34 14.3 14.5C14.27 14.55 14.23 14.59 14.18 14.61Z" fill="#FFFFFF" fill-opacity="1.000000" fill-rule="evenodd"/>
		<path d="M11.33 16.33C11.17 16.42 10.96 16.37 10.87 16.21C10.84 16.16 10.82 16.1 10.82 16.04L10.82 12.61C10.82 12.43 10.97 12.28 11.16 12.28C11.22 12.28 11.28 12.3 11.33 12.33L14.18 14.04C14.34 14.14 14.39 14.34 14.3 14.5C14.27 14.55 14.23 14.59 14.18 14.61L11.33 16.33Z" stroke="#FFFFFF" stroke-opacity="1.000000" stroke-width="1.500000" stroke-linejoin="round"/>
	</g>
</svg>
