<svg width="24.000000" height="24.000000" viewBox="0 0 24 24" fill="none" xmlns="http://www.w3.org/2000/svg" xmlns:xlink="http://www.w3.org/1999/xlink">
	<desc>
			Created with Pixso.
	</desc>
	<defs>
		<clipPath id="clip36_2852">
			<rect width="24.000000" height="24.000000" fill="white" fill-opacity="0"/>
		</clipPath>
	</defs>
	<g clip-path="url(#clip36_2852)">
		<path d="M13.09 6.2C16.91 6.2 20 9.29 20 13.1C20 14.68 19.44 16.12 18.57 17.3C18.43 17.49 18.43 17.49 18.51 17.72C18.55 17.83 19.27 18.79 19.27 18.79C19.63 19.3 19.26 20 18.64 20L13.63 20C13.59 20 13.56 19.99 13.52 19.98C13.38 19.99 13.24 20 13.09 20C9.28 20 6.19 16.91 6.19 13.1C6.19 9.29 9.28 6.2 13.09 6.2Z" fill="#B8E6FF" fill-opacity="1.000000" fill-rule="nonzero"/>
		<path d="M10.99 4C7.13 4 4 7.13 4 11C4 12.6 4.55 14.06 5.44 15.25C5.59 15.45 5.59 15.45 5.5 15.68C5.46 15.79 4.73 16.77 4.73 16.77C4.37 17.29 4.74 18 5.37 18L10.45 18C10.49 18 10.52 17.98 10.56 17.98C10.7 17.99 10.85 18 11 18C14.86 18 18 14.86 18 11C18 7.13 14.86 4 10.99 4Z" fill="#53B5FF" fill-opacity="1.000000" fill-rule="nonzero"/>
		<g opacity="0.900000">
			<path d="M10 12.0001L10 13.0001C10 13.5524 10.4477 14.0001 11 14.0001C11.5523 14.0001 12 13.5524 12 13.0001L12 12.0001L13 12.0001C13.5523 12.0001 14 11.5524 14 11.0001C14 10.4478 13.5523 10.0001 13 10.0001L12 10.0001L12 9.00006C12 8.44777 11.5523 8.00006 11 8.00006C10.4477 8.00006 10 8.44777 10 9.00006L10 10.0001L9 10.0001C8.44769 10.0001 8 10.4478 8 11.0001C8 11.5524 8.44769 12.0001 9 12.0001L10 12.0001Z" clip-rule="evenodd" fill="#FFFFFF" fill-opacity="1.000000" fill-rule="evenodd"/>
		</g>
	</g>
</svg>
