<svg width="24.000000" height="24.000000" viewBox="0 0 24 24" fill="none" xmlns="http://www.w3.org/2000/svg" xmlns:xlink="http://www.w3.org/1999/xlink">
	<desc>
			Created with Pixso.
	</desc>
	<defs>
		<clipPath id="clip269_14714">
			<rect id="line_viewfinder" width="24.000000" height="24.000000" fill="white" fill-opacity="0"/>
		</clipPath>
	</defs>
	<g clip-path="url(#clip269_14714)">
		<g opacity="0.000000">
			<path id="rect" d="M0 0C6 -6 24 0 24 0L24 24L0 24C0 24 -6 6 0 0Z" fill="#000000" fill-opacity="1.000000" fill-rule="evenodd"/>
		</g>
		<path id="path" d="M9.37 1.99C9.21 1.99 9.07 2.07 8.95 2.21C8.83 2.35 8.77 2.53 8.77 2.74L8.77 5.76C8.77 6.39 8.6 6.92 8.25 7.36C7.9 7.8 7.47 8.02 6.97 8.02L4.61 8.02C4.45 8.02 4.3 8.09 4.18 8.23C4.06 8.38 4 8.55 4 8.76C4 8.98 4.05 9.17 4.17 9.31C4.28 9.45 4.43 9.53 4.61 9.53L6.97 9.53C7.51 9.53 8.01 9.36 8.47 9.02C8.94 8.68 9.31 8.23 9.57 7.66C9.85 7.08 9.98 6.45 9.98 5.76L9.98 2.74C9.98 2.53 9.92 2.35 9.8 2.21C9.67 2.07 9.53 1.99 9.37 1.99Z" fill="#FFFFFF" fill-opacity="0.901961" fill-rule="evenodd"/>
		<path id="path" d="M14.61 1.99C14.76 1.99 14.9 2.07 15.03 2.21C15.14 2.35 15.2 2.53 15.2 2.74L15.2 5.76C15.2 6.39 15.38 6.92 15.73 7.36C16.08 7.8 16.51 8.02 17.01 8.02L19.37 8.02C19.53 8.02 19.67 8.09 19.8 8.23C19.92 8.38 19.98 8.55 19.98 8.76C19.98 8.98 19.92 9.17 19.81 9.31C19.69 9.45 19.55 9.53 19.37 9.53L17.01 9.53C16.47 9.53 15.97 9.36 15.51 9.02C15.04 8.68 14.67 8.23 14.4 7.66C14.13 7.08 14 6.45 14 5.76L14 2.74C14 2.53 14.06 2.35 14.18 2.21C14.3 2.07 14.45 1.99 14.61 1.99Z" fill="#FFFFFF" fill-opacity="0.901961" fill-rule="evenodd"/>
		<path id="path" d="M14.61 21.93C14.76 21.93 14.9 21.85 15.03 21.71C15.14 21.57 15.2 21.39 15.2 21.18L15.2 18.16C15.2 17.54 15.38 17 15.73 16.56C16.08 16.12 16.51 15.9 17.01 15.9L19.37 15.9C19.53 15.9 19.67 15.83 19.8 15.69C19.92 15.55 19.98 15.37 19.98 15.16C19.98 14.94 19.92 14.75 19.81 14.61C19.69 14.47 19.55 14.39 19.37 14.39L17.01 14.39C16.47 14.39 15.97 14.56 15.51 14.9C15.04 15.24 14.67 15.69 14.4 16.26C14.13 16.84 14 17.48 14 18.16L14 21.18C14 21.39 14.06 21.57 14.18 21.71C14.3 21.85 14.45 21.93 14.61 21.93Z" fill="#FFFFFF" fill-opacity="0.901961" fill-rule="evenodd"/>
		<path id="path" d="M9.37 21.93C9.21 21.93 9.07 21.85 8.95 21.71C8.83 21.57 8.77 21.39 8.77 21.18L8.77 18.16C8.77 17.54 8.6 17 8.25 16.56C7.9 16.12 7.47 15.9 6.97 15.9L4.61 15.9C4.45 15.9 4.3 15.83 4.18 15.69C4.06 15.55 4 15.37 4 15.16C4 14.94 4.05 14.75 4.17 14.61C4.28 14.47 4.43 14.39 4.61 14.39L6.97 14.39C7.51 14.39 8.01 14.56 8.47 14.9C8.94 15.24 9.31 15.69 9.57 16.26C9.85 16.84 9.98 17.48 9.98 18.16L9.98 21.18C9.98 21.39 9.92 21.57 9.8 21.71C9.67 21.85 9.53 21.93 9.37 21.93Z" fill="#FFFFFF" fill-opacity="0.901961" fill-rule="evenodd"/>
	</g>
</svg>
