<svg width="24.000000" height="24.000000" viewBox="0 0 24 24" fill="none" xmlns="http://www.w3.org/2000/svg" xmlns:xlink="http://www.w3.org/1999/xlink">
	<desc>
			Created with Pixso.
	</desc>
	<defs/>
	<g opacity="0.000000">
		<rect id="rect" width="24.000000" height="24.000000" fill="#000000" fill-opacity="1.000000"/>
	</g>
	<path id="path" d="M6.29 5.83C6 5.67 5.7 5.62 5.37 5.68C5.05 5.75 4.79 5.9 4.57 6.14C4.35 6.38 4.25 6.67 4.25 7.01L4.25 16.96C4.25 17.3 4.35 17.59 4.57 17.84C4.79 18.09 5.05 18.25 5.36 18.31C5.67 18.37 5.98 18.33 6.29 18.17L14.9 13.18C15.19 13 15.39 12.76 15.5 12.46C15.61 12.15 15.61 11.84 15.5 11.54C15.39 11.24 15.19 11 14.9 10.82L6.29 5.83ZM18.74 17.7C19.01 17.7 19.25 17.61 19.45 17.42C19.65 17.23 19.75 16.99 19.75 16.7L19.75 7.18C19.75 6.9 19.65 6.67 19.45 6.46C19.25 6.27 19.01 6.17 18.74 6.17C18.47 6.17 18.24 6.27 18.04 6.46C17.85 6.67 17.75 6.9 17.75 7.18L17.75 16.7C17.75 16.99 17.85 17.23 18.04 17.42C18.24 17.61 18.47 17.7 18.74 17.7Z" fill="#FFFFFF" fill-opacity="0.901961" fill-rule="nonzero"/>
</svg>
