<svg width="24.000000" height="24.000000" viewBox="0 0 24 24" fill="none" xmlns="http://www.w3.org/2000/svg" xmlns:xlink="http://www.w3.org/1999/xlink">
	<desc>
			Created with Pixso.
	</desc>
	<defs>
		<clipPath id="clip269_14707">
			<rect id="arrow_up_left_and_arrow_down_right" width="24.000000" height="24.000000" fill="white" fill-opacity="0"/>
		</clipPath>
	</defs>
	<g clip-path="url(#clip269_14707)">
		<g opacity="0.000000">
			<rect id="rect" width="24.000000" height="24.000000" fill="#000000" fill-opacity="1.000000"/>
		</g>
		<path id="path" d="M2.37 9.64C2.37 9.85 2.45 10.03 2.58 10.17C2.73 10.31 2.91 10.38 3.12 10.38C3.32 10.38 3.5 10.31 3.66 10.17C3.81 10.03 3.88 9.85 3.88 9.64L3.88 4.93L9.13 10.22C9.28 10.36 9.46 10.43 9.66 10.43C9.87 10.43 10.05 10.36 10.2 10.22C10.36 10.07 10.43 9.9 10.43 9.69C10.43 9.48 10.36 9.3 10.2 9.16L4.91 3.85L9.62 3.85C9.83 3.85 10 3.78 10.14 3.64C10.29 3.5 10.37 3.32 10.37 3.11C10.37 2.91 10.29 2.73 10.14 2.58C10 2.44 9.83 2.37 9.62 2.37L3.66 2.37C3.31 2.37 3.01 2.5 2.75 2.75C2.5 2.99 2.37 3.3 2.37 3.66L2.37 9.64ZM13.62 20.87C13.62 21.08 13.7 21.26 13.84 21.4C13.99 21.54 14.16 21.61 14.37 21.61L20.33 21.61C20.69 21.61 21 21.49 21.25 21.24C21.49 20.98 21.62 20.68 21.62 20.32L21.62 14.34C21.62 14.14 21.54 13.96 21.41 13.81C21.26 13.67 21.08 13.6 20.87 13.6C20.67 13.6 20.49 13.67 20.33 13.81C20.18 13.96 20.11 14.14 20.11 14.34L20.11 19.02L14.86 13.77C14.71 13.63 14.53 13.55 14.33 13.55C14.12 13.55 13.94 13.63 13.79 13.77C13.63 13.91 13.55 14.09 13.55 14.29C13.55 14.51 13.63 14.68 13.79 14.82L19.05 20.1L14.37 20.1C14.16 20.1 13.99 20.18 13.84 20.33C13.7 20.49 13.62 20.67 13.62 20.87Z" fill="#FFFFFF" fill-opacity="0.901961" fill-rule="nonzero"/>
	</g>
</svg>
