<svg width="32.000000" height="16.000000" viewBox="0 0 32 16" fill="none" xmlns="http://www.w3.org/2000/svg" xmlns:xlink="http://www.w3.org/1999/xlink">
	<desc>
			Created with Pixso.
	</desc>
	<defs/>
	<path id="Button-Phone" d="M8 0L32 0L32 8C32 12.41 28.41 16 24 16L0 16L0 8C0 3.58 3.58 0 8 0Z" fill="#FFD15D" fill-opacity="1.000000" fill-rule="evenodd"/>
	<path id="ai_text1" d="M13.86 4.76L11.69 10.51L9.38 4.76L8.19 4.76L11.24 12.08L12.05 12.08L14.98 4.76L13.86 4.76ZM15.88 4.76L15.88 12.08L16.95 12.08L16.95 4.76L15.88 4.76ZM23.45 8.03Q23.64 7.6 23.64 7.08Q23.64 6.55 23.45 6.12Q23.39 5.99 23.31 5.86Q23.22 5.72 23.11 5.6Q22.81 5.26 22.37 5.05Q21.76 4.76 20.98 4.76L18.63 4.76L18.63 12.08L19.7 12.08L19.7 9.39L20.98 9.39Q21.76 9.39 22.37 9.09Q22.82 8.88 23.12 8.53Q23.23 8.41 23.31 8.28Q23.39 8.16 23.45 8.03ZM22.06 8.08Q21.63 8.45 20.83 8.45L19.7 8.45L19.7 5.68L20.83 5.68Q21.63 5.68 22.06 6.06Q22.22 6.21 22.32 6.39Q22.49 6.68 22.49 7.08Q22.49 7.47 22.32 7.77Q22.22 7.94 22.06 8.08Z" fill="#FFFFFF" fill-opacity="1.000000" fill-rule="evenodd"/>
</svg>
