<svg width="16.000000" height="16.000000" viewBox="0 0 16 16" fill="none" xmlns="http://www.w3.org/2000/svg" xmlns:xlink="http://www.w3.org/1999/xlink">
	<desc>
			Created with Pixso.
	</desc>
	<defs>
		<clipPath id="clip45_2520">
			<rect width="16.000000" height="16.000000" fill="white" fill-opacity="0"/>
		</clipPath>
	</defs>
	<g clip-path="url(#clip45_2520)">
		<g opacity="0.000000">
			<rect width="16.000000" height="16.000000" fill="#000000" fill-opacity="1.000000"/>
		</g>
		<path d="M8 3C6.91 3 5.91 3.27 5 3.81C4.08 4.35 3.35 5.08 2.81 6C2.27 6.91 2 7.91 2 9C2 10.08 2.27 11.08 2.81 11.99C3.35 12.91 4.08 13.64 5 14.18C5.91 14.72 6.91 15 8 15C9.08 15 10.08 14.72 10.99 14.18C11.91 13.64 12.64 12.91 13.18 11.99C13.72 11.08 14 10.08 14 9C14 7.91 13.72 6.91 13.18 6C12.64 5.08 11.91 4.35 10.99 3.81C10.08 3.27 9.08 3 8 3ZM10.41 9.89C10.47 9.93 10.52 9.99 10.56 10.06C10.59 10.12 10.61 10.19 10.61 10.27C10.61 10.34 10.59 10.41 10.56 10.47C10.52 10.53 10.46 10.58 10.4 10.62C10.33 10.66 10.26 10.69 10.19 10.69C10.11 10.69 10.04 10.67 9.98 10.63L7.79 9.35C7.76 9.34 7.72 9.31 7.69 9.26C7.65 9.22 7.63 9.17 7.61 9.13L7.58 8.98L7.58 5.51C7.58 5.4 7.62 5.3 7.7 5.21C7.78 5.13 7.88 5.09 8 5.09C8.11 5.09 8.21 5.13 8.29 5.21C8.37 5.3 8.41 5.4 8.41 5.51L8.41 8.75L10.41 9.89Z" fill="#000000" fill-opacity="0.200000" fill-rule="nonzero"/>
	</g>
</svg>
