<svg width="36.000000" height="16.000000" viewBox="0 0 36 16" fill="none" xmlns="http://www.w3.org/2000/svg" xmlns:xlink="http://www.w3.org/1999/xlink">
	<desc>
			Created with Pixso.
	</desc>
	<defs/>
	<rect rx="8.000000" width="36.000000" height="16.000000" fill="#64BB5C" fill-opacity="1.000000"/>
	<path d="M8.47 6.64L8.85 7.45Q9.16 7.21 9.47 7.02L9.47 9.37L12.09 9.37Q11.86 9.84 11.5 10.21Q11.28 10.43 11.01 10.62Q10.5 10.96 9.95 11.2Q9.25 11.51 8.54 11.76L9.04 12.64Q9.84 12.33 10.61 11.9Q11.23 11.59 11.78 11.2Q12.22 10.84 12.54 10.39Q12.83 9.99 13.03 9.52L13.03 11.2Q13.03 11.24 13.03 11.28Q13.01 11.51 13.08 11.76Q13.09 11.8 13.1 11.83Q13.14 11.94 13.22 12.02Q13.25 12.05 13.28 12.07Q13.42 12.2 13.62 12.25Q13.9 12.3 14.21 12.3L15.97 12.3Q16.23 12.3 16.58 12.25Q16.75 12.21 16.91 12.14Q16.91 12.14 16.92 12.13Q17.06 12.01 17.14 11.82Q17.18 11.68 17.22 11.54Q17.24 11.45 17.26 11.36Q17.29 10.7 17.29 10.03L16.43 9.83Q16.43 10.39 16.4 10.89Q16.4 11.05 16.35 11.2Q16.32 11.28 16.27 11.36Q16.15 11.39 16.04 11.44L14.16 11.44Q14.04 11.39 13.97 11.33Q13.93 11.28 13.93 11.2Q13.9 11.05 13.9 10.89L13.9 9.37L16.63 9.37L16.63 6.25L14.45 6.25L15.58 5.19L15.58 4.4L11.95 4.4L12.34 3.83L11.47 3.55Q10.84 4.49 10.02 5.31Q9.33 6.05 8.47 6.64ZM19.21 5.7L18.97 7.69L21.09 7.69Q20.78 8.01 20.41 8.21Q20.34 8.24 20.27 8.27Q19.87 8.43 19.52 8.55Q19.19 8.65 18.87 8.73Q18.69 8.78 18.51 8.83L19.02 9.52Q19.41 9.4 19.79 9.29L19.79 11.05L20.72 11.05L20.72 9.45L25.29 9.45L25.29 11.05L26.2 11.05L26.2 8.75Q26.43 8.75 26.66 8.7Q26.73 8.7 26.79 8.68Q26.88 8.65 26.95 8.58Q27.02 8.5 27.09 8.43Q27.14 8.24 27.17 8.01Q27.22 7.53 27.26 7.02L24.64 7.02L24.64 6.44L26.86 6.44L26.86 4.4L24.64 4.4L24.64 3.63L23.77 3.63L23.77 4.4L22.29 4.4L22.29 3.63L21.4 3.63L21.4 4.4L18.97 4.4L18.97 5.11L21.4 5.11L21.4 5.7L19.21 5.7ZM22.29 5.11L23.77 5.11L23.77 5.7L22.29 5.7L22.29 5.11ZM25.97 5.11L25.97 5.7L24.64 5.7L24.64 5.11L25.97 5.11ZM11.27 5.22L14.36 5.22L13.27 6.25L10.33 6.25Q10.51 6.08 10.67 5.91Q10.99 5.59 11.27 5.22ZM21.35 7.02L19.95 7.02L20.02 6.44L21.4 6.44L21.4 6.47Q21.4 6.76 21.35 7.02ZM22.29 6.44L23.77 6.44L23.77 7.02L22.26 7.02Q22.29 6.76 22.29 6.44ZM10.33 8.55L10.33 7.07L12.57 7.07Q12.52 7.84 12.37 8.55L10.33 8.55ZM13.47 7.07L15.77 7.07L15.77 8.55L13.31 8.55Q13.42 7.84 13.47 7.07ZM23.77 8.66L24.64 8.66L24.64 7.69L26.35 7.69L26.35 7.89Q26.33 7.98 26.27 8.05Q26.24 8.09 26.2 8.12Q26.01 8.15 25.81 8.15L25.18 8.15L25.29 8.75L21.09 8.75Q21.43 8.55 21.71 8.32Q21.75 8.26 21.79 8.21Q21.97 7.97 22.09 7.69L23.77 7.69L23.77 8.66ZM18.7 11.82L19.13 12.64Q19.87 12.53 20.58 12.33Q21.12 12.19 21.66 11.99Q22.09 11.82 22.48 11.64Q22.72 11.48 22.91 11.33Q24.9 11.99 26.86 12.69L27.26 11.82Q25.29 11.25 23.39 10.62Q23.47 10.43 23.51 10.19L23.59 9.71L22.52 9.71Q22.48 9.95 22.45 10.19Q22.37 10.46 22.22 10.65Q21.91 10.93 21.52 11.13Q20.89 11.36 20.22 11.51Q19.45 11.71 18.7 11.82Z" fill="#FFFFFF" fill-opacity="1.000000" fill-rule="evenodd"/>
</svg>
