<svg width="12.000000" height="12.000000" viewBox="0 0 12 12" fill="none" xmlns="http://www.w3.org/2000/svg" xmlns:xlink="http://www.w3.org/1999/xlink">
	<desc>
			Created with Pixso.
	</desc>
	<defs>
		<clipPath id="clip93_3711">
			<rect width="12.000000" height="12.000000" fill="white" fill-opacity="0"/>
		</clipPath>
	</defs>
	<g clip-path="url(#clip93_3711)">
		<g opacity="0.000000">
			<rect width="12.000000" height="12.000000" fill="#000000" fill-opacity="1.000000"/>
		</g>
		<path d="M9.4 1.44C9.32 1.32 9.2 1.27 9.03 1.27L2.96 1.27C2.79 1.27 2.67 1.32 2.59 1.44L0.59 3.95C0.53 4.01 0.5 4.09 0.5 4.2C0.5 4.32 0.53 4.41 0.59 4.48L5.67 10.58C5.76 10.68 5.87 10.73 6 10.73L6.21 10.72L11.4 4.48C11.46 4.41 11.5 4.32 11.5 4.21C11.5 4.11 11.46 4.02 11.4 3.95L9.4 1.44ZM6.02 7.32C5.87 7.32 5.76 7.26 5.7 7.14L4.15 4.68L3.46 4.68C3.35 4.68 3.26 4.64 3.19 4.57C3.11 4.49 3.08 4.41 3.08 4.31C3.08 4.2 3.11 4.11 3.19 4.04C3.26 3.97 3.35 3.94 3.46 3.94L4.35 3.94C4.5 3.94 4.6 3.99 4.67 4.09L6.01 6.23L7.34 4.12C7.41 4 7.52 3.94 7.66 3.94L8.56 3.94C8.65 3.94 8.74 3.97 8.82 4.04C8.89 4.11 8.92 4.2 8.92 4.31C8.92 4.41 8.89 4.49 8.82 4.57C8.74 4.64 8.65 4.68 8.56 4.68L7.87 4.68L6.34 7.15C6.27 7.26 6.16 7.32 6.02 7.32Z" fill="#666666" fill-opacity="1.000000" fill-rule="nonzero"/>
	</g>
</svg>
