<svg width="16.000000" height="16.000000" viewBox="0 0 16 16" fill="none" xmlns="http://www.w3.org/2000/svg" xmlns:xlink="http://www.w3.org/1999/xlink">
	<desc>
			Created with Pixso.
	</desc>
	<defs>
		<clipPath id="clip79_5740">
			<rect width="16.000000" height="16.000000" fill="white" fill-opacity="0"/>
		</clipPath>
	</defs>
	<g clip-path="url(#clip79_5740)">
		<circle cx="7.999939" cy="8.000000" r="7.333333" fill="#000000" fill-opacity="0.098039"/>
		<path d="M5.39 4.76C5.22 4.59 4.94 4.59 4.76 4.76C4.59 4.94 4.59 5.22 4.76 5.39L7.37 7.99L4.76 10.6C4.59 10.77 4.59 11.05 4.76 11.23C4.94 11.4 5.22 11.4 5.39 11.23L8 8.62L10.6 11.22C10.77 11.4 11.05 11.4 11.23 11.22C11.4 11.05 11.4 10.77 11.23 10.59L8.62 7.99L11.22 5.39C11.4 5.22 11.4 4.94 11.22 4.76C11.05 4.59 10.77 4.59 10.59 4.76L7.99 7.37L5.39 4.76Z" fill="#000000" fill-opacity="0.600000" fill-rule="evenodd"/>
	</g>
</svg>
