<svg width="24.000000" height="24.000000" viewBox="0 0 24 24" fill="none" xmlns="http://www.w3.org/2000/svg" xmlns:xlink="http://www.w3.org/1999/xlink">
	<desc>
			Created with Pixso.
	</desc>
	<defs>
		<clipPath id="clip121_4792">
			<rect id="svg" width="24.000000" height="24.000000" fill="white" fill-opacity="0"/>
		</clipPath>
	</defs>
	<g clip-path="url(#clip121_4792)">
		<g opacity="0.000000">
			<rect id="rect" width="24.000000" height="24.000000" fill="#000000" fill-opacity="1.000000"/>
		</g>
		<path id="path" d="M9.71 2.26C8.96 2.26 8.27 2.45 7.63 2.83C7.01 3.23 6.53 3.76 6.18 4.42L8.04 4.42C8.52 3.98 9.08 3.77 9.71 3.77L17.74 3.77C18.42 3.77 19.01 4.01 19.5 4.5C19.98 4.98 20.23 5.57 20.23 6.26L20.23 14.26C20.23 14.9 20 15.46 19.56 15.94L19.56 17.78C20.21 17.44 20.73 16.96 21.13 16.33C21.52 15.69 21.72 15 21.72 14.26L21.72 6.26C21.72 5.54 21.54 4.87 21.17 4.26C20.82 3.64 20.33 3.16 19.73 2.8C19.12 2.44 18.45 2.26 17.74 2.26L9.71 2.26ZM15.26 7.21C15.67 7.21 16.03 7.37 16.32 7.67C16.6 7.96 16.75 8.32 16.75 8.73L16.75 18.71C16.75 19.13 16.6 19.49 16.32 19.79C16.03 20.08 15.67 20.23 15.26 20.23L5.26 20.23C4.84 20.23 4.48 20.08 4.19 19.79C3.91 19.49 3.77 19.13 3.77 18.71L3.77 8.73C3.77 8.32 3.91 7.96 4.19 7.67C4.48 7.37 4.84 7.21 5.26 7.21L15.26 7.21ZM5.26 5.73C4.42 5.73 3.71 6.03 3.13 6.6C2.55 7.19 2.26 7.9 2.26 8.73L2.26 18.71C2.26 19.55 2.55 20.26 3.13 20.84C3.71 21.42 4.42 21.72 5.26 21.72L15.26 21.72C16.09 21.72 16.8 21.42 17.38 20.84C17.96 20.26 18.26 19.55 18.26 18.71L18.26 8.73C18.26 7.9 17.96 7.19 17.38 6.6C16.8 6.03 16.09 5.73 15.26 5.73L5.26 5.73Z" fill="#000000" fill-opacity="0.898039" fill-rule="nonzero"/>
		<path id="path" d="M9.42 13.08L6.18 13.08C5.98 13.08 5.8 13.15 5.65 13.29C5.52 13.43 5.44 13.61 5.44 13.81C5.44 14.03 5.52 14.21 5.65 14.35C5.8 14.49 5.98 14.56 6.18 14.56L9.42 14.56L10.93 14.56L14.17 14.56C14.39 14.56 14.57 14.49 14.72 14.35C14.87 14.21 14.95 14.03 14.95 13.81C14.95 13.61 14.87 13.43 14.72 13.29C14.57 13.15 14.39 13.08 14.17 13.08L10.93 13.08L9.42 13.08Z" fill="#000000" fill-opacity="0.898039" fill-rule="evenodd"/>
	</g>
</svg>
