<svg width="16.000000" height="16.000000" viewBox="0 0 16 16" fill="none" xmlns="http://www.w3.org/2000/svg" xmlns:xlink="http://www.w3.org/1999/xlink">
	<desc>
			Created with Pixso.
	</desc>
	<defs>
		<clipPath id="clip48_2921">
			<rect width="16.000000" height="16.000000" fill="white" fill-opacity="0"/>
		</clipPath>
	</defs>
	<g clip-path="url(#clip48_2921)">
		<g opacity="0.000000">
			<rect width="16.000000" height="16.000000" fill="#000000" fill-opacity="1.000000"/>
		</g>
		<path d="M8.9 14.77C9.01 14.77 9.1 14.74 9.17 14.7C9.31 14.64 9.41 14.56 9.48 14.45C9.56 14.33 9.6 14.2 9.6 14.06L9.6 8.68L14.37 3.52C14.6 3.27 14.72 2.96 14.72 2.6C14.72 2.41 14.68 2.22 14.61 2.05C14.5 1.79 14.33 1.59 14.11 1.44C13.89 1.3 13.64 1.22 13.36 1.22L2.64 1.22C2.36 1.22 2.11 1.3 1.89 1.45C1.66 1.6 1.49 1.8 1.39 2.05C1.31 2.2 1.28 2.39 1.28 2.6C1.28 2.96 1.39 3.27 1.63 3.52L6.38 8.68L6.38 12.3C6.38 12.56 6.47 12.77 6.65 12.92L8.42 14.58C8.55 14.7 8.71 14.77 8.9 14.77ZM7.38 8.29L2.37 2.85C2.3 2.77 2.27 2.68 2.27 2.59C2.27 2.53 2.28 2.48 2.3 2.44C2.31 2.39 2.35 2.34 2.4 2.3C2.46 2.24 2.54 2.21 2.64 2.21L13.36 2.21C13.5 2.21 13.62 2.29 13.7 2.44C13.72 2.48 13.73 2.54 13.73 2.6C13.73 2.69 13.69 2.77 13.63 2.85L8.61 8.29L8.61 13.37L7.39 12.24L7.38 8.29Z" fill="#E4480C" fill-opacity="1.000000" fill-rule="nonzero"/>
	</g>
</svg>
