<svg width="24.000000" height="24.000000" viewBox="0 0 24 24" fill="none" xmlns="http://www.w3.org/2000/svg" xmlns:xlink="http://www.w3.org/1999/xlink">
	<desc>
			Created with Pixso.
	</desc>
	<defs>
		<clipPath id="clip5_862">
			<rect width="24.000000" height="24.000000" fill="white" fill-opacity="0"/>
		</clipPath>
	</defs>
	<g clip-path="url(#clip5_862)">
		<path d="M8.51129 4.69141C8.51129 4.95996 8.24597 5.229 7.84674 5.229C7.51453 5.229 7.18225 5.02539 7.18213 4.68848L7.18213 2.53467C7.18213 2.26611 7.44751 1.99707 7.84674 1.99707C8.17902 1.99707 8.51129 2.19824 8.51129 2.53467L8.51129 4.69141ZM16.4857 4.69141C16.4857 4.95996 16.2203 5.229 15.821 5.229C15.4886 5.229 15.1566 5.02539 15.1566 4.68848L15.1566 2.53467C15.1566 2.26611 15.4218 1.99707 15.821 1.99707C16.2203 1.99707 16.4857 2.19824 16.4857 2.53467L16.4857 4.69141ZM18.2114 3.07812L17.8122 3.07812C17.4131 3.07812 17.1477 3.41504 17.1477 3.75195C17.1477 4.15625 17.48 4.42529 17.8122 4.42529L18.2114 4.42529C19.4736 4.42529 20.6044 5.43555 20.6044 6.78271L20.6044 18.1626C20.6044 19.4419 19.5407 20.52 18.2114 20.52L5.7193 20.52C4.45721 20.52 3.32654 19.4419 3.32654 18.1626L3.32654 6.85059C3.32654 5.57129 4.39014 4.49316 5.65228 4.49316C6.05151 4.49316 6.31696 4.15625 6.31696 3.81934C6.31696 3.41504 6.05151 3.146 5.65228 3.146C3.66132 3.07812 2 4.76172 2 6.8501L2 18.23C2 20.3184 3.66138 22.0024 5.7218 22.0024L18.2781 22.0024C20.3387 22.0024 22 20.3184 22 18.23L22 6.85059C21.9332 4.76172 20.272 3.07812 18.2114 3.07812ZM13.8275 4.48779L9.84027 4.48779C9.508 4.48779 9.24274 4.21875 9.24261 3.81396C9.24261 3.47705 9.508 3.14062 9.84027 3.14062L13.8275 3.14062C14.1596 3.14062 14.4251 3.40967 14.4251 3.81396C14.4251 4.15088 14.1596 4.48779 13.8275 4.48779ZM16.523 10.3418L16.523 9.18604L12.7675 9.18604L12.7675 8.06006L11.4728 8.06006L11.4728 9.18604L7.69751 9.18604L7.69751 10.3418L11.4728 10.3418L11.4728 11.4458L8.25342 11.4458L8.25342 12.5923L15.9646 12.5923L15.9646 11.4458L12.7675 11.4458L12.7675 10.3418L16.523 10.3418ZM8.5993 17.377L9.87421 17.377L9.87421 16.9609L14.3463 16.9609L14.3463 17.377L15.6212 17.377L15.6212 13.3125L8.5993 13.3125L8.5993 17.377ZM14.3463 14.498L14.3463 15.8369L9.87421 15.8369L9.87421 14.498L14.3463 14.498Z" clip-rule="evenodd" fill="#FFFFFF" fill-opacity="0.600000" fill-rule="evenodd"/>
	</g>
</svg>
