<svg width="24.000000" height="24.000000" viewBox="0 0 24 24" fill="none" xmlns="http://www.w3.org/2000/svg" xmlns:xlink="http://www.w3.org/1999/xlink">
	<desc>
			Created with Pixso.
	</desc>
	<defs>
		<clipPath id="clip6_852">
			<rect width="24.000000" height="24.000000" fill="white" fill-opacity="0"/>
		</clipPath>
	</defs>
	<g clip-path="url(#clip6_852)">
		<path d="M14.62 3L9.37 3C8.64 3 8.06 3.58 8.06 4.31L8.06 5.43C8.06 6.16 8.64 6.75 9.37 6.75L14.62 6.75C15.34 6.75 15.93 6.16 15.93 5.43L15.93 4.31C15.93 3.58 15.34 3 14.62 3ZM6.93 5.43L6.93 4.52C5.56 4.7 4.5 5.88 4.5 7.31L4.5 18.18C4.5 19.74 5.75 21 7.31 21L16.68 21C18.24 21 19.5 19.74 19.5 18.18L19.5 7.31C19.5 5.88 18.43 4.7 17.06 4.52L17.06 5.43C17.06 5.6 17.04 5.77 17.01 5.93C16.97 6.09 16.93 6.24 16.87 6.38C16.8 6.52 16.73 6.66 16.65 6.79C16.56 6.92 16.46 7.04 16.34 7.16C16.23 7.27 16.11 7.37 15.97 7.46C15.85 7.54 15.71 7.62 15.57 7.68C15.42 7.74 15.27 7.79 15.12 7.82C14.96 7.85 14.79 7.87 14.62 7.87L9.37 7.87C9.2 7.87 9.03 7.85 8.87 7.82C8.72 7.79 8.57 7.74 8.42 7.68C8.28 7.62 8.14 7.54 8.02 7.46C7.88 7.37 7.76 7.27 7.65 7.16C7.53 7.04 7.43 6.92 7.34 6.79C7.26 6.66 7.19 6.52 7.12 6.38C7.06 6.24 7.02 6.09 6.98 5.93C6.95 5.77 6.93 5.6 6.93 5.43ZM7.96 10.5C7.96 10.13 8.26 9.84 8.62 9.84C8.98 9.84 9.28 10.13 9.28 10.5C9.28 10.86 8.98 11.15 8.62 11.15C8.26 11.15 7.96 10.86 7.96 10.5ZM15.37 9.93L10.87 9.93C10.56 9.93 10.31 10.18 10.31 10.5C10.31 10.81 10.56 11.06 10.87 11.06L15.37 11.06C15.68 11.06 15.93 10.81 15.93 10.5C15.93 10.18 15.68 9.93 15.37 9.93ZM8.62 14.53C8.98 14.53 9.28 14.23 9.28 13.87C9.28 13.51 8.98 13.21 8.62 13.21C8.26 13.21 7.96 13.51 7.96 13.87C7.96 14.23 8.26 14.53 8.62 14.53ZM15.37 13.31L10.87 13.31C10.56 13.31 10.31 13.56 10.31 13.87C10.31 14.19 10.56 14.43 10.87 14.43L15.37 14.43C15.68 14.43 15.93 14.19 15.93 13.87C15.93 13.56 15.68 13.31 15.37 13.31ZM7.96 17.25C7.96 16.88 8.26 16.59 8.62 16.59C8.98 16.59 9.28 16.88 9.28 17.25C9.28 17.61 8.98 17.9 8.62 17.9C8.26 17.9 7.96 17.61 7.96 17.25ZM15.37 16.68L10.87 16.68C10.56 16.68 10.31 16.93 10.31 17.25C10.31 17.56 10.56 17.81 10.87 17.81L15.37 17.81C15.68 17.81 15.93 17.56 15.93 17.25C15.93 16.93 15.68 16.68 15.37 16.68Z" fill="#EE3B55" fill-opacity="1.000000" fill-rule="evenodd"/>
	</g>
</svg>
