<svg width="24.000000" height="24.000000" viewBox="0 0 24 24" fill="none" xmlns="http://www.w3.org/2000/svg" xmlns:xlink="http://www.w3.org/1999/xlink">
	<desc>
			Created with Pixso.
	</desc>
	<defs>
		<clipPath id="clip6_802">
			<rect width="24.000000" height="24.000000" fill="white" fill-opacity="0"/>
		</clipPath>
	</defs>
	<g clip-path="url(#clip6_802)">
		<g opacity="0.600000">
			<path d="M16.18 4.34L16.18 5.87C16.18 5.96 16.17 6.05 16.15 6.14C16.13 6.23 16.1 6.31 16.07 6.39C16.04 6.47 16 6.54 15.95 6.6C15.9 6.68 15.85 6.75 15.78 6.81C15.72 6.88 15.65 6.94 15.57 6.99C15.5 7.03 15.43 7.07 15.36 7.1C15.28 7.14 15.19 7.16 15.11 7.18C15.02 7.2 14.93 7.21 14.84 7.21L9.47 7.21C9.38 7.21 9.28 7.2 9.19 7.18C9.11 7.16 9.03 7.13 8.95 7.1C8.87 7.07 8.8 7.03 8.73 6.98C8.66 6.93 8.59 6.88 8.52 6.81C8.46 6.75 8.41 6.68 8.36 6.61C8.31 6.54 8.27 6.47 8.24 6.39C8.21 6.31 8.18 6.23 8.16 6.15C8.14 6.06 8.13 5.96 8.13 5.87L8.13 4.34C8.13 4.24 8.14 4.14 8.17 4.04C8.18 3.96 8.21 3.89 8.24 3.81C8.27 3.73 8.31 3.66 8.36 3.59C8.41 3.52 8.46 3.45 8.53 3.39C8.59 3.32 8.66 3.27 8.73 3.22C8.8 3.17 8.87 3.13 8.95 3.1C9.03 3.07 9.1 3.04 9.18 3.03C9.28 3.01 9.37 3 9.47 3L14.84 3C14.93 3 15.02 3 15.12 3.02C15.2 3.04 15.28 3.07 15.36 3.1C15.43 3.13 15.51 3.17 15.58 3.22C15.65 3.27 15.72 3.32 15.78 3.39C15.85 3.45 15.9 3.52 15.95 3.59C16 3.66 16.04 3.73 16.07 3.81C16.1 3.89 16.13 3.97 16.15 4.05C16.17 4.14 16.18 4.24 16.18 4.34ZM15.03 5.87L15.01 4.26C14.99 4.24 14.86 4.15 14.84 4.14L9.47 4.14C9.44 4.14 9.42 4.15 9.39 4.16C9.37 4.17 9.32 4.24 9.3 4.25C9.29 4.28 9.28 4.31 9.28 4.34L9.28 5.87C9.28 5.89 9.33 5.98 9.34 6C9.36 6.02 9.45 6.05 9.47 6.06L14.84 6.06C14.86 6.06 14.95 6.01 14.97 6C14.99 5.98 15.02 5.89 15.03 5.87ZM6.73 4.6C6.82 4.58 6.9 4.56 6.98 4.55L6.96 5.72C6.87 5.74 6.78 5.77 6.7 5.81C6.6 5.85 6.51 5.9 6.42 5.96C6.32 6.02 6.23 6.1 6.15 6.18C6.06 6.26 5.99 6.36 5.92 6.45C5.87 6.54 5.82 6.63 5.78 6.73C5.74 6.81 5.71 6.9 5.69 6.99C5.66 7.13 5.64 7.26 5.64 7.4L5.64 18.12C5.64 18.26 5.66 18.39 5.69 18.51C5.71 18.61 5.74 18.7 5.78 18.79C5.82 18.89 5.87 18.98 5.92 19.06C5.99 19.16 6.06 19.26 6.15 19.34C6.23 19.43 6.33 19.5 6.43 19.57C6.51 19.62 6.6 19.67 6.7 19.71C6.79 19.75 6.88 19.78 6.97 19.8C7.1 19.83 7.23 19.85 7.37 19.85L16.94 19.85C17.07 19.85 17.2 19.83 17.32 19.8C17.42 19.78 17.52 19.75 17.61 19.71C17.71 19.67 17.79 19.62 17.88 19.57C17.98 19.5 18.07 19.43 18.16 19.34C18.25 19.25 18.32 19.16 18.39 19.06C18.44 18.97 18.49 18.89 18.53 18.79C18.57 18.7 18.6 18.6 18.62 18.51C18.65 18.38 18.67 18.25 18.67 18.12L18.67 7.4C18.67 7.26 18.65 7.13 18.62 7C18.6 6.91 18.57 6.82 18.53 6.73C18.49 6.63 18.44 6.54 18.39 6.46C18.32 6.36 18.25 6.27 18.16 6.18C18.07 6.09 17.98 6.02 17.88 5.95C17.8 5.9 17.71 5.85 17.61 5.81C17.52 5.77 17.42 5.74 17.32 5.72L17.32 4.55C17.4 4.56 17.48 4.58 17.56 4.59C17.73 4.63 17.9 4.68 18.06 4.75C18.22 4.82 18.38 4.9 18.52 5C18.68 5.11 18.83 5.23 18.97 5.37C19.11 5.51 19.23 5.66 19.34 5.82C19.44 5.96 19.52 6.12 19.59 6.28C19.66 6.44 19.71 6.61 19.75 6.77C19.79 6.98 19.81 7.19 19.81 7.4L19.81 18.12C19.81 18.33 19.79 18.54 19.75 18.73C19.71 18.91 19.66 19.08 19.59 19.24C19.52 19.4 19.44 19.56 19.34 19.7C19.24 19.86 19.11 20.01 18.97 20.15C18.83 20.29 18.68 20.42 18.52 20.52C18.38 20.62 18.22 20.7 18.06 20.77C17.89 20.84 17.73 20.89 17.55 20.93C17.35 20.97 17.15 21 16.94 21L7.37 21C7.15 21 6.94 20.97 6.74 20.93C6.57 20.89 6.41 20.84 6.25 20.77C6.08 20.7 5.93 20.62 5.78 20.52C5.62 20.41 5.47 20.29 5.34 20.15C5.2 20.01 5.07 19.87 4.97 19.71C4.87 19.56 4.79 19.4 4.72 19.24C4.65 19.08 4.6 18.91 4.56 18.74Q4.5 18.44 4.5 18.12L4.5 7.4C4.5 7.18 4.52 6.97 4.56 6.77C4.6 6.6 4.65 6.44 4.72 6.28C4.79 6.12 4.87 5.96 4.97 5.81C5.08 5.65 5.2 5.5 5.34 5.37C5.47 5.23 5.62 5.11 5.78 5C5.93 4.91 6.08 4.82 6.25 4.75C6.41 4.69 6.57 4.63 6.73 4.6ZM8.71 9.31C8.28 9.31 7.94 9.66 7.94 10.08C7.94 10.5 8.28 10.85 8.71 10.85C9.13 10.85 9.47 10.5 9.47 10.08C9.47 9.66 9.13 9.31 8.71 9.31ZM11.01 9.51L15.6 9.51C15.92 9.51 16.18 9.76 16.18 10.08C16.18 10.4 15.92 10.65 15.6 10.65L11.01 10.65C10.68 10.65 10.43 10.4 10.43 10.08C10.43 9.76 10.68 9.51 11.01 9.51ZM8.71 12.76C8.28 12.76 7.94 13.1 7.94 13.53C7.94 13.95 8.28 14.29 8.71 14.29C9.13 14.29 9.47 13.95 9.47 13.53C9.47 13.1 9.13 12.76 8.71 12.76ZM11.01 12.95L15.6 12.95C15.92 12.95 16.18 13.21 16.18 13.53C16.18 13.85 15.92 14.1 15.6 14.1L11.01 14.1C10.68 14.1 10.43 13.85 10.43 13.53C10.43 13.21 10.68 12.95 11.01 12.95ZM7.94 16.97C7.94 16.55 8.28 16.21 8.71 16.21C9.13 16.21 9.47 16.55 9.47 16.97C9.47 17.4 9.13 17.74 8.71 17.74C8.28 17.74 7.94 17.4 7.94 16.97ZM11.01 16.4L15.6 16.4C15.92 16.4 16.18 16.65 16.18 16.97C16.18 17.3 15.92 17.55 15.6 17.55L11.01 17.55C10.68 17.55 10.43 17.3 10.43 16.97C10.43 16.65 10.68 16.4 11.01 16.4Z" fill="#000000" fill-opacity="1.000000" fill-rule="evenodd"/>
			<path d="M6.73 4.6C6.57 4.63 6.41 4.69 6.25 4.75C6.08 4.82 5.93 4.91 5.78 5C5.62 5.11 5.47 5.23 5.34 5.37C5.2 5.5 5.08 5.65 4.97 5.81C4.87 5.96 4.79 6.12 4.72 6.28C4.65 6.44 4.6 6.6 4.56 6.77C4.52 6.97 4.5 7.18 4.5 7.4L4.5 18.12C4.5 18.33 4.52 18.54 4.56 18.74C4.6 18.91 4.65 19.08 4.72 19.24C4.79 19.4 4.87 19.56 4.97 19.71C5.07 19.87 5.2 20.01 5.34 20.15C5.47 20.29 5.62 20.41 5.78 20.52C5.93 20.62 6.08 20.7 6.25 20.77C6.41 20.84 6.57 20.89 6.74 20.93C6.94 20.97 7.15 21 7.37 21L16.94 21C17.15 21 17.35 20.97 17.55 20.93C17.73 20.89 17.89 20.84 18.06 20.77C18.22 20.7 18.38 20.62 18.52 20.52C18.68 20.42 18.83 20.29 18.97 20.15C19.11 20.01 19.24 19.86 19.34 19.7C19.44 19.56 19.52 19.4 19.59 19.24C19.66 19.08 19.71 18.91 19.75 18.73C19.79 18.54 19.81 18.33 19.81 18.12L19.81 7.4C19.81 7.19 19.79 6.98 19.75 6.77C19.71 6.61 19.66 6.44 19.59 6.28C19.52 6.12 19.44 5.96 19.34 5.82C19.23 5.66 19.11 5.51 18.97 5.37C18.83 5.23 18.68 5.11 18.52 5C18.38 4.9 18.22 4.82 18.06 4.75C17.9 4.68 17.73 4.63 17.56 4.59C17.48 4.58 17.4 4.56 17.32 4.55L17.32 5.72C17.42 5.74 17.52 5.77 17.61 5.81C17.71 5.85 17.8 5.9 17.88 5.95C17.98 6.02 18.07 6.09 18.16 6.18C18.25 6.27 18.32 6.36 18.39 6.46C18.44 6.54 18.49 6.63 18.53 6.73C18.57 6.82 18.6 6.91 18.62 7C18.65 7.13 18.67 7.26 18.67 7.4L18.67 18.12C18.67 18.25 18.65 18.38 18.62 18.51C18.6 18.6 18.57 18.7 18.53 18.79C18.49 18.89 18.44 18.97 18.39 19.06C18.32 19.16 18.25 19.25 18.16 19.34C18.07 19.43 17.98 19.5 17.88 19.57C17.79 19.62 17.71 19.67 17.61 19.71C17.52 19.75 17.42 19.78 17.32 19.8C17.2 19.83 17.07 19.85 16.94 19.85L7.37 19.85C7.23 19.85 7.1 19.83 6.97 19.8C6.88 19.78 6.79 19.75 6.7 19.71C6.6 19.67 6.51 19.62 6.43 19.57C6.33 19.5 6.23 19.43 6.15 19.34C6.06 19.26 5.99 19.16 5.92 19.06C5.87 18.98 5.82 18.89 5.78 18.79C5.74 18.7 5.71 18.61 5.69 18.51C5.66 18.39 5.64 18.26 5.64 18.12L5.64 7.4C5.64 7.26 5.66 7.13 5.69 6.99C5.71 6.9 5.74 6.81 5.78 6.73C5.82 6.63 5.87 6.54 5.92 6.45C5.99 6.36 6.06 6.26 6.15 6.18C6.23 6.1 6.32 6.02 6.42 5.96C6.51 5.9 6.6 5.85 6.7 5.81C6.78 5.77 6.87 5.74 6.96 5.72L6.98 4.55C6.9 4.56 6.82 4.58 6.73 4.6ZM16.18 4.34C16.18 4.24 16.17 4.14 16.15 4.05C16.13 3.97 16.1 3.89 16.07 3.81C16.04 3.73 16 3.66 15.95 3.59C15.9 3.52 15.85 3.45 15.78 3.39C15.72 3.32 15.65 3.27 15.58 3.22C15.51 3.17 15.43 3.13 15.36 3.1C15.28 3.07 15.2 3.04 15.12 3.02C15.02 3 14.93 3 14.84 3L9.47 3C9.37 3 9.28 3.01 9.18 3.03C9.1 3.04 9.03 3.07 8.95 3.1C8.87 3.13 8.8 3.17 8.73 3.22C8.66 3.27 8.59 3.32 8.53 3.39C8.46 3.45 8.41 3.52 8.36 3.59C8.31 3.66 8.27 3.73 8.24 3.81C8.21 3.89 8.18 3.96 8.17 4.04C8.14 4.14 8.13 4.24 8.13 4.34L8.13 5.87C8.13 5.96 8.14 6.06 8.16 6.15C8.18 6.23 8.21 6.31 8.24 6.39C8.27 6.47 8.31 6.54 8.36 6.61C8.41 6.68 8.46 6.75 8.52 6.81C8.59 6.88 8.66 6.93 8.73 6.98C8.8 7.03 8.87 7.07 8.95 7.1C9.03 7.13 9.11 7.16 9.19 7.18C9.28 7.2 9.38 7.21 9.47 7.21L14.84 7.21C14.93 7.21 15.02 7.2 15.11 7.18C15.19 7.16 15.28 7.14 15.36 7.1C15.43 7.07 15.5 7.03 15.57 6.99C15.65 6.94 15.72 6.88 15.78 6.81C15.85 6.75 15.9 6.68 15.95 6.6C16 6.54 16.04 6.47 16.07 6.39C16.1 6.31 16.13 6.23 16.15 6.14C16.17 6.05 16.18 5.96 16.18 5.87L16.18 4.34ZM15.03 5.87C15.02 5.89 14.99 5.98 14.97 6C14.95 6.01 14.86 6.06 14.84 6.06L9.47 6.06C9.45 6.05 9.36 6.02 9.34 6C9.33 5.98 9.28 5.89 9.28 5.87L9.28 4.34C9.28 4.31 9.29 4.28 9.3 4.25C9.32 4.24 9.37 4.17 9.39 4.16C9.42 4.15 9.44 4.14 9.47 4.14L14.84 4.14C14.86 4.15 14.99 4.24 15.01 4.26L15.03 5.87ZM15.6 9.51C15.92 9.51 16.18 9.76 16.18 10.08C16.18 10.4 15.92 10.65 15.6 10.65L11.01 10.65C10.68 10.65 10.43 10.4 10.43 10.08C10.43 9.76 10.68 9.51 11.01 9.51L15.6 9.51ZM15.6 12.95C15.92 12.95 16.18 13.21 16.18 13.53C16.18 13.85 15.92 14.1 15.6 14.1L11.01 14.1C10.68 14.1 10.43 13.85 10.43 13.53C10.43 13.21 10.68 12.95 11.01 12.95L15.6 12.95ZM15.6 16.4C15.92 16.4 16.18 16.65 16.18 16.97C16.18 17.3 15.92 17.55 15.6 17.55L11.01 17.55C10.68 17.55 10.43 17.3 10.43 16.97C10.43 16.65 10.68 16.4 11.01 16.4L15.6 16.4ZM8.71 9.31C9.13 9.31 9.47 9.66 9.47 10.08C9.47 10.5 9.13 10.85 8.71 10.85C8.28 10.85 7.94 10.5 7.94 10.08C7.94 9.66 8.28 9.31 8.71 9.31ZM8.71 12.76C9.13 12.76 9.47 13.1 9.47 13.53C9.47 13.95 9.13 14.29 8.71 14.29C8.28 14.29 7.94 13.95 7.94 13.53C7.94 13.1 8.28 12.76 8.71 12.76ZM7.94 16.97C7.94 17.4 8.28 17.74 8.71 17.74C9.13 17.74 9.47 17.4 9.47 16.97C9.47 16.55 9.13 16.21 8.71 16.21C8.28 16.21 7.94 16.55 7.94 16.97Z" stroke="#000000" stroke-opacity="0" stroke-width="1.000000"/>
		</g>
	</g>
</svg>
