<svg width="38.000000" height="42.000000" viewBox="0 0 38 42" fill="none" xmlns="http://www.w3.org/2000/svg" xmlns:xlink="http://www.w3.org/1999/xlink">
	<desc>
			Created with Pixso.
	</desc>
	<defs>
		<linearGradient x1="1.536589" y1="8.399963" x2="1.536589" y2="33.599979" id="paint_linear_101_3813_0" gradientUnits="userSpaceOnUse">
			<stop stop-color="#5BA854"/>
			<stop offset="1.000000" stop-color="#FFFFFF"/>
		</linearGradient>
		<linearGradient x1="7.219450" y1="4.200012" x2="7.219450" y2="37.800007" id="paint_linear_101_3814_0" gradientUnits="userSpaceOnUse">
			<stop stop-color="#5BA854"/>
			<stop offset="1.000000" stop-color="#FFFFFF"/>
		</linearGradient>
		<linearGradient x1="24.682924" y1="0.000000" x2="24.682924" y2="42.000000" id="paint_linear_101_3815_0" gradientUnits="userSpaceOnUse">
			<stop stop-color="#5BA854"/>
			<stop offset="1.000000" stop-color="#FFFFFF"/>
		</linearGradient>
	</defs>
	<g opacity="0.250000">
		<path d="M3.07 33.59L3.07 8.39C2.21 8.39 1.49 8.7 0.89 9.31C0.29 9.93 -0.01 10.67 0 11.55L0 30.45C0 31.32 0.29 32.06 0.89 32.68C1.49 33.29 2.21 33.6 3.07 33.59Z" fill="#5BA854" fill-opacity="1.000000" fill-rule="nonzero"/>
		<path d="M3.07 33.59L3.07 8.39C2.21 8.39 1.49 8.7 0.89 9.31C0.29 9.93 -0.01 10.67 0 11.55L0 30.45C0 31.32 0.29 32.06 0.89 32.68C1.49 33.29 2.21 33.6 3.07 33.59Z" fill="url(#paint_linear_101_3813_0)" fill-opacity="0.350000" fill-rule="nonzero"/>
	</g>
	<g opacity="0.500000">
		<path d="M9.26 37.8L9.26 4.2C8.14 4.2 7.17 4.61 6.37 5.43C5.57 6.25 5.16 7.24 5.17 8.4L5.17 33.59C5.17 34.75 5.57 35.74 6.37 36.56C7.17 37.39 8.14 37.8 9.26 37.8Z" fill="#5BA854" fill-opacity="1.000000" fill-rule="nonzero"/>
		<path d="M9.26 37.8L9.26 4.2C8.14 4.2 7.17 4.61 6.37 5.43C5.57 6.25 5.16 7.24 5.17 8.4L5.17 33.59C5.17 34.75 5.57 35.74 6.37 36.56C7.17 37.39 8.14 37.8 9.26 37.8Z" fill="url(#paint_linear_101_3814_0)" fill-opacity="0.350000" fill-rule="nonzero"/>
	</g>
	<path d="M33.9 42C35.02 42 35.99 41.58 36.79 40.76C37.59 39.94 37.99 38.95 38 37.8L38 4.19C38 3.04 37.59 2.05 36.79 1.23C35.99 0.41 35.02 0 33.9 0L15.46 0C14.33 0 13.37 0.41 12.56 1.23C11.76 2.05 11.36 3.04 11.36 4.19L11.36 37.8C11.36 38.95 11.76 39.94 12.56 40.76C13.37 41.59 14.33 42 15.46 42L33.9 42Z" fill="#5BA854" fill-opacity="1.000000" fill-rule="nonzero"/>
	<path d="M33.9 42C35.02 42 35.99 41.58 36.79 40.76C37.59 39.94 37.99 38.95 38 37.8L38 4.19C38 3.04 37.59 2.05 36.79 1.23C35.99 0.41 35.02 0 33.9 0L15.46 0C14.33 0 13.37 0.41 12.56 1.23C11.76 2.05 11.36 3.04 11.36 4.19L11.36 37.8C11.36 38.95 11.76 39.94 12.56 40.76C13.37 41.59 14.33 42 15.46 42L33.9 42Z" fill="url(#paint_linear_101_3815_0)" fill-opacity="0.350000" fill-rule="nonzero"/>
	<path d="M27.92 20.53C28.04 20.47 28.13 20.38 28.19 20.26C28.34 19.97 28.22 19.61 27.92 19.46L23.86 17.43C23.78 17.39 23.69 17.37 23.59 17.37C23.26 17.37 22.99 17.63 22.99 17.97L22.99 22.02C22.99 22.12 23.02 22.21 23.06 22.29C23.21 22.59 23.57 22.71 23.86 22.56L27.92 20.53ZM24.99 28C20.58 28 16.99 24.41 16.99 20C16.99 15.58 20.58 12 24.99 12C29.41 12 32.99 15.58 32.99 20C32.99 24.41 29.41 28 24.99 28Z" fill="#FFDC46" fill-opacity="1.000000" fill-rule="nonzero"/>
</svg>
