<svg width="36.862000" height="42.000000" viewBox="0 0 36.862 42" fill="none" xmlns="http://www.w3.org/2000/svg" xmlns:xlink="http://www.w3.org/1999/xlink">
	<desc>
			Created with Pixso.
	</desc>
	<defs>
		<linearGradient x1="17.800030" y1="0.000000" x2="17.800030" y2="39.200001" id="paint_linear_101_3794_0" gradientUnits="userSpaceOnUse">
			<stop stop-color="#67A1EE"/>
			<stop offset="1.000000" stop-color="#FFFFFF"/>
		</linearGradient>
	</defs>
	<rect y="2.799988" rx="4.000000" width="29.866661" height="39.200001" fill="#67A1EE" fill-opacity="0.250000"/>
	<rect x="2.866699" rx="4.000000" width="29.866661" height="39.200001" fill="#67A1EE" fill-opacity="1.000000"/>
	<rect x="2.866699" rx="4.000000" width="29.866661" height="39.200001" fill="url(#paint_linear_101_3794_0)" fill-opacity="0.300000"/>
	<path d="M7.6 3.73L13.06 3.73C13.61 3.73 14.06 4.18 14.06 4.73L14.06 16.13C14.06 17.04 12.95 17.48 12.33 16.82L11.06 15.46C10.66 15.04 9.99 15.04 9.6 15.46L8.32 16.82C7.7 17.48 6.6 17.04 6.6 16.13L6.6 4.73C6.6 4.18 7.04 3.73 7.6 3.73Z" fill="#E8F3FF" fill-opacity="1.000000" fill-rule="evenodd"/>
	<path d="M19.2274 21.2594C19.2274 20.3048 19.9865 19.531 20.923 19.531L35.1663 19.531C36.1028 19.531 36.862 20.3048 36.862 21.2594L36.862 31.1448C36.862 32.0994 36.1028 32.8732 35.1663 32.8732L27.43 32.8732C27.1783 32.8732 26.9299 32.9302 26.7028 33.0401L23.1421 34.7632C23.083 34.7919 23.0288 34.7843 22.9796 34.7404C22.9302 34.6965 22.9156 34.6428 22.9355 34.5793L23.1899 33.7263L23.3171 33.2997C23.3245 33.2751 23.3289 33.2498 23.3305 33.2241C23.3321 33.1983 23.3307 33.1727 23.3264 33.1473C23.3221 33.1218 23.3149 33.0972 23.305 33.0735C23.295 33.0498 23.2825 33.0276 23.2675 33.0068C23.2524 32.9861 23.2351 32.9674 23.2158 32.9508C23.1964 32.9342 23.1754 32.92 23.1528 32.9084C23.1301 32.8968 23.1065 32.888 23.0818 32.8821C23.0573 32.8761 23.0322 32.8732 23.007 32.8732L20.923 32.8732C19.9865 32.8732 19.2274 32.0994 19.2274 31.1448L19.2274 21.2594ZM28.4247 21.4479C28.295 21.2134 27.9637 21.2134 27.834 21.4479L26.5641 23.7445C26.5132 23.8363 26.4371 23.8927 26.3357 23.9137L23.8005 24.435C23.5416 24.4882 23.4392 24.8095 23.6179 25.0077L25.3683 26.9486C25.4384 27.0262 25.4674 27.1174 25.4555 27.2222L25.1586 29.8409C25.1282 30.1084 25.3963 30.307 25.6366 30.1948L27.9883 29.0978C28.0823 29.0539 28.1764 29.0539 28.2704 29.0978L30.6221 30.1948C30.8624 30.307 31.1304 30.1084 31.1001 29.8409L30.8032 27.2222C30.7913 27.1174 30.8204 27.0262 30.8903 26.9486L32.6407 25.0077C32.8195 24.8095 32.717 24.4882 32.4581 24.435L29.923 23.9137C29.8264 23.8938 29.7431 23.8319 29.6946 23.7445L28.4247 21.4479Z" clip-rule="evenodd" fill="#FFDC46" fill-opacity="1.000000" fill-rule="evenodd"/>
</svg>
