<?xml version="1.0" standalone="no"?><!DOCTYPE svg PUBLIC "-//W3C//DTD SVG 1.1//EN" "http://www.w3.org/Graphics/SVG/1.1/DTD/svg11.dtd"><svg t="1726217325241" class="icon" viewBox="0 0 1024 1024" version="1.1" xmlns="http://www.w3.org/2000/svg" p-id="7323" xmlns:xlink="http://www.w3.org/1999/xlink" width="200" height="200"><path d="M0 0m512 0l0 0q512 0 512 512l0 0q0 512-512 512l0 0q-512 0-512-512l0 0q0-512 512-512Z" fill="#000000" fill-opacity=".05" p-id="7324"></path><path d="M319.2832 295.150933L512 487.867733l192.7168-192.7168q2.389333-2.389333 5.563733-3.720533Q713.386667 290.133333 716.8 290.133333q1.706667 0 3.345067 0.341334t3.1744 0.955733q1.570133 0.648533 2.9696 1.570133 1.365333 0.955733 2.594133 2.116267 1.160533 1.194667 2.116267 2.594133 0.9216 1.399467 1.570133 2.9696 0.648533 1.536 0.955733 3.1744 0.341333 1.672533 0.341334 3.345067 0 3.413333-1.297067 6.519467-1.297067 3.140267-3.6864 5.563733L536.132267 512l192.750933 192.7168q2.389333 2.389333 3.6864 5.563733 1.297067 3.106133 1.297067 6.519467 0 1.706667-0.341334 3.345067t-0.955733 3.1744q-0.648533 1.570133-1.570133 2.9696-0.955733 1.365333-2.116267 2.594133-1.194667 1.160533-2.594133 2.116267-1.399467 0.9216-2.9696 1.570133-1.536 0.648533-3.1744 0.955733-1.672533 0.341333-3.345067 0.341334-3.413333 0-6.519467-1.297067-3.140267-1.297067-5.563733-3.6864L512 536.132267l-192.7168 192.750933q-2.389333 2.389333-5.563733 3.6864Q310.613333 733.866667 307.2 733.866667q-1.706667 0-3.345067-0.341334t-3.1744-0.955733q-1.570133-0.648533-2.9696-1.570133-1.365333-0.955733-2.594133-2.116267-1.160533-1.194667-2.116267-2.594133-0.9216-1.399467-1.570133-2.9696-0.648533-1.536-0.955733-3.1744-0.341333-1.672533-0.341334-3.345067 0-3.413333 1.297067-6.519467 1.297067-3.140267 3.6864-5.563733L487.901867 512 295.150933 319.2832q-2.389333-2.389333-3.720533-5.563733Q290.133333 310.613333 290.133333 307.2q0-1.706667 0.341334-3.345067t0.955733-3.1744q0.648533-1.570133 1.570133-2.9696 0.955733-1.365333 2.116267-2.594133 1.194667-1.160533 2.594133-2.116267 1.399467-0.9216 2.9696-1.570133 1.536-0.648533 3.1744-0.955733 1.672533-0.341333 3.345067-0.341334 3.413333 0 6.519467 1.297067 3.140267 1.297067 5.563733 3.6864z" fill="#000000" p-id="7325"></path></svg>