<svg width="38.000000" height="38.000000" viewBox="0 0 38 38" fill="none" xmlns="http://www.w3.org/2000/svg" xmlns:xlink="http://www.w3.org/1999/xlink">
	<desc>
			Created with Pixso.
	</desc>
	<defs/>
	<mask id="mask_20_2428" fill="white">
		<path d="M12 0C12.7594 0 13.387 0.564209 13.4863 1.29639L13.5 1.5L13.5 3.41602L24.5 3.41602L24.5 1.5C24.5 0.671631 25.1716 0 26 0C26.7594 0 27.387 0.564209 27.4863 1.29639L27.5 1.5L27.5 3.41602L31 3.41602C34.1954 3.41602 36.8074 5.91455 36.9899 9.06348L37 9.41602L37 12.5C37 13.3284 36.3284 14 35.5 14L7.72559 14C6.89709 14 6.22559 13.3284 6.22559 12.5C6.22559 11.7407 6.78992 11.113 7.52197 11.0137L7.72559 11L34 11L34 9.41602C34 7.85718 32.8102 6.5752 31.2889 6.42969L31 6.41602L7 6.41602C5.44067 6.41602 4.15906 7.6062 4.01379 9.1272L4 9.41602L4 31.584C4 33.1428 5.18982 34.4248 6.71106 34.5703L7 34.584L31 34.584C32.5593 34.584 33.8409 33.3938 33.9863 31.8728L34 31.584L34 17.606C34 16.7776 34.6716 16.106 35.5 16.106C36.2594 16.106 36.887 16.6704 36.9863 17.4023L37 17.606L37 31.584C37 34.7788 34.5023 37.3914 31.3525 37.5737L31 37.584L7 37.584C3.80457 37.584 1.19263 35.0854 1.01013 31.9365L1 31.584L1 9.41602C1 6.22119 3.49768 3.60864 6.64746 3.42627L7 3.41602L10.5 3.41602L10.5 1.5C10.5 0.671631 11.1716 0 12 0ZM13.9393 17.1895C14.5251 16.6035 15.4749 16.6035 16.0607 17.1895C16.3535 17.4822 16.5 17.8662 16.5 18.25C16.5 18.564 16.402 18.8782 16.2059 19.1423L16.0607 19.3105L11.7267 23.6445C11.1938 24.1775 10.3601 24.2256 9.77295 23.7893L9.60474 23.644L7.93872 21.9761C7.64624 21.6831 7.5 21.2996 7.5 20.916C7.5 20.5317 7.64673 20.1477 7.93994 19.8547C8.47278 19.3225 9.30615 19.2747 9.89319 19.7107L10.0613 19.856L10.6656 20.4604L13.9393 17.1895ZM29 19.416C29.8284 19.416 30.5 20.0876 30.5 20.916C30.5 21.6753 29.9357 22.303 29.2035 22.4023L29 22.416L20 22.416C19.1716 22.416 18.5 21.7444 18.5 20.916C18.5 20.1567 19.0643 19.5291 19.7965 19.4297L20 19.416L29 19.416ZM12 30.916L10 30.916C9.448 30.916 9 30.468 9 29.916L9 27.916C9 27.366 9.448 26.916 10 26.916L12 26.916C12.552 26.916 13 27.366 13 27.916L13 29.916C13 30.468 12.552 30.916 12 30.916ZM29 27.416C29.8284 27.416 30.5 28.0876 30.5 28.916C30.5 29.6753 29.9357 30.303 29.2035 30.4023L29 30.416L17 30.416C16.1716 30.416 15.5 29.7444 15.5 28.916C15.5 28.1567 16.0643 27.5291 16.7965 27.4297L17 27.416L29 27.416Z" clip-rule="evenodd" fill="" fill-opacity="1.000000" fill-rule="evenodd"/>
	</mask>
	<path d="M12 0C12.7594 0 13.387 0.564209 13.4863 1.29639L13.5 1.5L13.5 3.41602L24.5 3.41602L24.5 1.5C24.5 0.671631 25.1716 0 26 0C26.7594 0 27.387 0.564209 27.4863 1.29639L27.5 1.5L27.5 3.41602L31 3.41602C34.1954 3.41602 36.8074 5.91455 36.9899 9.06348L37 9.41602L37 12.5C37 13.3284 36.3284 14 35.5 14L7.72559 14C6.89709 14 6.22559 13.3284 6.22559 12.5C6.22559 11.7407 6.78992 11.113 7.52197 11.0137L7.72559 11L34 11L34 9.41602C34 7.85718 32.8102 6.5752 31.2889 6.42969L31 6.41602L7 6.41602C5.44067 6.41602 4.15906 7.6062 4.01379 9.1272L4 9.41602L4 31.584C4 33.1428 5.18982 34.4248 6.71106 34.5703L7 34.584L31 34.584C32.5593 34.584 33.8409 33.3938 33.9863 31.8728L34 31.584L34 17.606C34 16.7776 34.6716 16.106 35.5 16.106C36.2594 16.106 36.887 16.6704 36.9863 17.4023L37 17.606L37 31.584C37 34.7788 34.5023 37.3914 31.3525 37.5737L31 37.584L7 37.584C3.80457 37.584 1.19263 35.0854 1.01013 31.9365L1 31.584L1 9.41602C1 6.22119 3.49768 3.60864 6.64746 3.42627L7 3.41602L10.5 3.41602L10.5 1.5C10.5 0.671631 11.1716 0 12 0ZM13.9393 17.1895C14.5251 16.6035 15.4749 16.6035 16.0607 17.1895C16.3535 17.4822 16.5 17.8662 16.5 18.25C16.5 18.564 16.402 18.8782 16.2059 19.1423L16.0607 19.3105L11.7267 23.6445C11.1938 24.1775 10.3601 24.2256 9.77295 23.7893L9.60474 23.644L7.93872 21.9761C7.64624 21.6831 7.5 21.2996 7.5 20.916C7.5 20.5317 7.64673 20.1477 7.93994 19.8547C8.47278 19.3225 9.30615 19.2747 9.89319 19.7107L10.0613 19.856L10.6656 20.4604L13.9393 17.1895ZM29 19.416C29.8284 19.416 30.5 20.0876 30.5 20.916C30.5 21.6753 29.9357 22.303 29.2035 22.4023L29 22.416L20 22.416C19.1716 22.416 18.5 21.7444 18.5 20.916C18.5 20.1567 19.0643 19.5291 19.7965 19.4297L20 19.416L29 19.416ZM12 30.916L10 30.916C9.448 30.916 9 30.468 9 29.916L9 27.916C9 27.366 9.448 26.916 10 26.916L12 26.916C12.552 26.916 13 27.366 13 27.916L13 29.916C13 30.468 12.552 30.916 12 30.916ZM29 27.416C29.8284 27.416 30.5 28.0876 30.5 28.916C30.5 29.6753 29.9357 30.303 29.2035 30.4023L29 30.416L17 30.416C16.1716 30.416 15.5 29.7444 15.5 28.916C15.5 28.1567 16.0643 27.5291 16.7965 27.4297L17 27.416L29 27.416Z" clip-rule="evenodd" fill="#007DFF" fill-opacity="1.000000" fill-rule="evenodd" mask="url(#mask_20_2428)"/>
	<path d="" clip-rule="evenodd" fill="#979797" fill-opacity="0.000000" fill-rule="evenodd"/>
</svg>
