<svg width="38.000000" height="38.000000" viewBox="0 0 38 38" fill="none" xmlns="http://www.w3.org/2000/svg" xmlns:xlink="http://www.w3.org/1999/xlink">
	<desc>
			Created with Pixso.
	</desc>
	<defs/>
	<mask id="mask_20_2418" fill="white">
		<path d="M18.5532 1C23.2079 1 26.9812 4.77173 26.9812 9.42603C26.9812 15.563 24.8026 20.0166 21.1074 21.4858C20.3376 21.792 19.4655 21.416 19.1593 20.6462C18.8533 19.8765 19.2291 19.0042 19.999 18.6982C22.3673 17.7566 23.9812 14.4573 23.9812 9.42603C23.9812 6.42896 21.5513 4 18.5532 4C15.5551 4 13.1252 6.42896 13.1252 9.42603C13.1252 12.8674 14.2208 15.9739 15.8997 17.6863C16.0349 17.7903 16.1547 17.9194 16.2515 18.0718C16.6412 18.6858 16.5294 19.4751 16.0233 19.959C15.9246 20.0552 15.8158 20.135 15.7004 20.1987L7.95544 25.116C6.72241 25.8992 5.79602 27.074 5.3197 28.4451L5.19043 28.8621L4.05835 33.0183C3.80444 33.9502 4.44128 34.8687 5.36829 34.9871L5.57117 35L31.5352 35C32.5007 35 33.2195 34.1431 33.0908 33.2178L33.05 33.0188L31.9159 28.8618C31.5327 27.4546 30.6831 26.2229 29.5122 25.363L29.1515 25.1165L26.0375 23.1404C25.338 22.6965 25.1307 21.7698 25.5747 21.0703C25.9781 20.4343 26.7809 20.2053 27.449 20.5024L27.6449 20.6074L30.7594 22.5837C32.6056 23.7563 33.9833 25.5278 34.6653 27.5918L34.8103 28.073L35.9448 32.231C36.7067 35.0369 34.6945 37.8025 31.8438 37.9897L31.5352 38L5.57117 38C2.66235 38 0.523682 35.3298 1.09253 32.53L1.16394 32.2297L2.29626 28.0725C2.87244 25.9641 4.1582 24.1267 5.92981 22.8645L6.34717 22.5835L12.7219 18.5361C11.0784 16.2009 10.1252 12.9236 10.1252 9.42603C10.1252 4.77173 13.8986 1 18.5532 1Z" clip-rule="evenodd" fill="" fill-opacity="1.000000" fill-rule="evenodd"/>
	</mask>
	<path d="M18.5532 1C23.2079 1 26.9812 4.77173 26.9812 9.42603C26.9812 15.563 24.8026 20.0166 21.1074 21.4858C20.3376 21.792 19.4655 21.416 19.1593 20.6462C18.8533 19.8765 19.2291 19.0042 19.999 18.6982C22.3673 17.7566 23.9812 14.4573 23.9812 9.42603C23.9812 6.42896 21.5513 4 18.5532 4C15.5551 4 13.1252 6.42896 13.1252 9.42603C13.1252 12.8674 14.2208 15.9739 15.8997 17.6863C16.0349 17.7903 16.1547 17.9194 16.2515 18.0718C16.6412 18.6858 16.5294 19.4751 16.0233 19.959C15.9246 20.0552 15.8158 20.135 15.7004 20.1987L7.95544 25.116C6.72241 25.8992 5.79602 27.074 5.3197 28.4451L5.19043 28.8621L4.05835 33.0183C3.80444 33.9502 4.44128 34.8687 5.36829 34.9871L5.57117 35L31.5352 35C32.5007 35 33.2195 34.1431 33.0908 33.2178L33.05 33.0188L31.9159 28.8618C31.5327 27.4546 30.6831 26.2229 29.5122 25.363L29.1515 25.1165L26.0375 23.1404C25.338 22.6965 25.1307 21.7698 25.5747 21.0703C25.9781 20.4343 26.7809 20.2053 27.449 20.5024L27.6449 20.6074L30.7594 22.5837C32.6056 23.7563 33.9833 25.5278 34.6653 27.5918L34.8103 28.073L35.9448 32.231C36.7067 35.0369 34.6945 37.8025 31.8438 37.9897L31.5352 38L5.57117 38C2.66235 38 0.523682 35.3298 1.09253 32.53L1.16394 32.2297L2.29626 28.0725C2.87244 25.9641 4.1582 24.1267 5.92981 22.8645L6.34717 22.5835L12.7219 18.5361C11.0784 16.2009 10.1252 12.9236 10.1252 9.42603C10.1252 4.77173 13.8986 1 18.5532 1Z" clip-rule="evenodd" fill="#007DFF" fill-opacity="1.000000" fill-rule="evenodd" mask="url(#mask_20_2418)"/>
	<path d="" clip-rule="evenodd" fill="#979797" fill-opacity="0.000000" fill-rule="evenodd"/>
</svg>
