<svg width="38.000000" height="38.000000" viewBox="0 0 38 38" fill="none" xmlns="http://www.w3.org/2000/svg" xmlns:xlink="http://www.w3.org/1999/xlink">
	<desc>
			Created with Pixso.
	</desc>
	<defs/>
	<path d="M33.13 1.99L4.87 1.99C2.62 1.99 1 3.73 1 6.12L1 26.86C1 29.17 2.55 30.72 4.87 30.72L13.15 30.72L18.11 35.54C18.37 35.8 18.72 35.94 19.07 35.94C19.43 35.94 19.78 35.8 20.05 35.53L24.91 30.73L33.13 30.73C35.44 30.73 37 29.17 37 26.86L37 6.12C37 3.73 35.37 1.99 33.13 1.99ZM34.25 26.86C34.25 27.65 33.93 27.98 33.13 27.98L24.37 27.98C24.36 27.98 24.35 27.98 24.34 27.98C23.96 27.98 23.61 28.13 23.36 28.38L19.06 32.62L14.68 28.37C14.4 28.1 14.04 27.96 13.67 27.98L4.87 27.98C4.07 27.98 3.74 27.65 3.74 26.86L3.74 6.12C3.74 5.71 3.85 4.74 4.87 4.74L33.13 4.74C34.14 4.74 34.25 5.71 34.25 6.12L34.25 26.86Z" fill="#007DFF" fill-opacity="1.000000" fill-rule="nonzero"/>
	<path d="M8.27 16.22C8.27 17.56 9.36 18.66 10.7 18.66C12.05 18.66 13.14 17.56 13.14 16.22C13.14 14.87 12.05 13.78 10.7 13.78C9.36 13.78 8.27 14.87 8.27 16.22ZM16.95 16.22C16.95 17.56 18.04 18.66 19.38 18.66C20.73 18.66 21.82 17.56 21.82 16.22C21.82 14.87 20.73 13.78 19.38 13.78C18.04 13.78 16.95 14.87 16.95 16.22ZM25.57 16.19C25.57 17.53 26.66 18.62 28 18.62C29.35 18.62 30.44 17.53 30.44 16.19C30.44 14.84 29.35 13.75 28 13.75C26.66 13.75 25.57 14.84 25.57 16.19Z" fill="#007DFF" fill-opacity="1.000000" fill-rule="nonzero"/>
</svg>
