<svg width="38.000000" height="38.000000" viewBox="0 0 38 38" fill="none" xmlns="http://www.w3.org/2000/svg" xmlns:xlink="http://www.w3.org/1999/xlink">
	<desc>
			Created with Pixso.
	</desc>
	<defs>
		<clipPath id="clip20_2341">
			<rect width="38.000000" height="38.000000" fill="white" fill-opacity="0"/>
		</clipPath>
	</defs>
	<g clip-path="url(#clip20_2341)">
		<path d="M36.54 15.8L21.33 3.77C20.02 2.74 17.97 2.74 16.66 3.77L1.45 15.8C0.93 16.21 0.85 16.97 1.25 17.48C1.66 18 2.4 18.09 2.92 17.68L3.39 17.3L3.39 31.83C3.39 33.89 5.57 35.43 7.47 35.43L31.47 35.43C33.35 35.43 34.59 33.99 34.59 31.83L34.59 17.35L35.03 17.68C35.25 17.86 35.52 17.94 35.79 17.94C36.14 17.94 36.49 17.79 36.73 17.48C37.15 16.97 37.06 16.21 36.54 15.8ZM17.79 33.03L17.79 26.37C17.79 26.04 18.39 25.88 18.99 25.88C19.59 25.88 20.19 26.04 20.19 26.37L20.19 33.02L17.79 33.03ZM32.2 31.83C32.2 32.62 31.98 33.03 31.48 33.03L22.62 33.03C22.62 33.01 22.59 33 22.59 32.98L22.59 26.37C22.59 24.98 21.47 23.48 18.99 23.48C16.52 23.48 15.39 24.98 15.39 26.37L15.39 32.98C15.39 33 15.42 33.01 15.42 33.03L7.48 33.03C6.72 33.03 5.8 32.38 5.8 31.83L5.8 15.39L18.13 5.66C18.57 5.31 19.37 5.31 19.81 5.66L32.19 15.45L32.19 31.83L32.2 31.83Z" fill="#777777" fill-opacity="1.000000" fill-rule="nonzero"/>
		<path d="M21.33 3.77C20.02 2.74 17.97 2.74 16.66 3.77L1.45 15.8C0.93 16.21 0.85 16.97 1.25 17.48C1.66 18 2.4 18.09 2.92 17.68L3.39 17.3L3.39 31.83C3.39 33.89 5.57 35.43 7.47 35.43L31.47 35.43C33.35 35.43 34.59 33.99 34.59 31.83L34.59 17.35L35.03 17.68C35.25 17.86 35.52 17.94 35.79 17.94C36.14 17.94 36.49 17.79 36.73 17.48C37.15 16.97 37.06 16.21 36.54 15.8L21.33 3.77ZM17.79 26.37C17.79 26.04 18.39 25.88 18.99 25.88C19.59 25.88 20.19 26.04 20.19 26.37L20.19 33.02L17.79 33.03L17.79 26.37ZM31.48 33.03L22.62 33.03C22.62 33.01 22.59 33 22.59 32.98L22.59 26.37C22.59 24.98 21.47 23.48 18.99 23.48C16.52 23.48 15.39 24.98 15.39 26.37L15.39 32.98C15.39 33 15.42 33.01 15.42 33.03L7.48 33.03C6.72 33.03 5.8 32.38 5.8 31.83L5.8 15.39L18.13 5.66C18.57 5.31 19.37 5.31 19.81 5.66L32.19 15.45L32.19 31.83L32.2 31.83C32.2 32.62 31.98 33.03 31.48 33.03Z" stroke="#777777" stroke-opacity="1.000000" stroke-width="1.000000"/>
	</g>
</svg>
