<svg width="36.000000" height="37.583984" viewBox="0 0 36 37.584" fill="none" xmlns="http://www.w3.org/2000/svg" xmlns:xlink="http://www.w3.org/1999/xlink">
	<desc>
			Created with Pixso.
	</desc>
	<defs/>
	<mask id="mask_20_2342" fill="white">
		<path d="M11 0C11.7594 0 12.387 0.564209 12.4863 1.29639L12.5 1.5L12.5 3.41602L23.5 3.41602L23.5 1.5C23.5 0.671631 24.1716 0 25 0C25.7594 0 26.387 0.564209 26.4863 1.29639L26.5 1.5L26.5 3.41602L30 3.41602C33.1955 3.41602 35.8073 5.91455 35.9898 9.06348L36 9.41602L36 12.5C36 13.3284 35.3284 14 34.5 14L34.4996 14L6.72559 14C5.89716 14 5.22559 13.3284 5.22559 12.5C5.22559 11.7407 5.78992 11.113 6.52203 11.0137L6.72559 11L33 11L33 9.41602C33 7.85718 31.8102 6.5752 30.2889 6.42969L30 6.41602L6 6.41602C4.44067 6.41602 3.15912 7.6062 3.01373 9.1272L3 9.41602L3 31.584C3 33.1431 4.18982 34.4248 5.71112 34.5703L6 34.584L30 34.584C31.5593 34.584 32.8409 33.3938 32.9863 31.8728L33 31.584L33 17.606C33 16.7776 33.6716 16.106 34.5 16.106C35.2594 16.106 35.887 16.6704 35.9863 17.4026L36 17.606L36 31.584C36 34.7788 33.5023 37.3914 30.3525 37.5737L30 37.584L6 37.584C2.8045 37.584 0.192688 35.0854 0.0101929 31.9365L0 31.584L0 9.41602C0 6.22144 2.49774 3.60864 5.64746 3.42627L6 3.41602L9.5 3.41602L9.5 1.5C9.5 0.671631 10.1716 0 11 0ZM12.9393 17.1895C13.5251 16.6035 14.4749 16.6035 15.0607 17.1895C15.3536 17.4822 15.5 17.8662 15.5 18.25C15.5 18.5642 15.402 18.8782 15.2059 19.1423L15.0607 19.3105L10.7267 23.6448C10.1939 24.1775 9.36017 24.2256 8.77295 23.7893L8.60468 23.644L6.93872 21.9761C6.64624 21.6831 6.5 21.2996 6.5 20.916C6.5 20.5317 6.64667 20.1477 6.94 19.8547C7.47284 19.3225 8.30621 19.2747 8.89313 19.7107L9.06128 19.856L9.66559 20.4604L12.9393 17.1895ZM28 19.416C28.8284 19.416 29.5 20.0876 29.5 20.916C29.5 21.6753 28.9357 22.303 28.2036 22.4023L28 22.416L19 22.416C18.1716 22.416 17.5 21.7444 17.5 20.916C17.5 20.1567 18.0643 19.5291 18.7964 19.4297L19 19.416L28 19.416ZM11 30.916L9 30.916C8.448 30.916 8 30.468 8 29.916L8 27.916C8 27.366 8.448 26.916 9 26.916L11 26.916C11.552 26.916 12 27.366 12 27.916L12 29.916C12 30.468 11.552 30.916 11 30.916ZM28 27.416C28.8284 27.416 29.5 28.0876 29.5 28.916C29.5 29.6753 28.9357 30.303 28.2036 30.4023L28 30.416L16 30.416C15.1716 30.416 14.5 29.7444 14.5 28.916C14.5 28.1567 15.0643 27.5291 15.7964 27.4297L16 27.416L28 27.416Z" clip-rule="evenodd" fill="" fill-opacity="1.000000" fill-rule="evenodd"/>
	</mask>
	<path d="M11 0C11.7594 0 12.387 0.564209 12.4863 1.29639L12.5 1.5L12.5 3.41602L23.5 3.41602L23.5 1.5C23.5 0.671631 24.1716 0 25 0C25.7594 0 26.387 0.564209 26.4863 1.29639L26.5 1.5L26.5 3.41602L30 3.41602C33.1955 3.41602 35.8073 5.91455 35.9898 9.06348L36 9.41602L36 12.5C36 13.3284 35.3284 14 34.5 14L34.4996 14L6.72559 14C5.89716 14 5.22559 13.3284 5.22559 12.5C5.22559 11.7407 5.78992 11.113 6.52203 11.0137L6.72559 11L33 11L33 9.41602C33 7.85718 31.8102 6.5752 30.2889 6.42969L30 6.41602L6 6.41602C4.44067 6.41602 3.15912 7.6062 3.01373 9.1272L3 9.41602L3 31.584C3 33.1431 4.18982 34.4248 5.71112 34.5703L6 34.584L30 34.584C31.5593 34.584 32.8409 33.3938 32.9863 31.8728L33 31.584L33 17.606C33 16.7776 33.6716 16.106 34.5 16.106C35.2594 16.106 35.887 16.6704 35.9863 17.4026L36 17.606L36 31.584C36 34.7788 33.5023 37.3914 30.3525 37.5737L30 37.584L6 37.584C2.8045 37.584 0.192688 35.0854 0.0101929 31.9365L0 31.584L0 9.41602C0 6.22144 2.49774 3.60864 5.64746 3.42627L6 3.41602L9.5 3.41602L9.5 1.5C9.5 0.671631 10.1716 0 11 0ZM12.9393 17.1895C13.5251 16.6035 14.4749 16.6035 15.0607 17.1895C15.3536 17.4822 15.5 17.8662 15.5 18.25C15.5 18.5642 15.402 18.8782 15.2059 19.1423L15.0607 19.3105L10.7267 23.6448C10.1939 24.1775 9.36017 24.2256 8.77295 23.7893L8.60468 23.644L6.93872 21.9761C6.64624 21.6831 6.5 21.2996 6.5 20.916C6.5 20.5317 6.64667 20.1477 6.94 19.8547C7.47284 19.3225 8.30621 19.2747 8.89313 19.7107L9.06128 19.856L9.66559 20.4604L12.9393 17.1895ZM28 19.416C28.8284 19.416 29.5 20.0876 29.5 20.916C29.5 21.6753 28.9357 22.303 28.2036 22.4023L28 22.416L19 22.416C18.1716 22.416 17.5 21.7444 17.5 20.916C17.5 20.1567 18.0643 19.5291 18.7964 19.4297L19 19.416L28 19.416ZM11 30.916L9 30.916C8.448 30.916 8 30.468 8 29.916L8 27.916C8 27.366 8.448 26.916 9 26.916L11 26.916C11.552 26.916 12 27.366 12 27.916L12 29.916C12 30.468 11.552 30.916 11 30.916ZM28 27.416C28.8284 27.416 29.5 28.0876 29.5 28.916C29.5 29.6753 28.9357 30.303 28.2036 30.4023L28 30.416L16 30.416C15.1716 30.416 14.5 29.7444 14.5 28.916C14.5 28.1567 15.0643 27.5291 15.7964 27.4297L16 27.416L28 27.416Z" clip-rule="evenodd" fill="#777777" fill-opacity="1.000000" fill-rule="evenodd" mask="url(#mask_20_2342)"/>
	<path d="" clip-rule="evenodd" fill="#979797" fill-opacity="0.000000" fill-rule="evenodd"/>
</svg>
