<svg width="38.000000" height="38.000000" viewBox="0 0 38 38" fill="none" xmlns="http://www.w3.org/2000/svg" xmlns:xlink="http://www.w3.org/1999/xlink">
	<desc>
			Created with Pixso.
	</desc>
	<defs/>
	<mask id="mask_20_2410" fill="white">
		<path d="M18.5532 1C23.2079 1 26.9812 4.77173 26.9812 9.42603C26.9812 15.563 24.8026 20.0166 21.1074 21.4858C20.3376 21.792 19.4654 21.416 19.1593 20.6462C18.8532 19.8765 19.2291 19.0042 19.999 18.6982C22.3672 17.7566 23.9812 14.4573 23.9812 9.42603C23.9812 6.42896 21.5513 4 18.5532 4C15.5551 4 13.1252 6.42896 13.1252 9.42603C13.1252 12.8687 14.2217 15.9763 15.9016 17.6885C16.0359 17.792 16.1547 17.9204 16.2509 18.072C16.6318 18.6719 16.5336 19.4392 16.0565 19.9258L16.0552 19.927C15.9471 20.0388 15.8259 20.1301 15.6962 20.2009L7.95483 25.1162C6.7218 25.8992 5.79547 27.074 5.31909 28.4451L5.18982 28.8621L4.0578 33.0183C3.80377 33.9502 4.44067 34.8687 5.36768 34.9871L5.57056 35L31.5345 35C32.5001 35 33.2189 34.1431 33.0902 33.2178L33.0495 33.0188L31.9153 28.8621C31.5321 27.4546 30.6825 26.2229 29.5117 25.363L29.1509 25.1165L26.0369 23.1404C25.3374 22.6965 25.1302 21.7698 25.574 21.0703C25.9775 20.4343 26.7803 20.2053 27.4484 20.5024L27.6442 20.6074L30.7588 22.5837C32.605 23.7563 33.9827 25.5278 34.6647 27.5918L34.8097 28.073L35.9442 32.231C36.7061 35.0369 34.6938 37.8025 31.8431 37.9897L31.5345 38L5.57056 38C2.66174 38 0.52301 35.3301 1.09192 32.53L1.16333 32.2297L2.29565 28.0725C2.87189 25.9641 4.15765 24.1267 5.9292 22.8645L6.34656 22.5835L12.7217 18.5359C11.0783 16.2007 10.1252 12.9236 10.1252 9.42603C10.1252 4.77173 13.8985 1 18.5532 1Z" clip-rule="evenodd" fill="" fill-opacity="1.000000" fill-rule="evenodd"/>
	</mask>
	<path d="M18.5532 1C23.2079 1 26.9812 4.77173 26.9812 9.42603C26.9812 15.563 24.8026 20.0166 21.1074 21.4858C20.3376 21.792 19.4654 21.416 19.1593 20.6462C18.8532 19.8765 19.2291 19.0042 19.999 18.6982C22.3672 17.7566 23.9812 14.4573 23.9812 9.42603C23.9812 6.42896 21.5513 4 18.5532 4C15.5551 4 13.1252 6.42896 13.1252 9.42603C13.1252 12.8687 14.2217 15.9763 15.9016 17.6885C16.0359 17.792 16.1547 17.9204 16.2509 18.072C16.6318 18.6719 16.5336 19.4392 16.0565 19.9258L16.0552 19.927C15.9471 20.0388 15.8259 20.1301 15.6962 20.2009L7.95483 25.1162C6.7218 25.8992 5.79547 27.074 5.31909 28.4451L5.18982 28.8621L4.0578 33.0183C3.80377 33.9502 4.44067 34.8687 5.36768 34.9871L5.57056 35L31.5345 35C32.5001 35 33.2189 34.1431 33.0902 33.2178L33.0495 33.0188L31.9153 28.8621C31.5321 27.4546 30.6825 26.2229 29.5117 25.363L29.1509 25.1165L26.0369 23.1404C25.3374 22.6965 25.1302 21.7698 25.574 21.0703C25.9775 20.4343 26.7803 20.2053 27.4484 20.5024L27.6442 20.6074L30.7588 22.5837C32.605 23.7563 33.9827 25.5278 34.6647 27.5918L34.8097 28.073L35.9442 32.231C36.7061 35.0369 34.6938 37.8025 31.8431 37.9897L31.5345 38L5.57056 38C2.66174 38 0.52301 35.3301 1.09192 32.53L1.16333 32.2297L2.29565 28.0725C2.87189 25.9641 4.15765 24.1267 5.9292 22.8645L6.34656 22.5835L12.7217 18.5359C11.0783 16.2007 10.1252 12.9236 10.1252 9.42603C10.1252 4.77173 13.8985 1 18.5532 1Z" clip-rule="evenodd" fill="#777777" fill-opacity="1.000000" fill-rule="evenodd" mask="url(#mask_20_2410)"/>
	<path d="" clip-rule="evenodd" fill="#979797" fill-opacity="0.000000" fill-rule="evenodd"/>
</svg>
