<?xml version="1.0" standalone="no"?><!DOCTYPE svg PUBLIC "-//W3C//DTD SVG 1.1//EN" "http://www.w3.org/Graphics/SVG/1.1/DTD/svg11.dtd"><svg t="1726914683722" class="icon" viewBox="0 0 1024 1024" version="1.1" xmlns="http://www.w3.org/2000/svg" p-id="4065" xmlns:xlink="http://www.w3.org/1999/xlink" width="200" height="200"><path d="M512 58.181818C260.654545 58.181818 58.181818 260.654545 58.181818 512S260.654545 965.818182 512 965.818182 965.818182 763.345455 965.818182 512 763.345455 58.181818 512 58.181818z m204.8 609.745455c13.963636 13.963636 13.963636 34.909091 0 48.872727-6.981818 6.981818-16.290909 9.309091-25.6 9.309091s-18.618182-2.327273-25.6-9.309091L512 560.872727l-155.927273 155.927273c-6.981818 6.981818-16.290909 9.309091-25.6 9.309091s-18.618182-2.327273-25.6-9.309091c-13.963636-13.963636-13.963636-34.909091 0-48.872727l155.927273-155.927273-155.927273-155.927273c-13.963636-13.963636-13.963636-34.909091 0-48.872727 13.963636-13.963636 34.909091-13.963636 48.872728 0l155.927272 155.927273 155.927273-155.927273c13.963636-13.963636 34.909091-13.963636 48.872727 0 13.963636 13.963636 13.963636 34.909091 0 48.872727L560.872727 512l155.927273 155.927273z" fill="#A8ABB0" p-id="4066"></path></svg>