<?xml version="1.0" standalone="no"?>
<svg xmlns="http://www.w3.org/2000/svg" width="48" height="48">
    <rect width="48" height="48" opacity="0"></rect>
    <g>
        <path d="M38.02 22.51Q39.5 22.51 40.75 21.77Q42 21.02 42.74 19.75Q43.49 18.48 43.49 16.99L43.49 9.98Q43.49 8.5 42.74 7.25Q42 6 40.75 5.26Q39.5 4.51 38.02 4.51L31.01 4.51Q29.52 4.51 28.25 5.26Q26.98 6 26.23 7.25Q25.49 8.5 25.49 9.98L25.49 16.99Q25.49 18.48 26.23 19.75Q26.98 21.02 28.25 21.77Q29.52 22.51 31.01 22.51L38.02 22.51ZM38.02 7.49Q39.02 7.49 39.77 8.23Q40.51 8.98 40.51 9.98L40.51 16.99Q40.51 18.05 39.77 18.77Q39.02 19.49 38.02 19.49L31.01 19.49Q29.95 19.49 29.23 18.77Q28.51 18.05 28.51 16.99L28.51 9.98Q28.51 8.98 29.23 8.23Q29.95 7.49 31.01 7.49L38.02 7.49ZM16.99 43.49Q18.48 43.49 19.75 42.74Q21.02 42 21.77 40.75Q22.51 39.5 22.51 38.02L22.51 31.01Q22.51 29.52 21.77 28.25Q21.02 26.98 19.75 26.23Q18.48 25.49 16.99 25.49L9.98 25.49Q8.5 25.49 7.25 26.23Q6 26.98 5.26 28.25Q4.51 29.52 4.51 31.01L4.51 38.02Q4.51 39.5 5.26 40.75Q6 42 7.25 42.74Q8.5 43.49 9.98 43.49L16.99 43.49ZM16.99 28.51Q18.05 28.51 18.77 29.23Q19.49 29.95 19.49 31.01L19.49 38.02Q19.49 39.02 18.77 39.77Q18.05 40.51 16.99 40.51L9.98 40.51Q8.98 40.51 8.23 39.77Q7.49 39.02 7.49 38.02L7.49 31.01Q7.49 29.95 8.23 29.23Q8.98 28.51 9.98 28.51L16.99 28.51ZM16.99 22.51Q18.48 22.51 19.75 21.77Q21.02 21.02 21.77 19.75Q22.51 18.48 22.51 16.99L22.51 9.98Q22.51 8.5 21.77 7.25Q21.02 6 19.75 5.26Q18.48 4.51 16.99 4.51L9.98 4.51Q8.5 4.51 7.25 5.26Q6 6 5.26 7.25Q4.51 8.5 4.51 9.98L4.51 16.99Q4.51 18.48 5.26 19.75Q6 21.02 7.25 21.77Q8.5 22.51 9.98 22.51L16.99 22.51ZM16.99 7.49Q18.05 7.49 18.77 8.23Q19.49 8.98 19.49 9.98L19.49 16.99Q19.49 18.05 18.77 18.77Q18.05 19.49 16.99 19.49L9.98 19.49Q8.98 19.49 8.23 18.77Q7.49 18.05 7.49 16.99L7.49 9.98Q7.49 8.98 8.23 8.23Q8.98 7.49 9.98 7.49L16.99 7.49ZM11.18 15.79L15.79 15.79L15.79 11.18L11.18 11.18ZM11.18 36.82L15.79 36.82L15.79 32.21L11.18 32.21ZM32.02 37.01L37.01 37.01L37.01 32.02L32.02 32.02ZM26.21 31.2L31.2 31.2L31.2 26.21L26.21 26.21ZM37.82 31.2L42.86 31.2L42.86 26.21L37.82 26.21ZM26.21 42.82L31.2 42.82L31.2 37.82L26.21 37.82ZM37.82 42.82L42.86 42.82L42.86 37.82L37.82 37.82ZM32.21 15.79L36.82 15.79L36.82 11.18L32.21 11.18Z"
              fill="rgba(255,255,255,1)"></path>
    </g>
</svg>