<svg width="12.000000" height="12.000000" viewBox="0 0 12 12" fill="none" xmlns="http://www.w3.org/2000/svg"
>
    <desc>
        Created with Pixso.
    </desc>
    <defs>
        <clipPath id="clip49_4220">
            <rect id="切换.svg" width="11.999998" height="12.000000" fill="white" fill-opacity="0"/>
        </clipPath>
    </defs>
    <g clip-path="url(#clip49_4220)">
        <path id="path"
              d="M10.38 7.08L1.61 7.08C1.35 7.08 1.14 7.29 1.14 7.55C1.14 7.65 1.17 7.74 1.22 7.82C1.25 7.87 1.28 7.92 1.32 7.96L3.39 10.03C3.48 10.12 3.6 10.16 3.72 10.16C3.84 10.16 3.96 10.12 4.05 10.03C4.23 9.84 4.23 9.55 4.05 9.36L2.71 8.02L10.38 8.02C10.64 8.02 10.85 7.81 10.85 7.55C10.85 7.29 10.64 7.08 10.38 7.08ZM1.61 4.91L10.38 4.91C10.64 4.91 10.85 4.7 10.85 4.44C10.85 4.34 10.82 4.25 10.77 4.17C10.75 4.14 10.73 4.1 10.7 4.06L9.01 2C8.84 1.8 8.55 1.77 8.35 1.93C8.15 2.1 8.12 2.39 8.28 2.59L9.41 3.97L1.61 3.97C1.35 3.97 1.14 4.18 1.14 4.44C1.14 4.7 1.35 4.91 1.61 4.91Z"
              fill="#0A59F7" fill-opacity="1.000000" fill-rule="nonzero"/>
    </g>
</svg>
