<svg width="16.000000" height="16.000000" viewBox="0 0 16 16" fill="none" xmlns="http://www.w3.org/2000/svg" xmlns:xlink="http://www.w3.org/1999/xlink">
	<desc>
			Created with Pixso.
	</desc>
	<defs/>
	<rect width="16.000000" height="16.000000" fill="#C4C4C4" fill-opacity="0"/>
	<path d="M11.18 3.25C11.27 3.31 11.36 3.38 11.45 3.44C11.73 3.66 12.13 3.61 12.35 3.32C12.57 3.03 12.51 2.64 12.22 2.42C12.12 2.34 12.01 2.26 11.91 2.19C11.84 2.15 11.78 2.11 11.72 2.07C11.42 1.88 11.12 1.72 10.8 1.58C10.53 1.46 10.25 1.36 9.96 1.28C9.71 1.2 9.46 1.14 9.2 1.1C8.81 1.03 8.4 1 7.99 1C7.47 1 6.97 1.05 6.47 1.16C6.06 1.25 5.66 1.38 5.27 1.55C4.87 1.71 4.5 1.91 4.15 2.14C3.75 2.4 3.39 2.7 3.04 3.05C2.7 3.39 2.4 3.75 2.14 4.15C1.91 4.5 1.71 4.87 1.55 5.27C1.38 5.66 1.25 6.06 1.16 6.47C1.05 6.97 0.99 7.47 0.99 8C0.99 8.52 1.05 9.02 1.16 9.52C1.25 9.93 1.38 10.33 1.55 10.72C1.71 11.12 1.91 11.49 2.14 11.84C2.4 12.24 2.7 12.6 3.04 12.94C3.39 13.29 3.75 13.59 4.15 13.85C4.5 14.08 4.87 14.28 5.27 14.44C5.66 14.61 6.06 14.74 6.47 14.83C6.97 14.94 7.47 15 7.99 15C8.52 15 9.02 14.94 9.52 14.83C9.93 14.74 10.33 14.61 10.72 14.44C11.12 14.28 11.49 14.08 11.84 13.85C12.24 13.59 12.6 13.29 12.94 12.94C13.29 12.6 13.59 12.24 13.85 11.84C14.08 11.49 14.28 11.12 14.44 10.72C14.61 10.33 14.74 9.93 14.83 9.52C14.94 9.02 14.99 8.52 14.99 8C14.99 7.54 14.95 7.1 14.87 6.66C14.81 6.35 14.72 6.03 14.62 5.73C14.51 5.4 14.37 5.08 14.22 4.78C14.03 4.43 13.82 4.09 13.57 3.77C13.36 3.48 12.96 3.43 12.67 3.64C12.38 3.86 12.33 4.26 12.55 4.55C12.75 4.81 12.93 5.09 13.08 5.39C13.2 5.63 13.31 5.88 13.4 6.14C13.48 6.38 13.55 6.63 13.6 6.88C13.67 7.24 13.71 7.61 13.71 8C13.71 8.43 13.66 8.85 13.57 9.26C13.49 9.59 13.39 9.91 13.26 10.22C13.12 10.54 12.96 10.84 12.78 11.12C12.56 11.45 12.32 11.75 12.03 12.03C11.75 12.32 11.45 12.56 11.12 12.78C10.84 12.96 10.54 13.12 10.22 13.26C9.91 13.39 9.59 13.49 9.26 13.57C8.85 13.66 8.43 13.71 7.99 13.71C7.56 13.71 7.14 13.66 6.73 13.57C6.4 13.49 6.08 13.39 5.77 13.26C5.45 13.12 5.15 12.96 4.87 12.78C4.54 12.56 4.24 12.32 3.96 12.03C3.67 11.75 3.43 11.45 3.21 11.12C3.03 10.84 2.87 10.54 2.73 10.22C2.6 9.91 2.5 9.59 2.42 9.26C2.33 8.85 2.28 8.43 2.28 8C2.28 7.56 2.33 7.14 2.42 6.73C2.5 6.4 2.6 6.08 2.73 5.77C2.87 5.45 3.03 5.15 3.21 4.87C3.43 4.54 3.67 4.24 3.96 3.96C4.24 3.67 4.54 3.43 4.87 3.21C5.15 3.03 5.45 2.87 5.77 2.73C6.08 2.6 6.4 2.5 6.73 2.42C7.14 2.33 7.56 2.28 7.99 2.28C8.34 2.28 8.68 2.31 9.02 2.37C9.22 2.41 9.41 2.46 9.6 2.51C9.83 2.58 10.06 2.66 10.27 2.76C10.54 2.87 10.79 3 11.03 3.16C11.08 3.19 11.13 3.22 11.18 3.25ZM8.64 7.63L8.64 3.98C8.64 3.62 8.36 3.33 7.99 3.33C7.63 3.33 7.35 3.62 7.35 3.98L7.35 7.88C7.35 7.97 7.37 8.05 7.4 8.12C7.43 8.2 7.47 8.27 7.53 8.33L9.4 10.31C9.65 10.57 10.05 10.59 10.31 10.34C10.57 10.09 10.58 9.69 10.34 9.43L8.64 7.63Z" fill="#000000" fill-opacity="0.600000" fill-rule="evenodd"/>
</svg>
