<svg width="40.000000" height="40.000000" viewBox="0 0 40 40" fill="none" xmlns="http://www.w3.org/2000/svg" xmlns:xlink="http://www.w3.org/1999/xlink">
	<desc>
			Created with Pixso.
	</desc>
	<defs/>
	<rect rx="20.000000" width="40.000000" height="40.000000" fill="#000000" fill-opacity="0.047059"/>
	<path d="M25.83 15.12C25.93 15 25.99 14.86 25.99 14.71C25.99 14.56 25.93 14.43 25.83 14.32C25.72 14.2 25.59 14.14 25.43 14.14C25.28 14.14 25.14 14.2 25.04 14.32L20 19.36L14.95 14.32C14.85 14.2 14.71 14.14 14.56 14.14C14.4 14.14 14.27 14.2 14.15 14.32C14.05 14.43 14 14.56 14 14.71C14 14.86 14.05 15 14.15 15.12L19.2 20.16L14.15 25.18C14.05 25.3 14 25.43 14 25.59C14 25.75 14.05 25.88 14.15 25.99C14.27 26.08 14.4 26.13 14.56 26.14C14.71 26.14 14.85 26.09 14.95 25.99L20 20.95L25.04 25.99C25.14 26.09 25.28 26.15 25.43 26.15C25.59 26.15 25.72 26.09 25.83 25.99C25.93 25.88 25.99 25.75 25.99 25.59C25.99 25.43 25.93 25.3 25.83 25.18L20.79 20.16L25.83 15.12Z" fill="#000000" fill-opacity="0.898039" fill-rule="nonzero"/>
</svg>
