<svg width="16.000000" height="16.000000" viewBox="0 0 16 16" fill="none" xmlns="http://www.w3.org/2000/svg" xmlns:xlink="http://www.w3.org/1999/xlink">
	<desc>
			Created with Pixso.
	</desc>
	<defs/>
	<path id="矢量 1" d="M14.38 4.87L13.65 13.68C13.62 14 13.54 14.3 13.39 14.59C13.26 14.87 13.07 15.12 12.85 15.33C12.73 15.44 12.6 15.53 12.47 15.62C12.34 15.7 12.21 15.76 12.08 15.82C11.94 15.87 11.8 15.91 11.66 15.94C11.5 15.98 11.33 16 11.16 16L4.83 16C4.51 16 4.2 15.94 3.91 15.82C3.77 15.76 3.64 15.7 3.52 15.62C3.38 15.53 3.26 15.44 3.14 15.33C2.91 15.12 2.73 14.87 2.59 14.59C2.45 14.3 2.37 14 2.34 13.68L1.61 4.87L2.61 4.87L3.34 13.59C3.35 13.79 3.4 13.97 3.49 14.14C3.57 14.31 3.68 14.46 3.82 14.58C3.89 14.65 3.97 14.71 4.05 14.76C4.12 14.81 4.2 14.85 4.28 14.88C4.36 14.91 4.43 14.93 4.51 14.95C4.62 14.97 4.72 14.98 4.83 14.98L11.16 14.98C11.26 14.98 11.37 14.97 11.47 14.95C11.55 14.93 11.63 14.91 11.71 14.88C11.88 14.81 12.03 14.71 12.17 14.58C12.31 14.46 12.42 14.31 12.5 14.14C12.58 13.97 12.63 13.79 12.65 13.59L13.38 4.87L14.38 4.87Z" fill="#FFFFFF" fill-opacity="1.000000" fill-rule="evenodd"/>
	<path id="矢量 1" d="M6.83 7.23L6.83 13.16C6.83 13.45 6.61 13.67 6.33 13.67C6.05 13.67 5.83 13.45 5.83 13.16L5.83 7.23C5.83 6.95 6.05 6.73 6.33 6.73C6.61 6.73 6.83 6.95 6.83 7.23ZM10.16 7.23C10.16 6.95 9.94 6.73 9.66 6.73C9.38 6.73 9.16 6.95 9.16 7.23L9.16 13.16C9.16 13.45 9.38 13.67 9.66 13.67C9.94 13.67 10.16 13.45 10.16 13.16L10.16 7.23Z" fill="#FFFFFF" fill-opacity="1.000000" fill-rule="evenodd"/>
	<path id="矢量 1" d="M4.27 2.86L0.66 2.86C0.38 2.86 0.16 3.08 0.16 3.36C0.16 3.65 0.38 3.87 0.66 3.87L4.62 3.87C4.73 3.87 4.82 3.84 4.91 3.78C4.99 3.72 5.05 3.64 5.09 3.54L5.77 1.71C5.8 1.63 5.84 1.55 5.89 1.48C5.94 1.42 6 1.36 6.07 1.31C6.14 1.26 6.21 1.23 6.29 1.2C6.37 1.18 6.46 1.16 6.55 1.16L9.37 1.16C9.46 1.16 9.54 1.18 9.63 1.2C9.7 1.23 9.77 1.26 9.84 1.31C9.91 1.36 9.97 1.42 10.02 1.48C10.07 1.55 10.11 1.62 10.14 1.71L10.82 3.54C10.86 3.64 10.92 3.72 11 3.78C11.09 3.84 11.18 3.87 11.29 3.87L15.33 3.87C15.61 3.87 15.83 3.65 15.83 3.36C15.83 3.08 15.61 2.86 15.33 2.86L11.64 2.86L11.08 1.36C11.04 1.26 11 1.17 10.95 1.08C10.91 1 10.86 0.93 10.81 0.86C10.75 0.79 10.69 0.72 10.63 0.66C10.56 0.6 10.49 0.54 10.41 0.48C10.33 0.43 10.26 0.38 10.18 0.34C10.09 0.3 10.01 0.27 9.92 0.24C9.84 0.21 9.75 0.19 9.67 0.18C9.57 0.16 9.47 0.15 9.37 0.15L6.55 0.15C6.45 0.15 6.34 0.16 6.24 0.18C6.16 0.19 6.08 0.21 6 0.24C5.91 0.27 5.82 0.3 5.74 0.34C5.66 0.38 5.58 0.43 5.5 0.48C5.43 0.53 5.36 0.59 5.29 0.66C5.22 0.72 5.16 0.79 5.1 0.86C5.06 0.92 5.01 0.99 4.97 1.06C4.92 1.15 4.87 1.25 4.83 1.36L4.27 2.86Z" fill="#FFFFFF" fill-opacity="1.000000" fill-rule="evenodd"/>
	<path id="矢量 1" d="M11.83 2.86L11.23 1.25C11.2 1.15 11.16 1.06 11.1 0.97C11.06 0.89 11.01 0.81 10.95 0.74C10.89 0.66 10.83 0.59 10.76 0.53C10.69 0.46 10.62 0.4 10.53 0.34C10.45 0.28 10.37 0.23 10.28 0.19C10.2 0.15 10.11 0.11 10.02 0.09C9.93 0.06 9.84 0.03 9.75 0.02C9.65 0 9.55 0 9.44 0L6.47 0C6.36 0 6.26 0 6.16 0.02C6.07 0.04 5.98 0.06 5.89 0.09C5.82 0.11 5.74 0.14 5.67 0.17C5.66 0.18 5.64 0.18 5.63 0.19C5.54 0.23 5.46 0.28 5.38 0.34C5.3 0.4 5.22 0.46 5.15 0.53C5.08 0.59 5.02 0.66 4.96 0.74C4.9 0.81 4.85 0.89 4.81 0.97C4.76 1.06 4.71 1.15 4.68 1.25L4.08 2.86L0.5 2.86C0.22 2.86 0 3.09 0 3.37C0 3.65 0.22 3.87 0.5 3.87L15.5 3.87C15.77 3.87 16 3.65 16 3.37C16 3.09 15.77 2.86 15.5 2.86L11.83 2.86Z" fill="#FFFFFF" fill-opacity="0" fill-rule="evenodd"/>
</svg>
