<svg width="16.000000" height="16.000000" viewBox="0 0 16 16" fill="none" xmlns="http://www.w3.org/2000/svg" xmlns:xlink="http://www.w3.org/1999/xlink">
	<desc>
			Created with Pixso.
	</desc>
	<defs/>
	<rect width="16.000000" height="16.000000" fill="#FFFFFF" fill-opacity="0"/>
	<rect rx="4.000000" width="16.000000" height="16.000000" fill="#F9A01E" fill-opacity="1.000000"/>
	<path d="M8.56 11.91L8.07 11.31C8.3 11.14 8.54 10.96 8.77 10.75L7.18 10.75L7.18 8.04L9.01 8.04L9.01 10.5C9.29 10.25 9.54 9.95 9.75 9.62C9.64 9.04 9.54 8.45 9.47 7.87C9.37 7.21 9.32 6.55 9.3 5.9L6.76 5.9L6.76 8.85C6.76 9.48 6.69 10.09 6.56 10.68C6.41 11.17 6.22 11.64 5.99 12.08L5.25 11.67C5.79 10.82 6.06 9.88 6.06 8.85L6.06 5.16L9.27 5.16C9.22 4.74 9.19 4.33 9.19 3.93L9.93 3.93C9.93 4.33 9.95 4.74 10 5.16L10.91 5.16C10.68 4.88 10.43 4.59 10.17 4.31L10.67 3.93C10.97 4.23 11.27 4.55 11.55 4.88L11.23 5.16L11.9 5.16L11.9 5.9L10.04 5.9C10.08 6.81 10.17 7.72 10.32 8.64C10.62 7.96 10.83 7.25 10.95 6.53L11.65 6.67C11.53 7.25 11.37 7.84 11.16 8.43C11 8.89 10.78 9.33 10.52 9.73C10.6 10.03 10.7 10.32 10.84 10.6C10.89 10.72 10.95 10.84 11.02 10.95C11.07 11 11.12 11.03 11.19 11.03C11.26 11.03 11.31 10.98 11.33 10.89C11.38 10.72 11.42 10.54 11.44 10.33C11.47 10.02 11.49 9.71 11.52 9.41L12.18 9.55C12.13 9.95 12.08 10.34 12.04 10.71C12.01 10.87 11.98 11.04 11.94 11.21C11.89 11.34 11.82 11.47 11.72 11.59C11.61 11.78 11.43 11.87 11.19 11.87C10.98 11.87 10.79 11.79 10.63 11.63C10.54 11.53 10.46 11.43 10.39 11.31C10.29 11.17 10.22 11.03 10.17 10.89C10.1 10.77 10.04 10.64 10 10.5C9.58 11.02 9.1 11.49 8.56 11.91ZM5.54 7.8L4.55 11.38L3.74 11.21C4.12 10.03 4.46 8.85 4.77 7.65L5.15 7.76L5.54 7.8ZM3.99 4.49L4.73 4.24C5.03 5.02 5.35 5.8 5.67 6.6L4.9 6.88C4.62 6.06 4.31 5.27 3.99 4.49ZM7.11 7.41L7.11 6.67L9.12 6.67L9.12 7.41L7.11 7.41ZM8.45 8.78L7.75 8.78L7.75 10.05L8.45 10.05L8.45 8.78Z" fill="#FFFFFF" fill-opacity="1.000000" fill-rule="nonzero"/>
</svg>
