<svg width="24.000000" height="24.000000" viewBox="0 0 24 24" fill="none" xmlns="http://www.w3.org/2000/svg" xmlns:xlink="http://www.w3.org/1999/xlink">
	<desc>
			Created with Pixso.
	</desc>
	<defs/>
	<rect width="24.000000" height="24.000000" fill="#FFFFFF" fill-opacity="0"/>
	<g opacity="0.100000">
		<circle cx="12.000000" cy="12.000000" r="12.000000" fill="#61860B" fill-opacity="1.000000"/>
	</g>
	<path d="M12 4.64C10.91 4.64 9.9 4.9 8.99 5.44C8.07 5.98 7.34 6.71 6.8 7.63C6.26 8.54 6 9.55 6 10.64C6 12.18 6.53 13.69 7.6 15.17C8.67 16.65 9.82 17.92 11.04 18.99C11.31 19.23 11.63 19.36 12 19.36C12.36 19.36 12.68 19.23 12.96 18.99C14.17 17.92 15.32 16.65 16.39 15.17C17.46 13.69 18 12.18 18 10.64C18 9.55 17.73 8.54 17.19 7.63C16.65 6.71 15.92 5.98 15 5.44C14.07 4.9 13.07 4.64 12 4.64ZM12 11.92C11.72 11.92 11.47 11.85 11.24 11.72C11 11.58 10.82 11.4 10.69 11.17C10.56 10.94 10.49 10.69 10.49 10.41C10.49 10.14 10.56 9.9 10.69 9.67C10.82 9.44 11 9.26 11.24 9.12C11.47 8.99 11.72 8.92 12 8.92C12.26 8.92 12.51 8.99 12.74 9.12C12.97 9.26 13.15 9.44 13.28 9.67C13.42 9.9 13.48 10.14 13.48 10.41C13.48 10.69 13.42 10.94 13.28 11.17C13.15 11.4 12.97 11.58 12.74 11.72C12.51 11.85 12.26 11.92 12 11.92Z" fill="#61860B" fill-opacity="1.000000" fill-rule="nonzero"/>
</svg>
