<svg width="16.000000" height="16.000000" viewBox="0 0 16 16" fill="none" xmlns="http://www.w3.org/2000/svg" xmlns:xlink="http://www.w3.org/1999/xlink">
	<desc>
			Created with Pixso.
	</desc>
	<defs/>
	<rect width="16.000000" height="16.000000" fill="#FFFFFF" fill-opacity="0"/>
	<rect rx="4.000000" width="16.000000" height="16.000000" fill="#31D1AE" fill-opacity="1.000000"/>
	<path d="M5.62 5.15L5.62 4.81C5.62 4.64 5.63 4.48 5.67 4.31C5.7 4.18 5.74 4.04 5.8 3.91C5.85 3.78 5.92 3.65 6 3.54C6.08 3.41 6.18 3.29 6.3 3.17C6.41 3.06 6.53 2.96 6.66 2.88C6.78 2.8 6.9 2.73 7.03 2.68C7.16 2.62 7.3 2.58 7.44 2.55C7.6 2.51 7.76 2.5 7.93 2.5C8.1 2.5 8.27 2.51 8.43 2.55C8.57 2.58 8.71 2.62 8.84 2.68C8.97 2.73 9.09 2.8 9.21 2.88C9.34 2.96 9.46 3.06 9.57 3.17C9.69 3.29 9.78 3.41 9.87 3.54C9.95 3.65 10.01 3.78 10.07 3.91C10.13 4.04 10.17 4.18 10.2 4.31C10.23 4.48 10.25 4.64 10.25 4.81L10.25 5.15C11.18 5.33 11.87 6.14 11.87 7.12L11.87 11C11.87 12.1 10.98 13 9.87 13L6 13C4.89 13 4 12.1 4 11L4 7.12C4 6.14 4.69 5.33 5.62 5.15ZM5.62 6.19L5.62 6.63C5.62 6.91 5.84 7.13 6.12 7.13C6.4 7.13 6.62 6.91 6.62 6.63L6.62 6.12L9.25 6.12L9.25 6.63C9.25 6.91 9.47 7.13 9.75 7.13C10.03 7.13 10.25 6.91 10.25 6.63L10.25 6.19C10.62 6.34 10.87 6.7 10.87 7.12L10.87 11C10.87 11.55 10.43 12 9.87 12L6 12C5.44 12 5 11.55 5 11L5 7.12C5 6.7 5.25 6.34 5.62 6.19ZM9.25 5.12L6.62 5.12L6.62 4.81C6.62 4.71 6.63 4.61 6.65 4.51C6.67 4.44 6.69 4.37 6.72 4.3C6.75 4.23 6.79 4.16 6.83 4.1C6.88 4.02 6.94 3.95 7 3.88C7.07 3.82 7.14 3.76 7.22 3.71C7.28 3.67 7.35 3.63 7.42 3.6C7.49 3.57 7.56 3.55 7.63 3.53Q7.78 3.5 7.93 3.5Q8.09 3.5 8.23 3.53C8.31 3.55 8.38 3.57 8.45 3.6C8.52 3.63 8.59 3.67 8.65 3.71C8.73 3.76 8.8 3.82 8.87 3.88C8.93 3.95 8.99 4.02 9.04 4.1C9.08 4.16 9.12 4.23 9.15 4.3C9.18 4.37 9.2 4.44 9.22 4.51C9.24 4.61 9.25 4.71 9.25 4.81L9.25 5.12Z" fill="#FFFFFF" fill-opacity="1.000000" fill-rule="evenodd"/>
</svg>
