<svg width="10.000000" height="10.000000" viewBox="0 0 10 10" fill="none" xmlns="http://www.w3.org/2000/svg" xmlns:xlink="http://www.w3.org/1999/xlink">
	<desc>
			Created with Pixso.
	</desc>
	<defs>
		<clipPath id="clip208_2564">
			<rect width="10.000000" height="10.000000" transform="translate(0.000000 10.000000) rotate(-90.000000)" fill="white" fill-opacity="0"/>
		</clipPath>
	</defs>
	<g clip-path="url(#clip208_2564)">
		<path d="M4.99 9.68C4.26 9.68 3.53 9.68 2.79 9.68C2.44 9.68 2.09 9.64 1.74 9.55C1.02 9.36 0.59 8.89 0.42 8.16C0.34 7.8 0.3 7.42 0.31 7.05C0.31 5.65 0.31 4.24 0.31 2.84C0.31 2.48 0.35 2.13 0.43 1.79C0.61 1.04 1.09 0.59 1.83 0.42C2.18 0.34 2.54 0.3 2.9 0.31C4.32 0.31 5.74 0.31 7.16 0.31C7.51 0.31 7.86 0.35 8.21 0.43C8.95 0.61 9.4 1.09 9.57 1.83C9.65 2.2 9.69 2.57 9.68 2.94C9.68 4.34 9.68 5.74 9.68 7.14C9.68 7.49 9.64 7.85 9.56 8.2C9.38 8.95 8.9 9.4 8.15 9.57C7.77 9.66 7.39 9.68 7.01 9.68C6.34 9.68 5.66 9.68 4.99 9.68Z" fill="#FFFFFF" fill-opacity="0" fill-rule="nonzero"/>
		<path d="M2.79 9.68C2.44 9.68 2.09 9.64 1.74 9.55C1.02 9.36 0.59 8.89 0.42 8.16C0.34 7.8 0.3 7.42 0.31 7.05C0.31 5.65 0.31 4.24 0.31 2.84C0.31 2.48 0.35 2.13 0.43 1.79C0.61 1.04 1.09 0.59 1.83 0.42C2.18 0.34 2.54 0.3 2.9 0.31C4.32 0.31 5.74 0.31 7.16 0.31C7.51 0.31 7.86 0.35 8.21 0.43C8.95 0.61 9.4 1.09 9.57 1.83C9.65 2.2 9.69 2.57 9.68 2.94C9.68 4.34 9.68 5.74 9.68 7.14C9.68 7.49 9.64 7.85 9.56 8.2C9.38 8.95 8.9 9.4 8.15 9.57C7.77 9.66 7.39 9.68 7.01 9.68C6.34 9.68 5.66 9.68 4.99 9.68C4.26 9.68 3.53 9.68 2.79 9.68Z" stroke="#FFFFFF" stroke-opacity="0" stroke-width="1.500000"/>
		<path d="M4.99 9.68C4.26 9.68 3.53 9.68 2.79 9.68C2.44 9.68 2.09 9.64 1.74 9.55C1.02 9.36 0.59 8.89 0.42 8.16C0.34 7.8 0.3 7.42 0.31 7.05C0.31 5.65 0.31 4.24 0.31 2.84C0.31 2.48 0.35 2.13 0.43 1.79C0.61 1.04 1.09 0.59 1.83 0.42C2.18 0.34 2.54 0.3 2.9 0.31C4.32 0.31 5.74 0.31 7.16 0.31C7.51 0.31 7.86 0.35 8.21 0.43C8.95 0.61 9.4 1.09 9.57 1.83C9.65 2.2 9.69 2.57 9.68 2.94C9.68 4.34 9.68 5.74 9.68 7.14C9.68 7.49 9.64 7.85 9.56 8.2C9.38 8.95 8.9 9.4 8.15 9.57C7.77 9.66 7.39 9.68 7.01 9.68C6.34 9.68 5.66 9.68 4.99 9.68Z" fill="#000000" fill-opacity="0" fill-rule="nonzero"/>
		<path d="M2.79 9.68C2.44 9.68 2.09 9.64 1.74 9.55C1.02 9.36 0.59 8.89 0.42 8.16C0.34 7.8 0.3 7.42 0.31 7.05C0.31 5.65 0.31 4.24 0.31 2.84C0.31 2.48 0.35 2.13 0.43 1.79C0.61 1.04 1.09 0.59 1.83 0.42C2.18 0.34 2.54 0.3 2.9 0.31C4.32 0.31 5.74 0.31 7.16 0.31C7.51 0.31 7.86 0.35 8.21 0.43C8.95 0.61 9.4 1.09 9.57 1.83C9.65 2.2 9.69 2.57 9.68 2.94C9.68 4.34 9.68 5.74 9.68 7.14C9.68 7.49 9.64 7.85 9.56 8.2C9.38 8.95 8.9 9.4 8.15 9.57C7.77 9.66 7.39 9.68 7.01 9.68C6.34 9.68 5.66 9.68 4.99 9.68C4.26 9.68 3.53 9.68 2.79 9.68Z" stroke="#FFFFFF" stroke-opacity="0" stroke-width="1.500000"/>
		<circle r="5.000000" transform="matrix(0 -1 1 0 5 5)" fill="#FFFFFF" fill-opacity="0"/>
		<circle r="5.000000" transform="matrix(0 -1 1 0 5 5)" stroke="#000000" stroke-opacity="0" stroke-width="1.500000"/>
		<path d="M3.44 0.42L3.44 0.4C3.13 0.1 2.67 0.11 2.37 0.41C2.08 0.71 2.09 1.18 2.39 1.47L2.42 1.47L3.44 0.42ZM2.42 8.52L2.39 8.52C2.09 8.81 2.08 9.28 2.37 9.58C2.67 9.88 3.13 9.89 3.44 9.59L3.44 9.57L2.42 8.52Z" fill="#000000" fill-opacity="0" fill-rule="nonzero"/>
		<path d="M2.91 0.93L7.08 5L2.91 9.06" stroke="#000000" stroke-opacity="0.400000" stroke-width="1.500000" stroke-linejoin="round" stroke-linecap="round"/>
		<path d="M2.77 8.91C2.68 8.99 2.68 9.12 2.76 9.2C2.84 9.29 2.97 9.29 3.06 9.21L7.22 5.14C7.31 5.06 7.31 4.93 7.22 4.85L3.06 0.78C2.97 0.7 2.84 0.7 2.76 0.79C2.68 0.87 2.68 1 2.77 1.08L6.78 4.99L2.77 8.91Z" fill="#FFFFFF" fill-opacity="0" fill-rule="nonzero"/>
		<path d="M2.76 9.2C2.84 9.29 2.97 9.29 3.06 9.21L7.22 5.14C7.31 5.06 7.31 4.93 7.22 4.85L3.06 0.78C2.97 0.7 2.84 0.7 2.76 0.79C2.68 0.87 2.68 1 2.77 1.08L6.78 4.99L2.77 8.91C2.68 8.99 2.68 9.12 2.76 9.2Z" stroke="#FFFFFF" stroke-opacity="0" stroke-width="1.500000"/>
	</g>
</svg>
