<svg width="16.000000" height="16.000000" viewBox="0 0 16 16" fill="none" xmlns="http://www.w3.org/2000/svg" xmlns:xlink="http://www.w3.org/1999/xlink">
	<desc>
			Created with Pixso.
	</desc>
	<defs>
		<clipPath id="clip135_2242">
			<rect width="16.000000" height="16.000000" fill="white" fill-opacity="0"/>
		</clipPath>
	</defs>
	<g clip-path="url(#clip135_2242)">
		<path d="M0.5 7.99C0.5 6.82 0.49 5.65 0.5 4.47C0.49 3.91 0.56 3.34 0.7 2.79C1.01 1.63 1.77 0.94 2.93 0.67C3.51 0.55 4.11 0.49 4.7 0.5C6.95 0.5 9.2 0.5 11.45 0.5C12.01 0.49 12.58 0.56 13.13 0.69C14.33 0.98 15.05 1.74 15.32 2.93C15.44 3.5 15.5 4.07 15.49 4.65C15.49 6.92 15.49 9.19 15.49 11.46C15.5 12.03 15.43 12.59 15.3 13.13C15.01 14.33 14.25 15.04 13.05 15.32C12.47 15.44 11.88 15.5 11.28 15.49C9.04 15.49 6.81 15.49 4.57 15.49C4 15.5 3.43 15.43 2.87 15.3C1.67 15.01 0.95 14.25 0.67 13.05C0.53 12.44 0.5 11.83 0.5 11.21C0.5 10.14 0.5 9.06 0.5 7.99Z" fill="#FFFFFF" fill-opacity="0" fill-rule="nonzero"/>
		<path d="M0.5 4.47C0.49 3.91 0.56 3.34 0.7 2.79C1.01 1.63 1.77 0.94 2.93 0.67C3.51 0.55 4.11 0.49 4.7 0.5C6.95 0.5 9.2 0.5 11.45 0.5C12.01 0.49 12.58 0.56 13.13 0.69C14.33 0.98 15.05 1.74 15.32 2.93C15.44 3.5 15.5 4.07 15.49 4.65C15.49 6.92 15.49 9.19 15.49 11.46C15.5 12.03 15.43 12.59 15.3 13.13C15.01 14.33 14.25 15.04 13.05 15.32C12.47 15.44 11.88 15.5 11.28 15.49C9.04 15.49 6.81 15.49 4.57 15.49C4 15.5 3.43 15.43 2.87 15.3C1.67 15.01 0.95 14.25 0.67 13.05C0.53 12.44 0.5 11.83 0.5 11.21C0.5 10.14 0.5 9.06 0.5 7.99C0.5 6.82 0.49 5.65 0.5 4.47Z" stroke="#FFFFFF" stroke-opacity="0" stroke-width="1.500000"/>
		<path d="M0.5 7.99C0.5 6.82 0.49 5.65 0.5 4.47C0.49 3.91 0.56 3.34 0.7 2.79C1.01 1.63 1.77 0.94 2.93 0.67C3.51 0.55 4.11 0.49 4.7 0.5C6.95 0.5 9.2 0.5 11.45 0.5C12.01 0.49 12.58 0.56 13.13 0.69C14.33 0.98 15.05 1.74 15.32 2.93C15.44 3.5 15.5 4.07 15.49 4.65C15.49 6.92 15.49 9.19 15.49 11.46C15.5 12.03 15.43 12.59 15.3 13.13C15.01 14.33 14.25 15.04 13.05 15.32C12.47 15.44 11.88 15.5 11.28 15.49C9.04 15.49 6.81 15.49 4.57 15.49C4 15.5 3.43 15.43 2.87 15.3C1.67 15.01 0.95 14.25 0.67 13.05C0.53 12.44 0.5 11.83 0.5 11.21C0.5 10.14 0.5 9.06 0.5 7.99Z" fill="#000000" fill-opacity="0" fill-rule="nonzero"/>
		<path d="M0.5 4.47C0.49 3.91 0.56 3.34 0.7 2.79C1.01 1.63 1.77 0.94 2.93 0.67C3.51 0.55 4.11 0.49 4.7 0.5C6.95 0.5 9.2 0.5 11.45 0.5C12.01 0.49 12.58 0.56 13.13 0.69C14.33 0.98 15.05 1.74 15.32 2.93C15.44 3.5 15.5 4.07 15.49 4.65C15.49 6.92 15.49 9.19 15.49 11.46C15.5 12.03 15.43 12.59 15.3 13.13C15.01 14.33 14.25 15.04 13.05 15.32C12.47 15.44 11.88 15.5 11.28 15.49C9.04 15.49 6.81 15.49 4.57 15.49C4 15.5 3.43 15.43 2.87 15.3C1.67 15.01 0.95 14.25 0.67 13.05C0.53 12.44 0.5 11.83 0.5 11.21C0.5 10.14 0.5 9.06 0.5 7.99C0.5 6.82 0.49 5.65 0.5 4.47Z" stroke="#FFFFFF" stroke-opacity="0" stroke-width="1.500000"/>
		<circle cx="8.000000" cy="8.000000" r="8.000000" fill="#FFFFFF" fill-opacity="0"/>
		<circle cx="8.000000" cy="8.000000" r="8.000000" stroke="#000000" stroke-opacity="0" stroke-width="1.500000"/>
		<path d="M15 5.19L15.03 5.19C15.33 4.88 15.32 4.42 15.02 4.12C14.72 3.83 14.25 3.84 13.96 4.14L13.96 4.17L15 5.19ZM2.03 4.17L2.03 4.14C1.74 3.84 1.27 3.83 0.97 4.12C0.67 4.42 0.66 4.88 0.96 5.19L0.99 5.19L2.03 4.17Z" fill="#000000" fill-opacity="0" fill-rule="nonzero"/>
		<path d="M14.5 4.66L8 11.33L1.5 4.66" stroke="#000000" stroke-opacity="0.600000" stroke-width="1.500000" stroke-linejoin="round" stroke-linecap="round"/>
		<path d="M1.73 4.43C1.61 4.3 1.39 4.29 1.26 4.42C1.13 4.55 1.13 4.76 1.26 4.89L7.76 11.56C7.89 11.7 8.1 11.7 8.23 11.56L14.73 4.89C14.86 4.76 14.86 4.55 14.73 4.42C14.6 4.29 14.38 4.3 14.26 4.43L8 10.85L1.73 4.43Z" fill="#FFFFFF" fill-opacity="0" fill-rule="nonzero"/>
		<path d="M1.26 4.42C1.13 4.55 1.13 4.76 1.26 4.89L7.76 11.56C7.89 11.7 8.1 11.7 8.23 11.56L14.73 4.89C14.86 4.76 14.86 4.55 14.73 4.42C14.6 4.29 14.38 4.3 14.26 4.43L8 10.85L1.73 4.43C1.61 4.3 1.39 4.29 1.26 4.42Z" stroke="#FFFFFF" stroke-opacity="0" stroke-width="1.500000"/>
	</g>
</svg>
