<svg width="24.000000" height="24.000000" viewBox="0 0 24 24" fill="none" xmlns="http://www.w3.org/2000/svg" xmlns:xlink="http://www.w3.org/1999/xlink">
	<desc>
			Created with Pixso.
	</desc>
	<defs>
		<clipPath id="clip5_179">
			<rect width="24.000000" height="24.000000" fill="white" fill-opacity="0"/>
		</clipPath>
	</defs>
	<g clip-path="url(#clip5_179)">
		<g opacity="0.000000">
			<rect width="24.000000" height="24.000000" fill="#000000" fill-opacity="1.000000"/>
		</g>
		<path d="M21.1 7.85C21.34 8.09 21.46 8.37 21.46 8.71C21.46 9.03 21.34 9.3 21.12 9.53L20.33 10.32C20.1 10.54 19.83 10.66 19.51 10.66C19.17 10.66 18.89 10.54 18.65 10.3C18.6 10.24 18.54 10.22 18.48 10.22C18.44 10.22 18.4 10.24 18.36 10.3L15.07 14.95C15.51 15.59 15.74 16.3 15.74 17.09C15.74 17.34 15.71 17.59 15.67 17.83C15.53 18.54 15.16 19.2 14.57 19.79L14.06 20.28C13.85 20.52 13.58 20.64 13.25 20.64C12.93 20.64 12.65 20.52 12.43 20.28L9 16.87L2.78 21.48C2.73 21.48 2.6 21.47 2.57 21.43C2.53 21.38 2.53 21.32 2.57 21.26L7.13 14.98L3.7 11.54C3.47 11.32 3.35 11.05 3.35 10.73C3.35 10.41 3.47 10.13 3.7 9.91L4.32 9.28C4.67 8.93 5.07 8.66 5.52 8.47C5.96 8.3 6.42 8.21 6.89 8.21C7.64 8.21 8.34 8.43 8.98 8.88L13.66 5.57C13.7 5.53 13.73 5.49 13.73 5.45C13.73 5.4 13.71 5.36 13.68 5.33C13.42 5.07 13.3 4.77 13.3 4.44C13.3 4.13 13.41 3.85 13.63 3.6L14.4 2.83C14.62 2.61 14.9 2.5 15.24 2.5C15.59 2.5 15.87 2.61 16.08 2.83L21.1 7.85Z" fill="#3093FA" fill-opacity="1.000000" fill-rule="nonzero"/>
	</g>
</svg>
