<svg width="24.000000" height="24.000000" viewBox="0 0 24 24" fill="none" xmlns="http://www.w3.org/2000/svg" xmlns:xlink="http://www.w3.org/1999/xlink">
	<desc>
			Created with Pixso.
	</desc>
	<defs>
		<clipPath id="clip4_673">
			<rect width="24.000000" height="24.000000" fill="white" fill-opacity="0"/>
		</clipPath>
	</defs>
	<g clip-path="url(#clip4_673)">
		<g opacity="0.000000">
			<rect width="24.000000" height="24.000000" fill="#000000" fill-opacity="1.000000"/>
		</g>
		<path d="M21.1 7.84C21.34 8.05 21.46 8.33 21.46 8.68C21.46 9.02 21.34 9.3 21.12 9.53L20.29 10.34C20.09 10.55 19.84 10.66 19.54 10.66C19.22 10.66 18.92 10.54 18.65 10.3C18.6 10.24 18.54 10.22 18.48 10.22C18.44 10.22 18.4 10.24 18.36 10.3L15.07 14.95C15.51 15.59 15.74 16.3 15.74 17.09C15.74 17.34 15.71 17.59 15.67 17.83C15.53 18.54 15.16 19.2 14.57 19.79L14.06 20.28C13.85 20.52 13.58 20.64 13.25 20.64C12.93 20.64 12.65 20.52 12.43 20.28L9 16.87L2.78 21.48C2.73 21.48 2.6 21.47 2.57 21.43C2.53 21.38 2.53 21.32 2.57 21.26L7.13 14.98L3.7 11.54C3.47 11.31 3.35 11.05 3.35 10.73C3.35 10.41 3.47 10.13 3.7 9.91L4.32 9.29C4.65 8.94 5.05 8.68 5.51 8.51C5.96 8.32 6.43 8.22 6.91 8.22C7.69 8.22 8.38 8.44 8.98 8.88L13.66 5.56C13.7 5.53 13.73 5.49 13.73 5.44C13.73 5.4 13.71 5.36 13.68 5.32C13.42 5.06 13.3 4.77 13.3 4.43C13.3 4.13 13.41 3.85 13.63 3.59L14.4 2.82C14.62 2.6 14.9 2.5 15.24 2.5C15.59 2.5 15.87 2.6 16.08 2.82L21.1 7.84ZM19.82 8.7L15.24 4.13L14.88 4.48C15.13 4.79 15.24 5.15 15.22 5.58C15.16 6.08 14.93 6.5 14.52 6.81L8.85 10.8L8.4 10.34C8 9.92 7.49 9.71 6.89 9.71C6.29 9.71 5.79 9.92 5.38 10.34L4.98 10.73L13.27 18.95L13.61 18.62C14.02 18.2 14.23 17.69 14.23 17.09C14.23 16.49 14.02 15.97 13.61 15.53L13.15 15.06L17.14 9.41C17.26 9.21 17.43 9.05 17.65 8.93C17.87 8.8 18.1 8.72 18.36 8.7C18.76 8.69 19.13 8.81 19.49 9.05L19.82 8.7Z" fill="#000000" fill-opacity="0.600000" fill-rule="nonzero"/>
	</g>
</svg>
