<svg width="24.000000" height="24.000000" viewBox="0 0 24 24" fill="none" xmlns="http://www.w3.org/2000/svg" xmlns:xlink="http://www.w3.org/1999/xlink">
	<desc>
			Created with Pixso.
	</desc>
	<defs>
		<clipPath id="clip20_2065">
			<rect width="24.000000" height="24.000000" fill="white" fill-opacity="0"/>
		</clipPath>
	</defs>
	<g clip-path="url(#clip20_2065)">
		<g opacity="0.000000">
			<rect width="24.000000" height="24.000000" fill="#000000" fill-opacity="1.000000"/>
		</g>
		<path d="M21.6 11.15C21.47 9.6 20.99 8.18 20.16 6.88C19.35 5.58 18.28 4.53 16.96 3.72C15.65 2.92 14.22 2.45 12.66 2.33L12.66 1.72C12.66 1.52 12.6 1.34 12.46 1.18C12.31 1.03 12.13 0.95 11.92 0.95C11.72 0.95 11.54 1.03 11.39 1.18C11.23 1.34 11.15 1.52 11.15 1.72L11.15 2.33C9.59 2.45 8.15 2.93 6.83 3.76C5.52 4.58 4.46 5.64 3.64 6.96C2.82 8.29 2.36 9.74 2.26 11.33L1.72 11.33C1.52 11.33 1.34 11.39 1.18 11.54C1.03 11.68 0.95 11.86 0.95 12.07C0.95 12.27 1.03 12.45 1.18 12.59C1.34 12.74 1.52 12.82 1.72 12.82L2.26 12.82C2.38 14.38 2.86 15.83 3.69 17.14C4.52 18.46 5.6 19.53 6.94 20.33C8.28 21.14 9.74 21.59 11.33 21.7L11.33 22.27C11.33 22.47 11.39 22.65 11.53 22.8C11.68 22.94 11.86 23.02 12.06 23.02C12.27 23.02 12.45 22.94 12.6 22.8C12.74 22.65 12.81 22.47 12.81 22.27L12.81 21.7C14.36 21.55 15.79 21.06 17.1 20.23C18.4 19.39 19.45 18.32 20.26 17C21.05 15.67 21.5 14.23 21.6 12.66L22.27 12.66C22.47 12.66 22.65 12.59 22.79 12.46C22.94 12.31 23.02 12.13 23.02 11.92C23.02 11.72 22.94 11.54 22.79 11.38C22.65 11.23 22.47 11.15 22.27 11.15L21.6 11.15ZM3.73 11.33C3.85 10.03 4.25 8.83 4.92 7.72C5.6 6.62 6.49 5.72 7.57 5.04C8.67 4.35 9.86 3.95 11.15 3.83L11.15 4.43C11.15 4.64 11.23 4.82 11.39 4.96C11.54 5.1 11.72 5.17 11.92 5.17C12.13 5.17 12.31 5.1 12.46 4.96C12.6 4.82 12.66 4.64 12.66 4.43L12.66 3.83C13.95 3.95 15.13 4.34 16.2 5.02C17.28 5.68 18.17 6.55 18.86 7.62C19.55 8.7 19.96 9.87 20.09 11.15L19.55 11.15C19.35 11.15 19.17 11.23 19.02 11.38C18.86 11.54 18.78 11.72 18.78 11.92C18.78 12.13 18.86 12.31 19.02 12.46C19.17 12.59 19.35 12.66 19.55 12.66L20.11 12.66C20.01 13.97 19.63 15.16 18.95 16.25C18.28 17.33 17.41 18.22 16.34 18.91C15.27 19.61 14.1 20.04 12.81 20.17L12.81 19.56C12.81 19.35 12.74 19.17 12.6 19.02C12.45 18.86 12.27 18.79 12.06 18.79C11.86 18.79 11.68 18.86 11.53 19.02C11.39 19.17 11.33 19.35 11.33 19.56L11.33 20.2C10.01 20.1 8.8 19.72 7.68 19.06C6.57 18.38 5.67 17.5 4.97 16.39C4.28 15.3 3.88 14.11 3.77 12.82L4.43 12.82C4.64 12.82 4.82 12.74 4.96 12.59C5.1 12.45 5.17 12.27 5.17 12.07C5.17 11.86 5.1 11.68 4.96 11.54C4.82 11.39 4.64 11.33 4.43 11.33L3.73 11.33ZM10.05 12.07C10.05 12.61 10.24 13.07 10.62 13.45C10.99 13.83 11.45 14.02 12 14.02C12.52 14.02 12.98 13.83 13.36 13.45C13.73 13.07 13.91 12.61 13.91 12.07C13.91 11.54 13.73 11.09 13.36 10.72C12.98 10.33 12.52 10.14 12 10.14C11.45 10.14 10.99 10.33 10.62 10.72C10.24 11.09 10.05 11.54 10.05 12.07Z" fill="#000000" fill-opacity="0.600000" fill-rule="nonzero"/>
	</g>
</svg>
