<svg width="24.000000" height="24.000000" viewBox="0 0 24 24" fill="none" xmlns="http://www.w3.org/2000/svg" xmlns:xlink="http://www.w3.org/1999/xlink">
	<desc>
			Created with Pixso.
	</desc>
	<defs>
		<clipPath id="clip4_753">
			<rect width="24.000000" height="24.000000" fill="white" fill-opacity="0"/>
		</clipPath>
	</defs>
	<g clip-path="url(#clip4_753)">
		<g opacity="0.000000">
			<rect width="24.000000" height="24.000000" fill="#000000" fill-opacity="1.000000"/>
		</g>
		<path d="M12 8.01C11.27 8.01 10.61 8.19 10.01 8.55C9.4 8.91 8.91 9.4 8.55 10.01C8.19 10.61 8.01 11.27 8.01 12C8.01 12.72 8.19 13.38 8.55 13.99C8.91 14.59 9.4 15.08 10.01 15.43C10.61 15.79 11.27 15.98 12 15.98C12.72 15.98 13.38 15.79 13.99 15.43C14.59 15.08 15.08 14.59 15.43 13.99C15.79 13.38 15.98 12.72 15.98 12C15.98 11.27 15.79 10.61 15.43 10.01C15.08 9.4 14.59 8.91 13.99 8.55C13.38 8.19 12.72 8.01 12 8.01ZM20.59 11.23C20.47 9.87 20.05 8.61 19.34 7.45C18.62 6.31 17.68 5.38 16.53 4.65C15.38 3.93 14.12 3.52 12.74 3.4L12.74 1.96C12.74 1.76 12.66 1.58 12.52 1.42C12.38 1.27 12.2 1.19 12 1.19C11.79 1.19 11.61 1.27 11.46 1.42C11.3 1.58 11.23 1.76 11.23 1.96L11.23 3.4C9.85 3.52 8.59 3.93 7.43 4.65C6.28 5.38 5.34 6.31 4.62 7.45C3.89 8.61 3.47 9.88 3.35 11.26L1.93 11.26C1.73 11.26 1.55 11.33 1.41 11.47C1.27 11.61 1.19 11.79 1.19 12C1.19 12.2 1.27 12.38 1.41 12.53C1.55 12.69 1.73 12.76 1.93 12.76L3.35 12.76C3.47 14.14 3.89 15.4 4.62 16.55C5.34 17.71 6.28 18.64 7.44 19.37C8.6 20.09 9.88 20.5 11.26 20.62L11.26 22.02C11.26 22.23 11.33 22.41 11.47 22.56C11.61 22.72 11.79 22.79 12 22.79C12.2 22.79 12.38 22.72 12.53 22.56C12.69 22.41 12.76 22.23 12.76 22.02L12.76 20.62C14.13 20.5 15.38 20.08 16.53 19.36C17.68 18.62 18.62 17.68 19.34 16.53C20.05 15.38 20.47 14.12 20.59 12.74L22.02 12.74C22.23 12.74 22.41 12.66 22.56 12.52C22.72 12.38 22.79 12.2 22.79 12C22.79 11.79 22.72 11.61 22.56 11.46C22.41 11.3 22.23 11.23 22.02 11.23L20.59 11.23ZM12 19.14C10.7 19.14 9.51 18.83 8.4 18.18C7.31 17.54 6.44 16.68 5.8 15.59C5.16 14.49 4.84 13.29 4.84 12C4.84 10.7 5.16 9.51 5.8 8.41C6.44 7.33 7.31 6.46 8.4 5.82C9.51 5.18 10.7 4.87 12 4.87C13.29 4.87 14.48 5.18 15.58 5.82C16.66 6.46 17.52 7.33 18.16 8.43C18.8 9.53 19.12 10.72 19.12 12.01C19.12 13.31 18.8 14.51 18.16 15.6C17.52 16.68 16.66 17.54 15.58 18.18C14.48 18.83 13.29 19.14 12 19.14Z" fill="#3093FA" fill-opacity="1.000000" fill-rule="nonzero"/>
	</g>
</svg>
