<svg width="24.000000" height="24.000000" viewBox="0 0 24 24" fill="none" xmlns="http://www.w3.org/2000/svg" xmlns:xlink="http://www.w3.org/1999/xlink">
	<desc>
			Created with Pixso.
	</desc>
	<defs>
		<clipPath id="clip20_2071">
			<rect width="24.000000" height="24.000000" fill="white" fill-opacity="0"/>
		</clipPath>
	</defs>
	<g clip-path="url(#clip20_2071)">
		<g opacity="0.000000">
			<rect width="24.000000" height="24.000000" fill="#000000" fill-opacity="1.000000"/>
		</g>
		<path d="M1.98 19.43C1.98 20.27 2.28 20.98 2.87 21.56C3.44 22.14 4.15 22.43 4.98 22.43L19.01 22.43C19.84 22.43 20.55 22.14 21.13 21.56C21.71 20.98 22.01 20.27 22.01 19.43L22.01 9.65L1.98 9.65L1.98 19.43ZM18.18 2.94L18.18 4.66C18.18 5.24 17.98 5.75 17.55 6.18C17.13 6.62 16.61 6.84 16.01 6.84C15.4 6.84 14.88 6.62 14.45 6.19C14.01 5.78 13.8 5.26 13.8 4.66L13.8 2.94L10.22 2.94L10.22 4.66C10.22 5.24 10.01 5.75 9.58 6.18C9.16 6.62 8.64 6.84 8.04 6.84C7.43 6.84 6.91 6.62 6.47 6.19C6.04 5.78 5.82 5.26 5.82 4.66L5.82 2.94L5.02 2.94C4.18 2.94 3.47 3.24 2.88 3.83C2.28 4.41 1.98 5.11 1.98 5.94L1.98 8.14L22.01 8.14L22.01 5.94C22.01 5.11 21.71 4.41 21.13 3.83C20.55 3.24 19.84 2.94 19.01 2.94L18.18 2.94ZM8.02 5.64C8.28 5.64 8.52 5.54 8.71 5.35C8.92 5.15 9.02 4.91 9.02 4.63L9.02 2.57C9.02 2.28 8.92 2.04 8.71 1.85C8.52 1.65 8.28 1.56 8.02 1.56C7.74 1.56 7.51 1.65 7.3 1.85C7.1 2.04 7.01 2.28 7.01 2.57L7.01 4.63C7.01 4.91 7.1 5.15 7.3 5.35C7.51 5.54 7.74 5.64 8.02 5.64ZM16.01 5.64C16.28 5.64 16.51 5.54 16.7 5.35C16.89 5.15 16.99 4.91 16.99 4.63L16.99 2.57C16.99 2.28 16.89 2.04 16.7 1.85C16.51 1.65 16.28 1.56 16.01 1.56C15.73 1.56 15.5 1.65 15.3 1.85C15.1 2.04 15 2.28 15 2.57L15 4.63C15 4.91 15.1 5.15 15.3 5.35C15.5 5.54 15.73 5.64 16.01 5.64ZM7.48 11.76L7.48 13.78L5.46 13.78L5.46 11.76L7.48 11.76ZM11.21 11.76L11.21 13.78L9.18 13.78L9.18 11.76L11.21 11.76ZM14.92 11.76L14.92 13.78L12.93 13.78L12.93 11.76L14.92 11.76ZM18.65 11.76L18.65 13.78L16.66 13.78L16.66 11.76L18.65 11.76ZM7.48 15.77L7.48 17.76L5.46 17.76L5.46 15.77L7.48 15.77ZM11.21 15.77L11.21 17.76L9.18 17.76L9.18 15.77L11.21 15.77Z" fill="#3093FA" fill-opacity="1.000000" fill-rule="nonzero"/>
	</g>
</svg>
