<svg width="24.000000" height="24.000000" viewBox="0 0 24 24" fill="none" xmlns="http://www.w3.org/2000/svg" xmlns:xlink="http://www.w3.org/1999/xlink">
	<desc>
			Created with Pixso.
	</desc>
	<defs>
		<clipPath id="clip5_149">
			<rect width="24.000000" height="24.000000" fill="white" fill-opacity="0"/>
		</clipPath>
	</defs>
	<g clip-path="url(#clip5_149)">
		<g opacity="0.000000">
			<rect width="24.000000" height="24.000000" fill="#000000" fill-opacity="1.000000"/>
		</g>
		<path d="M5.46 13.78L7.48 13.78L7.48 11.76L5.46 11.76L5.46 13.78ZM9.18 13.78L11.21 13.78L11.21 11.76L9.18 11.76L9.18 13.78ZM12.93 13.78L14.92 13.78L14.92 11.76L12.93 11.76L12.93 13.78ZM16.66 13.78L18.65 13.78L18.65 11.76L16.66 11.76L16.66 13.78ZM5.46 17.76L7.48 17.76L7.48 15.77L5.46 15.77L5.46 17.76ZM9.18 17.76L11.21 17.76L11.21 15.77L9.18 15.77L9.18 17.76ZM16.99 2.93L16.99 2.57C16.99 2.28 16.89 2.04 16.7 1.85C16.51 1.65 16.28 1.56 16.01 1.56C15.73 1.56 15.5 1.65 15.3 1.85C15.1 2.04 15 2.28 15 2.57L15 2.93L9.02 2.93L9.02 2.57C9.02 2.28 8.92 2.04 8.71 1.85C8.52 1.65 8.28 1.56 8.02 1.56C7.74 1.56 7.51 1.65 7.3 1.85C7.1 2.04 7.01 2.28 7.01 2.57L7.01 2.93L4.98 2.93C4.44 2.93 3.94 3.06 3.48 3.34C3.03 3.6 2.67 3.97 2.4 4.44C2.12 4.9 1.98 5.4 1.98 5.93L1.98 19.44C1.98 20.27 2.28 20.98 2.87 21.56C3.44 22.14 4.15 22.44 4.98 22.44L19.01 22.44C19.84 22.44 20.55 22.14 21.13 21.56C21.71 20.98 22.01 20.27 22.01 19.44L22.01 5.93C22.01 5.09 21.71 4.38 21.13 3.8C20.55 3.22 19.84 2.93 19.01 2.93L16.99 2.93ZM7.01 4.44L7.01 4.63C7.01 4.91 7.1 5.15 7.3 5.35C7.51 5.54 7.74 5.64 8.02 5.64C8.28 5.64 8.52 5.54 8.71 5.35C8.92 5.15 9.02 4.91 9.02 4.63L9.02 4.44L15 4.44L15 4.63C15 4.91 15.09 5.15 15.29 5.35C15.48 5.54 15.71 5.64 15.98 5.64C16.25 5.64 16.49 5.54 16.68 5.35C16.89 5.15 16.99 4.91 16.99 4.63L16.99 4.44L18.98 4.44C19.4 4.44 19.75 4.58 20.04 4.88C20.35 5.18 20.5 5.53 20.5 5.93L20.5 8.14L3.5 8.14L3.5 5.93C3.5 5.51 3.65 5.15 3.94 4.87C4.24 4.58 4.58 4.44 4.98 4.44L7.01 4.44ZM4.98 20.95C4.57 20.95 4.22 20.8 3.93 20.51C3.64 20.21 3.5 19.85 3.5 19.44L3.5 9.65L20.5 9.65L20.5 19.44C20.5 19.85 20.35 20.21 20.05 20.51C19.77 20.8 19.42 20.95 19.01 20.95L4.98 20.95Z" fill="#000000" fill-opacity="0.600000" fill-rule="nonzero"/>
	</g>
</svg>
