<svg width="20.000000" height="20.000000" viewBox="0 0 20 20" fill="none" xmlns="http://www.w3.org/2000/svg" xmlns:xlink="http://www.w3.org/1999/xlink">
	<desc>
			Created with Pixso.
	</desc>
	<defs>
		<clipPath id="clip50_2365">
			<rect width="20.000000" height="20.000000" fill="white" fill-opacity="0"/>
		</clipPath>
	</defs>
	<g clip-path="url(#clip50_2365)">
		<rect rx="4.000000" width="20.000000" height="20.000000" fill="#3093FA" fill-opacity="1.000000"/>
		<path d="M13.04 11.63C12.65 11.63 12.29 11.73 11.95 11.93C11.62 12.12 11.35 12.39 11.16 12.72C10.96 13.05 10.86 13.41 10.86 13.8C10.86 14.19 10.96 14.56 11.16 14.89C11.35 15.23 11.62 15.49 11.95 15.69C12.29 15.88 12.65 15.98 13.04 15.98C13.43 15.98 13.79 15.88 14.13 15.69C14.46 15.49 14.73 15.23 14.92 14.89C15.12 14.56 15.22 14.19 15.22 13.8C15.22 13.41 15.12 13.05 14.92 12.72C14.73 12.39 14.46 12.12 14.13 11.93C13.79 11.73 13.43 11.63 13.04 11.63ZM14.09 13.53C14.17 13.53 14.24 13.55 14.29 13.61C14.34 13.67 14.37 13.73 14.37 13.8C14.37 13.88 14.34 13.94 14.29 14C14.24 14.05 14.17 14.08 14.09 14.08L13.31 14.08L13.31 14.86C13.31 14.94 13.29 15 13.24 15.06C13.18 15.11 13.12 15.13 13.04 15.13C12.96 15.13 12.89 15.11 12.85 15.06C12.79 15 12.76 14.94 12.76 14.86L12.76 14.08L11.98 14.08C11.91 14.08 11.84 14.05 11.79 14C11.74 13.94 11.71 13.88 11.71 13.8C11.71 13.73 11.74 13.67 11.79 13.61C11.84 13.55 11.91 13.53 11.98 13.53L12.76 13.53L12.76 12.74C12.76 12.67 12.79 12.6 12.85 12.55C12.89 12.5 12.96 12.47 13.04 12.47C13.12 12.47 13.18 12.5 13.24 12.55C13.29 12.6 13.31 12.67 13.31 12.74L13.31 13.53L14.09 13.53Z" fill="#FFFFFF" fill-opacity="0.600000" fill-rule="nonzero"/>
		<path d="M9.89 4C9 4 8.18 4.22 7.43 4.66C6.68 5.09 6.09 5.69 5.65 6.44C5.21 7.19 5 8.01 5 8.89C5 10.15 5.42 11.38 6.28 12.57C7.14 13.77 8.08 14.81 9.09 15.71C9.32 15.9 9.58 16 9.89 16C10.19 16 10.45 15.9 10.67 15.71L10.78 15.6C10.36 15.08 10.16 14.48 10.16 13.8C10.16 13.42 10.23 13.05 10.38 12.7C10.53 12.35 10.74 12.04 11 11.76C11.27 11.5 11.59 11.29 11.94 11.14C12.29 10.99 12.66 10.92 13.04 10.92C13.45 10.92 13.85 11 14.24 11.18C14.6 10.38 14.78 9.61 14.78 8.89C14.78 8.01 14.56 7.19 14.12 6.44C13.68 5.69 13.08 5.09 12.33 4.66C11.59 4.22 10.77 4 9.89 4ZM8.66 8.72C8.66 8.38 8.77 8.09 9.01 7.85C9.25 7.61 9.54 7.49 9.87 7.49C10.21 7.49 10.5 7.61 10.73 7.85C10.97 8.09 11.09 8.38 11.09 8.72C11.09 9.05 10.97 9.33 10.73 9.57C10.5 9.81 10.21 9.93 9.87 9.93C9.54 9.93 9.25 9.81 9.01 9.57C8.77 9.33 8.66 9.05 8.66 8.72Z" fill="#FFFFFF" fill-opacity="1.000000" fill-rule="nonzero"/>
	</g>
</svg>
