<svg width="24.000000" height="24.000000" viewBox="0 0 24 24" fill="none" xmlns="http://www.w3.org/2000/svg" xmlns:xlink="http://www.w3.org/1999/xlink">
  <metadata>
    <agcit_code>agcit_huawei_exam_answer_questions</agcit_code>
  </metadata>
	<desc>
			Created with Pixso.
	</desc>
	<defs>
		<filter id="filter_19_5552_dd" x="5.049316" y="6.413330" width="14.000000" height="14.000000" filterUnits="userSpaceOnUse" color-interpolation-filters="sRGB">
			<feFlood flood-opacity="0" result="BackgroundImageFix"/>
			<feColorMatrix in="SourceAlpha" type="matrix" values="0 0 0 0 0 0 0 0 0 0 0 0 0 0 0 0 0 0 127 0" result="hardAlpha"/>
			<feOffset dx="0.0493555" dy="1.41335"/>
			<feGaussianBlur stdDeviation="0.666667"/>
			<feComposite in2="hardAlpha" operator="out" k2="-1" k3="1"/>
			<feColorMatrix type="matrix" values="0 0 0 0 0 0 0 0 0 0 0 0 0 0 0 0 0 0 0.1 0"/>
			<feBlend mode="normal" in2="BackgroundImageFix" result="effect_dropShadow_1"/>
			<feBlend mode="normal" in="SourceGraphic" in2="effect_dropShadow_1" result="shape"/>
		</filter>
	</defs>
	<rect x="2.000000" y="2.000000" rx="10.000000" width="20.000000" height="20.000000" fill="#E84026" fill-opacity="1.000000"/>
	<g filter="url(#filter_19_5552_dd)">
		<path d="M9.55 8.26C9.19 7.91 8.62 7.91 8.26 8.26C7.91 8.62 7.91 9.19 8.26 9.55L10.71 12L8.26 14.44C7.91 14.8 7.91 15.37 8.26 15.73C8.62 16.08 9.19 16.08 9.55 15.73L12 13.28L14.44 15.73C14.8 16.08 15.37 16.08 15.73 15.73C16.08 15.37 16.08 14.8 15.73 14.44L13.28 12L15.73 9.55C16.08 9.19 16.08 8.62 15.73 8.26C15.37 7.91 14.8 7.91 14.44 8.26L12 10.71L9.55 8.26Z" fill="#FFFFFF" fill-opacity="1.000000" fill-rule="evenodd"/>
		<path d="M7.9 7.28C7.78 7.36 7.66 7.45 7.56 7.56C7.45 7.66 7.36 7.78 7.28 7.9C7.23 7.99 7.18 8.09 7.14 8.19C7.09 8.3 7.05 8.42 7.03 8.55C7.01 8.66 7 8.78 7 8.91C7 9.03 7.01 9.15 7.03 9.27C7.05 9.39 7.09 9.51 7.14 9.63C7.18 9.73 7.23 9.82 7.28 9.91C7.36 10.04 7.45 10.15 7.56 10.26L9.3 12L7.56 13.73C7.45 13.84 7.36 13.95 7.28 14.08C7.23 14.17 7.18 14.26 7.14 14.36C7.09 14.48 7.05 14.6 7.03 14.72C7.01 14.84 7 14.96 7 15.08C7 15.21 7.01 15.33 7.03 15.44C7.05 15.57 7.09 15.69 7.14 15.8C7.18 15.9 7.23 16 7.28 16.09C7.36 16.21 7.45 16.33 7.56 16.43C7.66 16.54 7.78 16.63 7.9 16.71C7.99 16.76 8.09 16.81 8.19 16.85C8.3 16.9 8.42 16.94 8.55 16.96C8.66 16.98 8.78 17 8.91 17C9.03 17 9.15 16.98 9.27 16.96C9.39 16.94 9.51 16.9 9.63 16.85C9.73 16.81 9.82 16.76 9.91 16.71C10.04 16.63 10.15 16.54 10.26 16.43L12 14.69L13.74 16.43C13.84 16.54 13.95 16.63 14.08 16.71C14.17 16.76 14.26 16.81 14.36 16.85C14.48 16.9 14.6 16.94 14.72 16.96C14.84 16.98 14.96 17 15.08 17C15.21 17 15.33 16.98 15.44 16.96C15.57 16.94 15.69 16.9 15.8 16.85C15.9 16.81 16 16.76 16.09 16.71C16.21 16.63 16.33 16.54 16.43 16.43C16.54 16.33 16.63 16.21 16.71 16.09C16.76 16 16.81 15.9 16.85 15.8C16.9 15.69 16.94 15.57 16.96 15.44C16.98 15.33 17 15.21 17 15.08C17 14.96 16.98 14.84 16.96 14.72C16.94 14.6 16.9 14.48 16.85 14.36C16.81 14.26 16.76 14.17 16.71 14.08C16.63 13.95 16.54 13.84 16.43 13.73L14.69 12L16.43 10.26C16.54 10.15 16.63 10.04 16.71 9.91C16.76 9.82 16.81 9.73 16.85 9.63C16.9 9.51 16.94 9.39 16.96 9.27C16.98 9.15 17 9.03 17 8.91C17 8.78 16.98 8.66 16.96 8.55C16.94 8.42 16.9 8.3 16.85 8.19C16.81 8.09 16.76 7.99 16.71 7.9C16.63 7.78 16.54 7.66 16.43 7.56C16.33 7.45 16.21 7.36 16.09 7.28C16 7.23 15.9 7.18 15.8 7.14C15.69 7.09 15.57 7.05 15.44 7.03C15.33 7.01 15.21 7 15.08 7C14.96 7 14.84 7.01 14.72 7.03C14.6 7.05 14.48 7.09 14.36 7.14C14.26 7.18 14.17 7.23 14.08 7.28C13.95 7.36 13.84 7.45 13.74 7.56L12 9.3L10.26 7.56C10.15 7.45 10.04 7.36 9.91 7.28C9.82 7.23 9.73 7.18 9.63 7.14C9.51 7.09 9.39 7.05 9.27 7.03C9.15 7.01 9.03 7 8.91 7C8.78 7 8.66 7.01 8.55 7.03C8.42 7.05 8.3 7.09 8.19 7.14C8.09 7.18 7.99 7.23 7.9 7.28ZM11.29 10L9.55 8.26C9.19 7.91 8.62 7.91 8.26 8.26C7.91 8.62 7.91 9.19 8.26 9.55L10 11.29L10.71 12L8.26 14.44C7.91 14.8 7.91 15.37 8.26 15.73C8.62 16.08 9.19 16.08 9.55 15.73L11.29 13.99L12 13.28L12.7 13.99L14.44 15.73C14.8 16.08 15.37 16.08 15.73 15.73C16.08 15.37 16.08 14.8 15.73 14.44L13.99 12.7L13.28 12L13.99 11.29L15.73 9.55C16.08 9.19 16.08 8.62 15.73 8.26C15.37 7.91 14.8 7.91 14.44 8.26L12.7 10L12 10.71L11.29 10Z" fill="#000000" fill-opacity="0.047059" fill-rule="evenodd"/>
	</g>
</svg>
