<svg width="24.000000" height="24.000000" viewBox="0 0 24 24" fill="none" xmlns="http://www.w3.org/2000/svg"
     xmlns:xlink="http://www.w3.org/1999/xlink">
    <desc>
        Created with Pixso.
    </desc>
    <defs>
        <clipPath id="clip3_2287">
            <rect width="24.000000" height="24.000000" fill="white" fill-opacity="0"/>
        </clipPath>
    </defs>
    <g clip-path="url(#clip3_2287)">
        <path d="M8.51132 4.69412C8.51132 4.96313 8.24603 5.23187 7.8468 5.23187C7.51456 5.23187 7.18228 5.02847 7.18216 4.69159L7.18216 2.53775C7.18216 2.26889 7.44757 2 7.8468 2C8.17905 2 8.51132 2.20099 8.51132 2.53775L8.51132 4.69412ZM15.8211 5.23187C16.2203 5.23187 16.4857 4.96313 16.4857 4.69412L16.4857 2.53775C16.4857 2.20099 16.2203 2 15.8211 2C15.4218 2 15.1567 2.26889 15.1567 2.53775L15.1567 4.69159C15.1567 5.02847 15.4887 5.23187 15.8211 5.23187ZM17.3805 3.79968C17.3805 3.35803 17.7386 2.99997 18.1802 2.99997C20.2894 2.99997 21.9976 4.72659 22 6.85858L22 18.1414C22 20.2734 20.2919 22 18.1826 22L5.81735 22C3.70813 22 2 20.2734 2 18.1414L2 6.85858C2 4.72659 3.70816 2.99997 5.81735 2.99997C6.10956 2.99997 6.34647 3.23688 6.34647 3.52908L6.34647 5.76938C6.35129 6.51913 7.09302 6.97336 7.83957 6.97336C8.73352 6.97336 9.3327 6.37015 9.3327 5.76938L9.3327 3.99997C9.3327 3.44769 9.7804 2.99997 10.3327 2.99997L13.3943 2.99997C13.9466 2.99997 14.3943 3.44769 14.3943 3.99997L14.3943 5.76938C14.3943 6.51913 15.1409 6.97336 15.8874 6.97336C16.7813 6.97336 17.3805 6.37015 17.3805 5.76938L17.3805 3.79968ZM16.523 9.18921L16.523 10.3452L12.7675 10.3452L12.7675 11.4491L15.9646 11.4491L15.9646 12.5952L8.25345 12.5952L8.25345 11.4491L11.4728 11.4491L11.4728 10.3452L7.69751 10.3452L7.69751 9.18921L11.4728 9.18921L11.4728 8.06296L12.7675 8.06296L12.7675 9.18921L16.523 9.18921ZM9.87424 17.3799L8.59933 17.3799L8.59933 13.3155L15.6212 13.3155L15.6212 17.3799L14.3463 17.3799L14.3463 16.964L9.87424 16.964L9.87424 17.3799ZM14.3463 15.8402L14.3463 14.5011L9.87424 14.5011L9.87424 15.8402L14.3463 15.8402Z"
              clip-rule="evenodd" fill="#FFFFFF" fill-opacity="1.000000" fill-rule="evenodd"/>
    </g>
</svg>
