<?xml version="1.0" encoding="UTF-8"?>
<svg width="72" height="72" viewBox="0 0 17 22" version="1.1" xmlns="http://www.w3.org/2000/svg" xmlns:xlink="http://www.w3.org/1999/xlink">
    <title>位置 (1)</title>
    <g id="" stroke="none" stroke-width="1" fill="#007DFF" fill-rule="evenodd">
        <g id="icon" transform="translate(-707.000000, -237.000000)" fill="#007DFF " fill-rule="nonzero">
            <g id="位置-(1)" transform="translate(707.000000, 237.000000)">
                <path d="M8.485125,0 C3.806,0 -0.000458326172,3.806 0,8.48466667 C0,10.2226667 0.522041674,11.89375 1.49920833,13.300375 C1.54825,13.3847083 1.59775,13.4662917 1.65595833,13.5455833 L7.84941665,21.7094167 C8.017625,21.896875 8.24358333,22 8.48558333,22 C8.724375,22 8.95170833,21.8959583 9.14833333,21.6755 L15.313375,13.5442083 C15.3743333,13.4635417 15.426125,13.3750833 15.4545417,13.3232917 C16.4459167,11.8969583 16.9707083,10.2240417 16.9707083,8.48558333 C16.9707083,3.806 13.16425,0 8.485125,0 Z M8.485125,11.5192917 C6.81404167,11.5192917 5.45416667,10.1594167 5.45416667,8.487875 C5.45416667,6.81679167 6.81404167,5.457375 8.485125,5.457375 C10.1562083,5.457375 11.5160833,6.81725 11.5160833,8.487875 C11.5160833,10.1594167 10.1562083,11.5192917 8.485125,11.5192917 Z" id="形状"></path>
            </g>
        </g>
    </g>
</svg>