<svg width="24.000000" height="24.000000" viewBox="0 0 24 24" fill="none" xmlns="http://www.w3.org/2000/svg" xmlns:xlink="http://www.w3.org/1999/xlink">
	<desc>
			Created with Pixso.
	</desc>
	<defs/>
	<rect width="24.000000" height="24.000000" fill="#FFFFFF" fill-opacity="0"/>
	<rect rx="12.000000" width="24.000000" height="24.000000" fill="#61860B" fill-opacity="1.000000"/>
	<path d="M17.82 11.28C18.02 11.28 18.19 11.34 18.34 11.48C18.47 11.62 18.54 11.79 18.54 12C18.54 12.2 18.47 12.37 18.34 12.51C18.19 12.65 18.02 12.71 17.82 12.71L12.71 12.71L12.71 17.82C12.71 18.02 12.65 18.19 12.51 18.34C12.37 18.47 12.2 18.54 12 18.54C11.79 18.54 11.62 18.47 11.48 18.34C11.34 18.19 11.28 18.02 11.28 17.82L11.28 12.71L6.17 12.71C5.97 12.71 5.8 12.65 5.65 12.51C5.52 12.37 5.45 12.2 5.45 12C5.45 11.79 5.52 11.62 5.65 11.48C5.8 11.34 5.97 11.28 6.17 11.28L11.28 11.28L11.28 6.17C11.28 5.97 11.34 5.8 11.48 5.65C11.62 5.52 11.79 5.45 12 5.45C12.2 5.45 12.37 5.52 12.51 5.65C12.65 5.8 12.71 5.97 12.71 6.17L12.71 11.28L17.82 11.28Z" fill="#FFFFFF" fill-opacity="1.000000" fill-rule="nonzero"/>
</svg>
