<svg width="16.000000" height="16.000000" viewBox="0 0 16 16" fill="none" xmlns="http://www.w3.org/2000/svg" xmlns:xlink="http://www.w3.org/1999/xlink">
	<desc>
			Created with Pixso.
	</desc>
	<defs>
		<clipPath id="clip51_4053">
			<rect width="16.000000" height="16.000000" fill="white" fill-opacity="0"/>
		</clipPath>
	</defs>
	<g opacity="0.600000">
		<g clip-path="url(#clip51_4053)">
			<path d="M3.46 4.38C3.4 4.47 3.36 4.58 3.33 4.69L2.43 7.81C2.41 7.83 2.39 7.84 2.36 7.85Q2.24 7.92 2.14 8.01C2.07 8.08 2 8.15 1.93 8.22C1.87 8.3 1.82 8.38 1.77 8.47C1.73 8.55 1.69 8.63 1.66 8.72C1.64 8.81 1.61 8.9 1.6 8.99C1.59 9.09 1.58 9.2 1.59 9.3L1.78 12.88C1.78 12.96 1.8 13.03 1.81 13.09C1.83 13.15 1.85 13.21 1.88 13.27C1.93 13.39 2.01 13.49 2.1 13.58C2.2 13.67 2.31 13.74 2.43 13.79C2.55 13.84 2.68 13.87 2.82 13.87L4.47 13.87Q4.62 13.87 4.73 13.81L4.73 13.81C4.8 13.77 4.86 13.7 4.91 13.62L5.31 12.92L10.68 12.92L11.08 13.62C11.18 13.79 11.32 13.87 11.52 13.87L13.17 13.87C13.24 13.87 13.31 13.86 13.38 13.85C13.44 13.84 13.5 13.82 13.56 13.79C13.68 13.74 13.79 13.67 13.89 13.58C13.98 13.49 14.06 13.39 14.11 13.27C14.17 13.15 14.2 13.02 14.21 12.88L14.4 9.3Q14.41 9.14 14.39 8.99C14.37 8.9 14.35 8.81 14.32 8.72C14.27 8.54 14.18 8.37 14.06 8.22C13.93 8.07 13.79 7.95 13.63 7.85C13.6 7.84 13.58 7.83 13.56 7.81L12.66 4.69Q12.61 4.52 12.53 4.38Q12.45 4.24 12.32 4.12C12.24 4.04 12.15 3.97 12.06 3.91C11.96 3.86 11.86 3.81 11.75 3.78C10.52 3.44 9.29 3.26 8.06 3.26C6.81 3.26 5.49 3.43 4.23 3.78C4.13 3.81 4.02 3.86 3.93 3.91C3.83 3.97 3.75 4.04 3.67 4.12C3.58 4.2 3.52 4.29 3.46 4.38ZM3.55 7.55C4.91 7.33 6.31 7.21 7.68 7.19C7.79 7.19 7.9 7.19 8 7.19C8.27 7.19 8.55 7.19 8.82 7.2C10.03 7.23 11.24 7.35 12.44 7.55L11.7 4.96C11.68 4.91 11.66 4.86 11.62 4.83C11.58 4.79 11.54 4.76 11.48 4.75C10.32 4.42 9.16 4.26 8 4.26C6.84 4.26 5.67 4.42 4.51 4.75C4.45 4.76 4.41 4.79 4.37 4.83C4.33 4.86 4.31 4.91 4.29 4.96L3.55 7.55ZM2.71 8.85C2.76 8.79 2.88 8.7 2.94 8.67C3.09 8.64 3.24 8.61 3.39 8.59C5.1 8.32 6.64 8.19 8 8.19C9.37 8.19 10.91 8.32 12.63 8.59C12.76 8.62 12.88 8.64 13.01 8.66C13.12 8.7 13.2 8.76 13.28 8.85C13.32 8.91 13.36 8.97 13.38 9.04C13.4 9.1 13.41 9.17 13.4 9.25L13.21 12.83L11.81 12.87L11.41 12.17C11.31 12.01 11.17 11.92 10.97 11.92L5.02 11.92Q4.87 11.92 4.76 11.98L4.76 11.99C4.69 12.03 4.63 12.09 4.58 12.17L4.18 12.87L2.82 12.87L2.59 9.25C2.58 9.1 2.62 8.97 2.71 8.85ZM3.39 11.34L5.02 11.33C5.24 11.33 5.42 11.16 5.42 10.93C5.42 10.71 5.24 10.53 5.02 10.53L3.39 10.54C3.17 10.54 2.99 10.71 2.99 10.94C2.99 11.16 3.17 11.34 3.39 11.34ZM10.97 11.34L12.6 11.33C12.82 11.33 13 11.16 13 10.93C13 10.71 12.82 10.53 12.6 10.53L10.97 10.54C10.75 10.54 10.57 10.71 10.57 10.94C10.57 11.16 10.75 11.34 10.97 11.34ZM6.1 11.34L9.89 11.33C10.12 11.33 10.29 11.16 10.29 10.93C10.29 10.71 10.11 10.53 9.89 10.53L6.1 10.54C5.87 10.54 5.7 10.71 5.7 10.94C5.7 11.16 5.88 11.34 6.1 11.34Z" fill="#000000" fill-opacity="0.898039" fill-rule="evenodd"/>
		</g>
	</g>
</svg>
