<svg width="16.000000" height="16.000000" viewBox="0 0 16 16" fill="none" xmlns="http://www.w3.org/2000/svg" xmlns:xlink="http://www.w3.org/1999/xlink">
	<desc>
			Created with Pixso.
	</desc>
	<defs>
		<clipPath id="clip51_4040">
			<rect width="16.000000" height="16.000000" fill="white" fill-opacity="0"/>
		</clipPath>
	</defs>
	<g clip-path="url(#clip51_4040)">
		<g opacity="0.600000">
			<path d="M13.5 3.75L13.5 9.72C13.5 10 13.28 10.22 13 10.22C12.72 10.22 12.5 10 12.5 9.72L12.5 3.75C12.5 3.58 12.46 3.42 12.4 3.26C12.33 3.11 12.25 2.98 12.13 2.86C12.02 2.75 11.89 2.66 11.74 2.59C11.59 2.53 11.43 2.5 11.26 2.5L3.73 2.5Q3.59 2.5 3.46 2.53L3.46 2.53C3.39 2.54 3.32 2.56 3.25 2.59C3.1 2.66 2.97 2.75 2.86 2.86C2.74 2.98 2.66 3.11 2.59 3.26C2.53 3.42 2.5 3.58 2.5 3.75L2.5 13.24Q2.5 13.39 2.53 13.53C2.55 13.6 2.57 13.67 2.59 13.73C2.62 13.8 2.66 13.87 2.71 13.94C2.75 14.01 2.8 14.07 2.86 14.13C2.93 14.2 3 14.25 3.08 14.3L3.08 14.3L3.08 14.3Q3.16 14.36 3.25 14.4C3.32 14.43 3.39 14.45 3.46 14.46C3.55 14.48 3.64 14.5 3.73 14.5L9.5 14.5L9.5 13Q9.5 12.83 9.53 12.68L9.53 12.68L9.53 12.68Q9.56 12.54 9.61 12.41C9.65 12.32 9.69 12.24 9.74 12.17C9.8 12.08 9.86 12.01 9.93 11.93C10.01 11.86 10.08 11.8 10.17 11.74C10.24 11.69 10.32 11.65 10.41 11.61C10.5 11.58 10.59 11.55 10.68 11.53C10.78 11.51 10.89 11.5 11 11.5L13 11.5C13.06 11.5 13.13 11.51 13.19 11.53C13.25 11.56 13.3 11.59 13.35 11.64C13.47 11.76 13.53 11.88 13.53 12C13.53 12.11 13.47 12.23 13.35 12.35L10.35 15.35C10.3 15.4 10.25 15.43 10.19 15.46C10.13 15.48 10.06 15.5 10 15.5Q9.84 15.5 9.74 15.45C9.67 15.48 9.6 15.5 9.52 15.5L3.73 15.5C3.57 15.5 3.41 15.48 3.26 15.44C3.12 15.41 2.99 15.37 2.86 15.32C2.74 15.26 2.62 15.2 2.51 15.13C2.38 15.05 2.26 14.95 2.15 14.83C2.04 14.73 1.95 14.61 1.87 14.49C1.79 14.38 1.73 14.25 1.67 14.11C1.62 13.99 1.58 13.86 1.55 13.73C1.51 13.57 1.5 13.41 1.5 13.24L1.5 3.75C1.5 3.45 1.55 3.15 1.67 2.88C1.78 2.61 1.94 2.37 2.15 2.16C2.35 1.95 2.59 1.79 2.86 1.67Q3.05 1.59 3.25 1.55Q3.26 1.55 3.26 1.55C3.41 1.51 3.57 1.5 3.73 1.5L11.26 1.5C11.56 1.5 11.85 1.55 12.13 1.67C12.4 1.79 12.64 1.95 12.84 2.16C13.05 2.37 13.21 2.61 13.32 2.88C13.44 3.15 13.5 3.45 13.5 3.75ZM3.5 6C3.5 5.71 3.71 5.5 4 5.5L9 5.5C9.28 5.5 9.5 5.71 9.5 6C9.5 6.28 9.28 6.5 9 6.5L4 6.5C3.71 6.5 3.5 6.28 3.5 6ZM7.12 8.5L4 8.5C3.71 8.5 3.5 8.71 3.5 9C3.5 9.28 3.71 9.5 4 9.5L7.12 9.5C7.4 9.5 7.62 9.28 7.62 9C7.62 8.71 7.4 8.5 7.12 8.5ZM11.79 12.5L10.5 13.79L10.5 13Q10.5 12.89 10.53 12.8L10.53 12.8C10.56 12.74 10.59 12.69 10.64 12.64C10.69 12.59 10.74 12.56 10.8 12.53C10.86 12.51 10.93 12.5 11 12.5L11.79 12.5Z" fill="#000000" fill-opacity="0.898039" fill-rule="evenodd"/>
		</g>
	</g>
</svg>
