<svg width="16.000000" height="16.000000" viewBox="0 0 16 16" fill="none" xmlns="http://www.w3.org/2000/svg" xmlns:xlink="http://www.w3.org/1999/xlink">
	<desc>
			Created with Pixso.
	</desc>
	<defs>
		<clipPath id="clip23_1146">
			<rect width="16.000000" height="16.000000" fill="white" fill-opacity="0"/>
		</clipPath>
	</defs>
	<g clip-path="url(#clip23_1146)">
		<path d="M10.55 3.48C10.7 3.24 11.01 3.17 11.26 3.31C11.45 3.43 11.63 3.55 11.81 3.69C12 3.84 12.19 4 12.37 4.18C12.54 4.36 12.71 4.54 12.86 4.74C12.99 4.91 13.11 5.09 13.22 5.28C13.46 5.68 13.64 6.11 13.77 6.57C13.81 6.74 13.85 6.92 13.88 7.09C13.94 7.39 13.96 7.69 13.96 8C13.96 8.3 13.93 8.61 13.88 8.91C13.85 9.09 13.81 9.27 13.76 9.45C13.7 9.66 13.63 9.87 13.54 10.07C13.44 10.31 13.33 10.53 13.2 10.75C13.08 10.94 12.96 11.12 12.82 11.29C12.67 11.49 12.5 11.68 12.32 11.86C12.14 12.04 11.94 12.2 11.74 12.35C11.56 12.49 11.38 12.61 11.18 12.72C10.93 12.86 10.62 12.79 10.47 12.55C10.33 12.31 10.4 12.01 10.65 11.86C10.81 11.77 10.96 11.67 11.1 11.57C11.27 11.44 11.43 11.31 11.58 11.16C11.86 10.88 12.1 10.58 12.3 10.25Q12.6 9.75 12.75 9.22C12.87 8.83 12.93 8.42 12.93 8C12.93 7.58 12.87 7.17 12.76 6.79C12.66 6.44 12.51 6.1 12.32 5.77C12.12 5.44 11.89 5.14 11.63 4.87C11.36 4.6 11.06 4.37 10.72 4.16C10.47 4.02 10.4 3.71 10.55 3.48ZM8.27 3.5L8.27 12.5C6.46 12.5 5.12 10.2 5.12 10.2L3.62 10.2C3.33 10.2 3.1 9.98 3.1 9.7L3.1 6.25C3.1 5.97 3.33 5.75 3.62 5.75L5.12 5.75C5.12 5.75 6.46 3.5 8.27 3.5ZM10.68 5.37C10.47 5.19 10.15 5.2 9.95 5.41C9.76 5.62 9.78 5.93 10 6.12C10.05 6.16 10.1 6.21 10.14 6.26C10.22 6.34 10.29 6.42 10.36 6.5C10.43 6.61 10.5 6.71 10.56 6.82C10.63 6.94 10.68 7.07 10.72 7.19C10.76 7.29 10.78 7.38 10.8 7.48C10.84 7.65 10.86 7.82 10.86 8C10.86 8.17 10.84 8.34 10.8 8.51C10.78 8.6 10.76 8.7 10.73 8.79C10.68 8.92 10.63 9.04 10.57 9.16C10.51 9.27 10.44 9.37 10.37 9.47C10.3 9.56 10.23 9.65 10.15 9.73C10.1 9.78 10.05 9.83 10 9.87C9.78 10.06 9.76 10.37 9.95 10.58C10.15 10.79 10.47 10.8 10.68 10.62C10.76 10.55 10.84 10.48 10.91 10.4C11.02 10.29 11.11 10.18 11.2 10.06C11.31 9.92 11.41 9.77 11.49 9.61C11.58 9.45 11.65 9.28 11.71 9.1C11.76 8.96 11.8 8.81 11.83 8.67C11.87 8.45 11.89 8.22 11.89 8C11.89 7.77 11.87 7.54 11.83 7.32C11.8 7.17 11.76 7.03 11.71 6.88Q11.63 6.66 11.53 6.45L11.53 6.45Q11.5 6.41 11.48 6.36C11.4 6.21 11.3 6.06 11.19 5.91C11.11 5.8 11.01 5.69 10.91 5.59C10.84 5.51 10.76 5.44 10.68 5.37Z" fill="#61860B" fill-opacity="1.000000" fill-rule="evenodd"/>
	</g>
</svg>
