<svg width="100.000000" height="67.000000" viewBox="0 0 100 67" fill="none" xmlns="http://www.w3.org/2000/svg" xmlns:xlink="http://www.w3.org/1999/xlink">
	<desc>
			Created with Pixso.
	</desc>
	<defs>
		<clipPath id="clip6_1188">
			<rect rx="0.000000" width="99.000000" height="66.000000" transform="translate(0.500000 0.500000)" fill="white" fill-opacity="0"/>
		</clipPath>
	</defs>
	<rect rx="0.000000" width="99.000000" height="66.000000" transform="translate(0.500000 0.500000)" fill="#8BED66" fill-opacity="0"/>
	<g clip-path="url(#clip6_1188)">
		<path d="M12 49.5C12 46.46 29.01 44 50 44C70.98 44 88 46.46 88 49.5C88 52.53 70.98 55 50 55C29.01 55 12 52.53 12 49.5Z" fill="#9DC540" fill-opacity="0.400000" fill-rule="evenodd"/>
		<path d="M31.59 20L55.4 20C56.27 20 57.01 20.64 57.1 21.49L59.99 48.15C60.09 49.14 59.3 50 58.28 50L28.71 50C27.69 50 26.9 49.14 27 48.15L29.89 21.49C29.98 20.64 30.72 20 31.59 20Z" fill="#A9D542" fill-opacity="1.000000" fill-rule="evenodd"/>
		<path d="M41.92 50L58.28 50C59.3 50 60.09 49.14 59.99 48.15L57.1 21.49C57.01 20.64 56.27 20 55.4 20L51.97 20C52.86 22.62 53.34 25.42 53.34 28.33C53.34 37.25 48.83 45.15 41.92 50Z" fill="#61860B" fill-opacity="0.200000" fill-rule="evenodd"/>
		<path d="M55.4 20L31.59 20C30.72 20 29.98 20.64 29.89 21.49L27 48.15C26.9 49.14 27.69 50 28.71 50L58.28 50C59.3 50 60.09 49.14 59.99 48.15L57.1 21.49C57.01 20.64 56.27 20 55.4 20ZM55.4 20.83L31.59 20.83C31.33 20.83 31.14 20.89 30.99 21.01C30.85 21.14 30.77 21.33 30.74 21.57L27.86 48.24C27.84 48.36 27.85 48.48 27.89 48.59C27.93 48.69 27.99 48.79 28.07 48.89C28.16 48.98 28.25 49.05 28.36 49.09C28.46 49.14 28.58 49.16 28.71 49.16L58.28 49.16C58.41 49.16 58.53 49.14 58.63 49.09C58.74 49.05 58.83 48.98 58.92 48.89C59 48.79 59.06 48.69 59.1 48.59C59.14 48.48 59.15 48.36 59.13 48.24L56.25 21.57C56.22 21.33 56.14 21.14 56 21.01C55.85 20.89 55.66 20.83 55.4 20.83Z" fill="#86AD2B" fill-opacity="1.000000" fill-rule="evenodd"/>
		<radialGradient gradientTransform="translate(50.0032 10.0028) rotate(90) scale(44.9972 75.9952)" cx="0.000000" cy="0.000000" r="1.000000" id="paint_radial_149_30744_0" gradientUnits="userSpaceOnUse">
			<stop stop-color="#8EC414"/>
			<stop offset="1.000000" stop-color="#D4EF94"/>
		</radialGradient>
		<path d="M32.8 23.33L34.66 23.33L34.66 19.77C34.66 19.19 34.73 18.62 34.85 18.07C34.96 17.61 35.13 17.1 35.32 16.66C35.5 16.26 35.71 15.89 35.94 15.53C35.97 15.48 36 15.44 36.03 15.39C36.35 14.94 36.71 14.51 37.13 14.12C37.5 13.76 37.9 13.44 38.32 13.17C38.37 13.14 38.42 13.11 38.47 13.08C38.89 12.81 39.33 12.59 39.8 12.4C40.25 12.22 40.72 12.07 41.2 11.97C41.81 11.84 42.43 11.77 43.07 11.77C43.71 11.77 44.33 11.84 44.93 11.97C45.38 12.07 45.91 12.23 46.34 12.4C46.81 12.59 47.25 12.81 47.67 13.08C48.15 13.37 48.59 13.72 49.01 14.12C49.42 14.51 49.79 14.94 50.1 15.39C50.38 15.79 50.61 16.21 50.81 16.66C51 17.1 51.16 17.54 51.26 18C51.39 18.55 51.47 19.19 51.47 19.77L51.47 23.33L53.34 23.33L53.34 19.77C53.34 19.05 53.26 18.33 53.09 17.64C52.96 17.07 52.77 16.51 52.53 15.97C52.28 15.41 51.99 14.89 51.65 14.4C51.27 13.85 50.83 13.34 50.33 12.86C49.83 12.38 49.29 11.96 48.71 11.6C48.19 11.28 47.65 11 47.07 10.76C46.52 10.54 45.97 10.37 45.4 10.25C45.37 10.24 45.34 10.23 45.31 10.23C44.58 10.07 43.83 10 43.07 10C42.3 10 41.56 10.07 40.83 10.23C40.8 10.23 40.77 10.24 40.73 10.25C40.17 10.37 39.61 10.54 39.07 10.76C38.49 11 37.94 11.28 37.42 11.6C37.37 11.64 37.31 11.67 37.25 11.71C36.74 12.05 36.25 12.43 35.8 12.86C35.3 13.34 34.86 13.85 34.48 14.4C34.45 14.45 34.41 14.51 34.37 14.56C34.08 15.01 33.82 15.48 33.6 15.97C33.36 16.51 33.17 17.07 33.04 17.64C33.03 17.67 33.03 17.7 33.02 17.73C32.87 18.39 32.8 19.08 32.8 19.77L32.8 23.33Z" fill="url(#paint_radial_149_30744_0)" fill-opacity="1.000000" fill-rule="evenodd"/>
		<path d="M35.36 23.33C35.36 24.25 34.6 25 33.65 25C32.71 25 31.94 24.25 31.94 23.33C31.94 22.41 32.71 21.66 33.65 21.66C34.6 21.66 35.36 22.41 35.36 23.33Z" fill="#86AD2B" fill-opacity="1.000000" fill-rule="evenodd"/>
		<path d="M32.8 24.16C33.74 24.16 34.51 23.41 34.51 22.5C34.51 22.25 34.45 22.02 34.36 21.81C34.95 22.07 35.36 22.65 35.36 23.33C35.36 24.25 34.6 25 33.65 25C32.96 25 32.36 24.59 32.09 24.01C32.31 24.11 32.55 24.16 32.8 24.16Z" fill="#61860B" fill-opacity="0.501961" fill-rule="evenodd"/>
		<path d="M54.19 23.33C54.19 24.25 53.43 25 52.48 25C51.54 25 50.77 24.25 50.77 23.33C50.77 22.41 51.54 21.66 52.48 21.66C53.43 21.66 54.19 22.41 54.19 23.33Z" fill="#86AD2B" fill-opacity="1.000000" fill-rule="evenodd"/>
		<path d="M51.63 24.16C52.57 24.16 53.34 23.41 53.34 22.5C53.34 22.25 53.28 22.02 53.19 21.81C53.78 22.07 54.19 22.65 54.19 23.33C54.19 24.25 53.43 25 52.48 25C51.79 25 51.19 24.59 50.92 24.01C51.14 24.11 51.37 24.16 51.63 24.16Z" fill="#61860B" fill-opacity="0.501961" fill-rule="evenodd"/>
		<path d="M35.54 28.68C35.93 28.68 36.28 28.74 36.58 28.88C36.87 29.01 37.1 29.2 37.26 29.44C37.43 29.68 37.51 29.96 37.51 30.29C37.51 30.61 37.43 30.89 37.26 31.13C37.1 31.37 36.87 31.56 36.58 31.69C36.28 31.82 35.93 31.89 35.54 31.89L34.8 31.89L34.8 33.55L33.81 33.55L33.81 28.68L35.54 28.68ZM35.43 31.07C35.74 31.07 35.99 31 36.17 30.87C36.36 30.74 36.45 30.55 36.45 30.29C36.45 30.03 36.36 29.83 36.17 29.7C35.99 29.56 35.74 29.5 35.43 29.5L34.8 29.5L34.8 31.07L35.43 31.07Z" fill="#FFFFFF" fill-opacity="1.000000" fill-rule="nonzero"/>
		<path d="M40.02 33.55L39.03 33.55L39.03 28.68L40.02 28.68L40.02 33.55Z" fill="#FFFFFF" fill-opacity="1.000000" fill-rule="nonzero"/>
		<path d="M44.07 32.75C44.31 32.75 44.52 32.69 44.69 32.56C44.87 32.44 45.01 32.26 45.11 32.04L45.94 32.51C45.82 32.84 45.59 33.11 45.26 33.32C44.94 33.53 44.54 33.63 44.09 33.63C43.64 33.63 43.24 33.53 42.87 33.32C42.51 33.11 42.22 32.82 42 32.43C41.79 32.05 41.68 31.61 41.68 31.11C41.68 30.61 41.79 30.17 42 29.79C42.21 29.41 42.5 29.11 42.87 28.9C43.24 28.69 43.64 28.59 44.09 28.59C44.54 28.59 44.94 28.69 45.26 28.91C45.59 29.12 45.82 29.39 45.94 29.72L45.11 30.18C45.01 29.96 44.87 29.79 44.69 29.66C44.52 29.54 44.31 29.48 44.07 29.48C43.81 29.48 43.58 29.54 43.38 29.68C43.18 29.81 43.02 30 42.91 30.25C42.79 30.49 42.73 30.78 42.73 31.11C42.73 31.44 42.79 31.73 42.91 31.98C43.02 32.22 43.18 32.42 43.38 32.55C43.58 32.68 43.81 32.75 44.07 32.75Z" fill="#FFFFFF" fill-opacity="1.000000" fill-rule="nonzero"/>
		<path d="M49.83 30.67L51.96 33.55L50.68 33.55L49.12 31.41L48.43 32.12L48.43 33.55L47.44 33.55L47.44 28.68L48.43 28.68L48.43 30.95L50.52 28.68L51.76 28.68L49.83 30.67Z" fill="#FFFFFF" fill-opacity="1.000000" fill-rule="nonzero"/>
		<path d="M41.16 37.01L42.16 37.01L42.16 39.92C42.16 40.33 42.07 40.7 41.9 41.01C41.73 41.31 41.49 41.55 41.17 41.72C40.85 41.88 40.47 41.97 40.03 41.97C39.59 41.97 39.21 41.88 38.89 41.72C38.57 41.55 38.33 41.31 38.16 41.01C37.99 40.7 37.91 40.33 37.91 39.92L37.91 37.01L38.9 37.01L38.9 39.68C38.9 40.15 39 40.5 39.2 40.74C39.39 40.97 39.67 41.08 40.03 41.08C40.39 41.08 40.67 40.97 40.87 40.74C41.06 40.5 41.16 40.15 41.16 39.68L41.16 37.01Z" fill="#FFFFFF" fill-opacity="1.000000" fill-rule="nonzero"/>
		<path d="M45.74 37.01C46.13 37.01 46.48 37.08 46.78 37.21C47.07 37.34 47.3 37.53 47.46 37.77C47.63 38.01 47.71 38.3 47.71 38.62C47.71 38.94 47.63 39.22 47.46 39.47C47.3 39.71 47.07 39.89 46.78 40.03C46.48 40.16 46.13 40.22 45.74 40.22L45 40.22L45 41.89L44.01 41.89L44.01 37.01L45.74 37.01ZM45.63 39.4C45.94 39.4 46.19 39.34 46.37 39.21C46.56 39.07 46.65 38.88 46.65 38.62C46.65 38.36 46.56 38.17 46.37 38.03C46.19 37.9 45.94 37.83 45.63 37.83L45 37.83L45 39.4L45.63 39.4Z" fill="#FFFFFF" fill-opacity="1.000000" fill-rule="nonzero"/>
		<path d="M57.14 39.58L63.85 39.58C65.64 39.58 67.03 41.13 66.84 42.91L66.01 50.32C65.85 51.84 64.56 53 63.03 53L57.96 53C56.43 53 55.14 51.84 54.98 50.32L54.15 42.91C53.96 41.13 55.35 39.58 57.14 39.58Z" fill="#86AD2B" fill-opacity="1.000000" fill-rule="evenodd"/>
		<path d="M66.84 42.91C66.26 42.64 65.65 42.45 64.97 42.45C62.5 42.45 60.5 44.46 60.5 46.93C60.5 49.4 62.5 51.4 64.97 51.4C65.32 51.4 65.67 51.36 66 51.28L66.84 42.91Z" fill="#C1D03A" fill-opacity="1.000000" fill-rule="evenodd"/>
		<path d="M53.79 37.66L67.2 37.66C68.26 37.66 69.12 38.52 69.12 39.58C69.12 40.64 68.26 41.5 67.2 41.5L53.79 41.5C52.73 41.5 51.87 40.64 51.87 39.58C51.87 38.52 52.73 37.66 53.79 37.66Z" fill="#B4E149" fill-opacity="1.000000" fill-rule="evenodd"/>
		<path d="M55.7 37.66L65.37 37.66C64.55 35.97 62.7 34.79 60.54 34.79C58.37 34.79 56.52 35.97 55.7 37.66Z" fill="#C7F460" fill-opacity="1.000000" fill-rule="evenodd"/>
	</g>
	<rect rx="0.000000" width="99.000000" height="66.000000" transform="translate(0.500000 0.500000)" stroke="#9DC540" stroke-opacity="0" stroke-width="1.000000"/>
</svg>
