<svg width="24.000000" height="24.000000" viewBox="0 0 24 24" fill="none" xmlns="http://www.w3.org/2000/svg" xmlns:xlink="http://www.w3.org/1999/xlink">
	<desc>
			Created with Pixso.
	</desc>
	<defs/>
	<rect width="24.000000" height="24.000000" fill="#FFFFFF" fill-opacity="0"/>
	<path d="M8.24 0.58C9.43 0.19 10.68 0 12 0C13.31 0 14.56 0.19 15.75 0.58C16.54 0.83 17.29 1.17 18.02 1.6C18.94 2.14 19.76 2.77 20.49 3.5Q21.58 4.59 22.39 5.97C22.82 6.7 23.16 7.45 23.41 8.24C23.8 9.43 24 10.68 24 12C24 13.23 23.82 14.4 23.48 15.53C23.22 16.39 22.85 17.21 22.39 18.01C21.31 19.85 19.85 21.31 18.01 22.39C17.21 22.85 16.39 23.22 15.53 23.48C14.4 23.82 13.23 24 12 24C10.76 24 9.59 23.82 8.46 23.48Q8.45 23.48 8.45 23.47Q7.17 23.08 5.98 22.39C4.14 21.31 2.68 19.85 1.6 18.01C1.14 17.21 0.77 16.39 0.51 15.53C0.17 14.4 0 13.23 0 12C0 10.68 0.19 9.43 0.58 8.24C0.83 7.45 1.17 6.7 1.6 5.97C2.14 5.05 2.77 4.23 3.5 3.5Q4.59 2.41 5.97 1.6C6.7 1.17 7.45 0.83 8.24 0.58ZM4.21 4.21C4.88 3.54 5.63 2.96 6.47 2.46C7.13 2.08 7.8 1.78 8.5 1.54C9.61 1.18 10.77 1 12 1C13.23 1 14.4 1.18 15.51 1.55C16.2 1.78 16.87 2.09 17.52 2.46C18.37 2.96 19.13 3.55 19.8 4.22C20.46 4.89 21.04 5.64 21.53 6.47C21.91 7.12 22.21 7.8 22.45 8.5C22.81 9.61 23 10.77 23 12C23 13.14 22.83 14.24 22.51 15.29C22.27 16.05 21.94 16.79 21.53 17.51C21.03 18.36 20.44 19.12 19.76 19.8Q18.77 20.79 17.51 21.53C16.79 21.94 16.04 22.27 15.27 22.51C14.23 22.83 13.14 23 12 23C10.85 23 9.75 22.83 8.7 22.51L8.69 22.5Q7.55 22.14 6.48 21.53C5.63 21.03 4.87 20.44 4.19 19.76C3.53 19.1 2.95 18.35 2.46 17.51C2.05 16.79 1.72 16.04 1.48 15.27C1.16 14.23 1 13.14 1 12C1 10.76 1.18 9.59 1.55 8.48C1.78 7.79 2.09 7.12 2.46 6.47C2.96 5.63 3.54 4.88 4.21 4.21ZM18.54 12C18.54 12.4 18.21 12.73 17.81 12.73L6.18 12.73C5.78 12.73 5.45 12.4 5.45 12C5.45 11.6 5.78 11.27 6.18 11.27L17.81 11.27C18.21 11.27 18.54 11.6 18.54 12Z" fill="#000000" fill-opacity="0.600000" fill-rule="evenodd"/>
</svg>
