<svg width="16.000000" height="16.000000" viewBox="0 0 16 16" fill="none" xmlns="http://www.w3.org/2000/svg" xmlns:xlink="http://www.w3.org/1999/xlink">
	<desc>
			Created with Pixso.
	</desc>
	<defs>
		<clipPath id="clip51_4062">
			<rect width="16.000000" height="16.000000" fill="white" fill-opacity="0"/>
		</clipPath>
	</defs>
	<g clip-path="url(#clip51_4062)">
		<g opacity="0.600000">
			<path d="M13.35 10.04C13.35 11.12 13.03 12.16 12.47 13.07C12.69 12.94 12.9 12.78 13.09 12.6C13.34 12.36 13.56 12.08 13.75 11.78C13.93 11.47 14.07 11.15 14.17 10.81C14.21 10.65 14.25 10.48 14.27 10.32Q14.31 10.04 14.31 9.75L14.31 5.74C14.31 5.55 14.3 5.36 14.27 5.18C14.24 5.02 14.2 4.86 14.15 4.7C14.05 4.37 13.89 4.06 13.69 3.77C13.49 3.49 13.26 3.24 12.98 3.02C12.85 2.92 12.7 2.82 12.56 2.74C12.4 2.65 12.23 2.58 12.06 2.51L9.66 1.63C9.44 1.55 9.22 1.49 8.99 1.45C8.77 1.4 8.53 1.38 8.3 1.38C8.08 1.38 7.87 1.4 7.66 1.43C7.42 1.47 7.12 1.56 6.88 1.65L11.85 3.48C12.74 3.81 13.34 4.65 13.34 5.61C13.34 6.94 13.35 8.69 13.35 10.04ZM7.3 2.51C7.39 2.53 7.48 2.55 7.56 2.59L11.28 3.95C11.71 4.11 12.05 4.38 12.3 4.75C12.43 4.93 12.53 5.13 12.59 5.33C12.66 5.54 12.69 5.75 12.69 5.98L12.69 9.58Q12.69 9.97 12.63 10.36L12.63 10.36Q12.58 10.7 12.49 11.05C12.36 11.51 12.16 11.96 11.91 12.38C11.78 12.59 11.63 12.8 11.48 13C11.33 13.18 11.17 13.35 11 13.51Q10.74 13.75 10.45 13.96L10.45 13.96Q10.14 14.19 9.8 14.36L8.1 15.26C7.91 15.36 7.73 15.43 7.54 15.48C7.35 15.52 7.15 15.54 6.95 15.54C6.55 15.54 6.16 15.45 5.81 15.26L4.1 14.36C3.87 14.25 3.66 14.11 3.45 13.96C3.26 13.82 3.07 13.67 2.9 13.51C2.73 13.35 2.57 13.18 2.43 13C2.27 12.8 2.12 12.59 1.99 12.38C1.87 12.17 1.76 11.95 1.66 11.73C1.56 11.51 1.48 11.28 1.42 11.04C1.35 10.82 1.31 10.6 1.27 10.37C1.23 10.11 1.21 9.85 1.21 9.58L1.21 5.98C1.21 5.75 1.25 5.54 1.31 5.33C1.37 5.13 1.47 4.93 1.6 4.75C1.73 4.56 1.88 4.4 2.05 4.27C2.22 4.14 2.41 4.03 2.62 3.95L6.34 2.59Q6.46 2.54 6.58 2.52C6.7 2.49 6.82 2.48 6.95 2.48C7.07 2.48 7.18 2.49 7.3 2.51ZM7.21 3.52C7.13 3.49 7.04 3.48 6.96 3.47C6.87 3.47 6.78 3.49 6.69 3.52L2.97 4.89C2.86 4.93 2.75 4.99 2.66 5.06C2.57 5.13 2.49 5.22 2.42 5.32C2.35 5.42 2.3 5.52 2.27 5.63C2.23 5.74 2.21 5.86 2.21 5.98L2.21 9.58C2.21 9.8 2.23 10.02 2.26 10.24C2.29 10.42 2.33 10.6 2.38 10.77C2.43 10.97 2.5 11.15 2.58 11.34C2.66 11.52 2.75 11.69 2.85 11.86C3.05 12.2 3.3 12.51 3.59 12.78C3.88 13.06 4.21 13.29 4.57 13.48L6.27 14.38C6.38 14.43 6.48 14.47 6.59 14.5C6.71 14.53 6.83 14.54 6.95 14.54C7.19 14.54 7.42 14.49 7.63 14.38L9.34 13.48C9.7 13.29 10.02 13.06 10.31 12.78C10.6 12.51 10.85 12.2 11.06 11.86C11.16 11.69 11.25 11.51 11.33 11.32C11.41 11.14 11.47 10.96 11.53 10.77C11.58 10.59 11.62 10.41 11.64 10.22C11.67 10.01 11.69 9.8 11.69 9.58L11.69 5.98C11.69 5.74 11.62 5.52 11.48 5.32C11.34 5.12 11.16 4.98 10.94 4.89L7.21 3.52ZM6.22 8.36L6.22 6.81C6.22 6.4 6.54 6.08 6.95 6.08C7.37 6.08 7.69 6.4 7.69 6.81L7.69 8.36L9.24 8.36C9.65 8.36 9.98 8.68 9.98 9.1C9.98 9.51 9.65 9.83 9.24 9.83L7.69 9.83L7.69 11.38C7.69 11.79 7.37 12.12 6.95 12.12C6.54 12.12 6.22 11.79 6.22 11.38L6.22 9.83L4.67 9.83C4.26 9.83 3.93 9.51 3.93 9.1C3.93 8.68 4.26 8.36 4.67 8.36L6.22 8.36Z" fill="#000000" fill-opacity="0.898039" fill-rule="evenodd"/>
		</g>
	</g>
</svg>
