<svg width="16.000000" height="16.000000" viewBox="0 0 16 16" fill="none" xmlns="http://www.w3.org/2000/svg" xmlns:xlink="http://www.w3.org/1999/xlink">
	<desc>
			Created with Pixso.
	</desc>
	<defs>
		<clipPath id="clip23_1301">
			<rect width="16.000000" height="16.000000" fill="white" fill-opacity="0"/>
		</clipPath>
	</defs>
	<g clip-path="url(#clip23_1301)">
		<path d="M11.8 10.64L13.81 12.68C14.06 12.93 14.06 13.33 13.81 13.58C13.57 13.83 13.17 13.83 12.92 13.58L10.91 11.53C11.24 11.27 11.54 10.97 11.8 10.64ZM7.26 1.5C10.16 1.5 12.52 3.89 12.52 6.84C12.52 8.2 12.01 9.45 11.19 10.39L11.32 10.23C11.26 10.3 11.25 10.33 11.19 10.39C11.14 10.44 11.06 10.54 11.01 10.58C10.97 10.63 10.89 10.7 10.85 10.74C10.8 10.79 10.72 10.86 10.67 10.91C9.76 11.68 8.54 12.19 7.26 12.19C4.35 12.19 2 9.79 2 6.84C2 3.89 4.35 1.5 7.26 1.5ZM7.26 2.77C5.04 2.77 3.25 4.59 3.25 6.84C3.25 9.09 5.04 10.91 7.26 10.91C9.47 10.91 11.26 9.09 11.26 6.84C11.26 4.59 9.47 2.77 7.26 2.77Z" fill="#000000" fill-opacity="1.000000" fill-rule="nonzero"/>
		<path d="M13.81 12.68C14.06 12.93 14.06 13.33 13.81 13.58C13.57 13.83 13.17 13.83 12.92 13.58L10.91 11.53C11.24 11.27 11.54 10.97 11.8 10.64L13.81 12.68ZM11.19 10.39L11.32 10.23C11.26 10.3 11.25 10.33 11.19 10.39C11.14 10.44 11.06 10.54 11.01 10.58C10.97 10.63 10.89 10.7 10.85 10.74C10.8 10.79 10.72 10.86 10.67 10.91C9.76 11.68 8.54 12.19 7.26 12.19C4.35 12.19 2 9.79 2 6.84C2 3.89 4.35 1.5 7.26 1.5C10.16 1.5 12.52 3.89 12.52 6.84C12.52 8.2 12.01 9.45 11.19 10.39M3.25 6.84C3.25 9.09 5.04 10.91 7.26 10.91C9.47 10.91 11.26 9.09 11.26 6.84C11.26 4.59 9.47 2.77 7.26 2.77C5.04 2.77 3.25 4.59 3.25 6.84Z" stroke="#000000" stroke-opacity="0" stroke-width="1.000000"/>
	</g>
</svg>
