<svg width="16.000000" height="16.000000" viewBox="0 0 16 16" fill="none" xmlns="http://www.w3.org/2000/svg" xmlns:xlink="http://www.w3.org/1999/xlink">
	<desc>
			Created with Pixso.
	</desc>
	<defs>
		<clipPath id="clip51_4046">
			<rect width="16.000000" height="16.000000" fill="white" fill-opacity="0"/>
		</clipPath>
	</defs>
	<g clip-path="url(#clip51_4046)">
		<path d="M1.46 4.96C1.95 4.47 2.48 4.05 3.05 3.69C3.52 3.39 4.01 3.14 4.53 2.92C5.06 2.71 5.6 2.55 6.14 2.43C6.76 2.31 7.38 2.25 8.02 2.25C8.66 2.25 9.29 2.31 9.9 2.43C10.45 2.55 10.99 2.71 11.51 2.92Q12.29 3.24 12.99 3.69C13.56 4.05 14.09 4.47 14.58 4.96C14.88 5.26 14.88 5.72 14.58 6.02C14.28 6.32 13.82 6.32 13.52 6.02C13.1 5.61 12.65 5.24 12.17 4.94C11.78 4.7 11.38 4.49 10.95 4.31C10.51 4.14 10.07 4 9.61 3.91C9.09 3.8 8.56 3.75 8.02 3.75C7.48 3.75 6.95 3.8 6.43 3.91C5.98 4 5.53 4.14 5.1 4.31C4.67 4.49 4.26 4.7 3.88 4.94C3.39 5.24 2.94 5.61 2.53 6.02C2.23 6.32 1.76 6.32 1.46 6.02C1.17 5.72 1.17 5.26 1.46 4.96ZM3.48 6.97C3.81 6.63 4.18 6.34 4.57 6.09C4.9 5.88 5.24 5.7 5.6 5.56C5.97 5.41 6.34 5.29 6.72 5.22C7.15 5.13 7.58 5.09 8.02 5.09C8.47 5.09 8.9 5.13 9.32 5.22C9.7 5.29 10.08 5.41 10.44 5.56C10.81 5.7 11.15 5.88 11.47 6.09C11.87 6.34 12.23 6.63 12.57 6.97C12.87 7.27 12.87 7.73 12.57 8.03C12.27 8.33 11.81 8.33 11.51 8.03C11.25 7.76 10.96 7.53 10.65 7.34C10.4 7.19 10.15 7.06 9.88 6.95C9.6 6.83 9.32 6.75 9.04 6.69C8.71 6.62 8.37 6.59 8.02 6.59C7.68 6.59 7.34 6.62 7.01 6.69C6.72 6.75 6.44 6.83 6.17 6.95C5.9 7.06 5.64 7.19 5.4 7.34C5.09 7.53 4.8 7.76 4.54 8.03C4.24 8.33 3.77 8.33 3.48 8.03C3.18 7.73 3.18 7.27 3.48 6.97ZM5.48 8.98C5.67 8.79 5.87 8.63 6.09 8.49C6.27 8.37 6.47 8.27 6.67 8.19C6.88 8.11 7.09 8.04 7.3 8C7.54 7.95 7.78 7.93 8.02 7.93C8.27 7.93 8.51 7.95 8.75 8C8.96 8.04 9.17 8.11 9.38 8.19C9.58 8.27 9.78 8.37 9.96 8.49C10.18 8.63 10.38 8.79 10.56 8.98C10.86 9.27 10.86 9.74 10.56 10.04C10.27 10.34 9.8 10.34 9.5 10.04C9.39 9.92 9.26 9.82 9.13 9.74C9.03 9.68 8.92 9.62 8.81 9.58C8.56 9.48 8.3 9.43 8.02 9.43C7.88 9.43 7.73 9.44 7.59 9.47C7.47 9.5 7.35 9.53 7.24 9.58C6.98 9.68 6.75 9.84 6.54 10.04C6.25 10.34 5.78 10.34 5.48 10.04C5.19 9.74 5.19 9.27 5.48 8.98ZM8 11C7.44 11 7 11.44 7 12C7 12.55 7.44 13 8 13C8.55 13 9 12.55 9 12C9 11.44 8.55 11 8 11Z" fill="#000000" fill-opacity="0.600000" fill-rule="evenodd"/>
	</g>
</svg>
