<svg width="52.000000" height="52.000000" viewBox="0 0 52 52" fill="none" xmlns="http://www.w3.org/2000/svg"
>
    <desc>
        Created with Pixso.
    </desc>
    <defs>
        <clipPath id="clip28_5849">
            <rect id="男医生.svg" width="51.999992" height="52.000000" fill="white" fill-opacity="0"/>
        </clipPath>
    </defs>
    <g clip-path="url(#clip28_5849)">
        <path id="path"
              d="M25.55 0.63C39.45 0.63 50.71 11.9 50.71 25.79C50.71 39.68 39.45 50.98 25.55 50.98C11.66 50.98 0.4 39.71 0.4 25.79C0.4 11.9 11.66 0.63 25.55 0.63Z"
              fill="#95DAFF" fill-opacity="1.000000" fill-rule="nonzero"/>
        <path id="path" d="M25.45 30.12C27.03 30.99 29.43 24.49 25.3 24.85C21.22 25.23 25.45 30.12 25.45 30.12Z"
              fill="#FFE0CC" fill-opacity="1.000000" fill-rule="nonzero"/>
        <path id="path"
              d="M24.46 45.37C24.46 45.75 24.66 46.13 25.02 46.34C25.35 46.54 25.78 46.54 26.12 46.34C26.45 46.13 26.68 45.78 26.68 45.37C26.68 44.76 26.19 44.27 25.58 44.27C24.97 44.27 24.46 44.78 24.46 45.37Z"
              fill="#5A7B87" fill-opacity="1.000000" fill-rule="nonzero"/>
        <path id="path"
              d="M16.43 30.12C14.87 31.02 12.3 24.59 16.43 24.85C20.56 25.1 16.43 30.12 16.43 30.12ZM34.48 30.12C36.03 31.02 38.61 24.59 34.48 24.85C30.35 25.1 34.48 30.12 34.48 30.12Z"
              fill="#FFE0CC" fill-opacity="1.000000" fill-rule="nonzero"/>
        <path id="path"
              d="M35.42 26.79C35.42 32.21 31.01 38.1 25.58 38.1C20.15 38.1 15.74 32.21 15.74 26.79C15.74 21.36 20.15 16.95 25.58 16.95C31.01 16.95 35.42 21.36 35.42 26.79ZM34.63 44.32C34.63 46.72 30.58 48.66 25.61 48.66C20.61 48.66 16.58 46.72 16.58 44.32C16.58 41.93 20.63 41.19 25.61 41.19C30.58 41.19 34.63 41.95 34.63 44.32Z"
              fill="#FFE0CC" fill-opacity="1.000000" fill-rule="nonzero"/>
        <path id="path"
              d="M38.27 48.07C36.82 49.06 35.27 49.88 33.58 50.52C33.15 50.7 32.72 50.85 32.26 50.98C30.83 51.43 29.35 51.71 27.85 51.87C27.13 51.94 26.42 51.97 25.71 51.97L25.43 51.97C24.71 51.97 24.02 51.92 23.31 51.87C21.86 51.71 20.46 51.43 19.11 51.05C18.7 50.92 18.29 50.8 17.91 50.67C17.68 50.59 17.45 50.49 17.22 50.41C17.14 50.39 17.07 50.36 17.02 50.34C16.51 50.13 16 49.9 15.51 49.65C15.43 49.62 15.38 49.57 15.31 49.55C14.47 49.11 13.65 48.63 12.89 48.12C13.6 46.44 14.57 45.06 15.72 43.99C16.17 43.56 16.68 43.18 17.19 42.82C17.37 42.69 17.58 42.56 17.78 42.46C17.93 42.39 18.09 42.28 18.21 42.21C18.42 42.1 18.62 42 18.85 41.9C18.9 41.88 18.95 41.85 19 41.85L19.77 41.54C19.84 41.52 19.95 41.47 20.02 41.44C20.15 41.39 20.25 41.37 20.38 41.34C20.48 41.31 20.61 41.26 20.71 41.24L20.71 41.31C20.71 41.37 20.74 41.42 20.76 41.49C20.76 41.52 20.79 41.54 20.79 41.57C20.84 41.7 20.91 41.82 21.02 41.98C21.2 42.26 21.42 42.61 21.71 42.97L21.93 43.28C22.04 43.4 22.14 43.51 22.24 43.63C22.37 43.76 22.5 43.91 22.62 44.04C22.67 44.09 22.75 44.14 22.8 44.22L22.98 44.4C23.03 44.45 23.08 44.5 23.16 44.55C23.23 44.63 23.34 44.71 23.44 44.78C23.52 44.83 23.59 44.88 23.64 44.93C23.9 45.11 24.15 45.29 24.43 45.42C24.76 45.6 25.12 45.67 25.45 45.7L25.66 45.7C25.96 45.67 26.29 45.6 26.62 45.44C26.91 45.32 27.19 45.14 27.47 44.93C27.57 44.86 27.64 44.81 27.75 44.73C27.87 44.63 28 44.53 28.13 44.4C28.18 44.35 28.26 44.3 28.31 44.22C28.38 44.14 28.49 44.07 28.56 43.97C28.69 43.84 28.79 43.74 28.89 43.61C28.94 43.53 29.02 43.48 29.07 43.4C29.12 43.33 29.2 43.25 29.25 43.18C29.48 42.89 29.68 42.61 29.89 42.33C30.09 42.03 30.24 41.77 30.35 41.57C30.35 41.54 30.37 41.52 30.37 41.49C30.42 41.39 30.45 41.29 30.45 41.24C30.7 41.31 30.93 41.39 31.16 41.47C31.24 41.49 31.32 41.52 31.37 41.54C31.6 41.62 31.8 41.72 32.03 41.8C32.33 41.93 32.62 42.05 32.9 42.21C33.05 42.28 33.2 42.36 33.35 42.46C35.47 43.66 37.18 45.5 38.27 48.07Z"
              fill="#FFFCF8" fill-opacity="1.000000" fill-rule="nonzero"/>
        <path id="path" d="M22.39 33.44L22.39 42.61L28.66 42.61L28.66 33.44L22.39 33.44Z" fill="#FFE0CC"
              fill-opacity="1.000000" fill-rule="nonzero"/>
        <path id="path"
              d="M30.5 42.28L30.5 42.31L30.02 44.04L29.86 44.63L29.84 44.78L29.79 45.01L29.4 46.39L28.87 48.38L27.9 51.87C27.19 51.94 26.47 51.97 25.76 51.97L25.43 51.97C24.71 51.97 24.03 51.92 23.31 51.87C23.03 50.77 22.73 49.55 22.42 48.38C22.24 47.66 22.06 46.97 21.88 46.31C21.81 46.03 21.73 45.75 21.68 45.5L21.68 45.44C21.63 45.24 21.58 45.04 21.53 44.86C21.5 44.78 21.5 44.7 21.48 44.63C21.37 44.27 21.3 43.91 21.22 43.61C21.12 43.2 20.99 42.77 20.89 42.36C20.86 42.31 20.86 42.23 20.84 42.18C20.79 42 20.76 41.9 20.74 41.9L21.07 41.93L22.44 42.05L25.3 42.31L25.73 42.31L28.74 42.28L30.5 42.28Z"
              fill="#79C4FF" fill-opacity="1.000000" fill-rule="nonzero"/>
        <path id="path"
              d="M25.43 51.99C24.71 51.99 24.02 51.94 23.31 51.89C21.86 51.74 20.46 51.46 19.11 51.08C18.7 50.95 18.29 50.82 17.91 50.69C17.73 50.54 17.55 50.36 17.35 50.21C17.3 50.16 17.22 50.11 17.17 50.06L17.09 49.98C17.07 49.96 17.04 49.96 17.02 49.93C16.66 49.65 16.28 49.37 15.89 49.11C15.84 49.09 15.79 49.04 15.72 49.01C15.64 48.96 15.59 48.94 15.51 48.89C15.49 48.86 15.46 48.86 15.43 48.83C15.46 48.81 15.51 48.78 15.54 48.76C15.56 48.76 15.56 48.73 15.59 48.73C15.69 48.66 15.82 48.58 15.92 48.48C16.05 48.38 16.15 48.3 16.28 48.2C16.91 47.69 17.5 47.2 18.03 46.72C18.21 46.57 18.37 46.41 18.54 46.26C18.75 46.06 18.95 45.88 19.13 45.67C19.28 45.52 19.44 45.34 19.59 45.19C19.64 45.14 19.72 45.06 19.84 45.06C19.92 45.06 20 45.09 20.1 45.14C20.74 45.39 21.3 45.8 21.81 46.26L21.88 46.34C22.62 47 23.29 47.76 23.85 48.6C24.53 49.62 25.07 50.77 25.43 51.99Z"
              fill="#E4EAF8" fill-opacity="1.000000" fill-rule="nonzero"/>
        <path id="path"
              d="M24.08 48.6C24.69 49.85 25.27 51.03 25.5 52L25.43 52C24.71 52 24.03 51.94 23.31 51.89C21.86 51.74 20.46 51.46 19.11 51.08C18.67 50.64 18.24 50.24 17.78 49.85C17.73 49.8 17.68 49.75 17.6 49.7C17.55 49.65 17.47 49.6 17.42 49.55C17.35 49.5 17.3 49.45 17.22 49.39C16.84 49.11 16.48 48.83 16.1 48.6C16.05 48.55 15.97 48.53 15.92 48.48C15.82 48.4 15.72 48.35 15.61 48.27L16.53 47.59C16.99 47.23 17.42 46.87 17.81 46.54L18.49 45.93C18.67 45.75 18.85 45.6 19 45.44C19.23 45.21 19.44 45.01 19.64 44.78C19.67 44.76 19.77 44.6 19.87 44.5C19.92 44.45 19.97 44.42 20.02 44.42C20.1 44.42 20.25 44.4 20.33 44.42C20.43 44.45 20.51 44.45 20.61 44.4C20.69 44.35 20.74 44.3 20.79 44.22C20.92 44.07 21.02 43.84 21.14 43.63C21.27 43.43 21.37 43.2 21.5 43.07C21.53 43.05 21.55 43 21.58 42.97C21.6 42.95 21.63 42.92 21.68 42.92C21.76 42.89 21.81 42.89 21.88 42.97C21.91 43.07 21.91 43.15 21.93 43.25C21.96 43.3 21.96 43.38 21.99 43.46C22.06 43.86 22.19 44.3 22.32 44.7C22.34 44.76 22.37 44.83 22.37 44.88C22.37 44.91 22.39 44.93 22.39 44.93C22.42 44.99 22.44 45.04 22.44 45.11C22.93 46.29 23.52 47.48 24.08 48.6Z"
              fill="#F3F7FF" fill-opacity="1.000000" fill-rule="nonzero"/>
        <path id="path"
              d="M23.13 43.97C21.99 44.7 23.06 44.37 22.09 45.34C21.37 44.07 17.52 44.78 16.4 43.97C20.99 39.05 19.61 42.84 23.13 43.97Z"
              fill="#E4EAF8" fill-opacity="1.000000" fill-rule="nonzero"/>
        <path id="path"
              d="M23.03 43.74C21.88 44.48 22.95 44.14 21.99 45.11C21.27 43.84 17.42 44.55 16.3 43.74C20.91 38.82 19.51 42.61 23.03 43.74Z"
              fill="#F3F7FF" fill-opacity="1.000000" fill-rule="nonzero"/>
        <path id="path"
              d="M35.62 49.06C34.93 49.47 34.25 49.98 33.58 50.52C33.15 50.7 32.72 50.85 32.26 50.98C30.83 51.43 29.35 51.71 27.85 51.87C27.13 51.94 26.42 51.97 25.71 51.97C26.06 50.77 26.62 49.62 27.36 48.55C27.9 47.79 28.54 47.08 29.25 46.44C29.28 46.41 29.3 46.39 29.35 46.36C29.84 45.95 30.37 45.57 30.96 45.32C31.03 45.29 31.14 45.24 31.21 45.24C31.34 45.24 31.42 45.29 31.47 45.37C31.9 45.85 32.39 46.34 32.95 46.82C33.58 47.41 34.32 48.04 35.14 48.66C35.32 48.81 35.47 48.94 35.62 49.06Z"
              fill="#E4EAF8" fill-opacity="1.000000" fill-rule="nonzero"/>
        <path id="path"
              d="M35.47 48.5C35.37 48.55 35.27 48.63 35.16 48.71C34.17 49.34 33.2 50.11 32.28 50.98C30.86 51.43 29.38 51.71 27.87 51.87C27.16 51.94 26.45 51.97 25.73 51.97L25.63 51.97C25.91 51 26.5 49.83 27.11 48.58C27.59 47.59 28.13 46.51 28.51 45.44C28.56 45.34 28.59 45.24 28.64 45.14C28.66 45.06 28.69 44.96 28.72 44.88C28.84 44.48 28.97 44.04 29.05 43.63C29.07 43.56 29.07 43.51 29.1 43.43C29.1 43.4 29.12 43.35 29.12 43.33C29.12 43.28 29.15 43.23 29.15 43.18C29.2 43.12 29.25 43.12 29.3 43.12C29.35 43.12 29.4 43.15 29.45 43.2L29.53 43.28C29.68 43.46 29.84 43.76 29.99 44.04C30.04 44.12 30.07 44.2 30.12 44.25C30.22 44.4 30.32 44.53 30.42 44.6C30.52 44.65 30.6 44.68 30.7 44.65C30.78 44.63 30.93 44.65 31.01 44.65C31.06 44.65 31.11 44.68 31.16 44.73C31.26 44.83 31.37 44.96 31.42 45.01C31.93 45.55 32.51 46.11 33.18 46.69C33.84 47.28 34.6 47.89 35.47 48.5Z"
              fill="#F3F7FF" fill-opacity="1.000000" fill-rule="nonzero"/>
        <path id="path"
              d="M27.95 44.19C29.1 44.93 28.03 44.6 29 45.57C29.71 44.3 33.56 45.01 34.68 44.19C30.09 39.28 31.47 43.07 27.95 44.19Z"
              fill="#E4EAF8" fill-opacity="1.000000" fill-rule="nonzero"/>
        <path id="path"
              d="M28.03 43.97C29.17 44.71 28.1 44.37 29.07 45.34C29.79 44.07 33.63 44.78 34.76 43.97C30.17 39.05 31.57 42.82 28.03 43.97Z"
              fill="#F3F7FF" fill-opacity="1.000000" fill-rule="nonzero"/>
        <path id="path" d="M22.44 40.14L18.75 41.44L21.45 45.67L25.61 42.16L22.44 40.14Z" fill="#63C4F4"
              fill-opacity="1.000000" fill-rule="nonzero"/>
        <path id="path" d="M28.74 40.14L32.31 41.44L28.89 45.88L25.48 42.16L28.74 40.14Z" fill="#63C4F4"
              fill-opacity="1.000000" fill-rule="nonzero"/>
        <path id="path"
              d="M25.17 42.92C25.17 43.07 25.25 43.23 25.38 43.3C25.5 43.38 25.68 43.38 25.81 43.3C25.94 43.23 26.01 43.07 26.01 42.92C26.01 42.77 25.94 42.61 25.81 42.54C25.68 42.46 25.5 42.46 25.38 42.54C25.25 42.61 25.17 42.77 25.17 42.92ZM25.17 46.06C25.17 46.21 25.25 46.36 25.38 46.44C25.5 46.51 25.68 46.51 25.81 46.44C25.94 46.36 26.01 46.21 26.01 46.06C26.01 45.9 25.94 45.75 25.81 45.67C25.68 45.6 25.5 45.6 25.38 45.67C25.25 45.75 25.17 45.9 25.17 46.06ZM25.17 49.62C25.17 49.78 25.25 49.93 25.38 50.01C25.5 50.08 25.68 50.08 25.81 50.01C25.94 49.93 26.01 49.78 26.01 49.62C26.01 49.47 25.94 49.32 25.81 49.24C25.68 49.17 25.5 49.17 25.38 49.24C25.25 49.32 25.17 49.47 25.17 49.62Z"
              fill="#FFFCF8" fill-opacity="1.000000" fill-rule="nonzero"/>
        <path id="path"
              d="M17.96 44.96L18.57 45.24C19.92 42.23 21.07 40.78 22.44 40.09L22.44 39.35C21.07 40.04 19.49 41.57 17.96 44.96ZM28.69 39.2L28.69 39.96C30.02 40.55 31.03 41.98 32.44 45.47L33.05 45.21C31.44 41.24 30.27 39.76 28.69 39.2Z"
              fill="#1E8DAF" fill-opacity="1.000000" fill-rule="nonzero"/>
        <path id="path"
              d="M15.51 49.65C15.43 49.62 15.38 49.57 15.31 49.55C15.33 49.45 15.36 49.37 15.38 49.27C15.41 49.19 15.43 49.14 15.46 49.06C15.49 49.01 15.49 48.94 15.51 48.89C15.54 48.83 15.54 48.81 15.56 48.76C15.56 48.73 15.56 48.73 15.59 48.71L15.61 48.71L15.79 48.76L15.72 48.99C15.69 49.04 15.69 49.06 15.66 49.11L15.59 49.34C15.59 49.45 15.54 49.55 15.51 49.65ZM17.65 49.6C17.63 49.62 17.63 49.68 17.6 49.7C17.55 49.78 17.52 49.85 17.47 49.93C17.45 49.98 17.4 50.06 17.37 50.11C17.35 50.13 17.35 50.16 17.32 50.19C17.3 50.26 17.24 50.34 17.19 50.41C17.12 50.39 17.04 50.36 16.99 50.34C17.04 50.24 17.09 50.16 17.14 50.06C17.14 50.06 17.14 50.03 17.17 50.03C17.19 49.96 17.24 49.91 17.27 49.83C17.32 49.73 17.37 49.65 17.42 49.55C17.42 49.52 17.45 49.5 17.45 49.5L17.65 49.6Z"
              fill="#869B9F" fill-opacity="1.000000" fill-rule="nonzero"/>
        <path id="path"
              d="M17.63 50.21L17.02 49.96L18.52 46.41C18.67 46.08 18.49 45.67 18.16 45.52C17.83 45.37 17.42 45.55 17.27 45.88L15.77 49.42L15.15 49.17L16.66 45.62C16.94 44.93 17.73 44.63 18.42 44.91C19.11 45.19 19.41 45.98 19.13 46.67L17.63 50.21Z"
              fill="#1E8DAF" fill-opacity="1.000000" fill-rule="nonzero"/>
        <path id="path"
              d="M27.26 16.33C27.67 14.8 29.22 13.89 30.75 14.01C32.28 14.14 33.74 15.11 34.81 16.36C35.14 16.74 35.44 17.18 35.67 17.63C36.41 19.19 36.31 24.52 35.67 26L27.26 16.33Z"
              fill="#332014" fill-opacity="1.000000" fill-rule="nonzero"/>
        <path id="path"
              d="M27.34 13.35C28.21 14.04 29.02 15.29 28.59 16.39C27.57 17.89 25.61 17.81 24 18.25C22.73 18.6 21.58 19.34 20.3 19.7C18.8 20.13 17.17 19.98 15.84 19.11C14.52 18.25 13.52 16.61 13.47 14.86C14.08 15.19 14.72 15.54 15.41 15.52C16.33 15.49 17.14 14.86 17.96 14.32C18.8 13.76 19.69 13.33 20.58 12.89C21.27 12.56 21.96 12.23 22.7 12.05C24.31 11.72 25.99 12.28 27.34 13.35Z"
              fill="#332014" fill-opacity="1.000000" fill-rule="nonzero"/>
        <path id="path"
              d="M35.98 24.16C35.95 23.65 35.9 23.17 35.9 22.94C35.88 21.2 35.34 19.7 34.32 18.32C32.54 15.93 29.84 14.45 26.8 14.45L24.41 14.45C21.71 14.45 19.13 15.7 17.32 17.66C16.23 18.86 15.49 20.36 15.15 21.94C14.98 22.76 14.92 23.6 14.95 24.44C14.98 25.1 14.85 26.35 15.69 25.89C16.2 25.59 16.71 24.54 17.17 24.08C17.73 23.5 18.34 22.99 19.03 22.55C20.38 21.69 21.93 21.18 23.54 21.1C26.12 20.97 28.59 21.94 30.81 23.17C32.08 23.88 33.23 24.26 34.12 25.46C34.35 25.77 34.58 26.1 34.91 26.2C35.9 26.53 36.01 25.26 35.98 24.16Z"
              fill="#332014" fill-opacity="1.000000" fill-rule="nonzero"/>
        <path id="path"
              d="M15.08 23.68C15.18 23.42 15.36 23.22 15.59 23.04C16.3 22.43 17.27 22.12 18.21 22.17C17.27 23.14 16.38 24.29 16.3 25.64C16.25 26.53 16.58 27.45 16.25 28.26C15.61 27.14 15.18 25.87 15.05 24.57C14.98 24.26 14.98 23.96 15.08 23.68ZM35.8 23.68C35.7 23.42 35.52 23.22 35.29 23.04C34.58 22.43 33.61 22.12 32.67 22.17C33.61 23.14 34.5 24.29 34.58 25.64C34.63 26.53 34.3 27.45 34.63 28.26C35.27 27.14 35.7 25.87 35.83 24.57C35.9 24.26 35.9 23.96 35.8 23.68Z"
              fill="#332014" fill-opacity="1.000000" fill-rule="nonzero"/>
        <path id="path"
              d="M28.64 37.44L28.64 38.33C26.85 39.3 24.59 39.15 22.34 38.36L22.34 37.39C22.6 37.39 22.42 37.41 22.44 37.41C23.44 37.85 24.48 38.08 25.58 38.08C26.65 38.08 27.72 37.85 28.64 37.44Z"
              fill="#F4C6A8" fill-opacity="1.000000" fill-rule="nonzero"/>
    </g>
</svg>
