<?xml version="1.0" standalone="no"?>
<svg xmlns="http://www.w3.org/2000/svg" width="24" height="24">
    <rect width="24" height="24" opacity="0"></rect>
    <g mask="url(#hms_mask_0)">
        <path d="M12 1.99Q9.29 1.99 6.98 3.34Q4.68 4.68 3.34 6.98Q1.99 9.29 1.99 12Q1.99 14.71 3.34 17.02Q4.68 19.32 6.98 20.66Q9.29 22.01 12 22.01Q14.71 22.01 17.02 20.66Q19.32 19.32 20.66 17.02Q22.01 14.71 22.01 12Q22.01 9.29 20.66 6.98Q19.32 4.68 17.02 3.34Q14.71 1.99 12 1.99Z"
              fill="rgba(0,0,0,0.9019607843137255)"></path>
    </g>
    <defs>
        <mask id="hms_mask_0">
            <rect width="24" height="24" fill="#ffffff"></rect>
            <g>
                <path d="M16.61 7.39Q16.75 7.56 16.78 7.76Q16.8 7.97 16.75 8.18L13.27 17.3Q13.13 17.66 12.82 17.78Q12.5 17.9 12.19 17.78Q11.88 17.66 11.78 17.35L10.46 13.56L6.72 12.22Q6.38 12.12 6.25 11.81Q6.12 11.5 6.23 11.17Q6.34 10.85 6.67 10.7L15.82 7.25Q16.01 7.18 16.24 7.22Q16.46 7.27 16.61 7.39Z"
                      fill="#000000"></path>
            </g>
        </mask>
    </defs>
</svg>