<?xml version="1.0" standalone="no"?>
<svg xmlns="http://www.w3.org/2000/svg" width="48" height="48">
    <rect width="48" height="48" opacity="0"></rect>
    <g>
        <path d="M24 1.92Q19.1 1.92 14.98 4.34Q10.85 6.77 8.42 10.9Q6 15.02 6 19.92Q6 26.88 10.82 33.53Q15.65 40.18 21.12 44.98Q22.37 46.08 24 46.08Q25.63 46.08 26.88 44.98Q32.35 40.18 37.18 33.53Q42 26.88 42 19.92Q42 15.02 39.58 10.9Q37.15 6.77 33 4.34Q28.85 1.92 24 1.92ZM24 23.76Q22.75 23.76 21.72 23.16Q20.69 22.56 20.09 21.53Q19.49 20.5 19.49 19.25Q19.49 18.05 20.09 17.02Q20.69 15.98 21.72 15.38Q22.75 14.78 24 14.78Q25.2 14.78 26.23 15.38Q27.26 15.98 27.86 17.02Q28.46 18.05 28.46 19.25Q28.46 20.5 27.86 21.53Q27.26 22.56 26.23 23.16Q25.2 23.76 24 23.76Z"
              fill="rgba(0,0,0,0.6)"></path>
    </g>
</svg>