<svg width="16.232422" height="15.458252" viewBox="0 0 16.2324 15.4583" fill="none" xmlns="http://www.w3.org/2000/svg" xmlns:xlink="http://www.w3.org/1999/xlink">
	<desc>
			Created with Pixso.
	</desc>
	<defs/>
	<path id="path" d="M2.05 1.02C2.26 0.7 2.54 0.45 2.88 0.27C3.22 0.09 3.58 0 3.97 0L12.27 0C12.64 0 13 0.09 13.33 0.27C13.66 0.45 13.94 0.7 14.17 1.02L15.77 3.34C16.08 3.78 16.23 4.24 16.23 4.72L16.23 13.3C16.23 13.7 16.13 14.06 15.94 14.39C15.75 14.71 15.49 14.98 15.16 15.17C14.83 15.36 14.47 15.45 14.07 15.45L2.15 15.45C1.75 15.45 1.39 15.36 1.06 15.17C0.73 14.98 0.47 14.71 0.28 14.39C0.09 14.06 0 13.7 0 13.3L0 4.72C0 4.46 0.03 4.22 0.11 4C0.19 3.77 0.31 3.55 0.47 3.35L2.05 1.02ZM3.97 1.25C3.8 1.25 3.63 1.3 3.48 1.38C3.33 1.46 3.2 1.57 3.09 1.72L2.55 2.54L13.69 2.54L13.13 1.72C13.04 1.59 12.92 1.48 12.76 1.39C12.6 1.3 12.44 1.25 12.27 1.25L3.97 1.25ZM1.23 13.3C1.23 13.55 1.32 13.77 1.5 13.95C1.68 14.13 1.9 14.22 2.15 14.22L14.07 14.22C14.33 14.22 14.54 14.13 14.72 13.95C14.9 13.77 15 13.55 15 13.3L15 4.72C15 4.45 14.9 4.23 14.72 4.05C14.54 3.88 14.33 3.8 14.07 3.8L2.15 3.8C1.9 3.8 1.68 3.89 1.5 4.07C1.32 4.25 1.23 4.46 1.23 4.72L1.23 13.3ZM10.61 5.44C10.87 5.44 11.05 5.54 11.15 5.75C11.26 5.97 11.26 6.18 11.16 6.39C11.06 6.59 10.88 6.69 10.61 6.69L5.61 6.69C5.35 6.69 5.18 6.59 5.08 6.39C4.98 6.18 4.98 5.97 5.08 5.75C5.18 5.54 5.35 5.44 5.61 5.44L10.61 5.44Z" fill="#000000" fill-opacity="1.000000" fill-rule="nonzero"/>
</svg>
