<svg width="16.000000" height="16.000000" viewBox="0 0 16 16" fill="none" xmlns="http://www.w3.org/2000/svg" xmlns:xlink="http://www.w3.org/1999/xlink">
	<desc>
			Created with Pixso.
	</desc>
	<defs>
		<clipPath id="clip56_10752">
			<rect id="联系热线" width="16.000000" height="16.000000" fill="white" fill-opacity="0"/>
		</clipPath>
	</defs>
	<g clip-path="url(#clip56_10752)">
		<g opacity="0.000000">
			<rect id="rect" width="16.000000" height="16.000000" fill="#000000" fill-opacity="1.000000"/>
		</g>
		<path id="path" d="M13.8 5.9C13.72 4.93 13.41 4.04 12.88 3.24C12.35 2.44 11.66 1.81 10.82 1.35C9.97 0.88 9.06 0.65 8.08 0.65C7.04 0.65 6.09 0.88 5.22 1.35C4.35 1.81 3.65 2.44 3.11 3.24C2.57 4.04 2.26 4.93 2.17 5.9C1.78 6.01 1.45 6.22 1.19 6.55C0.94 6.87 0.81 7.24 0.81 7.66L0.81 9.32C0.81 9.65 0.89 9.96 1.06 10.24C1.23 10.53 1.45 10.75 1.73 10.91C2.01 11.08 2.32 11.16 2.65 11.16C2.98 11.16 3.29 11.08 3.56 10.91C3.84 10.75 4.06 10.53 4.23 10.24C4.39 9.96 4.47 9.65 4.47 9.32L4.47 7.66C4.47 7.25 4.35 6.89 4.11 6.57C3.87 6.25 3.56 6.03 3.18 5.91C3.25 5.12 3.51 4.4 3.96 3.76C4.41 3.11 5 2.6 5.71 2.22C6.43 1.85 7.22 1.66 8.08 1.66C8.87 1.66 9.62 1.85 10.31 2.22C11.01 2.6 11.58 3.11 12.02 3.76C12.46 4.4 12.72 5.12 12.81 5.91C12.42 6.03 12.11 6.25 11.87 6.57C11.62 6.89 11.5 7.25 11.5 7.66L11.5 9.32C11.5 9.72 11.61 10.07 11.83 10.39C12.06 10.7 12.35 10.92 12.71 11.04C12.58 11.86 12.33 12.44 11.98 12.8C11.63 13.15 11.21 13.35 10.73 13.4C10.62 13.13 10.45 12.92 10.21 12.75C9.97 12.58 9.71 12.49 9.42 12.49C9.16 12.49 8.92 12.55 8.71 12.68C8.49 12.81 8.32 12.98 8.19 13.2C8.06 13.42 8 13.66 8 13.91C8 14.17 8.06 14.41 8.19 14.63C8.32 14.85 8.49 15.02 8.71 15.15C8.92 15.28 9.16 15.34 9.42 15.34C9.72 15.34 9.99 15.25 10.23 15.08C10.47 14.9 10.64 14.67 10.75 14.39C11.47 14.33 12.1 14.05 12.64 13.55C13.18 13.05 13.53 12.24 13.71 11.13C14.12 11.04 14.47 10.84 14.75 10.5C15.02 10.16 15.16 9.77 15.16 9.32L15.16 7.66C15.16 7.24 15.03 6.87 14.78 6.55C14.52 6.22 14.2 6.01 13.8 5.9ZM3.48 9.32C3.48 9.56 3.4 9.76 3.24 9.91C3.08 10.08 2.88 10.15 2.65 10.15C2.42 10.15 2.22 10.08 2.06 9.91C1.9 9.76 1.82 9.56 1.82 9.32L1.82 7.66C1.82 7.43 1.9 7.23 2.06 7.07C2.22 6.91 2.42 6.83 2.65 6.83C2.88 6.83 3.08 6.91 3.24 7.07C3.4 7.23 3.48 7.43 3.48 7.66L3.48 9.32ZM9.42 14.33C9.3 14.33 9.2 14.29 9.12 14.21C9.04 14.13 9 14.03 9 13.91C9 13.8 9.04 13.7 9.12 13.62C9.2 13.54 9.3 13.5 9.42 13.5C9.54 13.5 9.63 13.54 9.71 13.62C9.79 13.7 9.83 13.8 9.83 13.91C9.83 14.03 9.79 14.13 9.71 14.21C9.63 14.29 9.54 14.33 9.42 14.33ZM14.17 9.32C14.17 9.56 14.09 9.76 13.93 9.91C13.77 10.08 13.57 10.15 13.34 10.15C13.1 10.15 12.91 10.08 12.75 9.91C12.59 9.76 12.51 9.56 12.51 9.32L12.51 7.66C12.51 7.43 12.59 7.23 12.75 7.07C12.91 6.91 13.1 6.83 13.34 6.83C13.57 6.83 13.77 6.91 13.93 7.07C14.09 7.23 14.17 7.43 14.17 7.66L14.17 9.32Z" fill="#000000" fill-opacity="1.000000" fill-rule="nonzero"/>
	</g>
</svg>
