<svg width="16.683594" height="16.633301" viewBox="0 0 16.6836 16.6333" fill="none" xmlns="http://www.w3.org/2000/svg" xmlns:xlink="http://www.w3.org/1999/xlink">
	<desc>
			Created with Pixso.
	</desc>
	<defs/>
	<path id="path" d="M1.78 0C1.28 0 0.86 0.16 0.52 0.5C0.17 0.84 0 1.26 0 1.75L0 9.8C0 10.1 0.07 10.38 0.22 10.64C0.36 10.9 0.56 11.11 0.8 11.27C0.49 11.54 0.35 11.85 0.2 12.11C0.07 12.38 0 12.65 0 12.93L0 14.93C0 15.39 0.16 15.8 0.5 16.13C0.83 16.46 1.23 16.63 1.69 16.63L7.68 16.63C8.06 16.63 8.43 16.56 8.78 16.41C9.12 16.27 9.42 16.06 9.68 15.8L13.9 11.57L14.9 11.57C15.22 11.57 15.51 11.49 15.79 11.33C16.06 11.17 16.28 10.96 16.44 10.68C16.6 10.41 16.68 10.11 16.68 9.8L16.68 1.75C16.68 1.43 16.6 1.14 16.44 0.87C16.28 0.6 16.06 0.39 15.79 0.23C15.51 0.07 15.22 0 14.9 0L1.78 0ZM14.9 1.37C15 1.37 15.09 1.41 15.18 1.48C15.26 1.56 15.3 1.65 15.3 1.75L15.3 3.31L1.38 3.31L1.38 1.75C1.38 1.65 1.42 1.56 1.5 1.48C1.58 1.41 1.67 1.37 1.78 1.37L14.9 1.37ZM8.72 14.83C8.59 14.96 8.42 15.07 8.24 15.15C8.05 15.23 7.86 15.27 7.68 15.27L1.69 15.27C1.6 15.27 1.53 15.24 1.47 15.17C1.41 15.1 1.38 15.03 1.38 14.95L1.38 12.95C1.38 12.87 1.4 12.8 1.43 12.73C1.46 12.66 1.5 12.6 1.55 12.55L6.35 7.85C6.53 7.68 6.75 7.56 7 7.5C7.25 7.43 7.5 7.51 7.74 7.75C8 8.02 8.02 8.37 7.8 8.81C7.57 9.25 7.29 9.67 6.95 10.07L6.88 10.17C6.73 10.39 6.43 10.71 5.98 11.15C5.52 11.59 5.14 11.95 4.84 12.21C4.69 12.33 4.61 12.5 4.6 12.7C4.6 12.89 4.66 13.06 4.8 13.2C4.92 13.34 5.08 13.41 5.27 13.42C5.46 13.43 5.63 13.36 5.78 13.23L5.95 13.05C6.49 12.57 7 12.08 7.48 11.57L11.95 11.57L8.72 14.83ZM8.58 10.2C8.95 9.66 9.18 9.15 9.28 8.65C9.34 8.32 9.33 7.99 9.23 7.65C9.13 7.32 8.96 7.03 8.72 6.77C8.41 6.48 8.06 6.28 7.68 6.17C7.29 6.06 6.9 6.07 6.5 6.18C6.09 6.3 5.73 6.53 5.4 6.87L2.15 10.2C2.08 10.2 2.02 10.2 1.99 10.2C1.95 10.2 1.9 10.2 1.82 10.2C1.71 10.2 1.58 10.15 1.5 10.07C1.42 9.99 1.38 9.9 1.38 9.8L1.38 4.55L15.3 4.55L15.3 9.8C15.3 9.9 15.26 9.99 15.18 10.07C15.09 10.15 15 10.2 14.9 10.2L8.58 10.2Z" fill="#000000" fill-opacity="1.000000" fill-rule="nonzero"/>
</svg>
