<svg width="16.000000" height="16.000000" viewBox="0 0 16 16" fill="none" xmlns="http://www.w3.org/2000/svg" xmlns:xlink="http://www.w3.org/1999/xlink">
	<desc>
			Created with Pixso.
	</desc>
	<defs>
		<clipPath id="clip58_5683">
			<rect id="ic_public_contacts_group" width="16.000000" height="16.000000" fill="white" fill-opacity="0"/>
		</clipPath>
	</defs>
	<g clip-path="url(#clip58_5683)">
		<path id="path-1" d="M7.33 1.66C9.26 1.66 10.83 3.23 10.83 5.16C10.83 6.34 10.25 7.38 9.36 8.01C11.67 8.85 13.33 11.06 13.33 13.66C13.33 13.94 13.1 14.16 12.83 14.16C12.55 14.16 12.33 13.94 12.33 13.66C12.33 10.9 10.09 8.66 7.33 8.66C4.57 8.66 2.33 10.9 2.33 13.66C2.33 13.91 2.14 14.12 1.9 14.16L1.83 14.16C1.55 14.16 1.33 13.94 1.33 13.66C1.33 11.06 2.99 8.85 5.3 8.01C4.41 7.38 3.83 6.34 3.83 5.16C3.83 3.23 5.4 1.66 7.33 1.66ZM11.23 7.99C13.37 8.73 14.34 10.49 14.65 11.18C14.79 11.5 14.91 11.92 15 12.44C15.12 13.15 14.65 13.82 13.96 13.97C13.98 13.87 14 13.77 14 13.66L14 13.58C13.97 11.41 12.9 9.46 11.22 8.25C11.17 8.21 11.09 8.09 11.13 8.04C11.15 8.01 11.19 7.99 11.23 7.99ZM7.33 2.66C5.95 2.66 4.83 3.78 4.83 5.16C4.83 6.54 5.95 7.66 7.33 7.66C8.71 7.66 9.83 6.54 9.83 5.16C9.83 3.78 8.71 2.66 7.33 2.66ZM9.59 1.51C11.22 1.64 12.5 3 12.5 4.66C12.5 5.75 11.94 6.71 11.11 7.28C11.07 7.31 11 7.31 10.98 7.27L10.97 7.19C11.31 6.58 11.5 5.89 11.5 5.16C11.5 3.69 10.73 2.4 9.58 1.65C9.55 1.63 9.57 1.54 9.59 1.51Z" fill="#000000" fill-opacity="1.000000" fill-rule="nonzero"/>
		<path id="path-1" d="M10.83 5.16C10.83 6.34 10.25 7.38 9.36 8.01C11.67 8.85 13.33 11.06 13.33 13.66C13.33 13.94 13.1 14.16 12.83 14.16C12.55 14.16 12.33 13.94 12.33 13.66C12.33 10.9 10.09 8.66 7.33 8.66C4.57 8.66 2.33 10.9 2.33 13.66C2.33 13.91 2.14 14.12 1.9 14.16L1.83 14.16C1.55 14.16 1.33 13.94 1.33 13.66C1.33 11.06 2.99 8.85 5.3 8.01C4.41 7.38 3.83 6.34 3.83 5.16C3.83 3.23 5.4 1.66 7.33 1.66C9.26 1.66 10.83 3.23 10.83 5.16ZM14.65 11.18C14.79 11.5 14.91 11.92 15 12.44C15.12 13.15 14.65 13.82 13.96 13.97C13.98 13.87 14 13.77 14 13.66L14 13.58C13.97 11.41 12.9 9.46 11.22 8.25C11.17 8.21 11.09 8.09 11.13 8.04C11.15 8.01 11.19 7.99 11.23 7.99C13.37 8.73 14.34 10.49 14.65 11.18ZM4.83 5.16C4.83 6.54 5.95 7.66 7.33 7.66C8.71 7.66 9.83 6.54 9.83 5.16C9.83 3.78 8.71 2.66 7.33 2.66C5.95 2.66 4.83 3.78 4.83 5.16ZM12.5 4.66C12.5 5.75 11.94 6.71 11.11 7.28C11.07 7.31 11 7.31 10.98 7.27L10.97 7.19C11.31 6.58 11.5 5.89 11.5 5.16C11.5 3.69 10.73 2.4 9.58 1.65C9.55 1.63 9.57 1.54 9.59 1.51C11.22 1.64 12.5 3 12.5 4.66Z" stroke="#000000" stroke-opacity="0" stroke-width="0.666667"/>
	</g>
</svg>
