<svg width="24.000000" height="24.000000" viewBox="0 0 24 24" fill="none" xmlns="http://www.w3.org/2000/svg" xmlns:xlink="http://www.w3.org/1999/xlink">
	<desc>
			Created with Pixso.
	</desc>
	<defs>
		<clipPath id="clip31_3069">
			<rect width="24.000000" height="24.000000" fill="white" fill-opacity="0"/>
		</clipPath>
	</defs>
	<g clip-path="url(#clip31_3069)">
		<g opacity="0.000000">
			<rect width="24.000000" height="24.000000" fill="#000000" fill-opacity="1.000000"/>
		</g>
		<path d="M17.9 22.26C18.17 22.26 18.4 22.2 18.6 22.05C18.93 21.81 19.1 21.5 19.1 21.1C19.1 20.96 19.09 20.87 19.08 20.8L17.76 15.48C17.72 15.35 17.7 15.25 17.7 15.16C17.7 14.78 17.86 14.48 18.17 14.26L22.32 10.77C22.6 10.51 22.75 10.21 22.75 9.85C22.75 9.73 22.72 9.61 22.68 9.5C22.6 9.27 22.46 9.09 22.28 8.93C22.1 8.78 21.89 8.7 21.65 8.68L16.25 8.27C16.01 8.26 15.79 8.19 15.61 8.05C15.43 7.93 15.3 7.76 15.22 7.53L13.1 2.44C13 2.22 12.86 2.04 12.66 1.9C12.46 1.76 12.24 1.69 12 1.69C11.76 1.69 11.54 1.76 11.34 1.9C11.14 2.04 10.99 2.22 10.9 2.44L8.78 7.53C8.7 7.76 8.57 7.93 8.39 8.05C8.2 8.19 7.98 8.26 7.75 8.27L2.34 8.68C2.1 8.7 1.9 8.78 1.71 8.93C1.53 9.09 1.4 9.27 1.32 9.5C1.27 9.61 1.25 9.73 1.25 9.85C1.25 10.21 1.39 10.51 1.67 10.77L5.83 14.26C6.13 14.51 6.28 14.82 6.28 15.18C6.28 15.25 6.27 15.35 6.23 15.48L4.91 20.8C4.9 20.87 4.9 20.96 4.9 21.1C4.9 21.52 5.06 21.84 5.4 22.05C5.6 22.22 5.83 22.29 6.07 22.29C6.31 22.29 6.52 22.22 6.71 22.08L11.33 19.1C11.52 18.97 11.74 18.9 12 18.9C12.25 18.9 12.47 18.97 12.65 19.1L17.26 22.08C17.43 22.2 17.64 22.26 17.9 22.26ZM7.87 9.76C8.38 9.75 8.84 9.58 9.26 9.28C9.67 8.98 9.98 8.58 10.18 8.1L12 3.71L13.82 8.1C14.03 8.58 14.34 8.98 14.76 9.28C15.17 9.58 15.63 9.75 16.12 9.76L20.78 10.13L17.2 13.1C16.9 13.34 16.66 13.64 16.5 14.02C16.33 14.4 16.25 14.78 16.25 15.18C16.25 15.39 16.27 15.61 16.32 15.84L17.42 20.39L13.49 17.86C13.04 17.56 12.54 17.41 12 17.41C11.48 17.41 11 17.56 10.54 17.86L6.58 20.39L7.7 15.84C7.75 15.61 7.78 15.4 7.78 15.22C7.78 14.79 7.69 14.4 7.51 14.03C7.33 13.67 7.09 13.36 6.78 13.1L3.21 10.13L7.87 9.76Z" fill="#000000" fill-opacity="0.898039" fill-rule="nonzero"/>
	</g>
</svg>
