<svg width="36.000000" height="36.000000" viewBox="0 0 36 36" fill="none" xmlns="http://www.w3.org/2000/svg" xmlns:xlink="http://www.w3.org/1999/xlink">
	<desc>
			Created with Pixso.
	</desc>
	<defs>
		<clipPath id="clip1_82">
			<rect width="35.999996" height="36.000000" fill="white" fill-opacity="0"/>
		</clipPath>
		<linearGradient x1="17.981953" y1="12.384003" x2="17.981953" y2="23.616001" id="paint_linear_1_85_0" gradientUnits="userSpaceOnUse">
			<stop stop-color="#FFB58F"/>
			<stop offset="1.000000" stop-color="#E84026"/>
		</linearGradient>
		<linearGradient x1="18.000004" y1="7.487991" x2="18.000004" y2="28.511990" id="paint_linear_1_86_0" gradientUnits="userSpaceOnUse">
			<stop stop-color="#FFB58F"/>
			<stop offset="1.000000" stop-color="#E84026"/>
		</linearGradient>
	</defs>
	<g opacity="0.000000">
		<rect width="36.000000" height="36.000000" fill="#FF9F2F" fill-opacity="1.000000"/>
	</g>
	<g clip-path="url(#clip1_82)">
		<g opacity="0.000000">
			<rect x="3.600006" y="3.600006" width="28.799995" height="28.799995" fill="#000000" fill-opacity="1.000000"/>
		</g>
		<path d="M11.97 14.37L13.96 14.37L13.96 12.38L11.97 12.38L11.97 14.37ZM11.97 19L13.96 19L13.96 16.99L11.97 16.99L11.97 19ZM11.97 23.61L13.96 23.61L13.96 21.62L11.97 21.62L11.97 23.61ZM22 14.37L23.98 14.37L23.98 12.38L22 12.38L22 14.37ZM22 19L23.98 19L23.98 16.99L22 16.99L22 19ZM22 23.61L23.98 23.61L23.98 21.62L22 21.62L22 23.61Z" fill="url(#paint_linear_1_85_0)" fill-opacity="1.000000" fill-rule="nonzero"/>
		<path d="M27.01 28.51C27.7 28.51 28.35 28.33 28.94 27.98C29.53 27.62 30.01 27.14 30.37 26.55C30.72 25.95 30.9 25.3 30.9 24.6L30.9 21.1C30.9 20.95 30.86 20.81 30.79 20.67C30.71 20.54 30.59 20.42 30.44 20.32C30.02 20.1 29.68 19.78 29.44 19.35C29.2 18.93 29.08 18.48 29.08 18C29.08 17.52 29.2 17.06 29.44 16.64C29.68 16.21 30.02 15.89 30.44 15.67C30.58 15.59 30.68 15.48 30.76 15.33C30.85 15.19 30.9 15.04 30.9 14.89L30.9 11.4C30.9 10.69 30.72 10.04 30.37 9.44C30.01 8.85 29.53 8.37 28.94 8.01C28.35 7.66 27.7 7.48 27.01 7.48L9.01 7.48C8.3 7.48 7.64 7.66 7.05 8.01C6.46 8.37 5.98 8.85 5.62 9.44C5.27 10.04 5.1 10.69 5.1 11.4L5.1 14.89C5.1 15.04 5.14 15.19 5.23 15.33C5.31 15.48 5.42 15.59 5.55 15.67C5.96 15.89 6.29 16.21 6.54 16.64C6.78 17.06 6.91 17.52 6.91 18C6.91 18.48 6.78 18.93 6.54 19.35C6.29 19.78 5.96 20.1 5.55 20.32C5.4 20.42 5.28 20.54 5.2 20.67C5.13 20.81 5.1 20.95 5.1 21.1L5.1 24.6C5.1 25.3 5.27 25.95 5.62 26.55C5.98 27.14 6.46 27.62 7.05 27.98C7.64 28.33 8.3 28.51 9.01 28.51L27.01 28.51ZM6.91 21.6C7.47 21.16 7.9 20.62 8.22 19.99C8.54 19.35 8.7 18.68 8.7 18C8.7 17.28 8.54 16.61 8.22 15.98C7.9 15.35 7.47 14.82 6.91 14.4L6.91 11.4C6.91 10.8 7.11 10.31 7.51 9.91C7.92 9.5 8.42 9.29 9.01 9.29L27.01 9.29C27.58 9.29 28.08 9.5 28.48 9.91C28.88 10.31 29.08 10.8 29.08 11.4L29.08 14.4C28.52 14.82 28.09 15.35 27.78 15.98C27.46 16.61 27.3 17.28 27.3 18C27.3 18.71 27.46 19.38 27.78 20.01C28.09 20.64 28.52 21.17 29.08 21.6L29.08 24.6C29.08 25.17 28.88 25.66 28.46 26.07C28.05 26.49 27.57 26.7 27.01 26.7L9.01 26.7C8.42 26.7 7.92 26.49 7.51 26.07C7.11 25.66 6.91 25.17 6.91 24.6L6.91 21.6Z" fill="url(#paint_linear_1_86_0)" fill-opacity="1.000000" fill-rule="nonzero"/>
	</g>
</svg>
