<svg width="16.000000" height="16.000000" viewBox="0 0 16 16" fill="none" xmlns="http://www.w3.org/2000/svg" xmlns:xlink="http://www.w3.org/1999/xlink">
	<desc>
			Created with Pixso.
	</desc>
	<defs/>
	<path d="M14 6.35Q14.46 6.48 14.86 6.97Q15.01 7.16 15.11 7.37Q15.23 7.61 15.28 7.87Q15.32 8.05 15.32 8.24Q15.33 8.56 15.24 8.89L14.17 12.65Q14.06 13.03 13.86 13.35Q13.61 13.74 13.21 14.03Q12.82 14.33 12.37 14.46Q12.01 14.57 11.61 14.57L2.71 14.57Q2.4 14.57 2.12 14.48Q1.89 14.41 1.68 14.29Q1.45 14.15 1.27 13.97Q1.07 13.78 0.93 13.54Q0.81 13.33 0.74 13.12Q0.65 12.82 0.65 12.51L0.65 8.6Q0.65 8.24 0.76 7.92Q0.83 7.74 0.92 7.57Q1.06 7.34 1.24 7.15Q1.43 6.96 1.67 6.83Q1.86 6.71 2.07 6.65Q2.37 6.55 2.7 6.55L4.99 6.55L8.55 1.76Q8.67 1.6 8.82 1.49Q9.06 1.32 9.39 1.26Q9.65 1.21 9.9 1.25Q10.15 1.29 10.39 1.42Q10.97 1.74 11.12 2.19Q11.26 2.64 11.1 3.28L10.33 6.25L12.71 6.23L12.84 6.23Q13.53 6.23 14 6.35ZM12.92 12.94Q13.12 12.7 13.21 12.38L14.28 8.64Q14.34 8.43 14.33 8.22Q14.32 8.16 14.31 8.1Q14.28 7.98 14.23 7.87Q14.17 7.74 14.07 7.63Q13.87 7.39 13.61 7.31Q13.61 7.31 13.61 7.31Q13.35 7.23 12.92 7.24L12.73 7.24L10.51 7.28Q10.06 7.29 9.76 7.14Q9.59 7.05 9.48 6.92Q9.4 6.82 9.35 6.69Q9.24 6.39 9.35 5.98L10.12 3.1Q10.22 2.76 10.19 2.6Q10.16 2.44 9.92 2.32Q9.85 2.28 9.78 2.26Q9.7 2.25 9.6 2.26Q9.58 2.26 9.55 2.27Q9.42 2.31 9.31 2.44L5.48 7.56L5.48 13.58L11.61 13.58Q11.92 13.58 12.19 13.48Q12.41 13.4 12.61 13.25Q12.79 13.12 12.92 12.94ZM1.71 8.24Q1.64 8.42 1.64 8.62L1.64 12.52Q1.64 12.77 1.74 12.97Q1.81 13.14 1.96 13.28Q2.1 13.42 2.28 13.49Q2.48 13.58 2.71 13.58L4.49 13.58L4.49 7.56L2.7 7.56Q2.5 7.56 2.33 7.63Q2.13 7.7 1.96 7.87Q1.79 8.04 1.71 8.24ZM2.95 10.98Q3.04 10.94 3.15 10.94Q3.26 10.94 3.35 10.98Q3.43 11.02 3.5 11.08Q3.56 11.14 3.6 11.22Q3.64 11.32 3.64 11.44L3.64 12.43Q3.64 12.54 3.6 12.63Q3.57 12.71 3.5 12.78Q3.43 12.85 3.35 12.89Q3.26 12.92 3.15 12.92Q3.04 12.92 2.95 12.89Q2.86 12.85 2.8 12.78Q2.73 12.71 2.69 12.63Q2.65 12.54 2.65 12.43L2.65 11.44Q2.65 11.32 2.7 11.22Q2.73 11.14 2.8 11.08Q2.86 11.02 2.95 10.98Z" fill="#000000" fill-opacity="0.898039" fill-rule="evenodd"/>
</svg>
