<svg width="16.000000" height="16.000000" viewBox="0 0 16 16" fill="none" xmlns="http://www.w3.org/2000/svg" xmlns:xlink="http://www.w3.org/1999/xlink">
	<desc>
			Created with Pixso.
	</desc>
	<defs>
		<clipPath id="clip22_4662">
			<rect width="16.000000" height="16.000000" fill="white" fill-opacity="0"/>
		</clipPath>
	</defs>
	<g clip-path="url(#clip22_4662)">
		<g opacity="0.000000">
			<rect width="16.000000" height="16.000000" fill="#000000" fill-opacity="1.000000"/>
		</g>
		<path d="M2.67 6.61C2.11 6.61 1.64 6.8 1.26 7.19C0.86 7.58 0.67 8.05 0.67 8.61L0.67 12.64C0.67 13.19 0.86 13.66 1.26 14.06C1.64 14.44 2.11 14.64 2.67 14.64L4.35 14.64C4.45 14.64 4.53 14.6 4.59 14.54C4.65 14.48 4.69 14.4 4.69 14.32L4.69 6.94C4.69 6.86 4.65 6.78 4.59 6.71C4.53 6.64 4.45 6.61 4.35 6.61L2.67 6.61ZM2.35 11.46C2.35 11.32 2.4 11.2 2.5 11.1C2.59 11 2.71 10.96 2.85 10.96C2.98 10.96 3.1 11 3.21 11.1C3.31 11.2 3.35 11.32 3.35 11.46L3.35 12.43C3.35 12.57 3.31 12.69 3.21 12.79C3.1 12.89 2.98 12.94 2.85 12.94C2.71 12.94 2.59 12.89 2.5 12.79C2.4 12.69 2.35 12.57 2.35 12.43L2.35 11.46ZM5.42 14.5C5.42 14.54 5.43 14.57 5.47 14.61C5.5 14.64 5.54 14.66 5.58 14.66L11.62 14.66C12.21 14.66 12.74 14.48 13.22 14.12C13.7 13.76 14.02 13.3 14.18 12.74L15.25 8.99C15.3 8.82 15.33 8.62 15.33 8.38C15.33 7.87 15.17 7.43 14.86 7.06C14.57 6.7 14.26 6.49 13.92 6.41C13.58 6.33 13.17 6.3 12.7 6.32L10.78 6.34L10.62 6.34C10.58 6.34 10.52 6.34 10.46 6.34C10.4 6.34 10.36 6.34 10.34 6.34L10.43 5.95L10.48 5.81L10.7 4.94C10.88 4.31 11.02 3.78 11.12 3.36C11.17 3.06 11.2 2.86 11.2 2.78C11.2 2.5 11.13 2.26 10.99 2.04C10.85 1.82 10.66 1.64 10.42 1.52C10.18 1.39 9.93 1.33 9.68 1.33C9.46 1.33 9.26 1.37 9.06 1.46C8.86 1.55 8.7 1.68 8.58 1.86L7.55 3.2L6.35 4.82L5.46 6.02L5.42 14.5Z" fill="#DC6450" fill-opacity="1.000000" fill-rule="nonzero"/>
	</g>
</svg>
