<svg width="16.001465" height="16.001038" viewBox="0 0 16.0015 16.001" fill="none" xmlns="http://www.w3.org/2000/svg" xmlns:xlink="http://www.w3.org/1999/xlink">
	<desc>
			Created with Pixso.
	</desc>
	<defs/>
	<path d="M0 7.99C0 6.74 -0.01 5.49 0 4.24C-0.01 3.63 0.07 3.03 0.22 2.45C0.55 1.21 1.35 0.47 2.59 0.18C3.21 0.05 3.85 -0.01 4.48 0C6.88 0 9.28 0 11.68 0C12.28 -0.01 12.88 0.06 13.47 0.2C14.75 0.51 15.52 1.32 15.81 2.6C15.94 3.2 16 3.81 15.99 4.43C15.99 6.85 15.99 9.27 15.99 11.69C16 12.29 15.93 12.89 15.79 13.48C15.48 14.75 14.66 15.51 13.39 15.81C12.77 15.94 12.14 16 11.5 15.99C9.11 15.99 6.73 15.99 4.34 15.99C3.73 16 3.12 15.93 2.53 15.79C1.25 15.48 0.48 14.67 0.19 13.39C0.04 12.74 0 12.09 0 11.43C0 10.28 0 9.14 0 7.99Z" fill="#FFFFFF" fill-opacity="0" fill-rule="evenodd"/>
	<circle cx="8.001465" cy="8.001038" r="8.000000" fill="#FFFFFF" fill-opacity="0"/>
	<mask id="mask39_11287" mask-type="alpha" maskUnits="userSpaceOnUse" x="0.001465" y="0.001038" width="16.000000" height="16.000000">
		<path d="M11.72 0C11.55 0.11 11.39 0.25 11.23 0.4L4.32 7.31C4.28 7.35 4.25 7.39 4.22 7.43C4.18 7.47 4.15 7.51 4.12 7.55C4.07 7.64 4.02 7.74 3.98 7.83L2.6 11.46C2.53 11.63 2.5 11.81 2.5 12C2.5 12.09 2.5 12.18 2.52 12.27C2.54 12.36 2.56 12.44 2.6 12.53C2.74 12.92 3.01 13.2 3.38 13.36C3.76 13.53 4.14 13.54 4.53 13.4L8.16 12.01C8.26 11.97 8.35 11.93 8.44 11.87C8.48 11.84 8.53 11.81 8.57 11.78C8.61 11.74 8.65 11.71 8.68 11.67L15.59 4.76C15.75 4.61 15.88 4.45 16 4.27L16 16L0 16L0 0L11.72 0ZM15.1 0C15.28 0.11 15.44 0.25 15.59 0.4C15.75 0.55 15.88 0.72 16 0.89L16 0L15.1 0Z" fill="#C4C4C4" fill-opacity="1.000000" fill-rule="evenodd"/>
	</mask>
	<g mask="url(#mask39_11287)">
		<path d="M3.16 1.16L12.83 1.16C13.93 1.16 14.83 2.06 14.83 3.16L14.83 12.83C14.83 13.93 13.93 14.83 12.83 14.83L3.16 14.83C2.06 14.83 1.16 13.93 1.16 12.83L1.16 3.16C1.16 2.06 2.06 1.16 3.16 1.16Z" fill="#FFFFFF" fill-opacity="0" fill-rule="evenodd"/>
		<path d="M14.83 12.83C14.83 13.93 13.93 14.83 12.83 14.83L3.16 14.83C2.06 14.83 1.16 13.93 1.16 12.83L1.16 3.16C1.16 2.06 2.06 1.16 3.16 1.16L12.83 1.16C13.93 1.16 14.83 2.06 14.83 3.16L14.83 12.83Z" fill="#000000" fill-opacity="0" fill-rule="nonzero"/>
		<path d="M12.83 14.83L3.16 14.83C2.06 14.83 1.16 13.93 1.16 12.83L1.16 3.16C1.16 2.06 2.06 1.16 3.16 1.16L12.83 1.16C13.93 1.16 14.83 2.06 14.83 3.16L14.83 12.83C14.83 13.93 13.93 14.83 12.83 14.83Z" stroke="#191919" stroke-opacity="1.000000" stroke-width="1.200000" stroke-linejoin="round"/>
	</g>
	<path d="M12.29 1.46C12.91 0.84 13.91 0.84 14.53 1.46C15.15 2.08 15.15 3.08 14.53 3.7L7.62 10.61L4 11.99L5.38 8.37L12.29 1.46Z" fill="#000000" fill-opacity="0" fill-rule="nonzero"/>
	<path d="M14.53 1.46C15.15 2.08 15.15 3.08 14.53 3.7L7.62 10.61L4 11.99L5.38 8.37L12.29 1.46C12.91 0.84 13.91 0.84 14.53 1.46Z" stroke="#191919" stroke-opacity="1.000000" stroke-width="1.200000" stroke-linejoin="round"/>
	<path d="M11.41 2.36L10.97 1.93L11.82 1.08L12.26 1.52L11.41 2.36ZM14.47 3.73L14.91 4.17L14.06 5.01L13.62 4.58L14.47 3.73Z" fill="#000000" fill-opacity="0" fill-rule="nonzero"/>
	<path d="M11.82 1.93L14.06 4.17" stroke="#191919" stroke-opacity="1.000000" stroke-width="1.200000" stroke-linecap="square"/>
	<mask id="mask39_11295" mask-type="alpha" maskUnits="userSpaceOnUse" x="0.001465" y="0.001038" width="16.000000" height="16.000000">
		<path d="M16 5.39L16 0L10.6 0L16 5.39ZM9.19 0L16 6.81L16 16L0 16L0 0L9.19 0Z" fill="#C4C4C4" fill-opacity="1.000000" fill-rule="evenodd"/>
	</mask>
	<g mask="url(#mask39_11295)">
		<path d="M5.38 8.37L12.29 1.46C12.91 0.84 13.91 0.84 14.53 1.46C15.15 2.08 15.15 3.08 14.53 3.7L7.62 10.61L4 11.99L5.38 8.37Z" fill="#FFFFFF" fill-opacity="0" fill-rule="evenodd"/>
		<path d="M12.29 1.46C12.91 0.84 13.91 0.84 14.53 1.46C15.15 2.08 15.15 3.08 14.53 3.7L7.62 10.61L4 11.99L5.38 8.37L12.29 1.46Z" fill="#000000" fill-opacity="0" fill-rule="nonzero"/>
		<path d="M14.53 1.46C15.15 2.08 15.15 3.08 14.53 3.7L7.62 10.61L4 11.99L5.38 8.37L12.29 1.46C12.91 0.84 13.91 0.84 14.53 1.46Z" stroke="#FFFFFF" stroke-opacity="0" stroke-width="1.995000" stroke-linejoin="round"/>
	</g>
</svg>
