<svg width="24.000000" height="24.000000" viewBox="0 0 24 24" fill="none" xmlns="http://www.w3.org/2000/svg" xmlns:xlink="http://www.w3.org/1999/xlink">
	<desc>
			Created with Pixso.
	</desc>
	<defs>
		<clipPath id="clip5_1767">
			<rect width="24.000000" height="24.000000" fill="white" fill-opacity="0"/>
		</clipPath>
	</defs>
	<g clip-path="url(#clip5_1767)">
		<g opacity="0.000000">
			<rect width="24.000000" height="24.000000" fill="#000000" fill-opacity="1.000000"/>
		</g>
		<path d="M2.01 11.69C1.8 11.69 1.62 11.61 1.48 11.47C1.34 11.33 1.26 11.15 1.26 10.94C1.26 10.72 1.34 10.53 1.5 10.39L9.54 2.76C10.22 2.1 11.04 1.78 12 1.78C12.46 1.78 12.91 1.86 13.33 2.03C13.75 2.19 14.13 2.44 14.45 2.76L22.51 10.39C22.65 10.53 22.73 10.72 22.73 10.94C22.73 11.12 22.66 11.29 22.54 11.45C22.39 11.61 22.21 11.69 22.01 11.69C21.8 11.69 21.62 11.61 21.48 11.47L13.42 3.84C13.03 3.45 12.56 3.26 12.02 3.26C11.49 3.26 11.02 3.45 10.61 3.84L2.53 11.5C2.41 11.62 2.23 11.69 2.01 11.69ZM20.37 12.07C19.4 11.13 18.14 9.94 16.62 8.51C15.09 7.07 13.9 5.96 13.06 5.16C12.76 4.87 12.41 4.73 12 4.73C11.6 4.73 11.24 4.87 10.92 5.16L3.64 12.07C3.38 12.33 3.25 12.63 3.25 12.98L3.25 19.99C3.25 20.61 3.47 21.15 3.91 21.59C4.35 22.03 4.89 22.25 5.51 22.25L18.5 22.25C19.11 22.25 19.64 22.03 20.08 21.59C20.52 21.15 20.74 20.61 20.74 19.99L20.74 12.96C20.74 12.6 20.62 12.31 20.37 12.07ZM9.01 20.74L9.01 16.18C9.01 15.42 9.31 14.78 9.88 14.26C10.46 13.72 11.16 13.46 12 13.46C12.83 13.46 13.53 13.72 14.11 14.26C14.69 14.78 14.98 15.42 14.98 16.18L14.98 20.74L9.01 20.74Z" fill="#DC6450" fill-opacity="1.000000" fill-rule="nonzero"/>
	</g>
</svg>
