<svg width="24.000000" height="24.000000" viewBox="0 0 24 24" fill="none" xmlns="http://www.w3.org/2000/svg" xmlns:xlink="http://www.w3.org/1999/xlink">
	<desc>
			Created with Pixso.
	</desc>
	<defs>
		<clipPath id="clip34_8488">
			<rect width="24.000000" height="24.000000" fill="white" fill-opacity="0"/>
		</clipPath>
	</defs>
	<g clip-path="url(#clip34_8488)">
		<g opacity="0.000000"/>
		<path d="M17.68 16.62C17.83 16.77 17.89 16.95 17.89 17.16C17.89 17.36 17.83 17.54 17.68 17.7C17.54 17.85 17.36 17.93 17.16 17.93C16.95 17.93 16.77 17.85 16.62 17.7L11.47 12.53C11.37 12.41 11.25 12.18 11.25 11.98L11.25 5.76C11.25 5.55 11.33 5.37 11.47 5.21C11.61 5.06 11.79 4.98 12 4.98C12.2 4.98 12.38 5.06 12.52 5.21C12.66 5.37 12.74 5.55 12.74 5.76L12.74 11.69L17.68 16.62ZM12 1.25C10.04 1.25 8.24 1.73 6.6 2.7C4.95 3.66 3.64 4.96 2.68 6.6C1.72 8.25 1.25 10.04 1.25 12C1.25 13.95 1.72 15.75 2.68 17.39C3.64 19.03 4.95 20.33 6.6 21.3C8.24 22.26 10.04 22.75 12 22.75C13.93 22.75 15.72 22.26 17.37 21.3C19.02 20.33 20.33 19.02 21.29 17.37C22.26 15.72 22.75 13.93 22.75 12C22.75 10.06 22.26 8.27 21.29 6.62C20.33 4.97 19.02 3.66 17.37 2.7C15.72 1.73 13.93 1.25 12 1.25Z" fill="#E84026" fill-opacity="1.000000" fill-rule="nonzero"/>
	</g>
</svg>
