<svg width="16.001465" height="16.001038" viewBox="0 0 16.0015 16.001" fill="none" xmlns="http://www.w3.org/2000/svg" xmlns:xlink="http://www.w3.org/1999/xlink">
	<desc>
			Created with Pixso.
	</desc>
	<defs/>
	<rect x="0.001465" y="0.001038" width="16.000000" height="16.000000" fill="#FFFFFF" fill-opacity="0"/>
	<path d="M0 7.99C0 6.74 -0.01 5.49 0 4.24C-0.01 3.63 0.07 3.03 0.22 2.45C0.55 1.21 1.35 0.47 2.59 0.18C3.21 0.05 3.85 -0.01 4.48 0C6.88 0 9.28 0 11.68 0C12.28 -0.01 12.88 0.06 13.47 0.2C14.75 0.51 15.52 1.32 15.81 2.6C15.94 3.2 16 3.81 15.99 4.43C15.99 6.85 15.99 9.27 15.99 11.69C16 12.29 15.93 12.89 15.79 13.48C15.48 14.75 14.66 15.51 13.39 15.81C12.77 15.94 12.14 16 11.5 15.99C9.11 15.99 6.73 15.99 4.34 15.99C3.73 16 3.12 15.93 2.53 15.79C1.25 15.48 0.48 14.67 0.19 13.39C0.04 12.74 0 12.09 0 11.43C0 10.28 0 9.14 0 7.99Z" fill="#FFFFFF" fill-opacity="0" fill-rule="evenodd"/>
	<circle cx="8.001465" cy="8.001038" r="8.000000" fill="#FFFFFF" fill-opacity="0"/>
	<path d="M8 2C3.95 2 0.66 4.44 0.66 7.45C0.66 8.93 1.46 10.27 2.75 11.26C2.75 11.26 3.14 12.35 2.05 13.57C0.96 14.8 4.6 13.69 6.01 12.71C6.64 12.84 7.31 12.9 8 12.9C12.05 12.9 15.33 10.46 15.33 7.45C15.33 4.44 12.05 2 8 2Z" fill="#FFFFFF" fill-opacity="0" fill-rule="evenodd"/>
	<path d="M0.66 7.45C0.66 8.93 1.46 10.27 2.75 11.26C2.75 11.26 3.14 12.35 2.05 13.57C0.96 14.8 4.6 13.69 6.01 12.71C6.64 12.84 7.31 12.9 8 12.9C12.05 12.9 15.33 10.46 15.33 7.45C15.33 4.44 12.05 2 8 2C3.95 2 0.66 4.44 0.66 7.45Z" fill="#000000" fill-opacity="0" fill-rule="nonzero"/>
	<path d="M2.75 11.26C2.75 11.26 3.14 12.35 2.05 13.57C0.96 14.8 4.6 13.69 6.01 12.71C6.64 12.84 7.31 12.9 8 12.9C12.05 12.9 15.33 10.46 15.33 7.45C15.33 4.44 12.05 2 8 2C3.95 2 0.66 4.44 0.66 7.45C0.66 8.93 1.46 10.27 2.75 11.26Z" stroke="#191919" stroke-opacity="1.000000" stroke-width="1.200000" stroke-linejoin="round"/>
	<path d="M4 7.8C4 7.35 4.35 7 4.79 7C5.24 7 5.59 7.35 5.59 7.8C5.59 8.24 5.24 8.6 4.79 8.6C4.35 8.6 4 8.24 4 7.8ZM7.2 7.8C7.2 7.35 7.55 7 8 7C8.44 7 8.79 7.35 8.79 7.8C8.79 8.24 8.44 8.6 8 8.6C7.55 8.6 7.2 8.24 7.2 7.8ZM11.2 7C10.75 7 10.4 7.35 10.4 7.8C10.4 8.24 10.75 8.6 11.2 8.6C11.64 8.6 12 8.24 12 7.8C12 7.35 11.64 7 11.2 7Z" fill="#191919" fill-opacity="1.000000" fill-rule="evenodd"/>
</svg>
