<svg width="16.000000" height="16.000000" viewBox="0 0 16 16" fill="none" xmlns="http://www.w3.org/2000/svg" xmlns:xlink="http://www.w3.org/1999/xlink">
	<desc>
			Created with Pixso.
	</desc>
	<defs/>
	<path d="M5.66 6.66L6.43 6.66L6.43 5.89L5.66 5.89L5.66 6.66ZM5.66 8.46L6.43 8.46L6.43 7.68L5.66 7.68L5.66 8.46ZM5.66 10.25L6.43 10.25L6.43 9.47L5.66 9.47L5.66 10.25ZM9.55 6.66L10.32 6.66L10.32 5.89L9.55 5.89L9.55 6.66ZM9.55 8.46L10.32 8.46L10.32 7.68L9.55 7.68L9.55 8.46ZM9.55 10.25L10.32 10.25L10.32 9.47L9.55 9.47L9.55 10.25Z" fill="#666666" fill-opacity="1.000000" fill-rule="nonzero"/>
	<path d="M11.49 12.14C11.76 12.14 12.01 12.08 12.24 11.94C12.47 11.8 12.65 11.62 12.79 11.39C12.93 11.15 13 10.9 13 10.63L13 9.27C13 9.22 12.98 9.16 12.95 9.11C12.92 9.05 12.88 9.01 12.82 8.97C12.65 8.88 12.53 8.76 12.43 8.6C12.34 8.43 12.29 8.26 12.29 8.07C12.29 7.88 12.34 7.71 12.43 7.54C12.53 7.38 12.65 7.25 12.82 7.17C12.87 7.14 12.91 7.09 12.94 7.04C12.98 6.98 13 6.92 13 6.86L13 5.51C13 5.24 12.93 4.99 12.79 4.75C12.65 4.52 12.47 4.34 12.24 4.2C12.01 4.06 11.76 4 11.49 4L4.51 4C4.24 4 3.98 4.06 3.75 4.2C3.52 4.34 3.34 4.52 3.2 4.75C3.06 4.99 3 5.24 3 5.51L3 6.86C3 6.92 3.01 6.98 3.05 7.04C3.08 7.09 3.12 7.14 3.17 7.17C3.33 7.25 3.46 7.38 3.55 7.54C3.65 7.71 3.7 7.88 3.7 8.07C3.7 8.26 3.65 8.43 3.55 8.6C3.46 8.76 3.33 8.88 3.17 8.97C3.11 9.01 3.07 9.05 3.04 9.11C3.01 9.16 3 9.22 3 9.27L3 10.63C3 10.9 3.06 11.15 3.2 11.39C3.34 11.62 3.52 11.8 3.75 11.94C3.98 12.08 4.24 12.14 4.51 12.14L11.49 12.14ZM3.7 9.46C3.91 9.29 4.08 9.09 4.2 8.84C4.33 8.59 4.39 8.34 4.39 8.07C4.39 7.79 4.33 7.53 4.2 7.29C4.08 7.04 3.91 6.84 3.7 6.67L3.7 5.51C3.7 5.28 3.77 5.09 3.93 4.93C4.09 4.78 4.28 4.7 4.51 4.7L11.49 4.7C11.71 4.7 11.9 4.78 12.06 4.93C12.22 5.09 12.29 5.28 12.29 5.51L12.29 6.67C12.08 6.84 11.91 7.04 11.79 7.29C11.66 7.53 11.6 7.79 11.6 8.07C11.6 8.35 11.66 8.61 11.79 8.85C11.91 9.1 12.08 9.3 12.29 9.46L12.29 10.63C12.29 10.85 12.21 11.04 12.05 11.2C11.89 11.36 11.71 11.44 11.49 11.44L4.51 11.44C4.28 11.44 4.09 11.36 3.93 11.2C3.77 11.04 3.7 10.85 3.7 10.63L3.7 9.46Z" fill="#666666" fill-opacity="1.000000" fill-rule="nonzero"/>
	<rect x="0.500000" y="0.500000" rx="7.500000" width="15.000000" height="15.000000" stroke="#666666" stroke-opacity="1.000000" stroke-width="1.000000"/>
</svg>
