<svg width="12.000000" height="11.999924" viewBox="0 0 12 11.9999" fill="none" xmlns="http://www.w3.org/2000/svg" xmlns:xlink="http://www.w3.org/1999/xlink">
	<desc>
			Created with Pixso.
	</desc>
	<defs/>
	<path d="M7.72 5.28L7.72 5.87C7.72 6.01 7.71 6.14 7.68 6.27C7.66 6.38 7.62 6.49 7.58 6.59C7.53 6.7 7.48 6.8 7.42 6.89C7.35 7 7.27 7.09 7.18 7.18C7.09 7.27 7 7.35 6.89 7.42C6.8 7.48 6.7 7.53 6.59 7.58C6.49 7.62 6.38 7.66 6.27 7.68C6.14 7.71 6.01 7.72 5.87 7.72L1.85 7.72C1.71 7.72 1.58 7.71 1.45 7.68C1.34 7.66 1.23 7.62 1.13 7.58C1.02 7.53 0.92 7.48 0.83 7.42C0.72 7.35 0.63 7.27 0.54 7.18C0.45 7.09 0.37 7 0.3 6.89C0.24 6.8 0.19 6.7 0.14 6.59C0.1 6.49 0.06 6.38 0.04 6.27C0.01 6.14 0 6.01 0 5.87L0 1.85C0 1.71 0.01 1.58 0.04 1.45C0.06 1.34 0.1 1.23 0.14 1.13C0.19 1.02 0.24 0.92 0.3 0.83C0.37 0.72 0.45 0.63 0.54 0.54C0.63 0.45 0.72 0.37 0.83 0.3C0.92 0.24 1.02 0.19 1.13 0.14C1.23 0.1 1.34 0.06 1.45 0.04C1.58 0.01 1.71 0 1.85 0L5.87 0C6.01 0 6.14 0.01 6.27 0.04C6.38 0.06 6.49 0.1 6.59 0.14C6.7 0.19 6.8 0.24 6.89 0.3C7 0.37 7.09 0.45 7.18 0.54C7.27 0.63 7.35 0.72 7.42 0.83C7.48 0.92 7.53 1.02 7.58 1.13C7.62 1.23 7.66 1.34 7.68 1.45C7.71 1.58 7.72 1.71 7.72 1.85L7.72 3.25C7.72 3.53 7.5 3.76 7.22 3.76C6.93 3.76 6.71 3.53 6.71 3.25L6.71 1.85C6.71 1.73 6.69 1.62 6.65 1.53C6.61 1.43 6.54 1.34 6.46 1.26C6.38 1.17 6.29 1.11 6.19 1.07C6.09 1.03 5.99 1.01 5.87 1.01L1.85 1.01C1.73 1.01 1.62 1.03 1.53 1.07C1.43 1.11 1.34 1.17 1.26 1.26C1.17 1.34 1.11 1.43 1.07 1.53C1.03 1.62 1.01 1.73 1.01 1.85L1.01 5.87C1.01 5.99 1.03 6.09 1.07 6.19C1.11 6.29 1.17 6.38 1.26 6.46C1.34 6.54 1.43 6.61 1.53 6.65C1.62 6.69 1.73 6.71 1.85 6.71L4.27 6.71L4.27 6.12C4.27 5.98 4.28 5.85 4.31 5.72C4.33 5.61 4.37 5.5 4.41 5.4C4.46 5.29 4.51 5.19 4.57 5.1C4.64 4.99 4.72 4.9 4.81 4.81C4.9 4.72 4.99 4.64 5.1 4.57C5.19 4.51 5.29 4.46 5.4 4.41C5.5 4.37 5.61 4.33 5.72 4.31C5.85 4.28 5.98 4.27 6.12 4.27L10.14 4.27C10.28 4.27 10.41 4.28 10.54 4.31C10.65 4.33 10.76 4.37 10.86 4.41C10.97 4.46 11.07 4.51 11.16 4.57C11.27 4.64 11.36 4.72 11.45 4.81C11.54 4.9 11.62 4.99 11.69 5.1C11.75 5.19 11.8 5.29 11.85 5.4C11.89 5.5 11.93 5.61 11.95 5.72C11.98 5.85 12 5.98 12 6.12L12 10.14C12 10.28 11.98 10.41 11.95 10.54C11.93 10.65 11.89 10.76 11.85 10.86C11.8 10.97 11.75 11.07 11.69 11.16C11.62 11.27 11.54 11.36 11.45 11.45C11.36 11.54 11.27 11.62 11.16 11.69C11.07 11.75 10.97 11.8 10.86 11.85C10.76 11.89 10.65 11.93 10.54 11.95C10.41 11.98 10.28 11.99 10.14 11.99L6.12 11.99C5.98 11.99 5.85 11.98 5.72 11.95C5.61 11.93 5.5 11.89 5.4 11.85C5.29 11.8 5.19 11.75 5.1 11.69C4.99 11.62 4.9 11.54 4.81 11.45C4.72 11.36 4.64 11.27 4.57 11.16C4.51 11.07 4.46 10.97 4.41 10.86C4.37 10.76 4.33 10.65 4.31 10.54C4.28 10.41 4.27 10.28 4.27 10.14L4.27 8.74C4.27 8.46 4.49 8.23 4.77 8.23C5.06 8.23 5.28 8.46 5.28 8.74L5.28 10.14C5.28 10.26 5.3 10.37 5.34 10.46C5.38 10.56 5.45 10.65 5.53 10.73C5.61 10.82 5.7 10.88 5.8 10.92C5.9 10.96 6 10.98 6.12 10.98L10.14 10.98C10.26 10.98 10.37 10.96 10.46 10.92C10.56 10.88 10.65 10.82 10.73 10.73C10.82 10.65 10.88 10.56 10.92 10.46C10.96 10.37 10.98 10.26 10.98 10.14L10.98 6.12C10.98 6 10.96 5.9 10.92 5.8C10.88 5.7 10.82 5.61 10.73 5.53C10.65 5.45 10.56 5.38 10.46 5.34C10.37 5.3 10.26 5.28 10.14 5.28L7.72 5.28ZM6.71 5.28L6.12 5.28C6 5.28 5.9 5.3 5.8 5.34C5.7 5.38 5.61 5.45 5.53 5.53C5.45 5.61 5.38 5.7 5.34 5.8C5.3 5.9 5.28 6 5.28 6.12L5.28 6.71L5.87 6.71C5.99 6.71 6.09 6.69 6.19 6.65C6.29 6.61 6.38 6.54 6.46 6.46C6.54 6.38 6.61 6.29 6.65 6.19C6.69 6.09 6.71 5.99 6.71 5.87L6.71 5.28Z" fill="#FFFFFF" fill-opacity="1.000000" fill-rule="evenodd"/>
</svg>
