<svg width="36.000000" height="36.000000" viewBox="0 0 36 36" fill="none" xmlns="http://www.w3.org/2000/svg" xmlns:xlink="http://www.w3.org/1999/xlink">
	<desc>
			Created with Pixso.
	</desc>
	<defs>
		<clipPath id="clip1_70">
			<rect width="34.000000" height="34.000000" transform="translate(1.000000 1.000000)" fill="white" fill-opacity="0"/>
		</clipPath>
		<linearGradient x1="17.212313" y1="6.655334" x2="17.212313" y2="29.326298" id="paint_linear_1_73_0" gradientUnits="userSpaceOnUse">
			<stop stop-color="#EAFF85"/>
			<stop offset="1.000000" stop-color="#31E05B"/>
		</linearGradient>
		<linearGradient x1="23.179333" y1="19.439362" x2="23.179333" y2="29.344694" id="paint_linear_1_74_0" gradientUnits="userSpaceOnUse">
			<stop stop-color="#EAFF85"/>
			<stop offset="1.000000" stop-color="#31E05B"/>
		</linearGradient>
	</defs>
	<g opacity="0.000000">
		<rect width="36.000000" height="36.000000" fill="#FF9F2F" fill-opacity="1.000000"/>
	</g>
	<g clip-path="url(#clip1_70)">
		<g opacity="0.000000">
			<rect x="4.400002" y="4.399994" width="27.199997" height="27.199997" fill="#000000" fill-opacity="1.000000"/>
		</g>
		<path d="M17.2 8.34C15.79 8.34 14.51 8.5 13.36 8.83C12.2 9.15 11.3 9.58 10.65 10.11C10 10.64 9.68 11.16 9.68 11.68C9.68 12.21 10 12.74 10.65 13.26C11.3 13.79 12.2 14.21 13.36 14.54C14.51 14.86 15.79 15.03 17.2 15.03C18.64 15.03 19.93 14.86 21.07 14.54C22.21 14.21 23.11 13.79 23.76 13.26C24.41 12.74 24.74 12.21 24.74 11.68C24.74 11.16 24.41 10.64 23.76 10.11C23.11 9.58 22.21 9.15 21.07 8.83C19.93 8.5 18.64 8.34 17.2 8.34ZM17.04 27.59C17.13 27.92 17.28 28.23 17.47 28.51C17.68 28.79 17.92 29.05 18.19 29.28C16.83 29.39 15.34 29.28 13.73 28.94C12.13 28.61 10.77 28.04 9.65 27.23C8.54 26.42 7.99 25.43 7.99 24.25L7.99 11.68C7.99 10.76 8.4 9.91 9.21 9.14C10.03 8.37 11.14 7.76 12.54 7.32C13.95 6.87 15.5 6.65 17.2 6.65C18.91 6.65 20.47 6.87 21.88 7.32C23.3 7.76 24.41 8.37 25.21 9.14C26.02 9.91 26.43 10.76 26.43 11.68L26.43 18.54C26.17 18.45 25.9 18.36 25.61 18.28C25.32 18.2 25.03 18.14 24.74 18.11L24.74 14.62C23.88 15.28 22.81 15.79 21.51 16.16C20.2 16.53 18.77 16.71 17.2 16.71C15.65 16.71 14.21 16.53 12.91 16.16C11.6 15.79 10.52 15.28 9.68 14.62L9.68 17.97C9.68 18.49 9.99 19.02 10.61 19.54C11.23 20.05 12.11 20.47 13.24 20.79C14.36 21.12 15.61 21.29 16.99 21.32C16.95 21.46 16.92 21.6 16.9 21.75C16.87 21.89 16.85 22.04 16.85 22.19L16.85 23C15.36 22.98 14 22.79 12.76 22.42C11.52 22.04 10.49 21.54 9.68 20.91L9.68 24.25C9.68 24.78 9.99 25.3 10.63 25.82C11.26 26.33 12.14 26.76 13.26 27.1C14.38 27.43 15.65 27.59 17.04 27.59Z" fill="url(#paint_linear_1_73_0)" fill-opacity="1.000000" fill-rule="nonzero"/>
		<path d="M28 26.59C28 27.11 27.79 27.59 27.38 28C26.96 28.42 26.39 28.75 25.66 28.99C24.92 29.22 24.08 29.34 23.16 29.34C22.26 29.34 21.44 29.22 20.7 28.99C19.97 28.75 19.39 28.42 18.97 28C18.55 27.59 18.35 27.11 18.35 26.59L18.35 22.19C18.35 21.66 18.55 21.19 18.97 20.77C19.39 20.36 19.97 20.03 20.7 19.79C21.44 19.55 22.26 19.43 23.16 19.43C24.08 19.43 24.92 19.55 25.66 19.79C26.39 20.03 26.96 20.36 27.38 20.77C27.79 21.19 28 21.66 28 22.19L28 26.59ZM23.16 21.15C22.54 21.15 22 21.21 21.52 21.34C21.04 21.47 20.67 21.61 20.42 21.78C20.16 21.94 20.04 22.08 20.04 22.19C20.04 22.28 20.17 22.41 20.43 22.57C20.7 22.75 21.06 22.9 21.53 23.03C22 23.16 22.54 23.22 23.16 23.22C23.8 23.22 24.35 23.16 24.82 23.03C25.29 22.9 25.66 22.75 25.91 22.57C26.16 22.41 26.29 22.28 26.29 22.19C26.29 22.08 26.16 21.94 25.91 21.78C25.66 21.61 25.29 21.47 24.82 21.34C24.35 21.21 23.8 21.15 23.16 21.15ZM23.16 27.65C23.8 27.65 24.35 27.59 24.82 27.46C25.29 27.33 25.66 27.18 25.91 27.02C26.16 26.84 26.29 26.71 26.29 26.62L26.29 24.31C25.4 24.72 24.36 24.93 23.16 24.93C22 24.93 20.96 24.72 20.04 24.31L20.04 26.62C20.04 26.71 20.17 26.84 20.43 27.02C20.7 27.18 21.06 27.33 21.53 27.46C22 27.59 22.54 27.65 23.16 27.65Z" fill="url(#paint_linear_1_74_0)" fill-opacity="1.000000" fill-rule="nonzero"/>
	</g>
</svg>
