<svg width="16.000000" height="16.000000" viewBox="0 0 16 16" fill="none" xmlns="http://www.w3.org/2000/svg" xmlns:xlink="http://www.w3.org/1999/xlink">
	<desc>
			Created with Pixso.
	</desc>
	<defs>
		<clipPath id="clip39_11226">
			<rect width="16.000000" height="16.000000" fill="white" fill-opacity="0"/>
		</clipPath>
	</defs>
	<g clip-path="url(#clip39_11226)">
		<path d="M0 7.99C0 6.74 -0.01 5.49 0 4.24C-0.01 3.63 0.07 3.03 0.22 2.45C0.54 1.21 1.35 0.47 2.59 0.18C3.21 0.05 3.85 -0.02 4.48 0C6.88 0 9.27 0 11.68 0C12.28 -0.01 12.88 0.06 13.47 0.2C14.75 0.51 15.52 1.32 15.81 2.6C15.94 3.2 16 3.81 15.99 4.43C15.99 6.85 15.99 9.27 15.99 11.69C16 12.29 15.93 12.89 15.79 13.48C15.48 14.75 14.66 15.51 13.39 15.81C12.77 15.94 12.14 16 11.5 15.99C9.11 15.99 6.72 15.99 4.34 15.99C3.73 16 3.12 15.93 2.53 15.79C1.25 15.48 0.47 14.67 0.18 13.39C0.04 12.74 0 12.09 0 11.43C0 10.28 0 9.14 0 7.99Z" fill="#FFFFFF" fill-opacity="0" fill-rule="evenodd"/>
		<circle cx="8.000000" cy="8.000000" r="8.000000" fill="#FFFFFF" fill-opacity="0"/>
		<path d="M6.79 0.66C6.33 0.66 5.92 0.98 5.81 1.44L5.52 2.75L4.69 3.23L3.41 2.83C2.96 2.69 2.48 2.88 2.25 3.29L1.04 5.37C0.81 5.77 0.89 6.29 1.23 6.6L2.22 7.52L2.22 8.47L1.23 9.39C0.89 9.7 0.81 10.22 1.04 10.62L2.25 12.7C2.48 13.11 2.96 13.3 3.41 13.16L4.7 12.76L5.52 13.23L5.81 14.55C5.92 15.01 6.33 15.33 6.79 15.33L9.2 15.33C9.66 15.33 10.07 15.01 10.17 14.55L10.47 13.23L11.29 12.76L12.58 13.16C13.03 13.3 13.51 13.11 13.74 12.7L14.95 10.62C15.18 10.22 15.1 9.7 14.76 9.39L13.77 8.47L13.77 7.52L14.76 6.6C15.1 6.29 15.18 5.77 14.95 5.37L13.74 3.29C13.51 2.88 13.03 2.69 12.58 2.83L11.29 3.23L10.47 2.76L10.17 1.44C10.07 0.98 9.66 0.66 9.2 0.66L6.79 0.66Z" fill="#000000" fill-opacity="0" fill-rule="nonzero"/>
		<path d="M5.81 1.44L5.52 2.75L4.69 3.23L3.41 2.83C2.96 2.69 2.48 2.88 2.25 3.29L1.04 5.37C0.81 5.77 0.89 6.29 1.23 6.6L2.22 7.52L2.22 8.47L1.23 9.39C0.89 9.7 0.81 10.22 1.04 10.62L2.25 12.7C2.48 13.11 2.96 13.3 3.41 13.16L4.7 12.76L5.52 13.23L5.81 14.55C5.92 15.01 6.33 15.33 6.79 15.33L9.2 15.33C9.66 15.33 10.07 15.01 10.17 14.55L10.47 13.23L11.29 12.76L12.58 13.16C13.03 13.3 13.51 13.11 13.74 12.7L14.95 10.62C15.18 10.22 15.1 9.7 14.76 9.39L13.77 8.47L13.77 7.52L14.76 6.6C15.1 6.29 15.18 5.77 14.95 5.37L13.74 3.29C13.51 2.88 13.03 2.69 12.58 2.83L11.29 3.23L10.47 2.76L10.17 1.44C10.07 0.98 9.66 0.66 9.2 0.66L6.79 0.66C6.33 0.66 5.92 0.98 5.81 1.44Z" stroke="#191919" stroke-opacity="1.000000" stroke-width="1.200000" stroke-linejoin="round"/>
		<ellipse cx="8.000000" cy="8.000000" rx="3.000000" ry="2.999999" fill="#000000" fill-opacity="0"/>
		<ellipse cx="8.000000" cy="8.000000" rx="3.000000" ry="2.999999" stroke="#191919" stroke-opacity="1.000000" stroke-width="1.200000"/>
		<path d="M6.77 0L9.22 0C9.63 0 9.95 0.09 10.21 0.29C10.46 0.49 10.62 0.79 10.72 1.18L10.97 2.31L11.43 2.57L12.53 2.23C12.92 2.11 13.26 2.11 13.56 2.23C13.86 2.34 14.11 2.58 14.31 2.93L15.54 5.06C15.74 5.41 15.82 5.75 15.77 6.06C15.72 6.37 15.55 6.67 15.25 6.94L14.4 7.73L14.4 8.25L15.25 9.04C15.55 9.32 15.72 9.62 15.77 9.93C15.82 10.25 15.74 10.58 15.54 10.93L14.31 13.06C14.11 13.41 13.86 13.65 13.56 13.76C13.26 13.88 12.92 13.88 12.53 13.76L11.42 13.41L10.97 13.67L10.72 14.8C10.62 15.2 10.46 15.5 10.21 15.7C9.95 15.9 9.63 16 9.22 16L6.77 16C6.36 16 6.03 15.9 5.78 15.7C5.53 15.5 5.36 15.2 5.27 14.8L5.02 13.67L4.57 13.41L3.46 13.76C3.07 13.88 2.72 13.88 2.43 13.76C2.13 13.65 1.88 13.41 1.68 13.06L0.45 10.93C0.25 10.58 0.17 10.25 0.22 9.93C0.27 9.62 0.44 9.32 0.74 9.04L1.59 8.26L1.59 7.73L0.74 6.94C0.44 6.67 0.27 6.37 0.22 6.06C0.17 5.75 0.25 5.41 0.45 5.06L1.68 2.93C1.88 2.58 2.13 2.34 2.43 2.23C2.72 2.11 3.07 2.11 3.46 2.23L4.56 2.57L5.02 2.31L5.27 1.18C5.36 0.79 5.53 0.49 5.78 0.29C6.03 0.09 6.36 0 6.77 0ZM8 4.5C6.06 4.5 4.5 6.06 4.5 8C4.5 9.93 6.06 11.5 8 11.5C9.93 11.5 11.5 9.93 11.5 8C11.5 6.06 9.93 4.5 8 4.5Z" fill="#FFFFFF" fill-opacity="0" fill-rule="evenodd"/>
		<path d="M8 5.5C6.61 5.5 5.5 6.61 5.5 8C5.5 9.38 6.61 10.5 8 10.5C9.37 10.5 10.5 9.38 10.5 8C10.5 6.61 9.37 5.5 8 5.5Z" fill="#FFFFFF" fill-opacity="0" fill-rule="evenodd"/>
	</g>
</svg>
