<svg width="24.000000" height="24.000000" viewBox="0 0 24 24" fill="none" xmlns="http://www.w3.org/2000/svg" xmlns:xlink="http://www.w3.org/1999/xlink">
	<desc>
			Created with Pixso.
	</desc>
	<defs>
		<clipPath id="clip12_691">
			<rect width="24.000000" height="24.000000" fill="white" fill-opacity="0"/>
		</clipPath>
	</defs>
	<g clip-path="url(#clip12_691)">
		<g opacity="0.000000">
			<rect width="24.000000" height="24.000000" fill="#000000" fill-opacity="1.000000"/>
		</g>
		<path d="M2.5 4.25C2.15274 4.25 1.83139 4.31189 1.53598 4.43567C1.24158 4.55896 0.972931 4.74377 0.730011 4.98999C0.472931 5.25415 0.283752 5.54431 0.162476 5.86047C0.0541687 6.14282 0 6.44604 0 6.77002L0 17.26C0 17.6006 0.0598755 17.9166 0.179626 18.2081C0.3013 18.5042 0.484741 18.7748 0.730011 19.02C0.967224 19.2572 1.229 19.4366 1.51532 19.5582C1.81641 19.686 2.14462 19.75 2.5 19.75L15 19.75C15.6867 19.75 16.2733 19.5067 16.76 19.02C17.0143 18.7692 17.203 18.4918 17.3262 18.1879C17.4421 17.9021 17.5 17.5928 17.5 17.26L17.5 6.77002C17.5 6.45361 17.4476 6.1571 17.3429 5.88037C17.2204 5.5564 17.0261 5.25964 16.76 4.98999C16.2733 4.4967 15.6867 4.25 15 4.25L2.5 4.25ZM18.82 8.30005L18.82 15.7L21.82 17.23C21.9082 17.2783 21.9995 17.3164 22.0937 17.3441C22.2203 17.3813 22.3524 17.4 22.49 17.4C22.6636 17.4 22.8277 17.373 22.9825 17.319C23.1844 17.2487 23.3702 17.1323 23.54 16.97C23.8467 16.6833 24 16.33 24 15.91L24 8.08997C24 7.87964 23.9615 7.68604 23.8846 7.50916C23.808 7.33276 23.6931 7.1731 23.54 7.03003C23.3702 6.86768 23.1844 6.75134 22.9825 6.68103C22.8277 6.62695 22.6636 6.59998 22.49 6.59998C22.3524 6.59998 22.2203 6.61865 22.0937 6.65588C21.9995 6.68359 21.9082 6.72168 21.82 6.77002L18.82 8.30005ZM7.8429 9.53906C7.87283 9.55029 7.90189 9.56396 7.92999 9.57996L11.22 11.47C11.4267 11.5699 11.53 11.7467 11.53 12C11.53 12.1442 11.4965 12.2657 11.4296 12.3645C11.3789 12.4393 11.309 12.5012 11.22 12.55L7.92999 14.42C7.90189 14.436 7.87283 14.4497 7.8429 14.4609C7.77347 14.4869 7.69919 14.5 7.62 14.5C7.45999 14.5 7.31668 14.4399 7.19 14.3199C7.06332 14.2 7 14.05 7 13.87L7 10.13C7 10.031 7.01913 9.94116 7.05743 9.86035C7.08878 9.79419 7.13297 9.73401 7.19 9.68005C7.31668 9.56006 7.45999 9.5 7.62 9.5C7.69919 9.5 7.77347 9.51306 7.8429 9.53906Z" clip-rule="evenodd" fill="#DC6450" fill-opacity="1.000000" fill-rule="evenodd"/>
	</g>
</svg>
