<svg width="24.000000" height="24.000000" viewBox="0 0 24 24" fill="none" xmlns="http://www.w3.org/2000/svg" xmlns:xlink="http://www.w3.org/1999/xlink">
	<desc>
			Created with Pixso.
	</desc>
	<defs>
		<clipPath id="clip35_3126">
			<rect width="24.000000" height="24.000000" fill="white" fill-opacity="0"/>
		</clipPath>
	</defs>
	<g clip-path="url(#clip35_3126)">
		<g opacity="0.000000">
			<rect width="24.000000" height="24.000000" fill="#000000" fill-opacity="1.000000"/>
		</g>
		<path d="M23.14 6.82007C23.4067 6.97998 23.6166 7.18677 23.77 7.43994C23.8063 7.5 23.8383 7.56201 23.8661 7.62573C23.9553 7.83105 24 8.05591 24 8.30005L24 15.53C24 15.7405 23.9654 15.9377 23.8962 16.1223C23.8602 16.2185 23.8148 16.311 23.76 16.3999C23.6 16.6667 23.3834 16.8867 23.11 17.0601C23.0649 17.0862 23.0187 17.1099 22.9715 17.1313C22.7535 17.2305 22.513 17.28 22.25 17.28C21.93 17.28 21.6334 17.2 21.36 17.04L18.5 15.3601L18.5 16.9399C18.5 17.3652 18.4211 17.7556 18.2632 18.1108C18.1291 18.4126 17.938 18.689 17.69 18.9399C17.4308 19.196 17.1455 19.3914 16.8339 19.5259C16.4882 19.6753 16.1102 19.75 15.7 19.75L2.81 19.75C2.37689 19.75 1.98114 19.6682 1.6228 19.5044C1.33032 19.3708 1.06268 19.1826 0.820007 18.9399C0.562866 18.6829 0.366272 18.3992 0.230042 18.0891C0.0766602 17.7397 0 17.3567 0 16.9399L0 7.03003C0 6.65771 0.0645142 6.31128 0.193481 5.99072C0.330017 5.65137 0.538879 5.34106 0.820007 5.06006C1.06268 4.81738 1.33032 4.62915 1.6228 4.49561C1.98114 4.33179 2.37689 4.25 2.81 4.25L15.7 4.25C16.1102 4.25 16.4882 4.32471 16.8339 4.47412L16.8339 4.47412C17.1455 4.60864 17.4308 4.80396 17.69 5.06006C17.9621 5.33545 18.1656 5.63892 18.3007 5.97021C18.4335 6.29639 18.5 6.64966 18.5 7.03003L18.5 8.3501L21.41 6.79004C21.6967 6.62988 21.9833 6.55005 22.27 6.55005C22.5767 6.55005 22.8666 6.63989 23.14 6.82007ZM16.99 7.03003C16.99 6.8457 16.9564 6.67578 16.8892 6.52051C16.8277 6.37817 16.7379 6.24805 16.62 6.12988C16.5176 6.02759 16.4048 5.94653 16.2817 5.88647C16.1083 5.80225 15.9144 5.76001 15.7 5.76001L2.81 5.76001C2.60321 5.76001 2.41449 5.79932 2.24371 5.87769C2.11169 5.93823 1.99048 6.02246 1.88 6.12988C1.76208 6.24805 1.6723 6.37817 1.61078 6.52051C1.54358 6.67578 1.51001 6.8457 1.51001 7.03003L1.51001 16.9399C1.51001 17.0928 1.5343 17.2366 1.58282 17.3718C1.64661 17.5496 1.75238 17.7124 1.90002 17.8601C2.03265 17.9927 2.17902 18.0906 2.33911 18.1538C2.48474 18.2112 2.64172 18.24 2.81 18.24L15.7 18.24C15.9053 18.24 16.0918 18.2002 16.2595 18.1208C16.3913 18.0583 16.5115 17.9714 16.62 17.8601C16.7497 17.7234 16.8453 17.5737 16.9069 17.4111C16.9623 17.2646 16.99 17.1074 16.99 16.9399L16.99 7.03003ZM22.51 8.33008C22.51 8.21655 22.4633 8.14331 22.37 8.11011C22.29 8.06323 22.21 8.06323 22.13 8.11011L18.5 10.0801L18.5 13.6299L22.13 15.77C22.19 15.8167 22.27 15.8167 22.37 15.77C22.41 15.7366 22.51 15.6101 22.51 15.53L22.51 8.33008ZM7.8429 9.53906C7.87286 9.55029 7.90186 9.56396 7.92999 9.58008L11.22 11.47C11.4266 11.5701 11.53 11.7466 11.53 12C11.53 12.1443 11.4965 12.2656 11.4296 12.3645C11.3789 12.4395 11.309 12.5012 11.22 12.55L7.92999 14.4199C7.90186 14.436 7.87286 14.4497 7.8429 14.4609C7.7735 14.4871 7.69916 14.5 7.62 14.5C7.46002 14.5 7.31665 14.4399 7.19 14.3201C7.06335 14.2 7 14.05 7 13.8701L7 10.1299C7 10.031 7.01917 9.94116 7.05743 9.86035C7.08881 9.79419 7.133 9.73413 7.19 9.67993C7.31665 9.56006 7.46002 9.5 7.62 9.5C7.69916 9.5 7.7735 9.51294 7.8429 9.53906Z" clip-rule="evenodd" fill="#000000" fill-opacity="0.600000" fill-rule="evenodd"/>
	</g>
</svg>
