<svg width="24.000000" height="24.000000" viewBox="0 0 24 24" fill="none" xmlns="http://www.w3.org/2000/svg" xmlns:xlink="http://www.w3.org/1999/xlink">
	<desc>
			Created with Pixso.
	</desc>
	<defs>
		<clipPath id="clip35_3044">
			<rect width="24.000000" height="24.000000" fill="white" fill-opacity="0"/>
		</clipPath>
	</defs>
	<g clip-path="url(#clip35_3044)">
		<g opacity="0.000000">
			<rect width="24.000000" height="24.000000" fill="#000000" fill-opacity="1.000000"/>
		</g>
		<path d="M22.22 13.94C22.22 14.9 22.01 15.81 21.59 16.69C21.16 17.56 20.56 18.32 19.78 18.96C19.71 18.99 19.7 19.12 19.74 19.34C19.78 19.56 19.92 19.93 20.16 20.45L20.2 20.62C20.25 20.71 20.28 20.8 20.28 20.9C20.28 21.06 20.22 21.22 20.11 21.38C19.96 21.56 19.78 21.65 19.54 21.65L19.37 21.65C18.85 21.53 18.41 21.4 18.04 21.26C17.68 21.12 17.3 20.94 16.92 20.74C16.63 20.59 16.47 20.52 16.44 20.52C15.88 20.64 15.29 20.71 14.69 20.71C13.57 20.71 12.51 20.5 11.51 20.08C10.51 19.65 9.65 19.07 8.92 18.34C9.05 18.35 9.21 18.36 9.4 18.38C9.58 18.4 9.79 18.41 10.06 18.41C10.32 18.41 10.75 18.37 11.33 18.31C12.35 18.9 13.46 19.2 14.66 19.2C15.08 19.2 15.58 19.14 16.18 19.03C16.24 19.01 16.32 19.01 16.44 19.01C16.61 19.01 16.78 19.04 16.94 19.1C17.1 19.16 17.31 19.26 17.59 19.39C17.65 19.42 17.75 19.47 17.87 19.54C18 19.62 18.13 19.68 18.26 19.73C18.21 19.5 18.19 19.29 18.19 19.1C18.19 18.51 18.4 18.06 18.82 17.76C19.42 17.26 19.89 16.69 20.23 16.03C20.57 15.37 20.74 14.68 20.74 13.94C20.74 12.79 20.33 11.74 19.51 10.8C19.57 10.35 19.61 10 19.61 9.73C19.61 9.4 19.58 9.08 19.54 8.78C20.38 9.42 21.04 10.19 21.52 11.09C21.98 11.98 22.22 12.93 22.22 13.94ZM4.67 18.14C4.44 18.14 4.24 18.05 4.09 17.88C3.99 17.7 3.94 17.54 3.94 17.4C3.94 17.3 3.96 17.21 4.01 17.11L4.08 16.92C4.4 16.21 4.56 15.71 4.56 15.43C4.56 15.33 4.52 15.25 4.46 15.19C3.59 14.49 2.93 13.66 2.46 12.71C1.98 11.75 1.75 10.76 1.75 9.72C1.75 8.39 2.12 7.16 2.87 6.04C3.6 4.9 4.61 4.01 5.89 3.35C7.16 2.68 8.54 2.35 10.03 2.35C11.51 2.35 12.89 2.68 14.16 3.35C15.42 4.01 16.43 4.9 17.17 6.04C17.91 7.16 18.29 8.39 18.29 9.72C18.29 11.06 17.91 12.3 17.17 13.43C16.43 14.55 15.42 15.45 14.16 16.12C12.89 16.78 11.51 17.11 10.03 17.11C9.33 17.11 8.66 17.03 8.03 16.87L7.53 17.14C7.03 17.38 6.6 17.58 6.22 17.74C5.84 17.9 5.39 18.02 4.84 18.12L4.67 18.14ZM10.03 3.86C8.81 3.86 7.69 4.12 6.65 4.66C5.6 5.18 4.78 5.89 4.17 6.79C3.56 7.69 3.26 8.66 3.26 9.72C3.26 10.53 3.44 11.31 3.82 12.07C4.18 12.82 4.71 13.47 5.4 14.02C5.83 14.35 6.04 14.83 6.04 15.46C6.04 15.74 6.01 16.01 5.95 16.25C6.25 16.12 6.55 15.98 6.84 15.82C7.33 15.54 7.73 15.41 8.03 15.41C8.18 15.41 8.28 15.41 8.34 15.43C8.98 15.54 9.54 15.6 10.03 15.6C11.25 15.6 12.38 15.33 13.42 14.81C14.46 14.28 15.28 13.56 15.89 12.66C16.49 11.75 16.79 10.77 16.79 9.72C16.79 8.66 16.49 7.69 15.89 6.79C15.28 5.89 14.46 5.18 13.42 4.66C12.38 4.12 11.25 3.86 10.03 3.86Z" fill="#000000" fill-opacity="0.600000" fill-rule="nonzero"/>
	</g>
</svg>
