<svg width="24.000000" height="24.000000" viewBox="0 0 24 24" fill="none" xmlns="http://www.w3.org/2000/svg" xmlns:xlink="http://www.w3.org/1999/xlink">
	<desc>
			Created with Pixso.
	</desc>
	<defs>
		<clipPath id="clip35_3064">
			<rect width="24.000000" height="24.000000" fill="white" fill-opacity="0"/>
		</clipPath>
	</defs>
	<g clip-path="url(#clip35_3064)">
		<g opacity="0.000000">
			<rect width="24.000000" height="24.000000" fill="#000000" fill-opacity="1.000000"/>
		</g>
		<path d="M6.17 22.27C6.41 22.27 6.62 22.2 6.82 22.07L11.42 19.09C11.64 18.95 11.76 18.75 11.76 18.48C11.76 18.3 11.72 18.16 11.64 18.07C11.49 17.84 11.27 17.74 10.99 17.74C10.86 17.74 10.73 17.78 10.61 17.85L6.65 20.39L7.78 15.83C7.82 15.61 7.85 15.4 7.85 15.22C7.85 14.8 7.76 14.4 7.58 14.04C7.4 13.67 7.16 13.35 6.86 13.09L3.29 10.12L7.94 9.77C8.45 9.75 8.91 9.58 9.32 9.29C9.73 8.98 10.04 8.58 10.25 8.1L12.07 3.71L13.9 8.1C14.08 8.58 14.39 8.98 14.82 9.29C15.24 9.58 15.73 9.75 16.27 9.79L21.91 9.79C22.11 9.79 22.29 9.71 22.44 9.57C22.58 9.43 22.66 9.25 22.66 9.05C22.66 8.84 22.58 8.66 22.44 8.51C22.29 8.35 22.11 8.28 21.91 8.28L16.32 8.28C16.09 8.26 15.89 8.19 15.71 8.06C15.52 7.93 15.38 7.76 15.29 7.54L13.18 2.44C13.08 2.22 12.93 2.04 12.73 1.9C12.53 1.77 12.31 1.69 12.07 1.69C11.83 1.69 11.61 1.77 11.41 1.9C11.21 2.04 11.06 2.22 10.97 2.44L8.88 7.54C8.78 7.76 8.64 7.93 8.46 8.06C8.27 8.19 8.07 8.26 7.85 8.28L2.42 8.68C2.18 8.7 1.97 8.78 1.79 8.93C1.6 9.09 1.47 9.28 1.39 9.5C1.35 9.57 1.34 9.69 1.34 9.85C1.34 10.23 1.47 10.54 1.75 10.78L5.93 14.26C6.21 14.5 6.36 14.82 6.36 15.22C6.36 15.32 6.35 15.41 6.34 15.48L5.02 20.81C5 20.86 4.99 20.96 4.99 21.09C4.99 21.51 5.15 21.83 5.47 22.06C5.69 22.2 5.93 22.27 6.17 22.27ZM21.91 14.39C22.11 14.39 22.29 14.32 22.44 14.17C22.58 14.04 22.66 13.86 22.66 13.65C22.66 13.44 22.58 13.26 22.44 13.11C22.29 12.96 22.11 12.88 21.91 12.88L16.06 12.88C15.84 12.88 15.67 12.96 15.53 13.11C15.38 13.26 15.31 13.44 15.31 13.65C15.31 13.86 15.38 14.04 15.53 14.17C15.67 14.32 15.84 14.39 16.06 14.39L21.91 14.39ZM21.91 19.03C22.11 19.03 22.29 18.95 22.44 18.79C22.58 18.65 22.66 18.47 22.66 18.26C22.66 18.05 22.58 17.87 22.44 17.74C22.29 17.59 22.11 17.52 21.91 17.52L16.06 17.52C15.84 17.52 15.67 17.59 15.53 17.74C15.38 17.87 15.31 18.05 15.31 18.26C15.31 18.47 15.38 18.65 15.53 18.79C15.67 18.95 15.84 19.03 16.06 19.03L21.91 19.03Z" fill="#000000" fill-opacity="0.600000" fill-rule="nonzero"/>
	</g>
</svg>
