<svg width="18.000000" height="21.979980" viewBox="0 0 18 21.98" fill="none" xmlns="http://www.w3.org/2000/svg" xmlns:xlink="http://www.w3.org/1999/xlink">
	<desc>
			Created with Pixso.
	</desc>
	<defs/>
	<path d="M3 0C2.16 0 1.46 0.29 0.88 0.87C0.29 1.45 0 2.16 0 3L0 18.98C0 19.81 0.29 20.52 0.88 21.11C1.46 21.68 2.16 21.98 3 21.98L15 21.98C15.83 21.98 16.54 21.68 17.12 21.11C17.7 20.52 18 19.81 18 18.98L18 3C18 2.16 17.7 1.45 17.12 0.87C16.54 0.29 15.83 0 15 0L3 0ZM16.51 18.98C16.51 19.39 16.36 19.75 16.07 20.04C15.77 20.34 15.41 20.49 15 20.49L3 20.49C2.58 20.49 2.23 20.34 1.94 20.04C1.65 19.75 1.51 19.39 1.51 18.98L1.51 3C1.51 2.58 1.65 2.22 1.94 1.92C2.23 1.63 2.58 1.48 3 1.48L15 1.48C15.41 1.48 15.77 1.63 16.07 1.92C16.36 2.22 16.51 2.58 16.51 3L16.51 18.98ZM4.51 5.25C4.3 5.25 4.12 5.32 3.97 5.46C3.84 5.61 3.77 5.79 3.77 6C3.77 6.2 3.84 6.38 3.97 6.53C4.12 6.66 4.3 6.73 4.51 6.73L13.46 6.73C13.67 6.73 13.85 6.66 13.99 6.53C14.13 6.38 14.21 6.2 14.21 6C14.21 5.79 14.13 5.61 13.99 5.46C13.85 5.32 13.67 5.25 13.46 5.25L4.51 5.25ZM4.51 10.27C4.3 10.27 4.12 10.34 3.97 10.49C3.84 10.62 3.77 10.8 3.77 11.01C3.77 11.22 3.84 11.39 3.97 11.54C4.12 11.68 4.3 11.76 4.51 11.76L13.46 11.76C13.67 11.76 13.85 11.68 13.99 11.54C14.13 11.39 14.21 11.22 14.21 11.01C14.21 10.8 14.13 10.62 13.99 10.49C13.85 10.34 13.67 10.27 13.46 10.27L4.51 10.27ZM4.51 15.24C4.3 15.24 4.12 15.31 3.97 15.47C3.84 15.61 3.77 15.79 3.77 16.01C3.77 16.21 3.84 16.38 3.97 16.53C4.12 16.67 4.3 16.75 4.51 16.75L8.97 16.75C9.18 16.75 9.35 16.67 9.5 16.53C9.64 16.38 9.71 16.21 9.71 16.01C9.71 15.79 9.65 15.61 9.52 15.47C9.38 15.31 9.2 15.24 9 15.24L4.51 15.24Z" fill="#000000" fill-opacity="0.600000" fill-rule="nonzero"/>
</svg>
