<svg width="24.000000" height="24.000000" viewBox="0 0 24 24" fill="none" xmlns="http://www.w3.org/2000/svg" xmlns:xlink="http://www.w3.org/1999/xlink">
	<desc>
			Created with Pixso.
	</desc>
	<defs>
		<clipPath id="clip35_3024">
			<rect width="24.000000" height="24.000000" fill="white" fill-opacity="0"/>
		</clipPath>
	</defs>
	<g clip-path="url(#clip35_3024)">
		<g opacity="0.000000">
			<rect width="24.000000" height="24.000000" fill="#000000" fill-opacity="1.000000"/>
		</g>
		<path d="M10.93 1C10.6 1.01 10.29 1.11 10 1.31C9.72 1.51 9.5 1.76 9.35 2.07L8.53 4.06L7.66 4.57L5.52 4.3C5.18 4.26 4.84 4.33 4.52 4.49C4.2 4.65 3.95 4.89 3.78 5.2L2.24 7.84C2.09 8.11 2 8.46 2 8.75C2 9.14 2.12 9.5 2.36 9.83L3.65 11.56L3.65 12.55L2.36 14.28C2.12 14.6 2 14.97 2 15.37C2 15.68 2.08 15.98 2.24 16.27L3.78 18.91C3.97 19.21 4.23 19.49 4.55 19.64C4.86 19.79 5.19 19.84 5.52 19.8L7.66 19.53L8.53 20.04L9.35 22.01C9.49 22.35 9.71 22.62 10.01 22.82C10.31 23.01 10.64 23.11 11.01 23.11L14.12 23.11C14.46 23.1 14.78 22.99 15.07 22.79C15.35 22.6 15.55 22.34 15.69 22.01L16.54 20.04L17.4 19.53L19.53 19.8C19.89 19.84 20.22 19.78 20.54 19.62C20.87 19.46 21.12 19.22 21.29 18.91L22.8 16.27L22.84 16.18C22.98 15.93 23.05 15.65 23.05 15.35C23.05 14.95 22.93 14.59 22.7 14.28L21.42 12.55L21.42 11.56L22.7 9.83C22.93 9.49 23.05 9.13 23.05 8.75C23.05 8.43 22.96 8.12 22.8 7.84L21.29 5.2C21.11 4.9 20.82 4.62 20.51 4.46C20.2 4.32 19.87 4.26 19.53 4.3L17.4 4.57L16.54 4.06L15.69 2.07C15.54 1.75 15.32 1.49 15.02 1.29C14.73 1.09 14.4 1 14.06 1L10.93 1ZM3.57 15.5C3.55 15.44 3.53 15.4 3.53 15.37C3.53 15.3 3.55 15.25 3.59 15.21L4.92 13.4C5.1 13.16 5.19 12.9 5.19 12.63L5.19 11.45C5.19 11.18 5.1 10.93 4.92 10.68L3.59 8.9C3.52 8.8 3.52 8.71 3.57 8.61L5.09 5.97C5.15 5.86 5.24 5.82 5.35 5.85L7.56 6.11C7.86 6.14 8.12 6.09 8.35 5.95L9.35 5.36C9.61 5.21 9.79 5.01 9.9 4.75L10.76 2.68C10.82 2.58 10.9 2.54 11.01 2.54L14.06 2.54C14.16 2.54 14.24 2.58 14.28 2.68L15.17 4.75C15.27 4.99 15.45 5.2 15.69 5.36L16.71 5.95C16.93 6.09 17.19 6.14 17.5 6.11L19.72 5.85C19.81 5.85 19.92 5.89 19.96 5.97L21.49 8.61C21.53 8.72 21.53 8.81 21.47 8.9L20.14 10.68C19.97 10.9 19.88 11.15 19.88 11.45L19.88 12.63C19.88 12.93 19.97 13.19 20.14 13.4L21.47 15.21C21.53 15.29 21.53 15.39 21.49 15.5L19.96 18.14C19.93 18.18 19.9 18.21 19.86 18.24C19.82 18.26 19.78 18.27 19.72 18.26L17.5 17.99C17.23 17.95 16.97 18.01 16.71 18.15L15.69 18.75C15.43 18.91 15.26 19.11 15.17 19.36L14.28 21.4C14.24 21.51 14.16 21.56 14.06 21.56L11.01 21.56C10.89 21.56 10.81 21.51 10.76 21.4L9.9 19.36C9.8 19.11 9.62 18.91 9.35 18.75L8.35 18.15C8.09 18.01 7.83 17.95 7.56 17.99L5.35 18.26C5.28 18.26 5.16 18.22 5.09 18.14L3.57 15.5ZM7.93 12.05C7.93 12.88 8.13 13.65 8.54 14.36C8.95 15.07 9.5 15.64 10.21 16.06C10.92 16.47 11.69 16.67 12.52 16.67C13.35 16.67 14.12 16.47 14.83 16.06C15.54 15.64 16.09 15.07 16.5 14.36C16.91 13.65 17.12 12.88 17.12 12.05C17.12 11.21 16.91 10.43 16.5 9.72C16.09 9.01 15.54 8.45 14.83 8.04C14.12 7.62 13.35 7.41 12.52 7.41C11.69 7.41 10.92 7.62 10.21 8.04C9.5 8.45 8.95 9.01 8.54 9.72C8.13 10.43 7.93 11.21 7.93 12.05ZM9.45 12.05C9.45 11.49 9.59 10.97 9.87 10.5C10.15 10.02 10.52 9.65 10.99 9.37C11.46 9.1 11.97 8.96 12.52 8.96C13.07 8.96 13.59 9.1 14.06 9.37C14.53 9.65 14.9 10.02 15.17 10.5C15.45 10.97 15.59 11.49 15.59 12.05C15.59 12.6 15.45 13.11 15.17 13.59C14.9 14.06 14.53 14.43 14.06 14.71C13.59 14.99 13.07 15.13 12.52 15.13C11.97 15.13 11.46 14.99 10.99 14.71C10.52 14.43 10.15 14.06 9.87 13.59C9.59 13.11 9.45 12.6 9.45 12.05Z" fill="#000000" fill-opacity="0.600000" fill-rule="nonzero"/>
	</g>
</svg>
