<svg width="16.000000" height="16.000000" viewBox="0 0 16 16" fill="none" xmlns="http://www.w3.org/2000/svg" xmlns:xlink="http://www.w3.org/1999/xlink">
	<desc>
			Created with Pixso.
	</desc>
	<defs>
		<clipPath id="clip39_11300">
			<rect id="2" width="16.000000" height="16.000000" fill="white" fill-opacity="0"/>
		</clipPath>
	</defs>
	<g clip-path="url(#clip39_11300)">
		<path id="path1" d="M0.5 7.99C0.5 6.82 0.49 5.65 0.5 4.47C0.49 3.91 0.56 3.34 0.7 2.79C1.01 1.63 1.77 0.94 2.93 0.67C3.51 0.55 4.11 0.49 4.7 0.5C6.95 0.5 9.2 0.5 11.45 0.5C12.01 0.49 12.58 0.56 13.13 0.69C14.33 0.98 15.05 1.74 15.32 2.93C15.44 3.5 15.5 4.07 15.49 4.65C15.49 6.92 15.49 9.19 15.49 11.46C15.5 12.03 15.43 12.59 15.3 13.13C15.01 14.33 14.25 15.04 13.05 15.32C12.47 15.44 11.88 15.5 11.28 15.49C9.04 15.49 6.81 15.49 4.57 15.49C4 15.5 3.43 15.43 2.87 15.3C1.67 15.01 0.95 14.25 0.67 13.05C0.53 12.44 0.5 11.83 0.5 11.21C0.5 10.14 0.5 9.06 0.5 7.99Z" fill="#FFFFFF" fill-opacity="0" fill-rule="nonzero"/>
		<path id="path1" d="M0.5 4.47C0.49 3.91 0.56 3.34 0.7 2.79C1.01 1.63 1.77 0.94 2.93 0.67C3.51 0.55 4.11 0.49 4.7 0.5C6.95 0.5 9.2 0.5 11.45 0.5C12.01 0.49 12.58 0.56 13.13 0.69C14.33 0.98 15.05 1.74 15.32 2.93C15.44 3.5 15.5 4.07 15.49 4.65C15.49 6.92 15.49 9.19 15.49 11.46C15.5 12.03 15.43 12.59 15.3 13.13C15.01 14.33 14.25 15.04 13.05 15.32C12.47 15.44 11.88 15.5 11.28 15.49C9.04 15.49 6.81 15.49 4.57 15.49C4 15.5 3.43 15.43 2.87 15.3C1.67 15.01 0.95 14.25 0.67 13.05C0.53 12.44 0.5 11.83 0.5 11.21C0.5 10.14 0.5 9.06 0.5 7.99C0.5 6.82 0.49 5.65 0.5 4.47Z" stroke="#FFFFFF" stroke-opacity="0" stroke-width="1.200000"/>
		<g opacity="0.200000">
			<path id="path2" d="M0.5 7.99C0.5 6.82 0.49 5.65 0.5 4.47C0.49 3.91 0.56 3.34 0.7 2.79C1.01 1.63 1.77 0.94 2.93 0.67C3.51 0.55 4.11 0.49 4.7 0.5C6.95 0.5 9.2 0.5 11.45 0.5C12.01 0.49 12.58 0.56 13.13 0.69C14.33 0.98 15.05 1.74 15.32 2.93C15.44 3.5 15.5 4.07 15.49 4.65C15.49 6.92 15.49 9.19 15.49 11.46C15.5 12.03 15.43 12.59 15.3 13.13C15.01 14.33 14.25 15.04 13.05 15.32C12.47 15.44 11.88 15.5 11.28 15.49C9.04 15.49 6.81 15.49 4.57 15.49C4 15.5 3.43 15.43 2.87 15.3C1.67 15.01 0.95 14.25 0.67 13.05C0.53 12.44 0.5 11.83 0.5 11.21C0.5 10.14 0.5 9.06 0.5 7.99Z" fill="#000000" fill-opacity="0" fill-rule="nonzero"/>
			<path id="path2" d="M0.5 4.47C0.49 3.91 0.56 3.34 0.7 2.79C1.01 1.63 1.77 0.94 2.93 0.67C3.51 0.55 4.11 0.49 4.7 0.5C6.95 0.5 9.2 0.5 11.45 0.5C12.01 0.49 12.58 0.56 13.13 0.69C14.33 0.98 15.05 1.74 15.32 2.93C15.44 3.5 15.5 4.07 15.49 4.65C15.49 6.92 15.49 9.19 15.49 11.46C15.5 12.03 15.43 12.59 15.3 13.13C15.01 14.33 14.25 15.04 13.05 15.32C12.47 15.44 11.88 15.5 11.28 15.49C9.04 15.49 6.81 15.49 4.57 15.49C4 15.5 3.43 15.43 2.87 15.3C1.67 15.01 0.95 14.25 0.67 13.05C0.53 12.44 0.5 11.83 0.5 11.21C0.5 10.14 0.5 9.06 0.5 7.99C0.5 6.82 0.49 5.65 0.5 4.47Z" stroke="#FFFFFF" stroke-opacity="0" stroke-width="1.200000"/>
		</g>
		<circle id="path3" cx="8.000000" cy="8.000000" r="8.000000" fill="#FFFFFF" fill-opacity="0"/>
		<circle id="path3" cx="8.000000" cy="8.000000" r="8.000000" stroke="#000000" stroke-opacity="0" stroke-width="1.200000"/>
		<path id="path4" d="M12.82 6.3L12.82 6.33C12.58 6.56 12.21 6.56 11.97 6.32C11.74 6.07 11.75 5.7 11.99 5.47L12.02 5.47L12.82 6.3ZM11.4 7.11L11.42 7.12C11.56 7.43 11.43 7.78 11.13 7.92C10.82 8.06 10.47 7.93 10.33 7.62L10.34 7.59L11.4 7.11Z" fill="#000000" fill-opacity="0" fill-rule="nonzero"/>
		<path id="path4" d="M12.4 5.9L14.03 4.33C14.29 4.07 14.71 4.08 14.97 4.35C15.12 4.5 15.18 4.71 15.15 4.92L13.95 11.83C13.87 12.31 13.45 12.66 12.97 12.66L2.85 12.66C2.36 12.66 1.94 12.3 1.86 11.81L0.82 5.02C0.76 4.65 1.01 4.31 1.38 4.26C1.59 4.22 1.81 4.3 1.96 4.46L4.73 7.37L7.2 1.98C7.35 1.65 7.75 1.5 8.08 1.66C8.23 1.72 8.34 1.84 8.41 1.98L10.88 7.37" stroke="#191919" stroke-opacity="1.000000" stroke-width="1.200000" stroke-linejoin="round" stroke-linecap="round"/>
		<line id="path5" x1="2.600098" y1="14.666687" x2="13.399902" y2="14.666687" stroke="#191919" stroke-opacity="1.000000" stroke-width="1.200000"/>
		<path id="path6" d="M14.03 4.33C14.29 4.07 14.71 4.08 14.97 4.35C15.12 4.5 15.18 4.71 15.15 4.92L13.95 11.83C13.87 12.31 13.45 12.66 12.97 12.66L2.85 12.66C2.36 12.66 1.94 12.3 1.86 11.81L0.82 5.02C0.76 4.65 1.01 4.31 1.38 4.26C1.59 4.22 1.81 4.3 1.96 4.46L4.73 7.37L7.2 1.98C7.35 1.65 7.75 1.5 8.08 1.66C8.23 1.72 8.34 1.84 8.41 1.98L10.88 7.37L14.03 4.33Z" fill="#FFFFFF" fill-opacity="0" fill-rule="evenodd"/>
		<path id="path6" d="M14.97 4.35C15.12 4.5 15.18 4.71 15.15 4.92L13.95 11.83C13.87 12.31 13.45 12.66 12.97 12.66L2.85 12.66C2.36 12.66 1.94 12.3 1.86 11.81L0.82 5.02C0.76 4.65 1.01 4.31 1.38 4.26C1.59 4.22 1.81 4.3 1.96 4.46L4.73 7.37L7.2 1.98C7.35 1.65 7.75 1.5 8.08 1.66C8.23 1.72 8.34 1.84 8.41 1.98L10.88 7.37L14.03 4.33C14.29 4.07 14.71 4.08 14.97 4.35Z" stroke="#FFFFFF" stroke-opacity="0" stroke-width="1.200000" stroke-linejoin="round"/>
		<path id="path7" d="M13.39 14.66C13.51 14.66 13.6 14.75 13.6 14.86C13.6 14.97 13.51 15.06 13.39 15.06L2.6 15.06C2.48 15.06 2.39 14.97 2.39 14.86C2.39 14.75 2.48 14.66 2.6 14.66L13.39 14.66Z" fill="#FFFFFF" fill-opacity="0" fill-rule="nonzero"/>
		<path id="path7" d="M13.6 14.86C13.6 14.97 13.51 15.06 13.39 15.06L2.6 15.06C2.48 15.06 2.39 14.97 2.39 14.86C2.39 14.75 2.48 14.66 2.6 14.66L13.39 14.66C13.51 14.66 13.6 14.75 13.6 14.86Z" stroke="#FFFFFF" stroke-opacity="0" stroke-width="1.200000" stroke-linejoin="round"/>
	</g>
</svg>
