<svg width="24.000000" height="24.000000" viewBox="0 0 24 24" fill="none" xmlns="http://www.w3.org/2000/svg" xmlns:xlink="http://www.w3.org/1999/xlink">
	<desc>
			Created with Pixso.
	</desc>
	<defs/>
	<rect width="24.000000" height="24.000000" fill="#FFFFFF" fill-opacity="0"/>
	<path d="M8.43 2.53C8.38 2.64 8.35 2.75 8.31 2.86L7.93 4.25L7.33 4.6L5.94 4.23C5.84 4.21 5.74 4.19 5.64 4.18C5.52 4.16 5.39 4.16 5.27 4.17C5.17 4.18 5.07 4.19 4.97 4.22C4.85 4.24 4.74 4.28 4.63 4.32C4.53 4.37 4.43 4.42 4.34 4.47C4.24 4.53 4.15 4.6 4.07 4.67C3.99 4.74 3.91 4.82 3.84 4.9C3.77 4.99 3.7 5.09 3.64 5.19L1.94 8.15C1.88 8.24 1.84 8.35 1.8 8.45C1.76 8.56 1.73 8.66 1.7 8.78C1.68 8.88 1.67 8.99 1.67 9.1C1.66 9.21 1.67 9.32 1.68 9.43C1.7 9.55 1.72 9.66 1.75 9.77C1.78 9.87 1.82 9.97 1.87 10.06C1.92 10.16 1.97 10.26 2.03 10.34C2.1 10.44 2.17 10.53 2.26 10.62L3.27 11.64L3.27 12.34L2.26 13.37C2.17 13.45 2.1 13.55 2.03 13.64C1.97 13.73 1.92 13.82 1.87 13.92C1.82 14.02 1.79 14.11 1.75 14.21C1.72 14.32 1.7 14.44 1.68 14.55C1.67 14.66 1.66 14.77 1.67 14.88C1.67 14.99 1.68 15.1 1.7 15.21C1.72 15.31 1.75 15.41 1.79 15.51C1.83 15.62 1.88 15.73 1.94 15.84L3.64 18.79C3.71 18.93 3.81 19.05 3.91 19.16C3.96 19.21 4.01 19.27 4.07 19.31C4.15 19.39 4.24 19.45 4.34 19.51C4.43 19.57 4.53 19.62 4.63 19.66C4.74 19.71 4.85 19.74 4.97 19.77C5.07 19.79 5.17 19.81 5.27 19.81C5.38 19.82 5.49 19.82 5.6 19.81C5.72 19.8 5.83 19.78 5.95 19.75L7.33 19.39L7.93 19.74L8.32 21.13C8.34 21.2 8.36 21.28 8.39 21.35C8.44 21.49 8.51 21.61 8.59 21.74C8.65 21.83 8.72 21.91 8.79 21.99C8.87 22.07 8.95 22.15 9.05 22.22C9.14 22.29 9.23 22.35 9.33 22.4C9.43 22.45 9.53 22.5 9.63 22.53C9.73 22.57 9.84 22.6 9.95 22.62C10.06 22.64 10.18 22.65 10.3 22.65L13.69 22.65C13.8 22.65 13.92 22.64 14.04 22.62C14.14 22.6 14.25 22.57 14.36 22.53C14.46 22.5 14.56 22.45 14.65 22.4C14.75 22.35 14.85 22.29 14.94 22.22C15.03 22.15 15.12 22.07 15.19 21.99C15.27 21.91 15.33 21.83 15.39 21.74C15.45 21.64 15.51 21.55 15.56 21.45C15.6 21.34 15.64 21.23 15.67 21.12L16.05 19.74L16.65 19.39L18.04 19.75C18.14 19.78 18.25 19.8 18.35 19.81C18.47 19.82 18.59 19.82 18.71 19.81C18.82 19.81 18.92 19.79 19.02 19.77C19.13 19.74 19.25 19.71 19.36 19.66C19.46 19.62 19.56 19.57 19.65 19.51C19.74 19.45 19.83 19.39 19.92 19.31C20 19.24 20.07 19.17 20.14 19.08C20.22 18.99 20.29 18.9 20.35 18.8L22.05 15.84C22.11 15.72 22.17 15.6 22.21 15.47C22.24 15.38 22.26 15.3 22.28 15.21C22.3 15.1 22.32 14.99 22.32 14.88C22.32 14.77 22.32 14.66 22.3 14.55C22.29 14.44 22.26 14.32 22.23 14.21C22.2 14.11 22.16 14.02 22.12 13.92C22.07 13.82 22.02 13.73 21.95 13.64C21.89 13.55 21.81 13.45 21.73 13.37L20.71 12.34L20.71 11.64L21.73 10.62C21.81 10.53 21.89 10.44 21.95 10.34C22.01 10.26 22.07 10.16 22.12 10.06C22.16 9.97 22.2 9.87 22.23 9.77C22.26 9.66 22.29 9.55 22.3 9.43C22.32 9.32 22.32 9.21 22.32 9.1C22.31 8.99 22.3 8.88 22.28 8.78C22.26 8.67 22.23 8.57 22.2 8.47C22.16 8.36 22.11 8.25 22.05 8.15L20.35 5.2C20.27 5.06 20.18 4.93 20.07 4.82C20.02 4.77 19.97 4.72 19.92 4.67C19.83 4.6 19.74 4.53 19.65 4.47C19.56 4.42 19.46 4.37 19.36 4.32C19.25 4.28 19.13 4.24 19.02 4.22C18.92 4.19 18.82 4.18 18.71 4.17C18.6 4.16 18.49 4.16 18.38 4.17C18.27 4.18 18.15 4.2 18.04 4.23L16.65 4.6L16.05 4.25L15.67 2.86C15.65 2.78 15.62 2.7 15.59 2.63C15.54 2.49 15.47 2.37 15.39 2.25C15.33 2.16 15.27 2.08 15.2 2C15.12 1.92 15.03 1.84 14.94 1.77C14.85 1.7 14.76 1.64 14.66 1.59C14.56 1.54 14.46 1.49 14.35 1.46C14.25 1.42 14.15 1.39 14.05 1.38C13.93 1.36 13.81 1.34 13.69 1.34L10.3 1.34C10.18 1.34 10.06 1.36 9.94 1.38C9.84 1.39 9.73 1.42 9.63 1.46C9.53 1.49 9.42 1.54 9.33 1.59C9.23 1.64 9.14 1.7 9.05 1.77C8.95 1.84 8.87 1.92 8.79 2C8.72 2.08 8.65 2.16 8.6 2.25C8.53 2.34 8.48 2.43 8.43 2.53ZM9.3 4.94L9.76 3.26C9.78 3.2 9.8 3.14 9.83 3.1C9.86 3.04 9.91 3 9.96 2.96C10.01 2.92 10.06 2.9 10.11 2.88C10.17 2.86 10.23 2.84 10.3 2.84L13.69 2.84C13.75 2.84 13.81 2.86 13.87 2.88C13.93 2.9 13.98 2.92 14.03 2.96C14.07 2.99 14.11 3.03 14.14 3.07C14.18 3.13 14.21 3.19 14.22 3.26L14.69 4.94C14.71 5.04 14.76 5.12 14.82 5.2C14.88 5.28 14.95 5.34 15.03 5.39L16.17 6.05C16.26 6.1 16.35 6.13 16.45 6.15C16.54 6.16 16.64 6.15 16.74 6.13L18.43 5.68C18.48 5.67 18.54 5.66 18.59 5.67C18.65 5.67 18.72 5.68 18.78 5.71C18.85 5.74 18.9 5.77 18.95 5.82C18.99 5.86 19.02 5.9 19.05 5.94L20.75 8.9C20.78 8.95 20.8 9.01 20.81 9.06C20.82 9.12 20.82 9.18 20.82 9.24C20.81 9.31 20.79 9.36 20.76 9.42C20.74 9.47 20.7 9.52 20.66 9.56L19.43 10.81C19.36 10.88 19.3 10.96 19.27 11.05C19.23 11.14 19.21 11.24 19.21 11.34L19.21 12.65C19.21 12.75 19.23 12.84 19.27 12.94C19.3 13.03 19.36 13.11 19.43 13.18L20.66 14.42C20.7 14.47 20.74 14.52 20.76 14.57C20.79 14.62 20.81 14.68 20.82 14.74C20.82 14.8 20.82 14.86 20.81 14.92C20.8 14.98 20.78 15.04 20.75 15.1L19.05 18.04C19.02 18.09 18.98 18.14 18.93 18.18C18.89 18.22 18.84 18.25 18.78 18.28C18.72 18.3 18.66 18.32 18.6 18.32C18.54 18.32 18.48 18.32 18.42 18.3L16.74 17.86C16.64 17.83 16.54 17.82 16.45 17.84C16.35 17.85 16.26 17.88 16.17 17.93L15.03 18.59C14.95 18.64 14.88 18.71 14.82 18.78C14.76 18.86 14.71 18.95 14.69 19.04L14.22 20.74C14.21 20.79 14.18 20.84 14.15 20.89C14.12 20.94 14.08 20.99 14.02 21.03C13.97 21.07 13.92 21.1 13.86 21.12C13.81 21.14 13.75 21.15 13.69 21.15L10.3 21.15C10.24 21.15 10.18 21.14 10.12 21.12C10.07 21.1 10.01 21.07 9.96 21.03C9.92 21 9.88 20.96 9.85 20.91C9.81 20.86 9.78 20.8 9.76 20.73L9.3 19.04C9.27 18.95 9.23 18.86 9.17 18.78C9.11 18.71 9.04 18.64 8.95 18.59L7.82 17.93C7.73 17.88 7.64 17.85 7.54 17.84C7.44 17.82 7.34 17.83 7.25 17.86L5.56 18.3C5.5 18.32 5.45 18.32 5.39 18.32C5.33 18.32 5.27 18.3 5.21 18.28C5.14 18.25 5.08 18.21 5.03 18.17C5 18.13 4.96 18.09 4.94 18.04L3.24 15.1C3.21 15.04 3.18 14.98 3.17 14.91C3.16 14.86 3.16 14.8 3.17 14.74C3.18 14.68 3.2 14.62 3.22 14.57C3.25 14.52 3.28 14.47 3.32 14.42L4.56 13.18C4.63 13.11 4.68 13.03 4.72 12.94C4.76 12.84 4.77 12.75 4.77 12.65L4.77 11.34C4.77 11.24 4.76 11.14 4.72 11.05C4.68 10.96 4.63 10.88 4.56 10.81L3.32 9.56C3.28 9.52 3.25 9.47 3.22 9.42C3.2 9.36 3.18 9.31 3.17 9.24C3.16 9.18 3.16 9.13 3.17 9.07C3.19 9.01 3.21 8.95 3.24 8.89L4.93 5.95C4.97 5.89 5.01 5.84 5.05 5.8C5.1 5.76 5.15 5.73 5.21 5.71C5.27 5.68 5.33 5.67 5.39 5.67C5.44 5.66 5.5 5.67 5.56 5.68L7.25 6.13C7.3 6.14 7.34 6.15 7.39 6.15C7.44 6.16 7.49 6.15 7.54 6.15C7.64 6.13 7.73 6.1 7.82 6.05L8.95 5.39C9.04 5.34 9.11 5.28 9.17 5.2C9.23 5.12 9.27 5.04 9.3 4.94ZM12 7.12C9.3 7.12 7.12 9.3 7.12 12C7.12 14.69 9.3 16.87 12 16.87C14.69 16.87 16.87 14.69 16.87 12C16.87 9.3 14.69 7.12 12 7.12ZM12 8.62C10.13 8.62 8.62 10.13 8.62 12C8.62 13.86 10.13 15.37 12 15.37C13.86 15.37 15.37 13.86 15.37 12C15.37 10.13 13.86 8.62 12 8.62Z" fill="#000000" fill-opacity="1.000000" fill-rule="evenodd"/>
</svg>
