<svg width="24.000000" height="24.000000" viewBox="0 0 24 24" fill="none" xmlns="http://www.w3.org/2000/svg" xmlns:xlink="http://www.w3.org/1999/xlink">
	<desc>
			Created with Pixso.
	</desc>
	<defs>
		<clipPath id="clip31_3055">
			<rect width="24.000000" height="24.000000" fill="white" fill-opacity="0"/>
		</clipPath>
	</defs>
	<g clip-path="url(#clip31_3055)">
		<g opacity="0.000000">
			<rect width="24.000000" height="24.000000" fill="#000000" fill-opacity="1.000000"/>
		</g>
		<path d="M12 1.75C10.14 1.75 8.43 2.2 6.85 3.13C5.29 4.05 4.04 5.29 3.13 6.85C2.21 8.43 1.75 10.14 1.75 12C1.75 13.85 2.21 15.56 3.13 17.14C4.04 18.7 5.29 19.95 6.85 20.87C8.43 21.79 10.14 22.25 12 22.25C13.85 22.25 15.56 21.79 17.14 20.87C18.7 19.95 19.95 18.7 20.87 17.14C21.79 15.56 22.25 13.85 22.25 12C22.25 11.79 22.17 11.61 22.03 11.47C21.89 11.33 21.71 11.26 21.5 11.26C21.29 11.26 21.12 11.32 20.98 11.46C20.83 11.59 20.76 11.77 20.76 12C20.76 13.58 20.36 15.05 19.58 16.39C18.79 17.73 17.73 18.79 16.39 19.58C15.05 20.36 13.58 20.76 12 20.76C10.41 20.76 8.95 20.36 7.6 19.58C6.26 18.79 5.2 17.73 4.41 16.39C3.63 15.05 3.23 13.58 3.23 12C3.23 10.41 3.63 8.94 4.41 7.6C5.2 6.26 6.26 5.19 7.6 4.42C8.95 3.63 10.41 3.23 12 3.23C12.2 3.23 12.38 3.16 12.53 3.02C12.67 2.88 12.74 2.7 12.74 2.5C12.74 2.28 12.67 2.1 12.53 1.96C12.38 1.82 12.2 1.75 12 1.75ZM17.23 2.22C17.13 2.19 17.06 2.18 17.02 2.18C16.87 2.18 16.72 2.22 16.58 2.31C16.44 2.4 16.33 2.51 16.25 2.64C16.21 2.76 16.2 2.86 16.2 2.93C16.2 3.05 16.23 3.18 16.31 3.31C16.38 3.43 16.47 3.53 16.58 3.59L18.74 4.8C16.6 5.21 14.92 6.21 13.7 7.81C12.48 9.42 11.76 11.57 11.54 14.28C11.51 14.48 11.56 14.67 11.7 14.83C11.83 14.99 12 15.08 12.22 15.1C12.42 15.11 12.6 15.05 12.76 14.93C12.9 14.8 12.99 14.63 13.03 14.42C13.23 11.86 13.91 9.89 15.05 8.53C16.18 7.16 17.79 6.36 19.9 6.14L18.36 8.94C18.32 9.05 18.31 9.13 18.31 9.18C18.31 9.47 18.44 9.7 18.71 9.89C18.87 9.94 18.99 9.97 19.06 9.97C19.18 9.97 19.31 9.94 19.43 9.88C19.54 9.8 19.65 9.7 19.73 9.57L21.86 5.66C21.94 5.53 21.98 5.39 21.98 5.22C21.98 4.98 21.84 4.8 21.58 4.68L17.23 2.22Z" fill="#000000" fill-opacity="0.898039" fill-rule="nonzero"/>
	</g>
</svg>
