<svg width="32.000000" height="32.000000" viewBox="0 0 32 32" fill="none" xmlns="http://www.w3.org/2000/svg" xmlns:xlink="http://www.w3.org/1999/xlink">
	<desc>
			Created with Pixso.
	</desc>
	<defs>
		<clipPath id="clip1_278">
			<rect width="32.000000" height="32.000000" fill="white" fill-opacity="0"/>
		</clipPath>
	</defs>
	<g clip-path="url(#clip1_278)">
		<path d="M9.81 28.57C9.17 28.57 8.55 28.37 8.03 27.98C7.08 27.29 6.62 26.15 6.82 25.01L7.57 20.6C7.67 20.03 7.47 19.46 7.06 19.06L3.85 15.93C3.02 15.11 2.72 13.92 3.08 12.81C3.44 11.7 4.39 10.9 5.55 10.74L9.97 10.1C10.54 10.02 11.03 9.66 11.28 9.15L13.25 5.14C13.77 4.08 14.82 3.42 16 3.42C17.17 3.42 18.22 4.08 18.72 5.12L20.71 9.14C20.97 9.64 21.46 10 22.02 10.08L26.44 10.72C27.6 10.88 28.55 11.68 28.91 12.8C29.27 13.91 28.97 15.1 28.14 15.91L24.94 19.03C24.53 19.42 24.34 20.01 24.44 20.57L25.19 24.97C25.38 26.13 24.93 27.26 23.98 27.95C23.03 28.63 21.81 28.71 20.78 28.17L16.81 26.13C16.31 25.87 15.7 25.87 15.2 26.13L11.23 28.22C10.77 28.45 10.28 28.57 9.81 28.57Z" fill="#CCCCCC" fill-opacity="1.000000" fill-rule="nonzero"/>
	</g>
</svg>
