<svg width="24.000000" height="24.000000" viewBox="0 0 24 24" fill="none" xmlns="http://www.w3.org/2000/svg" xmlns:xlink="http://www.w3.org/1999/xlink">
	<desc>
			Created with Pixso.
	</desc>
	<defs>
		<clipPath id="clip17_1675">
			<rect width="24.000000" height="24.000000" fill="white" fill-opacity="0"/>
		</clipPath>
	</defs>
	<g clip-path="url(#clip17_1675)">
		<g opacity="0.000000">
			<rect width="24.000000" height="24.000000" fill="#000000" fill-opacity="1.000000"/>
		</g>
		<path d="M22.31 10.78C22.6 10.52 22.75 10.21 22.75 9.86C22.75 9.73 22.72 9.61 22.68 9.5C22.6 9.28 22.46 9.09 22.28 8.93C22.1 8.78 21.89 8.7 21.65 8.68L16.25 8.28C16.01 8.26 15.79 8.19 15.61 8.06C15.43 7.93 15.3 7.76 15.22 7.54L13.1 2.45C13 2.22 12.86 2.04 12.66 1.91C12.46 1.77 12.24 1.7 12 1.7C11.76 1.7 11.54 1.77 11.34 1.91C11.14 2.04 10.99 2.22 10.9 2.45L8.78 7.54C8.57 8.02 8.22 8.26 7.75 8.28L2.34 8.68C2.1 8.7 1.89 8.78 1.69 8.93C1.51 9.09 1.38 9.28 1.31 9.5C1.27 9.61 1.25 9.73 1.25 9.86C1.25 10.21 1.39 10.52 1.68 10.78L5.82 14.26C5.97 14.36 6.08 14.5 6.17 14.68C6.25 14.84 6.29 15.01 6.29 15.19C6.29 15.25 6.27 15.35 6.23 15.48L4.92 20.81C4.9 20.87 4.9 20.96 4.9 21.1C4.9 21.5 5.06 21.82 5.4 22.06C5.59 22.2 5.81 22.27 6.06 22.27C6.29 22.27 6.51 22.2 6.71 22.08L11.33 19.1C11.52 18.97 11.74 18.91 12 18.91C12.25 18.91 12.47 18.97 12.65 19.1L17.26 22.08C17.46 22.2 17.68 22.27 17.9 22.27C18.16 22.27 18.39 22.2 18.6 22.06C18.76 21.94 18.88 21.8 18.96 21.64C19.05 21.46 19.1 21.29 19.1 21.12C19.1 21.04 19.08 20.93 19.06 20.81L17.76 15.48C17.72 15.32 17.7 15.2 17.7 15.14C17.7 14.76 17.85 14.46 18.14 14.26L22.31 10.78Z" fill="#F7CE00" fill-opacity="1.000000" fill-rule="nonzero"/>
	</g>
</svg>
