<svg width="16.000000" height="16.000000" viewBox="0 0 16 16" fill="none" xmlns="http://www.w3.org/2000/svg" xmlns:xlink="http://www.w3.org/1999/xlink">
	<desc>
			Created with Pixso.
	</desc>
	<defs/>
	<rect width="16.000000" height="16.000000" fill="#FFFFFF" fill-opacity="0"/>
	<path d="M0.5 8C0.5 3.85 3.85 0.5 8 0.5C12.14 0.5 15.5 3.85 15.5 8C15.5 12.14 12.14 15.5 8 15.5C3.85 15.5 0.5 12.14 0.5 8ZM1.43 8C1.43 4.38 4.37 1.45 8 1.45C11.62 1.45 14.56 4.38 14.56 8C14.56 11.61 11.62 14.54 8 14.54C4.37 14.54 1.43 11.61 1.43 8ZM4.05 6.98C3.83 6.39 3.69 5.65 3.61 4.76C3.61 4.73 3.61 4.7 3.61 4.67C3.61 4.59 3.61 4.52 3.63 4.44C3.64 4.38 3.66 4.32 3.69 4.26C3.71 4.2 3.74 4.14 3.78 4.09C3.82 4.03 3.86 3.98 3.91 3.93C3.96 3.88 4.02 3.83 4.07 3.79C4.13 3.76 4.18 3.73 4.24 3.7C4.37 3.65 4.51 3.62 4.65 3.62L5.77 3.62C5.9 3.62 6.02 3.64 6.13 3.69C6.24 3.73 6.35 3.79 6.44 3.87C6.64 4.04 6.76 4.25 6.8 4.5C6.84 4.78 6.88 5 6.92 5.16C6.98 5.41 7.1 5.79 7.27 6.29C7.29 6.36 7.3 6.42 7.29 6.49C7.26 6.76 7.2 6.98 7.09 7.15C7.06 7.21 7.01 7.27 6.97 7.32C7.05 7.53 7.17 7.73 7.32 7.94C7.52 8.2 7.76 8.45 8.05 8.67C8.25 8.83 8.44 8.95 8.62 9.04C8.68 8.98 8.74 8.93 8.82 8.88C9 8.78 9.22 8.71 9.49 8.69C9.56 8.68 9.62 8.69 9.68 8.71C10.19 8.88 10.56 8.99 10.81 9.05C10.98 9.09 11.2 9.13 11.48 9.18C11.6 9.2 11.72 9.24 11.82 9.3C11.93 9.36 12.02 9.43 12.1 9.53C12.27 9.73 12.35 9.95 12.35 10.21L12.36 11.32C12.36 11.47 12.33 11.6 12.27 11.73C12.22 11.86 12.15 11.97 12.05 12.06C11.95 12.16 11.84 12.23 11.72 12.29C11.59 12.34 11.36 12.37 11.22 12.37C10.32 12.29 9.58 12.14 8.98 11.92C7.68 11.49 6.62 10.86 5.8 10.04C5.61 9.85 5.43 9.65 5.27 9.44C4.72 8.73 4.31 7.91 4.05 6.98ZM4.94 6.67C4.75 6.15 4.61 5.48 4.54 4.67C4.56 4.65 4.62 4.56 4.65 4.56L5.77 4.56C5.79 4.56 5.85 4.63 5.87 4.65C5.92 4.95 5.97 5.19 6.01 5.38C6.07 5.64 6.18 6.01 6.34 6.49C6.33 6.57 6.32 6.62 6.3 6.66C6 6.73 5.89 6.92 5.96 7.22C6.06 7.66 6.26 8.09 6.57 8.5C6.82 8.83 7.12 9.13 7.47 9.41C7.77 9.64 8.05 9.82 8.32 9.94C8.46 10 8.58 10.04 8.69 10.06C8.78 10.07 8.87 10.07 8.96 10.04C9.04 10.02 9.11 9.98 9.17 9.92C9.24 9.86 9.29 9.78 9.31 9.68C9.35 9.66 9.41 9.64 9.48 9.63C9.97 9.79 10.34 9.9 10.6 9.96C10.78 10.01 11.02 10.05 11.33 10.1C11.35 10.11 11.4 10.19 11.42 10.21L11.42 11.32C11.42 11.35 11.32 11.41 11.3 11.43C10.49 11.36 9.8 11.22 9.29 11.03C8.12 10.65 7.18 10.1 6.46 9.37C6.33 9.24 6.2 9.1 6.08 8.95C5.56 8.32 5.17 7.53 4.94 6.67Z" fill="#000000" fill-opacity="1.000000" fill-rule="evenodd"/>
</svg>
