<svg width="24.000000" height="24.000000" viewBox="0 0 24 24" fill="none" xmlns="http://www.w3.org/2000/svg" xmlns:xlink="http://www.w3.org/1999/xlink">
	<desc>
			Created with Pixso.
	</desc>
	<defs>
		<clipPath id="clip22_4673">
			<rect width="24.000000" height="24.000000" fill="white" fill-opacity="0"/>
		</clipPath>
	</defs>
	<g clip-path="url(#clip22_4673)">
		<g opacity="0.000000">
			<rect width="24.000000" height="24.000000" fill="#000000" fill-opacity="1.000000"/>
		</g>
		<path d="M5.09 21.72C6.03 21.51 6.96 21.16 7.9 20.66C8.22 20.48 8.4 20.4 8.45 20.4C9.12 20.54 9.81 20.62 10.51 20.62C12.07 20.62 13.52 20.27 14.84 19.58C16.16 18.89 17.2 17.96 17.99 16.79C18.76 15.61 19.15 14.32 19.15 12.94C19.15 11.54 18.76 10.25 17.99 9.07C17.2 7.89 16.16 6.95 14.84 6.26C13.52 5.57 12.07 5.23 10.51 5.23C8.95 5.23 7.52 5.57 6.2 6.26C4.88 6.95 3.83 7.89 3.06 9.07C2.28 10.25 1.9 11.54 1.9 12.94C1.9 14 2.14 15.03 2.64 16.03C3.13 17.02 3.83 17.88 4.73 18.62C4.79 18.68 4.82 18.77 4.82 18.89C4.82 19.19 4.65 19.71 4.32 20.46L4.25 20.66C4.2 20.76 4.18 20.86 4.18 20.98C4.18 21.12 4.23 21.27 4.34 21.43C4.48 21.62 4.68 21.72 4.92 21.72L5.09 21.72ZM10.51 6.74C11.81 6.74 13 7.01 14.09 7.57C15.17 8.12 16.04 8.87 16.68 9.82C17.32 10.76 17.64 11.79 17.64 12.91C17.64 14.03 17.32 15.06 16.68 16.01C16.04 16.95 15.17 17.7 14.09 18.26C13 18.82 11.81 19.1 10.51 19.1C9.85 19.1 9.27 19.03 8.76 18.91C8.69 18.89 8.6 18.89 8.5 18.89C8.28 18.89 8.09 18.92 7.91 19C7.72 19.06 7.48 19.18 7.18 19.34C6.86 19.52 6.52 19.68 6.17 19.82C6.26 19.5 6.31 19.18 6.31 18.86C6.31 18.27 6.09 17.8 5.66 17.45C4.94 16.87 4.38 16.18 3.98 15.4C3.58 14.6 3.38 13.78 3.38 12.94C3.38 11.82 3.7 10.78 4.34 9.83C4.98 8.87 5.84 8.12 6.94 7.57C8.02 7.01 9.21 6.74 10.51 6.74ZM14.28 12.26C14.45 12.26 14.6 12.19 14.74 12.07C14.86 11.94 14.93 11.79 14.93 11.62C14.93 11.44 14.86 11.28 14.74 11.16C14.6 11.03 14.45 10.97 14.28 10.97L6.77 10.97C6.59 10.97 6.43 11.03 6.3 11.16C6.16 11.28 6.1 11.44 6.1 11.62C6.1 11.79 6.16 11.94 6.3 12.07C6.43 12.19 6.59 12.26 6.77 12.26L14.28 12.26ZM11.9 15.65C12.08 15.65 12.23 15.58 12.36 15.46C12.48 15.32 12.55 15.17 12.55 15C12.55 14.82 12.48 14.67 12.36 14.54C12.23 14.41 12.08 14.35 11.9 14.35L6.77 14.35C6.59 14.35 6.43 14.41 6.3 14.54C6.16 14.67 6.1 14.82 6.1 15C6.1 15.17 6.16 15.32 6.3 15.46C6.43 15.58 6.59 15.65 6.77 15.65L11.9 15.65ZM10.51 3.94C10.78 3.94 11.16 3.95 11.64 3.98C12.24 3.84 12.86 3.77 13.49 3.77C14.78 3.77 15.97 4.05 17.06 4.61C18.15 5.17 19.02 5.92 19.66 6.86C20.29 7.8 20.62 8.84 20.62 9.96C20.62 10.52 20.53 11.08 20.35 11.64C20.43 12.12 20.46 12.55 20.46 12.94C20.46 13.51 20.4 14.09 20.28 14.69C20.87 14.03 21.33 13.29 21.65 12.49C21.97 11.68 22.13 10.84 22.13 9.96C22.13 8.56 21.74 7.28 20.96 6.11C20.18 4.93 19.13 3.99 17.81 3.31C16.48 2.62 15.04 2.28 13.49 2.28C12.38 2.28 11.33 2.46 10.33 2.82C9.33 3.18 8.43 3.68 7.66 4.32C8.54 4.06 9.49 3.94 10.51 3.94Z" fill="#191919" fill-opacity="1.000000" fill-rule="nonzero"/>
	</g>
</svg>
