<svg width="24.000000" height="24.000000" viewBox="0 0 24 24" fill="none" xmlns="http://www.w3.org/2000/svg" xmlns:xlink="http://www.w3.org/1999/xlink">
	<desc>
			Created with Pixso.
	</desc>
	<defs>
		<clipPath id="clip155_3872">
			<rect width="16.000000" height="16.000000" transform="translate(4.000000 4.000000)" fill="white" fill-opacity="0"/>
		</clipPath>
	</defs>
	<circle cx="12.000000" cy="12.000000" r="12.000000" fill="#FF9F2F" fill-opacity="1.000000"/>
	<g clip-path="url(#clip155_3872)">
		<path d="M5 6.73C5.13 8.16 5.37 9.36 5.72 10.31C6.14 11.82 6.79 13.14 7.68 14.28C7.94 14.62 8.22 14.93 8.52 15.24C9.85 16.56 11.57 17.57 13.67 18.26C14.62 18.62 15.82 18.86 17.26 18.99C17.31 18.99 17.36 19 17.41 19C17.52 19 17.63 18.98 17.74 18.96C17.84 18.94 17.93 18.91 18.03 18.87C18.12 18.83 18.2 18.78 18.28 18.73C18.37 18.67 18.45 18.61 18.53 18.53C18.61 18.45 18.67 18.37 18.73 18.28C18.78 18.2 18.83 18.12 18.87 18.03C18.91 17.94 18.94 17.85 18.96 17.76C18.98 17.64 19 17.53 19 17.41L18.99 15.59C18.99 15.49 18.98 15.39 18.96 15.3C18.95 15.21 18.92 15.12 18.89 15.04C18.86 14.95 18.82 14.87 18.78 14.8C18.73 14.72 18.67 14.64 18.61 14.57C18.55 14.49 18.48 14.43 18.41 14.37C18.34 14.31 18.27 14.26 18.19 14.22C18.11 14.17 18.03 14.13 17.95 14.1C17.85 14.07 17.76 14.05 17.66 14.03C17.2 13.96 16.84 13.89 16.57 13.82C16.17 13.72 15.55 13.54 14.73 13.26C14.68 13.25 14.64 13.24 14.59 13.23C14.55 13.23 14.5 13.23 14.46 13.23C14.04 13.27 13.69 13.37 13.42 13.53C13.28 13.62 13.16 13.72 13.07 13.84C12.75 13.69 12.4 13.47 12.04 13.18C11.57 12.81 11.17 12.41 10.84 11.97C10.56 11.61 10.36 11.24 10.22 10.87C10.31 10.78 10.39 10.68 10.46 10.57C10.62 10.3 10.72 9.95 10.76 9.53C10.76 9.49 10.76 9.44 10.76 9.4C10.75 9.35 10.74 9.31 10.73 9.27C10.45 8.44 10.27 7.82 10.17 7.42C10.1 7.15 10.03 6.79 9.96 6.33C9.94 6.23 9.92 6.13 9.89 6.04C9.85 5.96 9.82 5.88 9.77 5.8C9.73 5.72 9.68 5.65 9.62 5.58C9.56 5.51 9.5 5.44 9.42 5.38C9.35 5.32 9.27 5.26 9.19 5.21C9.12 5.17 9.04 5.13 8.95 5.1C8.87 5.07 8.79 5.04 8.7 5.03C8.6 5.01 8.5 5 8.4 5L6.58 5C6.47 5 6.36 5.01 6.25 5.03C6.15 5.05 6.06 5.08 5.96 5.12C5.87 5.16 5.79 5.21 5.71 5.26C5.62 5.32 5.54 5.38 5.46 5.46C5.38 5.54 5.32 5.62 5.26 5.71C5.21 5.79 5.16 5.87 5.12 5.96C5.08 6.06 5.05 6.15 5.03 6.25C5.01 6.36 5 6.47 5 6.58C5 6.63 5 6.68 5 6.73ZM6.3 6.6C6.3 6.56 6.3 6.51 6.31 6.47C6.33 6.44 6.35 6.41 6.38 6.38C6.41 6.35 6.44 6.33 6.47 6.32C6.51 6.3 6.54 6.29 6.58 6.29L8.39 6.3C8.43 6.3 8.46 6.3 8.49 6.31C8.52 6.33 8.55 6.34 8.58 6.37C8.6 6.39 8.67 6.5 8.68 6.54C8.76 7.03 8.83 7.42 8.9 7.72C9.01 8.14 9.19 8.75 9.45 9.54C9.43 9.7 9.39 9.81 9.35 9.89C9.17 9.93 9 10.06 8.9 10.21C8.8 10.36 8.77 10.52 8.81 10.7C8.97 11.4 9.31 12.09 9.8 12.75C10.2 13.28 10.68 13.77 11.24 14.21C11.71 14.58 12.16 14.86 12.59 15.05C12.81 15.15 13 15.21 13.16 15.23C13.3 15.26 13.43 15.25 13.55 15.22C13.62 15.2 13.69 15.17 13.75 15.13C13.78 15.11 13.82 15.08 13.85 15.05C13.9 15 13.95 14.94 13.98 14.88C14.02 14.82 14.05 14.75 14.06 14.68C14.14 14.63 14.29 14.56 14.45 14.54C15.24 14.8 15.85 14.98 16.27 15.09C16.57 15.16 16.96 15.23 17.45 15.31C17.49 15.32 17.52 15.33 17.55 15.35C17.57 15.37 17.66 15.47 17.68 15.5C17.69 15.53 17.69 15.56 17.69 15.6L17.7 17.41C17.7 17.45 17.69 17.48 17.68 17.51C17.66 17.55 17.64 17.58 17.61 17.61C17.58 17.64 17.55 17.66 17.52 17.67C17.48 17.69 17.45 17.7 17.41 17.7C16.07 17.58 14.96 17.36 14.11 17.04C12.2 16.42 10.63 15.5 9.44 14.32C9.22 14.09 9.01 13.86 8.81 13.61C7.96 12.57 7.35 11.35 6.96 9.94C6.65 9.09 6.41 7.94 6.3 6.6Z" fill="#FFFFFF" fill-opacity="1.000000" fill-rule="evenodd"/>
	</g>
</svg>
