<svg width="16.000000" height="16.000000" viewBox="0 0 16 16" fill="none" xmlns="http://www.w3.org/2000/svg" xmlns:xlink="http://www.w3.org/1999/xlink">
	<desc>
			Created with Pixso.
	</desc>
	<defs/>
	<rect width="16.000000" height="16.000000" fill="#C4C4C4" fill-opacity="0"/>
	<path d="M11.1805 3.25519C11.2723 3.31683 11.3622 3.3811 11.4504 3.44806C11.7377 3.66626 12.1348 3.61194 12.353 3.32465C12.5712 3.03735 12.5168 2.6402 12.2296 2.42206C12.1257 2.34314 12.0197 2.26721 11.9117 2.19434C11.8495 2.1524 11.7867 2.11139 11.7231 2.07141C11.4288 1.88617 11.124 1.72449 10.809 1.58636C10.5369 1.46704 10.2571 1.3653 9.96954 1.28113C9.71844 1.20764 9.46478 1.1485 9.20862 1.10382C8.81171 1.03461 8.40875 1 7.99976 1C7.47894 1 6.97046 1.05524 6.47424 1.16571C6.06616 1.25653 5.66632 1.38477 5.27484 1.55035C4.87952 1.71759 4.50555 1.91724 4.15302 2.14935L4.15228 2.14984C3.75818 2.40942 3.39075 2.70953 3.04999 3.05023C2.70929 3.39099 2.40918 3.75842 2.1496 4.15253L2.14911 4.15326C1.91699 4.5058 1.71735 4.87976 1.55011 5.27509C1.38452 5.66656 1.25629 6.06635 1.16547 6.47449C1.05499 6.9707 0.999756 7.47919 0.999756 8C0.999756 8.52081 1.05499 9.0293 1.16547 9.52551C1.25635 9.93365 1.38452 10.3334 1.55011 10.7249C1.71735 11.1202 1.91699 11.4942 2.14911 11.8468C2.40881 12.2411 2.70911 12.6088 3.04999 12.9498C3.39093 13.2907 3.75861 13.591 4.15308 13.8507C4.50562 14.0828 4.87958 14.2825 5.27484 14.4496C5.66632 14.6152 6.06616 14.7435 6.4743 14.8343C6.97046 14.9448 7.47894 15 7.99976 15C8.52057 15 9.02905 14.9448 9.52527 14.8343C9.93341 14.7435 10.3332 14.6152 10.7247 14.4496C11.12 14.2824 11.4939 14.0828 11.8465 13.8506L11.8472 13.8502C12.2413 13.5906 12.6088 13.2905 12.9495 12.9498C13.2904 12.6088 13.5908 12.2411 13.8504 11.8467C14.0825 11.4941 14.2822 11.1202 14.4494 10.7249C14.615 10.3334 14.7432 9.93359 14.834 9.52551C14.9445 9.0293 14.9998 8.52081 14.9998 8C14.9998 7.54834 14.9578 7.10474 14.8738 6.66925C14.8127 6.35242 14.7294 6.03986 14.6238 5.73163C14.5119 5.40466 14.3774 5.08942 14.2203 4.78583C14.0374 4.43231 13.8238 4.0946 13.5797 3.77271C13.3616 3.48535 12.9645 3.43085 12.6771 3.64886C12.3897 3.86688 12.3352 4.26404 12.5532 4.55139C12.7557 4.81824 12.9323 5.09827 13.083 5.3916C13.2081 5.63489 13.3154 5.88733 13.405 6.14893C13.4874 6.38965 13.5532 6.63361 13.6024 6.88092C13.675 7.24677 13.7114 7.61975 13.7114 8C13.7114 8.43378 13.6646 8.85687 13.5709 9.26935C13.4972 9.59381 13.3945 9.91174 13.2628 10.223C13.1282 10.5412 12.9678 10.8425 12.7816 11.1268C12.5679 11.4531 12.3202 11.757 12.0385 12.0388C11.7568 12.3204 11.4528 12.5681 11.1266 12.7818C10.8422 12.9681 10.541 13.1285 10.2228 13.2631C9.9115 13.3948 9.59357 13.4974 9.2691 13.5711C8.85663 13.6648 8.43353 13.7117 7.99976 13.7117C7.56598 13.7117 7.14288 13.6648 6.73041 13.5711C6.40594 13.4974 6.08801 13.3948 5.77673 13.2631C5.45856 13.1285 5.15735 12.9681 4.87299 12.7819C4.54669 12.5682 4.24274 12.3205 3.961 12.0388C3.67932 11.7571 3.43164 11.4531 3.21796 11.1268C3.03168 10.8425 2.87128 10.5413 2.73669 10.223C2.60504 9.91174 2.50232 9.59381 2.42865 9.26935C2.33496 8.85687 2.28809 8.43378 2.28809 8C2.28809 7.56622 2.33496 7.14313 2.42865 6.73065C2.50232 6.40619 2.60498 6.08826 2.73669 5.77698C2.87128 5.4588 3.03168 5.15759 3.21783 4.87323L3.21783 4.87323L3.2179 4.87317C3.43158 4.54694 3.67932 4.24298 3.961 3.96124C4.24274 3.67957 4.54669 3.43182 4.87299 3.21814C5.15729 3.03192 5.45856 2.87152 5.77673 2.73694C6.08801 2.60522 6.40594 2.50256 6.73041 2.42889C7.14288 2.33521 7.56598 2.28833 7.99976 2.28833C8.34723 2.28833 8.68909 2.31885 9.02551 2.37988C9.22137 2.41547 9.41547 2.46136 9.6076 2.51758C9.83771 2.58496 10.0618 2.66614 10.2799 2.76117C10.5409 2.87494 10.7933 3.00848 11.037 3.16187C11.0853 3.19226 11.1331 3.22333 11.1805 3.25519ZM8.64392 3.98254L8.64392 7.63306L10.3411 9.43207C10.5887 9.69446 10.577 10.0952 10.3146 10.3427C10.0522 10.5902 9.65155 10.5786 9.40399 10.3162L7.53119 8.33099C7.47479 8.27124 7.43146 8.20312 7.40112 8.12677C7.37079 8.05042 7.35559 7.97113 7.35559 7.88898L7.35559 3.98254C7.35559 3.62183 7.63904 3.33838 7.99976 3.33838C8.36047 3.33838 8.64392 3.62183 8.64392 3.98254Z" clip-rule="evenodd" fill="#61860B" fill-opacity="1.000000" fill-rule="evenodd"/>
</svg>
