<svg width="40.000000" height="40.000000" viewBox="0 0 40 40" fill="none" xmlns="http://www.w3.org/2000/svg" xmlns:xlink="http://www.w3.org/1999/xlink">
	<desc>
			Created with Pixso.
	</desc>
	<defs>
		<clipPath id="clip60_5008">
			<rect id="画板 72" rx="19.500000" width="39.000000" height="39.000000" transform="translate(0.500000 0.500000)" fill="white" fill-opacity="0"/>
		</clipPath>
	</defs>
	<rect id="画板 72" rx="19.500000" width="39.000000" height="39.000000" transform="translate(0.500000 0.500000)" fill="#FFFFFF" fill-opacity="1.000000"/>
	<g clip-path="url(#clip60_5008)">
		<path id="矢量 22" d="M28.72 14.66L25.27 14.66C25.27 14.66 25.6 17.55 25.52 20.44C25.5 21.24 25.45 22.04 25.39 22.78L21.21 22.78L21.21 20.14C21.21 19.47 20.67 18.92 20 18.92L13.91 18.92C11.78 18.92 10.05 20.65 10.05 22.78L10.05 26.23L30.85 26.23C30.85 26.23 31.46 25.11 30.93 23.34C30.39 21.56 29.12 21.29 28.72 19.13C28.32 16.96 28.72 14.66 28.72 14.66Z" fill="#CFCFCF" fill-opacity="1.000000" fill-rule="evenodd"/>
		<path id="矢量 22" d="M28.84 14.56L25.16 14.56L25.17 14.67C25.35 16.24 25.44 17.81 25.44 19.38C25.44 19.73 25.43 20.09 25.42 20.44C25.4 21.14 25.36 21.88 25.29 22.68L21.31 22.68L21.31 20.14C21.31 19.96 21.28 19.79 21.22 19.63C21.15 19.48 21.06 19.34 20.93 19.21C20.8 19.08 20.66 18.98 20.5 18.92C20.35 18.85 20.18 18.82 20 18.82L13.91 18.82C13.36 18.82 12.86 18.92 12.39 19.11C11.92 19.3 11.5 19.59 11.11 19.98C10.72 20.37 10.43 20.79 10.24 21.26C10.05 21.73 9.95 22.23 9.95 22.78L9.95 26.33L30.91 26.33L30.94 26.28C31.05 26.08 31.13 25.81 31.19 25.46C31.3 24.78 31.25 24.06 31.02 23.31C30.86 22.76 30.52 22.16 29.99 21.49C29.35 20.68 28.96 19.89 28.82 19.11C28.8 19.02 28.79 18.92 28.77 18.83C28.56 17.48 28.57 16.1 28.82 14.68L28.84 14.56ZM25.38 14.76C25.56 16.3 25.64 17.83 25.64 19.37C25.64 19.73 25.63 20.09 25.63 20.45C25.61 21.17 25.56 21.95 25.49 22.79L25.48 22.88L21.11 22.88L21.11 20.14C21.11 19.99 21.08 19.84 21.03 19.71C20.98 19.58 20.89 19.46 20.78 19.35C20.68 19.24 20.56 19.16 20.42 19.11C20.29 19.05 20.15 19.02 20 19.02L13.91 19.02C13.39 19.02 12.91 19.12 12.47 19.3C12.02 19.48 11.62 19.76 11.25 20.12C10.89 20.49 10.61 20.89 10.43 21.34C10.25 21.78 10.15 22.26 10.15 22.78L10.15 26.13L30.79 26.13C30.87 25.95 30.94 25.72 30.99 25.43C31.1 24.78 31.05 24.09 30.83 23.36C30.67 22.85 30.34 22.26 29.83 21.61C29.17 20.78 28.77 19.96 28.62 19.14C28.6 19.04 28.58 18.94 28.57 18.83C28.36 17.51 28.37 16.15 28.6 14.76L25.38 14.76Z" fill="#A1A0A0" fill-opacity="1.000000" fill-rule="evenodd"/>
		<path id="矢量 22" d="M21.21 21.45L21.21 20.14C21.21 19.47 20.67 18.92 20 18.92L13.91 18.92C13.12 18.92 12.38 19.16 11.77 19.57C12.6 19.41 13.49 19.33 14.42 19.33C17.39 19.33 19.96 20.19 21.21 21.45ZM30.23 21.97C29.66 21.19 28.99 20.59 28.72 19.13C28.32 16.96 28.72 14.66 28.72 14.66L25.27 14.66C25.27 14.66 25.27 14.67 25.27 14.7C26.87 14.99 28.11 16.95 28.11 19.33C28.11 20.31 27.9 21.22 27.54 21.97L30.23 21.97Z" fill="#EFEFEF" fill-opacity="0.400000" fill-rule="evenodd"/>
		<path id="矢量 22" d="M25.27 26.23C25.27 24.1 27 22.37 29.13 22.37C31.25 22.37 32.98 24.1 32.98 26.23C32.98 28.36 31.25 30.08 29.13 30.08C27 30.08 25.27 28.36 25.27 26.23Z" fill="#717982" fill-opacity="1.000000" fill-rule="evenodd"/>
		<path id="矢量 22" d="M27.1 26.23C27.1 25.11 28 24.2 29.13 24.2C30.25 24.2 31.15 25.11 31.15 26.23C31.15 27.35 30.25 28.26 29.13 28.26C28 28.26 27.1 27.35 27.1 26.23Z" fill="#FFFFFF" fill-opacity="1.000000" fill-rule="evenodd"/>
		<path id="矢量 22" d="M28.11 26.23C28.11 25.67 28.57 25.21 29.13 25.21C29.69 25.21 30.14 25.67 30.14 26.23C30.14 26.79 29.69 27.24 29.13 27.24C28.57 27.24 28.11 26.79 28.11 26.23Z" fill="#A8A8A8" fill-opacity="1.000000" fill-rule="evenodd"/>
		<path id="矢量 22" d="M29.13 21.36C26.44 21.36 24.26 23.54 24.26 26.23C24.26 26.43 24.27 26.64 24.29 26.84L33.96 26.84C33.98 26.64 34 26.43 34 26.23C34 23.54 31.81 21.36 29.13 21.36Z" fill="#DCDCDC" fill-opacity="1.000000" fill-rule="evenodd"/>
		<path id="矢量 22" d="M32.98 26.84L33.96 26.84C33.98 26.64 34 26.43 34 26.23C34 23.54 31.81 21.36 29.13 21.36C28.83 21.36 28.53 21.38 28.25 21.44C30.87 21.88 32.88 24.11 32.98 26.84Z" fill="#CFCFCF" fill-opacity="1.000000" fill-rule="evenodd"/>
		<path id="矢量 22" d="M28.56 22.98C28.78 22.96 28.94 22.76 28.92 22.53C28.9 22.31 28.7 22.15 28.48 22.17C28.42 22.18 28.35 22.19 28.26 22.21C28.09 22.24 27.93 22.3 27.76 22.36C27.65 22.41 27.54 22.45 27.43 22.51C27.32 22.57 27.2 22.63 27.09 22.71C26.98 22.78 26.88 22.86 26.77 22.95C26.64 23.06 26.51 23.18 26.39 23.32C26.29 23.43 26.19 23.55 26.1 23.67C26.01 23.79 25.93 23.92 25.84 24.05C25.72 24.25 25.6 24.46 25.51 24.68C25.44 24.84 25.38 24.99 25.33 25.14C25.31 25.21 25.29 25.28 25.28 25.33C25.23 25.55 25.37 25.76 25.59 25.81C25.81 25.86 26.02 25.73 26.07 25.5C26.08 25.48 26.09 25.44 26.11 25.38C26.14 25.26 26.19 25.14 26.25 25.01C26.33 24.83 26.43 24.65 26.53 24.47C26.6 24.36 26.68 24.26 26.75 24.15C26.83 24.05 26.91 23.95 26.99 23.86C27.09 23.75 27.19 23.65 27.3 23.56C27.38 23.5 27.46 23.44 27.54 23.38C27.63 23.33 27.72 23.28 27.81 23.23C27.89 23.19 27.97 23.15 28.06 23.12C28.18 23.07 28.31 23.03 28.43 23C28.47 22.99 28.53 22.98 28.56 22.98Z" fill="#FFFFFF" fill-opacity="0.800000" fill-rule="evenodd"/>
		<path id="矢量 22" d="M10.05 26.23C10.05 24.1 11.78 22.37 13.91 22.37C16.04 22.37 17.76 24.1 17.76 26.23C17.76 28.36 16.04 30.08 13.91 30.08C11.78 30.08 10.05 28.36 10.05 26.23Z" fill="#717982" fill-opacity="1.000000" fill-rule="evenodd"/>
		<path id="矢量 22" d="M11.88 26.23C11.88 25.11 12.79 24.2 13.91 24.2C15.03 24.2 15.94 25.11 15.94 26.23C15.94 27.35 15.03 28.26 13.91 28.26C12.79 28.26 11.88 27.35 11.88 26.23Z" fill="#FFFFFF" fill-opacity="1.000000" fill-rule="evenodd"/>
		<path id="矢量 22" d="M12.89 26.23C12.89 25.67 13.35 25.21 13.91 25.21C14.47 25.21 14.92 25.67 14.92 26.23C14.92 26.79 14.47 27.24 13.91 27.24C13.35 27.24 12.89 26.79 12.89 26.23Z" fill="#A8A8A8" fill-opacity="1.000000" fill-rule="evenodd"/>
		<path id="矢量 22" d="M13.91 21.36C11.22 21.36 9.04 23.54 9.04 26.23C9.04 26.43 9.05 26.64 9.08 26.84L18.74 26.84C18.77 26.64 18.78 26.43 18.78 26.23C18.78 23.54 16.6 21.36 13.91 21.36Z" fill="#DCDCDC" fill-opacity="1.000000" fill-rule="evenodd"/>
		<path id="矢量 22" d="M9.3 24.32C9.06 24.9 8.94 25.54 8.94 26.23C8.94 26.43 8.95 26.62 8.97 26.82C8.97 26.83 8.97 26.84 8.98 26.85L9.08 26.94L18.74 26.94L18.84 26.85C18.84 26.84 18.84 26.83 18.84 26.82C18.87 26.62 18.88 26.43 18.88 26.23C18.88 25.54 18.76 24.9 18.52 24.32C18.27 23.73 17.91 23.2 17.42 22.71C16.94 22.23 16.4 21.86 15.82 21.62C15.23 21.38 14.59 21.26 13.91 21.26C13.22 21.26 12.59 21.38 12 21.62C11.41 21.86 10.88 22.23 10.39 22.71C9.91 23.2 9.54 23.73 9.3 24.32ZM9.17 26.73C9.15 26.57 9.14 26.4 9.14 26.23C9.14 25.57 9.26 24.96 9.49 24.4C9.72 23.83 10.07 23.32 10.54 22.86C11 22.39 11.52 22.04 12.08 21.81C12.64 21.58 13.25 21.46 13.91 21.46C14.57 21.46 15.18 21.58 15.74 21.81C16.3 22.04 16.81 22.39 17.28 22.86C17.75 23.32 18.09 23.83 18.33 24.4C18.56 24.96 18.68 25.57 18.68 26.23C18.68 26.4 18.67 26.57 18.65 26.73L9.17 26.73Z" fill="#A1A0A0" fill-opacity="1.000000" fill-rule="evenodd"/>
		<path id="矢量 22" d="M17.76 26.84L18.74 26.84C18.77 26.64 18.78 26.43 18.78 26.23C18.78 23.54 16.6 21.36 13.91 21.36C13.61 21.36 13.32 21.38 13.03 21.44C15.65 21.88 17.66 24.11 17.76 26.84Z" fill="#CFCFCF" fill-opacity="1.000000" fill-rule="evenodd"/>
		<path id="矢量 22" d="M13.34 22.98C13.57 22.96 13.73 22.76 13.7 22.53C13.68 22.31 13.48 22.15 13.26 22.17C13.2 22.18 13.13 22.19 13.04 22.21C12.88 22.24 12.71 22.3 12.54 22.36C12.43 22.41 12.32 22.45 12.22 22.51C12.1 22.57 11.99 22.63 11.88 22.71C11.77 22.78 11.66 22.86 11.56 22.95C11.42 23.06 11.29 23.18 11.17 23.32C11.07 23.43 10.98 23.55 10.89 23.67C10.79 23.79 10.71 23.92 10.63 24.05C10.5 24.25 10.39 24.46 10.29 24.68C10.22 24.84 10.16 24.99 10.12 25.14C10.09 25.21 10.07 25.28 10.06 25.33C10.01 25.55 10.15 25.76 10.37 25.81C10.59 25.86 10.81 25.73 10.85 25.5C10.86 25.48 10.87 25.44 10.89 25.38C10.93 25.26 10.97 25.14 11.03 25.01C11.11 24.83 11.21 24.65 11.32 24.47C11.39 24.36 11.46 24.26 11.54 24.15C11.61 24.05 11.69 23.95 11.78 23.86C11.87 23.75 11.98 23.65 12.09 23.56C12.16 23.5 12.24 23.44 12.32 23.38C12.41 23.33 12.5 23.28 12.59 23.23C12.67 23.19 12.75 23.15 12.84 23.12C12.97 23.07 13.09 23.03 13.22 23C13.25 22.99 13.31 22.98 13.34 22.98Z" fill="#FFFFFF" fill-opacity="0.800000" fill-rule="evenodd"/>
		<path id="矢量 22" d="M15.33 16.49L20.4 16.49C21.07 16.49 21.62 17.03 21.62 17.71C21.62 18.38 21.07 18.92 20.4 18.92L15.13 18.92C15.01 18.92 14.92 18.83 14.92 18.72L14.92 16.89C14.92 16.67 15.1 16.49 15.33 16.49Z" fill="#8E8E8E" fill-opacity="1.000000" fill-rule="evenodd"/>
		<path id="矢量 22" d="M23.24 12.84L25.68 12.84L25.68 14.46L23.24 14.46C22.79 14.46 22.43 14.1 22.43 13.65C22.43 13.2 22.79 12.84 23.24 12.84Z" fill="#8E8E8E" fill-opacity="1.000000" fill-rule="evenodd"/>
		<path id="矢量 22" d="M25.47 12.23L28.31 12.23C29.21 12.23 29.94 12.95 29.94 13.85C29.94 14.3 29.57 14.66 29.13 14.66L25.47 14.66C25.03 14.66 24.66 14.3 24.66 13.85L24.66 13.04C24.66 12.59 25.03 12.23 25.47 12.23Z" fill="#DCDCDC" fill-opacity="1.000000" fill-rule="evenodd"/>
		<path id="矢量 22" d="M29.94 13.85C29.94 12.95 29.21 12.23 28.31 12.23L25.47 12.23C25.03 12.23 24.66 12.59 24.66 13.04L24.66 13.85C24.66 14.3 25.03 14.66 25.47 14.66L29.13 14.66C29.57 14.66 29.94 14.3 29.94 13.85ZM29.73 13.85C29.73 13.07 29.1 12.43 28.31 12.43L25.47 12.43C25.14 12.43 24.86 12.7 24.86 13.04L24.86 13.85C24.86 14.19 25.14 14.46 25.47 14.46L29.13 14.46C29.46 14.46 29.73 14.19 29.73 13.85Z" fill="#8E8E8E" fill-opacity="1.000000" fill-rule="evenodd"/>
		<path id="矢量 22" d="M29.09 14.66C29.56 14.66 29.94 14.3 29.94 13.85C29.94 12.95 29.18 12.23 28.25 12.23L25.51 12.23C25.49 12.23 25.47 12.23 25.45 12.23C27.47 12.28 29.09 13.35 29.09 14.66Z" fill="#A1A0A0" fill-opacity="1.000000" fill-rule="evenodd"/>
		<path id="矢量 22" d="M7.21 10L13.71 10C14.38 10 14.92 10.54 14.92 11.21L14.92 17.71C14.92 18.38 14.38 18.92 13.71 18.92L7.21 18.92C6.54 18.92 6 18.38 6 17.71L6 11.21C6 10.54 6.54 10 7.21 10Z" fill="#DCDCDC" fill-opacity="1.000000" fill-rule="evenodd"/>
		<path id="矢量 22" d="M14.92 11.21C14.92 10.54 14.38 10 13.71 10L7.21 10C6.54 10 6 10.54 6 11.21L6 17.71C6 18.38 6.54 18.92 7.21 18.92L13.71 18.92C14.38 18.92 14.92 18.38 14.92 17.71L14.92 11.21ZM14.72 11.21C14.72 10.65 14.27 10.2 13.71 10.2L7.21 10.2C6.65 10.2 6.2 10.65 6.2 11.21L6.2 17.71C6.2 18.27 6.65 18.72 7.21 18.72L13.71 18.72C14.27 18.72 14.72 18.27 14.72 17.71L14.72 11.21Z" fill="#A1A0A0" fill-opacity="1.000000" fill-rule="evenodd"/>
		<path id="矢量 22" d="M9.57 10L7.11 10L6 11.63L6 15.26L9.57 10ZM7.93 18.92L7.21 18.92C6.54 18.92 6 18.38 6 17.71L6 16.47L11.61 10L13.99 10L7.93 18.92ZM11.62 18.92L9.47 18.92L14.92 11.21L14.92 14.8L11.62 18.92Z" fill="#000000" fill-opacity="0.137931" fill-rule="evenodd"/>
		<path id="矢量 22" d="M6 12.23L14.92 12.23L14.92 13.04L6 13.04L6 12.23Z" fill="#CFCFCF" fill-opacity="1.000000" fill-rule="evenodd"/>
		<path id="矢量 22" d="M7.82 12.23L8.43 12.23L8.43 18.92L7.82 18.92L7.82 12.23Z" fill="#CFCFCF" fill-opacity="1.000000" fill-rule="evenodd"/>
		<path id="矢量 22" d="M12.49 12.23L13.1 12.23L13.1 18.92L12.49 18.92L12.49 12.23Z" fill="#CFCFCF" fill-opacity="1.000000" fill-rule="evenodd"/>
		<path id="矢量 22" d="M6.93 14.95C7.05 14.95 7.16 14.97 7.25 15.02C7.34 15.07 7.42 15.13 7.47 15.22C7.52 15.31 7.55 15.42 7.55 15.54C7.55 15.66 7.52 15.77 7.47 15.86C7.42 15.95 7.34 16.02 7.25 16.07C7.16 16.11 7.05 16.14 6.93 16.14L6.54 16.14L6.54 14.95L6.93 14.95ZM6.91 15.94C7.04 15.94 7.13 15.9 7.2 15.83C7.27 15.77 7.3 15.67 7.3 15.54C7.3 15.42 7.27 15.32 7.2 15.25C7.13 15.18 7.03 15.15 6.91 15.15L6.77 15.15L6.77 15.94L6.91 15.94Z" fill="#FFFFFF" fill-opacity="1.000000" fill-rule="nonzero"/>
		<path id="矢量 22" d="M8.46 15.64L7.98 15.64L7.98 15.93L8.54 15.93L8.54 16.14L7.74 16.14L7.74 14.95L8.52 14.95L8.52 15.15L7.98 15.15L7.98 15.43L8.46 15.43L8.46 15.64Z" fill="#FFFFFF" fill-opacity="1.000000" fill-rule="nonzero"/>
		<path id="矢量 22" d="M8.73 14.95L8.97 14.95L8.97 15.93L9.51 15.93L9.51 16.14L8.73 16.14L8.73 14.95Z" fill="#FFFFFF" fill-opacity="1.000000" fill-rule="nonzero"/>
		<path id="矢量 22" d="M9.91 16.14L9.67 16.14L9.67 14.95L9.91 14.95L9.91 16.14Z" fill="#FFFFFF" fill-opacity="1.000000" fill-rule="nonzero"/>
		<path id="矢量 22" d="M10.31 14.95L10.63 15.81L10.93 14.95L11.18 14.95L10.72 16.14L10.52 16.14L10.04 14.95L10.31 14.95Z" fill="#FFFFFF" fill-opacity="1.000000" fill-rule="nonzero"/>
		<path id="矢量 22" d="M12.04 15.64L11.56 15.64L11.56 15.93L12.11 15.93L12.11 16.14L11.32 16.14L11.32 14.95L12.1 14.95L12.1 15.15L11.56 15.15L11.56 15.43L12.04 15.43L12.04 15.64Z" fill="#FFFFFF" fill-opacity="1.000000" fill-rule="nonzero"/>
		<path id="矢量 22" d="M13.29 16.14L13.01 16.14L12.72 15.71L12.71 15.71L12.54 15.71L12.54 16.14L12.31 16.14L12.31 14.95L12.72 14.95C12.81 14.95 12.89 14.96 12.96 15C13.03 15.03 13.09 15.07 13.13 15.13C13.16 15.19 13.18 15.25 13.18 15.33C13.18 15.4 13.16 15.47 13.12 15.53C13.08 15.59 13.03 15.63 12.96 15.66L13.29 16.14ZM12.54 15.15L12.54 15.51L12.69 15.51C12.76 15.51 12.82 15.49 12.86 15.46C12.91 15.43 12.93 15.39 12.93 15.33C12.93 15.27 12.91 15.22 12.86 15.19C12.82 15.16 12.76 15.15 12.69 15.15L12.54 15.15Z" fill="#FFFFFF" fill-opacity="1.000000" fill-rule="nonzero"/>
		<path id="矢量 22" d="M13.77 15.44L14.04 14.95L14.29 14.95L13.88 15.67L13.88 16.14L13.64 16.14L13.64 15.67L13.21 14.95L13.49 14.95L13.77 15.44Z" fill="#FFFFFF" fill-opacity="1.000000" fill-rule="nonzero"/>
		<path id="矢量 22" d="M28.52 17.2C28.52 16.58 28.88 16.08 29.33 16.08C29.78 16.08 30.14 16.58 30.14 17.2C30.14 17.81 29.78 18.31 29.33 18.31C28.88 18.31 28.52 17.81 28.52 17.2Z" fill="#EDEDED" fill-opacity="1.000000" fill-rule="evenodd"/>
		<path id="矢量 22" d="M28.72 17.2C28.72 16.86 28.99 16.59 29.33 16.59C29.66 16.59 29.94 16.86 29.94 17.2C29.94 17.53 29.66 17.81 29.33 17.81C28.99 17.81 28.72 17.53 28.72 17.2Z" fill="#FFFFFF" fill-opacity="1.000000" fill-rule="evenodd"/>
		<path id="矢量 22" d="M29.13 15.88C28.33 15.92 27.71 16.5 27.71 17.2C27.71 17.9 28.33 18.47 29.13 18.52L29.13 15.88Z" fill="#DCDCDC" fill-opacity="1.000000" fill-rule="evenodd"/>
		<path id="矢量 22" d="M28.12 16.29C28.12 16.35 28.11 16.42 28.11 16.49C28.11 17.17 28.53 17.75 29.13 17.99L29.13 18.52C28.33 18.47 27.71 17.9 27.71 17.2C27.71 16.85 27.86 16.53 28.12 16.29Z" fill="#8E8E8E" fill-opacity="1.000000" fill-rule="evenodd"/>
		<path id="矢量 22" d="M29.13 15.88C29.13 15.77 29.22 15.68 29.33 15.68C29.44 15.68 29.53 15.77 29.53 15.88L29.53 18.52C29.53 18.63 29.44 18.72 29.33 18.72C29.22 18.72 29.13 18.63 29.13 18.52L29.13 15.88Z" fill="#6E6E6E" fill-opacity="1.000000" fill-rule="evenodd"/>
	</g>
	<rect id="画板 72" rx="19.500000" width="39.000000" height="39.000000" transform="translate(0.500000 0.500000)" stroke="#000000" stroke-opacity="1.000000" stroke-width="1.000000"/>
</svg>
