<svg width="24.000000" height="24.000000" viewBox="0 0 24 24" fill="none" xmlns="http://www.w3.org/2000/svg" xmlns:xlink="http://www.w3.org/1999/xlink">
	<desc>
			Created with Pixso.
	</desc>
	<defs>
		<linearGradient x1="12.000000" y1="0.000000" x2="12.000000" y2="24.000000" id="paint_linear_60_4078_0" gradientUnits="userSpaceOnUse">
			<stop stop-color="#FCD997"/>
			<stop offset="1.000000" stop-color="#FF2200"/>
		</linearGradient>
	</defs>
	<circle id="椭圆形" cx="12.000000" cy="12.000000" r="12.000000" fill="url(#paint_linear_60_4078_0)" fill-opacity="1.000000"/>
	<path id="矩形 76" d="M8 5.25L16 5.25C17.1 5.25 18 6.14 18 7.25L18 9L6 9L6 7.25C6 6.14 6.89 5.25 8 5.25Z" fill="#FFC62F" fill-opacity="0.500000" fill-rule="evenodd"/>
	<path id="矩形 75" d="M8 7.5L16 7.5C17.1 7.5 18 8.39 18 9.5L18 11.25L6 11.25L6 9.5C6 8.39 6.89 7.5 8 7.5Z" fill="#FFC62F" fill-opacity="1.000000" fill-rule="evenodd"/>
	<path id="矩形 74" d="M8 9.75L16 9.75C17.1 9.75 18 10.64 18 11.75L18 13.5L6 13.5L6 11.75C6 10.64 6.89 9.75 8 9.75Z" fill="#FFFFFF" fill-opacity="1.000000" fill-rule="evenodd"/>
	<path id="HUAWEI" d="M4.77 19L4.4 19L4.4 16.06L4.77 16.06L4.77 17.29L6.13 17.29L6.13 16.06L6.5 16.06L6.5 19L6.13 19L6.13 17.61L4.77 17.61L4.77 19ZM9.4 17.78C9.4 18.73 8.95 19.05 8.35 19.05C7.75 19.05 7.29 18.73 7.29 17.78L7.29 16.06L7.67 16.06L7.67 17.79C7.67 18.5 7.97 18.72 8.35 18.72C8.74 18.72 9.05 18.5 9.05 17.79L9.05 16.06L9.4 16.06L9.4 17.78ZM10.11 19L9.73 19L10.73 16.06L11.14 16.06L12.14 19L11.74 19L11.46 18.1L10.39 18.1L10.11 19ZM13.31 19L12.87 19L12.25 16.06L12.63 16.06L12.94 17.66C12.99 17.98 13.06 18.29 13.11 18.61L13.13 18.61C13.19 18.29 13.27 17.98 13.34 17.66L13.74 16.06L14.08 16.06L14.49 17.66C14.56 17.97 14.63 18.29 14.7 18.61L14.72 18.61C14.77 18.29 14.83 17.97 14.89 17.66L15.19 16.06L15.55 16.06L14.94 19L14.5 19L14.06 17.23C14 17 13.96 16.78 13.91 16.56L13.9 16.56C13.85 16.78 13.8 17 13.75 17.23L13.31 19ZM17.79 19L16.06 19L16.06 16.06L17.75 16.06L17.75 16.37L16.43 16.37L16.43 17.29L17.54 17.29L17.54 17.61L16.43 17.61L16.43 18.68L17.79 18.68L17.79 19ZM18.78 19L18.41 19L18.41 16.06L18.78 16.06L18.78 19ZM10.92 16.36C10.83 16.71 10.73 17.02 10.63 17.36L10.48 17.8L11.37 17.8L11.23 17.36C11.12 17.02 11.03 16.7 10.93 16.36L10.92 16.36Z" fill="#FFFFFF" fill-opacity="1.000000" fill-rule="evenodd"/>
</svg>
