<svg width="40.000000" height="40.000000" viewBox="0 0 40 40" fill="none" xmlns="http://www.w3.org/2000/svg" xmlns:xlink="http://www.w3.org/1999/xlink">
	<desc>
			Created with Pixso.
	</desc>
	<defs>
		<clipPath id="clip62_4532">
			<rect id="画板 72" rx="19.500000" width="39.000000" height="39.000000" transform="translate(0.500000 0.500000)" fill="white" fill-opacity="0"/>
		</clipPath>
	</defs>
	<rect id="画板 72" rx="19.500000" width="39.000000" height="39.000000" transform="translate(0.500000 0.500000)" fill="#FFFFFF" fill-opacity="1.000000"/>
	<g clip-path="url(#clip62_4532)">
		<path id="矢量 21" d="M14.04 18.21L25.61 18.21L24.45 30.54C24.38 31.2 23.79 31.71 23.09 31.71L16.56 31.71C15.85 31.71 15.27 31.2 15.2 30.54L14.04 18.21Z" fill="#B9DC4B" fill-opacity="1.000000" fill-rule="evenodd"/>
		<path id="矢量 21" d="M13.7 16.93L25.95 16.93C26.33 16.93 26.63 17.21 26.63 17.57C26.63 17.92 26.33 18.21 25.95 18.21L13.7 18.21C13.32 18.21 13.02 17.92 13.02 17.57C13.02 17.21 13.32 16.93 13.7 16.93Z" fill="#61860B" fill-opacity="1.000000" fill-rule="evenodd"/>
		<path id="矢量 21" d="M23.23 20.78L23.91 20.78L23.91 16.6C23.91 15.54 23 14.68 21.87 14.68C20.74 14.68 19.82 15.54 19.82 16.6L19.82 16.93L20.51 16.93L20.51 16.6C20.51 15.89 21.12 15.32 21.87 15.32C22.62 15.32 23.23 15.89 23.23 16.6L23.23 20.78Z" fill="#9DC521" fill-opacity="1.000000" fill-rule="evenodd"/>
		<path id="矢量 21" d="M22.89 21.42L24.48 21.42C24.67 21.42 24.82 21.57 24.82 21.75L24.82 24.32C24.82 24.49 24.67 24.64 24.48 24.64L22.89 24.64C22.7 24.64 22.55 24.49 22.55 24.32L22.55 21.75C22.55 21.57 22.7 21.42 22.89 21.42Z" fill="#9DC521" fill-opacity="1.000000" fill-rule="evenodd"/>
		<path id="矢量 21" d="M23.27 19.66L22.1 21.59C21.96 21.8 22.13 22.07 22.39 22.07L24.75 22.07C25.01 22.07 25.17 21.8 25.04 21.59L23.86 19.66C23.73 19.44 23.41 19.44 23.27 19.66Z" fill="#61860B" fill-opacity="1.000000" fill-rule="evenodd"/>
		<path id="矢量 21" d="M23.23 20.78C23.23 20.6 23.38 20.46 23.57 20.46C23.76 20.46 23.91 20.6 23.91 20.78C23.91 20.96 23.76 21.1 23.57 21.1C23.38 21.1 23.23 20.96 23.23 20.78Z" fill="#FFFFFF" fill-opacity="1.000000" fill-rule="evenodd"/>
		<path id="矢量 21" d="M12.68 31.71L27.31 31.71C27.69 31.71 28 32 28 32.35C28 32.71 27.69 33 27.31 33L12.68 33C12.3 33 12 32.71 12 32.35C12 32 12.3 31.71 12.68 31.71Z" fill="#9DC521" fill-opacity="0.281609" fill-rule="evenodd"/>
		<path id="矢量 21" d="M15.62 9.22C15.7 9.16 15.75 9.12 15.8 9.09C16.11 8.88 16.17 8.49 15.95 8.19C15.73 7.9 15.31 7.84 15 8.05C14.93 8.09 14.85 8.16 14.75 8.23C14.56 8.39 14.38 8.54 14.22 8.71C13.98 8.95 13.8 9.19 13.66 9.43C13.46 9.76 13.36 10.09 13.36 10.42C13.36 10.74 13.46 11.07 13.66 11.41C13.8 11.65 13.98 11.88 14.22 12.12C14.38 12.29 14.56 12.45 14.75 12.6C14.83 12.66 14.9 12.71 14.96 12.75C14.98 12.78 15.01 12.81 15.05 12.85C15.16 12.97 15.26 13.09 15.35 13.21C15.47 13.37 15.57 13.53 15.63 13.68C15.7 13.84 15.74 13.99 15.74 14.11C15.74 14.24 15.7 14.38 15.63 14.54C15.57 14.69 15.47 14.85 15.35 15.02C15.26 15.14 15.16 15.26 15.05 15.37C15 15.43 14.96 15.47 14.93 15.5C14.65 15.75 14.64 16.15 14.91 16.41C15.17 16.67 15.6 16.67 15.87 16.42C15.93 16.37 15.99 16.31 16.07 16.23C16.21 16.08 16.35 15.92 16.47 15.75C16.65 15.51 16.79 15.27 16.89 15.04C17.03 14.72 17.1 14.41 17.1 14.11C17.1 13.82 17.03 13.51 16.89 13.19C16.79 12.95 16.65 12.71 16.47 12.48C16.35 12.31 16.21 12.15 16.07 12C15.99 11.92 15.93 11.85 15.87 11.8L15.84 11.77L15.8 11.74C15.75 11.71 15.7 11.67 15.62 11.61C15.48 11.5 15.34 11.37 15.22 11.25C15.06 11.09 14.93 10.93 14.85 10.78C14.76 10.64 14.72 10.52 14.72 10.42C14.72 10.32 14.76 10.19 14.85 10.05C14.93 9.9 15.06 9.75 15.22 9.58C15.34 9.46 15.48 9.34 15.62 9.22Z" fill="#9DC521" fill-opacity="0.282353" fill-rule="evenodd"/>
		<path id="矢量 21" d="M20.05 7.29C20.12 7.23 20.18 7.19 20.22 7.16C20.53 6.95 20.6 6.56 20.38 6.27C20.16 5.97 19.74 5.91 19.43 6.12C19.36 6.17 19.27 6.23 19.17 6.31C18.98 6.46 18.81 6.62 18.64 6.78C18.41 7.02 18.22 7.26 18.08 7.5C17.88 7.83 17.78 8.17 17.78 8.49C17.78 8.81 17.88 9.14 18.08 9.48C18.22 9.72 18.41 9.96 18.64 10.2C18.81 10.36 18.98 10.52 19.17 10.67C19.25 10.73 19.32 10.78 19.38 10.83C19.41 10.85 19.44 10.88 19.48 10.92C19.59 11.04 19.69 11.16 19.78 11.28C19.9 11.45 19.99 11.6 20.06 11.75C20.13 11.91 20.17 12.06 20.17 12.18C20.17 12.31 20.13 12.45 20.06 12.62C19.99 12.77 19.9 12.92 19.78 13.09C19.69 13.21 19.59 13.33 19.48 13.45C19.42 13.5 19.38 13.54 19.35 13.57C19.08 13.82 19.07 14.22 19.33 14.48C19.6 14.74 20.02 14.75 20.3 14.5C20.35 14.45 20.42 14.38 20.49 14.3C20.64 14.15 20.77 13.99 20.89 13.82C21.07 13.58 21.21 13.35 21.31 13.11C21.46 12.79 21.53 12.48 21.53 12.18C21.53 11.89 21.46 11.58 21.31 11.26C21.21 11.02 21.07 10.79 20.89 10.55C20.77 10.38 20.64 10.22 20.49 10.07C20.42 9.99 20.35 9.92 20.3 9.87L20.26 9.84L20.22 9.81C20.18 9.79 20.12 9.74 20.05 9.68C19.9 9.57 19.77 9.45 19.64 9.32C19.48 9.16 19.36 9 19.27 8.85C19.19 8.71 19.14 8.59 19.14 8.49C19.14 8.39 19.19 8.27 19.27 8.12C19.36 7.97 19.48 7.82 19.64 7.65C19.77 7.53 19.9 7.41 20.05 7.29Z" fill="#9DC521" fill-opacity="0.282353" fill-rule="evenodd"/>
	</g>
	<rect id="画板 72" rx="19.500000" width="39.000000" height="39.000000" transform="translate(0.500000 0.500000)" stroke="#86AD2B" stroke-opacity="1.000000" stroke-width="1.000000"/>
</svg>
