<svg width="24.000000" height="24.000000" viewBox="0 0 24 24" fill="none" xmlns="http://www.w3.org/2000/svg" xmlns:xlink="http://www.w3.org/1999/xlink">
	<desc>
			Created with Pixso.
	</desc>
	<defs/>
	<path d="M12 0C18.62 0 24 5.37 24 12C24 18.62 18.62 24 12 24C5.37 24 0 18.62 0 12C0 5.37 5.37 0 12 0Z" fill="#9DC540" fill-opacity="1.000000" fill-rule="evenodd"/>
	<path d="M9.13 8.25L14.86 8.25C15.64 8.25 16.28 8.83 16.36 9.6L17.09 17.1C17.17 17.98 16.48 18.75 15.59 18.75L8.4 18.75C7.51 18.75 6.82 17.98 6.9 17.1L7.63 9.6C7.71 8.83 8.35 8.25 9.13 8.25Z" fill="#FFFFFF" fill-opacity="1.000000" fill-rule="evenodd"/>
	<path d="M8.61 9.89L9.23 9.89L9.23 8.65C9.23 8.44 9.25 8.24 9.3 8.04C9.34 7.88 9.39 7.72 9.45 7.57C9.52 7.41 9.59 7.27 9.69 7.13C9.79 6.97 9.91 6.82 10.05 6.68C10.19 6.54 10.33 6.42 10.49 6.32C10.63 6.23 10.78 6.15 10.94 6.08C11.09 6.02 11.24 5.97 11.4 5.93C11.6 5.89 11.81 5.87 12.02 5.87C12.23 5.87 12.44 5.89 12.64 5.93C12.8 5.97 12.96 6.02 13.11 6.08C13.26 6.15 13.41 6.23 13.55 6.32C13.71 6.42 13.86 6.54 13.99 6.68C14.13 6.82 14.25 6.97 14.36 7.13C14.45 7.27 14.53 7.41 14.59 7.57C14.66 7.72 14.71 7.88 14.74 8.04C14.79 8.24 14.81 8.44 14.81 8.65L14.81 9.89L15.43 9.89L15.43 8.65C15.43 8.4 15.4 8.15 15.35 7.91C15.31 7.71 15.24 7.52 15.16 7.33C15.08 7.14 14.98 6.95 14.87 6.78C14.75 6.59 14.6 6.41 14.43 6.24C14.27 6.08 14.09 5.93 13.9 5.8C13.72 5.69 13.54 5.59 13.35 5.51C13.16 5.43 12.96 5.37 12.76 5.33C12.52 5.27 12.28 5.25 12.02 5.25C11.77 5.25 11.52 5.27 11.28 5.33C11.08 5.37 10.88 5.43 10.69 5.51C10.5 5.59 10.32 5.69 10.15 5.8C9.96 5.93 9.78 6.08 9.61 6.24C9.44 6.41 9.3 6.59 9.17 6.78C9.06 6.95 8.96 7.14 8.88 7.33C8.8 7.52 8.74 7.71 8.69 7.91C8.64 8.15 8.61 8.4 8.61 8.65L8.61 9.89Z" fill="#E9FEB7" fill-opacity="1.000000" fill-rule="evenodd"/>
	<path d="M8.25 9.75C8.25 9.33 8.58 9 9 9C9.41 9 9.75 9.33 9.75 9.75C9.75 10.16 9.41 10.5 9 10.5C8.58 10.5 8.25 10.16 8.25 9.75Z" fill="#C1D03A" fill-opacity="1.000000" fill-rule="evenodd"/>
	<path d="M14.25 9.75C14.25 9.33 14.58 9 15 9C15.41 9 15.75 9.33 15.75 9.75C15.75 10.16 15.41 10.5 15 10.5C14.58 10.5 14.25 10.16 14.25 9.75Z" fill="#C1D03A" fill-opacity="1.000000" fill-rule="evenodd"/>
	<path d="M8.56 11.42C8.41 11.47 8.28 11.52 8.18 11.58C7.99 11.67 7.92 11.89 8.01 12.08C8.1 12.27 8.32 12.34 8.51 12.25C8.59 12.21 8.68 12.17 8.8 12.13C9.03 12.06 9.23 12.02 9.41 12.02C9.59 12.02 9.8 12.06 10.03 12.13C10.14 12.17 10.24 12.21 10.31 12.25C10.42 12.3 10.54 12.35 10.69 12.4C11 12.5 11.28 12.55 11.55 12.55C11.81 12.55 12.09 12.5 12.4 12.4C12.55 12.35 12.67 12.3 12.78 12.25C12.97 12.15 13.04 11.93 12.95 11.74C12.85 11.56 12.63 11.48 12.44 11.58C12.37 11.61 12.28 11.65 12.16 11.69C11.93 11.77 11.73 11.8 11.55 11.8C11.36 11.8 11.16 11.77 10.93 11.69C10.81 11.65 10.72 11.61 10.65 11.58C10.54 11.52 10.41 11.47 10.26 11.42C9.96 11.32 9.67 11.27 9.41 11.27C9.15 11.27 8.86 11.32 8.56 11.42Z" fill="#9DC540" fill-opacity="0.400000" fill-rule="evenodd"/>
	<path d="M8.71 14.35C8.52 14.39 8.35 14.44 8.22 14.49C8.02 14.56 7.92 14.78 7.99 14.97C8.06 15.17 8.28 15.27 8.47 15.2C8.58 15.16 8.72 15.12 8.89 15.08C9.23 14.99 9.54 14.95 9.81 14.95C10.09 14.95 10.39 14.99 10.73 15.08C10.9 15.12 11.04 15.16 11.15 15.2C11.29 15.25 11.45 15.3 11.65 15.34C12.04 15.44 12.41 15.49 12.75 15.49C13.08 15.49 13.45 15.44 13.84 15.34C14.04 15.3 14.2 15.25 14.34 15.2C14.54 15.13 14.64 14.91 14.56 14.72C14.49 14.52 14.28 14.42 14.08 14.49C13.97 14.53 13.83 14.57 13.67 14.61C13.33 14.7 13.02 14.74 12.75 14.74C12.47 14.74 12.16 14.7 11.83 14.61C11.66 14.57 11.52 14.53 11.41 14.49C11.27 14.44 11.11 14.39 10.91 14.35C10.51 14.25 10.15 14.2 9.81 14.2C9.48 14.2 9.11 14.25 8.71 14.35Z" fill="#9DC540" fill-opacity="0.800000" fill-rule="evenodd"/>
</svg>
