<svg width="24.000000" height="24.000000" viewBox="0 0 24 24" fill="none" xmlns="http://www.w3.org/2000/svg" xmlns:xlink="http://www.w3.org/1999/xlink">
	<desc>
			Created with Pixso.
	</desc>
	<defs/>
	<path d="M12 0C18.62 0 24 5.37 24 12C24 18.62 18.62 24 12 24C5.37 24 0 18.62 0 12C0 5.37 5.37 0 12 0Z" fill="#9DC540" fill-opacity="1.000000" fill-rule="evenodd"/>
	<path d="M12.83 13.12C15.32 13.12 17.34 15.14 17.34 17.63C17.34 18.09 16.96 18.46 16.5 18.46L7.48 18.46C7.02 18.46 6.65 18.09 6.65 17.63C6.65 15.14 8.67 13.12 11.16 13.12L12.83 13.12Z" fill="#FFFFFF" fill-opacity="0.800000" fill-rule="nonzero"/>
	<path d="M9.32 8.76C9.32 7.29 10.52 6.09 12 6.09C13.47 6.09 14.67 7.29 14.67 8.76C14.67 10.24 13.47 11.43 12 11.43C10.52 11.43 9.32 10.24 9.32 8.76Z" fill="#FFFFFF" fill-opacity="1.000000" fill-rule="evenodd"/>
	<path d="M0 12C0 5.37 5.37 0 12 0C18.62 0 24 5.37 24 12C24 18.62 18.62 24 12 24C5.37 24 0 18.62 0 12ZM17.34 17.63C17.34 18.09 16.96 18.46 16.5 18.46L7.48 18.46C7.02 18.46 6.65 18.09 6.65 17.63C6.65 15.14 8.67 13.12 11.16 13.12L12.83 13.12C15.32 13.12 17.34 15.14 17.34 17.63ZM12 6.09C13.47 6.09 14.67 7.29 14.67 8.76C14.67 10.24 13.47 11.43 12 11.43C10.52 11.43 9.32 10.24 9.32 8.76C9.32 7.29 10.52 6.09 12 6.09Z" stroke="#191919" stroke-opacity="0" stroke-width="1.500000" stroke-linejoin="round"/>
</svg>
