<svg width="24.000000" height="24.000000" viewBox="0 0 24 24" fill="none" xmlns="http://www.w3.org/2000/svg" xmlns:xlink="http://www.w3.org/1999/xlink">
	<desc>
			Created with Pixso.
	</desc>
	<defs/>
	<path d="M12 0C18.62 0 24 5.37 24 12C24 18.62 18.62 24 12 24C5.37 24 0 18.62 0 12C0 5.37 5.37 0 12 0Z" fill="#000000" fill-opacity="0.200000" fill-rule="evenodd"/>
	<path d="M13.62 9.1C14.65 10.08 15.68 11.06 16.71 12.03C16.77 12.1 16.82 12.17 16.86 12.26C16.89 12.35 16.91 12.44 16.91 12.54L16.91 16.49C16.91 16.73 16.86 16.94 16.74 17.13C16.63 17.33 16.48 17.48 16.28 17.59C16.09 17.7 15.88 17.76 15.65 17.76L8.35 17.76C8.12 17.76 7.9 17.7 7.71 17.59C7.51 17.48 7.36 17.33 7.25 17.13C7.22 17.08 7.19 17.02 7.17 16.97C7.11 16.82 7.08 16.66 7.08 16.49L7.08 12.55C7.08 12.46 7.1 12.37 7.14 12.28C7.17 12.19 7.23 12.11 7.3 12.03L11.39 8.15C11.56 7.99 11.76 7.91 11.99 7.91C12.22 7.91 12.42 7.99 12.59 8.15L13.62 9.1Z" fill="#FFFFFF" fill-opacity="1.000000" fill-rule="evenodd"/>
	<path d="M10.32 16.91L10.32 14.35C10.32 13.92 10.48 13.56 10.81 13.27C11.13 12.97 11.53 12.82 12 12.82C12.46 12.82 12.86 12.97 13.18 13.27C13.51 13.56 13.67 13.92 13.67 14.35L13.67 16.91L10.32 16.91Z" fill="#000000" fill-opacity="0.600000" fill-rule="nonzero"/>
	<path d="M6.08 11.7C6.15 11.77 6.25 11.81 6.38 11.82C6.51 11.82 6.6 11.79 6.67 11.71L11.21 7.41C11.44 7.19 11.7 7.08 12 7.08C12.3 7.08 12.57 7.19 12.79 7.41L17.33 11.7C17.41 11.78 17.51 11.82 17.63 11.82C17.74 11.82 17.84 11.78 17.92 11.69C18 11.6 18.03 11.5 18.03 11.39C18.03 11.27 17.99 11.17 17.91 11.09L13.37 6.8C13.12 6.55 12.83 6.39 12.5 6.3C12.16 6.22 11.83 6.22 11.49 6.3C11.16 6.39 10.87 6.55 10.62 6.8L6.09 11.09C6 11.17 5.96 11.27 5.96 11.39C5.96 11.5 6 11.61 6.08 11.7Z" fill="#A8A8A8" fill-opacity="1.000000" fill-rule="nonzero"/>
	<path d="M13.67 14.35C13.67 13.92 13.51 13.56 13.18 13.27C12.86 12.97 12.46 12.82 12 12.82C11.53 12.82 11.13 12.97 10.81 13.27C10.48 13.56 10.32 13.92 10.32 14.35L10.32 16.91L13.67 16.91L13.67 14.35Z" fill="#FFFFFF" fill-opacity="0.400000" fill-rule="nonzero"/>
</svg>
