<svg width="24.000000" height="24.000000" viewBox="0 0 24 24" fill="none" xmlns="http://www.w3.org/2000/svg" xmlns:xlink="http://www.w3.org/1999/xlink">
	<desc>
			Created with Pixso.
	</desc>
	<defs/>
	<path d="M12 0C18.62 0 24 5.37 24 12C24 18.62 18.62 24 12 24C5.37 24 0 18.62 0 12C0 5.37 5.37 0 12 0Z" fill="#9DC540" fill-opacity="1.000000" fill-rule="evenodd"/>
	<path d="M9.73 10.87L14.26 10.87C15.15 10.87 15.85 11.65 15.75 12.53L15.21 17.41C15.13 18.17 14.48 18.74 13.72 18.74L10.27 18.74C9.51 18.74 8.86 18.17 8.78 17.41L8.24 12.53C8.14 11.65 8.84 10.87 9.73 10.87Z" fill="#FFFFFF" fill-opacity="1.000000" fill-rule="evenodd"/>
	<path d="M15.74 12.72C15.45 12.61 15.14 12.56 14.81 12.56C13.25 12.56 12 13.82 12 15.37C12 16.92 13.25 18.18 14.81 18.18C14.85 18.18 14.9 18.18 14.94 18.18C15.12 17.96 15.18 17.71 15.21 17.41L15.74 12.72Z" fill="#C1D03A" fill-opacity="1.000000" fill-rule="evenodd"/>
	<path d="M8.06 9.74L15.93 9.74C16.55 9.74 17.06 10.25 17.06 10.87C17.06 11.49 16.55 11.99 15.93 11.99L8.06 11.99C7.44 11.99 6.93 11.49 6.93 10.87C6.93 10.25 7.44 9.74 8.06 9.74Z" fill="#86AD2B" fill-opacity="1.000000" fill-rule="evenodd"/>
	<path d="M9.18 9.74L14.86 9.74C14.38 8.75 13.29 8.06 12.02 8.06C10.75 8.06 9.66 8.75 9.18 9.74Z" fill="#FFFFFF" fill-opacity="1.000000" fill-rule="evenodd"/>
	<path d="M17.14 6.36C17.45 6.32 17.66 6.04 17.61 5.73C17.57 5.42 17.29 5.21 16.98 5.25C16.64 5.3 16.29 5.36 15.93 5.43C15.6 5.5 15.33 5.56 15.12 5.62C14.98 5.66 14.86 5.71 14.76 5.75C14.61 5.81 14.49 5.89 14.41 5.97C14.31 6.07 14.16 6.29 13.95 6.63C13.79 6.88 13.6 7.2 13.37 7.6C13.11 8.05 12.86 8.48 12.63 8.91C12.48 9.18 12.57 9.52 12.85 9.67C13.12 9.83 13.46 9.73 13.61 9.46C13.85 9.04 14.09 8.6 14.35 8.16C14.57 7.78 14.75 7.46 14.9 7.22C14.99 7.08 15.06 6.97 15.12 6.89C15.15 6.84 15.17 6.81 15.19 6.79C15.24 6.77 15.34 6.73 15.44 6.7C15.62 6.65 15.86 6.59 16.15 6.53C16.49 6.47 16.82 6.41 17.14 6.36Z" fill="#FFFFFF" fill-opacity="0.600000" fill-rule="evenodd"/>
</svg>
