<svg width="24.000000" height="24.000000" viewBox="0 0 24 24" fill="none" xmlns="http://www.w3.org/2000/svg" xmlns:xlink="http://www.w3.org/1999/xlink">
	<desc>
			Created with Pixso.
	</desc>
	<defs>
		<clipPath id="clip63_10399">
			<rect id="ic_public_quit" width="24.000000" height="24.000000" fill="white" fill-opacity="0"/>
		</clipPath>
	</defs>
	<g clip-path="url(#clip63_10399)">
		<path id="path-1" d="M18 2.25L18.19 2.25C20.17 2.35 21.75 3.99 21.75 6C21.75 6.41 21.41 6.75 21 6.75C20.58 6.75 20.25 6.41 20.25 6C20.25 4.75 19.24 3.75 18 3.75L6 3.75L5.84 3.75C4.67 3.83 3.75 4.8 3.75 6L3.75 18L3.75 18.15C3.83 19.32 4.8 20.25 6 20.25L18 20.25L18.15 20.24C19.32 20.16 20.25 19.19 20.25 18C20.25 17.58 20.58 17.25 21 17.25C21.41 17.25 21.75 17.58 21.75 18C21.75 20.07 20.07 21.75 18 21.75L6 21.75L5.8 21.74C3.82 21.64 2.25 20 2.25 18L2.25 6L2.25 5.8C2.35 3.82 3.99 2.25 6 2.25L18 2.25ZM18 2.25Z" fill="#000000" fill-opacity="1.000000" fill-rule="nonzero"/>
		<path id="path-1" d="M18.19 2.25C20.17 2.35 21.75 3.99 21.75 6C21.75 6.41 21.41 6.75 21 6.75C20.58 6.75 20.25 6.41 20.25 6C20.25 4.75 19.24 3.75 18 3.75L6 3.75L5.84 3.75C4.67 3.83 3.75 4.8 3.75 6L3.75 18L3.75 18.15C3.83 19.32 4.8 20.25 6 20.25L18 20.25L18.15 20.24C19.32 20.16 20.25 19.19 20.25 18C20.25 17.58 20.58 17.25 21 17.25C21.41 17.25 21.75 17.58 21.75 18C21.75 20.07 20.07 21.75 18 21.75L6 21.75L5.8 21.74C3.82 21.64 2.25 20 2.25 18L2.25 6L2.25 5.8C2.35 3.82 3.99 2.25 6 2.25L18 2.25L18.19 2.25Z" stroke="#000000" stroke-opacity="0" stroke-width="1.000000"/>
		<path id="path-1" d="M16.11 7.46ZM16.11 7.46C15.83 7.18 15.38 7.17 15.08 7.43L11.76 10.76L11.65 10.88C11.09 11.55 11.11 12.54 11.72 13.19L15.05 16.53C15.34 16.74 15.84 16.79 16.11 16.53C16.39 16.24 16.4 15.79 16.14 15.5L13.39 12.75L21.78 12.75C22.18 12.75 22.5 12.41 22.5 12C22.5 11.58 22.18 11.25 21.78 11.25L13.39 11.25L16.11 8.53C16.33 8.23 16.38 7.73 16.11 7.46Z" fill="#000000" fill-opacity="1.000000" fill-rule="nonzero"/>
		<path id="path-1" d="M15.08 7.43L11.76 10.76L11.65 10.88C11.09 11.55 11.11 12.54 11.72 13.19L15.05 16.53C15.34 16.74 15.84 16.79 16.11 16.53C16.39 16.24 16.4 15.79 16.14 15.5L13.39 12.75L21.78 12.75C22.18 12.75 22.5 12.41 22.5 12C22.5 11.58 22.18 11.25 21.78 11.25L13.39 11.25L16.11 8.53C16.33 8.23 16.38 7.73 16.11 7.46C15.83 7.18 15.38 7.17 15.08 7.43Z" stroke="#000000" stroke-opacity="0" stroke-width="1.000000"/>
	</g>
</svg>
