<svg width="40.000000" height="40.000000" viewBox="0 0 40 40" fill="none" xmlns="http://www.w3.org/2000/svg" xmlns:xlink="http://www.w3.org/1999/xlink">
	<desc>
			Created with Pixso.
	</desc>
	<defs>
		<linearGradient x1="20.000000" y1="40.000000" x2="20.000000" y2="0.000000" id="paint_linear_144_1434_0" gradientUnits="userSpaceOnUse">
			<stop stop-color="#FFFFFF" stop-opacity="0.200000"/>
			<stop offset="1.000000" stop-color="#FFFFFF" stop-opacity="0.600000"/>
		</linearGradient>
	</defs>
	<path d="M0 20.01C0 23.64 0.89 26.98 2.67 30.03C4.45 33.07 6.88 35.5 9.94 37.29C13 39.1 16.35 40 19.97 40C23.6 40 26.95 39.1 30.01 37.29C33.07 35.5 35.5 33.07 37.3 30C39.09 26.94 40 23.61 40 20.01C40 16.39 39.09 13.05 37.3 9.98C35.5 6.92 33.07 4.49 30.01 2.69C26.95 0.89 23.6 0 19.97 0C16.35 0 13 0.89 9.94 2.69C6.88 4.49 4.45 6.92 2.67 9.98C0.89 13.05 0 16.39 0 20.01Z" fill="#999999" fill-opacity="1.000000" fill-rule="nonzero"/>
	<path d="M2.67 30.03C4.45 33.07 6.88 35.5 9.94 37.29C13 39.1 16.35 40 19.97 40C23.6 40 26.95 39.1 30.01 37.29C33.07 35.5 35.5 33.07 37.3 30C39.09 26.94 40 23.61 40 20.01C40 16.39 39.09 13.05 37.3 9.98C35.5 6.92 33.07 4.49 30.01 2.69C26.95 0.89 23.6 0 19.97 0C16.35 0 13 0.89 9.94 2.69C6.88 4.49 4.45 6.92 2.67 9.98C0.89 13.05 0 16.39 0 20.01C0 23.64 0.89 26.98 2.67 30.03Z" stroke="#000000" stroke-opacity="0" stroke-width="1.000000"/>
	<path d="M0 20.01C0 23.64 0.89 26.98 2.67 30.03C4.45 33.07 6.88 35.5 9.94 37.29C13 39.1 16.35 40 19.97 40C23.6 40 26.95 39.1 30.01 37.29C33.07 35.5 35.5 33.07 37.3 30C39.09 26.94 40 23.61 40 20.01C40 16.39 39.09 13.05 37.3 9.98C35.5 6.92 33.07 4.49 30.01 2.69C26.95 0.89 23.6 0 19.97 0C16.35 0 13 0.89 9.94 2.69C6.88 4.49 4.45 6.92 2.67 9.98C0.89 13.05 0 16.39 0 20.01Z" fill="url(#paint_linear_144_1434_0)" fill-opacity="1.000000" fill-rule="nonzero"/>
	<path d="M2.67 30.03C4.45 33.07 6.88 35.5 9.94 37.29C13 39.1 16.35 40 19.97 40C23.6 40 26.95 39.1 30.01 37.29C33.07 35.5 35.5 33.07 37.3 30C39.09 26.94 40 23.61 40 20.01C40 16.39 39.09 13.05 37.3 9.98C35.5 6.92 33.07 4.49 30.01 2.69C26.95 0.89 23.6 0 19.97 0C16.35 0 13 0.89 9.94 2.69C6.88 4.49 4.45 6.92 2.67 9.98C0.89 13.05 0 16.39 0 20.01C0 23.64 0.89 26.98 2.67 30.03Z" stroke="#000000" stroke-opacity="0" stroke-width="1.000000"/>
	<path d="M13.66 13.96C13.65 12.24 14.27 10.75 15.52 9.5C16.18 8.83 16.92 8.35 17.72 8.04C18.42 7.77 19.17 7.65 19.98 7.65C21.7 7.67 23.18 8.3 24.43 9.55C25.11 10.23 25.61 10.98 25.92 11.8C26.18 12.49 26.32 13.22 26.33 14.01C26.34 15.73 25.72 17.21 24.47 18.46C23.81 19.13 23.07 19.62 22.27 19.93C21.57 20.19 20.82 20.32 20.01 20.31C19.24 20.31 18.51 20.17 17.82 19.92C17 19.6 16.24 19.1 15.56 18.42C14.88 17.74 14.38 16.99 14.07 16.17C13.81 15.48 13.67 14.74 13.66 13.96ZM10.9 34.04C11.63 34.51 12.39 34.92 13.19 35.28C13.58 35.46 13.97 35.62 14.38 35.76C16.14 36.39 18.01 36.7 19.99 36.7C22.37 36.7 24.61 36.24 26.72 35.31C27.29 35.06 27.84 34.78 28.37 34.47C29.8 33.62 31.11 32.55 32.29 31.26C32.14 30.82 31.97 30.38 31.76 29.96C31.28 28.99 30.63 28.1 29.82 27.28C29.41 26.87 28.98 26.5 28.52 26.15C27.69 25.52 26.77 25 25.78 24.59C24.35 23.99 22.92 23.67 21.47 23.63C21.36 23.63 21.25 23.63 21.14 23.63L18.85 23.63C18.74 23.63 18.63 23.63 18.52 23.63C17.07 23.67 15.64 23.99 14.21 24.59C13.27 24.98 12.39 25.47 11.59 26.06C11.08 26.43 10.6 26.84 10.15 27.28C9.29 28.13 8.62 29.06 8.13 30.09C7.94 30.47 7.78 30.86 7.65 31.26C8.64 32.34 9.72 33.26 10.9 34.04Z" fill="#FFFFFF" fill-opacity="0.894118" fill-rule="evenodd"/>
	<path d="M15.52 9.5C16.18 8.83 16.92 8.35 17.72 8.04C18.42 7.77 19.17 7.65 19.98 7.65C21.7 7.67 23.18 8.3 24.43 9.55C25.11 10.23 25.61 10.98 25.92 11.8C26.18 12.49 26.32 13.22 26.33 14.01C26.34 15.73 25.72 17.21 24.47 18.46C23.81 19.13 23.07 19.62 22.27 19.93C21.57 20.19 20.82 20.32 20.01 20.31C19.24 20.31 18.51 20.17 17.82 19.92C17 19.6 16.24 19.1 15.56 18.42C14.88 17.74 14.38 16.99 14.07 16.17C13.81 15.48 13.67 14.74 13.66 13.96C13.65 12.24 14.27 10.75 15.52 9.5ZM13.19 35.28C13.58 35.46 13.97 35.62 14.38 35.76C16.14 36.39 18.01 36.7 19.99 36.7C22.37 36.7 24.61 36.24 26.72 35.31C27.29 35.06 27.84 34.78 28.37 34.47C29.8 33.62 31.11 32.55 32.29 31.26C32.14 30.82 31.97 30.38 31.76 29.96C31.28 28.99 30.63 28.1 29.82 27.28C29.41 26.87 28.98 26.5 28.52 26.15C27.69 25.52 26.77 25 25.78 24.59C24.35 23.99 22.92 23.67 21.47 23.63C21.36 23.63 21.25 23.63 21.14 23.63L18.85 23.63C18.74 23.63 18.63 23.63 18.52 23.63C17.07 23.67 15.64 23.99 14.21 24.59C13.27 24.98 12.39 25.47 11.59 26.06C11.08 26.43 10.6 26.84 10.15 27.28C9.29 28.13 8.62 29.06 8.13 30.09C7.94 30.47 7.78 30.86 7.65 31.26C8.64 32.34 9.72 33.26 10.9 34.04C11.63 34.51 12.39 34.92 13.19 35.28Z" stroke="#000000" stroke-opacity="0" stroke-width="1.000000"/>
</svg>
