<?xml version="1.0" standalone="no"?>
<svg xmlns="http://www.w3.org/2000/svg" width="24" height="24"><rect width="24" height="24" opacity="0"></rect><g><path d="M22.99 12.1Q22.99 9.22 21.6 6.72Q20.21 4.22 17.81 2.69Q15.41 1.15 12.53 1.01Q10.34 0.91 8.29 1.63Q6.24 2.35 4.61 3.84Q2.98 5.33 2.05 7.3Q1.13 9.26 1.01 11.47Q0.91 13.66 1.63 15.71Q2.35 17.76 3.84 19.39Q5.33 21.02 7.3 21.95Q9.26 22.87 11.47 22.97Q13.9 22.97 15.68 22.38Q17.47 21.79 19.2 20.28Q19.44 20.09 19.46 19.78Q19.49 19.46 19.27 19.22Q19.08 18.98 18.77 18.96Q18.46 18.94 18.22 19.15Q16.82 20.38 15.1 20.98Q13.37 21.58 11.52 21.48Q9.62 21.38 7.92 20.58Q6.22 19.78 4.94 18.36Q3.67 16.97 3.04 15.2Q2.4 13.44 2.5 11.54Q2.59 9.65 3.38 7.94Q4.18 6.24 5.59 4.97Q6.98 3.67 8.75 3.04Q10.51 2.4 12.43 2.5Q14.93 2.62 16.99 3.92Q19.06 5.23 20.26 7.37Q21.46 9.5 21.46 12L19.85 12Q19.73 12 19.63 12.08Q19.54 12.17 19.51 12.29Q19.49 12.41 19.56 12.53L21.62 15.89Q21.7 16.01 21.83 16.04Q21.96 16.08 22.09 16.03Q22.22 15.98 22.27 15.84Q22.58 15 22.79 13.96Q22.99 12.91 22.99 12.1Z" fill="rgba(0,0,0,0.9019607843137255)"></path></g></svg>