<svg width="24.000000" height="24.000000" viewBox="0 0 24 24" fill="none" xmlns="http://www.w3.org/2000/svg" xmlns:xlink="http://www.w3.org/1999/xlink">
	<desc>
			Created with Pixso.
	</desc>
	<g>
		<path d="M9.37 18.33C9.2 18.33 9.03 18.26 8.9 18.13C8.64 17.87 8.64 17.45 8.9 17.19L13.86 12.23C13.94 12.15 13.95 12.05 13.95 12C13.95 11.94 13.94 11.84 13.86 11.76L8.9 6.8C8.64 6.54 8.64 6.12 8.9 5.86C9.16 5.6 9.58 5.6 9.84 5.86L14.8 10.82C15.11 11.13 15.29 11.55 15.29 12C15.29 12.44 15.11 12.86 14.8 13.17L9.84 18.13C9.71 18.26 9.54 18.33 9.37 18.33Z" fill="#000000" fill-opacity="0.860000"/>
	</g>
</svg>
