<svg width="120.000000" height="120.000000" viewBox="0 0 120 120" fill="none" xmlns="http://www.w3.org/2000/svg" xmlns:xlink="http://www.w3.org/1999/xlink">
	<desc>
			Created with Pixso.
	</desc>
	<defs>
		<clipPath id="clip134_459">
			<rect width="120.000000" height="120.000000" fill="white" fill-opacity="0"/>
		</clipPath>
	</defs>
	<g clip-path="url(#clip134_459)">
		<g opacity="0.600000">
			<path d="M85.58 46.09L76.71 46.09L76.71 21.72C76.71 18.71 74.27 16.26 71.25 16.26L80.12 16.26C83.13 16.26 85.58 18.71 85.58 21.72L85.58 46.09Z" fill="#A1A7B3" fill-opacity="1.000000" fill-rule="evenodd"/>
			<path d="M76.71 46.09L76.71 21.72C76.71 18.71 74.27 16.26 71.25 16.26L80.12 16.26C83.13 16.26 85.58 18.71 85.58 21.72L85.58 46.09L76.71 46.09Z" stroke="#000000" stroke-opacity="0" stroke-width="1.000000"/>
		</g>
		<g opacity="0.300000">
			<path d="M28.6 16.26L28.59 16.43L28.59 26.95C28.59 27.2 28.66 27.45 28.79 27.66C29.16 28.26 29.92 28.48 30.55 28.18L30.67 28.11L32.31 27.1C32.71 26.86 33.19 26.84 33.6 27.03L33.74 27.1L35.38 28.11C35.59 28.24 35.84 28.31 36.09 28.31C36.8 28.31 37.38 27.77 37.45 27.08L37.46 26.95L37.46 16.43L37.45 16.26L71.25 16.26C74.27 16.26 76.71 18.71 76.71 21.72L76.71 46.08L85.58 46.08L85.58 59.02C83.79 58.39 81.88 58.05 79.88 58.05C70.44 58.05 62.78 65.7 62.78 75.14C62.78 84.58 70.44 92.24 79.88 92.24C81.88 92.24 83.79 91.9 85.58 91.27L85.58 94.31C85.58 97.32 83.13 99.77 80.12 99.77L26.45 99.77C23.44 99.77 21 97.32 21 94.31L21 21.72C21 18.71 23.44 16.26 26.45 16.26L28.6 16.26Z" fill="#A1A7B3" fill-opacity="1.000000" fill-rule="evenodd"/>
			<path d="M28.59 16.43L28.59 26.95C28.59 27.2 28.66 27.45 28.79 27.66C29.16 28.26 29.92 28.48 30.55 28.18L30.67 28.11L32.31 27.1C32.71 26.86 33.19 26.84 33.6 27.03L33.74 27.1L35.38 28.11C35.59 28.24 35.84 28.31 36.09 28.31C36.8 28.31 37.38 27.77 37.45 27.08L37.46 26.95L37.46 16.43L37.45 16.26L71.25 16.26C74.27 16.26 76.71 18.71 76.71 21.72L76.71 46.08L85.58 46.08L85.58 59.02C83.79 58.39 81.88 58.05 79.88 58.05C70.44 58.05 62.78 65.7 62.78 75.14C62.78 84.58 70.44 92.24 79.88 92.24C81.88 92.24 83.79 91.9 85.58 91.27L85.58 94.31C85.58 97.32 83.13 99.77 80.12 99.77L26.45 99.77C23.44 99.77 21 97.32 21 94.31L21 21.72C21 18.71 23.44 16.26 26.45 16.26L28.6 16.26L28.59 16.43Z" stroke="#000000" stroke-opacity="0" stroke-width="1.000000"/>
		</g>
		<g opacity="0.800000">
			<path d="M85.58 91.27L85.58 94.3C85.58 97.32 83.13 99.76 80.12 99.76L76.71 99.76L76.71 91.95C77.74 92.14 78.8 92.24 79.88 92.24C81.88 92.24 83.79 91.9 85.58 91.27Z" fill="#A1A7B3" fill-opacity="1.000000" fill-rule="evenodd"/>
			<path d="M85.58 94.3C85.58 97.32 83.13 99.76 80.12 99.76L76.71 99.76L76.71 91.95C77.74 92.14 78.8 92.24 79.88 92.24C81.88 92.24 83.79 91.9 85.58 91.27L85.58 94.3Z" stroke="#000000" stroke-opacity="0" stroke-width="1.000000"/>
		</g>
		<g opacity="0.800000">
			<path d="M85.58 46.09L85.58 59.02C83.79 58.39 81.88 58.05 79.88 58.05C78.8 58.05 77.74 58.15 76.71 58.34L76.71 46.09L85.58 46.09Z" fill="#A1A7B3" fill-opacity="1.000000" fill-rule="evenodd"/>
			<path d="M85.58 59.02C83.79 58.39 81.88 58.05 79.88 58.05C78.8 58.05 77.74 58.15 76.71 58.34L76.71 46.09L85.58 46.09L85.58 59.02Z" stroke="#000000" stroke-opacity="0" stroke-width="1.000000"/>
		</g>
		<g opacity="0.600000">
			<path d="M36.09 15L36.22 15L38.11 15C38.62 15 39.04 15.42 39.36 16.26L37.45 16.26L37.46 27.67C37.46 28.43 36.85 29.04 36.09 29.04C35.83 29.04 35.57 28.96 35.35 28.82L33.77 27.79C33.32 27.5 32.73 27.5 32.28 27.79L30.7 28.82C30.07 29.23 29.22 29.05 28.81 28.42C28.67 28.2 28.59 27.94 28.59 27.67L28.59 16.36C28.59 15.61 29.2 15 29.96 15L36.09 15Z" fill="#A1A7B3" fill-opacity="1.000000" fill-rule="evenodd"/>
			<path d="M36.22 15L38.11 15C38.62 15 39.04 15.42 39.36 16.26L37.45 16.26L37.46 27.67C37.46 28.43 36.85 29.04 36.09 29.04C35.83 29.04 35.57 28.96 35.35 28.82L33.77 27.79C33.32 27.5 32.73 27.5 32.28 27.79L30.7 28.82C30.07 29.23 29.22 29.05 28.81 28.42C28.67 28.2 28.59 27.94 28.59 27.67L28.59 16.36C28.59 15.61 29.2 15 29.96 15L36.09 15L36.22 15Z" stroke="#000000" stroke-opacity="0" stroke-width="1.000000"/>
		</g>
		<g opacity="0.400000">
			<path d="M48.9 53.49C53.89 53.49 56.15 56.7 57 58.34L57.11 58.56C57.16 58.66 57.2 58.75 57.24 58.84C57.35 59.07 57.44 59.35 57.53 59.66C57.93 61.11 57.07 62.62 55.62 63.02C55.38 63.08 55.14 63.11 54.9 63.11L42.89 63.11C41.38 63.11 40.16 61.89 40.16 60.38C40.16 60.13 40.19 59.88 40.26 59.63C40.35 59.33 40.45 59.07 40.55 58.84C41.18 57.5 43.33 53.49 48.9 53.49ZM52.95 53.24C57.15 53.24 60.55 56.64 60.55 60.83C60.55 61.63 59.94 62.28 59.17 62.35L59.03 62.35L58.87 62.36C58.95 62.26 59 62.15 59.02 62.02L59.03 61.59C59.03 57.86 56.53 54.64 52.95 53.24ZM48.9 43.36C51.41 43.36 53.46 45.4 53.46 47.92C53.46 50.44 51.41 52.48 48.9 52.48C46.38 52.48 44.34 50.44 44.34 47.92C44.34 45.4 46.38 43.36 48.9 43.36ZM51.68 42.85C54.2 42.85 56.24 44.89 56.24 47.41C56.24 49.51 54.82 51.28 52.88 51.81C53.86 50.81 54.47 49.43 54.47 47.92C54.47 45.69 53.16 43.76 51.26 42.87L51.47 42.86L51.68 42.85Z" fill="#A1A7B3" fill-opacity="1.000000" fill-rule="nonzero"/>
			<path d="M57 58.34L57.11 58.56C57.16 58.66 57.2 58.75 57.24 58.84C57.35 59.07 57.44 59.35 57.53 59.66C57.93 61.11 57.07 62.62 55.62 63.02C55.38 63.08 55.14 63.11 54.9 63.11L42.89 63.11C41.38 63.11 40.16 61.89 40.16 60.38C40.16 60.13 40.19 59.88 40.26 59.63C40.35 59.33 40.45 59.07 40.55 58.84C41.18 57.5 43.33 53.49 48.9 53.49C53.89 53.49 56.15 56.7 57 58.34ZM60.55 60.83C60.55 61.63 59.94 62.28 59.17 62.35L59.03 62.35L58.87 62.36C58.95 62.26 59 62.15 59.02 62.02L59.03 61.59C59.03 57.86 56.53 54.64 52.95 53.24C57.15 53.24 60.55 56.64 60.55 60.83ZM53.46 47.92C53.46 50.44 51.41 52.48 48.9 52.48C46.38 52.48 44.34 50.44 44.34 47.92C44.34 45.4 46.38 43.36 48.9 43.36C51.41 43.36 53.46 45.4 53.46 47.92ZM56.24 47.41C56.24 49.51 54.82 51.28 52.88 51.81C53.86 50.81 54.47 49.43 54.47 47.92C54.47 45.69 53.16 43.76 51.26 42.87L51.47 42.86L51.68 42.85C54.2 42.85 56.24 44.89 56.24 47.41Z" stroke="#000000" stroke-opacity="0" stroke-width="1.000000"/>
		</g>
		<g opacity="0.800000">
			<path d="M92.43 86.75L95.79 90.11C96.71 89.79 97.77 89.99 98.5 90.72L106.87 99.09C107.89 100.11 107.89 101.76 106.87 102.77C105.85 103.79 104.2 103.79 103.19 102.77L94.82 94.41C94.09 93.67 93.88 92.61 94.21 91.69L90.81 88.29C91.38 87.81 91.92 87.3 92.43 86.75Z" fill="#A1A7B3" fill-opacity="1.000000" fill-rule="evenodd"/>
			<path d="M95.79 90.11C96.71 89.79 97.77 89.99 98.5 90.72L106.87 99.09C107.89 100.11 107.89 101.76 106.87 102.77C105.85 103.79 104.2 103.79 103.19 102.77L94.82 94.41C94.09 93.67 93.88 92.61 94.21 91.69L90.81 88.29C91.38 87.81 91.92 87.3 92.43 86.75L95.79 90.11Z" stroke="#000000" stroke-opacity="0" stroke-width="1.000000"/>
		</g>
		<g opacity="0.600000">
			<path d="M79.88 58.05C89.32 58.05 96.97 65.7 96.97 75.14C96.97 84.58 89.32 92.24 79.88 92.24C70.44 92.24 62.78 84.58 62.78 75.14C62.78 65.7 70.44 58.05 79.88 58.05ZM79.88 61.85C72.53 61.85 66.58 67.8 66.58 75.14C66.58 82.49 72.53 88.44 79.88 88.44C87.22 88.44 93.17 82.49 93.17 75.14C93.17 67.8 87.22 61.85 79.88 61.85Z" fill="#A1A7B3" fill-opacity="1.000000" fill-rule="evenodd"/>
			<path d="M96.97 75.14C96.97 84.58 89.32 92.24 79.88 92.24C70.44 92.24 62.78 84.58 62.78 75.14C62.78 65.7 70.44 58.05 79.88 58.05C89.32 58.05 96.97 65.7 96.97 75.14ZM66.58 75.14C66.58 82.49 72.53 88.44 79.88 88.44C87.22 88.44 93.17 82.49 93.17 75.14C93.17 67.8 87.22 61.85 79.88 61.85C72.53 61.85 66.58 67.8 66.58 75.14Z" stroke="#000000" stroke-opacity="0" stroke-width="1.000000"/>
		</g>
		<g opacity="0.200000">
			<circle cx="79.882324" cy="75.148438" r="13.296015" fill="#A1A7B3" fill-opacity="1.000000"/>
			<circle cx="79.882324" cy="75.148438" r="13.296015" stroke="#000000" stroke-opacity="0" stroke-width="1.000000"/>
		</g>
		<g opacity="0.300000">
			<path d="M89.38 72.98L87.74 79.1C87.65 79.44 87.3 79.64 86.96 79.55C86.62 79.46 86.42 79.11 86.51 78.77L88.15 72.65C88.24 72.32 88.59 72.12 88.93 72.21C89.27 72.3 89.47 72.64 89.38 72.98Z" fill="#A1A7B3" fill-opacity="1.000000" fill-rule="evenodd"/>
			<path d="M87.74 79.1C87.65 79.44 87.3 79.64 86.96 79.55C86.62 79.46 86.42 79.11 86.51 78.77L88.15 72.65C88.24 72.32 88.59 72.12 88.93 72.21C89.27 72.3 89.47 72.64 89.38 72.98L87.74 79.1Z" stroke="#000000" stroke-opacity="0" stroke-width="1.000000"/>
		</g>
		<g opacity="0.300000">
			<path d="M86.99 70.38L86.33 72.83C86.24 73.17 85.89 73.37 85.55 73.28C85.22 73.19 85.02 72.84 85.11 72.5L85.76 70.06C85.85 69.72 86.2 69.52 86.54 69.61C86.88 69.7 87.08 70.05 86.99 70.38Z" fill="#A1A7B3" fill-opacity="1.000000" fill-rule="evenodd"/>
			<path d="M86.33 72.83C86.24 73.17 85.89 73.37 85.55 73.28C85.22 73.19 85.02 72.84 85.11 72.5L85.76 70.06C85.85 69.72 86.2 69.52 86.54 69.61C86.88 69.7 87.08 70.05 86.99 70.38L86.33 72.83Z" stroke="#000000" stroke-opacity="0" stroke-width="1.000000"/>
		</g>
	</g>
</svg>
