<?xml version="1.0" standalone="no"?><!DOCTYPE svg PUBLIC "-//W3C//DTD SVG 1.1//EN"
        "http://www.w3.org/Graphics/SVG/1.1/DTD/svg11.dtd">
<svg t="1744200097322" class="icon" viewBox="0 0 1024 1024" version="1.1" xmlns="http://www.w3.org/2000/svg"
     p-id="10813" xmlns:xlink="http://www.w3.org/1999/xlink" width="16" height="16">
    <path d="M512 512m-448 0a448 448 0 1 0 896 0 448 448 0 1 0-896 0Z" fill="#E23122" p-id="10814"></path>
    <path d="M474.88 224s-40.96-1.856-66.944 31.872c-26.112 33.664-6.528 85.12 5.824 111.68 12.352 26.496 77.632 130.688 80 132.928 2.368 2.304 5.248 1.344 5.376-0.704 0.192-2.048 7.488-151.36 1.6-188.16-5.888-36.8-23.232-83.584-25.92-87.616zM333.504 293.44c-4.672 0.448-38.208 33.92-41.216 66.56-3.008 32.704 10.944 54.464 50.048 80.512 39.296 27.904 132.8 79.168 134.464 74.752 1.728-4.416-36.16-71.808-67.2-120.832-31.104-49.024-71.424-101.504-76.096-100.992z m12.608 301.504c28.288 12.672 72.32-15.744 84.48-24l32.32-24.576-160.256 4.288s15.168 31.68 43.456 44.288z m4.032-129.472c-28.736-14.4-87.68-47.36-90.048-46.72-2.304 0.64-11.2 41.6 7.296 72.576 18.432 30.912 54.4 40.32 70.848 42.88 18.56 2.688 127.616 1.472 126.848-0.704-0.64-1.92-86.272-53.76-114.944-68.032z m265.856-209.6C590.08 222.08 549.184 224 549.184 224c-2.688 4.032-20.096 50.816-25.92 87.68-5.888 36.736 1.408 186.048 1.6 188.096 0.128 2.048 3.008 3.008 5.376 0.704 2.368-2.24 67.648-106.432 80-132.928 12.352-26.56 31.936-78.08 5.824-111.68z m147.776 162.88c-2.304-0.64-61.312 32.32-90.048 46.72-28.672 14.336-114.304 66.112-114.944 68.032-0.768 2.176 108.288 3.392 126.848 0.704 16.448-2.56 52.416-11.968 70.848-42.88 18.496-30.912 9.6-72 7.296-72.576zM593.28 570.88c12.16 8.256 56.32 36.672 84.608 24 28.224-12.608 43.456-44.288 43.456-44.288l-160.32-4.288 32.256 24.576z m138.368-210.88c-3.008-32.704-36.544-66.176-41.216-66.624-4.672-0.512-45.056 51.968-76.096 100.992-31.04 49.024-68.928 116.48-67.2 120.832 1.664 4.48 95.168-46.848 134.464-74.752 39.04-26.048 53.12-47.808 50.048-80.448zM571.584 738.752c0.896-2.176 1.6-3.456 2.048-4.864 5.76-17.024 11.392-34.112 17.088-51.2 0.896-2.816 2.56-3.904 5.568-4.096 10.56-0.576 10.624-0.64 13.952 9.152l15.68 47.104c0.32 1.024 0.96 1.984 1.408 3.008h1.28l4.096-12.416 14.08-43.008c0.768-2.56 2.24-3.648 4.992-3.584 3.84 0.064 7.744 0 11.648-0.128 2.88-0.064 3.52 1.28 2.56 3.84-9.6 27.136-19.264 54.272-28.8 81.536-1.152 3.264-2.944 4.608-6.4 4.48-12.416-0.256-10.24 1.728-14.4-10.56-4.352-12.672-8.96-25.216-13.44-37.824l-3.008-8.896c-1.088 1.408-1.856 1.92-2.112 2.688-6.016 16.96-12.032 33.92-17.92 50.944-0.832 2.56-2.112 3.84-4.8 3.648h-0.832c-10.56 0.256-10.752 0.32-14.272-9.472-8.064-22.4-15.936-44.928-23.872-67.392-1.024-2.816-2.24-5.632-3.2-8.512-1.152-3.328-0.32-4.416 3.136-4.48 3.328 0 6.72 0.32 10.048 0 4.032-0.384 5.888 1.664 6.912 5.056a4402.624 4402.624 0 0 0 16.768 51.712c0.32 0.832 0.896 1.536 1.792 3.2zM328.512 723.584c0 13.376-0.128 26.688 0.064 40.064 0 3.84-1.216 5.376-5.12 4.992-2.688-0.256-5.376 0-8.064 0-5.248-0.128-5.504-0.384-5.568-5.44 0-8.704-0.128-17.472 0.064-26.24 0.064-3.648-1.28-4.864-4.928-4.8-10.496 0.128-20.992 0.192-31.424 0-3.84 0-5.248 1.472-5.12 5.184 0.128 8.832-0.128 17.728 0 26.624 0.064 3.392-1.024 4.864-4.544 4.672-3.392-0.192-6.72-0.064-10.112 0-2.816 0-4.16-1.088-4.16-4.032V682.88c0-2.688 1.152-4.16 4.096-4.096 3.2 0.128 6.464 0.064 9.664-0.128 3.776-0.256 5.312 1.088 5.184 4.992-0.256 8.64-0.128 17.28-0.128 25.856 0 5.184 0.256 5.44 5.376 5.44 10.496 0 20.992-0.128 31.424 0 3.584 0.128 4.736-1.28 4.672-4.608-0.128-8.896 0-17.728-0.128-26.624 0-3.584 1.28-5.12 4.928-4.928 3.072 0.128 6.208 0.128 9.28 0 3.52-0.192 4.608 1.408 4.608 4.736-0.128 13.376 0 26.752 0 40.128zM682.048 723.2v-39.232c0-4.736 0.448-5.12 5.312-5.12l56-0.064c5.312 0 5.888 0.512 5.824 5.632-0.064 12.096 1.408 10.688-11.008 10.752h-32.64c-4.928 0-5.12 0.192-5.12 5.12-0.064 2.816 0.192 5.632 0 8.384-0.384 3.584 0.896 4.992 4.672 4.864 8.064-0.256 16.128 0 24.192-0.128 3.2-0.064 4.736 1.088 4.736 4.288 0 15.168 0.832 11.904-11.584 12.16-5.504 0.192-11.008 0-16.512 0-5.248 0.064-5.504 0.384-5.504 5.376v11.136c-0.064 5.504 0.256 5.888 5.76 5.888h38.656c5.888 0 6.016 0 5.952 5.632 0 12.288 1.344 10.56-10.56 10.624h-51.968c-5.952 0-6.272-0.32-6.208-6.4v-38.848zM353.92 683.648c-0.064-3.52 0.96-5.184 4.8-4.928 3.072 0.256 6.144 0.192 9.216 0 3.904-0.192 4.8 1.856 4.8 5.12-0.064 15.104-0.128 30.208 0 45.312 0.128 6.528 0.64 13.056 5.888 17.92 6.848 6.4 15.104 6.912 23.36 4.032a16.896 16.896 0 0 0 11.712-16.512c0.32-16.256 0.256-32.576 0.256-48.832 0-7.04 0-7.168 7.04-7.104 13.184 0 11.712-2.112 11.776 11.52 0 13.632 0.128 27.264-0.064 40.896-0.192 11.136-2.56 21.824-11.776 29.248a39.04 39.04 0 0 1-15.744 8.064c-14.208 3.008-28.224 2.496-39.808-7.936a33.984 33.984 0 0 1-10.944-24c-0.576-8.96-0.32-44.16-0.512-52.8zM528.576 768.512c-10.368-0.128-9.088 1.536-13.312-8.704-4.16-9.984-4.224-9.984-15.232-9.984-8.576 0-17.216 0.128-25.792-0.064-3.648-0.128-5.76 1.344-7.04 4.608-1.536 3.84-3.072 7.68-5.12 11.136a6.912 6.912 0 0 1-4.544 2.944c-3.84 0.448-7.808 0.128-11.712 0.128-2.88 0-3.392-1.28-2.24-3.84 12.224-27.264 24.512-54.528 36.608-81.92 1.28-2.816 3.008-4.096 6.08-4.096 14.272 0.256 11.136-2.048 16.64 10.304l33.536 74.688c1.92 4.16 1.536 4.8-3.072 4.8H528.64z m-38.784-34.88h6.4c7.616 0 7.68 0 4.8-6.72l-0.576-1.472c-2.88-6.592-5.696-13.12-8.64-19.648-0.32-0.832-1.344-1.344-2.112-2.048-0.512 0.576-1.216 1.024-1.472 1.664l-10.496 24.32c-1.152 2.688-0.32 3.84 2.432 3.84 3.2 0.128 6.4 0 9.6 0.064zM772.928 723.968v-39.296c0-5.952 0.256-6.08 6.08-5.952h1.984c11.648 0.128 10.112-1.28 10.112 9.856v74.624c0 5.12-0.256 5.312-5.504 5.312h-8.832c-3.072 0.128-3.904-1.344-3.904-4.096v-40.448z"
          fill="#FFFFFF" p-id="10815"></path>
</svg>