<svg width="16.000000" height="16.000000" viewBox="0 0 16 16" fill="none" xmlns="http://www.w3.org/2000/svg" xmlns:xlink="http://www.w3.org/1999/xlink">
	<desc>
			Created with Pixso.
	</desc>
	<defs>
		<clipPath id="clip133_5874">
			<rect width="16.000000" height="16.000000" fill="white" fill-opacity="0"/>
		</clipPath>
	</defs>
	<g clip-path="url(#clip133_5874)">
		<g opacity="0.000000">
			<rect width="16.000000" height="16.000000" fill="#000000" fill-opacity="1.000000"/>
		</g>
		<path d="M7.77 15.43C8.24 15.43 8.67 15.32 9.07 15.08C9.47 14.85 9.79 14.54 10.03 14.14C10.26 13.74 10.38 13.3 10.38 12.83L10.38 8.31C10.38 7.83 10.26 7.39 10.04 7C9.81 6.6 9.5 6.28 9.09 6.06C8.7 5.82 8.27 5.7 7.81 5.7L7.81 6.75C8.23 6.75 8.59 6.9 8.89 7.2C9.19 7.51 9.33 7.87 9.33 8.31L9.33 12.83C9.33 13.25 9.18 13.62 8.88 13.93C8.58 14.24 8.21 14.39 7.77 14.39L3.14 14.39C2.72 14.39 2.35 14.24 2.04 13.93C1.73 13.62 1.57 13.25 1.57 12.83L1.57 8.31C1.57 7.87 1.73 7.51 2.04 7.2C2.35 6.9 2.72 6.75 3.14 6.75L4.66 6.75L4.66 5.7L3.14 5.7C2.68 5.7 2.24 5.82 1.84 6.06C1.44 6.3 1.13 6.62 0.89 7.02C0.65 7.41 0.53 7.85 0.53 8.31L0.53 12.83C0.53 13.3 0.65 13.74 0.89 14.14C1.13 14.54 1.44 14.85 1.84 15.08C2.24 15.32 2.68 15.43 3.14 15.43L7.77 15.43ZM12.83 10.39C13.3 10.39 13.74 10.28 14.14 10.05C14.54 9.81 14.85 9.5 15.09 9.1C15.32 8.7 15.44 8.26 15.44 7.79L15.44 3.16C15.44 2.69 15.32 2.26 15.09 1.85C14.85 1.45 14.54 1.14 14.14 0.91C13.74 0.67 13.3 0.56 12.83 0.56L8.33 0.56C7.86 0.56 7.42 0.67 7.02 0.91C6.63 1.14 6.31 1.45 6.07 1.85C5.84 2.26 5.72 2.69 5.72 3.16L5.72 7.79C5.72 8.27 5.83 8.7 6.06 9.1C6.28 9.51 6.59 9.82 6.98 10.06C7.38 10.28 7.81 10.39 8.28 10.39L8.28 9.33C7.86 9.33 7.5 9.19 7.2 8.89C6.91 8.6 6.76 8.22 6.76 7.79L6.76 3.16C6.76 2.72 6.92 2.35 7.22 2.06C7.54 1.75 7.91 1.6 8.33 1.6L12.83 1.6C13.27 1.6 13.64 1.75 13.94 2.06C14.24 2.35 14.4 2.72 14.4 3.16L14.4 7.79C14.4 8.21 14.24 8.58 13.94 8.89C13.62 9.18 13.25 9.33 12.83 9.33L11.42 9.33L11.42 10.39L12.83 10.39Z" fill="#000000" fill-opacity="0.898039" fill-rule="nonzero"/>
	</g>
</svg>
