<svg width="24.000000" height="24.000000" viewBox="0 0 24 24" fill="none" xmlns="http://www.w3.org/2000/svg" xmlns:xlink="http://www.w3.org/1999/xlink">
	<desc>
			Created with Pixso.
	</desc>
	<defs>
		<filter id="filter_67_703_dd" x="2.963135" y="6.236816" width="17.964600" height="14.765137" filterUnits="userSpaceOnUse" color-interpolation-filters="sRGB">
			<feFlood flood-opacity="0" result="BackgroundImageFix"/>
			<feColorMatrix in="SourceAlpha" type="matrix" values="0 0 0 0 0 0 0 0 0 0 0 0 0 0 0 0 0 0 127 0" result="hardAlpha"/>
			<feOffset dx="0.0493555" dy="1.41335"/>
			<feGaussianBlur stdDeviation="0.666667"/>
			<feComposite in2="hardAlpha" operator="out" k2="-1" k3="1"/>
			<feColorMatrix type="matrix" values="0 0 0 0 0 0 0 0 0 0 0 0 0 0 0 0 0 0 0.1 0"/>
			<feBlend mode="normal" in2="BackgroundImageFix" result="effect_dropShadow_1"/>
			<feBlend mode="normal" in="SourceGraphic" in2="effect_dropShadow_1" result="shape"/>
		</filter>
	</defs>
	<rect x="2.000000" y="2.000000" rx="10.000000" width="20.000000" height="20.000000" fill="#64BB5C" fill-opacity="1.000000"/>
	<g filter="url(#filter_67_703_dd)">
		<mask id="mask_67_703" fill="white">
			<path d="M17.5603 8.09204C17.1565 7.71558 16.5237 7.73755 16.147 8.1416L10.5208 14.1748L7.5957 11.4473C7.19189 11.0706 6.55908 11.0925 6.18237 11.4966C5.80591 11.9004 5.82788 12.5332 6.23193 12.9099L9.86523 16.2981C9.87256 16.3054 9.88013 16.3127 9.88794 16.3198C10.0891 16.5076 10.3472 16.5962 10.6021 16.5879C10.8591 16.5798 11.1128 16.4734 11.302 16.2705C11.3091 16.2627 11.3162 16.2549 11.3232 16.2471L17.6096 9.50562C17.9863 9.10156 17.9644 8.46875 17.5603 8.09204Z" clip-rule="evenodd" fill="" fill-opacity="1.000000" fill-rule="evenodd"/>
		</mask>
		<path d="M17.5603 8.09204C17.1565 7.71558 16.5237 7.73755 16.147 8.1416L10.5208 14.1748L7.5957 11.4473C7.19189 11.0706 6.55908 11.0925 6.18237 11.4966C5.80591 11.9004 5.82788 12.5332 6.23193 12.9099L9.86523 16.2981C9.87256 16.3054 9.88013 16.3127 9.88794 16.3198C10.0891 16.5076 10.3472 16.5962 10.6021 16.5879C10.8591 16.5798 11.1128 16.4734 11.302 16.2705C11.3091 16.2627 11.3162 16.2549 11.3232 16.2471L17.6096 9.50562C17.9863 9.10156 17.9644 8.46875 17.5603 8.09204Z" clip-rule="evenodd" fill="#FFFFFF" fill-opacity="1.000000" fill-rule="evenodd" mask="url(#mask_67_703)"/>
		<path d="M18.7046 8.00708C18.5945 7.76099 18.4404 7.54541 18.2424 7.36084C18.0442 7.17603 17.8186 7.03735 17.5654 6.94482C17.3213 6.85571 17.0688 6.81567 16.8086 6.82471C16.5481 6.83374 16.2993 6.89136 16.062 6.99731C15.8159 7.10742 15.6003 7.26147 15.4158 7.45947L10.4716 12.7615L8.27783 10.7158C8.07983 10.531 7.854 10.3926 7.60083 10.2998C7.35669 10.2107 7.10449 10.1707 6.84399 10.1797C6.58374 10.1887 6.33472 10.2463 6.09741 10.3523C5.85132 10.4624 5.63574 10.6165 5.45117 10.8145C5.26636 11.0127 5.12769 11.2383 5.03516 11.4915C4.94604 11.7356 4.90601 11.988 4.91504 12.2483C4.92407 12.5085 4.98169 12.7576 5.08765 12.9949C5.19775 13.241 5.35181 13.4565 5.5498 13.6411L9.17211 17.019C9.18321 17.03 9.19451 17.0407 9.20581 17.0513C9.40332 17.2354 9.62817 17.3735 9.88037 17.4663C10.1235 17.5554 10.375 17.5959 10.6345 17.5874C10.8955 17.5793 11.1453 17.522 11.3838 17.416C11.6313 17.3059 11.8479 17.1514 12.0332 16.9524C12.0438 16.9413 12.0541 16.9299 12.0643 16.9184L18.3411 10.1875C18.5259 9.9895 18.6643 9.76367 18.7571 9.5105C18.8462 9.26636 18.8862 9.01416 18.8772 8.75366C18.8682 8.49341 18.8105 8.24438 18.7046 8.00708ZM11.3232 16.2471L17.6096 9.50562C17.9863 9.10156 17.9644 8.46875 17.5603 8.09204C17.1565 7.71558 16.5237 7.73755 16.147 8.1416L11.2029 13.4433L10.5208 14.1748L7.5957 11.4473C7.19189 11.0706 6.55908 11.0925 6.18237 11.4966C5.80591 11.9004 5.82788 12.5332 6.23193 12.9099L9.86523 16.2981C9.87256 16.3054 9.88013 16.3127 9.88794 16.3198C10.0891 16.5076 10.3472 16.5962 10.6021 16.5879C10.8591 16.5798 11.1128 16.4734 11.302 16.2705L11.3232 16.2471Z" clip-rule="evenodd" fill="#000000" fill-opacity="0.047059" fill-rule="evenodd"/>
	</g>
</svg>
