<svg width="24.000000" height="24.000000" viewBox="0 0 24 24" fill="none" xmlns="http://www.w3.org/2000/svg" xmlns:xlink="http://www.w3.org/1999/xlink">
	<desc>
			Created with Pixso.
	</desc>
	<defs>
		<clipPath id="clip22_2309">
			<rect width="24.000000" height="24.000000" fill="white" fill-opacity="0"/>
		</clipPath>
	</defs>
	<g clip-path="url(#clip22_2309)">
		<path d="M11.33 19.63L7.38 21.82C6.38 22.38 5.17 21.52 5.36 20.38L6.14 15.54C6.22 15.1 6.07 14.66 5.77 14.35L2.39 10.86C1.61 10.06 2.06 8.7 3.17 8.53L7.72 7.83C8.18 7.76 8.57 7.47 8.76 7.05L10.75 2.79C11.24 1.73 12.75 1.73 13.24 2.79L15.23 7.05C15.43 7.47 15.82 7.76 16.27 7.83L20.83 8.53C21.93 8.7 22.38 10.06 21.6 10.86L18.22 14.35C17.92 14.66 17.78 15.1 17.85 15.54L18.63 20.38C18.82 21.52 17.61 22.38 16.61 21.82L12.66 19.63C12.25 19.4 11.74 19.4 11.33 19.63Z" fill="#FD817B" fill-opacity="1.000000" fill-rule="evenodd"/>
	</g>
</svg>
