<svg width="24.000000" height="24.000000" viewBox="0 0 24 24" fill="none" xmlns="http://www.w3.org/2000/svg" xmlns:xlink="http://www.w3.org/1999/xlink">
	<desc>
			Created with Pixso.
	</desc>
	<defs>
		<clipPath id="clip27_3313">
			<rect width="24.000000" height="24.000000" fill="white" fill-opacity="0"/>
		</clipPath>
	</defs>
	<g opacity="0.600000">
		<g clip-path="url(#clip27_3313)">
			<path d="M15.7 3.87L15.32 4.25L15.32 4.25L14.48 5.09L14.48 5.09L5.26 14.31C5.23 14.34 5.2 14.37 5.18 14.4C5.16 14.44 5.14 14.47 5.12 14.51L3.03 19.99C3.01 20.06 3 20.13 3 20.2C3 20.28 3.01 20.35 3.03 20.42C3.09 20.57 3.2 20.68 3.35 20.75C3.5 20.81 3.65 20.82 3.8 20.76L9.28 18.67C9.31 18.65 9.35 18.63 9.39 18.61C9.42 18.59 9.45 18.56 9.48 18.53L19.92 8.1C20.21 7.8 20.43 7.48 20.58 7.12C20.72 6.77 20.79 6.39 20.79 5.98C20.79 5.57 20.72 5.19 20.58 4.83C20.43 4.48 20.21 4.16 19.92 3.87C19.63 3.58 19.3 3.36 18.95 3.21C18.6 3.07 18.22 3 17.81 3C17.39 2.99 17.01 3.07 16.66 3.22C16.31 3.36 15.99 3.58 15.7 3.87ZM16.16 5.09L18.7 7.63L19.08 7.26C19.26 7.08 19.39 6.88 19.48 6.66L19.48 6.66Q19.61 6.35 19.61 5.98Q19.61 5.61 19.48 5.3L19.48 5.3C19.39 5.08 19.26 4.89 19.08 4.71C18.9 4.53 18.71 4.4 18.49 4.31C18.28 4.23 18.05 4.18 17.81 4.18C17.56 4.18 17.33 4.22 17.12 4.31C16.91 4.4 16.71 4.53 16.54 4.71L16.16 5.09ZM6.19 15.06L15.32 5.93L17.86 8.47L8.73 17.6L4.62 19.18L6.19 15.06ZM19.41 19.81L12.29 19.81C11.96 19.81 11.7 20.07 11.7 20.4C11.7 20.73 11.96 21 12.29 21L19.41 21C19.74 21 20 20.73 20 20.4C20 20.07 19.74 19.81 19.41 19.81Z" fill="#000000" fill-opacity="0.898039" fill-rule="evenodd"/>
		</g>
	</g>
</svg>
