<svg width="24.000000" height="24.000000" viewBox="0 0 24 24" fill="none" xmlns="http://www.w3.org/2000/svg" xmlns:xlink="http://www.w3.org/1999/xlink">
	<desc>
			Created with Pixso.
	</desc>
	<defs>
		<clipPath id="clip22_2317">
			<rect width="24.000000" height="24.000000" fill="white" fill-opacity="0"/>
		</clipPath>
	</defs>
	<g clip-path="url(#clip22_2317)">
		<path d="M5.04 1.47C4.85 1.53 4.67 1.62 4.5 1.73C4.27 1.86 4.06 2.02 3.88 2.2C3.7 2.38 3.54 2.59 3.4 2.82C3.3 2.99 3.21 3.17 3.15 3.36C3.05 3.66 3 3.98 3 4.32L3 20.33C3 20.61 3.03 20.89 3.11 21.15C3.18 21.39 3.28 21.61 3.4 21.83C3.68 22.28 4.04 22.64 4.5 22.92C4.95 23.19 5.45 23.33 6 23.33L14.29 23.33C13.86 22.95 13.5 22.51 13.21 22.01C12.99 21.64 12.83 21.26 12.71 20.86C12.57 20.37 12.5 19.86 12.5 19.34C12.5 18.76 12.58 18.22 12.75 17.7C12.86 17.35 13.01 17.01 13.21 16.69C13.43 16.3 13.69 15.95 14 15.65C14.33 15.31 14.71 15.01 15.13 14.77C15.5 14.55 15.88 14.39 16.28 14.27C16.77 14.13 17.28 14.06 17.8 14.06C18.77 14.06 19.65 14.29 20.46 14.77C20.65 14.87 20.83 14.99 21 15.11L21 4.32C21 3.98 20.94 3.66 20.84 3.36C20.78 3.17 20.69 2.99 20.59 2.82C20.31 2.36 19.95 2 19.5 1.73C19.04 1.45 18.54 1.32 18 1.32L6 1.32C5.66 1.32 5.34 1.37 5.04 1.47ZM7.21 8.02C7.13 7.98 7.06 7.93 7 7.87C6.92 7.8 6.87 7.73 6.83 7.65C6.79 7.56 6.77 7.45 6.77 7.34C6.77 7.23 6.78 7.14 6.82 7.05C6.86 6.97 6.92 6.89 7 6.82C7.06 6.75 7.13 6.7 7.21 6.66C7.31 6.62 7.42 6.6 7.54 6.6L16.49 6.6C16.69 6.6 16.87 6.67 17.02 6.82C17.07 6.87 17.12 6.94 17.16 7.01C17.2 7.11 17.23 7.22 17.23 7.34C17.23 7.47 17.2 7.59 17.14 7.69C17.11 7.76 17.07 7.81 17.02 7.87C16.87 8.01 16.69 8.09 16.49 8.09L7.54 8.09C7.42 8.09 7.31 8.06 7.21 8.02ZM7.21 12.19C7.13 12.15 7.06 12.1 7 12.04C6.84 11.88 6.77 11.7 6.77 11.5C6.77 11.28 6.84 11.11 7 10.97C7.06 10.9 7.13 10.85 7.21 10.81C7.31 10.77 7.42 10.75 7.54 10.75L13.32 10.75C13.52 10.75 13.7 10.82 13.85 10.97C13.99 11.11 14.06 11.28 14.06 11.5C14.06 11.7 13.98 11.88 13.84 12.04C13.68 12.18 13.5 12.26 13.3 12.26L7.54 12.26C7.42 12.26 7.31 12.23 7.21 12.19Z" fill="#FD4238" fill-opacity="0.498039" fill-rule="evenodd"/>
		<path d="M13.8 19.34C13.8 20.06 13.98 20.73 14.34 21.35C14.7 21.96 15.18 22.45 15.8 22.81C16.42 23.17 17.09 23.35 17.81 23.35C18.53 23.35 19.19 23.17 19.81 22.81C20.42 22.45 20.92 21.96 21.28 21.35C21.64 20.73 21.82 20.06 21.82 19.34C21.82 18.62 21.64 17.95 21.28 17.35C20.92 16.74 20.42 16.26 19.81 15.9C19.19 15.54 18.53 15.36 17.81 15.36C17.09 15.36 16.42 15.54 15.8 15.9C15.18 16.26 14.7 16.74 14.34 17.35C13.98 17.95 13.8 18.62 13.8 19.34ZM19.66 20.46C19.75 20.58 19.79 20.7 19.79 20.84C19.79 20.98 19.74 21.09 19.63 21.19C19.53 21.29 19.42 21.34 19.28 21.34C19.14 21.34 19.03 21.29 18.93 21.19L17.45 19.7C17.37 19.62 17.33 19.5 17.33 19.34L17.33 17.29C17.33 17.16 17.37 17.04 17.46 16.94C17.57 16.84 17.68 16.79 17.81 16.79C17.95 16.79 18.07 16.84 18.17 16.94C18.26 17.04 18.31 17.16 18.31 17.29L18.31 19.15L19.66 20.46Z" fill="#FD4238" fill-opacity="1.000000" fill-rule="nonzero"/>
	</g>
</svg>
