<svg width="24.000000" height="24.000000" viewBox="0 0 24 24" fill="none" xmlns="http://www.w3.org/2000/svg" xmlns:xlink="http://www.w3.org/1999/xlink">
	<desc>
			Created with Pixso.
	</desc>
	<defs>
		<clipPath id="clip22_2299">
			<rect width="8.121826" height="8.121828" transform="translate(11.106445 2.741119)" fill="white" fill-opacity="0"/>
		</clipPath>
		<clipPath id="clip22_2292">
			<rect width="24.000000" height="24.000000" fill="white" fill-opacity="0"/>
		</clipPath>
	</defs>
	<g clip-path="url(#clip22_2292)">
		<path d="M5.09 0.54L18.94 0.54C20.48 0.54 21.25 1.48 21.25 3.37L21.25 20.3C21.25 22.18 20.48 23.12 18.94 23.12L5.09 23.12C3.55 23.12 2.78 22.18 2.78 20.3L2.78 3.37C2.78 1.48 3.55 0.54 5.09 0.54Z" fill="#FD817B" fill-opacity="1.000000" fill-rule="nonzero"/>
		<path d="M4.78 0.54L7.28 0.54L7.28 23.12L4.78 23.12C3.67 23.12 2.78 21.86 2.78 20.3L2.78 3.37C2.78 1.81 3.67 0.54 4.78 0.54Z" fill="#E84026" fill-opacity="1.000000" fill-rule="nonzero"/>
		<path d="M8.71 20.41C8.23 20.41 7.84 20.02 7.84 19.54C7.84 19.05 8.23 18.66 8.71 18.66C9.2 18.66 9.59 19.05 9.59 19.54C9.59 20.02 9.2 20.41 8.71 20.41ZM5.84 20.41C5.36 20.41 4.96 20.02 4.96 19.54C4.96 19.05 5.36 18.66 5.84 18.66C6.32 18.66 6.71 19.05 6.71 19.54C6.71 20.02 6.32 20.41 5.84 20.41ZM8.71 15.47C8.23 15.47 7.84 15.08 7.84 14.6C7.84 14.12 8.23 13.72 8.71 13.72C9.2 13.72 9.59 14.12 9.59 14.6C9.59 15.08 9.2 15.47 8.71 15.47ZM5.84 15.47C5.36 15.47 4.96 15.08 4.96 14.6C4.96 14.12 5.36 13.72 5.84 13.72C6.32 13.72 6.71 14.12 6.71 14.6C6.71 15.08 6.32 15.47 5.84 15.47ZM8.71 10.54C8.23 10.54 7.84 10.15 7.84 9.66C7.84 9.18 8.23 8.79 8.71 8.79C9.2 8.79 9.59 9.18 9.59 9.66C9.59 10.15 9.2 10.54 8.71 10.54ZM5.84 10.54C5.36 10.54 4.96 10.15 4.96 9.66C4.96 9.18 5.36 8.79 5.84 8.79C6.32 8.79 6.71 9.18 6.71 9.66C6.71 10.15 6.32 10.54 5.84 10.54Z" fill="#FFCFCF" fill-opacity="1.000000" fill-rule="nonzero"/>
		<path d="M8.71 5.18C8.23 5.18 7.84 4.79 7.84 4.31C7.84 3.83 8.23 3.43 8.71 3.43C9.2 3.43 9.59 3.83 9.59 4.31C9.59 4.79 9.2 5.18 8.71 5.18ZM5.84 5.18C5.36 5.18 4.96 4.79 4.96 4.31C4.96 3.83 5.36 3.43 5.84 3.43C6.32 3.43 6.71 3.83 6.71 4.31C6.71 4.79 6.32 5.18 5.84 5.18Z" fill="#FFCFCF" fill-opacity="1.000000" fill-rule="nonzero"/>
		<path d="M5.84 18.97L8.71 18.97C9.02 18.97 9.28 19.23 9.28 19.54C9.28 19.85 9.02 20.1 8.71 20.1L5.84 20.1C5.53 20.1 5.28 19.85 5.28 19.54C5.28 19.23 5.53 18.97 5.84 18.97ZM5.84 14.04L8.71 14.04C9.02 14.04 9.28 14.29 9.28 14.6C9.28 14.91 9.02 15.16 8.71 15.16L5.84 15.16C5.53 15.16 5.28 14.91 5.28 14.6C5.28 14.29 5.53 14.04 5.84 14.04ZM5.84 9.1L8.71 9.1C9.02 9.1 9.28 9.35 9.28 9.66C9.28 9.97 9.02 10.22 8.71 10.22L5.84 10.22C5.53 10.22 5.28 9.97 5.28 9.66C5.28 9.35 5.53 9.1 5.84 9.1Z" fill="#FFFFFF" fill-opacity="1.000000" fill-rule="nonzero"/>
		<path d="M5.84 3.75L8.71 3.75C9.02 3.75 9.28 4 9.28 4.31C9.28 4.62 9.02 4.87 8.71 4.87L5.84 4.87C5.53 4.87 5.28 4.62 5.28 4.31C5.28 4 5.53 3.75 5.84 3.75Z" fill="#FFFFFF" fill-opacity="1.000000" fill-rule="nonzero"/>
		<g clip-path="url(#clip22_2299)">
			<path d="M18.82 9.52L11.58 9.52C11.43 9.52 11.3 9.66 11.3 9.84C11.3 10.02 11.43 10.17 11.58 10.17L18.82 10.17C18.98 10.17 19.1 10.02 19.1 9.84C19.1 9.66 18.98 9.52 18.82 9.52ZM11.63 8.93L18.78 8.93C18.96 8.93 19.1 8.79 19.1 8.61L19.1 8.28C19.1 6.31 17.64 4.69 15.74 4.43C15.81 4.32 15.85 4.19 15.85 4.06C15.85 3.7 15.56 3.41 15.2 3.41C14.85 3.41 14.55 3.7 14.55 4.06C14.55 4.2 14.59 4.32 14.67 4.43C12.77 4.69 11.3 6.31 11.3 8.28L11.3 8.61C11.3 8.79 11.45 8.93 11.63 8.93ZM12.4 7.14C12.7 6.53 13.2 6.04 13.8 5.73C13.91 5.68 14.04 5.72 14.09 5.83C14.15 5.94 14.11 6.07 14 6.12C13.48 6.38 13.05 6.81 12.79 7.33C12.75 7.41 12.67 7.45 12.59 7.45C12.56 7.45 12.53 7.45 12.49 7.43C12.38 7.38 12.34 7.25 12.4 7.14Z" fill="#FFFFFF" fill-opacity="1.000000" fill-rule="nonzero"/>
		</g>
		<rect x="11.675049" y="14.598999" rx="0.487310" width="6.578680" height="0.974619" fill="#FFFFFF" fill-opacity="1.000000"/>
		<rect x="11.675049" y="16.670074" rx="0.487310" width="4.629441" height="0.974619" fill="#FFFFFF" fill-opacity="1.000000"/>
	</g>
</svg>
