<svg width="24.000000" height="24.000000" viewBox="0 0 24 24" fill="none" xmlns="http://www.w3.org/2000/svg" xmlns:xlink="http://www.w3.org/1999/xlink">
	<desc>
			Created with Pixso.
	</desc>
	<defs>
		<clipPath id="clip22_2334">
			<rect width="24.000000" height="24.000000" fill="white" fill-opacity="0"/>
		</clipPath>
	</defs>
	<g clip-path="url(#clip22_2334)">
		<path d="M12.05 7.5C12.86 7.5 13.61 7.71 14.29 8.11C14.97 8.53 15.51 9.08 15.91 9.76C16.31 10.45 16.51 11.2 16.51 12.02C16.51 12.84 16.3 13.59 15.9 14.28C15.49 14.96 14.94 15.51 14.26 15.91C13.56 16.31 12.81 16.51 12 16.51C11.18 16.51 10.43 16.3 9.73 15.9C9.05 15.49 8.51 14.94 8.11 14.24C7.7 13.54 7.51 12.79 7.51 11.98C7.51 11.16 7.71 10.41 8.12 9.72C8.53 9.04 9.08 8.5 9.78 8.1C10.47 7.7 11.23 7.5 12.05 7.5ZM13.56 22.66C13.86 22.66 14.14 22.57 14.4 22.4C14.65 22.23 14.84 22.01 14.98 21.74L15.79 19.85L15.98 19.75C16.27 19.57 16.56 19.4 16.85 19.21L18.91 19.49C19.23 19.52 19.52 19.46 19.79 19.33C20.07 19.19 20.29 18.99 20.45 18.71L22.03 15.98C22.19 15.71 22.26 15.42 22.24 15.12C22.21 14.81 22.11 14.53 21.94 14.28L20.69 12.6L20.69 11.42L21.94 9.73C22.12 9.48 22.23 9.2 22.25 8.89C22.26 8.59 22.19 8.31 22.03 8.03L20.45 5.27C20.3 5.02 20.09 4.82 19.82 4.67C19.55 4.53 19.26 4.47 18.94 4.5L16.85 4.77C16.56 4.56 16.23 4.37 15.86 4.19L15.02 2.22C14.89 1.95 14.7 1.73 14.45 1.55C14.19 1.38 13.91 1.29 13.61 1.29L10.44 1.29C10.13 1.29 9.85 1.38 9.59 1.55C9.32 1.73 9.12 1.95 9 2.22L8.16 4.19L7.92 4.33C7.79 4.4 7.67 4.47 7.55 4.53C7.43 4.59 7.31 4.66 7.2 4.74L5.09 4.5C4.78 4.46 4.48 4.5 4.2 4.63C3.93 4.77 3.7 4.98 3.55 5.25L1.96 8.01C1.81 8.27 1.73 8.55 1.76 8.86C1.78 9.18 1.88 9.46 2.06 9.71L3.34 11.42L3.34 12.53L2.06 14.23C1.87 14.49 1.77 14.77 1.75 15.07C1.73 15.37 1.81 15.66 1.96 15.94L3.53 18.67C3.69 18.94 3.9 19.14 4.18 19.28C4.44 19.42 4.73 19.47 5.06 19.44L7.13 19.2C7.57 19.48 7.91 19.68 8.14 19.79L8.97 21.72C9.08 22 9.27 22.23 9.53 22.4C9.78 22.57 10.07 22.66 10.39 22.66L13.56 22.66Z" fill="#FD4238" fill-opacity="1.000000" fill-rule="nonzero"/>
		<path d="M12.02 9C11.48 9 10.97 9.13 10.51 9.39C10.05 9.66 9.68 10.02 9.4 10.48C9.13 10.93 9 11.43 9 11.98C9 12.52 9.13 13.02 9.39 13.49C9.65 13.95 10.02 14.31 10.49 14.59C10.95 14.86 11.45 15 12 15C12.56 15 13.06 14.86 13.52 14.6C13.98 14.34 14.34 13.98 14.6 13.52C14.86 13.06 15 12.56 15 12.02C15 11.48 14.86 10.97 14.6 10.51C14.34 10.05 13.98 9.68 13.52 9.41C13.06 9.13 12.56 9 12.02 9Z" fill="#FD4238" fill-opacity="0.498039" fill-rule="nonzero"/>
	</g>
</svg>
