<svg width="46.000000" height="16.000000" viewBox="0 0 46 16" fill="none" xmlns="http://www.w3.org/2000/svg" xmlns:xlink="http://www.w3.org/1999/xlink">
	<desc>
			Created with Pixso.
	</desc>
	<defs/>
	<path d="M8 0L46 0L46 8C46 12.41 42.41 16 38 16L0 16L0 8C0 3.58 3.58 0 8 0Z" fill="#E5E5EA" fill-opacity="1.000000" fill-rule="evenodd"/>
	<path d="M33.73 6.28L31.47 6.28L31.47 12.5L32.37 12.5L32.37 10.57L36.01 10.57L36.01 11.05Q36.01 11.2 35.97 11.33Q35.93 11.43 35.85 11.47Q35.85 11.47 35.84 11.48Q35.77 11.51 35.66 11.56Q35.5 11.59 35.29 11.59L34.28 11.59L34.47 12.45L35.61 12.45Q35.97 12.45 36.27 12.38Q36.49 12.34 36.63 12.22Q36.65 12.2 36.66 12.19Q36.73 12.12 36.77 12.04Q36.81 11.98 36.83 11.9Q36.91 11.64 36.91 11.33L36.91 6.28L34.64 6.28L34.64 3.58L33.73 3.58L33.73 6.28ZM29.36 3.83L28.85 4.57Q29.79 5.22 30.72 5.93L31.23 5.19Q30.29 4.49 29.36 3.83ZM31.83 3.89L31.2 4.45Q31.95 5.22 32.65 6.08L33.31 5.51Q32.57 4.68 31.83 3.89ZM35.07 5.54L35.72 6.13Q36.47 5.34 37.22 4.49L36.54 3.94Q35.81 4.76 35.07 5.54ZM23.51 10.62L23.47 10.14L23.47 9.75Q23.03 9.83 22.65 9.91L22.65 4.83L23.22 4.83L23.22 3.97L18.65 3.97L18.65 4.83L19.28 4.83L19.28 10.46Q18.85 10.54 18.39 10.57L18.51 11.48Q20.15 11.2 21.78 10.89L21.78 12.58L22.65 12.58L22.65 10.77Q23.08 10.7 23.51 10.62ZM16.47 4.14L9.08 4.14L9.08 5.08L15.5 5.08L15.5 7.25L10.29 7.25L10.29 5.96L9.28 5.96L9.28 10.65Q9.28 11.08 9.41 11.51Q9.44 11.73 9.56 11.87Q9.58 11.89 9.59 11.9Q9.77 12.08 9.98 12.16Q10.06 12.19 10.15 12.21Q10.58 12.33 11.01 12.33L15.41 12.33Q15.84 12.33 16.27 12.25Q16.45 12.22 16.6 12.14Q16.72 12.07 16.83 11.99Q16.97 11.82 17.06 11.64Q17.14 11.28 17.17 10.89Q17.26 10.19 17.29 9.52L16.27 9.29L16.23 10.54Q16.2 10.77 16.15 11Q16.15 11.04 16.13 11.07Q16.09 11.15 16.01 11.2Q15.98 11.23 15.95 11.25Q15.85 11.33 15.7 11.36Q15.41 11.39 15.15 11.36L11.32 11.36Q11.26 11.36 11.21 11.37Q10.99 11.38 10.77 11.33Q10.68 11.33 10.61 11.3Q10.52 11.26 10.46 11.16Q10.38 11.05 10.33 10.93Q10.27 10.7 10.29 10.43L10.29 8.15L16.47 8.15L16.47 4.14ZM24.33 5.43L23.51 5.54Q23.53 5.75 23.55 5.96Q23.68 6.99 23.97 8.01Q24 8.09 24.02 8.18Q24.25 8.97 24.67 9.71Q24.28 10.26 23.77 10.77Q23.27 11.28 22.72 11.71L23.31 12.41Q23.98 11.87 24.57 11.25Q24.91 10.89 25.22 10.51Q25.58 10.96 25.97 11.36Q26.52 11.9 27.09 12.41L27.72 11.64Q27.06 11.16 26.52 10.62Q26.09 10.19 25.72 9.68Q26.06 9.11 26.3 8.51Q26.42 8.2 26.52 7.89Q26.76 7.09 26.93 6.28Q27.03 5.81 27.09 5.34L27.09 4.45L23.39 4.45L23.39 5.34L26.2 5.34Q26.04 6.36 25.77 7.38Q25.58 8.12 25.22 8.83Q25.14 8.67 25.07 8.52Q24.83 7.99 24.67 7.41Q24.45 6.44 24.33 5.43ZM20.15 4.83L21.78 4.83L21.78 6.08L20.15 6.08L20.15 4.83ZM28.93 5.93L28.39 6.68Q29.36 7.38 30.27 8.12L30.81 7.33Q29.87 6.64 28.93 5.93ZM20.15 6.9L21.78 6.9L21.78 8.12L20.15 8.12L20.15 6.9ZM32.37 7.1L36.01 7.1L36.01 8.04L32.37 8.04L32.37 7.1ZM30.81 9.01L30.33 8.86L29.9 8.7Q29.41 10.46 28.77 12.14L29.67 12.41Q30.22 10.7 30.81 9.01ZM32.37 8.86L36.01 8.86L36.01 9.75L32.37 9.75L32.37 8.86ZM20.15 10.34L20.15 8.94L21.78 8.94L21.78 10.03L20.15 10.34Z" fill="#000000" fill-opacity="0.600000" fill-rule="evenodd"/>
</svg>
