<svg width="56.000000" height="16.000000" viewBox="0 0 56 16" fill="none" xmlns="http://www.w3.org/2000/svg" xmlns:xlink="http://www.w3.org/1999/xlink">
	<desc>
			Created with Pixso.
	</desc>
	<defs/>
	<path d="M8 0L56 0L56 8C56 12.41 52.41 16 48 16L0 16L0 8C0 3.58 3.58 0 8 0Z" fill="#64BB5C" fill-opacity="1.000000" fill-rule="evenodd"/>
	<path d="M32.22 11.59L32.79 12.25Q32.99 12.12 33.18 11.98Q33.86 11.47 34.47 10.85Q34.59 11.08 34.76 11.33Q34.9 11.59 35.15 11.87Q35.22 11.97 35.31 12.05Q35.39 12.14 35.5 12.21Q35.76 12.42 36.06 12.48Q36.11 12.49 36.15 12.5Q36.34 12.5 36.5 12.44Q36.72 12.36 36.91 12.19Q37.09 11.99 37.22 11.71Q37.29 11.48 37.37 11.2Q37.52 10.57 37.65 9.91L36.86 9.68L36.63 10.77Q36.6 10.96 36.54 11.12Q36.5 11.24 36.43 11.36Q36.4 11.4 36.36 11.43Q36.29 11.48 36.2 11.48Q36.1 11.48 36.01 11.44Q35.97 11.42 35.92 11.39Q35.72 11.2 35.61 11Q35.29 10.57 35.15 10.11Q35.32 9.88 35.49 9.64Q35.79 9.19 36.04 8.7Q36.52 7.76 36.86 6.82L36.04 6.47Q35.77 7.25 35.46 8.01Q35.35 8.22 35.24 8.43Q35.04 8.78 34.79 9.09Q34.72 8.86 34.66 8.61Q34.56 8.21 34.52 7.81Q34.36 6.87 34.28 5.96L37.34 5.96L37.34 5.08L36.04 5.08L36.54 4.64Q35.92 4.01 35.29 3.43L34.72 4.01Q35.27 4.52 35.77 5.08L34.21 5.08Q34.13 4.32 34.08 3.58L33.2 3.58L33.27 5.08L29.33 5.08L29.33 7.69Q29.33 8.46 29.25 9.26Q29.21 9.68 29.08 10.11Q29.04 10.32 28.98 10.53Q28.88 10.86 28.73 11.16Q28.66 11.33 28.58 11.49Q28.4 11.83 28.2 12.14L29.08 12.58Q29.6 11.74 29.85 10.83Q29.9 10.63 29.95 10.43Q30.07 10 30.1 9.52Q30.18 8.83 30.22 8.07L31.78 8.07Q31.75 9.09 31.66 10.08Q31.66 10.22 31.63 10.43Q31.6 10.48 31.57 10.52Q31.53 10.56 31.47 10.57Q31.45 10.6 31.41 10.62Q31.35 10.65 31.27 10.65Q31.09 10.7 30.84 10.7L30.18 10.7L30.38 11.59L31.09 11.59Q31.43 11.59 31.78 11.48Q31.88 11.46 31.96 11.42Q32.05 11.38 32.14 11.33Q32.21 11.26 32.28 11.19Q32.38 11.07 32.45 10.93Q32.52 10.62 32.57 10.31Q32.68 8.78 32.72 7.21L30.22 7.21L30.22 5.96L33.34 5.96Q33.47 7.14 33.7 8.35Q33.85 9.18 34.13 9.95Q33.22 10.89 32.22 11.59ZM22.14 7.02L23 7.45Q23.42 6.76 23.77 6.01L26.04 6.01Q26.01 7.5 25.97 9.01Q25.92 9.83 25.89 10.65Q25.89 10.89 25.81 11.08Q25.77 11.2 25.7 11.28Q25.63 11.34 25.56 11.37Q25.49 11.39 25.41 11.39Q25.18 11.44 24.95 11.44L23.73 11.44L23.93 12.33L25.29 12.33Q25.7 12.33 26.04 12.25Q26.23 12.21 26.43 12.1Q26.54 12.02 26.61 11.91Q26.67 11.82 26.71 11.71Q26.83 11.39 26.83 11.08L27.02 5.08L24.13 5.08Q24.41 4.4 24.56 3.75L23.7 3.51Q23.42 4.45 23.03 5.39Q22.68 6.25 22.14 7.02ZM18.73 9.01L18.93 9.91Q19.21 9.83 19.52 9.8Q20.89 9.6 22.26 9.45L22.22 8.55Q21.27 8.7 20.29 8.83Q20.84 8.2 21.32 7.53Q21.97 6.64 22.52 5.65L21.83 5.22Q21.47 5.82 21.12 6.36Q20.46 6.39 19.79 6.39Q19.83 6.36 19.86 6.32Q20.21 5.92 20.5 5.46Q20.97 4.76 21.35 3.97L20.58 3.58Q20.18 4.32 19.76 5.08Q19.47 5.43 19.25 5.77Q19.08 6.01 18.9 6.25Q18.7 6.39 18.51 6.47L18.7 7.33Q18.9 7.3 19.13 7.25Q19.84 7.21 20.53 7.18Q19.98 7.93 19.41 8.63Q19.23 8.82 19.01 8.92Q18.88 8.98 18.73 9.01ZM40.89 12.02L41.66 12.64Q42.07 12.29 42.43 11.9Q42.71 11.6 42.96 11.28Q43.31 10.82 43.54 10.26Q43.57 10.2 43.6 10.14Q43.9 9.45 43.97 8.66Q44.13 7.58 44.16 6.44L46.01 6.44Q45.97 8.43 45.89 10.43Q45.84 10.7 45.81 10.96Q45.72 11.08 45.66 11.2Q45.58 11.26 45.49 11.3Q45.4 11.34 45.29 11.36Q44.98 11.39 44.67 11.39L43.73 11.39L43.93 12.3L45.02 12.3Q45.09 12.3 45.16 12.29Q45.53 12.28 45.89 12.21Q46.08 12.17 46.24 12.08Q46.34 12.02 46.43 11.95Q46.58 11.76 46.66 11.56Q46.78 11.16 46.78 10.77Q46.91 8.15 46.97 5.51L44.16 5.51Q44.21 4.57 44.21 3.58L43.31 3.58L43.22 5.51L42.14 5.51L42.14 6.44L43.22 6.44Q43.2 7.45 43.08 8.43Q43.01 9.03 42.79 9.58Q42.74 9.71 42.68 9.83Q42.48 10.31 42.14 10.74Q41.54 11.44 40.89 12.02ZM9.47 5.19L8.93 5.65Q9.56 6.39 10.1 7.14L8.39 7.14L8.39 7.96L9.87 7.96L9.87 11.05Q9.87 11.2 9.84 11.33Q9.84 11.39 9.76 11.48Q9.72 11.51 9.64 11.51Q9.52 11.56 9.36 11.56L8.62 11.56L8.82 12.45L9.59 12.45Q9.87 12.45 10.15 12.41Q10.29 12.35 10.39 12.25Q10.43 12.22 10.46 12.19Q10.58 12.07 10.61 11.95Q10.66 11.79 10.68 11.63Q10.7 11.51 10.7 11.39L10.7 7.96L11.54 7.96L11.04 9.49L11.78 9.75L12.34 7.96L12.34 7.14L10.72 7.14L10.97 6.95L10.77 6.76Q11.01 6.44 11.23 6.13Q11.66 5.54 12.14 4.95L12.14 4.06L8.65 4.06L8.65 4.88L11.15 4.88Q10.7 5.51 10.27 6.13L9.47 5.19ZM14.16 5.93L12.65 5.93L12.65 10.39L13.47 10.39L13.47 6.71L16.15 6.71L16.15 10.39L16.97 10.39L16.97 5.93L15.02 5.93Q15.15 5.43 15.27 4.88L17.45 4.88L17.45 4.06L12.45 4.06L12.45 4.88L14.41 4.88Q14.28 5.43 14.16 5.93ZM42.4 10.08L42.34 9.57L42.26 9.14Q41.54 9.37 40.81 9.52L40.81 5.57L42.02 5.57L42.02 4.71L38.59 4.71L38.59 5.57L39.87 5.57L39.87 9.75Q39.13 9.95 38.34 10.14L38.59 11.05Q40.46 10.54 42.4 10.08ZM11.66 11.9L12.22 12.69Q12.77 12.44 13.28 12.13Q13.6 11.94 13.9 11.71Q14.28 11.44 14.56 11.1Q14.69 10.94 14.79 10.77Q15.97 11.68 17.09 12.64L17.65 11.87Q16.4 10.93 15.15 9.95Q15.27 9.45 15.27 8.89L15.27 7.1L14.36 7.1L14.36 8.83Q14.36 9.32 14.25 9.83Q14.19 10.04 14.1 10.22Q13.97 10.46 13.77 10.65Q13.59 10.84 13.39 10.99Q13.11 11.2 12.79 11.36Q12.73 11.39 12.67 11.43Q12.19 11.7 11.66 11.9ZM23.62 7.14L22.91 7.61Q23.65 8.66 24.41 9.71L25.18 9.18Q24.41 8.15 23.62 7.14ZM22.72 11.48L22.68 11L22.65 10.54Q20.58 10.96 18.47 11.28L18.59 12.19Q20.66 11.79 22.72 11.48Z" fill="#FFFFFF" fill-opacity="1.000000" fill-rule="evenodd"/>
</svg>
