<svg width="56.000000" height="16.000000" viewBox="0 0 56 16" fill="none" xmlns="http://www.w3.org/2000/svg" xmlns:xlink="http://www.w3.org/1999/xlink">
	<desc>
			Created with Pixso.
	</desc>
	<defs/>
	<path d="M8 0L56 0L56 8C56 12.41 52.41 16 48 16L0 16L0 8C0 3.58 3.58 0 8 0Z" fill="#64BB5C" fill-opacity="1.000000" fill-rule="evenodd"/>
	<path d="M32.22 11.59L32.79 12.25Q32.99 12.12 33.18 11.98Q33.86 11.47 34.47 10.85Q34.59 11.08 34.76 11.33Q34.9 11.59 35.15 11.87Q35.22 11.97 35.31 12.05Q35.39 12.14 35.5 12.21Q35.76 12.42 36.06 12.48Q36.11 12.49 36.15 12.5Q36.34 12.5 36.5 12.44Q36.72 12.36 36.91 12.19Q37.09 11.99 37.22 11.71Q37.29 11.48 37.37 11.2Q37.52 10.57 37.65 9.91L36.86 9.68L36.63 10.77Q36.6 10.96 36.54 11.12Q36.5 11.24 36.43 11.36Q36.4 11.4 36.36 11.43Q36.29 11.48 36.2 11.48Q36.1 11.48 36.01 11.44Q35.97 11.42 35.92 11.39Q35.72 11.2 35.61 11Q35.29 10.57 35.15 10.11Q35.32 9.88 35.49 9.64Q35.79 9.19 36.04 8.7Q36.52 7.76 36.86 6.82L36.04 6.47Q35.77 7.25 35.46 8.01Q35.35 8.22 35.24 8.43Q35.04 8.78 34.79 9.09Q34.72 8.86 34.66 8.61Q34.56 8.21 34.52 7.81Q34.36 6.87 34.28 5.96L37.34 5.96L37.34 5.08L36.04 5.08L36.54 4.64Q35.92 4.01 35.29 3.43L34.72 4.01Q35.27 4.52 35.77 5.08L34.21 5.08Q34.13 4.32 34.08 3.58L33.2 3.58L33.27 5.08L29.33 5.08L29.33 7.69Q29.33 8.46 29.25 9.26Q29.21 9.68 29.08 10.11Q29.04 10.32 28.98 10.53Q28.88 10.86 28.73 11.16Q28.66 11.33 28.58 11.49Q28.4 11.83 28.2 12.14L29.08 12.58Q29.6 11.74 29.85 10.83Q29.9 10.63 29.95 10.43Q30.07 10 30.1 9.52Q30.18 8.83 30.22 8.07L31.78 8.07Q31.75 9.09 31.66 10.08Q31.66 10.22 31.63 10.43Q31.6 10.48 31.57 10.52Q31.53 10.56 31.47 10.57Q31.45 10.6 31.41 10.62Q31.35 10.65 31.27 10.65Q31.09 10.7 30.84 10.7L30.18 10.7L30.38 11.59L31.09 11.59Q31.43 11.59 31.78 11.48Q31.88 11.46 31.96 11.42Q32.05 11.38 32.14 11.33Q32.21 11.26 32.28 11.19Q32.38 11.07 32.45 10.93Q32.52 10.62 32.57 10.31Q32.68 8.78 32.72 7.21L30.22 7.21L30.22 5.96L33.34 5.96Q33.47 7.14 33.7 8.35Q33.85 9.18 34.13 9.95Q33.22 10.89 32.22 11.59ZM18.77 6.59L19.41 7.33Q20.07 6.95 20.7 6.44Q21.4 7.02 22.14 7.58L22.79 6.87L21.4 5.85Q21.63 5.65 21.86 5.43L25.5 5.43Q24.84 6.05 24.13 6.56Q23.44 7.05 22.7 7.43Q22.55 7.51 22.4 7.58Q21.4 8.05 20.36 8.43Q20.31 8.45 20.27 8.46Q19.84 8.63 19.41 8.76Q18.88 8.93 18.34 9.06L18.7 9.91Q19.56 9.68 20.38 9.37L20.38 12.45L21.27 12.45L21.27 11.99L25.81 11.99L25.81 12.45L26.71 12.45L26.71 8.39L22.72 8.39Q23.82 7.84 24.84 7.14Q25.27 6.83 25.68 6.48Q26.24 5.99 26.75 5.43L26.75 4.57L22.65 4.57Q22.96 4.18 23.22 3.78L22.34 3.51Q21.58 4.45 20.66 5.26Q19.79 6.01 18.77 6.59ZM40.89 12.02L41.66 12.64Q42.07 12.29 42.43 11.9Q42.71 11.6 42.96 11.28Q43.31 10.82 43.54 10.26Q43.57 10.2 43.6 10.14Q43.9 9.45 43.97 8.66Q44.13 7.58 44.16 6.44L46.01 6.44Q45.97 8.43 45.89 10.43Q45.84 10.7 45.81 10.96Q45.72 11.08 45.66 11.2Q45.58 11.26 45.49 11.3Q45.4 11.34 45.29 11.36Q44.98 11.39 44.67 11.39L43.73 11.39L43.93 12.3L45.02 12.3Q45.09 12.3 45.16 12.29Q45.53 12.28 45.89 12.21Q46.08 12.17 46.24 12.08Q46.34 12.02 46.43 11.95Q46.58 11.76 46.66 11.56Q46.78 11.16 46.78 10.77Q46.91 8.15 46.97 5.51L44.16 5.51Q44.21 4.57 44.21 3.58L43.31 3.58L43.22 5.51L42.14 5.51L42.14 6.44L43.22 6.44Q43.2 7.45 43.08 8.43Q43.01 9.03 42.79 9.58Q42.74 9.71 42.68 9.83Q42.48 10.31 42.14 10.74Q41.54 11.44 40.89 12.02ZM9.25 11.64L8.59 11.64L8.77 12.45L9.52 12.45Q9.84 12.45 10.15 12.41Q10.38 12.33 10.53 12.19Q10.61 12.07 10.7 11.9Q10.72 11.64 10.72 11.33L10.72 8.66L11.75 8.32L11.71 7.93L11.71 7.5L10.72 7.81L10.72 6.25L11.83 6.25L11.83 5.43L10.72 5.43L10.72 3.66L9.87 3.66L9.87 5.43L8.54 5.43L8.54 6.25L9.87 6.25L9.87 8.07Q9.13 8.32 8.42 8.46L8.62 9.32Q9.25 9.14 9.87 8.89L9.87 11.08Q9.87 11.25 9.84 11.36Q9.84 11.39 9.82 11.41Q9.8 11.45 9.76 11.48Q9.75 11.48 9.75 11.48Q9.67 11.56 9.56 11.59Q9.41 11.64 9.25 11.64ZM16.91 4.06L12.09 4.06L12.09 12.61L13 12.61L13 11.9L13.34 12.33Q14.25 11.79 15.02 11.13Q15.41 11.48 15.89 11.79Q16.19 11.99 16.49 12.18Q16.79 12.36 17.09 12.53L17.6 11.76Q17.02 11.44 16.47 11.08Q16.04 10.82 15.66 10.51Q15.88 10.26 16.07 9.99Q16.69 9.11 17.02 8.04L17.02 7.25L13 7.25L13 4.91L16.01 4.91Q15.97 5.19 15.97 5.51Q15.92 5.62 15.89 5.7Q15.81 5.82 15.72 5.85Q15.66 5.89 15.53 5.89Q15.33 5.93 15.15 5.89L13.65 5.89L13.82 6.71L15.53 6.71Q15.84 6.71 16.15 6.68Q16.34 6.65 16.46 6.55Q16.51 6.52 16.54 6.47Q16.59 6.45 16.62 6.41Q16.68 6.34 16.71 6.25Q16.76 6.14 16.79 6.03Q16.83 5.89 16.83 5.74L16.91 4.06ZM42.4 10.08L42.34 9.57L42.26 9.14Q41.54 9.37 40.81 9.52L40.81 5.57L42.02 5.57L42.02 4.71L38.59 4.71L38.59 5.57L39.87 5.57L39.87 9.75Q39.13 9.95 38.34 10.14L38.59 11.05Q40.46 10.54 42.4 10.08ZM14.04 8.12L13.31 8.43Q13.59 9.25 14.06 9.95Q14.24 10.22 14.45 10.46Q13.73 11.05 13 11.48L13 8.07L16.09 8.07Q15.94 8.53 15.73 8.94Q15.45 9.46 15.07 9.91Q14.68 9.44 14.4 8.91Q14.2 8.53 14.04 8.12ZM21.27 9.26L25.81 9.26L25.81 11.16L21.27 11.16L21.27 9.26Z" fill="#FFFFFF" fill-opacity="1.000000" fill-rule="evenodd"/>
</svg>
