<svg width="24.000000" height="24.000000" viewBox="0 0 24 24" fill="none" xmlns="http://www.w3.org/2000/svg" xmlns:xlink="http://www.w3.org/1999/xlink">
	<desc>
			Created with Pixso.
	</desc>
	<defs>
		<clipPath id="clip30_2502">
			<rect width="24.000000" height="24.000000" fill="white" fill-opacity="0"/>
		</clipPath>
	</defs>
	<g opacity="0.600000">
		<g clip-path="url(#clip30_2502)">
			<rect width="24.000000" height="24.000000" fill="#000000" fill-opacity="0"/>
			<path d="M14 2.01C14.04 2.01 14.08 2.02 14.13 2.02C14.15 2.03 14.21 2.04 14.23 2.05C14.24 2.06 14.35 2.1 14.36 2.11C14.39 2.13 14.5 2.21 14.53 2.23L19.74 7.47C19.95 7.68 20.02 8 19.9 8.28C19.78 8.56 19.51 8.74 19.21 8.74L15.5 8.74C14.25 8.74 13.25 7.74 13.25 6.49L13.25 3.51L7.03 3.51C6.21 3.51 5.53 4.19 5.53 5.01L5.53 18.98C5.53 19.8 6.21 20.48 7.03 20.48L16.96 20.48C17.78 20.48 18.46 19.8 18.46 18.98L18.46 10.49C18.46 10.08 18.79 9.74 19.21 9.74C19.62 9.74 19.96 10.08 19.96 10.49L19.96 18.98C19.96 20.63 18.61 21.98 16.96 21.98L7.03 21.98C5.38 21.98 4.03 20.63 4.03 18.98L4.03 5.01C4.03 3.36 5.38 2.01 7.03 2.01L14 2.01ZM15.5 15.7C15.88 15.7 16.19 16.01 16.19 16.4C16.19 16.78 15.88 17.09 15.5 17.09L8.5 17.09C8.11 17.09 7.8 16.78 7.8 16.4C7.8 16.01 8.11 15.7 8.5 15.7L15.5 15.7ZM13.5 11.7C13.88 11.7 14.19 12.01 14.19 12.4C14.19 12.78 13.88 13.09 13.5 13.09L8.5 13.09C8.11 13.09 7.8 12.78 7.8 12.4C7.8 12.01 8.11 11.7 8.5 11.7L13.5 11.7ZM14.75 4.58L14.75 6.49C14.75 6.91 15.08 7.24 15.5 7.24L17.4 7.24L14.75 4.58Z" fill="#000000" fill-opacity="1.000000" fill-rule="nonzero"/>
		</g>
	</g>
</svg>
