<svg width="24.000000" height="24.000000" viewBox="0 0 24 24" fill="none" xmlns="http://www.w3.org/2000/svg" xmlns:xlink="http://www.w3.org/1999/xlink">
	<desc>
			Created with Pixso.
	</desc>
	<defs>
		<clipPath id="clip49_199">
			<rect width="24.000000" height="24.000000" fill="white" fill-opacity="0"/>
		</clipPath>
	</defs>
	<g clip-path="url(#clip49_199)">
		<g opacity="0.000000">
			<rect width="24.000000" height="24.000000" fill="#D8D8D8" fill-opacity="1.000000"/>
			<rect width="24.000000" height="24.000000" stroke="#000000" stroke-opacity="0" stroke-width="1.000000"/>
		</g>
		<path d="M15.49 2.6C15.87 2.6 16.19 2.88 16.24 3.25L16.24 3.35L16.24 4.31L17.99 4.31C19.59 4.31 20.9 5.56 20.99 7.13L20.99 7.31L21 8.85C21 9.23 20.71 9.54 20.35 9.59L20.24 9.6L6.26 9.6C5.84 9.6 5.51 9.26 5.51 8.85C5.51 8.47 5.79 8.16 6.16 8.11L6.26 8.1L19.49 8.1L19.49 7.31C19.49 6.53 18.9 5.89 18.14 5.81L17.99 5.81L5.99 5.81C5.22 5.81 4.57 6.4 4.5 7.16L4.49 7.31L4.49 18.39C4.49 19.17 5.09 19.81 5.85 19.88L5.99 19.89L17.99 19.89C18.77 19.89 19.42 19.3 19.49 18.54L19.49 18.39L19.49 11.36C19.49 10.94 19.83 10.61 20.24 10.61C20.62 10.61 20.94 10.89 20.99 11.26L20.99 18.39C20.99 19.99 19.75 21.29 18.17 21.39L17.99 21.39L5.99 21.39C4.4 21.39 3.09 20.14 3 18.57L2.99 18.39L2.99 7.31C2.99 5.71 4.24 4.4 5.82 4.31L5.99 4.31L7.74 4.31L7.74 3.35C7.74 2.93 8.08 2.6 8.49 2.6C8.87 2.6 9.19 2.88 9.24 3.25L9.24 3.35L9.24 4.31L14.74 4.31L14.74 3.35C14.74 2.93 15.08 2.6 15.49 2.6ZM11.51 11.63C11.93 11.63 12.26 11.96 12.26 12.38L12.26 15.37L14.57 15.37C14.99 15.37 15.32 15.71 15.32 16.12C15.32 16.54 14.99 16.87 14.57 16.87L11.56 16.87C11.12 16.87 10.76 16.51 10.76 16.07L10.76 12.38C10.76 11.96 11.1 11.63 11.51 11.63Z" fill="#000000" fill-opacity="0.600000" fill-rule="evenodd"/>
		<path d="M16.24 3.25L16.24 3.35L16.24 4.31L17.99 4.31C19.59 4.31 20.9 5.56 20.99 7.13L20.99 7.31L21 8.85C21 9.23 20.71 9.54 20.35 9.59L20.24 9.6L6.26 9.6C5.84 9.6 5.51 9.26 5.51 8.85C5.51 8.47 5.79 8.16 6.16 8.11L6.26 8.1L19.49 8.1L19.49 7.31C19.49 6.53 18.9 5.89 18.14 5.81L17.99 5.81L5.99 5.81C5.22 5.81 4.57 6.4 4.5 7.16L4.49 7.31L4.49 18.39C4.49 19.17 5.09 19.81 5.85 19.88L5.99 19.89L17.99 19.89C18.77 19.89 19.42 19.3 19.49 18.54L19.49 18.39L19.49 11.36C19.49 10.94 19.83 10.61 20.24 10.61C20.62 10.61 20.94 10.89 20.99 11.26L20.99 18.39C20.99 19.99 19.75 21.29 18.17 21.39L17.99 21.39L5.99 21.39C4.4 21.39 3.09 20.14 3 18.57L2.99 18.39L2.99 7.31C2.99 5.71 4.24 4.4 5.82 4.31L5.99 4.31L7.74 4.31L7.74 3.35C7.74 2.93 8.08 2.6 8.49 2.6C8.87 2.6 9.19 2.88 9.24 3.25L9.24 3.35L9.24 4.31L14.74 4.31L14.74 3.35C14.74 2.93 15.08 2.6 15.49 2.6C15.87 2.6 16.19 2.88 16.24 3.25ZM12.26 12.38L12.26 15.37L14.57 15.37C14.99 15.37 15.32 15.71 15.32 16.12C15.32 16.54 14.99 16.87 14.57 16.87L11.56 16.87C11.12 16.87 10.76 16.51 10.76 16.07L10.76 12.38C10.76 11.96 11.1 11.63 11.51 11.63C11.93 11.63 12.26 11.96 12.26 12.38Z" stroke="#000000" stroke-opacity="0" stroke-width="1.000000"/>
	</g>
</svg>
