<svg width="24.000000" height="24.000000" viewBox="0 0 24 24" fill="none" xmlns="http://www.w3.org/2000/svg" xmlns:xlink="http://www.w3.org/1999/xlink">
	<desc>
			Created with Pixso.
	</desc>
	<defs>
		<clipPath id="clip256_2735">
			<rect width="24.000000" height="24.000000" fill="white" fill-opacity="0"/>
		</clipPath>
	</defs>
	<g clip-path="url(#clip256_2735)">
		<rect y="-1.000000" width="24.000000" height="24.000000" fill="#000000" fill-opacity="0"/>
		<path d="M14 1.03C14.04 1.03 14.08 1.04 14.13 1.05C14.15 1.05 14.21 1.06 14.23 1.07C14.24 1.08 14.35 1.12 14.36 1.13C14.39 1.15 14.5 1.23 14.53 1.26L19.74 6.54C19.95 6.76 20.02 7.08 19.9 7.37C19.78 7.65 19.51 7.83 19.21 7.83L15.5 7.83C14.25 7.83 13.25 6.82 13.25 5.56L13.25 2.55L7.03 2.55C6.21 2.55 5.53 3.23 5.53 4.07L5.53 18.17C5.53 19.01 6.21 19.69 7.03 19.69L16.96 19.69C17.78 19.69 18.46 19.01 18.46 18.17L18.46 9.6C18.46 9.18 18.79 8.84 19.21 8.84C19.62 8.84 19.96 9.18 19.96 9.6L19.96 18.17C19.96 19.84 18.61 21.2 16.96 21.2L7.03 21.2C5.38 21.2 4.03 19.84 4.03 18.17L4.03 4.07C4.03 2.39 5.38 1.03 7.03 1.03L14 1.03ZM15.5 14.86C15.88 14.86 16.19 15.18 16.19 15.56C16.19 15.95 15.88 16.26 15.5 16.26L8.5 16.26C8.11 16.26 7.8 15.95 7.8 15.56C7.8 15.18 8.11 14.86 8.5 14.86L15.5 14.86ZM13.5 10.82C13.88 10.82 14.19 11.14 14.19 11.52C14.19 11.91 13.88 12.22 13.5 12.22L8.5 12.22C8.11 12.22 7.8 11.91 7.8 11.52C7.8 11.14 8.11 10.82 8.5 10.82L13.5 10.82ZM14.75 3.63L14.75 5.56C14.75 5.98 15.08 6.32 15.5 6.32L17.4 6.32L14.75 3.63Z" fill="#666666" fill-opacity="1.000000" fill-rule="nonzero"/>
	</g>
</svg>
