<svg width="48.000000" height="48.000000" viewBox="0 0 48 48" fill="none" xmlns="http://www.w3.org/2000/svg" xmlns:xlink="http://www.w3.org/1999/xlink">
	<desc>
			Created with Pixso.
	</desc>
	<defs/>
	<path d="M24.39 0L24 0C10.89 0 0.21 10.51 0 23.6L0 23.98C0 37.1 10.51 47.78 23.6 47.99L23.98 48C37.1 48 47.78 37.48 47.99 24.39L48 24.01C48 10.89 37.48 0.21 24.39 0Z" fill="#000000" fill-opacity="0.050000" fill-rule="evenodd"/>
	<path d="M24 0C10.89 0 0.21 10.51 0 23.6L0 23.98C0 37.1 10.51 47.78 23.6 47.99L23.98 48C37.1 48 47.78 37.48 47.99 24.39L48 24.01C48 10.89 37.48 0.21 24.39 0L24 0Z" stroke="#000000" stroke-opacity="0" stroke-width="1.000000"/>
	<mask id="mask288_1842" mask-type="alpha" maskUnits="userSpaceOnUse" x="4.800018" y="4.800049" width="38.399994" height="38.399902">
		<circle cx="24.000031" cy="24.000000" r="19.200001" fill="#FFFFFF" fill-opacity="1.000000"/>
	</mask>
	<g mask="url(#mask288_1842)">
		<path d="M8.2 35.73C9.35 33.39 12.34 26.39 24 26.39C35.66 26.39 38.7 33.39 39.8 35.73C40.23 36.64 40.52 37.86 40.67 39.4C40.86 41.3 39.47 42.99 37.57 43.18C37.46 43.19 37.35 43.2 37.23 43.2L10.74 43.2C8.83 43.2 7.29 41.65 7.29 39.74C7.29 39.63 7.29 39.52 7.31 39.41C7.45 37.87 7.75 36.64 8.2 35.73Z" fill="#000000" fill-opacity="0.247059" fill-rule="evenodd"/>
		<path d="M24 26.39C35.66 26.39 38.7 33.39 39.8 35.73C40.23 36.64 40.52 37.86 40.67 39.4C40.86 41.3 39.47 42.99 37.57 43.18C37.46 43.19 37.35 43.2 37.23 43.2L10.74 43.2C8.83 43.2 7.29 41.65 7.29 39.74C7.29 39.63 7.29 39.52 7.31 39.41C7.45 37.87 7.75 36.64 8.2 35.73C9.35 33.39 12.34 26.39 24 26.39Z" stroke="#000000" stroke-opacity="0" stroke-width="1.000000"/>
		<path d="M24 9.6C20.02 9.6 16.79 12.82 16.79 16.79C16.79 20.77 20.02 24 24 24C27.97 24 31.2 20.77 31.2 16.79C31.2 12.82 27.97 9.6 24 9.6Z" fill="#000000" fill-opacity="0.247059" fill-rule="evenodd"/>
		<path d="M16.79 16.79C16.79 20.77 20.02 24 24 24C27.97 24 31.2 20.77 31.2 16.79C31.2 12.82 27.97 9.6 24 9.6C20.02 9.6 16.79 12.82 16.79 16.79Z" stroke="#000000" stroke-opacity="0" stroke-width="1.000000"/>
	</g>
</svg>
