<svg width="24.000000" height="24.000000" viewBox="0 0 24 24" fill="none" xmlns="http://www.w3.org/2000/svg" xmlns:xlink="http://www.w3.org/1999/xlink">
  <metadata>
    <agcit_code>agcit_huawei_weather_module_weather_core</agcit_code>
  </metadata>
	<desc>
			Created with Pixso.
	</desc>
	<defs>
		<clipPath id="clip136_5115">
			<rect id="svg" width="24.000000" height="24.000000" fill="white" fill-opacity="0"/>
		</clipPath>
	</defs>
	<g clip-path="url(#clip136_5115)">
		<g opacity="0.000000">
			<rect id="rect" width="24.000000" height="24.000000" fill="#000000" fill-opacity="1.000000"/>
		</g>
		<path id="path" d="M16.2 9.07C16.04 8.91 15.85 8.83 15.64 8.83C15.45 8.83 15.29 8.9 15.15 9.04C15 9.19 14.92 9.37 14.92 9.57C14.92 9.77 15 9.95 15.15 10.12C15.64 10.62 15.88 11.24 15.88 11.97C15.88 12.68 15.63 13.3 15.12 13.84C14.98 13.99 14.91 14.17 14.91 14.37C14.91 14.58 14.98 14.76 15.12 14.91C15.26 15.05 15.43 15.12 15.64 15.12C15.85 15.12 16.03 15.05 16.17 14.91C16.56 14.51 16.86 14.05 17.07 13.54C17.27 13.04 17.37 12.52 17.37 11.97C17.37 11.43 17.27 10.91 17.07 10.41C16.86 9.89 16.57 9.45 16.2 9.07ZM19.03 6.36C18.88 6.2 18.7 6.12 18.51 6.12C18.29 6.12 18.12 6.19 17.96 6.33C17.83 6.48 17.76 6.66 17.76 6.87C17.76 7.07 17.83 7.24 17.96 7.39C18.57 7.98 19.03 8.67 19.35 9.46C19.68 10.25 19.84 11.07 19.84 11.92C19.84 12.79 19.68 13.61 19.36 14.38C19.04 15.16 18.59 15.86 18 16.46C17.86 16.61 17.79 16.78 17.79 16.99C17.79 17.2 17.86 17.37 18 17.52C18.14 17.66 18.31 17.73 18.52 17.73C18.73 17.73 18.91 17.66 19.04 17.52C19.79 16.78 20.36 15.93 20.76 14.97C21.16 14.01 21.36 13 21.36 11.95C21.36 10.88 21.16 9.87 20.76 8.91C20.36 7.95 19.78 7.1 19.03 6.36ZM11.59 18.75C11.83 18.75 12.06 18.7 12.27 18.6C12.54 18.46 12.75 18.28 12.91 18.03C13.07 17.77 13.15 17.49 13.15 17.2L13.15 6.79C13.15 6.5 13.07 6.23 12.91 5.97C12.75 5.72 12.54 5.53 12.27 5.4C12.06 5.3 11.83 5.25 11.59 5.25C11.22 5.25 10.9 5.36 10.63 5.59L7.2 8.39L4.59 8.39C4.04 8.39 3.58 8.59 3.21 8.97C2.83 9.34 2.64 9.8 2.64 10.35L2.64 13.63C2.64 14.17 2.83 14.64 3.21 15.03C3.58 15.41 4.04 15.6 4.59 15.6L7.2 15.6L10.63 18.4C10.93 18.63 11.25 18.75 11.59 18.75ZM7.72 9.88L11.64 6.79L11.56 17.23L7.72 14.11L4.59 14.11C4.46 14.11 4.35 14.06 4.26 13.96C4.17 13.87 4.12 13.76 4.12 13.63L4.12 10.35C4.12 10.22 4.17 10.1 4.27 10.02C4.36 9.93 4.47 9.88 4.59 9.88L7.72 9.88Z" fill="#3F7EF7" fill-opacity="1.000000" fill-rule="nonzero"/>
	</g>
</svg>
