<svg width="56.000000" height="56.000000" viewBox="0 0 56 56" fill="none" xmlns="http://www.w3.org/2000/svg" xmlns:xlink="http://www.w3.org/1999/xlink">
  <metadata>
    <agcit_code>agcit_huawei_weather_module_weather_core</agcit_code>
  </metadata>
	<desc>
			Created with Pixso.
	</desc>
	<defs>
		<clipPath id="clip118_3968">
			<rect id="ic_weather_sunny.svg" width="56.000000" height="56.000000" fill="white" fill-opacity="0"/>
		</clipPath>
		<linearGradient x1="29.624228" y1="14.583252" x2="29.624228" y2="41.416584" id="paint_linear_118_3964_0" gradientUnits="userSpaceOnUse">
			<stop stop-color="#FFE466"/>
			<stop offset="1.000000" stop-color="#FFC322"/>
		</linearGradient>
		<linearGradient x1="28.000006" y1="2.333252" x2="28.000006" y2="51.632999" id="paint_linear_118_3965_0" gradientUnits="userSpaceOnUse">
			<stop stop-color="#FFDF5C"/>
			<stop offset="1.000000" stop-color="#FFC323"/>
		</linearGradient>
	</defs>
	<g clip-path="url(#clip118_3968)">
		<rect id="矩形" width="56.000000" height="56.000000" fill="#000000" fill-opacity="0"/>
		<rect id="矩形" width="56.000000" height="56.000000" stroke="#000000" stroke-opacity="0" stroke-width="1.000000"/>
		<path id="Path-Copy" d="M14.58 27.99C14.58 35.4 20.59 41.41 28 41.41C35.4 41.41 41.41 35.4 41.41 27.99C41.41 20.59 35.4 14.58 28 14.58C20.59 14.58 14.58 20.59 14.58 27.99Z" fill="url(#paint_linear_118_3964_0)" fill-opacity="1.000000" fill-rule="evenodd"/>
		<path id="Path-Copy" d="M28 41.41C35.4 41.41 41.41 35.4 41.41 27.99C41.41 20.59 35.4 14.58 28 14.58C20.59 14.58 14.58 20.59 14.58 27.99C14.58 35.4 20.59 41.41 28 41.41Z" stroke="#000000" stroke-opacity="0" stroke-width="1.000000"/>
		<path id="Combined-Shape (边框)" d="M29.75 4.08C29.75 3.1 28.98 2.33 28 2.33C27.02 2.33 26.25 3.1 26.25 4.08L26.25 9.33C26.25 10.31 27.02 11.08 28 11.08C28.98 11.08 29.75 10.31 29.75 9.33L29.75 4.08ZM46.14 12.32L42.43 16.03C41.74 16.73 40.65 16.73 39.96 16.03C39.26 15.34 39.26 14.25 39.96 13.56L43.67 9.85C44.36 9.15 45.45 9.15 46.14 9.85C46.84 10.54 46.84 11.63 46.14 12.32ZM9.85 12.32C9.15 11.63 9.15 10.54 9.85 9.85C10.54 9.15 11.63 9.15 12.32 9.85L16.03 13.56C16.73 14.25 16.73 15.34 16.03 16.03C15.34 16.73 14.25 16.73 13.56 16.03L9.85 12.32ZM4.08 26.24L9.33 26.24C10.31 26.24 11.08 27.01 11.08 27.99C11.08 28.97 10.31 29.74 9.33 29.74L4.08 29.74C3.1 29.74 2.33 28.97 2.33 27.99C2.33 27.01 3.1 26.24 4.08 26.24ZM46.66 26.24L51.91 26.24C52.89 26.24 53.66 27.01 53.66 27.99C53.66 28.97 52.89 29.74 51.91 29.74L46.66 29.74C45.68 29.74 44.91 28.97 44.91 27.99C44.91 27.01 45.68 26.24 46.66 26.24ZM39.96 42.43C39.26 41.74 39.26 40.65 39.96 39.96C40.65 39.26 41.74 39.26 42.43 39.96L46.14 43.67C46.84 44.36 46.84 45.45 46.14 46.14C45.45 46.84 44.36 46.84 43.67 46.14L39.96 42.43ZM16.03 42.43L12.32 46.14C11.63 46.84 10.54 46.84 9.85 46.14C9.15 45.45 9.15 44.36 9.85 43.67L13.56 39.96C14.25 39.26 15.34 39.26 16.03 39.96C16.73 40.65 16.73 41.74 16.03 42.43ZM29.75 46.66C29.75 45.68 28.98 44.91 28 44.91C27.02 44.91 26.25 45.68 26.25 46.66L26.25 51.91C26.25 52.89 27.02 53.66 28 53.66C28.98 53.66 29.75 52.89 29.75 51.91L29.75 46.66Z" fill="url(#paint_linear_118_3965_0)" fill-opacity="1.000000" fill-rule="evenodd"/>
	</g>
</svg>
