<svg width="32.000000" height="32.000000" viewBox="0 0 32 32" fill="none" xmlns="http://www.w3.org/2000/svg" xmlns:xlink="http://www.w3.org/1999/xlink">
	<desc>
			Created with Pixso.
	</desc>
	<defs/>
	<mask id="mask_1_314" fill="white">
		<path d="M24.8729 4.86537C26.2864 4.30228 27.8176 5.28145 27.9333 6.76469L27.9402 6.94504L27.9402 24.4677C27.9402 25.9892 26.4622 27.0494 25.0424 26.6063L24.8724 26.5459L13.6511 22.0699C13.1381 21.8652 12.8881 21.2835 13.0928 20.7705C13.2803 20.3003 13.7848 20.0511 14.2627 20.1704L14.3921 20.2122L25.6143 24.6886C25.7479 24.742 25.892 24.6649 25.9304 24.5361L25.9402 24.4677L25.9402 6.94504C25.9402 6.80035 25.8151 6.6949 25.6809 6.70695L25.6136 6.72313L11.3557 12.4135L11.3557 19.55L13.0055 26.0497C13.1414 26.585 12.8176 27.1291 12.2822 27.265C11.7916 27.3895 11.2935 27.1278 11.1092 26.671L11.067 26.5417L9.57825 20.6767L6.64905 20.6767C5.21942 20.6767 4.05969 19.5184 4.05969 18.0887L4.05969 13.3234C4.05969 11.8938 5.21942 10.7354 6.64905 10.7354L10.1648 10.7354L24.8729 4.86537ZM9.35516 12.7348L9.35516 18.6761L6.64905 18.6773C6.32349 18.6773 6.05969 18.4139 6.05969 18.0893L6.05969 13.324L6.06921 13.2184C6.11908 12.9442 6.35968 12.736 6.64905 12.736L9.35516 12.7348Z" clip-rule="evenodd" fill="" fill-opacity="1.000000" fill-rule="evenodd"/>
	</mask>
	<path d="M24.8729 4.86537C26.2864 4.30228 27.8176 5.28145 27.9333 6.76469L27.9402 6.94504L27.9402 24.4677C27.9402 25.9892 26.4622 27.0494 25.0424 26.6063L24.8724 26.5459L13.6511 22.0699C13.1381 21.8652 12.8881 21.2835 13.0928 20.7705C13.2803 20.3003 13.7848 20.0511 14.2627 20.1704L14.3921 20.2122L25.6143 24.6886C25.7479 24.742 25.892 24.6649 25.9304 24.5361L25.9402 24.4677L25.9402 6.94504C25.9402 6.80035 25.8151 6.6949 25.6809 6.70695L25.6136 6.72313L11.3557 12.4135L11.3557 19.55L13.0055 26.0497C13.1414 26.585 12.8176 27.1291 12.2822 27.265C11.7916 27.3895 11.2935 27.1278 11.1092 26.671L11.067 26.5417L9.57825 20.6767L6.64905 20.6767C5.21942 20.6767 4.05969 19.5184 4.05969 18.0887L4.05969 13.3234C4.05969 11.8938 5.21942 10.7354 6.64905 10.7354L10.1648 10.7354L24.8729 4.86537ZM9.35516 12.7348L9.35516 18.6761L6.64905 18.6773C6.32349 18.6773 6.05969 18.4139 6.05969 18.0893L6.05969 13.324L6.06921 13.2184C6.11908 12.9442 6.35968 12.736 6.64905 12.736L9.35516 12.7348Z" clip-rule="evenodd" fill="#666666" fill-opacity="1.000000" fill-rule="evenodd" mask="url(#mask_1_314)"/>
	<path d="" clip-rule="evenodd" fill="#979797" fill-opacity="0.000000" fill-rule="evenodd"/>
</svg>
