<svg width="16.000000" height="16.000000" viewBox="0 0 16 16" fill="none" xmlns="http://www.w3.org/2000/svg" xmlns:xlink="http://www.w3.org/1999/xlink">
	<desc>
			Created with Pixso.
	</desc>
	<defs>
		<clipPath id="clip19_4982">
			<rect id="ic_bpit_scenic_spot_border" width="16.000000" height="16.000000" fill="white" fill-opacity="0"/>
		</clipPath>
	</defs>
	<g clip-path="url(#clip19_4982)">
		<path id="path1" d="M0.5 7.99C0.5 6.82 0.49 5.65 0.5 4.47C0.49 3.91 0.56 3.34 0.7 2.79C1.01 1.63 1.77 0.94 2.93 0.67C3.51 0.55 4.11 0.49 4.7 0.5C6.95 0.5 9.2 0.5 11.45 0.5C12.01 0.49 12.58 0.56 13.13 0.69C14.33 0.98 15.05 1.74 15.32 2.93C15.44 3.5 15.5 4.07 15.49 4.65C15.49 6.92 15.49 9.19 15.49 11.46C15.5 12.03 15.43 12.59 15.3 13.13C15.01 14.33 14.25 15.04 13.05 15.32C12.47 15.44 11.88 15.5 11.28 15.49C9.04 15.49 6.81 15.49 4.57 15.49C4 15.5 3.43 15.43 2.87 15.3C1.67 15.01 0.95 14.25 0.67 13.05C0.53 12.44 0.5 11.83 0.5 11.21C0.5 10.14 0.5 9.06 0.5 7.99Z" fill="#FFFFFF" fill-opacity="0" fill-rule="nonzero"/>
		<path id="path1" d="M0.5 4.47C0.49 3.91 0.56 3.34 0.7 2.79C1.01 1.63 1.77 0.94 2.93 0.67C3.51 0.55 4.11 0.49 4.7 0.5C6.95 0.5 9.2 0.5 11.45 0.5C12.01 0.49 12.58 0.56 13.13 0.69C14.33 0.98 15.05 1.74 15.32 2.93C15.44 3.5 15.5 4.07 15.49 4.65C15.49 6.92 15.49 9.19 15.49 11.46C15.5 12.03 15.43 12.59 15.3 13.13C15.01 14.33 14.25 15.04 13.05 15.32C12.47 15.44 11.88 15.5 11.28 15.49C9.04 15.49 6.81 15.49 4.57 15.49C4 15.5 3.43 15.43 2.87 15.3C1.67 15.01 0.95 14.25 0.67 13.05C0.53 12.44 0.5 11.83 0.5 11.21C0.5 10.14 0.5 9.06 0.5 7.99C0.5 6.82 0.49 5.65 0.5 4.47Z" stroke="#FFFFFF" stroke-opacity="0" stroke-width="1.000000"/>
		<g opacity="0.200000">
			<path id="path2" d="M0.5 7.99C0.5 6.82 0.49 5.65 0.5 4.47C0.49 3.91 0.56 3.34 0.7 2.79C1.01 1.63 1.77 0.94 2.93 0.67C3.51 0.55 4.11 0.49 4.7 0.5C6.95 0.5 9.2 0.5 11.45 0.5C12.01 0.49 12.58 0.56 13.13 0.69C14.33 0.98 15.05 1.74 15.32 2.93C15.44 3.5 15.5 4.07 15.49 4.65C15.49 6.92 15.49 9.19 15.49 11.46C15.5 12.03 15.43 12.59 15.3 13.13C15.01 14.33 14.25 15.04 13.05 15.32C12.47 15.44 11.88 15.5 11.28 15.49C9.04 15.49 6.81 15.49 4.57 15.49C4 15.5 3.43 15.43 2.87 15.3C1.67 15.01 0.95 14.25 0.67 13.05C0.53 12.44 0.5 11.83 0.5 11.21C0.5 10.14 0.5 9.06 0.5 7.99Z" fill="#000000" fill-opacity="0" fill-rule="nonzero"/>
			<path id="path2" d="M0.5 4.47C0.49 3.91 0.56 3.34 0.7 2.79C1.01 1.63 1.77 0.94 2.93 0.67C3.51 0.55 4.11 0.49 4.7 0.5C6.95 0.5 9.2 0.5 11.45 0.5C12.01 0.49 12.58 0.56 13.13 0.69C14.33 0.98 15.05 1.74 15.32 2.93C15.44 3.5 15.5 4.07 15.49 4.65C15.49 6.92 15.49 9.19 15.49 11.46C15.5 12.03 15.43 12.59 15.3 13.13C15.01 14.33 14.25 15.04 13.05 15.32C12.47 15.44 11.88 15.5 11.28 15.49C9.04 15.49 6.81 15.49 4.57 15.49C4 15.5 3.43 15.43 2.87 15.3C1.67 15.01 0.95 14.25 0.67 13.05C0.53 12.44 0.5 11.83 0.5 11.21C0.5 10.14 0.5 9.06 0.5 7.99C0.5 6.82 0.49 5.65 0.5 4.47Z" stroke="#FFFFFF" stroke-opacity="0" stroke-width="1.000000"/>
		</g>
		<circle id="path3" cx="8.000000" cy="8.000000" r="8.000000" fill="#FFFFFF" fill-opacity="0"/>
		<circle id="path3" cx="8.000000" cy="8.000000" r="8.000000" stroke="#000000" stroke-opacity="0" stroke-width="1.000000"/>
		<path id="合并" d="M14.6138 7.5105C14.3359 7.48877 14.1348 7.25342 14.1548 6.97583C14.1597 6.89551 14.167 6.75049 14.167 6.66699C14.167 6.37549 14.1353 6.09106 14.0723 5.81372L14.0723 5.81372L14.0723 5.81323C14.0225 5.59619 13.9536 5.3833 13.8657 5.17505C13.7754 4.96191 13.668 4.75977 13.543 4.56934C13.3999 4.3501 13.2334 4.14575 13.0439 3.95654C12.855 3.76733 12.6504 3.60083 12.4312 3.45728C12.2407 3.33252 12.0386 3.2251 11.8252 3.13477C11.6167 3.04663 11.4043 2.97778 11.187 2.92847C10.9097 2.86523 10.625 2.83374 10.3335 2.83374C10.064 2.83374 9.7998 2.86084 9.5415 2.91504C9.35547 2.95435 9.17236 3.00732 8.99219 3.07471C8.80273 3.14551 8.62109 3.23022 8.44727 3.32861L8.44727 3.32861C8.23975 3.44604 8.04346 3.58301 7.8584 3.73975C7.64453 3.92065 7.33447 3.89502 7.15381 3.6814C6.97266 3.46753 6.99854 3.15747 7.21191 2.97656C7.44141 2.78223 7.68457 2.61206 7.94141 2.46558L7.94141 2.46558L7.94141 2.46558C8.16504 2.33813 8.39844 2.229 8.64258 2.13794C8.87891 2.04956 9.11914 1.98047 9.36377 1.93066L9.36377 1.93066C9.68018 1.86597 10.0034 1.83374 10.3335 1.83374C10.6929 1.83374 11.0435 1.87183 11.3857 1.948C11.668 2.01074 11.9443 2.09937 12.2148 2.21387C12.4883 2.32935 12.7466 2.46729 12.9902 2.62769C13.2622 2.80688 13.5161 3.01416 13.751 3.24951C13.9863 3.48462 14.1934 3.73828 14.3726 4.0105C14.5332 4.25415 14.6714 4.51245 14.7866 4.78564C14.9014 5.05615 14.9897 5.33276 15.0527 5.61499C15.1289 5.95728 15.167 6.30786 15.167 6.66699C15.167 6.77173 15.1587 6.94482 15.1519 7.05151C15.1299 7.33057 14.8931 7.53271 14.6138 7.5105ZM0.227539 9.58179C0.188477 9.71558 0.168945 9.85522 0.168945 10.0005C0.168945 10.1094 0.180176 10.2158 0.202637 10.3198C0.222656 10.4099 0.250488 10.498 0.287109 10.5845C0.323242 10.6707 0.367188 10.752 0.41748 10.8286C0.472656 10.9116 0.536133 10.9893 0.608398 11.0613C0.680176 11.1331 0.757812 11.1968 0.84082 11.2517C0.91748 11.3025 0.999023 11.3459 1.08496 11.3823C1.17139 11.4189 1.25977 11.447 1.34961 11.4666C1.45361 11.4893 1.56006 11.5005 1.66895 11.5005L14.333 11.5005C14.4316 11.5005 14.5288 11.4912 14.624 11.4722L14.624 11.4722C14.7192 11.4534 14.8125 11.4253 14.9038 11.3875C14.9956 11.3499 15.0815 11.3042 15.1626 11.2505C15.2432 11.1968 15.3188 11.1353 15.3892 11.0654C15.4663 10.9888 15.5342 10.906 15.5918 10.8167C15.6421 10.7393 15.6851 10.6572 15.7207 10.5703C15.7559 10.4839 15.7832 10.3958 15.8018 10.3057C15.8218 10.208 15.8325 10.1084 15.833 10.0066C15.833 9.90503 15.8237 9.80518 15.8042 9.70728C15.7861 9.61719 15.7598 9.52881 15.7251 9.44214C15.6904 9.35498 15.6479 9.27246 15.5986 9.19482C15.5415 9.10498 15.4746 9.02148 15.3979 8.94434L12.4946 6.01709C12.4185 5.94043 12.3364 5.87329 12.248 5.81567L12.248 5.81567C12.1714 5.76587 12.0898 5.7229 12.0034 5.68726C11.918 5.65186 11.8301 5.62451 11.7412 5.60571C11.644 5.58521 11.5454 5.57446 11.4443 5.57349C11.3433 5.57251 11.2441 5.5813 11.147 5.59985C11.0571 5.61719 10.9692 5.64258 10.8828 5.67651C10.7954 5.71045 10.7129 5.75195 10.6353 5.80054C10.5459 5.8562 10.4629 5.92163 10.3853 5.99658L8.99414 7.34521L6.61377 3.44482C6.55322 3.34546 6.48291 3.25537 6.40381 3.17456L6.40381 3.17456C6.32422 3.09375 6.23535 3.02197 6.13721 2.95972C6.04541 2.90137 5.94922 2.854 5.84961 2.81714C5.7627 2.7854 5.67334 2.76196 5.58057 2.74658C5.48877 2.7312 5.39648 2.72437 5.30469 2.72607L5.30469 2.72607C5.20508 2.72803 5.10547 2.74023 5.00635 2.76245C4.90674 2.78442 4.81152 2.81592 4.7207 2.85669C4.63672 2.89404 4.55664 2.93945 4.47949 2.99268C4.40234 3.0459 4.33154 3.10547 4.2666 3.17114C4.19189 3.24683 4.12549 3.33057 4.06689 3.42236L0.402344 9.19678C0.324707 9.31934 0.266113 9.44775 0.227539 9.58179ZM1.20557 10.1924C1.18115 10.1335 1.16895 10.0696 1.16895 10.0005C1.16895 9.95215 1.17529 9.90552 1.18848 9.86084C1.20117 9.81616 1.2207 9.77344 1.24658 9.73267L4.91113 3.95825C4.94824 3.8999 4.99268 3.85254 5.04492 3.81592C5.09717 3.77905 5.15674 3.75342 5.22412 3.73828C5.2915 3.72314 5.35693 3.72119 5.41943 3.73218C5.48242 3.74316 5.54297 3.76709 5.60156 3.80396C5.62793 3.83105 5.74023 3.93262 5.76025 3.96582L8.46631 8.3999C8.53857 8.51782 8.6416 8.59302 8.77588 8.62549C8.90967 8.65796 9.03613 8.63818 9.15381 8.56616L11.0815 6.7146C11.1309 6.66675 11.1846 6.6311 11.2437 6.60767C11.3022 6.58423 11.3662 6.57275 11.4346 6.57349C11.5029 6.57422 11.5664 6.58667 11.6245 6.61133C11.6831 6.63599 11.7363 6.67261 11.7847 6.72144L14.688 9.64844C14.7363 9.69751 14.7729 9.75146 14.7969 9.81055C14.8213 9.86963 14.833 9.93359 14.833 10.0027C14.8325 10.0715 14.8198 10.1355 14.7954 10.1943C14.7705 10.2532 14.7339 10.3069 14.6851 10.3555C14.6362 10.4038 14.5825 10.4399 14.5239 10.4641L14.5239 10.4644C14.4648 10.4885 14.4014 10.5005 14.333 10.5005L1.66895 10.5005C1.6001 10.5005 1.53613 10.4883 1.47705 10.4639L1.47705 10.4639L1.47705 10.4639C1.41797 10.4395 1.36426 10.4028 1.31543 10.354C1.2666 10.3052 1.22998 10.2515 1.20557 10.1924ZM1.5 12.3333C1.5 12.0532 1.71973 11.8333 2 11.8333L14 11.8333C14.2798 11.8333 14.5 12.0532 14.5 12.3333C14.5 12.613 14.2798 12.8333 14 12.8333L2 12.8333C1.71973 12.8333 1.5 12.613 1.5 12.3333ZM3.33301 13.3333L12.6665 13.3333C12.9468 13.3333 13.1665 13.5532 13.1665 13.8333C13.1665 14.113 12.9468 14.3333 12.6665 14.3333L3.33301 14.3333C3.05322 14.3333 2.83301 14.113 2.83301 13.8333C2.83301 13.5532 3.05322 13.3333 3.33301 13.3333Z" clip-rule="evenodd" fill="#FFFFFF" fill-opacity="1.000000" fill-rule="evenodd"/>
	</g>
</svg>
