<svg width="14.333496" height="14.333252" viewBox="0 0 14.3335 14.3333" fill="none" xmlns="http://www.w3.org/2000/svg" xmlns:xlink="http://www.w3.org/1999/xlink">
	<desc>
			Created with Pixso.
	</desc>
	<defs/>
	<path id="path-1" d="M7.16 0C11.12 0 14.33 3.2 14.33 7.16C14.33 11.12 11.12 14.33 7.16 14.33C3.2 14.33 0 11.12 0 7.16C0 3.2 3.2 0 7.16 0ZM7.16 1C3.76 1 1 3.76 1 7.16C1 10.57 3.76 13.33 7.16 13.33C10.57 13.33 13.33 10.57 13.33 7.16C13.33 3.76 10.57 1 7.16 1ZM8.25 7.58L10.94 10.27C11.14 10.46 11.14 10.78 10.94 10.97C10.74 11.17 10.43 11.17 10.23 10.97L7.53 8.27C7.86 8.16 8.13 7.9 8.25 7.58ZM7.16 7.66L7.09 7.66L7.16 7.66C7.13 7.66 7.12 7.66 7.09 7.66C7.08 7.65 7.04 7.65 7.03 7.64C7.01 7.64 6.94 7.61 6.93 7.6C6.92 7.6 6.86 7.56 6.85 7.55C6.84 7.54 6.79 7.49 6.78 7.48C6.77 7.47 6.73 7.41 6.72 7.4C6.72 7.39 6.69 7.32 6.68 7.31C6.68 7.28 6.66 7.19 6.66 7.16L6.66 3C6.66 2.72 6.89 2.5 7.16 2.5C7.44 2.5 7.66 2.72 7.66 3L7.66 7.16C7.66 7.44 7.44 7.66 7.16 7.66Z" fill="#FFFFFF" fill-opacity="1.000000" fill-rule="nonzero"/>
	<path id="path-1" d="M14.33 7.16C14.33 11.12 11.12 14.33 7.16 14.33C3.2 14.33 0 11.12 0 7.16C0 3.2 3.2 0 7.16 0C11.12 0 14.33 3.2 14.33 7.16ZM1 7.16C1 10.57 3.76 13.33 7.16 13.33C10.57 13.33 13.33 10.57 13.33 7.16C13.33 3.76 10.57 1 7.16 1C3.76 1 1 3.76 1 7.16ZM10.94 10.27C11.14 10.46 11.14 10.78 10.94 10.97C10.74 11.17 10.43 11.17 10.23 10.97L7.53 8.27C7.86 8.16 8.13 7.9 8.25 7.58L10.94 10.27ZM7.16 7.66L7.09 7.66M7.09 7.66C7.08 7.65 7.04 7.65 7.03 7.64C7.01 7.64 6.94 7.61 6.93 7.6C6.92 7.6 6.86 7.56 6.85 7.55C6.84 7.54 6.79 7.49 6.78 7.48C6.77 7.47 6.73 7.41 6.72 7.4C6.72 7.39 6.69 7.32 6.68 7.31C6.68 7.28 6.66 7.19 6.66 7.16L6.66 3C6.66 2.72 6.89 2.5 7.16 2.5C7.44 2.5 7.66 2.72 7.66 3L7.66 7.16C7.66 7.44 7.44 7.66 7.16 7.66C7.13 7.66 7.12 7.66 7.09 7.66Z" stroke="#000000" stroke-opacity="0" stroke-width="0.666667"/>
</svg>
