<svg width="16.000000" height="16.000000" viewBox="0 0 16 16" fill="none" xmlns="http://www.w3.org/2000/svg" xmlns:xlink="http://www.w3.org/1999/xlink">
	<desc>
			Created with Pixso.
	</desc>
	<defs>
		<clipPath id="clip19_4921">
			<rect id="ic_ict_single_path_detection_border" width="16.000000" height="16.000000" transform="translate(0.000000 16.000000) rotate(-90.000000)" fill="white" fill-opacity="0"/>
		</clipPath>
	</defs>
	<g clip-path="url(#clip19_4921)">
		<path id="path1" d="M7.99 16C6.74 16 5.49 16 4.24 16C3.63 16 3.03 15.92 2.45 15.78C1.2 15.45 0.47 14.64 0.18 13.4C0.05 12.78 -0.01 12.14 0 11.51C0 9.11 0 6.71 0 4.32C-0.01 3.71 0.06 3.11 0.2 2.52C0.51 1.24 1.32 0.47 2.6 0.18C3.2 0.05 3.81 -0.01 4.43 0C6.85 0 9.27 0 11.69 0C12.29 0 12.89 0.06 13.47 0.2C14.75 0.52 15.51 1.33 15.81 2.6C15.94 3.22 16 3.85 15.99 4.49C15.99 6.88 15.99 9.27 15.99 11.65C16 12.26 15.93 12.87 15.79 13.46C15.48 14.75 14.66 15.52 13.39 15.81C12.74 15.96 12.08 16 11.43 16C10.28 16 9.14 16 7.99 16Z" fill="#FFFFFF" fill-opacity="0" fill-rule="evenodd"/>
		<circle id="path2" r="8.000000" transform="matrix(0 -1 1 0 8 8)" fill="#FFFFFF" fill-opacity="0"/>
		<path id="合并" d="M1.84961 13.4824L2.5 14.1311L2.5 3.16675C2.5 2.94458 2.52344 2.72754 2.57031 2.51587C2.60938 2.34009 2.66455 2.16797 2.73535 1.99951C2.80811 1.82812 2.89453 1.66626 2.99512 1.51367C3.10547 1.34644 3.23291 1.19043 3.37744 1.0459C3.52246 0.900635 3.6792 0.772705 3.84668 0.661865C3.99902 0.561523 4.16016 0.475098 4.33105 0.402832C4.49805 0.332275 4.66846 0.277588 4.84277 0.238525C5.05664 0.190674 5.27539 0.166748 5.5 0.166748C5.72021 0.166748 5.93506 0.189941 6.14551 0.236084C6.32324 0.275146 6.49707 0.330811 6.66797 0.402832C6.8374 0.474854 6.99805 0.560547 7.14941 0.660156C7.31787 0.771484 7.4751 0.899902 7.62109 1.04565C7.76709 1.19165 7.89551 1.34888 8.00684 1.51782L8.00684 1.51782C8.10645 1.66895 8.19238 1.82959 8.26416 1.99927C8.33594 2.16968 8.3916 2.34375 8.43066 2.52173C8.47705 2.73169 8.5 2.94678 8.5 3.16675L8.5 12.8335C8.5 12.9927 8.51807 13.1475 8.55371 13.2983L8.55371 13.2983L8.55371 13.2983L8.55371 13.2983C8.5791 13.4055 8.61328 13.5105 8.65674 13.6133C8.7041 13.7256 8.76074 13.832 8.82666 13.9324C8.90137 14.0454 8.9873 14.1509 9.08496 14.2488C9.18262 14.3464 9.28809 14.4324 9.40137 14.5068C9.50146 14.5725 9.60791 14.6294 9.72021 14.6768C9.82324 14.7202 9.92822 14.7546 10.0352 14.78C10.186 14.8157 10.3408 14.8335 10.5 14.8335C10.6548 14.8335 10.8057 14.8164 10.9526 14.7825C11.0635 14.7571 11.1719 14.7217 11.2783 14.6768C11.3896 14.6296 11.4956 14.5735 11.5947 14.5083C11.709 14.4336 11.8154 14.3472 11.9141 14.2485C12.0132 14.1494 12.1006 14.0425 12.1753 13.9277C12.2402 13.8286 12.2964 13.7236 12.3433 13.613C12.3872 13.5083 12.4224 13.4014 12.4478 13.2922L12.4478 13.292C12.4829 13.1433 12.5 12.9905 12.5 12.8335L12.5 4.10376C12.4058 4.07935 12.313 4.04785 12.2217 4.00928C12.1074 3.96094 11.9995 3.90332 11.8979 3.83618C11.7861 3.76245 11.6821 3.67725 11.5859 3.58081C11.4893 3.48438 11.4043 3.38037 11.3306 3.26904C11.2637 3.16724 11.2056 3.05933 11.1572 2.94531C11.1094 2.8313 11.0723 2.71484 11.0459 2.59595C11.0156 2.45605 11 2.31299 11 2.16675C11 2.02026 11.0156 1.8772 11.0459 1.73755C11.0723 1.61865 11.1094 1.50195 11.1572 1.38794C11.2056 1.27393 11.2637 1.16602 11.3306 1.06445C11.4043 0.952881 11.4893 0.848877 11.5859 0.752441C11.6821 0.656006 11.7861 0.570801 11.8979 0.497314C11.9995 0.429932 12.1074 0.372314 12.2217 0.323975C12.3354 0.275879 12.4521 0.23877 12.5708 0.212646C12.7104 0.181885 12.8535 0.166748 13 0.166748C13.1465 0.166748 13.2896 0.181885 13.4292 0.212646C13.5483 0.23877 13.6646 0.275879 13.7788 0.323975C13.8931 0.372314 14.001 0.429932 14.1025 0.497314C14.2139 0.570801 14.3179 0.656006 14.4146 0.752441C14.5107 0.848877 14.5957 0.952881 14.6694 1.06445C14.7368 1.16602 14.7944 1.27393 14.8428 1.38794C14.8911 1.50195 14.9282 1.61865 14.9541 1.73755C14.9849 1.8772 15 2.02026 15 2.16675C15 2.31299 14.9849 2.45605 14.9541 2.59595C14.9282 2.71484 14.8911 2.8313 14.8428 2.94531C14.7944 3.05933 14.7368 3.16724 14.6694 3.2688L14.6694 3.26904C14.5957 3.38037 14.5107 3.48438 14.4146 3.58081C14.3179 3.67725 14.2139 3.76245 14.1025 3.83618C14.001 3.90332 13.8931 3.96094 13.7788 4.00928C13.6875 4.04785 13.5947 4.07935 13.5 4.10376L13.5 12.8335C13.5 13.0581 13.4761 13.2771 13.4282 13.491L13.4282 13.4915C13.3892 13.6653 13.3345 13.8357 13.2642 14.0024C13.1919 14.1733 13.1055 14.3347 13.0049 14.4868C12.894 14.6545 12.7661 14.811 12.6211 14.9561C12.4766 15.1003 12.3203 15.2278 12.1533 15.3384C12.001 15.439 11.8389 15.5256 11.6675 15.5979C11.499 15.6692 11.3267 15.7241 11.1514 15.7632C10.9395 15.8101 10.7222 15.8335 10.5 15.8335C10.2734 15.8335 10.0527 15.8093 9.83691 15.7607L9.83691 15.7607L9.83691 15.7605C9.66455 15.7219 9.49658 15.6677 9.33154 15.5981C9.15918 15.5251 8.99609 15.438 8.84277 15.3364L8.84277 15.3364L8.84277 15.3364C8.67676 15.2266 8.52148 15.0996 8.37793 14.9558C8.23389 14.812 8.10693 14.657 7.99707 14.491C7.89551 14.3374 7.80811 14.1746 7.73535 14.0022C7.66602 13.8372 7.61182 13.6687 7.57324 13.4968L7.57275 13.4968C7.52441 13.2812 7.5 13.0601 7.5 12.8335L7.5 3.16675C7.5 3.0144 7.4834 2.86548 7.45068 2.72046C7.4248 2.60767 7.38867 2.49707 7.34326 2.38892C7.29639 2.27905 7.24121 2.17505 7.17725 2.07666C7.10156 1.96069 7.01416 1.85278 6.91406 1.75293C6.81396 1.65283 6.70605 1.56519 6.59033 1.48975C6.49219 1.42554 6.3877 1.37036 6.27783 1.32397C6.16992 1.27808 6.05908 1.24219 5.94629 1.21655C5.80127 1.18335 5.65283 1.16675 5.5 1.16675C5.34326 1.16675 5.19043 1.18433 5.0415 1.21899C4.93213 1.24463 4.8252 1.27954 4.7207 1.32397C4.60986 1.37085 4.50488 1.42651 4.40576 1.49146C4.29102 1.56641 4.18408 1.65356 4.08496 1.75269C3.98633 1.85132 3.8999 1.95776 3.8252 2.07202C3.75977 2.17163 3.7041 2.2771 3.65674 2.38843C3.61182 2.49487 3.57666 2.60352 3.55078 2.71436C3.51709 2.86133 3.5 3.01221 3.5 3.16675L3.5 14.1226L4.14307 13.4795C4.34131 13.2815 4.65234 13.2815 4.8501 13.4795C5.04834 13.6775 5.04834 13.9885 4.8501 14.1865L3.40332 15.6333C3.34766 15.6892 3.28564 15.7314 3.21777 15.7595C3.14941 15.7881 3.07568 15.8022 2.99561 15.8022C2.90771 15.8022 2.82812 15.7856 2.75586 15.7524L2.75586 15.7524C2.69238 15.7231 2.63477 15.6814 2.58301 15.6265L1.14355 14.1902C0.945312 13.9924 0.944824 13.6814 1.14258 13.4832C1.34033 13.2849 1.65137 13.2847 1.84961 13.4824ZM13 3.16675C13.0791 3.16675 13.1558 3.15796 13.2305 3.14014C13.2847 3.12744 13.3374 3.11011 13.3892 3.08838C13.4434 3.06543 13.4951 3.03809 13.5435 3.00659C13.6021 2.96851 13.6567 2.92432 13.707 2.87378C13.7578 2.82324 13.8018 2.7688 13.8398 2.71021C13.8716 2.66138 13.8989 2.61011 13.9219 2.55566C13.9438 2.50391 13.9609 2.45093 13.9736 2.39697C13.9912 2.32227 14 2.24561 14 2.16675C14 2.08789 13.9912 2.01099 13.9736 1.93628C13.9609 1.88232 13.9438 1.82935 13.9219 1.77759C13.8989 1.72339 13.8716 1.67188 13.8398 1.62305C13.8018 1.5647 13.7578 1.51001 13.707 1.45947C13.6567 1.40918 13.6021 1.36475 13.5435 1.3269C13.4951 1.29517 13.4434 1.26807 13.3892 1.24512C13.3374 1.22314 13.2847 1.20581 13.2305 1.19312C13.1558 1.17554 13.0791 1.16675 13 1.16675C12.9214 1.16675 12.8442 1.17554 12.7695 1.19312C12.7158 1.20581 12.6626 1.22314 12.6108 1.24512C12.5566 1.26807 12.5054 1.29517 12.4565 1.3269C12.3979 1.36475 12.3433 1.40918 12.293 1.45947C12.2427 1.51001 12.1982 1.5647 12.1602 1.62329C12.1289 1.67188 12.1016 1.72339 12.0786 1.77759C12.0566 1.82935 12.0391 1.88232 12.0264 1.93628C12.0088 2.01099 12 2.08789 12 2.16675C12 2.24561 12.0088 2.32227 12.0264 2.39697C12.0391 2.45093 12.0566 2.50391 12.0786 2.55566C12.1016 2.61011 12.1289 2.66138 12.1602 2.71021C12.1982 2.7688 12.2427 2.82324 12.293 2.87378C12.3433 2.92432 12.3979 2.96851 12.4565 3.00659C12.5054 3.03809 12.5566 3.06543 12.6108 3.08838C12.6626 3.11011 12.7158 3.12744 12.7695 3.14038C12.8442 3.15796 12.9214 3.16675 13 3.16675Z" clip-rule="evenodd" fill="#FFFFFF" fill-opacity="1.000000" fill-rule="evenodd"/>
	</g>
</svg>
