<svg width="30.000000" height="30.000000" viewBox="0 0 30 30" fill="none" xmlns="http://www.w3.org/2000/svg" xmlns:xlink="http://www.w3.org/1999/xlink">
	<desc>
			Created with Pixso.
	</desc>
	<defs/>
	<rect rx="15.000000" width="30.000000" height="30.000000" fill="#FFFFFF" fill-opacity="0"/>
	<rect rx="15.000000" width="30.000000" height="30.000000" fill="#E64566" fill-opacity="1.000000"/>
	<g opacity="0.000000">
		<rect x="4.921875" y="4.921875" width="20.156250" height="20.156250" fill="#D8D8D8" fill-opacity="1.000000"/>
		<rect x="4.921875" y="4.921875" width="20.156250" height="20.156250" stroke="#000000" stroke-opacity="0" stroke-width="1.500000"/>
	</g>
	<path d="M7.22 6.91C8.08 6.91 8.84 7.47 9.1 8.28L9.14 8.42L9.22 8.73L22.77 8.74C23.14 8.74 23.43 9.06 23.4 9.42L23.38 9.51L21.85 16.21C21.6 17.31 20.65 18.1 19.54 18.17L19.39 18.17L11.52 18.17L11.81 19.37L19.9 19.37C20.92 19.38 21.76 20.2 21.76 21.22C21.76 22.25 20.93 23.08 19.9 23.08C18.88 23.08 18.05 22.25 18.05 21.22C18.05 21.01 18.08 20.81 18.14 20.62L13.07 20.62C13.14 20.81 13.17 21.01 13.17 21.22C13.17 22.25 12.34 23.08 11.32 23.08C10.29 23.08 9.46 22.25 9.46 21.22C9.46 20.47 9.91 19.82 10.55 19.53L7.91 8.72C7.84 8.43 7.61 8.22 7.32 8.18L7.22 8.17C6.87 8.17 6.59 7.89 6.59 7.54C6.59 7.19 6.87 6.91 7.22 6.91ZM11.32 20.62C10.99 20.62 10.72 20.89 10.72 21.22C10.72 21.55 10.99 21.82 11.32 21.82C11.65 21.82 11.91 21.55 11.91 21.22C11.91 20.89 11.65 20.62 11.32 20.62ZM19.9 20.62C19.57 20.62 19.31 20.89 19.31 21.22C19.31 21.55 19.57 21.82 19.9 21.82C20.23 21.82 20.5 21.55 20.5 21.22C20.5 20.89 20.23 20.62 19.9 20.62Z" fill="#FFFFFF" fill-opacity="1.000000" fill-rule="evenodd"/>
	<path d="M9.1 8.28L9.14 8.42L9.22 8.73L22.77 8.74C23.14 8.74 23.43 9.06 23.4 9.42L23.38 9.51L21.85 16.21C21.6 17.31 20.65 18.1 19.54 18.17L19.39 18.17L11.52 18.17L11.81 19.37L19.9 19.37C20.92 19.38 21.76 20.2 21.76 21.22C21.76 22.25 20.93 23.08 19.9 23.08C18.88 23.08 18.05 22.25 18.05 21.22C18.05 21.01 18.08 20.81 18.14 20.62L13.07 20.62C13.14 20.81 13.17 21.01 13.17 21.22C13.17 22.25 12.34 23.08 11.32 23.08C10.29 23.08 9.46 22.25 9.46 21.22C9.46 20.47 9.91 19.82 10.55 19.53L7.91 8.72C7.84 8.43 7.61 8.22 7.32 8.18L7.22 8.17C6.87 8.17 6.59 7.89 6.59 7.54C6.59 7.19 6.87 6.91 7.22 6.91C8.08 6.91 8.84 7.47 9.1 8.28ZM10.72 21.22C10.72 21.55 10.99 21.82 11.32 21.82C11.65 21.82 11.91 21.55 11.91 21.22C11.91 20.89 11.65 20.62 11.32 20.62C10.99 20.62 10.72 20.89 10.72 21.22ZM19.31 21.22C19.31 21.55 19.57 21.82 19.9 21.82C20.23 21.82 20.5 21.55 20.5 21.22C20.5 20.89 20.23 20.62 19.9 20.62C19.57 20.62 19.31 20.89 19.31 21.22Z" stroke="#000000" stroke-opacity="0" stroke-width="1.500000"/>
</svg>
