<svg width="16.000000" height="16.000000" viewBox="0 0 16 16" fill="none" xmlns="http://www.w3.org/2000/svg" xmlns:xlink="http://www.w3.org/1999/xlink">
	<desc>
			Created with Pixso.
	</desc>
	<defs>
		<clipPath id="clip39_5474">
			<rect width="16.000000" height="16.000000" fill="white" fill-opacity="0"/>
		</clipPath>
	</defs>
	<g clip-path="url(#clip39_5474)">
		<path d="M8.99 0.83C9.46 0.83 9.88 1.11 10.06 1.54L10.61 2.82L11.18 3.15L12.57 2.98C13.01 2.93 13.45 3.14 13.69 3.52L14.71 5.27C14.94 5.67 14.91 6.18 14.63 6.55L13.79 7.67L13.79 8.32L14.63 9.44C14.9 9.8 14.94 10.28 14.73 10.68L13.72 12.44C13.48 12.84 13.03 13.07 12.57 13.01L11.18 12.84L10.61 13.17L10.06 14.45C9.88 14.87 9.48 15.14 9.03 15.16L7 15.16C6.53 15.16 6.11 14.88 5.93 14.45L5.38 13.17L4.81 12.84L3.42 13.01C2.98 13.07 2.54 12.86 2.3 12.48L1.28 10.72C1.05 10.32 1.08 9.81 1.36 9.44L2.2 8.32L2.2 7.67L1.36 6.55C1.09 6.19 1.05 5.71 1.26 5.31L2.27 3.55C2.51 3.15 2.96 2.92 3.42 2.98L4.81 3.15L5.38 2.82L5.93 1.54C6.11 1.12 6.51 0.85 6.96 0.83L8.99 0.83ZM8.99 1.83L7 1.83C6.94 1.83 6.88 1.87 6.85 1.93L6.28 3.26C6.21 3.43 6.09 3.57 5.93 3.66L5.27 4.04C5.11 4.13 4.93 4.17 4.75 4.15L3.3 3.97C3.24 3.96 3.17 4 3.14 4.05L2.15 5.77C2.12 5.83 2.12 5.9 2.16 5.95L3.03 7.11C3.14 7.26 3.2 7.43 3.2 7.61L3.2 8.38C3.2 8.56 3.14 8.73 3.03 8.88L2.16 10.04C2.12 10.09 2.12 10.16 2.15 10.22L3.14 11.94C3.17 11.99 3.24 12.03 3.3 12.02L4.75 11.84C4.93 11.82 5.11 11.86 5.27 11.95L5.93 12.33C6.09 12.42 6.21 12.56 6.28 12.73L6.85 14.06C6.88 14.12 6.94 14.16 7 14.16L8.99 14.16C9.05 14.16 9.12 14.12 9.14 14.06L9.71 12.73C9.78 12.56 9.91 12.42 10.06 12.33L10.72 11.95C10.88 11.86 11.06 11.82 11.24 11.84L12.69 12.02C12.75 12.03 12.82 11.99 12.85 11.94L13.84 10.22C13.87 10.16 13.87 10.09 13.83 10.04L12.96 8.88C12.85 8.73 12.79 8.56 12.79 8.38L12.79 7.61C12.79 7.43 12.85 7.26 12.96 7.11L13.83 5.95C13.87 5.9 13.87 5.83 13.84 5.77L12.85 4.05C12.82 4 12.75 3.96 12.69 3.97L11.24 4.15C11.06 4.17 10.88 4.13 10.72 4.04L10.06 3.66C9.91 3.57 9.78 3.43 9.71 3.26L9.14 1.93C9.12 1.87 9.05 1.83 8.99 1.83ZM8 5C9.65 5 11 6.34 11 8C11 9.65 9.65 11 8 11C6.34 11 5 9.65 5 8C5 6.34 6.34 5 8 5ZM8 6C6.89 6 6 6.89 6 8C6 9.1 6.89 10 8 10C9.1 10 10 9.1 10 8C10 6.89 9.1 6 8 6Z" fill="#000000" fill-opacity="1.000000" fill-rule="nonzero"/>
		<path d="M10.06 1.54L10.61 2.82L11.18 3.15L12.57 2.98C13.01 2.93 13.45 3.14 13.69 3.52L14.71 5.27C14.94 5.67 14.91 6.18 14.63 6.55L13.79 7.67L13.79 8.32L14.63 9.44C14.9 9.8 14.94 10.28 14.73 10.68L13.72 12.44C13.48 12.84 13.03 13.07 12.57 13.01L11.18 12.84L10.61 13.17L10.06 14.45C9.88 14.87 9.48 15.14 9.03 15.16L7 15.16C6.53 15.16 6.11 14.88 5.93 14.45L5.38 13.17L4.81 12.84L3.42 13.01C2.98 13.07 2.54 12.86 2.3 12.48L1.28 10.72C1.05 10.32 1.08 9.81 1.36 9.44L2.2 8.32L2.2 7.67L1.36 6.55C1.09 6.19 1.05 5.71 1.26 5.31L2.27 3.55C2.51 3.15 2.96 2.92 3.42 2.98L4.81 3.15L5.38 2.82L5.93 1.54C6.11 1.12 6.51 0.85 6.96 0.83L8.99 0.83C9.46 0.83 9.88 1.11 10.06 1.54ZM7 1.83C6.94 1.83 6.88 1.87 6.85 1.93L6.28 3.26C6.21 3.43 6.09 3.57 5.93 3.66L5.27 4.04C5.11 4.13 4.93 4.17 4.75 4.15L3.3 3.97C3.24 3.96 3.17 4 3.14 4.05L2.15 5.77C2.12 5.83 2.12 5.9 2.16 5.95L3.03 7.11C3.14 7.26 3.2 7.43 3.2 7.61L3.2 8.38C3.2 8.56 3.14 8.73 3.03 8.88L2.16 10.04C2.12 10.09 2.12 10.16 2.15 10.22L3.14 11.94C3.17 11.99 3.24 12.03 3.3 12.02L4.75 11.84C4.93 11.82 5.11 11.86 5.27 11.95L5.93 12.33C6.09 12.42 6.21 12.56 6.28 12.73L6.85 14.06C6.88 14.12 6.94 14.16 7 14.16L8.99 14.16C9.05 14.16 9.12 14.12 9.14 14.06L9.71 12.73C9.78 12.56 9.91 12.42 10.06 12.33L10.72 11.95C10.88 11.86 11.06 11.82 11.24 11.84L12.69 12.02C12.75 12.03 12.82 11.99 12.85 11.94L13.84 10.22C13.87 10.16 13.87 10.09 13.83 10.04L12.96 8.88C12.85 8.73 12.79 8.56 12.79 8.38L12.79 7.61C12.79 7.43 12.85 7.26 12.96 7.11L13.83 5.95C13.87 5.9 13.87 5.83 13.84 5.77L12.85 4.05C12.82 4 12.75 3.96 12.69 3.97L11.24 4.15C11.06 4.17 10.88 4.13 10.72 4.04L10.06 3.66C9.91 3.57 9.78 3.43 9.71 3.26L9.14 1.93C9.12 1.87 9.05 1.83 8.99 1.83L7 1.83ZM11 8C11 9.65 9.65 11 8 11C6.34 11 5 9.65 5 8C5 6.34 6.34 5 8 5C9.65 5 11 6.34 11 8ZM6 8C6 9.1 6.89 10 8 10C9.1 10 10 9.1 10 8C10 6.89 9.1 6 8 6C6.89 6 6 6.89 6 8Z" stroke="#000000" stroke-opacity="0" stroke-width="1.000000"/>
	</g>
</svg>
