<svg width="24.000000" height="24.000000" xmlns="http://www.w3.org/2000/svg">
	<g>
		<path d="M3.05 18.02C3.7 16.7 5.4 12.75 12 12.75C18.59 12.75 20.32 16.7 20.94 18.02C21.17 18.52 21.34 19.2 21.42 20.04C21.54 21.14 20.74 22.12 19.64 22.23C19.57 22.24 19.5 22.25 19.43 22.25L4.54 22.25C3.44 22.25 2.54 21.35 2.54 20.25C2.54 20.18 2.55 20.11 2.55 20.04C2.64 19.2 2.8 18.53 3.05 18.02ZM12 2.25C9.37 2.25 7.25 4.37 7.25 7C7.25 9.62 9.37 11.75 12 11.75C14.62 11.75 16.75 9.62 16.75 7C16.75 4.37 14.62 2.25 12 2.25Z" fill="#E64566FF"/>
	</g>
</svg>
