<svg width="24.000000" height="24.000000" xmlns="http://www.w3.org/2000/svg">
	<g>
		<path d="M19.07 15.05C19.49 15.05 19.87 14.88 20.21 14.54C20.56 14.2 20.76 13.79 20.82 13.3L21.9 5.68C21.92 5.59 21.92 5.48 21.88 5.39C21.85 5.28 21.79 5.18 21.71 5.09C21.57 4.93 21.38 4.85 21.16 4.85L5.92 4.85L5.56 2.68C5.53 2.51 5.44 2.36 5.29 2.23C5.15 2.12 4.99 2.06 4.81 2.06L2.82 2.06C2.62 2.06 2.44 2.13 2.29 2.28C2.15 2.42 2.08 2.6 2.08 2.81C2.08 3.01 2.15 3.19 2.29 3.34C2.44 3.47 2.62 3.55 2.82 3.55L4.19 3.55L5.94 13.7C5.53 13.84 5.19 14.1 4.93 14.46C4.68 14.82 4.55 15.22 4.55 15.67C4.55 16.05 4.65 16.41 4.84 16.74C5.04 17.06 5.3 17.32 5.62 17.52C5.95 17.71 6.31 17.81 6.69 17.81L20.08 17.81C20.29 17.81 20.47 17.73 20.61 17.58C20.75 17.42 20.82 17.24 20.82 17.04C20.82 16.83 20.75 16.65 20.61 16.51C20.47 16.37 20.29 16.29 20.08 16.29L6.66 16.29C6.49 16.29 6.34 16.24 6.22 16.12C6.1 16 6.04 15.85 6.04 15.67C6.04 15.49 6.11 15.35 6.23 15.23C6.36 15.11 6.5 15.05 6.66 15.05L19.07 15.05ZM20.29 6.36L19.33 13.08C19.32 13.2 19.26 13.32 19.15 13.42C19.05 13.51 18.93 13.56 18.78 13.56L7.43 13.56L6.21 6.34L20.29 6.36ZM8.08 20.18C8.08 20.66 8.25 21.07 8.59 21.42C8.94 21.76 9.35 21.93 9.83 21.93C10.31 21.93 10.73 21.76 11.07 21.42C11.41 21.07 11.58 20.66 11.58 20.18C11.58 19.7 11.41 19.29 11.07 18.95C10.73 18.6 10.31 18.43 9.83 18.43C9.35 18.43 8.94 18.6 8.59 18.95C8.25 19.29 8.08 19.7 8.08 20.18ZM15.09 20.18C15.09 20.66 15.26 21.07 15.59 21.42C15.93 21.76 16.33 21.93 16.81 21.93C17.31 21.93 17.73 21.76 18.06 21.42C18.4 21.07 18.57 20.66 18.57 20.18C18.57 19.7 18.4 19.29 18.06 18.95C17.73 18.6 17.31 18.43 16.81 18.43C16.33 18.43 15.93 18.6 15.59 18.95C15.26 19.29 15.09 19.7 15.09 20.18Z" fill="#000000FF"/>
	</g>
</svg>
