<svg width="16.000000" height="16.000000" viewBox="0 0 16 16" fill="none" xmlns="http://www.w3.org/2000/svg" xmlns:xlink="http://www.w3.org/1999/xlink">
	<desc>
			Created with Pixso.
	</desc>
	<defs/>
	<g opacity="0.000000">
		<rect width="16.000000" height="16.000000" fill="#000000" fill-opacity="1.000000"/>
	</g>
	<path d="M12 7.5C12.14 7.5 12.25 7.54 12.35 7.64C12.45 7.74 12.5 7.85 12.5 8C12.5 8.13 12.45 8.25 12.35 8.34C12.25 8.44 12.14 8.5 12 8.5L8.5 8.5L8.5 12C8.5 12.13 8.45 12.25 8.35 12.34C8.25 12.45 8.14 12.5 8 12.5C7.85 12.5 7.74 12.45 7.65 12.34C7.55 12.25 7.5 12.13 7.5 12L7.5 8.5L4 8.5C3.85 8.5 3.74 8.44 3.65 8.34C3.55 8.25 3.5 8.13 3.5 8C3.5 7.85 3.55 7.74 3.65 7.64C3.74 7.54 3.85 7.5 4 7.5L7.5 7.5L7.5 4C7.5 3.85 7.55 3.74 7.65 3.64C7.74 3.54 7.85 3.5 8 3.5C8.14 3.5 8.25 3.54 8.35 3.64C8.45 3.74 8.5 3.85 8.5 4L8.5 7.5L12 7.5ZM8 1.65C9.14 1.65 10.19 1.94 11.17 2.52C12.13 3.09 12.9 3.86 13.48 4.82C14.05 5.8 14.34 6.85 14.34 8C14.34 9.13 14.05 10.19 13.48 11.16C12.9 12.13 12.13 12.9 11.17 13.48C10.19 14.05 9.14 14.33 8 14.33C6.85 14.33 5.8 14.05 4.83 13.48C3.86 12.9 3.09 12.13 2.52 11.16C1.94 10.19 1.66 9.13 1.66 8C1.66 6.85 1.94 5.8 2.52 4.82C3.09 3.86 3.86 3.09 4.83 2.52C5.8 1.94 6.85 1.65 8 1.65ZM8 0.66C6.66 0.66 5.44 1 4.32 1.65C3.2 2.31 2.31 3.19 1.66 4.31C1 5.43 0.67 6.66 0.67 8C0.67 9.31 1 10.54 1.66 11.66C2.31 12.79 3.2 13.68 4.33 14.33C5.45 15 6.68 15.32 8 15.32C9.32 15.32 10.54 15 11.67 14.33C12.79 13.68 13.68 12.79 14.34 11.66C15 10.54 15.33 9.31 15.33 8C15.33 6.66 15 5.43 14.34 4.31C13.68 3.19 12.8 2.31 11.68 1.65C10.56 1 9.33 0.66 8 0.66Z" fill="#191919" fill-opacity="1.000000" fill-rule="nonzero"/>
</svg>
