<svg width="16.000000" height="16.000000" viewBox="0 0 16 16" fill="none" xmlns="http://www.w3.org/2000/svg" xmlns:xlink="http://www.w3.org/1999/xlink">
	<desc>
			Created with Pixso.
	</desc>
	<defs/>
	<g opacity="0.000000">
		<rect width="16.000000" height="16.000000" fill="#000000" fill-opacity="1.000000"/>
	</g>
	<path d="M11.33 1.94L11.33 1.7C11.33 1.51 11.26 1.35 11.14 1.22C11 1.1 10.85 1.04 10.67 1.04C10.49 1.04 10.33 1.1 10.2 1.22C10.06 1.35 10 1.51 10 1.7L10 1.94L6.02 1.94L6.02 1.7C6.02 1.51 5.95 1.35 5.82 1.22C5.68 1.1 5.52 1.04 5.34 1.04C5.16 1.04 5 1.1 4.87 1.22C4.73 1.35 4.67 1.51 4.67 1.7L4.67 1.94L3.33 1.94C2.96 1.94 2.63 2.04 2.33 2.21C2.02 2.4 1.78 2.65 1.6 2.95C1.42 3.26 1.33 3.59 1.33 3.94L1.33 12.96C1.33 13.51 1.52 13.98 1.91 14.38C2.3 14.76 2.77 14.96 3.33 14.96L12.67 14.96C13.22 14.96 13.69 14.76 14.09 14.38C14.47 13.98 14.67 13.51 14.67 12.96L14.67 3.94C14.67 3.39 14.47 2.92 14.09 2.54C13.69 2.14 13.22 1.94 12.67 1.94L11.33 1.94ZM4.67 2.95L4.67 3.09C4.67 3.28 4.73 3.44 4.87 3.57C5 3.69 5.16 3.76 5.34 3.76C5.52 3.76 5.68 3.69 5.82 3.57C5.95 3.44 6.02 3.28 6.02 3.09L6.02 2.95L10 2.95L10 3.09C10 3.28 10.06 3.44 10.19 3.57C10.31 3.69 10.47 3.76 10.66 3.76C10.84 3.76 10.99 3.69 11.13 3.57C11.26 3.44 11.33 3.28 11.33 3.09L11.33 2.95L12.66 2.95C12.93 2.95 13.17 3.06 13.37 3.26C13.56 3.45 13.66 3.68 13.66 3.94L13.66 5.41L2.34 5.41L2.34 3.94C2.34 3.67 2.43 3.44 2.63 3.25C2.83 3.05 3.06 2.95 3.33 2.95L4.67 2.95ZM3.33 13.97C3.05 13.97 2.81 13.87 2.62 13.66C2.43 13.47 2.34 13.24 2.34 12.96L2.34 6.42L13.66 6.42L13.66 12.96C13.66 13.24 13.56 13.47 13.38 13.66C13.18 13.87 12.95 13.97 12.67 13.97L3.33 13.97ZM7.66 11.17C7.62 11.22 7.57 11.25 7.52 11.25C7.48 11.25 7.44 11.22 7.38 11.17L5.81 9.63C5.73 9.53 5.62 9.48 5.46 9.48C5.33 9.48 5.21 9.53 5.12 9.63C5.02 9.72 4.97 9.84 4.97 9.97C4.97 10.12 5.02 10.24 5.12 10.34L6.67 11.89C6.9 12.12 7.18 12.24 7.52 12.24C7.85 12.24 8.13 12.12 8.37 11.89L11.41 8.85C11.51 8.74 11.57 8.62 11.57 8.47C11.57 8.34 11.51 8.22 11.41 8.13C11.33 8.03 11.22 7.97 11.07 7.97C10.93 7.97 10.81 8.03 10.72 8.13L7.66 11.17Z" fill="#191919" fill-opacity="1.000000" fill-rule="nonzero"/>
</svg>
