<svg width="16.000000" height="16.000000" viewBox="0 0 16 16" fill="none" xmlns="http://www.w3.org/2000/svg" xmlns:xlink="http://www.w3.org/1999/xlink">
	<desc>
			Created with Pixso.
	</desc>
	<defs>
		<clipPath id="clip349_2248">
			<rect width="16.000000" height="16.000000" fill="white" fill-opacity="0"/>
		</clipPath>
	</defs>
	<g clip-path="url(#clip349_2248)">
		<g opacity="0.000000">
			<rect width="16.000000" height="16.000000" fill="#000000" fill-opacity="1.000000"/>
		</g>
		<path d="M8.28 14.88C8.49 15.09 8.76 15.19 9.1 15.2C9.43 15.21 9.71 15.09 9.95 14.86C10.06 14.74 10.15 14.6 10.21 14.44L14.52 3.1C14.6 2.9 14.62 2.69 14.57 2.48C14.53 2.28 14.43 2.11 14.28 1.95C14.13 1.8 13.95 1.71 13.75 1.66C13.54 1.62 13.34 1.63 13.13 1.71L1.76 6.03C1.62 6.08 1.5 6.17 1.38 6.28C1.15 6.51 1.03 6.8 1.03 7.14C1.04 7.48 1.15 7.75 1.35 7.95C1.48 8.07 1.63 8.17 1.81 8.23L6.33 9.8C6.39 9.81 6.42 9.85 6.44 9.91L8.01 14.42C8.07 14.6 8.16 14.76 8.28 14.88ZM7.38 9.56C7.32 9.4 7.22 9.25 7.08 9.11C6.95 8.98 6.82 8.9 6.66 8.85L2.13 7.27C2.06 7.24 2.03 7.19 2.03 7.12C2.04 7.1 2.09 6.98 2.12 6.95L13.5 2.65C13.51 2.65 13.54 2.68 13.59 2.73L9.27 14.1C9.23 14.13 9.16 14.21 9.11 14.21C9.03 14.19 8.98 14.16 8.96 14.1L7.38 9.56Z" fill="#191919" fill-opacity="1.000000" fill-rule="nonzero"/>
	</g>
</svg>
