<svg width="56.000000" height="56.000000" viewBox="0 0 56 56" fill="none" xmlns="http://www.w3.org/2000/svg" xmlns:xlink="http://www.w3.org/1999/xlink">
	<desc>
			Created with Pixso.
	</desc>
	<defs>
		<filter id="filter_141_718_dd" x="0.000000" y="0.000000" width="56.000000" height="56.000000" filterUnits="userSpaceOnUse" color-interpolation-filters="sRGB">
			<feFlood flood-opacity="0" result="BackgroundImageFix"/>
			<feColorMatrix in="SourceAlpha" type="matrix" values="0 0 0 0 0 0 0 0 0 0 0 0 0 0 0 0 0 0 127 0" result="hardAlpha"/>
			<feOffset dx="0" dy="4"/>
			<feGaussianBlur stdDeviation="2.66667"/>
			<feComposite in2="hardAlpha" operator="out" k2="-1" k3="1"/>
			<feColorMatrix type="matrix" values="0 0 0 0 0 0 0 0 0 0 0 0 0 0 0 0 0 0 0.078 0"/>
			<feBlend mode="normal" in2="BackgroundImageFix" result="effect_dropShadow_1"/>
			<feBlend mode="normal" in="SourceGraphic" in2="effect_dropShadow_1" result="shape"/>
		</filter>
	</defs>
	<g filter="url(#filter_141_718_dd)">
		<circle cx="28.000000" cy="24.000000" r="20.000000" fill="#F3F3F3" fill-opacity="1.000000"/>
		<circle cx="28.000000" cy="24.000000" r="20.000000" fill="#FFFFFF" fill-opacity="1.000000"/>
		<circle cx="28.000000" cy="24.000000" r="20.000000" stroke="#000000" stroke-opacity="0" stroke-width="1.000000"/>
	</g>
	<path d="M19.83 21.27C19.34 19.97 19.01 18.31 18.83 16.3C18.83 16.26 18.83 16.22 18.83 16.18C18.83 15.44 19.44 14.83 20.18 14.83L22.8 14.83C23.46 14.83 24.03 15.31 24.13 15.97C24.24 16.65 24.35 17.19 24.45 17.6C24.59 18.22 24.87 19.14 25.28 20.35C25.19 21.29 24.87 21.81 24.32 21.93C25.21 25.76 29.94 28.23 30.06 27.67C30.18 27.12 30.7 26.8 31.64 26.71C32.85 27.12 33.77 27.4 34.39 27.54C34.8 27.64 35.34 27.75 36.02 27.86C36.68 27.96 37.16 28.53 37.16 29.19L37.16 31.81C37.16 32.55 36.55 33.16 35.81 33.16C35.77 33.16 35.73 33.16 35.69 33.16C33.68 32.98 32.02 32.65 30.72 32.16C24.92 30.26 21.29 26.63 19.83 21.27Z" fill="#191919" fill-opacity="1.000000" fill-rule="evenodd"/>
	<path d="M18.83 16.3C18.83 16.26 18.83 16.22 18.83 16.18C18.83 15.44 19.44 14.83 20.18 14.83L22.8 14.83C23.46 14.83 24.03 15.31 24.13 15.97C24.24 16.65 24.35 17.19 24.45 17.6C24.59 18.22 24.87 19.14 25.28 20.35C25.19 21.29 24.87 21.81 24.32 21.93C25.21 25.76 29.94 28.23 30.06 27.67C30.18 27.12 30.7 26.8 31.64 26.71C32.85 27.12 33.77 27.4 34.39 27.54C34.8 27.64 35.34 27.75 36.02 27.86C36.68 27.96 37.16 28.53 37.16 29.19L37.16 31.81C37.16 32.55 36.55 33.16 35.81 33.16C35.77 33.16 35.73 33.16 35.69 33.16C33.68 32.98 32.02 32.65 30.72 32.16C24.92 30.26 21.29 26.63 19.83 21.27C19.34 19.97 19.01 18.31 18.83 16.3Z" stroke="#191919" stroke-opacity="0" stroke-width="1.000000" stroke-linejoin="round"/>
</svg>
