<svg width="48.000000" height="48.000000" viewBox="0 0 48 48" fill="none" xmlns="http://www.w3.org/2000/svg" xmlns:xlink="http://www.w3.org/1999/xlink">
	<desc>
			Created with Pixso.
	</desc>
	<defs/>
	<g opacity="0.000000">
		<rect width="48.000000" height="48.000000" fill="#D8D8D8" fill-opacity="1.000000"/>
		<rect width="48.000000" height="48.000000" stroke="#64BB5C" stroke-opacity="0" stroke-width="1.000000"/>
	</g>
	<path d="M21.8 4.11C28.57 3.39 35.02 6.06 39.28 11.1C40.7 12.77 40.63 15.23 39.22 16.87L38.98 17.14L23 33.11C22.47 33.65 21.64 33.69 21.05 33.26L12.88 25.11C12.29 24.53 12.29 23.58 12.88 22.99C13.41 22.46 14.25 22.41 14.83 22.85L21.94 29.93L36.85 15.02C37.35 14.52 37.44 13.76 37.12 13.21C33.49 8.92 27.88 6.48 22.12 7.1C14.2 7.94 7.78 14.47 7.07 22.41C6.11 33.03 14.92 41.86 25.54 40.93C33.39 40.23 39.91 33.95 40.86 26.15C41.15 23.79 41.07 21.87 40.44 19.68C40.21 18.88 40.66 18.05 41.46 17.82C42.25 17.59 43.09 18.04 43.32 18.84C44.06 21.42 44.18 23.75 43.84 26.51C42.71 35.72 35.06 43.1 25.81 43.91C13.32 45.02 2.95 34.62 4.08 22.14C4.93 12.78 12.46 5.11 21.8 4.11Z" fill="#64BB5C" fill-opacity="1.000000" fill-rule="evenodd"/>
	<path d="M39.28 11.1C40.7 12.77 40.63 15.23 39.22 16.87L38.98 17.14L23 33.11C22.47 33.65 21.64 33.69 21.05 33.26L12.88 25.11C12.29 24.53 12.29 23.58 12.88 22.99C13.41 22.46 14.25 22.41 14.83 22.85L21.94 29.93L36.85 15.02C37.35 14.52 37.44 13.76 37.12 13.21C33.49 8.92 27.88 6.48 22.12 7.1C14.2 7.94 7.78 14.47 7.07 22.41C6.11 33.03 14.92 41.86 25.54 40.93C33.39 40.23 39.91 33.95 40.86 26.15C41.15 23.79 41.07 21.87 40.44 19.68C40.21 18.88 40.66 18.05 41.46 17.82C42.25 17.59 43.09 18.04 43.32 18.84C44.06 21.42 44.18 23.75 43.84 26.51C42.71 35.72 35.06 43.1 25.81 43.91C13.32 45.02 2.95 34.62 4.08 22.14C4.93 12.78 12.46 5.11 21.8 4.11C28.57 3.39 35.02 6.06 39.28 11.1Z" stroke="#64BB5C" stroke-opacity="0" stroke-width="1.000000"/>
</svg>
