<?xml version="1.0" standalone="no"?>
<svg xmlns="http://www.w3.org/2000/svg" width="24" height="24"><rect width="24" height="24" opacity="0"></rect><g><path d="M13.75 17.5Q13.75 16.78 13.24 16.26Q12.72 15.74 12 15.74Q11.28 15.74 10.76 16.26Q10.25 16.78 10.25 17.5Q10.25 18.22 10.76 18.73Q11.28 19.25 12 19.25Q12.72 19.25 13.24 18.73Q13.75 18.22 13.75 17.5ZM13.75 6.5Q13.75 5.76 13.24 5.26Q12.72 4.75 12 4.75Q11.28 4.75 10.76 5.26Q10.25 5.76 10.25 6.5Q10.25 7.22 10.76 7.74Q11.28 8.26 12 8.26Q12.72 8.26 13.24 7.74Q13.75 7.22 13.75 6.5Z" fill="rgba(0,0,0,0.9019607843137255)"></path></g></svg>