<svg width="120.000000" height="120.000000" viewBox="0 0 120 120" fill="none" xmlns="http://www.w3.org/2000/svg" xmlns:xlink="http://www.w3.org/1999/xlink">
	<desc>
			Created with Pixso.
	</desc>
	<defs>
		<clipPath id="clip34_381">
			<rect width="120.000000" height="120.000000" fill="white" fill-opacity="0"/>
		</clipPath>
	</defs>
	<g clip-path="url(#clip34_381)">
		<g opacity="0.150000">
			<path d="M18.57 97.09L18.57 99.05C18.57 100.24 19.5 101.22 20.68 101.3L20.84 101.31L99.44 101.31C100.64 101.31 101.62 100.38 101.7 99.2L101.7 99.05L101.7 97.35C103.83 98.21 105 99.15 105 100.13C105 101.32 103.3 102.44 100.27 103.43L99.63 103.63L98.95 103.83L98.23 104.03L97.48 104.22L96.69 104.41C96.55 104.44 96.42 104.47 96.28 104.5L95.44 104.68L94.57 104.86L93.66 105.03L92.73 105.2C92.41 105.26 92.09 105.31 91.76 105.37L90.77 105.52L89.74 105.68L88.69 105.82L87.6 105.97L86.49 106.11L85.36 106.24L84.2 106.36L83.01 106.48L81.8 106.6L80.57 106.71L79.32 106.81L78.04 106.91L76.74 107L75.42 107.08L74.08 107.16L72.73 107.23L71.35 107.29L69.96 107.35L68.55 107.39L67.13 107.44L64.96 107.49L63.5 107.51L62.03 107.52L60.54 107.53L59.05 107.53L57.56 107.52L56.09 107.51L54.63 107.49L53.18 107.45L51.75 107.42L50.33 107.37L48.93 107.32L47.55 107.26L46.18 107.19L44.84 107.12L43.51 107.04L42.2 106.95L40.91 106.86L39.65 106.76L38.4 106.65L37.18 106.54L35.98 106.42L34.81 106.3L33.66 106.17C33.47 106.15 33.28 106.13 33.1 106.11L31.99 105.97L30.91 105.82L29.85 105.68L28.83 105.52L27.83 105.37C27.67 105.34 27.5 105.31 27.34 105.28L26.39 105.12C26.24 105.09 26.08 105.06 25.93 105.03L25.02 104.86L24.15 104.68L23.31 104.5C23.17 104.47 23.04 104.44 22.9 104.41L22.12 104.22L21.36 104.03L20.64 103.83L19.96 103.63L19.32 103.43C16.29 102.44 14.59 101.32 14.59 100.13C14.59 99.13 15.81 98.17 18.02 97.3L18.57 97.09Z" fill="#A1A7B3" fill-opacity="1.000000" fill-rule="evenodd"/>
			<path d="M18.57 99.05C18.57 100.24 19.5 101.22 20.68 101.3L20.84 101.31L99.44 101.31C100.64 101.31 101.62 100.38 101.7 99.2L101.7 99.05L101.7 97.35C103.83 98.21 105 99.15 105 100.13C105 101.32 103.3 102.44 100.27 103.43L99.63 103.63L98.95 103.83L98.23 104.03L97.48 104.22L96.69 104.41C96.55 104.44 96.42 104.47 96.28 104.5L95.44 104.68L94.57 104.86L93.66 105.03L92.73 105.2C92.41 105.26 92.09 105.31 91.76 105.37L90.77 105.52L89.74 105.68L88.69 105.82L87.6 105.97L86.49 106.11L85.36 106.24L84.2 106.36L83.01 106.48L81.8 106.6L80.57 106.71L79.32 106.81L78.04 106.91L76.74 107L75.42 107.08L74.08 107.16L72.73 107.23L71.35 107.29L69.96 107.35L68.55 107.39L67.13 107.44L64.96 107.49L63.5 107.51L62.03 107.52L60.54 107.53L59.05 107.53L57.56 107.52L56.09 107.51L54.63 107.49L53.18 107.45L51.75 107.42L50.33 107.37L48.93 107.32L47.55 107.26L46.18 107.19L44.84 107.12L43.51 107.04L42.2 106.95L40.91 106.86L39.65 106.76L38.4 106.65L37.18 106.54L35.98 106.42L34.81 106.3L33.66 106.17C33.47 106.15 33.28 106.13 33.1 106.11L31.99 105.97L30.91 105.82L29.85 105.68L28.83 105.52L27.83 105.37C27.67 105.34 27.5 105.31 27.34 105.28L26.39 105.12C26.24 105.09 26.08 105.06 25.93 105.03L25.02 104.86L24.15 104.68L23.31 104.5C23.17 104.47 23.04 104.44 22.9 104.41L22.12 104.22L21.36 104.03L20.64 103.83L19.96 103.63L19.32 103.43C16.29 102.44 14.59 101.32 14.59 100.13C14.59 99.13 15.81 98.17 18.02 97.3L18.57 97.09L18.57 99.05Z" stroke="#000000" stroke-opacity="0" stroke-width="1.000000"/>
		</g>
		<g opacity="0.400000">
			<path d="M81.29 50.06C81.91 50.06 82.49 50.31 82.92 50.75L101.43 72.27C101.58 72.45 101.68 72.67 101.7 72.9L101.7 73.03L101.7 99.05C101.7 100.3 100.69 101.31 99.44 101.31L20.84 101.31C19.59 101.31 18.57 100.3 18.57 99.05L18.57 73.03C18.57 72.8 18.64 72.56 18.78 72.36L36.96 50.86C37.36 50.39 37.94 50.1 38.55 50.06L38.68 50.06L81.29 50.06ZM77.99 50.95L42.03 50.95L41.9 50.95C41.31 50.99 40.76 51.25 40.36 51.69L40.25 51.82L24.96 71.46C24.66 71.91 24.68 72.59 25.06 72.97L25.23 73.1C25.38 73.2 25.55 73.26 25.72 73.28L25.85 73.29L36.03 73.29L36.03 81.13C36.03 82.02 36.71 82.75 37.58 82.82L37.73 82.83L84.67 82.83C85.55 82.83 86.28 82.15 86.36 81.28L86.36 81.13L86.36 73.29L94.43 73.29C95.01 73.24 95.56 72.75 95.56 72.16C95.56 71.95 95.5 71.75 95.4 71.58L95.31 71.45L79.76 51.81C79.38 51.37 78.76 51.01 78.18 50.96L77.99 50.95Z" fill="#A1A7B3" fill-opacity="1.000000" fill-rule="evenodd"/>
			<path d="M82.92 50.75L101.43 72.27C101.58 72.45 101.68 72.67 101.7 72.9L101.7 73.03L101.7 99.05C101.7 100.3 100.69 101.31 99.44 101.31L20.84 101.31C19.59 101.31 18.57 100.3 18.57 99.05L18.57 73.03C18.57 72.8 18.64 72.56 18.78 72.36L36.96 50.86C37.36 50.39 37.94 50.1 38.55 50.06L38.68 50.06L81.29 50.06C81.91 50.06 82.49 50.31 82.92 50.75ZM42.03 50.95L41.9 50.95C41.31 50.99 40.76 51.25 40.36 51.69L40.25 51.82L24.96 71.46C24.66 71.91 24.68 72.59 25.06 72.97L25.23 73.1C25.38 73.2 25.55 73.26 25.72 73.28L25.85 73.29L36.03 73.29L36.03 81.13C36.03 82.02 36.71 82.75 37.58 82.82L37.73 82.83L84.67 82.83C85.55 82.83 86.28 82.15 86.36 81.28L86.36 81.13L86.36 73.29L94.43 73.29C95.01 73.24 95.56 72.75 95.56 72.16C95.56 71.95 95.5 71.75 95.4 71.58L95.31 71.45L79.76 51.81C79.38 51.37 78.76 51.01 78.18 50.96L77.99 50.95L42.03 50.95Z" stroke="#000000" stroke-opacity="0" stroke-width="1.000000"/>
		</g>
		<g opacity="0.600000">
			<path d="M77.99 50.95C78.64 50.95 79.25 51.23 79.68 51.71L95.31 71.45C95.47 71.65 95.56 71.9 95.56 72.16C95.56 72.75 95.09 73.24 94.51 73.28L86.36 73.29L86.36 81.13C86.36 82.07 85.6 82.83 84.67 82.83L37.73 82.83C36.79 82.83 36.03 82.07 36.03 81.13L36.03 73.29L25.85 73.29C25.63 73.29 25.42 73.22 25.23 73.1C24.77 72.74 24.59 72.02 24.91 71.54L40.25 51.82C40.65 51.31 41.25 50.99 41.9 50.95L42.03 50.95L77.99 50.95Z" fill="#A1A7B3" fill-opacity="1.000000" fill-rule="evenodd"/>
			<path d="M79.68 51.71L95.31 71.45C95.47 71.65 95.56 71.9 95.56 72.16C95.56 72.75 95.09 73.24 94.51 73.28L86.36 73.29L86.36 81.13C86.36 82.07 85.6 82.83 84.67 82.83L37.73 82.83C36.79 82.83 36.03 82.07 36.03 81.13L36.03 73.29L25.85 73.29C25.63 73.29 25.42 73.22 25.23 73.1C24.77 72.74 24.59 72.02 24.91 71.54L40.25 51.82C40.65 51.31 41.25 50.99 41.9 50.95L42.03 50.95L77.99 50.95C78.64 50.95 79.25 51.23 79.68 51.71Z" stroke="#000000" stroke-opacity="0" stroke-width="1.000000"/>
		</g>
		<g opacity="0.300000">
			<path d="M98.61 8.72C97.43 9.18 96.48 9.68 95.74 10.22C95.56 10.35 95.26 10.34 95.08 10.2C94.89 10.06 94.89 9.84 95.07 9.71C95.87 9.12 96.9 8.59 98.14 8.1C98.36 8.01 98.65 8.08 98.78 8.25C98.9 8.42 98.83 8.63 98.61 8.72ZM94.31 13.18C94.06 14.05 94.08 14.98 94.38 15.99C94.44 16.2 94.31 16.41 94.09 16.46C93.87 16.51 93.65 16.39 93.59 16.19C93.25 15.05 93.22 13.97 93.51 12.97C93.57 12.77 93.8 12.65 94.02 12.71C94.24 12.77 94.37 12.98 94.31 13.18ZM96.29 19.43L96.85 20.75L97.17 21.52L97.42 22.13L97.57 22.51C97.65 22.73 97.52 22.95 97.26 23.01C97.01 23.07 96.73 22.95 96.65 22.74L96.5 22.36L96.26 21.75L95.85 20.77L95.38 19.67C95.29 19.46 95.42 19.24 95.68 19.17C95.93 19.1 96.2 19.22 96.29 19.43ZM98.08 25.9C98.34 27.14 98.41 28.18 98.28 29.06C98.25 29.26 98.05 29.4 97.84 29.37C97.62 29.34 97.48 29.15 97.51 28.94C97.62 28.17 97.55 27.21 97.31 26.05C97.27 25.84 97.41 25.64 97.62 25.6C97.83 25.56 98.04 25.69 98.08 25.9ZM96.69 31.36C95.8 32.11 94.71 32.57 93.43 32.75C93.21 32.78 93.01 32.6 92.99 32.34C92.96 32.08 93.13 31.84 93.35 31.81C94.5 31.65 95.45 31.25 96.22 30.6C96.41 30.45 96.66 30.49 96.79 30.7C96.92 30.91 96.87 31.21 96.69 31.36ZM88.8 32.35C87.88 32.21 86.88 31.97 85.8 31.63C85.6 31.57 85.49 31.35 85.55 31.13C85.61 30.92 85.82 30.8 86.02 30.86C87.07 31.19 88.03 31.42 88.92 31.56C89.13 31.59 89.27 31.8 89.24 32.01C89.2 32.23 89.01 32.38 88.8 32.35ZM82.47 31.78C81.56 31.29 80.6 30.74 79.61 30.12C79.42 30 79.34 29.67 79.44 29.39C79.54 29.11 79.77 28.98 79.97 29.1C80.95 29.72 81.89 30.26 82.79 30.74C82.98 30.84 83.07 31.16 82.99 31.45C82.9 31.73 82.67 31.88 82.47 31.78ZM76.55 27.49C75.59 27.13 74.64 26.84 73.69 26.63C73.49 26.58 73.36 26.4 73.41 26.24C73.47 26.07 73.67 25.98 73.88 26.03C74.87 26.25 75.86 26.56 76.86 26.93C77.05 27 77.14 27.19 77.06 27.35C76.98 27.5 76.75 27.57 76.55 27.49ZM70.49 26.59C69.51 26.52 68.52 26.56 67.54 26.71C67.34 26.75 67.15 26.58 67.12 26.35C67.1 26.11 67.25 25.9 67.46 25.87C68.49 25.7 69.52 25.66 70.55 25.73C70.76 25.75 70.92 25.95 70.9 26.18C70.88 26.42 70.7 26.6 70.49 26.59ZM64.27 27.27C63.27 27.62 62.27 28.07 61.28 28.62C61.07 28.73 60.82 28.65 60.72 28.44C60.61 28.23 60.69 27.97 60.89 27.85C61.93 27.28 62.97 26.81 64.01 26.45C64.23 26.37 64.47 26.5 64.54 26.72C64.61 26.95 64.49 27.2 64.27 27.27ZM57.78 30.52C56.79 31.26 55.79 32.08 54.8 32.99C54.6 33.18 54.3 33.16 54.12 32.95C53.95 32.74 53.97 32.43 54.17 32.24C55.19 31.31 56.21 30.47 57.23 29.71C57.45 29.55 57.75 29.6 57.9 29.83C58.05 30.05 58 30.36 57.78 30.52ZM53.65 35.14C52.66 36.03 51.65 36.88 50.61 37.68C50.4 37.84 50.09 37.8 49.93 37.59C49.76 37.37 49.8 37.06 50.02 36.89C51.04 36.11 52.03 35.28 53 34.4C53.2 34.22 53.51 34.24 53.69 34.44C53.87 34.65 53.85 34.96 53.65 35.14ZM48.2 39.53C47.21 40.07 46.19 40.57 45.16 41.04C44.94 41.13 44.68 41.06 44.56 40.88C44.44 40.69 44.52 40.46 44.73 40.37C45.75 39.91 46.74 39.42 47.71 38.89C47.92 38.78 48.19 38.83 48.32 39.01C48.46 39.19 48.4 39.42 48.2 39.53ZM41.69 41.64C40.68 42.14 39.65 42.59 38.6 43C38.38 43.08 38.15 42.96 38.08 42.73C38 42.49 38.12 42.23 38.33 42.15C39.37 41.75 40.38 41.31 41.37 40.82C41.58 40.72 41.82 40.82 41.91 41.05C42 41.28 41.9 41.54 41.69 41.64ZM35.11 44.54C34.11 44.71 33.1 44.85 32.06 44.97C31.85 44.99 31.64 44.89 31.6 44.73C31.55 44.58 31.69 44.43 31.9 44.41C32.91 44.29 33.91 44.15 34.89 43.99C35.1 43.95 35.32 44.05 35.38 44.2C35.44 44.35 35.32 44.5 35.11 44.54ZM28.71 45.42C27.71 45.53 26.69 45.62 25.65 45.67C25.45 45.68 25.27 45.53 25.25 45.32C25.24 45.12 25.4 44.94 25.61 44.93C26.63 44.88 27.63 44.8 28.61 44.69C28.82 44.66 29.01 44.81 29.04 45.01C29.06 45.21 28.91 45.4 28.71 45.42Z" fill="#A1A7B3" fill-opacity="1.000000" fill-rule="evenodd"/>
			<path d="M95.74 10.22C95.56 10.35 95.26 10.34 95.08 10.2C94.89 10.06 94.89 9.84 95.07 9.71C95.87 9.12 96.9 8.59 98.14 8.1C98.36 8.01 98.65 8.08 98.78 8.25C98.9 8.42 98.83 8.63 98.61 8.72C97.43 9.18 96.48 9.68 95.74 10.22ZM94.38 15.99C94.44 16.2 94.31 16.41 94.09 16.46C93.87 16.51 93.65 16.39 93.59 16.19C93.25 15.05 93.22 13.97 93.51 12.97C93.57 12.77 93.8 12.65 94.02 12.71C94.24 12.77 94.37 12.98 94.31 13.18C94.06 14.05 94.08 14.98 94.38 15.99ZM96.85 20.75L97.17 21.52L97.42 22.13L97.57 22.51C97.65 22.73 97.52 22.95 97.26 23.01C97.01 23.07 96.73 22.95 96.65 22.74L96.5 22.36L96.26 21.75L95.85 20.77L95.38 19.67C95.29 19.46 95.42 19.24 95.68 19.17C95.93 19.1 96.2 19.22 96.29 19.43L96.85 20.75ZM98.28 29.06C98.25 29.26 98.05 29.4 97.84 29.37C97.62 29.34 97.48 29.15 97.51 28.94C97.62 28.17 97.55 27.21 97.31 26.05C97.27 25.84 97.41 25.64 97.62 25.6C97.83 25.56 98.04 25.69 98.08 25.9C98.34 27.14 98.41 28.18 98.28 29.06ZM93.43 32.75C93.21 32.78 93.01 32.6 92.99 32.34C92.96 32.08 93.13 31.84 93.35 31.81C94.5 31.65 95.45 31.25 96.22 30.6C96.41 30.45 96.66 30.49 96.79 30.7C96.92 30.91 96.87 31.21 96.69 31.36C95.8 32.11 94.71 32.57 93.43 32.75ZM85.8 31.63C85.6 31.57 85.49 31.35 85.55 31.13C85.61 30.92 85.82 30.8 86.02 30.86C87.07 31.19 88.03 31.42 88.92 31.56C89.13 31.59 89.27 31.8 89.24 32.01C89.2 32.23 89.01 32.38 88.8 32.35C87.88 32.21 86.88 31.97 85.8 31.63ZM79.61 30.12C79.42 30 79.34 29.67 79.44 29.39C79.54 29.11 79.77 28.98 79.97 29.1C80.95 29.72 81.89 30.26 82.79 30.74C82.98 30.84 83.07 31.16 82.99 31.45C82.9 31.73 82.67 31.88 82.47 31.78C81.56 31.29 80.6 30.74 79.61 30.12ZM73.69 26.63C73.49 26.58 73.36 26.4 73.41 26.24C73.47 26.07 73.67 25.98 73.88 26.03C74.87 26.25 75.86 26.56 76.86 26.93C77.05 27 77.14 27.19 77.06 27.35C76.98 27.5 76.75 27.57 76.55 27.49C75.59 27.13 74.64 26.84 73.69 26.63ZM67.54 26.71C67.34 26.75 67.15 26.58 67.12 26.35C67.1 26.11 67.25 25.9 67.46 25.87C68.49 25.7 69.52 25.66 70.55 25.73C70.76 25.75 70.92 25.95 70.9 26.18C70.88 26.42 70.7 26.6 70.49 26.59C69.51 26.52 68.52 26.56 67.54 26.71ZM61.28 28.62C61.07 28.73 60.82 28.65 60.72 28.44C60.61 28.23 60.69 27.97 60.89 27.85C61.93 27.28 62.97 26.81 64.01 26.45C64.23 26.37 64.47 26.5 64.54 26.72C64.61 26.95 64.49 27.2 64.27 27.27C63.27 27.62 62.27 28.07 61.28 28.62ZM54.8 32.99C54.6 33.18 54.3 33.16 54.12 32.95C53.95 32.74 53.97 32.43 54.17 32.24C55.19 31.31 56.21 30.47 57.23 29.71C57.45 29.55 57.75 29.6 57.9 29.83C58.05 30.05 58 30.36 57.78 30.52C56.79 31.26 55.79 32.08 54.8 32.99ZM50.61 37.68C50.4 37.84 50.09 37.8 49.93 37.59C49.76 37.37 49.8 37.06 50.02 36.89C51.04 36.11 52.03 35.28 53 34.4C53.2 34.22 53.51 34.24 53.69 34.44C53.87 34.65 53.85 34.96 53.65 35.14C52.66 36.03 51.65 36.88 50.61 37.68ZM45.16 41.04C44.94 41.13 44.68 41.06 44.56 40.88C44.44 40.69 44.52 40.46 44.73 40.37C45.75 39.91 46.74 39.42 47.71 38.89C47.92 38.78 48.19 38.83 48.32 39.01C48.46 39.19 48.4 39.42 48.2 39.53C47.21 40.07 46.19 40.57 45.16 41.04ZM38.6 43C38.38 43.08 38.15 42.96 38.08 42.73C38 42.49 38.12 42.23 38.33 42.15C39.37 41.75 40.38 41.31 41.37 40.82C41.58 40.72 41.82 40.82 41.91 41.05C42 41.28 41.9 41.54 41.69 41.64C40.68 42.14 39.65 42.59 38.6 43ZM32.06 44.97C31.85 44.99 31.64 44.89 31.6 44.73C31.55 44.58 31.69 44.43 31.9 44.41C32.91 44.29 33.91 44.15 34.89 43.99C35.1 43.95 35.32 44.05 35.38 44.2C35.44 44.35 35.32 44.5 35.11 44.54C34.11 44.71 33.1 44.85 32.06 44.97ZM25.65 45.67C25.45 45.68 25.27 45.53 25.25 45.32C25.24 45.12 25.4 44.94 25.61 44.93C26.63 44.88 27.63 44.8 28.61 44.69C28.82 44.66 29.01 44.81 29.04 45.01C29.06 45.21 28.91 45.4 28.71 45.42C27.71 45.53 26.69 45.62 25.65 45.67Z" stroke="#000000" stroke-opacity="0" stroke-width="1.000000"/>
		</g>
		<g opacity="0.400000">
			<path d="M88.91 15.28C87.71 17.06 86.83 18.13 86.27 18.49C84.66 19.51 83.21 19.74 82.23 19.74C79.99 19.74 84.62 19.21 86.27 17.43C87.36 16.23 88.66 14.43 90.16 12.02L88.91 12.02L87.53 13.71C87.1 13.17 86.54 12.91 85.86 12.91C84.83 12.91 82.18 13.35 81.17 16.17C80.49 18.05 79.1 19.7 77 21.13C80.04 22.64 82.99 22.64 85.86 21.13C88.73 19.62 89.75 17.67 88.91 15.28Z" fill="#A1A7B3" fill-opacity="1.000000" fill-rule="evenodd"/>
			<path d="M86.27 18.49C84.66 19.51 83.21 19.74 82.23 19.74C79.99 19.74 84.62 19.21 86.27 17.43C87.36 16.23 88.66 14.43 90.16 12.02L88.91 12.02L87.53 13.71C87.1 13.17 86.54 12.91 85.86 12.91C84.83 12.91 82.18 13.35 81.17 16.17C80.49 18.05 79.1 19.7 77 21.13C80.04 22.64 82.99 22.64 85.86 21.13C88.73 19.62 89.75 17.67 88.91 15.28C87.71 17.06 86.83 18.13 86.27 18.49Z" stroke="#000000" stroke-opacity="0" stroke-width="1.000000"/>
		</g>
		<g opacity="0.400000">
			<path d="M95.11 40.83C95.69 41.9 96 42.62 96.03 42.99C96.13 44.05 95.87 44.82 95.61 45.3C95.03 46.41 95.97 43.99 95.5 42.71C95.18 41.85 94.61 40.73 93.79 39.34L93.46 39.96L93.95 41.09C93.57 41.15 93.29 41.36 93.11 41.69C92.84 42.2 92.37 43.61 93.53 44.87C94.3 45.7 94.78 46.83 94.95 48.25C96.5 47.16 97.27 45.71 97.26 43.9C97.25 42.09 96.53 41.06 95.11 40.83Z" fill="#A1A7B3" fill-opacity="1.000000" fill-rule="evenodd"/>
			<path d="M96.03 42.99C96.13 44.05 95.87 44.82 95.61 45.3C95.03 46.41 95.97 43.99 95.5 42.71C95.18 41.85 94.61 40.73 93.79 39.34L93.46 39.96L93.95 41.09C93.57 41.15 93.29 41.36 93.11 41.69C92.84 42.2 92.37 43.61 93.53 44.87C94.3 45.7 94.78 46.83 94.95 48.25C96.5 47.16 97.27 45.71 97.26 43.9C97.25 42.09 96.53 41.06 95.11 40.83C95.69 41.9 96 42.62 96.03 42.99Z" stroke="#000000" stroke-opacity="0" stroke-width="1.000000"/>
		</g>
		<g opacity="0.600000">
			<path d="M22.31 51.95C20.92 51.38 20.07 50.94 19.75 50.61C18.84 49.68 18.52 48.76 18.4 48.12C18.14 46.64 19.05 49.62 20.5 50.48C21.46 51.05 22.88 51.68 24.75 52.37L24.6 51.55L23.26 50.85C23.58 50.5 23.71 50.1 23.63 49.65C23.51 48.98 22.89 47.29 20.79 46.97C19.39 46.76 18.07 46.06 16.82 44.85C16.11 47.04 16.45 48.98 17.84 50.67C19.24 52.37 20.72 52.79 22.31 51.95Z" fill="#A1A7B3" fill-opacity="1.000000" fill-rule="evenodd"/>
			<path d="M19.75 50.61C18.84 49.68 18.52 48.76 18.4 48.12C18.14 46.64 19.05 49.62 20.5 50.48C21.46 51.05 22.88 51.68 24.75 52.37L24.6 51.55L23.26 50.85C23.58 50.5 23.71 50.1 23.63 49.65C23.51 48.98 22.89 47.29 20.79 46.97C19.39 46.76 18.07 46.06 16.82 44.85C16.11 47.04 16.45 48.98 17.84 50.67C19.24 52.37 20.72 52.79 22.31 51.95C20.92 51.38 20.07 50.94 19.75 50.61Z" stroke="#000000" stroke-opacity="0" stroke-width="1.000000"/>
		</g>
	</g>
</svg>
