<svg xmlns="http://www.w3.org/2000/svg" width="24" height="24"><rect width="24" height="24" opacity="0"></rect><g><path d="M13.25 10.75L13.25 3Q13.25 2.47 12.89 2.11Q12.53 1.75 12 1.75Q11.47 1.75 11.11 2.11Q10.75 2.47 10.75 3L10.75 10.75L3 10.75Q2.47 10.75 2.11 11.11Q1.75 11.47 1.75 12Q1.75 12.53 2.11 12.89Q2.47 13.25 3 13.25L10.75 13.25L10.75 21Q10.75 21.53 11.11 21.89Q11.47 22.25 12 22.25Q12.53 22.25 12.89 21.89Q13.25 21.53 13.25 21L13.25 13.25L21 13.25Q21.53 13.25 21.89 12.89Q22.25 12.53 22.25 12Q22.25 11.47 21.89 11.11Q21.53 10.75 21 10.75Z" fill="rgba(10,89,247,1)"></path></g></svg>