<?xml version="1.0" encoding="UTF-8"?>
<svg width="24px" height="24px" viewBox="0 0 24 24" version="1.1" xmlns="http://www.w3.org/2000/svg" xmlns:xlink="http://www.w3.org/1999/xlink">
    <title>编组 7备份 6</title>
    <g id="" stroke="none" stroke-width="1" fill="none" fill-rule="evenodd">
        <g id="icon" transform="translate(-114.000000, -267.000000)" fill="#007DFF" fill-rule="nonzero">
            <g id="编组-7备份-6" transform="translate(114.000000, 267.000000)">
                <g id="发现" transform="translate(2.000000, 2.000000)">
                    <path d="M10,3.33066907e-16 C15.52275,3.33066907e-16 20,4.47724999 20,10 C20,15.52275 15.52275,20 10,20 C4.47725001,20 3.33066907e-16,15.52275 3.33066907e-16,10 C3.33066907e-16,4.47725001 4.47725001,3.33066907e-16 10,3.33066907e-16 Z M10,1.5 C5.3055,1.5 1.5,5.3055 1.5,10 C1.5,14.6945 5.3055,18.5 10,18.5 C14.6945,18.5 18.5,14.6945 18.5,10 C18.5,5.3055 14.6945,1.5 10,1.5 Z M13.496,5.22425001 C13.8605137,5.09292719 14.2680828,5.18398302 14.5420499,5.45795011 C14.816017,5.7319172 14.9070728,6.13948628 14.77575,6.50399999 L12.94475,11.59 C12.7175429,12.2209462 12.2207381,12.7176593 11.58975,12.94475 L6.50399999,14.77575 C6.13948628,14.9070728 5.7319172,14.816017 5.45795011,14.5420499 C5.18398302,14.2680828 5.09292719,13.8605137 5.22425001,13.496 L7.05524999,8.41 C7.28245708,7.77905383 7.77926193,7.28234065 8.41025001,7.05524999 L13.496,5.22425001 Z M13.0045,6.9955 L8.91824999,8.46650001 C8.70785343,8.54221206 8.54221206,8.70785343 8.46650001,8.91824999 L6.9955,13.0045 L11.08175,11.5335 C11.2921466,11.4577879 11.4577879,11.2921466 11.5335,11.08175 L13.0045,6.9955 L13.0045,6.9955 Z" id="形状"></path>
                </g>
            </g>
        </g>
    </g>
</svg>