<?xml version="1.0" encoding="UTF-8"?>
<svg width="24px" height="24px" viewBox="0 0 24 24" version="1.1" xmlns="http://www.w3.org/2000/svg" xmlns:xlink="http://www.w3.org/1999/xlink">
    <title>编组 6备份 6</title>
    <g id="" stroke="none" stroke-width="1" fill="none" fill-rule="evenodd">
        <g id="icon" transform="translate(-50.000000, -264.000000)" fill="#007DFF" fill-rule="nonzero">
            <g id="编组-6备份-6" transform="translate(50.000000, 264.000000)">
                <g id="首页-置灰" transform="translate(2.000000, 2.000000)">
                    <path d="M9.0817663,0.32545672 C9.6168059,-0.108485573 10.3826253,-0.108485573 10.9176649,0.32545672 L19.4389799,7.19950836 C20.0794308,7.71586906 20.1876119,8.66313636 19.6803421,9.31585991 C19.4784075,9.57686856 19.1948235,9.76267047 18.8748922,9.84358417 L18.7958017,9.8608568 L18.7962563,17.5635401 C18.7962563,18.8285329 17.8485344,19.8748905 16.6117233,19.9898898 L16.5108148,19.9976171 L16.4053608,19.9998898 L3.59452492,19.9998898 C2.3195322,19.9998898 1.27090183,18.9812592 1.2059022,17.6708122 L1.20362947,17.5635401 L1.20317494,9.8608568 L1.15090252,9.85040231 C0.518178858,9.70449405 0.0395452286,9.14540634 0.00227270009,8.46631931 L0,8.38086526 C0,7.92041334 0.20636245,7.48541583 0.56090588,7.19905383 L9.0817663,0.32545672 Z M10.0772152,1.39135973 C10.0321684,1.35485191 9.9677173,1.35485191 9.92267058,1.39135973 L1.41044648,8.27722949 C1.38048317,8.30178143 1.36317393,8.33849139 1.36317393,8.37722891 C1.36317393,8.4481376 1.41908279,8.50541 1.48817331,8.50541 L1.88908011,8.50541 C2.26271434,8.50495546 2.56543988,8.81449915 2.56543988,9.19586059 L2.56543988,17.5594492 L2.56680351,17.6317215 C2.59453062,18.1930819 3.04952803,18.6362612 3.6017976,18.6362612 L16.3808155,18.6362612 L16.4517242,18.634443 C17.000812,18.6062614 17.4339913,18.141264 17.4339913,17.5771764 L17.4339913,9.19631515 C17.4339913,8.81449915 17.7367169,8.50541 18.1103511,8.50541 L18.5112579,8.50541 C18.5494395,8.50541 18.5853484,8.48768283 18.6094391,8.45722846 C18.6521317,8.40165068 18.6430843,8.32223486 18.5889847,8.27768403 L10.0772152,1.39135973 Z M13.0203802,13.4231092 C13.2636339,13.710547 13.227817,14.1407573 12.9403806,14.3840128 C12.1062945,15.0899178 11.1953906,15.4544612 10.2272143,15.4544612 C9.25903802,15.4544612 8.34813413,15.0899178 7.51359344,14.3840128 C7.32765399,14.226492 7.23987517,13.9817394 7.28332242,13.7419507 C7.32676966,13.502162 7.4948423,13.303767 7.724229,13.2214991 C7.95361569,13.1392312 8.20946714,13.1855889 8.39540657,13.3431096 C8.99222135,13.8490158 9.59630881,14.0908326 10.2272143,14.0908326 C10.8576652,14.0908326 11.4617527,13.8490158 12.059022,13.3431096 C12.1970798,13.226153 12.375965,13.1688692 12.5562805,13.1838742 C12.7365959,13.1988791 12.9035525,13.2849422 13.0203802,13.4231092 L13.0203802,13.4231092 Z" id="形状"></path>
                </g>
            </g>
        </g>
    </g>
</svg>