<?xml version="1.0" encoding="UTF-8"?>
<svg width="24px" height="24px" viewBox="0 0 24 24" version="1.1" xmlns="http://www.w3.org/2000/svg" xmlns:xlink="http://www.w3.org/1999/xlink">
    <title>编组 8备份 6</title>
    <g id="" stroke="none" stroke-width="1" fill="none" fill-rule="evenodd">
        <g id="icon" transform="translate(-173.000000, -268.000000)" fill="#007DFF" fill-rule="nonzero">
            <g id="编组-8备份-6" transform="translate(173.000000, 268.000000)">
                <g id="地图_地球_o" transform="translate(2.000000, 2.000000)">
                    <path d="M10.4705882,20 L10,20 C4.47058823,20 7.83686841e-16,15.5294118 7.83686841e-16,10 C7.83686841e-16,4.4705882 4.47058823,7.83686841e-16 10,7.83686841e-16 L10.5882353,7.83686841e-16 C15.8823529,0.352941177 20,4.70588236 20,10 C20,14.8235294 16.5882353,18.8235294 12,19.7647059 C11.5294118,19.882353 10.9411765,20 10.4705882,20 Z M9.52941177,18.8235294 L9.52941177,14.8235294 L7.88235293,12.5882353 L11.2941177,9.17647059 L12.9411765,10.8235294 L16.1176471,10.8235294 L18.2352941,12.9411765 L18.2352941,13.1764706 C18.5882353,12.117647 18.8235294,11.0588235 18.8235294,9.88235295 C18.8235294,5.29411765 15.2941176,1.52941177 10.8235294,1.05882353 L8.35294117,3.52941177 L9.99999999,5.17647058 L9.99999999,8.2352941 L7.29411764,10.9411765 L2.11764706,6 C1.52941177,7.1764706 1.17647057,8.58823531 1.17647057,9.99999999 C1.17647057,14.7058824 4.8235294,18.5882353 9.52941177,18.8235294 Z M5.41176469,2.47058824 C4.35294116,3.17647059 3.52941174,3.88235294 2.82352941,4.94117647 L7.29411764,9.4117647 L8.82352941,7.88235293 L8.82352941,5.76470587 L6.70588236,3.64705881 L7.05882353,3.29411764 L9.05882352,1.29411764 C7.76470589,1.41176471 6.58823529,1.76470588 5.41176469,2.47058824 L5.41176469,2.47058824 Z M10.7058823,14.3529412 L10.7058823,18.8235294 C11.8823529,18.7058823 13.1764706,18.3529412 14.4705882,17.6470588 C15.5294118,17.0588235 16.3529412,16.2352941 17.0588235,15.2941176 L17.0588235,13.4117647 L15.6470588,12 L12.4705882,12 L11.2941177,10.8235294 L9.52941177,12.5882353 L10.7058823,14.3529412 L10.7058823,14.3529412 Z" id="形状"></path>
                </g>
            </g>
        </g>
    </g>
</svg>