<?xml version="1.0" encoding="UTF-8"?>
<svg width="24px" height="24px" viewBox="0 0 24 24" version="1.1" xmlns="http://www.w3.org/2000/svg" xmlns:xlink="http://www.w3.org/1999/xlink">
    <title>编组 10</title>
    <g id="" stroke="none" stroke-width="1" fill="none" fill-rule="evenodd">
        <g id="icon" transform="translate(-291.000000, -210.000000)" fill="#333333" fill-rule="nonzero">
            <g id="编组-10" transform="translate(291.000000, 210.000000)">
                <g id="我的" transform="translate(2.000000, 2.000000)">
                    <path d="M10,9.23076923 C12.1153846,9.23076923 13.8461538,7.5 13.8461538,5.38461538 C13.8461538,3.26923077 12.1153846,1.53846154 10,1.53846154 C7.88461538,1.53846154 6.15384615,3.26923077 6.15384615,5.38461538 C6.15384615,7.5 7.88461538,9.23076923 10,9.23076923 Z M6.65384615,9.61538462 C5.42307692,8.61538462 4.61538462,7.11538462 4.61538462,5.38461538 C4.61538462,2.42307692 7.03846154,0 10,0 C12.9615385,0 15.3846154,2.42307692 15.3846154,5.38461538 C15.3846154,7.07692308 14.5769231,8.61538462 13.3461538,9.61538462 C17.1923077,10.7307692 20,14.2692308 20,18.4615385 C20,19.7307692 18.9615385,20.7692308 17.6923077,20.7692308 L2.30769231,20.7692308 C1.03846154,20.7692308 0,19.7307692 0,18.4615385 C0,14.2692308 2.80769231,10.7307692 6.65384615,9.61538462 Z M17.6923077,19.2307692 C18.1153846,19.2307692 18.4615385,18.8846154 18.4615385,18.4615385 C18.4615385,14.2307692 15,10.7692308 10.7692308,10.7692308 L9.23076923,10.7692308 C5,10.7692308 1.53846154,14.2307692 1.53846154,18.4615385 C1.53846154,18.8846154 1.88461538,19.2307692 2.30769231,19.2307692 L17.6923077,19.2307692 Z" id="形状"></path>
                </g>
            </g>
        </g>
    </g>
</svg>