<?xml version="1.0" encoding="UTF-8"?>
<svg width="24px" height="24px" viewBox="0 0 24 24" version="1.1" xmlns="http://www.w3.org/2000/svg" xmlns:xlink="http://www.w3.org/1999/xlink">
    <title>编组 9</title>
    <g id="" stroke="none" stroke-width="1" fill="none" fill-rule="evenodd">
        <g id="icon" transform="translate(-230.000000, -210.000000)" fill="#333333" fill-rule="nonzero">
            <g id="编组-9" transform="translate(230.000000, 210.000000)">
                <g id="商城1" transform="translate(3.000000, 2.000000)">
                    <path d="M14.8267904,1.31681575 C15.0698035,1.31681575 15.3064215,1.36477886 15.5288789,1.46075076 C15.7419722,1.55375351 15.9374789,1.68576626 16.1032943,1.85363715 C16.269338,2.02150803 16.3995236,2.21644381 16.4913387,2.43536115 C16.5861229,2.66021677 16.6338576,2.9001922 16.6338576,3.14606023 C16.6338576,3.16700412 16.6338576,3.18801653 16.6365984,3.2060598 L17.5341937,16.8837226 C17.5312246,17.120569 17.4837182,17.3517055 17.3919031,17.5675395 C17.300088,17.786571 17.1696741,17.9813926 17.0038587,18.1492635 C16.8380434,18.3171344 16.6455058,18.4491471 16.429215,18.5421042 C16.2069859,18.6382588 15.9701395,18.6859935 15.7271265,18.6859935 L3.08722548,18.6859935 C2.84432659,18.6859935 2.60732031,18.6382588 2.38509124,18.5421042 C2.16891465,18.4491471 1.97626283,18.3171344 1.81051603,18.1492635 C1.64454083,17.9813926 1.51424105,17.786571 1.42242595,17.5675395 C1.33061086,17.3517055 1.28321874,17.120569 1.28024959,16.8837226 L2.18081407,3.20309065 C2.18081407,3.18207824 2.18378322,3.16106583 2.18378322,3.14309109 C2.18378322,2.89717737 2.23106114,2.6572933 2.32595958,2.432392 C2.41777467,2.21354318 2.54807445,2.01853888 2.71400397,1.85062232 C2.87981929,1.68270576 3.0724026,1.55080721 3.2886477,1.45773594 C3.51080826,1.36192391 3.74783738,1.31384661 3.99066775,1.31384661 L14.8268132,1.31384661 M9.4086948,9.26416596 C8.01833561,9.26416596 6.71111248,8.71608466 5.72798293,7.72078162 C4.74485339,6.7254329 4.20339556,5.40222206 4.20339556,3.99468751 C4.20339556,3.98840663 4.20339556,3.98219427 4.20357828,3.97595906 L4.20357828,3.979385 L5.48362231,3.98235414 C5.48362231,3.98760725 5.48362231,3.99274615 5.48355379,3.99799925 C5.48522108,6.1875152 7.24539868,7.96824842 9.4086948,7.96824842 C11.571831,7.96824842 13.3318488,6.1878578 13.3337901,3.99845604 C13.3336759,3.99313442 13.3335617,3.98852083 13.3335617,3.98383872 L14.61372,3.97796895 L14.61372,3.97362943 C14.6138342,3.98128068 14.6138342,3.98790416 14.6138342,3.99468751 C14.6138342,5.40222206 14.0725362,6.7254329 13.0894067,7.72078162 C12.1061401,8.71601614 10.799054,9.26416596 9.4086948,9.26416596 Z M15.0531306,0 L3.7640078,0 C2.20497834,0 0.941675717,1.27890206 0.941675717,2.85716243 L0,17.142769 C0,18.7212121 1.26330263,20 2.82233208,20 L15.9950347,20 C17.5540641,20 18.8173211,18.7212121 18.8173211,17.142769 L17.875417,2.85716243 C17.875417,1.27890206 16.61216,0 15.0531306,0 L15.0531306,0 L15.0531306,0 Z" id="形状"></path>
                </g>
            </g>
        </g>
    </g>
</svg>