<svg width="48.000000" height="48.000000" viewBox="0 0 48 48" fill="none" xmlns="http://www.w3.org/2000/svg" xmlns:xlink="http://www.w3.org/1999/xlink">
	<desc>
			Created with Pixso.
	</desc>
	<defs/>
	<circle cx="24.000000" cy="24.000000" r="23.000000" stroke="#000000" stroke-opacity="0.098039" stroke-width="2.000000" style=""/>
	<circle cx="24.000000" cy="24.000000" r="18.500000" stroke="#000000" stroke-opacity="0.098039" stroke-width="1.000000" style=""/>
	<path d="M25.52 25.51L24.3 26.21L24.93 26.89L26.17 26.17Q26.54 25.95 26.84 25.69Q26.96 25.59 27.04 25.46Q27.06 25.42 27.08 25.38Q27.14 25.11 27.1 24.87Q26.97 24.49 26.79 24.18L25.19 21.41L26.34 20.75L25.89 19.97L24.74 20.63L23.94 19.25L23.13 19.72L23.93 21.1L20.82 22.9L21.27 23.68L24.38 21.88L26.06 24.79Q26.09 24.91 26.06 25.01Q26.05 25.04 26.03 25.07Q25.99 25.14 25.91 25.24Q25.72 25.39 25.52 25.51ZM28.85 22.99L29.24 23.67L32.08 22.03L31.9 22.82Q32.74 23.01 33.54 23.22L33.74 22.39Q32.93 22.23 32.08 22.03L33.57 21.17L33.18 20.49L32.54 20.86L30.57 17.45L31.21 17.08L30.82 16.41L30.18 16.78L29.73 16L29.02 16.41L29.47 17.19L28.02 18.03L27.57 17.25L26.86 17.66L27.31 18.44L26.73 18.77L27.12 19.45L27.7 19.11L29.67 22.52L28.85 22.99ZM18.56 22.59L18.25 23.39Q19.35 23.79 20.42 24.26L20.77 23.38Q19.68 22.97 18.56 22.59ZM15.91 24.48L9.51 28.17L9.98 28.98L15.53 25.78L16.62 27.67L12.12 30.27L11.47 29.15L10.6 29.65L12.94 33.72Q13.16 34.09 13.48 34.4Q13.61 34.57 13.79 34.63Q13.81 34.64 13.83 34.64Q14.07 34.71 14.3 34.67Q14.38 34.66 14.47 34.64Q14.9 34.52 15.27 34.31L19.09 32.11Q19.46 31.89 19.79 31.61Q19.92 31.49 20.01 31.34Q20.09 31.23 20.14 31.1Q20.19 30.88 20.16 30.68Q20.06 30.34 19.89 29.98Q19.61 29.32 19.31 28.73L18.31 29.04L18.9 30.14Q18.99 30.36 19.07 30.58Q19.08 30.62 19.08 30.65Q19.08 30.74 19.04 30.83Q19.03 30.87 19.01 30.9Q18.96 31.02 18.84 31.12Q18.62 31.29 18.37 31.39L15.05 33.31Q15.01 33.34 14.97 33.37Q14.78 33.49 14.56 33.56Q14.49 33.6 14.41 33.61Q14.32 33.62 14.21 33.57Q14.08 33.51 13.99 33.43Q13.81 33.26 13.7 33.01L12.57 31.05L17.92 27.96L15.91 24.48ZM33.79 23.35L34.74 23.43Q34.82 22.93 34.83 22.48Q34.81 22.08 34.76 21.66Q34.75 21.61 34.74 21.55Q34.61 20.87 34.29 20.22L35.78 19.37L36.46 20.54Q36.54 20.68 36.56 20.81Q36.6 20.88 36.59 20.94Q36.59 20.96 36.58 20.97Q36.55 21.08 36.48 21.12Q36.36 21.24 36.23 21.31L35.45 21.76L36.04 22.41L36.79 21.98Q36.92 21.9 37.04 21.81Q37.17 21.71 37.29 21.6Q37.45 21.41 37.52 21.2Q37.54 21 37.49 20.85Q37.42 20.57 37.27 20.31L33.73 14.19L30.89 15.83L32.53 18.67Q32.98 19.45 33.38 20.21Q33.65 20.77 33.82 21.35Q33.91 21.75 33.89 22.12Q33.9 22.75 33.79 23.35ZM32.03 16.16L33.45 15.34L34.19 16.62L32.77 17.44L32.03 16.16ZM28.41 18.7L29.86 17.86L30.27 18.57L28.82 19.41L28.41 18.7ZM22.23 23.48L21.91 24.25Q23.13 24.73 24.26 25.28L24.63 24.44L22.23 23.48ZM21.81 28.14L21.16 29.83L21.97 30.53Q22.27 29.55 22.63 28.62Q22.99 28.77 23.4 28.86Q23.7 28.9 23.99 28.87Q24.11 28.86 24.23 28.84Q24.49 28.78 24.73 28.68Q25.08 28.53 25.41 28.36Q25.53 28.29 25.65 28.23L29.43 26.04L29.16 25.16L25.31 27.39Q24.9 27.62 24.48 27.83Q24.2 27.9 23.92 27.97Q23.63 28 23.28 27.94Q22.94 27.87 22.67 27.7Q22.65 27.69 22.63 27.67L20.93 24.73L19.03 25.82L19.48 26.6L20.56 25.98L21.81 28.14ZM29.19 20.05L30.64 19.21L31.05 19.92L29.6 20.76L29.19 20.05ZM33.95 19.48L33.18 18.15L34.6 17.33L35.37 18.66L33.95 19.48ZM29.97 21.4L31.42 20.56L31.83 21.27L30.38 22.11L29.97 21.4ZM30.14 25.23L30.99 25.46Q31.38 24.25 31.58 22.96L30.75 22.84Q30.72 23.09 30.68 23.33Q30.51 24.3 30.14 25.23Z" fill="#000000" fill-opacity="0.098039" fill-rule="evenodd"/>
</svg>
