<svg width="48.000000" height="48.000000" viewBox="0 0 48 48" fill="none" xmlns="http://www.w3.org/2000/svg" xmlns:xlink="http://www.w3.org/1999/xlink">
	<desc>
			Created with Pixso.
	</desc>
	<defs>
		<clipPath id="clip99_2003">
			<rect width="48.000000" height="48.000000" fill="white" fill-opacity="0"/>
		</clipPath>
	</defs>
	<g clip-path="url(#clip99_2003)">
		<g opacity="0.200000">
			<path d="M8.71 3.13C2.08 11.32 1.35 23.21 7.72 32.29C15.39 43.25 30.52 45.91 41.47 38.24C43.56 36.78 45.39 35 46.9 33.02L46.9 36.52C45.65 37.87 44.24 39.02 42.78 40.12C30.78 48.46 14.29 45.54 5.89 33.54C-0.68 24.15 -0.37 11.99 5.89 3.13L8.71 3.13ZM46.9 23.68L46.9 27.02C45.33 30.52 42.88 33.49 39.75 35.68C30.2 42.36 17.06 40.06 10.38 30.52C4.33 21.8 5.68 10.17 13.09 3.13L14.76 3.13C6.93 9.7 5.32 21.28 11.26 29.84C17.58 38.86 30.05 41.06 39.07 34.74C42.93 32.08 45.7 28.17 46.9 23.68ZM18.15 18.99L21.13 23.21L15.02 27.49L16.85 30.15C17.11 30.52 17.42 30.57 17.73 30.31L22.64 26.86C22.8 26.76 22.9 26.6 22.95 26.39C23 26.19 22.69 25.51 22.01 24.46L23.26 24.1C24 25.46 24.36 26.29 24.31 26.66C24.2 27.02 24 27.39 23.58 27.7L18.1 31.56C17.26 32.13 16.53 31.98 15.91 31.09L12.31 25.98L13.35 25.25L14.24 26.55L19.3 23L17.73 20.76L11.26 25.3L10.59 24.31L18.15 18.99ZM26.92 18.62L27.54 19.46C27.7 20.55 27.8 21.6 27.75 22.64C28.33 22.74 28.85 22.85 29.37 22.95L29.16 24.2C28.06 23.89 26.76 23.63 25.14 23.53L25.35 22.38C25.77 22.38 26.24 22.43 26.66 22.48C26.66 21.75 26.6 21.02 26.5 20.34L23.94 22.12L23.26 21.18L26.92 18.62ZM29.32 15.7L30.52 17.42C31.25 18.52 31.61 19.56 31.66 20.45C31.72 21.28 31.4 22.22 30.78 23.11L29.63 22.64C30.2 21.75 30.46 21.02 30.41 20.34C30.36 19.66 30.05 18.88 29.53 18.05L28.33 16.33L29.32 15.7ZM28.95 11.26L29.63 12.26L27.75 13.56C27.91 13.87 28.06 14.13 28.17 14.45L30 13.2L33.39 17.99L32.34 18.67L29.63 14.81L27.39 16.38L30.15 20.34L29.21 21.02L25.77 16.12L27.18 15.13C27.07 14.81 26.92 14.55 26.76 14.24L24.88 15.54L24.2 14.6L28.95 11.26ZM32.08 18.78C33.07 18.88 34.01 19.04 34.85 19.25L34.64 20.5C33.91 20.24 32.97 20.03 31.87 19.93L32.08 18.78ZM22.38 15.44C23.58 15.75 24.78 16.12 25.98 16.53L25.82 17.73C24.52 17.21 23.53 16.85 22.8 16.64C22.9 17.94 22.9 19.25 22.74 20.55L21.6 20.13C21.75 18.88 21.75 17.47 21.6 16.01L22.38 15.44ZM23.63 17.84C24.41 18.1 25.09 18.41 25.56 18.67L25.2 19.72C24.57 19.35 23.89 19.09 23.21 18.83L23.63 17.84ZM39.02 5L39.7 5.94C40.69 7.82 41.32 9.65 41.58 11.32C42.52 11.73 43.56 12.05 44.66 12.2L44.55 13.51C43.56 13.3 42.62 13.04 41.68 12.67C41.73 13.72 41.58 14.81 41.26 15.8L40.01 15.49C40.38 14.39 40.48 13.25 40.43 12.1C38.81 11.21 37.4 10.06 36.15 8.55L35.73 8.81L35.32 8.24L34.8 8.6L38.4 13.77C38.6 13.51 38.86 13.25 39.07 12.99L39.8 14.03C39.54 14.29 39.33 14.55 39.13 14.76L40.33 16.43L39.33 17.11L38.29 15.65C37.46 16.53 36.57 17.42 35.68 18.26L34.69 17.42C34.95 17.21 35.21 17 35.42 16.74L31.4 10.95L30.67 11.47L30 10.48L34.8 7.14L35.16 7.72L39.02 5ZM36.78 13.56L35.37 14.6L36.31 15.96L37.56 14.71L36.78 13.56ZM35.26 11.42L33.8 12.41L34.64 13.61L36.1 12.62L35.26 11.42ZM33.8 9.28L32.34 10.33L33.18 11.53L34.64 10.53L33.8 9.28ZM38.76 6.67L37.09 7.87C38.03 9.02 39.07 9.91 40.22 10.64C39.96 9.33 39.44 8.03 38.76 6.67Z" fill="#FF6600" fill-opacity="1.000000" fill-rule="nonzero"/>
		</g>
	</g>
</svg>
