<svg width="48.000000" height="48.000000" viewBox="0 0 48 48" fill="none" xmlns="http://www.w3.org/2000/svg" xmlns:xlink="http://www.w3.org/1999/xlink">
	<desc>
			Created with Pixso.
	</desc>
	<defs/>
	<circle cx="24.000000" cy="24.000000" r="24.000000" fill="#C4C4C4" fill-opacity="0"/>
	<circle cx="24.000000" cy="24.000000" r="23.000000" stroke="#FF6600" stroke-opacity="1.000000" stroke-width="2.000000"/>
	<circle cx="24.000000" cy="24.000000" r="19.000000" fill="#C4C4C4" fill-opacity="0"/>
	<circle cx="24.000000" cy="24.000000" r="18.500000" stroke="#FF6600" stroke-opacity="1.000000" stroke-width="1.000000"/>
	<path d="M9.93 30.13L10.76 30.55Q11.04 29.72 11.25 28.83Q11.31 28.61 11.37 28.4Q11.55 27.68 11.64 26.94L10.74 26.78Q10.65 27.56 10.45 28.3Q10.22 29.25 9.93 30.13ZM19.36 26.95L20.22 27.35Q20.27 26.73 20.28 26.05L22.73 30.28L23.51 29.83L20.2 24.11Q20.02 23 19.75 21.9L18.88 22.12Q19.23 23.5 19.34 24.88Q19.36 25.02 19.36 25.15Q19.43 26.05 19.36 26.95ZM23.33 22.8L21.26 23.99L22.61 26.33L23.15 26.02L22.92 26.7Q23.22 26.85 23.53 26.96Q24.14 27.17 24.8 27.23Q24.75 27.31 24.71 27.39Q24.48 27.77 24.19 28.12Q23.75 28.61 23.29 29.05L24.07 29.54Q24.15 29.47 24.23 29.39Q24.78 28.86 25.25 28.24Q25.26 28.23 25.26 28.22Q25.58 27.77 25.8 27.24Q25.85 27.24 25.89 27.23Q26.63 27.17 27.36 26.97Q28.49 26.68 29.55 26.25L29.31 25.35Q29.04 25.47 28.76 25.58Q28.09 25.86 27.4 26.1Q26.68 26.28 25.98 26.38Q25.96 26.03 25.86 25.62Q25.76 25.3 25.62 25Q25.54 24.84 25.46 24.69L27.52 23.5L26.17 21.16L24.11 22.35L23.7 21.64L26.07 20.27L25.66 19.56L23.29 20.93L22.72 19.95L21.94 20.4L22.51 21.38L20.21 22.71L20.62 23.42L22.92 22.09L23.33 22.8ZM14.18 24.93L13.4 25.38L13.97 26.36L12.07 27.45L12.5 28.2L14.4 27.1L14.93 28.02L12.63 29.35L12.64 28.89L11.8 28.92Q11.77 29.8 11.64 30.68Q11.48 31.67 11.16 32.59L11.93 33.13Q12.15 32.51 12.3 31.83L14.22 35.15L15 34.7L12.55 30.46Q12.61 29.94 12.65 29.38L13.06 30.09L18.5 26.95L18.07 26.2L15.71 27.57L15.18 26.65L17.14 25.52L16.71 24.78L14.75 25.91L14.18 24.93ZM30.26 25.52L31.24 25.49Q31.29 24.8 31.19 24.13Q31.17 23.99 31.14 23.84Q30.97 23.14 30.66 22.45L32.72 21.25L34.01 23.49L34.79 23.04L33.5 20.81L35.56 19.62L36.19 20.7Q36.27 20.84 36.29 20.96Q36.31 21.05 36.3 21.14Q36.29 21.16 36.29 21.19Q36.26 21.22 36.24 21.25Q36.21 21.28 36.17 21.29Q36.02 21.43 35.89 21.51L35.01 22.02L35.65 22.73L36.63 22.16Q36.9 22.01 37.13 21.78Q37.22 21.64 37.32 21.49Q37.38 21.28 37.33 21.03Q37.26 20.76 37.11 20.49L33.53 14.3L27.07 18.03L29.06 21.48Q29.43 22.12 29.77 22.79Q29.97 23.12 30.06 23.52Q30.17 23.83 30.23 24.15Q30.26 24.29 30.27 24.44Q30.27 24.98 30.26 25.52ZM28.33 18.34L30.36 17.17L31.1 18.45L29.07 19.62L28.33 18.34ZM33.2 15.53L33.94 16.81L31.88 18L31.14 16.72L33.2 15.53ZM22.42 24.27L23.74 23.51L24.29 24.47L22.97 25.22L22.42 24.27ZM25.83 22.3L26.38 23.26L25.07 24.01L24.52 23.06L25.83 22.3ZM30.02 21.28L29.54 20.44L31.57 19.26L32.27 20.48L30.24 21.65L30.02 21.28ZM32.35 18.81L34.41 17.62L35.11 18.84L33.05 20.03L32.35 18.81ZM15.03 31.16L14.8 31.93Q15.72 32.2 16.69 32.46L16.93 31.55Q16.77 31.51 16.62 31.46Q15.9 31.25 15.16 31.08L17.47 29.75L18.19 31Q18.29 31.17 18.33 31.33Q18.35 31.41 18.34 31.48Q18.33 31.52 18.32 31.56Q18.27 31.63 18.2 31.72Q18.05 31.85 17.88 31.95L16.96 32.48L17.57 33.12L18.48 32.6Q18.81 32.4 19.08 32.16Q19.23 32.02 19.33 31.83Q19.38 31.72 19.39 31.62Q19.41 31.48 19.38 31.35Q19.32 31.08 19.16 30.81L18.28 29.28L19.36 28.66L18.93 27.91L17.85 28.54L17.4 27.76L16.59 28.23L17.04 29.01L13.76 30.9L14.19 31.65L15.03 31.16ZM24.98 25.82Q25.07 26.12 25.05 26.41Q24.77 26.4 24.49 26.35Q23.86 26.24 23.26 25.96L24.68 25.14Q24.87 25.48 24.98 25.82Z" fill="#FF6600" fill-opacity="1.000000" fill-rule="evenodd"/>
</svg>
