<svg width="48.000000" height="48.000000" viewBox="0 0 48 48" fill="none" xmlns="http://www.w3.org/2000/svg" xmlns:xlink="http://www.w3.org/1999/xlink">
	<desc>
			Created with Pixso.
	</desc>
	<defs/>
	<circle cx="24.000000" cy="24.000000" r="23.000000" stroke="#FF6600" stroke-opacity="0.400000" stroke-width="2.000000"/>
	<circle cx="24.000000" cy="24.000000" r="18.500000" stroke="#FF6600" stroke-opacity="0.400000" stroke-width="1.000000"/>
	<path d="M19.36 26.95L20.22 27.35Q20.27 26.73 20.28 26.05L22.73 30.28L23.51 29.83L20.2 24.11Q20.02 23 19.75 21.9L18.88 22.12Q19.23 23.5 19.34 24.88Q19.36 25.02 19.36 25.15Q19.43 26.05 19.36 26.95ZM23.33 22.8L21.26 23.99L22.61 26.33L23.15 26.02L22.92 26.7Q23.22 26.85 23.53 26.96Q24.14 27.17 24.8 27.23Q24.75 27.31 24.71 27.39Q24.48 27.77 24.19 28.12Q23.75 28.61 23.29 29.05L24.07 29.54Q24.15 29.47 24.23 29.39Q24.78 28.86 25.25 28.24Q25.26 28.23 25.26 28.22Q25.58 27.77 25.8 27.24Q25.85 27.24 25.89 27.23Q26.63 27.17 27.36 26.97Q28.49 26.68 29.55 26.25L29.31 25.35Q29.04 25.47 28.76 25.58Q28.09 25.86 27.4 26.1Q26.68 26.28 25.98 26.38Q25.96 26.03 25.86 25.62Q25.76 25.3 25.62 25Q25.54 24.84 25.46 24.69L27.52 23.5L26.17 21.16L24.11 22.35L23.7 21.64L26.07 20.27L25.66 19.56L23.29 20.93L22.72 19.95L21.94 20.4L22.51 21.38L20.21 22.71L20.62 23.42L22.92 22.09L23.33 22.8ZM15.91 24.48L9.51 28.17L9.98 28.98L15.53 25.78L16.62 27.67L12.12 30.27L11.47 29.15L10.6 29.65L12.94 33.72Q13.16 34.09 13.48 34.4Q13.61 34.57 13.79 34.63Q13.81 34.64 13.83 34.64Q14.07 34.71 14.3 34.67Q14.38 34.66 14.47 34.64Q14.9 34.52 15.27 34.31L19.09 32.11Q19.46 31.89 19.79 31.61Q19.92 31.49 20.01 31.34Q20.09 31.23 20.14 31.1Q20.19 30.88 20.16 30.68Q20.06 30.34 19.89 29.98Q19.61 29.32 19.31 28.73L18.31 29.04L18.9 30.14Q18.99 30.36 19.07 30.58Q19.08 30.62 19.08 30.65Q19.08 30.74 19.04 30.83Q19.03 30.87 19.01 30.9Q18.96 31.02 18.84 31.12Q18.62 31.29 18.37 31.39L15.05 33.31Q15.01 33.34 14.97 33.37Q14.78 33.49 14.56 33.56Q14.49 33.6 14.41 33.61Q14.32 33.62 14.21 33.57Q14.08 33.51 13.99 33.43Q13.81 33.26 13.7 33.01L12.57 31.05L17.92 27.96L15.91 24.48ZM30.26 25.52L31.24 25.49Q31.29 24.8 31.19 24.13Q31.17 23.99 31.14 23.84Q30.97 23.14 30.66 22.45L32.72 21.25L34.01 23.49L34.79 23.04L33.5 20.81L35.56 19.62L36.19 20.7Q36.27 20.84 36.29 20.96Q36.31 21.05 36.3 21.14Q36.29 21.16 36.29 21.19Q36.26 21.22 36.24 21.25Q36.21 21.28 36.17 21.29Q36.02 21.43 35.89 21.51L35.01 22.02L35.65 22.73L36.63 22.16Q36.9 22.01 37.13 21.78Q37.22 21.64 37.32 21.49Q37.38 21.28 37.33 21.03Q37.26 20.76 37.11 20.49L33.53 14.3L27.07 18.03L29.06 21.48Q29.43 22.12 29.77 22.79Q29.97 23.12 30.06 23.52Q30.17 23.83 30.23 24.15Q30.26 24.29 30.27 24.44Q30.27 24.98 30.26 25.52ZM28.33 18.34L30.36 17.17L31.1 18.45L29.07 19.62L28.33 18.34ZM33.2 15.53L33.94 16.81L31.88 18L31.14 16.72L33.2 15.53ZM22.42 24.27L23.74 23.51L24.29 24.47L22.97 25.22L22.42 24.27ZM25.83 22.3L26.38 23.26L25.07 24.01L24.52 23.06L25.83 22.3ZM30.02 21.28L29.54 20.44L31.57 19.26L32.27 20.48L30.24 21.65L30.02 21.28ZM32.35 18.81L34.41 17.62L35.11 18.84L33.05 20.03L32.35 18.81ZM24.98 25.82Q25.07 26.12 25.05 26.41Q24.77 26.4 24.49 26.35Q23.86 26.24 23.26 25.96L24.68 25.14Q24.87 25.48 24.98 25.82Z" fill="#FF6600" fill-opacity="0.400000" fill-rule="evenodd"/>
</svg>
