<?xml version="1.0" standalone="no"?><!DOCTYPE svg PUBLIC "-//W3C//DTD SVG 1.1//EN" "http://www.w3.org/Graphics/SVG/1.1/DTD/svg11.dtd"><svg t="1743216173316" class="icon" viewBox="0 0 1024 1024" version="1.1" xmlns="http://www.w3.org/2000/svg" p-id="2981" width="64" height="64" xmlns:xlink="http://www.w3.org/1999/xlink"><path d="M725.179728 157.115733H147.461683C68.090305 157.115733 3.487283 221.809778 3.487283 301.283556v578.548622C3.487283 959.305956 68.090305 1024 147.461683 1024H725.179728c79.371378 0 143.9744-64.694044 143.9744-144.167822V301.283556c0-79.485156-64.603022-144.1792-143.9744-144.1792z m79.371377 722.716445a78.836622 78.836622 0 0 1-79.371377 79.485155H147.461683a78.836622 78.836622 0 0 1-79.371378-79.485155V301.283556a78.836622 78.836622 0 0 1 79.371378-79.485156H725.179728a78.836622 78.836622 0 0 1 79.371377 79.485156z m0 0" p-id="2982" fill="#999999"></path><path d="M878.438394 0H250.817417c-44.293689 0-86.744178 22.175289-114.437689 57.298489-11.070578 14.791111-7.384178 35.1232 7.384177 46.216533s35.066311 7.395556 46.136889-7.395555c14.791111-20.332089 36.909511-31.414044 62.759823-31.414045h627.564088c42.461867 0 77.5168 35.111822 77.5168 77.630578v628.440178c0 20.332089-9.227378 40.664178-23.995733 55.455289a34.224356 34.224356 0 0 0-1.831822 46.205155c3.6864 5.552356 12.925156 9.238756 22.152533 9.238756a34.019556 34.019556 0 0 0 22.152534-9.238756c27.682133-25.873067 44.293689-64.694044 44.293688-103.537778v-626.574222A142.279111 142.279111 0 0 0 878.438394 0z m0 0" p-id="2983" fill="#999999"></path><path d="M679.042839 558.216533H468.622217V345.645511a33.223111 33.223111 0 1 0-66.446223 0V556.373333H191.755372a33.268622 33.268622 0 0 0 0 66.537245h210.420622v210.716444a33.223111 33.223111 0 1 0 66.446223 0V622.8992h210.420622a33.109333 33.109333 0 0 0 33.223111-33.268622c0-18.488889-14.791111-31.425422-33.223111-31.425422z m0 0" p-id="2984" fill="#999999"></path></svg>