<svg width="24.000000" height="24.000000" viewBox="0 0 24 24" fill="none" xmlns="http://www.w3.org/2000/svg" xmlns:xlink="http://www.w3.org/1999/xlink">
	<desc>
			Created with Pixso.
	</desc>
	<defs>
		<clipPath id="clip42_1954">
			<rect width="24.000000" height="24.000000" fill="white" fill-opacity="0"/>
		</clipPath>
	</defs>
	<g clip-path="url(#clip42_1954)">
		<path d="M20.95 8.86C20.82 7.4 20.36 6.08 19.57 4.88C18.78 3.68 17.75 2.74 16.48 2.04C15.21 1.34 13.84 1 12.37 1C10.82 1 9.4 1.34 8.1 2.04C6.8 2.74 5.74 3.68 4.94 4.88C4.13 6.08 3.66 7.4 3.53 8.86C2.95 9.02 2.46 9.34 2.07 9.83C1.69 10.31 1.5 10.87 1.5 11.5L1.5 13.98C1.5 14.48 1.62 14.94 1.87 15.36C2.12 15.78 2.45 16.12 2.87 16.37C3.3 16.61 3.76 16.74 4.25 16.74C4.75 16.74 5.2 16.61 5.62 16.37C6.04 16.12 6.37 15.78 6.61 15.36C6.86 14.94 6.98 14.48 6.98 13.98L6.98 11.5C6.98 10.88 6.8 10.34 6.44 9.86C6.09 9.38 5.62 9.05 5.05 8.88C5.15 7.7 5.54 6.62 6.22 5.65C6.89 4.67 7.76 3.91 8.84 3.35C9.92 2.79 11.1 2.51 12.37 2.51C13.57 2.51 14.69 2.79 15.73 3.35C16.76 3.91 17.62 4.67 18.28 5.65C18.94 6.62 19.33 7.7 19.46 8.88C18.89 9.05 18.42 9.38 18.05 9.86C17.69 10.34 17.5 10.88 17.5 11.5L17.5 13.98C17.5 14.57 17.67 15.11 18 15.58C18.33 16.05 18.77 16.37 19.32 16.55C19.11 17.78 18.75 18.66 18.22 19.18C17.69 19.71 17.06 20.01 16.34 20.09C16.18 19.69 15.93 19.36 15.57 19.11C15.21 18.85 14.81 18.72 14.39 18.72C14 18.72 13.65 18.82 13.32 19.01C12.99 19.21 12.74 19.46 12.54 19.79C12.35 20.12 12.25 20.47 12.25 20.86C12.25 21.24 12.35 21.6 12.54 21.93C12.74 22.25 12.99 22.51 13.32 22.71C13.65 22.9 14 23 14.39 23C14.83 23 15.24 22.86 15.6 22.6C15.96 22.33 16.21 21.99 16.37 21.58C17.46 21.48 18.4 21.06 19.21 20.31C20.01 19.56 20.55 18.35 20.81 16.69C21.42 16.56 21.94 16.25 22.36 15.75C22.77 15.24 22.98 14.65 22.98 13.98L22.98 11.5C22.98 10.87 22.79 10.31 22.41 9.83C22.03 9.34 21.54 9.02 20.95 8.86ZM5.5 13.98C5.5 14.33 5.38 14.63 5.14 14.87C4.9 15.11 4.6 15.23 4.25 15.23C3.9 15.23 3.61 15.11 3.37 14.87C3.13 14.63 3.01 14.33 3.01 13.98L3.01 11.5C3.01 11.14 3.13 10.85 3.37 10.61C3.61 10.37 3.9 10.25 4.25 10.25C4.6 10.25 4.9 10.37 5.14 10.61C5.38 10.85 5.5 11.14 5.5 11.5L5.5 13.98ZM14.39 21.48C14.21 21.48 14.06 21.42 13.94 21.3C13.82 21.18 13.76 21.03 13.76 20.86C13.76 20.69 13.82 20.54 13.94 20.42C14.06 20.3 14.21 20.24 14.39 20.24C14.56 20.24 14.71 20.3 14.83 20.42C14.95 20.54 15.01 20.69 15.01 20.86C15.01 21.03 14.95 21.18 14.83 21.3C14.71 21.42 14.56 21.48 14.39 21.48ZM21.49 13.98C21.49 14.33 21.37 14.63 21.13 14.87C20.9 15.11 20.6 15.23 20.26 15.23C19.9 15.23 19.61 15.11 19.37 14.87C19.13 14.63 19.01 14.33 19.01 13.98L19.01 11.5C19.01 11.14 19.13 10.85 19.37 10.61C19.61 10.37 19.9 10.25 20.26 10.25C20.6 10.25 20.9 10.37 21.13 10.61C21.37 10.85 21.49 11.14 21.49 11.5L21.49 13.98Z" fill="#000000" fill-opacity="0.898039" fill-rule="nonzero"/>
	</g>
</svg>
