<svg width="16.000000" height="16.000000" viewBox="0 0 16 16" fill="none" xmlns="http://www.w3.org/2000/svg" xmlns:xlink="http://www.w3.org/1999/xlink">
	<desc>
			Created with Pixso.
	</desc>
	<defs>
		<clipPath id="clip54_2283">
			<rect width="16.000000" height="16.000000" fill="white" fill-opacity="0"/>
		</clipPath>
	</defs>
	<g clip-path="url(#clip54_2283)">
		<path d="M12.98 7.46L11.49 8.96C11.19 9.25 11.19 9.72 11.49 10.02C11.79 10.32 12.26 10.32 12.55 10.02L14.05 8.53C14.29 8.28 14.5 8.02 14.68 7.73C14.83 7.5 14.96 7.25 15.07 6.98C15.18 6.72 15.26 6.44 15.32 6.17C15.38 5.86 15.41 5.55 15.41 5.23C15.41 4.91 15.38 4.6 15.32 4.29C15.26 4.02 15.18 3.75 15.07 3.48C14.96 3.22 14.83 2.97 14.68 2.73C14.5 2.45 14.29 2.18 14.04 1.94C13.81 1.7 13.55 1.49 13.27 1.32C13.03 1.16 12.78 1.03 12.51 0.92C12.24 0.81 11.97 0.73 11.69 0.67C11.39 0.61 11.07 0.58 10.76 0.58C10.44 0.58 10.12 0.61 9.82 0.67C9.54 0.73 9.27 0.81 9 0.92C8.74 1.03 8.49 1.15 8.25 1.31C7.97 1.49 7.71 1.7 7.46 1.94L5.97 3.43C5.67 3.73 5.67 4.2 5.97 4.49C6.26 4.79 6.73 4.79 7.03 4.5L8.53 3C8.7 2.83 8.88 2.68 9.08 2.56C9.24 2.46 9.4 2.38 9.57 2.31C9.74 2.24 9.92 2.18 10.1 2.14C10.32 2.1 10.53 2.08 10.76 2.08C10.98 2.08 11.19 2.1 11.41 2.14C11.59 2.18 11.77 2.24 11.94 2.31C12.11 2.37 12.26 2.45 12.41 2.55C12.62 2.67 12.81 2.83 12.99 3C13.16 3.17 13.31 3.36 13.43 3.56C13.53 3.71 13.61 3.87 13.68 4.04C13.75 4.22 13.8 4.4 13.84 4.58C13.89 4.79 13.91 5.01 13.91 5.23C13.91 5.45 13.89 5.67 13.84 5.88C13.81 6.06 13.75 6.24 13.68 6.42C13.61 6.59 13.53 6.75 13.43 6.9C13.31 7.1 13.16 7.29 12.98 7.46ZM4.5 7.03L3 8.53C2.83 8.7 2.68 8.88 2.56 9.08C2.46 9.24 2.38 9.4 2.31 9.57C2.24 9.74 2.18 9.92 2.14 10.1C2.1 10.32 2.08 10.53 2.08 10.76C2.08 10.98 2.1 11.19 2.14 11.41C2.18 11.59 2.24 11.77 2.31 11.94C2.37 12.11 2.45 12.26 2.55 12.41C2.67 12.62 2.83 12.81 3 12.99C3.17 13.16 3.36 13.31 3.56 13.43C3.71 13.53 3.87 13.61 4.04 13.68C4.22 13.75 4.4 13.8 4.58 13.84C4.79 13.89 5.01 13.91 5.23 13.91C5.45 13.91 5.67 13.89 5.88 13.84C6.06 13.81 6.24 13.75 6.42 13.68C6.59 13.61 6.75 13.53 6.9 13.43C7.1 13.31 7.29 13.16 7.46 12.98L8.96 11.49C9.26 11.19 9.72 11.19 10.02 11.49C10.32 11.79 10.32 12.26 10.02 12.55L8.53 14.05C8.28 14.29 8.02 14.5 7.73 14.68C7.5 14.83 7.25 14.96 6.98 15.07C6.72 15.18 6.44 15.26 6.17 15.32C5.86 15.38 5.55 15.41 5.23 15.41C4.91 15.41 4.6 15.38 4.29 15.32C4.02 15.26 3.75 15.18 3.48 15.07C3.22 14.96 2.97 14.83 2.73 14.68C2.45 14.5 2.18 14.29 1.94 14.04C1.7 13.81 1.49 13.55 1.32 13.27C1.16 13.03 1.03 12.78 0.92 12.51C0.81 12.24 0.73 11.97 0.67 11.69C0.61 11.39 0.58 11.07 0.58 10.76C0.58 10.44 0.61 10.12 0.67 9.82C0.73 9.54 0.81 9.27 0.92 9C1.03 8.74 1.15 8.49 1.31 8.25C1.49 7.97 1.7 7.71 1.94 7.46L3.43 5.97C3.73 5.67 4.2 5.67 4.49 5.97C4.79 6.26 4.79 6.73 4.5 7.03Z" fill="#191919" fill-opacity="1.000000" fill-rule="evenodd"/>
		<path d="M5.96 8.96L8.96 5.96C9.26 5.67 9.73 5.67 10.03 5.96C10.32 6.26 10.32 6.73 10.03 7.03L7.03 10.03C6.73 10.32 6.26 10.32 5.96 10.03C5.67 9.73 5.67 9.26 5.96 8.96Z" fill="#191919" fill-opacity="1.000000" fill-rule="evenodd"/>
	</g>
</svg>
