<svg width="24.000000" height="24.000000" viewBox="0 0 24 24" fill="none" xmlns="http://www.w3.org/2000/svg" xmlns:xlink="http://www.w3.org/1999/xlink">
	<desc>
			Created with Pixso.
	</desc>
	<defs>
		<clipPath id="clip8_2103">
			<rect width="24.000000" height="24.000000" fill="white" fill-opacity="0"/>
		</clipPath>
	</defs>
	<g clip-path="url(#clip8_2103)">
		<path d="M11.57 12.5L10.78 12.5C10.11 12.5 9.45 12.57 8.81 12.71C8.29 12.83 7.77 12.99 7.26 13.21C6.75 13.42 6.27 13.68 5.82 13.98C5.31 14.31 4.83 14.7 4.39 15.14C3.95 15.58 3.56 16.06 3.23 16.57C2.93 17.02 2.67 17.5 2.46 18.01C2.24 18.52 2.08 19.04 1.96 19.56C1.82 20.2 1.75 20.86 1.75 21.53C1.75 21.83 1.8 22.12 1.92 22.39C1.97 22.52 2.04 22.65 2.12 22.76C2.2 22.88 2.29 22.99 2.39 23.1C2.5 23.2 2.61 23.3 2.73 23.38C2.85 23.45 2.97 23.52 3.09 23.57C3.22 23.62 3.34 23.66 3.47 23.69C3.63 23.73 3.79 23.75 3.95 23.75L12.91 23.75C12.33 23.32 11.81 22.81 11.37 22.25L3.95 22.25C3.85 22.25 3.76 22.23 3.68 22.19C3.59 22.16 3.52 22.1 3.45 22.04C3.31 21.9 3.25 21.73 3.25 21.53C3.25 20.96 3.31 20.4 3.43 19.86C3.53 19.43 3.66 19.01 3.84 18.6C4.01 18.18 4.23 17.78 4.47 17.41C4.75 16.98 5.08 16.57 5.45 16.2C5.82 15.83 6.23 15.5 6.66 15.22C7.03 14.98 7.43 14.76 7.85 14.59C8.26 14.41 8.68 14.28 9.11 14.18C9.59 14.07 10.08 14.01 10.58 14C10.85 13.46 11.19 12.95 11.57 12.5ZM15.91 9.91C14.69 10.16 13.57 10.7 12.63 11.46C12.42 11.48 12.21 11.5 12 11.5C8.89 11.5 6.37 8.97 6.37 5.87C6.37 2.77 8.89 0.25 12 0.25C15.1 0.25 17.62 2.77 17.62 5.87C17.62 7.45 16.96 8.88 15.91 9.91ZM16.12 5.87C16.12 8.15 14.27 10 12 10C9.72 10 7.87 8.15 7.87 5.87C7.87 3.59 9.72 1.75 12 1.75C14.27 1.75 16.12 3.59 16.12 5.87Z" fill="#191919" fill-opacity="1.000000" fill-rule="evenodd"/>
		<path d="M23.75 17.5C23.75 20.94 20.94 23.75 17.5 23.75C14.05 23.75 11.25 20.94 11.25 17.5C11.25 14.05 14.05 11.25 17.5 11.25C20.94 11.25 23.75 14.05 23.75 17.5ZM22.25 17.5C22.25 20.12 20.12 22.25 17.5 22.25C14.87 22.25 12.75 20.12 12.75 17.5C12.75 14.87 14.87 12.75 17.5 12.75C20.12 12.75 22.25 14.87 22.25 17.5Z" fill="#191919" fill-opacity="1.000000" fill-rule="evenodd"/>
		<path d="M18.25 14.75C18.25 14.33 17.92 14 17.5 14C17.08 14 16.75 14.33 16.75 14.75L16.75 16.75L14.75 16.75C14.33 16.75 14 17.08 14 17.5C14 17.92 14.33 18.25 14.75 18.25L16.75 18.25L16.75 20.25C16.75 20.67 17.08 21 17.5 21C17.92 21 18.25 20.67 18.25 20.25L18.25 18.25L20.25 18.25C20.67 18.25 21 17.92 21 17.5C21 17.08 20.67 16.75 20.25 16.75L18.25 16.75L18.25 14.75Z" fill="#191919" fill-opacity="1.000000" fill-rule="evenodd"/>
		<path d="M17.5 11.5C14.04 11.5 11.25 14.29 11.25 17.75C11.25 21.2 14.04 24 17.5 24C20.95 24 23.75 21.2 23.75 17.75C23.75 14.29 20.95 11.5 17.5 11.5ZM17.5 14.25C17.92 14.25 18.25 14.58 18.25 15L18.25 16.99L20.25 16.99C20.67 16.99 21 17.32 21 17.74C21 18.16 20.67 18.49 20.25 18.49L18.25 18.49L18.25 20.5C18.25 20.92 17.92 21.25 17.5 21.25C17.08 21.25 16.75 20.92 16.75 20.5L16.75 18.49L14.75 18.49C14.33 18.49 14 18.16 14 17.74C14 17.32 14.33 16.99 14.75 16.99L16.75 16.99L16.75 15C16.75 14.58 17.08 14.25 17.5 14.25Z" fill="#FFFFFF" fill-opacity="0" fill-rule="evenodd"/>
	</g>
</svg>
