<svg width="16.000000" height="16.000000" viewBox="0 0 16 16" fill="none" xmlns="http://www.w3.org/2000/svg" xmlns:xlink="http://www.w3.org/1999/xlink">
	<desc>
			Created with Pixso.
	</desc>
	<defs>
		<clipPath id="clip8_2361">
			<rect width="16.000000" height="16.000000" fill="white" fill-opacity="0"/>
		</clipPath>
	</defs>
	<g clip-path="url(#clip8_2361)">
		<path d="M11.64 1.12C11.44 1.04 11.23 1 11.02 1L4.6 1C4.48 1 4.37 1.01 4.26 1.03C4.16 1.05 4.07 1.08 3.97 1.12C3.88 1.16 3.8 1.21 3.71 1.26C3.63 1.32 3.54 1.39 3.46 1.47C3.39 1.55 3.32 1.63 3.26 1.72C3.21 1.81 3.16 1.89 3.12 1.99C3.08 2.08 3.05 2.17 3.03 2.27C3.01 2.38 3 2.5 3 2.62L3 13.37C3 13.59 3.04 13.8 3.12 14C3.16 14.1 3.21 14.18 3.26 14.27C3.32 14.36 3.39 14.44 3.46 14.52C3.61 14.67 3.78 14.78 3.97 14.87C4.17 14.95 4.38 15 4.6 15L11.02 15C11.23 15 11.44 14.95 11.64 14.87Q11.77 14.81 11.89 14.74L11.89 14.74Q12.03 14.64 12.15 14.52C12.23 14.44 12.3 14.36 12.35 14.27C12.41 14.18 12.46 14.1 12.49 14C12.58 13.8 12.62 13.59 12.62 13.37L12.62 2.62C12.62 2.5 12.61 2.38 12.58 2.27L12.58 2.27Q12.58 2.27 12.58 2.26Q12.55 2.12 12.49 1.99C12.46 1.89 12.41 1.81 12.35 1.72C12.3 1.63 12.23 1.55 12.15 1.47Q12.03 1.35 11.89 1.25L11.89 1.25Q11.77 1.18 11.64 1.12ZM4.6 1.88L11.02 1.88C11.22 1.88 11.39 1.95 11.53 2.1C11.67 2.24 11.75 2.42 11.75 2.62L11.75 13.37C11.75 13.47 11.73 13.57 11.69 13.65C11.66 13.74 11.6 13.82 11.53 13.89C11.39 14.04 11.22 14.11 11.02 14.11L4.6 14.11C4.5 14.11 4.41 14.09 4.32 14.05C4.23 14.02 4.15 13.96 4.08 13.89C4.01 13.82 3.96 13.74 3.92 13.65C3.89 13.57 3.87 13.47 3.87 13.37L3.87 2.62C3.87 2.52 3.89 2.42 3.92 2.34C3.96 2.25 4.01 2.17 4.08 2.1C4.15 2.03 4.23 1.97 4.32 1.94C4.41 1.9 4.5 1.88 4.6 1.88ZM8.25 3.11C8.25 3.36 8.05 3.55 7.81 3.55C7.57 3.55 7.37 3.36 7.37 3.11C7.37 2.87 7.57 2.67 7.81 2.67C8.05 2.67 8.25 2.87 8.25 3.11ZM6.06 12.87C5.81 12.87 5.62 13.07 5.62 13.31C5.62 13.56 5.81 13.75 6.06 13.75L9.56 13.75C9.8 13.75 10 13.56 10 13.31C10 13.07 9.8 12.87 9.56 12.87L6.06 12.87Z" fill="#000000" fill-opacity="0.600000" fill-rule="evenodd"/>
		<path d="M11.02 1L4.6 1C4.48 1 4.37 1.01 4.26 1.03C4.16 1.05 4.07 1.08 3.97 1.12C3.88 1.16 3.8 1.21 3.71 1.26C3.63 1.32 3.54 1.39 3.46 1.47C3.39 1.55 3.32 1.63 3.26 1.72C3.21 1.81 3.16 1.89 3.12 1.99C3.08 2.08 3.05 2.17 3.03 2.27C3.01 2.38 3 2.5 3 2.62L3 13.37C3 13.59 3.04 13.8 3.12 14C3.16 14.1 3.21 14.18 3.26 14.27C3.32 14.36 3.39 14.44 3.46 14.52C3.61 14.67 3.78 14.78 3.97 14.87C4.17 14.95 4.38 15 4.6 15L11.02 15C11.23 15 11.44 14.95 11.64 14.87C11.83 14.78 12 14.67 12.15 14.52C12.23 14.44 12.3 14.36 12.35 14.27C12.41 14.18 12.46 14.1 12.49 14C12.58 13.8 12.62 13.59 12.62 13.37L12.62 2.62C12.62 2.5 12.61 2.38 12.58 2.27C12.56 2.17 12.53 2.08 12.49 1.99C12.46 1.89 12.41 1.81 12.35 1.72C12.3 1.63 12.23 1.55 12.15 1.47C12 1.32 11.83 1.21 11.64 1.12C11.44 1.04 11.23 1 11.02 1ZM11.02 1.88C11.22 1.88 11.39 1.95 11.53 2.1C11.67 2.24 11.75 2.42 11.75 2.62L11.75 13.37C11.75 13.47 11.73 13.57 11.69 13.65C11.66 13.74 11.6 13.82 11.53 13.89C11.39 14.04 11.22 14.11 11.02 14.11L4.6 14.11C4.5 14.11 4.41 14.09 4.32 14.05C4.23 14.02 4.15 13.96 4.08 13.89C4.01 13.82 3.96 13.74 3.92 13.65C3.89 13.57 3.87 13.47 3.87 13.37L3.87 2.62C3.87 2.52 3.89 2.42 3.92 2.34C3.96 2.25 4.01 2.17 4.08 2.1C4.15 2.03 4.23 1.97 4.32 1.94C4.41 1.9 4.5 1.88 4.6 1.88L11.02 1.88ZM5.62 13.31C5.62 13.56 5.81 13.75 6.06 13.75L9.56 13.75C9.8 13.75 10 13.56 10 13.31C10 13.07 9.8 12.87 9.56 12.87L6.06 12.87C5.81 12.87 5.62 13.07 5.62 13.31ZM8.25 3.11C8.25 2.87 8.05 2.67 7.81 2.67C7.57 2.67 7.37 2.87 7.37 3.11C7.37 3.36 7.57 3.55 7.81 3.55C8.05 3.55 8.25 3.36 8.25 3.11Z" stroke="#FFFFFF" stroke-opacity="0" stroke-width="1.000000" stroke-linejoin="round"/>
	</g>
</svg>
