<svg width="16.000000" height="16.000000" viewBox="0 0 16 16" fill="none" xmlns="http://www.w3.org/2000/svg" xmlns:xlink="http://www.w3.org/1999/xlink">
	<desc>
			Created with Pixso.
	</desc>
	<defs/>
	<path d="M7.28 9.18L7.29 9.2C7.29 9.47 7.07 9.7 6.79 9.7C6.51 9.7 6.29 9.47 6.29 9.2L6.31 9.18L7.28 9.18ZM6.31 10.72L6.29 10.7C6.29 10.42 6.51 10.2 6.79 10.2C7.07 10.2 7.29 10.42 7.29 10.7L7.28 10.72L6.31 10.72Z" fill="#000000" fill-opacity="0" fill-rule="nonzero"/>
	<path d="M6.79 9.2L6.79 8.91L6.79 8.12C6.79 7.39 7.39 6.8 8.12 6.8L12.08 6.8C12.8 6.8 13.4 7.39 13.4 8.12L13.4 12.08C13.4 12.8 12.8 13.4 12.08 13.4L8.12 13.4C7.39 13.4 6.79 12.8 6.79 12.08L6.79 10.7" stroke="#ED6F21" stroke-opacity="1.000000" stroke-width="1.000000" stroke-linejoin="round" stroke-linecap="round"/>
	<path d="M8.72 6.82L8.7 6.8C8.7 6.52 8.92 6.3 9.2 6.3C9.48 6.3 9.7 6.52 9.7 6.8L9.67 6.82L8.72 6.82ZM9.67 5.28L9.7 5.3C9.7 5.58 9.48 5.8 9.2 5.8C8.92 5.8 8.7 5.58 8.7 5.3L8.72 5.28L9.67 5.28Z" fill="#000000" fill-opacity="0" fill-rule="nonzero"/>
	<path d="M9.2 6.8C9.2 7.05 9.2 7.21 9.2 7.88C9.2 8.6 8.6 9.2 7.88 9.2L3.92 9.2C3.19 9.2 2.6 8.6 2.6 7.88L2.6 6.56L2.6 4.4C2.6 4.24 2.6 4.28 2.6 3.92C2.6 3.19 3.19 2.6 3.92 2.6L7.88 2.6C8.6 2.6 9.2 3.19 9.2 3.92C9.2 4.66 9.2 4.92 9.2 5.3" stroke="#ED6F21" stroke-opacity="1.000000" stroke-width="1.000000" stroke-linejoin="round" stroke-linecap="round"/>
</svg>
