<svg width="24.000000" height="24.000000" viewBox="0 0 24 24" fill="none" xmlns="http://www.w3.org/2000/svg" xmlns:xlink="http://www.w3.org/1999/xlink">
	<desc>
			Created with Pixso.
	</desc>
	<defs>
		<clipPath id="clip8_2037">
			<rect width="24.000000" height="24.000000" fill="white" fill-opacity="0"/>
		</clipPath>
	</defs>
	<g clip-path="url(#clip8_2037)">
		<path d="M7.99 1.99C8.12 1.41 8.37 0.98 8.74 0.69C9.1 0.39 9.59 0.25 10.19 0.25L13.8 0.25C14.4 0.25 14.88 0.39 15.25 0.69C15.61 0.98 15.86 1.41 15.99 2L16.36 3.65L17.03 4.03L18.65 3.53C19.79 3.18 20.66 3.52 21.26 4.55L23.07 7.68Q23.52 8.46 23.41 9.16C23.34 9.62 23.09 10.05 22.65 10.46L21.4 11.61L21.4 12.37L22.65 13.53C23.09 13.93 23.34 14.37 23.41 14.83C23.49 15.29 23.37 15.79 23.07 16.31L21.26 19.43C20.96 19.95 20.59 20.3 20.15 20.47C19.72 20.63 19.22 20.63 18.65 20.45L17.02 19.95L16.37 20.33L15.99 21.99C15.86 22.58 15.61 23.01 15.24 23.31C14.88 23.6 14.4 23.75 13.8 23.75L10.19 23.75C9.59 23.75 9.11 23.6 8.74 23.31C8.37 23.01 8.13 22.58 7.99 21.99L7.62 20.33L6.96 19.95L5.33 20.45C4.77 20.63 4.26 20.63 3.83 20.47C3.39 20.3 3.02 19.95 2.72 19.43L0.92 16.31C0.61 15.79 0.5 15.29 0.57 14.83C0.64 14.37 0.9 13.93 1.34 13.53L2.58 12.38L2.58 11.61L1.34 10.46C0.9 10.05 0.64 9.62 0.57 9.15C0.5 8.69 0.62 8.2 0.92 7.68L2.72 4.55Q3.17 3.77 3.83 3.52L3.83 3.52C4.26 3.35 4.76 3.36 5.33 3.53L6.95 4.03L7.62 3.64L7.99 1.99ZM9.7 1.89C9.58 1.99 9.5 2.14 9.46 2.33L9.01 4.3C8.99 4.4 8.95 4.5 8.89 4.58C8.83 4.66 8.75 4.73 8.65 4.78L7.41 5.49C7.23 5.6 7.03 5.63 6.82 5.56L4.89 4.97Q4.6 4.88 4.39 4.96C4.24 5.02 4.12 5.13 4.02 5.31L2.21 8.43C2.11 8.6 2.08 8.77 2.1 8.92C2.12 9.08 2.21 9.22 2.35 9.35L3.84 10.73C3.92 10.8 3.98 10.89 4.02 10.98C4.06 11.07 4.08 11.17 4.08 11.28L4.08 12.71C4.08 12.81 4.06 12.91 4.02 13.01C3.98 13.1 3.92 13.18 3.84 13.26L2.35 14.63C2.21 14.77 2.12 14.91 2.1 15.06C2.08 15.22 2.11 15.38 2.21 15.55L4.02 18.68C4.22 19.02 4.51 19.14 4.89 19.02L6.83 18.42C7.04 18.35 7.24 18.38 7.43 18.49L8.65 19.2C8.75 19.25 8.82 19.32 8.88 19.4C8.94 19.48 8.98 19.57 9.01 19.68L9.46 21.66Q9.52 21.95 9.71 22.1L9.71 22.1C9.83 22.2 9.99 22.25 10.19 22.25L13.8 22.25Q14.1 22.25 14.28 22.1Q14.46 21.95 14.53 21.66L14.98 19.67C15.03 19.46 15.15 19.3 15.33 19.19L16.55 18.49C16.65 18.43 16.75 18.4 16.85 18.39C16.95 18.38 17.05 18.39 17.15 18.42L19.1 19.02C19.48 19.14 19.77 19.02 19.97 18.68L21.77 15.55C21.97 15.21 21.92 14.9 21.63 14.63L20.14 13.25C20.06 13.18 20 13.09 19.96 13C19.92 12.91 19.9 12.81 19.9 12.7L19.9 11.29C19.9 11.07 19.98 10.88 20.14 10.73L21.63 9.35C21.92 9.08 21.97 8.78 21.77 8.43L19.97 5.31C19.77 4.96 19.48 4.85 19.1 4.97L17.16 5.56C16.95 5.63 16.75 5.6 16.57 5.5L15.33 4.79C15.24 4.73 15.16 4.66 15.1 4.58C15.04 4.5 15 4.41 14.97 4.3L14.53 2.32C14.49 2.13 14.4 1.99 14.29 1.89C14.16 1.79 14 1.75 13.8 1.75L10.19 1.75C9.99 1.75 9.82 1.79 9.7 1.89ZM12 6.75C9.1 6.75 6.75 9.1 6.75 12C6.75 14.89 9.1 17.25 12 17.25C14.89 17.25 17.25 14.89 17.25 12C17.25 9.1 14.89 6.75 12 6.75ZM12 8.25C9.92 8.25 8.25 9.92 8.25 12C8.25 14.07 9.92 15.75 12 15.75C14.07 15.75 15.75 14.07 15.75 12C15.75 9.92 14.07 8.25 12 8.25Z" fill="#191919" fill-opacity="1.000000" fill-rule="evenodd"/>
	</g>
</svg>
