<svg width="32.000000" height="32.000000" viewBox="0 0 32 32" fill="none" xmlns="http://www.w3.org/2000/svg" xmlns:xlink="http://www.w3.org/1999/xlink">
	<desc>
			Created with Pixso.
	</desc>
	<defs>
		<clipPath id="clip42_2392">
			<rect width="32.000000" height="32.000000" fill="white" fill-opacity="0"/>
		</clipPath>
	</defs>
	<g clip-path="url(#clip42_2392)">
		<path d="M25.99 14.29L25.99 8.33C25.99 6.12 24.2 4.33 21.99 4.33L7.33 4.33C5.12 4.33 3.33 6.12 3.33 8.33L3.33 27C3.33 29.2 5.12 31 7.33 31L18.34 31C15.91 29.31 14.33 26.5 14.33 23.33C14.33 18.17 18.51 14 23.66 14C24.47 14 25.25 14.1 25.99 14.29Z" fill="#6889FF" fill-opacity="1.000000" fill-rule="evenodd"/>
		<path d="M26.99 14.61L26.99 8.33C26.99 7.64 26.87 7 26.63 6.41C26.38 5.82 26.02 5.28 25.53 4.79C25.04 4.3 24.5 3.94 23.91 3.69C23.33 3.45 22.69 3.33 21.99 3.33L7.33 3.33C6.64 3.33 6 3.45 5.41 3.69C4.82 3.94 4.28 4.3 3.79 4.79C3.3 5.28 2.94 5.82 2.69 6.41C2.45 7 2.33 7.64 2.33 8.33L2.33 27C2.33 27.69 2.45 28.33 2.69 28.91C2.94 29.5 3.3 30.04 3.79 30.53C4.28 31.02 4.82 31.38 5.41 31.63C6 31.87 6.64 32 7.33 32L20.19 32C19.04 31.53 18 30.85 17.13 30L7.33 30C6.33 30 5.58 29.75 5.08 29.25C4.58 28.75 4.33 28 4.33 27L4.33 8.33C4.33 7.33 4.58 6.58 5.08 6.08C5.58 5.58 6.33 5.33 7.33 5.33L21.99 5.33C22.99 5.33 23.74 5.58 24.24 6.08C24.74 6.58 24.99 7.33 24.99 8.33L24.99 14.09C25.69 14.19 26.36 14.36 26.99 14.61Z" fill="#466DFA" fill-opacity="1.000000" fill-rule="evenodd"/>
		<path d="M11.33 9.33L11.33 26.66C11.33 27.22 10.89 27.66 10.33 27.66C9.77 27.66 9.33 27.22 9.33 26.66L9.33 9.33C9.33 8.77 9.77 8.33 10.33 8.33C10.89 8.33 11.33 8.77 11.33 9.33ZM20 9.33C20 8.77 19.56 8.33 19 8.33C18.44 8.33 18 8.77 18 9.33L18 13.33C18 13.89 18.44 14.33 19 14.33C19.56 14.33 20 13.89 20 13.33L20 9.33Z" fill="#FFFFFF" fill-opacity="1.000000" fill-rule="evenodd"/>
		<path d="M9.33 2.33L9.33 4C9.33 4.56 9.77 5 10.33 5C10.89 5 11.33 4.56 11.33 4L11.33 2.33C11.33 2.28 11.34 2.24 11.35 2.2C11.37 2.16 11.39 2.13 11.43 2.09C11.46 2.06 11.49 2.04 11.53 2.02C11.57 2 11.62 2 11.66 2L17 2C17.04 2 17.08 2 17.12 2.02C17.16 2.04 17.2 2.06 17.23 2.09C17.26 2.13 17.29 2.16 17.3 2.2C17.32 2.24 17.33 2.28 17.33 2.33L17.33 4C17.33 4.56 17.77 5 18.33 5C18.89 5 19.33 4.56 19.33 4L19.33 2.33C19.33 2.16 19.31 2 19.28 1.84C19.25 1.69 19.2 1.56 19.14 1.42C19.09 1.29 19.02 1.16 18.94 1.04C18.85 0.91 18.76 0.79 18.65 0.68C18.53 0.57 18.41 0.47 18.29 0.38C18.17 0.3 18.04 0.24 17.9 0.18C17.77 0.12 17.63 0.08 17.49 0.05C17.33 0.01 17.16 0 17 0L11.66 0C11.49 0 11.33 0.01 11.17 0.05C11.03 0.08 10.89 0.12 10.75 0.18C10.62 0.24 10.49 0.3 10.37 0.38C10.24 0.47 10.12 0.57 10.01 0.68C9.9 0.79 9.8 0.91 9.72 1.04C9.64 1.16 9.57 1.29 9.51 1.42C9.45 1.56 9.41 1.69 9.38 1.84C9.35 2 9.33 2.16 9.33 2.33Z" fill="#466DFA" fill-opacity="1.000000" fill-rule="evenodd"/>
		<path d="M16.33 23.33C16.33 19.28 19.61 16 23.66 16C27.71 16 31 19.28 31 23.33C31 27.38 27.71 30.66 23.66 30.66C19.61 30.66 16.33 27.38 16.33 23.33Z" fill="#466DFA" fill-opacity="0.908046" fill-rule="evenodd"/>
		<path d="M15.33 23.33C15.33 18.73 19.06 15 23.66 15C28.26 15 32 18.73 32 23.33C32 27.93 28.26 31.66 23.66 31.66C19.06 31.66 15.33 27.93 15.33 23.33ZM17.33 23.33C17.33 19.83 20.16 17 23.66 17C27.16 17 30 19.83 30 23.33C30 26.83 27.16 29.66 23.66 29.66C20.16 29.66 17.33 26.83 17.33 23.33Z" fill="#466DFA" fill-opacity="1.000000" fill-rule="evenodd"/>
		<path d="M24.46 18.79L24.46 22.88L27.75 24.74C28.23 25.02 28.4 25.62 28.12 26.11C27.85 26.6 27.25 26.76 26.76 26.48L22.97 24.33C22.81 24.24 22.69 24.12 22.6 23.97C22.51 23.81 22.46 23.64 22.46 23.46L22.46 18.79C22.46 18.24 22.9 17.79 23.46 17.79C24.02 17.79 24.46 18.24 24.46 18.79Z" fill="#FFFFFF" fill-opacity="1.000000" fill-rule="evenodd"/>
	</g>
</svg>
