<svg width="32.000000" height="32.000000" viewBox="0 0 32 32" fill="none" xmlns="http://www.w3.org/2000/svg" xmlns:xlink="http://www.w3.org/1999/xlink">
	<desc>
			Created with Pixso.
	</desc>
	<defs>
		<clipPath id="clip42_2366">
			<rect width="32.000000" height="32.000000" fill="white" fill-opacity="0"/>
		</clipPath>
	</defs>
	<g clip-path="url(#clip42_2366)">
		<path d="M29 13.67L29 10L1.33 10L1.33 24.66C1.33 26.87 3.12 28.66 5.33 28.66L17.89 28.66C15.72 26.95 14.33 24.3 14.33 21.33C14.33 16.17 18.51 12 23.66 12C25.64 12 27.48 12.61 29 13.67ZM1.33 8.66L1.33 7.33C1.33 5.12 3.12 3.33 5.33 3.33L25 3.33C27.2 3.33 29 5.12 29 7.33L29 8.66L1.33 8.66Z" fill="#6889FF" fill-opacity="1.000000" fill-rule="evenodd"/>
		<path d="M30 14.47L30 10L28 10L28 13.06C28.72 13.44 29.4 13.92 30 14.47ZM16.81 27.66L5.33 27.66C4.33 27.66 3.58 27.41 3.08 26.91C2.58 26.41 2.33 25.66 2.33 24.66L2.33 10L0.33 10L0.33 24.66C0.33 25.35 0.45 25.99 0.69 26.58C0.94 27.17 1.3 27.71 1.79 28.2C2.28 28.69 2.82 29.05 3.41 29.3C4 29.54 4.64 29.66 5.33 29.66L19.45 29.66C18.45 29.16 17.56 28.48 16.81 27.66ZM0.33 8.66L0.33 7.33C0.33 6.64 0.45 6 0.69 5.41C0.94 4.82 1.3 4.28 1.79 3.79C2.28 3.3 2.82 2.94 3.41 2.69C4 2.45 4.64 2.33 5.33 2.33L25 2.33C25.69 2.33 26.33 2.45 26.91 2.69C27.5 2.94 28.04 3.3 28.53 3.79C29.51 4.77 30 5.95 30 7.33L30 8.66L28 8.66L28 7.33C28 6.33 27.75 5.58 27.25 5.08C26.75 4.58 26 4.33 25 4.33L5.33 4.33C4.33 4.33 3.58 4.58 3.08 5.08C2.58 5.58 2.33 6.33 2.33 7.33L2.33 8.66L0.33 8.66Z" fill="#466DFA" fill-opacity="1.000000" fill-rule="evenodd"/>
		<path d="M16.33 21.33C16.33 17.28 19.61 14 23.66 14C27.71 14 31 17.28 31 21.33C31 25.38 27.71 28.66 23.66 28.66C19.61 28.66 16.33 25.38 16.33 21.33Z" fill="#6889FF" fill-opacity="1.000000" fill-rule="evenodd"/>
		<path d="M15.33 21.33C15.33 16.73 19.06 13 23.66 13C28.26 13 32 16.73 32 21.33C32 25.93 28.26 29.66 23.66 29.66C19.06 29.66 15.33 25.93 15.33 21.33ZM17.33 21.33C17.33 17.83 20.16 15 23.66 15C27.16 15 30 17.83 30 21.33C30 24.83 27.16 27.66 23.66 27.66C20.16 27.66 17.33 24.83 17.33 21.33Z" fill="#466DFA" fill-opacity="1.000000" fill-rule="evenodd"/>
		<path d="M24.46 16.79L24.46 20.88L27.75 22.74C28.23 23.02 28.4 23.62 28.12 24.11C27.85 24.6 27.25 24.76 26.76 24.48L22.97 22.33C22.63 22.14 22.46 21.85 22.46 21.46L22.46 16.79C22.46 16.24 22.9 15.8 23.46 15.8C24.02 15.8 24.46 16.24 24.46 16.79Z" fill="#FFFFFF" fill-opacity="1.000000" fill-rule="evenodd"/>
	</g>
</svg>
