<svg xmlns="http://www.w3.org/2000/svg" xmlns:xlink="http://www.w3.org/1999/xlink" width="24px" height="24px" viewBox="0 0 24 24" version="1.1">
    <title>ic_right_arrow_lined</title>
    <g id="ic_right_arrow_lined" stroke="none" stroke-width="1" fill="none" fill-rule="evenodd">
        <g id="编组">
            <rect id="矩形" fill="#666666" opacity="0" x="0" y="0" width="24" height="24"></rect>
            <path d="M15.4089199,2.96966991 C15.7018131,2.6767767 16.1766869,2.6767767 16.4695801,2.96966991 C16.7358466,3.23593648 16.7600527,3.65260016 16.5421982,3.94621165 L16.4695801,4.03033009 L9.03058009,11.4693301 C8.76411938,11.7357908 8.73989567,12.1526808 8.95790898,12.4464923 L9.03058009,12.5306699 L16.4695801,19.9696699 C16.7624733,20.2625631 16.7624733,20.7374369 16.4695801,21.0303301 C16.2033135,21.2965966 15.7866498,21.3208027 15.4930383,21.1029482 L15.4089199,21.0303301 L7.96991991,13.5913301 C7.13287875,12.7542889 7.09301965,11.4220273 7.85034261,10.5378223 L7.96991991,10.4086699 L15.4089199,2.96966991 Z" id="Stroke-1备份" fill="#666666" transform="translate(12.000000, 12.000000) scale(-1, 1) translate(-12.000000, -12.000000) "></path>
        </g>
    </g>
</svg>