<?xml version="1.0" standalone="no"?><!DOCTYPE svg PUBLIC "-//W3C//DTD SVG 1.1//EN"
        "http://www.w3.org/Graphics/SVG/1.1/DTD/svg11.dtd">
<svg t="1739519198518" class="icon" viewBox="0 0 1170 1024" version="1.1" xmlns="http://www.w3.org/2000/svg" p-id="2743"
     xmlns:xlink="http://www.w3.org/1999/xlink" width="228.515625" height="200">
    <path d="M507.201829 25.044114c18.929371 0 34.523429 14.394514 36.395885 32.855772l0.175543 3.715657v905.157486h-73.142857V98.186971h-89.000229v868.586058h-73.142857V61.615543c0-18.929371 14.394514-34.523429 32.855772-36.366629l3.744914-0.2048h162.113829z"
          fill="#515151" p-id="2744"></path>
    <path d="M462.701714 206.584686v350.237257h-73.142857V206.613943zM903.168 1002.642286l173.992229-31.597715a36.571429 36.571429 0 0 0 29.403428-42.715428L966.626743 182.564571a36.571429 36.571429 0 0 0-42.481372-29.198628l-173.992228 31.597714a36.571429 36.571429 0 0 0-29.403429 42.715429l139.936915 745.764571a36.571429 36.571429 0 0 0 42.481371 29.198629z m124.7232-96.987429l-102.019657 18.549029-126.390857-673.821257 101.9904-18.549029 126.420114 673.821257z"
          fill="#515151" p-id="2745"></path>
    <path d="M921.951086 424.023771l55.296 294.590172-71.8848 13.487543-55.296-294.590172zM264.689371 325.749029v73.142857H156.584229v-73.142857zM264.689371 416.5632v73.142857H156.584229v-73.142857zM264.689371 503.222857v73.142857H156.584229v-73.142857z"
          fill="#515151" p-id="2746"></path>
    <path d="M264.689371 195.437714v73.142857H129.024v635.026286h-73.142857V232.0384c0-18.958629 14.394514-34.523429 32.855771-36.395886l3.744915-0.175543h172.207542zM1149.015771 926.281143v73.142857H0v-73.142857z"
          fill="#515151" p-id="2747"></path>
    <path d="M779.527314 414.573714c18.958629 0 34.523429 14.365257 36.395886 32.826515l0.175543 3.715657v515.657143h-73.142857V487.687314h-155.530972v-73.142857h192.1024z"
          fill="#515151" p-id="2748"></path>
    <path d="M728.707657 519.168h-156.613486v246.052571h156.613486v-246.052571z m-73.172114 73.1136v99.796114h-10.298514v-99.796114h10.298514z"
          fill="#515151" p-id="2749"></path>
</svg>