<svg width="128px" height="129px" viewBox="0 0 128 129" version="1.1" xmlns="http://www.w3.org/2000/svg" xmlns:xlink="http://www.w3.org/1999/xlink">
    <title>渐变小人头</title>
    <defs>
        <linearGradient x1="50%" y1="100%" x2="50%" y2="0%" id="linearGradient-1">
            <stop stop-color="#FFFFFF" stop-opacity="0.2" offset="0%"></stop>
            <stop stop-color="#FFFFFF" stop-opacity="0.6" offset="100%"></stop>
        </linearGradient>
        <path d="M0,64.06 C0,75.67 2.85,86.34 8.56,96.1 C14.27,105.85 22.02,113.6 31.81,119.35 C41.63,125.12 52.33,128 63.93,128 C75.54,128 86.24,125.12 96.06,119.35 C105.85,113.6 113.62,105.83 119.37,96.03 C125.12,86.22 128,75.56 128,64.06 C128,52.46 125.12,41.76 119.37,31.94 C113.62,22.15 105.85,14.38 96.06,8.63 C86.24,2.88 75.54,0 63.93,0 C52.33,0 41.63,2.88 31.81,8.63 C22.02,14.38 14.27,22.15 8.56,31.94 C2.85,41.76 0,52.46 0,64.06 Z" id="path-2"></path>
    </defs>
    <g id="页面-1" stroke="none" stroke-width="1" fill="none" fill-rule="evenodd">
        <g id="渐变小人头" transform="translate(0.000000, 0.930000)">
            <g id="background">
                <use fill="#999999" xlink:href="#path-2"></use>
                <use fill="url(#linearGradient-1)" xlink:href="#path-2"></use>
            </g>
            <path d="M43.7329,44.6868 C43.6924,39.1807 45.6733,34.4264 49.6758,30.4239 C51.8076,28.2814 54.1606,26.721 56.7349,25.7429 C58.9692,24.8936 61.3706,24.4832 63.939,24.5115 C69.4448,24.5522 74.1992,26.5738 78.2017,30.5763 C80.3687,32.7544 81.9551,35.1551 82.9609,37.7785 C83.8032,39.9759 84.2388,42.3294 84.2666,44.8392 C84.3071,50.3451 82.3262,55.0995 78.3237,59.102 C76.1919,61.2446 73.8389,62.805 71.2646,63.7831 C69.0303,64.6323 66.6289,65.0428 64.0605,65.0145 C61.5718,64.996 59.2363,64.5729 57.0547,63.7449 C54.4102,62.7414 51.9912,61.1429 49.7979,58.9496 C47.6309,56.7715 46.0444,54.3708 45.0386,51.7475 C44.1958,49.5501 43.7607,47.1966 43.7329,44.6868 Z M34.8999,108.928 C37.2173,110.441 39.6538,111.774 42.209,112.924 C43.4614,113.488 44.7329,113.999 46.0225,114.458 C51.6582,116.462 57.6509,117.465 63.9995,117.465 C71.5981,117.465 78.7705,115.982 85.5156,113.015 C87.3306,112.209 89.0879,111.307 90.7886,110.307 C95.3911,107.602 99.5762,104.187 103.344,100.0629 C102.873,98.6248 102.305,97.2348 101.641,95.8925 C100.098,92.7784 98.0352,89.9221 95.4512,87.3238 C94.1421,86.0148 92.7554,84.809 91.291,83.7064 L91.2905,83.706 C88.6187,81.6937 85.688,80.0246 82.4985,78.699 C77.9355,76.7947 73.3467,75.774 68.7314,75.6369 L68.73,75.6369 C68.3721,75.6263 68.0146,75.621 67.6567,75.621 L60.3423,75.621 C59.9844,75.621 59.627,75.6263 59.2695,75.6369 L59.2681,75.6369 C54.6523,75.774 50.0635,76.7947 45.5005,78.699 C42.4741,79.957 39.6724,81.5242 37.0967,83.4007 L37.0962,83.4007 C35.4702,84.5853 33.9336,85.8929 32.4873,87.3238 C29.75,90.0317 27.5942,93.0197 26.0205,96.2879 L26.0205,96.288 C25.4336,97.5073 24.9277,98.7656 24.5024,100.0629 C27.6519,103.502 31.1177,106.457 34.8999,108.928 Z" id="people" fill-opacity="0.898039" fill="#FFFFFF"></path>
        </g>
    </g>
</svg>