<svg width="24.000000" height="24.000000" viewBox="0 0 24 24" fill="none" xmlns="http://www.w3.org/2000/svg" xmlns:xlink="http://www.w3.org/1999/xlink">
	<desc>
			Created with Pixso.
	</desc>
	<defs>
		<clipPath id="clip162_8870">
			<rect id="ic_public_mappin_on_map_filled" width="20.000000" height="20.000000" transform="translate(2.000000 2.000000)" fill="white" fill-opacity="0"/>
		</clipPath>
		<clipPath id="clip162_8871">
			<rect id="svg" width="24.000000" height="24.000000" fill="white" fill-opacity="0"/>
		</clipPath>
	</defs>
	<g clip-path="url(#clip162_8871)">
		<g opacity="0.000000">
			<rect id="rect" width="24.000000" height="24.000000" fill="#000000" fill-opacity="1.000000"/>
		</g>
		<g clip-path="url(#clip162_8870)">
			<path id="path1" d="M2.62 11.99C2.62 10.52 2.62 9.06 2.62 7.59C2.62 6.88 2.71 6.18 2.88 5.49C3.27 4.04 4.21 3.18 5.66 2.84C6.39 2.68 7.14 2.61 7.88 2.62C10.69 2.62 13.5 2.62 16.31 2.62C17.02 2.62 17.72 2.7 18.41 2.86C19.91 3.23 20.81 4.18 21.15 5.67C21.3 6.37 21.38 7.09 21.37 7.81C21.37 10.65 21.37 13.49 21.37 16.33C21.37 17.03 21.29 17.73 21.13 18.42C20.76 19.91 19.81 20.81 18.32 21.15C17.59 21.31 16.85 21.38 16.1 21.37C13.31 21.37 10.51 21.37 7.71 21.37C7 21.37 6.28 21.29 5.59 21.13C4.09 20.76 3.18 19.81 2.84 18.31C2.67 17.55 2.62 16.79 2.62 16.02C2.62 14.68 2.62 13.33 2.62 11.99Z" fill="#FFFFFF" fill-opacity="0" fill-rule="nonzero"/>
			<path id="path1" d="M2.62 7.59C2.62 6.88 2.71 6.18 2.88 5.49C3.27 4.04 4.21 3.18 5.66 2.84C6.39 2.68 7.14 2.61 7.88 2.62C10.69 2.62 13.5 2.62 16.31 2.62C17.02 2.62 17.72 2.7 18.41 2.86C19.91 3.23 20.81 4.18 21.15 5.67C21.3 6.37 21.38 7.09 21.37 7.81C21.37 10.65 21.37 13.49 21.37 16.33C21.37 17.03 21.29 17.73 21.13 18.42C20.76 19.91 19.81 20.81 18.32 21.15C17.59 21.31 16.85 21.38 16.1 21.37C13.31 21.37 10.51 21.37 7.71 21.37C7 21.37 6.28 21.29 5.59 21.13C4.09 20.76 3.18 19.81 2.84 18.31C2.67 17.55 2.62 16.79 2.62 16.02C2.62 14.68 2.62 13.33 2.62 11.99C2.62 10.52 2.62 9.06 2.62 7.59Z" stroke="#FFFFFF" stroke-opacity="0" stroke-width="1.250000"/>
			<path id="path2" d="M2.62 11.99C2.62 10.52 2.62 9.06 2.62 7.59C2.62 6.88 2.71 6.18 2.88 5.49C3.27 4.04 4.21 3.18 5.66 2.84C6.39 2.68 7.14 2.61 7.88 2.62C10.69 2.62 13.5 2.62 16.31 2.62C17.02 2.62 17.72 2.7 18.41 2.86C19.91 3.23 20.81 4.18 21.15 5.67C21.3 6.37 21.38 7.09 21.37 7.81C21.37 10.65 21.37 13.49 21.37 16.33C21.37 17.03 21.29 17.73 21.13 18.42C20.76 19.91 19.81 20.81 18.32 21.15C17.59 21.31 16.85 21.38 16.1 21.37C13.31 21.37 10.51 21.37 7.71 21.37C7 21.37 6.28 21.29 5.59 21.13C4.09 20.76 3.18 19.81 2.84 18.31C2.67 17.55 2.62 16.79 2.62 16.02C2.62 14.68 2.62 13.33 2.62 11.99Z" fill="#000000" fill-opacity="0" fill-rule="nonzero"/>
			<path id="path2" d="M2.62 7.59C2.62 6.88 2.71 6.18 2.88 5.49C3.27 4.04 4.21 3.18 5.66 2.84C6.39 2.68 7.14 2.61 7.88 2.62C10.69 2.62 13.5 2.62 16.31 2.62C17.02 2.62 17.72 2.7 18.41 2.86C19.91 3.23 20.81 4.18 21.15 5.67C21.3 6.37 21.38 7.09 21.37 7.81C21.37 10.65 21.37 13.49 21.37 16.33C21.37 17.03 21.29 17.73 21.13 18.42C20.76 19.91 19.81 20.81 18.32 21.15C17.59 21.31 16.85 21.38 16.1 21.37C13.31 21.37 10.51 21.37 7.71 21.37C7 21.37 6.28 21.29 5.59 21.13C4.09 20.76 3.18 19.81 2.84 18.31C2.67 17.55 2.62 16.79 2.62 16.02C2.62 14.68 2.62 13.33 2.62 11.99C2.62 10.52 2.62 9.06 2.62 7.59Z" stroke="#FFFFFF" stroke-opacity="0" stroke-width="1.250000"/>
			<circle id="path3" cx="12.000000" cy="12.000000" r="10.000000" fill="#FFFFFF" fill-opacity="0"/>
			<circle id="path3" cx="12.000000" cy="12.000000" r="10.000000" stroke="#000000" stroke-opacity="0" stroke-width="1.250000"/>
			<mask id="mask162_8857" mask-type="alpha" maskUnits="userSpaceOnUse" x="2.000000" y="1.999756" width="20.000000" height="20.000366">
				<path id="path-3" d="M22 2L22 22L16 22L15.99 10.98C16.98 9.65 17.49 8.35 17.49 7.04C17.49 5.59 16.92 4.29 16 3.32L16 2L22 2ZM8.99 12.16C9.54 12.73 10.17 13.31 10.88 13.9C11.53 14.43 12.46 14.43 13.11 13.9C13.82 13.31 14.45 12.73 15 12.16L15 22L9 22L8.99 12.16ZM8 2L7.99 3.32C7.07 4.29 6.5 5.59 6.5 7.04C6.5 8.35 7.01 9.65 7.99 10.97L8 22L2 22L2 2L8 2ZM9.96 1.99C9.62 2.13 9.3 2.3 8.99 2.49L9 2L9.96 1.99ZM15 2L15 2.49C14.69 2.3 14.37 2.13 14.03 1.99L15 2Z" fill="#FFFFFF" fill-opacity="1.000000" fill-rule="nonzero"/>
			</mask>
			<g mask="url(#mask162_8857)">
				<path id="合并" d="M9.34473 6.98047L15.0051 10.754L20.9111 6.97412C21.0564 6.8811 21.2134 6.85303 21.3821 6.89001C21.5505 6.92712 21.6814 7.01831 21.7744 7.16357C21.8066 7.21387 21.8311 7.2677 21.8479 7.32495C21.8647 7.38232 21.873 7.4408 21.873 7.50049L21.873 16.4532C21.873 16.5918 21.8564 16.7261 21.8232 16.8561C21.79 16.9861 21.74 17.1118 21.6736 17.2334C21.6069 17.3549 21.5281 17.4647 21.4363 17.5629C21.3447 17.6609 21.2407 17.7473 21.124 17.8219L15.335 21.527C15.2305 21.5938 15.1162 21.6267 14.9922 21.6255C14.8682 21.6244 14.7546 21.5894 14.6514 21.5205L8.99097 17.7471L3.08496 21.527C3.01221 21.5735 2.93677 21.6038 2.85815 21.6177C2.77979 21.6317 2.69824 21.6295 2.61401 21.611C2.52979 21.5925 2.45483 21.5604 2.3894 21.5149C2.32422 21.4692 2.26807 21.4102 2.22168 21.3374C2.20557 21.3123 2.19141 21.2863 2.1792 21.2594C2.16699 21.2324 2.15649 21.2047 2.14819 21.176C2.13135 21.1188 2.12305 21.0602 2.12305 21.0005L2.12305 12.0479C2.12305 11.9093 2.13965 11.775 2.17285 11.645C2.20605 11.515 2.2561 11.3892 2.32251 11.2677C2.38916 11.1461 2.46802 11.0364 2.55981 10.9382C2.65137 10.8402 2.75537 10.7538 2.87207 10.6791L8.66113 6.97412C8.76562 6.90723 8.87988 6.87439 9.00391 6.87561C9.06592 6.8761 9.12524 6.88513 9.18213 6.90271C9.23901 6.92017 9.29321 6.94604 9.34473 6.98047Z" clip-rule="evenodd" fill="#000000" fill-opacity="1.000000" fill-rule="evenodd"/>
			</g>
			<path id="减去顶层" d="M16.3696 7.03809C16.3696 7.97864 16.022 8.96118 15.3264 9.9856C14.6689 10.9537 13.6934 11.9691 12.3997 13.0316C12.2844 13.1263 12.1521 13.1737 12.0029 13.1737C11.8538 13.1737 11.7217 13.1263 11.6062 13.0316C10.3125 11.9691 9.33691 10.9537 8.67969 9.9856C7.98413 8.96118 7.63623 7.97864 7.63623 7.03809C7.63623 6.72876 7.66846 6.42651 7.73291 6.13123L7.73291 6.13123C7.79028 5.8689 7.87305 5.61206 7.9812 5.36084C8.07812 5.13599 8.19238 4.92236 8.32397 4.72009L8.32397 4.71997L8.32397 4.71997L8.32397 4.71997C8.49365 4.45935 8.69214 4.21753 8.91919 3.99438C9.11646 3.8009 9.32764 3.62878 9.55322 3.47815L9.55322 3.47815C9.78882 3.32068 10.04 3.18665 10.3069 3.07593C10.543 2.97778 10.7837 2.90125 11.0295 2.84607L11.0295 2.84607L11.0295 2.84607L11.0295 2.84607C11.3459 2.7749 11.6704 2.73938 12.0029 2.73938C12.3354 2.73938 12.6599 2.7749 12.9763 2.84607L12.9763 2.84607L12.9766 2.84607L12.9766 2.84607C13.2222 2.90125 13.4631 2.97778 13.6992 3.07593C13.9658 3.18665 14.217 3.32068 14.4526 3.47803L14.4526 3.47815L14.4529 3.47839L14.4529 3.47839C14.6785 3.62903 14.8896 3.80103 15.0867 3.99438C15.314 4.21753 15.5122 4.45935 15.6819 4.71997C15.8135 4.92224 15.9277 5.13586 16.0247 5.36084C16.1328 5.61206 16.2156 5.8689 16.2729 6.13123C16.3374 6.42639 16.3696 6.72876 16.3696 7.03809ZM10.8252 6.80054C10.8252 6.15161 11.3513 5.62549 12.0002 5.62549C12.6492 5.62549 13.1753 6.15161 13.1753 6.80054C13.1753 7.44946 12.6492 7.97546 12.0002 7.97546C11.3513 7.97546 10.8252 7.44946 10.8252 6.80054Z" clip-rule="evenodd" fill="#000000" fill-opacity="1.000000" fill-rule="evenodd"/>
		</g>
	</g>
</svg>
