<svg width="24.000000" height="24.000000" viewBox="0 0 24 24" fill="none" xmlns="http://www.w3.org/2000/svg" xmlns:xlink="http://www.w3.org/1999/xlink">
	<desc>
			Created with Pixso.
	</desc>
	<defs>
		<clipPath id="clip162_8849">
			<rect id="ic_bpit_ticket_filled" width="24.000000" height="24.000000" fill="white" fill-opacity="0"/>
		</clipPath>
	</defs>
	<g clip-path="url(#clip162_8849)">
		<path id="path1" d="M1.69 11.99C1.69 10.38 1.68 8.76 1.69 7.15C1.68 6.37 1.78 5.6 1.97 4.84C2.39 3.24 3.43 2.29 5.03 1.93C5.83 1.75 6.65 1.67 7.47 1.68C10.56 1.68 13.65 1.68 16.74 1.68C17.52 1.68 18.3 1.77 19.06 1.95C20.7 2.35 21.69 3.4 22.07 5.04C22.23 5.81 22.32 6.6 22.31 7.4C22.31 10.52 22.31 13.64 22.31 16.76C22.31 17.54 22.22 18.31 22.04 19.06C21.64 20.71 20.59 21.69 18.95 22.06C18.15 22.24 17.33 22.32 16.51 22.31C13.44 22.31 10.36 22.31 7.28 22.31C6.5 22.31 5.71 22.22 4.95 22.04C3.3 21.64 2.3 20.59 1.93 18.95C1.74 18.11 1.69 17.27 1.69 16.42C1.69 14.94 1.69 13.47 1.69 11.99Z" fill="#FFFFFF" fill-opacity="0" fill-rule="nonzero"/>
		<path id="path1" d="M1.69 7.15C1.68 6.37 1.78 5.6 1.97 4.84C2.39 3.24 3.43 2.29 5.03 1.93C5.83 1.75 6.65 1.67 7.47 1.68C10.56 1.68 13.65 1.68 16.74 1.68C17.52 1.68 18.3 1.77 19.06 1.95C20.7 2.35 21.69 3.4 22.07 5.04C22.23 5.81 22.32 6.6 22.31 7.4C22.31 10.52 22.31 13.64 22.31 16.76C22.31 17.54 22.22 18.31 22.04 19.06C21.64 20.71 20.59 21.69 18.95 22.06C18.15 22.24 17.33 22.32 16.51 22.31C13.44 22.31 10.36 22.31 7.28 22.31C6.5 22.31 5.71 22.22 4.95 22.04C3.3 21.64 2.3 20.59 1.93 18.95C1.74 18.11 1.69 17.27 1.69 16.42C1.69 14.94 1.69 13.47 1.69 11.99C1.69 10.38 1.68 8.76 1.69 7.15Z" stroke="#FFFFFF" stroke-opacity="0" stroke-width="1.374894"/>
		<g opacity="0.200000">
			<path id="path2" d="M1.69 11.99C1.69 10.38 1.68 8.76 1.69 7.15C1.68 6.37 1.78 5.6 1.97 4.84C2.39 3.24 3.43 2.29 5.03 1.93C5.83 1.75 6.65 1.67 7.47 1.68C10.56 1.68 13.65 1.68 16.74 1.68C17.52 1.68 18.3 1.77 19.06 1.95C20.7 2.35 21.69 3.4 22.07 5.04C22.23 5.81 22.32 6.6 22.31 7.4C22.31 10.52 22.31 13.64 22.31 16.76C22.31 17.54 22.22 18.31 22.04 19.06C21.64 20.71 20.59 21.69 18.95 22.06C18.15 22.24 17.33 22.32 16.51 22.31C13.44 22.31 10.36 22.31 7.28 22.31C6.5 22.31 5.71 22.22 4.95 22.04C3.3 21.64 2.3 20.59 1.93 18.95C1.74 18.11 1.69 17.27 1.69 16.42C1.69 14.94 1.69 13.47 1.69 11.99Z" fill="#000000" fill-opacity="0" fill-rule="nonzero"/>
			<path id="path2" d="M1.69 7.15C1.68 6.37 1.78 5.6 1.97 4.84C2.39 3.24 3.43 2.29 5.03 1.93C5.83 1.75 6.65 1.67 7.47 1.68C10.56 1.68 13.65 1.68 16.74 1.68C17.52 1.68 18.3 1.77 19.06 1.95C20.7 2.35 21.69 3.4 22.07 5.04C22.23 5.81 22.32 6.6 22.31 7.4C22.31 10.52 22.31 13.64 22.31 16.76C22.31 17.54 22.22 18.31 22.04 19.06C21.64 20.71 20.59 21.69 18.95 22.06C18.15 22.24 17.33 22.32 16.51 22.31C13.44 22.31 10.36 22.31 7.28 22.31C6.5 22.31 5.71 22.22 4.95 22.04C3.3 21.64 2.3 20.59 1.93 18.95C1.74 18.11 1.69 17.27 1.69 16.42C1.69 14.94 1.69 13.47 1.69 11.99C1.69 10.38 1.68 8.76 1.69 7.15Z" stroke="#FFFFFF" stroke-opacity="0" stroke-width="1.374894"/>
		</g>
		<ellipse id="path3" cx="12.000244" cy="12.000000" rx="10.999150" ry="10.999151" fill="#FFFFFF" fill-opacity="0"/>
		<ellipse id="path3" cx="12.000244" cy="12.000000" rx="10.999150" ry="10.999151" stroke="#000000" stroke-opacity="0" stroke-width="1.374894"/>
		<path id="减去顶层" d="M22.9211 5.75903C22.9741 6.00024 23.0007 6.24744 23.0007 6.50037L23.001 9.22083C23.001 9.34351 22.9705 9.45801 22.9089 9.56433C22.8477 9.67065 22.7639 9.75452 22.6577 9.81592C22.4661 9.92676 22.2942 10.0576 22.1421 10.2084C21.9895 10.3596 21.8567 10.5309 21.7439 10.7222C21.6343 10.9083 21.5505 11.1021 21.4927 11.3032L21.4927 11.3033L21.4927 11.3033C21.4287 11.5264 21.3967 11.7585 21.3967 11.9999C21.3967 12.2413 21.4287 12.4735 21.4927 12.6965C21.5503 12.8977 21.6343 13.0914 21.7439 13.2777C21.8567 13.469 21.9895 13.6403 22.1421 13.7915C22.2942 13.9423 22.4661 14.073 22.6577 14.1838C22.7639 14.2454 22.8477 14.3292 22.9089 14.4355C22.9705 14.5419 23.001 14.6564 23.001 14.7791L23.0007 17.4995C23.0007 17.7522 22.9741 17.999 22.9211 18.24C22.8765 18.4434 22.8127 18.6426 22.7305 18.8376C22.6477 19.0331 22.5488 19.2179 22.4338 19.3921C22.3069 19.5844 22.1604 19.7637 21.9939 19.9299C21.8276 20.0963 21.6484 20.2429 21.4561 20.3699C21.282 20.4849 21.0972 20.5836 20.9016 20.6664C20.7068 20.7488 20.5078 20.8123 20.3049 20.8571C20.0635 20.9102 19.8164 20.9368 19.5635 20.9368L4.4397 20.9368C4.18677 20.9368 3.9397 20.9102 3.69824 20.8571C3.49536 20.8123 3.29639 20.7488 3.10156 20.6664C2.90601 20.5836 2.72119 20.4849 2.54712 20.3699C2.35474 20.2429 2.17554 20.0963 2.00928 19.9299C1.84277 19.7637 1.69629 19.5845 1.56934 19.3921C1.45435 19.218 1.35547 19.0331 1.27295 18.8376C1.19043 18.6428 1.12695 18.4438 1.08203 18.2407C1.02905 17.9995 1.00244 17.7524 1.00244 17.4995L1.00244 14.7787C1.00244 14.656 1.0332 14.5415 1.09448 14.4353C1.15576 14.329 1.2395 14.2451 1.3457 14.1837C1.53735 14.0729 1.70923 13.942 1.86133 13.7913C2.01392 13.64 2.14648 13.4689 2.25928 13.2775C2.36914 13.0913 2.45288 12.8976 2.5105 12.6964C2.57446 12.4734 2.60645 12.2412 2.60645 11.9999C2.60645 11.7585 2.57446 11.5264 2.5105 11.3035C2.45288 11.1023 2.36914 10.9086 2.25928 10.7223C2.14648 10.531 2.01392 10.3597 1.86133 10.2086C1.70923 10.0579 1.53735 9.927 1.3457 9.81616C1.29272 9.7854 1.24512 9.74915 1.20337 9.70715C1.16138 9.66528 1.12524 9.61768 1.09448 9.56458C1.0332 9.45825 1.00244 9.34375 1.00244 9.22107L1.00244 6.50037C1.00244 6.24731 1.02905 6.00012 1.08228 5.75879C1.12695 5.55579 1.19043 5.35693 1.27295 5.16223C1.35547 4.96667 1.45435 4.78186 1.56934 4.60767L1.56934 4.60767L1.56934 4.60767L1.56934 4.60767C1.69629 4.41541 1.84302 4.23608 2.00928 4.06982C2.17554 3.90356 2.35474 3.75696 2.54688 3.63L2.54712 3.63L2.54712 3.63L2.54712 3.63L2.54712 3.63C2.72119 3.51501 2.90601 3.41614 3.10156 3.3335C3.29639 3.2511 3.49536 3.1875 3.69849 3.14282L3.69849 3.14282L3.69849 3.14282C3.9397 3.08972 4.18677 3.06311 4.4397 3.06311L19.5635 3.06311C19.8164 3.06311 20.0635 3.08972 20.3047 3.14282C20.5078 3.1875 20.7068 3.2511 20.9016 3.3335C21.0972 3.41614 21.282 3.51501 21.4561 3.63L21.4563 3.63013L21.4563 3.63013C21.6484 3.75696 21.8276 3.90356 21.9939 4.06982C22.1604 4.23608 22.3069 4.41541 22.4338 4.60767C22.5488 4.78186 22.6477 4.96667 22.7305 5.16223C22.8127 5.35693 22.8762 5.55591 22.9211 5.75903ZM12.6875 8.33362L12.6875 15.6664C12.6875 16.0514 12.385 16.3539 12 16.3539C11.615 16.3539 11.3125 16.0514 11.3125 15.6664L11.3125 8.33362C11.3125 7.94873 11.615 7.64624 12 7.64624C12.385 7.64624 12.6875 7.94873 12.6875 8.33362Z" clip-rule="evenodd" fill="#000000" fill-opacity="1.000000" fill-rule="evenodd"/>
	</g>
</svg>
