<svg width="24.000000" height="24.000000" viewBox="0 0 24 24" fill="none" xmlns="http://www.w3.org/2000/svg" xmlns:xlink="http://www.w3.org/1999/xlink">
	<desc>
			Created with Pixso.
	</desc>
	<defs>
		<clipPath id="clip32_3297">
			<rect id="ic_public_mappin_on_map_border" width="20.000000" height="20.000000" transform="translate(2.000000 2.000000)" fill="white" fill-opacity="0"/>
		</clipPath>
		<clipPath id="clip32_3295">
			<rect id="svg" width="24.000000" height="24.000000" fill="white" fill-opacity="0"/>
		</clipPath>
	</defs>
	<g clip-path="url(#clip32_3295)">
		<g opacity="0.000000">
			<rect id="rect" width="24.000000" height="24.000000" fill="#000000" fill-opacity="1.000000"/>
		</g>
		<g clip-path="url(#clip32_3297)">
			<path id="path1" d="M2.62 11.99C2.62 10.52 2.62 9.06 2.62 7.59C2.62 6.88 2.71 6.18 2.88 5.49C3.27 4.04 4.21 3.18 5.66 2.84C6.39 2.68 7.14 2.61 7.88 2.62C10.69 2.62 13.5 2.62 16.31 2.62C17.02 2.62 17.72 2.7 18.41 2.86C19.91 3.23 20.81 4.18 21.15 5.67C21.3 6.37 21.38 7.09 21.37 7.81C21.37 10.65 21.37 13.49 21.37 16.33C21.37 17.03 21.29 17.73 21.13 18.42C20.76 19.91 19.81 20.81 18.32 21.15C17.59 21.31 16.85 21.38 16.1 21.37C13.31 21.37 10.51 21.37 7.71 21.37C7 21.37 6.28 21.29 5.59 21.13C4.09 20.76 3.18 19.81 2.84 18.31C2.67 17.55 2.62 16.79 2.62 16.02C2.62 14.68 2.62 13.33 2.62 11.99Z" fill="#FFFFFF" fill-opacity="0" fill-rule="nonzero"/>
			<path id="path1" d="M2.62 7.59C2.62 6.88 2.71 6.18 2.88 5.49C3.27 4.04 4.21 3.18 5.66 2.84C6.39 2.68 7.14 2.61 7.88 2.62C10.69 2.62 13.5 2.62 16.31 2.62C17.02 2.62 17.72 2.7 18.41 2.86C19.91 3.23 20.81 4.18 21.15 5.67C21.3 6.37 21.38 7.09 21.37 7.81C21.37 10.65 21.37 13.49 21.37 16.33C21.37 17.03 21.29 17.73 21.13 18.42C20.76 19.91 19.81 20.81 18.32 21.15C17.59 21.31 16.85 21.38 16.1 21.37C13.31 21.37 10.51 21.37 7.71 21.37C7 21.37 6.28 21.29 5.59 21.13C4.09 20.76 3.18 19.81 2.84 18.31C2.67 17.55 2.62 16.79 2.62 16.02C2.62 14.68 2.62 13.33 2.62 11.99C2.62 10.52 2.62 9.06 2.62 7.59Z" stroke="#FFFFFF" stroke-opacity="0" stroke-width="1.500000"/>
			<path id="path2" d="M2.62 11.99C2.62 10.52 2.62 9.06 2.62 7.59C2.62 6.88 2.71 6.18 2.88 5.49C3.27 4.04 4.21 3.18 5.66 2.84C6.39 2.68 7.14 2.61 7.88 2.62C10.69 2.62 13.5 2.62 16.31 2.62C17.02 2.62 17.72 2.7 18.41 2.86C19.91 3.23 20.81 4.18 21.15 5.67C21.3 6.37 21.38 7.09 21.37 7.81C21.37 10.65 21.37 13.49 21.37 16.33C21.37 17.03 21.29 17.73 21.13 18.42C20.76 19.91 19.81 20.81 18.32 21.15C17.59 21.31 16.85 21.38 16.1 21.37C13.31 21.37 10.51 21.37 7.71 21.37C7 21.37 6.28 21.29 5.59 21.13C4.09 20.76 3.18 19.81 2.84 18.31C2.67 17.55 2.62 16.79 2.62 16.02C2.62 14.68 2.62 13.33 2.62 11.99Z" fill="#000000" fill-opacity="0" fill-rule="nonzero"/>
			<path id="path2" d="M2.62 7.59C2.62 6.88 2.71 6.18 2.88 5.49C3.27 4.04 4.21 3.18 5.66 2.84C6.39 2.68 7.14 2.61 7.88 2.62C10.69 2.62 13.5 2.62 16.31 2.62C17.02 2.62 17.72 2.7 18.41 2.86C19.91 3.23 20.81 4.18 21.15 5.67C21.3 6.37 21.38 7.09 21.37 7.81C21.37 10.65 21.37 13.49 21.37 16.33C21.37 17.03 21.29 17.73 21.13 18.42C20.76 19.91 19.81 20.81 18.32 21.15C17.59 21.31 16.85 21.38 16.1 21.37C13.31 21.37 10.51 21.37 7.71 21.37C7 21.37 6.28 21.29 5.59 21.13C4.09 20.76 3.18 19.81 2.84 18.31C2.67 17.55 2.62 16.79 2.62 16.02C2.62 14.68 2.62 13.33 2.62 11.99C2.62 10.52 2.62 9.06 2.62 7.59Z" stroke="#FFFFFF" stroke-opacity="0" stroke-width="1.500000"/>
			<circle id="path3" cx="12.000000" cy="12.000000" r="10.000000" fill="#FFFFFF" fill-opacity="0"/>
			<circle id="path3" cx="12.000000" cy="12.000000" r="10.000000" stroke="#000000" stroke-opacity="0" stroke-width="1.500000"/>
			<mask id="mask32_3303" mask-type="alpha" maskUnits="userSpaceOnUse" x="2.000000" y="1.999512" width="20.000000" height="20.000244">
				<path id="path-1" d="M22 1.99L22 21.99L2 21.99L2 1.99L9.96 1.99C7.94 2.79 6.5 4.74 6.5 7.03C6.5 9.31 8.02 11.55 10.88 13.9C11.53 14.43 12.46 14.43 13.11 13.9C15.97 11.55 17.49 9.31 17.49 7.03C17.49 4.74 16.05 2.79 14.03 1.99L22 1.99Z" fill="#FFFFFF" fill-opacity="1.000000" fill-rule="nonzero"/>
			</mask>
			<mask id="mask32_3307" mask-type="alpha" maskUnits="userSpaceOnUse" x="2.000000" y="1.999512" width="20.000000" height="20.000244">
				<path id="path-1" d="M22 1.99L22 21.99L2 21.99L2 1.99L9.96 1.99C7.94 2.79 6.5 4.74 6.5 7.03C6.5 9.31 8.02 11.55 10.88 13.9C11.53 14.43 12.46 14.43 13.11 13.9C15.97 11.55 17.49 9.31 17.49 7.03C17.49 4.74 16.05 2.79 14.03 1.99L22 1.99Z" fill="#FFFFFF" fill-opacity="1.000000" fill-rule="nonzero"/>
			</mask>
			<g mask="url(#mask32_3307)">
				<path id="合并" d="M15.0084 10.6042L9.41602 6.87598C9.29218 6.79346 9.15582 6.75146 9.00702 6.75C8.85815 6.74878 8.72107 6.78809 8.5957 6.86841L2.80664 10.5732C2.68103 10.6538 2.56885 10.7468 2.47021 10.8525C2.37158 10.958 2.2865 11.0764 2.21484 11.2073C2.14325 11.3381 2.08954 11.4734 2.05371 11.6135C2.01788 11.7534 2 11.8982 2 12.0474L2 21C2 21.0718 2.01007 21.1418 2.03015 21.2107C2.05029 21.2795 2.07965 21.344 2.11829 21.4043C2.17413 21.4915 2.24127 21.5625 2.31976 21.6172C2.39825 21.6719 2.48804 21.7104 2.58917 21.7327C2.7915 21.7771 2.97986 21.7434 3.1543 21.6318L8.99103 17.8962L14.584 21.625C14.7563 21.7397 14.944 21.7769 15.1471 21.7363C15.2664 21.7124 15.3705 21.6658 15.4594 21.5964L21.1934 17.9268C21.319 17.8464 21.4312 17.7534 21.5298 17.6477C21.6284 17.542 21.7135 17.4238 21.7852 17.293C21.8568 17.1621 21.9104 17.0269 21.9462 16.8867L21.9463 16.8867C21.9821 16.7466 22 16.6021 22 16.4529L22 7.5C22 7.46411 21.9975 7.42871 21.9924 7.39355C21.9874 7.35864 21.9799 7.32373 21.9698 7.28931C21.9598 7.25513 21.9474 7.22168 21.9327 7.18945C21.918 7.15723 21.901 7.12598 21.8817 7.0957C21.7701 6.92139 21.6131 6.81201 21.4108 6.76758C21.2085 6.72314 21.0201 6.75659 20.8457 6.86841L15.0084 10.6042ZM15.75 19.6296L20.3848 16.6633C20.404 16.6282 20.5 16.4983 20.5 16.4529L20.5 8.87061L15.75 11.9104L15.75 19.6296ZM8.25 8.87061L3.61523 11.8367C3.59601 11.8718 3.5 12.0017 3.5 12.0474L3.5 19.6296L8.25 16.5896L8.25 8.87061ZM14.25 19.5986L9.75 16.5986L9.75 9.27271L14.25 11.929L14.25 19.5986Z" clip-rule="evenodd" fill="#000000" fill-opacity="1.000000" fill-rule="evenodd"/>
			</g>
			<path id="path9 (边框)" d="M15.42 10.05C16.13 9.01 16.49 8 16.49 7.04C16.49 6.72 16.45 6.41 16.39 6.1C16.33 5.83 16.24 5.57 16.13 5.31C16.03 5.08 15.91 4.86 15.78 4.65C15.6 4.38 15.4 4.13 15.17 3.9C14.96 3.7 14.75 3.53 14.51 3.37C14.27 3.21 14.01 3.07 13.74 2.96C13.5 2.86 13.25 2.78 12.99 2.72C12.67 2.65 12.34 2.61 12 2.61C11.65 2.61 11.32 2.65 11 2.72C10.74 2.78 10.49 2.86 10.25 2.96C9.98 3.07 9.72 3.21 9.48 3.37C9.24 3.53 9.03 3.7 8.82 3.9C8.59 4.13 8.39 4.38 8.21 4.65C8.08 4.86 7.96 5.08 7.86 5.31C7.75 5.57 7.66 5.83 7.6 6.1C7.54 6.41 7.5 6.72 7.5 7.04C7.5 8 7.86 9.01 8.57 10.05C9.23 11.03 10.22 12.05 11.52 13.13C11.66 13.24 11.82 13.3 12 13.3C12.17 13.3 12.33 13.24 12.47 13.13C13.77 12.05 14.76 11.03 15.42 10.05ZM14.92 6.41C14.96 6.61 14.99 6.82 14.99 7.04C14.99 7.69 14.72 8.42 14.18 9.21C13.68 9.95 12.95 10.74 12 11.56C11.04 10.74 10.31 9.95 9.81 9.21C9.27 8.42 9 7.69 9 7.04C9 6.82 9.03 6.61 9.07 6.41C9.11 6.23 9.17 6.07 9.24 5.9C9.3 5.76 9.37 5.62 9.45 5.49C9.57 5.31 9.71 5.13 9.87 4.97C10.01 4.84 10.15 4.72 10.3 4.62C10.47 4.51 10.64 4.42 10.83 4.34C10.98 4.28 11.13 4.23 11.29 4.19C11.52 4.14 11.75 4.11 12 4.11C12.24 4.11 12.47 4.14 12.7 4.19C12.86 4.23 13.01 4.28 13.16 4.34C13.35 4.42 13.52 4.51 13.69 4.62C13.84 4.72 13.98 4.84 14.12 4.97C14.28 5.13 14.42 5.31 14.54 5.49C14.62 5.62 14.69 5.76 14.75 5.9C14.82 6.07 14.88 6.23 14.92 6.41Z" fill="#000000" fill-opacity="1.000000" fill-rule="evenodd"/>
			<path id="合并" d="M12 5.50024C11.282 5.50024 10.7 6.08228 10.7 6.80029C10.7 7.51831 11.282 8.10034 12 8.10034C12.718 8.10034 13.3 7.51831 13.3 6.80029C13.3 6.08228 12.718 5.50024 12 5.50024Z" clip-rule="evenodd" fill="#000000" fill-opacity="1.000000" fill-rule="evenodd"/>
		</g>
	</g>
</svg>
