<svg width="20.000000" height="20.000000" viewBox="0 0 20 20" fill="none" xmlns="http://www.w3.org/2000/svg" xmlns:xlink="http://www.w3.org/1999/xlink">
	<desc>
			Created with Pixso.
	</desc>
	<defs>
		<clipPath id="clip83_8646">
			<rect id="ic_public_mappin_on_map_filled" width="20.000000" height="20.000000" fill="white" fill-opacity="0"/>
		</clipPath>
	</defs>
	<g clip-path="url(#clip83_8646)">
		<path id="path1" d="M0.62 9.99C0.62 8.52 0.62 7.06 0.62 5.59C0.62 4.88 0.71 4.18 0.88 3.49C1.27 2.04 2.21 1.18 3.66 0.84C4.39 0.68 5.14 0.61 5.88 0.62C8.69 0.62 11.5 0.62 14.31 0.62C15.02 0.62 15.72 0.7 16.41 0.86C17.91 1.23 18.81 2.18 19.15 3.67C19.3 4.37 19.38 5.09 19.37 5.81C19.37 8.65 19.37 11.49 19.37 14.33C19.37 15.03 19.29 15.73 19.13 16.42C18.76 17.91 17.81 18.81 16.32 19.15C15.59 19.31 14.85 19.38 14.1 19.37C11.31 19.37 8.51 19.37 5.71 19.37C5 19.37 4.28 19.29 3.59 19.13C2.09 18.76 1.18 17.81 0.84 16.31C0.67 15.55 0.62 14.79 0.62 14.02C0.62 12.68 0.62 11.33 0.62 9.99Z" fill="#FFFFFF" fill-opacity="0" fill-rule="nonzero"/>
		<path id="path1" d="M0.62 5.59C0.62 4.88 0.71 4.18 0.88 3.49C1.27 2.04 2.21 1.18 3.66 0.84C4.39 0.68 5.14 0.61 5.88 0.62C8.69 0.62 11.5 0.62 14.31 0.62C15.02 0.62 15.72 0.7 16.41 0.86C17.91 1.23 18.81 2.18 19.15 3.67C19.3 4.37 19.38 5.09 19.37 5.81C19.37 8.65 19.37 11.49 19.37 14.33C19.37 15.03 19.29 15.73 19.13 16.42C18.76 17.91 17.81 18.81 16.32 19.15C15.59 19.31 14.85 19.38 14.1 19.37C11.31 19.37 8.51 19.37 5.71 19.37C5 19.37 4.28 19.29 3.59 19.13C2.09 18.76 1.18 17.81 0.84 16.31C0.67 15.55 0.62 14.79 0.62 14.02C0.62 12.68 0.62 11.33 0.62 9.99C0.62 8.52 0.62 7.06 0.62 5.59Z" stroke="#FFFFFF" stroke-opacity="0" stroke-width="1.250000"/>
		<path id="path2" d="M0.62 9.99C0.62 8.52 0.62 7.06 0.62 5.59C0.62 4.88 0.71 4.18 0.88 3.49C1.27 2.04 2.21 1.18 3.66 0.84C4.39 0.68 5.14 0.61 5.88 0.62C8.69 0.62 11.5 0.62 14.31 0.62C15.02 0.62 15.72 0.7 16.41 0.86C17.91 1.23 18.81 2.18 19.15 3.67C19.3 4.37 19.38 5.09 19.37 5.81C19.37 8.65 19.37 11.49 19.37 14.33C19.37 15.03 19.29 15.73 19.13 16.42C18.76 17.91 17.81 18.81 16.32 19.15C15.59 19.31 14.85 19.38 14.1 19.37C11.31 19.37 8.51 19.37 5.71 19.37C5 19.37 4.28 19.29 3.59 19.13C2.09 18.76 1.18 17.81 0.84 16.31C0.67 15.55 0.62 14.79 0.62 14.02C0.62 12.68 0.62 11.33 0.62 9.99Z" fill="#000000" fill-opacity="0" fill-rule="nonzero"/>
		<path id="path2" d="M0.62 5.59C0.62 4.88 0.71 4.18 0.88 3.49C1.27 2.04 2.21 1.18 3.66 0.84C4.39 0.68 5.14 0.61 5.88 0.62C8.69 0.62 11.5 0.62 14.31 0.62C15.02 0.62 15.72 0.7 16.41 0.86C17.91 1.23 18.81 2.18 19.15 3.67C19.3 4.37 19.38 5.09 19.37 5.81C19.37 8.65 19.37 11.49 19.37 14.33C19.37 15.03 19.29 15.73 19.13 16.42C18.76 17.91 17.81 18.81 16.32 19.15C15.59 19.31 14.85 19.38 14.1 19.37C11.31 19.37 8.51 19.37 5.71 19.37C5 19.37 4.28 19.29 3.59 19.13C2.09 18.76 1.18 17.81 0.84 16.31C0.67 15.55 0.62 14.79 0.62 14.02C0.62 12.68 0.62 11.33 0.62 9.99C0.62 8.52 0.62 7.06 0.62 5.59Z" stroke="#FFFFFF" stroke-opacity="0" stroke-width="1.250000"/>
		<circle id="path3" cx="10.000000" cy="10.000000" r="10.000000" fill="#FFFFFF" fill-opacity="0"/>
		<circle id="path3" cx="10.000000" cy="10.000000" r="10.000000" stroke="#000000" stroke-opacity="0" stroke-width="1.250000"/>
		<mask id="mask83_8652" maskUnits="userSpaceOnUse" x="0.000000" y="-0.000244" width="20.000000" height="20.000244">
			<path id="path-3" d="M20 0L20 20L14 20L13.99 8.98C14.98 7.65 15.49 6.35 15.49 5.04C15.49 3.59 14.92 2.29 14 1.32L14 0L20 0ZM6.99 10.16C7.54 10.73 8.17 11.31 8.88 11.9C9.53 12.43 10.46 12.43 11.11 11.9C11.82 11.31 12.45 10.73 13 10.16L13 20L7 20L6.99 10.16ZM6 0L5.99 1.32C5.07 2.29 4.5 3.59 4.5 5.04C4.5 6.35 5.01 7.65 5.99 8.97L6 20L0 20L0 0L6 0ZM7.96 -0.01C7.62 0.13 7.3 0.3 6.99 0.49L7 0L7.96 -0.01ZM13 0L13 0.49C12.69 0.3 12.37 0.13 12.03 -0.01L13 0Z" fill="#FFFFFF" fill-opacity="1.000000" fill-rule="nonzero"/>
		</mask>
		<g mask="url(#mask83_8652)">
			<path id="合并" d="M7.34473 4.98047L13.0051 8.75391L18.9111 4.97412C19.0564 4.8811 19.2134 4.85303 19.3821 4.89014C19.5505 4.927 19.6814 5.01831 19.7744 5.16357C19.8066 5.21387 19.8311 5.26782 19.8479 5.32495C19.8647 5.38232 19.873 5.44092 19.873 5.50049L19.873 14.4534C19.873 14.5918 19.8564 14.7261 19.8232 14.8562C19.79 14.9861 19.74 15.1118 19.6736 15.2334C19.6069 15.355 19.5281 15.4646 19.4363 15.5627C19.3447 15.6609 19.2407 15.7473 19.124 15.822L13.335 19.5269C13.2305 19.5938 13.1162 19.6267 12.9922 19.6255C12.8682 19.6243 12.7546 19.5894 12.6514 19.5205L6.99097 15.7471L1.08496 19.5269C1.01221 19.5735 0.936768 19.6038 0.858154 19.6177C0.779785 19.6318 0.698242 19.6294 0.614014 19.6111C0.529785 19.5925 0.454834 19.5605 0.389404 19.5149C0.324219 19.4692 0.268066 19.4102 0.22168 19.3374C0.205566 19.3123 0.191406 19.2864 0.179199 19.2593C0.166992 19.2324 0.156494 19.2046 0.148193 19.176C0.131348 19.1187 0.123047 19.0603 0.123047 19.0005L0.123047 10.0479C0.123047 9.90918 0.139648 9.7749 0.172852 9.64502C0.206055 9.51489 0.256104 9.38916 0.32251 9.26758C0.38916 9.14624 0.468018 9.03638 0.559814 8.93823C0.651367 8.84009 0.755371 8.75366 0.87207 8.6792L6.66113 4.97412C6.76562 4.90723 6.87988 4.87451 7.00391 4.87549C7.06592 4.87622 7.12524 4.88525 7.18213 4.90259C7.23901 4.92017 7.29321 4.94604 7.34473 4.98047Z" clip-rule="evenodd" fill="#64BB5C" fill-opacity="1.000000" fill-rule="evenodd"/>
		</g>
		<path id="减去顶层" d="M14.3696 5.03857C14.3696 5.979 14.022 6.96143 13.3264 7.98584C12.6689 8.9541 11.6934 9.96948 10.3997 11.032C10.2844 11.1267 10.1521 11.1741 10.0029 11.1741C9.85376 11.1741 9.72168 11.1267 9.6062 11.032C8.3125 9.96948 7.33691 8.9541 6.67969 7.98584C5.98413 6.96143 5.63623 5.979 5.63623 5.03857C5.63623 4.729 5.66846 4.42676 5.73291 4.13159L5.73291 4.13159C5.79028 3.86914 5.87305 3.6123 5.9812 3.36108C6.07812 3.13623 6.19238 2.92261 6.32397 2.72046L6.32397 2.72046L6.32397 2.72046L6.32397 2.72046C6.49365 2.45972 6.69214 2.21777 6.91919 1.99487C7.11646 1.80127 7.32764 1.62915 7.55322 1.47852L7.55322 1.47852C7.78882 1.32104 8.04004 1.18701 8.30688 1.07617C8.54297 0.978271 8.78369 0.901611 9.02954 0.846436L9.02954 0.846436L9.02954 0.846436L9.02954 0.846436C9.34595 0.775391 9.67041 0.739746 10.0029 0.739746C10.3354 0.739746 10.6599 0.775391 10.9763 0.846436L10.9763 0.846436L10.9766 0.846436L10.9766 0.846436C11.2222 0.901611 11.4631 0.978271 11.6992 1.07617C11.9658 1.18701 12.217 1.32104 12.4526 1.47852L12.4526 1.47852L12.4529 1.47876L12.4529 1.47876C12.6785 1.62939 12.8896 1.80151 13.0867 1.99487C13.314 2.21777 13.5122 2.45972 13.6819 2.72046C13.8135 2.92261 13.9277 3.13623 14.0247 3.36108C14.1328 3.61255 14.2156 3.86914 14.2729 4.13159C14.3374 4.42676 14.3696 4.729 14.3696 5.03857ZM8.8252 4.80054C8.8252 4.15161 9.35132 3.62573 10.0002 3.62573C10.6492 3.62573 11.1753 4.15161 11.1753 4.80054C11.1753 5.44946 10.6492 5.97559 10.0002 5.97559C9.35132 5.97559 8.8252 5.44946 8.8252 4.80054Z" clip-rule="evenodd" fill="#64BB5C" fill-opacity="1.000000" fill-rule="evenodd"/>
	</g>
</svg>
