<svg width="24.000000" height="24.000000" viewBox="0 0 24 24" fill="none" xmlns="http://www.w3.org/2000/svg" xmlns:xlink="http://www.w3.org/1999/xlink">
	<desc>
			Created with Pixso.
	</desc>
	<defs>
		<clipPath id="clip3_4109">
			<rect id="svg" width="24.000000" height="24.000000" fill="white" fill-opacity="0"/>
		</clipPath>
	</defs>
	<g clip-path="url(#clip3_4109)">
		<path id="path-1" d="M12.55 4.55L12.68 4.66L21 12.58L21 19.25C21 20.84 19.75 22.15 18.17 22.24L18 22.25L6 22.25C4.4 22.25 3.09 21 3 19.42L3 19.25L3 12.58L11.31 4.66C11.65 4.33 12.18 4.29 12.55 4.55ZM12 13.5C10.4 13.5 9.09 14.74 9 16.32L9 16.5L9 20.25L15 20.25L15 16.5C15 14.84 13.65 13.5 12 13.5ZM9.39 2.34C10.94 1.02 13.25 1.06 14.75 2.48L22.43 9.77C22.75 10.15 22.82 10.81 22.47 11.18C22.09 11.58 21.46 11.6 21.06 11.22L13.37 3.93L13.26 3.83C12.49 3.2 11.35 3.23 10.62 3.93L2.93 11.22C2.53 11.52 1.87 11.56 1.52 11.18C1.14 10.78 1.16 10.15 1.56 9.77L9.24 2.48L9.39 2.34Z" fill="#64BB5C" fill-opacity="1.000000" fill-rule="nonzero"/>
		<path id="path-1" d="M12.68 4.66L21 12.58L21 19.25C21 20.84 19.75 22.15 18.17 22.24L18 22.25L6 22.25C4.4 22.25 3.09 21 3 19.42L3 19.25L3 12.58L11.31 4.66C11.65 4.33 12.18 4.29 12.55 4.55L12.68 4.66ZM9 16.32L9 16.5L9 20.25L15 20.25L15 16.5C15 14.84 13.65 13.5 12 13.5C10.4 13.5 9.09 14.74 9 16.32ZM14.75 2.48L22.43 9.77C22.75 10.15 22.82 10.81 22.47 11.18C22.09 11.58 21.46 11.6 21.06 11.22L13.37 3.93L13.26 3.83C12.49 3.2 11.35 3.23 10.62 3.93L2.93 11.22C2.53 11.52 1.87 11.56 1.52 11.18C1.14 10.78 1.16 10.15 1.56 9.77L9.24 2.48L9.39 2.34C10.94 1.02 13.25 1.06 14.75 2.48Z" stroke="#000000" stroke-opacity="0" stroke-width="1.000000"/>
	</g>
</svg>
