<svg width="24.000000" height="24.000000" viewBox="0 0 24 24" fill="none" xmlns="http://www.w3.org/2000/svg" xmlns:xlink="http://www.w3.org/1999/xlink">
	<desc>
			Created with Pixso.
	</desc>
	<defs>
		<clipPath id="clip32_3246">
			<rect id="AI_doc_plaintext" width="24.000000" height="24.000000" fill="white" fill-opacity="0"/>
		</clipPath>
	</defs>
	<g clip-path="url(#clip32_3246)">
		<g opacity="0.000000">
			<rect id="rect" width="24.000000" height="24.000000" fill="#000000" fill-opacity="1.000000"/>
		</g>
		<path id="path" d="M17.78 23.02C18.36 23.02 18.89 22.87 19.39 22.57C19.89 22.27 20.28 21.88 20.58 21.38C20.87 20.88 21.02 20.34 21.02 19.75L21.02 4.27C21.02 3.67 20.87 3.13 20.58 2.63C20.28 2.14 19.89 1.75 19.39 1.44C18.89 1.15 18.36 1.01 17.78 1.01L10.8 1.01C10.48 1.01 10.25 1.13 10.13 1.38C10 1.64 10 1.9 10.13 2.14C10.25 2.39 10.48 2.52 10.8 2.52L17.78 2.52C18.26 2.52 18.67 2.68 19.02 3.02C19.36 3.36 19.54 3.77 19.54 4.27L19.54 19.75C19.54 20.23 19.36 20.64 19.02 20.99C18.67 21.33 18.26 21.5 17.78 21.5L6.24 21.5C5.76 21.5 5.34 21.33 5 20.99C4.66 20.64 4.48 20.23 4.48 19.75L4.48 8.78C4.48 8.47 4.36 8.26 4.12 8.13C3.86 8 3.61 8 3.37 8.13C3.12 8.26 3 8.47 3 8.78L3 19.75C3 20.34 3.14 20.88 3.43 21.38C3.71 21.88 4.11 22.27 4.61 22.57C5.1 22.87 5.64 23.02 6.24 23.02L17.78 23.02ZM15.86 11.33C16.16 11.33 16.37 11.2 16.5 10.96C16.62 10.7 16.62 10.45 16.5 10.2C16.37 9.94 16.16 9.82 15.86 9.82L11.76 9.82C11.45 9.82 11.24 9.94 11.12 10.2C11 10.45 11 10.7 11.12 10.96C11.24 11.2 11.45 11.33 11.76 11.33L15.86 11.33ZM15.86 15.5C16.16 15.5 16.38 15.37 16.51 15.12C16.63 14.86 16.63 14.61 16.51 14.36C16.38 14.11 16.16 13.99 15.86 13.99L8.16 13.99C7.84 13.99 7.61 14.12 7.49 14.38C7.36 14.63 7.36 14.88 7.49 15.13C7.61 15.37 7.84 15.5 8.16 15.5L15.86 15.5Z" fill="#000000" fill-opacity="1.000000" fill-rule="nonzero"/>
		<path id="path" d="M6.41 1.12C6.18 1.98 5.77 2.71 5.2 3.32C4.61 3.91 3.92 4.28 3.12 4.41C3 4.43 2.95 4.49 2.98 4.6C2.99 4.69 3.03 4.76 3.12 4.78C3.92 4.85 4.62 5.2 5.21 5.83C5.81 6.45 6.21 7.19 6.41 8.06C6.44 8.15 6.5 8.2 6.59 8.2C6.69 8.2 6.74 8.15 6.77 8.06C6.92 7.21 7.31 6.47 7.92 5.84C8.52 5.21 9.24 4.85 10.06 4.78C10.15 4.76 10.2 4.69 10.2 4.6C10.2 4.49 10.15 4.43 10.06 4.41C9.24 4.28 8.52 3.91 7.92 3.31C7.32 2.7 6.94 1.97 6.77 1.12C6.74 1.03 6.69 0.97 6.59 0.97C6.5 0.97 6.44 1.03 6.41 1.12Z" fill="#000000" fill-opacity="1.000000" fill-rule="nonzero"/>
	</g>
</svg>
