<svg width="24.000000" height="24.000000" viewBox="0 0 24 24" fill="none" xmlns="http://www.w3.org/2000/svg" xmlns:xlink="http://www.w3.org/1999/xlink">
	<desc>
			Created with Pixso.
	</desc>
	<defs>
		<clipPath id="clip83_8640">
			<rect id="ic_public_file_filled" width="24.000000" height="24.000000" fill="white" fill-opacity="0"/>
		</clipPath>
	</defs>
	<g clip-path="url(#clip83_8640)">
		<path id="path-1" d="M14.76 0.99L21 7.23L21 19C21 21.2 19.2 23 17 23L7 23C4.79 23 3 21.2 3 19L3 5C3 2.79 4.79 1 7 1L14.76 0.99ZM16.5 14.75L7.5 14.75C7.08 14.75 6.75 15.08 6.75 15.5C6.75 15.91 7.08 16.25 7.5 16.25L16.5 16.25C16.91 16.25 17.25 15.91 17.25 15.5C17.25 15.08 16.91 14.75 16.5 14.75ZM11.5 10.5L7.5 10.5C7.08 10.5 6.75 10.83 6.75 11.25C6.75 11.66 7.08 12 7.5 12L11.5 12C11.91 12 12.25 11.66 12.25 11.25C12.25 10.83 11.91 10.5 11.5 10.5ZM13.75 2.5L13.75 5.5C13.75 6.88 14.86 8 16.25 8L19.25 8L13.75 2.5Z" fill="#64BB5C" fill-opacity="1.000000" fill-rule="nonzero"/>
		<path id="path-1" d="M21 7.23L21 19C21 21.2 19.2 23 17 23L7 23C4.79 23 3 21.2 3 19L3 5C3 2.79 4.79 1 7 1L14.76 0.99L21 7.23ZM7.5 14.75C7.08 14.75 6.75 15.08 6.75 15.5C6.75 15.91 7.08 16.25 7.5 16.25L16.5 16.25C16.91 16.25 17.25 15.91 17.25 15.5C17.25 15.08 16.91 14.75 16.5 14.75L7.5 14.75ZM7.5 10.5C7.08 10.5 6.75 10.83 6.75 11.25C6.75 11.66 7.08 12 7.5 12L11.5 12C11.91 12 12.25 11.66 12.25 11.25C12.25 10.83 11.91 10.5 11.5 10.5L7.5 10.5ZM13.75 5.5C13.75 6.88 14.86 8 16.25 8L19.25 8L13.75 2.5L13.75 5.5Z" stroke="#000000" stroke-opacity="0" stroke-width="1.000000"/>
	</g>
</svg>
