<svg width="24.001709" height="24.000000" viewBox="0 0 24.0017 24" fill="none" xmlns="http://www.w3.org/2000/svg" xmlns:xlink="http://www.w3.org/1999/xlink">
	<desc>
			Created with Pixso.
	</desc>
	<defs/>
	<path id="path1" d="M0.75 11.99C0.75 10.23 0.74 8.47 0.75 6.71C0.74 5.86 0.85 5.02 1.06 4.19C1.52 2.45 2.66 1.41 4.4 1.01C5.27 0.82 6.16 0.73 7.06 0.75C10.43 0.75 13.8 0.75 17.17 0.75C18.02 0.74 18.87 0.84 19.7 1.04C21.49 1.48 22.57 2.61 22.98 4.4C23.17 5.25 23.25 6.11 23.24 6.98C23.24 10.38 23.24 13.79 23.24 17.2C23.25 18.04 23.15 18.88 22.96 19.7C22.52 21.5 21.37 22.57 19.58 22.98C18.71 23.17 17.82 23.26 16.92 23.24C13.57 23.24 10.21 23.24 6.86 23.24C6 23.25 5.14 23.15 4.31 22.96C2.5 22.52 1.42 21.38 1.01 19.58C0.8 18.66 0.75 17.75 0.75 16.82C0.75 15.21 0.75 13.6 0.75 11.99Z" fill="#FFFFFF" fill-opacity="0" fill-rule="nonzero"/>
	<path id="path1" d="M0.75 6.71C0.74 5.86 0.85 5.02 1.06 4.19C1.52 2.45 2.66 1.41 4.4 1.01C5.27 0.82 6.16 0.73 7.06 0.75C10.43 0.75 13.8 0.75 17.17 0.75C18.02 0.74 18.87 0.84 19.7 1.04C21.49 1.48 22.57 2.61 22.98 4.4C23.17 5.25 23.25 6.11 23.24 6.98C23.24 10.38 23.24 13.79 23.24 17.2C23.25 18.04 23.15 18.88 22.96 19.7C22.52 21.5 21.37 22.57 19.58 22.98C18.71 23.17 17.82 23.26 16.92 23.24C13.57 23.24 10.21 23.24 6.86 23.24C6 23.25 5.14 23.15 4.31 22.96C2.5 22.52 1.42 21.38 1.01 19.58C0.8 18.66 0.75 17.75 0.75 16.82C0.75 15.21 0.75 13.6 0.75 11.99C0.75 10.23 0.74 8.47 0.75 6.71Z" stroke="#FFFFFF" stroke-opacity="0" stroke-width="1.500000"/>
	<g opacity="0.200000">
		<path id="path2" d="M0.75 11.99C0.75 10.23 0.74 8.47 0.75 6.71C0.74 5.86 0.85 5.02 1.06 4.19C1.52 2.45 2.66 1.41 4.4 1.01C5.27 0.82 6.16 0.73 7.06 0.75C10.43 0.75 13.8 0.75 17.17 0.75C18.02 0.74 18.87 0.84 19.7 1.04C21.49 1.48 22.57 2.61 22.98 4.4C23.17 5.25 23.25 6.11 23.24 6.98C23.24 10.38 23.24 13.79 23.24 17.2C23.25 18.04 23.15 18.88 22.96 19.7C22.52 21.5 21.37 22.57 19.58 22.98C18.71 23.17 17.82 23.26 16.92 23.24C13.57 23.24 10.21 23.24 6.86 23.24C6 23.25 5.14 23.15 4.31 22.96C2.5 22.52 1.42 21.38 1.01 19.58C0.8 18.66 0.75 17.75 0.75 16.82C0.75 15.21 0.75 13.6 0.75 11.99Z" fill="#000000" fill-opacity="0" fill-rule="nonzero"/>
		<path id="path2" d="M0.75 6.71C0.74 5.86 0.85 5.02 1.06 4.19C1.52 2.45 2.66 1.41 4.4 1.01C5.27 0.82 6.16 0.73 7.06 0.75C10.43 0.75 13.8 0.75 17.17 0.75C18.02 0.74 18.87 0.84 19.7 1.04C21.49 1.48 22.57 2.61 22.98 4.4C23.17 5.25 23.25 6.11 23.24 6.98C23.24 10.38 23.24 13.79 23.24 17.2C23.25 18.04 23.15 18.88 22.96 19.7C22.52 21.5 21.37 22.57 19.58 22.98C18.71 23.17 17.82 23.26 16.92 23.24C13.57 23.24 10.21 23.24 6.86 23.24C6 23.25 5.14 23.15 4.31 22.96C2.5 22.52 1.42 21.38 1.01 19.58C0.8 18.66 0.75 17.75 0.75 16.82C0.75 15.21 0.75 13.6 0.75 11.99C0.75 10.23 0.74 8.47 0.75 6.71Z" stroke="#FFFFFF" stroke-opacity="0" stroke-width="1.500000"/>
	</g>
	<circle id="path3" cx="12.000000" cy="12.000000" r="12.000000" fill="#FFFFFF" fill-opacity="0"/>
	<circle id="path3" cx="12.000000" cy="12.000000" r="12.000000" stroke="#000000" stroke-opacity="0" stroke-width="1.500000"/>
	<path id="减去顶层" d="M23.9143 5.19116C23.9722 5.45435 24.0012 5.72412 24.0012 6L24.0015 8.96802C24.0015 9.10181 23.968 9.22681 23.9011 9.34277C23.8342 9.45874 23.7429 9.55029 23.627 9.61719C23.418 9.73828 23.2302 9.88086 23.0642 10.0454C22.8979 10.2104 22.7532 10.3972 22.6301 10.606C22.5103 10.8091 22.4189 11.0203 22.356 11.2397L22.356 11.24L22.356 11.24C22.2861 11.4834 22.2512 11.7366 22.2512 12C22.2512 12.2634 22.2861 12.5166 22.356 12.76C22.4189 12.9795 22.5103 13.1909 22.6301 13.394C22.7532 13.6028 22.8979 13.7896 23.0645 13.9546C23.2302 14.1191 23.418 14.2617 23.627 14.3826C23.7429 14.4497 23.8342 14.5413 23.9011 14.6572C23.968 14.7732 24.0015 14.8982 24.0015 15.032L24.0012 18C24.0012 18.2756 23.9724 18.5449 23.9146 18.8079C23.8657 19.0298 23.7961 19.2471 23.7063 19.46C23.616 19.6731 23.5083 19.8748 23.3828 20.0647L23.3828 20.0649C23.2441 20.2747 23.0842 20.4702 22.9028 20.6516C22.7214 20.833 22.5259 20.9929 22.3162 21.1316L22.3159 21.1316C22.126 21.2571 21.9243 21.3647 21.7112 21.4551C21.4985 21.5449 21.2815 21.6143 21.0601 21.6631C20.7969 21.7209 20.5271 21.75 20.2512 21.75L3.75122 21.75C3.47534 21.75 3.20557 21.7209 2.94238 21.6631L2.94238 21.6631C2.72095 21.6143 2.50391 21.5449 2.29126 21.4551C2.07812 21.3647 1.87646 21.2571 1.68628 21.1316L1.68628 21.1316C1.47656 20.9929 1.28101 20.833 1.09961 20.6516C0.918213 20.4702 0.758301 20.2747 0.619629 20.0649C0.494141 19.8748 0.386475 19.6731 0.296143 19.46C0.206299 19.2473 0.136963 19.0303 0.0881348 18.8088C0.0302734 18.5457 0.0012207 18.2759 0.0012207 18L0.0012207 15.0317C0.00146484 14.8977 0.034668 14.7729 0.101562 14.657C0.168457 14.541 0.26001 14.4495 0.375732 14.3826C0.584961 14.2615 0.772461 14.1189 0.938232 13.9543C1.10474 13.7893 1.24951 13.6025 1.37256 13.3938C1.49219 13.1907 1.5835 12.9792 1.64648 12.7598C1.71631 12.5166 1.75122 12.2632 1.75122 12C1.75122 11.7368 1.71631 11.4834 1.64648 11.2402C1.5835 11.0208 1.49219 10.8093 1.37256 10.6062C1.24951 10.3975 1.10474 10.2107 0.938232 10.0457L0.938232 10.0457L0.938232 10.0457C0.772461 9.8811 0.584961 9.73853 0.375732 9.61743C0.317871 9.58398 0.266113 9.54443 0.220459 9.49854C0.174561 9.45288 0.13501 9.40112 0.101562 9.34302C0.0681152 9.28516 0.0432129 9.22485 0.0263672 9.16235L0.0263672 9.16235L0.0263672 9.16235L0.0263672 9.16235L0.0263672 9.16235C0.00976562 9.09985 0.00146484 9.03516 0.0012207 8.96826L0.0012207 6C0.0012207 5.72388 0.0302734 5.45435 0.0881348 5.19092C0.136963 4.96948 0.206299 4.75244 0.296143 4.54004C0.386475 4.3269 0.494385 4.12524 0.619629 3.93506L0.619629 3.93506C0.758301 3.72534 0.918213 3.52979 1.09961 3.34839C1.28101 3.16699 1.47656 3.00708 1.68628 2.86841C1.87646 2.74316 2.07812 2.63525 2.29126 2.54492C2.50391 2.45508 2.72095 2.38574 2.94238 2.33691L2.94263 2.33691C3.20581 2.27905 3.47534 2.25 3.75122 2.25L20.2512 2.25C20.5271 2.25 20.7969 2.27905 21.0601 2.33691C21.2815 2.38574 21.4985 2.45508 21.7112 2.54492C21.9243 2.63525 22.126 2.74292 22.3162 2.86841C22.5259 3.00708 22.7214 3.16699 22.9028 3.34839C23.0842 3.52979 23.2441 3.72534 23.3828 3.93506C23.5081 4.12524 23.616 4.3269 23.7063 4.54004C23.7959 4.75195 23.865 4.96851 23.9138 5.18945L23.9143 5.19116ZM12 7.25C12.4199 7.25 12.75 7.58008 12.75 8L12.75 16C12.75 16.4199 12.4199 16.75 12 16.75C11.5798 16.75 11.25 16.4199 11.25 16L11.25 8C11.25 7.58008 11.5798 7.25 12 7.25Z" clip-rule="evenodd" fill="#64BB5C" fill-opacity="1.000000" fill-rule="evenodd"/>
</svg>
