<svg width="24.000000" height="24.000000" viewBox="0 0 24 24" fill="none" xmlns="http://www.w3.org/2000/svg" xmlns:xlink="http://www.w3.org/1999/xlink">
	<desc>
			Created with Pixso.
	</desc>
	<defs>
		<clipPath id="clip32_3268">
			<rect id="ic_bpit_ticket_border (1)" width="24.000000" height="24.000000" fill="white" fill-opacity="0"/>
		</clipPath>
	</defs>
	<g clip-path="url(#clip32_3268)">
		<path id="path1" d="M0.75 11.99C0.75 10.23 0.74 8.47 0.75 6.71C0.74 5.86 0.85 5.02 1.06 4.19C1.52 2.45 2.66 1.41 4.4 1.01C5.27 0.82 6.16 0.73 7.06 0.75C10.43 0.75 13.8 0.75 17.17 0.75C18.02 0.74 18.87 0.84 19.7 1.04C21.49 1.48 22.57 2.61 22.98 4.4C23.17 5.25 23.25 6.11 23.24 6.98C23.24 10.38 23.24 13.79 23.24 17.2C23.25 18.04 23.15 18.88 22.96 19.7C22.52 21.5 21.37 22.57 19.58 22.98C18.71 23.17 17.82 23.26 16.92 23.24C13.57 23.24 10.21 23.24 6.86 23.24C6 23.25 5.14 23.15 4.31 22.96C2.5 22.52 1.42 21.38 1.01 19.58C0.8 18.66 0.75 17.75 0.75 16.82C0.75 15.21 0.75 13.6 0.75 11.99Z" fill="#FFFFFF" fill-opacity="0" fill-rule="nonzero"/>
		<path id="path1" d="M0.75 6.71C0.74 5.86 0.85 5.02 1.06 4.19C1.52 2.45 2.66 1.41 4.4 1.01C5.27 0.82 6.16 0.73 7.06 0.75C10.43 0.75 13.8 0.75 17.17 0.75C18.02 0.74 18.87 0.84 19.7 1.04C21.49 1.48 22.57 2.61 22.98 4.4C23.17 5.25 23.25 6.11 23.24 6.98C23.24 10.38 23.24 13.79 23.24 17.2C23.25 18.04 23.15 18.88 22.96 19.7C22.52 21.5 21.37 22.57 19.58 22.98C18.71 23.17 17.82 23.26 16.92 23.24C13.57 23.24 10.21 23.24 6.86 23.24C6 23.25 5.14 23.15 4.31 22.96C2.5 22.52 1.42 21.38 1.01 19.58C0.8 18.66 0.75 17.75 0.75 16.82C0.75 15.21 0.75 13.6 0.75 11.99C0.75 10.23 0.74 8.47 0.75 6.71Z" stroke="#FFFFFF" stroke-opacity="0" stroke-width="1.500000"/>
		<g opacity="0.200000">
			<path id="path2" d="M0.75 11.99C0.75 10.23 0.74 8.47 0.75 6.71C0.74 5.86 0.85 5.02 1.06 4.19C1.52 2.45 2.66 1.41 4.4 1.01C5.27 0.82 6.16 0.73 7.06 0.75C10.43 0.75 13.8 0.75 17.17 0.75C18.02 0.74 18.87 0.84 19.7 1.04C21.49 1.48 22.57 2.61 22.98 4.4C23.17 5.25 23.25 6.11 23.24 6.98C23.24 10.38 23.24 13.79 23.24 17.2C23.25 18.04 23.15 18.88 22.96 19.7C22.52 21.5 21.37 22.57 19.58 22.98C18.71 23.17 17.82 23.26 16.92 23.24C13.57 23.24 10.21 23.24 6.86 23.24C6 23.25 5.14 23.15 4.31 22.96C2.5 22.52 1.42 21.38 1.01 19.58C0.8 18.66 0.75 17.75 0.75 16.82C0.75 15.21 0.75 13.6 0.75 11.99Z" fill="#000000" fill-opacity="0" fill-rule="nonzero"/>
			<path id="path2" d="M0.75 6.71C0.74 5.86 0.85 5.02 1.06 4.19C1.52 2.45 2.66 1.41 4.4 1.01C5.27 0.82 6.16 0.73 7.06 0.75C10.43 0.75 13.8 0.75 17.17 0.75C18.02 0.74 18.87 0.84 19.7 1.04C21.49 1.48 22.57 2.61 22.98 4.4C23.17 5.25 23.25 6.11 23.24 6.98C23.24 10.38 23.24 13.79 23.24 17.2C23.25 18.04 23.15 18.88 22.96 19.7C22.52 21.5 21.37 22.57 19.58 22.98C18.71 23.17 17.82 23.26 16.92 23.24C13.57 23.24 10.21 23.24 6.86 23.24C6 23.25 5.14 23.15 4.31 22.96C2.5 22.52 1.42 21.38 1.01 19.58C0.8 18.66 0.75 17.75 0.75 16.82C0.75 15.21 0.75 13.6 0.75 11.99C0.75 10.23 0.74 8.47 0.75 6.71Z" stroke="#FFFFFF" stroke-opacity="0" stroke-width="1.500000"/>
		</g>
		<circle id="path3" cx="12.000000" cy="12.000000" r="12.000000" fill="#FFFFFF" fill-opacity="0"/>
		<circle id="path3" cx="12.000000" cy="12.000000" r="12.000000" stroke="#000000" stroke-opacity="0" stroke-width="1.500000"/>
		<path id="合并" d="M24 6C24 5.72412 23.971 5.45435 23.913 5.19116C23.8642 4.96973 23.7949 4.75269 23.705 4.54004C23.6148 4.3269 23.507 4.12524 23.3815 3.93506C23.243 3.72534 23.0831 3.52979 22.9016 3.34839C22.7202 3.16699 22.5246 3.00708 22.3148 2.86841C22.1248 2.74292 21.9232 2.63525 21.7099 2.54492C21.4974 2.45508 21.2803 2.38574 21.0587 2.33691C20.7955 2.27905 20.526 2.25 20.25 2.25L3.75 2.25C3.47406 2.25 3.20447 2.27905 2.94128 2.33691L2.94125 2.33691C2.7197 2.38574 2.50262 2.45508 2.2901 2.54492C2.07681 2.63525 1.87515 2.74316 1.68512 2.86841C1.47537 3.00708 1.27975 3.16699 1.09836 3.34839C0.916931 3.52979 0.756989 3.72534 0.6185 3.93506L0.6185 3.93506C0.493042 4.12524 0.385223 4.3269 0.295013 4.54004C0.20517 4.75244 0.135834 4.96948 0.0870361 5.19092C0.0290222 5.45435 0 5.72388 0 6L0.00012207 8.96826C0.00012207 9.03516 0.00848389 9.09985 0.0252075 9.16235L0.0252075 9.16235L0.0252075 9.16235C0.0419312 9.22485 0.0670166 9.28516 0.100433 9.34302C0.133881 9.40112 0.173431 9.45288 0.219116 9.49854C0.264801 9.54443 0.31662 9.58398 0.374542 9.61743C0.583618 9.73853 0.771149 9.8811 0.937073 10.0457L0.937103 10.0457C1.10349 10.2107 1.2482 10.3975 1.37122 10.6062C1.491 10.8093 1.58237 11.0208 1.64532 11.2402C1.71512 11.4834 1.75 11.7368 1.75 12C1.75 12.2632 1.71512 12.5166 1.64532 12.7598C1.58234 12.9792 1.491 13.1907 1.37122 13.3938C1.2482 13.6025 1.10352 13.7893 0.937103 13.9543C0.771149 14.1189 0.583649 14.2615 0.374542 14.3826C0.258698 14.4495 0.167328 14.541 0.100433 14.657C0.0335693 14.7729 0.00012207 14.8977 0.00012207 15.0317L0 18C0 18.2759 0.0289917 18.5457 0.0869446 18.8088C0.135773 19.0303 0.205109 19.2473 0.295013 19.46C0.385223 19.6731 0.493042 19.8748 0.6185 20.0649C0.756958 20.2747 0.916931 20.4702 1.09836 20.6516C1.27975 20.833 1.47534 20.9929 1.68509 21.1316L1.68515 21.1316C1.87515 21.2571 2.07681 21.3647 2.2901 21.4551C2.50259 21.5449 2.7196 21.6143 2.94116 21.6631L2.94119 21.6631C3.20441 21.7209 3.474 21.75 3.75 21.75L20.25 21.75C20.526 21.75 20.7956 21.7209 21.0588 21.6631C21.2803 21.6143 21.4974 21.5449 21.7099 21.4551C21.9232 21.3647 22.1248 21.2571 22.3148 21.1316C22.5246 20.9929 22.7202 20.833 22.9016 20.6516C23.0831 20.4702 23.243 20.2747 23.3815 20.0649C23.507 19.8748 23.6148 19.6731 23.705 19.46C23.795 19.2471 23.8644 19.0298 23.9132 18.8079C23.9711 18.5449 24 18.2756 24 18L24.0003 15.032C24.0003 14.8982 23.9669 14.7732 23.9 14.6572C23.8331 14.5413 23.7417 14.4497 23.6258 14.3826C23.4167 14.2617 23.2291 14.1191 23.0631 13.9546C22.8967 13.7896 22.7519 13.6028 22.6289 13.394C22.5091 13.1909 22.4177 12.9795 22.3547 12.76C22.2849 12.5166 22.25 12.2634 22.25 12C22.25 11.7366 22.2849 11.4834 22.3547 11.24C22.4177 11.0205 22.5091 10.8091 22.6289 10.606C22.7519 10.3972 22.8967 10.2104 23.0631 10.0454C23.2291 9.88086 23.4166 9.73828 23.6258 9.61719C23.7417 9.55029 23.8331 9.45874 23.9 9.34277C23.9669 9.22681 24.0003 9.10181 24.0003 8.96802L24 6ZM22.4424 5.4895C22.4808 5.65527 22.5 5.82544 22.5 6L22.5002 8.5625C22.3456 8.67871 22.146 8.84473 22.0072 8.98242C21.8689 9.11963 21.7411 9.26489 21.6237 9.41821C21.5198 9.55396 21.4241 9.6958 21.3367 9.84424C21.1476 10.165 21.0043 10.4985 20.9066 10.845C20.8022 11.2153 20.75 11.6003 20.75 12C20.75 12.3997 20.8022 12.7847 20.9066 13.155C21.0043 13.5015 21.1476 13.835 21.3367 14.1558C21.4241 14.3042 21.5199 14.4463 21.6238 14.582C21.7411 14.7351 21.8689 14.8804 22.0072 15.0176C22.1459 15.1553 22.2926 15.282 22.4473 15.3984L22.5 18C22.5 18.1748 22.4807 18.3455 22.4421 18.5112C22.4133 18.6353 22.3738 18.7566 22.3235 18.8755C22.2713 18.999 22.2092 19.116 22.1372 19.2266C22.0522 19.3569 21.9535 19.4785 21.841 19.5911C21.7285 19.7034 21.607 19.8022 21.4766 19.8872L21.4762 19.8875L21.4761 19.8875C21.3656 19.9595 21.2488 20.0215 21.1256 20.0735C21.0064 20.124 20.8847 20.1636 20.7604 20.1924C20.5948 20.2307 20.4246 20.25 20.25 20.25L3.75 20.25C3.57538 20.25 3.40524 20.2307 3.23956 20.1924C3.11533 20.1636 2.99362 20.124 2.87442 20.0735C2.75095 20.0212 2.63391 19.9592 2.52335 19.8872C2.39291 19.8022 2.27148 19.7034 2.159 19.5911C2.04654 19.4785 1.94785 19.3572 1.86288 19.2266L1.86288 19.2266C1.79086 19.116 1.72873 18.999 1.67651 18.8755C1.6261 18.7563 1.58649 18.6348 1.55765 18.5105C1.51923 18.3447 1.5 18.1746 1.5 18L1.50009 15.4373C1.65472 15.321 1.8544 15.1548 1.99304 15.0173C2.13123 14.8801 2.25894 14.7351 2.37616 14.582C2.48016 14.4463 2.57593 14.304 2.66345 14.1555C2.85248 13.835 2.99579 13.5012 3.09344 13.155C3.19781 12.7847 3.25 12.3997 3.25 12C3.25 11.6003 3.19781 11.2153 3.09344 10.8452L3.09344 10.845L3.09341 10.845C2.99579 10.4985 2.85245 10.165 2.66345 9.84448C2.57599 9.69604 2.48026 9.55396 2.37631 9.41821L2.37625 9.41821C2.259 9.26489 2.13129 9.11987 1.99304 8.98267C1.85437 8.84521 1.7077 8.71826 1.55307 8.60181L1.5 6C1.5 5.82544 1.5192 5.65552 1.55759 5.48999C1.5864 5.36548 1.62604 5.24365 1.67651 5.12451C1.72873 5.00098 1.79086 4.88379 1.86292 4.77319C1.94785 4.64282 2.04654 4.52148 2.159 4.40894C2.27148 4.29663 2.39291 4.19775 2.52332 4.11279C2.63391 4.04077 2.75095 3.97876 2.87442 3.92651C2.99362 3.87598 3.11536 3.83643 3.23956 3.80762C3.40524 3.76929 3.57541 3.75 3.75 3.75L20.25 3.75C20.4246 3.75 20.5948 3.76929 20.7604 3.80762C20.8847 3.83643 21.0064 3.87598 21.1256 3.92651C21.249 3.97876 21.366 4.04077 21.4766 4.11279C21.607 4.19775 21.7285 4.29663 21.841 4.40894C21.9535 4.52148 22.0522 4.64282 22.1371 4.77319C22.2091 4.88379 22.2713 5.00098 22.3235 5.12451C22.3739 5.24365 22.4135 5.36523 22.4424 5.4895ZM12 7.25C12.42 7.25 12.75 7.58008 12.75 8L12.75 16C12.75 16.4199 12.42 16.75 12 16.75C11.58 16.75 11.25 16.4199 11.25 16L11.25 8C11.25 7.58008 11.58 7.25 12 7.25Z" clip-rule="evenodd" fill="#000000" fill-opacity="1.000000" fill-rule="evenodd"/>
	</g>
</svg>
