<svg width="20.000000" height="20.000000" viewBox="0 0 20 20" fill="none" xmlns="http://www.w3.org/2000/svg">
	<desc>
			Created with Pixso.
	</desc>
	<defs>
		<clipPath id="clip1_217">
			<rect width="20.000000" height="20.000000" fill="white" fill-opacity="0"/>
		</clipPath>
	</defs>
	<g clip-path="url(#clip1_217)">
		<path d="M17.73 13.5L17.48 13.18L17.47 13.17C17.39 13.09 17.17 12.86 16.79 12.54C16.34 12.15 15.55 11.58 15.48 11.54L14.37 10.87C14.16 10.77 13.95 10.74 13.8 10.74C13.64 10.74 13.49 10.77 13.35 10.82C12.87 10.99 12.42 11.75 12.29 11.98C12.23 12.08 12.17 12.21 12.11 12.32L12.1 12.36C12.03 12.49 11.95 12.64 11.87 12.79C11.79 12.93 11.62 13.08 11.45 13.08C11.4 13.08 11.35 13.07 11.3 13.04C10.55 12.61 9.67 12.05 8.76 11.18C7.74 10.2 7.14 9.43 6.81 8.67C6.78 8.62 6.79 8.38 6.92 8.32C7.1 8.22 7.25 8.16 7.38 8.11L7.41 8.1C7.6 8.02 7.78 7.95 7.99 7.82C8.08 7.77 8.12 7.74 8.16 7.72L8.18 7.71C8.26 7.67 8.33 7.63 8.54 7.48C8.55 7.48 8.59 7.45 8.63 7.41L8.76 7.29C9.12 6.95 9.24 6.44 9.06 6L9 5.83C9 5.82 8.77 5.3 8.41 4.67C8.24 4.37 7.97 3.97 7.73 3.65C7.1 2.79 6.51 2.52 6.5 2.52C6.5 2.51 6.34 2.43 6.25 2.39C5.86 2.22 5.43 2.23 5.04 2.4C4.46 2.62 4.11 2.91 3.73 3.23L3.65 3.3C2.52 4.24 1.91 5.46 2.06 6.5C2.27 8.06 4.08 11.25 6.42 13.5C8.76 15.76 12.06 17.49 13.67 17.7C13.79 17.71 13.92 17.72 14.04 17.72C15.2 17.72 16.11 17.01 16.77 16.39C17.1 16.09 17.54 15.58 17.77 15.07C17.97 14.63 18.07 13.99 17.73 13.5ZM5.72 9.14C6.12 10.05 6.81 10.95 7.94 12.04C8.93 12.99 9.9 13.6 10.71 14.07C10.94 14.2 11.19 14.27 11.45 14.27C12.11 14.27 12.66 13.82 12.91 13.37C13 13.19 13.09 13.03 13.18 12.85L13.21 12.77C13.26 12.69 13.29 12.61 13.33 12.54C13.52 12.21 13.7 12 13.77 11.93C13.79 11.93 13.82 11.93 13.84 11.93L14.83 12.53L14.85 12.54C15.09 12.71 15.69 13.15 16.02 13.43C16.31 13.68 16.5 13.87 16.56 13.93C16.57 13.94 16.58 13.95 16.58 13.95L16.76 14.18C16.78 14.23 16.76 14.42 16.69 14.58C16.53 14.93 16.2 15.31 15.96 15.53C15.21 16.24 14.64 16.54 14.06 16.54C13.98 16.54 13.9 16.53 13.82 16.52C12.59 16.37 9.49 14.82 7.24 12.65C5 10.49 3.4 7.51 3.23 6.33C3.15 5.71 3.61 4.88 4.4 4.21L4.49 4.14C4.84 3.85 5.07 3.66 5.49 3.5C5.56 3.47 5.62 3.45 5.67 3.45C5.7 3.45 5.74 3.46 5.77 3.47C5.81 3.49 5.88 3.53 5.93 3.55L5.96 3.57C5.97 3.57 6.35 3.77 6.78 4.36C7 4.65 7.23 5.01 7.39 5.27C7.55 5.56 7.72 5.88 7.88 6.22C7.89 6.23 7.89 6.24 7.9 6.25L7.95 6.41C7.95 6.42 7.95 6.42 7.95 6.42C7.95 6.42 7.95 6.43 7.93 6.44L7.9 6.48C7.88 6.49 7.87 6.51 7.86 6.52C7.71 6.61 7.66 6.64 7.6 6.67C7.55 6.7 7.49 6.74 7.36 6.82C7.25 6.89 7.13 6.94 6.96 7C6.8 7.07 6.62 7.14 6.39 7.25C5.6 7.65 5.49 8.62 5.72 9.14Z" fill="#666666" fill-opacity="1.000000" fill-rule="nonzero"/>
	</g>
</svg>
