<svg width="40.000000" height="40.000000" viewBox="0 0 40 40" fill="none" xmlns="http://www.w3.org/2000/svg" xmlns:xlink="http://www.w3.org/1999/xlink">
	<desc>
			Created with Pixso.
	</desc>
	<defs>
		<clipPath id="clip21_2234">
			<rect width="40.000000" height="40.000000" fill="white" fill-opacity="0"/>
		</clipPath>
	</defs>
	<g clip-path="url(#clip21_2234)">
		<circle cx="20.000000" cy="20.000000" r="20.000000" fill="#E84026" fill-opacity="1.000000"/>
		<circle cx="20.000000" cy="20.000000" r="20.000000" stroke="#000000" stroke-opacity="0" stroke-width="1.000000"/>
		<rect width="20.000000" height="20.000000" transform="translate(10.000000 10.000000)" fill="#FFFFFF" fill-opacity="0"/>
		<path d="M20.58 18.75L20.58 10.89C20.58 10.83 20.57 10.77 20.56 10.71C20.54 10.65 20.53 10.59 20.5 10.54C20.48 10.49 20.46 10.44 20.43 10.4C20.39 10.35 20.35 10.3 20.3 10.25C20.26 10.21 20.22 10.18 20.17 10.15C20.12 10.12 20.07 10.09 20.01 10.06C19.96 10.04 19.91 10.03 19.86 10.02C19.79 10 19.73 10 19.66 10C19.59 10 19.53 10 19.46 10.02C19.41 10.03 19.36 10.04 19.31 10.06C19.25 10.09 19.2 10.12 19.15 10.15C19.1 10.18 19.06 10.21 19.02 10.25C18.97 10.3 18.93 10.35 18.89 10.4C18.86 10.44 18.84 10.49 18.82 10.54C18.79 10.59 18.78 10.65 18.76 10.71C18.75 10.77 18.74 10.83 18.74 10.89L18.74 18.75L10.89 18.75C10.83 18.75 10.77 18.75 10.71 18.76C10.65 18.78 10.59 18.8 10.54 18.82C10.49 18.84 10.44 18.87 10.4 18.89C10.35 18.93 10.3 18.97 10.25 19.02C10.21 19.06 10.18 19.1 10.15 19.15C10.12 19.2 10.09 19.25 10.06 19.31C10.04 19.36 10.03 19.41 10.02 19.47C10 19.53 10 19.6 10 19.66C10 19.73 10 19.79 10.02 19.86C10.03 19.91 10.04 19.96 10.06 20.01C10.09 20.07 10.12 20.12 10.15 20.18C10.18 20.22 10.21 20.26 10.25 20.3C10.3 20.35 10.35 20.39 10.4 20.43C10.44 20.46 10.49 20.48 10.54 20.5C10.59 20.53 10.65 20.55 10.71 20.56C10.77 20.57 10.83 20.58 10.89 20.58L18.74 20.58L18.74 28.43C18.74 28.49 18.75 28.55 18.76 28.61C18.78 28.67 18.79 28.73 18.82 28.79C18.84 28.83 18.86 28.88 18.89 28.92C18.93 28.98 18.97 29.03 19.02 29.07C19.06 29.11 19.1 29.14 19.15 29.17C19.2 29.21 19.25 29.24 19.31 29.26C19.36 29.28 19.41 29.3 19.46 29.31C19.53 29.32 19.59 29.33 19.66 29.33C19.73 29.33 19.79 29.32 19.86 29.31C19.91 29.3 19.96 29.28 20.01 29.26C20.07 29.24 20.12 29.21 20.17 29.17C20.22 29.14 20.26 29.11 20.3 29.07C20.35 29.03 20.39 28.98 20.43 28.92C20.46 28.88 20.48 28.83 20.5 28.79C20.53 28.73 20.54 28.67 20.56 28.61C20.57 28.55 20.58 28.49 20.58 28.43L20.58 20.58L28.43 20.58C28.49 20.58 28.55 20.57 28.61 20.56C28.67 20.55 28.73 20.53 28.78 20.5C28.83 20.48 28.88 20.46 28.92 20.43C28.97 20.39 29.02 20.35 29.07 20.3C29.11 20.26 29.14 20.22 29.17 20.18C29.2 20.12 29.23 20.07 29.26 20.01C29.28 19.96 29.29 19.91 29.3 19.86C29.32 19.79 29.33 19.73 29.33 19.66C29.33 19.6 29.32 19.53 29.3 19.47C29.29 19.41 29.28 19.36 29.26 19.31C29.23 19.25 29.2 19.2 29.17 19.15C29.14 19.1 29.11 19.06 29.07 19.02C29.02 18.97 28.97 18.93 28.92 18.89C28.88 18.87 28.83 18.84 28.78 18.82C28.73 18.8 28.67 18.78 28.61 18.76C28.55 18.75 28.49 18.75 28.43 18.75L20.58 18.75Z" fill="#FFFFFF" fill-opacity="1.000000" fill-rule="evenodd"/>
	</g>
</svg>
