<svg width="16.000000" height="16.000000" viewBox="0 0 16 16" fill="none" xmlns="http://www.w3.org/2000/svg" xmlns:xlink="http://www.w3.org/1999/xlink">
	<desc>
			Created with Pixso.
	</desc>
	<defs>
		<clipPath id="clip21_2131">
			<rect width="16.000000" height="16.000000" fill="white" fill-opacity="0"/>
		</clipPath>
	</defs>
	<g clip-path="url(#clip21_2131)">
		<circle cx="8.000000" cy="8.000000" r="8.000000" fill="#F3F3F3" fill-opacity="1.000000"/>
		<circle cx="8.000000" cy="8.000000" r="8.000000" stroke="#000000" stroke-opacity="0" stroke-width="0.500000"/>
		<path d="M8.16 4.49L8.16 7.83L11.5 7.83C11.59 7.83 11.66 7.9 11.66 8C11.66 8.09 11.59 8.16 11.5 8.16L8.16 8.16L8.16 11.5C8.16 11.59 8.09 11.66 8 11.66C7.9 11.66 7.83 11.59 7.83 11.5L7.83 8.16L4.49 8.16C4.4 8.16 4.33 8.09 4.33 8C4.33 7.9 4.4 7.83 4.49 7.83L7.83 7.83L7.83 4.49C7.83 4.4 7.9 4.33 8 4.33C8.09 4.33 8.16 4.4 8.16 4.49Z" stroke="#E84026" stroke-opacity="1.000000" stroke-width="0.500000"/>
	</g>
</svg>
