<svg width="40.000000" height="40.000000" viewBox="0 0 40 40" fill="none" xmlns="http://www.w3.org/2000/svg" xmlns:xlink="http://www.w3.org/1999/xlink">
	<desc>
			Created with Pixso.
	</desc>
	<defs>
		<clipPath id="clip11_849">
			<rect rx="20.000000" width="40.000000" height="40.000000" fill="white" fill-opacity="0"/>
		</clipPath>
		<linearGradient x1="20.000000" y1="11.250000" x2="20.000000" y2="21.250000" id="paint_linear_11_850_0" gradientUnits="userSpaceOnUse">
			<stop offset="0.620536" stop-color="#FFFFFF"/>
			<stop offset="1.000000" stop-color="#FFA2A2"/>
		</linearGradient>
		<linearGradient x1="20.039062" y1="21.250000" x2="20.039062" y2="30.000000" id="paint_linear_11_851_0" gradientUnits="userSpaceOnUse">
			<stop stop-color="#FFE1E1"/>
			<stop offset="1.000000" stop-color="#FFFFFF"/>
		</linearGradient>
		<radialGradient gradientTransform="translate(20 11.875) rotate(180) scale(2.5 3.33333)" cx="0.000000" cy="0.000000" r="1.000000" id="paint_radial_11_857_0" gradientUnits="userSpaceOnUse">
			<stop stop-color="#FFFFFF"/>
			<stop offset="1.000000" stop-color="#FFE8E8"/>
		</radialGradient>
	</defs>
	<rect rx="20.000000" width="40.000000" height="40.000000" fill="#E84026" fill-opacity="1.000000"/>
	<g clip-path="url(#clip11_849)">
		<path d="M25.52 11.3C25.33 11.26 25.14 11.25 24.95 11.25L15.04 11.25C14.85 11.25 14.66 11.26 14.47 11.3C14.31 11.33 14.15 11.38 13.99 11.44C13.82 11.5 13.67 11.57 13.52 11.65C13.36 11.74 13.21 11.85 13.07 11.97C12.92 12.09 12.79 12.22 12.67 12.36C12.55 12.5 12.44 12.64 12.35 12.79C12.25 12.95 12.17 13.1 12.1 13.27C12.01 13.45 11.95 13.65 11.9 13.85L10 21.25L30 21.25L28.09 13.85C28.04 13.65 27.98 13.45 27.89 13.27C27.82 13.1 27.74 12.95 27.64 12.79C27.55 12.64 27.44 12.5 27.32 12.36C27.2 12.22 27.07 12.09 26.92 11.97C26.78 11.85 26.63 11.74 26.47 11.65C26.32 11.57 26.17 11.5 26 11.44C25.84 11.38 25.68 11.33 25.52 11.3ZM15.04 12.67L24.95 12.67C25.17 12.67 25.38 12.71 25.58 12.78C25.77 12.85 25.96 12.96 26.13 13.11C26.31 13.25 26.46 13.42 26.57 13.61C26.69 13.8 26.78 14.01 26.84 14.24L28.27 19.82L11.72 19.82L13.15 14.24C13.21 14.01 13.3 13.8 13.42 13.61C13.53 13.42 13.68 13.25 13.86 13.11C14.03 12.96 14.22 12.85 14.41 12.78C14.61 12.71 14.82 12.67 15.04 12.67Z" fill="url(#paint_linear_11_850_0)" fill-opacity="1.000000" fill-rule="evenodd"/>
		<path d="M11.28 21.25L28.78 21.25L27.81 28.27C27.67 29.26 26.82 30 25.83 30L14.24 30C13.24 30 12.4 29.26 12.26 28.27L11.28 21.25Z" fill="url(#paint_linear_11_851_0)" fill-opacity="1.000000" fill-rule="evenodd"/>
		<rect x="13.750000" y="22.500000" rx="0.625000" width="1.250000" height="5.000000" fill="#FD4238" fill-opacity="1.000000"/>
		<rect x="21.250000" y="22.500000" rx="0.625000" width="1.250000" height="5.000000" fill="#FD4238" fill-opacity="1.000000"/>
		<rect x="17.500000" y="22.500000" rx="0.625000" width="1.250000" height="5.000000" fill="#FD4238" fill-opacity="1.000000"/>
		<rect x="25.000000" y="22.500000" rx="0.625000" width="1.250000" height="5.000000" fill="#FD4238" fill-opacity="1.000000"/>
		<rect x="8.750000" y="18.750000" rx="1.000000" width="22.500000" height="2.500000" fill="#FFFDFD" fill-opacity="1.000000"/>
		<path d="M18.29 10.43C18.8 10.67 19.47 10.93 20 10.93C20.52 10.93 21.19 10.67 21.7 10.43C22.06 10.26 22.5 10.51 22.5 10.9L22.5 12.84C22.5 13.23 22.06 13.48 21.7 13.31C21.19 13.07 20.52 12.81 20 12.81C19.47 12.81 18.8 13.07 18.29 13.31C17.93 13.48 17.5 13.23 17.5 12.84L17.5 10.9C17.5 10.51 17.93 10.26 18.29 10.43Z" fill="url(#paint_radial_11_857_0)" fill-opacity="1.000000" fill-rule="evenodd"/>
	</g>
</svg>
