<svg width="20.000000" height="20.000000" viewBox="0 0 20 20" fill="none" xmlns="http://www.w3.org/2000/svg" xmlns:xlink="http://www.w3.org/1999/xlink">
	<desc>
			Created with Pixso.
	</desc>
	<defs>
		<clipPath id="clip21_2051">
			<rect width="20.000000" height="20.000000" transform="translate(0.000000 20.000000) rotate(-90.000000)" fill="white" fill-opacity="0"/>
		</clipPath>
	</defs>
	<g clip-path="url(#clip21_2051)">
		<g opacity="0.000000"/>
		<path d="M10 13.25L4.19 7.45C4.06 7.34 3.91 7.28 3.75 7.28C3.58 7.28 3.43 7.34 3.3 7.45C3.17 7.58 3.11 7.72 3.11 7.89C3.11 8.07 3.17 8.21 3.3 8.34L9.11 14.15C9.36 14.39 9.65 14.51 10 14.51C10.34 14.51 10.63 14.39 10.88 14.15L16.65 8.35C16.78 8.25 16.84 8.11 16.84 7.93C16.84 7.74 16.78 7.59 16.65 7.48C16.54 7.36 16.39 7.29 16.21 7.29C16.04 7.29 15.9 7.36 15.78 7.48L10 13.25Z" fill="#000000" fill-opacity="0.898039" fill-rule="nonzero"/>
	</g>
</svg>
