<svg width="20.000000" height="20.000000" viewBox="0 0 20 20" fill="none" xmlns="http://www.w3.org/2000/svg" xmlns:xlink="http://www.w3.org/1999/xlink">
	<desc>
			Created with Pixso.
	</desc>
	<defs>
		<clipPath id="clip21_2558">
			<rect width="20.000000" height="20.000000" transform="matrix(0 1 1 0 0 0)" fill="white" fill-opacity="0"/>
		</clipPath>
	</defs>
	<g clip-path="url(#clip21_2558)">
		<g opacity="0.000000"/>
		<path d="M10 6.74L4.19 12.54C4.06 12.65 3.91 12.71 3.75 12.71C3.58 12.71 3.43 12.65 3.3 12.54C3.17 12.41 3.11 12.27 3.11 12.1C3.11 11.92 3.17 11.78 3.3 11.65L9.11 5.84C9.36 5.6 9.65 5.48 10 5.48C10.34 5.48 10.63 5.6 10.88 5.84L16.65 11.64C16.78 11.74 16.84 11.88 16.84 12.06C16.84 12.25 16.78 12.4 16.65 12.51C16.54 12.63 16.39 12.7 16.21 12.7C16.04 12.7 15.9 12.63 15.78 12.51L10 6.74Z" fill="#000000" fill-opacity="0.898039" fill-rule="nonzero"/>
	</g>
</svg>
