<svg width="16.000000" height="16.000000" viewBox="0 0 16 16" fill="none" xmlns="http://www.w3.org/2000/svg" xmlns:xlink="http://www.w3.org/1999/xlink">
	<desc>
			Created with Pixso.
	</desc>
	<defs>
		<clipPath id="clip38_5064">
			<rect width="16.000000" height="16.000000" fill="white" fill-opacity="0"/>
		</clipPath>
	</defs>
	<g clip-path="url(#clip38_5064)">
		<path d="M0.68 6.34C0.56 6.88 0.5 7.43 0.5 8C0.5 8.56 0.55 9.1 0.67 9.64C0.77 10.07 0.91 10.5 1.08 10.91C1.26 11.34 1.48 11.74 1.73 12.12C2 12.54 2.33 12.93 2.69 13.3C3.06 13.66 3.45 13.99 3.87 14.26L3.87 14.26Q4.44 14.64 5.07 14.91C5.49 15.08 5.91 15.22 6.35 15.31C6.88 15.43 7.43 15.5 8 15.5C8.55 15.5 9.1 15.44 9.63 15.32C10.07 15.22 10.5 15.08 10.91 14.91C11.34 14.73 11.74 14.51 12.11 14.27Q12.75 13.85 13.3 13.3C13.66 12.93 13.99 12.54 14.26 12.11C14.51 11.74 14.73 11.34 14.91 10.91C15.08 10.5 15.22 10.07 15.32 9.63C15.44 9.1 15.5 8.55 15.5 8Q15.5 7.15 15.31 6.35C15.22 5.91 15.08 5.49 14.91 5.07C14.73 4.65 14.51 4.25 14.26 3.87C13.99 3.45 13.66 3.06 13.3 2.69C12.93 2.33 12.54 2 12.12 1.73C11.74 1.48 11.34 1.26 10.91 1.08C10.5 0.91 10.07 0.77 9.64 0.67C9.1 0.55 8.56 0.5 8 0.5C7.43 0.5 6.88 0.56 6.34 0.68C5.91 0.77 5.49 0.91 5.07 1.08C4.65 1.26 4.25 1.48 3.87 1.73L3.87 1.73Q3.24 2.15 2.69 2.69C2.33 3.05 2.01 3.45 1.73 3.87C1.48 4.25 1.26 4.65 1.08 5.07C0.91 5.49 0.77 5.91 0.68 6.34ZM1.65 9.44C1.55 8.97 1.5 8.49 1.5 8C1.5 7.5 1.55 7.01 1.66 6.54C1.74 6.17 1.86 5.81 2.01 5.46C2.16 5.1 2.34 4.75 2.56 4.43C2.8 4.06 3.08 3.72 3.4 3.4C3.72 3.08 4.06 2.8 4.43 2.56C4.75 2.34 5.1 2.16 5.46 2.01C5.81 1.86 6.17 1.74 6.54 1.66C7.01 1.55 7.5 1.5 8 1.5C8.49 1.5 8.97 1.55 9.44 1.65C9.81 1.74 10.17 1.86 10.53 2.01C10.89 2.16 11.23 2.34 11.56 2.56C11.93 2.8 12.27 3.08 12.59 3.4C12.91 3.72 13.19 4.06 13.43 4.43C13.65 4.76 13.83 5.1 13.98 5.46C14.13 5.82 14.25 6.18 14.33 6.54C14.44 7.02 14.5 7.5 14.5 8C14.5 8.49 14.44 8.97 14.34 9.43C14.25 9.81 14.14 10.17 13.98 10.52C13.83 10.89 13.65 11.23 13.44 11.56C13.19 11.93 12.91 12.27 12.59 12.59C12.27 12.91 11.93 13.19 11.56 13.44C11.23 13.65 10.89 13.83 10.52 13.98C10.17 14.14 9.81 14.25 9.43 14.34C8.97 14.44 8.49 14.5 8 14.5C7.5 14.5 7.02 14.44 6.54 14.33C6.18 14.25 5.82 14.13 5.46 13.98C5.1 13.83 4.76 13.65 4.43 13.43C4.06 13.19 3.72 12.91 3.4 12.59C3.08 12.27 2.8 11.93 2.56 11.56C2.34 11.23 2.16 10.89 2.01 10.53C1.86 10.17 1.74 9.81 1.65 9.44ZM8 4C7.63 4 7.33 4.29 7.33 4.66C7.33 5.03 7.63 5.33 8 5.33C8.36 5.33 8.66 5.03 8.66 4.66C8.66 4.29 8.36 4 8 4ZM7.33 6.29L7.99 6.29C8.13 6.29 8.25 6.34 8.35 6.44C8.44 6.54 8.49 6.65 8.49 6.79L8.49 11.5L8.93 11.5C9.07 11.5 9.18 11.54 9.28 11.64C9.38 11.74 9.43 11.86 9.43 12C9.43 12.13 9.38 12.25 9.28 12.35C9.18 12.45 9.07 12.5 8.93 12.5L7.06 12.5C6.78 12.5 6.56 12.28 6.56 12C6.56 11.72 6.78 11.5 7.06 11.5L7.49 11.5L7.49 7.29L7.33 7.29C7.05 7.29 6.83 7.07 6.83 6.79C6.83 6.51 7.05 6.29 7.33 6.29Z" fill="#191919" fill-opacity="1.000000" fill-rule="evenodd"/>
	</g>
</svg>
