<svg width="16.000000" height="16.000000" viewBox="0 0 16 16" fill="none" xmlns="http://www.w3.org/2000/svg" xmlns:xlink="http://www.w3.org/1999/xlink">
	<desc>
			Created with Pixso.
	</desc>
	<defs>
		<clipPath id="clip20_1649">
			<rect width="16.000000" height="16.000000" fill="white" fill-opacity="0"/>
		</clipPath>
	</defs>
	<g clip-path="url(#clip20_1649)">
		<path d="M8 0.5C11.4 0.5 14.16 3.21 14.16 6.56C14.16 7.86 13.77 9.13 13.03 10.42C12.58 11.22 12.03 11.98 11.3 12.84L11.12 13.05L10.94 13.26C10.88 13.33 10.81 13.41 10.75 13.48C10.6 13.65 10.44 13.82 10.26 14L10.12 14.14C10.02 14.23 9.92 14.33 9.82 14.42L9.66 14.57L9.58 14.64L9.41 14.8C9.35 14.85 9.29 14.9 9.23 14.95L9.05 15.11C8.46 15.61 7.61 15.62 7 15.14L6.73 14.91L6.6 14.79L6.4 14.62L6.22 14.46L6.06 14.31L5.91 14.16L5.81 14.07L5.72 13.99L5.64 13.91L5.56 13.83L5.49 13.76L5.4 13.65L5.24 13.48L5.07 13.29C5.04 13.25 5.01 13.22 4.99 13.19L4.82 13L4.66 12.81L4.58 12.71L4.43 12.53L4.28 12.34C2.68 10.32 1.83 8.51 1.83 6.56C1.83 3.23 4.47 0.55 7.82 0.5L7.91 0.5L8 0.5ZM8 1.5L7.92 1.5L7.83 1.5C5.03 1.54 2.83 3.78 2.83 6.56C2.83 8.5 3.86 10.38 5.82 12.62L5.99 12.81L6.14 12.98L6.22 13.07L6.35 13.2L6.46 13.31L6.58 13.43L6.72 13.55L6.82 13.65L6.98 13.79L7.15 13.94L7.33 14.1L7.6 14.34C7.83 14.52 8.18 14.54 8.4 14.35L8.57 14.2L8.74 14.05C8.79 14 8.85 13.96 8.9 13.91L9.05 13.77L9.2 13.63L9.34 13.49L9.48 13.36C9.67 13.17 9.85 12.99 10 12.82C10.03 12.79 10.06 12.75 10.08 12.72L10.25 12.53C10.28 12.5 10.3 12.47 10.33 12.44L10.49 12.25L10.64 12.07C10.74 11.95 10.84 11.83 10.94 11.71L11.08 11.53C12.48 9.73 13.16 8.22 13.16 6.56C13.16 3.76 10.85 1.5 8 1.5ZM8 5.07C8.82 5.07 9.5 5.74 9.5 6.57C9.5 7.4 8.82 8.07 8 8.07C7.17 8.07 6.5 7.4 6.5 6.57C6.5 5.74 7.17 5.07 8 5.07Z" fill="#000000" fill-opacity="1.000000" fill-rule="nonzero"/>
		<path d="M14.16 6.56C14.16 7.86 13.77 9.13 13.03 10.42C12.58 11.22 12.03 11.98 11.3 12.84L11.12 13.05L10.94 13.26C10.88 13.33 10.81 13.41 10.75 13.48C10.6 13.65 10.44 13.82 10.26 14L10.12 14.14C10.02 14.23 9.92 14.33 9.82 14.42L9.66 14.57L9.58 14.64L9.41 14.8C9.35 14.85 9.29 14.9 9.23 14.95L9.05 15.11C8.46 15.61 7.61 15.62 7 15.14L6.73 14.91L6.6 14.79L6.4 14.62L6.22 14.46L6.06 14.31L5.91 14.16L5.81 14.07L5.72 13.99L5.64 13.91L5.56 13.83L5.49 13.76L5.4 13.65L5.24 13.48L5.07 13.29C5.04 13.25 5.01 13.22 4.99 13.19L4.82 13L4.66 12.81L4.58 12.71L4.43 12.53L4.28 12.34C2.68 10.32 1.83 8.51 1.83 6.56C1.83 3.23 4.47 0.55 7.82 0.5L7.91 0.5L8 0.5C11.4 0.5 14.16 3.21 14.16 6.56ZM7.92 1.5L7.83 1.5C5.03 1.54 2.83 3.78 2.83 6.56C2.83 8.5 3.86 10.38 5.82 12.62L5.99 12.81L6.14 12.98L6.22 13.07L6.35 13.2L6.46 13.31L6.58 13.43L6.72 13.55L6.82 13.65L6.98 13.79L7.15 13.94L7.33 14.1L7.6 14.34C7.83 14.52 8.18 14.54 8.4 14.35L8.57 14.2L8.74 14.05C8.79 14 8.85 13.96 8.9 13.91L9.05 13.77L9.2 13.63L9.34 13.49L9.48 13.36C9.67 13.17 9.85 12.99 10 12.82C10.03 12.79 10.06 12.75 10.08 12.72L10.25 12.53C10.28 12.5 10.3 12.47 10.33 12.44L10.49 12.25L10.64 12.07C10.74 11.95 10.84 11.83 10.94 11.71L11.08 11.53C12.48 9.73 13.16 8.22 13.16 6.56C13.16 3.76 10.85 1.5 8 1.5L7.92 1.5ZM9.5 6.57C9.5 7.4 8.82 8.07 8 8.07C7.17 8.07 6.5 7.4 6.5 6.57C6.5 5.74 7.17 5.07 8 5.07C8.82 5.07 9.5 5.74 9.5 6.57Z" stroke="#000000" stroke-opacity="0" stroke-width="1.000000"/>
	</g>
</svg>
