<svg width="16.000000" height="16.000000" viewBox="0 0 16 16" fill="none" xmlns="http://www.w3.org/2000/svg" xmlns:xlink="http://www.w3.org/1999/xlink">
	<desc>
			Created with Pixso.
	</desc>
	<defs>
		<clipPath id="clip38_5062">
			<rect width="16.000000" height="16.000000" fill="white" fill-opacity="0"/>
		</clipPath>
	</defs>
	<g clip-path="url(#clip38_5062)">
		<path d="M11.92 2.81C11.77 2.7 11.61 2.59 11.45 2.49C11.18 2.32 10.89 2.16 10.59 2.03C10.34 1.93 10.09 1.83 9.82 1.76C9.6 1.69 9.38 1.64 9.15 1.6L9.15 1.6Q8.58 1.5 8 1.5C7.5 1.5 7.02 1.55 6.56 1.65C6.18 1.74 5.82 1.86 5.47 2.01C5.1 2.16 4.76 2.34 4.43 2.55C4.06 2.8 3.72 3.08 3.4 3.4Q2.92 3.88 2.55 4.43C2.34 4.76 2.16 5.1 2.01 5.47C1.86 5.82 1.74 6.18 1.65 6.56C1.55 7.02 1.5 7.5 1.5 8C1.5 8.49 1.55 8.97 1.65 9.43C1.74 9.81 1.86 10.17 2.01 10.52C2.16 10.89 2.34 11.23 2.55 11.56C2.8 11.93 3.08 12.27 3.4 12.59C3.72 12.91 4.06 13.19 4.43 13.44Q4.92 13.75 5.47 13.98C5.82 14.14 6.18 14.25 6.56 14.34C7.02 14.44 7.5 14.5 8 14.5C8.49 14.5 8.97 14.44 9.43 14.34C9.81 14.25 10.17 14.14 10.52 13.98C11.3 13.66 11.99 13.19 12.59 12.59C12.91 12.27 13.19 11.93 13.44 11.56C13.65 11.23 13.83 10.89 13.98 10.52C14.14 10.17 14.25 9.81 14.34 9.43C14.44 8.97 14.5 8.49 14.5 8Q14.5 7.35 14.37 6.73Q14.29 6.3 14.15 5.89C14.04 5.59 13.92 5.3 13.78 5.02C13.61 4.69 13.41 4.37 13.18 4.07C13.01 3.85 13.05 3.54 13.27 3.37C13.5 3.2 13.8 3.24 13.97 3.47C14.46 4.11 14.83 4.81 15.09 5.56C15.2 5.89 15.29 6.23 15.36 6.56C15.45 7.03 15.5 7.51 15.5 8C15.5 9.01 15.3 9.99 14.91 10.91C14.73 11.34 14.51 11.74 14.27 12.11C13.99 12.54 13.66 12.93 13.3 13.3C12.93 13.66 12.54 13.99 12.11 14.26C11.74 14.51 11.34 14.73 10.91 14.91C10.5 15.08 10.07 15.22 9.63 15.32C9.1 15.44 8.55 15.5 8 15.5C6.98 15.5 6 15.3 5.08 14.91C4.65 14.73 4.25 14.51 3.88 14.26Q3.24 13.85 2.69 13.3C2.33 12.93 2 12.54 1.73 12.11C1.48 11.74 1.26 11.34 1.08 10.91C0.91 10.5 0.77 10.07 0.67 9.63C0.55 9.1 0.5 8.55 0.5 8C0.5 7.44 0.55 6.89 0.67 6.36C0.77 5.92 0.91 5.49 1.08 5.08Q1.35 4.44 1.72 3.88L1.73 3.88C2 3.45 2.33 3.06 2.69 2.69C3.06 2.33 3.45 2 3.88 1.73L3.88 1.72Q4.44 1.35 5.08 1.08C5.49 0.91 5.92 0.77 6.36 0.67C6.89 0.55 7.44 0.5 8 0.5C8.44 0.5 8.87 0.53 9.3 0.61C9.57 0.66 9.84 0.72 10.11 0.8C10.77 0.99 11.4 1.27 11.98 1.64C12.05 1.69 12.12 1.73 12.18 1.77C12.3 1.85 12.41 1.93 12.53 2.02C12.75 2.19 12.79 2.5 12.62 2.72C12.45 2.94 12.15 2.98 11.92 2.81ZM8 3.5C8.28 3.5 8.5 3.72 8.5 4L8.5 8.45L10.38 10.67C10.56 10.89 10.53 11.2 10.32 11.38C10.1 11.56 9.79 11.53 9.61 11.32L7.61 8.96C7.53 8.87 7.5 8.76 7.5 8.64L7.5 4C7.5 3.72 7.72 3.5 8 3.5Z" fill="#191919" fill-opacity="1.000000" fill-rule="evenodd"/>
	</g>
</svg>
