<svg width="16.000000" height="16.000000" viewBox="0 0 16 16" fill="none" xmlns="http://www.w3.org/2000/svg" xmlns:xlink="http://www.w3.org/1999/xlink">
	<desc>
			Created with Pixso.
	</desc>
	<defs>
		<clipPath id="clip20_1656">
			<rect width="16.000000" height="16.000000" fill="white" fill-opacity="0"/>
		</clipPath>
	</defs>
	<g clip-path="url(#clip20_1656)">
		<path d="M13.81 5.9C13.73 4.93 13.42 4.04 12.89 3.24C12.36 2.44 11.68 1.81 10.83 1.35C9.98 0.88 9.07 0.65 8.09 0.65C7.05 0.65 6.1 0.88 5.23 1.35C4.36 1.81 3.66 2.44 3.12 3.24C2.58 4.04 2.27 4.93 2.18 5.9C1.79 6.01 1.46 6.22 1.21 6.55C0.95 6.87 0.82 7.24 0.82 7.66L0.82 9.32C0.82 9.65 0.9 9.96 1.07 10.24C1.24 10.53 1.46 10.75 1.74 10.92C2.02 11.08 2.33 11.16 2.66 11.16C2.99 11.16 3.3 11.08 3.57 10.92C3.85 10.75 4.07 10.53 4.24 10.24C4.4 9.96 4.49 9.65 4.49 9.32L4.49 7.66C4.49 7.25 4.37 6.89 4.13 6.57C3.89 6.25 3.57 6.03 3.19 5.91C3.26 5.12 3.52 4.4 3.97 3.75C4.42 3.11 5 2.59 5.73 2.22C6.45 1.85 7.23 1.66 8.09 1.66C8.89 1.66 9.63 1.85 10.33 2.22C11.02 2.59 11.59 3.11 12.03 3.75C12.47 4.4 12.73 5.12 12.82 5.91C12.44 6.03 12.12 6.25 11.88 6.57C11.63 6.89 11.51 7.25 11.51 7.66L11.51 9.32C11.51 9.72 11.62 10.07 11.85 10.39C12.07 10.7 12.36 10.92 12.73 11.04C12.59 11.86 12.34 12.44 11.99 12.8C11.64 13.15 11.22 13.35 10.74 13.4C10.63 13.14 10.46 12.92 10.22 12.75C9.98 12.58 9.72 12.49 9.43 12.49C9.17 12.49 8.94 12.55 8.72 12.68C8.5 12.81 8.33 12.98 8.2 13.2C8.07 13.42 8 13.66 8 13.92C8 14.17 8.07 14.41 8.2 14.63C8.33 14.85 8.5 15.02 8.72 15.15C8.94 15.28 9.17 15.34 9.43 15.34C9.73 15.34 10 15.25 10.24 15.08C10.48 14.9 10.65 14.67 10.76 14.4C11.48 14.33 12.11 14.05 12.65 13.55C13.19 13.05 13.55 12.24 13.72 11.13C14.13 11.04 14.48 10.84 14.76 10.5C15.03 10.16 15.17 9.77 15.17 9.32L15.17 7.66C15.17 7.24 15.05 6.87 14.79 6.55C14.53 6.22 14.21 6.01 13.81 5.9ZM3.49 9.32C3.49 9.56 3.41 9.75 3.25 9.91C3.09 10.08 2.89 10.16 2.66 10.16C2.43 10.16 2.23 10.08 2.07 9.91C1.91 9.75 1.83 9.56 1.83 9.32L1.83 7.66C1.83 7.43 1.91 7.23 2.07 7.07C2.23 6.91 2.43 6.83 2.66 6.83C2.89 6.83 3.09 6.91 3.25 7.07C3.41 7.23 3.49 7.43 3.49 7.66L3.49 9.32ZM9.43 14.33C9.31 14.33 9.21 14.29 9.13 14.21C9.05 14.13 9.01 14.03 9.01 13.92C9.01 13.8 9.05 13.7 9.13 13.62C9.21 13.54 9.31 13.5 9.43 13.5C9.55 13.5 9.64 13.54 9.72 13.62C9.81 13.7 9.85 13.8 9.85 13.92C9.85 14.03 9.81 14.13 9.72 14.21C9.64 14.29 9.55 14.33 9.43 14.33ZM14.18 9.32C14.18 9.56 14.1 9.75 13.94 9.91C13.78 10.08 13.58 10.16 13.35 10.16C13.12 10.16 12.92 10.08 12.76 9.91C12.6 9.75 12.52 9.56 12.52 9.32L12.52 7.66C12.52 7.43 12.6 7.23 12.76 7.07C12.92 6.91 13.12 6.83 13.35 6.83C13.58 6.83 13.78 6.91 13.94 7.07C14.1 7.23 14.18 7.43 14.18 7.66L14.18 9.32Z" fill="#000000" fill-opacity="1.000000" fill-rule="nonzero"/>
	</g>
</svg>
