<svg width="48.000000" height="48.000000" viewBox="0 0 48 48" fill="none" xmlns="http://www.w3.org/2000/svg" xmlns:xlink="http://www.w3.org/1999/xlink">
	<desc>
		Created with Pixso.
	</desc>
	<defs>
		<filter id="filter_118_4525_dd" x="0.000000" y="0.000000" width="48.000000" height="48.000000" filterUnits="userSpaceOnUse" color-interpolation-filters="sRGB">
			<feFlood flood-opacity="0" result="BackgroundImageFix"/>
			<feBlend mode="normal" in="SourceGraphic" in2="BackgroundImageFix" result="shape"/>
			<feColorMatrix in="SourceAlpha" type="matrix" values="0 0 0 0 0 0 0 0 0 0 0 0 0 0 0 0 0 0 127 0" result="hardAlpha"/>
			<feOffset dx="0" dy="0"/>
			<feGaussianBlur stdDeviation="2.66667"/>
			<feComposite in2="hardAlpha" operator="arithmetic" k2="-1" k3="1"/>
			<feColorMatrix type="matrix" values="0 0 0 0 1 0 0 0 0 1 0 0 0 0 1 0 0 0 0.6 0"/>
			<feBlend mode="normal" in2="shape" result="effect_innerShadow_1"/>
		</filter>
		<filter id="filter_118_4540_dd" x="12.500000" y="12.750000" width="27.000000" height="30.500000" filterUnits="userSpaceOnUse" color-interpolation-filters="sRGB">
			<feFlood flood-opacity="0" result="BackgroundImageFix"/>
			<feColorMatrix in="SourceAlpha" type="matrix" values="0 0 0 0 0 0 0 0 0 0 0 0 0 0 0 0 0 0 127 0" result="hardAlpha"/>
			<feOffset dx="2" dy="4"/>
			<feGaussianBlur stdDeviation="1.33333"/>
			<feComposite in2="hardAlpha" operator="out" k2="-1" k3="1"/>
			<feColorMatrix type="matrix" values="0 0 0 0 0.5098 0 0 0 0 0.17647 0 0 0 0 0.047059 0 0 0 0.25 0"/>
			<feBlend mode="normal" in2="BackgroundImageFix" result="effect_dropShadow_1"/>
			<feBlend mode="normal" in="SourceGraphic" in2="effect_dropShadow_1" result="shape"/>
		</filter>
	</defs>
	<g filter="url(#filter_118_4525_dd)">
		<rect rx="24.000000" width="48.000000" height="48.000000" fill="#FFA440" fill-opacity="1.000000"/>
		<g filter="url(#filter_118_4540_dd)">
			<path d="M30.5 12.75L17.5 12.75C15.84 12.75 14.5 14.09 14.5 15.75L14.5 32.25C14.5 33.9 15.84 35.25 17.5 35.25L30.5 35.25C32.15 35.25 33.5 33.9 33.5 32.25L33.5 15.75C33.5 14.09 32.15 12.75 30.5 12.75ZM23.53 25.49L22.38 26.09C21.94 26.33 21.39 26.16 21.16 25.72C21.07 25.54 21.04 25.34 21.07 25.14L21.29 23.86C21.35 23.54 21.24 23.21 21 22.98L20.07 22.07C19.72 21.72 19.71 21.15 20.06 20.8C20.19 20.65 20.38 20.56 20.57 20.53L21.86 20.35C22.18 20.3 22.47 20.09 22.61 19.8L23.19 18.63C23.41 18.19 23.95 18 24.39 18.22C24.57 18.31 24.72 18.45 24.8 18.63L25.38 19.8C25.52 20.09 25.81 20.3 26.13 20.35L27.42 20.53C27.91 20.6 28.25 21.06 28.18 21.55C28.15 21.75 28.06 21.93 27.92 22.07L26.99 22.98C26.75 23.21 26.64 23.54 26.7 23.86L26.92 25.14C27 25.64 26.67 26.1 26.18 26.19C25.99 26.22 25.79 26.19 25.61 26.09L24.46 25.49C24.17 25.34 23.82 25.34 23.53 25.49ZM20.5 28.25L27.5 28.25C28.05 28.25 28.49 28.69 28.49 29.25C28.49 29.8 28.05 30.24 27.5 30.24L20.5 30.24C19.94 30.24 19.5 29.8 19.5 29.25C19.5 28.69 19.94 28.25 20.5 28.25Z" fill="#FFFFFF" fill-opacity="1.000000" fill-rule="evenodd"/>
			<path d="M17.5 12.75C15.84 12.75 14.5 14.09 14.5 15.75L14.5 32.25C14.5 33.9 15.84 35.25 17.5 35.25L30.5 35.25C32.15 35.25 33.5 33.9 33.5 32.25L33.5 15.75C33.5 14.09 32.15 12.75 30.5 12.75L17.5 12.75ZM22.38 26.09C21.94 26.33 21.39 26.16 21.16 25.72C21.07 25.54 21.04 25.34 21.07 25.14L21.29 23.86C21.35 23.54 21.24 23.21 21 22.98L20.07 22.07C19.72 21.72 19.71 21.15 20.06 20.8C20.19 20.65 20.38 20.56 20.57 20.53L21.86 20.35C22.18 20.3 22.47 20.09 22.61 19.8L23.19 18.63C23.41 18.19 23.95 18 24.39 18.22C24.57 18.31 24.72 18.45 24.8 18.63L25.38 19.8C25.52 20.09 25.81 20.3 26.13 20.35L27.42 20.53C27.91 20.6 28.25 21.06 28.18 21.55C28.15 21.75 28.06 21.93 27.92 22.07L26.99 22.98C26.75 23.21 26.64 23.54 26.7 23.86L26.92 25.14C27 25.64 26.67 26.1 26.18 26.19C25.99 26.22 25.79 26.19 25.61 26.09L24.46 25.49C24.17 25.34 23.82 25.34 23.53 25.49L22.38 26.09ZM27.5 28.25C28.05 28.25 28.49 28.69 28.49 29.25C28.49 29.8 28.05 30.24 27.5 30.24L20.5 30.24C19.94 30.24 19.5 29.8 19.5 29.25C19.5 28.69 19.94 28.25 20.5 28.25L27.5 28.25Z" stroke="#FFFFFF" stroke-opacity="0" stroke-width="1.995000" stroke-linejoin="round"/>
		</g>
	</g>
</svg>
