<svg width="32.000000" height="32.000000" viewBox="0 0 32 32" fill="none" xmlns="http://www.w3.org/2000/svg" xmlns:xlink="http://www.w3.org/1999/xlink">
	<desc>
			Created with Pixso.
	</desc>
	<defs>
		<clipPath id="clip13_3335">
			<rect width="24.000000" height="24.000000" transform="translate(4.000000 4.000000)" fill="white" fill-opacity="0"/>
		</clipPath>
	</defs>
	<rect rx="16.000000" width="32.000000" height="32.000000" fill="#000000" fill-opacity="0.050000"/>
	<g clip-path="url(#clip13_3335)">
		<path d="M21 8C22.65 8 24 9.34 24 11L24 12.25C24 12.62 23.71 12.94 23.35 12.99L23.25 13L7.5 13L7.5 21C7.5 21.77 8.09 22.42 8.85 22.49L9 22.5L15.76 22.5C16.17 22.5 16.51 22.83 16.51 23.25C16.51 23.66 16.17 24 15.76 24L9 24C7.34 24 6 22.65 6 21L6 11C6 9.34 7.34 8 9 8L21 8ZM21 14C23.76 14 26 16.23 26 19C26 21.76 23.76 24 21 24C18.23 24 16 21.76 16 19C16 16.23 18.23 14 21 14ZM21 15.5C19.06 15.5 17.5 17.06 17.5 19C17.5 20.93 19.06 22.5 21 22.5C22.93 22.5 24.5 20.93 24.5 19C24.5 17.06 22.93 15.5 21 15.5ZM20.75 16.75C21.12 16.75 21.44 17.03 21.49 17.39L21.5 17.5L21.5 18.98L22.5 20.01C22.79 20.31 22.78 20.79 22.48 21.07C22.21 21.34 21.8 21.36 21.51 21.13L20.21 19.81C20.1 19.7 20.03 19.56 20 19.4L20 19.29L20 17.5C20 17.08 20.33 16.75 20.75 16.75ZM21 9.5L9 9.5C8.22 9.5 7.57 10.09 7.5 10.85L7.5 11L7.5 11.5L22.5 11.5L22.5 11C22.5 10.22 21.9 9.57 21.14 9.5L21 9.5Z" fill="#000000" fill-opacity="1.000000" fill-rule="nonzero"/>
		<path d="M24 11L24 12.25C24 12.62 23.71 12.94 23.35 12.99L23.25 13L7.5 13L7.5 21C7.5 21.77 8.09 22.42 8.85 22.49L9 22.5L15.76 22.5C16.17 22.5 16.51 22.83 16.51 23.25C16.51 23.66 16.17 24 15.76 24L9 24C7.34 24 6 22.65 6 21L6 11C6 9.34 7.34 8 9 8L21 8C22.65 8 24 9.34 24 11ZM26 19C26 21.76 23.76 24 21 24C18.23 24 16 21.76 16 19C16 16.23 18.23 14 21 14C23.76 14 26 16.23 26 19ZM17.5 19C17.5 20.93 19.06 22.5 21 22.5C22.93 22.5 24.5 20.93 24.5 19C24.5 17.06 22.93 15.5 21 15.5C19.06 15.5 17.5 17.06 17.5 19ZM21.49 17.39L21.5 17.5L21.5 18.98L22.5 20.01C22.79 20.31 22.78 20.79 22.48 21.07C22.21 21.34 21.8 21.36 21.51 21.13L20.21 19.81C20.1 19.7 20.03 19.56 20 19.4L20 19.29L20 17.5C20 17.08 20.33 16.75 20.75 16.75C21.12 16.75 21.44 17.03 21.49 17.39ZM9 9.5C8.22 9.5 7.57 10.09 7.5 10.85L7.5 11L7.5 11.5L22.5 11.5L22.5 11C22.5 10.22 21.9 9.57 21.14 9.5L21 9.5L9 9.5Z" stroke="#000000" stroke-opacity="0" stroke-width="1.000000"/>
	</g>
</svg>
