<svg width="32.000000" height="32.000000" viewBox="0 0 32 32" fill="none" xmlns="http://www.w3.org/2000/svg" xmlns:xlink="http://www.w3.org/1999/xlink">
	<desc>
			Created with Pixso.
	</desc>
	<defs/>
	<rect rx="16.000000" width="32.000000" height="32.000000" fill="#000000" fill-opacity="0.050000"/>
	<path d="M8 19.32C8 19.78 8.07 20.19 8.23 20.54C8.4 20.88 8.67 21.21 9.04 21.52C9.41 21.82 9.94 22.16 10.63 22.53C11.73 23.12 12.7 23.53 13.54 23.79C14.37 24.05 15.18 24.19 15.94 24.19C16.73 24.19 17.47 24.05 18.16 23.78C18.84 23.52 19.61 23.09 20.46 22.48L21.01 22.09C21.87 21.49 22.5 21.02 22.9 20.68C23.31 20.35 23.61 20.01 23.82 19.66C24.01 19.32 24.05 18.95 23.92 18.55C23.84 18.27 23.7 18.02 23.53 17.81C23.35 17.6 23.14 17.44 22.9 17.33C22.66 17.21 22.4 17.15 22.13 17.15C21.88 17.15 21.66 17.18 21.47 17.24C21.28 17.3 21.01 17.41 20.67 17.57L20.52 17.65C20.81 17.3 21.06 16.92 21.27 16.51C21.47 16.11 21.62 15.68 21.73 15.24C21.83 14.79 21.89 14.34 21.89 13.88C21.89 12.82 21.62 11.84 21.09 10.94C20.56 10.04 19.85 9.32 18.95 8.79C18.04 8.26 17.06 8 16 8C14.92 8 13.93 8.26 13.03 8.79C12.13 9.32 11.42 10.04 10.89 10.94C10.35 11.84 10.09 12.82 10.09 13.88C10.09 14.53 10.19 15.16 10.4 15.8C9.87 15.8 9.46 15.86 9.16 15.99C8.87 16.12 8.66 16.29 8.53 16.51C8.39 16.74 8.28 17.03 8.18 17.4C8.06 17.97 8 18.61 8 19.32ZM9.14 19.32C9.14 18.7 9.21 18.14 9.33 17.65C9.38 17.47 9.45 17.34 9.55 17.25C9.64 17.16 9.84 17.08 10.16 17.02C10.47 16.97 10.95 16.94 11.61 16.94C12.42 16.94 13.06 16.95 13.51 16.97C13.96 16.99 14.37 17.04 14.74 17.12L15.7 17.4C16.07 17.52 16.35 17.6 16.54 17.65C16.72 17.7 16.9 17.75 17.08 17.8C17.26 17.86 17.53 17.94 17.9 18.05L18.02 18.11C18.27 18.21 18.45 18.33 18.58 18.46C18.71 18.6 18.76 18.81 18.72 19.09C18.66 19.31 18.53 19.45 18.33 19.52C18.13 19.58 17.86 19.57 17.52 19.5L17.2 19.42C17.09 19.39 16.33 19.2 14.93 18.87C14.17 18.71 13.8 18.82 13.83 19.2C13.83 19.34 13.88 19.43 13.98 19.49C14.08 19.54 14.22 19.59 14.38 19.62L14.52 19.66C15.57 19.93 16.32 20.11 16.78 20.21C17.25 20.31 17.59 20.38 17.81 20.4C18.07 20.42 18.31 20.38 18.51 20.29C18.71 20.2 18.96 20.04 19.25 19.83C19.37 19.76 19.49 19.68 19.62 19.59C19.75 19.51 19.88 19.42 20.03 19.33L21.35 18.59C21.66 18.42 21.9 18.32 22.08 18.3C22.26 18.27 22.44 18.34 22.61 18.51C22.75 18.65 22.81 18.81 22.8 18.99C22.78 19.17 22.71 19.33 22.57 19.48C22.36 19.71 22.04 19.99 21.6 20.3C21.16 20.6 20.61 20.98 19.94 21.41L19.81 21.5C19 22.04 18.31 22.43 17.74 22.67C17.17 22.9 16.57 23.02 15.94 23.02C15.27 23.02 14.56 22.9 13.81 22.66C13.04 22.42 12.17 22.03 11.18 21.5C10.55 21.17 10.09 20.88 9.79 20.64C9.49 20.39 9.31 20.18 9.25 20C9.18 19.81 9.14 19.58 9.14 19.32ZM16.55 15.18L17.72 15.18C17.97 15.18 18.14 15.08 18.24 14.89C18.34 14.7 18.34 14.51 18.25 14.32C18.16 14.13 17.99 14.04 17.74 14.04L16.55 14.04L16.55 13.55L17.74 13.55C17.97 13.55 18.14 13.46 18.24 13.27C18.34 13.08 18.34 12.89 18.24 12.69C18.14 12.5 17.97 12.4 17.74 12.4L16.94 12.4L17.83 11.51C18 11.34 18.06 11.16 17.99 10.95C17.92 10.74 17.79 10.61 17.58 10.54C17.38 10.47 17.19 10.53 17.02 10.7L15.96 11.74L14.93 10.72C14.74 10.54 14.55 10.5 14.35 10.57C14.15 10.64 14.02 10.78 13.96 10.99C13.9 11.19 13.95 11.37 14.11 11.54L14.98 12.39L14.24 12.39C14 12.39 13.83 12.48 13.74 12.68C13.64 12.88 13.64 13.08 13.73 13.27C13.82 13.46 13.99 13.55 14.24 13.55L15.4 13.55L15.4 14.01L14.22 14.01C13.99 14.01 13.82 14.11 13.72 14.32C13.62 14.51 13.62 14.7 13.72 14.89C13.82 15.08 13.99 15.18 14.22 15.18L15.4 15.18L15.4 16.41L16.55 16.75L16.55 15.18ZM14.98 16C14.6 15.91 14.19 15.85 13.76 15.83C13.33 15.81 12.72 15.8 11.94 15.8L11.65 15.8C11.39 15.18 11.26 14.54 11.26 13.88C11.26 13.03 11.47 12.24 11.89 11.51C12.32 10.79 12.9 10.21 13.62 9.79C14.34 9.36 15.13 9.14 16 9.14C16.85 9.14 17.64 9.36 18.36 9.79C19.08 10.21 19.65 10.79 20.08 11.51C20.51 12.24 20.72 13.03 20.72 13.88C20.72 14.56 20.58 15.21 20.3 15.83C20.03 16.45 19.64 16.98 19.13 17.43C19.07 17.37 18.96 17.31 18.79 17.24C18.63 17.16 18.48 17.09 18.32 17.03C18.17 16.97 18.04 16.92 17.93 16.89L15.35 16.09L14.98 16Z" fill="#000000" fill-opacity="1.000000" fill-rule="nonzero"/>
</svg>
