<svg width="32.000000" height="32.000000" viewBox="0 0 32 32" fill="none" xmlns="http://www.w3.org/2000/svg" xmlns:xlink="http://www.w3.org/1999/xlink">
	<desc>
			Created with Pixso.
	</desc>
	<defs/>
	<rect rx="16.000000" width="32.000000" height="32.000000" fill="#000000" fill-opacity="0.050000"/>
	<path d="M9.18 8.34C9.57 8.11 10.01 8 10.52 8L21.39 8C22.21 8 22.85 8.25 23.31 8.75Q23.41 8.86 23.49 8.98Q24 9.69 24 10.75L24 12.78C24 12.95 23.93 13.09 23.81 13.2C23.69 13.32 23.56 13.38 23.4 13.38C23.24 13.38 23.1 13.32 22.97 13.2C22.85 13.09 22.79 12.95 22.79 12.78L22.79 10.75C22.79 10.42 22.74 10.14 22.65 9.9C22.55 9.67 22.4 9.49 22.18 9.37C21.98 9.24 21.71 9.18 21.39 9.18L10.4 9.18C10.05 9.18 9.76 9.31 9.53 9.57C9.3 9.83 9.18 10.15 9.18 10.51L9.18 14.75L10.64 13.72C10.77 13.62 10.93 13.59 11.1 13.62C11.26 13.65 11.39 13.73 11.48 13.86C11.58 14 11.62 14.15 11.58 14.31C11.55 14.48 11.47 14.6 11.34 14.69L8.93 16.4C8.82 16.48 8.69 16.51 8.54 16.49C8.39 16.47 8.27 16.41 8.15 16.31C8.05 16.2 8 16.08 8 15.92L8 10.44C8 10.01 8.1 9.61 8.3 9.24Q8.38 9.1 8.47 8.97Q8.76 8.6 9.18 8.34ZM16.49 15.68L16.49 16.69L18.28 16.69C18.44 16.69 18.58 16.74 18.69 16.86C18.81 16.97 18.87 17.11 18.87 17.28C18.87 17.44 18.81 17.59 18.69 17.71C18.58 17.83 18.44 17.89 18.28 17.89L16.47 17.89L16.47 19.67C16.47 19.84 16.42 19.98 16.3 20.1C16.19 20.23 16.05 20.29 15.88 20.29C15.71 20.29 15.57 20.23 15.46 20.1C15.34 19.98 15.29 19.84 15.29 19.67L15.29 17.89L13.49 17.89C13.32 17.89 13.18 17.83 13.07 17.71C12.95 17.59 12.89 17.44 12.89 17.28C12.89 17.11 12.95 16.97 13.07 16.86C13.18 16.74 13.32 16.69 13.49 16.69L15.29 16.69L15.29 15.65L13.51 15.65C13.34 15.65 13.2 15.6 13.08 15.48C12.97 15.37 12.92 15.23 12.92 15.06C12.92 14.9 12.97 14.76 13.08 14.64C13.2 14.52 13.34 14.46 13.51 14.46L14.98 14.46L13.47 12.96C13.35 12.84 13.3 12.7 13.3 12.53C13.3 12.37 13.35 12.23 13.47 12.11Q13.57 12.02 13.7 11.98Q13.8 11.94 13.91 11.94C14.08 11.94 14.22 12 14.33 12.11L15.88 13.67L17.43 12.09C17.56 11.98 17.7 11.92 17.87 11.92C18.03 11.92 18.18 11.98 18.29 12.09C18.41 12.21 18.47 12.35 18.47 12.52C18.47 12.68 18.41 12.82 18.29 12.93L16.76 14.46L18.29 14.46C18.46 14.46 18.6 14.52 18.71 14.64C18.83 14.76 18.88 14.9 18.88 15.06C18.88 15.23 18.83 15.37 18.71 15.49C18.6 15.61 18.46 15.68 18.29 15.68L16.49 15.68ZM23.84 15.61C23.94 15.72 24 15.84 24 15.96L24 21.45C24 22.2 23.77 22.8 23.33 23.26C22.88 23.73 22.3 23.96 21.59 23.96L10.58 23.96C9.8 23.96 9.17 23.73 8.7 23.26C8.23 22.8 8 22.19 8 21.43L8 19.18C8 19.01 8.05 18.87 8.16 18.75C8.28 18.64 8.42 18.58 8.59 18.58C8.75 18.58 8.89 18.64 9.01 18.75C9.12 18.87 9.18 19.01 9.18 19.18L9.18 21.43C9.18 21.85 9.31 22.18 9.55 22.41C9.8 22.64 10.14 22.76 10.58 22.76L21.39 22.76C21.88 22.76 22.23 22.63 22.46 22.38C22.68 22.13 22.79 21.76 22.79 21.26L22.79 17.18L21.35 18.24C21.19 18.34 21.03 18.37 20.88 18.34C20.72 18.31 20.6 18.23 20.51 18.1C20.41 17.96 20.37 17.81 20.41 17.65C20.44 17.48 20.52 17.35 20.65 17.26L23.09 15.52C23.21 15.44 23.34 15.42 23.48 15.44C23.62 15.45 23.74 15.51 23.84 15.61Z" fill="#000000" fill-opacity="1.000000" fill-rule="evenodd"/>
</svg>
