<svg width="32.000000" height="32.000000" viewBox="0 0 32 32" fill="none" xmlns="http://www.w3.org/2000/svg" xmlns:xlink="http://www.w3.org/1999/xlink">
	<desc>
			Created with Pixso.
	</desc>
	<defs/>
	<rect rx="16.000000" width="32.000000" height="32.000000" fill="#000000" fill-opacity="0.050000"/>
	<path d="M13.21 10.32C12.6 10.32 12.03 10.45 11.5 10.73C10.96 10.99 10.52 11.36 10.17 11.83L17.51 11.83C17.98 11.83 18.41 11.95 18.82 12.19C19.22 12.43 19.54 12.74 19.77 13.14C20 13.54 20.12 13.97 20.12 14.43L20.12 21.8C20.58 21.44 20.95 20.99 21.22 20.46C21.5 19.93 21.63 19.36 21.63 18.74L21.63 14.19C21.63 13.49 21.46 12.84 21.11 12.24C20.77 11.65 20.3 11.18 19.71 10.84C19.11 10.49 18.47 10.32 17.78 10.32L13.21 10.32ZM16.27 8C15.65 8 15.07 8.12 14.53 8.37C13.99 8.62 13.52 8.97 13.13 9.41L18.99 9.41C19.63 9.41 20.22 9.57 20.76 9.89C21.3 10.21 21.73 10.64 22.06 11.18C22.38 11.73 22.54 12.32 22.54 12.96L22.54 18.87C22.99 18.47 23.34 18 23.6 17.45C23.86 16.91 24 16.33 24 15.7L24 12.24C24 11.47 23.8 10.77 23.41 10.12C23.03 9.47 22.52 8.95 21.87 8.57C21.22 8.19 20.51 8 19.75 8L16.27 8Z" fill="#000000" fill-opacity="0.600000" fill-rule="nonzero"/>
	<path d="M10.07 12.77C9.41 12.77 8.89 12.95 8.53 13.31C8.17 13.67 8 14.18 8 14.85L8 21.89C8 22.56 8.17 23.07 8.53 23.44C8.89 23.79 9.41 23.97 10.07 23.97L17.12 23.97C17.78 23.97 18.3 23.79 18.66 23.44C19.02 23.07 19.19 22.56 19.19 21.89L19.19 14.85C19.19 14.18 19.02 13.67 18.66 13.31C18.3 12.95 17.78 12.77 17.12 12.77L10.07 12.77Z" fill="#000000" fill-opacity="1.000000" fill-rule="nonzero"/>
</svg>
