<svg width="32.000000" height="32.000000" viewBox="0 0 32 32" fill="none" xmlns="http://www.w3.org/2000/svg" xmlns:xlink="http://www.w3.org/1999/xlink">
	<desc>
			Created with Pixso.
	</desc>
	<defs/>
	<rect rx="16.000000" width="32.000000" height="32.000000" transform="translate(0.000000 0.000001)" fill="#FE4F35" fill-opacity="0.101961"/>
	<path d="M22.93 18.89L22.93 10.62C22.93 10.42 22.9 10.22 22.86 10.03C22.83 9.88 22.78 9.74 22.72 9.6C22.66 9.44 22.58 9.28 22.48 9.14C22.39 9.01 22.29 8.88 22.17 8.77C22.04 8.63 21.89 8.51 21.74 8.4C21.62 8.33 21.49 8.26 21.36 8.2C21.21 8.14 21.05 8.09 20.89 8.05C20.72 8.01 20.54 8 20.35 8L11.57 8C11.38 8 11.2 8.01 11.03 8.05C10.87 8.09 10.72 8.14 10.56 8.2C10.43 8.26 10.31 8.33 10.19 8.4C10.03 8.51 9.88 8.63 9.75 8.77C9.63 8.88 9.53 9.01 9.44 9.14C9.34 9.28 9.26 9.44 9.2 9.6C9.14 9.74 9.09 9.88 9.06 10.03C9.02 10.22 9 10.42 9 10.62L9 21.37C9 21.57 9.02 21.77 9.06 21.96C9.09 22.11 9.14 22.25 9.2 22.39C9.26 22.55 9.34 22.71 9.44 22.85C9.53 22.98 9.63 23.11 9.75 23.22C9.88 23.36 10.03 23.48 10.19 23.59C10.31 23.66 10.43 23.73 10.56 23.79C10.72 23.85 10.87 23.9 11.03 23.94C11.2 23.98 11.38 24 11.57 24L22.38 24C22.42 24 22.45 23.99 22.49 23.98C22.53 23.98 22.56 23.97 22.59 23.95C22.63 23.94 22.65 23.92 22.68 23.9C22.71 23.88 22.74 23.86 22.77 23.83C22.82 23.78 22.86 23.72 22.89 23.66C22.91 23.59 22.93 23.52 22.93 23.44C22.93 23.37 22.91 23.3 22.89 23.23C22.86 23.17 22.82 23.11 22.77 23.06C22.74 23.03 22.71 23 22.68 22.98C22.65 22.97 22.63 22.95 22.59 22.94C22.56 22.92 22.53 22.91 22.49 22.9C22.45 22.9 22.42 22.89 22.38 22.89L11.57 22.89C11.46 22.89 11.36 22.88 11.25 22.86C11.17 22.84 11.08 22.81 11 22.77C10.92 22.74 10.86 22.71 10.79 22.67C10.7 22.61 10.61 22.53 10.53 22.45C10.46 22.38 10.4 22.31 10.35 22.23C10.29 22.15 10.25 22.06 10.21 21.97C10.18 21.89 10.15 21.81 10.13 21.73C10.1 21.62 10.09 21.5 10.09 21.37L10.09 10.62C10.09 10.49 10.1 10.37 10.13 10.26C10.15 10.18 10.18 10.1 10.21 10.02C10.25 9.93 10.29 9.84 10.35 9.76C10.4 9.68 10.46 9.61 10.53 9.54C10.61 9.46 10.7 9.38 10.79 9.32C10.86 9.28 10.92 9.25 11 9.22C11.08 9.18 11.17 9.15 11.25 9.13C11.36 9.11 11.46 9.1 11.57 9.1L20.35 9.1C20.46 9.1 20.57 9.11 20.67 9.13C20.76 9.15 20.84 9.18 20.93 9.22C21 9.25 21.06 9.28 21.13 9.32C21.22 9.38 21.31 9.46 21.4 9.54C21.46 9.61 21.52 9.68 21.57 9.76C21.63 9.84 21.67 9.93 21.71 10.02C21.75 10.1 21.77 10.18 21.79 10.26C21.82 10.37 21.83 10.49 21.83 10.62L21.83 18.89C21.83 19.01 21.82 19.13 21.79 19.25C21.77 19.33 21.75 19.41 21.71 19.48C21.67 19.58 21.63 19.67 21.57 19.75C21.52 19.83 21.46 19.9 21.4 19.97C21.31 20.05 21.22 20.12 21.13 20.18C21.06 20.22 21 20.26 20.93 20.29C20.84 20.33 20.76 20.35 20.67 20.37C20.57 20.4 20.46 20.41 20.35 20.41L11.57 20.41C11.53 20.41 11.49 20.41 11.45 20.42C11.42 20.43 11.38 20.44 11.35 20.45C11.32 20.47 11.29 20.48 11.26 20.5C11.23 20.52 11.2 20.55 11.18 20.57C11.13 20.63 11.09 20.68 11.06 20.75C11.03 20.81 11.02 20.88 11.02 20.96C11.02 21.04 11.03 21.11 11.06 21.17C11.09 21.24 11.13 21.3 11.18 21.35C11.2 21.38 11.23 21.4 11.26 21.42C11.29 21.44 11.32 21.45 11.35 21.47C11.38 21.48 11.42 21.49 11.45 21.5C11.49 21.51 11.53 21.51 11.57 21.51L20.35 21.51C20.54 21.51 20.72 21.49 20.89 21.45C21.05 21.42 21.21 21.37 21.36 21.31C21.49 21.25 21.62 21.18 21.74 21.1C21.89 21 22.04 20.88 22.17 20.74C22.29 20.63 22.39 20.5 22.48 20.37C22.58 20.22 22.66 20.07 22.72 19.91C22.78 19.77 22.83 19.63 22.86 19.48C22.9 19.29 22.93 19.09 22.93 18.89Z" fill="#FE4F35" fill-opacity="1.000000" fill-rule="evenodd"/>
	<path d="M11.13 8.89L20.79 8.89C21.55 8.89 22.17 9.51 22.17 10.27L22.17 19.93C22.17 20.69 21.55 21.31 20.79 21.31L11.18 21.35C10.42 21.35 9.75 20.69 9.75 19.93L9.75 10.27C9.75 9.51 10.37 8.89 11.13 8.89Z" fill="#FE4F35" fill-opacity="1.000000" fill-rule="evenodd"/>
	<path d="M14.93 8.34L19.75 8.34L19.75 14.2L17.79 12.53C17.53 12.31 17.15 12.31 16.89 12.53L14.93 14.2L14.93 8.34Z" fill="#FFCCC4" fill-opacity="1.000000" fill-rule="evenodd"/>
</svg>
