<svg width="32.000000" height="32.000000" viewBox="0 0 32 32" fill="none" xmlns="http://www.w3.org/2000/svg" xmlns:xlink="http://www.w3.org/1999/xlink">
	<desc>
			Created with Pixso.
	</desc>
	<defs/>
	<rect rx="16.000000" width="32.000000" height="32.000000" transform="translate(0.000000 0.000001)" fill="#FE4F35" fill-opacity="0.100000"/>
	<rect x="9.000000" y="8.000002" rx="2.000000" width="14.000000" height="16.000000" fill="#FE4F35" fill-opacity="1.000000"/>
	<path d="M12.21 16.31C12.49 15.78 13.2 14.2 16 14.2C18.79 14.2 19.52 15.78 19.78 16.31C19.88 16.51 19.95 16.78 19.99 17.11C20.04 17.55 19.7 17.94 19.24 17.99C19.21 17.99 19.18 18 19.15 18L12.84 18C12.37 18 12 17.64 12 17.2C12 17.17 12 17.14 12 17.11C12.04 16.78 12.11 16.51 12.21 16.31ZM16 10C14.89 10 13.99 10.85 13.99 11.9C13.99 12.94 14.89 13.8 16 13.8C17.11 13.8 18.01 12.94 18.01 11.9C18.01 10.85 17.11 10 16 10Z" fill="#FFFFFF" fill-opacity="1.000000" fill-rule="nonzero"/>
	<path d="M16 14.2C18.79 14.2 19.52 15.78 19.78 16.31C19.88 16.51 19.95 16.78 19.99 17.11C20.04 17.55 19.7 17.94 19.24 17.99C19.21 17.99 19.18 18 19.15 18L12.84 18C12.37 18 12 17.64 12 17.2C12 17.17 12 17.14 12 17.11C12.04 16.78 12.11 16.51 12.21 16.31C12.49 15.78 13.2 14.2 16 14.2ZM13.99 11.9C13.99 12.94 14.89 13.8 16 13.8C17.11 13.8 18.01 12.94 18.01 11.9C18.01 10.85 17.11 10 16 10C14.89 10 13.99 10.85 13.99 11.9Z" stroke="#000000" stroke-opacity="0" stroke-width="1.000000"/>
	<rect x="14.000000" y="19.000002" rx="0.500000" width="4.000000" height="1.000000" fill="#FFFFFF" fill-opacity="0.600000"/>
	<rect x="13.000000" y="21.000002" rx="0.500000" width="6.000000" height="1.000000" fill="#FFFFFF" fill-opacity="0.600000"/>
</svg>
