<svg width="32" height="32" viewBox="0 0 32 32" fill="none" xmlns="http://www.w3.org/2000/svg">
	<desc>
		Created with Pixso.
	</desc>
	<rect x="0" y="0" width="32" height="32" rx="16" fill="#FE4F35" fill-opacity="0.1" />
	<g clip-path="url(#clip13_3449)">
		<path d="M8.5 13L23.5 13L23.5 21.5C23.5 22.6 22.6 23.5 21.5 23.5L10.5 23.5C9.39 23.5 8.5 22.6 8.5 21.5L8.5 13Z" fill="#FFCCC4" fill-rule="evenodd" />
		<path d="M21.43 9.06C22.67 9.06 23.68 10.06 23.68 11.31L23.68 21.43C23.68 22.67 22.67 23.68 21.43 23.68L10.56 23.68C9.31 23.68 8.31 22.67 8.31 21.43L8.31 11.31C8.31 10.06 9.31 9.06 10.56 9.06L21.43 9.06Z" fill="#007DFF" fill-opacity="0" fill-rule="nonzero" />
		<path d="M23.68 11.31L23.68 21.43C23.68 22.67 22.67 23.68 21.43 23.68L10.56 23.68C9.31 23.68 8.31 22.67 8.31 21.43L8.31 11.31C8.31 10.06 9.31 9.06 10.56 9.06L21.43 9.06C22.67 9.06 23.68 10.06 23.68 11.31Z" stroke="#FE4F35" stroke-width="1.5" />
		<path d="M13.24 7.75L13.24 9.82C13.24 10.13 13 10.38 12.68 10.38C12.37 10.38 12.12 10.13 12.12 9.82L12.12 7.75C12.12 7.43 12.37 7.18 12.68 7.18C13 7.18 13.24 7.43 13.24 7.75ZM19.87 7.75C19.87 7.43 19.62 7.18 19.3 7.18C18.99 7.18 18.74 7.43 18.74 7.75L18.74 9.82C18.74 10.13 18.99 10.38 19.3 10.38C19.62 10.38 19.87 10.13 19.87 9.82L19.87 7.75Z" fill="#FE4F35" fill-rule="evenodd" />
		<path d="M8.31 12.81L23.68 12.81L23.68 13.93L8.31 13.93L8.31 12.81Z" fill="#FE4F35" fill-rule="evenodd" />
		<path d="M12.12 8.5L10.56 8.5C9 8.5 7.75 9.75 7.75 11.31L7.75 12.81L24.25 12.81L24.25 11.31C24.25 9.75 22.99 8.5 21.43 8.5L19.87 8.5L19.87 7.75C19.87 7.43 19.62 7.18 19.31 7.18C18.99 7.18 18.74 7.43 18.74 7.75L18.74 8.5L13.25 8.5L13.25 7.75C13.25 7.43 13 7.18 12.68 7.18C12.37 7.18 12.12 7.43 12.12 7.75L12.12 8.5Z" fill="#FFFFFF" fill-opacity="0" fill-rule="evenodd" />
		<rect x="11" y="15" width="2" height="2" fill="#FFFFFF" />
		<rect x="11" y="19" width="2" height="2" fill="#FFFFFF" />
		<rect x="15" y="15" width="2" height="2" fill="#FFFFFF" />
		<rect x="15" y="19" width="2" height="2" fill="#FFFFFF" />
		<rect x="19" y="15" width="2" height="2" fill="#FFFFFF" />
		<rect x="19" y="19" width="2" height="2" fill="#FFFFFF" />
	</g>
</svg>