<svg width="32.000000" height="32.000000" viewBox="0 0 32 32" fill="none" xmlns="http://www.w3.org/2000/svg" xmlns:xlink="http://www.w3.org/1999/xlink">
	<desc>
			Created with Pixso.
	</desc>
	<rect rx="16.000000" width="32.000000" height="32.000000" transform="translate(0.000000 0.000001)" fill="#FE4F35" fill-opacity="0.101961"/>
	<g clip-path="url(#clip13_3462)">
		<path d="M8.5 13L23.5 13L23.5 21.5C23.5 22.6 22.6 23.5 21.5 23.5L10.5 23.5C9.39 23.5 8.5 22.6 8.5 21.5L8.5 13Z" fill="#FFCCC4" fill-opacity="1.000000" fill-rule="evenodd"/>
		<path d="M21.43 9.06C22.67 9.06 23.68 10.06 23.68 11.31L23.68 21.43C23.68 22.67 22.67 23.68 21.43 23.68L10.56 23.68C9.31 23.68 8.31 22.67 8.31 21.43L8.31 11.31C8.31 10.06 9.31 9.06 10.56 9.06L21.43 9.06Z" fill="#007DFF" fill-opacity="0" fill-rule="nonzero"/>
		<path d="M23.68 11.31L23.68 21.43C23.68 22.67 22.67 23.68 21.43 23.68L10.56 23.68C9.31 23.68 8.31 22.67 8.31 21.43L8.31 11.31C8.31 10.06 9.31 9.06 10.56 9.06L21.43 9.06C22.67 9.06 23.68 10.06 23.68 11.31Z" stroke="#FE4F35" stroke-opacity="1.000000" stroke-width="1.500000"/>
		<path d="M13.24 7.75L13.24 9.82C13.24 10.13 13 10.38 12.68 10.38C12.37 10.38 12.12 10.13 12.12 9.82L12.12 7.75C12.12 7.43 12.37 7.18 12.68 7.18C13 7.18 13.24 7.43 13.24 7.75ZM19.87 7.75C19.87 7.43 19.62 7.18 19.3 7.18C18.99 7.18 18.74 7.43 18.74 7.75L18.74 9.82C18.74 10.13 18.99 10.38 19.3 10.38C19.62 10.38 19.87 10.13 19.87 9.82L19.87 7.75Z" fill="#FE4F35" fill-opacity="1.000000" fill-rule="evenodd"/>
		<path d="M8.31 12.81L23.68 12.81L23.68 13.93L8.31 13.93L8.31 12.81Z" fill="#FE4F35" fill-opacity="1.000000" fill-rule="evenodd"/>
		<path d="M18.74 16.26L16.49 20.39C16.42 20.52 16.32 20.6 16.18 20.65C16.04 20.7 15.91 20.69 15.77 20.64L13.15 19.51C12.86 19.39 12.73 19.06 12.85 18.77C12.98 18.48 13.3 18.35 13.59 18.48L15.75 19.4L17.75 15.73C17.9 15.45 18.24 15.35 18.51 15.5C18.79 15.65 18.89 15.99 18.74 16.26Z" fill="#FFFFFF" fill-opacity="1.000000" fill-rule="evenodd"/>
		<path d="M12.12 8.5L10.56 8.5C9 8.5 7.75 9.75 7.75 11.31L7.75 12.81L24.25 12.81L24.25 11.31C24.25 9.75 22.99 8.5 21.43 8.5L19.87 8.5L19.87 7.75C19.87 7.43 19.62 7.18 19.31 7.18C18.99 7.18 18.74 7.43 18.74 7.75L18.74 8.5L13.25 8.5L13.25 7.75C13.25 7.43 13 7.18 12.68 7.18C12.37 7.18 12.12 7.43 12.12 7.75L12.12 8.5Z" fill="#FFFFFF" fill-opacity="0" fill-rule="evenodd"/>
	</g>
</svg>
