<svg width="32.000000" height="32.000000" viewBox="0 0 32 32" fill="none" xmlns="http://www.w3.org/2000/svg" xmlns:xlink="http://www.w3.org/1999/xlink">
	<desc>
			Created with Pixso.
	</desc>
	<defs/>
	<path d="M16.61 8.53L16.76 8.65L26.04 17.5L26.04 24.94C26.04 26.72 24.65 28.18 22.89 28.28L22.69 28.29L9.3 28.29C7.51 28.29 6.06 26.89 5.95 25.13L5.95 24.94L5.95 17.5L15.23 8.65C15.61 8.28 16.2 8.25 16.61 8.53ZM16 18.52C14.21 18.52 12.75 19.91 12.65 21.67L12.65 21.87L12.65 26.05L19.34 26.05L19.34 21.87C19.34 20.02 17.84 18.52 16 18.52ZM13.09 6.07C14.82 4.59 17.4 4.64 19.07 6.22L27.65 14.36C28.01 14.79 28.08 15.52 27.69 15.94C27.26 16.39 26.56 16.4 26.11 15.98L17.53 7.84L17.41 7.73C16.54 7.03 15.28 7.06 14.46 7.84L5.88 15.98C5.43 16.31 4.7 16.35 4.3 15.94C3.88 15.49 3.9 14.78 4.34 14.36L12.92 6.22L13.09 6.07Z" fill="#FE4F35" fill-opacity="1.000000" fill-rule="nonzero"/>
	<path d="M16.76 8.65L26.04 17.5L26.04 24.94C26.04 26.72 24.65 28.18 22.89 28.28L22.69 28.29L9.3 28.29C7.51 28.29 6.06 26.89 5.95 25.13L5.95 24.94L5.95 17.5L15.23 8.65C15.61 8.28 16.2 8.25 16.61 8.53L16.76 8.65ZM12.65 21.67L12.65 21.87L12.65 26.05L19.34 26.05L19.34 21.87C19.34 20.02 17.84 18.52 16 18.52C14.21 18.52 12.75 19.91 12.65 21.67ZM19.07 6.22L27.65 14.36C28.01 14.79 28.08 15.52 27.69 15.94C27.26 16.39 26.56 16.4 26.11 15.98L17.53 7.84L17.41 7.73C16.54 7.03 15.28 7.06 14.46 7.84L5.88 15.98C5.43 16.31 4.7 16.35 4.3 15.94C3.88 15.49 3.9 14.78 4.34 14.36L12.92 6.22L13.09 6.07C14.82 4.59 17.4 4.64 19.07 6.22Z" stroke="#000000" stroke-opacity="0" stroke-width="1.000000"/>
</svg>
