<svg width="32.000000" height="32.000000" viewBox="0 0 32 32" fill="none" xmlns="http://www.w3.org/2000/svg" xmlns:xlink="http://www.w3.org/1999/xlink">
	<desc>
			Created with Pixso.
	</desc>
	<defs/>
	<g opacity="0.600000">
		<path d="M9.02 27.72C7.35 27.72 5.99 26.39 5.95 24.74L5.95 16.78L7.62 15.2L7.62 24.66C7.62 25.41 8.22 26.02 8.96 26.05L11.81 26.05L11.81 21.31C11.81 19.07 13.56 17.24 15.77 17.13L16 17.12C18.31 17.12 20.18 18.99 20.18 21.31L20.18 26.05L22.97 26.05C23.72 26.05 24.33 25.46 24.37 24.72L24.37 15.2L25.94 16.69L26.04 24.66C26.04 26.32 24.71 27.68 23.05 27.72L9.02 27.72ZM16 18.79C14.61 18.79 13.48 19.92 13.48 21.31L13.48 26.05L18.51 26.05L18.51 21.31C18.51 19.98 17.47 18.89 16.17 18.8L16 18.79ZM13.28 6C14.9 4.61 17.32 4.66 18.88 6.15L27.73 14.56C27.99 14.88 28.06 15.44 27.76 15.74C27.45 16.08 26.92 16.09 26.58 15.77L17.72 7.36L17.6 7.25C16.62 6.44 15.19 6.48 14.27 7.36L5.41 15.77C5.07 16.01 4.52 16.05 4.23 15.74C3.91 15.41 3.92 14.88 4.26 14.56L13.11 6.15L13.28 6Z" fill="#000000" fill-opacity="1.000000" fill-rule="nonzero"/>
		<path d="M5.95 24.74L5.95 16.78L7.62 15.2L7.62 24.66C7.62 25.41 8.22 26.02 8.96 26.05L11.81 26.05L11.81 21.31C11.81 19.07 13.56 17.24 15.77 17.13L16 17.12C18.31 17.12 20.18 18.99 20.18 21.31L20.18 26.05L22.97 26.05C23.72 26.05 24.33 25.46 24.37 24.72L24.37 15.2L25.94 16.69L26.04 24.66C26.04 26.32 24.71 27.68 23.05 27.72L9.02 27.72C7.35 27.72 5.99 26.39 5.95 24.74ZM13.48 21.31L13.48 26.05L18.51 26.05L18.51 21.31C18.51 19.98 17.47 18.89 16.17 18.8L16 18.79C14.61 18.79 13.48 19.92 13.48 21.31ZM18.88 6.15L27.73 14.56C27.99 14.88 28.06 15.44 27.76 15.74C27.45 16.08 26.92 16.09 26.58 15.77L17.72 7.36L17.6 7.25C16.62 6.44 15.19 6.48 14.27 7.36L5.41 15.77C5.07 16.01 4.52 16.05 4.23 15.74C3.91 15.41 3.92 14.88 4.26 14.56L13.11 6.15L13.28 6C14.9 4.61 17.32 4.66 18.88 6.15Z" stroke="#000000" stroke-opacity="0" stroke-width="1.000000"/>
	</g>
</svg>
