<svg width="32.000000" height="32.000000" viewBox="0 0 32 32" fill="none" xmlns="http://www.w3.org/2000/svg" xmlns:xlink="http://www.w3.org/1999/xlink">
	<desc>
			Created with Pixso.
	</desc>
	<defs/>
	<g opacity="0.600000">
		<path d="M15.84 4C19.45 4 22.38 6.93 22.38 10.54C22.38 14.07 19.6 16.94 16.11 17.08L15.84 17.09C14.8 17.09 13.8 17.24 12.86 17.54L12.57 17.63C12.37 17.7 12.17 17.78 11.98 17.86C11.93 17.88 11.88 17.9 11.84 17.92L11.98 17.86C11.9 17.9 11.92 17.89 11.84 17.92C11.75 17.96 11.65 18 11.56 18.05L11.84 17.92C11.73 17.97 11.51 18.07 11.4 18.12L11.56 18.05C11.48 18.09 11.49 18.08 11.4 18.12C11.3 18.18 11.19 18.23 11.08 18.29L11.4 18.12C11.32 18.16 11.16 18.25 11.08 18.29C10.92 18.38 10.74 18.48 10.58 18.58C10.52 18.62 10.46 18.66 10.39 18.7C10.25 18.8 10.11 18.89 9.97 18.99C9.88 19.06 9.8 19.12 9.71 19.19L9.97 18.99C9.9 19.05 9.79 19.13 9.71 19.19C9.63 19.25 9.56 19.31 9.48 19.37L9.71 19.19C9.62 19.26 9.57 19.3 9.48 19.37C9.4 19.44 9.32 19.51 9.25 19.58L9.48 19.37C9.4 19.44 9.32 19.51 9.25 19.58C9.17 19.65 9.09 19.72 9.01 19.79L9.25 19.58C9.18 19.63 9.07 19.73 9.01 19.79C8.84 19.95 8.68 20.11 8.52 20.28C8.4 20.42 8.28 20.56 8.16 20.7C8.1 20.76 8.05 20.83 7.99 20.9L8.16 20.7C8.1 20.77 8.05 20.83 7.99 20.9C7.93 20.98 7.87 21.07 7.8 21.15L7.99 20.9C7.92 21 7.78 21.18 7.71 21.28L7.8 21.15C7.74 21.24 7.68 21.32 7.62 21.41L7.71 21.28C7.65 21.36 7.67 21.33 7.62 21.41C7.56 21.5 7.5 21.58 7.44 21.67L7.62 21.41C7.56 21.5 7.42 21.71 7.36 21.81L7.44 21.67C7.39 21.75 7.41 21.72 7.36 21.81C7.17 22.11 7 22.42 6.84 22.75C6.82 22.79 6.8 22.83 6.78 22.88L6.84 22.75C6.8 22.84 6.76 22.93 6.71 23.03L6.78 22.88C6.74 22.96 6.75 22.94 6.71 23.03C6.67 23.14 6.62 23.24 6.58 23.35L6.71 23.03C6.67 23.12 6.62 23.25 6.58 23.35C6.54 23.44 6.51 23.53 6.47 23.62L6.58 23.35C6.53 23.47 6.46 23.65 6.42 23.76L6.47 23.62C6.45 23.68 6.44 23.7 6.42 23.76C6.27 24.19 6.15 24.62 6.06 25.07C6.05 25.14 6.04 25.21 6.02 25.28L6.06 25.07C6.04 25.18 6.04 25.17 6.02 25.28C6 25.38 5.99 25.49 5.97 25.6L6.02 25.28C6 25.4 5.97 25.64 5.95 25.76L5.97 25.6C5.96 25.7 5.94 25.8 5.93 25.9L5.95 25.76C5.94 25.86 5.93 25.96 5.92 26.06L5.93 25.9C5.92 26.02 5.91 26.15 5.9 26.28L5.92 26.06C5.89 26.28 5.88 26.5 5.87 26.72C5.87 26.83 5.87 26.94 5.87 27.05L5.87 26.72C5.87 26.83 5.87 26.94 5.87 27.05C5.87 27.57 5.45 28 4.93 28C4.41 28 4 27.58 4 27.06C4 26.81 4 26.57 4.02 26.32C4.02 26.26 4.03 26.2 4.03 26.13C4.03 26.08 4.04 26.03 4.04 25.98C4.05 25.92 4.05 25.86 4.06 25.8C4.07 25.74 4.08 25.67 4.08 25.61C4.09 25.56 4.09 25.52 4.1 25.47C4.15 25.12 4.21 24.77 4.29 24.43C4.32 24.28 4.37 24.09 4.41 23.93C4.43 23.85 4.46 23.78 4.48 23.7C4.5 23.62 4.55 23.46 4.58 23.38C4.59 23.34 4.61 23.29 4.62 23.24C4.64 23.19 4.66 23.13 4.68 23.07C4.7 23.02 4.72 22.97 4.74 22.92C4.82 22.71 4.9 22.51 4.99 22.3C5.1 22.04 5.23 21.77 5.37 21.52C5.4 21.46 5.43 21.4 5.46 21.34C5.49 21.29 5.58 21.14 5.61 21.09C5.64 21.04 5.67 20.98 5.7 20.93C5.76 20.83 5.89 20.63 5.95 20.54C6.05 20.39 6.15 20.25 6.25 20.11C6.36 19.96 6.56 19.7 6.68 19.55C6.72 19.5 6.85 19.34 6.9 19.29C6.97 19.22 7.12 19.05 7.18 18.98C7.41 18.73 7.68 18.47 7.93 18.24C7.99 18.19 8.05 18.14 8.11 18.08C8.18 18.03 8.31 17.92 8.37 17.87C8.41 17.84 8.54 17.74 8.57 17.71C8.64 17.65 8.72 17.6 8.79 17.54C8.85 17.49 8.97 17.41 9.03 17.36C9.13 17.3 9.32 17.17 9.42 17.11C9.47 17.07 9.52 17.04 9.57 17.01C9.61 16.98 9.66 16.95 9.71 16.92C9.79 16.88 9.94 16.78 10.02 16.74C10.1 16.69 10.24 16.62 10.32 16.58C10.38 16.55 10.54 16.46 10.6 16.44C11.02 16.23 11.56 16 12.01 15.85C10.36 14.66 9.29 12.73 9.29 10.54C9.29 6.93 12.22 4 15.84 4ZM20.99 16.39C24.95 18.3 27.68 22.36 27.68 27.06C27.68 27.58 27.26 28 26.75 28C26.23 28 25.81 27.58 25.81 27.06C25.81 22.69 23 18.97 19.09 17.63C19.78 17.31 20.42 16.89 20.99 16.39ZM15.84 5.87C13.26 5.87 11.16 7.96 11.16 10.54C11.16 13.12 13.26 15.22 15.84 15.22C18.42 15.22 20.51 13.12 20.51 10.54C20.51 7.96 18.42 5.87 15.84 5.87Z" fill="#000000" fill-opacity="1.000000" fill-rule="nonzero"/>
		<path d="M6.02 25.28C6 25.4 5.97 25.64 5.95 25.76C5.94 25.86 5.93 25.96 5.92 26.06C5.89 26.28 5.88 26.5 5.87 26.72C5.87 26.83 5.87 26.94 5.87 27.05C5.87 27.57 5.45 28 4.93 28C4.41 28 4 27.58 4 27.06C4 26.81 4 26.57 4.02 26.32C4.02 26.26 4.03 26.2 4.03 26.13C4.03 26.08 4.04 26.03 4.04 25.98C4.05 25.92 4.05 25.86 4.06 25.8C4.07 25.74 4.08 25.67 4.08 25.61C4.09 25.56 4.09 25.52 4.1 25.47C4.15 25.12 4.21 24.77 4.29 24.43C4.32 24.28 4.37 24.09 4.41 23.93C4.43 23.85 4.46 23.78 4.48 23.7C4.5 23.62 4.55 23.46 4.58 23.38C4.59 23.34 4.61 23.29 4.62 23.24C4.64 23.19 4.66 23.13 4.68 23.07C4.7 23.02 4.72 22.97 4.74 22.92C4.82 22.71 4.9 22.51 4.99 22.3C5.1 22.04 5.23 21.77 5.37 21.52C5.4 21.46 5.43 21.4 5.46 21.34C5.49 21.29 5.58 21.14 5.61 21.09C5.64 21.04 5.67 20.98 5.7 20.93C5.76 20.83 5.89 20.63 5.95 20.54C6.05 20.39 6.15 20.25 6.25 20.11C6.36 19.96 6.56 19.7 6.68 19.55C6.72 19.5 6.85 19.34 6.9 19.29C6.97 19.22 7.12 19.05 7.18 18.98C7.41 18.73 7.68 18.47 7.93 18.24C7.99 18.19 8.05 18.14 8.11 18.08C8.18 18.03 8.31 17.92 8.37 17.87C8.41 17.84 8.54 17.74 8.57 17.71C8.64 17.65 8.72 17.6 8.79 17.54C8.85 17.49 8.97 17.41 9.03 17.36C9.13 17.3 9.32 17.17 9.42 17.11C9.47 17.07 9.52 17.04 9.57 17.01C9.61 16.98 9.66 16.95 9.71 16.92C9.79 16.88 9.94 16.78 10.02 16.74C10.1 16.69 10.24 16.62 10.32 16.58C10.38 16.55 10.54 16.46 10.6 16.44C11.02 16.23 11.56 16 12.01 15.85C10.36 14.66 9.29 12.73 9.29 10.54C9.29 6.93 12.22 4 15.84 4C19.45 4 22.38 6.93 22.38 10.54C22.38 14.07 19.6 16.94 16.11 17.08L15.84 17.09C14.8 17.09 13.8 17.24 12.86 17.54L12.57 17.63C12.37 17.7 12.17 17.78 11.98 17.86C11.9 17.9 11.92 17.89 11.84 17.92M11.98 17.86C11.93 17.88 11.88 17.9 11.84 17.92C11.75 17.96 11.65 18 11.56 18.05C11.48 18.09 11.49 18.08 11.4 18.12C11.32 18.16 11.16 18.25 11.08 18.29M11.84 17.92L11.98 17.86M11.56 18.05L11.84 17.92M11.84 17.92C11.73 17.97 11.51 18.07 11.4 18.12M11.4 18.12L11.56 18.05M11.4 18.12C11.3 18.18 11.19 18.23 11.08 18.29C10.92 18.38 10.74 18.48 10.58 18.58C10.52 18.62 10.46 18.66 10.39 18.7C10.25 18.8 10.11 18.89 9.97 18.99C9.88 19.06 9.8 19.12 9.71 19.19M11.08 18.29L11.4 18.12M9.71 19.19L9.97 18.99M9.97 18.99C9.9 19.05 9.79 19.13 9.71 19.19C9.62 19.26 9.57 19.3 9.48 19.37M9.71 19.19C9.63 19.25 9.56 19.31 9.48 19.37C9.4 19.44 9.32 19.51 9.25 19.58C9.17 19.65 9.09 19.72 9.01 19.79C8.84 19.95 8.68 20.11 8.52 20.28C8.4 20.42 8.28 20.56 8.16 20.7C8.1 20.76 8.05 20.83 7.99 20.9C7.93 20.98 7.87 21.07 7.8 21.15C7.74 21.24 7.68 21.32 7.62 21.41C7.56 21.5 7.5 21.58 7.44 21.67C7.39 21.75 7.41 21.72 7.36 21.81M9.48 19.37L9.71 19.19M9.25 19.58L9.48 19.37M9.48 19.37C9.4 19.44 9.32 19.51 9.25 19.58M9.01 19.79L9.25 19.58M9.25 19.58C9.18 19.63 9.07 19.73 9.01 19.79M7.99 20.9L8.16 20.7M8.16 20.7C8.1 20.77 8.05 20.83 7.99 20.9M7.8 21.15L7.99 20.9M7.99 20.9C7.92 21 7.78 21.18 7.71 21.28C7.65 21.36 7.67 21.33 7.62 21.41M7.71 21.28L7.8 21.15M7.62 21.41L7.71 21.28M7.44 21.67L7.62 21.41M7.62 21.41C7.56 21.5 7.42 21.71 7.36 21.81C7.17 22.11 7 22.42 6.84 22.75C6.8 22.84 6.76 22.93 6.71 23.03C6.67 23.14 6.62 23.24 6.58 23.35C6.54 23.44 6.51 23.53 6.47 23.62C6.45 23.68 6.44 23.7 6.42 23.76M7.36 21.81L7.44 21.67M6.84 22.75C6.82 22.79 6.8 22.83 6.78 22.88C6.74 22.96 6.75 22.94 6.71 23.03M6.78 22.88L6.84 22.75M6.71 23.03L6.78 22.88M6.58 23.35L6.71 23.03M6.71 23.03C6.67 23.12 6.62 23.25 6.58 23.35M6.47 23.62L6.58 23.35M6.58 23.35C6.53 23.47 6.46 23.65 6.42 23.76C6.27 24.19 6.15 24.62 6.06 25.07C6.04 25.18 6.04 25.17 6.02 25.28M6.42 23.76L6.47 23.62M6.06 25.07C6.05 25.14 6.04 25.21 6.02 25.28C6 25.38 5.99 25.49 5.97 25.6C5.96 25.7 5.94 25.8 5.93 25.9C5.92 26.02 5.91 26.15 5.9 26.28L5.92 26.06M6.02 25.28L6.06 25.07M5.97 25.6L6.02 25.28M5.95 25.76L5.97 25.6M5.93 25.9L5.95 25.76M5.92 26.06L5.93 25.9M5.87 26.72C5.87 26.83 5.87 26.94 5.87 27.05M5.87 27.05L5.87 26.72M27.68 27.06C27.68 27.58 27.26 28 26.75 28C26.23 28 25.81 27.58 25.81 27.06C25.81 22.69 23 18.97 19.09 17.63C19.78 17.31 20.42 16.89 20.99 16.39C24.95 18.3 27.68 22.36 27.68 27.06ZM11.16 10.54C11.16 13.12 13.26 15.22 15.84 15.22C18.42 15.22 20.51 13.12 20.51 10.54C20.51 7.96 18.42 5.87 15.84 5.87C13.26 5.87 11.16 7.96 11.16 10.54Z" stroke="#000000" stroke-opacity="0" stroke-width="1.000000"/>
	</g>
</svg>
