<svg width="32.000000" height="32.000000" viewBox="0 0 32 32" fill="none" xmlns="http://www.w3.org/2000/svg" xmlns:xlink="http://www.w3.org/1999/xlink">
	<desc>
			Created with Pixso.
	</desc>
	<defs/>
	<path d="M6 12L26 12L26 24C26 25.1 25.1 26 24 26L8 26C6.89 26 6 25.1 6 24L6 12Z" fill="#FFCCC4" fill-opacity="1.000000" fill-rule="evenodd"/>
	<path d="M27 23.25L27 9.75C27 9.47 26.97 9.19 26.91 8.93C26.86 8.71 26.79 8.49 26.7 8.28C26.51 7.83 26.24 7.44 25.9 7.09C25.72 6.91 25.52 6.75 25.31 6.61C25.12 6.49 24.92 6.38 24.7 6.29C24.24 6.09 23.75 6 23.25 6L8.75 6C8.46 6 8.19 6.03 7.92 6.09C7.7 6.13 7.49 6.2 7.28 6.29C7.07 6.38 6.86 6.49 6.67 6.62C6.47 6.75 6.27 6.91 6.09 7.09C5.91 7.27 5.75 7.47 5.62 7.67C5.49 7.86 5.38 8.07 5.29 8.28C5.2 8.49 5.13 8.7 5.09 8.92C5.03 9.19 5 9.46 5 9.75L5 23.25C5 23.75 5.09 24.24 5.29 24.7C5.38 24.92 5.49 25.12 5.61 25.31C5.75 25.52 5.91 25.72 6.09 25.9C6.44 26.24 6.83 26.51 7.28 26.7C7.75 26.9 8.24 27 8.75 27L23.25 27C23.52 27 23.78 26.97 24.04 26.91C24.27 26.86 24.49 26.79 24.7 26.7C25.15 26.51 25.55 26.24 25.9 25.9C26.24 25.55 26.51 25.15 26.7 24.7C26.9 24.24 27 23.75 27 23.25ZM25.32 8.87C25.44 9.15 25.5 9.44 25.5 9.75L25.5 23.25C25.5 23.42 25.48 23.58 25.44 23.75C25.41 23.87 25.37 24 25.32 24.12C25.2 24.39 25.04 24.63 24.84 24.84C24.63 25.04 24.39 25.2 24.12 25.32C23.84 25.44 23.55 25.5 23.25 25.5L8.75 25.5C8.57 25.5 8.39 25.48 8.23 25.44C8.1 25.41 7.99 25.37 7.87 25.32C7.74 25.27 7.63 25.2 7.52 25.13C7.39 25.05 7.27 24.95 7.15 24.84C7.04 24.72 6.94 24.6 6.86 24.47C6.79 24.36 6.72 24.24 6.67 24.12C6.55 23.84 6.5 23.55 6.5 23.25L6.5 9.75C6.5 9.56 6.52 9.39 6.56 9.22C6.58 9.1 6.62 8.98 6.67 8.87C6.72 8.74 6.79 8.62 6.86 8.51C6.95 8.38 7.04 8.26 7.15 8.15C7.26 8.04 7.38 7.95 7.51 7.86C7.62 7.79 7.74 7.72 7.87 7.67C7.98 7.62 8.1 7.58 8.22 7.56C8.39 7.52 8.56 7.5 8.75 7.5L23.25 7.5C23.55 7.5 23.84 7.55 24.12 7.67C24.24 7.72 24.36 7.79 24.47 7.86C24.6 7.94 24.72 8.04 24.84 8.15C24.95 8.27 25.05 8.39 25.13 8.52C25.2 8.63 25.27 8.74 25.32 8.87Z" fill="#FE4F35" fill-opacity="1.000000" fill-rule="evenodd"/>
	<path d="M12.33 5L12.33 7.76C12.33 8.18 11.99 8.51 11.58 8.51C11.16 8.51 10.83 8.18 10.83 7.76L10.83 5C10.83 4.58 11.16 4.25 11.58 4.25C11.99 4.25 12.33 4.58 12.33 5ZM21.16 5C21.16 4.58 20.83 4.25 20.41 4.25C19.98 4.25 19.66 4.58 19.66 5L19.66 7.76C19.66 8.18 19.98 8.51 20.41 8.51C20.83 8.51 21.16 8.18 21.16 7.76L21.16 5Z" fill="#FE4F35" fill-opacity="1.000000" fill-rule="evenodd"/>
	<path d="M5.75 11.75L26.25 11.75L26.25 13.25L5.75 13.25L5.75 11.75Z" fill="#FE4F35" fill-opacity="1.000000" fill-rule="evenodd"/>
	<path d="M19.65 16.35L16.65 21.85C16.56 22.02 16.42 22.14 16.24 22.2C16.06 22.27 15.88 22.26 15.7 22.18L12.2 20.68C11.81 20.52 11.64 20.09 11.81 19.7C11.97 19.31 12.4 19.14 12.79 19.31L15.66 20.54L18.34 15.64C18.54 15.27 18.99 15.14 19.35 15.34C19.72 15.54 19.85 15.99 19.65 16.35Z" fill="#FFFFFF" fill-opacity="1.000000" fill-rule="evenodd"/>
	<path d="M10.83 6L8.75 6C6.67 6 5 7.67 5 9.75L5 11.75L27 11.75L27 9.75C27 7.67 25.32 6 23.25 6L21.16 6L21.16 5C21.16 4.58 20.83 4.25 20.41 4.25C19.98 4.25 19.66 4.58 19.66 5L19.66 6L12.33 6L12.33 5C12.33 4.58 11.99 4.25 11.58 4.25C11.16 4.25 10.83 4.58 10.83 5L10.83 6Z" fill="#FFFFFF" fill-opacity="0" fill-rule="evenodd"/>
</svg>
