<svg width="32.000000" height="32.000000" viewBox="0 0 32 32" fill="none" xmlns="http://www.w3.org/2000/svg" xmlns:xlink="http://www.w3.org/1999/xlink">
	<desc>
			Created with Pixso.
	</desc>
	<defs/>
	<g opacity="0.600000">
		<path d="M9.49 22.45L22.5 22.45C22.67 22.45 22.84 22.43 23.01 22.39C23.13 22.36 23.25 22.32 23.37 22.27C23.49 22.22 23.61 22.15 23.72 22.08C23.85 22 23.97 21.9 24.09 21.79C24.2 21.67 24.3 21.55 24.38 21.42C24.45 21.31 24.52 21.19 24.57 21.07C24.62 20.95 24.66 20.83 24.69 20.71C24.73 20.54 24.75 20.37 24.75 20.2L24.75 8.2C24.75 8.02 24.73 7.85 24.69 7.68C24.66 7.56 24.62 7.44 24.57 7.32C24.52 7.2 24.45 7.08 24.38 6.97C24.3 6.84 24.2 6.72 24.09 6.6C23.97 6.49 23.85 6.39 23.72 6.31C23.61 6.24 23.49 6.17 23.37 6.12C23.25 6.07 23.13 6.03 23.01 6C22.84 5.96 22.67 5.95 22.5 5.95L22.25 5.95L22.25 13.7C22.25 13.9 22.17 14.08 22.03 14.23C21.88 14.37 21.7 14.45 21.5 14.45C21.41 14.45 21.32 14.43 21.24 14.4C21.15 14.37 21.08 14.32 21.01 14.27L18.16 11.84C18.13 11.82 18.02 11.79 18 11.78C17.96 11.78 17.86 11.83 17.83 11.84L14.98 14.27C14.82 14.4 14.64 14.46 14.43 14.44C14.23 14.43 14.06 14.34 13.92 14.18C13.87 14.11 13.82 14.04 13.79 13.95Q13.77 13.89 13.76 13.83Q13.75 13.76 13.75 13.7L13.75 5.95L9.5 5.95C9.32 5.95 9.15 5.96 8.98 6C8.86 6.03 8.74 6.07 8.62 6.12C8.5 6.17 8.38 6.24 8.27 6.31C8.14 6.39 8.02 6.49 7.9 6.6C7.79 6.72 7.69 6.84 7.61 6.97C7.54 7.08 7.47 7.2 7.42 7.32C7.37 7.44 7.33 7.56 7.3 7.68C7.26 7.85 7.25 8.02 7.25 8.2L7.25 23.8C7.25 23.97 7.26 24.14 7.3 24.31C7.33 24.43 7.37 24.55 7.42 24.67C7.47 24.79 7.54 24.91 7.61 25.02C7.69 25.15 7.79 25.27 7.9 25.39C8.02 25.5 8.14 25.6 8.27 25.68C8.38 25.75 8.5 25.82 8.62 25.87C8.74 25.92 8.86 25.96 8.98 25.99C9.15 26.03 9.32 26.05 9.5 26.05L25.5 26.05C25.92 26.05 26.25 26.38 26.25 26.8C26.25 27.22 25.92 27.55 25.5 27.55L9.5 27.55C9.22 27.55 8.95 27.52 8.69 27.46C8.46 27.41 8.25 27.34 8.04 27.25C7.82 27.16 7.62 27.05 7.43 26.93C7.22 26.79 7.02 26.63 6.84 26.45C6.66 26.27 6.5 26.07 6.36 25.86C6.24 25.67 6.13 25.47 6.04 25.25C5.95 25.04 5.88 24.83 5.83 24.6C5.77 24.34 5.75 24.07 5.75 23.8L5.75 8.2C5.75 7.92 5.77 7.65 5.83 7.39C5.88 7.16 5.95 6.95 6.04 6.74C6.13 6.52 6.24 6.32 6.36 6.13C6.5 5.92 6.66 5.72 6.84 5.54C7.02 5.36 7.22 5.2 7.43 5.06C7.62 4.94 7.82 4.83 8.04 4.74C8.25 4.65 8.46 4.58 8.69 4.53C8.95 4.47 9.22 4.45 9.5 4.45L22.5 4.45Q22.91 4.45 23.3 4.53L23.3 4.53C23.53 4.58 23.74 4.65 23.95 4.74C24.17 4.83 24.37 4.94 24.56 5.06C24.77 5.2 24.97 5.36 25.15 5.54C25.33 5.72 25.49 5.92 25.63 6.13C25.75 6.32 25.86 6.52 25.95 6.74C26.04 6.95 26.11 7.16 26.16 7.39Q26.25 7.78 26.25 8.2L26.25 20.2Q26.25 20.61 26.16 21C26.11 21.23 26.04 21.44 25.95 21.65C25.86 21.87 25.75 22.07 25.63 22.26Q25.42 22.57 25.15 22.85C24.97 23.03 24.77 23.19 24.56 23.33C24.37 23.45 24.17 23.56 23.95 23.65Q23.64 23.78 23.3 23.86L23.3 23.86Q22.91 23.95 22.5 23.95L9.49 23.95C9.07 23.95 8.74 23.62 8.74 23.2C8.74 22.78 9.07 22.45 9.49 22.45ZM15.25 5.95L15.25 12.07L16.86 10.7C16.95 10.63 17.04 10.56 17.13 10.51C17.22 10.46 17.31 10.42 17.4 10.39C17.49 10.35 17.59 10.33 17.68 10.31C17.79 10.29 17.89 10.28 18 10.28C18.1 10.28 18.2 10.29 18.31 10.31C18.4 10.33 18.5 10.35 18.59 10.39C18.68 10.42 18.77 10.46 18.86 10.51L18.86 10.51Q19 10.59 19.13 10.7L20.75 12.07L20.75 5.95L15.25 5.95Z" fill="#000000" fill-opacity="1.000000" fill-rule="evenodd"/>
	</g>
</svg>
