<svg width="32.000000" height="32.000000" viewBox="0 0 32 32" fill="none" xmlns="http://www.w3.org/2000/svg" xmlns:xlink="http://www.w3.org/1999/xlink">
	<desc>
			Created with Pixso.
	</desc>
	<defs/>
	<path d="M22.36 5.19C24.15 5.19 25.6 6.67 25.6 8.49L25.6 20.49C25.6 22.32 24.15 23.79 22.36 23.79L9.62 23.79C9.46 23.79 9.33 23.66 9.33 23.49C9.33 23.33 9.46 23.2 9.62 23.2L22.36 23.2C23.82 23.2 25.01 21.99 25.01 20.49L25.01 8.49C25.01 7 23.82 5.79 22.36 5.79L9.63 5.79C8.17 5.79 6.98 7 6.98 8.49L6.98 24.1C6.98 25.59 8.17 26.79 9.63 26.79L25.3 26.79C25.46 26.79 25.6 26.93 25.6 27.1C25.6 27.26 25.46 27.4 25.3 27.4L9.63 27.4C7.84 27.4 6.4 25.92 6.4 24.1L6.4 8.49C6.4 6.67 7.84 5.19 9.63 5.19L22.36 5.19Z" fill="#FE4F35" fill-opacity="1.000000" fill-rule="nonzero"/>
	<path d="M9.5 4.9L22.5 4.9C24.15 4.9 25.8 6.49 25.8 8.15L25.8 20.2C25.8 21.85 24.15 23.5 22.5 23.5L6.19 23.5L6.19 8.15C6.19 6.49 7.84 4.9 9.5 4.9Z" fill="#FE4F35" fill-opacity="1.000000" fill-rule="nonzero"/>
	<path d="M14.5 5.2L21.5 5.2L21.5 13.7L18.64 11.27C18.27 10.95 17.72 10.95 17.35 11.27L14.5 13.7L14.5 5.2Z" fill="#FFCCC4" fill-opacity="1.000000" fill-rule="evenodd"/>
</svg>
