<svg width="32.000000" height="32.000000" viewBox="0 0 32 32" fill="none" xmlns="http://www.w3.org/2000/svg" xmlns:xlink="http://www.w3.org/1999/xlink">
	<desc>
			Created with Pixso.
	</desc>
	<defs/>
	<path d="M5.61 22.93C6.39 21.34 8.42 16.6 16.34 16.6C24.26 16.6 26.32 21.34 27.07 22.93C27.35 23.53 27.55 24.34 27.65 25.35C27.79 26.66 26.83 27.84 25.52 27.98C25.43 27.99 25.35 28 25.27 28L7.4 28C6.07 28 5 26.92 5 25.6C5 25.51 5 25.43 5.01 25.35C5.11 24.34 5.31 23.53 5.61 22.93ZM16.34 4C13.19 4 10.64 6.55 10.64 9.7C10.64 12.84 13.19 15.4 16.34 15.4C19.49 15.4 22.04 12.84 22.04 9.7C22.04 6.55 19.49 4 16.34 4Z" fill="#FE4F35" fill-opacity="1.000000" fill-rule="nonzero"/>
	<path d="M16.34 16.6C24.26 16.6 26.32 21.34 27.07 22.93C27.35 23.53 27.55 24.34 27.65 25.35C27.79 26.66 26.83 27.84 25.52 27.98C25.43 27.99 25.35 28 25.27 28L7.4 28C6.07 28 5 26.92 5 25.6C5 25.51 5 25.43 5.01 25.35C5.11 24.34 5.31 23.53 5.61 22.93C6.39 21.34 8.42 16.6 16.34 16.6ZM10.64 9.7C10.64 12.84 13.19 15.4 16.34 15.4C19.49 15.4 22.04 12.84 22.04 9.7C22.04 6.55 19.49 4 16.34 4C13.19 4 10.64 6.55 10.64 9.7Z" stroke="#000000" stroke-opacity="0" stroke-width="1.000000"/>
</svg>
