<svg width="9.000000" height="10.777458" viewBox="0 0 9 10.7775" fill="none" xmlns="http://www.w3.org/2000/svg" xmlns:xlink="http://www.w3.org/1999/xlink">
	<desc>
			Created with Pixso.
	</desc>
	<defs/>
	<path d="M0 6.54C0 5.69 0.42 4.53 0.68 3.89C0.73 3.77 0.91 3.81 0.93 3.93C0.94 4.03 0.96 4.13 0.99 4.22C1.09 4.58 1.31 4.83 1.31 4.83C1.31 4.83 2.06 3.82 2.42 2.6C2.71 1.62 2.75 0.51 2.75 0.11C2.75 0.03 2.82 -0.02 2.89 0C3.35 0.15 4.76 0.65 5.75 1.57C6.95 2.67 7.52 4.37 7.52 4.37C7.52 4.37 7.72 4.06 7.79 3.69C7.82 3.56 7.84 3.41 7.84 3.28C7.84 3.17 7.99 3.12 8.05 3.22C8.39 3.78 9 5.01 9 6.54C9 8.48 7.76 10.13 6.04 10.76C5.96 10.79 5.89 10.73 5.9 10.65C5.96 10.12 6.1 8.97 5.82 8.22C5.57 7.53 5.04 7.07 4.71 6.84C4.58 6.74 4.4 6.84 4.37 7C4.32 7.24 4.23 7.56 4.05 7.89C3.84 8.27 3.4 8.58 3.26 8.97C2.99 9.72 3.05 10.31 3.1 10.65C3.11 10.73 3.04 10.79 2.96 10.77C1.23 10.14 0 8.48 0 6.54Z" fill="#FFFFFF" fill-opacity="1.000000" fill-rule="evenodd"/>
</svg>
