<svg width="16.000000" height="16.000000" viewBox="0 0 16 16" fill="none" xmlns="http://www.w3.org/2000/svg" xmlns:xlink="http://www.w3.org/1999/xlink">
	<desc>
			Created with Pixso.
	</desc>
	<defs>
		<clipPath id="clip37_1708">
			<rect width="16.000000" height="16.000000" fill="white" fill-opacity="0"/>
		</clipPath>
	</defs>
	<g opacity="0.600000">
		<g clip-path="url(#clip37_1708)">
			<path d="M8 0.5C3.85 0.5 0.5 3.85 0.5 8C0.5 12.14 3.85 15.5 8 15.5C12.14 15.5 15.5 12.14 15.5 8C15.5 3.85 12.14 0.5 8 0.5ZM8 1.5C4.41 1.5 1.5 4.41 1.5 8C1.5 11.58 4.41 14.5 8 14.5C11.58 14.5 14.5 11.58 14.5 8C14.5 4.41 11.58 1.5 8 1.5ZM6.14 11.84C5.94 11.64 5.95 11.33 6.15 11.14L9.37 8L6.15 4.85C5.95 4.66 5.94 4.35 6.14 4.15C6.33 3.95 6.64 3.94 6.84 4.14L10.44 7.65C10.54 7.74 10.59 7.86 10.58 8C10.58 8.14 10.53 8.26 10.43 8.35L6.84 11.85C6.64 12.05 6.33 12.04 6.14 11.84Z" fill="#000000" fill-opacity="0.898039" fill-rule="evenodd"/>
		</g>
	</g>
</svg>
