<svg width="20.812256" height="21.000000" viewBox="0 0 20.8123 21" fill="none" xmlns="http://www.w3.org/2000/svg" xmlns:xlink="http://www.w3.org/1999/xlink">
	<desc>
			Created with Pixso.
	</desc>
	<defs>
		<filter id="filter_37_1707_dd" x="1.166656" y="2.166672" width="19.645599" height="18.833328" filterUnits="userSpaceOnUse" color-interpolation-filters="sRGB">
			<feFlood flood-opacity="0" result="BackgroundImageFix"/>
			<feColorMatrix in="SourceAlpha" type="matrix" values="0 0 0 0 0 0 0 0 0 0 0 0 0 0 0 0 0 0 127 0" result="hardAlpha"/>
			<feOffset dx="1" dy="2"/>
			<feGaussianBlur stdDeviation="1.33333"/>
			<feComposite in2="hardAlpha" operator="out" k2="-1" k3="1"/>
			<feColorMatrix type="matrix" values="0 0 0 0 0 0 0 0 0 0 0 0 0 0 0 0 0 0 0.1 0"/>
			<feBlend mode="normal" in2="BackgroundImageFix" result="effect_dropShadow_1"/>
			<feBlend mode="normal" in="SourceGraphic" in2="effect_dropShadow_1" result="shape"/>
		</filter>
	</defs>
	<g filter="url(#filter_37_1707_dd)">
		<path d="M10.3 5.81L10.37 5.86L14.88 9.98L14.88 13.44C14.88 14.27 14.2 14.95 13.35 14.99L13.25 15L6.74 15C5.87 15 5.16 14.35 5.11 13.53L5.11 13.44L5.11 9.98L9.62 5.86C9.81 5.69 10.09 5.67 10.3 5.81ZM10 10.45C9.13 10.45 8.42 11.1 8.37 11.92L8.37 12.01L8.37 13.96L11.62 13.96L11.62 12.01C11.62 11.15 10.89 10.45 10 10.45ZM8.58 4.66C9.42 3.97 10.68 4 11.49 4.73L15.66 8.52C15.83 8.72 15.87 9.06 15.68 9.25C15.47 9.46 15.13 9.47 14.91 9.27L10.74 5.49L10.68 5.43C10.26 5.11 9.65 5.12 9.25 5.49L5.08 9.27C4.86 9.43 4.5 9.44 4.31 9.25C4.1 9.04 4.11 8.71 4.33 8.52L8.5 4.73L8.58 4.66Z" fill="#000000" fill-opacity="1.000000" fill-rule="nonzero"/>
		<path d="M10.37 5.86L14.88 9.98L14.88 13.44C14.88 14.27 14.2 14.95 13.35 14.99L13.25 15L6.74 15C5.87 15 5.16 14.35 5.11 13.53L5.11 13.44L5.11 9.98L9.62 5.86C9.81 5.69 10.09 5.67 10.3 5.81L10.37 5.86ZM8.37 11.92L8.37 12.01L8.37 13.96L11.62 13.96L11.62 12.01C11.62 11.15 10.89 10.45 10 10.45C9.13 10.45 8.42 11.1 8.37 11.92ZM11.49 4.73L15.66 8.52C15.83 8.72 15.87 9.06 15.68 9.25C15.47 9.46 15.13 9.47 14.91 9.27L10.74 5.49L10.68 5.43C10.26 5.11 9.65 5.12 9.25 5.49L5.08 9.27C4.86 9.43 4.5 9.44 4.31 9.25C4.1 9.04 4.11 8.71 4.33 8.52L8.5 4.73L8.58 4.66C9.42 3.97 10.68 4 11.49 4.73Z" stroke="#000000" stroke-opacity="0" stroke-width="1.000000"/>
	</g>
	<rect rx="9.500000" width="19.000000" height="19.000000" transform="translate(0.500000 0.500000)" stroke="#000000" stroke-opacity="1.000000" stroke-width="1.000000"/>
</svg>
