<svg width="36.000000" height="36.000000" viewBox="0 0 36 36" fill="none" xmlns="http://www.w3.org/2000/svg" xmlns:xlink="http://www.w3.org/1999/xlink">
	<desc>
			Created with Pixso.
	</desc>
	<defs>
		<filter id="filter_36_4385_dd" x="0.000000" y="0.000000" width="36.000000" height="36.000000" filterUnits="userSpaceOnUse" color-interpolation-filters="sRGB">
			<feFlood flood-opacity="0" result="BackgroundImageFix"/>
			<feGaussianBlur in="BackgroundImage" stdDeviation="1.99874"/>
			<feComposite in2="SourceAlpha" operator="in" result="effect_backgroundBlur_1"/>
			<feColorMatrix in="SourceAlpha" type="matrix" values="0 0 0 0 0 0 0 0 0 0 0 0 0 0 0 0 0 0 127 0" result="hardAlpha"/>
			<feOffset dx="2" dy="-2"/>
			<feGaussianBlur stdDeviation="2"/>
			<feComposite in2="hardAlpha" operator="out" k2="-1" k3="1"/>
			<feColorMatrix type="matrix" values="0 0 0 0 0.84706 0 0 0 0 0.50588 0 0 0 0 0.16863 0 0 0 0.2 0"/>
			<feBlend mode="normal" in2="effect_backgroundBlur_1" result="effect_dropShadow_2"/>
			<feBlend mode="normal" in="SourceGraphic" in2="effect_dropShadow_2" result="shape"/>
			<feColorMatrix in="SourceAlpha" type="matrix" values="0 0 0 0 0 0 0 0 0 0 0 0 0 0 0 0 0 0 127 0" result="hardAlpha"/>
			<feOffset dx="0" dy="0"/>
			<feGaussianBlur stdDeviation="1.66667"/>
			<feComposite in2="hardAlpha" operator="arithmetic" k2="-1" k3="1"/>
			<feColorMatrix type="matrix" values="0 0 0 0 1 0 0 0 0 1 0 0 0 0 1 0 0 0 1 0"/>
			<feBlend mode="normal" in2="shape" result="effect_innerShadow_3"/>
		</filter>
	</defs>
	<g filter="url(#filter_36_4385_dd)">
		<rect rx="12.000000" width="24.000000" height="24.000000" transform="translate(4.000000 8.000000)" fill="#FE4F35" fill-opacity="1.000000"/>
		<path d="M9.63 17.26L22.36 17.26L22.36 24.65C22.36 25.33 21.79 25.88 21.09 25.88L10.9 25.88C10.2 25.88 9.63 25.33 9.63 24.65L9.63 17.26Z" fill="#FFCCC4" fill-opacity="1.000000" fill-rule="evenodd"/>
		<path d="M23 24.19L23 15.88C23 15.71 22.98 15.54 22.94 15.38C22.91 15.24 22.86 15.11 22.81 14.98C22.69 14.7 22.52 14.46 22.3 14.25C22.18 14.14 22.06 14.04 21.92 13.95C21.8 13.88 21.67 13.81 21.54 13.75C21.24 13.63 20.93 13.57 20.61 13.57L11.38 13.57C11.2 13.57 11.03 13.59 10.86 13.63C10.72 13.66 10.58 13.7 10.45 13.75C10.31 13.81 10.18 13.88 10.06 13.95C9.93 14.04 9.81 14.14 9.69 14.25C9.58 14.36 9.48 14.48 9.39 14.6C9.31 14.72 9.24 14.85 9.18 14.98C9.13 15.11 9.08 15.24 9.05 15.37C9.01 15.54 9 15.71 9 15.88L9 24.19C9 24.5 9.06 24.8 9.18 25.09C9.24 25.22 9.31 25.34 9.39 25.46C9.48 25.59 9.58 25.71 9.69 25.82C9.91 26.03 10.17 26.2 10.45 26.31C10.75 26.43 11.06 26.5 11.38 26.5L20.61 26.5C20.78 26.5 20.95 26.48 21.12 26.44C21.26 26.41 21.4 26.37 21.54 26.31C21.82 26.2 22.08 26.03 22.3 25.82C22.52 25.61 22.69 25.36 22.81 25.09C22.93 24.8 23 24.5 23 24.19ZM21.93 15.34C22 15.51 22.04 15.69 22.04 15.88L22.04 24.19C22.04 24.29 22.03 24.4 22.01 24.5C21.99 24.57 21.96 24.65 21.93 24.73C21.86 24.89 21.75 25.04 21.62 25.17C21.49 25.29 21.34 25.39 21.17 25.46C20.99 25.54 20.8 25.57 20.61 25.57L11.38 25.57C11.27 25.57 11.16 25.56 11.05 25.54C10.97 25.52 10.9 25.49 10.82 25.46C10.74 25.43 10.67 25.39 10.6 25.35C10.52 25.3 10.44 25.24 10.37 25.17C10.3 25.1 10.24 25.02 10.18 24.94C10.14 24.88 10.1 24.8 10.06 24.73C9.99 24.55 9.95 24.38 9.95 24.19L9.95 15.88C9.95 15.77 9.96 15.66 9.99 15.55C10.01 15.48 10.03 15.41 10.06 15.34C10.1 15.26 10.14 15.19 10.18 15.12C10.24 15.04 10.3 14.97 10.37 14.9C10.44 14.83 10.51 14.77 10.6 14.72C10.67 14.68 10.74 14.64 10.82 14.6C10.9 14.57 10.97 14.55 11.05 14.53C11.15 14.51 11.27 14.5 11.38 14.5L20.61 14.5C20.8 14.5 20.99 14.53 21.17 14.6C21.24 14.64 21.32 14.67 21.39 14.72C21.47 14.77 21.55 14.83 21.62 14.9C21.69 14.97 21.76 15.04 21.81 15.12C21.86 15.19 21.89 15.26 21.93 15.34Z" fill="#FFFFFF" fill-opacity="1.000000" fill-rule="evenodd"/>
		<path d="M13.66 12.96L13.66 14.66C13.66 14.92 13.45 15.12 13.18 15.12C12.92 15.12 12.71 14.92 12.71 14.66L12.71 12.96C12.71 12.7 12.92 12.5 13.18 12.5C13.45 12.5 13.66 12.7 13.66 12.96ZM19.28 12.96C19.28 12.7 19.07 12.5 18.8 12.5C18.53 12.5 18.32 12.7 18.32 12.96L18.32 14.66C18.32 14.92 18.53 15.12 18.8 15.12C19.07 15.12 19.28 14.92 19.28 14.66L19.28 12.96Z" fill="#FFFFFF" fill-opacity="1.000000" fill-rule="evenodd"/>
		<path d="M9.47 17.11L22.52 17.11L22.52 18.03L9.47 18.03L9.47 17.11Z" fill="#FFFFFF" fill-opacity="1.000000" fill-rule="evenodd"/>
		<path d="M18.32 19.95L16.41 23.33C16.36 23.44 16.27 23.51 16.15 23.55C16.03 23.59 15.92 23.58 15.81 23.53L13.58 22.61C13.33 22.51 13.22 22.24 13.33 22.01C13.43 21.77 13.71 21.66 13.96 21.76L15.78 22.52L17.49 19.5C17.61 19.28 17.9 19.2 18.13 19.32C18.37 19.44 18.45 19.72 18.32 19.95Z" fill="#FFFFFF" fill-opacity="1.000000" fill-rule="evenodd"/>
		<path d="M12.71 13.57L11.38 13.57C10.06 13.57 9 14.61 9 15.88L9 17.11L23 17.11L23 15.88C23 14.61 21.93 13.57 20.61 13.57L19.28 13.57L19.28 12.96C19.28 12.7 19.07 12.5 18.8 12.5C18.53 12.5 18.32 12.7 18.32 12.96L18.33 13.57L13.66 13.57L13.66 12.96C13.66 12.7 13.45 12.5 13.18 12.5C12.92 12.5 12.71 12.7 12.71 12.96L12.71 13.57Z" fill="#FFFFFF" fill-opacity="0" fill-rule="evenodd"/>
	</g>
</svg>
