<svg width="36.000000" height="36.000000" viewBox="0 0 36 36" fill="none" xmlns="http://www.w3.org/2000/svg" xmlns:xlink="http://www.w3.org/1999/xlink">
	<desc>
			Created with Pixso.
	</desc>
	<defs>
		<filter id="filter_36_4380_dd" x="0.000000" y="0.000000" width="36.000000" height="36.000000" filterUnits="userSpaceOnUse" color-interpolation-filters="sRGB">
			<feFlood flood-opacity="0" result="BackgroundImageFix"/>
			<feGaussianBlur in="BackgroundImage" stdDeviation="1.99874"/>
			<feComposite in2="SourceAlpha" operator="in" result="effect_backgroundBlur_1"/>
			<feColorMatrix in="SourceAlpha" type="matrix" values="0 0 0 0 0 0 0 0 0 0 0 0 0 0 0 0 0 0 127 0" result="hardAlpha"/>
			<feOffset dx="2" dy="-2"/>
			<feGaussianBlur stdDeviation="2"/>
			<feComposite in2="hardAlpha" operator="out" k2="-1" k3="1"/>
			<feColorMatrix type="matrix" values="0 0 0 0 0.84706 0 0 0 0 0.50588 0 0 0 0 0.16863 0 0 0 0.2 0"/>
			<feBlend mode="normal" in2="effect_backgroundBlur_1" result="effect_dropShadow_2"/>
			<feBlend mode="normal" in="SourceGraphic" in2="effect_dropShadow_2" result="shape"/>
			<feColorMatrix in="SourceAlpha" type="matrix" values="0 0 0 0 0 0 0 0 0 0 0 0 0 0 0 0 0 0 127 0" result="hardAlpha"/>
			<feOffset dx="0" dy="0"/>
			<feGaussianBlur stdDeviation="1.66667"/>
			<feComposite in2="hardAlpha" operator="arithmetic" k2="-1" k3="1"/>
			<feColorMatrix type="matrix" values="0 0 0 0 1 0 0 0 0 1 0 0 0 0 1 0 0 0 1 0"/>
			<feBlend mode="normal" in2="shape" result="effect_innerShadow_3"/>
		</filter>
		<filter id="filter_36_4381_dd" x="6.000000" y="11.000000" width="21.974701" height="21.000000" filterUnits="userSpaceOnUse" color-interpolation-filters="sRGB">
			<feFlood flood-opacity="0" result="BackgroundImageFix"/>
			<feColorMatrix in="SourceAlpha" type="matrix" values="0 0 0 0 0 0 0 0 0 0 0 0 0 0 0 0 0 0 127 0" result="hardAlpha"/>
			<feOffset dx="1" dy="2"/>
			<feGaussianBlur stdDeviation="1.33333"/>
			<feComposite in2="hardAlpha" operator="out" k2="-1" k3="1"/>
			<feColorMatrix type="matrix" values="0 0 0 0 0 0 0 0 0 0 0 0 0 0 0 0 0 0 0.1 0"/>
			<feBlend mode="normal" in2="BackgroundImageFix" result="effect_dropShadow_1"/>
			<feBlend mode="normal" in="SourceGraphic" in2="effect_dropShadow_1" result="shape"/>
		</filter>
	</defs>
	<g filter="url(#filter_36_4380_dd)">
		<rect rx="12.000000" width="24.000000" height="24.000000" transform="translate(4.000000 8.000000)" fill="#FE4F35" fill-opacity="1.000000"/>
		<g filter="url(#filter_36_4381_dd)">
			<path d="M16.36 14.97L16.44 15.04L21.86 19.97L21.86 24.13C21.86 25.12 21.04 25.94 20.02 25.99L19.9 26L12.09 26C11.05 26 10.2 25.22 10.14 24.24L10.13 24.13L10.13 19.97L15.55 15.04C15.77 14.83 16.11 14.81 16.36 14.97ZM16 20.54C14.95 20.54 14.1 21.32 14.04 22.3L14.04 22.41L14.04 24.75L17.95 24.75L17.95 22.41C17.95 21.38 17.07 20.54 16 20.54ZM14.3 13.59C15.31 12.77 16.82 12.8 17.79 13.68L22.79 18.22C23 18.46 23.05 18.87 22.82 19.1C22.57 19.35 22.16 19.36 21.9 19.13L16.89 14.58L16.82 14.52C16.31 14.13 15.58 14.15 15.1 14.58L10.09 19.13C9.83 19.31 9.4 19.33 9.17 19.1C8.93 18.85 8.94 18.46 9.2 18.22L14.2 13.68L14.3 13.59Z" fill="#FFFFFF" fill-opacity="1.000000" fill-rule="nonzero"/>
			<path d="M16.44 15.04L21.86 19.97L21.86 24.13C21.86 25.12 21.04 25.94 20.02 25.99L19.9 26L12.09 26C11.05 26 10.2 25.22 10.14 24.24L10.13 24.13L10.13 19.97L15.55 15.04C15.77 14.83 16.11 14.81 16.36 14.97L16.44 15.04ZM14.04 22.3L14.04 22.41L14.04 24.75L17.95 24.75L17.95 22.41C17.95 21.38 17.07 20.54 16 20.54C14.95 20.54 14.1 21.32 14.04 22.3ZM17.79 13.68L22.79 18.22C23 18.46 23.05 18.87 22.82 19.1C22.57 19.35 22.16 19.36 21.9 19.13L16.89 14.58L16.82 14.52C16.31 14.13 15.58 14.15 15.1 14.58L10.09 19.13C9.83 19.31 9.4 19.33 9.17 19.1C8.93 18.85 8.94 18.46 9.2 18.22L14.2 13.68L14.3 13.59C15.31 12.77 16.82 12.8 17.79 13.68Z" stroke="#000000" stroke-opacity="0" stroke-width="1.000000"/>
		</g>
	</g>
</svg>
