<svg width="44.000000" height="44.000000" viewBox="0 0 44 44" fill="none" xmlns="http://www.w3.org/2000/svg">
	<rect rx="22.000000" width="44.000000" height="44.000000" fill="#F1F3F5" fill-opacity="1.000000"/>
	<path d="M23.28 13.67C24.42 13.86 25.24 14.85 25.31 16L25.32 16.16L25.32 21.25L28.94 21.77C31.2 22.09 32.64 24.35 32.01 26.52L31.95 26.71L30.06 32.17C29.92 32.57 29.5 32.77 29.1 32.64C28.75 32.51 28.54 32.14 28.61 31.78L30.53 26.22C30.98 24.93 30.19 23.56 28.88 23.28L28.72 23.25L24.46 22.64C24.12 22.6 23.87 22.33 23.82 22L23.82 21.9L23.82 16.16C23.82 15.66 23.47 15.22 23.04 15.15C22.49 15.06 22.01 15.44 21.95 15.96L21.94 16.07L21.94 27.34C21.94 27.81 21.51 28.16 21.06 28.08L17.03 26.81C16.46 26.63 15.86 26.94 15.67 27.51C15.51 27.97 15.69 28.48 16.08 28.75L16.18 28.82L20.83 31.34C21.19 31.53 21.33 31.99 21.13 32.35C20.95 32.69 20.55 32.83 20.21 32.7L15.47 30.14C14.36 29.54 13.85 28.23 14.24 27.04C14.67 25.75 16.02 25.02 17.32 25.34L17.49 25.38L20.44 26.32L20.44 16.07C20.44 14.58 21.78 13.43 23.28 13.67ZM17.14 23.54C17.19 23.95 16.89 24.32 16.48 24.36C15.68 24.45 14.94 24.8 14.37 25.38C12.99 26.75 12.99 28.99 14.37 30.36C14.66 30.66 14.66 31.13 14.37 31.42C14.07 31.72 13.6 31.72 13.3 31.42C11.34 29.46 11.34 26.28 13.3 24.32C14.12 23.49 15.18 22.99 16.32 22.87C16.73 22.83 17.1 23.12 17.14 23.54ZM22.9 11.25C25.63 11.25 27.83 13.45 27.83 16.18C27.83 16.59 27.5 16.93 27.08 16.93C26.67 16.93 26.33 16.59 26.33 16.18C26.33 14.28 24.8 12.75 22.9 12.75C21.01 12.75 19.47 14.28 19.47 16.18C19.47 16.59 19.14 16.93 18.72 16.93C18.31 16.93 17.97 16.59 17.97 16.18C17.97 13.45 20.18 11.25 22.9 11.25Z" fill="#191919" fill-opacity="1.000000" fill-rule="evenodd"/>
	<path d="M25.31 16L25.32 16.16L25.32 21.25L28.94 21.77C31.2 22.09 32.64 24.35 32.01 26.52L31.95 26.71L30.06 32.17C29.92 32.57 29.5 32.77 29.1 32.64C28.75 32.51 28.54 32.14 28.61 31.78L30.53 26.22C30.98 24.93 30.19 23.56 28.88 23.28L28.72 23.25L24.46 22.64C24.12 22.6 23.87 22.33 23.82 22L23.82 21.9L23.82 16.16C23.82 15.66 23.47 15.22 23.04 15.15C22.49 15.06 22.01 15.44 21.95 15.96L21.94 16.07L21.94 27.34C21.94 27.81 21.51 28.16 21.06 28.08L17.03 26.81C16.46 26.63 15.86 26.94 15.67 27.51C15.51 27.97 15.69 28.48 16.08 28.75L16.18 28.82L20.83 31.34C21.19 31.53 21.33 31.99 21.13 32.35C20.95 32.69 20.55 32.83 20.21 32.7L15.47 30.14C14.36 29.54 13.85 28.23 14.24 27.04C14.67 25.75 16.02 25.02 17.32 25.34L17.49 25.38L20.44 26.32L20.44 16.07C20.44 14.58 21.78 13.43 23.28 13.67C24.42 13.86 25.24 14.85 25.31 16ZM16.48 24.36C15.68 24.45 14.94 24.8 14.37 25.38C12.99 26.75 12.99 28.99 14.37 30.36C14.66 30.66 14.66 31.13 14.37 31.42C14.07 31.72 13.6 31.72 13.3 31.42C11.34 29.46 11.34 26.28 13.3 24.32C14.12 23.49 15.18 22.99 16.32 22.87C16.73 22.83 17.1 23.12 17.14 23.54C17.19 23.95 16.89 24.32 16.48 24.36ZM27.83 16.18C27.83 16.59 27.5 16.93 27.08 16.93C26.67 16.93 26.33 16.59 26.33 16.18C26.33 14.28 24.8 12.75 22.9 12.75C21.01 12.75 19.47 14.28 19.47 16.18C19.47 16.59 19.14 16.93 18.72 16.93C18.31 16.93 17.97 16.59 17.97 16.18C17.97 13.45 20.18 11.25 22.9 11.25C25.63 11.25 27.83 13.45 27.83 16.18Z"/>
</svg>
