<svg width="24.000000" height="24.000000" viewBox="0 0 24 24" fill="none" xmlns="http://www.w3.org/2000/svg" xmlns:xlink="http://www.w3.org/1999/xlink">
	<desc>
			Created with Pixso.
	</desc>
	<defs>
		<clipPath id="clip26_256">
			<rect width="24.000000" height="24.000000" fill="white" fill-opacity="0"/>
		</clipPath>
	</defs>
	<g clip-path="url(#clip26_256)">
		<g opacity="0.000000">
			<rect width="24.000000" height="24.000000" fill="#333333" fill-opacity="1.000000"/>
			<rect width="24.000000" height="24.000000" stroke="#000000" stroke-opacity="0" stroke-width="1.000000"/>
		</g>
		<path d="M12 3.25C12.37 3.25 12.69 3.53 12.74 3.89L12.75 4L12.75 11.25L20 11.25C20.41 11.25 20.75 11.58 20.75 12C20.75 12.37 20.46 12.69 20.1 12.74L20 12.75L12.75 12.75L12.75 20C12.75 20.41 12.41 20.75 12 20.75C11.62 20.75 11.3 20.46 11.25 20.1L11.25 20L11.25 12.75L4 12.75C3.58 12.75 3.25 12.41 3.25 12C3.25 11.62 3.53 11.3 3.89 11.25L4 11.25L11.25 11.25L11.25 4C11.25 3.58 11.58 3.25 12 3.25Z" fill="#333333" fill-opacity="1.000000" fill-rule="evenodd"/>
		<path d="M12.74 3.89L12.75 4L12.75 11.25L20 11.25C20.41 11.25 20.75 11.58 20.75 12C20.75 12.37 20.46 12.69 20.1 12.74L20 12.75L12.75 12.75L12.75 20C12.75 20.41 12.41 20.75 12 20.75C11.62 20.75 11.3 20.46 11.25 20.1L11.25 20L11.25 12.75L4 12.75C3.58 12.75 3.25 12.41 3.25 12C3.25 11.62 3.53 11.3 3.89 11.25L4 11.25L11.25 11.25L11.25 4C11.25 3.58 11.58 3.25 12 3.25C12.37 3.25 12.69 3.53 12.74 3.89Z" stroke="#000000" stroke-opacity="0" stroke-width="1.000000"/>
	</g>
</svg>
