<svg width="44.000000" height="44.000000" viewBox="0 0 44 44" fill="none" xmlns="http://www.w3.org/2000/svg" xmlns:xlink="http://www.w3.org/1999/xlink">
	<rect rx="22.000000" width="44.000000" height="44.000000" fill="#F1F3F5" fill-opacity="1.000000"/>
	<path d="M13.75 23.75C14.12 23.75 14.44 24.03 14.49 24.39L14.5 24.5L14.5 28C14.5 28.77 15.09 29.42 15.85 29.49L16 29.5L19.5 29.5C19.91 29.5 20.25 29.83 20.25 30.25C20.25 30.62 19.96 30.94 19.6 30.99L19.5 31L16 31C14.4 31 13.09 29.75 13 28.17L13 28L13 24.5C13 24.08 13.33 23.75 13.75 23.75ZM30.25 23.75C30.62 23.75 30.94 24.03 30.99 24.39L31 24.5L31 28C31 29.59 29.75 30.9 28.17 30.99L28 31L24.5 31C24.08 31 23.75 30.66 23.75 30.25C23.75 29.87 24.03 29.55 24.39 29.5L24.5 29.5L28 29.5C28.77 29.5 29.42 28.9 29.49 28.14L29.5 28L29.5 24.5C29.5 24.08 29.83 23.75 30.25 23.75ZM28.5 21.25C28.91 21.25 29.25 21.58 29.25 22C29.25 22.37 28.96 22.69 28.6 22.74L28.5 22.75L15.5 22.75C15.08 22.75 14.75 22.41 14.75 22C14.75 21.62 15.03 21.3 15.39 21.25L15.5 21.25L28.5 21.25ZM19.5 13C19.91 13 20.25 13.33 20.25 13.75C20.25 14.12 19.96 14.44 19.6 14.49L19.5 14.5L16 14.5C15.22 14.5 14.57 15.09 14.5 15.85L14.5 16L14.5 19.5C14.5 19.91 14.16 20.25 13.75 20.25C13.37 20.25 13.05 19.96 13 19.6L13 19.5L13 16C13 14.4 14.24 13.09 15.82 13L16 13L19.5 13ZM28 13C29.59 13 30.9 14.24 30.99 15.82L31 16L31 19.5C31 19.91 30.66 20.25 30.25 20.25C29.87 20.25 29.55 19.96 29.5 19.6L29.5 19.5L29.5 16C29.5 15.22 28.9 14.57 28.14 14.5L28 14.5L24.5 14.5C24.08 14.5 23.75 14.16 23.75 13.75C23.75 13.37 24.03 13.05 24.39 13L24.5 13L28 13Z" fill="#191919" fill-opacity="1.000000" fill-rule="evenodd"/>
	<path d="M14.49 24.39L14.5 24.5L14.5 28C14.5 28.77 15.09 29.42 15.85 29.49L16 29.5L19.5 29.5C19.91 29.5 20.25 29.83 20.25 30.25C20.25 30.62 19.96 30.94 19.6 30.99L19.5 31L16 31C14.4 31 13.09 29.75 13 28.17L13 28L13 24.5C13 24.08 13.33 23.75 13.75 23.75C14.12 23.75 14.44 24.03 14.49 24.39ZM30.99 24.39L31 24.5L31 28C31 29.59 29.75 30.9 28.17 30.99L28 31L24.5 31C24.08 31 23.75 30.66 23.75 30.25C23.75 29.87 24.03 29.55 24.39 29.5L24.5 29.5L28 29.5C28.77 29.5 29.42 28.9 29.49 28.14L29.5 28L29.5 24.5C29.5 24.08 29.83 23.75 30.25 23.75C30.62 23.75 30.94 24.03 30.99 24.39ZM29.25 22C29.25 22.37 28.96 22.69 28.6 22.74L28.5 22.75L15.5 22.75C15.08 22.75 14.75 22.41 14.75 22C14.75 21.62 15.03 21.3 15.39 21.25L15.5 21.25L28.5 21.25C28.91 21.25 29.25 21.58 29.25 22ZM20.25 13.75C20.25 14.12 19.96 14.44 19.6 14.49L19.5 14.5L16 14.5C15.22 14.5 14.57 15.09 14.5 15.85L14.5 16L14.5 19.5C14.5 19.91 14.16 20.25 13.75 20.25C13.37 20.25 13.05 19.96 13 19.6L13 19.5L13 16C13 14.4 14.24 13.09 15.82 13L16 13L19.5 13C19.91 13 20.25 13.33 20.25 13.75ZM30.99 15.82L31 16L31 19.5C31 19.91 30.66 20.25 30.25 20.25C29.87 20.25 29.55 19.96 29.5 19.6L29.5 19.5L29.5 16C29.5 15.22 28.9 14.57 28.14 14.5L28 14.5L24.5 14.5C24.08 14.5 23.75 14.16 23.75 13.75C23.75 13.37 24.03 13.05 24.39 13L24.5 13L28 13C29.59 13 30.9 14.24 30.99 15.82Z" stroke="#000000" stroke-opacity="0" stroke-width="1.000000"/>
</svg>
