<svg width="16.000000" height="16.000000" viewBox="0 0 16 16" fill="none" xmlns="http://www.w3.org/2000/svg" xmlns:xlink="http://www.w3.org/1999/xlink">
	<desc>
			Created with Pixso.
	</desc>
	<defs/>
	<g opacity="0.000000">
		<rect width="16.000000" height="16.000000" fill="#D8D8D8" fill-opacity="1.000000"/>
		<rect width="16.000000" height="16.000000" stroke="#000000" stroke-opacity="0" stroke-width="1.000000"/>
	</g>
	<path d="M2.52 4.81L2.5 4.83C2.22 4.83 2 4.61 2 4.33C2 4.05 2.22 3.83 2.5 3.83L2.52 3.85L2.52 4.81ZM13.48 3.85L13.5 3.83C13.77 3.83 14 4.05 14 4.33C14 4.61 13.77 4.83 13.5 4.83L13.48 4.81L13.48 3.85Z" fill="#000000" fill-opacity="0" fill-rule="nonzero"/>
	<path d="M2.5 4.33L5.25 4.33L5.61 3.19C5.74 2.78 6.12 2.5 6.56 2.5L9.43 2.5C9.87 2.5 10.25 2.78 10.38 3.19L10.75 4.33C12.58 4.33 13.5 4.33 13.5 4.33" stroke="#999999" stroke-opacity="1.000000" stroke-width="1.000000" stroke-linejoin="round" stroke-linecap="round"/>
	<path d="M2.85 4.4L2.83 4.38C2.8 4.1 3 3.86 3.27 3.83C3.55 3.8 3.8 4 3.83 4.27L3.81 4.3L2.85 4.4ZM12.18 4.3L12.16 4.27C12.2 4 12.44 3.8 12.72 3.83C12.99 3.86 13.19 4.1 13.16 4.38L13.14 4.4L12.18 4.3Z" fill="#000000" fill-opacity="0" fill-rule="nonzero"/>
	<path d="M3.33 4.33L4.17 12.01C4.26 12.85 4.97 13.5 5.82 13.5L10.17 13.5C11.02 13.5 11.73 12.85 11.82 12.01C12.1 9.45 12.38 6.89 12.66 4.33" stroke="#999999" stroke-opacity="1.000000" stroke-width="1.000000" stroke-linejoin="round" stroke-linecap="round"/>
	<line x1="6.666504" y1="6.333496" x2="6.666504" y2="11.000000" stroke="#999999" stroke-opacity="1.000000" stroke-width="1.000000"/>
	<line x1="9.333496" y1="6.333496" x2="9.333496" y2="11.000000" stroke="#999999" stroke-opacity="1.000000" stroke-width="1.000000"/>
</svg>
