<svg width="44.000000" height="44.000000" viewBox="0 0 44 44" fill="none" xmlns="http://www.w3.org/2000/svg" xmlns:xlink="http://www.w3.org/1999/xlink">
	<desc>
			Created with Pixso.
	</desc>
	<defs/>
	<circle cx="22.000000" cy="22.000000" r="22.000000" fill="#C4C4C4" fill-opacity="1.000000"/>
	<rect x="8.461548" y="7.615387" width="27.076923" height="27.076923" fill="#FFFFFF" fill-opacity="0"/>
	<path d="M8.46 21.14C8.46 19.02 8.45 16.91 8.46 14.79C8.45 13.76 8.58 12.74 8.83 11.76C9.39 9.66 10.75 8.41 12.85 7.93C13.9 7.7 14.98 7.59 16.05 7.61C20.11 7.61 24.16 7.61 28.22 7.61C29.24 7.6 30.26 7.72 31.26 7.96C33.42 8.48 34.72 9.86 35.21 12.01C35.44 13.03 35.54 14.06 35.53 15.11C35.53 19.21 35.53 23.31 35.53 27.4C35.53 28.42 35.42 29.44 35.18 30.42C34.65 32.58 33.28 33.87 31.13 34.37C30.07 34.59 29 34.7 27.92 34.68C23.88 34.68 19.85 34.68 15.81 34.68C14.77 34.69 13.75 34.57 12.74 34.34C10.57 33.81 9.27 32.44 8.78 30.27C8.52 29.17 8.46 28.07 8.46 26.96C8.46 25.02 8.46 23.08 8.46 21.14Z" fill="#FFFFFF" fill-opacity="0" fill-rule="evenodd"/>
	<circle cx="22.000008" cy="21.153839" r="13.538462" fill="#FFFFFF" fill-opacity="0"/>
	<path d="M20.32 22.84L23.66 22.84C28.66 22.84 32.71 26.89 32.71 31.88C32.71 32.81 31.96 33.56 31.04 33.56L12.95 33.56C12.02 33.56 11.28 32.81 11.28 31.88C11.28 26.89 15.32 22.84 20.32 22.84Z" fill="#7B7B7B" fill-opacity="1.000000" fill-rule="evenodd"/>
	<path d="M23.66 22.84C28.66 22.84 32.71 26.89 32.71 31.88C32.71 32.81 31.96 33.56 31.04 33.56L12.95 33.56C12.02 33.56 11.28 32.81 11.28 31.88C11.28 26.89 15.32 22.84 20.32 22.84L23.66 22.84Z" fill="#000000" fill-opacity="0" fill-rule="nonzero"/>
	<path d="M32.71 31.88C32.71 32.81 31.96 33.56 31.04 33.56L12.95 33.56C12.02 33.56 11.28 32.81 11.28 31.88C11.28 26.89 15.32 22.84 20.32 22.84L23.66 22.84C28.66 22.84 32.71 26.89 32.71 31.88Z" stroke="#7B7B7B" stroke-opacity="1.000000" stroke-width="1.995000" stroke-linejoin="round"/>
	<circle cx="21.999859" cy="14.102570" r="5.358974" fill="#7B7B7B" fill-opacity="1.000000"/>
	<circle cx="21.999859" cy="14.102570" r="5.358974" fill="#000000" fill-opacity="0"/>
	<circle cx="21.999859" cy="14.102570" r="5.358974" stroke="#7B7B7B" stroke-opacity="1.000000" stroke-width="1.995000" stroke-linejoin="round"/>
</svg>
