<?xml version="1.0" standalone="no"?><!DOCTYPE svg PUBLIC "-//W3C//DTD SVG 1.1//EN"
        "http://www.w3.org/Graphics/SVG/1.1/DTD/svg11.dtd">
<svg t="1740389375360" class="icon" viewBox="0 0 1024 1024" version="1.1" xmlns="http://www.w3.org/2000/svg" p-id="2618"
     width="16" height="16" xmlns:xlink="http://www.w3.org/1999/xlink">
    <path d="M513.43007 1019.262092c-280.20375 0-507.388982-227.207745-507.388982-507.410472 0-280.224216 227.185232-507.409448 507.388982-507.409448 280.247752 0 507.391029 227.185232 507.391029 507.409448C1020.821099 792.054347 793.678846 1019.262092 513.43007 1019.262092zM746.107387 363.903034c9.540284-9.53926 9.540284-25.021883 0-34.539654l-51.822272-51.800783c-9.535167-9.558703-24.977881-9.558703-34.518165 0L512.976746 424.334381 366.184495 277.562597c-9.53619-9.558703-24.977881-9.558703-34.518165 0l-51.822272 51.800783c-9.538237 9.517771-9.538237 25.001417 0 34.539654l146.793274 146.770761-146.793274 146.790204c-9.538237 9.518794-9.538237 25.004487 0 34.540677l51.822272 51.79976c9.540284 9.538237 24.981974 9.538237 34.518165 0L512.976746 597.014232l146.790204 146.790204c9.540284 9.538237 24.982998 9.538237 34.518165 0l51.822272-51.79976c9.540284-9.53619 9.540284-25.021883 0-34.540677L599.317183 510.674818 746.107387 363.903034z"
          fill="#707070" p-id="2619"></path>
</svg>