<svg width="36.000000" height="36.000000" viewBox="0 0 36 36" fill="none" xmlns="http://www.w3.org/2000/svg" xmlns:xlink="http://www.w3.org/1999/xlink">
	<desc>
			Created with Pixso.
	</desc>
	<defs/>
	<circle id="椭圆 12" cx="18.000000" cy="18.000000" r="18.000000" fill="#EE3B55" fill-opacity="0.050000"/>
	<path id="path1" d="M6.75 17.99C6.75 16.23 6.74 14.47 6.75 12.71C6.74 11.86 6.85 11.02 7.06 10.19C7.52 8.45 8.66 7.41 10.4 7.01C11.27 6.82 12.16 6.73 13.06 6.75C16.43 6.75 19.8 6.75 23.17 6.75C24.02 6.74 24.87 6.84 25.7 7.04C27.49 7.48 28.57 8.61 28.98 10.4C29.17 11.25 29.25 12.11 29.24 12.98C29.24 16.38 29.24 19.79 29.24 23.2C29.25 24.04 29.15 24.88 28.96 25.7C28.52 27.5 27.37 28.57 25.58 28.98C24.71 29.17 23.82 29.26 22.92 29.24C19.57 29.24 16.21 29.24 12.86 29.24C12 29.25 11.14 29.15 10.31 28.96C8.5 28.52 7.42 27.38 7.01 25.58C6.8 24.66 6.75 23.75 6.75 22.82C6.75 21.21 6.75 19.6 6.75 17.99Z" fill="#FFFFFF" fill-opacity="0" fill-rule="nonzero"/>
	<path id="path1" d="M6.75 12.71C6.74 11.86 6.85 11.02 7.06 10.19C7.52 8.45 8.66 7.41 10.4 7.01C11.27 6.82 12.16 6.73 13.06 6.75C16.43 6.75 19.8 6.75 23.17 6.75C24.02 6.74 24.87 6.84 25.7 7.04C27.49 7.48 28.57 8.61 28.98 10.4C29.17 11.25 29.25 12.11 29.24 12.98C29.24 16.38 29.24 19.79 29.24 23.2C29.25 24.04 29.15 24.88 28.96 25.7C28.52 27.5 27.37 28.57 25.58 28.98C24.71 29.17 23.82 29.26 22.92 29.24C19.57 29.24 16.21 29.24 12.86 29.24C12 29.25 11.14 29.15 10.31 28.96C8.5 28.52 7.42 27.38 7.01 25.58C6.8 24.66 6.75 23.75 6.75 22.82C6.75 21.21 6.75 19.6 6.75 17.99C6.75 16.23 6.74 14.47 6.75 12.71Z" stroke="#FFFFFF" stroke-opacity="0" stroke-width="1.000000"/>
	<g opacity="0.200000">
		<path id="path2" d="M6.75 17.99C6.75 16.23 6.74 14.47 6.75 12.71C6.74 11.86 6.85 11.02 7.06 10.19C7.52 8.45 8.66 7.41 10.4 7.01C11.27 6.82 12.16 6.73 13.06 6.75C16.43 6.75 19.8 6.75 23.17 6.75C24.02 6.74 24.87 6.84 25.7 7.04C27.49 7.48 28.57 8.61 28.98 10.4C29.17 11.25 29.25 12.11 29.24 12.98C29.24 16.38 29.24 19.79 29.24 23.2C29.25 24.04 29.15 24.88 28.96 25.7C28.52 27.5 27.37 28.57 25.58 28.98C24.71 29.17 23.82 29.26 22.92 29.24C19.57 29.24 16.21 29.24 12.86 29.24C12 29.25 11.14 29.15 10.31 28.96C8.5 28.52 7.42 27.38 7.01 25.58C6.8 24.66 6.75 23.75 6.75 22.82C6.75 21.21 6.75 19.6 6.75 17.99Z" fill="#000000" fill-opacity="0" fill-rule="nonzero"/>
		<path id="path2" d="M6.75 12.71C6.74 11.86 6.85 11.02 7.06 10.19C7.52 8.45 8.66 7.41 10.4 7.01C11.27 6.82 12.16 6.73 13.06 6.75C16.43 6.75 19.8 6.75 23.17 6.75C24.02 6.74 24.87 6.84 25.7 7.04C27.49 7.48 28.57 8.61 28.98 10.4C29.17 11.25 29.25 12.11 29.24 12.98C29.24 16.38 29.24 19.79 29.24 23.2C29.25 24.04 29.15 24.88 28.96 25.7C28.52 27.5 27.37 28.57 25.58 28.98C24.71 29.17 23.82 29.26 22.92 29.24C19.57 29.24 16.21 29.24 12.86 29.24C12 29.25 11.14 29.15 10.31 28.96C8.5 28.52 7.42 27.38 7.01 25.58C6.8 24.66 6.75 23.75 6.75 22.82C6.75 21.21 6.75 19.6 6.75 17.99C6.75 16.23 6.74 14.47 6.75 12.71Z" stroke="#FFFFFF" stroke-opacity="0" stroke-width="1.000000"/>
	</g>
	<circle id="path3" cx="18.000000" cy="18.000000" r="12.000000" fill="#FFFFFF" fill-opacity="0"/>
	<circle id="path3" cx="18.000000" cy="18.000000" r="12.000000" stroke="#000000" stroke-opacity="0" stroke-width="1.000000"/>
	<path id="path4" d="M8.5 17.41L10.27 11.22C10.41 10.72 10.8 10.33 11.3 10.19C13.54 9.56 15.77 9.25 18 9.25C20.23 9.25 22.46 9.56 24.68 10.18C25.19 10.33 25.58 10.72 25.72 11.22L27.5 17.41C24.34 16.8 21.18 16.5 18.01 16.5C14.84 16.5 11.67 16.8 8.5 17.41Z" fill="#FFFFFF" fill-opacity="0" fill-rule="evenodd"/>
	<path id="path4" d="M10.27 11.22C10.41 10.72 10.8 10.33 11.3 10.19C13.54 9.56 15.77 9.25 18 9.25C20.23 9.25 22.46 9.56 24.68 10.18C25.19 10.33 25.58 10.72 25.72 11.22L27.5 17.41C24.34 16.8 21.18 16.5 18.01 16.5C14.84 16.5 11.67 16.8 8.5 17.41L10.27 11.22Z" stroke="#FFFFFF" stroke-opacity="0" stroke-width="1.000000" stroke-linejoin="round"/>
	<path id="path5" d="M18 16.5C20.71 16.5 23.79 16.78 27.23 17.35C28.24 17.52 28.96 18.41 28.9 19.43L28.55 26.05C28.52 26.58 28.08 27 27.55 27L24.5 27L23.5 25.25L12.5 25.25L11.5 27L8.44 27C7.91 27 7.47 26.58 7.44 26.05L7.09 19.43C7.03 18.41 7.75 17.52 8.76 17.35C12.21 16.78 15.28 16.5 18 16.5Z" fill="#EE3B55" fill-opacity="1.000000" fill-rule="evenodd"/>
	<path id="path5" d="M27.23 17.35C28.24 17.52 28.96 18.41 28.9 19.43L28.55 26.05C28.52 26.58 28.08 27 27.55 27L24.5 27L23.5 25.25L12.5 25.25L11.5 27L8.44 27C7.91 27 7.47 26.58 7.44 26.05L7.09 19.43C7.03 18.41 7.75 17.52 8.76 17.35C12.21 16.78 15.28 16.5 18 16.5C20.71 16.5 23.79 16.78 27.23 17.35Z" stroke="#EE3B55" stroke-opacity="1.000000" stroke-width="1.000000" stroke-linejoin="round"/>
	<path id="path6" d="M26.47 22.02L26.49 22C26.77 21.99 26.99 22.21 27 22.49C27 22.77 26.78 22.99 26.5 23L26.48 22.98L26.47 22.02ZM21.47 22.02L21.49 22C21.77 21.99 21.99 22.21 22 22.49C22 22.77 21.78 22.99 21.5 23L21.48 22.98L21.47 22.02ZM12.47 22.02L12.49 22C12.77 21.99 12.99 22.21 13 22.49C13 22.77 12.78 22.99 12.5 23L12.48 22.98L12.47 22.02ZM14.5 23L14.52 22.98L14.51 22.02L14.49 22C14.21 22 13.99 22.22 14 22.5C14 22.78 14.22 23 14.5 23ZM9.5 23L9.52 22.98L9.51 22.02L9.49 22C9.21 22 8.99 22.22 9 22.5C9 22.78 9.22 23 9.5 23ZM23.5 23L23.52 22.98L23.51 22.02L23.49 22C23.21 22 22.99 22.22 23 22.5C23 22.78 23.22 23 23.5 23Z" fill="#000000" fill-opacity="0" fill-rule="evenodd"/>
	<path id="path6" d="M12.5 22.5L9.5 22.5M21.5 22.5L14.5 22.5M26.5 22.5L23.5 22.5" stroke="#E5E5E5" stroke-opacity="1.000000" stroke-width="1.000000" stroke-linejoin="round" stroke-linecap="round"/>
	<path id="path7" d="M18 9C20.25 9 22.5 9.31 24.75 9.94C25.34 10.11 25.79 10.56 25.96 11.15L27.74 17.34C27.77 17.48 27.7 17.61 27.56 17.65C27.43 17.69 27.29 17.61 27.25 17.48L25.48 11.29C25.36 10.87 25.03 10.54 24.62 10.43C22.41 9.81 20.2 9.5 18 9.5C15.79 9.5 13.58 9.81 11.37 10.43C10.95 10.54 10.63 10.87 10.51 11.29L8.74 17.48C8.7 17.61 8.56 17.69 8.43 17.65C8.29 17.61 8.22 17.48 8.25 17.34L10.03 11.15C10.2 10.56 10.65 10.11 11.24 9.95C13.49 9.31 15.75 9 18 9Z" fill="#EE3B55" fill-opacity="1.000000" fill-rule="nonzero"/>
	<path id="path7" d="M24.75 9.94C25.34 10.11 25.79 10.56 25.96 11.15L27.74 17.34C27.77 17.48 27.7 17.61 27.56 17.65C27.43 17.69 27.29 17.61 27.25 17.48L25.48 11.29C25.36 10.87 25.03 10.54 24.62 10.43C22.41 9.81 20.2 9.5 18 9.5C15.79 9.5 13.58 9.81 11.37 10.43C10.95 10.54 10.63 10.87 10.51 11.29L8.74 17.48C8.7 17.61 8.56 17.69 8.43 17.65C8.29 17.61 8.22 17.48 8.25 17.34L10.03 11.15C10.2 10.56 10.65 10.11 11.24 9.95C13.49 9.31 15.75 9 18 9C20.25 9 22.5 9.31 24.75 9.94Z" stroke="#EE3B55" stroke-opacity="1.000000" stroke-width="1.000000" stroke-linejoin="round"/>
</svg>
