<svg xmlns="http://www.w3.org/2000/svg" xmlns:xlink="http://www.w3.org/1999/xlink" width="24px" height="24px" viewBox="0 0 24 24" version="1.1">
	<title>ic_car_lined</title>
	<g id="ic_car_lined" stroke="none" stroke-width="1" fill="none" fill-rule="evenodd">
		<g id="编组">
			<rect id="矩形" fill="#666666" opacity="0" x="0" y="0" width="24" height="24"></rect>
			<path d="M17.5042331,5.46286039 L17.9700735,5.599325 C18.6221753,5.8000638 19.1422954,6.27909963 19.3966215,6.90137475 L19.4545857,7.05984868 L19.9536344,8.59991009 C20.0810886,8.99402719 19.8649157,9.41684431 19.4707985,9.54429856 C19.1095245,9.66113161 18.7241345,9.48922237 18.5642395,9.15618896 L18.5264101,9.06146274 L18.0274957,7.52181631 C17.9625916,7.32151628 17.8179828,7.15946286 17.6305333,7.07187818 L17.5340735,7.034325 C14.0773221,5.97187593 10.3935651,5.92760111 6.92030201,6.90164719 L6.46507352,7.034325 L6.36991995,7.07178672 C6.21380429,7.14484863 6.08730761,7.26963568 6.01222933,7.42492134 L5.97352696,7.52158275 L4.65023941,11.6113266 C4.639263,11.6481153 4.62551678,11.6838108 4.60921972,11.7181436 L4.64452696,11.6275828 C4.63023207,11.6717474 4.61222814,11.7136763 4.59097138,11.7531362 C4.58309119,11.7686267 4.57441507,11.7834232 4.56525231,11.7978964 C4.55695045,11.8103504 4.54851655,11.8228456 4.5397431,11.8350342 C4.5283454,11.8514476 4.51597414,11.8672583 4.50299084,11.8825537 C4.496999,11.8890479 4.49127039,11.8955495 4.48543841,11.901941 C4.47000809,11.9194642 4.45340833,11.93608 4.43604444,11.9519041 C4.42930734,11.9573552 4.42277734,11.96308 4.41615534,11.9686855 C4.32961222,12.042955 4.22518139,12.0976426 4.10919124,12.1258084 C4.0840968,12.1311376 4.06816873,12.1342954 4.0521209,12.1369351 L4.00867058,12.1431208 C3.64300753,12.1810583 3.36382887,12.4786257 3.33868015,12.83077 L3.33824555,12.9280084 L3.69707352,17.796325 L5.53707352,17.796325 L5.82945312,17.2117148 C5.94061663,16.9893878 6.15334285,16.8387127 6.39509824,16.8045178 L6.50027352,16.797125 L17.5002735,16.797125 C17.7488427,16.797125 17.9787446,16.9200092 18.1174457,17.1209493 L18.1710939,17.2117148 L18.4630735,17.796325 L20.3030735,17.796325 L20.6617268,12.9364575 C20.6846768,12.5683398 20.4378826,12.2432574 20.0885567,12.1596743 L19.9908695,12.1430156 L17.1554029,11.8449664 C14.0134676,11.5127158 10.848373,11.4850282 7.70016546,11.7621538 L6.57601217,11.872291 C6.16391608,11.9141203 5.79593685,11.6139597 5.75410755,11.2018637 C5.71576402,10.8241089 5.96478695,10.4834246 6.32397597,10.3970479 L6.42453487,10.379959 L6.68740293,10.3532836 C9.94811143,10.008473 13.2330516,9.98194913 16.4971211,10.2736732 L17.3126775,10.3532344 L20.1466706,10.6511292 C21.2942993,10.7701957 22.1561096,11.7364729 22.1627011,12.8811117 L22.1582456,13.0382416 L21.7482456,18.6022416 C21.7220014,18.9583943 21.4499683,19.2412804 21.1055854,19.2897709 L21.0002735,19.297125 L18.0002735,19.297125 C17.7517044,19.297125 17.5218024,19.1742408 17.3831013,18.9733007 L17.3294531,18.8825352 L17.0360735,18.296325 L6.96407352,18.296325 L6.67109391,18.8825352 C6.5599304,19.1048622 6.34720419,19.2555373 6.1054488,19.2897322 L6.00027352,19.297125 L3.00027352,19.297125 C2.64315511,19.297125 2.34104254,19.0466164 2.26737497,18.7067283 L2.25230148,18.6022416 L1.84172683,13.0297925 C1.77771089,12.0029768 2.41403093,11.0876877 3.34718632,10.7635627 L4.5460478,7.06082058 C4.75363703,6.41591003 5.24058833,5.90192283 5.86585986,5.65658224 L6.03007352,5.599325 L6.49571393,5.46286039 C10.0951466,4.44954654 13.9048004,4.44954654 17.5042331,5.46286039 Z M15.0002735,14.297025 C15.4144871,14.297025 15.7502735,14.6328114 15.7502735,15.047025 C15.7502735,15.4267208 15.4681196,15.740516 15.1020441,15.7901784 L15.0002735,15.797025 L9.00027352,15.797025 C8.58605995,15.797025 8.25027352,15.4612386 8.25027352,15.047025 C8.25027352,14.6673292 8.5324274,14.353534 8.89850296,14.3038716 L9.00027352,14.297025 L15.0002735,14.297025 Z M6.50027352,14.297025 C6.91448708,14.297025 7.25027352,14.6328114 7.25027352,15.047025 C7.25027352,15.4267208 6.96811964,15.740516 6.60204407,15.7901784 L6.50027352,15.797025 L5.00027352,15.797025 C4.58605995,15.797025 4.25027352,15.4612386 4.25027352,15.047025 C4.25027352,14.6673292 4.5324274,14.353534 4.89850296,14.3038716 L5.00027352,14.297025 L6.50027352,14.297025 Z M19.0002735,14.297025 C19.4144871,14.297025 19.7502735,14.6328114 19.7502735,15.047025 C19.7502735,15.4267208 19.4681196,15.740516 19.1020441,15.7901784 L19.0002735,15.797025 L17.5002735,15.797025 C17.08606,15.797025 16.7502735,15.4612386 16.7502735,15.047025 C16.7502735,14.6673292 17.0324274,14.353534 17.398503,14.3038716 L17.5002735,14.297025 L19.0002735,14.297025 Z" id="形状结合" fill="#666666"></path>
		</g>
	</g>
</svg>