<svg width="24.000000" height="24.000000" viewBox="0 0 24 24" fill="none" xmlns="http://www.w3.org/2000/svg" xmlns:xlink="http://www.w3.org/1999/xlink">
	<desc>
			Created with Pixso.
	</desc>
	<defs/>
	<circle cx="12.000000" cy="12.000000" r="12.000000" fill="#F3F3F3" fill-opacity="1.000000"/>
	<circle cx="12.000000" cy="12.000000" r="12.000000" stroke="#000000" stroke-opacity="0" stroke-width="1.000000"/>
	<path d="M11.31 8.28L8.16 15.33C7.99 15.71 8.16 16.15 8.53 16.32C8.74 16.41 8.97 16.41 9.18 16.31L11.66 15.07C11.87 14.96 12.12 14.96 12.33 15.07L14.81 16.31C15.19 16.49 15.64 16.34 15.82 15.97C15.92 15.77 15.93 15.54 15.83 15.33L12.68 8.28C12.51 7.9 12.07 7.73 11.69 7.9C11.52 7.97 11.39 8.11 11.31 8.28Z" fill="#191919" fill-opacity="1.000000" fill-rule="evenodd"/>
	<path d="M8.16 15.33C7.99 15.71 8.16 16.15 8.53 16.32C8.74 16.41 8.97 16.41 9.18 16.31L11.66 15.07C11.87 14.96 12.12 14.96 12.33 15.07L14.81 16.31C15.19 16.49 15.64 16.34 15.82 15.97C15.92 15.77 15.93 15.54 15.83 15.33L12.68 8.28C12.51 7.9 12.07 7.73 11.69 7.9C11.52 7.97 11.39 8.11 11.31 8.28L8.16 15.33Z" stroke="#191919" stroke-opacity="0" stroke-width="1.000000" stroke-linejoin="round"/>
</svg>
