<svg width="24.000000" height="24.000000" viewBox="0 0 24 24" fill="none" xmlns="http://www.w3.org/2000/svg" xmlns:xlink="http://www.w3.org/1999/xlink">
	<desc>
			Created with Pixso.
	</desc>
	<defs/>
	<path d="M0.75 11.99C0.75 10.23 0.74 8.47 0.75 6.71C0.74 5.86 0.85 5.02 1.06 4.19C1.52 2.45 2.66 1.41 4.4 1.01C5.27 0.82 6.16 0.73 7.06 0.75C10.43 0.75 13.8 0.75 17.17 0.75C18.02 0.74 18.87 0.84 19.7 1.04C21.49 1.48 22.57 2.61 22.98 4.4C23.17 5.25 23.25 6.11 23.24 6.98C23.24 10.38 23.24 13.79 23.24 17.2C23.25 18.04 23.15 18.88 22.96 19.7C22.52 21.5 21.37 22.57 19.58 22.98C18.71 23.17 17.82 23.26 16.92 23.24C13.57 23.24 10.21 23.24 6.86 23.24C6 23.25 5.14 23.15 4.31 22.96C2.5 22.52 1.42 21.38 1.01 19.58C0.8 18.66 0.75 17.75 0.75 16.82C0.75 15.21 0.75 13.6 0.75 11.99Z" fill="#FFFFFF" fill-opacity="0" fill-rule="nonzero"/>
	<path d="M0.75 6.71C0.74 5.86 0.85 5.02 1.06 4.19C1.52 2.45 2.66 1.41 4.4 1.01C5.27 0.82 6.16 0.73 7.06 0.75C10.43 0.75 13.8 0.75 17.17 0.75C18.02 0.74 18.87 0.84 19.7 1.04C21.49 1.48 22.57 2.61 22.98 4.4C23.17 5.25 23.25 6.11 23.24 6.98C23.24 10.38 23.24 13.79 23.24 17.2C23.25 18.04 23.15 18.88 22.96 19.7C22.52 21.5 21.37 22.57 19.58 22.98C18.71 23.17 17.82 23.26 16.92 23.24C13.57 23.24 10.21 23.24 6.86 23.24C6 23.25 5.14 23.15 4.31 22.96C2.5 22.52 1.42 21.38 1.01 19.58C0.8 18.66 0.75 17.75 0.75 16.82C0.75 15.21 0.75 13.6 0.75 11.99C0.75 10.23 0.74 8.47 0.75 6.71Z" stroke="#FFFFFF" stroke-opacity="0" stroke-width="1.000000"/>
	<g opacity="0.200000">
		<path d="M0.75 11.99C0.75 10.23 0.74 8.47 0.75 6.71C0.74 5.86 0.85 5.02 1.06 4.19C1.52 2.45 2.66 1.41 4.4 1.01C5.27 0.82 6.16 0.73 7.06 0.75C10.43 0.75 13.8 0.75 17.17 0.75C18.02 0.74 18.87 0.84 19.7 1.04C21.49 1.48 22.57 2.61 22.98 4.4C23.17 5.25 23.25 6.11 23.24 6.98C23.24 10.38 23.24 13.79 23.24 17.2C23.25 18.04 23.15 18.88 22.96 19.7C22.52 21.5 21.37 22.57 19.58 22.98C18.71 23.17 17.82 23.26 16.92 23.24C13.57 23.24 10.21 23.24 6.86 23.24C6 23.25 5.14 23.15 4.31 22.96C2.5 22.52 1.42 21.38 1.01 19.58C0.8 18.66 0.75 17.75 0.75 16.82C0.75 15.21 0.75 13.6 0.75 11.99Z" fill="#000000" fill-opacity="0" fill-rule="nonzero"/>
		<path d="M0.75 6.71C0.74 5.86 0.85 5.02 1.06 4.19C1.52 2.45 2.66 1.41 4.4 1.01C5.27 0.82 6.16 0.73 7.06 0.75C10.43 0.75 13.8 0.75 17.17 0.75C18.02 0.74 18.87 0.84 19.7 1.04C21.49 1.48 22.57 2.61 22.98 4.4C23.17 5.25 23.25 6.11 23.24 6.98C23.24 10.38 23.24 13.79 23.24 17.2C23.25 18.04 23.15 18.88 22.96 19.7C22.52 21.5 21.37 22.57 19.58 22.98C18.71 23.17 17.82 23.26 16.92 23.24C13.57 23.24 10.21 23.24 6.86 23.24C6 23.25 5.14 23.15 4.31 22.96C2.5 22.52 1.42 21.38 1.01 19.58C0.8 18.66 0.75 17.75 0.75 16.82C0.75 15.21 0.75 13.6 0.75 11.99C0.75 10.23 0.74 8.47 0.75 6.71Z" stroke="#FFFFFF" stroke-opacity="0" stroke-width="1.000000"/>
	</g>
	<circle cx="12.000000" cy="12.000000" r="12.000000" fill="#F3F3F3" fill-opacity="1.000000"/>
	<circle cx="12.000000" cy="12.000000" r="12.000000" stroke="#000000" stroke-opacity="0" stroke-width="1.000000"/>
	<path d="M7.1 10.36C6.8 9.58 6.6 8.59 6.5 7.38C6.5 7.36 6.5 7.33 6.5 7.31C6.5 6.86 6.86 6.5 7.31 6.5L8.88 6.5C9.28 6.5 9.61 6.79 9.68 7.18C9.74 7.59 9.81 7.91 9.87 8.16C9.95 8.53 10.12 9.08 10.37 9.81C10.31 10.37 10.12 10.68 9.79 10.76C10.32 13.06 13.16 14.54 13.23 14.2C13.31 13.87 13.62 13.68 14.18 13.62C14.91 13.87 15.46 14.04 15.83 14.12C16.08 14.18 16.4 14.25 16.81 14.31C17.2 14.38 17.49 14.71 17.49 15.11L17.5 16.68C17.49 17.13 17.13 17.49 16.68 17.5C16.66 17.5 16.63 17.49 16.61 17.49C15.41 17.39 14.41 17.19 13.63 16.89C10.15 15.75 7.97 13.57 7.1 10.36Z" fill="#191919" fill-opacity="1.000000" fill-rule="evenodd"/>
	<path d="M6.5 7.38C6.5 7.36 6.5 7.33 6.5 7.31C6.5 6.86 6.86 6.5 7.31 6.5L8.88 6.5C9.28 6.5 9.61 6.79 9.68 7.18C9.74 7.59 9.81 7.91 9.87 8.16C9.95 8.53 10.12 9.08 10.37 9.81C10.31 10.37 10.12 10.68 9.79 10.76C10.32 13.06 13.16 14.54 13.23 14.2C13.31 13.87 13.62 13.68 14.18 13.62C14.91 13.87 15.46 14.04 15.83 14.12C16.08 14.18 16.4 14.25 16.81 14.31C17.2 14.38 17.49 14.71 17.49 15.11L17.5 16.68C17.49 17.13 17.13 17.49 16.68 17.5C16.66 17.5 16.63 17.49 16.61 17.49C15.41 17.39 14.41 17.19 13.63 16.89C10.15 15.75 7.97 13.57 7.1 10.36C6.8 9.58 6.6 8.59 6.5 7.38Z" stroke="#191919" stroke-opacity="0" stroke-width="1.000000" stroke-linejoin="round"/>
</svg>
