<svg width="24.000000" height="24.000000" viewBox="0 0 24 24" fill="none" xmlns="http://www.w3.org/2000/svg" xmlns:xlink="http://www.w3.org/1999/xlink">
	<desc>
			Created with Pixso.
	</desc>
	<defs>
		<filter id="filter_151_2298_dd" x="0.000000" y="0.000000" width="24.000000" height="24.000000" filterUnits="userSpaceOnUse" color-interpolation-filters="sRGB">
			<feFlood flood-opacity="0" result="BackgroundImageFix"/>
			<feGaussianBlur in="BackgroundImage" stdDeviation="1.99874"/>
			<feComposite in2="SourceAlpha" operator="in" result="effect_backgroundBlur_1"/>
			<feBlend mode="normal" in="SourceGraphic" in2="effect_backgroundBlur_1" result="shape"/>
			<feColorMatrix in="SourceAlpha" type="matrix" values="0 0 0 0 0 0 0 0 0 0 0 0 0 0 0 0 0 0 127 0" result="hardAlpha"/>
			<feOffset dx="0" dy="0"/>
			<feGaussianBlur stdDeviation="1.33333"/>
			<feComposite in2="hardAlpha" operator="arithmetic" k2="-1" k3="1"/>
			<feColorMatrix type="matrix" values="0 0 0 0 1 0 0 0 0 1 0 0 0 0 1 0 0 0 1 0"/>
			<feBlend mode="normal" in2="shape" result="effect_innerShadow_2"/>
		</filter>
	</defs>
	<g filter="url(#filter_151_2298_dd)">
		<rect rx="12.000000" width="24.000000" height="24.000000" fill="#ED6F21" fill-opacity="1.000000"/>
		<path d="M5.63 9.26L18.36 9.26L18.36 16.65C18.36 17.33 17.79 17.88 17.09 17.88L6.9 17.88C6.2 17.88 5.63 17.33 5.63 16.65L5.63 9.26Z" fill="#FFCCC4" fill-opacity="1.000000" fill-rule="evenodd"/>
		<path d="M19 16.19L19 7.88C19 7.71 18.98 7.54 18.94 7.38C18.91 7.24 18.86 7.11 18.81 6.98C18.69 6.7 18.52 6.46 18.3 6.25C18.18 6.14 18.06 6.04 17.92 5.95C17.8 5.88 17.67 5.81 17.54 5.75C17.24 5.63 16.93 5.57 16.61 5.57L7.38 5.57C7.2 5.57 7.03 5.59 6.86 5.63C6.72 5.66 6.58 5.7 6.45 5.75C6.31 5.81 6.18 5.88 6.06 5.95C5.93 6.04 5.81 6.14 5.69 6.25C5.58 6.36 5.48 6.48 5.39 6.6C5.31 6.72 5.24 6.85 5.18 6.98C5.13 7.11 5.08 7.24 5.05 7.37C5.01 7.54 5 7.71 5 7.88L5 16.19C5 16.5 5.06 16.8 5.18 17.09C5.24 17.22 5.31 17.34 5.39 17.46C5.48 17.59 5.58 17.71 5.69 17.82C5.91 18.03 6.17 18.2 6.45 18.31C6.75 18.43 7.06 18.5 7.38 18.5L16.61 18.5C16.78 18.5 16.95 18.48 17.12 18.44C17.26 18.41 17.4 18.37 17.54 18.31C17.82 18.2 18.08 18.03 18.3 17.82C18.52 17.61 18.69 17.36 18.81 17.09C18.93 16.8 19 16.5 19 16.19ZM17.93 7.34C18 7.51 18.04 7.69 18.04 7.88L18.04 16.19C18.04 16.29 18.03 16.4 18.01 16.5C17.99 16.57 17.96 16.65 17.93 16.73C17.86 16.89 17.75 17.04 17.62 17.17C17.49 17.29 17.34 17.39 17.17 17.46C16.99 17.54 16.8 17.57 16.61 17.57L7.38 17.57C7.27 17.57 7.16 17.56 7.05 17.54C6.97 17.52 6.9 17.49 6.82 17.46C6.74 17.43 6.67 17.39 6.6 17.35C6.52 17.3 6.44 17.24 6.37 17.17C6.3 17.1 6.23 17.02 6.18 16.94C6.13 16.87 6.1 16.8 6.06 16.73C5.99 16.55 5.95 16.38 5.95 16.19L5.95 7.88C5.95 7.77 5.96 7.66 5.99 7.55C6.01 7.48 6.03 7.41 6.06 7.34C6.1 7.26 6.14 7.19 6.18 7.12C6.24 7.04 6.3 6.97 6.37 6.9C6.44 6.83 6.51 6.77 6.6 6.72C6.67 6.68 6.74 6.64 6.82 6.6C6.9 6.57 6.97 6.55 7.05 6.53C7.15 6.51 7.27 6.5 7.38 6.5L16.61 6.5C16.8 6.5 16.99 6.53 17.17 6.6C17.24 6.64 17.32 6.67 17.39 6.72C17.47 6.77 17.55 6.83 17.62 6.9C17.69 6.97 17.76 7.04 17.81 7.12C17.86 7.19 17.89 7.26 17.93 7.34Z" fill="#FFFFFF" fill-opacity="1.000000" fill-rule="evenodd"/>
		<path d="M9.66 4.96L9.66 6.66C9.66 6.92 9.45 7.12 9.18 7.12C8.91 7.12 8.7 6.92 8.7 6.66L8.7 4.96C8.7 4.7 8.91 4.5 9.18 4.5C9.45 4.5 9.66 4.7 9.66 4.96ZM15.28 4.96C15.28 4.7 15.07 4.5 14.8 4.5C14.53 4.5 14.32 4.7 14.32 4.96L14.32 6.66C14.32 6.92 14.53 7.12 14.8 7.12C15.07 7.12 15.28 6.92 15.28 6.66L15.28 4.96Z" fill="#FFFFFF" fill-opacity="1.000000" fill-rule="evenodd"/>
		<path d="M5.47 9.11L18.52 9.11L18.52 10.03L5.47 10.03L5.47 9.11Z" fill="#FFFFFF" fill-opacity="1.000000" fill-rule="evenodd"/>
		<path d="M14.32 11.95L12.41 15.33C12.36 15.44 12.27 15.51 12.15 15.55C12.03 15.59 11.92 15.58 11.81 15.53L9.58 14.61C9.33 14.51 9.22 14.24 9.33 14.01C9.43 13.77 9.71 13.66 9.96 13.76L11.78 14.52L13.49 11.5C13.61 11.28 13.9 11.2 14.13 11.32C14.37 11.44 14.45 11.72 14.32 11.95Z" fill="#FFFFFF" fill-opacity="1.000000" fill-rule="evenodd"/>
		<path d="M8.71 5.57L7.38 5.57C6.06 5.57 5 6.61 5 7.88L5 9.11L19 9.11L19 7.88C19 6.61 17.93 5.57 16.61 5.57L15.28 5.57L15.28 4.96C15.28 4.7 15.07 4.5 14.8 4.5C14.53 4.5 14.32 4.7 14.32 4.96L14.33 5.57L9.66 5.57L9.66 4.96C9.66 4.7 9.45 4.5 9.18 4.5C8.91 4.5 8.7 4.7 8.7 4.96L8.71 5.57Z" fill="#FFFFFF" fill-opacity="0" fill-rule="evenodd"/>
	</g>
</svg>
