<svg width="24.000000" height="24.000000" viewBox="0 0 24 24" fill="none" xmlns="http://www.w3.org/2000/svg" xmlns:xlink="http://www.w3.org/1999/xlink">
	<desc>
			Created with Pixso.
	</desc>
	<defs>
		<filter id="filter_151_2296_dd" x="0.000000" y="0.000000" width="24.000000" height="24.000000" filterUnits="userSpaceOnUse" color-interpolation-filters="sRGB">
			<feFlood flood-opacity="0" result="BackgroundImageFix"/>
			<feGaussianBlur in="BackgroundImage" stdDeviation="1.99874"/>
			<feComposite in2="SourceAlpha" operator="in" result="effect_backgroundBlur_1"/>
			<feBlend mode="normal" in="SourceGraphic" in2="effect_backgroundBlur_1" result="shape"/>
			<feColorMatrix in="SourceAlpha" type="matrix" values="0 0 0 0 0 0 0 0 0 0 0 0 0 0 0 0 0 0 127 0" result="hardAlpha"/>
			<feOffset dx="0" dy="0"/>
			<feGaussianBlur stdDeviation="1"/>
			<feComposite in2="hardAlpha" operator="arithmetic" k2="-1" k3="1"/>
			<feColorMatrix type="matrix" values="0 0 0 0 1 0 0 0 0 1 0 0 0 0 1 0 0 0 1 0"/>
			<feBlend mode="normal" in2="shape" result="effect_innerShadow_2"/>
		</filter>
		<filter id="filter_151_2297_dd" x="2.000000" y="3.000000" width="21.974731" height="21.000000" filterUnits="userSpaceOnUse" color-interpolation-filters="sRGB">
			<feFlood flood-opacity="0" result="BackgroundImageFix"/>
			<feColorMatrix in="SourceAlpha" type="matrix" values="0 0 0 0 0 0 0 0 0 0 0 0 0 0 0 0 0 0 127 0" result="hardAlpha"/>
			<feOffset dx="1" dy="2"/>
			<feGaussianBlur stdDeviation="1.33333"/>
			<feComposite in2="hardAlpha" operator="out" k2="-1" k3="1"/>
			<feColorMatrix type="matrix" values="0 0 0 0 0 0 0 0 0 0 0 0 0 0 0 0 0 0 0.1 0"/>
			<feBlend mode="normal" in2="BackgroundImageFix" result="effect_dropShadow_1"/>
			<feBlend mode="normal" in="SourceGraphic" in2="effect_dropShadow_1" result="shape"/>
		</filter>
	</defs>
	<g filter="url(#filter_151_2296_dd)">
		<rect rx="12.000000" width="24.000000" height="24.000000" fill="#ED6F21" fill-opacity="1.000000"/>
		<g filter="url(#filter_151_2297_dd)">
			<path d="M12.36 6.97L12.44 7.04L17.86 11.97L17.86 16.13C17.86 17.12 17.04 17.94 16.02 17.99L15.9 18L8.09 18C7.05 18 6.2 17.22 6.14 16.24L6.13 16.13L6.13 11.97L11.55 7.04C11.77 6.83 12.11 6.81 12.36 6.97ZM12 12.54C10.95 12.54 10.1 13.32 10.04 14.3L10.04 14.41L10.04 16.75L13.95 16.75L13.95 14.41C13.95 13.38 13.07 12.54 12 12.54ZM10.3 5.59C11.31 4.77 12.82 4.8 13.79 5.68L18.79 10.22C19 10.46 19.05 10.87 18.82 11.1C18.57 11.35 18.16 11.36 17.9 11.13L12.89 6.58L12.82 6.52C12.31 6.13 11.58 6.15 11.1 6.58L6.09 11.13C5.83 11.31 5.4 11.33 5.17 11.1C4.93 10.85 4.94 10.46 5.2 10.22L10.2 5.68L10.3 5.59Z" fill="#FFFFFF" fill-opacity="1.000000" fill-rule="nonzero"/>
			<path d="M12.44 7.04L17.86 11.97L17.86 16.13C17.86 17.12 17.04 17.94 16.02 17.99L15.9 18L8.09 18C7.05 18 6.2 17.22 6.14 16.24L6.13 16.13L6.13 11.97L11.55 7.04C11.77 6.83 12.11 6.81 12.36 6.97L12.44 7.04ZM10.04 14.3L10.04 14.41L10.04 16.75L13.95 16.75L13.95 14.41C13.95 13.38 13.07 12.54 12 12.54C10.95 12.54 10.1 13.32 10.04 14.3ZM13.79 5.68L18.79 10.22C19 10.46 19.05 10.87 18.82 11.1C18.57 11.35 18.16 11.36 17.9 11.13L12.89 6.58L12.82 6.52C12.31 6.13 11.58 6.15 11.1 6.58L6.09 11.13C5.83 11.31 5.4 11.33 5.17 11.1C4.93 10.85 4.94 10.46 5.2 10.22L10.2 5.68L10.3 5.59C11.31 4.77 12.82 4.8 13.79 5.68Z" stroke="#000000" stroke-opacity="0" stroke-width="1.000000"/>
		</g>
	</g>
</svg>
