<svg width="24.000000" height="24.000000" viewBox="0 0 24 24" fill="none" xmlns="http://www.w3.org/2000/svg" xmlns:xlink="http://www.w3.org/1999/xlink">
	<desc>
			Created with Pixso.
	</desc>
	<defs>
		<clipPath id="clip193_2879">
			<rect width="24.000000" height="24.000000" fill="white" fill-opacity="0"/>
		</clipPath>
	</defs>
	<g clip-path="url(#clip193_2879)">
		<path d="M1.81 7.75C1.27 9.05 1 10.47 1 12C1 13.52 1.26 14.93 1.8 16.23C2.34 17.52 3.14 18.7 4.21 19.77C5.29 20.84 6.47 21.65 7.76 22.19C9.06 22.73 10.47 23 12 23C13.51 23 14.92 22.73 16.22 22.19C17.51 21.65 18.7 20.85 19.77 19.77C20.85 18.7 21.65 17.51 22.19 16.22Q23 14.27 23 12C23 10.47 22.73 9.06 22.19 7.76C21.65 6.47 20.84 5.29 19.77 4.21C18.7 3.14 17.52 2.34 16.23 1.8C14.93 1.26 13.52 1 12 1C10.47 1 9.05 1.27 7.75 1.81C6.46 2.34 5.28 3.15 4.22 4.22C3.15 5.28 2.34 6.46 1.81 7.75ZM3.1 15.69C2.63 14.55 2.4 13.32 2.4 12C2.4 10.66 2.64 9.43 3.11 8.29C3.58 7.17 4.28 6.14 5.21 5.21Q6.61 3.81 8.29 3.11C9.43 2.64 10.66 2.4 12 2.4C13.32 2.4 14.55 2.63 15.69 3.1C16.81 3.57 17.85 4.27 18.78 5.21C19.71 6.14 20.42 7.17 20.88 8.3C21.36 9.43 21.59 10.67 21.59 12C21.59 13.32 21.36 14.55 20.89 15.68C20.42 16.81 19.72 17.84 18.78 18.78C17.84 19.72 16.81 20.42 15.68 20.89Q13.98 21.59 12 21.59C10.67 21.59 9.43 21.36 8.3 20.88C7.17 20.42 6.14 19.71 5.21 18.78C4.27 17.85 3.57 16.81 3.1 15.69ZM12 6.38C11.48 6.38 11.06 6.8 11.06 7.31C11.06 7.83 11.48 8.25 12 8.25C12.51 8.25 12.93 7.83 12.93 7.31C12.93 6.8 12.51 6.38 12 6.38ZM11.05 9.6L11.99 9.6C12.18 9.6 12.35 9.67 12.49 9.81C12.62 9.95 12.69 10.11 12.69 10.31L12.69 16.91L13.31 16.91C13.5 16.91 13.66 16.98 13.8 17.12C13.94 17.25 14.01 17.42 14.01 17.61C14.01 17.81 13.94 17.97 13.8 18.11C13.66 18.25 13.5 18.31 13.31 18.31L10.68 18.31C10.29 18.31 9.98 18.01 9.98 17.61C9.98 17.22 10.29 16.91 10.68 16.91L11.29 16.91L11.29 11.01L11.05 11.01C10.66 11.01 10.35 10.7 10.35 10.31C10.35 9.91 10.66 9.6 11.05 9.6Z" fill="#191919" fill-opacity="1.000000" fill-rule="evenodd"/>
	</g>
</svg>
