<svg width="24.000000" height="24.000000" viewBox="0 0 24 24" fill="none" xmlns="http://www.w3.org/2000/svg" xmlns:xlink="http://www.w3.org/1999/xlink">
	<desc>
			Created with Pixso.
	</desc>
	<defs>
		<clipPath id="clip193_2871">
			<rect width="24.000000" height="24.000000" fill="white" fill-opacity="0"/>
		</clipPath>
	</defs>
	<g clip-path="url(#clip193_2871)">
		<path d="M11.04 0.3C11.2 0.24 11.35 0.2 11.51 0.17C11.67 0.14 11.83 0.13 12 0.13C12.16 0.13 12.32 0.14 12.48 0.17C12.64 0.2 12.79 0.24 12.95 0.3L19.79 2.82C19.98 2.89 20.17 2.97 20.34 3.07C20.5 3.16 20.65 3.26 20.8 3.38C20.94 3.49 21.08 3.61 21.2 3.74C21.34 3.88 21.46 4.03 21.57 4.19C21.68 4.35 21.78 4.52 21.87 4.69C21.95 4.86 22.01 5.03 22.07 5.2C22.12 5.38 22.17 5.55 22.2 5.73C22.23 5.93 22.25 6.13 22.25 6.34L22.25 12.88C22.25 13.34 22.21 13.8 22.15 14.26C22.09 14.67 22 15.08 21.89 15.49C21.77 15.89 21.63 16.29 21.47 16.68C21.29 17.08 21.09 17.48 20.86 17.86C20.63 18.24 20.37 18.61 20.09 18.95C19.83 19.28 19.54 19.58 19.24 19.88C18.93 20.16 18.61 20.43 18.27 20.68C17.9 20.95 17.51 21.19 17.09 21.41L12.81 23.66C12.68 23.73 12.55 23.78 12.41 23.81C12.28 23.85 12.14 23.86 12 23.86C11.85 23.86 11.71 23.85 11.58 23.81C11.44 23.78 11.31 23.73 11.18 23.66L6.9 21.41C6.48 21.19 6.09 20.95 5.72 20.68C5.38 20.43 5.06 20.16 4.75 19.88C4.45 19.58 4.16 19.28 3.9 18.95C3.62 18.61 3.36 18.24 3.13 17.86C2.9 17.48 2.7 17.08 2.52 16.68C2.36 16.29 2.22 15.89 2.1 15.49C1.99 15.08 1.9 14.67 1.84 14.26C1.78 13.8 1.75 13.34 1.75 12.88L1.75 6.34C1.75 6.13 1.76 5.93 1.79 5.73C1.82 5.55 1.87 5.38 1.92 5.2C1.98 5.03 2.04 4.86 2.12 4.69C2.21 4.52 2.31 4.35 2.42 4.19C2.53 4.03 2.65 3.88 2.79 3.74C2.91 3.61 3.05 3.49 3.19 3.38C3.34 3.26 3.49 3.16 3.65 3.07C3.82 2.97 4.01 2.89 4.2 2.82L11.04 0.3ZM11.56 1.7L4.72 4.23C4.5 4.31 4.3 4.42 4.12 4.55L4.12 4.55Q3.85 4.76 3.65 5.05C3.51 5.24 3.41 5.45 3.35 5.66C3.28 5.88 3.25 6.1 3.25 6.34L3.25 12.88C3.25 13.27 3.27 13.67 3.33 14.05C3.38 14.4 3.45 14.74 3.55 15.08C3.64 15.42 3.76 15.76 3.9 16.08C4.05 16.43 4.22 16.76 4.42 17.08C4.61 17.41 4.83 17.72 5.07 18.01C5.29 18.28 5.53 18.54 5.79 18.79Q6.17 19.15 6.59 19.46C6.91 19.69 7.24 19.9 7.59 20.08L11.88 22.34C11.92 22.36 11.96 22.37 12 22.37C12.03 22.37 12.07 22.36 12.11 22.34L16.4 20.08C16.75 19.9 17.08 19.69 17.4 19.46C17.68 19.25 17.95 19.03 18.2 18.79C18.46 18.54 18.7 18.28 18.92 18.01Q18.93 18 18.93 18Q19.28 17.56 19.57 17.08C19.77 16.76 19.94 16.43 20.09 16.08C20.23 15.76 20.35 15.42 20.44 15.08C20.54 14.74 20.61 14.4 20.66 14.05Q20.75 13.47 20.75 12.88L20.75 6.34C20.75 6.1 20.71 5.88 20.64 5.66C20.58 5.45 20.48 5.24 20.34 5.05Q20.14 4.76 19.87 4.55L19.87 4.55C19.69 4.42 19.49 4.31 19.27 4.23L12.43 1.7C12.36 1.68 12.29 1.66 12.21 1.65C12.14 1.63 12.07 1.63 12 1.63C11.92 1.63 11.85 1.63 11.78 1.65C11.7 1.66 11.63 1.68 11.56 1.7ZM11.77 15.79L18.69 8.51C18.98 8.21 18.97 7.74 18.66 7.45C18.36 7.16 17.89 7.17 17.6 7.48L10.7 14.73C10.68 14.75 10.56 14.78 10.53 14.79C10.5 14.79 10.39 14.73 10.36 14.72L6.79 10.98C6.5 10.67 6.03 10.66 5.73 10.95C5.42 11.24 5.41 11.71 5.7 12.01L9.27 15.75C9.36 15.84 9.45 15.92 9.55 15.99C9.64 16.05 9.74 16.11 9.84 16.15C9.94 16.19 10.04 16.23 10.15 16.25C10.26 16.28 10.38 16.29 10.5 16.29C10.61 16.3 10.73 16.29 10.84 16.27C10.95 16.25 11.05 16.22 11.16 16.18C11.26 16.14 11.36 16.09 11.45 16.04C11.56 15.97 11.68 15.87 11.77 15.79Z" fill="#191919" fill-opacity="1.000000" fill-rule="evenodd"/>
	</g>
</svg>
