<svg width="18.000000" height="18.000000" viewBox="0 0 18 18" fill="none" xmlns="http://www.w3.org/2000/svg" xmlns:xlink="http://www.w3.org/1999/xlink">
	<desc>
			Created with Pixso.
	</desc>
	<defs>
		<clipPath id="clip1_53">
			<rect width="18.000000" height="18.000000" fill="white" fill-opacity="0"/>
		</clipPath>
	</defs>
	<g clip-path="url(#clip1_53)">
		<path d="M16.18 16.33L14.38 16.33L14.38 16.65C14.38 17.17 13.97 17.6 13.48 17.6C12.98 17.6 12.58 17.17 12.58 16.64L12.58 16.32L5.38 16.31L5.38 16.62C5.38 17.15 4.97 17.58 4.47 17.57C3.98 17.57 3.58 17.14 3.58 16.62L3.58 16.3L1.78 16.3C1.11 16.29 -0.02 15.09 -0.02 14.38L0 7.38C0 6.68 0.54 6.11 1.2 6.11L2.4 6.12C3.06 6.12 3.6 6.69 3.6 7.39L3.58 12.48L14.39 12.51L14.4 7.42C14.4 6.72 14.94 6.15 15.6 6.15L16.8 6.15C17.47 6.15 18 6.72 18 7.43L17.98 14.43C17.98 15.13 16.84 16.33 16.18 16.33ZM15.01 4.87C14.01 4.87 13.21 5.73 13.2 6.78L13.19 11.23L4.79 11.21L4.8 6.76C4.8 5.7 4 4.85 3.01 4.84C2.79 4.84 2.59 4.77 2.4 4.84L2.41 2.3C2.41 1.24 3.22 0.39 4.22 0.39L13.82 0.42C14.81 0.42 15.62 1.28 15.61 2.33L15.61 4.88C15.42 4.8 15.22 4.87 15.01 4.87Z" fill="#000000" fill-opacity="0.600000" fill-rule="nonzero"/>
	</g>
</svg>
