<svg width="16.000000" height="16.000000" viewBox="0 0 16 16" fill="none" xmlns="http://www.w3.org/2000/svg" xmlns:xlink="http://www.w3.org/1999/xlink">
	<desc>
		Created with Pixso.
	</desc>
	<defs>
		<clipPath id="clip6_1742">
			<rect id="ic_public_mobilephone" width="16.000000" height="16.000000" fill="white" fill-opacity="0"/>
		</clipPath>
	</defs>
	<g clip-path="url(#clip6_1742)">
		<path id="矢量 67" d="M12.38 0.24C12.15 0.14 11.91 0.1 11.66 0.1L4.33 0.1C4.19 0.1 4.06 0.11 3.94 0.14C3.83 0.16 3.72 0.2 3.61 0.24C3.51 0.29 3.41 0.34 3.32 0.4C3.22 0.47 3.12 0.55 3.03 0.64C2.94 0.73 2.87 0.82 2.8 0.93C2.74 1.02 2.68 1.12 2.64 1.23C2.59 1.33 2.56 1.44 2.54 1.55C2.51 1.68 2.5 1.82 2.5 1.95L2.5 14.24C2.5 14.49 2.54 14.73 2.64 14.96C2.68 15.07 2.74 15.17 2.8 15.26C2.87 15.37 2.94 15.46 3.03 15.55C3.2 15.72 3.4 15.85 3.61 15.95C3.84 16.05 4.08 16.1 4.33 16.1L11.66 16.1C11.91 16.1 12.15 16.05 12.38 15.95Q12.52 15.89 12.66 15.8L12.66 15.8Q12.82 15.69 12.96 15.55C13.05 15.46 13.12 15.37 13.19 15.26C13.25 15.17 13.31 15.07 13.35 14.96C13.45 14.73 13.5 14.49 13.5 14.24L13.5 1.95C13.5 1.82 13.48 1.68 13.45 1.55Q13.45 1.55 13.45 1.55Q13.42 1.38 13.35 1.23C13.31 1.12 13.25 1.02 13.19 0.93C13.12 0.82 13.05 0.73 12.96 0.64Q12.82 0.5 12.66 0.39Q12.52 0.3 12.38 0.24ZM4.33 1.11L11.66 1.11C11.89 1.11 12.09 1.19 12.25 1.35C12.41 1.52 12.5 1.72 12.5 1.95L12.5 14.24C12.5 14.36 12.47 14.46 12.43 14.56C12.39 14.66 12.33 14.75 12.25 14.84C12.09 15 11.89 15.08 11.66 15.08L4.33 15.08C4.21 15.08 4.11 15.06 4.01 15.02C3.91 14.98 3.82 14.92 3.74 14.84C3.66 14.75 3.6 14.66 3.56 14.56C3.52 14.46 3.5 14.36 3.5 14.24L3.5 1.95C3.5 1.84 3.52 1.73 3.56 1.63C3.6 1.53 3.66 1.44 3.74 1.35C3.82 1.27 3.91 1.21 4.01 1.17C4.11 1.13 4.21 1.11 4.33 1.11ZM8.5 2.51C8.5 2.79 8.27 3.02 8 3.02C7.72 3.02 7.5 2.79 7.5 2.51C7.5 2.23 7.72 2.01 8 2.01C8.27 2.01 8.5 2.23 8.5 2.51ZM6 13.67C5.72 13.67 5.5 13.89 5.5 14.17C5.5 14.45 5.72 14.67 6 14.67L10 14.67C10.28 14.67 10.5 14.45 10.5 14.17C10.5 13.89 10.28 13.67 10 13.67L6 13.67Z" fill="#000000" fill-opacity="0.600000" fill-rule="evenodd"/>
		<path id="矢量 67" d="M11.66 0.1L4.33 0.1C4.19 0.1 4.06 0.11 3.94 0.14C3.83 0.16 3.72 0.2 3.61 0.24C3.51 0.29 3.41 0.34 3.32 0.4C3.22 0.47 3.12 0.55 3.03 0.64C2.94 0.73 2.87 0.82 2.8 0.93C2.74 1.02 2.68 1.12 2.64 1.23C2.59 1.33 2.56 1.44 2.54 1.55C2.51 1.68 2.5 1.82 2.5 1.95L2.5 14.24C2.5 14.49 2.54 14.73 2.64 14.96C2.68 15.07 2.74 15.17 2.8 15.26C2.87 15.37 2.94 15.46 3.03 15.55C3.2 15.72 3.4 15.85 3.61 15.95C3.84 16.05 4.08 16.1 4.33 16.1L11.66 16.1C11.91 16.1 12.15 16.05 12.38 15.95C12.59 15.85 12.79 15.72 12.96 15.55C13.05 15.46 13.12 15.37 13.19 15.26C13.25 15.17 13.31 15.07 13.35 14.96C13.45 14.73 13.5 14.49 13.5 14.24L13.5 1.95C13.5 1.82 13.48 1.68 13.45 1.55C13.43 1.44 13.4 1.33 13.35 1.23C13.31 1.12 13.25 1.02 13.19 0.93C13.12 0.82 13.05 0.73 12.96 0.64C12.79 0.47 12.59 0.34 12.38 0.24C12.15 0.14 11.91 0.1 11.66 0.1ZM11.66 1.11C11.89 1.11 12.09 1.19 12.25 1.35C12.41 1.52 12.5 1.72 12.5 1.95L12.5 14.24C12.5 14.36 12.47 14.46 12.43 14.56C12.39 14.66 12.33 14.75 12.25 14.84C12.09 15 11.89 15.08 11.66 15.08L4.33 15.08C4.21 15.08 4.11 15.06 4.01 15.02C3.91 14.98 3.82 14.92 3.74 14.84C3.66 14.75 3.6 14.66 3.56 14.56C3.52 14.46 3.5 14.36 3.5 14.24L3.5 1.95C3.5 1.84 3.52 1.73 3.56 1.63C3.6 1.53 3.66 1.44 3.74 1.35C3.82 1.27 3.91 1.21 4.01 1.17C4.11 1.13 4.21 1.11 4.33 1.11L11.66 1.11ZM5.5 14.17C5.5 14.45 5.72 14.67 6 14.67L10 14.67C10.28 14.67 10.5 14.45 10.5 14.17C10.5 13.89 10.28 13.67 10 13.67L6 13.67C5.72 13.67 5.5 13.89 5.5 14.17ZM8.5 2.51C8.5 2.23 8.27 2.01 8 2.01C7.72 2.01 7.5 2.23 7.5 2.51C7.5 2.79 7.72 3.02 8 3.02C8.27 3.02 8.5 2.79 8.5 2.51Z" stroke="#FFFFFF" stroke-opacity="0" stroke-width="1.000000" stroke-linejoin="round"/>
	</g>
</svg>
