<svg width="112.000000" height="112.000000" viewBox="0 0 112 112" fill="none" xmlns="http://www.w3.org/2000/svg" xmlns:xlink="http://www.w3.org/1999/xlink">
	<desc>
		Created with Pixso.
	</desc>
	<defs>
		<clipPath id="clip128_1514">
			<rect id="svg" width="112.000000" height="112.000000" fill="white" fill-opacity="0"/>
		</clipPath>
	</defs>
	<g clip-path="url(#clip128_1514)">
		<g opacity="0.000000">
			<rect id="rect" width="112.000000" height="112.000000" fill="#000000" fill-opacity="1.000000"/>
		</g>
		<g opacity="0.070000">
			<path id="path" d="M59.92 14.23C58.48 13.64 57.07 13.34 55.67 13.34C54.24 13.34 52.82 13.64 51.42 14.23L5.59 33.83C4.48 34.26 3.71 35.1 3.31 36.35C2.9 37.56 2.9 38.79 3.31 40.04C3.71 41.28 4.48 42.12 5.59 42.56L51.52 61.04C54.07 62.16 56.71 62.16 59.45 61.04L106.16 42.56C107.38 42.12 108.2 41.31 108.64 40.13C109.07 38.98 109.09 37.8 108.68 36.58C108.28 35.34 107.52 34.5 106.4 34.06L59.92 14.23Z" fill="#FE4F35" fill-opacity="1.000000" fill-rule="nonzero"/>
		</g>
		<g opacity="0.070000">
			<path id="path" d="M90.95 56.88C90.05 56.51 88.85 56.51 87.36 56.88C86.45 57.1 84.29 57.91 80.87 59.31C77.42 60.68 74.99 61.7 73.59 62.39C71.57 63.2 69.37 64.13 67.01 65.19C64.68 66.22 62.9 67.04 61.69 67.66C60.82 68.1 60.04 68.63 59.36 69.25C58.67 69.9 58.08 70.63 57.58 71.44C57.21 71.82 56.79 72.53 56.32 73.59C56.32 73.71 56.21 74.06 56.18 74.15L55.67 73.59C55.2 72.53 54.78 71.82 54.41 71.44C53.6 70.17 52.67 69.16 51.61 68.41L50.3 67.66C47.6 66.29 43.07 64.26 36.72 61.55C30.38 58.81 26.27 57.26 24.4 56.88C22.91 56.6 21.65 56.66 20.62 57.07C19.56 57.47 18.85 58.31 18.48 59.59C18.32 60.4 18.26 64.15 18.29 70.83C18.35 77.52 18.57 81.62 18.94 83.11C19.22 84.51 19.87 85.85 20.9 87.12C21.9 88.4 23.03 89.49 24.31 90.39C25.71 91.29 27.93 92.24 30.98 93.24C34 94.23 38.26 95.52 43.77 97.11C47.13 98.07 50.46 99.04 53.76 100C54.5 100.22 55.25 100.33 56 100.33C56.74 100.33 57.49 100.22 58.24 100C60.41 99.41 62.58 98.77 64.72 98.09C71.66 96.1 76.89 94.54 80.4 93.42C83.92 92.3 86.34 91.29 87.68 90.39C88.96 89.49 90.09 88.4 91.09 87.12C92.12 85.85 92.77 84.51 93.05 83.11C93.36 82.21 93.53 80.01 93.56 76.53C93.59 73.08 93.58 67.43 93.52 59.59C93.3 59 92.99 58.47 92.58 58C92.15 57.57 91.6 57.19 90.95 56.88ZM100.47 51.61C99.5 51.61 98.68 51.95 98 52.64C97.31 53.32 96.97 54.14 96.97 55.11L96.97 81.66C96.97 82.63 97.31 83.44 98 84.09C98.68 84.77 99.5 85.12 100.47 85.12C101.43 85.12 102.27 84.77 102.99 84.09C103.7 83.44 104.06 82.63 104.06 81.66L104.06 55.11C104.06 54.14 103.7 53.32 102.99 52.64C102.27 51.95 101.43 51.61 100.47 51.61Z" fill="#FE4F35" fill-opacity="1.000000" fill-rule="nonzero"/>
		</g>
	</g>
</svg>
