<svg width="24.000000" height="24.000000" viewBox="0 0 24 24" fill="none" xmlns="http://www.w3.org/2000/svg" xmlns:xlink="http://www.w3.org/1999/xlink">
	<desc>
		Created with Pixso.
	</desc>
	<defs>
		<clipPath id="clip6_3583">
			<rect id="ic_public_star_bookmark" width="24.000000" height="24.000000" fill="white" fill-opacity="0"/>
		</clipPath>
	</defs>
	<g clip-path="url(#clip6_3583)">
		<path id="path1" d="M0.75 11.99C0.75 10.23 0.74 8.47 0.75 6.71C0.74 5.86 0.85 5.02 1.06 4.19C1.52 2.45 2.66 1.41 4.4 1.01C5.27 0.82 6.16 0.73 7.06 0.75C10.43 0.75 13.8 0.75 17.17 0.75C18.02 0.74 18.87 0.84 19.7 1.04C21.49 1.48 22.57 2.61 22.98 4.4C23.17 5.25 23.25 6.11 23.24 6.98C23.24 10.38 23.24 13.79 23.24 17.2C23.25 18.04 23.15 18.88 22.96 19.7C22.52 21.5 21.37 22.57 19.58 22.98C18.71 23.17 17.82 23.26 16.92 23.24C13.57 23.24 10.21 23.24 6.86 23.24C6 23.25 5.14 23.15 4.31 22.96C2.5 22.52 1.42 21.38 1.01 19.58C0.8 18.66 0.75 17.75 0.75 16.82C0.75 15.21 0.75 13.6 0.75 11.99Z" fill="#FFFFFF" fill-opacity="0" fill-rule="nonzero"/>
		<path id="path1" d="M0.75 6.71C0.74 5.86 0.85 5.02 1.06 4.19C1.52 2.45 2.66 1.41 4.4 1.01C5.27 0.82 6.16 0.73 7.06 0.75C10.43 0.75 13.8 0.75 17.17 0.75C18.02 0.74 18.87 0.84 19.7 1.04C21.49 1.48 22.57 2.61 22.98 4.4C23.17 5.25 23.25 6.11 23.24 6.98C23.24 10.38 23.24 13.79 23.24 17.2C23.25 18.04 23.15 18.88 22.96 19.7C22.52 21.5 21.37 22.57 19.58 22.98C18.71 23.17 17.82 23.26 16.92 23.24C13.57 23.24 10.21 23.24 6.86 23.24C6 23.25 5.14 23.15 4.31 22.96C2.5 22.52 1.42 21.38 1.01 19.58C0.8 18.66 0.75 17.75 0.75 16.82C0.75 15.21 0.75 13.6 0.75 11.99C0.75 10.23 0.74 8.47 0.75 6.71Z" stroke="#FFFFFF" stroke-opacity="0" stroke-width="1.500000"/>
		<g opacity="0.200000">
			<path id="path2" d="M0.75 11.99C0.75 10.23 0.74 8.47 0.75 6.71C0.74 5.86 0.85 5.02 1.06 4.19C1.52 2.45 2.66 1.41 4.4 1.01C5.27 0.82 6.16 0.73 7.06 0.75C10.43 0.75 13.8 0.75 17.17 0.75C18.02 0.74 18.87 0.84 19.7 1.04C21.49 1.48 22.57 2.61 22.98 4.4C23.17 5.25 23.25 6.11 23.24 6.98C23.24 10.38 23.24 13.79 23.24 17.2C23.25 18.04 23.15 18.88 22.96 19.7C22.52 21.5 21.37 22.57 19.58 22.98C18.71 23.17 17.82 23.26 16.92 23.24C13.57 23.24 10.21 23.24 6.86 23.24C6 23.25 5.14 23.15 4.31 22.96C2.5 22.52 1.42 21.38 1.01 19.58C0.8 18.66 0.75 17.75 0.75 16.82C0.75 15.21 0.75 13.6 0.75 11.99Z" fill="#000000" fill-opacity="0" fill-rule="nonzero"/>
			<path id="path2" d="M0.75 6.71C0.74 5.86 0.85 5.02 1.06 4.19C1.52 2.45 2.66 1.41 4.4 1.01C5.27 0.82 6.16 0.73 7.06 0.75C10.43 0.75 13.8 0.75 17.17 0.75C18.02 0.74 18.87 0.84 19.7 1.04C21.49 1.48 22.57 2.61 22.98 4.4C23.17 5.25 23.25 6.11 23.24 6.98C23.24 10.38 23.24 13.79 23.24 17.2C23.25 18.04 23.15 18.88 22.96 19.7C22.52 21.5 21.37 22.57 19.58 22.98C18.71 23.17 17.82 23.26 16.92 23.24C13.57 23.24 10.21 23.24 6.86 23.24C6 23.25 5.14 23.15 4.31 22.96C2.5 22.52 1.42 21.38 1.01 19.58C0.8 18.66 0.75 17.75 0.75 16.82C0.75 15.21 0.75 13.6 0.75 11.99C0.75 10.23 0.74 8.47 0.75 6.71Z" stroke="#FFFFFF" stroke-opacity="0" stroke-width="1.500000"/>
		</g>
		<circle id="path3" cx="12.000000" cy="12.000000" r="12.000000" fill="#FFFFFF" fill-opacity="0"/>
		<circle id="path3" cx="12.000000" cy="12.000000" r="12.000000" stroke="#000000" stroke-opacity="0" stroke-width="1.500000"/>
		<path id="path4" d="M19.77 8.12L19.75 8.1C19.75 7.67 20.08 7.35 20.5 7.35C20.92 7.35 21.25 7.67 21.25 8.1L21.23 8.12L19.77 8.12ZM21.23 5.08L21.25 5.1C21.25 5.52 20.92 5.85 20.5 5.85C20.08 5.85 19.75 5.52 19.75 5.1L19.77 5.08L21.23 5.08Z" fill="#000000" fill-opacity="0" fill-rule="nonzero"/>
		<path id="path4" d="M20.5 8.1L20.5 22.39C20.5 22.66 20.27 22.89 20 22.89C19.87 22.89 19.76 22.84 19.66 22.76L12.99 16.87C12.42 16.37 11.57 16.37 11 16.87L4.33 22.76C4.12 22.94 3.8 22.92 3.62 22.72C3.54 22.63 3.5 22.51 3.5 22.39L3.5 4C3.5 2.34 4.84 1 6.5 1L17.5 1C19.15 1 20.5 2.34 20.5 4L20.5 5.1" stroke="#191919" stroke-opacity="1.000000" stroke-width="1.500000" stroke-linejoin="round" stroke-linecap="round"/>
		<path id="path5" d="M20.5 22.39C20.5 22.66 20.27 22.89 20 22.89C19.87 22.89 19.76 22.84 19.66 22.76L12.99 16.87C12.42 16.37 11.57 16.37 11 16.87L4.33 22.76C4.12 22.94 3.8 22.92 3.62 22.72C3.54 22.63 3.5 22.51 3.5 22.39L3.5 4C3.5 2.34 4.84 1 6.5 1L17.5 1C19.15 1 20.5 2.34 20.5 4L20.5 22.39Z" fill="#FFFFFF" fill-opacity="0" fill-rule="evenodd"/>
		<path id="path5" d="M20 22.89C19.87 22.89 19.76 22.84 19.66 22.76L12.99 16.87C12.42 16.37 11.57 16.37 11 16.87L4.33 22.76C4.12 22.94 3.8 22.92 3.62 22.72C3.54 22.63 3.5 22.51 3.5 22.39L3.5 4C3.5 2.34 4.84 1 6.5 1L17.5 1C19.15 1 20.5 2.34 20.5 4L20.5 22.39C20.5 22.66 20.27 22.89 20 22.89Z" stroke="#FFFFFF" stroke-opacity="0" stroke-width="1.500000" stroke-linejoin="round"/>
		<path id="path6" d="M11.76 12.24L10.1 13.12C9.86 13.24 9.55 13.15 9.42 12.91C9.37 12.81 9.36 12.7 9.37 12.59L9.69 10.74C9.72 10.58 9.67 10.41 9.55 10.3L8.2 8.98C8.01 8.79 8 8.48 8.19 8.28C8.27 8.2 8.37 8.15 8.48 8.13L10.34 7.86C10.5 7.84 10.64 7.74 10.72 7.59L11.55 5.9C11.67 5.66 11.97 5.55 12.22 5.68C12.31 5.73 12.39 5.8 12.44 5.9L13.27 7.59C13.35 7.74 13.49 7.84 13.65 7.86L15.51 8.13C15.78 8.17 15.97 8.42 15.93 8.7C15.92 8.81 15.87 8.91 15.79 8.98L14.44 10.3C14.32 10.41 14.27 10.58 14.3 10.74L14.62 12.59C14.66 12.86 14.48 13.12 14.21 13.17C14.1 13.19 13.99 13.17 13.89 13.12L12.23 12.24C12.08 12.17 11.91 12.17 11.76 12.24Z" fill="#FFFFFF" fill-opacity="0" fill-rule="evenodd"/>
		<path id="path6" d="M10.1 13.12C9.86 13.24 9.55 13.15 9.42 12.91C9.37 12.81 9.36 12.7 9.37 12.59L9.69 10.74C9.72 10.58 9.67 10.41 9.55 10.3L8.2 8.98C8.01 8.79 8 8.48 8.19 8.28C8.27 8.2 8.37 8.15 8.48 8.13L10.34 7.86C10.5 7.84 10.64 7.74 10.72 7.59L11.55 5.9C11.67 5.66 11.97 5.55 12.22 5.68C12.31 5.73 12.39 5.8 12.44 5.9L13.27 7.59C13.35 7.74 13.49 7.84 13.65 7.86L15.51 8.13C15.78 8.17 15.97 8.42 15.93 8.7C15.92 8.81 15.87 8.91 15.79 8.98L14.44 10.3C14.32 10.41 14.27 10.58 14.3 10.74L14.62 12.59C14.66 12.86 14.48 13.12 14.21 13.17C14.1 13.19 13.99 13.17 13.89 13.12L12.23 12.24C12.08 12.17 11.91 12.17 11.76 12.24L10.1 13.12Z" stroke="#191919" stroke-opacity="1.000000" stroke-width="1.500000" stroke-linejoin="round"/>
	</g>
</svg>
