<svg width="24.000000" height="24.000000" viewBox="0 0 24 24" fill="none" xmlns="http://www.w3.org/2000/svg" xmlns:xlink="http://www.w3.org/1999/xlink">
	<desc>
			Created with Pixso.
	</desc>
	<defs>
		<clipPath id="clip69_5702">
			<rect rx="12.000000" width="24.000000" height="24.000000" transform="translate(0.000000 24.000000) rotate(-90.000000)" fill="white" fill-opacity="0"/>
		</clipPath>
	</defs>
	<rect rx="12.000000" width="24.000000" height="24.000000" transform="translate(0.000000 24.000000) rotate(-90.000000)" fill="#FFFFFF" fill-opacity="1.000000"/>
	<g clip-path="url(#clip69_5702)">
		<g opacity="0.000000">
			<rect y="24.000000" width="24.000000" height="24.000000" transform="rotate(-90 0.000000 24.000000)" fill="#000000" fill-opacity="1.000000"/>
		</g>
		<path d="M15.54 5.77C15.54 5.56 15.46 5.37 15.3 5.22C15.15 5.07 14.97 5 14.77 5C14.56 5 14.38 5.07 14.24 5.22L8.34 11.18C8.11 11.41 8 11.68 8 12.01C8 12.31 8.11 12.58 8.34 12.79L14.27 18.79C14.41 18.94 14.58 19.02 14.79 19.02C15 19.02 15.18 18.94 15.32 18.79C15.46 18.62 15.54 18.44 15.54 18.25C15.54 18.04 15.46 17.86 15.32 17.72L9.66 12.01L15.3 6.29C15.46 6.14 15.54 5.96 15.54 5.77Z" fill="#4F616D" fill-opacity="1.000000" fill-rule="nonzero"/>
	</g>
</svg>
