<svg width="24.000000" height="24.000000" viewBox="0 0 24 24" fill="none" xmlns="http://www.w3.org/2000/svg" xmlns:xlink="http://www.w3.org/1999/xlink">
	<desc>
			Created with Pixso.
	</desc>
	<defs>
		<clipPath id="clip69_5707">
			<rect rx="12.000000" width="24.000000" height="24.000000" transform="matrix(0 -1 -1 0 24 24)" fill="white" fill-opacity="0"/>
		</clipPath>
	</defs>
	<rect rx="12.000000" width="24.000000" height="24.000000" transform="matrix(0 -1 -1 0 24 24)" fill="#FFFFFF" fill-opacity="1.000000"/>
	<g clip-path="url(#clip69_5707)">
		<g opacity="0.000000">
			<rect width="24.000000" height="24.000000" transform="matrix(0 -1 -1 0 24 24)" fill="#000000" fill-opacity="1.000000"/>
		</g>
		<path d="M8.23 5.75C8.23 5.55 8.31 5.36 8.47 5.2C8.61 5.06 8.79 4.98 9 4.98C9.2 4.98 9.38 5.06 9.53 5.2L15.43 11.17C15.65 11.4 15.77 11.67 15.77 12C15.77 12.3 15.65 12.56 15.43 12.78L9.5 18.78C9.36 18.93 9.18 19 8.98 19C8.76 19 8.59 18.93 8.45 18.78C8.3 18.61 8.23 18.43 8.23 18.23C8.23 18.03 8.3 17.85 8.45 17.7L14.11 12L8.47 6.28C8.31 6.12 8.23 5.95 8.23 5.75Z" fill="#4F616D" fill-opacity="1.000000" fill-rule="nonzero"/>
	</g>
</svg>
