<svg width="60.000000" height="60.000000" viewBox="0 0 60 60" fill="none" xmlns="http://www.w3.org/2000/svg" xmlns:xlink="http://www.w3.org/1999/xlink">
	<desc>
			Created with Pixso.
	</desc>
	<defs/>
	<path d="M15.35 22.89C15.35 23.36 15.38 23.83 15.42 24.3C15.47 24.77 15.54 25.23 15.63 25.69C15.72 26.16 15.84 26.61 15.97 27.06C16.11 27.51 16.27 27.96 16.45 28.39C16.63 28.82 16.83 29.25 17.05 29.66C17.27 30.08 17.51 30.48 17.78 30.87C18.04 31.26 18.32 31.64 18.62 32.01C18.91 32.37 19.23 32.72 19.56 33.05C19.9 33.38 20.24 33.7 20.61 34C20.97 34.3 21.35 34.58 21.74 34.84C22.13 35.1 22.53 35.34 22.95 35.56C23.36 35.78 23.79 35.98 24.22 36.16C24.66 36.34 25.1 36.5 25.55 36.64C26 36.78 26.46 36.89 26.92 36.98C27.38 37.07 27.84 37.14 28.31 37.19C28.78 37.23 29.25 37.26 29.72 37.26C30.19 37.26 30.66 37.23 31.13 37.19C31.6 37.14 32.06 37.07 32.52 36.98C32.98 36.89 33.44 36.78 33.89 36.64C34.34 36.5 34.78 36.34 35.22 36.16C35.65 35.98 36.08 35.78 36.49 35.56C36.91 35.34 37.31 35.1 37.7 34.84C38.09 34.58 38.47 34.3 38.83 34C39.2 33.7 39.55 33.38 39.88 33.05C40.21 32.72 40.53 32.37 40.82 32.01C41.12 31.64 41.4 31.26 41.66 30.87C41.93 30.48 42.17 30.08 42.39 29.66C42.61 29.25 42.81 28.82 42.99 28.39C43.17 27.96 43.33 27.51 43.47 27.06C43.6 26.61 43.72 26.16 43.81 25.69C43.9 25.23 43.97 24.77 44.02 24.3C44.06 23.83 44.09 23.36 44.09 22.89C44.09 22.42 44.06 21.95 44.02 21.48C43.97 21.02 43.9 20.55 43.81 20.09C43.72 19.63 43.6 19.17 43.47 18.72C43.33 18.27 43.17 17.83 42.99 17.39C42.81 16.96 42.61 16.54 42.39 16.12C42.17 15.71 41.93 15.3 41.66 14.91C41.4 14.52 41.12 14.14 40.82 13.78C40.53 13.42 40.21 13.07 39.88 12.73C39.55 12.4 39.2 12.09 38.83 11.79C38.47 11.49 38.09 11.21 37.7 10.95C37.31 10.69 36.91 10.45 36.49 10.22C36.08 10 35.65 9.8 35.22 9.62C34.78 9.44 34.34 9.28 33.89 9.15C33.44 9.01 32.98 8.89 32.52 8.8C32.06 8.71 31.6 8.64 31.13 8.6C30.66 8.55 30.19 8.53 29.72 8.53C29.25 8.53 28.78 8.55 28.31 8.6C27.84 8.64 27.38 8.71 26.92 8.8C26.46 8.89 26 9.01 25.55 9.15C25.1 9.28 24.66 9.44 24.22 9.62C23.79 9.8 23.36 10 22.95 10.22C22.53 10.45 22.13 10.69 21.74 10.95C21.35 11.21 20.97 11.49 20.61 11.79C20.24 12.09 19.9 12.4 19.56 12.73C19.23 13.07 18.91 13.42 18.62 13.78C18.32 14.14 18.04 14.52 17.78 14.91C17.51 15.3 17.27 15.71 17.05 16.12C16.83 16.54 16.63 16.96 16.45 17.39C16.27 17.83 16.11 18.27 15.97 18.72C15.84 19.17 15.72 19.63 15.63 20.09C15.54 20.55 15.47 21.02 15.42 21.48C15.38 21.95 15.35 22.42 15.35 22.89Z" fill="#958DFF" fill-opacity="1.000000" fill-rule="nonzero"/>
	<path d="M10.15 32.51C10.81 32.51 11.33 31.98 11.33 31.32L11.33 22.74C11.42 12.64 19.65 4.46 29.77 4.46C39.31 4.46 47.18 11.74 48.11 21.03L48.11 31.32C48.11 31.98 48.64 32.51 49.29 32.51L50.06 32.51C50.17 32.51 50.29 32.49 50.4 32.46C53 31.7 54.91 29.3 54.91 26.44C54.91 24.5 54.02 22.76 52.63 21.61C51.96 9.58 41.96 0 29.77 0C17.6 0 7.62 9.54 6.91 21.53C5.46 22.68 4.54 24.46 4.54 26.44C4.54 29.3 6.44 31.7 9.05 32.46C9.16 32.5 9.27 32.51 9.38 32.51L10.15 32.51ZM55.41 56.08C54.12 47.74 48.81 40.73 41.51 37.11C38.29 39.7 34.19 41.26 29.72 41.26C25.26 41.26 21.16 39.7 17.93 37.11C10.64 40.73 5.32 47.74 4.03 56.08C3.72 58.13 5.3 60 7.38 60L52.06 60C54.14 60 55.72 58.13 55.41 56.08ZM38.6 54.44L20.84 54.44C19.61 54.44 18.61 53.44 18.61 52.21C18.61 50.98 19.61 49.98 20.84 49.98L38.6 49.98C39.83 49.98 40.84 50.98 40.84 52.21C40.84 53.44 39.83 54.44 38.6 54.44Z" fill="#958DFF" fill-opacity="1.000000" fill-rule="nonzero"/>
</svg>
