<svg width="60.000000" height="60.000000" viewBox="0 0 60 60" fill="none" xmlns="http://www.w3.org/2000/svg" xmlns:xlink="http://www.w3.org/1999/xlink">
	<desc>
			Created with Pixso.
	</desc>
	<defs/>
	<path d="M38.97 8.59C38.97 10.21 40.28 11.52 41.9 11.52L52.5 11.52C52.26 5.12 47 0 40.54 0L38.97 0L38.97 8.59Z" fill="#FF5757" fill-opacity="1.000000" fill-rule="nonzero"/>
	<path d="M41.9 15.89C37.88 15.89 34.61 12.61 34.61 8.59L34.61 0L14.96 0C8.35 0 3 5.36 3 11.97L3 45.33C3 51.94 8.35 57.3 14.96 57.3L23.9 57.3C25.53 57.3 27.12 56.71 28.36 55.65L50.11 37.05C51.63 35.75 52.51 33.84 52.51 31.83L52.51 15.89L41.9 15.89ZM36.46 39.8L19.05 39.8C17.85 39.8 16.87 38.82 16.87 37.61C16.87 36.41 17.85 35.43 19.05 35.43L36.46 35.43C37.66 35.43 38.64 36.41 38.64 37.61C38.64 38.82 37.66 39.8 36.46 39.8ZM36.46 26.04L19.05 26.04C17.85 26.04 16.87 25.06 16.87 23.86C16.87 22.65 17.85 21.68 19.05 21.68L36.46 21.68C37.66 21.68 38.64 22.65 38.64 23.86C38.64 25.06 37.66 26.04 36.46 26.04ZM56.48 42.43L54.9 40.59C54.81 40.47 54.7 40.37 54.58 40.27C54.46 40.18 54.33 40.09 54.19 40.03C54.05 39.96 53.91 39.9 53.77 39.86C53.62 39.82 53.47 39.79 53.32 39.78C53.16 39.77 53.01 39.77 52.86 39.79C52.71 39.8 52.56 39.84 52.41 39.88C52.27 39.93 52.13 39.99 51.99 40.07C51.86 40.14 51.74 40.23 51.62 40.33L36.39 53.32C36.15 53.52 35.95 53.77 35.81 54.06L34.02 57.69C33.44 58.88 34.46 60.22 35.76 59.96L40.02 59.14C40.41 59.06 40.78 58.88 41.09 58.62L56.21 45.71C57.2 44.88 57.32 43.41 56.48 42.43Z" fill="#FF5757" fill-opacity="1.000000" fill-rule="nonzero"/>
</svg>
