<svg width="40.000000" height="40.000000" viewBox="0 0 40 40" fill="none" xmlns="http://www.w3.org/2000/svg" xmlns:xlink="http://www.w3.org/1999/xlink">
	<desc>
			Created with Pixso.
	</desc>
	<defs>
		<clipPath id="clip20_2642">
			<rect width="40.000000" height="40.000000" fill="white" fill-opacity="0"/>
		</clipPath>
	</defs>
	<g clip-path="url(#clip20_2642)">
		<path d="M24.11 29.97L19.91 34.2C19.86 34.25 19.8 34.3 19.74 34.34C19.67 34.39 19.6 34.42 19.53 34.45C19.46 34.48 19.39 34.5 19.31 34.52C19.24 34.53 19.16 34.54 19.09 34.54C19.01 34.54 18.93 34.53 18.86 34.52C18.78 34.5 18.71 34.48 18.64 34.45C18.57 34.42 18.5 34.39 18.44 34.34C18.37 34.3 18.31 34.25 18.26 34.2L14.06 29.97L5.06 29.97C4.91 29.97 4.75 29.96 4.6 29.93C4.45 29.9 4.31 29.85 4.17 29.79C4.02 29.73 3.89 29.66 3.76 29.58C3.63 29.49 3.52 29.39 3.41 29.28C3.3 29.17 3.2 29.06 3.12 28.93C3.03 28.8 2.96 28.66 2.9 28.52C2.84 28.38 2.8 28.23 2.77 28.08C2.74 27.93 2.72 27.77 2.72 27.62L2.72 5.98C2.72 5.83 2.74 5.68 2.77 5.52C2.8 5.37 2.84 5.23 2.9 5.08C2.96 4.94 3.03 4.8 3.12 4.68C3.2 4.55 3.3 4.43 3.41 4.32C3.52 4.21 3.63 4.11 3.76 4.03C3.89 3.94 4.02 3.87 4.17 3.81C4.31 3.75 4.45 3.71 4.6 3.68C4.75 3.65 4.91 3.63 5.06 3.63L33.11 3.63C33.27 3.63 33.42 3.65 33.57 3.68C33.72 3.71 33.86 3.75 34.01 3.81C34.15 3.87 34.28 3.94 34.41 4.03C34.54 4.11 34.66 4.21 34.76 4.32C34.87 4.43 34.97 4.55 35.06 4.68C35.14 4.8 35.21 4.94 35.27 5.08C35.33 5.23 35.37 5.37 35.4 5.52C35.43 5.68 35.45 5.83 35.45 5.98L35.45 27.62C35.45 27.77 35.43 27.93 35.4 28.08C35.37 28.23 35.33 28.38 35.27 28.52C35.21 28.66 35.14 28.8 35.06 28.93C34.97 29.06 34.87 29.17 34.76 29.28C34.66 29.39 34.54 29.49 34.41 29.58C34.28 29.66 34.15 29.73 34.01 29.79C33.86 29.85 33.72 29.9 33.57 29.93C33.42 29.96 33.27 29.97 33.11 29.97L24.11 29.97Z" fill="#007DFF" fill-opacity="1.000000" fill-rule="nonzero"/>
		<path d="M12.97 9.34L14.69 8.56C15.5 9.54 16.22 10.62 16.85 11.77L15.16 12.65C14.5 11.39 13.76 10.29 12.97 9.34ZM26.57 23.14C26.57 24.59 25.75 25.3 24.12 25.3L22.34 25.3L21.84 23.54L23.76 23.59C24.36 23.59 24.66 23.27 24.66 22.64L24.66 11.44L17.93 11.44L17.93 9.63L26.57 9.63L26.57 23.14ZM11.42 25.45L11.42 11.73L13.33 11.73L13.33 25.45L11.42 25.45ZM15.43 21.47L15.43 14.14L22.49 14.14L22.49 21.47L15.43 21.47ZM17.32 19.65L20.6 19.65L20.6 15.92L17.32 15.92L17.32 19.65Z" fill="#FFFFFF" fill-opacity="1.000000" fill-rule="evenodd"/>
	</g>
</svg>
