<svg width="16.000000" height="16.000000" viewBox="0 0 16 16" fill="none" xmlns="http://www.w3.org/2000/svg" xmlns:xlink="http://www.w3.org/1999/xlink">
	<desc>
			Created with Pixso.
	</desc>
	<defs>
		<clipPath id="clip21_1475">
			<rect width="16.000000" height="16.000000" fill="white" fill-opacity="0"/>
		</clipPath>
	</defs>
	<g clip-path="url(#clip21_1475)">
		<path d="M5.31 2.35C5.7 2.11 6.13 2 6.6 2L11.54 2C11.98 2 12.39 2.11 12.77 2.33C13.14 2.55 13.44 2.85 13.66 3.23C13.88 3.61 14 4.02 14 4.46L14 9.39C14 9.86 13.87 10.28 13.63 10.67C13.39 11.06 13.07 11.36 12.66 11.57L12.66 10.43C12.79 10.29 12.89 10.13 12.97 9.96C13.04 9.78 13.08 9.59 13.08 9.39L13.08 4.46C13.08 4.19 13.01 3.93 12.87 3.7C12.73 3.46 12.54 3.27 12.31 3.13C12.07 2.99 11.82 2.93 11.54 2.93L6.6 2.93C6.4 2.93 6.21 2.96 6.04 3.03C5.87 3.1 5.71 3.2 5.56 3.33L4.42 3.33C4.63 2.92 4.93 2.6 5.31 2.35ZM3.23 4.24Q3.52 4.14 3.84 4.14L10.01 4.14C10.35 4.14 10.66 4.22 10.94 4.39C11.22 4.56 11.45 4.78 11.61 5.07C11.78 5.35 11.86 5.65 11.86 5.99L11.86 12.15C11.86 12.48 11.78 12.79 11.61 13.08C11.45 13.36 11.22 13.59 10.94 13.75C10.66 13.91 10.35 14 10.01 14L3.84 14C3.51 14 3.2 13.91 2.92 13.75C2.64 13.59 2.41 13.36 2.24 13.08C2.08 12.79 2 12.48 2 12.15L2 5.99C2 5.65 2.08 5.35 2.24 5.07C2.41 4.78 2.64 4.56 2.92 4.39Q3.07 4.3 3.23 4.24ZM10.67 5.33C10.49 5.15 10.27 5.05 10.01 5.05L3.84 5.05C3.59 5.05 3.37 5.15 3.19 5.33C3.01 5.51 2.93 5.73 2.93 5.99L2.93 12.15C2.93 12.4 3.01 12.62 3.19 12.8C3.37 12.99 3.59 13.08 3.84 13.08L10.01 13.08C10.27 13.08 10.49 12.99 10.67 12.8C10.84 12.62 10.93 12.4 10.93 12.15L10.93 5.99C10.93 5.73 10.84 5.51 10.67 5.33ZM7.35 6.66L7.35 8.67L9.35 8.67C9.54 8.67 9.68 8.74 9.76 8.9C9.84 9.05 9.84 9.2 9.76 9.36C9.68 9.51 9.54 9.59 9.35 9.59L7.35 9.59L7.35 11.58C7.35 11.78 7.27 11.92 7.12 12C6.97 12.08 6.81 12.08 6.66 12C6.5 11.92 6.42 11.78 6.42 11.58L6.42 9.59L4.42 9.59C4.23 9.59 4.1 9.51 4.02 9.36C3.94 9.2 3.94 9.05 4.02 8.9C4.1 8.74 4.23 8.67 4.42 8.67L6.42 8.67L6.42 6.66C6.42 6.47 6.5 6.34 6.66 6.26C6.81 6.19 6.97 6.19 7.12 6.26C7.27 6.34 7.35 6.47 7.35 6.66Z" fill="#000000" fill-opacity="0.600000" fill-rule="evenodd"/>
	</g>
</svg>
