<svg width="16.000000" height="16.000000" viewBox="0 0 16 16" fill="none" xmlns="http://www.w3.org/2000/svg" xmlns:xlink="http://www.w3.org/1999/xlink">
	<desc>
			Created with Pixso.
	</desc>
	<defs/>
	<circle cx="8.000000" cy="8.000000" r="8.000000" fill="#FE4F35" fill-opacity="1.000000"/>
	<circle cx="8.000000" cy="8.000000" r="8.000000" stroke="#000000" stroke-opacity="0" stroke-width="1.995000"/>
	<path d="M8.62 7.37L8.62 3.61C8.62 3.57 8.62 3.53 8.61 3.48C8.6 3.44 8.59 3.4 8.57 3.36C8.55 3.33 8.54 3.3 8.52 3.27C8.49 3.23 8.46 3.2 8.43 3.17C8.37 3.11 8.31 3.07 8.24 3.04C8.16 3.01 8.08 3 8 3C7.91 3 7.83 3.01 7.75 3.04C7.68 3.07 7.62 3.11 7.56 3.17C7.53 3.2 7.5 3.23 7.47 3.27C7.45 3.3 7.44 3.33 7.42 3.36C7.4 3.4 7.39 3.44 7.38 3.48C7.37 3.53 7.37 3.57 7.37 3.61L7.37 7.37L3.61 7.37C3.57 7.37 3.53 7.37 3.48 7.38C3.44 7.39 3.4 7.4 3.36 7.42C3.33 7.44 3.3 7.45 3.27 7.48C3.23 7.5 3.2 7.53 3.17 7.56C3.11 7.62 3.07 7.68 3.04 7.75C3.01 7.83 3 7.91 3 8C3 8.08 3.01 8.16 3.04 8.24C3.07 8.31 3.11 8.37 3.17 8.43C3.2 8.46 3.23 8.49 3.27 8.51C3.3 8.54 3.33 8.55 3.36 8.57C3.4 8.59 3.44 8.6 3.48 8.61C3.53 8.62 3.57 8.62 3.61 8.62L7.37 8.62L7.37 12.38C7.37 12.42 7.37 12.46 7.38 12.51C7.39 12.55 7.4 12.59 7.42 12.63C7.44 12.66 7.45 12.69 7.47 12.72C7.5 12.76 7.53 12.79 7.56 12.82C7.62 12.88 7.68 12.92 7.75 12.95C7.83 12.98 7.91 13 8 13C8.08 13 8.16 12.98 8.24 12.95C8.31 12.92 8.37 12.88 8.43 12.82C8.46 12.79 8.49 12.76 8.52 12.72C8.54 12.69 8.55 12.66 8.57 12.63C8.59 12.59 8.6 12.55 8.61 12.51C8.62 12.46 8.62 12.42 8.62 12.38L8.62 8.62L12.38 8.62C12.42 8.62 12.46 8.62 12.51 8.61C12.55 8.6 12.59 8.59 12.63 8.57C12.66 8.55 12.69 8.54 12.72 8.51C12.76 8.49 12.79 8.46 12.82 8.43C12.88 8.37 12.92 8.31 12.95 8.24C12.98 8.16 13 8.08 13 8C13 7.91 12.98 7.83 12.95 7.75C12.92 7.68 12.88 7.62 12.82 7.56C12.79 7.53 12.76 7.5 12.72 7.48C12.69 7.45 12.66 7.44 12.63 7.42C12.59 7.4 12.55 7.39 12.51 7.38C12.46 7.37 12.42 7.37 12.38 7.37L8.62 7.37Z" fill="#FFFFFF" fill-opacity="1.000000" fill-rule="evenodd"/>
</svg>
