<svg width="24.000000" height="24.000000" viewBox="0 0 24 24" fill="none" xmlns="http://www.w3.org/2000/svg" xmlns:xlink="http://www.w3.org/1999/xlink">
	<desc>
			Created with Pixso.
	</desc>
	<defs/>
	<circle cx="12.000000" cy="12.000000" r="12.000000" fill="#FF9F2F" fill-opacity="1.000000"/>
	<path d="M8.52 11.83L8.5 11.85C7.94 11.85 7.5 11.41 7.5 10.85C7.5 10.29 7.94 9.85 8.5 9.85L8.52 9.87L8.52 11.83ZM15.48 9.87L15.5 9.85C16.06 9.85 16.5 10.29 16.5 10.85C16.5 11.41 16.06 11.85 15.5 11.85L15.48 11.83L15.48 9.87ZM8.52 15.26L8.5 15.28C7.94 15.28 7.5 14.84 7.5 14.28C7.5 13.72 7.94 13.28 8.5 13.28L8.52 13.3L8.52 15.26ZM15.48 13.3L15.5 13.28C16.06 13.28 16.5 13.72 16.5 14.28C16.5 14.84 16.06 15.28 15.5 15.28L15.48 15.26L15.48 13.3ZM11.02 11.16L11 11.14C11 10.58 11.44 10.14 12 10.14C12.56 10.14 13 10.58 13 11.14L12.98 11.16L11.02 11.16ZM12.98 17.98L13 18C13 18.56 12.56 19 12 19C11.44 19 11 18.56 11 18L11.02 17.98L12.98 17.98ZM7.71 6.58L7.68 6.58C7.36 6.13 7.46 5.51 7.91 5.18C8.36 4.86 8.98 4.96 9.31 5.41L9.3 5.44L7.71 6.58ZM14.69 5.44L14.68 5.41C15.01 4.96 15.63 4.86 16.08 5.18C16.53 5.51 16.63 6.13 16.31 6.58L16.28 6.58L14.69 5.44Z" fill="#000000" fill-opacity="0" fill-rule="nonzero"/>
	<path d="M8.5 10.85L15.5 10.85M8.5 14.28L15.5 14.28M12 11.14L12 18M8.5 6L12 10.85L15.5 6" stroke="#FFFFFF" stroke-opacity="1.000000" stroke-width="2.000000" stroke-linejoin="round" stroke-linecap="round"/>
</svg>
