<svg width="36.000000" height="36.000000" viewBox="0 0 36 36" fill="none" xmlns="http://www.w3.org/2000/svg" xmlns:xlink="http://www.w3.org/1999/xlink">
	<desc>
			Created with Pixso.
	</desc>
	<defs>
		<clipPath id="clip1_212">
			<rect width="36.000000" height="35.999992" fill="white" fill-opacity="0"/>
		</clipPath>
		<linearGradient x1="18.009224" y1="3.090695" x2="18.009224" y2="32.909969" id="paint_linear_1_220_0" gradientUnits="userSpaceOnUse">
			<stop offset="0.037364" stop-color="#F9A01E"/>
			<stop offset="1.000000" stop-color="#ED6F21"/>
		</linearGradient>
	</defs>
	<g clip-path="url(#clip1_212)">
		<g opacity="0.000000">
			<rect width="36.000000" height="36.000000" fill="#000000" fill-opacity="1.000000"/>
		</g>
		<g style="mix-blend-mode:normal">
			<mask id="mask1_215" mask-type="alpha" maskUnits="userSpaceOnUse" x="0.000130" y="0.000000" width="36.000000" height="36.000000">
				<rect x="0.000132" width="36.000000" height="36.000000" fill="#FFFFFF" fill-opacity="1.000000"/>
				<path d="M23.61 12.49C23.3 12.49 23.04 12.38 22.83 12.16C22.61 11.95 22.5 11.69 22.5 11.37C22.5 11.06 22.61 10.8 22.83 10.59C23.04 10.37 23.3 10.26 23.61 10.26L27.87 10.26C28.18 10.26 28.44 10.37 28.65 10.59C28.87 10.8 28.98 11.06 28.98 11.37C28.98 11.69 28.87 11.95 28.65 12.16C28.44 12.38 28.18 12.49 27.87 12.49L23.61 12.49Z" fill="#000000" fill-opacity="1.000000" fill-rule="nonzero"/>
			</mask>
			<g mask="url(#mask1_215)">
				<g style="mix-blend-mode:normal">
					<path d="M28.62 22.57C29.24 22.57 29.81 22.31 30.33 21.8C30.85 21.3 31.15 20.68 31.24 19.95L32.86 8.53C32.89 8.38 32.88 8.23 32.83 8.08C32.78 7.92 32.7 7.77 32.58 7.63C32.36 7.39 32.08 7.27 31.75 7.27L8.89 7.27L8.35 4.03C8.3 3.76 8.17 3.53 7.95 3.35C7.74 3.17 7.5 3.08 7.23 3.08L4.24 3.08C3.93 3.08 3.67 3.19 3.45 3.41C3.24 3.63 3.13 3.9 3.13 4.21C3.13 4.52 3.24 4.78 3.45 5C3.67 5.21 3.93 5.32 4.24 5.32L6.3 5.32L8.92 20.55C8.3 20.77 7.8 21.15 7.41 21.68C7.03 22.23 6.84 22.83 6.84 23.5C6.84 24.08 6.98 24.62 7.27 25.11C7.56 25.6 7.95 25.99 8.44 26.28C8.93 26.56 9.47 26.71 10.05 26.71L30.13 26.71C30.44 26.71 30.71 26.6 30.93 26.37C31.14 26.14 31.24 25.87 31.24 25.56C31.24 25.24 31.14 24.98 30.93 24.76C30.71 24.55 30.44 24.45 30.13 24.45L10 24.45C9.74 24.45 9.52 24.36 9.34 24.18C9.16 23.99 9.07 23.77 9.07 23.5C9.07 23.24 9.17 23.02 9.36 22.84C9.55 22.66 9.76 22.57 10 22.57L28.62 22.57ZM12.13 30.27C12.13 30.99 12.39 31.61 12.9 32.12C13.42 32.65 14.04 32.91 14.76 32.91C15.48 32.91 16.1 32.65 16.62 32.12C17.13 31.61 17.38 30.99 17.38 30.27C17.38 29.55 17.13 28.93 16.62 28.42C16.1 27.9 15.48 27.64 14.76 27.64C14.04 27.64 13.42 27.9 12.9 28.42C12.39 28.93 12.13 29.55 12.13 30.27ZM22.65 30.27C22.65 30.99 22.9 31.61 23.4 32.12C23.9 32.65 24.51 32.91 25.23 32.91C25.98 32.91 26.6 32.65 27.1 32.12C27.61 31.61 27.87 30.99 27.87 30.27C27.87 29.55 27.61 28.93 27.1 28.42C26.6 27.9 25.98 27.64 25.23 27.64C24.51 27.64 23.9 27.9 23.4 28.42C22.9 28.93 22.65 29.55 22.65 30.27Z" fill="url(#paint_linear_1_220_0)" fill-opacity="1.000000" fill-rule="nonzero"/>
				</g>
			</g>
		</g>
	</g>
</svg>
