<svg width="14.000000" height="14.000000" viewBox="0 0 14 14" fill="none" xmlns="http://www.w3.org/2000/svg" xmlns:xlink="http://www.w3.org/1999/xlink">
	<desc>
			Created with Pixso.
	</desc>
	<defs/>
	<rect width="14.000000" height="14.000000" fill="#C4C4C4" fill-opacity="0"/>
	<path d="M2.41 3.58L4.54 3.58L4.84 2.78C4.89 2.64 4.96 2.52 5.05 2.42C5.13 2.31 5.22 2.23 5.33 2.15C5.44 2.07 5.56 2.01 5.69 1.97C5.82 1.93 5.95 1.91 6.09 1.91L7.85 1.91C8.13 1.91 8.38 1.99 8.61 2.15C8.72 2.23 8.82 2.32 8.9 2.42C8.98 2.53 9.05 2.65 9.1 2.78L9.4 3.58L11.58 3.58C11.86 3.58 12.08 3.8 12.08 4.08C12.08 4.36 11.86 4.58 11.58 4.58L11.21 4.58L10.71 10.47C10.7 10.7 10.64 10.91 10.54 11.11C10.44 11.3 10.31 11.47 10.15 11.62C10 11.76 9.82 11.88 9.62 11.96C9.52 11.99 9.42 12.02 9.32 12.04C9.21 12.07 9.09 12.08 8.97 12.08L5.02 12.08C4.9 12.08 4.78 12.07 4.67 12.04C4.57 12.02 4.47 11.99 4.37 11.96C4.28 11.92 4.18 11.87 4.1 11.82C4 11.76 3.92 11.69 3.83 11.62C3.75 11.54 3.68 11.46 3.61 11.37C3.55 11.29 3.5 11.2 3.45 11.11C3.4 11.02 3.37 10.92 3.34 10.82C3.31 10.71 3.28 10.59 3.27 10.47L2.78 4.58L2.41 4.58C2.13 4.58 1.91 4.36 1.91 4.08C1.91 3.8 2.13 3.58 2.41 3.58ZM5.59 3.64L8.35 3.64L8.16 3.13C8.14 3.06 8.1 3.01 8.04 2.97C7.98 2.93 7.92 2.91 7.85 2.91L6.09 2.91C6.02 2.91 5.96 2.93 5.9 2.97C5.84 3.01 5.8 3.06 5.78 3.13L5.59 3.64ZM9.72 10.39L10.2 4.64L3.79 4.64L4.27 10.39C4.28 10.49 4.3 10.58 4.34 10.66C4.38 10.74 4.44 10.81 4.51 10.88C4.58 10.95 4.66 11 4.74 11.03C4.83 11.06 4.92 11.08 5.02 11.08L8.97 11.08C9.07 11.08 9.16 11.06 9.24 11.03C9.33 11 9.41 10.95 9.48 10.88C9.55 10.81 9.61 10.74 9.65 10.66C9.69 10.58 9.71 10.49 9.72 10.39ZM6.45 6.47C6.45 6.19 6.23 5.97 5.95 5.97C5.67 5.97 5.45 6.19 5.45 6.47L5.45 10.14C5.45 10.42 5.67 10.64 5.95 10.64C6.23 10.64 6.45 10.42 6.45 10.14L6.45 6.47ZM8.54 6.47C8.54 6.19 8.32 5.97 8.04 5.97C7.76 5.97 7.54 6.19 7.54 6.47L7.54 10.14C7.54 10.42 7.76 10.64 8.04 10.64C8.32 10.64 8.54 10.42 8.54 10.14L8.54 6.47Z" fill="#000000" fill-opacity="1.000000" fill-rule="evenodd"/>
</svg>
