<svg width="16.000000" height="16.000000" viewBox="0 0 16 16" fill="none" xmlns="http://www.w3.org/2000/svg" xmlns:xlink="http://www.w3.org/1999/xlink">
	<desc>
			Created with Pixso.
	</desc>
	<defs/>
	<rect width="16.000000" height="16.000000" fill="#C4C4C4" fill-opacity="0"/>
	<path d="M11.1805 3.25516C11.2723 3.3168 11.3622 3.3811 11.4504 3.44807C11.7377 3.66623 12.1348 3.61191 12.353 3.32462C12.5712 3.03734 12.5169 2.6402 12.2296 2.42203C12.1256 2.34312 12.0197 2.26723 11.9117 2.19434C11.8495 2.15236 11.7867 2.11139 11.7231 2.07141C11.4288 1.88618 11.1241 1.7245 10.8091 1.58638L10.809 1.58633C10.5369 1.46703 10.2571 1.3653 9.96957 1.28113C9.71843 1.20761 9.46478 1.14851 9.20861 1.10384L9.20852 1.10382C8.81163 1.03459 8.40871 0.999985 7.99976 0.999985C7.47896 0.999985 6.97046 1.05522 6.47425 1.16568C6.06613 1.25655 5.66633 1.38477 5.27484 1.55034C4.87953 1.71754 4.50559 1.91721 4.15303 2.14934L4.15301 2.14934C3.7586 2.40901 3.39093 2.70932 3.05001 3.05023C2.70909 3.39116 2.40879 3.75882 2.14912 4.15323C1.91699 4.50581 1.71732 4.87975 1.55012 5.27507C1.38453 5.66655 1.25631 6.06635 1.16546 6.47446C1.05499 6.97067 0.999756 7.47919 0.999756 7.99998C0.999756 8.5208 1.05499 9.02931 1.16546 9.52553L1.16548 9.52562L1.1655 9.52568C1.25635 9.93373 1.38456 10.3335 1.55012 10.7249C1.71732 11.1202 1.917 11.4942 2.14913 11.8468C2.4088 12.2412 2.7091 12.6088 3.05001 12.9497C3.39094 13.2907 3.75863 13.591 4.15306 13.8507L4.15307 13.8507C4.50562 14.0828 4.87955 14.2824 5.27484 14.4496C5.66634 14.6152 6.06615 14.7434 6.47427 14.8343L6.47433 14.8343L6.47435 14.8343C6.97052 14.9448 7.47899 15 7.99976 15C8.52053 15 9.02901 14.9448 9.5252 14.8343L9.52526 14.8343C9.93338 14.7434 10.3332 14.6152 10.7247 14.4496C11.12 14.2824 11.4939 14.0828 11.8465 13.8506C12.2409 13.591 12.6086 13.2906 12.9495 12.9497C13.2904 12.6088 13.5907 12.2411 13.8504 11.8467C14.0825 11.4941 14.2822 11.1202 14.4494 10.7249C14.615 10.3334 14.7432 9.93359 14.8341 9.52548C14.9445 9.02927 14.9998 8.52078 14.9998 7.99998C14.9998 7.54831 14.9578 7.10474 14.8738 6.66925C14.8127 6.3524 14.7294 6.03986 14.6238 5.73158C14.5119 5.40465 14.3774 5.0894 14.2203 4.78583C14.0374 4.43228 13.8238 4.09457 13.5796 3.77271C13.3616 3.48532 12.9645 3.43083 12.6771 3.64885C12.3897 3.86688 12.3352 4.26401 12.5532 4.55139C12.7557 4.81819 12.9322 5.09825 13.083 5.39159C13.2081 5.6349 13.3154 5.88733 13.405 6.1489C13.4874 6.3896 13.5532 6.63362 13.6023 6.88094C13.675 7.24672 13.7114 7.61974 13.7114 7.99998C13.7114 8.43372 13.6646 8.85683 13.5709 9.26929L13.5709 9.2693C13.4972 9.5938 13.3945 9.9117 13.2628 10.223C13.1283 10.5412 12.9679 10.8424 12.7817 11.1267L12.7816 11.1268C12.5679 11.453 12.3202 11.757 12.0385 12.0387C11.7568 12.3204 11.4528 12.5681 11.1266 12.7818L11.1265 12.7819C10.8422 12.9681 10.5409 13.1285 10.2228 13.2631C9.91148 13.3947 9.59358 13.4974 9.2691 13.5711C8.85663 13.6648 8.43351 13.7116 7.99976 13.7116C7.56601 13.7116 7.1429 13.6648 6.73042 13.5711C6.40594 13.4974 6.08804 13.3947 5.77672 13.2631C5.45856 13.1285 5.15732 12.9681 4.87299 12.7819C4.54672 12.5682 4.24273 12.3204 3.961 12.0387C3.67931 11.757 3.43162 11.4531 3.21794 11.1268C3.03168 10.8425 2.87127 10.5412 2.73668 10.223C2.60501 9.91171 2.50233 9.59381 2.42863 9.26933C2.33494 8.85686 2.2881 8.43375 2.2881 7.99998C2.2881 7.56624 2.33494 7.14311 2.42863 6.73065C2.50232 6.40616 2.60501 6.08826 2.73668 5.77695C2.87126 5.45877 3.03167 5.1575 3.21791 4.87317C3.4316 4.54692 3.6793 4.24294 3.961 3.96123C4.24268 3.67957 4.54662 3.43188 4.87283 3.21822L4.87296 3.21812C5.15729 3.03189 5.45855 2.87149 5.77672 2.73691C6.08802 2.60524 6.4059 2.50256 6.73037 2.42886L6.73038 2.42886L6.73042 2.42885C7.14289 2.33517 7.566 2.28833 7.99976 2.28833C8.3472 2.28833 8.68911 2.31885 9.02548 2.37988C9.22141 2.41542 9.41545 2.46133 9.60761 2.51758C9.83773 2.58495 10.0618 2.66614 10.2799 2.76117C10.5409 2.87491 10.7933 3.00847 11.037 3.16183C11.0853 3.19223 11.1331 3.22334 11.1805 3.25516ZM8.64406 7.63303L8.64406 3.98251C8.64406 3.62178 8.36062 3.33835 7.99989 3.33835C7.63915 3.33835 7.35571 3.62178 7.35571 3.98251L7.35571 7.88892C7.35571 7.9711 7.37088 8.05037 7.40122 8.12674C7.43156 8.20311 7.47493 8.27119 7.53132 8.33096L9.4041 10.3161C9.65165 10.5785 10.0523 10.5902 10.3147 10.3427C10.5771 10.0951 10.5888 9.69443 10.3412 9.43204L8.64406 7.63303Z" clip-rule="evenodd" fill="#000000" fill-opacity="1.000000" fill-rule="evenodd"/>
</svg>
