<svg width="16.000000" height="16.000000" viewBox="0 0 16 16" fill="none" xmlns="http://www.w3.org/2000/svg" xmlns:xlink="http://www.w3.org/1999/xlink">
	<desc>
			Created with Pixso.
	</desc>
	<defs/>
	<rect rx="4.000000" width="16.000000" height="16.000000" fill="#F9A01E" fill-opacity="1.000000"/>
	<path d="M8.07 11.31L8.56 11.91Q9.21 11.4 9.76 10.79Q9.88 10.65 10 10.5Q10.06 10.71 10.17 10.89Q10.25 11.1 10.39 11.31Q10.46 11.44 10.55 11.55Q10.59 11.59 10.63 11.63Q10.79 11.79 10.98 11.84Q11.08 11.87 11.19 11.87Q11.41 11.87 11.55 11.77Q11.65 11.71 11.72 11.59Q11.86 11.42 11.93 11.23Q11.93 11.22 11.94 11.21Q12 10.95 12.04 10.71Q12.11 10.15 12.18 9.55L11.52 9.41Q11.48 9.87 11.44 10.33Q11.41 10.64 11.33 10.89Q11.31 10.98 11.25 11.01Q11.23 11.03 11.19 11.03Q11.15 11.03 11.11 11.01Q11.06 11 11.02 10.95Q10.91 10.78 10.84 10.6Q10.68 10.27 10.57 9.92Q10.55 9.83 10.52 9.73Q10.91 9.13 11.16 8.43Q11.48 7.54 11.65 6.67L10.95 6.53Q10.91 6.78 10.85 7.03Q10.67 7.85 10.32 8.64Q10.1 7.27 10.04 5.9L11.9 5.9L11.9 5.16L11.23 5.16L11.55 4.88Q11.13 4.38 10.67 3.93L10.17 4.31Q10.56 4.74 10.91 5.16L10 5.16Q9.93 4.53 9.93 3.93L9.19 3.93Q9.19 4.53 9.27 5.16L6.06 5.16L6.06 8.85Q6.06 9.76 5.78 10.57Q5.59 11.14 5.25 11.67L5.99 12.08Q6.34 11.41 6.56 10.68Q6.76 9.79 6.76 8.85L6.76 5.9L9.3 5.9Q9.33 6.88 9.47 7.87Q9.58 8.74 9.75 9.62Q9.47 10.06 9.12 10.41Q9.07 10.46 9.01 10.5L9.01 8.04L7.18 8.04L7.18 10.75L8.77 10.75Q8.42 11.06 8.07 11.31ZM4.73 4.24L3.99 4.49Q4.47 5.65 4.9 6.88L5.67 6.6Q5.19 5.4 4.73 4.24ZM7.11 6.67L7.11 7.41L9.12 7.41L9.12 6.67L7.11 6.67ZM4.55 11.38L5.54 7.8L5.15 7.76L4.77 7.65Q4.31 9.44 3.74 11.21L4.55 11.38ZM7.75 8.78L8.45 8.78L8.45 10.05L7.75 10.05L7.75 8.78Z" fill="#FFFFFF" fill-opacity="1.000000" fill-rule="evenodd"/>
</svg>
