<svg width="16.000000" height="16.000000" viewBox="0 0 16 16" fill="none" xmlns="http://www.w3.org/2000/svg" xmlns:xlink="http://www.w3.org/1999/xlink">
	<desc>
			Created with Pixso.
	</desc>
	<defs>
		<clipPath id="clip1_200">
			<rect width="16.000000" height="16.000000" fill="white" fill-opacity="0"/>
		</clipPath>
	</defs>
	<g opacity="0.600000">
		<g clip-path="url(#clip1_200)">
			<rect width="16.000000" height="16.000000" fill="#FFFFFF" fill-opacity="0"/>
			<path d="M-1.34e-5 7.99C-1.34e-5 6.74 -0.01 5.49 -1.34e-5 4.24C-0.01 3.63 0.07 3.03 0.21 2.45C0.54 1.21 1.35 0.47 2.59 0.18C3.21 0.05 3.85 -0.02 4.48 0C6.88 0 9.27 0 11.68 0C12.28 -0.01 12.88 0.06 13.47 0.2C14.75 0.51 15.52 1.32 15.81 2.6C15.94 3.2 16 3.81 15.99 4.43C15.99 6.85 15.99 9.27 15.99 11.69C16 12.29 15.93 12.89 15.79 13.48C15.48 14.75 14.66 15.51 13.39 15.81C12.77 15.94 12.14 16 11.5 15.99C9.11 15.99 6.72 15.99 4.34 15.99C3.73 16 3.12 15.93 2.53 15.79C1.24 15.48 0.47 14.67 0.18 13.39C0.03 12.74 -1.34e-5 12.09 -1.34e-5 11.43C-1.34e-5 10.28 -1.34e-5 9.14 -1.34e-5 7.99Z" fill="#FFFFFF" fill-opacity="0" fill-rule="evenodd"/>
			<circle cx="8.000000" cy="8.000000" r="8.000000" fill="#FFFFFF" fill-opacity="0"/>
			<path d="M5.33 0.66C5.42 0.66 5.49 0.73 5.49 0.83L5.49 2.16C5.49 2.25 5.42 2.33 5.33 2.33C5.23 2.33 5.16 2.25 5.16 2.16L5.16 0.83C5.16 0.73 5.23 0.66 5.33 0.66ZM10.66 0.66C10.75 0.66 10.83 0.73 10.83 0.83L10.83 2.16C10.83 2.25 10.75 2.33 10.66 2.33C10.57 2.33 10.5 2.25 10.5 2.16L10.5 0.83C10.5 0.73 10.57 0.66 10.66 0.66Z" fill="#FFFFFF" fill-opacity="0" fill-rule="nonzero"/>
			<path d="M5.49 0.83L5.49 2.16C5.49 2.25 5.42 2.33 5.33 2.33C5.23 2.33 5.16 2.25 5.16 2.16L5.16 0.83C5.16 0.73 5.23 0.66 5.33 0.66C5.42 0.66 5.49 0.73 5.49 0.83ZM10.83 0.83L10.83 2.16C10.83 2.25 10.75 2.33 10.66 2.33C10.57 2.33 10.5 2.25 10.5 2.16L10.5 0.83C10.5 0.73 10.57 0.66 10.66 0.66C10.75 0.66 10.83 0.73 10.83 0.83Z" fill="#000000" fill-opacity="0" fill-rule="nonzero"/>
			<path d="M5.49 2.16C5.49 2.25 5.42 2.33 5.33 2.33C5.23 2.33 5.16 2.25 5.16 2.16L5.16 0.83C5.16 0.73 5.23 0.66 5.33 0.66C5.42 0.66 5.49 0.73 5.49 0.83L5.49 2.16ZM10.83 2.16C10.83 2.25 10.75 2.33 10.66 2.33C10.57 2.33 10.5 2.25 10.5 2.16L10.5 0.83C10.5 0.73 10.57 0.66 10.66 0.66C10.75 0.66 10.83 0.73 10.83 0.83L10.83 2.16Z" stroke="#FFFFFF" stroke-opacity="0" stroke-width="1.000000" stroke-linejoin="round"/>
			<path d="M4.85 0.68L4.83 0.66C4.83 0.38 5.05 0.16 5.33 0.16C5.61 0.16 5.83 0.38 5.83 0.66L5.81 0.68L4.85 0.68ZM5.81 1.97L5.83 2C5.83 2.27 5.61 2.5 5.33 2.5C5.05 2.5 4.83 2.27 4.83 2L4.85 1.97L5.81 1.97ZM10.18 0.68L10.16 0.66C10.16 0.38 10.38 0.16 10.66 0.16C10.94 0.16 11.16 0.38 11.16 0.66L11.14 0.68L10.18 0.68ZM11.14 1.97L11.16 2C11.16 2.27 10.94 2.5 10.66 2.5C10.38 2.5 10.16 2.27 10.16 2L10.18 1.97L11.14 1.97Z" fill="#000000" fill-opacity="0" fill-rule="nonzero"/>
			<path d="M5.33 0.66L5.33 2M10.66 0.66L10.66 2" stroke="#191919" stroke-opacity="1.000000" stroke-width="1.000000" stroke-linejoin="round" stroke-linecap="round"/>
			<mask id="mask1_208" mask-type="alpha" maskUnits="userSpaceOnUse" x="0.000000" y="0.000000" width="16.000000" height="16.000000">
				<path d="M16 5.66L16 16L0 16L0 5.66L16 5.66ZM0 0L16 0L16 5L0 5L0 0Z" fill="#FFFFFF" fill-opacity="1.000000" fill-rule="nonzero"/>
			</mask>
			<g mask="url(#mask1_208)">
				<path d="M2.66 2L13.33 2C14.43 2 15.33 2.89 15.33 4L15.33 13.33C15.33 14.43 14.43 15.33 13.33 15.33L2.66 15.33C1.55 15.33 0.66 14.43 0.66 13.33L0.66 4C0.66 2.89 1.55 2 2.66 2Z" fill="#FFFFFF" fill-opacity="0" fill-rule="evenodd"/>
				<path d="M13.33 2C14.43 2 15.33 2.89 15.33 4L15.33 13.33C15.33 14.43 14.43 15.33 13.33 15.33L2.66 15.33C1.55 15.33 0.66 14.43 0.66 13.33L0.66 4C0.66 2.89 1.55 2 2.66 2L13.33 2Z" fill="#000000" fill-opacity="0" fill-rule="nonzero"/>
				<path d="M15.33 4L15.33 13.33C15.33 14.43 14.43 15.33 13.33 15.33L2.66 15.33C1.55 15.33 0.66 14.43 0.66 13.33L0.66 4C0.66 2.89 1.55 2 2.66 2L13.33 2C14.43 2 15.33 2.89 15.33 4Z" stroke="#FFFFFF" stroke-opacity="0" stroke-width="1.000000"/>
			</g>
			<path d="M13.33 2C14.43 2 15.33 2.89 15.33 4L15.33 13.33C15.33 14.43 14.43 15.33 13.33 15.33L2.66 15.33C1.55 15.33 0.66 14.43 0.66 13.33L0.66 4C0.66 2.89 1.55 2 2.66 2L13.33 2Z" fill="#000000" fill-opacity="0" fill-rule="nonzero"/>
			<path d="M15.33 4L15.33 13.33C15.33 14.43 14.43 15.33 13.33 15.33L2.66 15.33C1.55 15.33 0.66 14.43 0.66 13.33L0.66 4C0.66 2.89 1.55 2 2.66 2L13.33 2C14.43 2 15.33 2.89 15.33 4Z" stroke="#191919" stroke-opacity="1.000000" stroke-width="1.000000" stroke-linejoin="round"/>
			<path d="M0.68 5.83L0.16 5.83L0.16 4.83L0.68 4.83L0.68 5.83ZM15.31 4.83L15.83 4.83L15.83 5.83L15.31 5.83L15.31 4.83Z" fill="#000000" fill-opacity="0" fill-rule="nonzero"/>
			<path d="M0.66 5.33L15.33 5.33" stroke="#191919" stroke-opacity="1.000000" stroke-width="1.000000" stroke-linejoin="round" stroke-linecap="square"/>
			<path d="M10.63 7.66C10.82 7.46 11.13 7.44 11.33 7.64C11.54 7.83 11.54 8.14 11.34 8.34L10.63 7.66ZM4.59 10.21C4.39 10.01 4.39 9.69 4.59 9.5C4.79 9.3 5.1 9.31 5.3 9.51L4.59 10.21Z" fill="#FFFFFF" fill-opacity="0" fill-rule="nonzero"/>
			<path d="M10.63 7.67L10.63 7.65C10.82 7.45 11.13 7.44 11.33 7.64C11.53 7.83 11.54 8.14 11.34 8.34L11.31 8.34L10.63 7.67ZM4.61 10.2L4.58 10.2C4.38 10 4.39 9.69 4.59 9.5C4.79 9.3 5.1 9.31 5.29 9.51L5.29 9.53L4.61 10.2Z" fill="#000000" fill-opacity="0" fill-rule="nonzero"/>
			<path d="M10.99 8L7.05 12.03L4.94 9.85" stroke="#191919" stroke-opacity="1.000000" stroke-width="1.000000" stroke-linejoin="round" stroke-linecap="round"/>
		</g>
	</g>
</svg>
