<svg width="16.000000" height="16.000000" viewBox="0 0 16 16" fill="none" xmlns="http://www.w3.org/2000/svg" xmlns:xlink="http://www.w3.org/1999/xlink">
	<desc>
			Created with Pixso.
	</desc>
	<defs>
		<clipPath id="clip1_223">
			<rect width="16.000000" height="16.000000" fill="white" fill-opacity="0"/>
		</clipPath>
	</defs>
	<g opacity="0.600000">
		<g clip-path="url(#clip1_223)">
			<path d="M0.5 7.99C0.5 6.82 0.49 5.65 0.5 4.47C0.49 3.91 0.56 3.34 0.7 2.79C1.01 1.63 1.77 0.94 2.93 0.67C3.51 0.55 4.11 0.49 4.7 0.5C6.95 0.5 9.2 0.5 11.45 0.5C12.01 0.49 12.58 0.56 13.13 0.69C14.33 0.98 15.05 1.74 15.32 2.93C15.44 3.5 15.5 4.07 15.49 4.65C15.49 6.92 15.49 9.19 15.49 11.46C15.5 12.03 15.43 12.59 15.3 13.13C15.01 14.33 14.25 15.04 13.05 15.32C12.47 15.44 11.88 15.5 11.28 15.49C9.04 15.49 6.81 15.49 4.57 15.49C4 15.5 3.43 15.43 2.87 15.3C1.67 15.01 0.95 14.25 0.67 13.05C0.53 12.44 0.5 11.83 0.5 11.21C0.5 10.14 0.5 9.06 0.5 7.99Z" fill="#FFFFFF" fill-opacity="0" fill-rule="nonzero"/>
			<path d="M0.5 4.47C0.49 3.91 0.56 3.34 0.7 2.79C1.01 1.63 1.77 0.94 2.93 0.67C3.51 0.55 4.11 0.49 4.7 0.5C6.95 0.5 9.2 0.5 11.45 0.5C12.01 0.49 12.58 0.56 13.13 0.69C14.33 0.98 15.05 1.74 15.32 2.93C15.44 3.5 15.5 4.07 15.49 4.65C15.49 6.92 15.49 9.19 15.49 11.46C15.5 12.03 15.43 12.59 15.3 13.13C15.01 14.33 14.25 15.04 13.05 15.32C12.47 15.44 11.88 15.5 11.28 15.49C9.04 15.49 6.81 15.49 4.57 15.49C4 15.5 3.43 15.43 2.87 15.3C1.67 15.01 0.95 14.25 0.67 13.05C0.53 12.44 0.5 11.83 0.5 11.21C0.5 10.14 0.5 9.06 0.5 7.99C0.5 6.82 0.49 5.65 0.5 4.47Z" stroke="#FFFFFF" stroke-opacity="0" stroke-width="1.500000"/>
			<g opacity="0.200000">
				<path d="M0.5 7.99C0.5 6.82 0.49 5.65 0.5 4.47C0.49 3.91 0.56 3.34 0.7 2.79C1.01 1.63 1.77 0.94 2.93 0.67C3.51 0.55 4.11 0.49 4.7 0.5C6.95 0.5 9.2 0.5 11.45 0.5C12.01 0.49 12.58 0.56 13.13 0.69C14.33 0.98 15.05 1.74 15.32 2.93C15.44 3.5 15.5 4.07 15.49 4.65C15.49 6.92 15.49 9.19 15.49 11.46C15.5 12.03 15.43 12.59 15.3 13.13C15.01 14.33 14.25 15.04 13.05 15.32C12.47 15.44 11.88 15.5 11.28 15.49C9.04 15.49 6.81 15.49 4.57 15.49C4 15.5 3.43 15.43 2.87 15.3C1.67 15.01 0.95 14.25 0.67 13.05C0.53 12.44 0.5 11.83 0.5 11.21C0.5 10.14 0.5 9.06 0.5 7.99Z" fill="#000000" fill-opacity="0" fill-rule="nonzero"/>
				<path d="M0.5 4.47C0.49 3.91 0.56 3.34 0.7 2.79C1.01 1.63 1.77 0.94 2.93 0.67C3.51 0.55 4.11 0.49 4.7 0.5C6.95 0.5 9.2 0.5 11.45 0.5C12.01 0.49 12.58 0.56 13.13 0.69C14.33 0.98 15.05 1.74 15.32 2.93C15.44 3.5 15.5 4.07 15.49 4.65C15.49 6.92 15.49 9.19 15.49 11.46C15.5 12.03 15.43 12.59 15.3 13.13C15.01 14.33 14.25 15.04 13.05 15.32C12.47 15.44 11.88 15.5 11.28 15.49C9.04 15.49 6.81 15.49 4.57 15.49C4 15.5 3.43 15.43 2.87 15.3C1.67 15.01 0.95 14.25 0.67 13.05C0.53 12.44 0.5 11.83 0.5 11.21C0.5 10.14 0.5 9.06 0.5 7.99C0.5 6.82 0.49 5.65 0.5 4.47Z" stroke="#FFFFFF" stroke-opacity="0" stroke-width="1.500000"/>
			</g>
			<circle cx="8.000000" cy="8.000000" r="8.000000" fill="#FFFFFF" fill-opacity="0"/>
			<circle cx="8.000000" cy="8.000000" r="8.000000" stroke="#000000" stroke-opacity="0" stroke-width="1.500000"/>
			<circle cx="8.000008" cy="8.000000" r="7.400001" fill="#FFFFFF" fill-opacity="0"/>
			<circle cx="8.000008" cy="8.000000" r="7.400001" stroke="#FFFFFF" stroke-opacity="0" stroke-width="1.500000" stroke-linejoin="round"/>
			<path d="M12.86 2.4C12.85 2.42 12.84 2.44 12.82 2.45L13.54 3.17C13.56 3.16 13.57 3.14 13.59 3.13C13.81 2.96 14.12 3 14.29 3.22L14.29 3.25L13.91 3.54C14.84 4.78 15.4 6.32 15.4 8C15.4 12.08 12.08 15.4 8 15.4C3.91 15.4 0.6 12.08 0.6 8C0.6 3.91 3.91 0.59 8 0.59C9.44 0.59 10.79 1.01 11.93 1.73C12.11 1.84 12.28 1.96 12.45 2.09L12.74 1.7L12.77 1.7C12.99 1.87 13.03 2.18 12.86 2.4Z" fill="#FFFFFF" fill-opacity="0" fill-rule="evenodd"/>
			<path d="M12.47 2.1C12.29 1.97 12.11 1.84 11.93 1.73C10.79 1.01 9.44 0.59 8 0.59C3.91 0.59 0.6 3.91 0.6 8C0.6 12.08 3.91 15.4 8 15.4C12.08 15.4 15.4 12.08 15.4 8C15.4 6.32 14.84 4.77 13.89 3.53" stroke="#191919" stroke-opacity="1.000000" stroke-width="1.000000" stroke-linejoin="round" stroke-linecap="round"/>
			<path d="M7.52 3.34L7.5 3.32C7.5 3.04 7.72 2.82 8 2.82C8.28 2.82 8.5 3.04 8.5 3.32L8.47 3.34L7.52 3.34ZM10.51 9.83L10.54 9.83C10.73 10.04 10.72 10.35 10.52 10.54C10.31 10.73 10 10.72 9.81 10.52L9.81 10.49L10.51 9.83Z" fill="#000000" fill-opacity="0" fill-rule="nonzero"/>
			<path d="M8 3.32L8 7.87L10.18 10.18" stroke="#191919" stroke-opacity="1.000000" stroke-width="1.000000" stroke-linejoin="round" stroke-linecap="round"/>
		</g>
	</g>
</svg>
