<svg width="16.000000" height="16.000000" viewBox="0 0 16 16" fill="none" xmlns="http://www.w3.org/2000/svg" xmlns:xlink="http://www.w3.org/1999/xlink">
	<desc>
			Created with Pixso.
	</desc>
	<defs>
		<clipPath id="clip1_237">
			<rect width="16.000000" height="16.000000" fill="white" fill-opacity="0"/>
		</clipPath>
	</defs>
	<g opacity="0.600000">
		<g clip-path="url(#clip1_237)">
			<path d="M0.5 7.99C0.5 6.82 0.49 5.65 0.5 4.47C0.49 3.91 0.56 3.34 0.7 2.79C1.01 1.63 1.77 0.94 2.93 0.67C3.51 0.55 4.11 0.49 4.7 0.5C6.95 0.5 9.2 0.5 11.45 0.5C12.01 0.49 12.58 0.56 13.13 0.69C14.33 0.98 15.05 1.74 15.32 2.93C15.44 3.5 15.5 4.07 15.49 4.65C15.49 6.92 15.49 9.19 15.49 11.46C15.5 12.03 15.43 12.59 15.3 13.13C15.01 14.33 14.25 15.04 13.05 15.32C12.47 15.44 11.88 15.5 11.28 15.49C9.04 15.49 6.81 15.49 4.57 15.49C4 15.5 3.43 15.43 2.87 15.3C1.67 15.01 0.95 14.25 0.67 13.05C0.53 12.44 0.5 11.83 0.5 11.21C0.5 10.14 0.5 9.06 0.5 7.99Z" fill="#FFFFFF" fill-opacity="0" fill-rule="nonzero"/>
			<path d="M0.5 4.47C0.49 3.91 0.56 3.34 0.7 2.79C1.01 1.63 1.77 0.94 2.93 0.67C3.51 0.55 4.11 0.49 4.7 0.5C6.95 0.5 9.2 0.5 11.45 0.5C12.01 0.49 12.58 0.56 13.13 0.69C14.33 0.98 15.05 1.74 15.32 2.93C15.44 3.5 15.5 4.07 15.49 4.65C15.49 6.92 15.49 9.19 15.49 11.46C15.5 12.03 15.43 12.59 15.3 13.13C15.01 14.33 14.25 15.04 13.05 15.32C12.47 15.44 11.88 15.5 11.28 15.49C9.04 15.49 6.81 15.49 4.57 15.49C4 15.5 3.43 15.43 2.87 15.3C1.67 15.01 0.95 14.25 0.67 13.05C0.53 12.44 0.5 11.83 0.5 11.21C0.5 10.14 0.5 9.06 0.5 7.99C0.5 6.82 0.49 5.65 0.5 4.47Z" stroke="#FFFFFF" stroke-opacity="0" stroke-width="1.000000"/>
			<path d="M0.5 7.99C0.5 6.82 0.49 5.65 0.5 4.47C0.49 3.91 0.56 3.34 0.7 2.79C1.01 1.63 1.77 0.94 2.93 0.67C3.51 0.55 4.11 0.49 4.7 0.5C6.95 0.5 9.2 0.5 11.45 0.5C12.01 0.49 12.58 0.56 13.13 0.69C14.33 0.98 15.05 1.74 15.32 2.93C15.44 3.5 15.5 4.07 15.49 4.65C15.49 6.92 15.49 9.19 15.49 11.46C15.5 12.03 15.43 12.59 15.3 13.13C15.01 14.33 14.25 15.04 13.05 15.32C12.47 15.44 11.88 15.5 11.28 15.49C9.04 15.49 6.81 15.49 4.57 15.49C4 15.5 3.43 15.43 2.87 15.3C1.67 15.01 0.95 14.25 0.67 13.05C0.53 12.44 0.5 11.83 0.5 11.21C0.5 10.14 0.5 9.06 0.5 7.99Z" fill="#000000" fill-opacity="0" fill-rule="nonzero"/>
			<path d="M0.5 4.47C0.49 3.91 0.56 3.34 0.7 2.79C1.01 1.63 1.77 0.94 2.93 0.67C3.51 0.55 4.11 0.49 4.7 0.5C6.95 0.5 9.2 0.5 11.45 0.5C12.01 0.49 12.58 0.56 13.13 0.69C14.33 0.98 15.05 1.74 15.32 2.93C15.44 3.5 15.5 4.07 15.49 4.65C15.49 6.92 15.49 9.19 15.49 11.46C15.5 12.03 15.43 12.59 15.3 13.13C15.01 14.33 14.25 15.04 13.05 15.32C12.47 15.44 11.88 15.5 11.28 15.49C9.04 15.49 6.81 15.49 4.57 15.49C4 15.5 3.43 15.43 2.87 15.3C1.67 15.01 0.95 14.25 0.67 13.05C0.53 12.44 0.5 11.83 0.5 11.21C0.5 10.14 0.5 9.06 0.5 7.99C0.5 6.82 0.49 5.65 0.5 4.47Z" stroke="#FFFFFF" stroke-opacity="0" stroke-width="1.000000"/>
			<circle cx="8.000000" cy="8.000000" r="8.000000" fill="#FFFFFF" fill-opacity="0"/>
			<circle cx="8.000000" cy="8.000000" r="8.000000" stroke="#000000" stroke-opacity="0" stroke-width="1.000000"/>
			<path d="M13.85 9.37L13.83 9.39C13.83 9.67 14.05 9.89 14.33 9.89C14.61 9.89 14.83 9.67 14.83 9.39L14.81 9.37L13.85 9.37ZM10.31 15.88L10.33 15.9C10.61 15.9 10.83 15.68 10.83 15.4C10.83 15.12 10.61 14.9 10.33 14.9L10.31 14.92L10.31 15.88Z" fill="#000000" fill-opacity="0" fill-rule="nonzero"/>
			<path d="M14.33 9.39L14.33 2.59C14.33 1.49 13.43 0.59 12.33 0.59L3.66 0.59C2.56 0.59 1.66 1.49 1.66 2.59L1.66 13.4C1.66 14.5 2.56 15.4 3.66 15.4L10.33 15.4" stroke="#191919" stroke-opacity="1.000000" stroke-width="1.000000" stroke-linejoin="round" stroke-linecap="round"/>
			<path d="M14.33 9.99L14.33 2.59C14.33 1.49 13.43 0.59 12.33 0.59L3.66 0.59C2.56 0.59 1.66 1.49 1.66 2.59L1.66 13.4C1.66 14.5 2.56 15.4 3.66 15.4L8.93 15.4L8.93 12.75C8.93 11.23 10.16 9.99 11.68 9.99L14.33 9.99Z" fill="#FFFFFF" fill-opacity="0" fill-rule="evenodd"/>
			<path d="M14.33 2.59C14.33 1.49 13.43 0.59 12.33 0.59L3.66 0.59C2.56 0.59 1.66 1.49 1.66 2.59L1.66 13.4C1.66 14.5 2.56 15.4 3.66 15.4L8.93 15.4L8.93 12.75C8.93 11.23 10.16 9.99 11.68 9.99L14.33 9.99L14.33 2.59Z" stroke="#FFFFFF" stroke-opacity="0" stroke-width="1.000000"/>
			<path d="M10.33 15.4L14.33 11.4L11.66 11.4C10.93 11.4 10.33 11.99 10.33 12.73L10.33 15.4Z" fill="#FFFFFF" fill-opacity="0" fill-rule="evenodd"/>
			<path d="M14.33 11.4L11.66 11.4C10.93 11.4 10.33 11.99 10.33 12.73L10.33 15.4L14.33 11.4Z" stroke="#191919" stroke-opacity="1.000000" stroke-width="1.000000" stroke-linejoin="round"/>
			<path d="M3.71 5.18L3.69 5.2C3.41 5.2 3.19 4.98 3.19 4.7C3.19 4.42 3.41 4.2 3.69 4.2L3.71 4.22L3.71 5.18ZM9.05 4.22L9.07 4.2C9.35 4.2 9.57 4.42 9.57 4.7C9.57 4.98 9.35 5.2 9.07 5.2L9.05 5.18L9.05 4.22ZM3.71 8.54L3.69 8.56C3.41 8.56 3.19 8.34 3.19 8.06C3.19 7.78 3.41 7.56 3.69 7.56L3.71 7.58L3.71 8.54ZM7.03 7.58L7.05 7.56C7.33 7.56 7.55 7.78 7.55 8.06C7.55 8.34 7.33 8.56 7.05 8.56L7.03 8.54L7.03 7.58Z" fill="#000000" fill-opacity="0" fill-rule="nonzero"/>
			<path d="M3.69 4.7L9.07 4.7M3.69 8.06L7.05 8.06" stroke="#191919" stroke-opacity="1.000000" stroke-width="1.000000" stroke-linejoin="round" stroke-linecap="round"/>
		</g>
	</g>
</svg>
