<svg width="16.000000" height="16.000000" viewBox="0 0 16 16" fill="none" xmlns="http://www.w3.org/2000/svg" xmlns:xlink="http://www.w3.org/1999/xlink">
	<desc>
			Created with Pixso.
	</desc>
	<defs>
		<clipPath id="clip1_69">
			<rect width="16.000000" height="16.000000" fill="white" fill-opacity="0"/>
		</clipPath>
	</defs>
	<g clip-path="url(#clip1_69)">
		<rect x="0.080078" y="0.326538" width="15.673470" height="15.673470" fill="#FFFFFF" fill-opacity="0"/>
		<path d="M0.08 8.15C0.08 6.93 0.07 5.7 0.08 4.48C0.07 3.88 0.15 3.29 0.29 2.72C0.61 1.51 1.4 0.79 2.62 0.5C3.23 0.37 3.85 0.31 4.47 0.32C6.82 0.32 9.17 0.32 11.52 0.32C12.11 0.32 12.7 0.38 13.28 0.52C14.53 0.83 15.28 1.62 15.56 2.87C15.69 3.46 15.75 4.06 15.75 4.66C15.75 7.04 15.75 9.41 15.75 11.78C15.75 12.37 15.68 12.96 15.55 13.53C15.24 14.78 14.44 15.52 13.2 15.81C12.59 15.94 11.97 16 11.34 15.99C9.01 15.99 6.67 15.99 4.33 15.99C3.73 16 3.14 15.93 2.56 15.79C1.3 15.49 0.55 14.69 0.26 13.44C0.11 12.8 0.08 12.16 0.08 11.52C0.08 10.4 0.08 9.28 0.08 8.15Z" fill="#FFFFFF" fill-opacity="0" fill-rule="evenodd"/>
		<mask id="mask1_73" mask-type="alpha" maskUnits="userSpaceOnUse" x="0.080078" y="0.000000" width="15.673462" height="15.673462">
			<path d="M15.75 0L0.08 0L0.08 0.32L3.28 0.32L11.85 3.48C12.74 3.81 13.34 4.65 13.34 5.61C13.34 6.94 13.35 8.69 13.35 10.04C13.35 11.4 12.85 12.7 11.99 13.75C11.42 14.45 10.81 15.22 10.54 15.67L15.75 15.67L15.75 0Z" fill="#C4C4C4" fill-opacity="1.000000" fill-rule="evenodd"/>
		</mask>
		<g mask="url(#mask1_73)">
			<path d="M7.11 2.09C7.88 1.81 8.72 1.81 9.48 2.09L11.89 2.98C13.04 3.41 13.81 4.51 13.81 5.74L13.81 9.75C13.81 11.02 13.11 12.19 11.98 12.78L9.89 13.88C8.89 14.4 7.7 14.4 6.7 13.88L4.61 12.78C3.49 12.19 2.78 11.02 2.78 9.75L2.78 6.08C2.78 4.64 3.68 3.36 5.03 2.87L7.11 2.09Z" fill="#000000" fill-opacity="0" fill-rule="nonzero"/>
			<path d="M9.48 2.09L11.89 2.98C13.04 3.41 13.81 4.51 13.81 5.74L13.81 9.75C13.81 11.02 13.11 12.19 11.98 12.78L9.89 13.88C8.89 14.4 7.7 14.4 6.7 13.88L4.61 12.78C3.49 12.19 2.78 11.02 2.78 9.75L2.78 6.08C2.78 4.64 3.68 3.36 5.03 2.87L7.11 2.09C7.88 1.81 8.72 1.81 9.48 2.09Z" stroke="#686868" stroke-opacity="1.000000" stroke-width="1.000000" stroke-linejoin="round"/>
		</g>
		<path d="M6.51 3.05C6.8 2.95 7.11 2.95 7.39 3.05L11.11 4.42C11.76 4.66 12.19 5.28 12.19 5.98L12.19 9.58C12.19 11.4 11.18 13.08 9.57 13.92L7.86 14.82C7.29 15.12 6.61 15.12 6.04 14.82L4.33 13.92C2.72 13.08 1.71 11.4 1.71 9.58L1.71 5.98C1.71 5.28 2.15 4.66 2.8 4.42L6.51 3.05Z" fill="#000000" fill-opacity="0" fill-rule="nonzero"/>
		<path d="M7.39 3.05L11.11 4.42C11.76 4.66 12.19 5.28 12.19 5.98L12.19 9.58C12.19 11.4 11.18 13.08 9.57 13.92L7.86 14.82C7.29 15.12 6.61 15.12 6.04 14.82L4.33 13.92C2.72 13.08 1.71 11.4 1.71 9.58L1.71 5.98C1.71 5.28 2.15 4.66 2.8 4.42L6.51 3.05C6.8 2.95 7.11 2.95 7.39 3.05Z" stroke="#686868" stroke-opacity="1.000000" stroke-width="1.000000" stroke-linejoin="round"/>
		<path d="M6.24 6.83L6.22 6.81C6.22 6.4 6.54 6.08 6.95 6.08C7.37 6.08 7.69 6.4 7.69 6.81L7.67 6.83L6.24 6.83ZM7.67 11.36L7.69 11.38C7.69 11.79 7.37 12.12 6.95 12.12C6.54 12.12 6.22 11.79 6.22 11.38L6.24 11.36L7.67 11.36Z" fill="#000000" fill-opacity="0" fill-rule="nonzero"/>
		<path d="M6.95 6.81L6.95 11.38" stroke="#686868" stroke-opacity="1.000000" stroke-width="1.469388" stroke-linejoin="round" stroke-linecap="round"/>
		<path d="M4.69 9.81L4.67 9.83C4.26 9.83 3.93 9.51 3.93 9.1C3.93 8.68 4.26 8.36 4.67 8.36L4.69 8.38L4.69 9.81ZM9.22 8.38L9.24 8.36C9.65 8.36 9.98 8.68 9.98 9.1C9.98 9.51 9.65 9.83 9.24 9.83L9.22 9.81L9.22 8.38Z" fill="#000000" fill-opacity="0" fill-rule="nonzero"/>
		<path d="M4.67 9.1L9.24 9.1" stroke="#686868" stroke-opacity="1.000000" stroke-width="1.469388" stroke-linejoin="round" stroke-linecap="round"/>
	</g>
</svg>
