<svg width="16.000000" height="16.000000" viewBox="0 0 16 16" fill="none" xmlns="http://www.w3.org/2000/svg" xmlns:xlink="http://www.w3.org/1999/xlink">
	<desc>
			Created with Pixso.
	</desc>
	<defs>
		<clipPath id="clip1_60">
			<rect width="16.000000" height="16.000000" fill="white" fill-opacity="0"/>
		</clipPath>
	</defs>
	<g clip-path="url(#clip1_60)">
		<path d="M1.9 8.49C1.9 7.54 1.9 6.59 1.9 5.63C1.9 5.17 1.96 4.71 2.07 4.27C2.32 3.32 2.94 2.76 3.88 2.54C4.35 2.44 4.84 2.39 5.32 2.4C7.15 2.4 8.97 2.4 10.8 2.4C11.26 2.4 11.72 2.45 12.17 2.56C13.14 2.8 13.72 3.41 13.95 4.38C14.05 4.84 14.09 5.31 14.09 5.78C14.09 7.62 14.09 9.47 14.09 11.31C14.09 11.77 14.04 12.23 13.93 12.67C13.69 13.64 13.07 14.22 12.11 14.45C11.63 14.55 11.15 14.6 10.67 14.59C8.85 14.59 7.03 14.59 5.21 14.59C4.75 14.59 4.28 14.54 3.83 14.43C2.85 14.2 2.27 13.58 2.05 12.6C1.93 12.11 1.9 11.61 1.9 11.11C1.9 10.24 1.9 9.36 1.9 8.49Z" fill="#FFFFFF" fill-opacity="0" fill-rule="nonzero"/>
		<path d="M1.9 5.63C1.9 5.17 1.96 4.71 2.07 4.27C2.32 3.32 2.94 2.76 3.88 2.54C4.35 2.44 4.84 2.39 5.32 2.4C7.15 2.4 8.97 2.4 10.8 2.4C11.26 2.4 11.72 2.45 12.17 2.56C13.14 2.8 13.72 3.41 13.95 4.38C14.05 4.84 14.09 5.31 14.09 5.78C14.09 7.62 14.09 9.47 14.09 11.31C14.09 11.77 14.04 12.23 13.93 12.67C13.69 13.64 13.07 14.22 12.11 14.45C11.63 14.55 11.15 14.6 10.67 14.59C8.85 14.59 7.03 14.59 5.21 14.59C4.75 14.59 4.28 14.54 3.83 14.43C2.85 14.2 2.27 13.58 2.05 12.6C1.93 12.11 1.9 11.61 1.9 11.11C1.9 10.24 1.9 9.36 1.9 8.49C1.9 7.54 1.9 6.59 1.9 5.63Z" stroke="#FFFFFF" stroke-opacity="0" stroke-width="1.500000"/>
		<g opacity="0.200000">
			<path d="M1.9 8.49C1.9 7.54 1.9 6.59 1.9 5.63C1.9 5.17 1.96 4.71 2.07 4.27C2.32 3.32 2.94 2.76 3.88 2.54C4.35 2.44 4.84 2.39 5.32 2.4C7.15 2.4 8.97 2.4 10.8 2.4C11.26 2.4 11.72 2.45 12.17 2.56C13.14 2.8 13.72 3.41 13.95 4.38C14.05 4.84 14.09 5.31 14.09 5.78C14.09 7.62 14.09 9.47 14.09 11.31C14.09 11.77 14.04 12.23 13.93 12.67C13.69 13.64 13.07 14.22 12.11 14.45C11.63 14.55 11.15 14.6 10.67 14.59C8.85 14.59 7.03 14.59 5.21 14.59C4.75 14.59 4.28 14.54 3.83 14.43C2.85 14.2 2.27 13.58 2.05 12.6C1.93 12.11 1.9 11.61 1.9 11.11C1.9 10.24 1.9 9.36 1.9 8.49Z" fill="#000000" fill-opacity="0" fill-rule="nonzero"/>
			<path d="M1.9 5.63C1.9 5.17 1.96 4.71 2.07 4.27C2.32 3.32 2.94 2.76 3.88 2.54C4.35 2.44 4.84 2.39 5.32 2.4C7.15 2.4 8.97 2.4 10.8 2.4C11.26 2.4 11.72 2.45 12.17 2.56C13.14 2.8 13.72 3.41 13.95 4.38C14.05 4.84 14.09 5.31 14.09 5.78C14.09 7.62 14.09 9.47 14.09 11.31C14.09 11.77 14.04 12.23 13.93 12.67C13.69 13.64 13.07 14.22 12.11 14.45C11.63 14.55 11.15 14.6 10.67 14.59C8.85 14.59 7.03 14.59 5.21 14.59C4.75 14.59 4.28 14.54 3.83 14.43C2.85 14.2 2.27 13.58 2.05 12.6C1.93 12.11 1.9 11.61 1.9 11.11C1.9 10.24 1.9 9.36 1.9 8.49C1.9 7.54 1.9 6.59 1.9 5.63Z" stroke="#FFFFFF" stroke-opacity="0" stroke-width="1.500000"/>
		</g>
		<circle cx="8.000000" cy="8.500000" r="6.500000" fill="#FFFFFF" fill-opacity="0"/>
		<circle cx="8.000000" cy="8.500000" r="6.500000" stroke="#000000" stroke-opacity="0" stroke-width="1.500000"/>
		<path d="M2.85 8.18L3.81 4.82C3.89 4.55 4.1 4.34 4.37 4.27C5.58 3.93 6.79 3.76 8 3.76C9.2 3.76 10.41 3.93 11.62 4.26C11.89 4.34 12.1 4.55 12.18 4.82L13.14 8.18C11.43 7.85 9.72 7.69 8 7.69C6.28 7.69 4.57 7.85 2.85 8.18Z" fill="#FFFFFF" fill-opacity="0" fill-rule="evenodd"/>
		<path d="M3.81 4.82C3.89 4.55 4.1 4.34 4.37 4.27C5.58 3.93 6.79 3.76 8 3.76C9.2 3.76 10.41 3.93 11.62 4.26C11.89 4.34 12.1 4.55 12.18 4.82L13.14 8.18C11.43 7.85 9.72 7.69 8 7.69C6.28 7.69 4.57 7.85 2.85 8.18L3.81 4.82Z" stroke="#686868" stroke-opacity="1.000000" stroke-width="1.000000" stroke-linejoin="round"/>
		<path d="M7.99 7.68C9.46 7.68 11.13 7.84 13 8.15C13.54 8.24 13.93 8.72 13.9 9.27L13.71 12.86C13.69 13.14 13.46 13.37 13.17 13.37L11.52 13.37L10.97 12.42L5.02 12.42L4.47 13.37L2.82 13.37C2.53 13.37 2.3 13.14 2.28 12.86L2.09 9.27C2.06 8.72 2.45 8.24 2.99 8.15C4.86 7.84 6.53 7.68 7.99 7.68Z" fill="#FFFFFF" fill-opacity="0" fill-rule="evenodd"/>
		<path d="M13 8.15C13.54 8.24 13.93 8.72 13.9 9.27L13.71 12.86C13.69 13.14 13.46 13.37 13.17 13.37L11.52 13.37L10.97 12.42L5.02 12.42L4.47 13.37L2.82 13.37C2.53 13.37 2.3 13.14 2.28 12.86L2.09 9.27C2.06 8.72 2.45 8.24 2.99 8.15C4.86 7.84 6.53 7.68 7.99 7.68C9.46 7.68 11.13 7.84 13 8.15Z" stroke="#686868" stroke-opacity="1.000000" stroke-width="1.000000" stroke-linejoin="round"/>
		<path d="M9.87 10.45L9.89 10.43C10.17 10.43 10.39 10.65 10.39 10.93C10.39 11.21 10.17 11.43 9.89 11.43L9.87 11.41L9.87 10.45ZM4.99 10.45L5.01 10.43C5.29 10.43 5.52 10.65 5.52 10.93C5.52 11.21 5.3 11.43 5.02 11.43L5 11.41L4.99 10.45ZM12.58 10.45L12.6 10.43C12.88 10.43 13.1 10.65 13.1 10.93C13.1 11.21 12.88 11.43 12.6 11.43L12.58 11.41L12.58 10.45ZM6.1 11.44L6.12 11.42L6.12 10.46L6.1 10.44C5.82 10.44 5.6 10.66 5.6 10.94C5.6 11.22 5.82 11.44 6.1 11.44ZM3.39 11.44L3.41 11.42L3.41 10.46L3.39 10.44C3.11 10.44 2.89 10.66 2.89 10.94C2.89 11.22 3.11 11.44 3.39 11.44ZM10.97 11.44L10.99 11.42L10.99 10.46L10.97 10.44C10.69 10.44 10.47 10.66 10.47 10.94C10.47 11.22 10.69 11.44 10.97 11.44Z" fill="#000000" fill-opacity="0" fill-rule="evenodd"/>
		<path d="M5.02 10.93L3.39 10.94M9.89 10.93L6.1 10.94M12.6 10.93L10.97 10.94" stroke="#686868" stroke-opacity="1.000000" stroke-width="1.000000" stroke-linejoin="round" stroke-linecap="round"/>
		<path d="M8 3.62C9.22 3.62 10.44 3.79 11.65 4.13C11.97 4.22 12.22 4.47 12.31 4.79L13.27 8.14C13.29 8.21 13.25 8.29 13.18 8.31C13.11 8.33 13.03 8.29 13.01 8.22L12.05 4.86C11.99 4.63 11.81 4.46 11.58 4.39C10.39 4.06 9.19 3.89 8 3.89C6.8 3.89 5.61 4.06 4.41 4.4C4.18 4.46 4 4.64 3.94 4.86L2.98 8.22C2.96 8.29 2.88 8.33 2.81 8.31C2.74 8.29 2.7 8.21 2.72 8.14L3.68 4.79C3.77 4.47 4.02 4.22 4.33 4.13C5.56 3.79 6.78 3.62 8 3.62Z" fill="#FFFFFF" fill-opacity="0" fill-rule="nonzero"/>
		<path d="M11.65 4.13C11.97 4.22 12.22 4.47 12.31 4.79L13.27 8.14C13.29 8.21 13.25 8.29 13.18 8.31C13.11 8.33 13.03 8.29 13.01 8.22L12.05 4.86C11.99 4.63 11.81 4.46 11.58 4.39C10.39 4.06 9.19 3.89 8 3.89C6.8 3.89 5.61 4.06 4.41 4.4C4.18 4.46 4 4.64 3.94 4.86L2.98 8.22C2.96 8.29 2.88 8.33 2.81 8.31C2.74 8.29 2.7 8.21 2.72 8.14L3.68 4.79C3.77 4.47 4.02 4.22 4.33 4.13C5.56 3.79 6.78 3.62 8 3.62C9.22 3.62 10.44 3.79 11.65 4.13Z" stroke="#FFFFFF" stroke-opacity="0" stroke-width="1.000000" stroke-linejoin="round"/>
	</g>
</svg>
