<svg width="16.000000" height="16.000000" viewBox="0 0 16 16" fill="none" xmlns="http://www.w3.org/2000/svg" xmlns:xlink="http://www.w3.org/1999/xlink">
	<desc>
			Created with Pixso.
	</desc>
	<defs>
		<clipPath id="clip1_53">
			<rect width="16.000000" height="16.000000" fill="white" fill-opacity="0"/>
		</clipPath>
	</defs>
	<g clip-path="url(#clip1_53)">
		<rect width="16.000000" height="16.000000" fill="#FFFFFF" fill-opacity="0"/>
		<circle cx="8.000000" cy="12.000000" r="1.000000" fill="#686868" fill-opacity="1.000000"/>
		<path d="M2.53 5.99L2.53 6.02C2.23 6.32 1.76 6.32 1.46 6.02C1.17 5.72 1.17 5.26 1.46 4.96L1.49 4.96L2.53 5.99ZM14.55 4.96L14.58 4.96C14.88 5.26 14.88 5.72 14.58 6.02C14.28 6.32 13.82 6.32 13.52 6.02L13.52 5.99L14.55 4.96ZM4.54 8L4.54 8.03C4.24 8.33 3.77 8.33 3.48 8.03C3.18 7.73 3.18 7.27 3.48 6.97L3.5 6.97L4.54 8ZM12.54 6.97L12.57 6.97C12.87 7.27 12.87 7.73 12.57 8.03C12.27 8.33 11.81 8.33 11.51 8.03L11.51 8L12.54 6.97ZM6.54 10.01L6.54 10.04C6.25 10.34 5.78 10.34 5.48 10.04C5.19 9.74 5.19 9.27 5.48 8.98L5.51 8.98L6.54 10.01ZM10.54 8.98L10.56 8.98C10.86 9.27 10.86 9.74 10.56 10.04C10.27 10.34 9.8 10.34 9.5 10.04L9.5 10.01L10.54 8.98Z" fill="#000000" fill-opacity="0" fill-rule="nonzero"/>
		<path d="M1.99 5.49C5.32 2.16 10.72 2.16 14.05 5.49M4.01 7.5C6.22 5.28 9.82 5.28 12.04 7.5M6.01 9.51C7.12 8.4 8.92 8.4 10.03 9.51" stroke="#686868" stroke-opacity="1.000000" stroke-width="1.500000" stroke-linecap="round"/>
		<path d="M4.81 3.58C3.83 3.96 2.92 4.54 2.09 5.3C1.98 5.4 1.97 5.57 2.07 5.69C2.18 5.8 2.35 5.81 2.46 5.7C3.24 4.99 4.09 4.45 5.01 4.09C5.94 3.72 6.95 3.54 8.03 3.54C9.1 3.54 10.11 3.72 11.04 4.09C11.96 4.45 12.81 4.99 13.59 5.7C13.7 5.8 13.87 5.8 13.98 5.68C14.08 5.57 14.07 5.4 13.96 5.3C13.13 4.54 12.22 3.96 11.24 3.58C10.24 3.19 9.17 3 8.03 3C6.88 3 5.8 3.19 4.81 3.58ZM5.88 6.22C5.22 6.48 4.62 6.85 4.06 7.35C3.94 7.45 3.93 7.62 4.04 7.74C4.14 7.85 4.31 7.86 4.42 7.76C4.93 7.31 5.48 6.96 6.07 6.74C6.68 6.5 7.33 6.38 8.03 6.38C8.72 6.38 9.37 6.5 9.98 6.74C10.57 6.96 11.12 7.31 11.63 7.76C11.74 7.86 11.91 7.85 12.01 7.74C12.12 7.62 12.11 7.45 11.99 7.35C11.43 6.85 10.83 6.47 10.17 6.22C9.51 5.97 8.79 5.84 8.03 5.84C7.26 5.84 6.54 5.97 5.88 6.22ZM6.95 8.86C6.62 8.98 6.31 9.16 6.03 9.4C5.91 9.5 5.89 9.67 5.99 9.79C6.09 9.91 6.26 9.92 6.38 9.82C6.61 9.63 6.86 9.48 7.13 9.38C7.41 9.28 7.71 9.23 8.03 9.23C8.34 9.23 8.64 9.28 8.92 9.38C9.19 9.48 9.44 9.63 9.67 9.82C9.79 9.92 9.96 9.91 10.06 9.79C10.15 9.67 10.14 9.5 10.02 9.4C9.74 9.16 9.43 8.98 9.1 8.86C8.77 8.74 8.41 8.68 8.03 8.68C7.64 8.68 7.28 8.74 6.95 8.86Z" fill="#FFFFFF" fill-opacity="0" fill-rule="evenodd"/>
		<path d="M2.09 5.3C1.98 5.4 1.97 5.57 2.07 5.69C2.18 5.8 2.35 5.81 2.46 5.7C3.24 4.99 4.09 4.45 5.01 4.09C5.94 3.72 6.95 3.54 8.03 3.54C9.1 3.54 10.11 3.72 11.04 4.09C11.96 4.45 12.81 4.99 13.59 5.7C13.7 5.8 13.87 5.8 13.98 5.68C14.08 5.57 14.07 5.4 13.96 5.3C13.13 4.54 12.22 3.96 11.24 3.58C10.24 3.19 9.17 3 8.03 3C6.88 3 5.8 3.19 4.81 3.58C3.83 3.96 2.92 4.54 2.09 5.3ZM4.06 7.35C3.94 7.45 3.93 7.62 4.04 7.74C4.14 7.85 4.31 7.86 4.42 7.76C4.93 7.31 5.48 6.96 6.07 6.74C6.68 6.5 7.33 6.38 8.03 6.38C8.72 6.38 9.37 6.5 9.98 6.74C10.57 6.96 11.12 7.31 11.63 7.76C11.74 7.86 11.91 7.85 12.01 7.74C12.12 7.62 12.11 7.45 11.99 7.35C11.43 6.85 10.83 6.47 10.17 6.22C9.51 5.97 8.79 5.84 8.03 5.84C7.26 5.84 6.54 5.97 5.88 6.22C5.22 6.48 4.62 6.85 4.06 7.35ZM6.03 9.4C5.91 9.5 5.89 9.67 5.99 9.79C6.09 9.91 6.26 9.92 6.38 9.82C6.61 9.63 6.86 9.48 7.13 9.38C7.41 9.28 7.71 9.23 8.03 9.23C8.34 9.23 8.64 9.28 8.92 9.38C9.19 9.48 9.44 9.63 9.67 9.82C9.79 9.92 9.96 9.91 10.06 9.79C10.15 9.67 10.14 9.5 10.02 9.4C9.74 9.16 9.43 8.98 9.1 8.86C8.77 8.74 8.41 8.68 8.03 8.68C7.64 8.68 7.28 8.74 6.95 8.86C6.62 8.98 6.31 9.16 6.03 9.4Z" fill="#000000" fill-opacity="0" fill-rule="nonzero"/>
		<path d="M2.07 5.69C2.18 5.8 2.35 5.81 2.46 5.7C3.24 4.99 4.09 4.45 5.01 4.09C5.94 3.72 6.95 3.54 8.03 3.54C9.1 3.54 10.11 3.72 11.04 4.09C11.96 4.45 12.81 4.99 13.59 5.7C13.7 5.8 13.87 5.8 13.98 5.68C14.08 5.57 14.07 5.4 13.96 5.3C13.13 4.54 12.22 3.96 11.24 3.58C10.24 3.19 9.17 3 8.03 3C6.88 3 5.8 3.19 4.81 3.58C3.83 3.96 2.92 4.54 2.09 5.3C1.98 5.4 1.97 5.57 2.07 5.69ZM4.04 7.74C4.14 7.85 4.31 7.86 4.42 7.76C4.93 7.31 5.48 6.96 6.07 6.74C6.68 6.5 7.33 6.38 8.03 6.38C8.72 6.38 9.37 6.5 9.98 6.74C10.57 6.96 11.12 7.31 11.63 7.76C11.74 7.86 11.91 7.85 12.01 7.74C12.12 7.62 12.11 7.45 11.99 7.35C11.43 6.85 10.83 6.47 10.17 6.22C9.51 5.97 8.79 5.84 8.03 5.84C7.26 5.84 6.54 5.97 5.88 6.22C5.22 6.48 4.62 6.85 4.06 7.35C3.94 7.45 3.93 7.62 4.04 7.74ZM5.99 9.79C6.09 9.91 6.26 9.92 6.38 9.82C6.61 9.63 6.86 9.48 7.13 9.38C7.41 9.28 7.71 9.23 8.03 9.23C8.34 9.23 8.64 9.28 8.92 9.38C9.19 9.48 9.44 9.63 9.67 9.82C9.79 9.92 9.96 9.91 10.06 9.79C10.15 9.67 10.14 9.5 10.02 9.4C9.74 9.16 9.43 8.98 9.1 8.86C8.77 8.74 8.41 8.68 8.03 8.68C7.64 8.68 7.28 8.74 6.95 8.86C6.62 8.98 6.31 9.16 6.03 9.4C5.91 9.5 5.89 9.67 5.99 9.79Z" stroke="#FFFFFF" stroke-opacity="0" stroke-width="1.500000"/>
	</g>
</svg>
