<svg width="24.000000" height="24.000000" viewBox="0 0 24 24" fill="none" xmlns="http://www.w3.org/2000/svg" xmlns:xlink="http://www.w3.org/1999/xlink">
	<desc>
			Created with Pixso.
	</desc>
	<defs/>
	<rect rx="12.000000" width="24.000000" height="24.000000" fill="#ED6F21" fill-opacity="0.100000"/>
	<path d="M5.4 8.59C5.19 7.68 5.46 6.73 6.13 6.07C6.5 5.65 6.85 5.42 7.18 5.35C7.67 5.26 8.18 5.45 8.49 5.84L9.56 7.17C9.62 7.23 9.66 7.28 9.68 7.31C10.09 7.77 10.1 8.48 9.69 8.93L8.94 9.64C8.65 9.93 8.6 10.37 8.81 10.72C9.23 11.39 10.01 12.29 10.86 13.13C11.7 13.98 12.6 14.76 13.27 15.18C13.62 15.39 14.06 15.34 14.35 15.05L15.03 14.33C15.46 13.93 16.15 13.88 16.61 14.25L16.73 14.35C16.99 14.56 17.81 15.22 18.15 15.5C18.54 15.81 18.73 16.32 18.64 16.81C18.57 17.14 18.34 17.49 17.92 17.86C17.26 18.53 16.31 18.8 15.4 18.59C13.46 18.14 11.16 16.62 9.26 14.73C7.37 12.83 5.85 10.53 5.4 8.59Z" fill="#ED6F21" fill-opacity="1.000000" fill-rule="nonzero"/>
</svg>
