<svg width="12.000000" height="12.000000" viewBox="0 0 12 12" fill="none" xmlns="http://www.w3.org/2000/svg" xmlns:xlink="http://www.w3.org/1999/xlink">
	<desc>
			Created with Pixso.
	</desc>
	<defs>
		<clipPath id="clip1_33">
			<rect width="12.000000" height="12.000000" fill="white" fill-opacity="0"/>
		</clipPath>
	</defs>
	<g clip-path="url(#clip1_33)">
		<path d="M6 1.5L6 10.5C4.25 10.5 2.94 8.2 2.94 8.2L1.5 8.2C1.22 8.2 1 7.98 1 7.7L1 4.25C1 3.97 1.22 3.75 1.5 3.75L2.94 3.75C2.94 3.75 4.25 1.5 6 1.5Z" fill="#E84026" fill-opacity="1.000000" fill-rule="nonzero"/>
		<path d="M7.69 4.12L7.66 4.12C7.45 3.93 7.44 3.62 7.62 3.41C7.81 3.2 8.12 3.19 8.33 3.37L8.33 3.4L7.69 4.12ZM8.33 8.59L8.33 8.62C8.12 8.8 7.81 8.79 7.62 8.58C7.44 8.37 7.45 8.06 7.66 7.87L7.69 7.87L8.33 8.59Z" fill="#000000" fill-opacity="0" fill-rule="nonzero"/>
		<path d="M8 3.75C8.15 3.88 8.29 4.04 8.42 4.21C8.78 4.71 9 5.33 9 6C9 6.66 8.78 7.27 8.43 7.77C8.3 7.94 8.15 8.1 8 8.25" stroke="#E84026" stroke-opacity="1.000000" stroke-width="1.000000" stroke-linejoin="round" stroke-linecap="round"/>
		<path d="M8.82 10.69L8.81 10.72C8.57 10.86 8.27 10.79 8.12 10.55C7.98 10.31 8.06 10.01 8.3 9.86L8.33 9.87L8.82 10.69ZM8.39 2.16L8.36 2.16C8.12 2.02 8.05 1.71 8.2 1.48C8.34 1.24 8.65 1.17 8.88 1.31L8.89 1.34L8.39 2.16Z" fill="#000000" fill-opacity="0" fill-rule="nonzero"/>
		<path d="M8.55 10.29C10.02 9.42 11 7.82 11 6C11 4.2 10.05 2.62 8.62 1.74" stroke="#E84026" stroke-opacity="1.000000" stroke-width="1.000000" stroke-linecap="round"/>
	</g>
</svg>
