<svg width="14.333347" height="14.000000" viewBox="0 0 14.3333 14" fill="none" xmlns="http://www.w3.org/2000/svg" xmlns:xlink="http://www.w3.org/1999/xlink">
	<desc>
			Created with Pixso.
	</desc>
	<defs>
		<clipPath id="clip1_55">
			<rect width="10.238105" height="10.000000" transform="translate(2.047621 2.000000)" fill="white" fill-opacity="0"/>
		</clipPath>
		<linearGradient x1="7.166674" y1="0.000000" x2="7.166674" y2="14.000000" id="paint_linear_1_54_0" gradientUnits="userSpaceOnUse">
			<stop offset="0.008333" stop-color="#F7CE00"/>
			<stop offset="1.000000" stop-color="#F9A01E"/>
		</linearGradient>
	</defs>
	<g style="mix-blend-mode:normal">
		<path d="M2 0L12.33 0C13.43 0 14.33 0.89 14.33 2L14.33 12C14.33 13.1 13.43 14 12.33 14L2 14C0.89 14 0 13.1 0 12L0 2C0 0.89 0.89 0 2 0Z" fill="url(#paint_linear_1_54_0)" fill-opacity="1.000000" fill-rule="evenodd"/>
	</g>
	<g clip-path="url(#clip1_55)">
		<path d="M2.36 6.99C2.36 6.26 2.36 5.53 2.36 4.79C2.36 4.44 2.41 4.09 2.5 3.74C2.69 3.02 3.18 2.59 3.92 2.42C4.29 2.34 4.67 2.3 5.06 2.31C6.49 2.31 7.93 2.31 9.37 2.31C9.73 2.31 10.09 2.35 10.45 2.43C11.21 2.61 11.67 3.09 11.85 3.83C11.93 4.18 11.96 4.54 11.96 4.9C11.96 6.32 11.96 7.74 11.96 9.16C11.96 9.51 11.92 9.86 11.84 10.21C11.65 10.95 11.16 11.4 10.4 11.57C10.03 11.65 9.65 11.69 9.26 11.68C7.83 11.68 6.4 11.68 4.97 11.68C4.6 11.68 4.24 11.64 3.88 11.56C3.11 11.38 2.65 10.9 2.48 10.15C2.39 9.77 2.36 9.39 2.36 9.01C2.36 8.34 2.36 7.66 2.36 6.99Z" fill="#FFFFFF" fill-opacity="0" fill-rule="nonzero"/>
		<path d="M2.36 4.79C2.36 4.44 2.41 4.09 2.5 3.74C2.69 3.02 3.18 2.59 3.92 2.42C4.29 2.34 4.67 2.3 5.06 2.31C6.49 2.31 7.93 2.31 9.37 2.31C9.73 2.31 10.09 2.35 10.45 2.43C11.21 2.61 11.67 3.09 11.85 3.83C11.93 4.18 11.96 4.54 11.96 4.9C11.96 6.32 11.96 7.74 11.96 9.16C11.96 9.51 11.92 9.86 11.84 10.21C11.65 10.95 11.16 11.4 10.4 11.57C10.03 11.65 9.65 11.69 9.26 11.68C7.83 11.68 6.4 11.68 4.97 11.68C4.6 11.68 4.24 11.64 3.88 11.56C3.11 11.38 2.65 10.9 2.48 10.15C2.39 9.77 2.36 9.39 2.36 9.01C2.36 8.34 2.36 7.66 2.36 6.99C2.36 6.26 2.36 5.53 2.36 4.79Z" stroke="#FFFFFF" stroke-opacity="0" stroke-width="1.000000"/>
		<g opacity="0.200000">
			<path d="M2.36 6.99C2.36 6.26 2.36 5.53 2.36 4.79C2.36 4.44 2.41 4.09 2.5 3.74C2.69 3.02 3.18 2.59 3.92 2.42C4.29 2.34 4.67 2.3 5.06 2.31C6.49 2.31 7.93 2.31 9.37 2.31C9.73 2.31 10.09 2.35 10.45 2.43C11.21 2.61 11.67 3.09 11.85 3.83C11.93 4.18 11.96 4.54 11.96 4.9C11.96 6.32 11.96 7.74 11.96 9.16C11.96 9.51 11.92 9.86 11.84 10.21C11.65 10.95 11.16 11.4 10.4 11.57C10.03 11.65 9.65 11.69 9.26 11.68C7.83 11.68 6.4 11.68 4.97 11.68C4.6 11.68 4.24 11.64 3.88 11.56C3.11 11.38 2.65 10.9 2.48 10.15C2.39 9.77 2.36 9.39 2.36 9.01C2.36 8.34 2.36 7.66 2.36 6.99Z" fill="#000000" fill-opacity="0" fill-rule="nonzero"/>
			<path d="M2.36 4.79C2.36 4.44 2.41 4.09 2.5 3.74C2.69 3.02 3.18 2.59 3.92 2.42C4.29 2.34 4.67 2.3 5.06 2.31C6.49 2.31 7.93 2.31 9.37 2.31C9.73 2.31 10.09 2.35 10.45 2.43C11.21 2.61 11.67 3.09 11.85 3.83C11.93 4.18 11.96 4.54 11.96 4.9C11.96 6.32 11.96 7.74 11.96 9.16C11.96 9.51 11.92 9.86 11.84 10.21C11.65 10.95 11.16 11.4 10.4 11.57C10.03 11.65 9.65 11.69 9.26 11.68C7.83 11.68 6.4 11.68 4.97 11.68C4.6 11.68 4.24 11.64 3.88 11.56C3.11 11.38 2.65 10.9 2.48 10.15C2.39 9.77 2.36 9.39 2.36 9.01C2.36 8.34 2.36 7.66 2.36 6.99C2.36 6.26 2.36 5.53 2.36 4.79Z" stroke="#FFFFFF" stroke-opacity="0" stroke-width="1.000000"/>
		</g>
		<ellipse cx="7.166674" cy="7.000000" rx="5.119052" ry="5.000000" fill="#FFFFFF" fill-opacity="0"/>
		<ellipse cx="7.166674" cy="7.000000" rx="5.119052" ry="5.000000" stroke="#000000" stroke-opacity="0" stroke-width="1.000000"/>
		<path d="M12.28 11.22L12.28 12L2.04 12L2.04 11.22L12.28 11.22Z" fill="#FFFFFF" fill-opacity="0" fill-rule="nonzero"/>
		<path d="M12.28 12L2.04 12L2.04 11.22L12.28 11.22L12.28 12Z" stroke="#000000" stroke-opacity="0" stroke-width="1.000000"/>
		<mask id="mask1_63" mask-type="alpha" maskUnits="userSpaceOnUse" x="2.047621" y="11.219986" width="10.238104" height="0.779999">
			<path d="M12.28 11.22L12.28 12L2.04 12L2.04 11.22L12.28 11.22Z" fill="#FFFFFF" fill-opacity="1.000000" fill-rule="nonzero"/>
		</mask>
		<g mask="url(#mask1_63)">
			<ellipse cx="7.166674" cy="9.720001" rx="1.919645" ry="1.875000" fill="#FFFFFF" fill-opacity="1.000000"/>
			<ellipse cx="7.166674" cy="9.720001" rx="1.919645" ry="1.875000" stroke="#FFFFFF" stroke-opacity="1.000000" stroke-width="1.000000" stroke-linejoin="round"/>
		</g>
		<path d="M9.76 5.1C9.42 3.95 8.33 3.1 7.04 3.1C5.74 3.1 4.65 3.95 4.32 5.11C4.3 5.16 4.29 5.22 4.27 5.28C4.26 5.28 4.24 5.28 4.22 5.28C3.94 5.27 3.72 5.49 3.72 5.77L3.74 5.79L4.22 5.8C4.22 5.81 4.22 5.83 4.22 5.84Q4.22 8.76 3.13 10.02C3.1 10.05 3.08 10.1 3.08 10.14C3.08 10.25 3.17 10.34 3.28 10.34L10.95 10.34C11 10.34 11.05 10.32 11.09 10.29C11.17 10.21 11.17 10.09 11.09 10.01Q9.86 8.75 9.86 5.84C9.86 5.81 9.86 5.79 9.86 5.76C9.85 5.52 9.82 5.3 9.76 5.1Z" fill="#FFFFFF" fill-opacity="0" fill-rule="evenodd"/>
		<path d="M9.76 5.1C9.82 5.3 9.85 5.52 9.86 5.76C9.86 5.79 9.86 5.81 9.86 5.84C9.86 7.78 10.27 9.17 11.09 10.01C11.17 10.09 11.17 10.21 11.09 10.29C11.05 10.32 11 10.34 10.95 10.34L3.28 10.34C3.17 10.34 3.08 10.25 3.08 10.14C3.08 10.1 3.1 10.05 3.13 10.02C3.85 9.18 4.22 7.78 4.22 5.84C4.22 5.8 4.22 5.76 4.22 5.73C4.22 5.71 4.22 5.7 4.22 5.69C4.23 5.48 4.26 5.29 4.32 5.11C4.65 3.95 5.74 3.1 7.04 3.1C8.33 3.1 9.42 3.95 9.76 5.1ZM4.22 5.84L4.22 5.78" stroke="#FFFFFF" stroke-opacity="1.000000" stroke-width="1.000000" stroke-linejoin="round" stroke-linecap="round"/>
		<line x1="7.043287" y1="2.520859" x2="7.043287" y2="3.063400" stroke="#FFFFFF" stroke-opacity="1.000000" stroke-width="1.000000"/>
		<path d="M7.04 2.39C7.11 2.39 7.17 2.45 7.17 2.52L7.17 3.06C7.17 3.13 7.11 3.18 7.04 3.18C6.97 3.18 6.91 3.13 6.91 3.06L6.91 2.52C6.91 2.45 6.97 2.39 7.04 2.39Z" fill="#FFFFFF" fill-opacity="0" fill-rule="nonzero"/>
		<path d="M7.17 2.52L7.17 3.06C7.17 3.13 7.11 3.18 7.04 3.18C6.97 3.18 6.91 3.13 6.91 3.06L6.91 2.52C6.91 2.45 6.97 2.39 7.04 2.39C7.11 2.39 7.17 2.45 7.17 2.52Z" stroke="#FFFFFF" stroke-opacity="0" stroke-width="1.000000" stroke-linejoin="round"/>
	</g>
</svg>
