<svg width="40.000000" height="40.000000" viewBox="0 0 40 40" fill="none" xmlns="http://www.w3.org/2000/svg" xmlns:xlink="http://www.w3.org/1999/xlink">
	<desc>
			Created with Pixso.
	</desc>
	<defs/>
	<rect width="40.000000" height="40.000000" fill="#C4C4C4" fill-opacity="0"/>
	<path d="M39 12C39 11.86 38.98 11.73 38.96 11.6C38.93 11.48 38.89 11.35 38.84 11.23C38.79 11.11 38.73 10.99 38.66 10.88C38.59 10.77 38.5 10.67 38.41 10.58C38.32 10.49 38.22 10.41 38.11 10.33C38 10.26 37.88 10.2 37.76 10.15C37.64 10.1 37.51 10.06 37.39 10.03C37.26 10.01 37.13 10 37 10C36.86 10 36.73 10.01 36.6 10.03C36.48 10.06 36.35 10.1 36.23 10.15C36.11 10.2 35.99 10.26 35.88 10.33C35.77 10.41 35.67 10.49 35.58 10.58C35.49 10.67 35.41 10.77 35.33 10.88C35.26 10.99 35.2 11.11 35.15 11.23C35.1 11.35 35.06 11.48 35.03 11.6C35.01 11.73 35 11.86 35 12C35 12.13 35.01 12.26 35.03 12.39C35.06 12.51 35.1 12.64 35.15 12.76C35.2 12.88 35.26 13 35.33 13.11C35.41 13.22 35.49 13.32 35.58 13.41C35.67 13.5 35.77 13.59 35.88 13.66C35.99 13.73 36.11 13.79 36.23 13.84C36.35 13.89 36.48 13.93 36.6 13.96C36.73 13.98 36.86 14 37 14C37.13 14 37.26 13.98 37.39 13.96C37.51 13.93 37.64 13.89 37.76 13.84C37.88 13.79 38 13.73 38.11 13.66C38.22 13.59 38.32 13.5 38.41 13.41C38.5 13.32 38.59 13.22 38.66 13.11C38.73 13 38.79 12.88 38.84 12.76C38.89 12.64 38.93 12.51 38.96 12.39C38.98 12.26 39 12.13 39 12Z" fill="#F9A01E" fill-opacity="1.000000" fill-rule="nonzero"/>
	<path d="M9 1C9 0.93 8.99 0.86 8.98 0.8C8.96 0.74 8.94 0.67 8.92 0.61C8.89 0.55 8.86 0.49 8.83 0.44C8.79 0.38 8.75 0.33 8.7 0.29C8.66 0.24 8.61 0.2 8.55 0.16C8.5 0.13 8.44 0.1 8.38 0.07C8.32 0.05 8.26 0.03 8.19 0.01C8.13 0 8.06 0 8 0C7.93 0 7.87 0 7.8 0.01C7.74 0.03 7.67 0.05 7.61 0.07C7.55 0.1 7.5 0.13 7.44 0.16C7.39 0.2 7.34 0.24 7.29 0.29C7.24 0.33 7.2 0.38 7.16 0.44C7.13 0.49 7.1 0.55 7.07 0.61C7.05 0.67 7.03 0.74 7.02 0.8C7 0.86 7 0.93 7 1C7 1.06 7 1.13 7.02 1.19C7.03 1.25 7.05 1.32 7.07 1.38C7.1 1.44 7.13 1.5 7.16 1.55C7.2 1.61 7.24 1.66 7.29 1.7C7.34 1.75 7.39 1.79 7.44 1.83C7.5 1.86 7.55 1.89 7.61 1.92C7.67 1.94 7.74 1.96 7.8 1.98C7.87 1.99 7.93 2 8 2C8.06 2 8.13 1.99 8.19 1.98C8.26 1.96 8.32 1.94 8.38 1.92C8.44 1.89 8.5 1.86 8.55 1.83C8.61 1.79 8.66 1.75 8.7 1.7C8.75 1.66 8.79 1.61 8.83 1.55C8.86 1.5 8.89 1.44 8.92 1.38C8.94 1.32 8.96 1.25 8.98 1.19C8.99 1.13 9 1.06 9 1Z" fill="#F9A01E" fill-opacity="1.000000" fill-rule="nonzero"/>
	<path d="M24 29C24 28.82 23.99 28.64 23.98 28.46C23.97 28.28 23.96 28.1 23.94 27.92C23.92 27.74 23.9 27.56 23.88 27.38C23.85 27.2 23.82 27.03 23.78 26.85C23.75 26.67 23.71 26.5 23.67 26.32C23.62 26.15 23.57 25.97 23.52 25.8C23.47 25.63 23.41 25.46 23.35 25.29C23.29 25.12 23.23 24.95 23.16 24.79C23.09 24.62 23.02 24.45 22.94 24.29C22.86 24.13 22.78 23.97 22.7 23.81C22.61 23.65 22.52 23.49 22.43 23.34C22.34 23.19 22.24 23.03 22.14 22.88C22.04 22.73 21.94 22.59 21.83 22.44C21.72 22.3 21.61 22.16 21.5 22.02C21.38 21.88 21.27 21.74 21.15 21.61C21.02 21.47 20.9 21.34 20.77 21.22C20.65 21.09 20.52 20.97 20.38 20.84C20.25 20.72 20.11 20.61 19.97 20.49C19.83 20.38 19.69 20.27 19.55 20.16C19.4 20.05 19.26 19.95 19.11 19.85C18.96 19.75 18.8 19.65 18.65 19.56C18.5 19.47 18.34 19.38 18.18 19.29C18.02 19.21 17.86 19.13 17.7 19.05C17.54 18.97 17.37 18.9 17.2 18.83C17.04 18.76 16.87 18.7 16.7 18.64C16.53 18.58 16.36 18.52 16.19 18.47C16.02 18.42 15.84 18.37 15.67 18.32C15.49 18.28 15.32 18.24 15.14 18.21C14.96 18.17 14.79 18.14 14.61 18.11C14.43 18.09 14.25 18.07 14.07 18.05C13.89 18.03 13.71 18.02 13.53 18.01C13.35 18 13.18 18 13 18C12.82 18 12.64 18 12.46 18.01C12.28 18.02 12.1 18.03 11.92 18.05C11.74 18.07 11.56 18.09 11.38 18.11C11.2 18.14 11.03 18.17 10.85 18.21C10.67 18.24 10.5 18.28 10.32 18.32C10.15 18.37 9.97 18.42 9.8 18.47C9.63 18.52 9.46 18.58 9.29 18.64C9.12 18.7 8.95 18.76 8.79 18.83C8.62 18.9 8.45 18.97 8.29 19.05C8.13 19.13 7.97 19.21 7.81 19.29C7.65 19.38 7.49 19.47 7.34 19.56C7.19 19.65 7.03 19.75 6.88 19.85C6.73 19.95 6.59 20.05 6.44 20.16C6.3 20.27 6.16 20.38 6.02 20.49C5.88 20.61 5.74 20.72 5.61 20.84C5.47 20.97 5.34 21.09 5.22 21.22C5.09 21.34 4.97 21.47 4.84 21.61C4.72 21.74 4.61 21.88 4.49 22.02C4.38 22.16 4.27 22.3 4.16 22.44C4.05 22.59 3.95 22.73 3.85 22.88C3.75 23.03 3.65 23.19 3.56 23.34C3.47 23.49 3.38 23.65 3.29 23.81C3.21 23.97 3.13 24.13 3.05 24.29C2.97 24.45 2.9 24.62 2.83 24.79C2.76 24.95 2.7 25.12 2.64 25.29C2.58 25.46 2.52 25.63 2.47 25.8C2.42 25.97 2.37 26.15 2.32 26.32C2.28 26.5 2.24 26.67 2.21 26.85C2.17 27.03 2.14 27.2 2.11 27.38C2.09 27.56 2.07 27.74 2.05 27.92C2.03 28.1 2.02 28.28 2.01 28.46C2 28.64 2 28.82 2 29C2 29.18 2 29.35 2.01 29.53C2.02 29.71 2.03 29.89 2.05 30.07C2.07 30.25 2.09 30.43 2.11 30.61C2.14 30.79 2.17 30.96 2.21 31.14C2.24 31.32 2.28 31.49 2.32 31.67C2.37 31.84 2.42 32.02 2.47 32.19C2.52 32.36 2.58 32.53 2.64 32.7C2.7 32.87 2.76 33.04 2.83 33.2C2.9 33.37 2.97 33.54 3.05 33.7C3.13 33.86 3.21 34.02 3.29 34.18C3.38 34.34 3.47 34.5 3.56 34.65C3.65 34.8 3.75 34.96 3.85 35.11C3.95 35.26 4.05 35.4 4.16 35.55C4.27 35.69 4.38 35.83 4.49 35.97C4.61 36.11 4.72 36.25 4.84 36.38C4.97 36.52 5.09 36.65 5.22 36.77C5.34 36.9 5.47 37.02 5.61 37.15C5.74 37.27 5.88 37.38 6.02 37.5C6.16 37.61 6.3 37.72 6.44 37.83C6.59 37.94 6.73 38.04 6.88 38.14C7.03 38.24 7.19 38.34 7.34 38.43C7.49 38.52 7.65 38.61 7.81 38.7C7.97 38.78 8.13 38.86 8.29 38.94C8.45 39.02 8.62 39.09 8.79 39.16C8.95 39.23 9.12 39.29 9.29 39.35C9.46 39.41 9.63 39.47 9.8 39.52C9.97 39.57 10.15 39.62 10.32 39.67C10.5 39.71 10.67 39.75 10.85 39.78C11.03 39.82 11.2 39.85 11.38 39.88C11.56 39.9 11.74 39.92 11.92 39.94C12.1 39.96 12.28 39.97 12.46 39.98C12.64 39.99 12.82 40 13 40C13.18 40 13.35 39.99 13.53 39.98C13.71 39.97 13.89 39.96 14.07 39.94C14.25 39.92 14.43 39.9 14.61 39.88C14.79 39.85 14.96 39.82 15.14 39.78C15.32 39.75 15.49 39.71 15.67 39.67C15.84 39.62 16.02 39.57 16.19 39.52C16.36 39.47 16.53 39.41 16.7 39.35C16.87 39.29 17.04 39.23 17.2 39.16C17.37 39.09 17.54 39.02 17.7 38.94C17.86 38.86 18.02 38.78 18.18 38.7C18.34 38.61 18.5 38.52 18.65 38.43C18.8 38.34 18.96 38.24 19.11 38.14C19.26 38.04 19.4 37.94 19.55 37.83C19.69 37.72 19.83 37.61 19.97 37.5C20.11 37.38 20.25 37.27 20.38 37.15C20.52 37.02 20.65 36.9 20.77 36.77C20.9 36.65 21.02 36.52 21.15 36.38C21.27 36.25 21.38 36.11 21.5 35.97C21.61 35.83 21.72 35.69 21.83 35.55C21.94 35.4 22.04 35.26 22.14 35.11C22.24 34.96 22.34 34.8 22.43 34.65C22.52 34.5 22.61 34.34 22.7 34.18C22.78 34.02 22.86 33.86 22.94 33.7C23.02 33.54 23.09 33.37 23.16 33.2C23.23 33.04 23.29 32.87 23.35 32.7C23.41 32.53 23.47 32.36 23.52 32.19C23.57 32.02 23.62 31.84 23.67 31.67C23.71 31.49 23.75 31.32 23.78 31.14C23.82 30.96 23.85 30.79 23.88 30.61C23.9 30.43 23.92 30.25 23.94 30.07C23.96 29.89 23.97 29.71 23.98 29.53C23.99 29.35 24 29.18 24 29Z" fill="#F9A01E" fill-opacity="1.000000" fill-rule="nonzero"/>
	<rect x="8.000000" y="13.000000" rx="4.000000" width="24.000000" height="24.000000" stroke="#191919" stroke-opacity="1.000000" stroke-width="2.000000"/>
	<path d="M13 17L13 11C13 10.05 13.18 9.14 13.55 8.27C13.9 7.43 14.4 6.69 15.05 6.05C15.69 5.4 16.43 4.9 17.27 4.55C18.14 4.18 19.05 4 20 4C20.94 4 21.85 4.18 22.72 4.55C23.56 4.9 24.3 5.4 24.94 6.05C25.59 6.69 26.09 7.43 26.44 8.27C26.81 9.14 27 10.05 27 11L27 17L25 17L25 11C25 10.32 24.86 9.67 24.6 9.05C24.35 8.45 23.99 7.92 23.53 7.46C23.07 7 22.54 6.64 21.94 6.39C21.32 6.13 20.67 6 20 6C19.32 6 18.67 6.13 18.05 6.39C17.45 6.64 16.92 7 16.46 7.46C16 7.92 15.64 8.45 15.39 9.05C15.13 9.67 15 10.32 15 11L15 17L13 17ZM26.98 16.98L27 17C27 17.56 26.56 18 26 18C25.44 18 25 17.56 25 17L25.02 16.98L26.98 16.98ZM14.98 16.98L15 17C15 17.56 14.56 18 14 18C13.44 18 13 17.56 13 17L13.02 16.98L14.98 16.98Z" fill="#191919" fill-opacity="1.000000" fill-rule="evenodd"/>
</svg>
