<svg width="16.000000" height="16.000000" viewBox="0 0 16 16" fill="none" xmlns="http://www.w3.org/2000/svg" xmlns:xlink="http://www.w3.org/1999/xlink">
	<desc>
			Created with Pixso.
	</desc>
	<defs/>
	<rect width="16.000000" height="16.000000" fill="#C4C4C4" fill-opacity="0"/>
	<path d="M13.34 7.34C13.52 7.34 13.68 7.4 13.81 7.52C13.93 7.65 14 7.81 14 8C14 8.18 13.93 8.34 13.81 8.47C13.68 8.59 13.52 8.65 13.34 8.65L8.65 8.65L8.65 13.34C8.65 13.52 8.59 13.68 8.47 13.81C8.34 13.93 8.18 14 8 14C7.81 14 7.65 13.93 7.52 13.81C7.4 13.68 7.34 13.52 7.34 13.34L7.34 8.65L2.65 8.65C2.47 8.65 2.31 8.59 2.18 8.47C2.06 8.34 2 8.18 2 8C2 7.81 2.06 7.65 2.18 7.52C2.31 7.4 2.47 7.34 2.65 7.34L7.34 7.34L7.34 2.65C7.34 2.47 7.4 2.31 7.52 2.18C7.65 2.06 7.81 2 8 2C8.18 2 8.34 2.06 8.47 2.18C8.59 2.31 8.65 2.47 8.65 2.65L8.65 7.34L13.34 7.34Z" fill="#000000" fill-opacity="1.000000" fill-rule="nonzero"/>
</svg>
