<svg width="40.000000" height="40.000000" viewBox="0 0 40 40" fill="none" xmlns="http://www.w3.org/2000/svg" xmlns:xlink="http://www.w3.org/1999/xlink">
	<desc>
			Created with Pixso.
	</desc>
	<defs/>
	<rect width="40.000000" height="40.000000" fill="#C4C4C4" fill-opacity="0"/>
	<path d="M4 22C4 21.86 3.98 21.73 3.96 21.6C3.93 21.48 3.89 21.35 3.84 21.23C3.79 21.11 3.73 20.99 3.66 20.88C3.58 20.77 3.5 20.67 3.41 20.58C3.32 20.49 3.22 20.41 3.11 20.33C3 20.26 2.88 20.2 2.76 20.15C2.64 20.1 2.51 20.06 2.39 20.03C2.26 20.01 2.13 20 2 20C1.86 20 1.73 20.01 1.6 20.03C1.48 20.06 1.35 20.1 1.23 20.15C1.11 20.2 0.99 20.26 0.88 20.33C0.77 20.41 0.67 20.49 0.58 20.58C0.49 20.67 0.41 20.77 0.33 20.88C0.26 20.99 0.2 21.11 0.15 21.23C0.1 21.35 0.06 21.48 0.03 21.6C0.01 21.73 0 21.86 0 22C0 22.13 0.01 22.26 0.03 22.39C0.06 22.51 0.1 22.64 0.15 22.76C0.2 22.88 0.26 23 0.33 23.11C0.41 23.22 0.49 23.32 0.58 23.41C0.67 23.5 0.77 23.59 0.88 23.66C0.99 23.73 1.11 23.79 1.23 23.84C1.35 23.89 1.48 23.93 1.6 23.96C1.73 23.98 1.86 24 2 24C2.13 24 2.26 23.98 2.39 23.96C2.51 23.93 2.64 23.89 2.76 23.84C2.88 23.79 3 23.73 3.11 23.66C3.22 23.59 3.32 23.5 3.41 23.41C3.5 23.32 3.58 23.22 3.66 23.11C3.73 23 3.79 22.88 3.84 22.76C3.89 22.64 3.93 22.51 3.96 22.39C3.98 22.26 4 22.13 4 22Z" fill="#F9A01E" fill-opacity="1.000000" fill-rule="nonzero"/>
	<path d="M31 36C31 35.93 30.99 35.86 30.98 35.8C30.96 35.74 30.94 35.67 30.92 35.61C30.89 35.55 30.86 35.49 30.83 35.44C30.79 35.38 30.75 35.33 30.7 35.29C30.66 35.24 30.61 35.2 30.55 35.16C30.5 35.13 30.44 35.1 30.38 35.07C30.32 35.05 30.26 35.03 30.19 35.01C30.13 35 30.06 35 30 35C29.93 35 29.87 35 29.8 35.01C29.74 35.03 29.67 35.05 29.61 35.07C29.55 35.1 29.5 35.13 29.44 35.16C29.39 35.2 29.34 35.24 29.29 35.29C29.24 35.33 29.2 35.38 29.17 35.44C29.13 35.49 29.1 35.55 29.07 35.61C29.05 35.67 29.03 35.74 29.02 35.8C29 35.86 29 35.93 29 36C29 36.06 29 36.13 29.02 36.19C29.03 36.25 29.05 36.32 29.07 36.38C29.1 36.44 29.13 36.5 29.17 36.55C29.2 36.61 29.24 36.66 29.29 36.7C29.34 36.75 29.39 36.79 29.44 36.83C29.5 36.86 29.55 36.89 29.61 36.92C29.67 36.94 29.74 36.96 29.8 36.98C29.87 36.99 29.93 37 30 37C30.06 37 30.13 36.99 30.19 36.98C30.26 36.96 30.32 36.94 30.38 36.92C30.44 36.89 30.5 36.86 30.55 36.83C30.61 36.79 30.66 36.75 30.7 36.7C30.75 36.66 30.79 36.61 30.83 36.55C30.86 36.5 30.89 36.44 30.92 36.38C30.94 36.32 30.96 36.25 30.98 36.19C30.99 36.13 31 36.06 31 36Z" fill="#F9A01E" fill-opacity="1.000000" fill-rule="nonzero"/>
	<path d="M39 13C39 12.82 38.99 12.64 38.98 12.46C38.97 12.28 38.96 12.1 38.94 11.92C38.92 11.74 38.9 11.56 38.88 11.38C38.85 11.2 38.82 11.03 38.78 10.85C38.75 10.67 38.71 10.5 38.67 10.32C38.62 10.15 38.57 9.97 38.52 9.8C38.47 9.63 38.41 9.46 38.35 9.29C38.29 9.12 38.23 8.95 38.16 8.79C38.09 8.62 38.02 8.45 37.94 8.29C37.86 8.13 37.78 7.97 37.7 7.81C37.61 7.65 37.52 7.49 37.43 7.34C37.34 7.19 37.24 7.03 37.14 6.88C37.04 6.73 36.94 6.59 36.83 6.44C36.72 6.3 36.61 6.16 36.5 6.02C36.38 5.88 36.27 5.74 36.15 5.61C36.02 5.47 35.9 5.34 35.77 5.22C35.65 5.09 35.52 4.97 35.38 4.84C35.25 4.72 35.11 4.61 34.97 4.49C34.83 4.38 34.69 4.27 34.55 4.16C34.4 4.05 34.26 3.95 34.11 3.85C33.96 3.75 33.8 3.65 33.65 3.56C33.5 3.47 33.34 3.38 33.18 3.29C33.02 3.21 32.86 3.13 32.7 3.05C32.54 2.97 32.37 2.9 32.2 2.83C32.04 2.76 31.87 2.7 31.7 2.64C31.53 2.58 31.36 2.52 31.19 2.47C31.02 2.42 30.84 2.37 30.67 2.32C30.49 2.28 30.32 2.24 30.14 2.21C29.96 2.17 29.79 2.14 29.61 2.11C29.43 2.09 29.25 2.07 29.07 2.05C28.89 2.03 28.71 2.02 28.53 2.01C28.35 2 28.18 2 28 2C27.82 2 27.64 2 27.46 2.01C27.28 2.02 27.1 2.03 26.92 2.05C26.74 2.07 26.56 2.09 26.38 2.11C26.2 2.14 26.03 2.17 25.85 2.21C25.67 2.24 25.5 2.28 25.32 2.32C25.15 2.37 24.97 2.42 24.8 2.47C24.63 2.52 24.46 2.58 24.29 2.64C24.12 2.7 23.95 2.76 23.79 2.83C23.62 2.9 23.45 2.97 23.29 3.05C23.13 3.13 22.97 3.21 22.81 3.29C22.65 3.38 22.49 3.47 22.34 3.56C22.19 3.65 22.03 3.75 21.88 3.85C21.73 3.95 21.59 4.05 21.44 4.16C21.3 4.27 21.16 4.38 21.02 4.49C20.88 4.61 20.74 4.72 20.61 4.84C20.47 4.97 20.34 5.09 20.22 5.22C20.09 5.34 19.97 5.47 19.84 5.61C19.72 5.74 19.61 5.88 19.49 6.02C19.38 6.16 19.27 6.3 19.16 6.44C19.05 6.59 18.95 6.73 18.85 6.88C18.75 7.03 18.65 7.19 18.56 7.34C18.47 7.49 18.38 7.65 18.29 7.81C18.21 7.97 18.13 8.13 18.05 8.29C17.97 8.45 17.9 8.62 17.83 8.79C17.76 8.95 17.7 9.12 17.64 9.29C17.58 9.46 17.52 9.63 17.47 9.8C17.42 9.97 17.37 10.15 17.32 10.32C17.28 10.5 17.24 10.67 17.21 10.85C17.17 11.03 17.14 11.2 17.11 11.38C17.09 11.56 17.07 11.74 17.05 11.92C17.03 12.1 17.02 12.28 17.01 12.46C17 12.64 17 12.82 17 13C17 13.18 17 13.35 17.01 13.53C17.02 13.71 17.03 13.89 17.05 14.07C17.07 14.25 17.09 14.43 17.11 14.61C17.14 14.79 17.17 14.96 17.21 15.14C17.24 15.32 17.28 15.49 17.32 15.67C17.37 15.84 17.42 16.02 17.47 16.19C17.52 16.36 17.58 16.53 17.64 16.7C17.7 16.87 17.76 17.04 17.83 17.2C17.9 17.37 17.97 17.54 18.05 17.7C18.13 17.86 18.21 18.02 18.29 18.18C18.38 18.34 18.47 18.5 18.56 18.65C18.65 18.8 18.75 18.96 18.85 19.11C18.95 19.26 19.05 19.4 19.16 19.55C19.27 19.69 19.38 19.83 19.49 19.97C19.61 20.11 19.72 20.25 19.84 20.38C19.97 20.52 20.09 20.65 20.22 20.77C20.34 20.9 20.47 21.02 20.61 21.15C20.74 21.27 20.88 21.38 21.02 21.5C21.16 21.61 21.3 21.72 21.44 21.83C21.59 21.94 21.73 22.04 21.88 22.14C22.03 22.24 22.19 22.34 22.34 22.43C22.49 22.52 22.65 22.61 22.81 22.7C22.97 22.78 23.13 22.86 23.29 22.94C23.45 23.02 23.62 23.09 23.79 23.16C23.95 23.23 24.12 23.29 24.29 23.35C24.46 23.41 24.63 23.47 24.8 23.52C24.97 23.57 25.15 23.62 25.32 23.67C25.5 23.71 25.67 23.75 25.85 23.78C26.03 23.82 26.2 23.85 26.38 23.88C26.56 23.9 26.74 23.92 26.92 23.94C27.1 23.96 27.28 23.97 27.46 23.98C27.64 23.99 27.82 24 28 24C28.18 24 28.35 23.99 28.53 23.98C28.71 23.97 28.89 23.96 29.07 23.94C29.25 23.92 29.43 23.9 29.61 23.88C29.79 23.85 29.96 23.82 30.14 23.78C30.32 23.75 30.49 23.71 30.67 23.67C30.84 23.62 31.02 23.57 31.19 23.52C31.36 23.47 31.53 23.41 31.7 23.35C31.87 23.29 32.04 23.23 32.2 23.16C32.37 23.09 32.54 23.02 32.7 22.94C32.86 22.86 33.02 22.78 33.18 22.7C33.34 22.61 33.5 22.52 33.65 22.43C33.8 22.34 33.96 22.24 34.11 22.14C34.26 22.04 34.4 21.94 34.55 21.83C34.69 21.72 34.83 21.61 34.97 21.5C35.11 21.38 35.25 21.27 35.38 21.15C35.52 21.02 35.65 20.9 35.77 20.77C35.9 20.65 36.02 20.52 36.15 20.38C36.27 20.25 36.38 20.11 36.5 19.97C36.61 19.83 36.72 19.69 36.83 19.55C36.94 19.4 37.04 19.26 37.14 19.11C37.24 18.96 37.34 18.8 37.43 18.65C37.52 18.5 37.61 18.34 37.7 18.18C37.78 18.02 37.86 17.86 37.94 17.7C38.02 17.54 38.09 17.37 38.16 17.2C38.23 17.04 38.29 16.87 38.35 16.7C38.41 16.53 38.47 16.36 38.52 16.19C38.57 16.02 38.62 15.84 38.67 15.67C38.71 15.49 38.75 15.32 38.78 15.14C38.82 14.96 38.85 14.79 38.88 14.61C38.9 14.43 38.92 14.25 38.94 14.07C38.96 13.89 38.97 13.71 38.98 13.53C38.99 13.35 39 13.18 39 13Z" fill="#F9A01E" fill-opacity="1.000000" fill-rule="nonzero"/>
	<path d="M4 29C4 27.91 4.1 26.83 4.32 25.77C4.53 24.74 4.84 23.74 5.25 22.77C5.66 21.81 6.15 20.91 6.73 20.05C7.3 19.2 7.95 18.41 8.68 17.68C9.41 16.95 10.2 16.3 11.05 15.73C11.91 15.15 12.81 14.66 13.77 14.25C14.74 13.84 15.74 13.53 16.77 13.32C17.83 13.1 18.91 13 20 13C21.09 13 22.16 13.1 23.22 13.32C24.25 13.53 25.25 13.84 26.22 14.25C27.18 14.66 28.08 15.15 28.94 15.73C29.79 16.3 30.58 16.95 31.31 17.68C32.04 18.41 32.69 19.2 33.26 20.05C33.84 20.91 34.33 21.81 34.74 22.77C35.15 23.74 35.46 24.74 35.67 25.77C35.89 26.83 36 27.91 36 29L34 29C34 27.1 33.63 25.28 32.9 23.55C32.54 22.71 32.11 21.92 31.6 21.17C31.1 20.42 30.53 19.73 29.89 19.1C29.26 18.46 28.57 17.89 27.82 17.39C27.07 16.88 26.28 16.45 25.44 16.09C23.71 15.36 21.89 15 20 15C18.1 15 16.28 15.36 14.55 16.09C13.71 16.45 12.92 16.88 12.17 17.39C11.42 17.89 10.73 18.46 10.1 19.1C9.46 19.73 8.89 20.42 8.39 21.17C7.88 21.92 7.45 22.71 7.09 23.55C6.36 25.28 6 27.1 6 29L4 29Z" fill="#191919" fill-opacity="1.000000" fill-rule="evenodd"/>
	<path d="M16 13.92C16 13.34 16.09 12.78 16.29 12.24C16.49 11.72 16.76 11.25 17.12 10.84C17.49 10.42 17.91 10.1 18.39 9.86C18.9 9.62 19.44 9.5 20 9.5C20.55 9.5 21.09 9.62 21.6 9.86C22.08 10.1 22.5 10.42 22.87 10.84C23.23 11.25 23.5 11.72 23.7 12.24C23.9 12.78 24 13.34 24 13.92L22 13.92C22 13.58 21.94 13.25 21.82 12.94C21.71 12.64 21.56 12.38 21.36 12.16C21.18 11.94 20.96 11.78 20.73 11.66C20.49 11.55 20.25 11.5 20 11.5C19.74 11.5 19.5 11.55 19.26 11.66C19.03 11.78 18.81 11.94 18.63 12.16C18.43 12.38 18.28 12.64 18.17 12.94C18.05 13.25 18 13.58 18 13.92L16 13.92Z" fill="#191919" fill-opacity="1.000000" fill-rule="evenodd"/>
	<rect x="1.000000" y="29.000000" rx="1.000000" width="38.000000" height="2.000000" fill="#191919" fill-opacity="1.000000"/>
	<rect x="1.000000" y="32.000000" rx="1.000000" width="38.000000" height="2.000000" fill="#191919" fill-opacity="1.000000"/>
</svg>
