<svg width="24.000000" height="24.000000" viewBox="0 0 24 24" fill="none" xmlns="http://www.w3.org/2000/svg" xmlns:xlink="http://www.w3.org/1999/xlink">
	<desc>
			Created with Pixso.
	</desc>
	<defs>
		<linearGradient x1="12.000000" y1="0.000000" x2="12.000000" y2="24.000000" id="paint_linear_1_215_0" gradientUnits="userSpaceOnUse">
			<stop stop-color="#85F19F"/>
			<stop offset="1.000000" stop-color="#29CFAA"/>
		</linearGradient>
	</defs>
	<circle cx="12.000000" cy="12.000000" r="12.000000" fill="url(#paint_linear_1_215_0)" fill-opacity="1.000000"/>
	<path d="M6.27 6.5C6.48 6.29 6.8 6.28 7.02 6.45L7.07 6.5L17 16.21C17.36 16.58 17.36 17.18 17 17.54C16.63 17.91 16.03 17.91 15.66 17.54L10.28 11.98L9.64 12.62C9.42 12.84 9.06 12.84 8.84 12.62L6.54 10.24C5.74 9.43 5.2 7.58 6.01 6.77L6.11 6.87L6.01 6.77L6.27 6.5Z" fill="#FFFFFF" fill-opacity="0.600000" fill-rule="evenodd"/>
	<path d="M7.02 6.45L7.07 6.5L17 16.21C17.36 16.58 17.36 17.18 17 17.54C16.63 17.91 16.03 17.91 15.66 17.54L10.28 11.98L9.64 12.62C9.42 12.84 9.06 12.84 8.84 12.62L6.54 10.24C5.74 9.43 5.2 7.58 6.01 6.77L6.27 6.5C6.48 6.29 6.8 6.28 7.02 6.45ZM6.01 6.77L6.11 6.87" stroke="#000000" stroke-opacity="0" stroke-width="1.000000"/>
	<path d="M18.31 6.2C19.2 7.08 18.81 9.06 17.41 10.46C16.29 11.58 14.87 11.99 13.89 11.66L8.22 17.67C7.85 18.04 7.25 18.04 6.89 17.67C6.52 17.3 6.52 16.7 6.89 16.33L12.87 10.66C12.5 9.67 12.89 8.21 14.02 7.08C15.42 5.68 17.43 5.31 18.31 6.2Z" fill="#FFFFFF" fill-opacity="1.000000" fill-rule="evenodd"/>
	<path d="M17.41 10.46C16.29 11.58 14.87 11.99 13.89 11.66L8.22 17.67C7.85 18.04 7.25 18.04 6.89 17.67C6.52 17.3 6.52 16.7 6.89 16.33L12.87 10.66C12.5 9.67 12.89 8.21 14.02 7.08C15.42 5.68 17.43 5.31 18.31 6.2C19.2 7.08 18.81 9.06 17.41 10.46Z" stroke="#000000" stroke-opacity="0" stroke-width="1.000000"/>
</svg>
