<svg width="14.000000" height="14.000000" viewBox="0 0 14 14" fill="none" xmlns="http://www.w3.org/2000/svg" xmlns:xlink="http://www.w3.org/1999/xlink">
	<desc>
			Created with Pixso.
	</desc>
	<defs>
		<clipPath id="clip1_103">
			<rect width="13.999998" height="14.000000" fill="white" fill-opacity="0"/>
		</clipPath>
	</defs>
	<g clip-path="url(#clip1_103)">
		<path d="M12.58 12.7L11.18 12.7L11.18 12.95C11.18 13.36 10.87 13.69 10.48 13.69C10.09 13.68 9.78 13.35 9.78 12.94L9.78 12.69L4.18 12.68L4.18 12.93C4.18 13.34 3.87 13.67 3.48 13.67C3.09 13.67 2.78 13.33 2.78 12.92L2.78 12.68L1.38 12.67C0.87 12.67 -0.02 11.73 -0.02 11.19L0 5.74C0 5.2 0.42 4.75 0.93 4.75L1.87 4.76C2.38 4.76 2.8 5.2 2.8 5.75L2.79 9.71L11.19 9.73L11.2 5.77C11.2 5.22 11.62 4.78 12.13 4.78L13.07 4.78C13.58 4.78 14 5.23 14 5.78L13.98 11.22C13.99 11.77 13.1 12.7 12.58 12.7ZM11.67 3.79C10.9 3.79 10.27 4.45 10.27 5.27L10.26 8.74L3.72 8.72L3.73 5.26C3.73 4.44 3.11 3.77 2.34 3.77C2.17 3.77 2.02 3.71 1.87 3.77L1.87 1.79C1.88 0.97 2.5 0.3 3.28 0.3L10.75 0.32C11.52 0.32 12.15 0.99 12.14 1.81L12.14 3.79C11.99 3.73 11.84 3.79 11.67 3.79Z" fill="#ED6F21" fill-opacity="1.000000" fill-rule="nonzero"/>
	</g>
</svg>
