<svg width="16.000000" height="16.000000" viewBox="0 0 16 16" fill="none" xmlns="http://www.w3.org/2000/svg" xmlns:xlink="http://www.w3.org/1999/xlink">
	<desc>
			Created with Pixso.
	</desc>
	<defs>
		<linearGradient x1="7.989943" y1="4.812744" x2="7.989943" y2="11.081766" id="paint_linear_1_175_0" gradientUnits="userSpaceOnUse">
			<stop stop-color="#FFB58F"/>
			<stop offset="1.000000" stop-color="#E84026"/>
		</linearGradient>
		<linearGradient x1="7.999988" y1="2.080078" x2="7.999988" y2="13.814404" id="paint_linear_1_176_0" gradientUnits="userSpaceOnUse">
			<stop stop-color="#FFB58F"/>
			<stop offset="1.000000" stop-color="#E84026"/>
		</linearGradient>
	</defs>
	<g opacity="0.000000">
		<rect width="16.000000" height="16.000000" fill="#000000" fill-opacity="1.000000"/>
	</g>
	<path d="M4.63 5.92L5.74 5.92L5.74 4.81L4.63 4.81L4.63 5.92ZM4.63 8.5L5.74 8.5L5.74 7.38L4.63 7.38L4.63 8.5ZM4.63 11.08L5.74 11.08L5.74 9.96L4.63 9.96L4.63 11.08ZM10.23 5.92L11.34 5.92L11.34 4.81L10.23 4.81L10.23 5.92ZM10.23 8.5L11.34 8.5L11.34 7.38L10.23 7.38L10.23 8.5ZM10.23 11.08L11.34 11.08L11.34 9.96L10.23 9.96L10.23 11.08Z" fill="url(#paint_linear_1_175_0)" fill-opacity="1.000000" fill-rule="nonzero"/>
	<path d="M13.02 13.81C13.41 13.81 13.77 13.71 14.1 13.51C14.43 13.31 14.7 13.05 14.9 12.72C15.1 12.38 15.2 12.02 15.2 11.63L15.2 9.68C15.2 9.59 15.17 9.51 15.13 9.44C15.09 9.36 15.03 9.3 14.94 9.24C14.7 9.12 14.52 8.94 14.38 8.7C14.25 8.46 14.18 8.21 14.18 7.94C14.18 7.67 14.25 7.42 14.38 7.19C14.52 6.95 14.7 6.77 14.94 6.64C15.02 6.6 15.08 6.54 15.12 6.46C15.17 6.38 15.2 6.29 15.2 6.21L15.2 4.26C15.2 3.87 15.1 3.5 14.9 3.17C14.7 2.84 14.43 2.57 14.1 2.37C13.77 2.17 13.41 2.08 13.02 2.08L2.98 2.08C2.58 2.08 2.22 2.17 1.89 2.37C1.56 2.57 1.29 2.84 1.09 3.17C0.89 3.5 0.79 3.87 0.79 4.26L0.79 6.21C0.79 6.29 0.82 6.38 0.87 6.46C0.91 6.54 0.97 6.6 1.05 6.64C1.28 6.77 1.46 6.95 1.6 7.19C1.74 7.42 1.81 7.67 1.81 7.94C1.81 8.21 1.74 8.46 1.6 8.7C1.46 8.94 1.28 9.12 1.05 9.24C0.96 9.3 0.9 9.36 0.86 9.44C0.82 9.51 0.79 9.59 0.79 9.68L0.79 11.63C0.79 12.02 0.89 12.38 1.09 12.72C1.29 13.05 1.56 13.31 1.89 13.51C2.22 13.71 2.58 13.81 2.98 13.81L13.02 13.81ZM1.81 9.95C2.12 9.71 2.36 9.41 2.54 9.05C2.71 8.7 2.8 8.33 2.8 7.94C2.8 7.54 2.71 7.17 2.54 6.82C2.36 6.46 2.12 6.17 1.81 5.93L1.81 4.26C1.81 3.93 1.92 3.65 2.14 3.43C2.37 3.2 2.65 3.09 2.98 3.09L13.02 3.09C13.35 3.09 13.62 3.2 13.85 3.43C14.07 3.65 14.18 3.93 14.18 4.26L14.18 5.93C13.87 6.17 13.63 6.46 13.45 6.82C13.28 7.17 13.19 7.54 13.19 7.94C13.19 8.34 13.28 8.71 13.45 9.07C13.63 9.42 13.87 9.71 14.18 9.95L14.18 11.63C14.18 11.95 14.07 12.22 13.84 12.45C13.61 12.68 13.34 12.8 13.02 12.8L2.98 12.8C2.65 12.8 2.37 12.68 2.14 12.45C1.92 12.22 1.81 11.95 1.81 11.63L1.81 9.95Z" fill="url(#paint_linear_1_176_0)" fill-opacity="1.000000" fill-rule="nonzero"/>
</svg>
