<svg width="16.000000" height="16.000000" viewBox="0 0 16 16" fill="none" xmlns="http://www.w3.org/2000/svg" xmlns:xlink="http://www.w3.org/1999/xlink">
	<desc>
		Created with Pixso.
	</desc>
	<defs/>
	<rect id="矩形 81" width="16.000000" height="16.000000" fill="#C4C4C4" fill-opacity="0"/>
	<path id="合并" d="M11.1804 3.25517C11.2722 3.31682 11.3623 3.38112 11.4504 3.44809C11.7378 3.66624 12.1348 3.61192 12.353 3.32463C12.5713 3.03735 12.5168 2.64021 12.2295 2.42204C12.1257 2.34314 12.0198 2.26724 11.9116 2.19435C11.8496 2.15237 11.7866 2.1114 11.7231 2.07143C11.4287 1.8862 11.124 1.72452 10.8091 1.5864L10.8091 1.58635C10.5369 1.46704 10.2571 1.36531 9.96948 1.28114C9.71851 1.20763 9.46484 1.14853 9.2085 1.10385L9.2085 1.10384C8.81152 1.03461 8.40869 1 7.99976 1C7.479 1 6.97046 1.05524 6.47437 1.1657C6.06616 1.25656 5.66626 1.38478 5.2749 1.55035C4.87964 1.71756 4.50562 1.91722 4.15308 2.14935L4.15308 2.14935C3.75854 2.40903 3.39087 2.70934 3.05005 3.05025C2.70898 3.39117 2.40869 3.75883 2.14917 4.15324C1.91699 4.50583 1.71729 4.87976 1.55005 5.27509C1.38452 5.66656 1.25635 6.06636 1.16553 6.47449C1.05493 6.97069 0.999756 7.4792 0.999756 8C0.999756 8.52081 1.05493 9.02933 1.16553 9.52554L1.16553 9.52563L1.16553 9.5257C1.25635 9.93375 1.38452 10.3335 1.55005 10.7249C1.71729 11.1202 1.91699 11.4942 2.14917 11.8468C2.40869 12.2412 2.70898 12.6088 3.05005 12.9498C3.39087 13.2907 3.75854 13.591 4.15308 13.8507L4.15308 13.8507C4.50562 14.0828 4.87964 14.2824 5.2749 14.4496C5.66626 14.6152 6.06616 14.7435 6.47437 14.8343L6.47437 14.8343L6.47437 14.8343C6.97046 14.9448 7.479 15 7.99976 15C8.52051 15 9.02905 14.9448 9.52515 14.8343L9.52515 14.8343C9.93335 14.7434 10.3333 14.6152 10.7246 14.4496C11.1199 14.2824 11.4939 14.0828 11.8464 13.8506C12.241 13.591 12.6086 13.2907 12.9495 12.9498C13.2905 12.6088 13.5908 12.2411 13.8503 11.8467C14.0825 11.4942 14.2822 11.1202 14.4495 10.7249C14.615 10.3334 14.7432 9.93362 14.834 9.5255C14.9446 9.0293 14.9998 8.5208 14.9998 8C14.9998 7.54832 14.9578 7.10475 14.8738 6.66927C14.8127 6.35242 14.7295 6.03987 14.6238 5.7316C14.512 5.40466 14.3774 5.08942 14.2202 4.78584C14.0374 4.4323 13.8237 4.09459 13.5796 3.77272C13.3616 3.48534 12.9646 3.43085 12.677 3.64886C12.3896 3.8669 12.3352 4.26402 12.5532 4.55141C12.7556 4.81821 12.9321 5.09827 13.083 5.3916C13.208 5.63492 13.3154 5.88734 13.405 6.14891C13.4873 6.38962 13.5532 6.63364 13.6023 6.88095C13.675 7.24673 13.7114 7.61975 13.7114 8C13.7114 8.43373 13.6646 8.85684 13.5708 9.2693L13.5708 9.26932C13.4971 9.59381 13.3945 9.91171 13.2629 10.223C13.1282 10.5412 12.9678 10.8424 12.7817 11.1267L12.7817 11.1268C12.5679 11.453 12.3203 11.757 12.0386 12.0388C11.7568 12.3204 11.4529 12.5681 11.1267 12.7818L11.1265 12.7819C10.8423 12.9681 10.541 13.1285 10.2229 13.2631C9.91138 13.3947 9.59351 13.4974 9.26904 13.5711C8.85669 13.6648 8.43359 13.7117 7.99976 13.7117C7.56592 13.7117 7.14282 13.6648 6.73047 13.5711C6.40601 13.4974 6.08813 13.3947 5.77661 13.2631C5.4585 13.1285 5.15723 12.9681 4.87305 12.7819C4.54663 12.5682 4.24268 12.3205 3.96094 12.0388C3.6792 11.7571 3.43164 11.4531 3.21802 11.1268C3.03174 10.8425 2.87134 10.5412 2.73657 10.223C2.60498 9.91173 2.50244 9.59383 2.42871 9.26935C2.33496 8.85687 2.28809 8.43376 2.28809 8C2.28809 7.56625 2.33496 7.14313 2.42871 6.73067C2.50244 6.40617 2.60498 6.08827 2.73657 5.77696C2.87134 5.45879 3.03174 5.15752 3.21802 4.87318C3.43164 4.54694 3.6792 4.24295 3.96094 3.96124C4.24268 3.67958 4.54663 3.4319 4.8728 3.21823L4.87305 3.21814C5.15723 3.03191 5.4585 2.87151 5.77661 2.73692C6.08813 2.60526 6.40601 2.50258 6.73047 2.42888L6.73047 2.42888L6.73047 2.42886C7.14282 2.33519 7.56592 2.28835 7.99976 2.28835C8.34717 2.28835 8.68921 2.31886 9.02539 2.3799C9.22144 2.41544 9.41553 2.46135 9.60767 2.51759C9.83765 2.58496 10.0618 2.66615 10.2798 2.76118C10.541 2.87492 10.7932 3.00848 11.0371 3.16185C11.0852 3.19225 11.1331 3.22336 11.1804 3.25517ZM8.64404 7.63304L8.64404 3.98253C8.64404 3.6218 8.3606 3.33836 7.99976 3.33836C7.63892 3.33836 7.35547 3.6218 7.35547 3.98253L7.35547 7.88893C7.35547 7.97112 7.37085 8.05038 7.40112 8.12675C7.4314 8.20312 7.47485 8.27121 7.53125 8.33098L9.40405 10.3161C9.65161 10.5785 10.0522 10.5902 10.3147 10.3427C10.5769 10.0951 10.5886 9.69444 10.3411 9.43205L8.64404 7.63304Z" clip-rule="evenodd" fill="#000000" fill-opacity="1.000000" fill-rule="evenodd"/>
</svg>
