<svg width="16.000000" height="16.000000" viewBox="0 0 16 16" fill="none" xmlns="http://www.w3.org/2000/svg" xmlns:xlink="http://www.w3.org/1999/xlink">
	<desc>
		Created with Pixso.
	</desc>
	<defs>
		<clipPath id="clip9_7017">
			<rect id="ic_public_position" width="16.000000" height="16.000000" fill="white" fill-opacity="0"/>
		</clipPath>
	</defs>
	<g clip-path="url(#clip9_7017)">
		<path id="矢量 2" d="M8.18 1C8.68 1 9.18 1.05 9.66 1.17C9.97 1.24 10.27 1.34 10.57 1.46C10.98 1.63 11.35 1.83 11.7 2.07C12 2.27 12.28 2.5 12.54 2.75C12.85 3.05 13.12 3.38 13.35 3.73C13.55 4.03 13.72 4.35 13.87 4.69C14 4.99 14.1 5.29 14.18 5.6C14.3 6.08 14.36 6.58 14.36 7.08C14.36 8.11 14.04 9.21 13.41 10.37Q12.69 11.71 11.44 13.13C10.85 13.79 10.2 14.44 9.49 15.06C9.14 15.38 8.84 15.63 8.6 15.81C8.47 15.91 8.33 15.96 8.18 15.96C8.02 15.96 7.88 15.91 7.76 15.81C7.51 15.63 7.21 15.38 6.86 15.06C6.15 14.44 5.5 13.79 4.91 13.13C4.08 12.18 3.42 11.27 2.94 10.37C2.31 9.21 2 8.11 2 7.08C2 6.58 2.05 6.08 2.17 5.6C2.25 5.29 2.35 4.99 2.48 4.69Q2.7 4.19 2.99 3.74Q3 3.74 3 3.73C3.23 3.38 3.5 3.06 3.81 2.75C4.07 2.5 4.35 2.27 4.64 2.07C5 1.83 5.37 1.63 5.78 1.46C6.08 1.34 6.38 1.24 6.69 1.17C7.17 1.05 7.67 1 8.18 1ZM8.18 2.38C7.76 2.38 7.35 2.43 6.96 2.53C6.74 2.59 6.52 2.66 6.3 2.75C5.98 2.88 5.68 3.04 5.41 3.23C5.18 3.38 4.98 3.56 4.78 3.75C4.54 3.98 4.32 4.24 4.14 4.52C3.99 4.74 3.87 4.98 3.76 5.24C3.67 5.45 3.59 5.66 3.54 5.88C3.43 6.27 3.38 6.67 3.38 7.08C3.38 7.88 3.64 8.76 4.16 9.71C4.59 10.51 5.19 11.34 5.95 12.21C6.51 12.83 7.11 13.44 7.78 14.02C7.92 14.15 8.05 14.27 8.18 14.37C8.3 14.27 8.43 14.15 8.57 14.02Q9.57 13.14 10.4 12.21C11.16 11.34 11.76 10.51 12.19 9.71C12.71 8.76 12.97 7.88 12.97 7.08C12.97 6.67 12.92 6.27 12.81 5.88C12.76 5.66 12.68 5.45 12.59 5.24C12.48 4.98 12.36 4.74 12.21 4.52C12.03 4.24 11.81 3.98 11.57 3.75C11.37 3.55 11.16 3.38 10.94 3.23C10.66 3.04 10.37 2.88 10.05 2.75C9.83 2.66 9.61 2.59 9.39 2.53C9 2.43 8.59 2.38 8.18 2.38ZM8.18 4.75C6.84 4.75 5.75 5.84 5.75 7.18C5.75 8.52 6.84 9.6 8.18 9.6C9.52 9.6 10.6 8.52 10.6 7.18C10.6 5.84 9.52 4.75 8.18 4.75ZM8.18 6.14C7.6 6.14 7.14 6.6 7.14 7.18C7.14 7.75 7.6 8.21 8.18 8.21C8.75 8.21 9.22 7.75 9.22 7.18C9.22 6.6 8.75 6.14 8.18 6.14Z" fill="#000000" fill-opacity="0.600000" fill-rule="evenodd"/>
	</g>
</svg>
