<svg width="24.000000" height="24.000000" viewBox="0 0 24 24" fill="none" xmlns="http://www.w3.org/2000/svg" xmlns:xlink="http://www.w3.org/1999/xlink">
	<desc>
			Created with Pixso.
	</desc>
	<defs>
		<clipPath id="clip44_2465">
			<rect width="16.000000" height="16.000000" transform="translate(4.000000 4.000000)" fill="white" fill-opacity="0"/>
		</clipPath>
		<linearGradient x1="12.000000" y1="0.000000" x2="12.000000" y2="24.000000" id="paint_linear_44_2464_0" gradientUnits="userSpaceOnUse">
			<stop stop-color="#A5D1FF"/>
			<stop offset="1.000000" stop-color="#007DFF"/>
		</linearGradient>
	</defs>
	<circle cx="12.000000" cy="12.000000" r="12.000000" fill="url(#paint_linear_44_2464_0)" fill-opacity="1.000000"/>
	<g clip-path="url(#clip44_2465)">
		<g opacity="0.000000">
			<rect x="4.000000" y="4.000000" width="16.000000" height="16.000000" fill="#FFFFFF" fill-opacity="1.000000"/>
		</g>
		<path d="M17.8 9.9C17.72 8.93 17.41 8.04 16.88 7.24C16.35 6.44 15.67 5.81 14.82 5.35C13.97 4.88 13.06 4.65 12.08 4.65C11.04 4.65 10.09 4.88 9.22 5.35C8.35 5.81 7.65 6.44 7.11 7.24C6.57 8.04 6.26 8.93 6.17 9.9C5.78 10.01 5.45 10.22 5.2 10.55C4.94 10.87 4.81 11.24 4.81 11.66L4.81 13.32C4.81 13.66 4.89 13.96 5.06 14.24C5.23 14.53 5.45 14.75 5.73 14.92C6.01 15.08 6.32 15.16 6.65 15.16C6.98 15.16 7.29 15.08 7.56 14.92C7.84 14.75 8.06 14.53 8.23 14.24C8.39 13.96 8.48 13.66 8.48 13.32L8.48 11.66C8.48 11.25 8.36 10.89 8.12 10.57C7.88 10.25 7.56 10.03 7.18 9.91C7.25 9.12 7.51 8.4 7.96 7.75C8.41 7.11 9 6.59 9.72 6.22C10.44 5.85 11.22 5.66 12.08 5.66C12.88 5.66 13.62 5.85 14.32 6.22C15.01 6.59 15.58 7.11 16.02 7.75C16.46 8.4 16.72 9.12 16.81 9.91C16.43 10.03 16.11 10.25 15.87 10.57C15.62 10.89 15.5 11.25 15.5 11.66L15.5 13.32C15.5 13.72 15.61 14.07 15.84 14.39C16.06 14.7 16.35 14.92 16.71 15.04C16.58 15.86 16.33 16.44 15.98 16.79C15.63 17.15 15.21 17.35 14.73 17.4C14.62 17.14 14.45 16.92 14.21 16.75C13.97 16.58 13.71 16.49 13.42 16.49C13.16 16.49 12.93 16.55 12.71 16.68C12.49 16.81 12.32 16.98 12.19 17.2C12.06 17.42 12 17.66 12 17.92C12 18.17 12.06 18.41 12.19 18.63C12.32 18.85 12.49 19.02 12.71 19.15C12.93 19.28 13.16 19.34 13.42 19.34C13.72 19.34 13.99 19.25 14.23 19.08C14.47 18.9 14.64 18.67 14.75 18.4C15.47 18.33 16.1 18.05 16.64 17.55C17.18 17.05 17.54 16.24 17.71 15.13C18.12 15.04 18.47 14.84 18.75 14.5C19.02 14.16 19.16 13.77 19.16 13.32L19.16 11.66C19.16 11.24 19.04 10.87 18.78 10.55C18.52 10.22 18.2 10.01 17.8 9.9ZM7.48 13.32C7.48 13.56 7.4 13.76 7.24 13.92C7.08 14.08 6.88 14.16 6.65 14.16C6.42 14.16 6.22 14.08 6.06 13.92C5.9 13.76 5.82 13.56 5.82 13.32L5.82 11.66C5.82 11.43 5.9 11.23 6.06 11.07C6.22 10.91 6.42 10.83 6.65 10.83C6.88 10.83 7.08 10.91 7.24 11.07C7.4 11.23 7.48 11.43 7.48 11.66L7.48 13.32ZM13.42 18.33C13.3 18.33 13.2 18.29 13.12 18.21C13.04 18.13 13 18.03 13 17.92C13 17.8 13.04 17.7 13.12 17.62C13.2 17.54 13.3 17.5 13.42 17.5C13.54 17.5 13.64 17.54 13.72 17.62C13.8 17.7 13.84 17.8 13.84 17.92C13.84 18.03 13.8 18.13 13.72 18.21C13.64 18.29 13.54 18.33 13.42 18.33ZM18.17 13.32C18.17 13.56 18.09 13.76 17.93 13.92C17.77 14.08 17.57 14.16 17.34 14.16C17.11 14.16 16.91 14.08 16.75 13.92C16.59 13.76 16.51 13.56 16.51 13.32L16.51 11.66C16.51 11.43 16.59 11.23 16.75 11.07C16.91 10.91 17.11 10.83 17.34 10.83C17.57 10.83 17.77 10.91 17.93 11.07C18.09 11.23 18.17 11.43 18.17 11.66L18.17 13.32Z" fill="#FFFFFF" fill-opacity="1.000000" fill-rule="nonzero"/>
	</g>
</svg>
