<svg width="24.000000" height="24.000000" viewBox="0 0 24 24" fill="none" xmlns="http://www.w3.org/2000/svg" xmlns:xlink="http://www.w3.org/1999/xlink">
	<desc>
			Created with Pixso.
	</desc>
	<defs>
		<clipPath id="clip44_702">
			<rect width="16.000000" height="16.000000" transform="translate(4.000000 4.000000)" fill="white" fill-opacity="0"/>
		</clipPath>
		<linearGradient x1="12.000000" y1="0.000000" x2="12.000000" y2="24.000000" id="paint_linear_44_700_0" gradientUnits="userSpaceOnUse">
			<stop stop-color="#A5D1FF"/>
			<stop offset="1.000000" stop-color="#007DFF"/>
		</linearGradient>
	</defs>
	<circle cx="12.000000" cy="12.000000" r="12.000000" fill="url(#paint_linear_44_700_0)" fill-opacity="1.000000"/>
	<g clip-path="url(#clip44_702)">
		<path d="M12 5C14.13 5 15.86 6.73 15.86 8.86C15.86 10.95 14.22 12.65 12.15 12.73L12 12.73C11.38 12.73 10.79 12.83 10.23 13L10.07 13.05C9.95 13.1 9.83 13.14 9.71 13.19C9.68 13.2 9.66 13.21 9.63 13.23L9.71 13.19C9.66 13.21 9.68 13.2 9.63 13.23C9.58 13.25 9.52 13.27 9.47 13.3L9.63 13.23C9.56 13.26 9.44 13.31 9.37 13.35L9.47 13.3C9.42 13.32 9.42 13.32 9.37 13.35C9.31 13.38 9.25 13.41 9.18 13.45L9.37 13.35C9.33 13.37 9.23 13.42 9.18 13.45C9.09 13.5 8.98 13.56 8.89 13.62C8.85 13.64 8.81 13.66 8.78 13.69C8.69 13.74 8.61 13.8 8.53 13.86C8.48 13.9 8.42 13.94 8.37 13.98L8.53 13.86C8.48 13.89 8.42 13.94 8.37 13.98C8.33 14.01 8.28 14.05 8.24 14.08L8.37 13.98C8.32 14.02 8.29 14.04 8.24 14.08C8.19 14.12 8.14 14.16 8.1 14.2L8.24 14.08C8.19 14.12 8.14 14.16 8.1 14.2C8.05 14.24 8 14.29 7.96 14.33L8.1 14.2C8.06 14.24 8 14.29 7.96 14.33C7.86 14.42 7.76 14.52 7.67 14.62C7.6 14.7 7.53 14.78 7.46 14.87C7.42 14.91 7.39 14.95 7.36 14.99L7.46 14.87C7.42 14.91 7.39 14.94 7.36 14.99C7.32 15.04 7.28 15.08 7.25 15.13L7.36 14.99C7.31 15.04 7.23 15.15 7.19 15.21L7.25 15.13C7.21 15.18 7.17 15.24 7.14 15.29L7.19 15.21C7.16 15.26 7.17 15.24 7.14 15.29C7.1 15.34 7.07 15.39 7.03 15.44L7.14 15.29C7.1 15.34 7.02 15.47 6.98 15.52L7.03 15.44C7 15.49 7.01 15.47 6.98 15.52C6.87 15.7 6.77 15.89 6.68 16.08C6.67 16.1 6.65 16.13 6.64 16.15L6.68 16.08C6.65 16.13 6.63 16.19 6.6 16.24L6.64 16.15C6.62 16.2 6.62 16.19 6.6 16.24C6.57 16.31 6.55 16.37 6.52 16.44L6.6 16.24C6.58 16.3 6.54 16.38 6.52 16.44C6.5 16.49 6.48 16.54 6.46 16.59L6.52 16.44C6.49 16.5 6.45 16.61 6.43 16.68L6.46 16.59C6.45 16.63 6.44 16.64 6.43 16.68C6.34 16.93 6.27 17.19 6.22 17.45C6.21 17.49 6.2 17.53 6.19 17.57L6.22 17.45C6.2 17.52 6.2 17.51 6.19 17.57C6.18 17.64 6.17 17.7 6.16 17.76L6.19 17.57C6.18 17.64 6.16 17.79 6.15 17.86L6.16 17.76C6.15 17.82 6.15 17.88 6.14 17.94L6.15 17.86C6.14 17.92 6.14 17.97 6.13 18.03L6.14 17.94C6.13 18.01 6.12 18.09 6.12 18.16L6.13 18.03C6.12 18.16 6.11 18.29 6.1 18.43C6.1 18.49 6.1 18.56 6.1 18.62L6.1 18.43C6.1 18.49 6.1 18.56 6.1 18.62C6.1 18.93 5.85 19.18 5.55 19.18C5.24 19.18 5 18.93 5 18.63C5 18.48 5 18.34 5.01 18.19C5.01 18.15 5.01 18.12 5.02 18.08C5.02 18.05 5.02 18.02 5.02 17.99C5.03 17.95 5.03 17.92 5.03 17.88C5.04 17.85 5.04 17.81 5.05 17.77C5.05 17.74 5.05 17.71 5.06 17.69C5.09 17.48 5.12 17.28 5.17 17.07C5.19 16.98 5.22 16.87 5.24 16.78C5.25 16.73 5.27 16.69 5.28 16.64C5.3 16.59 5.32 16.5 5.34 16.45C5.35 16.43 5.36 16.4 5.37 16.37C5.38 16.34 5.39 16.3 5.4 16.27C5.41 16.24 5.42 16.21 5.43 16.18C5.48 16.06 5.53 15.94 5.58 15.82C5.65 15.66 5.73 15.5 5.81 15.35C5.82 15.32 5.84 15.28 5.86 15.25C5.88 15.22 5.93 15.13 5.95 15.1C5.97 15.07 5.99 15.03 6.01 15C6.04 14.95 6.12 14.83 6.15 14.77C6.21 14.69 6.27 14.6 6.33 14.52C6.39 14.43 6.51 14.28 6.58 14.19C6.61 14.16 6.68 14.07 6.71 14.03C6.75 13.99 6.84 13.89 6.88 13.85C7.02 13.7 7.17 13.55 7.32 13.42C7.36 13.38 7.39 13.35 7.43 13.32C7.47 13.29 7.54 13.22 7.58 13.19C7.6 13.18 7.68 13.12 7.7 13.1C7.74 13.07 7.79 13.03 7.83 13C7.87 12.97 7.94 12.92 7.97 12.9C8.03 12.86 8.14 12.78 8.2 12.74C8.23 12.73 8.26 12.71 8.29 12.69C8.32 12.67 8.34 12.65 8.37 12.64C8.42 12.61 8.51 12.55 8.56 12.53C8.61 12.5 8.69 12.46 8.73 12.43C8.77 12.41 8.86 12.36 8.9 12.35C9.15 12.23 9.46 12.09 9.73 12C8.76 11.3 8.13 10.15 8.13 8.86C8.13 6.73 9.86 5 12 5ZM15.04 12.32C17.38 13.45 19 15.85 19 18.63C19 18.93 18.75 19.18 18.44 19.18C18.14 19.18 17.89 18.93 17.89 18.63C17.89 16.04 16.23 13.85 13.91 13.05C14.32 12.86 14.7 12.62 15.04 12.32ZM12 6.1C10.47 6.1 9.23 7.34 9.23 8.86C9.23 10.39 10.47 11.63 12 11.63C13.52 11.63 14.76 10.39 14.76 8.86C14.76 7.34 13.52 6.1 12 6.1Z" fill="#FFFFFF" fill-opacity="1.000000" fill-rule="nonzero"/>
		<path d="M6.19 17.57C6.18 17.64 6.16 17.79 6.15 17.86C6.14 17.92 6.14 17.97 6.13 18.03C6.12 18.16 6.11 18.29 6.1 18.43C6.1 18.49 6.1 18.56 6.1 18.62C6.1 18.93 5.85 19.18 5.55 19.18C5.24 19.18 5 18.93 5 18.63C5 18.48 5 18.34 5.01 18.19C5.01 18.15 5.01 18.12 5.02 18.08C5.02 18.05 5.02 18.02 5.02 17.99C5.03 17.95 5.03 17.92 5.03 17.88C5.04 17.85 5.04 17.81 5.05 17.77C5.05 17.74 5.05 17.71 5.06 17.69C5.09 17.48 5.12 17.28 5.17 17.07C5.19 16.98 5.22 16.87 5.24 16.78C5.25 16.73 5.27 16.69 5.28 16.64C5.3 16.59 5.32 16.5 5.34 16.45C5.35 16.43 5.36 16.4 5.37 16.37C5.38 16.34 5.39 16.3 5.4 16.27C5.41 16.24 5.42 16.21 5.43 16.18C5.48 16.06 5.53 15.94 5.58 15.82C5.65 15.66 5.73 15.5 5.81 15.35C5.82 15.32 5.84 15.28 5.86 15.25C5.88 15.22 5.93 15.13 5.95 15.1C5.97 15.07 5.99 15.03 6.01 15C6.04 14.95 6.12 14.83 6.15 14.77C6.21 14.69 6.27 14.6 6.33 14.52C6.39 14.43 6.51 14.28 6.58 14.19C6.61 14.16 6.68 14.07 6.71 14.03C6.75 13.99 6.84 13.89 6.88 13.85C7.02 13.7 7.17 13.55 7.32 13.42C7.36 13.38 7.39 13.35 7.43 13.32C7.47 13.29 7.54 13.22 7.58 13.19C7.6 13.18 7.68 13.12 7.7 13.1C7.74 13.07 7.79 13.03 7.83 13C7.87 12.97 7.94 12.92 7.97 12.9C8.03 12.86 8.14 12.78 8.2 12.74C8.23 12.73 8.26 12.71 8.29 12.69C8.32 12.67 8.34 12.65 8.37 12.64C8.42 12.61 8.51 12.55 8.56 12.53C8.61 12.5 8.69 12.46 8.73 12.43C8.77 12.41 8.86 12.36 8.9 12.35C9.15 12.23 9.46 12.09 9.73 12C8.76 11.3 8.13 10.15 8.13 8.86C8.13 6.73 9.86 5 12 5C14.13 5 15.86 6.73 15.86 8.86C15.86 10.95 14.22 12.65 12.15 12.73L12 12.73C11.38 12.73 10.79 12.83 10.23 13L10.07 13.05C9.95 13.1 9.83 13.14 9.71 13.19C9.66 13.21 9.68 13.2 9.63 13.23C9.56 13.26 9.44 13.31 9.37 13.35M9.71 13.19C9.68 13.2 9.66 13.21 9.63 13.23M9.63 13.23L9.71 13.19M9.63 13.23C9.58 13.25 9.52 13.27 9.47 13.3C9.42 13.32 9.42 13.32 9.37 13.35C9.33 13.37 9.23 13.42 9.18 13.45M9.47 13.3L9.63 13.23M9.37 13.35L9.47 13.3M9.37 13.35C9.31 13.38 9.25 13.41 9.18 13.45C9.09 13.5 8.98 13.56 8.89 13.62C8.85 13.64 8.81 13.66 8.78 13.69C8.69 13.74 8.61 13.8 8.53 13.86C8.48 13.9 8.42 13.94 8.37 13.98C8.33 14.01 8.28 14.05 8.24 14.08C8.19 14.12 8.14 14.16 8.1 14.2M9.18 13.45L9.37 13.35M8.37 13.98L8.53 13.86M8.53 13.86C8.48 13.89 8.42 13.94 8.37 13.98M8.24 14.08L8.37 13.98M8.37 13.98C8.32 14.02 8.29 14.04 8.24 14.08M8.1 14.2L8.24 14.08M8.24 14.08C8.19 14.12 8.14 14.16 8.1 14.2C8.06 14.24 8 14.29 7.96 14.33M8.1 14.2C8.05 14.24 8 14.29 7.96 14.33C7.86 14.42 7.76 14.52 7.67 14.62C7.6 14.7 7.53 14.78 7.46 14.87C7.42 14.91 7.39 14.95 7.36 14.99C7.32 15.04 7.28 15.08 7.25 15.13C7.21 15.18 7.17 15.24 7.14 15.29M7.96 14.33L8.1 14.2M7.36 14.99L7.46 14.87M7.46 14.87C7.42 14.91 7.39 14.94 7.36 14.99M7.25 15.13L7.36 14.99M7.36 14.99C7.31 15.04 7.23 15.15 7.19 15.21C7.16 15.26 7.17 15.24 7.14 15.29C7.1 15.34 7.02 15.47 6.98 15.52C6.87 15.7 6.77 15.89 6.68 16.08C6.65 16.13 6.63 16.19 6.6 16.24C6.57 16.31 6.55 16.37 6.52 16.44M7.19 15.21L7.25 15.13M7.14 15.29L7.19 15.21M7.14 15.29C7.1 15.34 7.07 15.39 7.03 15.44C7 15.49 7.01 15.47 6.98 15.52M7.03 15.44L7.14 15.29M6.98 15.52L7.03 15.44M6.68 16.08C6.67 16.1 6.65 16.13 6.64 16.15C6.62 16.2 6.62 16.19 6.6 16.24M6.64 16.15L6.68 16.08M6.6 16.24L6.64 16.15M6.52 16.44L6.6 16.24M6.6 16.24C6.58 16.3 6.54 16.38 6.52 16.44C6.49 16.5 6.45 16.61 6.43 16.68C6.34 16.93 6.27 17.19 6.22 17.45C6.2 17.52 6.2 17.51 6.19 17.57M6.52 16.44C6.5 16.49 6.48 16.54 6.46 16.59C6.45 16.63 6.44 16.64 6.43 16.68M6.46 16.59L6.52 16.44M6.43 16.68L6.46 16.59M6.22 17.45C6.21 17.49 6.2 17.53 6.19 17.57C6.18 17.64 6.17 17.7 6.16 17.76C6.15 17.82 6.15 17.88 6.14 17.94C6.13 18.01 6.12 18.09 6.12 18.16L6.13 18.03M6.19 17.57L6.22 17.45M6.16 17.76L6.19 17.57M6.15 17.86L6.16 17.76M6.14 17.94L6.15 17.86M6.13 18.03L6.14 17.94M6.1 18.43C6.1 18.49 6.1 18.56 6.1 18.62M6.1 18.62L6.1 18.43M19 18.63C19 18.93 18.75 19.18 18.44 19.18C18.14 19.18 17.89 18.93 17.89 18.63C17.89 16.04 16.23 13.85 13.91 13.05C14.32 12.86 14.7 12.62 15.04 12.32C17.38 13.45 19 15.85 19 18.63ZM9.23 8.86C9.23 10.39 10.47 11.63 12 11.63C13.52 11.63 14.76 10.39 14.76 8.86C14.76 7.34 13.52 6.1 12 6.1C10.47 6.1 9.23 7.34 9.23 8.86Z" stroke="#000000" stroke-opacity="0" stroke-width="1.000000"/>
	</g>
</svg>
