<svg width="36.000000" height="36.000000" viewBox="0 0 36 36" fill="none" xmlns="http://www.w3.org/2000/svg" xmlns:xlink="http://www.w3.org/1999/xlink">
	<desc>
			Created with Pixso.
	</desc>
	<defs>
		<clipPath id="clip44_790">
			<rect width="36.000000" height="36.000000" fill="white" fill-opacity="0"/>
		</clipPath>
	</defs>
	<g clip-path="url(#clip44_790)">
		<path d="M29.99 20.25L29.99 8.38L30 8.26C30 8.14 29.97 8.02 29.92 7.9C29.87 7.79 29.8 7.69 29.71 7.6L22.25 0.27C22.16 0.18 22.05 0.11 21.94 0.07C21.82 0.02 21.7 0 21.57 0L9 0C8.36 0 7.76 0.11 7.21 0.33C6.65 0.56 6.15 0.89 5.69 1.34C5.23 1.79 4.89 2.29 4.66 2.83C4.43 3.38 4.32 3.96 4.32 4.6L4.32 24.14C4.32 24.78 4.43 25.37 4.66 25.92C4.89 26.46 5.23 26.95 5.69 27.4C6.15 27.85 6.65 28.19 7.2 28.41C7.76 28.64 8.36 28.75 9 28.75L20.03 28.75C20.01 28.5 20 28.25 20 28C20 27.61 20.02 27.24 20.07 26.87L9 26.87C8.62 26.87 8.27 26.8 7.94 26.67C7.61 26.54 7.31 26.34 7.04 26.07C6.78 25.81 6.57 25.52 6.44 25.2C6.3 24.87 6.23 24.52 6.23 24.14L6.23 4.6C6.23 4.22 6.3 3.88 6.43 3.56C6.57 3.23 6.77 2.94 7.04 2.67C7.31 2.41 7.61 2.21 7.94 2.07C8.27 1.94 8.62 1.88 9 1.88L20.42 1.88L20.42 5.94C20.42 7.07 20.71 7.91 21.29 8.48C21.86 9.04 22.72 9.32 23.87 9.32L28.07 9.32L28.07 20C28.73 20 29.37 20.09 29.99 20.25ZM20.63 31.11C20.9 31.75 21.25 32.35 21.66 32.89C21.53 32.96 21.37 33 21.21 33L8.56 33C7.37 33 6.27 32.79 5.26 32.37C4.25 31.96 3.33 31.35 2.5 30.53C1.67 29.71 1.05 28.81 0.63 27.83C0.23 26.86 0 25.71 0 24.58L0 9.14C0 8.61 0.42 8.2 0.95 8.2C1.49 8.2 1.91 8.61 1.91 9.14L1.91 24.58C1.91 25.49 2.07 26.33 2.4 27.11C2.73 27.87 3.21 28.57 3.86 29.2C4.5 29.84 5.21 30.31 5.99 30.63C6.78 30.95 7.63 31.11 8.56 31.11L20.63 31.11ZM22.34 3.02L26.85 7.44L23.87 7.44C23.74 7.44 23.66 7.43 23.54 7.4C23.45 7.38 23.37 7.36 23.29 7.32C23.2 7.28 23.11 7.24 23.03 7.19C22.95 7.13 22.8 7.14 22.72 7.07C22.64 6.98 22.63 6.82 22.57 6.72C22.53 6.65 22.49 6.59 22.46 6.52C22.42 6.43 22.39 6.35 22.37 6.26C22.35 6.16 22.34 6.05 22.34 5.94L22.34 3.02Z" fill="#191919" fill-opacity="1.000000" fill-rule="evenodd"/>
		<path d="M34 28C34 31.31 31.31 34 28 34C24.68 34 22 31.31 22 28C22 24.68 24.68 22 28 22C31.31 22 34 24.68 34 28Z" fill="#000000" fill-opacity="0" fill-rule="evenodd"/>
		<path d="M28 34C24.68 34 22 31.31 22 28C22 24.68 24.68 22 28 22C31.31 22 34 24.68 34 28C34 31.31 31.31 34 28 34ZM25 27.75L27.16 30L31 26" stroke="#58BC11" stroke-opacity="1.000000" stroke-width="1.500000" stroke-linejoin="round" stroke-linecap="round"/>
	</g>
</svg>
