<svg width="40.000000" height="40.000000" viewBox="0 0 40 40" fill="none" xmlns="http://www.w3.org/2000/svg" xmlns:xlink="http://www.w3.org/1999/xlink">
	<desc>
			Created with Pixso.
	</desc>
	<defs>
		<clipPath id="clip44_783">
			<rect width="36.000000" height="36.000000" transform="translate(2.000000 2.000000)" fill="white" fill-opacity="0"/>
		</clipPath>
	</defs>
	<g clip-path="url(#clip44_783)">
		<path d="M31.9928 22.2502L31.9928 10.3879L32 10.2677C32 10.1429 31.9756 10.0228 31.927 9.90751C31.8783 9.7922 31.8091 9.69044 31.7191 9.60223L24.2515 2.27518C24.1617 2.18709 24.0582 2.11919 23.9409 2.07151C23.8237 2.02384 23.7015 2 23.5746 2L11.0087 2C10.3623 2 9.76331 2.11209 9.21143 2.33627C8.6582 2.56107 8.15234 2.89856 7.69397 3.34875C7.2356 3.79894 6.89185 4.29575 6.66309 4.83918C6.43481 5.38113 6.32068 5.96947 6.32068 6.60416L6.32068 26.1453C6.32068 26.7857 6.43628 27.3789 6.66748 27.9248C6.89636 28.465 7.23828 28.9588 7.69348 29.4065C8.15149 29.8568 8.65698 30.1945 9.20996 30.4195C9.76221 30.6442 10.3617 30.7565 11.0087 30.7565L22.0353 30.7565C22.012 30.5075 22 30.2551 22 30C22 29.6183 22.0267 29.2427 22.0785 28.8753L11.0087 28.8753C10.6263 28.8753 10.2722 28.8089 9.94592 28.6763C9.61877 28.5432 9.31982 28.3435 9.04883 28.0771C8.7804 27.8131 8.57849 27.5218 8.44299 27.2032C8.30518 26.8789 8.23621 26.5262 8.23621 26.1453L8.23621 6.60416C8.23621 6.22922 8.30359 5.88161 8.43823 5.56137C8.57361 5.23965 8.7771 4.94553 9.04834 4.679C9.31982 4.41249 9.61926 4.21274 9.94678 4.07979C10.2729 3.94744 10.6268 3.88126 11.0087 3.88126L22.4296 3.88126L22.4296 7.94791C22.4296 9.0748 22.7166 9.91994 23.2902 10.4834C23.8639 11.0468 24.7244 11.3285 25.8718 11.3285L30.0774 11.3285L30.0774 22.0004C30.738 22.0066 31.3796 22.093 31.9928 22.2502ZM22.6307 33.1187C22.9008 33.7559 23.251 34.3509 23.6687 34.8909C23.5343 34.9607 23.3799 35 23.2147 35L10.5621 35C9.37463 35 8.27466 34.7932 7.26245 34.3796C6.25696 33.9688 5.33789 33.354 4.50525 32.5351C3.67493 31.7186 3.05103 30.8176 2.63342 29.8324C2.62061 29.8021 2.60803 29.7718 2.59558 29.7413C2.19849 28.77 2 27.7175 2 26.5838L2 11.1447C2 10.6179 2.42139 10.204 2.95776 10.204C3.49414 10.204 3.91553 10.6179 3.91553 11.1447L3.91553 26.5838C3.91553 27.4934 4.07996 28.3357 4.40894 29.1107C4.73303 29.8745 5.21692 30.5728 5.8606 31.2058C6.50623 31.8406 7.21875 32.3175 7.99829 32.6363C8.78479 32.9579 9.6394 33.1187 10.5621 33.1187L22.6307 33.1187ZM24.3451 5.02628L28.851 9.44728L25.8718 9.44728C25.7468 9.44728 25.661 9.43357 25.5425 9.40616C25.4591 9.38683 25.3772 9.36072 25.2971 9.32778C25.205 9.28999 25.1182 9.24454 25.0363 9.19144C24.9517 9.13651 24.8004 9.14374 24.7268 9.07243L24.7244 9.06992C24.6381 8.9834 24.6334 8.82178 24.5702 8.72173C24.5305 8.65894 24.4957 8.5932 24.4656 8.52455C24.4283 8.43929 24.3997 8.35214 24.3798 8.26311C24.3566 8.16054 24.3451 8.05547 24.3451 7.94791L24.3451 5.02628Z" clip-rule="evenodd" fill="#191919" fill-opacity="1.000000" fill-rule="evenodd"/>
		<path d="M25.02 28.33C25.36 28.08 25.82 28.15 26.07 28.49C26.32 28.83 26.24 29.29 25.9 29.53L24.44 30.6C24.27 30.72 24.08 30.77 23.88 30.74C23.67 30.7 23.51 30.6 23.39 30.44C23.34 30.37 23.31 30.3 23.28 30.23C23.26 30.15 23.25 30.07 23.25 30C23.25 29.49 23.3 29 23.4 28.53C23.49 28.13 23.62 27.75 23.78 27.37C23.94 26.99 24.13 26.62 24.35 26.28C24.6 25.9 24.89 25.55 25.22 25.22C25.55 24.89 25.9 24.6 26.28 24.35C26.62 24.13 26.99 23.94 27.37 23.78C27.75 23.62 28.13 23.49 28.53 23.4C29 23.3 29.49 23.25 30 23.25C30.5 23.25 30.99 23.3 31.46 23.4C31.86 23.49 32.24 23.62 32.62 23.78C33 23.94 33.37 24.13 33.71 24.35C34.09 24.6 34.44 24.89 34.77 25.22C35.1 25.55 35.39 25.9 35.64 26.28C35.86 26.62 36.05 26.99 36.21 27.37C36.37 27.75 36.5 28.13 36.59 28.53C36.69 29 36.75 29.49 36.75 30C36.75 30.5 36.69 30.99 36.59 31.46C36.5 31.86 36.37 32.24 36.21 32.62C36.05 33 35.86 33.37 35.64 33.71C35.39 34.09 35.1 34.44 34.77 34.77C34.44 35.1 34.09 35.39 33.71 35.64C33.37 35.86 33 36.05 32.62 36.21C32.24 36.37 31.86 36.5 31.46 36.59C30.99 36.69 30.5 36.75 30 36.75C29.52 36.75 29.05 36.7 28.6 36.6C28.24 36.52 27.88 36.42 27.53 36.28C27.17 36.14 26.84 35.97 26.51 35.78C26.14 35.56 25.8 35.3 25.47 35.01C25.16 34.73 25.14 34.26 25.42 33.95C25.7 33.64 26.17 33.61 26.48 33.89C26.74 34.13 27.01 34.33 27.3 34.5C27.55 34.65 27.81 34.78 28.08 34.88C28.34 34.99 28.61 35.07 28.88 35.13C29.24 35.21 29.61 35.25 30 35.25C30.39 35.25 30.78 35.2 31.17 35.12C31.46 35.05 31.75 34.95 32.04 34.83C32.33 34.71 32.61 34.56 32.87 34.39C33.17 34.19 33.45 33.97 33.71 33.71C33.97 33.45 34.19 33.17 34.39 32.87C34.56 32.61 34.71 32.33 34.83 32.04C34.95 31.75 35.05 31.46 35.12 31.17C35.2 30.78 35.25 30.39 35.25 30C35.25 29.6 35.2 29.21 35.12 28.82C35.05 28.53 34.95 28.24 34.83 27.95C34.71 27.66 34.56 27.38 34.39 27.12C34.19 26.82 33.97 26.54 33.71 26.28C33.45 26.02 33.17 25.8 32.87 25.6C32.61 25.43 32.33 25.28 32.04 25.16C31.75 25.04 31.46 24.94 31.17 24.87C30.78 24.79 30.39 24.75 30 24.75C29.6 24.75 29.21 24.79 28.83 24.87C28.53 24.94 28.24 25.04 27.95 25.16C27.66 25.28 27.38 25.43 27.12 25.6C26.82 25.8 26.54 26.02 26.28 26.28C26.02 26.54 25.8 26.82 25.6 27.12C25.43 27.38 25.28 27.66 25.16 27.95C25.11 28.08 25.06 28.2 25.02 28.33Z" fill="#F9A01E" fill-opacity="1.000000" fill-rule="evenodd"/>
		<path d="M30.75 27L30.75 30.05L32.46 31.41C32.79 31.67 32.84 32.13 32.58 32.46C32.32 32.79 31.86 32.84 31.53 32.58L29.53 31C29.44 30.93 29.37 30.85 29.32 30.74C29.27 30.64 29.25 30.53 29.25 30.42L29.25 27C29.25 26.58 29.58 26.25 30 26.25C30.42 26.25 30.75 26.58 30.75 27Z" fill="#F9A01E" fill-opacity="1.000000" fill-rule="evenodd"/>
	</g>
</svg>
