<svg width="40.000000" height="40.000000" viewBox="0 0 40 40" fill="none" xmlns="http://www.w3.org/2000/svg" xmlns:xlink="http://www.w3.org/1999/xlink">
	<desc>
			Created with Pixso.
	</desc>
	<defs>
		<clipPath id="clip44_773">
			<rect width="36.000000" height="36.000000" transform="translate(2.000000 2.000000)" fill="white" fill-opacity="0"/>
		</clipPath>
	</defs>
	<g clip-path="url(#clip44_773)">
		<path d="M13.38 32.99L30.35 32.99C31.03 32.99 31.65 32.87 32.23 32.64C32.8 32.4 33.33 32.04 33.81 31.56C34.28 31.09 34.64 30.56 34.87 29.99C35.11 29.41 35.24 28.78 35.24 28.1L35.24 11.39L35.24 11.27C35.24 11.13 35.22 11.01 35.17 10.88Q35.13 10.79 35.07 10.71L35.07 10.71Q35.02 10.63 34.95 10.56L27.17 2.79C27.08 2.7 26.97 2.62 26.85 2.57C26.73 2.52 26.6 2.5 26.47 2.5L13.38 2.5C12.71 2.5 12.08 2.62 11.51 2.85C10.93 3.09 10.41 3.45 9.93 3.93C9.45 4.41 9.09 4.93 8.85 5.51C8.62 6.08 8.5 6.71 8.5 7.38L8.5 28.1Q8.5 29.12 8.86 29.99C9.1 30.56 9.45 31.09 9.93 31.56C10.4 32.04 10.93 32.4 11.51 32.64C12.08 32.87 12.71 32.99 13.38 32.99ZM28.86 12.39L33.24 12.39L33.24 28.1C33.24 28.51 33.17 28.88 33.02 29.22C32.88 29.56 32.67 29.87 32.39 30.15C32.11 30.43 31.8 30.65 31.46 30.79C31.12 30.93 30.75 31 30.35 31L13.38 31C12.98 31 12.61 30.93 12.27 30.79C11.93 30.65 11.62 30.43 11.34 30.15C11.06 29.87 10.85 29.56 10.71 29.22C10.56 28.88 10.49 28.51 10.49 28.1L10.49 7.38C10.49 6.98 10.56 6.61 10.7 6.27C10.84 5.93 11.06 5.62 11.34 5.34C11.62 5.06 11.93 4.84 12.27 4.7C12.61 4.56 12.98 4.49 13.38 4.49L25.28 4.49L25.28 8.81C25.28 10 25.57 10.9 26.17 11.49C26.77 12.09 27.66 12.39 28.86 12.39ZM27.27 5.71L31.96 10.4L28.86 10.4C28.73 10.4 28.64 10.38 28.52 10.35C28.43 10.33 28.34 10.3 28.26 10.27C28.17 10.23 28.08 10.18 27.99 10.12C27.9 10.07 27.74 10.07 27.67 10L27.66 9.99C27.58 9.9 27.57 9.73 27.5 9.63C27.46 9.56 27.43 9.49 27.4 9.42C27.36 9.33 27.33 9.23 27.31 9.14C27.28 9.03 27.27 8.92 27.27 8.81L27.27 5.71ZM5.99 28.57L5.99 12.2C5.99 11.64 5.55 11.2 5 11.2C4.44 11.2 4 11.64 4 12.2L4 28.57Q4 30.43 4.66 32.01C5.09 33.06 5.74 34.01 6.61 34.88C7.47 35.75 8.43 36.4 9.48 36.83C10.53 37.27 11.68 37.49 12.92 37.49L26.09 37.49C26.65 37.49 27.09 37.05 27.09 36.5C27.09 35.94 26.65 35.5 26.09 35.5L12.92 35.5C11.95 35.5 11.06 35.33 10.24 34.99C9.43 34.65 8.69 34.14 8.02 33.47C7.35 32.8 6.84 32.06 6.51 31.25C6.16 30.43 5.99 29.53 5.99 28.57Z" fill="#191919" fill-opacity="1.000000" fill-rule="evenodd"/>
	</g>
</svg>
