<svg width="24.000000" height="24.000000" viewBox="0 0 24 24" fill="none" xmlns="http://www.w3.org/2000/svg" xmlns:xlink="http://www.w3.org/1999/xlink">
	<desc>
			Created with Pixso.
	</desc>
	<defs>
		<clipPath id="clip44_731">
			<rect width="16.000000" height="16.000000" transform="translate(4.000000 4.000000)" fill="white" fill-opacity="0"/>
		</clipPath>
		<linearGradient x1="12.000000" y1="0.000000" x2="12.000000" y2="24.000000" id="paint_linear_44_728_0" gradientUnits="userSpaceOnUse">
			<stop stop-color="#A5D1FF"/>
			<stop offset="1.000000" stop-color="#007DFF"/>
		</linearGradient>
	</defs>
	<rect width="24.000000" height="24.000000" fill="#FFFFFF" fill-opacity="0"/>
	<circle cx="12.000000" cy="12.000000" r="12.000000" fill="url(#paint_linear_44_728_0)" fill-opacity="1.000000"/>
	<g clip-path="url(#clip44_731)">
		<path d="M9.33 5.33C9.41 4.94 9.58 4.65 9.82 4.46C10.07 4.26 10.39 4.16 10.79 4.16L13.2 4.16C13.6 4.16 13.92 4.26 14.16 4.46C14.41 4.65 14.57 4.94 14.66 5.33L14.91 6.43L15.35 6.69L16.43 6.35C16.81 6.24 17.15 6.23 17.44 6.34C17.73 6.46 17.97 6.69 18.17 7.03L19.38 9.12C19.58 9.46 19.66 9.79 19.61 10.1C19.56 10.41 19.39 10.7 19.1 10.97L18.27 11.74L18.27 12.25L19.1 13.02C19.39 13.29 19.56 13.58 19.61 13.89C19.66 14.19 19.58 14.52 19.38 14.87L18.17 16.95C17.97 17.3 17.73 17.53 17.43 17.64C17.15 17.75 16.81 17.75 16.43 17.63L15.35 17.3L14.91 17.55L14.66 18.66C14.57 19.05 14.41 19.34 14.16 19.54C13.92 19.73 13.6 19.83 13.2 19.83L10.79 19.83C10.39 19.83 10.07 19.73 9.83 19.54C9.58 19.34 9.42 19.05 9.33 18.66L9.08 17.55L8.64 17.3L7.55 17.63C7.18 17.75 6.84 17.75 6.55 17.64C6.26 17.53 6.01 17.3 5.81 16.95L4.61 14.87C4.41 14.52 4.33 14.19 4.38 13.89C4.43 13.58 4.6 13.29 4.89 13.02L5.72 12.25L5.72 11.74L4.89 10.97C4.6 10.7 4.43 10.41 4.38 10.1C4.33 9.79 4.41 9.46 4.61 9.12L5.81 7.03C6.01 6.69 6.26 6.46 6.55 6.34C6.84 6.23 7.17 6.24 7.55 6.35L8.63 6.69L9.08 6.43L9.33 5.33ZM10.47 5.26C10.39 5.33 10.33 5.42 10.3 5.55L10.01 6.86C9.99 6.93 9.96 6.99 9.92 7.05C9.88 7.1 9.83 7.15 9.77 7.18L8.94 7.66C8.88 7.7 8.82 7.72 8.75 7.73C8.68 7.73 8.61 7.73 8.54 7.71L7.26 7.31C7.13 7.27 7.02 7.27 6.92 7.31C6.83 7.34 6.74 7.42 6.68 7.54L5.47 9.62C5.41 9.73 5.38 9.84 5.4 9.95C5.41 10.05 5.47 10.14 5.57 10.23L6.56 11.15C6.61 11.2 6.65 11.25 6.68 11.32C6.7 11.38 6.72 11.45 6.72 11.52L6.72 12.47C6.72 12.54 6.7 12.6 6.68 12.67C6.65 12.73 6.61 12.79 6.56 12.84L5.57 13.75C5.47 13.84 5.41 13.94 5.4 14.04C5.38 14.14 5.41 14.25 5.47 14.37L6.68 16.45C6.74 16.57 6.83 16.64 6.92 16.68C7.02 16.72 7.13 16.72 7.26 16.68L8.55 16.28C8.62 16.26 8.69 16.25 8.75 16.26C8.82 16.27 8.89 16.29 8.95 16.32L9.77 16.8C9.83 16.83 9.88 16.88 9.92 16.93C9.96 16.99 9.99 17.05 10 17.12L10.3 18.44C10.33 18.57 10.39 18.67 10.47 18.73C10.55 18.8 10.66 18.83 10.79 18.83L13.2 18.83C13.33 18.83 13.44 18.8 13.52 18.73C13.6 18.67 13.65 18.57 13.68 18.44L13.98 17.11C14 17.05 14.03 16.98 14.07 16.93C14.11 16.87 14.16 16.83 14.22 16.79L15.03 16.32Q15.08 16.3 15.13 16.28Q15.18 16.26 15.23 16.26C15.3 16.25 15.37 16.26 15.43 16.28L16.73 16.68C16.86 16.72 16.97 16.72 17.06 16.68C17.16 16.64 17.24 16.57 17.31 16.45L18.51 14.37C18.58 14.25 18.6 14.14 18.59 14.04C18.57 13.94 18.52 13.84 18.42 13.75L17.43 12.83C17.37 12.78 17.33 12.73 17.31 12.67C17.28 12.6 17.27 12.53 17.27 12.47L17.27 11.52C17.27 11.45 17.28 11.39 17.31 11.32C17.33 11.26 17.37 11.2 17.43 11.15L18.42 10.23C18.52 10.14 18.57 10.05 18.59 9.95C18.6 9.84 18.58 9.73 18.51 9.62L17.31 7.54C17.24 7.42 17.16 7.34 17.06 7.31C16.97 7.27 16.86 7.27 16.73 7.31L15.44 7.71C15.37 7.73 15.3 7.73 15.24 7.73C15.17 7.72 15.1 7.7 15.04 7.66L14.22 7.19C14.16 7.15 14.11 7.11 14.07 7.05C14.02 7 14 6.93 13.98 6.86L13.68 5.55C13.66 5.42 13.6 5.33 13.52 5.26C13.44 5.19 13.33 5.16 13.2 5.16L10.79 5.16C10.66 5.16 10.55 5.19 10.47 5.26ZM12 8.5C10.06 8.5 8.5 10.06 8.5 12C8.5 13.93 10.06 15.5 12 15.5C13.93 15.5 15.5 13.93 15.5 12C15.5 10.06 13.93 8.5 12 8.5ZM12 9.5C10.61 9.5 9.5 10.61 9.5 12C9.5 13.38 10.61 14.5 12 14.5C13.38 14.5 14.5 13.38 14.5 12C14.5 10.61 13.38 9.5 12 9.5Z" fill="#FFFFFF" fill-opacity="1.000000" fill-rule="evenodd"/>
	</g>
</svg>
