<svg width="16.000000" height="16.000000" viewBox="0 0 16 16" fill="none" xmlns="http://www.w3.org/2000/svg" xmlns:xlink="http://www.w3.org/1999/xlink">
	<desc>
			Created with Pixso.
	</desc>
	<defs>
		<clipPath id="clip4_14324">
			<rect id="ic_public_emoji_filled" width="16.000000" height="16.000000" fill="white" fill-opacity="0"/>
		</clipPath>
	</defs>
	<g clip-path="url(#clip4_14324)">
		<path id="path-1" d="M8 0.66C12.05 0.66 15.33 3.94 15.33 8C15.33 12.05 12.05 15.33 8 15.33C3.94 15.33 0.66 12.05 0.66 8C0.66 3.94 3.94 0.66 8 0.66ZM4.83 5.33C4.37 5.33 4 5.7 4 6.16C4 6.62 4.37 7 4.83 7C5.29 7 5.66 6.62 5.66 6.16C5.66 5.7 5.29 5.33 4.83 5.33ZM11.16 5.33C10.7 5.33 10.33 5.7 10.33 6.16C10.33 6.62 10.7 7 11.16 7C11.62 7 12 6.62 12 6.16C12 5.7 11.62 5.33 11.16 5.33ZM11.04 9.58C10.42 10.65 9.27 11.33 8 11.33C6.74 11.33 5.59 10.65 4.97 9.58C4.83 9.34 4.53 9.26 4.29 9.4C4.05 9.53 3.97 9.84 4.11 10.08C4.91 11.46 6.38 12.33 8 12.33C9.63 12.33 11.1 11.46 11.9 10.08C12.04 9.84 11.96 9.53 11.72 9.4C11.48 9.26 11.18 9.34 11.04 9.58Z" fill="#FFFFFF" fill-opacity="1.000000" fill-rule="nonzero"/>
		<path id="path-1" d="M15.33 8C15.33 12.05 12.05 15.33 8 15.33C3.94 15.33 0.66 12.05 0.66 8C0.66 3.94 3.94 0.66 8 0.66C12.05 0.66 15.33 3.94 15.33 8ZM4 6.16C4 6.62 4.37 7 4.83 7C5.29 7 5.66 6.62 5.66 6.16C5.66 5.7 5.29 5.33 4.83 5.33C4.37 5.33 4 5.7 4 6.16ZM10.33 6.16C10.33 6.62 10.7 7 11.16 7C11.62 7 12 6.62 12 6.16C12 5.7 11.62 5.33 11.16 5.33C10.7 5.33 10.33 5.7 10.33 6.16ZM11.72 9.4C11.96 9.53 12.04 9.84 11.9 10.08C11.1 11.46 9.63 12.33 8 12.33C6.38 12.33 4.91 11.46 4.11 10.08C3.97 9.84 4.05 9.53 4.29 9.4C4.53 9.26 4.83 9.34 4.97 9.58C5.59 10.65 6.74 11.33 8 11.33C9.27 11.33 10.42 10.65 11.04 9.58C11.18 9.34 11.48 9.26 11.72 9.4Z" stroke="#000000" stroke-opacity="0" stroke-width="0.666667"/>
	</g>
</svg>
