<svg width="16.000000" height="16.000000" viewBox="0 0 16 16" fill="none" xmlns="http://www.w3.org/2000/svg" xmlns:xlink="http://www.w3.org/1999/xlink">
	<desc>
			Created with Pixso.
	</desc>
	<defs>
		<clipPath id="clip7_11447">
			<rect id="ic_public_time_filled" width="16.000000" height="16.000000" fill="white" fill-opacity="0"/>
		</clipPath>
	</defs>
	<g clip-path="url(#clip7_11447)">
		<path id="path-1" d="M8 0.83C11.95 0.83 15.16 4.04 15.16 8C15.16 11.95 11.95 15.16 8 15.16C4.04 15.16 0.83 11.95 0.83 8C0.83 4.04 4.04 0.83 8 0.83ZM9.09 8.41C8.96 8.74 8.69 8.99 8.36 9.1L11.07 11.81C11.26 12 11.58 12 11.77 11.81C11.97 11.61 11.97 11.29 11.77 11.1L9.09 8.41ZM8.5 3.83C8.5 3.55 8.27 3.33 8 3.33C7.72 3.33 7.5 3.55 7.5 3.83L7.5 8C7.5 8.03 7.5 8.06 7.5 8.09C7.51 8.09 7.52 8.16 7.53 8.17C7.53 8.18 7.57 8.26 7.57 8.27C7.58 8.27 7.63 8.33 7.63 8.34C7.64 8.35 7.7 8.4 7.71 8.4C7.72 8.41 7.78 8.45 7.8 8.45C7.81 8.46 7.89 8.48 7.91 8.49C7.93 8.49 7.97 8.5 8 8.5L8.06 8.49C8.31 8.46 8.5 8.25 8.5 8L8.5 3.83Z" fill="#000000" fill-opacity="1.000000" fill-rule="nonzero"/>
		<path id="path-1" d="M15.16 8C15.16 11.95 11.95 15.16 8 15.16C4.04 15.16 0.83 11.95 0.83 8C0.83 4.04 4.04 0.83 8 0.83C11.95 0.83 15.16 4.04 15.16 8ZM8.36 9.1L11.07 11.81C11.26 12 11.58 12 11.77 11.81C11.97 11.61 11.97 11.29 11.77 11.1L9.09 8.41C8.96 8.74 8.69 8.99 8.36 9.1ZM8 3.33C7.72 3.33 7.5 3.55 7.5 3.83L7.5 8C7.5 8.03 7.5 8.06 7.5 8.09C7.51 8.09 7.52 8.16 7.53 8.17C7.53 8.18 7.57 8.26 7.57 8.27C7.58 8.27 7.63 8.33 7.63 8.34C7.64 8.35 7.7 8.4 7.71 8.4C7.72 8.41 7.78 8.45 7.8 8.45C7.81 8.46 7.89 8.48 7.91 8.49C7.93 8.49 7.97 8.5 8 8.5L8.06 8.49C8.31 8.46 8.5 8.25 8.5 8L8.5 3.83C8.5 3.55 8.27 3.33 8 3.33Z" stroke="#000000" stroke-opacity="0" stroke-width="0.666667"/>
	</g>
</svg>
