<svg width="50.000000" height="52.758301" viewBox="0 0 50 52.7583" fill="none" xmlns="http://www.w3.org/2000/svg" xmlns:xlink="http://www.w3.org/1999/xlink">
	<desc>
			Created with Pixso.
	</desc>
	<defs>
		<filter id="filter_7_11420_dd" x="0.000000" y="0.000000" width="50.000000" height="49.451904" filterUnits="userSpaceOnUse" color-interpolation-filters="sRGB">
			<feFlood flood-opacity="0" result="BackgroundImageFix"/>
			<feColorMatrix in="SourceAlpha" type="matrix" values="0 0 0 0 0 0 0 0 0 0 0 0 0 0 0 0 0 0 127 0" result="hardAlpha"/>
			<feOffset dx="0" dy="4"/>
			<feGaussianBlur stdDeviation="3"/>
			<feComposite in2="hardAlpha" operator="out" k2="-1" k3="1"/>
			<feColorMatrix type="matrix" values="0 0 0 0 0.97647 0 0 0 0 0.62745 0 0 0 0 0.11765 0 0 0 0.5 0"/>
			<feBlend mode="normal" in2="BackgroundImageFix" result="effect_dropShadow_1"/>
			<feBlend mode="normal" in="SourceGraphic" in2="effect_dropShadow_1" result="shape"/>
		</filter>
		<linearGradient x1="25.000000" y1="4.758301" x2="25.000000" y2="52.758301" id="paint_linear_7_11417_0" gradientUnits="userSpaceOnUse">
			<stop stop-color="#F9A011" stop-opacity="0.000000"/>
			<stop offset="1.000000" stop-color="#F9A011" stop-opacity="0.200000"/>
		</linearGradient>
	</defs>
	<circle id="椭圆 24" cx="25.000000" cy="28.758301" r="24.000000" fill="url(#paint_linear_7_11417_0)" fill-opacity="1.000000"/>
	<g filter="url(#filter_7_11420_dd)">
		<path id="path" d="M37.82 29.6C37.74 29.58 37.66 29.58 37.58 29.58L12.4 29.58C11.78 29.58 11.28 29.07 11.28 28.45C11.28 27.82 11.78 27.31 12.4 27.31L15.85 27.31C16.48 27.31 16.99 26.8 16.99 26.17C16.99 25.53 16.48 25.02 15.85 25.02L12.4 25.02C10.52 25.02 9 26.56 9 28.45C9 30.26 10.4 31.74 12.17 31.86C12.25 31.88 12.33 31.89 12.41 31.89L37.59 31.89C38.21 31.89 38.71 32.4 38.71 33.02C38.71 33.64 38.21 34.15 37.59 34.15L15.86 34.15C15.23 34.15 14.72 34.66 14.72 35.3C14.72 35.93 15.23 36.45 15.86 36.45L37.59 36.45C39.47 36.45 41 34.91 41 33.02C41 31.21 39.59 29.72 37.82 29.6Z" fill="#F7CE00" fill-opacity="1.000000" fill-rule="nonzero"/>
		<path id="path" d="M37.58 29.58L12.4 29.58C11.78 29.58 11.28 29.07 11.28 28.45C11.28 27.82 11.78 27.31 12.4 27.31L15.85 27.31C16.48 27.31 16.99 26.8 16.99 26.17C16.99 25.53 16.48 25.02 15.85 25.02L12.4 25.02C10.52 25.02 9 26.56 9 28.45C9 30.26 10.4 31.74 12.17 31.86C12.25 31.88 12.33 31.89 12.41 31.89L37.59 31.89C38.21 31.89 38.71 32.4 38.71 33.02C38.71 33.64 38.21 34.15 37.59 34.15L15.86 34.15C15.23 34.15 14.72 34.66 14.72 35.3C14.72 35.93 15.23 36.45 15.86 36.45L37.59 36.45C39.47 36.45 41 34.91 41 33.02C41 31.21 39.59 29.72 37.82 29.6C37.74 29.58 37.66 29.58 37.58 29.58Z" stroke="#000000" stroke-opacity="0" stroke-width="1.000000"/>
		<path id="path" d="M24.78 5C29.72 5 33.72 9.01 33.72 13.97C33.72 15.24 33.21 16.84 32.3 18.63L32.12 18.99L31.93 19.35L31.6 19.92L31.27 20.49L31.09 20.78L30.73 21.33L30.54 21.62L30.17 22.15L29.98 22.43L29.59 22.95L29.22 23.43C27.56 25.5 26.13 26.72 24.78 26.72C23.59 26.72 22.37 25.79 20.96 24.17L20.73 23.91L20.52 23.66L20.14 23.18L19.95 22.93L19.75 22.66L19.37 22.14L18.99 21.59L18.63 21.04L18.28 20.48L18.1 20.18L17.77 19.6L17.45 19.02L17.16 18.46C16.32 16.73 15.83 15.21 15.83 13.97C15.83 9.01 19.84 5 24.78 5ZM24.78 11.17C23.25 11.17 22.01 12.41 22.01 13.94C22.01 15.47 23.25 16.71 24.78 16.71C26.31 16.71 27.55 15.47 27.55 13.94C27.55 12.41 26.31 11.17 24.78 11.17Z" fill="#F9A01E" fill-opacity="1.000000" fill-rule="evenodd"/>
		<path id="path" d="M33.72 13.97C33.72 15.24 33.21 16.84 32.3 18.63L32.12 18.99L31.93 19.35L31.6 19.92L31.27 20.49L31.09 20.78L30.73 21.33L30.54 21.62L30.17 22.15L29.98 22.43L29.59 22.95L29.22 23.43C27.56 25.5 26.13 26.72 24.78 26.72C23.59 26.72 22.37 25.79 20.96 24.17L20.73 23.91L20.52 23.66L20.14 23.18L19.95 22.93L19.75 22.66L19.37 22.14L18.99 21.59L18.63 21.04L18.28 20.48L18.1 20.18L17.77 19.6L17.45 19.02L17.16 18.46C16.32 16.73 15.83 15.21 15.83 13.97C15.83 9.01 19.84 5 24.78 5C29.72 5 33.72 9.01 33.72 13.97ZM22.01 13.94C22.01 15.47 23.25 16.71 24.78 16.71C26.31 16.71 27.55 15.47 27.55 13.94C27.55 12.41 26.31 11.17 24.78 11.17C23.25 11.17 22.01 12.41 22.01 13.94Z" stroke="#000000" stroke-opacity="0" stroke-width="1.000000"/>
	</g>
</svg>
