<svg width="16.000000" height="16.000000" viewBox="0 0 16 16" fill="none" xmlns="http://www.w3.org/2000/svg" xmlns:xlink="http://www.w3.org/1999/xlink">
	<desc>
			Created with Pixso.
	</desc>
	<defs>
		<clipPath id="clip7_11460">
			<rect id="ic_bpit_ticket_filled" width="16.000000" height="16.000000" fill="white" fill-opacity="0"/>
		</clipPath>
	</defs>
	<g clip-path="url(#clip7_11460)">
		<path id="path1" d="M0.5 7.99C0.5 6.82 0.49 5.65 0.5 4.47C0.49 3.91 0.56 3.34 0.7 2.79C1.01 1.63 1.77 0.94 2.93 0.67C3.51 0.55 4.11 0.49 4.7 0.5C6.95 0.5 9.2 0.5 11.45 0.5C12.01 0.49 12.58 0.56 13.13 0.69C14.33 0.98 15.05 1.74 15.32 2.93C15.44 3.5 15.5 4.07 15.49 4.65C15.49 6.92 15.49 9.19 15.49 11.46C15.5 12.03 15.43 12.59 15.3 13.13C15.01 14.33 14.25 15.04 13.05 15.32C12.47 15.44 11.88 15.5 11.28 15.49C9.04 15.49 6.81 15.49 4.57 15.49C4 15.5 3.43 15.43 2.87 15.3C1.67 15.01 0.95 14.25 0.67 13.05C0.53 12.44 0.5 11.83 0.5 11.21C0.5 10.14 0.5 9.06 0.5 7.99Z" fill="#FFFFFF" fill-opacity="0" fill-rule="nonzero"/>
		<path id="path1" d="M0.5 4.47C0.49 3.91 0.56 3.34 0.7 2.79C1.01 1.63 1.77 0.94 2.93 0.67C3.51 0.55 4.11 0.49 4.7 0.5C6.95 0.5 9.2 0.5 11.45 0.5C12.01 0.49 12.58 0.56 13.13 0.69C14.33 0.98 15.05 1.74 15.32 2.93C15.44 3.5 15.5 4.07 15.49 4.65C15.49 6.92 15.49 9.19 15.49 11.46C15.5 12.03 15.43 12.59 15.3 13.13C15.01 14.33 14.25 15.04 13.05 15.32C12.47 15.44 11.88 15.5 11.28 15.49C9.04 15.49 6.81 15.49 4.57 15.49C4 15.5 3.43 15.43 2.87 15.3C1.67 15.01 0.95 14.25 0.67 13.05C0.53 12.44 0.5 11.83 0.5 11.21C0.5 10.14 0.5 9.06 0.5 7.99C0.5 6.82 0.49 5.65 0.5 4.47Z" stroke="#FFFFFF" stroke-opacity="0" stroke-width="1.000000"/>
		<g opacity="0.200000">
			<path id="path2" d="M0.5 7.99C0.5 6.82 0.49 5.65 0.5 4.47C0.49 3.91 0.56 3.34 0.7 2.79C1.01 1.63 1.77 0.94 2.93 0.67C3.51 0.55 4.11 0.49 4.7 0.5C6.95 0.5 9.2 0.5 11.45 0.5C12.01 0.49 12.58 0.56 13.13 0.69C14.33 0.98 15.05 1.74 15.32 2.93C15.44 3.5 15.5 4.07 15.49 4.65C15.49 6.92 15.49 9.19 15.49 11.46C15.5 12.03 15.43 12.59 15.3 13.13C15.01 14.33 14.25 15.04 13.05 15.32C12.47 15.44 11.88 15.5 11.28 15.49C9.04 15.49 6.81 15.49 4.57 15.49C4 15.5 3.43 15.43 2.87 15.3C1.67 15.01 0.95 14.25 0.67 13.05C0.53 12.44 0.5 11.83 0.5 11.21C0.5 10.14 0.5 9.06 0.5 7.99Z" fill="#000000" fill-opacity="0" fill-rule="nonzero"/>
			<path id="path2" d="M0.5 4.47C0.49 3.91 0.56 3.34 0.7 2.79C1.01 1.63 1.77 0.94 2.93 0.67C3.51 0.55 4.11 0.49 4.7 0.5C6.95 0.5 9.2 0.5 11.45 0.5C12.01 0.49 12.58 0.56 13.13 0.69C14.33 0.98 15.05 1.74 15.32 2.93C15.44 3.5 15.5 4.07 15.49 4.65C15.49 6.92 15.49 9.19 15.49 11.46C15.5 12.03 15.43 12.59 15.3 13.13C15.01 14.33 14.25 15.04 13.05 15.32C12.47 15.44 11.88 15.5 11.28 15.49C9.04 15.49 6.81 15.49 4.57 15.49C4 15.5 3.43 15.43 2.87 15.3C1.67 15.01 0.95 14.25 0.67 13.05C0.53 12.44 0.5 11.83 0.5 11.21C0.5 10.14 0.5 9.06 0.5 7.99C0.5 6.82 0.49 5.65 0.5 4.47Z" stroke="#FFFFFF" stroke-opacity="0" stroke-width="1.000000"/>
		</g>
		<circle id="path3" cx="8.000000" cy="8.000000" r="8.000000" fill="#FFFFFF" fill-opacity="0"/>
		<circle id="path3" cx="8.000000" cy="8.000000" r="8.000000" stroke="#000000" stroke-opacity="0" stroke-width="1.000000"/>
		<path id="合并" d="M15.942 3.46094C15.9807 3.63623 16 3.81592 16 4L16.0002 5.97876C16.0002 6.06787 15.9779 6.15112 15.9333 6.22852C15.8887 6.30591 15.8278 6.36694 15.7505 6.41162C15.6111 6.49219 15.4861 6.5874 15.3754 6.69702C15.2645 6.80688 15.168 6.9314 15.0859 7.07056C15.006 7.20605 14.9451 7.34692 14.9031 7.49341C14.8566 7.65552 14.8333 7.82446 14.8333 8C14.8333 8.17554 14.8566 8.34448 14.9031 8.50659C14.9451 8.65308 15.006 8.79395 15.0859 8.92944C15.168 9.0686 15.2645 9.19312 15.3754 9.30298C15.4861 9.4126 15.6111 9.50781 15.7505 9.58838C15.8278 9.63306 15.8887 9.69409 15.9333 9.77148C15.9779 9.84888 16.0002 9.93213 16.0002 10.0212L16 12C16 12.1838 15.9807 12.3633 15.9421 12.5386C15.9096 12.6865 15.8633 12.8313 15.8033 12.9731C15.7432 13.1155 15.6713 13.25 15.5876 13.3765C15.4954 13.5164 15.3887 13.6467 15.2678 13.7678C15.1468 13.8887 15.0164 13.9954 14.8766 14.0876C14.7499 14.1714 14.6155 14.2432 14.4733 14.3032C14.3316 14.3633 14.1869 14.4094 14.0392 14.4421C13.8637 14.4807 13.684 14.5 13.5 14.5L2.5 14.5C2.31604 14.5 2.13629 14.4807 1.96082 14.4421C1.81311 14.4094 1.6684 14.3633 1.52673 14.3032C1.38452 14.2432 1.25012 14.1714 1.12341 14.0876C0.983582 13.9954 0.85321 13.8887 0.732239 13.7678C0.611267 13.6467 0.504639 13.5164 0.412354 13.3765L0.412292 13.3765C0.328674 13.2498 0.256775 13.1155 0.196655 12.9731C0.136719 12.8315 0.0905151 12.6868 0.0579834 12.5391C0.0193481 12.3638 0 12.1841 0 12L6.10352e-05 10.021C6.10352e-05 9.93188 0.0223999 9.84863 0.0669556 9.77124C0.111572 9.69409 0.172485 9.63306 0.249695 9.58838C0.389099 9.50781 0.514099 9.4126 0.624756 9.30298C0.735657 9.19287 0.832153 9.06836 0.914124 8.9292C0.994019 8.7937 1.05493 8.65283 1.09686 8.50659C1.14343 8.34448 1.16669 8.17554 1.16669 8C1.16669 7.82446 1.14343 7.65552 1.09686 7.49341L1.09686 7.49341C1.05487 7.34717 0.994019 7.2063 0.914124 7.0708C0.832153 6.93164 0.735657 6.80713 0.624756 6.69702C0.514099 6.5874 0.389099 6.49219 0.249695 6.41162C0.21106 6.3894 0.176514 6.36279 0.146057 6.33252C0.115601 6.302 0.0892334 6.26733 0.0669556 6.22876C0.0223999 6.15137 6.10352e-05 6.06812 6.10352e-05 5.979L0 4C0 3.81592 0.0193481 3.63623 0.0580444 3.46069C0.0905762 3.31299 0.13678 3.16846 0.196655 3.02686C0.256836 2.88452 0.328674 2.75 0.412354 2.62354C0.504639 2.48364 0.611267 2.35327 0.732239 2.23218C0.85321 2.11133 0.983582 2.00464 1.12341 1.91235L1.12341 1.91235C1.25012 1.82861 1.38452 1.75684 1.52673 1.69678C1.6684 1.63672 1.81311 1.59058 1.96082 1.55786C2.13629 1.51929 2.31604 1.5 2.5 1.5L13.5 1.5C13.684 1.5 13.8637 1.51929 14.0391 1.55786C14.1869 1.59058 14.3315 1.63672 14.4733 1.69678C14.6155 1.75684 14.7499 1.82861 14.8766 1.91235C15.0164 2.00464 15.1469 2.11133 15.2678 2.23218C15.3887 2.35327 15.4954 2.48364 15.5877 2.62354L15.5877 2.62354C15.6713 2.75024 15.7432 2.88452 15.8033 3.02686C15.8633 3.16846 15.9095 3.31299 15.942 3.46094Z" clip-rule="evenodd" fill="#000000" fill-opacity="1.000000" fill-rule="evenodd"/>
		<line id="path5" x1="8.000000" y1="10.666504" x2="8.000000" y2="5.333252" stroke="#FFFFFF" stroke-opacity="1.000000" stroke-width="1.000000"/>
	</g>
</svg>
