<svg width="16.000000" height="16.000000" viewBox="0 0 16 16" fill="none" xmlns="http://www.w3.org/2000/svg" xmlns:xlink="http://www.w3.org/1999/xlink">
	<desc>
			Created with Pixso.
	</desc>
	<defs>
		<clipPath id="clip22_7108">
			<rect id="ic_public_time" width="16.000000" height="16.000000" fill="white" fill-opacity="0"/>
		</clipPath>
	</defs>
	<g clip-path="url(#clip22_7108)">
		<path id="path-1" d="M8 0.83C11.95 0.83 15.16 4.04 15.16 8C15.16 11.95 11.95 15.16 8 15.16C4.04 15.16 0.83 11.95 0.83 8C0.83 4.04 4.04 0.83 8 0.83ZM8 1.83C4.59 1.83 1.83 4.59 1.83 8C1.83 11.4 4.59 14.16 8 14.16C11.4 14.16 14.16 11.4 14.16 8C14.16 4.59 11.4 1.83 8 1.83ZM9.08 8.41L11.77 11.1C11.97 11.29 11.97 11.61 11.77 11.81C11.58 12 11.26 12 11.07 11.81L8.36 9.1C8.69 8.99 8.96 8.74 9.08 8.41ZM8 8.5L7.93 8.49L8 8.5C7.96 8.5 7.95 8.5 7.93 8.49C7.91 8.49 7.87 8.48 7.86 8.48C7.85 8.47 7.77 8.44 7.76 8.44C7.75 8.43 7.69 8.39 7.68 8.38C7.67 8.38 7.62 8.33 7.61 8.32C7.61 8.31 7.56 8.25 7.56 8.24C7.55 8.23 7.52 8.15 7.52 8.14C7.51 8.11 7.5 8.03 7.5 8L7.5 3.83C7.5 3.55 7.72 3.33 8 3.33C8.27 3.33 8.5 3.55 8.5 3.83L8.5 8C8.5 8.27 8.27 8.5 8 8.5Z" fill="#000000" fill-opacity="0.600000" fill-rule="nonzero"/>
		<path id="path-1" d="M15.16 8C15.16 11.95 11.95 15.16 8 15.16C4.04 15.16 0.83 11.95 0.83 8C0.83 4.04 4.04 0.83 8 0.83C11.95 0.83 15.16 4.04 15.16 8ZM1.83 8C1.83 11.4 4.59 14.16 8 14.16C11.4 14.16 14.16 11.4 14.16 8C14.16 4.59 11.4 1.83 8 1.83C4.59 1.83 1.83 4.59 1.83 8ZM11.77 11.1C11.97 11.29 11.97 11.61 11.77 11.81C11.58 12 11.26 12 11.07 11.81L8.36 9.1C8.69 8.99 8.96 8.74 9.08 8.41L11.77 11.1ZM8 8.5L7.93 8.49M7.93 8.49C7.91 8.49 7.87 8.48 7.86 8.48C7.85 8.47 7.77 8.44 7.76 8.44C7.75 8.43 7.69 8.39 7.68 8.38C7.67 8.38 7.62 8.33 7.61 8.32C7.61 8.31 7.56 8.25 7.56 8.24C7.55 8.23 7.52 8.15 7.52 8.14C7.51 8.11 7.5 8.03 7.5 8L7.5 3.83C7.5 3.55 7.72 3.33 8 3.33C8.27 3.33 8.5 3.55 8.5 3.83L8.5 8C8.5 8.27 8.27 8.5 8 8.5C7.96 8.5 7.95 8.5 7.93 8.49Z" stroke="#000000" stroke-opacity="0" stroke-width="0.666667"/>
	</g>
</svg>
