<svg width="16.000000" height="16.000000" viewBox="0 0 16 16" fill="none" xmlns="http://www.w3.org/2000/svg" xmlns:xlink="http://www.w3.org/1999/xlink">
	<desc>
			Created with Pixso.
	</desc>
	<defs>
		<clipPath id="clip6_10771">
			<rect id="ic_public_contacts_group_filled" rx="5.333333" width="16.000000" height="16.000000" fill="white" fill-opacity="0"/>
		</clipPath>
	</defs>
	<g clip-path="url(#clip6_10771)">
		<path id="path-1" d="M7.16 8.33C10.83 8.33 12.26 10.96 12.65 11.85C12.79 12.16 12.91 12.58 13 13.11C13.12 13.83 12.63 14.52 11.9 14.64C11.83 14.66 11.76 14.66 11.68 14.66L2.63 14.66C1.9 14.66 1.3 14.06 1.3 13.33C1.3 13.25 1.31 13.18 1.32 13.11C1.41 12.59 1.52 12.17 1.67 11.85C2.08 10.96 3.5 8.33 7.16 8.33ZM10.63 8.22C13.01 8.61 14.83 10.67 14.83 13.16C14.83 13.7 14.4 14.14 13.87 14.16C13.83 14.16 13.82 14.12 13.82 14.09C13.82 14.07 13.83 14.05 13.83 14.03L13.83 13.66C13.83 11.41 12.45 9.45 10.42 8.43C10.36 8.4 10.34 8.33 10.37 8.27C10.41 8.19 10.54 8.21 10.63 8.22ZM9.16 1.33C10.74 1.42 12 2.73 12 4.33C12 5.08 11.72 5.76 11.27 6.29C10.95 6.65 10.55 6.94 10.09 7.12C10.06 7.13 10.02 7.13 10 7.11C9.98 7.09 9.98 7.06 9.98 7.04C9.98 7.01 10 6.99 10.01 6.97C10.52 6.34 10.83 5.53 10.83 4.66C10.83 3.3 10.09 2.12 9 1.49C8.91 1.44 9.06 1.33 9.16 1.33ZM7.16 1.66C5.5 1.66 4.16 3 4.16 4.66C4.16 6.32 5.5 7.66 7.16 7.66C8.82 7.66 10.16 6.32 10.16 4.66C10.16 3 8.82 1.66 7.16 1.66Z" fill="#64BB5C" fill-opacity="1.000000" fill-rule="nonzero"/>
	</g>
</svg>
