<?xml version="1.0" encoding="utf-8"?>
<!-- Generator: Adobe Illustrator 24.2.0, SVG Export Plug-In . SVG Version: 6.00 Build 0)  -->
<svg version="1.1" id="图层_1" xmlns="http://www.w3.org/2000/svg" xmlns:xlink="http://www.w3.org/1999/xlink" x="0px" y="0px"
	 viewBox="0 0 291.2 255" style="enable-background:new 0 0 291.2 255;" xml:space="preserve">
<style type="text/css">
	.st0{fill:#E1E1E1;}
</style>
<path class="st0" d="M289.2,86.3l-44.2-69.8c-3.9-6.2-12-7.9-18-4L6.1,152.2c-6.2,3.9-7.9,12-4.1,18l44.2,69.8c3.9,6,12,7.8,18,4
	l220.8-139.6C291.3,100.6,293.1,92.5,289.2,86.3z M280.5,96.8L59.7,236.5c-2,1.2-4.5,0.6-5.7-1.3L9.7,165.5
	c-1.2-1.9-0.6-4.5,1.4-5.7L231.9,20.2c1.9-1.2,4.5-0.6,5.7,1.4l44.2,69.8C282.9,93.1,282.3,95.6,280.5,96.8z M90.1,52.6l3.6,8.9
	l4.8-8.2l9.5-0.8l-6.4-7l2.2-9.3L95.1,40L87,35l1.1,9.5l-7.2,6.2C80.8,50.6,90.1,52.6,90.1,52.6z M146.4,26.5l-4.5-8.4l-3.9,8.7
	l-9.4,1.8l7,6.3l-1.2,9.5l8.2-4.8l8.6,4.1l-2-9.3l6.6-6.9C155.8,27.4,146.4,26.5,146.4,26.5z M232,166.7l-7.5-5.9v9.4l-7.9,5.4
	l9.1,3l2.7,9.1l5.7-7.6l9.6,0.3l-5.6-7.8l3.3-8.9L232,166.7L232,166.7z M201.3,204.5l-3.6-8.9l-4.8,8.2l-9.4,0.8l6.3,7.1l-2.2,9.3
	l8.7-3.8l8.1,5.1l-0.9-9.4l7.2-6.1L201.3,204.5L201.3,204.5z M144.7,230.3l4.5,8.4l3.9-8.7l9.4-1.7l-7.1-6.4l1.4-9.4l-8.2,4.7
	l-8.6-4.2l2,9.3l-6.6,6.9L144.7,230.3L144.7,230.3z M60.3,89.5l7.5,5.8l0.2-9.5l7.9-5.3l-9-3l-2.5-9.2L58.5,76l-9.6-0.3l5.5,7.8
	l-3.3,9C51.1,92.3,60.3,89.5,60.3,89.5z M26.7,130.6c-1-40.3,18.6-80.1,55.1-103.2s80.9-23.7,117-5.7l8.7-5.6
	c-10.7-6-22.2-10.4-34.2-13c-16.2-3.6-32.6-4-48.9-1.4c-16.8,2.8-32.7,8.8-47.2,18.2c-14.6,9.1-26.9,21-36.6,35
	c-9.4,13.5-16,28.7-19.6,44.7c-2.7,12-3.6,24.3-2.8,36.5C18,136,26.7,130.6,26.7,130.6z M263.8,124.4c1,40.4-18.6,80.1-55.1,103.2
	s-80.8,23.7-117,5.7l-8.7,5.6c10.7,6,22.2,10.4,34.2,13.1c16.2,3.6,32.5,4.1,48.9,1.3c16.8-2.9,32.7-8.8,47.2-18
	c14.5-9.1,26.9-21,36.6-34.9c9.4-13.5,16.1-28.6,19.7-44.7c2.7-12.1,3.6-24.3,2.9-36.5L263.8,124.4L263.8,124.4z M108.1,68.9
	c10.2-6.4,21.4-9.9,32.7-10.6l13.5-8.6c-17.8-2.1-35.7,2-51,11.7s-26.5,24.2-32.2,41.1L84.6,94C90,84.1,97.9,75.4,108.1,68.9z
	 M182.4,186.1c-10.2,6.4-21.4,9.9-32.7,10.6l-13.5,8.6c17.8,2.1,35.5-1.9,51-11.7c15.3-9.7,26.6-24.1,32.2-41.1l-13.5,8.6
	C200.5,170.9,192.6,179.6,182.4,186.1z"/>
<path class="st0" d="M108.9,154.4L78,174.5l8.7,13.5c1.2,1.8,2.7,2.1,4.3,1l25.1-16.2c0.8-0.5,1.3-1.3,1.6-2.4
	c0.3-1-1.2-4.4-4.2-9.8l6.2-1.7c3.4,6.7,5.1,11.1,4.8,12.9c-0.4,1.9-1.6,3.6-3.6,4.9l-28,18c-4.3,2.9-7.9,1.9-10.8-2.5l-16.9-26.1
	l5.2-3.4l4.3,6.6l25.7-16.6l-7.5-11.4l-33.2,21.4l-3.3-5.1l38.4-24.9L108.9,154.4L108.9,154.4z M151.2,100l7.9,12.2l-5.2,3.5
	l-4.7-7.1l-33,21.4l4.5,7.1l-5.2,3.4l-7.9-12.1l18.6-12c-1.4-1.1-2.7-2-4.2-2.7l5.4-4.9c1.7,1.2,3.3,2.6,4.8,3.8
	C132.1,112.4,151.2,100,151.2,100z M119.5,147.2l44.2-28.6l3.3,5.1l-13.5,8.8l6.4,9.9c1.1,1.5,2.1,1.8,3.3,1.1l6.1-4.1
	c0.4-0.3,0.6-0.9,0.4-1.8c-0.3-0.9-1.5-3.2-3.4-6.4l6-1.7c3,5.4,4.4,8.9,4,10.4c-0.3,1.5-1.2,2.7-2.9,3.9l-8.9,5.7
	c-3.6,2.4-6.7,1.5-9.4-2.7l-7.2-10.9l-7.2,4.7c3,5.1,4.2,9.9,3.6,14.6c-0.8,4.4-3.3,9.1-7.8,14.1l-6.1-2.7c4.5-4.9,7.1-8.9,7.6-12.1
	c0.5-3.4-0.4-6.9-2.4-10.5l-13.1,8.4L119.5,147.2L119.5,147.2z M121.2,133l28.7-18.6l3.3,5.1l-28.7,18.6L121.2,133z M189.4,67.7
	c3.1,0.3,6.3,0.8,9.1,1.5l-0.8,3.9l6-3.9l3.3,5l-14.8,9.6c4.2,5.6,7.8,9.8,10.5,12.3c0.3,0.3,0.9,0.9,1.9,1.6
	c-0.3-4.8-1.2-9.9-2.9-15.3l6.2-1.1c2.2,7.6,3.1,14.7,3,21.2c1,0.8,2.1,1.2,3.1,1.6c2.9,1.2,4.7,1.7,5.4,1.2c0.6-0.3-0.5-3.2-3-8.4
	l6.4-0.4c3.3,7.9,3.8,12.7,1.2,14.4c-2.2,1.3-5.6,1.5-9.9,0c-1.5-0.5-2.9-1.1-3.9-1.7c-0.9,5.8-3,11.1-6.1,15.8l-5.9-2.4
	c3.3-5.2,5.4-10.8,6.1-17.1c-1.6-1.2-3.6-2.7-5.6-4.5c-3.6-3.2-7.6-7.8-12-13.7l-15.9,10l4.5,7.1l12.3-7.9c6,9.5,9.3,15.6,9.9,18.5
	c0.6,2.6-0.5,4.8-3.2,6.6c-1,0.8-2.4,1.5-4.2,2.4l-4.7-3.8c2.4-1.3,4.1-2.2,5.2-3c0.8-0.6,1.1-1.5,0.6-2.5c-0.4-1.2-2.2-4.5-5.5-9.8
	l-7.1,4.7c5.9,9.5,8.7,18.3,8.4,26.5l-6.3-1c0.2-6.6-2.4-14-7.5-22.4l-11.1-16.8l20.7-13.5c-1-1.5-2.7-3.9-4.8-7.2l5.4-3.5
	c1.7,2.6,3.3,5,4.9,7.2l7.1-4.7c-2.2-0.6-4.9-1.1-7.7-1.3L189.4,67.7L189.4,67.7z"/>
</svg>
