<?xml version="1.0" encoding="utf-8"?>
<!-- Generator: Adobe Illustrator 24.2.0, SVG Export Plug-In . SVG Version: 6.00 Build 0)  -->
<svg version="1.1" id="图层_1" xmlns="http://www.w3.org/2000/svg" xmlns:xlink="http://www.w3.org/1999/xlink" x="0px" y="0px"
	 viewBox="0 0 342.2 300" style="enable-background:new 0 0 342.2 300;" xml:space="preserve">
<style type="text/css">
	.st0{fill:#E1E1E1;}
</style>
<path class="st0" d="M338.9,101.3l-51.8-81.8c-4.5-7.1-14-9.2-21.1-4.7L7.1,178.5C0,183-2.1,192.4,2.3,199.6l51.9,81.8
	c4.5,7.1,14,9.2,21.1,4.7l258.8-163.7C341.3,117.9,343.4,108.4,338.9,101.3C338.9,101.3,338.9,101.3,338.9,101.3z M328.6,113.6
	L69.8,277.3c-2.3,1.4-5.3,0.8-6.7-1.5c0,0,0,0,0,0L11.2,194c-1.4-2.3-0.8-5.3,1.5-6.7c0,0,0,0,0,0L271.5,23.5
	c2.3-1.4,5.3-0.8,6.7,1.5c0,0,0,0,0,0l51.9,81.8C331.5,109.1,330.9,112.1,328.6,113.6L328.6,113.6z M105.5,61.7l4.3,10.3l5.6-9.7
	l11.1-0.9l-7.5-8.3l2.5-10.8l-10.1,4.6l-9.6-5.8l1.2,11.1l-8.5,7.2C94.6,59.4,105.5,61.7,105.5,61.7z M171.4,31l-5.3-9.8l-4.5,10.2
	l-11,2.1l8.3,7.4L157.4,52l9.7-5.6l10.1,4.8l-2.3-11l7.7-8.1L171.4,31L171.4,31z M271.9,195.4l-8.8-6.8l0,11.2l-9.2,6.2l10.6,3.5
	l3.1,10.7l6.6-9l11.2,0.3l-6.6-9.1l3.8-10.5L271.9,195.4L271.9,195.4z M235.8,239.8l-4.2-10.3l-5.7,9.6l-11.1,0.8l7.4,8.3l-2.6,10.8
	l10.2-4.5l9.5,5.9l-1.1-11.1l8.5-7.2L235.8,239.8L235.8,239.8z M169.6,270.1l5.3,9.9l4.6-10.2l11-2l-8.2-7.5l1.5-11.1l-9.7,5.5
	l-10-4.9l2.2,10.9l-7.8,8.1L169.6,270.1L169.6,270.1z M70.5,104.9l8.8,6.9l0.1-11.2l9.3-6.2l-10.6-3.6L75.1,80L68.4,89l-11.2-0.4
	l6.5,9.1l-3.9,10.5L70.5,104.9z M31.2,153C30,105.8,53,59.1,95.8,32.1s94.8-27.9,137.1-6.6l10.2-6.4C171-21.3,79.9,4.5,39.6,76.6
	c-14.1,25.2-20.6,54-18.7,82.9L31.2,153L31.2,153z M309.2,145.8c1.2,47.2-21.7,93.9-64.5,121c-42.8,27.1-94.8,27.8-137.1,6.6
	l-10.2,6.5c72.1,40.3,163.1,14.5,203.4-57.6c7-12.6,12.2-26.1,15.4-40.2c3.2-14,4.3-28.5,3.3-42.8L309.2,145.8L309.2,145.8z
	 M126.7,80.8c11.5-7.3,24.7-11.6,38.4-12.4l15.8-10c-43.1-5-83.8,20.7-97.7,61.8l15.8-10C105.6,98.2,115.1,88.1,126.7,80.8
	C126.7,80.8,126.7,80.8,126.7,80.8z M213.7,218.1c-11.5,7.3-24.7,11.6-38.4,12.4l-15.8,10c43.1,5,83.8-20.7,97.7-61.8l-15.8,10
	C234.9,200.7,225.3,210.8,213.7,218.1L213.7,218.1L213.7,218.1z"/>
<path class="st0" d="M133.5,211.2c2.6-1.8,4.1-3.8,4.8-6.2c0.4-2.3-1.5-7.9-5.8-16.5l-7.2,1.8c3.8,7,5.6,11.3,5.2,12.9
	c-0.4,1.3-1.3,2.4-2.4,3.1l-32.2,20.1c-2.5,1.5-4.4,1.1-6-1.4l-11.1-17.7l40-25l-16.9-27.1L53,185.8l3.7,5.9L99.2,165l9.6,15.3
	l-33.7,21.1l-5.5-8.8l-6.2,3.9l21,33.5c3.5,5.7,8,6.8,13.5,3.4L133.5,211.2z M186.4,180.8l-7-11.2l4.6-4.7l-3.8-6.1
	c-1.5,1.5-3,3.1-4.6,4.7l-21.4-34.3l3.9-2.5l2.3,3.7l2.6-1.6c7.4,9.9,16.1,17.9,26.2,24c0.1,7.4-1.1,14.8-3.7,21.8l7.2,2.2
	c2.3-6.4,3.5-13,3.8-20.1c5.5,2.7,11.5,4.8,18.1,6.4l1.2-7.3c-6.9-1.4-13.4-3.7-19.5-6.9c-1-10.9-4.4-22.5-10.2-34.9l-3.5-5.6
	l-25.3,15.8l-2.2-3.5L124,140.2l3.6,5.7l4.6-2.9l24,38.4l-5,4l5.2,5.1c6.1-5.2,12-10.5,17.8-16l6.2,9.9L186.4,180.8L186.4,180.8z
	 M153.6,141.5l-10.1,6.3l-5.3-8.5l10.1-6.3L153.6,141.5z M188.6,144.6c-7.4-5-14-11.4-20-19.2l11.9-7.4
	C184.7,127.1,187.4,136,188.6,144.6z M162.3,155.5l-10.1,6.3l-5.3-8.5L157,147L162.3,155.5L162.3,155.5z M161.6,176.8l-5.9-9.5
	l10.1-6.3l4.8,7.6C167.6,171.4,164.6,174.1,161.6,176.8z M260.1,134.4l-8.5-13.5l21.1-13.2l3,4.8c1.2,1.9,0.8,3.5-1,4.7l-6.9,4
	l5.3,4.9l7.2-4.5c4.6-2.9,5.4-6.8,2.4-11.6l-21.4-34.3l-13.7,8.5l-10.8-17.2l-6.2,3.9L241.4,88l-13.5,8.5l26.1,41.7L260.1,134.4
	L260.1,134.4z M218,98.8l1.6-7.1c-5.1-1.3-10.8-2.1-17.3-2.6l-1.7,7C207.7,96.5,213.4,97.4,218,98.8L218,98.8z M255.5,76.7
	c0.6-5.6,0.7-11,0-16.1l-6.5,0.7c0.7,4.9,0.8,10.1,0.2,15.8L255.5,76.7L255.5,76.7z M230.2,91.5l3.3-5.4c-4.4-2.4-8.9-4.6-13.5-6.6
	l-3.6,5.6C221,86.8,225.5,88.9,230.2,91.5L230.2,91.5z M225.1,115.5l1.6-7.1c-4.9-1.5-10.4-2.5-16.6-3.1l-1.7,7
	C215,113,220.6,114.1,225.1,115.5z M262.5,91.3l-21.1,13.2l-3.7-5.9l21.1-13.2L262.5,91.3L262.5,91.3z M238.9,147.2
	c-0.8-10-2.3-20-4.3-29.8l-6.7,1.3c1.8,9.7,3.1,19.5,3.7,29.5L238.9,147.2L238.9,147.2z M269.5,102.4l-21.1,13.2l-3.7-5.9l21.1-13.2
	C265.8,96.5,269.5,102.4,269.5,102.4z"/>
</svg>
