<?xml version="1.0" encoding="utf-8"?>
<!-- Generator: Adobe Illustrator 24.2.0, SVG Export Plug-In . SVG Version: 6.00 Build 0)  -->
<svg version="1.1" id="图层_1" xmlns="http://www.w3.org/2000/svg" xmlns:xlink="http://www.w3.org/1999/xlink" x="0px" y="0px"
	 viewBox="0 0 215.6 243.8" style="enable-background:new 0 0 215.6 243.8;" xml:space="preserve">
<style type="text/css">
	.st0{fill:#444444;}
</style>
<path class="st0" d="M196.9,18.8c-10.3,0-18.8,8.4-18.8,18.8s8.4,18.8,18.8,18.8s18.8-8.4,18.8-18.8S207.2,18.8,196.9,18.8"/>
<path class="st0" d="M46.9,112.5h112.5V93.8H46.9V112.5z"/>
<path class="st0" d="M46.9,150h75v-18.8h-75V150z"/>
<path class="st0" d="M46.9,187.5h75v-18.8h-75V187.5z"/>
<path class="st0" d="M187.5,75v150H18.8V37.5h28.1v18.8h112.5V0H46.9v18.8H9.4c-5.6,0-9.4,3.8-9.4,9.4v206.2c0,5.6,3.8,9.4,9.4,9.4
	h187.5c5.6,0,9.4-3.8,9.4-9.4V75H187.5z M65.6,18.8h75v18.8h-75V18.8z"/>
</svg>
