<?xml version="1.0" encoding="utf-8"?>
<!-- Generator: Adobe Illustrator 24.2.0, SVG Export Plug-In . SVG Version: 6.00 Build 0)  -->
<svg version="1.1" id="图层_1" xmlns="http://www.w3.org/2000/svg" xmlns:xlink="http://www.w3.org/1999/xlink" x="0px" y="0px"
	 viewBox="0 0 225 253.1" style="enable-background:new 0 0 225 253.1;" xml:space="preserve">
<style type="text/css">
	.st0{fill:#444444;}
</style>
<path class="st0" d="M18.8,196.9V182l16.5-16.5L48.8,152l0,0l-0.1-0.1c-7.3-11.8-11.2-25.4-11.2-39.3c0-41.4,33.6-75,75-75
	s75,33.6,75,75c0,14.4-4.1,27.9-11.2,39.3l-0.1,0.1l0,0l13.5,13.5l16.5,16.5v14.9H18.8z M112.5,234.4c-10.4,0-18.8-8.4-18.8-18.8
	h37.5C131.2,226,122.9,234.4,112.5,234.4z M222.3,171.5l-23.2-23.2c4.7-11.4,7.2-23.5,7.2-35.8c0-48.5-37.1-88.6-84.4-93.3V0h-18.8
	v19.2C55.8,23.9,18.8,64,18.8,112.5c0,12.7,2.6,24.8,7.2,35.8L2.7,171.5C1,173.2,0,175.6,0,178.1v37.5h75
	c0,20.7,16.8,37.5,37.5,37.5s37.5-16.8,37.5-37.5h75v-37.5C225,175.5,224,173.2,222.3,171.5z"/>
</svg>
