<?xml version="1.0" encoding="utf-8"?>
<!-- Generator: Adobe Illustrator 24.2.0, SVG Export Plug-In . SVG Version: 6.00 Build 0)  -->
<svg version="1.1" id="图层_1" xmlns="http://www.w3.org/2000/svg" xmlns:xlink="http://www.w3.org/1999/xlink" x="0px" y="0px"
	 viewBox="0 0 262.5 262.5" style="enable-background:new 0 0 262.5 262.5;" xml:space="preserve">
<style type="text/css">
	.st0{fill:#888888;}
</style>
<path class="st0" d="M131.2,243.8c-62.1,0-112.5-50.4-112.5-112.5S69.1,18.8,131.2,18.8s112.5,50.4,112.5,112.5
	S193.4,243.8,131.2,243.8 M131.2,0C58.9,0,0,58.9,0,131.2s58.9,131.2,131.2,131.2s131.2-58.9,131.2-131.2S203.6,0,131.2,0"/>
<path class="st0" d="M176.2,73.1L131.2,118L86.3,73.1L73.1,86.3l44.9,44.9l-44.9,44.9l13.3,13.3l44.9-44.9l44.9,44.9l13.3-13.3
	l-44.9-44.9l44.9-44.9L176.2,73.1z"/>
</svg>
