<?xml version="1.0" standalone="no"?><!DOCTYPE svg PUBLIC "-//W3C//DTD SVG 1.1//EN" "http://www.w3.org/Graphics/SVG/1.1/DTD/svg11.dtd">
<svg t="1731979346903" class="icon" viewBox="0 0 1024 1024" version="1.1" xmlns="http://www.w3.org/2000/svg" p-id="3363"
     width="216" height="216"><path d="M823.675016 259.476519c8.889703 16.655835-10.570567-29.518489-45.023786-29.518489l-533.139512 0.224714c-19.891723 0-33.671212 9.995298-45.239512 28.340986S91.204804 429.450524 91.204804 461.746484v207.303569c0.116852 32.35888 26.066875 58.578561 58.030258 58.488675h725.477099c31.936417 0.089886 57.913406-26.066875 58.021269-58.488675V461.746484c0-32.29596-109.058414-202.243-109.058414-202.242999zM633.216042 445.737827a27.073596 27.073596 0 0 0-27.514036 20.431037c0 1.51907 0.206737 3.011174 0.206737 4.494289 0 52.861826-42.246315 95.728353-94.380066 95.728353s-94.380066-42.866527-94.380067-95.728353c0-1.914567 0.215726-3.784191 0.3146-5.707747-6.732445-19.127693-26.821916-19.217579-26.821916-19.217579H141.540839l84.375779-157.659654s15.460354-28.296043 37.248667-27.433139h502.587336c17.518738 0 20.520923 6.408856 33.140887 27.433139l85.76002 157.767517H633.287951zM330.300972 147.083343l-64.133502-61.751529a17.590647 17.590647 0 0 1-0.593246-24.628704 16.997401 16.997401 0 0 1 24.269159-0.6292l64.070583 61.751529a17.581658 17.581658 0 0 1 0.6292 24.610726 16.970435 16.970435 0 0 1-24.26916 0.629201z m176.661507-27.289322a17.437841 17.437841 0 0 1-5.312249-12.161546l-2.301076-89.670052a17.186161 17.186161 0 1 1 34.354344-0.898858l2.265122 89.661064a17.303012 17.303012 0 0 1-16.718755 17.833338 17.078298 17.078298 0 0 1-12.224466-4.763946z m166.288689 24.071411a17.57267 17.57267 0 0 1-0.629201-24.592749l60.86166-65.113257a16.997401 16.997401 0 0 1 24.26916-0.638189 17.590647 17.590647 0 0 1 0.611223 24.64668l-60.870648 65.059326a16.988412 16.988412 0 0 1-24.26916 0.638189zM185.989356 949.340873v-17.977155l-43.891225 4.844843-1.123572-10.714385q9.051498-0.835938 20.60182-1.95951t24.412977-2.417927v-16.592915H162.690963q-12.215477 0-15.280583 2.606688a49.805709 49.805709 0 0 0-1.590978-5.635838 53.931467 53.931467 0 0 0-2.417927-6.202119 8.880715 8.880715 0 0 0 4.656083-2.606687 52.448351 52.448351 0 0 0 4.943718-5.590896c0.898858-1.123572 2.220179-2.921288 4.053848-5.393146s3.775203-5.393147 5.824599-8.85375H140.641981v-10.157092h28.385929q1.689853-3.451614 3.406671-6.804354c1.150538-2.238156 2.247144-4.494289 3.307796-6.894239l12.584009 3.820146q-1.501092 2.516802-2.894322 4.934729c-0.898858 1.617944-1.89659 3.262854-2.885333 4.943718h45.841746V872.866054h-52.133751q-3.999917 5.68977-7.972868 11.046962t-8.08972 10.11215h25.716321v-12.584009h12.026717v12.584009h30.561164v10.534613h-30.561164v15.469342L227.831186 916.910085l0.18876 9.689686-30.012861 3.451614v19.289488z m-21.896175 74.101835v-70.461461h123.305309v70.110907h-12.673894v-6.516719H176.110909v6.894239z m110.631415-60.223471H176.110909v16.691789h98.613687z m-98.613687 43.145173h98.613687v-17.150206H176.110909zM310.885644 892.488119l-0.278646 10.624499h-22.830987v45.670963h-11.837957v-45.670963h-26.965734a129.43552 129.43552 0 0 1-4.143734 24.053434 57.850486 57.850486 0 0 1-10.957076 21.806289 53.158449 53.158449 0 0 0-4.656084-3.541499 26.534282 26.534282 0 0 0-5.222363-2.984208 53.329232 53.329232 0 0 0 8.988578-16.637857 85.166774 85.166774 0 0 0 3.820145-18.031087q0.898858-9.051498 0.898858-16.871561v-28.430871q10.534613-0.835938 21.716404-2.229168t21.204055-3.361728a138.675778 138.675778 0 0 0 17.015377-4.287551l7.289737 9.482949a169.991983 169.991983 0 0 1-25.91407 5.680781q-15.001936 2.238156-29.662306 3.451614v21.248998zM443.700869 1006.795862h34.956579q4.835855 0 7.271759-2.238156t3.442625-8.808806a180.841196 180.841196 0 0 0 1.492104-19.622065 25.437675 25.437675 0 0 0 5.869542 3.128025 62.147027 62.147027 0 0 0 6.345936 2.184224q-0.853915 15.010925-2.984208 23.208508t-6.993114 11.424482q-4.844843 3.208922-13.698592 3.208923h-36.628455q-9.509915 0-14.732279-1.797716a11.810991 11.810991 0 0 1-7.271759-6.292004q-2.049396-4.494289-2.049396-12.584009v-66.919962H413.894745a157.219214 157.219214 0 0 1-12.530077 35.954311 110.442655 110.442655 0 0 1-23.864674 31.873497q-15.334514 14.444644-39.75648 24.323092a39.226153 39.226153 0 0 0-3.766214-5.545953 31.657771 31.657771 0 0 0-4.7999-4.979672q22.732113-8.575103 37.140803-21.392815a101.067568 101.067568 0 0 0 22.534364-28.269077 133.929809 133.929809 0 0 0 12.07166-32.017314h-69.436763v-12.673895h71.764805A206.683357 206.683357 0 0 0 405.805025 896.685785q0.647178-11.190779 1.114584-21.626518h-63.414416v-12.395249h146.990212v12.395249h-70.838982q-0.476395 10.435739-1.213458 21.626518t-2.417927 22.273695h85.463397v12.673895h-69.805295v66.919961c0 3.361728 0.755041 5.56393 2.283099 6.624582s4.763946 1.617944 9.73463 1.617944zM561.882689 932.190667v-24.691623a123.844624 123.844624 0 0 1-16.350223 16.772686 103.656279 103.656279 0 0 1-18.228835 12.673894 29.149958 29.149958 0 0 0-3.16398-5.168432 41.239595 41.239595 0 0 0-3.91902-4.61114 87.980199 87.980199 0 0 0 20.556878-13.051415 96.546314 96.546314 0 0 0 17.078297-18.174904h-35.864425v-10.723374h39.891308V849.495751h11.837957v35.693643h39.549742v10.723373h-37.500346q3.550488 2.049396 8.206571 4.988661t9.455984 6.058301q4.799901 3.110048 8.629035 5.680781c2.543768 1.70783 4.404403 3.002185 5.590895 3.865089l-7.082999 9.393063c-1.617944-1.546035-3.945986-3.5415-6.993114-5.959427s-6.292004-4.970683-9.887435-7.640291-6.867273-5.132478-9.977321-7.370634V932.190667z m37.374507 68.510939l-8.008823 8.575104a84.807231 84.807231 0 0 0-7.694223-5.393147q-4.42238-2.786459-9.267223-5.492021a107.800013 107.800013 0 0 1-22.417513 14.165999 147.51155 147.51155 0 0 1-25.123075 9.132395 34.794784 34.794784 0 0 0-2.606688-5.078547 21.833255 21.833255 0 0 0-3.541499-4.61114 114.595378 114.595378 0 0 0 43.333933-19.109717q-7.262771-3.73026-14.903062-7.271759t-14.633405-6.058301q2.975219-4.494289 6.193131-9.788562t6.202118-11.091905h-20.79058v-10.786293h26.066875q1.573001-3.35274 2.885334-6.390879a56.69096 56.69096 0 0 0 2.238156-6.103244l11.280665 2.14827a49.437178 49.437178 0 0 1-1.95951 5.078547q-1.123572 2.471859-2.426916 5.267306h32.439777l2.139281-0.467406 7.083 2.885334a102.469786 102.469786 0 0 1-9.60879 22.327627 100.600162 100.600162 0 0 1-13.482867 18.07603q4.745969 2.615676 9.04251 5.222363t7.559394 4.763946z m-47.900131-121.444674l-9.509916 4.188678A89.984652 89.984652 0 0 0 537.03826 871.427881a95.692399 95.692399 0 0 0-7.397599-12.943552l9.132395-3.820145a94.80253 94.80253 0 0 1 7.685234 12.539066 59.081922 59.081922 0 0 1 4.898775 12.053682z m39.891308 79.405096h-32.439777q-2.049396 4.287552-4.377438 8.485218t-4.566197 7.739165q5.680781 2.507813 11.559311 5.168432t11.271676 5.393147a75.971459 75.971459 0 0 0 10.624499-12.116603 70.110906 70.110906 0 0 0 7.927926-14.669359z m5.680781-105.166359l10.723373 4.754957q-4.10778 6.624582-8.53016 13.27613a136.087067 136.087067 0 0 1-8.431286 11.514368l-8.206572-4.008906q3.550488-5.123489 7.784109-12.485135a125.723237 125.723237 0 0 0 6.660536-13.01546zM691.641798 898.54642h-12.970518a323.516891 323.516891 0 0 1-8.3414 39.612662 177.155879 177.155879 0 0 1-12.584009 32.718423 118.451478 118.451478 0 0 0 16.817629 24.134332 80.510691 80.510691 0 0 0 21.572587 16.970435 26.309567 26.309567 0 0 0-4.566198 4.566197 51.909037 51.909037 0 0 0-3.820145 5.312249 87.000444 87.000444 0 0 1-20.547889-16.736731 127.880496 127.880496 0 0 1-16.269326-22.597285 121.139062 121.139062 0 0 1-19.711951 23.208508 130.44224 130.44224 0 0 1-26.066875 18.26479q-1.024698-1.860636-3.217911-5.123489a29.716238 29.716238 0 0 0-4.053849-5.033604 110.685346 110.685346 0 0 0 27.217414-18.498493 106.964075 106.964075 0 0 0 19.478248-24.655669 198.647568 198.647568 0 0 1-9.779573-24.934314q-4.305529-13.375004-7.550405-28.098294a129.129908 129.129908 0 0 1-13.482867 26.372487c-0.997732-0.988744-2.498825-2.292087-4.494289-3.910032a61.391986 61.391986 0 0 0-5.078546-3.730259 108.312362 108.312362 0 0 0 12.584009-23.532097A219.006697 219.006697 0 0 0 626.02518 883.778187q3.829134-15.61316 6.247062-32.206074l11.469425 1.797715q-1.312332 8.575103-2.894322 16.961447t-3.73026 16.404154H691.641798z m-24.979258 0h-32.260005q2.885333 16.17944 7.082999 31.226319a218.970743 218.970743 0 0 0 9.887435 28.143237 172.185195 172.185195 0 0 0 9.177338-27.307299 306.95993 306.95993 0 0 0 6.094256-32.062257zM767.963811 933.089525l1.797716 11.469425q-5.393147 1.950521-11.046962 3.820145t-11.136848 3.595431v55.360651q0 5.50101-1.402218 8.350389a9.67171 9.67171 0 0 1-4.656083 4.42238 25.545538 25.545538 0 0 1-8.898692 2.004453q-5.554941 0.422463-14.588462 0.233703-0.467406-2.238156-1.492104-5.635839a38.219433 38.219433 0 0 0-2.328042-6.013358q6.426833 0.18876 11.50538 0.18876t6.57065-0.18876q3.451614 0 3.451614-3.361728v-51.351745l-23.298393 7.640291-3.361728-12.206488q5.393147-1.501092 12.26042-3.595431t14.381724-4.665072v-42.875516h-24.26916v-11.802003h24.26916v-38.767736h11.828968v38.767736h21.99505v11.837957H747.550751v39.334016z m116.689717 5.869541h-43.145173v24.52084h37.005974v59.549328h-11.685151v-7.451531h-60.843683v8.197583h-11.271676v-60.29538h34.75883v-24.52084h-39.145256q-0.835938 14.174987-3.163979 29.13198a180.589516 180.589516 0 0 1-7.083 29.221867 104.564125 104.564125 0 0 1-12.862655 26.066875 25.275881 25.275881 0 0 0-4.844843-3.910031c-2.175236-1.438172-3.91902-2.489836-5.222364-3.172968a98.97323 98.97323 0 0 0 11.685151-23.864674 161.156211 161.156211 0 0 0 6.381891-26.372487 247.23982 247.23982 0 0 0 2.696573-26.561247q0.602235-13.051415 0.602235-24.421966v-56.978595h99.422658v47.90912h-36.439694v21.806289h43.145173z m-93.948615-11.181791h38.767736v-21.80629h-38.578976v15.325526q0 3.163979-0.18876 6.516718z m75.216419-58.623504h-75.027659v25.72531h75.027659z m0.898858 135.727524v-30.561164h-60.834695v30.561164z" fill="#9e9e9e" p-id="3364"></path></svg>