<svg width="54.000000" height="50.279602" viewBox="0 0 54 50.2796" fill="none" xmlns="http://www.w3.org/2000/svg">
	<desc>
			Created with Pixso.
	</desc>
	<defs/>
	<path d="M51.93 34.97L51.61 34.67L44.48 29.39C41.86 27.37 38.11 27.55 35.67 29.82L33.29 32.02C30.34 30.29 27.84 28.47 25.68 26.48C23.56 24.49 21.63 22.21 19.78 19.52L21.96 17.24C21.98 17.22 22 17.2 22.02 17.18C24.42 14.97 24.57 11.24 22.36 8.84L16.79 2.34C14.58 -0.33 10.42 -0.78 7.52 1.29L7.37 1.42C7.43 1.36 7.49 1.33 7.34 1.42C7.13 1.54 6.95 1.71 6.82 1.92L2.18 6.24C-3.46 11.49 2.25 25.62 14.36 36.86C26.37 48.01 41.52 53.39 47.09 48.41L51.97 43.88C54.68 41.36 54.68 37.31 51.93 34.97ZM49.67 41.41L44.83 45.92C43.89 46.73 42.33 46.91 41.18 46.91C34.67 46.91 24.58 41.76 16.65 34.39C7.53 25.92 3.37 16.86 3.36 12.03C3.36 10.51 3.74 9.39 4.47 8.71L9.44 4.09L9.47 4.05L9.55 3.99C10.14 3.59 10.87 3.36 11.62 3.36C12.66 3.36 13.6 3.77 14.19 4.49L19.84 11.08L19.88 11.13C20.11 11.37 20.28 11.65 20.4 11.97C20.51 12.28 20.57 12.61 20.55 12.95C20.54 13.28 20.46 13.6 20.32 13.91C20.18 14.21 19.99 14.48 19.74 14.71L19.64 14.8L19.52 14.91L15.45 19.16L17 21.42C19.01 24.35 21.1 26.8 23.39 28.94C25.72 31.1 28.39 33.05 31.58 34.93L33.74 36.2L37.96 32.28C38.28 31.99 38.65 31.75 39.06 31.59C39.47 31.43 39.9 31.35 40.34 31.36C41.11 31.36 41.82 31.6 42.41 32.05L42.47 32.1L49.45 37.26L49.68 37.48L49.74 37.53C50.45 38.13 50.61 38.84 50.62 39.32C50.64 40.09 50.3 40.83 49.67 41.41Z" fill="#000000" fill-opacity="1.000000" fill-rule="nonzero"/>
	<path d="M39.95 23.75C38.95 23.75 38.29 23.15 38.29 22.22C38.28 18.46 34.98 15.4 30.95 15.39C29.94 15.39 29.29 14.79 29.29 13.86C29.29 12.93 29.94 12.33 30.96 12.33C36.82 12.34 41.6 16.78 41.62 22.22C41.62 23.15 40.96 23.75 39.95 23.75Z" fill="#007DFF" fill-opacity="1.000000" fill-rule="nonzero"/>
	<path d="M48.86 21.11C47.85 21.11 47.2 20.51 47.2 19.58C47.2 12.13 40.67 6.07 32.65 6.07C31.65 6.07 31 5.46 31 4.53C31 3.6 31.65 3 32.65 3C42.51 3 50.52 10.43 50.52 19.58C50.52 20.51 49.87 21.11 48.86 21.11Z" fill="#007DFF" fill-opacity="1.000000" fill-rule="nonzero"/>
</svg>
