<svg width="44.862366" height="41.368286" viewBox="0 0 44.8624 41.3683" fill="none" xmlns="http://www.w3.org/2000/svg"
>
    <desc>
        Created with Pixso.
    </desc>
    <defs/>
    <path d="M31.25 23.63L31.25 41.36L34.98 41.36L34.98 34.92C40.93 35.01 43.95 34.75 44.79 29.67C45.05 28.18 44.52 26.51 43.86 25.6C41.9 22.94 35.99 23.6 31.25 23.63ZM34.98 31.91L34.98 26.74C37.74 26.65 40.67 26.35 41.15 28.58C41.95 32.32 38.08 32 34.98 31.91ZM24.08 23.72C24.12 29.59 24.12 35.5 24.16 41.36L27.8 41.36L27.8 23.63C26.57 23.69 25.34 23.69 24.08 23.72ZM31.13 0C25.38 5.73 19.66 11.42 13.87 17.16L13.87 0L0 0C0.04 1.13 0.04 2.31 0.08 3.46L3.46 3.46L3.46 41.34C17.25 27.54 31 13.79 44.79 0L31.13 0Z"
          fill="#FFFFFF" fill-opacity="1.000000" fill-rule="nonzero"/>
</svg>
