<svg width="200.001221" height="173.005371" viewBox="0 0 200.001 173.005" fill="none" xmlns="http://www.w3.org/2000/svg"
>
    <desc>
        Created with Pixso.
    </desc>
    <defs/>
    <g opacity="0.100000">
        <path d="M199.05 65.07L168 4.63C167.64 3.94 167.2 3.3 166.66 2.72C166.13 2.15 165.53 1.66 164.86 1.25C164.19 0.84 163.47 0.53 162.72 0.31C161.96 0.1 161.19 0 160.4 0L39.94 0C39.16 0 38.39 0.1 37.64 0.31C36.89 0.52 36.18 0.83 35.51 1.24C34.84 1.64 34.24 2.13 33.71 2.7C33.17 3.27 32.72 3.9 32.36 4.6L0.96 64.98C0.55 65.77 0.27 66.6 0.12 67.48C-0.03 68.36 -0.04 69.24 0.08 70.12C0.21 71.01 0.47 71.85 0.85 72.65C1.24 73.45 1.75 74.18 2.36 74.82L93.72 170.36C94.53 171.2 95.47 171.85 96.54 172.31C97.61 172.77 98.73 173 99.89 173C101.06 173 102.18 172.77 103.25 172.32C104.32 171.86 105.26 171.21 106.07 170.37L197.62 74.88C198.23 74.24 198.74 73.52 199.13 72.72C199.52 71.92 199.78 71.08 199.91 70.2C200.03 69.32 200.03 68.45 199.88 67.57C199.73 66.69 199.46 65.86 199.05 65.07ZM150.47 74.68L106.12 120.94C105.31 121.78 104.37 122.43 103.3 122.89C102.23 123.34 101.11 123.57 99.95 123.57C98.78 123.57 97.66 123.34 96.59 122.88C95.52 122.42 94.58 121.77 93.77 120.93L49.52 74.65C46.26 71.24 46.38 65.83 49.79 62.57C53.2 59.31 58.61 59.43 61.87 62.84L99.96 102.67L138.13 62.86C141.4 59.45 146.81 59.34 150.21 62.6C153.62 65.87 153.73 71.28 150.47 74.68Z"
              fill="#FFFFFF" fill-opacity="1.000000" fill-rule="nonzero"/>
    </g>
</svg>
