<svg xmlns="http://www.w3.org/2000/svg" width="24" height="24">
  <g>
    <path d="M12 22.99Q14.98 22.99 17.5 21.52Q20.02 20.04 21.5 17.51Q22.99 14.98 22.99 12Q22.99 9.02 21.5 6.49Q20.02 3.96 17.5 2.48Q14.98 1.01 12 1.01Q9.02 1.01 6.49 2.48Q3.96 3.96 2.47 6.49Q0.98 9.02 0.98 12Q0.98 14.98 2.47 17.51Q3.96 20.04 6.49 21.52Q9.02 22.99 12 22.99ZM12 2.5Q14.57 2.5 16.75 3.78Q18.94 5.06 20.21 7.25Q21.48 9.43 21.48 12Q21.48 14.57 20.21 16.75Q18.94 18.94 16.75 20.22Q14.57 21.5 12 21.5Q9.41 21.5 7.22 20.22Q5.04 18.94 3.77 16.75Q2.5 14.57 2.5 12Q2.5 9.43 3.77 7.25Q5.04 5.06 7.22 3.78Q9.41 2.5 12 2.5Z" fill="currentColor"/>
    <path d="M11 6h2v12h-2z" fill="currentColor"/>
    <path d="M6 11h12v2H6z" fill="currentColor"/>
  </g>
</svg>