<svg width="24.000000" height="24.000000" viewBox="0 0 24 24" fill="none" xmlns="http://www.w3.org/2000/svg" xmlns:xlink="http://www.w3.org/1999/xlink">
	<desc>
			Created with Pixso.
	</desc>
	<defs>
		<linearGradient x1="11.999998" y1="2.375122" x2="11.999998" y2="21.624863" id="paint_linear_93_264_0" gradientUnits="userSpaceOnUse">
			<stop stop-color="#FE4F35"/>
			<stop offset="1.000000" stop-color="#FE4F35" stop-opacity="0.400000"/>
		</linearGradient>
	</defs>
	<g opacity="0.000000">
		<rect width="24.000000" height="24.000000" fill="#D8D8D8" fill-opacity="1.000000"/>
		<rect width="24.000000" height="24.000000" stroke="#000000" stroke-opacity="0" stroke-width="1.000000"/>
	</g>
	<path d="M5.75 10.17L5.75 21.62L4.33 21.62C3.25 21.62 2.37 20.73 2.37 19.64L2.37 12.15C2.37 11.06 3.25 10.17 4.33 10.17L5.75 10.17ZM11.12 2.56C11.54 2.33 12.04 2.31 12.47 2.5C13.88 3.11 14.71 4.61 14.48 6.14L13.89 10.17L18.87 10.17C19.69 10.17 20.46 10.54 20.98 11.17C21.52 11.82 21.73 12.67 21.57 13.5L20.4 19.38C20.15 20.68 19.01 21.62 17.7 21.62L7.25 21.62L7.25 9.79L8.44 8.7C9.19 8 9.71 7.07 9.89 6.06L10.32 3.67C10.4 3.19 10.7 2.78 11.12 2.56Z" fill="url(#paint_linear_93_264_0)" fill-opacity="1.000000" fill-rule="evenodd"/>
</svg>
