<svg width="24.000000" height="24.000000" viewBox="0 0 24 24" fill="none" xmlns="http://www.w3.org/2000/svg" xmlns:xlink="http://www.w3.org/1999/xlink">
	<desc>
			Created with Pixso.
	</desc>
	<defs>
		<clipPath id="clip302_3732">
			<rect width="24.000000" height="24.000000" fill="white" fill-opacity="0"/>
		</clipPath>
	</defs>
	<g clip-path="url(#clip302_3732)">
		<path d="M0.75 11.99C0.75 10.23 0.74 8.47 0.75 6.71C0.74 5.86 0.85 5.02 1.06 4.19C1.52 2.45 2.66 1.41 4.4 1.01C5.27 0.82 6.16 0.73 7.06 0.75C10.43 0.75 13.8 0.75 17.17 0.75C18.02 0.74 18.87 0.84 19.7 1.04C21.49 1.48 22.57 2.61 22.98 4.4C23.17 5.25 23.25 6.11 23.24 6.98C23.24 10.38 23.24 13.79 23.24 17.2C23.25 18.04 23.15 18.88 22.96 19.7C22.52 21.5 21.37 22.57 19.58 22.98C18.71 23.17 17.82 23.26 16.92 23.24C13.57 23.24 10.21 23.24 6.86 23.24C6 23.25 5.14 23.15 4.31 22.96C2.5 22.52 1.42 21.38 1.01 19.58C0.8 18.66 0.75 17.75 0.75 16.82C0.75 15.21 0.75 13.6 0.75 11.99Z" fill="#FFFFFF" fill-opacity="0" fill-rule="nonzero"/>
		<path d="M0.75 6.71C0.74 5.86 0.85 5.02 1.06 4.19C1.52 2.45 2.66 1.41 4.4 1.01C5.27 0.82 6.16 0.73 7.06 0.75C10.43 0.75 13.8 0.75 17.17 0.75C18.02 0.74 18.87 0.84 19.7 1.04C21.49 1.48 22.57 2.61 22.98 4.4C23.17 5.25 23.25 6.11 23.24 6.98C23.24 10.38 23.24 13.79 23.24 17.2C23.25 18.04 23.15 18.88 22.96 19.7C22.52 21.5 21.37 22.57 19.58 22.98C18.71 23.17 17.82 23.26 16.92 23.24C13.57 23.24 10.21 23.24 6.86 23.24C6 23.25 5.14 23.15 4.31 22.96C2.5 22.52 1.42 21.38 1.01 19.58C0.8 18.66 0.75 17.75 0.75 16.82C0.75 15.21 0.75 13.6 0.75 11.99C0.75 10.23 0.74 8.47 0.75 6.71Z" stroke="#FFFFFF" stroke-opacity="0" stroke-width="1.500000"/>
		<path d="M0.75 11.99C0.75 10.23 0.74 8.47 0.75 6.71C0.74 5.86 0.85 5.02 1.06 4.19C1.52 2.45 2.66 1.41 4.4 1.01C5.27 0.82 6.16 0.73 7.06 0.75C10.43 0.75 13.8 0.75 17.17 0.75C18.02 0.74 18.87 0.84 19.7 1.04C21.49 1.48 22.57 2.61 22.98 4.4C23.17 5.25 23.25 6.11 23.24 6.98C23.24 10.38 23.24 13.79 23.24 17.2C23.25 18.04 23.15 18.88 22.96 19.7C22.52 21.5 21.37 22.57 19.58 22.98C18.71 23.17 17.82 23.26 16.92 23.24C13.57 23.24 10.21 23.24 6.86 23.24C6 23.25 5.14 23.15 4.31 22.96C2.5 22.52 1.42 21.38 1.01 19.58C0.8 18.66 0.75 17.75 0.75 16.82C0.75 15.21 0.75 13.6 0.75 11.99Z" fill="#000000" fill-opacity="0" fill-rule="nonzero"/>
		<path d="M0.75 6.71C0.74 5.86 0.85 5.02 1.06 4.19C1.52 2.45 2.66 1.41 4.4 1.01C5.27 0.82 6.16 0.73 7.06 0.75C10.43 0.75 13.8 0.75 17.17 0.75C18.02 0.74 18.87 0.84 19.7 1.04C21.49 1.48 22.57 2.61 22.98 4.4C23.17 5.25 23.25 6.11 23.24 6.98C23.24 10.38 23.24 13.79 23.24 17.2C23.25 18.04 23.15 18.88 22.96 19.7C22.52 21.5 21.37 22.57 19.58 22.98C18.71 23.17 17.82 23.26 16.92 23.24C13.57 23.24 10.21 23.24 6.86 23.24C6 23.25 5.14 23.15 4.31 22.96C2.5 22.52 1.42 21.38 1.01 19.58C0.8 18.66 0.75 17.75 0.75 16.82C0.75 15.21 0.75 13.6 0.75 11.99C0.75 10.23 0.74 8.47 0.75 6.71Z" stroke="#FFFFFF" stroke-opacity="0" stroke-width="1.500000"/>
		<circle cx="12.000000" cy="12.000000" r="12.000000" fill="#FFFFFF" fill-opacity="0"/>
		<circle cx="12.000000" cy="12.000000" r="12.000000" stroke="#000000" stroke-opacity="0" stroke-width="1.500000"/>
		<path d="M3.65 13.58L3.64 13.56C3.8 13.17 4.23 13 4.62 13.16C5.01 13.33 5.18 13.76 5.02 14.15L4.99 14.16L3.65 13.58ZM22.07 11.27L22.09 11.25C22.51 11.27 22.82 11.62 22.8 12.04C22.78 12.46 22.43 12.77 22.01 12.74L21.99 12.72L22.07 11.27Z" fill="#000000" fill-opacity="0" fill-rule="nonzero"/>
		<path d="M4.33 13.85L1.6 20.24C1.27 21 1.63 21.88 2.39 22.21C2.8 22.38 3.26 22.36 3.65 22.17L21.31 13.34C22.05 12.97 22.35 12.07 21.98 11.32C21.84 11.03 21.6 10.8 21.31 10.65L3.65 1.82C2.91 1.45 2.01 1.75 1.64 2.49C1.44 2.89 1.43 3.35 1.6 3.75L4.33 10.15C4.55 10.67 5.06 11.03 5.62 11.06L22.05 12" stroke="#191919" stroke-opacity="1.000000" stroke-width="1.500000" stroke-linejoin="round" stroke-linecap="round"/>
		<path d="M3.75 22.12L21.31 13.34C22.05 12.97 22.35 12.07 21.98 11.32C21.84 11.03 21.6 10.8 21.31 10.65L3.75 1.87C3.01 1.5 2.11 1.8 1.74 2.54C1.53 2.94 1.52 3.42 1.71 3.83L4.7 10.51L15.58 12L4.7 13.49L1.71 20.16C1.37 20.92 1.71 21.81 2.47 22.15C2.88 22.33 3.35 22.32 3.75 22.12Z" fill="#FFFFFF" fill-opacity="0" fill-rule="evenodd"/>
		<path d="M21.31 13.34C22.05 12.97 22.35 12.07 21.98 11.32C21.84 11.03 21.6 10.8 21.31 10.65L3.75 1.87C3.01 1.5 2.11 1.8 1.74 2.54C1.53 2.94 1.52 3.42 1.71 3.83L4.7 10.51L15.58 12L4.7 13.49L1.71 20.16C1.37 20.92 1.71 21.81 2.47 22.15C2.88 22.33 3.35 22.32 3.75 22.12L21.31 13.34Z" stroke="#FFFFFF" stroke-opacity="0" stroke-width="1.500000" stroke-linejoin="round"/>
	</g>
</svg>
