<svg width="120.000000" height="120.000000" viewBox="0 0 120 120" fill="none" xmlns="http://www.w3.org/2000/svg" xmlns:xlink="http://www.w3.org/1999/xlink">
	<desc>
			Created with Pixso.
	</desc>
	<defs>
		<clipPath id="clip331_3696">
			<rect width="120.000000" height="120.000000" fill="white" fill-opacity="0"/>
		</clipPath>
		<clipPath id="clip331_3627">
			<rect width="120.000000" height="120.000000" fill="white" fill-opacity="0"/>
		</clipPath>
	</defs>
	<g clip-path="url(#clip331_3627)">
		<g clip-path="url(#clip331_3696)">
			<g opacity="0.150000">
				<ellipse cx="94.282227" cy="73.829834" rx="9.425186" ry="1.901192" fill="#A1A7B3" fill-opacity="1.000000"/>
				<ellipse cx="94.282227" cy="73.829834" rx="9.425186" ry="1.901192" stroke="#000000" stroke-opacity="0" stroke-width="1.000000"/>
			</g>
			<g opacity="0.150000">
				<path d="M72.54 18.62L91.64 34.09C92.44 34.73 92.56 35.9 91.92 36.7L86.39 43.52C85.47 43.59 84.63 43.62 83.87 43.61L78.12 38.6L72.4 42.19L82.83 45.61C83.16 45.99 83.48 46.35 83.81 46.71L74.02 58.8C73.38 59.59 72.21 59.71 71.41 59.07L68.03 56.33L74.19 33.33C74.56 31.97 73.8 30.57 72.48 30.13L72.32 30.08L62.92 27.56L69.93 18.9C70.58 18.1 71.75 17.98 72.54 18.62Z" fill="#A1A7B3" fill-opacity="1.000000" fill-rule="evenodd"/>
				<path d="M91.64 34.09C92.44 34.73 92.56 35.9 91.92 36.7L86.39 43.52C85.47 43.59 84.63 43.62 83.87 43.61L78.12 38.6L72.4 42.19L82.83 45.61C83.16 45.99 83.48 46.35 83.81 46.71L74.02 58.8C73.38 59.59 72.21 59.71 71.41 59.07L68.03 56.33L74.19 33.33C74.56 31.97 73.8 30.57 72.48 30.13L72.32 30.08L62.92 27.56L69.93 18.9C70.58 18.1 71.75 17.98 72.54 18.62L91.64 34.09Z" stroke="#000000" stroke-opacity="0" stroke-width="1.000000"/>
			</g>
			<g opacity="0.300000">
				<path d="M55.25 22.4L56.15 25.75L72.32 30.08C73.73 30.46 74.57 31.91 74.19 33.33L66.19 63.2L67.99 69.92C68.46 71.69 67.41 73.5 65.65 73.97L23.16 85.36C21.4 85.83 19.58 84.78 19.11 83.02L6.38 35.5C5.91 33.73 6.95 31.92 8.72 31.45L35.34 24.31L35.69 23.01C36.07 21.6 37.52 20.76 38.94 21.14L43.06 22.24L51.2 20.06C52.97 19.59 54.78 20.64 55.25 22.4Z" fill="#A1A7B3" fill-opacity="1.000000" fill-rule="evenodd"/>
				<path d="M56.15 25.75L72.32 30.08C73.73 30.46 74.57 31.91 74.19 33.33L66.19 63.2L67.99 69.92C68.46 71.69 67.41 73.5 65.65 73.97L23.16 85.36C21.4 85.83 19.58 84.78 19.11 83.02L6.38 35.5C5.91 33.73 6.95 31.92 8.72 31.45L35.34 24.31L35.69 23.01C36.07 21.6 37.52 20.76 38.94 21.14L43.06 22.24L51.2 20.06C52.97 19.59 54.78 20.64 55.25 22.4L56.15 25.75Z" stroke="#000000" stroke-opacity="0" stroke-width="1.000000"/>
			</g>
			<g opacity="0.300000">
				<rect x="5.437012" y="32.466797" rx="3.310651" width="50.600681" height="55.814083" transform="rotate(-15 5.437012 32.466797)" fill="#A1A7B3" fill-opacity="1.000000"/>
				<rect x="5.437012" y="32.466797" rx="3.310651" width="50.600681" height="55.814083" transform="rotate(-15 5.437012 32.466797)" stroke="#000000" stroke-opacity="0" stroke-width="1.000000"/>
			</g>
			<g opacity="0.400000">
				<ellipse rx="2.671944" ry="2.671945" transform="matrix(0.965926 -0.258819 0.258819 0.965926 46.2109 36.0745)" fill="#A1A7B3" fill-opacity="1.000000"/>
				<ellipse rx="2.671944" ry="2.671945" transform="matrix(0.965926 -0.258819 0.258819 0.965926 46.2109 36.0745)" stroke="#000000" stroke-opacity="0" stroke-width="1.000000"/>
			</g>
			<g opacity="0.300000">
				<path d="M58.16 51.52C58.16 51.52 52.28 46.74 50.25 45.43C48.22 44.13 46.68 44.72 45.67 46.66C44.66 48.6 41.83 54.45 41.46 54.99C41.09 55.54 40.53 55.85 39.78 55.44C39.03 55.04 30.16 48.96 27.67 47.28C25.19 45.6 23.16 46.51 21.93 48.82C21.1 50.36 19.5 53.52 17.12 58.3C19.35 66.65 20.57 71.18 20.76 71.9C21.05 72.98 21.72 73.99 23.14 73.61C24.56 73.23 50.15 66.38 58.55 64.13C60.89 63.5 61.22 62.93 60.83 61.46C60.48 60.19 58.16 51.52 58.16 51.52Z" fill="#A1A7B3" fill-opacity="1.000000" fill-rule="nonzero"/>
				<path d="M50.25 45.43C48.22 44.13 46.68 44.72 45.67 46.66C44.66 48.6 41.83 54.45 41.46 54.99C41.09 55.54 40.53 55.85 39.78 55.44C39.03 55.04 30.16 48.96 27.67 47.28C25.19 45.6 23.16 46.51 21.93 48.82C21.1 50.36 19.5 53.52 17.12 58.3C19.35 66.65 20.57 71.18 20.76 71.9C21.05 72.98 21.72 73.99 23.14 73.61C24.56 73.23 50.15 66.38 58.55 64.13C60.89 63.5 61.22 62.93 60.83 61.46C60.48 60.19 58.16 51.52 58.16 51.52C58.16 51.52 52.28 46.74 50.25 45.43Z" stroke="#000000" stroke-opacity="0" stroke-width="1.000000"/>
			</g>
			<mask id="mask331_3709" mask-type="alpha" maskUnits="userSpaceOnUse" x="14.667969" y="38.429688" width="46.676270" height="35.668945">
				<path d="M18.17 62.24C18.17 62.24 20.88 55.16 21.98 53.01C23.09 50.86 24.71 50.6 26.56 51.78C28.4 52.96 33.78 56.6 34.37 56.89C34.96 57.18 35.6 57.17 36.05 56.44C36.5 55.72 41.14 46.01 42.45 43.32C43.77 40.62 45.98 40.39 48.2 41.78C49.69 42.7 52.66 44.64 57.11 47.59C59.34 55.93 60.56 60.46 60.75 61.19C61.04 62.27 60.97 63.48 59.55 63.86C58.12 64.24 32.54 71.1 24.14 73.35C21.8 73.97 21.23 73.64 20.84 72.18C20.49 70.9 18.17 62.24 18.17 62.24Z" fill="#FFFFFF" fill-opacity="1.000000" fill-rule="nonzero"/>
			</mask>
			<g mask="url(#mask331_3709)">
				<g opacity="0.300000">
					<path d="M17.72 60.55C17.62 60.17 17.57 59.99 17.57 59.99C23.65 58.36 29.93 57.55 31.11 58.37C32.53 59.37 30.43 60.4 28.86 61.29C27.3 62.19 24.98 63.25 25.53 63.76C26.08 64.26 37.66 60.39 46.88 59.61C53.02 59.1 58.3 59.51 62.7 60.85L63.69 64.54L30.12 73.54C36.23 69.31 38.01 66.83 35.45 66.08C31.61 64.95 21.71 69.01 20.65 65.85C19.6 62.69 28.3 60.79 28.19 59.6C28.11 58.8 24.63 59.12 17.72 60.55Z" fill="#A1A7B3" fill-opacity="1.000000" fill-rule="evenodd"/>
					<path d="M17.57 59.99C23.65 58.36 29.93 57.55 31.11 58.37C32.53 59.37 30.43 60.4 28.86 61.29C27.3 62.19 24.98 63.25 25.53 63.76C26.08 64.26 37.66 60.39 46.88 59.61C53.02 59.1 58.3 59.51 62.7 60.85L63.69 64.54L30.12 73.54C36.23 69.31 38.01 66.83 35.45 66.08C31.61 64.95 21.71 69.01 20.65 65.85C19.6 62.69 28.3 60.79 28.19 59.6C28.11 58.8 24.63 59.12 17.72 60.55C17.62 60.17 17.57 59.99 17.57 59.99Z" stroke="#000000" stroke-opacity="0" stroke-width="1.000000"/>
				</g>
			</g>
			<g opacity="0.400000">
				<path d="M14.18 98.02L16.15 98.86C16.37 98.95 16.62 98.85 16.72 98.63C16.81 98.42 16.71 98.16 16.49 98.07L14.52 97.23C14.31 97.13 14.05 97.23 13.96 97.45C13.87 97.67 13.97 97.92 14.18 98.02ZM18.13 99.69L20.11 100.51C20.33 100.6 20.58 100.5 20.67 100.28C20.76 100.06 20.66 99.81 20.44 99.72L19.79 99.45L18.46 98.9C18.24 98.81 17.99 98.91 17.9 99.13C17.81 99.35 17.91 99.6 18.13 99.69ZM22.11 101.32L23.45 101.85C23.67 101.94 23.89 102.02 24.1 102.1C24.33 102.19 24.57 102.08 24.66 101.86C24.74 101.64 24.63 101.39 24.41 101.3L23.1 100.79C22.88 100.7 22.65 100.61 22.42 100.52C22.2 100.43 21.95 100.54 21.87 100.76C21.78 100.98 21.89 101.23 22.11 101.32ZM26.11 102.87L27.48 103.37C27.7 103.45 27.92 103.53 28.13 103.61C28.35 103.68 28.6 103.57 28.68 103.35C28.76 103.12 28.64 102.88 28.42 102.8L27.1 102.32C26.87 102.24 26.64 102.15 26.41 102.07C26.19 101.98 25.94 102.1 25.86 102.32C25.78 102.54 25.89 102.79 26.11 102.87ZM30.16 104.31C30.88 104.55 31.57 104.77 32.22 104.96C32.44 105.03 32.68 104.91 32.75 104.68C32.82 104.45 32.69 104.21 32.47 104.14C32.15 104.05 31.82 103.94 31.48 103.84L30.44 103.49C30.21 103.42 29.97 103.54 29.89 103.77C29.82 103.99 29.94 104.23 30.16 104.31ZM34.3 105.56C35.07 105.76 35.77 105.92 36.41 106.04C36.65 106.09 36.87 105.93 36.91 105.7C36.96 105.47 36.81 105.24 36.57 105.2C35.95 105.08 35.27 104.92 34.51 104.73C34.28 104.67 34.05 104.8 33.99 105.03C33.93 105.26 34.07 105.5 34.3 105.56ZM38.58 106.35C39.35 106.42 40.08 106.44 40.77 106.42C41 106.41 41.19 106.22 41.18 105.98C41.18 105.74 40.98 105.56 40.74 105.57C40.1 105.58 39.4 105.56 38.65 105.49C38.42 105.47 38.21 105.64 38.19 105.88C38.17 106.12 38.34 106.32 38.58 106.35ZM43.01 106.15C43.95 105.93 44.68 105.57 45.15 105.11C45.31 104.94 45.31 104.67 45.14 104.5C44.97 104.33 44.7 104.34 44.54 104.5C44.2 104.84 43.61 105.13 42.81 105.32C42.58 105.37 42.44 105.6 42.49 105.83C42.55 106.06 42.78 106.21 43.01 106.15ZM45.18 102.54C45.11 102.44 45.02 102.35 44.93 102.25C44.52 101.82 44.03 101.43 43.45 101.04C43.25 100.91 42.99 100.97 42.85 101.16C42.72 101.36 42.78 101.63 42.98 101.76C43.51 102.11 43.95 102.47 44.32 102.85C44.39 102.92 44.45 102.99 44.51 103.07C44.65 103.26 44.92 103.29 45.11 103.14C45.3 103 45.33 102.73 45.18 102.54ZM41.53 99.95L40.73 99.56L39.59 99.02C39.37 98.92 39.12 99.02 39.02 99.23C38.92 99.45 39.01 99.7 39.22 99.8L40.5 100.4L41.14 100.72C41.36 100.82 41.61 100.74 41.72 100.53C41.83 100.32 41.74 100.06 41.53 99.95ZM37.66 98.11C36.96 97.75 36.36 97.43 35.82 97.09C35.62 96.96 35.36 97.03 35.23 97.23C35.11 97.43 35.17 97.69 35.37 97.82C35.93 98.17 36.55 98.51 37.28 98.87C37.49 98.98 37.75 98.89 37.85 98.68C37.96 98.47 37.87 98.21 37.66 98.11ZM34.46 95.8C34.26 95.28 34.48 94.76 35.12 94.32C35.32 94.19 35.37 93.92 35.23 93.73C35.1 93.53 34.83 93.48 34.64 93.62C33.69 94.27 33.31 95.19 33.67 96.11C33.75 96.33 34 96.44 34.22 96.35C34.44 96.27 34.55 96.02 34.46 95.8ZM36.91 93.64C37.52 93.51 38.21 93.46 38.95 93.47C39.19 93.47 39.39 93.29 39.39 93.05C39.39 92.81 39.21 92.62 38.97 92.61C38.16 92.6 37.41 92.66 36.74 92.8C36.51 92.84 36.36 93.07 36.41 93.3C36.45 93.53 36.68 93.68 36.91 93.64ZM41.03 93.67L41.27 93.71L41.51 93.75C42.08 93.86 42.62 93.96 43.16 94.04C43.39 94.07 43.61 93.91 43.65 93.68C43.68 93.45 43.52 93.23 43.29 93.19C42.94 93.14 42.58 93.08 42.22 93.01L41.68 92.91C41.51 92.88 41.34 92.85 41.17 92.82C40.94 92.78 40.72 92.94 40.68 93.17C40.64 93.41 40.8 93.63 41.03 93.67ZM45.31 94.3C46.03 94.37 46.75 94.42 47.47 94.45C47.71 94.46 47.91 94.27 47.92 94.04C47.93 93.8 47.74 93.6 47.51 93.59C46.79 93.56 46.09 93.52 45.39 93.45C45.16 93.43 44.95 93.6 44.92 93.84C44.9 94.07 45.08 94.28 45.31 94.3ZM49.65 94.48L50.46 94.47L51.33 94.45C51.48 94.45 51.64 94.44 51.8 94.44C52.04 94.43 52.22 94.23 52.21 93.99C52.21 93.76 52.01 93.57 51.77 93.58L50.87 93.61L50.04 93.62C49.9 93.62 49.77 93.62 49.64 93.63C49.4 93.63 49.21 93.82 49.21 94.06C49.22 94.29 49.41 94.48 49.65 94.48ZM53.94 94.35L55.84 94.29C55.92 94.28 55.99 94.28 56.07 94.28C56.31 94.27 56.5 94.08 56.49 93.84C56.49 93.6 56.29 93.42 56.05 93.42L54.52 93.47L53.9 93.5C53.67 93.51 53.48 93.71 53.49 93.94C53.5 94.18 53.7 94.36 53.94 94.35ZM58.22 94.25C59.02 94.25 59.75 94.18 60.42 94.06C60.66 94.02 60.81 93.8 60.77 93.57C60.73 93.33 60.51 93.18 60.27 93.22C59.65 93.33 58.96 93.39 58.21 93.4C57.97 93.4 57.78 93.59 57.79 93.83C57.79 94.06 57.98 94.26 58.22 94.25ZM62.62 93.37C63.6 92.86 64.18 92.15 64.24 91.38C64.25 91.14 64.07 90.94 63.84 90.92C63.63 90.91 63.45 91.05 63.39 91.24C63.37 91.66 62.96 92.22 62.22 92.6C62.01 92.71 61.93 92.97 62.04 93.18C62.15 93.39 62.41 93.47 62.62 93.37ZM62.7 89.38C62.63 89.35 62.56 89.33 62.49 89.3C61.85 89.07 61.17 88.94 60.44 88.91C60.21 88.9 60.01 89.08 60 89.32C59.99 89.55 60.17 89.75 60.41 89.76C61.05 89.79 61.64 89.9 62.19 90.1L62.36 90.17C62.58 90.27 62.83 90.16 62.92 89.95C63.02 89.73 62.92 89.48 62.7 89.38ZM58.16 89.12C57.39 89.29 56.65 89.55 56.03 89.87C55.82 89.98 55.74 90.24 55.85 90.45C55.96 90.66 56.22 90.74 56.43 90.63C56.98 90.35 57.64 90.11 58.34 89.96C58.57 89.91 58.72 89.68 58.67 89.45C58.62 89.21 58.39 89.07 58.16 89.12ZM54.29 91.71C54.14 92.41 54.3 93.27 54.75 94.11C54.87 94.31 55.13 94.39 55.33 94.28C55.54 94.16 55.62 93.9 55.51 93.7C55.15 93.03 55.03 92.37 55.13 91.89C55.18 91.66 55.03 91.43 54.8 91.38C54.57 91.33 54.34 91.48 54.29 91.71ZM56.26 95.88C56.8 96.32 57.44 96.72 58.18 97.06C58.39 97.16 58.65 97.06 58.75 96.85C58.85 96.63 58.75 96.38 58.54 96.28C57.87 95.97 57.29 95.61 56.8 95.22C56.62 95.07 56.35 95.09 56.2 95.28C56.05 95.46 56.08 95.73 56.26 95.88ZM60.34 97.81C60.72 97.91 61.12 98 61.53 98.07L62.11 98.17C62.21 98.18 62.31 98.2 62.41 98.21C62.65 98.24 62.86 98.08 62.9 97.85C62.93 97.61 62.77 97.39 62.53 97.36C62.24 97.32 61.95 97.27 61.68 97.23C61.29 97.16 60.91 97.08 60.56 96.98C60.33 96.92 60.09 97.06 60.03 97.29C59.98 97.52 60.11 97.75 60.34 97.81ZM64.57 98.44C65.27 98.49 66 98.52 66.74 98.53C66.97 98.54 67.17 98.35 67.17 98.11C67.18 97.88 66.99 97.68 66.75 97.68C66.03 97.66 65.32 97.63 64.63 97.58C64.4 97.57 64.19 97.74 64.18 97.98C64.16 98.21 64.34 98.42 64.57 98.44ZM68.91 98.52C69.64 98.49 70.36 98.45 71.07 98.38C71.31 98.36 71.48 98.15 71.46 97.92C71.44 97.68 71.23 97.51 71 97.53C70.3 97.59 69.59 97.64 68.88 97.66C68.65 97.67 68.46 97.87 68.47 98.1C68.48 98.34 68.68 98.52 68.91 98.52ZM73.23 98.13C73.96 98.02 74.67 97.89 75.36 97.74C75.6 97.69 75.74 97.46 75.69 97.23C75.64 97 75.41 96.85 75.18 96.9C74.51 97.05 73.81 97.18 73.1 97.28C72.87 97.32 72.71 97.54 72.74 97.77C72.77 98 72.99 98.16 73.23 98.13ZM77.49 97.19C78.21 96.98 78.9 96.74 79.55 96.47C79.77 96.38 79.88 96.13 79.79 95.91C79.7 95.69 79.45 95.59 79.23 95.67C78.6 95.93 77.94 96.16 77.25 96.37C77.02 96.44 76.89 96.68 76.96 96.91C77.03 97.13 77.27 97.26 77.49 97.19ZM81.52 95.53C82.19 95.17 82.8 94.77 83.38 94.34C83.57 94.2 83.6 93.93 83.46 93.74C83.32 93.55 83.05 93.51 82.86 93.66C82.32 94.06 81.74 94.44 81.11 94.78C80.9 94.9 80.83 95.16 80.94 95.36C81.06 95.57 81.32 95.65 81.52 95.53ZM85.06 92.82C85.57 92.27 86.02 91.68 86.4 91.05C86.53 90.85 86.46 90.58 86.26 90.46C86.06 90.34 85.8 90.4 85.67 90.6C85.32 91.18 84.9 91.73 84.43 92.24C84.27 92.42 84.28 92.69 84.45 92.85C84.63 93.01 84.9 93 85.06 92.82ZM87.35 89.01C87.62 88.13 87.65 87.34 87.45 86.63C87.39 86.4 87.15 86.27 86.92 86.33C86.69 86.4 86.56 86.63 86.63 86.86C86.78 87.41 86.76 88.03 86.53 88.76C86.46 88.99 86.59 89.23 86.82 89.3C87.04 89.36 87.28 89.24 87.35 89.01ZM86.03 84.65C85.5 84.24 84.85 83.88 84.06 83.54C83.84 83.45 83.59 83.55 83.5 83.77C83.41 83.99 83.51 84.24 83.73 84.33C84.45 84.64 85.04 84.97 85.5 85.32C85.69 85.47 85.96 85.43 86.1 85.25C86.25 85.06 86.21 84.79 86.03 84.65ZM81.98 82.81L81.72 82.73L81.17 82.58L80.57 82.41L79.9 82.24C79.67 82.18 79.44 82.32 79.38 82.55C79.32 82.77 79.46 83.01 79.69 83.07L80.65 83.32L81.22 83.48L81.74 83.63C81.96 83.7 82.2 83.57 82.27 83.35C82.34 83.12 82.21 82.88 81.98 82.81ZM77.78 81.7L76.83 81.44L76.26 81.29L75.73 81.13C75.51 81.07 75.27 81.19 75.2 81.42C75.13 81.65 75.26 81.89 75.49 81.95L76.03 82.11L76.6 82.27L77.23 82.44C77.34 82.47 77.45 82.5 77.57 82.53C77.8 82.59 78.03 82.45 78.09 82.22C78.15 81.99 78.01 81.76 77.78 81.7ZM73.79 80.48C73.07 80.2 72.45 79.9 71.92 79.58C71.72 79.46 71.45 79.53 71.33 79.73C71.21 79.93 71.28 80.2 71.48 80.32C72.06 80.66 72.72 80.98 73.48 81.27C73.7 81.36 73.95 81.25 74.03 81.03C74.12 80.81 74.01 80.56 73.79 80.48ZM70.33 78.26C69.94 77.78 69.68 77.26 69.56 76.67L69.54 76.56C69.52 76.32 69.31 76.15 69.07 76.17C68.84 76.19 68.67 76.4 68.69 76.64C68.69 76.71 68.71 76.78 68.72 76.85C68.87 77.57 69.19 78.22 69.66 78.8C69.81 78.98 70.08 79.01 70.26 78.86C70.45 78.71 70.47 78.44 70.33 78.26ZM70.45 75.03C70.88 74.67 71.46 74.3 72.18 73.92C72.39 73.81 72.47 73.56 72.36 73.35C72.25 73.14 71.99 73.05 71.78 73.16C71.01 73.57 70.38 73.97 69.9 74.37C69.72 74.52 69.7 74.79 69.85 74.98C70 75.16 70.27 75.18 70.45 75.03ZM74.1 73.05C74.7 72.8 75.36 72.55 76.08 72.3C76.31 72.23 76.43 71.98 76.35 71.76C76.27 71.53 76.03 71.42 75.8 71.49C75.07 71.75 74.39 72 73.77 72.25C73.56 72.34 73.45 72.59 73.54 72.81C73.63 73.03 73.88 73.14 74.1 73.05ZM78.04 71.67L79.03 71.37C79.37 71.27 79.72 71.17 80.08 71.07C80.31 71 80.44 70.76 80.38 70.54C80.31 70.31 80.08 70.18 79.85 70.24C79.49 70.34 79.13 70.44 78.79 70.54L77.78 70.85C77.56 70.92 77.43 71.16 77.5 71.38C77.57 71.61 77.81 71.74 78.04 71.67ZM82.17 70.5L83.53 70.16C83.77 70.1 84 70.04 84.24 69.99C84.47 69.93 84.61 69.7 84.56 69.47C84.5 69.24 84.27 69.1 84.04 69.15C83.32 69.33 82.62 69.5 81.95 69.67C81.72 69.73 81.59 69.97 81.65 70.2C81.71 70.42 81.94 70.56 82.17 70.5ZM86.35 69.49L86.69 69.41C86.92 69.36 87.06 69.13 87.01 68.9C86.96 68.67 86.73 68.53 86.5 68.58L86.16 68.65C85.93 68.71 85.78 68.94 85.83 69.17C85.89 69.4 86.12 69.54 86.35 69.49Z" fill="#A1A7B3" fill-opacity="1.000000" fill-rule="evenodd"/>
				<path d="M16.15 98.86C16.37 98.95 16.62 98.85 16.72 98.63C16.81 98.42 16.71 98.16 16.49 98.07L14.52 97.23C14.31 97.13 14.05 97.23 13.96 97.45C13.87 97.67 13.97 97.92 14.18 98.02L16.15 98.86ZM20.11 100.51C20.33 100.6 20.58 100.5 20.67 100.28C20.76 100.06 20.66 99.81 20.44 99.72L19.79 99.45L18.46 98.9C18.24 98.81 17.99 98.91 17.9 99.13C17.81 99.35 17.91 99.6 18.13 99.69L20.11 100.51ZM23.45 101.85C23.67 101.94 23.89 102.02 24.1 102.1C24.33 102.19 24.57 102.08 24.66 101.86C24.74 101.64 24.63 101.39 24.41 101.3L23.1 100.79C22.88 100.7 22.65 100.61 22.42 100.52C22.2 100.43 21.95 100.54 21.87 100.76C21.78 100.98 21.89 101.23 22.11 101.32L23.45 101.85ZM27.48 103.37C27.7 103.45 27.92 103.53 28.13 103.61C28.35 103.68 28.6 103.57 28.68 103.35C28.76 103.12 28.64 102.88 28.42 102.8L27.1 102.32C26.87 102.24 26.64 102.15 26.41 102.07C26.19 101.98 25.94 102.1 25.86 102.32C25.78 102.54 25.89 102.79 26.11 102.87L27.48 103.37ZM32.22 104.96C32.44 105.03 32.68 104.91 32.75 104.68C32.82 104.45 32.69 104.21 32.47 104.14C32.15 104.05 31.82 103.94 31.48 103.84L30.44 103.49C30.21 103.42 29.97 103.54 29.89 103.77C29.82 103.99 29.94 104.23 30.16 104.31C30.88 104.55 31.57 104.77 32.22 104.96ZM36.41 106.04C36.65 106.09 36.87 105.93 36.91 105.7C36.96 105.47 36.81 105.24 36.57 105.2C35.95 105.08 35.27 104.92 34.51 104.73C34.28 104.67 34.05 104.8 33.99 105.03C33.93 105.26 34.07 105.5 34.3 105.56C35.07 105.76 35.77 105.92 36.41 106.04ZM40.77 106.42C41 106.41 41.19 106.22 41.18 105.98C41.18 105.74 40.98 105.56 40.74 105.57C40.1 105.58 39.4 105.56 38.65 105.49C38.42 105.47 38.21 105.64 38.19 105.88C38.17 106.12 38.34 106.32 38.58 106.35C39.35 106.42 40.08 106.44 40.77 106.42ZM45.15 105.11C45.31 104.94 45.31 104.67 45.14 104.5C44.97 104.33 44.7 104.34 44.54 104.5C44.2 104.84 43.61 105.13 42.81 105.32C42.58 105.37 42.44 105.6 42.49 105.83C42.55 106.06 42.78 106.21 43.01 106.15C43.95 105.93 44.68 105.57 45.15 105.11ZM44.93 102.25C44.52 101.82 44.03 101.43 43.45 101.04C43.25 100.91 42.99 100.97 42.85 101.16C42.72 101.36 42.78 101.63 42.98 101.76C43.51 102.11 43.95 102.47 44.32 102.85C44.39 102.92 44.45 102.99 44.51 103.07C44.65 103.26 44.92 103.29 45.11 103.14C45.3 103 45.33 102.73 45.18 102.54C45.11 102.44 45.02 102.35 44.93 102.25ZM40.73 99.56L39.59 99.02C39.37 98.92 39.12 99.02 39.02 99.23C38.92 99.45 39.01 99.7 39.22 99.8L40.5 100.4L41.14 100.72C41.36 100.82 41.61 100.74 41.72 100.53C41.83 100.32 41.74 100.06 41.53 99.95L40.73 99.56ZM35.82 97.09C35.62 96.96 35.36 97.03 35.23 97.23C35.11 97.43 35.17 97.69 35.37 97.82C35.93 98.17 36.55 98.51 37.28 98.87C37.49 98.98 37.75 98.89 37.85 98.68C37.96 98.47 37.87 98.21 37.66 98.11C36.96 97.75 36.36 97.43 35.82 97.09ZM35.12 94.32C35.32 94.19 35.37 93.92 35.23 93.73C35.1 93.53 34.83 93.48 34.64 93.62C33.69 94.27 33.31 95.19 33.67 96.11C33.75 96.33 34 96.44 34.22 96.35C34.44 96.27 34.55 96.02 34.46 95.8C34.26 95.28 34.48 94.76 35.12 94.32ZM38.95 93.47C39.19 93.47 39.39 93.29 39.39 93.05C39.39 92.81 39.21 92.62 38.97 92.61C38.16 92.6 37.41 92.66 36.74 92.8C36.51 92.84 36.36 93.07 36.41 93.3C36.45 93.53 36.68 93.68 36.91 93.64C37.52 93.51 38.21 93.46 38.95 93.47ZM41.27 93.71L41.51 93.75C42.08 93.86 42.62 93.96 43.16 94.04C43.39 94.07 43.61 93.91 43.65 93.68C43.68 93.45 43.52 93.23 43.29 93.19C42.94 93.14 42.58 93.08 42.22 93.01L41.68 92.91C41.51 92.88 41.34 92.85 41.17 92.82C40.94 92.78 40.72 92.94 40.68 93.17C40.64 93.41 40.8 93.63 41.03 93.67L41.27 93.71ZM47.47 94.45C47.71 94.46 47.91 94.27 47.92 94.04C47.93 93.8 47.74 93.6 47.51 93.59C46.79 93.56 46.09 93.52 45.39 93.45C45.16 93.43 44.95 93.6 44.92 93.84C44.9 94.07 45.08 94.28 45.31 94.3C46.03 94.37 46.75 94.42 47.47 94.45ZM50.46 94.47L51.33 94.45C51.48 94.45 51.64 94.44 51.8 94.44C52.04 94.43 52.22 94.23 52.21 93.99C52.21 93.76 52.01 93.57 51.77 93.58L50.87 93.61L50.04 93.62C49.9 93.62 49.77 93.62 49.64 93.63C49.4 93.63 49.21 93.82 49.21 94.06C49.22 94.29 49.41 94.48 49.65 94.48L50.46 94.47ZM55.84 94.29C55.92 94.28 55.99 94.28 56.07 94.28C56.31 94.27 56.5 94.08 56.49 93.84C56.49 93.6 56.29 93.42 56.05 93.42L54.52 93.47L53.9 93.5C53.67 93.51 53.48 93.71 53.49 93.94C53.5 94.18 53.7 94.36 53.94 94.35L55.84 94.29ZM60.42 94.06C60.66 94.02 60.81 93.8 60.77 93.57C60.73 93.33 60.51 93.18 60.27 93.22C59.65 93.33 58.96 93.39 58.21 93.4C57.97 93.4 57.78 93.59 57.79 93.83C57.79 94.06 57.98 94.26 58.22 94.25C59.02 94.25 59.75 94.18 60.42 94.06ZM64.24 91.38C64.25 91.14 64.07 90.94 63.84 90.92C63.63 90.91 63.45 91.05 63.39 91.24C63.37 91.66 62.96 92.22 62.22 92.6C62.01 92.71 61.93 92.97 62.04 93.18C62.15 93.39 62.41 93.47 62.62 93.37C63.6 92.86 64.18 92.15 64.24 91.38ZM62.49 89.3C61.85 89.07 61.17 88.94 60.44 88.91C60.21 88.9 60.01 89.08 60 89.32C59.99 89.55 60.17 89.75 60.41 89.76C61.05 89.79 61.64 89.9 62.19 90.1L62.36 90.17C62.58 90.27 62.83 90.16 62.92 89.95C63.02 89.73 62.92 89.48 62.7 89.38C62.63 89.35 62.56 89.33 62.49 89.3ZM56.03 89.87C55.82 89.98 55.74 90.24 55.85 90.45C55.96 90.66 56.22 90.74 56.43 90.63C56.98 90.35 57.64 90.11 58.34 89.96C58.57 89.91 58.72 89.68 58.67 89.45C58.62 89.21 58.39 89.07 58.16 89.12C57.39 89.29 56.65 89.55 56.03 89.87ZM54.75 94.11C54.87 94.31 55.13 94.39 55.33 94.28C55.54 94.16 55.62 93.9 55.51 93.7C55.15 93.03 55.03 92.37 55.13 91.89C55.18 91.66 55.03 91.43 54.8 91.38C54.57 91.33 54.34 91.48 54.29 91.71C54.14 92.41 54.3 93.27 54.75 94.11ZM58.18 97.06C58.39 97.16 58.65 97.06 58.75 96.85C58.85 96.63 58.75 96.38 58.54 96.28C57.87 95.97 57.29 95.61 56.8 95.22C56.62 95.07 56.35 95.09 56.2 95.28C56.05 95.46 56.08 95.73 56.26 95.88C56.8 96.32 57.44 96.72 58.18 97.06ZM61.53 98.07L62.11 98.17C62.21 98.18 62.31 98.2 62.41 98.21C62.65 98.24 62.86 98.08 62.9 97.85C62.93 97.61 62.77 97.39 62.53 97.36C62.24 97.32 61.95 97.27 61.68 97.23C61.29 97.16 60.91 97.08 60.56 96.98C60.33 96.92 60.09 97.06 60.03 97.29C59.98 97.52 60.11 97.75 60.34 97.81C60.72 97.91 61.12 98 61.53 98.07ZM66.74 98.53C66.97 98.54 67.17 98.35 67.17 98.11C67.18 97.88 66.99 97.68 66.75 97.68C66.03 97.66 65.32 97.63 64.63 97.58C64.4 97.57 64.19 97.74 64.18 97.98C64.16 98.21 64.34 98.42 64.57 98.44C65.27 98.49 66 98.52 66.74 98.53ZM71.07 98.38C71.31 98.36 71.48 98.15 71.46 97.92C71.44 97.68 71.23 97.51 71 97.53C70.3 97.59 69.59 97.64 68.88 97.66C68.65 97.67 68.46 97.87 68.47 98.1C68.48 98.34 68.68 98.52 68.91 98.52C69.64 98.49 70.36 98.45 71.07 98.38ZM75.36 97.74C75.6 97.69 75.74 97.46 75.69 97.23C75.64 97 75.41 96.85 75.18 96.9C74.51 97.05 73.81 97.18 73.1 97.28C72.87 97.32 72.71 97.54 72.74 97.77C72.77 98 72.99 98.16 73.23 98.13C73.96 98.02 74.67 97.89 75.36 97.74ZM79.55 96.47C79.77 96.38 79.88 96.13 79.79 95.91C79.7 95.69 79.45 95.59 79.23 95.67C78.6 95.93 77.94 96.16 77.25 96.37C77.02 96.44 76.89 96.68 76.96 96.91C77.03 97.13 77.27 97.26 77.49 97.19C78.21 96.98 78.9 96.74 79.55 96.47ZM83.38 94.34C83.57 94.2 83.6 93.93 83.46 93.74C83.32 93.55 83.05 93.51 82.86 93.66C82.32 94.06 81.74 94.44 81.11 94.78C80.9 94.9 80.83 95.16 80.94 95.36C81.06 95.57 81.32 95.65 81.52 95.53C82.19 95.17 82.8 94.77 83.38 94.34ZM86.4 91.05C86.53 90.85 86.46 90.58 86.26 90.46C86.06 90.34 85.8 90.4 85.67 90.6C85.32 91.18 84.9 91.73 84.43 92.24C84.27 92.42 84.28 92.69 84.45 92.85C84.63 93.01 84.9 93 85.06 92.82C85.57 92.27 86.02 91.68 86.4 91.05ZM87.45 86.63C87.39 86.4 87.15 86.27 86.92 86.33C86.69 86.4 86.56 86.63 86.63 86.86C86.78 87.41 86.76 88.03 86.53 88.76C86.46 88.99 86.59 89.23 86.82 89.3C87.04 89.36 87.28 89.24 87.35 89.01C87.62 88.13 87.65 87.34 87.45 86.63ZM84.06 83.54C83.84 83.45 83.59 83.55 83.5 83.77C83.41 83.99 83.51 84.24 83.73 84.33C84.45 84.64 85.04 84.97 85.5 85.32C85.69 85.47 85.96 85.43 86.1 85.25C86.25 85.06 86.21 84.79 86.03 84.65C85.5 84.24 84.85 83.88 84.06 83.54ZM81.72 82.73L81.17 82.58L80.57 82.41L79.9 82.24C79.67 82.18 79.44 82.32 79.38 82.55C79.32 82.77 79.46 83.01 79.69 83.07L80.65 83.32L81.22 83.48L81.74 83.63C81.96 83.7 82.2 83.57 82.27 83.35C82.34 83.12 82.21 82.88 81.98 82.81L81.72 82.73ZM76.83 81.44L76.26 81.29L75.73 81.13C75.51 81.07 75.27 81.19 75.2 81.42C75.13 81.65 75.26 81.89 75.49 81.95L76.03 82.11L76.6 82.27L77.23 82.44C77.34 82.47 77.45 82.5 77.57 82.53C77.8 82.59 78.03 82.45 78.09 82.22C78.15 81.99 78.01 81.76 77.78 81.7L76.83 81.44ZM71.92 79.58C71.72 79.46 71.45 79.53 71.33 79.73C71.21 79.93 71.28 80.2 71.48 80.32C72.06 80.66 72.72 80.98 73.48 81.27C73.7 81.36 73.95 81.25 74.03 81.03C74.12 80.81 74.01 80.56 73.79 80.48C73.07 80.2 72.45 79.9 71.92 79.58ZM69.56 76.67L69.54 76.56C69.52 76.32 69.31 76.15 69.07 76.17C68.84 76.19 68.67 76.4 68.69 76.64C68.69 76.71 68.71 76.78 68.72 76.85C68.87 77.57 69.19 78.22 69.66 78.8C69.81 78.98 70.08 79.01 70.26 78.86C70.45 78.71 70.47 78.44 70.33 78.26C69.94 77.78 69.68 77.26 69.56 76.67ZM72.18 73.92C72.39 73.81 72.47 73.56 72.36 73.35C72.25 73.14 71.99 73.05 71.78 73.16C71.01 73.57 70.38 73.97 69.9 74.37C69.72 74.52 69.7 74.79 69.85 74.98C70 75.16 70.27 75.18 70.45 75.03C70.88 74.67 71.46 74.3 72.18 73.92ZM76.08 72.3C76.31 72.23 76.43 71.98 76.35 71.76C76.27 71.53 76.03 71.42 75.8 71.49C75.07 71.75 74.39 72 73.77 72.25C73.56 72.34 73.45 72.59 73.54 72.81C73.63 73.03 73.88 73.14 74.1 73.05C74.7 72.8 75.36 72.55 76.08 72.3ZM79.03 71.37C79.37 71.27 79.72 71.17 80.08 71.07C80.31 71 80.44 70.76 80.38 70.54C80.31 70.31 80.08 70.18 79.85 70.24C79.49 70.34 79.13 70.44 78.79 70.54L77.78 70.85C77.56 70.92 77.43 71.16 77.5 71.38C77.57 71.61 77.81 71.74 78.04 71.67L79.03 71.37ZM83.53 70.16C83.77 70.1 84 70.04 84.24 69.99C84.47 69.93 84.61 69.7 84.56 69.47C84.5 69.24 84.27 69.1 84.04 69.15C83.32 69.33 82.62 69.5 81.95 69.67C81.72 69.73 81.59 69.97 81.65 70.2C81.71 70.42 81.94 70.56 82.17 70.5L83.53 70.16ZM86.69 69.41C86.92 69.36 87.06 69.13 87.01 68.9C86.96 68.67 86.73 68.53 86.5 68.58L86.16 68.65C85.93 68.71 85.78 68.94 85.83 69.17C85.89 69.4 86.12 69.54 86.35 69.49L86.69 69.41Z" stroke="#000000" stroke-opacity="0" stroke-width="1.000000"/>
			</g>
			<g opacity="0.200000">
				<path d="M105.19 39.65C102.88 40.03 101.25 41.14 94.54 42.39C90.06 43.22 86.51 43.63 83.87 43.61L78.12 38.6L72.4 42.19L82.83 45.61C84.04 47.01 85.26 48.24 86.48 49.31C86.66 48.8 87.01 48.16 87.51 47.39C89.33 48.06 90.57 48.48 91.22 48.65C93.6 49.26 95.76 49.41 97.01 49.45C98.71 49.5 100.64 49.12 102.8 48.31C102.5 48.8 102.08 49.46 101.53 50.29C100.7 51.52 99.85 52.97 99.08 54.48C104.19 54.31 108.22 51.98 110.29 48.95L109.9 48.82C109.54 48.22 109.54 47.66 109.9 47.14C110.23 46.67 110.67 46.41 111.22 46.37L111.39 46.37L111.48 46.5C111.7 45.8 111.81 45.09 111.81 44.37C111.83 41.7 108.55 39.09 105.19 39.65Z" fill="#A1A7B3" fill-opacity="1.000000" fill-rule="nonzero"/>
				<path d="M94.54 42.39C90.06 43.22 86.51 43.63 83.87 43.61L78.12 38.6L72.4 42.19L82.83 45.61C84.04 47.01 85.26 48.24 86.48 49.31C86.66 48.8 87.01 48.16 87.51 47.39C89.33 48.06 90.57 48.48 91.22 48.65C93.6 49.26 95.76 49.41 97.01 49.45C98.71 49.5 100.64 49.12 102.8 48.31C102.5 48.8 102.08 49.46 101.53 50.29C100.7 51.52 99.85 52.97 99.08 54.48C104.19 54.31 108.22 51.98 110.29 48.95L109.9 48.82C109.54 48.22 109.54 47.66 109.9 47.14C110.23 46.67 110.67 46.41 111.22 46.37L111.39 46.37L111.48 46.5C111.7 45.8 111.81 45.09 111.81 44.37C111.83 41.7 108.55 39.09 105.19 39.65C102.88 40.03 101.25 41.14 94.54 42.39Z" stroke="#000000" stroke-opacity="0" stroke-width="1.000000"/>
			</g>
			<mask id="mask331_3719" mask-type="alpha" maskUnits="userSpaceOnUse" x="71.060059" y="32.175293" width="41.726074" height="24.629395">
				<path d="M105.19 39.65C102.88 40.03 101.25 41.14 94.54 42.39C90.06 43.22 86.51 43.63 83.87 43.61L78.12 38.6L72.4 42.19L82.83 45.61C84.04 47.01 85.26 48.24 86.48 49.31C86.66 48.8 87.01 48.16 87.51 47.39C89.33 48.06 90.57 48.48 91.22 48.65C93.6 49.26 95.76 49.41 97.01 49.45C98.71 49.5 100.64 49.12 102.8 48.31C102.5 48.8 102.08 49.46 101.53 50.29C100.7 51.52 99.85 52.97 99.08 54.48C104.19 54.31 108.22 51.98 110.29 48.95L109.9 48.82C109.54 48.22 109.54 47.66 109.9 47.14C110.23 46.67 110.67 46.41 111.22 46.37L111.39 46.37L111.48 46.5C111.7 45.8 111.81 45.09 111.81 44.37C111.83 41.7 108.55 39.09 105.19 39.65Z" fill="#FFFFFF" fill-opacity="1.000000" fill-rule="nonzero"/>
			</mask>
			<g mask="url(#mask331_3719)">
				<g opacity="0.100000">
					<path d="M111.67 36.09L78.07 36.77L72.89 41.5L83.32 45.04C85.87 46.77 88.36 47.94 90.78 48.55C94.41 49.46 99.67 50.14 103.16 48.1C105.21 46.9 107.38 46.75 109.66 47.66C109.7 47.49 109.78 47.31 109.9 47.14C110.26 46.62 110.76 46.36 111.39 46.37L111.72 46.87L114.56 43.78L111.67 36.09Z" fill="#A1A7B3" fill-opacity="1.000000" fill-rule="evenodd"/>
					<path d="M78.07 36.77L72.89 41.5L83.32 45.04C85.87 46.77 88.36 47.94 90.78 48.55C94.41 49.46 99.67 50.14 103.16 48.1C105.21 46.9 107.38 46.75 109.66 47.66C109.7 47.49 109.78 47.31 109.9 47.14C110.26 46.62 110.76 46.36 111.39 46.37L111.72 46.87L114.56 43.78L111.67 36.09L78.07 36.77Z" stroke="#000000" stroke-opacity="0" stroke-width="1.000000"/>
				</g>
			</g>
			<g opacity="0.400000">
				<path d="M111.39 46.37C110.76 46.36 110.26 46.62 109.9 47.14C109.54 47.66 109.54 48.22 109.9 48.82L113.91 50.16L111.39 46.37Z" fill="#A1A7B3" fill-opacity="1.000000" fill-rule="evenodd"/>
				<path d="M109.9 47.14C109.54 47.66 109.54 48.22 109.9 48.82L113.91 50.16L111.39 46.37C110.76 46.36 110.26 46.62 109.9 47.14Z" stroke="#000000" stroke-opacity="0" stroke-width="1.000000"/>
			</g>
			<g opacity="0.400000">
				<circle r="1.000000" transform="matrix(-0.97437 -0.224951 -0.224951 0.97437 107.743 45.7634)" fill="#A1A7B3" fill-opacity="1.000000"/>
				<circle r="1.000000" transform="matrix(-0.97437 -0.224951 -0.224951 0.97437 107.743 45.7634)" stroke="#000000" stroke-opacity="0" stroke-width="1.000000"/>
			</g>
			<g opacity="0.300000">
				<path d="M104.61 53.34L104.8 53.68C107.69 58.7 109.36 61.59 109.81 62.33C110.51 63.47 110.25 64.93 108.78 64.59C107.8 64.37 106.78 63.92 105.73 63.24C105.23 63.81 104.61 64.1 103.86 64.1C103.12 64.1 102.43 63.2 101.8 61.41C101.3 62.12 100.81 62.42 100.35 62.31C99.88 62.2 99.24 61.33 98.43 59.7C98.16 60.02 97.79 60.25 97.34 60.38C97.28 60.4 97.21 60.4 97.13 60.39C97.53 58.66 97.88 57.19 98.01 56.84C98.22 56.3 98.59 55.48 99.1 54.48C101.12 54.41 102.98 54 104.61 53.34Z" fill="#A1A7B3" fill-opacity="1.000000" fill-rule="evenodd"/>
				<path d="M104.8 53.68C107.69 58.7 109.36 61.59 109.81 62.33C110.51 63.47 110.25 64.93 108.78 64.59C107.8 64.37 106.78 63.92 105.73 63.24C105.23 63.81 104.61 64.1 103.86 64.1C103.12 64.1 102.43 63.2 101.8 61.41C101.3 62.12 100.81 62.42 100.35 62.31C99.88 62.2 99.24 61.33 98.43 59.7C98.16 60.02 97.79 60.25 97.34 60.38C97.28 60.4 97.21 60.4 97.13 60.39C97.53 58.66 97.88 57.19 98.01 56.84C98.22 56.3 98.59 55.48 99.1 54.48C101.12 54.41 102.98 54 104.61 53.34L104.8 53.68Z" stroke="#000000" stroke-opacity="0" stroke-width="1.000000"/>
			</g>
			<g opacity="0.400000">
				<path d="M87.51 47.39C88.94 47.91 89.95 48.27 90.57 48.45C91.89 48.84 93.06 49.05 93.74 49.14C94.61 49.25 96.86 49.55 98.84 49.33C100.74 49.11 102.68 48.41 102.8 48.29C102.93 48.17 101.68 50 100.43 52.07C99.19 54.14 98.37 55.91 98.01 56.84C97.66 57.76 95.88 66.21 95.55 67.06C95.23 67.91 94.42 69.02 93.59 67.76C93.03 66.91 92.65 65.17 92.44 62.52C91.77 63.88 91.12 64.52 90.49 64.45C90.07 64.4 89.68 63.48 89.65 61.71C89.64 61.11 89.73 60 89.93 58.38C88.9 60.18 88.23 61.03 87.93 60.93C87.38 60.75 87.53 59.61 87.7 58.24C87.9 56.54 88.54 54.6 88.75 54.43C89.13 54.13 87.09 55.52 86.16 55.13C85.55 54.87 86.34 53.34 88.56 50.56C88.12 50.68 87.81 50.75 87.63 50.76C87.1 50.79 86.73 50.64 86.57 50.5C86.18 50.2 86.31 49.8 86.57 49.06C86.67 48.75 86.99 48.19 87.51 47.39Z" fill="#A1A7B3" fill-opacity="1.000000" fill-rule="evenodd"/>
				<path d="M90.57 48.45C91.89 48.84 93.06 49.05 93.74 49.14C94.61 49.25 96.86 49.55 98.84 49.33C100.74 49.11 102.68 48.41 102.8 48.29C102.93 48.17 101.68 50 100.43 52.07C99.19 54.14 98.37 55.91 98.01 56.84C97.66 57.76 95.88 66.21 95.55 67.06C95.23 67.91 94.42 69.02 93.59 67.76C93.03 66.91 92.65 65.17 92.44 62.52C91.77 63.88 91.12 64.52 90.49 64.45C90.07 64.4 89.68 63.48 89.65 61.71C89.64 61.11 89.73 60 89.93 58.38C88.9 60.18 88.23 61.03 87.93 60.93C87.38 60.75 87.53 59.61 87.7 58.24C87.9 56.54 88.54 54.6 88.75 54.43C89.13 54.13 87.09 55.52 86.16 55.13C85.55 54.87 86.34 53.34 88.56 50.56C88.12 50.68 87.81 50.75 87.63 50.76C87.1 50.79 86.73 50.64 86.57 50.5C86.18 50.2 86.31 49.8 86.57 49.06C86.67 48.75 86.99 48.19 87.51 47.39C88.94 47.91 89.95 48.27 90.57 48.45Z" stroke="#000000" stroke-opacity="0" stroke-width="1.000000"/>
			</g>
		</g>
	</g>
</svg>
