<svg width="101.000000" height="96.000000" viewBox="0 0 101 96" fill="none" xmlns="http://www.w3.org/2000/svg" xmlns:xlink="http://www.w3.org/1999/xlink">
	<desc>
			Created with Pixso.
	</desc>
	<defs/>
	<mask id="mask95_238" mask-type="alpha" maskUnits="userSpaceOnUse" x="0.000000" y="0.000000" width="101.000000" height="96.000000">
		<path d="M0 0L101 0L101 96L0 96L0 0Z" fill="#FFFFFF" fill-opacity="1.000000" fill-rule="nonzero"/>
	</mask>
	<g mask="url(#mask95_238)">
		<path d="M16.14 46.01C16.14 46.01 10.11 45.45 8.33 37.71C6.54 29.97 11.27 24.62 11.68 20.4C12.09 16.18 13.54 15.34 13.54 15.34C13.54 15.34 16.36 4.65 27.87 6.36C39.39 8.06 41.02 16.84 41.22 22.11C41.41 27.38 41.69 33.23 46.11 38.44C50.52 43.65 48.61 47.21 46.74 51.3C46.74 51.3 48.6 55.11 44.65 60.35C42.02 63.84 32.51 59.06 16.14 46.01Z" fill="#2A4348" fill-opacity="1.000000" fill-rule="evenodd"/>
		<path d="M8.33 37.71C6.54 29.97 11.27 24.62 11.68 20.4C12.09 16.18 13.54 15.34 13.54 15.34C13.54 15.34 16.36 4.65 27.87 6.36C39.39 8.06 41.02 16.84 41.22 22.11C41.41 27.38 41.69 33.23 46.11 38.44C50.52 43.65 48.61 47.21 46.74 51.3C46.74 51.3 48.6 55.11 44.65 60.35C42.02 63.84 32.51 59.06 16.14 46.01C16.14 46.01 10.11 45.45 8.33 37.71Z" stroke="#000000" stroke-opacity="0" stroke-width="1.000000"/>
		<path d="M39.53 43.08C36.34 42.06 34.09 39.19 33.85 35.84L33.39 29.5L22.98 32.52L24.15 32.18C24.2 36.22 24.1 38.82 23.85 39.97C23.6 41.13 22.93 42.16 21.83 43.08L25.71 46.66C30.69 48.38 34.26 49.6 36.43 50.3C39.68 51.35 42.79 51.34 43 49.47C43.2 47.6 40.81 44.17 39.53 43.08Z" fill="#FFCABA" fill-opacity="1.000000" fill-rule="nonzero"/>
		<path d="M33.85 35.84L33.39 29.5L22.98 32.52L24.15 32.18C24.2 36.22 24.1 38.82 23.85 39.97C23.6 41.13 22.93 42.16 21.83 43.08L25.71 46.66C30.69 48.38 34.26 49.6 36.43 50.3C39.68 51.35 42.79 51.34 43 49.47C43.2 47.6 40.81 44.17 39.53 43.08C36.34 42.06 34.09 39.19 33.85 35.84Z" stroke="#000000" stroke-opacity="0" stroke-width="1.000000"/>
		<mask id="mask95_249" mask-type="alpha" maskUnits="userSpaceOnUse" x="21.839355" y="29.502563" width="21.173096" height="21.503540">
			<path d="M39.53 43.08C36.34 42.06 34.09 39.19 33.85 35.84L33.39 29.5L22.98 32.52L24.15 32.18C24.2 36.22 24.1 38.82 23.85 39.97C23.6 41.13 22.93 42.16 21.83 43.08L25.71 46.66C30.69 48.38 34.26 49.6 36.43 50.3C39.68 51.35 42.79 51.34 43 49.47C43.2 47.6 40.81 44.17 39.53 43.08Z" fill="#FFFFFF" fill-opacity="1.000000" fill-rule="nonzero"/>
		</mask>
		<g mask="url(#mask95_249)">
			<path d="M34.01 35.18C34.71 33.34 34.56 31.26 33.55 28.95L24.15 31.99L23.64 39.38L20.79 44.88L23.09 46.57L23.68 46.01L23.63 47.19L30.96 45.19C30.96 45.19 30.55 45.09 29.95 44.94C28.26 44.51 28.23 40.65 29.54 39.38C30.85 38.11 32.96 37.95 34.01 35.18Z" fill="#ED9A81" fill-opacity="1.000000" fill-rule="evenodd"/>
			<path d="M33.55 28.95L24.15 31.99L23.64 39.38L20.79 44.88L23.09 46.57L23.68 46.01L23.63 47.19L30.96 45.19C30.96 45.19 30.55 45.09 29.95 44.94C28.26 44.51 28.23 40.65 29.54 39.38C30.85 38.11 32.96 37.95 34.01 35.18C34.71 33.34 34.56 31.26 33.55 28.95Z" stroke="#000000" stroke-opacity="0" stroke-width="1.000000"/>
		</g>
		<path d="M34.06 25.44C33.75 26.85 34.24 28.93 35.55 29.14C36.87 29.34 37.99 27.37 38.29 25.95C38.6 24.54 38.02 23.49 36.7 23.28C35.38 23.08 34.37 24.02 34.06 25.44Z" fill="#FABAAA" fill-opacity="1.000000" fill-rule="evenodd"/>
		<path d="M35.55 29.14C36.87 29.34 37.99 27.37 38.29 25.95C38.6 24.54 38.02 23.49 36.7 23.28C35.38 23.08 34.37 24.02 34.06 25.44C33.75 26.85 34.24 28.93 35.55 29.14Z" stroke="#000000" stroke-opacity="0" stroke-width="1.000000"/>
		<path d="M20.37 27.62C21.22 28.79 22.11 30.61 20.48 31.61C19.34 32.31 17.54 30.97 16.69 29.79C15.85 28.62 15.97 27.42 17.09 26.7C18.22 25.98 19.52 26.45 20.37 27.62Z" fill="#FFCABA" fill-opacity="1.000000" fill-rule="evenodd"/>
		<path d="M20.48 31.61C19.34 32.31 17.54 30.97 16.69 29.79C15.85 28.62 15.97 27.42 17.09 26.7C18.22 25.98 19.52 26.45 20.37 27.62C21.22 28.79 22.11 30.61 20.48 31.61Z" stroke="#000000" stroke-opacity="0" stroke-width="1.000000"/>
		<path d="M20.32 27.72C20.91 28.55 21.55 29.84 20.39 30.55C19.58 31.04 18.31 30.09 17.71 29.26C17.11 28.43 17.2 27.59 18 27.08C18.79 26.57 19.72 26.89 20.32 27.72Z" fill="#ED9A81" fill-opacity="1.000000" fill-rule="evenodd"/>
		<path d="M20.39 30.55C19.58 31.04 18.31 30.09 17.71 29.26C17.11 28.43 17.2 27.59 18 27.08C18.79 26.57 19.72 26.89 20.32 27.72C20.91 28.55 21.55 29.84 20.39 30.55Z" stroke="#000000" stroke-opacity="0" stroke-width="1.000000"/>
		<path d="M36 18.13C34.59 13.69 29.35 11.4 24.71 12.89C20.07 14.38 17.77 21.12 19.18 25.56L21.39 31.27C21.39 31.27 24.25 36.54 31.15 36.7C31.91 36.72 32.66 36.46 33.28 35.97C38.8 31.52 37.43 23.55 37.43 23.55L36 18.13Z" fill="#FFCABA" fill-opacity="1.000000" fill-rule="evenodd"/>
		<path d="M24.71 12.89C20.07 14.38 17.77 21.12 19.18 25.56L21.39 31.27C21.39 31.27 24.25 36.54 31.15 36.7C31.91 36.72 32.66 36.46 33.28 35.97C38.8 31.52 37.43 23.55 37.43 23.55L36 18.13C34.59 13.69 29.35 11.4 24.71 12.89Z" stroke="#000000" stroke-opacity="0" stroke-width="1.000000"/>
		<path d="M28.74 24.23C28.41 23.94 28.13 23.65 27.84 23.45C27.69 23.36 27.56 23.28 27.42 23.25C27.29 23.21 27.16 23.2 27.01 23.22C26.87 23.23 26.7 23.29 26.53 23.34C26.36 23.39 26.2 23.47 26.03 23.54C25.7 23.7 25.37 23.91 25.01 24.15C25.24 23.81 25.48 23.48 25.82 23.24C26.16 23 26.54 22.82 26.96 22.76C27.17 22.74 27.38 22.76 27.58 22.84C27.78 22.91 27.95 23.04 28.1 23.18C28.39 23.48 28.59 23.84 28.78 24.21L28.74 24.23Z" fill="#38221A" fill-opacity="1.000000" fill-rule="evenodd"/>
		<path d="M27.84 23.45C27.69 23.36 27.56 23.28 27.42 23.25C27.29 23.21 27.16 23.2 27.01 23.22C26.87 23.23 26.7 23.29 26.53 23.34C26.36 23.39 26.2 23.47 26.03 23.54C25.7 23.7 25.37 23.91 25.01 24.15C25.24 23.81 25.48 23.48 25.82 23.24C26.16 23 26.54 22.82 26.96 22.76C27.17 22.74 27.38 22.76 27.58 22.84C27.78 22.91 27.95 23.04 28.1 23.18C28.39 23.48 28.59 23.84 28.78 24.21L28.74 24.23C28.41 23.94 28.13 23.65 27.84 23.45Z" stroke="#000000" stroke-opacity="0" stroke-width="1.000000"/>
		<path d="M27.64 16.87C22.24 19.69 23.74 24.33 19.7 26.91C19.7 26.91 13.48 21.6 15.54 16.68C16.91 13.42 20.82 9.72 24.45 8.81C25.67 8.51 29.36 9.46 31.19 9.18C31.19 9.18 32.93 14.11 27.64 16.87Z" fill="#2A4348" fill-opacity="1.000000" fill-rule="evenodd"/>
		<path d="M19.7 26.91C19.7 26.91 13.48 21.6 15.54 16.68C16.91 13.42 20.82 9.72 24.45 8.81C25.67 8.51 29.36 9.46 31.19 9.18C31.19 9.18 32.93 14.11 27.64 16.87C22.24 19.69 23.74 24.33 19.7 26.91Z" stroke="#000000" stroke-opacity="0" stroke-width="1.000000"/>
		<path d="M30.4 9.69L30.38 9.68C30.27 9.44 30.38 9.18 30.61 9.08C30.84 8.97 31.11 9.07 31.21 9.31L31.2 9.33L30.4 9.69ZM23.49 25L23.51 25.02C23.41 25.26 23.15 25.37 22.91 25.27C22.67 25.18 22.56 24.91 22.66 24.68L22.69 24.67L23.49 25Z" fill="#000000" fill-opacity="0" fill-rule="nonzero"/>
		<path d="M30.79 9.49C30.79 9.49 32.92 14.27 27.85 17.44C24.33 19.65 24.09 22.4 23.08 24.85" stroke="#2A4348" stroke-opacity="1.000000" stroke-width="0.912000" stroke-linecap="round"/>
		<path d="M14.97 45.17L14.98 45.15C15.22 45.06 15.47 45.19 15.56 45.43C15.64 45.67 15.51 45.93 15.27 46.01L15.25 46L14.97 45.17ZM8.45 30.35L8.44 30.32C8.55 30.09 8.81 29.99 9.05 30.09C9.28 30.2 9.38 30.47 9.27 30.7L9.25 30.71L8.45 30.35Z" fill="#000000" fill-opacity="0" fill-rule="nonzero"/>
		<path d="M15.13 45.58C12.55 46.46 9.06 42.93 8.11 39.82C7.15 36.7 7.78 32.86 8.86 30.51" stroke="#2A4348" stroke-opacity="1.000000" stroke-width="0.912000" stroke-linecap="round"/>
		<path d="M32.84 33.51C32.8 33.54 32.61 33.67 32.32 33.7C32.02 33.74 31.85 33.74 31.6 33.67C31.34 33.59 31.27 33.32 31.46 33.26C31.64 33.2 31.83 33.34 32.22 33.34C32.62 33.34 32.72 33.27 32.81 33.29C32.9 33.3 32.91 33.35 32.92 33.38C32.92 33.41 32.89 33.47 32.84 33.51Z" fill="#ED9A81" fill-opacity="1.000000" fill-rule="evenodd"/>
		<path d="M32.32 33.7C32.02 33.74 31.85 33.74 31.6 33.67C31.34 33.59 31.27 33.32 31.46 33.26C31.64 33.2 31.83 33.34 32.22 33.34C32.62 33.34 32.72 33.27 32.81 33.29C32.9 33.3 32.91 33.35 32.92 33.38C32.92 33.41 32.89 33.47 32.84 33.51C32.8 33.54 32.61 33.67 32.32 33.7Z" stroke="#000000" stroke-opacity="0" stroke-width="1.000000"/>
		<path d="M29.22 30.9C29.29 30.81 29.38 30.81 29.48 30.85C29.62 30.9 29.91 31.14 30.28 31.29C31.46 31.77 32.79 31.63 33.74 31.11C33.83 31.06 33.93 31.1 33.98 31.17C34.03 31.24 33.99 31.36 33.91 31.41C32.8 32.09 30.62 32.13 29.28 31.16C29.2 31.1 29.14 30.98 29.22 30.9Z" fill="#ED9A81" fill-opacity="1.000000" fill-rule="nonzero"/>
		<path d="M29.48 30.85C29.62 30.9 29.91 31.14 30.28 31.29C31.46 31.77 32.79 31.63 33.74 31.11C33.83 31.06 33.93 31.1 33.98 31.17C34.03 31.24 33.99 31.36 33.91 31.41C32.8 32.09 30.62 32.13 29.28 31.16C29.2 31.1 29.14 30.98 29.22 30.9C29.29 30.81 29.38 30.81 29.48 30.85Z" stroke="#000000" stroke-opacity="0" stroke-width="1.000000"/>
		<path d="M34.51 20.49C34.91 20.33 36.17 20.03 37.17 21.13C37.17 21.13 37.16 20.71 36.38 19.95C35.6 19.2 33.27 19.69 33.16 21.18C33.16 21.18 33.96 20.72 34.51 20.49Z" fill="#38221A" fill-opacity="1.000000" fill-rule="evenodd"/>
		<path d="M37.17 21.13C37.17 21.13 37.16 20.71 36.38 19.95C35.6 19.2 33.27 19.69 33.16 21.18C33.16 21.18 33.96 20.72 34.51 20.49C34.91 20.33 36.17 20.03 37.17 21.13Z" stroke="#000000" stroke-opacity="0" stroke-width="1.000000"/>
		<path d="M26.3 20.87C28.31 20.87 28.26 21.17 28.86 20.58C28.86 20.58 28.6 20.06 27.32 19.96C26.04 19.85 23.96 20.03 22.55 22.38C22.55 22.38 24.52 20.87 26.3 20.87Z" fill="#38221A" fill-opacity="1.000000" fill-rule="evenodd"/>
		<path d="M28.86 20.58C28.86 20.58 28.6 20.06 27.32 19.96C26.04 19.85 23.96 20.03 22.55 22.38C22.55 22.38 24.52 20.87 26.3 20.87C28.31 20.87 28.26 21.17 28.86 20.58Z" stroke="#000000" stroke-opacity="0" stroke-width="1.000000"/>
		<path d="M30.63 28.37C30.82 28.78 31.45 29.05 32.25 29.05C32.68 29.05 33.06 28.97 33.36 28.83C33.44 28.76 33.51 28.71 33.51 28.71C33.71 28.5 33.72 28.17 33.72 28.17C33.72 28.17 33.3 28.46 32.82 28.46C32.35 28.46 32.12 28.29 31.55 28.29C31.18 28.25 30.88 28.28 30.63 28.37Z" fill="#ED9A81" fill-opacity="1.000000" fill-rule="evenodd"/>
		<path d="M32.25 29.05C32.68 29.05 33.06 28.97 33.36 28.83C33.44 28.76 33.51 28.71 33.51 28.71C33.71 28.5 33.72 28.17 33.72 28.17C33.72 28.17 33.3 28.46 32.82 28.46C32.35 28.46 32.12 28.29 31.55 28.29C31.18 28.25 30.88 28.28 30.63 28.37C30.82 28.78 31.45 29.05 32.25 29.05Z" stroke="#000000" stroke-opacity="0" stroke-width="1.000000"/>
		<path d="M28.22 23.82C28.25 24.35 27.93 24.81 27.5 24.84C27.06 24.87 26.68 24.46 26.64 23.93C26.61 23.4 26.93 22.94 27.36 22.91C27.8 22.88 28.18 23.29 28.22 23.82Z" fill="#38221A" fill-opacity="1.000000" fill-rule="evenodd"/>
		<path d="M27.5 24.84C27.06 24.87 26.68 24.46 26.64 23.93C26.61 23.4 26.93 22.94 27.36 22.91C27.8 22.88 28.18 23.29 28.22 23.82C28.25 24.35 27.93 24.81 27.5 24.84Z" stroke="#000000" stroke-opacity="0" stroke-width="1.000000"/>
		<mask id="mask95_271" mask-type="alpha" maskUnits="userSpaceOnUse" x="34.013916" y="22.447632" width="2.531494" height="2.297241">
			<path d="M34.92 22.47C34.18 22.62 34.01 23.88 34.01 24.58L34.01 24.66L34.28 24.58C34.28 24.58 34.8 24.84 35.4 24.69C36.01 24.54 36.54 23.76 36.54 23.76C36.34 23.08 35.84 22.44 35.16 22.44C35.08 22.44 35 22.45 34.92 22.47Z" fill="#FFFFFF" fill-opacity="1.000000" fill-rule="nonzero"/>
		</mask>
		<g mask="url(#mask95_271)">
			<path d="M36.43 23.48C36.43 24.01 36.08 24.44 35.64 24.44C35.21 24.44 34.86 24.01 34.86 23.48C34.86 22.95 35.21 22.52 35.64 22.52C36.08 22.52 36.43 22.95 36.43 23.48Z" fill="#38221A" fill-opacity="1.000000" fill-rule="evenodd"/>
			<path d="M35.64 24.44C35.21 24.44 34.86 24.01 34.86 23.48C34.86 22.95 35.21 22.52 35.64 22.52C36.08 22.52 36.43 22.95 36.43 23.48C36.43 24.01 36.08 24.44 35.64 24.44Z" stroke="#000000" stroke-opacity="0" stroke-width="1.000000"/>
		</g>
		<path d="M36.63 23.77C36.37 23.45 36.12 23.18 35.85 23.02C35.57 22.85 35.34 22.82 35.09 22.89C34.97 22.92 34.84 22.97 34.72 23.06C34.58 23.13 34.46 23.24 34.34 23.35C34.09 23.58 33.86 23.85 33.69 24.22L33.64 24.22C33.64 23.82 33.81 23.44 34.04 23.12C34.27 22.81 34.59 22.53 34.98 22.43C35.18 22.39 35.39 22.39 35.58 22.45C35.77 22.5 35.95 22.61 36.09 22.75C36.38 23.02 36.57 23.38 36.67 23.76L36.63 23.77Z" fill="#38221A" fill-opacity="1.000000" fill-rule="evenodd"/>
		<path d="M35.85 23.02C35.57 22.85 35.34 22.82 35.09 22.89C34.97 22.92 34.84 22.97 34.72 23.06C34.58 23.13 34.46 23.24 34.34 23.35C34.09 23.58 33.86 23.85 33.69 24.22L33.64 24.22C33.64 23.82 33.81 23.44 34.04 23.12C34.27 22.81 34.59 22.53 34.98 22.43C35.18 22.39 35.39 22.39 35.58 22.45C35.77 22.5 35.95 22.61 36.09 22.75C36.38 23.02 36.57 23.38 36.67 23.76L36.63 23.77C36.37 23.45 36.12 23.18 35.85 23.02Z" stroke="#000000" stroke-opacity="0" stroke-width="1.000000"/>
		<path d="M28.22 23.82C28.25 24.35 27.93 24.81 27.5 24.84C27.06 24.87 26.68 24.46 26.64 23.93C26.61 23.4 26.93 22.94 27.36 22.91C27.8 22.88 28.18 23.29 28.22 23.82Z" fill="#38221A" fill-opacity="1.000000" fill-rule="evenodd"/>
		<path d="M27.5 24.84C27.06 24.87 26.68 24.46 26.64 23.93C26.61 23.4 26.93 22.94 27.36 22.91C27.8 22.88 28.18 23.29 28.22 23.82C28.25 24.35 27.93 24.81 27.5 24.84Z" stroke="#000000" stroke-opacity="0" stroke-width="1.000000"/>
		<path d="M36.43 23.48C36.43 24.01 36.08 24.44 35.64 24.44C35.21 24.44 34.86 24.01 34.86 23.48C34.86 22.95 35.21 22.52 35.64 22.52C36.08 22.52 36.43 22.95 36.43 23.48Z" fill="#38221A" fill-opacity="1.000000" fill-rule="evenodd"/>
		<path d="M35.64 24.44C35.21 24.44 34.86 24.01 34.86 23.48C34.86 22.95 35.21 22.52 35.64 22.52C36.08 22.52 36.43 22.95 36.43 23.48C36.43 24.01 36.08 24.44 35.64 24.44Z" stroke="#000000" stroke-opacity="0" stroke-width="1.000000"/>
		<path d="M36.63 23.77C36.37 23.45 36.12 23.18 35.85 23.02C35.57 22.85 35.34 22.82 35.09 22.89C34.97 22.92 34.84 22.97 34.72 23.06C34.58 23.13 34.46 23.24 34.34 23.35C34.09 23.58 33.86 23.85 33.69 24.22L33.64 24.22C33.64 23.82 33.81 23.44 34.04 23.12C34.27 22.81 34.59 22.53 34.98 22.43C35.18 22.39 35.39 22.39 35.58 22.45C35.77 22.5 35.95 22.61 36.09 22.75C36.38 23.02 36.57 23.38 36.67 23.76L36.63 23.77Z" fill="#38221A" fill-opacity="1.000000" fill-rule="evenodd"/>
		<path d="M35.85 23.02C35.57 22.85 35.34 22.82 35.09 22.89C34.97 22.92 34.84 22.97 34.72 23.06C34.58 23.13 34.46 23.24 34.34 23.35C34.09 23.58 33.86 23.85 33.69 24.22L33.64 24.22C33.64 23.82 33.81 23.44 34.04 23.12C34.27 22.81 34.59 22.53 34.98 22.43C35.18 22.39 35.39 22.39 35.58 22.45C35.77 22.5 35.95 22.61 36.09 22.75C36.38 23.02 36.57 23.38 36.67 23.76L36.63 23.77C36.37 23.45 36.12 23.18 35.85 23.02Z" stroke="#000000" stroke-opacity="0" stroke-width="1.000000"/>
		<path d="M62.96 90.82C63.7 93.81 64.38 93.28 65.61 101.87C66.85 110.46 66.53 106.9 67.18 120.49C67.84 134.08 69.33 141.86 69.69 146.77C69.92 150.05 67.92 154 63.67 158.61L53.15 156.36C51.96 154.65 51.18 153 50.82 151.41C50.47 149.83 50.21 141.76 50.05 127.22C47.01 136.14 45.11 141.64 44.37 143.72C43.63 145.8 42.02 149.53 39.55 154.92L34.46 164.58L16.63 162.7L22.38 150.44C25.22 134.95 26.63 125.98 26.61 123.53C26.58 119.84 24.27 117.84 24.42 111.1C24.52 106.6 25.44 102.01 27.19 97.34L59.38 86.66L61.75 89.97C62.07 88.54 62.48 88.83 62.96 90.82Z" fill="#F6F6F5" fill-opacity="1.000000" fill-rule="evenodd"/>
		<path d="M65.61 101.87C66.85 110.46 66.53 106.9 67.18 120.49C67.84 134.08 69.33 141.86 69.69 146.77C69.92 150.05 67.92 154 63.67 158.61L53.15 156.36C51.96 154.65 51.18 153 50.82 151.41C50.47 149.83 50.21 141.76 50.05 127.22C47.01 136.14 45.11 141.64 44.37 143.72C43.63 145.8 42.02 149.53 39.55 154.92L34.46 164.58L16.63 162.7L22.38 150.44C25.22 134.95 26.63 125.98 26.61 123.53C26.58 119.84 24.27 117.84 24.42 111.1C24.52 106.6 25.44 102.01 27.19 97.34L59.38 86.66L61.75 89.97C62.07 88.54 62.48 88.83 62.96 90.82C63.7 93.81 64.38 93.28 65.61 101.87Z" stroke="#000000" stroke-opacity="0" stroke-width="1.000000"/>
		<path d="M56.06 83.08C56.49 83.08 58.54 84.88 62.22 88.47L63.42 92.57C60.83 90.5 59.01 89.68 57.96 90.11C56.39 90.76 55.37 94.49 51.71 95.53C50.74 95.81 49.09 96.27 46.68 96.56C44.26 96.86 39 97.27 30.89 97.79C35.48 97.4 39.27 96.95 42.25 96.44C43.75 96.18 45.04 96.07 46.08 95.81C52.37 94.25 53.09 92.54 54.19 90.78C55.29 89.01 55.43 83.08 56.06 83.08Z" fill="#EEEEEE" fill-opacity="1.000000" fill-rule="evenodd"/>
		<path d="M62.22 88.47L63.42 92.57C60.83 90.5 59.01 89.68 57.96 90.11C56.39 90.76 55.37 94.49 51.71 95.53C50.74 95.81 49.09 96.27 46.68 96.56C44.26 96.86 39 97.27 30.89 97.79C35.48 97.4 39.27 96.95 42.25 96.44C43.75 96.18 45.04 96.07 46.08 95.81C52.37 94.25 53.09 92.54 54.19 90.78C55.29 89.01 55.43 83.08 56.06 83.08C56.49 83.08 58.54 84.88 62.22 88.47Z" stroke="#000000" stroke-opacity="0" stroke-width="1.000000"/>
		<path d="M42.85 51.02C46.01 49.86 48.76 49.53 51.1 50.01C53.44 50.5 57.35 51.24 62.84 52.23C63.71 49.39 65.32 46.14 67.67 42.48C70.02 38.82 71.88 35.07 73.26 31.25C74.2 31.02 75.39 31.28 76.83 32.03C78.26 32.79 79.88 34.32 81.68 36.63C80.99 37.12 79.42 39.87 76.96 44.89C73.26 52.42 71.51 59.06 67.95 61.1C65.58 62.46 59.12 63.01 48.56 62.74L38.59 51.33L42.85 51.02Z" fill="#F9ADB0" fill-opacity="1.000000" fill-rule="evenodd"/>
		<path d="M51.1 50.01C53.44 50.5 57.35 51.24 62.84 52.23C63.71 49.39 65.32 46.14 67.67 42.48C70.02 38.82 71.88 35.07 73.26 31.25C74.2 31.02 75.39 31.28 76.83 32.03C78.26 32.79 79.88 34.32 81.68 36.63C80.99 37.12 79.42 39.87 76.96 44.89C73.26 52.42 71.51 59.06 67.95 61.1C65.58 62.46 59.12 63.01 48.56 62.74L38.59 51.33L42.85 51.02C46.01 49.86 48.76 49.53 51.1 50.01Z" stroke="#000000" stroke-opacity="0" stroke-width="1.000000"/>
		<path d="M32.58 47.88C39.63 52.35 44.22 55.41 46.35 57.07C48.48 58.73 49.43 61.57 49.2 65.59L52.67 60.28L51.58 53.55C51.21 52.01 49.66 50.67 46.95 49.54C44.24 48.4 41.72 46.97 39.42 45.25C41.85 48.3 42.57 50.01 41.58 50.37C40.59 50.73 38.03 49.6 33.92 46.98L32.58 47.88Z" fill="#F6F6F5" fill-opacity="1.000000" fill-rule="evenodd"/>
		<path d="M46.35 57.07C48.48 58.73 49.43 61.57 49.2 65.59L52.67 60.28L51.58 53.55C51.21 52.01 49.66 50.67 46.95 49.54C44.24 48.4 41.72 46.97 39.42 45.25C41.85 48.3 42.57 50.01 41.58 50.37C40.59 50.73 38.03 49.6 33.92 46.98L32.58 47.88C39.63 52.35 44.22 55.41 46.35 57.07Z" stroke="#000000" stroke-opacity="0" stroke-width="1.000000"/>
		<path d="M48.09 55.04C50.19 56.72 51.03 59.84 50.61 64.4L53.17 60.51L52.09 53.31L43.58 47.35L40.52 45.25L38.74 44.02C38.56 43.8 38.75 44.12 39.31 44.99C42.72 50.26 46.41 53.69 48.09 55.04Z" fill="#EEEEEE" fill-opacity="1.000000" fill-rule="evenodd"/>
		<path d="M50.61 64.4L53.17 60.51L52.09 53.31L43.58 47.35L40.52 45.25L38.74 44.02C38.56 43.8 38.75 44.12 39.31 44.99C42.72 50.26 46.41 53.69 48.09 55.04C50.19 56.72 51.03 59.84 50.61 64.4Z" stroke="#000000" stroke-opacity="0" stroke-width="1.000000"/>
		<path d="M24.02 39.12L20.26 43.44L17.29 46.52C16.65 48.56 16.28 49.98 16.17 50.79C15.65 54.87 17.54 58.66 20.41 63.67C23.28 68.68 26.9 74.55 27.64 78.1C28.13 80.47 27.65 87.03 26.2 97.79C34.79 97.58 40.34 97.21 42.85 96.7C46.62 95.92 48.59 96.33 52.24 94.25C55.89 92.17 55.4 85.32 55.95 85.11C56.31 84.97 57.76 86.44 60.31 89.51L63.76 90.59C60.27 83.43 58.05 78.72 57.09 76.44C56.13 74.15 55.18 71.66 54.22 68.96C53.59 64.1 53.41 61.07 53.66 59.88C54.05 58.09 54.22 55.9 52.64 53.21C51.07 50.52 49.39 48.58 45.28 46.52C42.54 45.15 39.17 42.89 35.16 39.73C35.24 40.46 35.43 41.06 35.73 41.53C36.03 42 36.64 42.87 37.58 44.14C45.34 49.85 49.65 53.71 50.5 55.71C51.34 57.72 51.46 60.23 50.84 63.26C49.09 58.75 46.53 55.27 43.16 52.84C38.1 49.2 34.96 46.81 32.3 45.27C29.65 43.72 28.87 43.46 27.16 42.18C26.03 41.33 24.98 40.31 24.02 39.12Z" fill="#FAD7D9" fill-opacity="1.000000" fill-rule="evenodd"/>
		<path d="M20.26 43.44L17.29 46.52C16.65 48.56 16.28 49.98 16.17 50.79C15.65 54.87 17.54 58.66 20.41 63.67C23.28 68.68 26.9 74.55 27.64 78.1C28.13 80.47 27.65 87.03 26.2 97.79C34.79 97.58 40.34 97.21 42.85 96.7C46.62 95.92 48.59 96.33 52.24 94.25C55.89 92.17 55.4 85.32 55.95 85.11C56.31 84.97 57.76 86.44 60.31 89.51L63.76 90.59C60.27 83.43 58.05 78.72 57.09 76.44C56.13 74.15 55.18 71.66 54.22 68.96C53.59 64.1 53.41 61.07 53.66 59.88C54.05 58.09 54.22 55.9 52.64 53.21C51.07 50.52 49.39 48.58 45.28 46.52C42.54 45.15 39.17 42.89 35.16 39.73C35.24 40.46 35.43 41.06 35.73 41.53C36.03 42 36.64 42.87 37.58 44.14C45.34 49.85 49.65 53.71 50.5 55.71C51.34 57.72 51.46 60.23 50.84 63.26C49.09 58.75 46.53 55.27 43.16 52.84C38.1 49.2 34.96 46.81 32.3 45.27C29.65 43.72 28.87 43.46 27.16 42.18C26.03 41.33 24.98 40.31 24.02 39.12L20.26 43.44Z" stroke="#000000" stroke-opacity="0" stroke-width="1.000000"/>
		<path d="M50.84 63.26L50.84 65.11L52.67 76.97L55.78 84.74L51.68 77.37L49.5 65.3L50.84 63.26Z" fill="#F9ADB0" fill-opacity="1.000000" fill-rule="evenodd"/>
		<path d="M50.84 65.11L52.67 76.97L55.78 84.74L51.68 77.37L49.5 65.3L50.84 63.26L50.84 65.11Z" stroke="#000000" stroke-opacity="0" stroke-width="1.000000"/>
		<path d="M25.25 49.03C27.62 49.24 29.76 50.01 31.67 51.32L37.08 56.45L50 64.71C56.4 63.68 61.57 62.64 65.51 61.6C69.45 60.56 73.36 59.29 77.24 57.81C78.37 60.21 79.09 62.05 79.38 63.34C79.68 64.63 79.68 66.47 79.38 68.86L51.1 75.53L22.76 64.42C20.11 61.75 18.65 59.1 18.38 56.46C17.98 52.5 16.91 51.39 18.27 50.13C19.62 48.87 21.69 48.72 25.25 49.03Z" fill="#FAD7D9" fill-opacity="1.000000" fill-rule="evenodd"/>
		<path d="M31.67 51.32L37.08 56.45L50 64.71C56.4 63.68 61.57 62.64 65.51 61.6C69.45 60.56 73.36 59.29 77.24 57.81C78.37 60.21 79.09 62.05 79.38 63.34C79.68 64.63 79.68 66.47 79.38 68.86L51.1 75.53L22.76 64.42C20.11 61.75 18.65 59.1 18.38 56.46C17.98 52.5 16.91 51.39 18.27 50.13C19.62 48.87 21.69 48.72 25.25 49.03C27.62 49.24 29.76 50.01 31.67 51.32Z" stroke="#000000" stroke-opacity="0" stroke-width="1.000000"/>
		<path d="M75.25 32.24C75.77 31.11 76.06 30.38 76.14 30.07C76.25 29.59 75.63 29.15 75.88 28.15C76.14 27.15 77.45 25.69 78.41 24.68C79.37 23.67 80.08 22.96 80.74 22.4C81.41 21.83 81.79 21.32 82.49 20.72C83.18 20.12 83.75 20.06 83.87 20.6C83.99 21.14 83.92 21.79 83.23 22.59C82.77 23.12 82.08 23.82 81.18 24.68C80.82 25.08 80.94 25.22 81.55 25.09C82.16 24.96 83.33 24.37 84.59 23.7C85.86 23.04 87.08 22.26 87.72 21.94C88.36 21.62 89.23 21.27 89.63 21.2C90.04 21.12 91.05 20.94 91.34 21.26C91.63 21.58 91.39 21.9 91.13 22.14C91.83 22.03 92.23 22.23 92.29 22.59C92.36 22.94 91.96 23.38 91.08 23.8C91.5 23.87 91.85 23.99 91.75 24.38C91.66 24.76 90.88 25.48 89.33 26.4C90.33 26.31 90.47 26.63 90.09 27.15C89.71 27.66 88.38 28.59 85.63 30.41C85.11 31.2 84.18 31.87 83.23 32.4C82.28 32.92 81.43 33.28 80.16 33.47L79.24 35.77L75.25 32.24Z" fill="#FFCABA" fill-opacity="1.000000" fill-rule="evenodd"/>
		<path d="M75.25 32.24C75.77 31.11 76.06 30.38 76.14 30.07C76.25 29.59 75.63 29.15 75.88 28.15C76.14 27.15 77.45 25.69 78.41 24.68C79.37 23.67 80.08 22.96 80.74 22.4C81.41 21.83 81.79 21.32 82.49 20.72C83.18 20.12 83.75 20.06 83.87 20.6C83.99 21.14 83.92 21.79 83.23 22.59C82.77 23.12 82.08 23.82 81.18 24.68C80.82 25.08 80.94 25.22 81.55 25.09C82.16 24.96 83.33 24.37 84.59 23.7C85.86 23.04 87.08 22.26 87.72 21.94C88.36 21.62 89.23 21.27 89.63 21.2C90.04 21.12 91.05 20.94 91.34 21.26C91.63 21.58 91.39 21.9 91.13 22.14C91.83 22.03 92.23 22.23 92.29 22.59C92.36 22.94 91.96 23.38 91.08 23.8C91.5 23.87 91.85 23.99 91.75 24.38C91.66 24.76 90.88 25.48 89.33 26.4C90.33 26.31 90.47 26.63 90.09 27.15C89.71 27.66 88.38 28.59 85.63 30.41C85.11 31.2 84.18 31.87 83.23 32.4C82.28 32.92 81.43 33.28 80.16 33.47L79.24 35.77" stroke="#000000" stroke-opacity="0" stroke-width="1.000000"/>
		<path d="M91.33 22.53L91.35 22.55C91.62 22.46 91.76 22.18 91.66 21.91C91.57 21.65 91.29 21.51 91.03 21.6L91.02 21.62L91.33 22.53ZM85.87 24.31L85.85 24.3C85.62 24.47 85.57 24.77 85.73 25C85.89 25.23 86.2 25.28 86.43 25.12L86.43 25.09L85.87 24.31Z" fill="#000000" fill-opacity="0" fill-rule="nonzero"/>
		<path d="M91.19 22.07C89.71 22.58 87.31 23.87 86.14 24.71" stroke="#ED9A81" stroke-opacity="1.000000" stroke-width="1.000000" stroke-linecap="round"/>
		<path d="M91.5 24.13L91.53 24.14C91.79 24.04 91.91 23.75 91.81 23.49C91.71 23.23 91.42 23.11 91.16 23.21L91.15 23.24L91.5 24.13ZM85.88 25.99L85.86 25.99C85.62 26.14 85.57 26.45 85.72 26.68C85.88 26.91 86.19 26.97 86.42 26.81L86.42 26.79L85.88 25.99Z" fill="#000000" fill-opacity="0" fill-rule="nonzero"/>
		<path d="M91.34 23.68C89.98 24.22 87.48 25.49 86.14 26.4" stroke="#ED9A81" stroke-opacity="1.000000" stroke-width="1.000000" stroke-linecap="round"/>
		<path d="M89.8 26.72L89.83 26.73C90.08 26.62 90.2 26.33 90.09 26.07C89.99 25.82 89.7 25.7 89.44 25.81L89.43 25.83L89.8 26.72ZM85.47 27.91L85.44 27.9C85.21 28.06 85.14 28.36 85.3 28.59C85.45 28.83 85.75 28.89 85.99 28.74L85.99 28.71L85.47 27.91Z" fill="#000000" fill-opacity="0" fill-rule="nonzero"/>
		<path d="M89.63 26.27C88.33 26.81 87.29 27.29 85.71 28.32" stroke="#ED9A81" stroke-opacity="1.000000" stroke-width="1.000000" stroke-linecap="round"/>
		<path d="M76.61 58.36C76.7 58.36 77.33 58.05 78.51 57.43C79.42 56.89 80.39 56.62 81.42 56.62C82.95 56.62 85.28 59.31 88.14 59.4C90.04 59.47 91.64 59.26 92.93 58.76C93.96 58.35 94.66 58.11 95.04 58.03C95.62 57.92 96.59 57.89 97.1 58.1C97.62 58.31 97.75 58.76 97.45 58.92C97.15 59.08 93.58 60.83 93.26 61.06C92.94 61.28 92.41 61.71 92.1 61.85C91.78 62 91.38 62.09 90.83 62.16C88.81 63.5 87.46 64.17 86.8 64.17C85.81 64.17 84.9 63.46 82.95 63.15C81.66 62.94 80.42 62.88 79.24 62.96L77.05 63.42L76.61 58.36Z" fill="#FFCABA" fill-opacity="1.000000" fill-rule="evenodd"/>
		<path d="M76.61 58.36C76.7 58.36 77.33 58.05 78.51 57.43C79.42 56.89 80.39 56.62 81.42 56.62C82.95 56.62 85.28 59.31 88.14 59.4C90.04 59.47 91.64 59.26 92.93 58.76C93.96 58.35 94.66 58.11 95.04 58.03C95.62 57.92 96.59 57.89 97.1 58.1C97.62 58.31 97.75 58.76 97.45 58.92C97.15 59.08 93.58 60.83 93.26 61.06C92.94 61.28 92.41 61.71 92.1 61.85C91.78 62 91.38 62.09 90.83 62.16C88.81 63.5 87.46 64.17 86.8 64.17C85.81 64.17 84.9 63.46 82.95 63.15C81.66 62.94 80.42 62.88 79.24 62.96L77.05 63.42" stroke="#000000" stroke-opacity="0" stroke-width="1.000000"/>
		<path d="M50.3 75.92C43.21 74.31 37.88 72.92 34.31 71.75C30.74 70.59 26.59 68.31 21.85 64.91L33.79 73.4C31.28 73.94 29.75 74.28 29.19 74.42C28.64 74.57 27.9 74.57 26.97 74.42C28.76 75.42 30.27 75.92 31.51 75.92C33.37 75.92 36.55 75.45 40.73 75.2C43.51 75.04 46.7 75.28 50.3 75.92Z" fill="#F9ADB0" fill-opacity="1.000000" fill-rule="evenodd"/>
		<path d="M34.31 71.75C30.74 70.59 26.59 68.31 21.85 64.91L33.79 73.4C31.28 73.94 29.75 74.28 29.19 74.42C28.64 74.57 27.9 74.57 26.97 74.42C28.76 75.42 30.27 75.92 31.51 75.92C33.37 75.92 36.55 75.45 40.73 75.2C43.51 75.04 46.7 75.28 50.3 75.92C43.21 74.31 37.88 72.92 34.31 71.75Z" stroke="#000000" stroke-opacity="0" stroke-width="1.000000"/>
		<path d="M35.65 56.73L35.65 56.76C35.83 56.98 36.14 57.01 36.35 56.83C36.57 56.66 36.6 56.35 36.43 56.13L36.4 56.13L35.65 56.73ZM17.66 49.57L17.63 49.56C17.37 49.66 17.25 49.95 17.35 50.21C17.46 50.47 17.75 50.59 18.01 50.49L18.02 50.46L17.66 49.57Z" fill="#000000" fill-opacity="0" fill-rule="nonzero"/>
		<path d="M36.04 56.45C33.64 53.49 31.75 51.58 30.35 50.72C28.24 49.42 26.68 49.07 23.83 48.91C21.92 48.8 19.92 49.17 17.82 50.02" stroke="#181818" stroke-opacity="1.000000" stroke-width="1.000000" stroke-linecap="round"/>
		<path d="M24.02 39.12C24.69 39.92 25.36 40.62 26.03 41.22C26.71 41.82 27.66 42.54 28.9 43.39C26.16 43.05 24.1 43.17 22.7 43.76C21.31 44.35 19.42 45.48 17.05 47.16C17.36 46.64 17.77 46.06 18.29 45.4C18.81 44.75 19.4 44.08 20.06 43.39L24.02 39.12Z" fill="#F9ADB0" fill-opacity="1.000000" fill-rule="evenodd"/>
		<path d="M26.03 41.22C26.71 41.82 27.66 42.54 28.9 43.39C26.16 43.05 24.1 43.17 22.7 43.76C21.31 44.35 19.42 45.48 17.05 47.16C17.36 46.64 17.77 46.06 18.29 45.4C18.81 44.75 19.4 44.08 20.06 43.39L24.02 39.12C24.69 39.92 25.36 40.62 26.03 41.22Z" stroke="#000000" stroke-opacity="0" stroke-width="1.000000"/>
		<path d="M79.38 63.09L77.05 63.6C77.06 63.99 77.22 64.74 77.53 65.85C78 67.51 79.08 68.93 79.38 68.86C79.69 68.78 79.69 67.01 79.61 65.44C79.56 64.39 79.48 63.6 79.38 63.09Z" fill="#F9ADB0" fill-opacity="1.000000" fill-rule="evenodd"/>
		<path d="M77.05 63.6C77.06 63.99 77.22 64.74 77.53 65.85C78 67.51 79.08 68.93 79.38 68.86C79.69 68.78 79.69 67.01 79.61 65.44C79.56 64.39 79.48 63.6 79.38 63.09L77.05 63.6Z" stroke="#000000" stroke-opacity="0" stroke-width="1.000000"/>
		<path d="M62.17 72.91L47.26 75.37C46.73 75.45 46.18 75.4 45.68 75.22C33.24 70.76 27.02 68.58 27.02 68.69C27.02 68.8 33.21 71.18 45.59 75.82C46.15 76.03 46.76 76.08 47.34 75.96L62.17 72.91Z" fill="#181818" fill-opacity="1.000000" fill-rule="evenodd"/>
		<path d="M47.26 75.37C46.73 75.45 46.18 75.4 45.68 75.22C33.24 70.76 27.02 68.58 27.02 68.69C27.02 68.8 33.21 71.18 45.59 75.82C46.15 76.03 46.76 76.08 47.34 75.96L62.17 72.91L47.26 75.37Z" stroke="#000000" stroke-opacity="0" stroke-width="1.000000"/>
	</g>
</svg>
