<svg width="24.000000" height="24.000000" viewBox="0 0 24 24" fill="none" xmlns="http://www.w3.org/2000/svg" xmlns:xlink="http://www.w3.org/1999/xlink">
	<desc>
			Created with Pixso.
	</desc>
	<defs/>
	<g opacity="0.000000">
		<rect width="24.000000" height="24.000000" fill="#D8D8D8" fill-opacity="1.000000"/>
		<rect width="24.000000" height="24.000000" stroke="#000000" stroke-opacity="0" stroke-width="1.000000"/>
	</g>
	<path d="M12.01 2.75C17.64 2.75 22.27 6.65 22.27 11.53C22.27 16.4 17.64 20.31 12.01 20.31C11.49 20.31 10.96 20.27 10.45 20.21C10.03 20.16 9.74 19.79 9.79 19.37C9.84 18.96 10.22 18.67 10.63 18.72C11.09 18.78 11.56 18.81 12.01 18.81C16.87 18.81 20.77 15.51 20.77 11.53C20.77 7.54 16.87 4.25 12.01 4.25C7.15 4.25 3.25 7.54 3.25 11.53C3.25 13.14 4.01 14.81 5.34 16.16C5.49 16.32 5.57 16.53 5.55 16.75C5.48 17.55 5.28 18.35 4.98 19.14L4.82 19.51L5.05 19.45C5.31 19.38 5.57 19.3 5.82 19.21L6.19 19.06C6.74 18.82 7.22 18.53 7.62 18.19C7.93 17.92 8.4 17.96 8.67 18.27C8.94 18.59 8.91 19.06 8.6 19.33C8.08 19.77 7.47 20.14 6.78 20.44C6.07 20.74 5.31 20.96 4.56 21.11L4.2 21.18C3.91 21.22 3.69 21.25 3.53 21.26C2.92 21.31 2.51 20.63 2.84 20.11L2.98 19.88C3.12 19.61 3.32 19.22 3.46 18.89C3.68 18.35 3.86 17.8 3.96 17.26L4.02 16.95L3.83 16.74C2.58 15.28 1.83 13.55 1.75 11.82L1.75 11.53C1.75 6.65 6.38 2.75 12.01 2.75ZM7.49 10.25C8.18 10.25 8.74 10.81 8.74 11.5C8.74 12.18 8.18 12.75 7.49 12.75C6.8 12.75 6.24 12.18 6.24 11.5C6.24 10.81 6.8 10.25 7.49 10.25ZM16.49 10.25C17.18 10.25 17.74 10.81 17.74 11.5C17.74 12.18 17.18 12.75 16.49 12.75C15.8 12.75 15.24 12.18 15.24 11.5C15.24 10.81 15.8 10.25 16.49 10.25ZM11.99 10.25C12.68 10.25 13.24 10.81 13.24 11.5C13.24 12.18 12.68 12.75 11.99 12.75C11.3 12.75 10.74 12.18 10.74 11.5C10.74 10.81 11.3 10.25 11.99 10.25Z" fill="#666666" fill-opacity="0.900000" fill-rule="evenodd"/>
</svg>
