<svg width="24.000000" height="24.000000" viewBox="0 0 24 24" fill="none" xmlns="http://www.w3.org/2000/svg" xmlns:xlink="http://www.w3.org/1999/xlink">
	<desc>
			Created with Pixso.
	</desc>
	<defs/>
	<path d="M4.33 22C3.09 22 2.08 21.03 2 19.8L1.99 19.64L1.99 12.15C1.99 10.91 2.95 9.88 4.17 9.8L4.33 9.8L6.68 9.8L8.18 8.42C8.82 7.83 9.27 7.07 9.47 6.22L9.52 5.99L9.95 3.6C10.17 2.37 11.47 1.66 12.62 2.16C14.13 2.81 15.03 4.36 14.88 5.99L14.85 6.2L14.56 8.16C14.49 8.57 14.11 8.86 13.7 8.79C13.33 8.74 13.06 8.41 13.06 8.04L13.07 7.94L13.37 5.98C13.52 4.94 12.97 3.94 12.03 3.53C11.79 3.43 11.53 3.55 11.44 3.79L10.99 6.26C10.78 7.43 10.22 8.5 9.39 9.34L9.2 9.52L7.72 10.87L7.72 20.49L17.7 20.5C18.43 20.5 19.06 20.01 19.27 19.31L19.3 19.17L20.46 13.28C20.66 12.3 19.96 11.38 19 11.3L18.87 11.3L12.99 11.3C12.58 11.3 12.24 10.96 12.24 10.55C12.24 10.17 12.53 9.85 12.89 9.8L12.99 9.8L18.87 9.8C20.78 9.8 22.23 11.51 21.96 13.39L21.93 13.57L20.77 19.46C20.49 20.87 19.3 21.91 17.89 21.99L17.7 22L4.33 22ZM6.22 11.3L4.33 11.3C3.91 11.3 3.55 11.62 3.5 12.04L3.49 12.15L3.49 19.64C3.49 20.08 3.82 20.44 4.23 20.49L4.33 20.5L6.22 20.49L6.22 11.3Z" fill="#666666" fill-opacity="0.900000"/>
</svg>
