<svg width="48.000000" height="48.000000" viewBox="0 0 48 48" fill="none" xmlns="http://www.w3.org/2000/svg" xmlns:xlink="http://www.w3.org/1999/xlink">
	<desc>
			Created with Pixso.
	</desc>
	<defs>
		<filter id="filter_136_647_dd" x="0.000000" y="0.000000" width="48.000000" height="48.000000" filterUnits="userSpaceOnUse" color-interpolation-filters="sRGB">
			<feFlood flood-opacity="0" result="BackgroundImageFix"/>
			<feColorMatrix in="SourceAlpha" type="matrix" values="0 0 0 0 0 0 0 0 0 0 0 0 0 0 0 0 0 0 127 0" result="hardAlpha"/>
			<feOffset dx="0" dy="0"/>
			<feGaussianBlur stdDeviation="1.33333"/>
			<feComposite in2="hardAlpha" operator="out" k2="-1" k3="1"/>
			<feColorMatrix type="matrix" values="0 0 0 0 0 0 0 0 0 0 0 0 0 0 0 0 0 0 0.15 0"/>
			<feBlend mode="normal" in2="BackgroundImageFix" result="effect_dropShadow_1"/>
			<feBlend mode="normal" in="SourceGraphic" in2="effect_dropShadow_1" result="shape"/>
		</filter>
		<linearGradient x1="24.000000" y1="4.000000" x2="24.000000" y2="44.000000" id="paint_linear_136_643_0" gradientUnits="userSpaceOnUse">
			<stop stop-color="#FE4F35"/>
			<stop offset="1.000000" stop-color="#FE4F35" stop-opacity="0.400000"/>
		</linearGradient>
	</defs>
	<g filter="url(#filter_136_647_dd)">
		<circle cx="24.000000" cy="24.000000" r="20.000000" fill="url(#paint_linear_136_643_0)" fill-opacity="1.000000"/>
		<g opacity="0.000000">
			<rect x="12.000000" y="12.000000" width="24.000000" height="24.000000" fill="#D8D8D8" fill-opacity="1.000000"/>
			<rect x="12.000000" y="12.000000" width="24.000000" height="24.000000" stroke="#000000" stroke-opacity="0" stroke-width="1.000000"/>
		</g>
		<path d="M30.03 15.62C32.96 16.69 34.47 19.93 33.4 22.86C32.68 24.84 31.14 26.86 29.01 28.87C27.98 29.85 26.87 30.76 25.76 31.58C25.57 31.72 25.38 31.86 25.2 31.99L24.68 32.35L24.28 32.62C24.24 32.64 24.2 32.66 24.16 32.68C24.15 32.68 24.06 32.7 24.04 32.7C24.03 32.7 23.93 32.7 23.92 32.7C23.91 32.7 23.81 32.67 23.79 32.66L23.31 32.35L23.06 32.18L22.52 31.79C22.42 31.72 22.33 31.65 22.23 31.58C21.12 30.76 20.01 29.85 18.98 28.87C16.85 26.86 15.31 24.84 14.59 22.86C13.52 19.93 15.03 16.69 17.96 15.62C20.11 14.84 22.47 15.44 24 17.05C25.52 15.44 27.88 14.84 30.03 15.62Z" fill="#FFFFFF" fill-opacity="1.000000" fill-rule="evenodd"/>
		<path d="M33.4 22.86C32.68 24.84 31.14 26.86 29.01 28.87C27.98 29.85 26.87 30.76 25.76 31.58C25.57 31.72 25.38 31.86 25.2 31.99L24.68 32.35L24.28 32.62C24.24 32.64 24.2 32.66 24.16 32.68C24.15 32.68 24.06 32.7 24.04 32.7C24.03 32.7 23.93 32.7 23.92 32.7C23.91 32.7 23.81 32.67 23.79 32.66L23.31 32.35L23.06 32.18L22.52 31.79C22.42 31.72 22.33 31.65 22.23 31.58C21.12 30.76 20.01 29.85 18.98 28.87C16.85 26.86 15.31 24.84 14.59 22.86C13.52 19.93 15.03 16.69 17.96 15.62C20.11 14.84 22.47 15.44 24 17.05C25.52 15.44 27.88 14.84 30.03 15.62C32.96 16.69 34.47 19.93 33.4 22.86Z" stroke="#000000" stroke-opacity="0" stroke-width="1.000000"/>
	</g>
</svg>
