<svg width="48.000000" height="48.000000" viewBox="0 0 48 48" fill="none" xmlns="http://www.w3.org/2000/svg" xmlns:xlink="http://www.w3.org/1999/xlink">
	<desc>
			Created with Pixso.
	</desc>
	<defs>
		<filter id="filter_37_86_dd" x="0.000000" y="0.000000" width="48.000000" height="48.000000" filterUnits="userSpaceOnUse" color-interpolation-filters="sRGB">
			<feFlood flood-opacity="0" result="BackgroundImageFix"/>
			<feColorMatrix in="SourceAlpha" type="matrix" values="0 0 0 0 0 0 0 0 0 0 0 0 0 0 0 0 0 0 127 0" result="hardAlpha"/>
			<feOffset dx="0" dy="0"/>
			<feGaussianBlur stdDeviation="1.33333"/>
			<feComposite in2="hardAlpha" operator="out" k2="-1" k3="1"/>
			<feColorMatrix type="matrix" values="0 0 0 0 0 0 0 0 0 0 0 0 0 0 0 0 0 0 0.15 0"/>
			<feBlend mode="normal" in2="BackgroundImageFix" result="effect_dropShadow_1"/>
			<feBlend mode="normal" in="SourceGraphic" in2="effect_dropShadow_1" result="shape"/>
		</filter>
	</defs>
	<g filter="url(#filter_37_86_dd)">
		<circle cx="24.000000" cy="24.000000" r="20.000000" fill="#FFFFFF" fill-opacity="1.000000"/>
		<path d="M32.33 15.25C32.29 15.21 32.25 15.17 32.2 15.14C32.15 15.11 32.1 15.08 32.05 15.06C32 15.04 31.94 15.02 31.89 15.01C31.83 15 31.77 15 31.72 15C31.66 15 31.6 15 31.55 15.01C31.49 15.02 31.44 15.04 31.39 15.06C31.33 15.08 31.28 15.11 31.24 15.14C31.19 15.17 31.15 15.21 31.1 15.25L17 29.35C16.96 29.39 16.92 29.44 16.89 29.48C16.86 29.53 16.83 29.58 16.81 29.63C16.79 29.69 16.77 29.74 16.76 29.8C16.75 29.85 16.75 29.91 16.75 29.97C16.75 30.02 16.75 30.08 16.76 30.13C16.77 30.19 16.79 30.24 16.81 30.3C16.83 30.35 16.86 30.4 16.89 30.45C16.92 30.49 16.96 30.54 17 30.58C17.04 30.62 17.09 30.66 17.13 30.69C17.18 30.72 17.23 30.75 17.28 30.77C17.33 30.79 17.39 30.81 17.44 30.82C17.5 30.83 17.56 30.83 17.61 30.83C17.67 30.83 17.73 30.83 17.78 30.82C17.84 30.81 17.89 30.79 17.95 30.77C18 30.75 18.05 30.72 18.1 30.69C18.14 30.66 18.19 30.62 18.23 30.58L32.33 16.48C32.37 16.43 32.41 16.39 32.44 16.34C32.47 16.3 32.5 16.25 32.52 16.19C32.54 16.14 32.56 16.09 32.57 16.03C32.58 15.98 32.58 15.92 32.58 15.86C32.58 15.81 32.58 15.75 32.57 15.69C32.56 15.64 32.54 15.58 32.52 15.53C32.5 15.48 32.47 15.43 32.44 15.38C32.41 15.33 32.37 15.29 32.33 15.25ZM23.75 16.4C23.95 16.25 24.16 16.11 24.38 15.98C24.61 15.85 24.84 15.74 25.07 15.64C25.31 15.54 25.55 15.45 25.8 15.38C26.05 15.32 26.3 15.26 26.55 15.23C26.8 15.19 27.06 15.17 27.31 15.16C27.57 15.16 27.83 15.17 28.08 15.2C28.34 15.23 28.59 15.27 28.84 15.33C29.09 15.39 29.33 15.46 29.57 15.55L17.69 27.44L15.77 25.53L15.16 24.91L15.2 24.87C15.09 24.72 14.99 24.58 14.9 24.42C14.8 24.27 14.71 24.11 14.63 23.95C14.55 23.78 14.48 23.62 14.41 23.45C14.35 23.28 14.29 23.11 14.24 22.94C14.19 22.76 14.14 22.59 14.11 22.41C14.07 22.23 14.05 22.05 14.03 21.87C14.01 21.69 14 21.51 14 21.33C13.99 21.15 14 20.97 14.01 20.79C14.03 20.61 14.05 20.43 14.08 20.25C14.11 20.07 14.14 19.89 14.19 19.71C14.23 19.54 14.29 19.37 14.35 19.2C14.41 19.03 14.48 18.86 14.55 18.69C14.63 18.53 14.71 18.37 14.8 18.21C14.89 18.05 14.99 17.9 15.09 17.75C15.2 17.6 15.31 17.46 15.42 17.32C15.54 17.18 15.66 17.05 15.79 16.92C15.92 16.79 16.06 16.67 16.2 16.56C16.33 16.44 16.48 16.33 16.63 16.23C16.78 16.13 16.93 16.03 17.09 15.94C17.25 15.85 17.41 15.77 17.57 15.7C17.74 15.62 17.91 15.56 18.08 15.5C18.25 15.44 18.42 15.39 18.6 15.34C18.78 15.3 18.95 15.26 19.13 15.23C19.31 15.21 19.49 15.19 19.67 15.18C19.85 15.16 20.03 15.16 20.21 15.16C20.4 15.17 20.58 15.18 20.76 15.2C20.94 15.22 21.12 15.25 21.29 15.29C21.47 15.32 21.65 15.37 21.82 15.42C21.99 15.47 22.16 15.53 22.33 15.6C22.5 15.67 22.67 15.74 22.83 15.83C22.99 15.91 23.15 16 23.3 16.09C23.45 16.19 23.6 16.29 23.75 16.4ZM22.52 32.27L20.14 29.9L32.35 17.69C32.46 17.83 32.55 17.98 32.64 18.13C32.74 18.29 32.82 18.44 32.9 18.6C32.97 18.77 33.04 18.93 33.11 19.1C33.17 19.26 33.22 19.43 33.27 19.6C33.32 19.78 33.36 19.95 33.39 20.12C33.43 20.3 33.45 20.48 33.47 20.65C33.48 20.83 33.49 21.01 33.49 21.19C33.5 21.37 33.49 21.54 33.48 21.72C33.46 21.9 33.44 22.08 33.41 22.25C33.38 22.43 33.34 22.6 33.3 22.78C33.25 22.95 33.2 23.12 33.14 23.29C33.08 23.45 33.01 23.62 32.93 23.78C32.86 23.94 32.78 24.1 32.69 24.26C32.6 24.41 32.5 24.56 32.4 24.71C32.3 24.85 32.19 24.99 32.08 25.13C31.96 25.27 31.84 25.4 31.72 25.53L24.97 32.27C24.93 32.31 24.89 32.35 24.85 32.39C24.8 32.42 24.76 32.46 24.71 32.49C24.66 32.52 24.61 32.55 24.56 32.57C24.51 32.6 24.46 32.63 24.41 32.65C24.36 32.67 24.3 32.69 24.25 32.7C24.19 32.72 24.14 32.74 24.08 32.75C24.03 32.76 23.97 32.77 23.92 32.77C23.86 32.78 23.8 32.78 23.75 32.78C23.69 32.78 23.63 32.78 23.58 32.77C23.52 32.77 23.46 32.76 23.41 32.75C23.35 32.74 23.3 32.72 23.24 32.7C23.19 32.69 23.13 32.67 23.08 32.65C23.03 32.63 22.98 32.6 22.93 32.57C22.88 32.55 22.83 32.52 22.78 32.49C22.73 32.46 22.69 32.42 22.65 32.39C22.6 32.35 22.56 32.31 22.52 32.27Z" fill="#000000" fill-opacity="0.400000" fill-rule="nonzero"/>
	</g>
</svg>
