<svg width="16.000000" height="16.000000" viewBox="0 0 16 16" fill="none" xmlns="http://www.w3.org/2000/svg" xmlns:xlink="http://www.w3.org/1999/xlink">
	<desc>
			Created with Pixso.
	</desc>
	<defs>
		<clipPath id="clip109_807">
			<rect width="16.000000" height="16.000000" fill="white" fill-opacity="0"/>
		</clipPath>
	</defs>
	<g opacity="0.160000">
		<rect rx="2.000000" width="16.000000" height="16.000000" fill="#F5DC62" fill-opacity="1.000000"/>
	</g>
	<g clip-path="url(#clip109_807)">
		<rect width="16.000000" height="16.000000" fill="#000000" fill-opacity="0"/>
		<rect width="16.000000" height="16.000000" stroke="#000000" stroke-opacity="0" stroke-width="1.000000"/>
		<path d="M9.33 1.34C9.36 1.34 9.39 1.34 9.42 1.35C9.43 1.35 9.47 1.36 9.48 1.37C9.49 1.37 9.56 1.4 9.57 1.4C9.59 1.42 9.67 1.47 9.68 1.49L13.16 4.98C13.3 5.12 13.34 5.33 13.26 5.52C13.19 5.71 13 5.83 12.8 5.83L10.33 5.83C9.5 5.83 8.83 5.16 8.83 4.33L8.83 2.34L4.69 2.34C4.14 2.34 3.69 2.79 3.69 3.34L3.69 12.65C3.69 13.2 4.14 13.65 4.69 13.65L11.3 13.65C11.85 13.65 12.3 13.2 12.3 12.65L12.3 6.99C12.3 6.72 12.53 6.49 12.8 6.49C13.08 6.49 13.3 6.72 13.3 6.99L13.3 12.65C13.3 13.75 12.41 14.65 11.3 14.65L4.69 14.65C3.59 14.65 2.69 13.75 2.69 12.65L2.69 3.34C2.69 2.24 3.59 1.34 4.69 1.34L9.33 1.34ZM10.33 10.47C10.58 10.47 10.79 10.67 10.79 10.93C10.79 11.18 10.58 11.39 10.33 11.39L5.66 11.39C5.41 11.39 5.2 11.18 5.2 10.93C5.2 10.67 5.41 10.47 5.66 10.47L10.33 10.47ZM8.99 7.8C9.25 7.8 9.46 8.01 9.46 8.26C9.46 8.52 9.25 8.72 8.99 8.72L5.66 8.72C5.41 8.72 5.2 8.52 5.2 8.26C5.2 8.01 5.41 7.8 5.66 7.8L8.99 7.8ZM9.83 3.05L9.83 4.33C9.83 4.6 10.05 4.83 10.33 4.83L11.6 4.83L9.83 3.05Z" fill="#000000" fill-opacity="0.900000" fill-rule="nonzero"/>
	</g>
</svg>
