<svg width="16.000000" height="16.000000" viewBox="0 0 16 16" fill="none" xmlns="http://www.w3.org/2000/svg" xmlns:xlink="http://www.w3.org/1999/xlink">
	<desc>
			Created with Pixso.
	</desc>
	<defs>
		<clipPath id="clip107_783">
			<rect width="14.000000" height="14.000000" transform="translate(1.000000 1.000000)" fill="white" fill-opacity="0"/>
		</clipPath>
	</defs>
	<g opacity="0.160000">
		<rect rx="2.000000" width="16.000000" height="16.000000" fill="#B6C6B3" fill-opacity="1.000000"/>
	</g>
	<g clip-path="url(#clip107_783)">
		<g opacity="0.000000">
			<rect width="16.000000" height="16.000000" fill="#D8D8D8" fill-opacity="1.000000"/>
			<rect width="16.000000" height="16.000000" stroke="#000000" stroke-opacity="0" stroke-width="1.000000"/>
		</g>
		<path d="M2.5 9.16C2.75 9.16 2.96 9.35 2.99 9.59L3 9.66L3 12C3 12.52 3.39 12.94 3.9 12.99L4 13L6.33 13C6.6 13 6.83 13.22 6.83 13.5C6.83 13.75 6.64 13.96 6.4 13.99L6.33 14L4 14C2.93 14 2.06 13.16 2 12.11L2 12L2 9.66C2 9.39 2.22 9.16 2.5 9.16ZM13.5 9.16C13.75 9.16 13.96 9.35 13.99 9.59L14 9.66L14 12C14 13.06 13.16 13.93 12.11 13.99L12 14L9.66 14C9.39 14 9.16 13.77 9.16 13.5C9.16 13.24 9.35 13.03 9.59 13L9.66 13L12 13C12.52 13 12.94 12.6 12.99 12.09L13 12L13 9.66C13 9.39 13.22 9.16 13.5 9.16ZM7.99 3.84C9.86 3.84 11.38 5.35 11.38 7.23C11.34 9.05 10.21 10.76 8.29 12.07C8.2 12.14 8.09 12.17 7.99 12.16C7.89 12.17 7.78 12.14 7.69 12.07C5.77 10.76 4.64 9.05 4.6 7.22C4.6 5.4 6.04 3.91 7.84 3.84L7.99 3.84ZM7.99 4.84C6.67 4.84 5.6 5.9 5.6 7.21C5.63 8.59 6.48 9.95 7.99 11.06C9.5 9.95 10.35 8.59 10.38 7.22C10.38 5.95 9.38 4.9 8.12 4.84L7.99 4.84ZM7.99 6.06C8.64 6.06 9.16 6.58 9.16 7.22C9.16 7.87 8.64 8.39 7.99 8.39C7.34 8.39 6.82 7.87 6.82 7.22C6.82 6.58 7.34 6.06 7.99 6.06ZM12 2C13.06 2 13.93 2.83 13.99 3.88L14 4L14 6.33C14 6.6 13.77 6.83 13.5 6.83C13.24 6.83 13.03 6.64 13 6.4L13 6.33L13 4C13 3.48 12.6 3.05 12.09 3L12 3L9.66 3C9.39 3 9.16 2.77 9.16 2.5C9.16 2.24 9.35 2.03 9.59 2L9.66 2L12 2ZM6.33 2C6.6 2 6.83 2.22 6.83 2.5C6.83 2.75 6.64 2.96 6.4 2.99L6.33 3L4 3C3.48 3 3.05 3.39 3 3.9L3 4L3 6.33C3 6.6 2.77 6.83 2.5 6.83C2.24 6.83 2.03 6.64 2 6.4L2 6.33L2 4C2 2.93 2.83 2.06 3.88 2L4 2L6.33 2Z" fill="#000000" fill-opacity="0.900000" fill-rule="evenodd"/>
	</g>
</svg>
