<svg width="16.000000" height="16.000000" viewBox="0 0 16 16" fill="none" xmlns="http://www.w3.org/2000/svg" xmlns:xlink="http://www.w3.org/1999/xlink">
	<desc>
			Created with Pixso.
	</desc>
	<defs>
		<clipPath id="clip54_465">
			<rect width="16.000000" height="16.000000" fill="white" fill-opacity="0"/>
		</clipPath>
	</defs>
	<g clip-path="url(#clip54_465)">
		<g opacity="0.000000">
			<rect width="16.000000" height="16.000000" fill="#D8D8D8" fill-opacity="1.000000"/>
			<rect width="16.000000" height="16.000000" stroke="#000000" stroke-opacity="0" stroke-width="1.000000"/>
		</g>
		<path d="M8.04 1.33L8.19 1.33C10.99 1.44 13.24 3.76 13.24 6.58C13.24 8.92 11.74 11.26 9.56 13.37C9.36 13.57 9.04 13.56 8.85 13.36C8.66 13.16 8.66 12.85 8.86 12.65C10.87 10.72 12.24 8.57 12.24 6.58C12.24 4.25 10.35 2.34 8.02 2.33C5.69 2.35 3.77 4.26 3.77 6.58C3.77 7.95 4.5 9.52 5.77 11.13C6.62 12.22 7.6 13.19 8.32 13.8C8.53 13.97 8.56 14.29 8.38 14.5C8.21 14.71 7.89 14.74 7.68 14.56C6.91 13.92 5.88 12.89 4.98 11.75C3.59 9.97 2.77 8.22 2.77 6.58C2.77 3.71 5.1 1.36 7.93 1.33L8.04 1.33ZM7.99 4.39C9.19 4.39 10.16 5.36 10.16 6.55C10.16 7.75 9.19 8.72 7.99 8.72C6.8 8.72 5.83 7.75 5.83 6.55C5.83 5.36 6.8 4.39 7.99 4.39ZM7.99 5.39C7.35 5.39 6.83 5.91 6.83 6.55C6.83 7.2 7.35 7.72 7.99 7.72C8.64 7.72 9.16 7.2 9.16 6.55C9.16 5.91 8.64 5.39 7.99 5.39Z" fill="#666666" fill-opacity="0.900000" fill-rule="evenodd"/>
		<path d="M8.19 1.33C10.99 1.44 13.24 3.76 13.24 6.58C13.24 8.92 11.74 11.26 9.56 13.37C9.36 13.57 9.04 13.56 8.85 13.36C8.66 13.16 8.66 12.85 8.86 12.65C10.87 10.72 12.24 8.57 12.24 6.58C12.24 4.25 10.35 2.34 8.02 2.33C5.69 2.35 3.77 4.26 3.77 6.58C3.77 7.95 4.5 9.52 5.77 11.13C6.62 12.22 7.6 13.19 8.32 13.8C8.53 13.97 8.56 14.29 8.38 14.5C8.21 14.71 7.89 14.74 7.68 14.56C6.91 13.92 5.88 12.89 4.98 11.75C3.59 9.97 2.77 8.22 2.77 6.58C2.77 3.71 5.1 1.36 7.93 1.33L8.04 1.33L8.19 1.33ZM10.16 6.55C10.16 7.75 9.19 8.72 7.99 8.72C6.8 8.72 5.83 7.75 5.83 6.55C5.83 5.36 6.8 4.39 7.99 4.39C9.19 4.39 10.16 5.36 10.16 6.55ZM6.83 6.55C6.83 7.2 7.35 7.72 7.99 7.72C8.64 7.72 9.16 7.2 9.16 6.55C9.16 5.91 8.64 5.39 7.99 5.39C7.35 5.39 6.83 5.91 6.83 6.55Z" stroke="#000000" stroke-opacity="0" stroke-width="1.000000"/>
	</g>
</svg>
