<svg width="16.000000" height="16.000000" viewBox="0 0 16 16" fill="none" xmlns="http://www.w3.org/2000/svg" xmlns:xlink="http://www.w3.org/1999/xlink">
	<desc>
			Created with Pixso.
	</desc>
	<defs>
		<clipPath id="clip109_818">
			<rect width="16.000000" height="16.000000" fill="white" fill-opacity="0"/>
		</clipPath>
	</defs>
	<g opacity="0.160000">
		<rect rx="2.000000" width="16.000000" height="16.000000" fill="#8981F7" fill-opacity="1.000000"/>
	</g>
	<g clip-path="url(#clip109_818)">
		<g opacity="0.000000">
			<rect width="16.000000" height="16.000000" fill="#D8D8D8" fill-opacity="1.000000"/>
			<rect width="16.000000" height="16.000000" stroke="#000000" stroke-opacity="0" stroke-width="1.000000"/>
		</g>
		<path d="M8.99 1.33C9.48 1.33 9.92 1.64 10.09 2.1L10.12 2.19L10.37 3.14L10.57 3.26L10.78 3.37L11.72 3.12C12.16 3 12.62 3.15 12.91 3.49L12.97 3.57L13.03 3.66L13.37 4.26L14.19 5.66C14.32 5.89 14.37 6.14 14.33 6.4C14.3 6.61 14.22 6.82 14.08 6.99L14 7.07L13.32 7.75L13.33 7.92L13.33 8.04L13.32 8.15C13.32 8.41 13.13 8.63 12.89 8.67L12.82 8.67C12.57 8.67 12.36 8.48 12.33 8.24L12.32 8.17L12.33 8L12.32 7.76L12.31 7.6C12.3 7.48 12.33 7.36 12.41 7.26L13.29 6.36C13.32 6.34 13.34 6.3 13.34 6.27C13.34 6.24 13.34 6.22 13.33 6.19L12.51 4.76L12.16 4.16C12.13 4.11 12.08 4.08 12.02 4.08L10.83 4.39C10.71 4.42 10.58 4.41 10.48 4.35L10.35 4.28L10.13 4.16L9.77 3.95C9.66 3.89 9.53 3.78 9.48 3.67L9.46 3.6L9.15 2.45C9.13 2.38 9.06 2.33 8.99 2.33L6.68 2.33C6.62 2.33 6.57 2.36 6.54 2.41L6.21 3.6C6.18 3.71 6.11 3.81 6.02 3.88L5.85 3.97L5.6 4.12L5.31 4.28C5.21 4.35 5.03 4.42 4.91 4.4L4.84 4.39L3.69 4.08C3.63 4.07 3.57 4.09 3.53 4.13L2.37 6.13L2.34 6.21L2.34 6.3L3.22 7.21C3.3 7.29 3.35 7.41 3.36 7.53L3.36 7.6L3.35 7.76L3.34 7.9L3.34 7.99L3.35 8.23L3.36 8.39C3.37 8.51 3.34 8.63 3.26 8.73L2.37 9.63L2.33 9.72L2.37 9.86L3.5 11.83C3.53 11.88 3.58 11.91 3.64 11.91L4.84 11.6C4.95 11.57 5.06 11.58 5.16 11.62L5.24 11.66L5.33 11.72L5.6 11.87L5.88 12.04C5.99 12.09 6.14 12.21 6.18 12.32L6.21 12.39L6.52 13.54C6.53 13.6 6.58 13.64 6.64 13.66L8.15 13.66C8.4 13.66 8.63 13.85 8.66 14.09L8.67 14.16C8.67 14.41 8.48 14.62 8.24 14.66L8.17 14.66L6.68 14.66C6.19 14.66 5.75 14.35 5.58 13.89L5.55 13.8L5.3 12.85L5.15 12.76L4.89 12.62L3.95 12.87C3.89 12.89 3.82 12.9 3.76 12.91L3.66 12.91L3.57 12.91C3.22 12.88 2.9 12.7 2.7 12.42L2.64 12.33L1.48 10.32C1.46 10.29 1.45 10.26 1.44 10.23L1.4 10.11C1.35 9.99 1.33 9.86 1.33 9.75L1.34 9.59L1.36 9.49C1.4 9.31 1.48 9.14 1.59 9L1.67 8.92L2.35 8.24L2.34 8L2.35 7.75L1.67 7.07C1.53 6.93 1.43 6.76 1.38 6.55L1.35 6.45L1.33 6.33L1.33 6.26C1.33 6.18 1.34 6.1 1.36 6.01L1.39 5.89L1.45 5.73L1.48 5.66L2.64 3.66C2.88 3.24 3.37 3.01 3.85 3.1L3.95 3.12L4.89 3.37L5.07 3.27L5.3 3.14L5.55 2.19C5.68 1.71 6.1 1.37 6.58 1.33L6.68 1.33L8.99 1.33ZM14.16 13.66C14.44 13.66 14.66 13.89 14.66 14.16C14.66 14.41 14.47 14.62 14.23 14.66L14.16 14.66L9.83 14.66C9.55 14.66 9.33 14.44 9.33 14.16C9.33 13.91 9.52 13.7 9.76 13.67L9.83 13.66L14.16 13.66ZM14.16 11.5C14.44 11.5 14.66 11.72 14.66 12C14.66 12.25 14.47 12.46 14.23 12.49L14.16 12.5L9.83 12.5C9.55 12.5 9.33 12.27 9.33 12C9.33 11.74 9.52 11.53 9.76 11.5L9.83 11.5L14.16 11.5ZM7.83 5.17C9.4 5.17 10.67 6.43 10.67 8C10.67 9.56 9.4 10.83 7.83 10.83C6.27 10.83 5 9.56 5 8C5 6.43 6.27 5.17 7.83 5.17ZM14.16 9.33C14.44 9.33 14.66 9.55 14.66 9.83C14.66 10.08 14.47 10.29 14.23 10.32L14.16 10.33L11.48 10.33C11.21 10.33 10.98 10.1 10.98 9.83C10.98 9.58 11.17 9.37 11.42 9.33L11.48 9.33L14.16 9.33ZM7.83 6.17C6.82 6.17 6 6.99 6 8C6 9.01 6.82 9.83 7.83 9.83C8.85 9.83 9.67 9.01 9.67 8C9.67 6.99 8.85 6.17 7.83 6.17Z" fill="#000000" fill-opacity="0.900000" fill-rule="evenodd"/>
	</g>
</svg>
