<svg width="20.000000" height="20.000000" viewBox="0 0 20 20" fill="none" xmlns="http://www.w3.org/2000/svg" xmlns:xlink="http://www.w3.org/1999/xlink">
	<desc>
			Created with Pixso.
	</desc>
	<defs/>
	<rect rx="10.000000" width="20.000000" height="20.000000" fill="#FE4F35" fill-opacity="1.000000"/>
	<path d="M12.01 5.56L14.79 8.34L8.73 14.4C8.67 14.46 8.61 14.5 8.54 14.52L4.7 16.28C4.64 16.31 4.57 16.33 4.5 16.33C4.36 16.33 4.24 16.27 4.14 16.18C3.99 16.03 3.95 15.8 4.04 15.61L5.84 11.78C5.86 11.75 5.87 11.72 5.89 11.69C5.91 11.67 5.93 11.64 5.96 11.62L12.01 5.56ZM13.91 14.01C15.13 14.01 15.99 15.15 16.02 15.2C16.19 15.42 16.14 15.74 15.91 15.9C15.69 16.06 15.38 16.01 15.22 15.79C15.21 15.79 14.63 15.01 13.91 15.01C13.63 15.01 13.33 15.23 13.02 15.48L12.91 15.56C12.46 15.92 11.95 16.32 11.29 16.32C10.06 16.32 9.24 15.18 9.21 15.13C9.05 14.9 9.11 14.59 9.33 14.43C9.56 14.27 9.87 14.33 10.03 14.55C10.03 14.56 10.58 15.32 11.29 15.32C11.6 15.32 11.94 15.06 12.29 14.78C12.74 14.42 13.25 14.01 13.91 14.01ZM13.01 4.57C13.76 3.81 15 3.8 15.76 4.55C16.14 4.91 16.36 5.41 16.36 5.94C16.36 6.47 16.16 6.97 15.79 7.34L15.5 7.64L12.72 4.86L13.01 4.57Z" fill="#FFFFFF" fill-opacity="1.000000" fill-rule="evenodd"/>
	<path d="M14.79 8.34L8.73 14.4C8.67 14.46 8.61 14.5 8.54 14.52L4.7 16.28C4.64 16.31 4.57 16.33 4.5 16.33C4.36 16.33 4.24 16.27 4.14 16.18C3.99 16.03 3.95 15.8 4.04 15.61L5.84 11.78C5.86 11.75 5.87 11.72 5.89 11.69C5.91 11.67 5.93 11.64 5.96 11.62L12.01 5.56L14.79 8.34ZM16.02 15.2C16.19 15.42 16.14 15.74 15.91 15.9C15.69 16.06 15.38 16.01 15.22 15.79C15.21 15.79 14.63 15.01 13.91 15.01C13.63 15.01 13.33 15.23 13.02 15.48L12.91 15.56C12.46 15.92 11.95 16.32 11.29 16.32C10.06 16.32 9.24 15.18 9.21 15.13C9.05 14.9 9.11 14.59 9.33 14.43C9.56 14.27 9.87 14.33 10.03 14.55C10.03 14.56 10.58 15.32 11.29 15.32C11.6 15.32 11.94 15.06 12.29 14.78C12.74 14.42 13.25 14.01 13.91 14.01C15.13 14.01 15.99 15.15 16.02 15.2ZM15.76 4.55C16.14 4.91 16.36 5.41 16.36 5.94C16.36 6.47 16.16 6.97 15.79 7.34L15.5 7.64L12.72 4.86L13.01 4.57C13.76 3.81 15 3.8 15.76 4.55Z" stroke="#000000" stroke-opacity="0" stroke-width="1.000000"/>
</svg>
