<svg width="120.000000" height="120.000000" viewBox="0 0 120 120" fill="none" xmlns="http://www.w3.org/2000/svg" xmlns:xlink="http://www.w3.org/1999/xlink">
	<desc>
			Created with Pixso.
	</desc>
	<defs>
		<clipPath id="clip134_422">
			<rect width="120.000000" height="120.000000" fill="white" fill-opacity="0"/>
		</clipPath>
	</defs>
	<g clip-path="url(#clip134_422)">
		<g opacity="0.150000">
			<path d="M21.24 93.72L21.25 95.52C21.25 96.64 22.12 97.57 23.23 97.65L23.38 97.65L97.72 97.65C98.85 97.65 99.77 96.78 99.85 95.67L99.86 95.52L99.86 94.34C101.56 95.1 102.5 95.91 102.5 96.77C102.5 97.77 101.2 98.73 98.87 99.59L98.32 99.79L97.72 99.98C97.42 100.08 97.1 100.18 96.77 100.27L96.09 100.46C95.86 100.52 95.62 100.58 95.38 100.64L94.63 100.81L93.85 100.99L93.04 101.16L92.2 101.32L91.33 101.48C91.19 101.51 91.04 101.54 90.89 101.56L89.97 101.72L89.03 101.87C88.87 101.89 88.71 101.92 88.55 101.94L87.57 102.08L86.56 102.22L85.52 102.35L84.46 102.48L83.37 102.6L81.7 102.78L80.56 102.88L79.39 102.99L78.2 103.08L77 103.17L75.77 103.26L74.52 103.34L73.26 103.41L71.97 103.48L70.02 103.56L68.69 103.61L67.35 103.66L66 103.69L64.63 103.72L63.25 103.74L61.86 103.76L60.45 103.77L59.04 103.77L57.63 103.76L56.24 103.74L54.86 103.72L53.49 103.69L52.14 103.66L50.8 103.61L49.47 103.56L47.52 103.48L45.6 103.38L44.34 103.3L43.1 103.22L41.89 103.13L40.69 103.04L39.51 102.94L38.36 102.83L36.67 102.66L35.03 102.48L33.97 102.35L32.93 102.22L31.92 102.08L30.94 101.94C30.78 101.92 30.62 101.89 30.46 101.87L29.52 101.72L28.6 101.56L27.72 101.4C27.57 101.38 27.43 101.35 27.29 101.32L26.45 101.16L25.64 100.99L24.86 100.81L24.11 100.64C23.99 100.61 23.87 100.58 23.75 100.55L23.06 100.36C22.6 100.24 22.17 100.11 21.77 99.98L21.17 99.79L20.62 99.59C18.29 98.73 17 97.77 17 96.77C17 95.68 18.52 94.64 21.24 93.72Z" fill="#A1A7B3" fill-opacity="1.000000" fill-rule="evenodd"/>
			<path d="M21.25 95.52C21.25 96.64 22.12 97.57 23.23 97.65L23.38 97.65L97.72 97.65C98.85 97.65 99.77 96.78 99.85 95.67L99.86 95.52L99.86 94.34C101.56 95.1 102.5 95.91 102.5 96.77C102.5 97.77 101.2 98.73 98.87 99.59L98.32 99.79L97.72 99.98C97.42 100.08 97.1 100.18 96.77 100.27L96.09 100.46C95.86 100.52 95.62 100.58 95.38 100.64L94.63 100.81L93.85 100.99L93.04 101.16L92.2 101.32L91.33 101.48C91.19 101.51 91.04 101.54 90.89 101.56L89.97 101.72L89.03 101.87C88.87 101.89 88.71 101.92 88.55 101.94L87.57 102.08L86.56 102.22L85.52 102.35L84.46 102.48L83.37 102.6L81.7 102.78L80.56 102.88L79.39 102.99L78.2 103.08L77 103.17L75.77 103.26L74.52 103.34L73.26 103.41L71.97 103.48L70.02 103.56L68.69 103.61L67.35 103.66L66 103.69L64.63 103.72L63.25 103.74L61.86 103.76L60.45 103.77L59.04 103.77L57.63 103.76L56.24 103.74L54.86 103.72L53.49 103.69L52.14 103.66L50.8 103.61L49.47 103.56L47.52 103.48L45.6 103.38L44.34 103.3L43.1 103.22L41.89 103.13L40.69 103.04L39.51 102.94L38.36 102.83L36.67 102.66L35.03 102.48L33.97 102.35L32.93 102.22L31.92 102.08L30.94 101.94C30.78 101.92 30.62 101.89 30.46 101.87L29.52 101.72L28.6 101.56L27.72 101.4C27.57 101.38 27.43 101.35 27.29 101.32L26.45 101.16L25.64 100.99L24.86 100.81L24.11 100.64C23.99 100.61 23.87 100.58 23.75 100.55L23.06 100.36C22.6 100.24 22.17 100.11 21.77 99.98L21.17 99.79L20.62 99.59C18.29 98.73 17 97.77 17 96.77C17 95.68 18.52 94.64 21.24 93.72L21.25 95.52Z" stroke="#000000" stroke-opacity="0" stroke-width="1.000000"/>
		</g>
		<g opacity="0.400000">
			<path d="M86.01 54.4L99.6 70.19C99.74 70.36 99.83 70.57 99.85 70.79L99.86 70.92L99.86 95.52C99.86 96.7 98.9 97.65 97.72 97.65L23.38 97.65C22.2 97.65 21.24 96.7 21.24 95.52L21.24 70.92C21.24 70.69 21.3 70.47 21.44 70.28L34.5 54.83C36.34 67.39 47.16 77.03 60.23 77.03C73.45 77.03 84.36 67.17 86.01 54.4ZM85.21 58.55C82.06 69.36 72.07 77.26 60.25 77.26C48.71 77.26 38.93 69.75 35.53 59.36L35.41 58.99L27.28 69.43C27 69.86 27.01 70.49 27.37 70.85L27.54 70.98C27.68 71.07 27.84 71.13 28 71.15L28.13 71.16L37.75 71.16L37.75 78.58C37.75 79.41 38.4 80.1 39.21 80.17L39.36 80.18L83.74 80.18C84.58 80.18 85.27 79.54 85.34 78.72L85.35 78.58L85.35 71.16L92.97 71.16C93.53 71.12 94.04 70.65 94.04 70.09C94.04 69.89 93.99 69.71 93.89 69.54L93.81 69.42L85.21 58.55Z" fill="#A1A7B3" fill-opacity="1.000000" fill-rule="evenodd"/>
			<path d="M99.6 70.19C99.74 70.36 99.83 70.57 99.85 70.79L99.86 70.92L99.86 95.52C99.86 96.7 98.9 97.65 97.72 97.65L23.38 97.65C22.2 97.65 21.24 96.7 21.24 95.52L21.24 70.92C21.24 70.69 21.3 70.47 21.44 70.28L34.5 54.83C36.34 67.39 47.16 77.03 60.23 77.03C73.45 77.03 84.36 67.17 86.01 54.4L99.6 70.19ZM60.25 77.26C48.71 77.26 38.93 69.75 35.53 59.36L35.41 58.99L27.28 69.43C27 69.86 27.01 70.49 27.37 70.85L27.54 70.98C27.68 71.07 27.84 71.13 28 71.15L28.13 71.16L37.75 71.16L37.75 78.58C37.75 79.41 38.4 80.1 39.21 80.17L39.36 80.18L83.74 80.18C84.58 80.18 85.27 79.54 85.34 78.72L85.35 78.58L85.35 71.16L92.97 71.16C93.53 71.12 94.04 70.65 94.04 70.09C94.04 69.89 93.99 69.71 93.89 69.54L93.81 69.42L85.21 58.55C82.06 69.36 72.07 77.26 60.25 77.26Z" stroke="#000000" stroke-opacity="0" stroke-width="1.000000"/>
		</g>
		<g opacity="0.600000">
			<path d="M85.21 58.55L93.81 69.42C93.96 69.61 94.04 69.85 94.04 70.09C94.04 70.65 93.61 71.11 93.05 71.15L85.35 71.16L85.35 78.58C85.35 79.46 84.63 80.18 83.74 80.18L39.36 80.18C38.47 80.18 37.75 79.46 37.75 78.58L37.75 71.16L28.13 71.16C27.92 71.16 27.72 71.1 27.54 70.98C27.1 70.64 26.93 69.96 27.23 69.5L35.41 58.99C38.7 69.57 48.58 77.26 60.25 77.26C72.07 77.26 82.06 69.36 85.21 58.55Z" fill="#A1A7B3" fill-opacity="1.000000" fill-rule="evenodd"/>
			<path d="M93.81 69.42C93.96 69.61 94.04 69.85 94.04 70.09C94.04 70.65 93.61 71.11 93.05 71.15L85.35 71.16L85.35 78.58C85.35 79.46 84.63 80.18 83.74 80.18L39.36 80.18C38.47 80.18 37.75 79.46 37.75 78.58L37.75 71.16L28.13 71.16C27.92 71.16 27.72 71.1 27.54 70.98C27.1 70.64 26.93 69.96 27.23 69.5L35.41 58.99C38.7 69.57 48.58 77.26 60.25 77.26C72.07 77.26 82.06 69.36 85.21 58.55L93.81 69.42Z" stroke="#000000" stroke-opacity="0" stroke-width="1.000000"/>
		</g>
		<path d="M70.19 56.68L71.6 65.05C71.89 66.76 70.15 68.07 68.62 67.33L63.13 64.41C63.86 63.79 64.6 63.04 65.38 62.14C66.61 60.71 68.27 58.51 70.37 55.53C70.19 55.89 70.14 56.27 70.19 56.68ZM62.06 35.43L65.78 43.03C66.07 43.63 66.62 44.06 67.27 44.18L75.58 45.41C77.28 45.65 77.97 47.73 76.81 48.97L70.81 54.9C67.13 58.1 62.93 61.11 58.2 63.94L51.89 67.28C50.37 68.09 48.6 66.82 48.83 65.13L50.24 56.77C50.35 56.11 50.15 55.45 49.7 54.96L43.68 49.03C42.46 47.83 43.1 45.73 44.76 45.42L53.07 44.21C53.72 44.11 54.29 43.71 54.61 43.13L58.33 35.51C59.09 33.96 61.26 33.93 62.06 35.43Z" fill="#A1A7B3" fill-opacity="0.800000" fill-rule="nonzero"/>
		<path d="M71.6 65.05C71.89 66.76 70.15 68.07 68.62 67.33L63.13 64.41C63.86 63.79 64.6 63.04 65.38 62.14C66.61 60.71 68.27 58.51 70.37 55.53C70.19 55.89 70.14 56.27 70.19 56.68L71.6 65.05ZM65.78 43.03C66.07 43.63 66.62 44.06 67.27 44.18L75.58 45.41C77.28 45.65 77.97 47.73 76.81 48.97L70.81 54.9C67.13 58.1 62.93 61.11 58.2 63.94L51.89 67.28C50.37 68.09 48.6 66.82 48.83 65.13L50.24 56.77C50.35 56.11 50.15 55.45 49.7 54.96L43.68 49.03C42.46 47.83 43.1 45.73 44.76 45.42L53.07 44.21C53.72 44.11 54.29 43.71 54.61 43.13L58.33 35.51C59.09 33.96 61.26 33.93 62.06 35.43L65.78 43.03Z" stroke="#000000" stroke-opacity="0" stroke-width="1.000000"/>
		<path d="M70.81 54.9C70.62 55.08 70.48 55.29 70.37 55.53C68.27 58.51 66.61 60.71 65.38 62.14C64.6 63.04 63.85 63.8 63.13 64.41L61.2 63.39C60.61 63.08 59.92 63.06 59.33 63.34L58.2 63.94C62.93 61.11 67.13 58.1 70.81 54.9Z" fill="#A1A7B3" fill-opacity="0.600000" fill-rule="nonzero"/>
		<path d="M70.37 55.53C68.27 58.51 66.61 60.71 65.38 62.14C64.6 63.04 63.85 63.8 63.13 64.41L61.2 63.39C60.61 63.08 59.92 63.06 59.33 63.34L58.2 63.94C62.93 61.11 67.13 58.1 70.81 54.9C70.62 55.08 70.48 55.29 70.37 55.53Z" stroke="#000000" stroke-opacity="0" stroke-width="1.000000"/>
		<path d="M60.25 25.26C74.6 25.26 86.25 36.9 86.25 51.26C86.25 65.62 74.6 77.26 60.25 77.26C45.89 77.26 34.25 65.62 34.25 51.26C34.25 36.9 45.89 25.26 60.25 25.26ZM62.06 35.43C61.26 33.93 59.09 33.96 58.33 35.51L54.65 43.04C54.33 43.62 53.72 44.11 53.07 44.21L44.85 45.41C43.19 45.72 42.46 47.83 43.68 49.03L49.63 54.89C50.08 55.38 50.35 56.11 50.24 56.77L48.84 65.04C48.61 66.74 50.37 68.09 51.89 67.28L59.24 63.39C59.83 63.11 60.61 63.08 61.2 63.39L68.55 67.29C70.08 68.03 71.89 66.76 71.6 65.05L70.2 56.78C70.12 56.12 70.34 55.36 70.81 54.9L76.75 49.03C77.91 47.79 77.28 45.65 75.58 45.41L67.36 44.2C66.72 44.07 66.07 43.63 65.78 43.03L62.06 35.43Z" fill="#A1A7B3" fill-opacity="0.298039" fill-rule="evenodd"/>
		<path d="M86.25 51.26C86.25 65.62 74.6 77.26 60.25 77.26C45.89 77.26 34.25 65.62 34.25 51.26C34.25 36.9 45.89 25.26 60.25 25.26C74.6 25.26 86.25 36.9 86.25 51.26ZM58.33 35.51L54.65 43.04C54.33 43.62 53.72 44.11 53.07 44.21L44.85 45.41C43.19 45.72 42.46 47.83 43.68 49.03L49.63 54.89C50.08 55.38 50.35 56.11 50.24 56.77L48.84 65.04C48.61 66.74 50.37 68.09 51.89 67.28L59.24 63.39C59.83 63.11 60.61 63.08 61.2 63.39L68.55 67.29C70.08 68.03 71.89 66.76 71.6 65.05L70.2 56.78C70.12 56.12 70.34 55.36 70.81 54.9L76.75 49.03C77.91 47.79 77.28 45.65 75.58 45.41L67.36 44.2C66.72 44.07 66.07 43.63 65.78 43.03L62.06 35.43C61.26 33.93 59.09 33.96 58.33 35.51Z" stroke="#000000" stroke-opacity="0" stroke-width="1.000000"/>
		<g opacity="0.200000">
			<path d="M92.8 31.63L86.45 34.86C85.78 35.2 85.51 36.03 85.85 36.7C86.2 37.37 87.02 37.64 87.69 37.29L94.04 34.06C94.71 33.72 94.98 32.89 94.64 32.22C94.29 31.55 93.47 31.28 92.8 31.63ZM81.26 17.37C80.63 16.96 79.78 17.14 79.37 17.77L75.49 23.75C75.08 24.38 75.26 25.22 75.89 25.63C76.52 26.04 77.37 25.86 77.78 25.23L81.66 19.25C82.07 18.62 81.89 17.78 81.26 17.37ZM88.38 23.89C87.88 23.33 87.02 23.29 86.46 23.79L81.16 28.56C80.6 29.07 80.55 29.93 81.06 30.49C81.56 31.05 82.43 31.09 82.99 30.59L88.28 25.82C88.84 25.32 88.89 24.45 88.38 23.89Z" fill="#A1A7B3" fill-opacity="1.000000" fill-rule="evenodd"/>
			<path d="M86.45 34.86C85.78 35.2 85.51 36.03 85.85 36.7C86.2 37.37 87.02 37.64 87.69 37.29L94.04 34.06C94.71 33.72 94.98 32.89 94.64 32.22C94.29 31.55 93.47 31.28 92.8 31.63L86.45 34.86ZM79.37 17.77L75.49 23.75C75.08 24.38 75.26 25.22 75.89 25.63C76.52 26.04 77.37 25.86 77.78 25.23L81.66 19.25C82.07 18.62 81.89 17.78 81.26 17.37C80.63 16.96 79.78 17.14 79.37 17.77ZM86.46 23.79L81.16 28.56C80.6 29.07 80.55 29.93 81.06 30.49C81.56 31.05 82.43 31.09 82.99 30.59L88.28 25.82C88.84 25.32 88.89 24.45 88.38 23.89C87.88 23.33 87.02 23.29 86.46 23.79Z" stroke="#000000" stroke-opacity="0" stroke-width="1.000000"/>
		</g>
		<g opacity="0.200000">
			<path d="M27.67 31.63L34.03 34.86C34.7 35.2 34.96 36.03 34.62 36.7C34.28 37.37 33.46 37.64 32.79 37.29L26.44 34.06C25.76 33.72 25.5 32.89 25.84 32.22C26.18 31.55 27 31.28 27.67 31.63ZM39.22 17.37C39.85 16.96 40.69 17.14 41.1 17.77L44.98 23.75C45.4 24.38 45.22 25.22 44.58 25.63C43.95 26.04 43.11 25.86 42.7 25.23L38.81 19.25C38.4 18.62 38.58 17.78 39.22 17.37ZM32.09 23.89C32.6 23.33 33.46 23.29 34.02 23.79L39.32 28.56C39.88 29.07 39.92 29.93 39.42 30.49C38.91 31.05 38.05 31.09 37.49 30.59L32.19 25.82C31.63 25.32 31.59 24.45 32.09 23.89Z" fill="#A1A7B3" fill-opacity="1.000000" fill-rule="evenodd"/>
			<path d="M34.03 34.86C34.7 35.2 34.96 36.03 34.62 36.7C34.28 37.37 33.46 37.64 32.79 37.29L26.44 34.06C25.76 33.72 25.5 32.89 25.84 32.22C26.18 31.55 27 31.28 27.67 31.63L34.03 34.86ZM41.1 17.77L44.98 23.75C45.4 24.38 45.22 25.22 44.58 25.63C43.95 26.04 43.11 25.86 42.7 25.23L38.81 19.25C38.4 18.62 38.58 17.78 39.22 17.37C39.85 16.96 40.69 17.14 41.1 17.77ZM34.02 23.79L39.32 28.56C39.88 29.07 39.92 29.93 39.42 30.49C38.91 31.05 38.05 31.09 37.49 30.59L32.19 25.82C31.63 25.32 31.59 24.45 32.09 23.89C32.6 23.33 33.46 23.29 34.02 23.79Z" stroke="#000000" stroke-opacity="0" stroke-width="1.000000"/>
		</g>
	</g>
</svg>
