<svg width="45.000000" height="59.999969" viewBox="0 0 45 60" fill="none" xmlns="http://www.w3.org/2000/svg" xmlns:xlink="http://www.w3.org/1999/xlink">
	<desc>
			Created with Pixso.
	</desc>
	<defs/>
	<g opacity="0.600000">
		<g opacity="0.200000">
			<mask id="mask_136_656" fill="white">
				<path d="M45 0.0591278C40.3647 0.43161 35.9578 2.55336 32.7045 6.09862C27.6037 0.541748 19.6664 -1.51843 12.46 1.17491C2.6367 4.84467 -2.42963 15.9975 1.14729 26.083C3.5645 32.9082 8.74896 39.8771 15.8723 46.7874C19.3483 50.1593 23.0664 53.3004 26.7856 56.1317C27.1116 56.3798 27.4318 56.6212 27.7458 56.8556L29.5522 58.1773L30.3927 58.7734L32.0245 59.8613C32.0689 59.8815 32.4163 59.9753 32.4606 59.9893C32.4986 59.9951 32.8232 59.9963 32.8622 60C32.9122 59.995 33.2109 59.92 33.2593 59.9117C33.3966 59.8623 33.5299 59.7935 33.6556 59.7048L35.0141 58.7732L36.7379 57.537C37.3402 57.0963 37.9689 56.6273 38.6205 56.1312C40.763 54.4999 42.9047 52.7662 45 50.9449L45 0.0591278Z" clip-rule="evenodd" fill="" fill-opacity="1.000000" fill-rule="evenodd"/>
			</mask>
			<path d="M45 0.0591278C40.3647 0.43161 35.9578 2.55336 32.7045 6.09862C27.6037 0.541748 19.6664 -1.51843 12.46 1.17491C2.6367 4.84467 -2.42963 15.9975 1.14729 26.083C3.5645 32.9082 8.74896 39.8771 15.8723 46.7874C19.3483 50.1593 23.0664 53.3004 26.7856 56.1317C27.1116 56.3798 27.4318 56.6212 27.7458 56.8556L29.5522 58.1773L30.3927 58.7734L32.0245 59.8613C32.0689 59.8815 32.4163 59.9753 32.4606 59.9893C32.4986 59.9951 32.8232 59.9963 32.8622 60C32.9122 59.995 33.2109 59.92 33.2593 59.9117C33.3966 59.8623 33.5299 59.7935 33.6556 59.7048L35.0141 58.7732L36.7379 57.537C37.3402 57.0963 37.9689 56.6273 38.6205 56.1312C40.763 54.4999 42.9047 52.7662 45 50.9449L45 0.0591278Z" clip-rule="evenodd" fill="#F2E2E1" fill-opacity="1.000000" fill-rule="evenodd" mask="url(#mask_136_656)"/>
			<path d="" fill="#000000" fill-opacity="0.000000" fill-rule="nonzero"/>
		</g>
		<g opacity="0.200000">
			<mask id="mask_136_658" fill="white">
				<path d="M45 15.4255C44.379 15.0235 43.7063 14.6833 42.9869 14.416C39.0454 12.9505 34.7054 14.0713 31.9158 17.0956C29.1256 14.0715 24.7839 12.9504 20.8419 14.4161C15.4684 16.4132 12.6971 22.4824 14.6537 27.9709C15.976 31.6851 18.8119 35.4775 22.7085 39.238C24.6099 41.073 26.6437 42.7824 28.6781 44.3231C28.8564 44.4581 29.0316 44.5895 29.2034 44.717L30.1915 45.4364L30.6512 45.7607L31.5439 46.3527C31.5681 46.3637 31.7582 46.4148 31.7824 46.4224C31.8032 46.4256 31.9808 46.4262 32.0021 46.4282C32.0295 46.4255 32.1929 46.3846 32.2193 46.3802C32.2944 46.3533 32.3673 46.3159 32.4361 46.2676L33.1792 45.7606L34.1222 45.0879C34.4516 44.8481 34.7955 44.5928 35.1519 44.3229C37.1867 42.7816 39.2203 41.0723 41.1216 39.2372C42.5683 37.8409 43.8689 36.4401 45 35.0406L45 15.4255Z" clip-rule="evenodd" fill="" fill-opacity="1.000000" fill-rule="evenodd"/>
			</mask>
			<path d="M45 15.4255C44.379 15.0235 43.7063 14.6833 42.9869 14.416C39.0454 12.9505 34.7054 14.0713 31.9158 17.0956C29.1256 14.0715 24.7839 12.9504 20.8419 14.4161C15.4684 16.4132 12.6971 22.4824 14.6537 27.9709C15.976 31.6851 18.8119 35.4775 22.7085 39.238C24.6099 41.073 26.6437 42.7824 28.6781 44.3231C28.8564 44.4581 29.0316 44.5895 29.2034 44.717L30.1915 45.4364L30.6512 45.7607L31.5439 46.3527C31.5681 46.3637 31.7582 46.4148 31.7824 46.4224C31.8032 46.4256 31.9808 46.4262 32.0021 46.4282C32.0295 46.4255 32.1929 46.3846 32.2193 46.3802C32.2944 46.3533 32.3673 46.3159 32.4361 46.2676L33.1792 45.7606L34.1222 45.0879C34.4516 44.8481 34.7955 44.5928 35.1519 44.3229C37.1867 42.7816 39.2203 41.0723 41.1216 39.2372C42.5683 37.8409 43.8689 36.4401 45 35.0406L45 15.4255Z" clip-rule="evenodd" fill="#F98979" fill-opacity="1.000000" fill-rule="evenodd" mask="url(#mask_136_658)"/>
			<path d="" fill="#000000" fill-opacity="0.000000" fill-rule="nonzero"/>
		</g>
	</g>
</svg>
