<svg width="156.000000" height="88.000000" viewBox="0 0 156 88" fill="none" xmlns="http://www.w3.org/2000/svg"
>
    <desc>
        Created with Pixso.
    </desc>
    <defs>
        <clipPath id="clip1_126">
            <rect width="48.000000" height="48.000000" transform="translate(92.000000 20.000000)" fill="white"
                  fill-opacity="0"/>
        </clipPath>
    </defs>
    <mask id="mask1_123" mask-type="alpha" maskUnits="userSpaceOnUse" x="0.000000" y="0.000000" width="156.000000"
          height="88.000000">
        <rect rx="8.000000" width="156.000000" height="88.000000" fill="#F1F5FF" fill-opacity="1.000000"/>
        <rect x="0.500000" y="0.500000" rx="8.000000" width="155.000000" height="87.000000" stroke="#FFFFFF"
              stroke-opacity="0" stroke-width="1.000000"/>
    </mask>
    <rect rx="8.000000" width="156.000000" height="88.000000" fill="#F1F5FF" fill-opacity="1.000000"/>
    <rect x="0.500000" y="0.500000" rx="8.000000" width="155.000000" height="87.000000" stroke="#FFFFFF"
          stroke-opacity="0" stroke-width="1.000000"/>

    <ellipse opacity="0.260000" cx="24.500000" cy="2.500000" rx="87.500000" ry="37.500000" fill="#B7C4FE"
             fill-opacity="1.000000"/>

    <path d="M17.93 44.47L18.11 45.83L16.23 46.35L16.23 50.5C16.23 51.27 16.06 51.65 15.61 51.86C15.15 52.1 14.43 52.13 13.34 52.13C13.29 51.76 13.08 51.16 12.89 50.79C13.6 50.8 14.28 50.8 14.48 50.8C14.7 50.79 14.78 50.72 14.78 50.48L14.78 46.77C14.17 46.95 13.6 47.09 13.05 47.23L12.65 45.81C13.26 45.67 13.98 45.49 14.78 45.28L14.78 42.08L12.84 42.08L12.84 40.71L14.78 40.71L14.78 37.59L16.23 37.59L16.23 40.71L17.93 40.71L17.93 42.08L16.23 42.08L16.23 44.9L17.93 44.47ZM70.3 37.86C70.07 38.74 69.8 39.62 69.51 40.45L74.76 40.45C74.76 40.45 74.75 40.98 74.75 41.17C74.55 48.21 74.38 50.64 73.76 51.41C73.39 51.91 72.99 52.07 72.41 52.15C71.87 52.23 70.94 52.19 70.04 52.15C70.01 51.76 69.82 51.16 69.58 50.74C70.55 50.83 71.44 50.83 71.83 50.83C72.14 50.83 72.3 50.79 72.48 50.58C72.92 50.07 73.15 47.73 73.31 41.83L68.96 41.83C68.57 42.69 68.14 43.46 67.67 44.08C67.42 43.86 66.78 43.44 66.44 43.25C67.53 41.89 68.38 39.73 68.87 37.59L70.3 37.86ZM66.6 41.64C65.61 43.27 64.39 44.9 63.18 46.24L66.57 45.76C66.55 46.15 66.59 46.72 66.64 47.03C62.19 47.78 61.56 47.89 61.16 48.12C61.08 47.83 60.86 47.17 60.7 46.8C61.08 46.72 61.45 46.34 61.96 45.78C62.25 45.49 62.83 44.79 63.5 43.87C61.67 44.07 61.28 44.16 61.03 44.29C60.97 43.99 60.73 43.28 60.55 42.92C60.87 42.83 61.16 42.5 61.53 41.97C61.92 41.48 63.08 39.49 63.77 37.64L65.18 38.21C64.44 39.81 63.5 41.46 62.54 42.76L64.35 42.61C64.71 42.05 65.08 41.48 65.37 40.88L66.6 41.64ZM23.34 43.01L27.16 43.01L27.16 44.39L18.16 44.39L18.16 43.01L21.82 43.01L21.82 40.98L18.68 40.98L18.68 39.62L21.82 39.62L21.82 37.65L23.34 37.65L23.34 39.62L26.46 39.62L26.46 40.98L23.34 40.98L23.34 43.01ZM30.94 38.19L41.07 38.19L41.07 42.66L30.94 42.66L30.94 38.19ZM50.41 43.44L50.62 43.39L51.53 43.62C51.15 44.88 50.68 46.31 50.3 47.2L49.16 46.95C49.4 46.39 49.67 45.57 49.9 44.76L48.54 44.76L48.54 50.6C48.54 51.33 48.39 51.75 47.88 51.97C47.39 52.21 46.65 52.23 45.56 52.23C45.5 51.83 45.29 51.2 45.12 50.82C45.87 50.83 46.6 50.83 46.81 50.82C47.03 50.82 47.1 50.76 47.1 50.58L47.1 44.76L44.6 44.76L44.6 43.44L48.19 43.44C47.34 42.82 46.2 42.05 45.32 41.48L46.12 40.55C46.54 40.79 47 41.07 47.47 41.38C47.98 40.9 48.52 40.24 48.97 39.6L44.96 39.6L44.96 38.31L49.92 38.31L50.19 38.23L51.08 38.85C50.41 39.96 49.44 41.19 48.51 42.05C49.02 42.39 49.5 42.72 49.83 42.96L49.48 43.44L50.41 43.44ZM51.92 48.55L51.92 40.96L54.3 40.96C54.43 40.53 54.54 40 54.62 39.55L51.37 39.55L51.37 38.24L59.32 38.24L59.32 39.55L56.23 39.55C56.06 40.03 55.9 40.53 55.74 40.96L58.7 40.96L58.7 48.5L57.26 48.5L57.26 42.29L53.29 42.29L53.29 48.55L51.92 48.55ZM32.41 41.36L39.5 41.36L39.5 39.49L32.41 39.49L32.41 41.36ZM54.57 43.22L55.96 43.22L55.96 46.28C55.96 48.32 55.4 50.71 51.44 52.18C51.24 51.87 50.83 51.39 50.51 51.14C54.14 49.92 54.57 47.83 54.57 46.26L54.57 43.22ZM68.83 43.73C69.98 44.69 71.34 46.05 71.93 47.03L70.83 47.97C70.27 47 68.97 45.57 67.8 44.56L68.83 43.73ZM42.92 43.89L42.92 45.25L33.82 45.25C33.66 45.76 33.5 46.29 33.32 46.79L41.12 46.79C41.12 46.79 41.08 47.22 41.03 47.43C40.68 50 40.3 51.2 39.72 51.7C39.29 52.08 38.86 52.18 38.2 52.21C37.61 52.24 36.57 52.24 35.48 52.18C35.45 51.75 35.24 51.17 34.97 50.76C36.06 50.87 37.23 50.88 37.67 50.88C38.04 50.88 38.25 50.87 38.44 50.72C38.8 50.45 39.1 49.67 39.34 48.13L31.13 48.13C31.45 47.36 31.83 46.26 32.16 45.25L29 45.25L29 43.89L42.92 43.89ZM23.34 47.99L23.34 50.31L27.34 50.31L27.34 51.73L17.42 51.73L17.42 50.31L21.82 50.31L21.82 47.99L18.44 47.99L18.44 46.61L21.82 46.61L21.82 44.93L23.34 44.93L23.34 46.61L26.68 46.61L26.68 47.99L23.34 47.99ZM58.35 52.28C57.76 51.59 56.49 50.47 55.56 49.68L56.51 48.79C57.45 49.52 58.75 50.6 59.37 51.25L58.35 52.28ZM66.87 50.21C64.76 50.64 62.52 51.07 60.86 51.38L60.64 49.97C62.19 49.73 64.54 49.33 66.78 48.9L66.87 50.21Z"
          fill="#486EE6" fill-opacity="1.000000" fill-rule="evenodd"/>

    <path d="M92.75 43.51C92.75 43.9 92.76 44.28 92.78 44.67C92.8 45.05 92.82 45.43 92.86 45.82C92.9 46.2 92.95 46.58 93 46.96C93.06 47.34 93.13 47.72 93.2 48.1C93.28 48.48 93.36 48.85 93.45 49.22C93.55 49.6 93.65 49.97 93.76 50.34C93.87 50.7 93.99 51.07 94.12 51.43C94.25 51.79 94.39 52.15 94.54 52.51C94.69 52.86 94.84 53.22 95.01 53.56C95.17 53.91 95.34 54.26 95.52 54.59C95.71 54.93 95.9 55.27 96.09 55.6C96.29 55.93 96.5 56.25 96.71 56.57C96.92 56.89 97.15 57.21 97.37 57.52C97.6 57.83 97.84 58.13 98.08 58.43C98.33 58.72 98.58 59.02 98.84 59.3C99.1 59.59 99.36 59.86 99.63 60.14C99.91 60.41 100.19 60.67 100.47 60.93C100.76 61.19 101.05 61.44 101.34 61.69C101.64 61.93 101.94 62.17 102.25 62.4C102.56 62.62 102.88 62.85 103.2 63.06C103.52 63.27 103.84 63.48 104.17 63.68C104.5 63.88 104.84 64.06 105.18 64.25C105.52 64.43 105.86 64.6 106.21 64.76C106.55 64.93 106.91 65.09 107.26 65.23C107.62 65.38 107.98 65.52 108.34 65.65C108.7 65.78 109.07 65.9 109.43 66.01C109.8 66.12 110.17 66.22 110.55 66.32C110.92 66.41 111.3 66.5 111.67 66.57C112.05 66.65 112.43 66.71 112.81 66.77C113.19 66.82 113.57 66.87 113.95 66.91C114.34 66.95 114.72 66.98 115.11 66.99C115.49 67.01 115.87 67.02 116.26 67.02C116.64 67.02 117.03 67.01 117.41 66.99C117.8 66.98 118.18 66.95 118.56 66.91C118.95 66.87 119.33 66.82 119.71 66.77C120.09 66.71 120.47 66.65 120.85 66.57C121.22 66.5 121.6 66.41 121.97 66.32C122.34 66.22 122.72 66.12 123.08 66.01C123.45 65.9 123.82 65.78 124.18 65.65C124.54 65.52 124.9 65.38 125.26 65.23C125.61 65.09 125.96 64.93 126.31 64.76C126.66 64.6 127 64.43 127.34 64.25C127.68 64.06 128.02 63.88 128.35 63.68C128.67 63.48 129 63.27 129.32 63.06C129.64 62.85 129.95 62.62 130.26 62.4C130.57 62.17 130.88 61.93 131.17 61.69C131.47 61.44 131.76 61.19 132.05 60.93C132.33 60.67 132.61 60.41 132.88 60.14C133.16 59.86 133.42 59.59 133.68 59.3C133.94 59.02 134.19 58.72 134.43 58.43C134.68 58.13 134.91 57.83 135.14 57.52C135.37 57.21 135.59 56.89 135.81 56.57C136.02 56.25 136.23 55.93 136.42 55.6C136.62 55.27 136.81 54.93 136.99 54.59C137.17 54.26 137.35 53.91 137.51 53.56C137.68 53.22 137.83 52.86 137.98 52.51C138.13 52.15 138.27 51.79 138.39 51.43C138.52 51.07 138.64 50.7 138.76 50.34C138.87 49.97 138.97 49.6 139.06 49.22C139.16 48.85 139.24 48.48 139.32 48.1C139.39 47.72 139.46 47.34 139.51 46.96C139.57 46.58 139.62 46.2 139.66 45.82C139.69 45.43 139.72 45.05 139.74 44.67C139.76 44.28 139.77 43.9 139.77 43.51C139.77 43.13 139.76 42.74 139.74 42.36C139.72 41.97 139.69 41.59 139.66 41.21C139.62 40.82 139.57 40.44 139.51 40.06C139.46 39.68 139.39 39.3 139.32 38.93C139.24 38.55 139.16 38.17 139.06 37.8C138.97 37.43 138.87 37.06 138.76 36.69C138.64 36.32 138.52 35.95 138.39 35.59C138.27 35.23 138.13 34.87 137.98 34.52C137.83 34.16 137.68 33.81 137.51 33.46C137.35 33.11 137.17 32.77 136.99 32.43C136.81 32.09 136.62 31.76 136.42 31.43C136.23 31.1 136.02 30.77 135.81 30.45C135.59 30.13 135.37 29.82 135.14 29.51C134.91 29.2 134.68 28.89 134.43 28.6C134.19 28.3 133.94 28.01 133.68 27.72C133.42 27.44 133.16 27.16 132.88 26.89C132.61 26.62 132.33 26.35 132.05 26.09C131.76 25.83 131.47 25.58 131.17 25.34C130.88 25.09 130.57 24.86 130.26 24.63C129.95 24.4 129.64 24.18 129.32 23.96C129 23.75 128.67 23.54 128.35 23.35C128.02 23.15 127.68 22.96 127.34 22.78C127 22.6 126.66 22.42 126.31 22.26C125.96 22.09 125.61 21.94 125.26 21.79C124.9 21.64 124.54 21.51 124.18 21.38C123.82 21.25 123.45 21.13 123.08 21.01C122.72 20.9 122.34 20.8 121.97 20.71C121.6 20.61 121.22 20.53 120.85 20.45C120.47 20.38 120.09 20.31 119.71 20.26C119.33 20.2 118.95 20.15 118.56 20.12C118.18 20.08 117.8 20.05 117.41 20.03C117.03 20.01 116.64 20 116.26 20C115.87 20 115.49 20.01 115.11 20.03C114.72 20.05 114.34 20.08 113.95 20.12C113.57 20.15 113.19 20.2 112.81 20.26C112.43 20.31 112.05 20.38 111.67 20.45C111.3 20.53 110.92 20.61 110.55 20.71C110.17 20.8 109.8 20.9 109.43 21.01C109.07 21.13 108.7 21.25 108.34 21.38C107.98 21.51 107.62 21.64 107.26 21.79C106.91 21.94 106.55 22.09 106.21 22.26C105.86 22.42 105.52 22.6 105.18 22.78C104.84 22.96 104.5 23.15 104.17 23.35C103.84 23.54 103.52 23.75 103.2 23.96C102.88 24.18 102.56 24.4 102.25 24.63C101.94 24.86 101.64 25.09 101.34 25.34C101.05 25.58 100.76 25.83 100.47 26.09C100.19 26.35 99.91 26.62 99.63 26.89C99.36 27.16 99.1 27.44 98.84 27.72C98.58 28.01 98.33 28.3 98.08 28.6C97.84 28.89 97.6 29.2 97.37 29.51C97.15 29.82 96.92 30.13 96.71 30.45C96.5 30.77 96.29 31.1 96.09 31.43C95.9 31.76 95.71 32.09 95.52 32.43C95.34 32.77 95.17 33.11 95.01 33.46C94.84 33.81 94.69 34.16 94.54 34.52C94.39 34.87 94.25 35.23 94.12 35.59C93.99 35.95 93.87 36.32 93.76 36.69C93.65 37.06 93.55 37.43 93.45 37.8C93.36 38.17 93.28 38.55 93.2 38.93C93.13 39.3 93.06 39.68 93 40.06C92.95 40.44 92.9 40.82 92.86 41.21C92.82 41.59 92.8 41.97 92.78 42.36C92.76 42.74 92.75 43.13 92.75 43.51Z"
          fill="#5F99F7" fill-opacity="1.000000" fill-rule="nonzero"/>
    <path d="M129.97 41.02L129.97 54.18C129.97 54.33 129.96 54.48 129.93 54.63C129.9 54.77 129.86 54.92 129.8 55.05C129.74 55.19 129.67 55.32 129.59 55.45C129.5 55.57 129.41 55.69 129.3 55.8C129.2 55.9 129.08 56 128.96 56.08C128.83 56.16 128.7 56.23 128.56 56.29C128.42 56.35 128.28 56.39 128.13 56.42C127.99 56.45 127.84 56.47 127.69 56.47L104.83 56.47C104.68 56.47 104.53 56.45 104.38 56.42C104.24 56.39 104.09 56.35 103.96 56.29C103.82 56.23 103.69 56.16 103.56 56.08C103.44 56 103.32 55.9 103.21 55.8C103.11 55.69 103.01 55.57 102.93 55.45C102.85 55.32 102.78 55.19 102.72 55.05C102.66 54.92 102.62 54.77 102.59 54.63C102.56 54.48 102.54 54.33 102.54 54.18L102.54 41.02L129.97 41.02ZM117.12 44.29L115.4 44.29C115.34 44.29 115.28 44.31 115.24 44.35C115.19 44.39 115.16 44.43 115.15 44.49L115.14 44.55L115.14 47.37L112.32 47.37C112.26 47.37 112.21 47.39 112.16 47.43C112.11 47.46 112.08 47.51 112.07 47.57L112.06 47.63L112.06 49.35C112.06 49.48 112.15 49.58 112.26 49.6L112.32 49.61L115.14 49.61L115.14 52.43C115.14 52.55 115.22 52.66 115.34 52.68L115.4 52.69L117.12 52.69C117.18 52.69 117.23 52.67 117.28 52.63C117.33 52.6 117.36 52.55 117.37 52.49L117.38 52.43L117.38 49.61L120.2 49.61C120.26 49.61 120.31 49.59 120.36 49.56C120.41 49.52 120.44 49.47 120.45 49.41L120.46 49.35L120.46 47.63C120.46 47.57 120.44 47.52 120.4 47.47C120.37 47.42 120.32 47.39 120.26 47.38L120.2 47.37L117.38 47.37L117.38 44.55C117.38 44.49 117.36 44.44 117.32 44.39C117.29 44.34 117.24 44.31 117.18 44.3L117.12 44.29ZM122.74 30.56C123.37 30.56 123.88 31.07 123.88 31.7L123.88 33.39L127.69 33.39C127.84 33.39 127.99 33.4 128.13 33.43C128.28 33.46 128.42 33.51 128.56 33.56C128.7 33.62 128.83 33.69 128.96 33.77C129.08 33.86 129.2 33.95 129.3 34.06C129.41 34.16 129.5 34.28 129.59 34.41C129.67 34.53 129.74 34.66 129.8 34.8C129.86 34.94 129.9 35.08 129.93 35.23C129.96 35.38 129.97 35.53 129.97 35.68L129.97 38.75L102.54 38.75L102.54 35.68C102.54 35.53 102.56 35.38 102.59 35.23C102.62 35.08 102.66 34.94 102.72 34.8C102.78 34.66 102.85 34.53 102.93 34.41C103.01 34.28 103.11 34.16 103.21 34.06C103.32 33.95 103.44 33.86 103.56 33.77C103.68 33.69 103.82 33.62 103.96 33.56C104.09 33.51 104.24 33.46 104.38 33.43C104.53 33.4 104.68 33.39 104.83 33.39L108.64 33.39L108.64 31.7C108.64 31.63 108.65 31.56 108.67 31.48C108.68 31.41 108.71 31.34 108.74 31.28C108.77 31.21 108.8 31.14 108.84 31.08C108.89 31.02 108.93 30.97 108.99 30.92C109.04 30.86 109.1 30.82 109.16 30.78C109.22 30.74 109.29 30.7 109.35 30.68C109.42 30.65 109.49 30.63 109.56 30.61C109.64 30.6 109.71 30.59 109.78 30.59C109.86 30.59 109.93 30.6 110 30.61C110.07 30.63 110.14 30.65 110.21 30.68C110.28 30.7 110.35 30.74 110.41 30.78C110.47 30.82 110.53 30.86 110.58 30.92C110.63 30.97 110.68 31.02 110.72 31.08C110.76 31.14 110.8 31.21 110.83 31.28C110.86 31.34 110.88 31.41 110.9 31.48C110.91 31.56 110.92 31.63 110.93 31.7L110.93 33.39L121.59 33.39L121.59 31.7C121.59 31.07 122.1 30.56 122.74 30.56Z"
          fill="#FFFFFF" fill-opacity="1.000000" fill-rule="nonzero"/>

</svg>
