<svg width="156.000000" height="88.000000" viewBox="0 0 156 88" fill="none" xmlns="http://www.w3.org/2000/svg"
>
    <desc>
        Created with Pixso.
    </desc>
    <defs>
        <clipPath id="clip1_151">
            <rect width="48.000000" height="48.000000" transform="translate(93.000000 20.000000)" fill="white"
                  fill-opacity="0"/>
        </clipPath>
    </defs>
    <mask id="mask1_148" mask-type="alpha" maskUnits="userSpaceOnUse" x="0.000000" y="0.000000" width="156.000000"
          height="88.000000">
        <rect rx="8.000000" width="156.000000" height="88.000000" fill="#FFF9EF" fill-opacity="1.000000"/>
        <rect x="0.500000" y="0.500000" rx="8.000000" width="155.000000" height="87.000000" stroke="#FFFFFF"
              stroke-opacity="0" stroke-width="1.000000"/>
    </mask>
    <rect rx="8.000000" width="156.000000" height="88.000000" fill="#FFF9EF" fill-opacity="1.000000"/>
    <rect x="0.500000" y="0.500000" rx="8.000000" width="155.000000" height="87.000000" stroke="#FFFFFF"
          stroke-opacity="0" stroke-width="1.000000"/>
    <ellipse opacity="0.260000" cx="24.500000" cy="2.500000" rx="87.500000" ry="37.500000" fill="#F5CFA9"
             fill-opacity="1.000000"/>
    <path d="M69.6 37.51C69.85 38.13 70.12 38.87 70.3 39.49L75.24 39.49L75.24 40.87L64.59 40.87L64.59 44.13C64.59 46.61 64.22 50.1 62.03 52.26C61.8 51.96 61.21 51.41 60.91 51.22C62.22 49.91 62.75 48.23 62.97 46.6C62.3 47.01 61.63 47.44 60.99 47.81L60.49 46.42C61.18 46.08 62.12 45.6 63.1 45.06C63.12 44.74 63.12 44.4 63.12 44.12L63.12 43.46L62.03 44.07C61.74 43.32 61.15 42.08 60.64 41.17L61.77 40.63C62.22 41.41 62.78 42.45 63.12 43.16L63.12 39.49L68.67 39.49C68.51 38.95 68.3 38.31 68.12 37.81L69.6 37.51ZM49.23 42.55C51.44 41.38 53.24 39.51 54.14 37.52L55.5 37.94C55.4 38.16 55.29 38.37 55.18 38.58C56.28 40.02 58.11 41.49 59.74 42.26C59.37 42.55 58.91 43.09 58.67 43.48C57.24 42.64 55.66 41.23 54.48 39.75C53.39 41.32 51.95 42.64 50.22 43.62C50.01 43.33 49.55 42.8 49.23 42.55ZM23.76 47.84C24.64 47.12 25.39 46.31 25.95 45.41L27.18 45.97C26.41 47.2 25.4 48.28 24.22 49.2C24.65 50.23 25.15 50.8 25.71 50.8C26.09 50.8 26.25 50.42 26.32 49.06C26.6 49.41 27.07 49.71 27.39 49.87C27.15 51.73 26.71 52.24 25.55 52.24C24.48 52.24 23.64 51.43 23 50.07C21.79 50.87 20.41 51.51 18.99 52C18.78 51.64 18.41 51.12 18.07 50.79C19.66 50.31 21.18 49.62 22.51 48.77C22.2 47.81 21.96 46.71 21.79 45.52L18.83 46.07L18.6 44.74L21.6 44.18C21.53 43.57 21.47 42.95 21.42 42.32L19.18 42.66L18.92 41.32L21.32 40.96C21.26 39.84 21.23 38.69 21.23 37.54L22.71 37.54C22.7 38.64 22.71 39.7 22.78 40.74L26.39 40.19L26.65 41.51L22.86 42.1C22.91 42.72 22.97 43.33 23.03 43.92L26.84 43.22L27.07 44.51L23.21 45.23C23.35 46.21 23.55 47.09 23.76 47.84ZM18.59 41.62C17.66 43.25 16.51 44.88 15.35 46.24L18.22 45.73C18.19 46.12 18.17 46.69 18.2 47C14.28 47.78 13.71 47.94 13.32 48.13C13.26 47.86 13.03 47.19 12.87 46.82C13.24 46.72 13.61 46.37 14.09 45.76C14.38 45.49 14.92 44.79 15.55 43.89C13.85 44.1 13.47 44.18 13.23 44.31C13.15 44.02 12.92 43.32 12.75 42.93C13.05 42.83 13.32 42.5 13.67 41.97C14.03 41.48 15.15 39.48 15.76 37.62L17.15 38.29C16.48 39.83 15.6 41.44 14.67 42.72L16.39 42.58C16.75 42.03 17.07 41.44 17.37 40.87L18.59 41.62ZM36.28 44.03L36.28 49.99L43.16 49.99L43.16 51.49L28.84 51.49L28.84 49.99L34.68 49.99L34.68 37.8L36.28 37.8L36.28 42.55L42.06 42.55L42.06 44.03L36.28 44.03ZM46.97 37.81C47.83 38.45 48.94 39.39 49.47 40.03L48.46 41.14C47.98 40.47 46.91 39.48 46.03 38.77L46.97 37.81ZM24.09 37.83C24.81 38.16 25.79 38.76 26.27 39.17L25.39 40.08C24.91 39.64 23.96 39.01 23.23 38.61L24.09 37.83ZM50.71 44.71C52.06 44.12 53.63 43.07 54.49 42.03L55.66 42.53C54.65 43.81 53.07 44.98 51.66 45.71C51.44 45.41 51.07 45 50.71 44.71ZM73.44 42.45L73.76 42.35L74.78 43.16C73.71 44.18 72.23 45.27 70.81 46.05L70.81 50.66C70.81 51.46 70.62 51.84 69.98 52.03C69.37 52.24 68.41 52.24 67.07 52.24C67 51.86 66.76 51.27 66.55 50.9C67.53 50.93 68.64 50.93 68.91 50.92C69.19 50.92 69.29 50.85 69.29 50.61L69.29 45.51C70.19 45.07 71.18 44.4 71.98 43.75L65.44 43.75L65.44 42.45L73.44 42.45ZM48.48 42.5L48.48 49.01L50.22 47.81C50.32 48.23 50.51 48.79 50.65 49.07C47.76 51.17 47.29 51.54 47.02 51.89C46.84 51.59 46.36 51.11 46.09 50.9C46.46 50.6 47.03 49.92 47.03 49.01L47.03 43.92L44.76 43.92L44.76 42.5L48.48 42.5ZM50.87 47.84C52.83 47.07 54.89 45.68 55.98 44.13L57.23 44.66C55.95 46.47 53.9 48 51.82 48.96C51.6 48.61 51.21 48.15 50.87 47.84ZM50.22 50.98C53.53 50.24 56.22 48.76 57.55 46.4L58.89 46.93C57.37 49.64 54.59 51.32 51.1 52.26C50.91 51.87 50.54 51.33 50.22 50.98ZM12.89 49.97C14.22 49.64 16.23 49.04 18.22 48.47L18.44 49.7C16.6 50.31 14.68 50.92 13.19 51.38L12.89 49.97Z"
          fill="#BC7523" fill-opacity="1.000000" fill-rule="evenodd"/>
    <path d="M93 20L141 20L141 68L93 68L93 20Z" fill="#FFFFFF" fill-opacity="0" fill-rule="nonzero"/>
    <path d="M94 44C94 44.37 94 44.75 94.02 45.12C94.04 45.5 94.07 45.87 94.11 46.25C94.14 46.62 94.19 47 94.24 47.37C94.3 47.74 94.36 48.11 94.44 48.48C94.51 48.85 94.59 49.22 94.68 49.58C94.78 49.95 94.88 50.31 94.99 50.67C95.09 51.03 95.21 51.39 95.34 51.74C95.47 52.1 95.6 52.45 95.75 52.8C95.89 53.14 96.04 53.49 96.2 53.83C96.36 54.17 96.53 54.51 96.71 54.84C96.89 55.17 97.07 55.5 97.27 55.82C97.46 56.14 97.66 56.46 97.87 56.77C98.08 57.09 98.3 57.39 98.52 57.7C98.75 58 98.98 58.3 99.22 58.59C99.45 58.88 99.7 59.16 99.95 59.44C100.21 59.72 100.47 59.99 100.73 60.26C101 60.52 101.27 60.78 101.55 61.04C101.83 61.29 102.11 61.54 102.4 61.77C102.7 62.01 102.99 62.24 103.29 62.47C103.6 62.69 103.9 62.91 104.22 63.12C104.53 63.33 104.85 63.53 105.17 63.72C105.49 63.92 105.82 64.1 106.15 64.28C106.49 64.46 106.82 64.63 107.16 64.79C107.5 64.95 107.85 65.1 108.19 65.24C108.54 65.39 108.89 65.52 109.25 65.65C109.6 65.78 109.96 65.9 110.32 66C110.68 66.11 111.04 66.21 111.41 66.31C111.77 66.4 112.14 66.48 112.51 66.55C112.88 66.63 113.25 66.69 113.62 66.75C113.99 66.8 114.37 66.85 114.74 66.88C115.12 66.92 115.49 66.95 115.87 66.97C116.24 66.99 116.62 67 117 67C117.37 67 117.75 66.99 118.12 66.97C118.5 66.95 118.88 66.92 119.25 66.88C119.62 66.85 120 66.8 120.37 66.75C120.74 66.69 121.11 66.63 121.48 66.55C121.85 66.48 122.22 66.4 122.58 66.31C122.95 66.21 123.31 66.11 123.67 66C124.03 65.9 124.39 65.78 124.74 65.65C125.1 65.52 125.45 65.39 125.8 65.24C126.14 65.1 126.49 64.95 126.83 64.79C127.17 64.63 127.51 64.46 127.84 64.28C128.17 64.1 128.5 63.92 128.82 63.72C129.14 63.53 129.46 63.33 129.77 63.12C130.09 62.91 130.39 62.69 130.7 62.47C131 62.24 131.3 62.01 131.59 61.77C131.88 61.54 132.16 61.29 132.44 61.04C132.72 60.78 132.99 60.52 133.26 60.26C133.53 59.99 133.78 59.72 134.04 59.44C134.29 59.16 134.53 58.88 134.77 58.59C135.01 58.3 135.25 58 135.47 57.7C135.69 57.39 135.91 57.09 136.12 56.77C136.33 56.46 136.53 56.14 136.72 55.82C136.92 55.5 137.1 55.17 137.28 54.84C137.46 54.51 137.63 54.17 137.79 53.83C137.95 53.49 138.1 53.14 138.24 52.8C138.39 52.45 138.52 52.1 138.65 51.74C138.78 51.39 138.89 51.03 139 50.67C139.11 50.31 139.21 49.95 139.31 49.58C139.4 49.22 139.48 48.85 139.55 48.48C139.63 48.11 139.69 47.74 139.75 47.37C139.8 47 139.85 46.62 139.88 46.25C139.92 45.87 139.95 45.5 139.97 45.12C139.99 44.75 140 44.37 140 44C140 43.62 139.99 43.24 139.97 42.87C139.95 42.49 139.92 42.12 139.88 41.74C139.85 41.37 139.8 40.99 139.75 40.62C139.69 40.25 139.63 39.88 139.55 39.51C139.48 39.14 139.4 38.77 139.31 38.41C139.21 38.04 139.11 37.68 139 37.32C138.89 36.96 138.78 36.6 138.65 36.25C138.52 35.89 138.39 35.54 138.24 35.19C138.1 34.85 137.95 34.5 137.79 34.16C137.63 33.82 137.46 33.48 137.28 33.15C137.1 32.82 136.92 32.49 136.72 32.17C136.53 31.85 136.33 31.53 136.12 31.22C135.91 30.9 135.69 30.6 135.47 30.29C135.25 29.99 135.01 29.7 134.77 29.4C134.53 29.11 134.29 28.83 134.04 28.55C133.78 28.27 133.53 28 133.26 27.73C132.99 27.47 132.72 27.21 132.44 26.95C132.16 26.7 131.88 26.45 131.59 26.22C131.3 25.98 131 25.75 130.7 25.52C130.39 25.3 130.09 25.08 129.77 24.87C129.46 24.66 129.14 24.46 128.82 24.27C128.5 24.07 128.17 23.89 127.84 23.71C127.51 23.53 127.17 23.36 126.83 23.2C126.49 23.04 126.14 22.89 125.8 22.75C125.45 22.6 125.1 22.47 124.74 22.34C124.39 22.21 124.03 22.09 123.67 21.99C123.31 21.88 122.95 21.78 122.58 21.68C122.22 21.59 121.85 21.51 121.48 21.44C121.11 21.36 120.74 21.3 120.37 21.24C120 21.19 119.62 21.14 119.25 21.11C118.88 21.07 118.5 21.04 118.12 21.02C117.75 21 117.37 21 117 21C116.62 21 116.24 21 115.87 21.02C115.49 21.04 115.12 21.07 114.74 21.11C114.37 21.14 113.99 21.19 113.62 21.24C113.25 21.3 112.88 21.36 112.51 21.44C112.14 21.51 111.77 21.59 111.41 21.68C111.04 21.78 110.68 21.88 110.32 21.99C109.96 22.09 109.6 22.21 109.25 22.34C108.89 22.47 108.54 22.6 108.19 22.75C107.85 22.89 107.5 23.04 107.16 23.2C106.82 23.36 106.49 23.53 106.15 23.71C105.82 23.89 105.49 24.07 105.17 24.27C104.85 24.46 104.53 24.66 104.22 24.87C103.9 25.08 103.6 25.3 103.29 25.52C102.99 25.75 102.7 25.98 102.4 26.22C102.11 26.45 101.83 26.7 101.55 26.95C101.27 27.21 101 27.47 100.73 27.73C100.47 28 100.21 28.27 99.95 28.55C99.7 28.83 99.45 29.11 99.22 29.4C98.98 29.7 98.75 29.99 98.52 30.29C98.3 30.6 98.08 30.9 97.87 31.22C97.66 31.53 97.46 31.85 97.27 32.17C97.07 32.49 96.89 32.82 96.71 33.15C96.53 33.48 96.36 33.82 96.2 34.16C96.04 34.5 95.89 34.85 95.75 35.19C95.6 35.54 95.47 35.89 95.34 36.25C95.21 36.6 95.09 36.96 94.99 37.32C94.88 37.68 94.78 38.04 94.68 38.41C94.59 38.77 94.51 39.14 94.44 39.51C94.36 39.88 94.3 40.25 94.24 40.62C94.19 40.99 94.14 41.37 94.11 41.74C94.07 42.12 94.04 42.49 94.02 42.87C94 43.24 94 43.62 94 44Z"
          fill="#F5B66C" fill-opacity="1.000000" fill-rule="nonzero"/>
    <path d="M122.66 46.13L122.64 46.13L122.39 46.06C121.92 45.92 120.91 45.64 120.02 45.41C120.21 45.3 120.38 45.18 120.54 45.05C121.56 44.2 122.01 42.96 122.21 42.07C122.39 41.27 122.44 40.93 122.46 40.12C122.19 39.85 121.75 39.33 121.45 39.14C120.94 38.81 119.54 37.89 116.96 37.89C114.44 37.89 113.02 38.69 112.51 39.12C112 39.55 111.5 40.22 111.49 40.22C111.52 41.28 111.59 41.87 111.93 42.88C112.37 44.21 113.28 45.22 114.35 45.57L113.68 45.64C112.88 45.72 112.09 45.87 111.32 46.1C110.49 46.34 109.73 46.65 109.08 47.02C108.51 47.34 108 47.71 107.57 48.11C107.13 48.52 106.76 48.97 106.46 49.47C106.16 49.96 105.93 50.5 105.77 51.07C105.61 51.65 105.52 52.27 105.5 52.92L105.5 55.39L107.63 55.39L126.26 55.39L128.38 55.39C128.38 54 128.38 53.26 128.38 53.17C128.38 49.69 126.41 47.27 122.66 46.13Z"
          fill="#FFFFFF" fill-opacity="1.000000" fill-rule="nonzero"/>
    <path d="M116.88 32.51C118.62 32.51 120.34 32.9 121.87 33.65C122.07 33.75 122.3 33.87 122.41 34.1C122.49 34.26 122.49 34.45 122.49 34.61L122.47 38.8C121.81 38.19 121.45 38.02 121.45 38.02C120.6 37.53 119.14 36.96 116.96 36.96C114.79 36.96 113.36 37.51 112.51 37.99C112.51 37.99 111.92 38.26 111.47 38.85L111.4 34.64C111.4 34.45 111.39 34.24 111.48 34.06C111.61 33.79 111.87 33.65 112.12 33.54C113.63 32.85 115.22 32.51 116.88 32.51ZM116.98 33.24C116.91 33.24 116.85 33.25 116.79 33.27C116.73 33.3 116.68 33.33 116.64 33.38C116.59 33.42 116.56 33.48 116.53 33.53C116.51 33.59 116.5 33.65 116.5 33.72L116.5 34.2L115.54 34.2C115.48 34.2 115.43 34.2 115.38 34.22C115.33 34.24 115.28 34.27 115.24 34.3C115.19 34.34 115.16 34.38 115.13 34.43C115.1 34.47 115.08 34.53 115.07 34.58L115.06 34.68C115.06 34.94 115.27 35.15 115.54 35.15L116.5 35.15L116.5 35.63C116.5 35.86 116.66 36.06 116.88 36.1L116.98 36.11C117.24 36.11 117.46 35.9 117.46 35.63L117.45 35.15L118.41 35.15C118.47 35.15 118.52 35.15 118.57 35.13C118.63 35.11 118.67 35.08 118.72 35.05C118.76 35.01 118.79 34.97 118.82 34.92C118.85 34.88 118.87 34.83 118.88 34.77L118.89 34.68C118.89 34.61 118.88 34.55 118.86 34.49C118.83 34.43 118.8 34.38 118.75 34.34C118.71 34.29 118.66 34.26 118.6 34.23C118.54 34.21 118.48 34.2 118.41 34.2L117.45 34.2L117.45 33.72C117.45 33.66 117.44 33.61 117.43 33.56C117.41 33.5 117.38 33.46 117.35 33.41C117.31 33.37 117.27 33.34 117.22 33.31C117.18 33.28 117.13 33.26 117.07 33.25L116.98 33.24Z"
          fill="#FFFFFF" fill-opacity="1.000000" fill-rule="nonzero"/>
</svg>
