<svg width="156.000000" height="88.000000" viewBox="0 0 156 88" fill="none" xmlns="http://www.w3.org/2000/svg"
>
    <desc>
        Created with Pixso.
    </desc>
    <defs>
        <clipPath id="clip1_143">
            <rect width="48.000000" height="48.000000" transform="translate(92.000000 20.000000)" fill="white"
                  fill-opacity="0"/>
        </clipPath>
    </defs>
    <mask id="mask1_140" mask-type="alpha" maskUnits="userSpaceOnUse" x="0.000000" y="0.000000" width="156.000000"
          height="88.000000">
        <rect rx="8.000000" width="156.000000" height="88.000000" fill="#E4F9F0" fill-opacity="1.000000"/>
        <rect x="0.500000" y="0.500000" rx="8.000000" width="155.000000" height="87.000000" stroke="#FFFFFF"
              stroke-opacity="0" stroke-width="1.000000"/>
    </mask>
    <rect rx="8.000000" width="156.000000" height="88.000000" fill="#E4F9F0" fill-opacity="1.000000"/>
    <rect x="0.500000" y="0.500000" rx="8.000000" width="155.000000" height="87.000000" stroke="#FFFFFF"
          stroke-opacity="0" stroke-width="1.000000"/>

    <ellipse opacity="0.260000" cx="24.500000" cy="2.500000" rx="87.500000" ry="37.500000" fill="#A9F5B3"
             fill-opacity="1.000000"/>

    <path d="M20.87 37.76C20.62 38.44 20.36 39.12 20.09 39.7L25.69 39.7L25.69 52.21L24.12 52.21L24.12 51.41L16.03 51.41L16.03 52.28L14.54 52.28L14.54 39.7L18.57 39.7C18.8 39.01 18.99 38.18 19.1 37.55L20.87 37.76ZM59.35 40.76L59.35 42.08L58.73 42.08C58.52 44.31 58.16 46.39 57.53 48.15C58.06 49.38 58.71 50.4 59.55 51.11C59.21 51.36 58.76 51.87 58.54 52.24C57.87 51.57 57.31 50.72 56.86 49.73C56.33 50.77 55.67 51.64 54.86 52.28C54.65 51.96 54.2 51.49 53.88 51.23C54.91 50.51 55.67 49.44 56.25 48.1C55.88 46.95 55.61 45.7 55.37 44.39C55.21 44.74 55.02 45.09 54.84 45.39C54.67 45.17 54.17 44.66 53.92 44.45C53.96 44.35 54.03 44.24 54.09 44.13L49.61 44.13L49.61 38.9L51.08 38.9C51.18 38.45 51.26 37.94 51.31 37.57L52.71 37.68C52.6 38.1 52.49 38.51 52.36 38.9L54.27 38.9L54.27 43.78C55.03 42.15 55.44 39.92 55.66 37.59L56.91 37.73C56.8 38.77 56.64 39.8 56.46 40.76L59.35 40.76ZM64.38 49.91L62.94 49.91L62.94 45.87C62.54 45.99 62.12 46.1 61.67 46.21C61.55 45.89 61.18 45.33 60.92 45.09C62.83 44.67 63.98 44.15 64.65 43.51L61.82 43.51C62 42.69 62.19 41.49 62.3 40.5L62.86 40.5L62.86 40.48L65.6 40.48L65.6 39.54L61.77 39.54L61.77 38.5L65.6 38.5L65.6 37.57L66.94 37.57L66.94 38.5L69.15 38.5L69.15 37.57L70.55 37.57L70.55 38.5L73.95 38.5L73.95 41.52L70.55 41.52L70.55 42.48L74.92 42.48C74.92 42.48 74.91 42.77 74.89 42.95C74.8 44 74.68 44.55 74.43 44.83C74.22 45.06 73.93 45.16 73.6 45.17C73.31 45.19 72.75 45.19 72.16 45.16C72.14 44.87 72.03 44.45 71.88 44.18C72.35 44.23 72.71 44.24 72.89 44.23C73.07 44.23 73.16 44.23 73.26 44.13C73.32 44.03 73.39 43.86 73.44 43.51L70.55 43.51L70.55 45.17L69.15 45.17L69.15 43.51L66.41 43.51C66 44.29 65.23 44.98 63.93 45.52L73.15 45.52L73.15 49.76L71.64 49.76L71.64 46.76L64.38 46.76L64.38 49.91ZM39.35 37.59C39.35 38.79 39.35 39.97 39.32 41.09L42.84 41.09C42.84 41.09 42.83 41.6 42.83 41.8C42.67 48.42 42.52 50.72 42.01 51.41C41.67 51.89 41.32 52.03 40.8 52.12C40.3 52.18 39.45 52.16 38.62 52.13C38.59 51.71 38.43 51.11 38.19 50.71C39.02 50.77 39.8 50.77 40.14 50.77C40.41 50.79 40.57 50.74 40.73 50.53C41.08 50.07 41.26 47.99 41.39 42.5L39.26 42.5C39 46.67 38.16 50.18 34.97 52.29C34.75 51.92 34.28 51.43 33.93 51.16C36.83 49.32 37.6 46.24 37.82 42.5L35.48 42.5L35.48 41.09L37.87 41.09C37.9 39.97 37.9 38.79 37.9 37.59L39.35 37.59ZM49.47 41.6C48.75 43.19 47.83 44.83 46.87 46.23L49 45.71C48.99 46.07 49.02 46.58 49.07 46.85C45.9 47.71 45.39 47.92 45.1 48.12C45.03 47.86 44.81 47.25 44.67 46.92C45 46.85 45.31 46.45 45.71 45.86C45.93 45.59 46.39 44.85 46.89 43.94C45.53 44.12 45.21 44.21 44.99 44.31C44.91 44.02 44.68 43.36 44.52 43C44.81 42.92 45.05 42.56 45.34 42.03C45.64 41.51 46.6 39.48 47.07 37.6L48.39 38.18C47.85 39.76 47.07 41.46 46.25 42.79L47.56 42.67C47.82 42.13 48.09 41.54 48.32 40.96L49.47 41.6ZM35 47.86L35.79 47.68L35.93 49.03C33.42 49.64 30.75 50.28 28.83 50.72L28.55 49.19C28.91 49.12 29.29 49.06 29.69 48.98L29.69 38.31L35 38.31L35 47.86ZM69.15 39.54L66.94 39.54L66.94 40.48L69.15 40.48L69.15 39.54ZM72.59 40.48L72.59 39.54L70.55 39.54L70.55 40.48L72.59 40.48ZM33.63 41.67L33.63 39.65L31.02 39.65L31.02 41.67L33.63 41.67ZM50.8 41.01L53.05 41.01L53.05 39.96L50.8 39.96L50.8 41.01ZM24.12 43.17L24.12 41.12L16.03 41.12L16.03 43.17L24.12 43.17ZM65.35 42.48C65.47 42.18 65.53 41.86 65.56 41.52L63.5 41.52C63.45 41.86 63.4 42.16 63.34 42.48L65.35 42.48ZM66.78 42.48L69.15 42.48L69.15 41.52L66.92 41.52C66.91 41.86 66.86 42.16 66.78 42.48ZM50.8 43.07L53.05 43.07L53.05 42L50.8 42L50.8 43.07ZM57.6 42.08L56.16 42.08L56.07 42.37C56.27 43.73 56.51 45.06 56.86 46.28C57.19 45 57.44 43.59 57.6 42.08ZM31.02 45L33.63 45L33.63 42.96L31.02 42.96L31.02 45ZM51.85 46.61C51.83 46.93 51.82 47.25 51.79 47.55L54.3 47.55C54.3 47.55 54.28 47.87 54.27 48.05C54.11 50.4 53.95 51.36 53.63 51.71C53.39 51.97 53.15 52.07 52.8 52.1C52.51 52.13 52.01 52.13 51.48 52.12C51.47 51.8 51.35 51.36 51.19 51.09C51.64 51.14 52.03 51.14 52.2 51.14C52.38 51.14 52.48 51.12 52.59 51C52.75 50.79 52.89 50.18 53 48.66L51.64 48.66C51.37 50.23 50.8 51.44 49.48 52.26C49.34 51.99 48.97 51.54 48.68 51.35C50.22 50.39 50.52 48.8 50.64 46.61L49.45 46.61L49.45 45.43L51.45 45.43C51.32 45.09 51.16 44.76 51.02 44.45L52.3 44.21C52.49 44.56 52.71 45.04 52.86 45.43L54.64 45.43L54.64 46.61L51.85 46.61ZM24.12 46.6L24.12 44.55L16.03 44.55L16.03 46.6L24.12 46.6ZM33.63 46.31L31.02 46.31L31.02 48.71C31.83 48.53 32.71 48.35 33.63 48.16L33.63 46.31ZM60.68 50.98C65.67 50.48 66.94 49.46 67.45 47.35L68.94 47.35C68.33 50.13 66.75 51.57 61.32 52.24C61.23 51.87 60.94 51.28 60.68 50.98ZM16.03 47.97L16.03 50.03L24.12 50.03L24.12 47.97L16.03 47.97ZM44.64 49.97C45.74 49.65 47.37 49.06 48.97 48.47L49.23 49.65C47.74 50.24 46.2 50.85 44.97 51.35L44.64 49.97ZM74.35 52.26C73 51.62 70.3 50.69 68.3 50.16L69.08 49.16C71.03 49.62 73.74 50.47 75.18 51.11L74.35 52.26Z"
          fill="#23BC38" fill-opacity="1.000000" fill-rule="evenodd"/>

    <path d="M92.09 44.1C92.09 44.49 92.1 44.87 92.12 45.26C92.14 45.64 92.17 46.03 92.2 46.41C92.24 46.79 92.29 47.17 92.34 47.55C92.4 47.93 92.47 48.31 92.54 48.69C92.62 49.07 92.7 49.44 92.79 49.82C92.89 50.19 92.99 50.56 93.1 50.93C93.21 51.3 93.33 51.66 93.46 52.03C93.59 52.39 93.73 52.75 93.88 53.1C94.03 53.46 94.18 53.81 94.35 54.16C94.51 54.5 94.68 54.85 94.87 55.19C95.05 55.53 95.24 55.86 95.43 56.19C95.63 56.52 95.84 56.85 96.05 57.17C96.27 57.49 96.49 57.8 96.72 58.11C96.95 58.42 97.18 58.72 97.43 59.02C97.67 59.32 97.92 59.61 98.18 59.89C98.44 60.18 98.7 60.46 98.98 60.73C99.25 61 99.53 61.27 99.81 61.52C100.1 61.78 100.39 62.03 100.69 62.28C100.98 62.52 101.29 62.76 101.6 62.99C101.9 63.22 102.22 63.44 102.54 63.65C102.86 63.87 103.18 64.07 103.51 64.27C103.84 64.47 104.18 64.66 104.52 64.84C104.86 65.02 105.2 65.19 105.55 65.36C105.9 65.52 106.25 65.68 106.6 65.83C106.96 65.97 107.32 66.11 107.68 66.24C108.04 66.37 108.41 66.49 108.78 66.6C109.14 66.71 109.51 66.82 109.89 66.91C110.26 67 110.64 67.09 111.01 67.16C111.39 67.24 111.77 67.3 112.15 67.36C112.53 67.42 112.91 67.46 113.3 67.5C113.68 67.54 114.06 67.57 114.45 67.59C114.83 67.61 115.22 67.61 115.6 67.61C115.99 67.61 116.37 67.61 116.75 67.59C117.14 67.57 117.52 67.54 117.91 67.5C118.29 67.46 118.67 67.42 119.05 67.36C119.43 67.3 119.81 67.24 120.19 67.16C120.56 67.09 120.94 67 121.31 66.91C121.69 66.82 122.06 66.71 122.43 66.6C122.79 66.49 123.16 66.37 123.52 66.24C123.88 66.11 124.24 65.97 124.6 65.83C124.95 65.68 125.3 65.52 125.65 65.36C126 65.19 126.34 65.02 126.68 64.84C127.02 64.66 127.36 64.47 127.69 64.27C128.02 64.07 128.34 63.87 128.66 63.65C128.98 63.44 129.3 63.22 129.61 62.99C129.91 62.76 130.22 62.52 130.52 62.28C130.81 62.03 131.1 61.78 131.39 61.52C131.67 61.27 131.95 61 132.22 60.73C132.5 60.46 132.76 60.18 133.02 59.89C133.28 59.61 133.53 59.32 133.77 59.02C134.02 58.72 134.25 58.42 134.48 58.11C134.71 57.8 134.93 57.49 135.15 57.17C135.36 56.85 135.57 56.52 135.77 56.19C135.96 55.86 136.15 55.53 136.33 55.19C136.52 54.85 136.69 54.5 136.85 54.16C137.02 53.81 137.17 53.46 137.32 53.1C137.47 52.75 137.61 52.39 137.74 52.03C137.87 51.66 137.99 51.3 138.1 50.93C138.21 50.56 138.31 50.19 138.41 49.82C138.5 49.44 138.58 49.07 138.66 48.69C138.73 48.31 138.8 47.93 138.86 47.55C138.91 47.17 138.96 46.79 139 46.41C139.03 46.03 139.06 45.64 139.08 45.26C139.1 44.87 139.11 44.49 139.11 44.1C139.11 43.72 139.1 43.34 139.08 42.95C139.06 42.57 139.03 42.18 139 41.8C138.96 41.42 138.91 41.04 138.86 40.66C138.8 40.27 138.73 39.9 138.66 39.52C138.58 39.14 138.5 38.77 138.41 38.39C138.31 38.02 138.21 37.65 138.1 37.28C137.99 36.91 137.87 36.55 137.74 36.18C137.61 35.82 137.47 35.46 137.32 35.11C137.17 34.75 137.02 34.4 136.85 34.05C136.69 33.71 136.52 33.36 136.33 33.02C136.15 32.68 135.96 32.35 135.77 32.02C135.57 31.69 135.36 31.36 135.15 31.04C134.93 30.72 134.71 30.41 134.48 30.1C134.25 29.79 134.02 29.49 133.77 29.19C133.53 28.89 133.28 28.6 133.02 28.32C132.76 28.03 132.5 27.75 132.22 27.48C131.95 27.21 131.67 26.94 131.39 26.68C131.1 26.43 130.81 26.18 130.52 25.93C130.22 25.69 129.91 25.45 129.61 25.22C129.3 24.99 128.98 24.77 128.66 24.56C128.34 24.34 128.02 24.14 127.69 23.94C127.36 23.74 127.02 23.55 126.68 23.37C126.34 23.19 126 23.02 125.65 22.85C125.3 22.69 124.95 22.53 124.6 22.38C124.24 22.24 123.88 22.1 123.52 21.97C123.16 21.84 122.79 21.72 122.43 21.61C122.06 21.5 121.69 21.39 121.31 21.3C120.94 21.21 120.56 21.12 120.19 21.05C119.81 20.97 119.43 20.91 119.05 20.85C118.67 20.79 118.29 20.75 117.91 20.71C117.52 20.67 117.14 20.64 116.75 20.62C116.37 20.6 115.99 20.59 115.6 20.59C115.22 20.59 114.83 20.6 114.45 20.62C114.06 20.64 113.68 20.67 113.3 20.71C112.91 20.75 112.53 20.79 112.15 20.85C111.77 20.91 111.39 20.97 111.01 21.05C110.64 21.12 110.26 21.21 109.89 21.3C109.51 21.39 109.14 21.5 108.78 21.61C108.41 21.72 108.04 21.84 107.68 21.97C107.32 22.1 106.96 22.24 106.6 22.38C106.25 22.53 105.9 22.69 105.55 22.85C105.2 23.02 104.86 23.19 104.52 23.37C104.18 23.55 103.84 23.74 103.51 23.94C103.18 24.14 102.86 24.34 102.54 24.56C102.22 24.77 101.9 24.99 101.6 25.22C101.29 25.45 100.98 25.69 100.69 25.93C100.39 26.18 100.1 26.43 99.81 26.68C99.53 26.94 99.25 27.21 98.98 27.48C98.7 27.75 98.44 28.03 98.18 28.32C97.92 28.6 97.67 28.89 97.43 29.19C97.18 29.49 96.95 29.79 96.72 30.1C96.49 30.41 96.27 30.72 96.05 31.04C95.84 31.36 95.63 31.69 95.43 32.02C95.24 32.35 95.05 32.68 94.87 33.02C94.68 33.36 94.51 33.71 94.35 34.05C94.18 34.4 94.03 34.75 93.88 35.11C93.73 35.46 93.59 35.82 93.46 36.18C93.33 36.55 93.21 36.91 93.1 37.28C92.99 37.65 92.89 38.02 92.79 38.39C92.7 38.77 92.62 39.14 92.54 39.52C92.47 39.9 92.4 40.27 92.34 40.66C92.29 41.04 92.24 41.42 92.2 41.8C92.17 42.18 92.14 42.57 92.12 42.95C92.1 43.34 92.09 43.72 92.09 44.1Z"
          fill="#76C982" fill-opacity="1.000000" fill-rule="nonzero"/>
    <path d="M124.93 30.39C126.14 30.39 127.12 31.37 127.12 32.59L127.12 55.62C127.12 56.84 126.13 57.82 124.93 57.82L123.98 57.82C123.98 57.73 123.97 57.65 123.95 57.56C123.94 57.48 123.91 57.39 123.88 57.31C123.85 57.23 123.81 57.15 123.76 57.08C123.71 57.01 123.66 56.94 123.6 56.88C123.53 56.82 123.47 56.76 123.4 56.71C123.33 56.66 123.25 56.62 123.17 56.58C123.09 56.55 123.01 56.52 122.92 56.5C122.84 56.48 122.75 56.47 122.67 56.46C122.58 56.46 122.49 56.46 122.41 56.48C122.32 56.49 122.24 56.51 122.15 56.54C122.07 56.57 121.99 56.61 121.92 56.65C121.84 56.69 121.77 56.74 121.71 56.8C121.64 56.86 121.58 56.92 121.53 56.99C121.48 57.06 121.43 57.13 121.39 57.21C121.35 57.29 121.32 57.37 121.29 57.45C121.27 57.54 121.25 57.62 121.25 57.71L121.24 57.82L119.35 57.82C119.35 57.74 119.34 57.65 119.33 57.57C119.31 57.49 119.29 57.41 119.26 57.33C119.23 57.25 119.19 57.18 119.14 57.11C119.1 57.04 119.05 56.97 118.99 56.91C118.94 56.85 118.87 56.79 118.81 56.74C118.74 56.69 118.67 56.65 118.59 56.61C118.52 56.57 118.44 56.54 118.36 56.52C118.28 56.5 118.2 56.48 118.12 56.47L117.98 56.47C117.9 56.47 117.82 56.47 117.73 56.49C117.65 56.51 117.57 56.53 117.49 56.56C117.41 56.59 117.34 56.63 117.26 56.67C117.19 56.72 117.12 56.77 117.06 56.82C117 56.88 116.94 56.94 116.89 57.01C116.84 57.08 116.8 57.15 116.76 57.22C116.72 57.3 116.69 57.38 116.67 57.46C116.64 57.54 116.63 57.62 116.62 57.71L116.61 57.82L114.73 57.82C114.73 57.74 114.72 57.65 114.7 57.57C114.69 57.49 114.66 57.41 114.63 57.33C114.6 57.25 114.56 57.18 114.52 57.11C114.47 57.04 114.42 56.97 114.37 56.91C114.31 56.85 114.25 56.79 114.18 56.74C114.11 56.69 114.04 56.65 113.97 56.61C113.89 56.57 113.81 56.54 113.73 56.52C113.65 56.5 113.57 56.48 113.49 56.47L113.36 56.47C113.27 56.47 113.19 56.48 113.11 56.49C113.02 56.51 112.94 56.53 112.86 56.56C112.78 56.59 112.71 56.63 112.64 56.67C112.56 56.72 112.5 56.77 112.43 56.82C112.37 56.88 112.32 56.94 112.26 57.01C112.21 57.08 112.17 57.15 112.13 57.22C112.09 57.3 112.06 57.38 112.04 57.46C112.02 57.54 112 57.62 111.99 57.71L111.99 57.82L110.1 57.82C110.1 57.74 110.09 57.65 110.07 57.57C110.06 57.49 110.03 57.41 110 57.33C109.97 57.25 109.94 57.18 109.89 57.11C109.85 57.04 109.8 56.97 109.74 56.91C109.68 56.85 109.62 56.79 109.55 56.74C109.49 56.69 109.42 56.65 109.34 56.61C109.27 56.57 109.19 56.54 109.11 56.52C109.03 56.5 108.95 56.48 108.86 56.47L108.73 56.47C108.65 56.47 108.56 56.47 108.48 56.49C108.4 56.51 108.31 56.53 108.24 56.56C108.16 56.59 108.08 56.63 108.01 56.67C107.94 56.72 107.87 56.77 107.81 56.82C107.74 56.88 107.69 56.94 107.64 57.01C107.59 57.08 107.54 57.15 107.5 57.22C107.47 57.3 107.43 57.38 107.41 57.46C107.39 57.54 107.37 57.62 107.36 57.71L107.36 57.82L106.27 57.82C106.12 57.82 105.98 57.8 105.84 57.78C105.7 57.75 105.56 57.71 105.43 57.65C105.3 57.6 105.17 57.53 105.05 57.45C104.93 57.37 104.82 57.28 104.72 57.17C104.62 57.07 104.52 56.96 104.45 56.84C104.37 56.72 104.3 56.59 104.24 56.46C104.19 56.33 104.15 56.19 104.12 56.05C104.09 55.91 104.08 55.76 104.08 55.62L104.08 32.59C104.08 31.37 105.07 30.39 106.27 30.39L124.93 30.39ZM117.91 37.73L115.59 41.73L113.27 37.73C113.26 37.7 113.24 37.68 113.22 37.66C113.19 37.64 113.17 37.63 113.14 37.62C113.11 37.62 113.08 37.61 113.05 37.62C113.03 37.62 113 37.63 112.97 37.65L111.81 38.31C111.77 38.34 111.74 38.37 111.72 38.42C111.7 38.46 111.7 38.51 111.71 38.56L111.73 38.61L114.04 42.6L111.82 42.6C111.7 42.6 111.6 42.7 111.6 42.82L111.6 44.16C111.6 44.26 111.67 44.34 111.77 44.37L111.83 44.38L114.73 44.38L114.73 45.6L111.82 45.6C111.7 45.6 111.6 45.7 111.6 45.82L111.6 47.16C111.6 47.26 111.67 47.35 111.77 47.37L111.83 47.38L114.73 47.38L114.73 49.38C114.73 49.5 114.83 49.6 114.95 49.6L116.29 49.6C116.39 49.6 116.48 49.53 116.5 49.44L116.51 49.38L116.51 47.38L119.38 47.38C119.48 47.38 119.56 47.31 119.59 47.22L119.6 47.16L119.6 45.82C119.6 45.7 119.5 45.6 119.38 45.6L116.51 45.6L116.51 44.38L119.38 44.38C119.48 44.38 119.56 44.31 119.59 44.22L119.6 44.16L119.6 42.82C119.6 42.7 119.5 42.6 119.38 42.6L117.14 42.6L119.45 38.62C119.47 38.59 119.47 38.56 119.48 38.53C119.48 38.51 119.48 38.48 119.47 38.45C119.46 38.42 119.45 38.39 119.43 38.37C119.42 38.35 119.4 38.33 119.37 38.32L118.21 37.65C118.19 37.63 118.16 37.62 118.13 37.62C118.1 37.61 118.07 37.62 118.04 37.62C118.02 37.63 117.99 37.64 117.97 37.66C117.94 37.68 117.93 37.7 117.91 37.73Z"
          fill="#FFFFFF" fill-opacity="1.000000" fill-rule="nonzero"/>

</svg>
