<svg width="156.000000" height="88.000000" viewBox="0 0 156 88" fill="none" xmlns="http://www.w3.org/2000/svg"
>
    <desc>
        Created with Pixso.
    </desc>
    <defs>
        <clipPath id="clip1_134">
            <rect width="48.000000" height="48.000000" transform="translate(93.000000 20.000000)" fill="white"
                  fill-opacity="0"/>
        </clipPath>
    </defs>
    <mask id="mask1_131" mask-type="alpha" maskUnits="userSpaceOnUse" x="0.000000" y="0.000000" width="156.000000"
          height="88.000000">
        <rect rx="8.000000" width="156.000000" height="88.000000" fill="#F6F5FF" fill-opacity="1.000000"/>
        <rect x="0.500000" y="0.500000" rx="8.000000" width="155.000000" height="87.000000" stroke="#FFFFFF"
              stroke-opacity="0" stroke-width="1.000000"/>
    </mask>
    <rect rx="8.000000" width="156.000000" height="88.000000" fill="#F6F5FF" fill-opacity="1.000000"/>
    <rect x="0.500000" y="0.500000" rx="8.000000" width="155.000000" height="87.000000" stroke="#FFFFFF"
          stroke-opacity="0" stroke-width="1.000000"/>
    <ellipse opacity="0.260000" cx="24.500000" cy="2.500000" rx="87.500000" ry="37.500000" fill="#CBBFF8"
             fill-opacity="1.000000"/>
    <path d="M59.05 39.49L59.05 40.79L54.17 40.79C55.5 42.13 57.48 43.27 59.39 43.87C59.08 44.15 58.62 44.71 58.41 45.07C56.3 44.29 54.14 42.77 52.68 41.01L52.68 43.91L51.21 43.91L51.21 41.01C49.8 42.82 47.64 44.35 45.53 45.2C45.32 44.85 44.89 44.31 44.59 44C46.44 43.39 48.39 42.16 49.69 40.79L44.96 40.79L44.96 39.49L51.21 39.49L51.21 37.57L52.68 37.57L52.68 39.49L59.05 39.49ZM16.43 44.82C16.97 44.67 17.53 44.55 18.06 44.39L18.25 45.83L16.43 46.34L16.43 50.51C16.43 51.35 16.23 51.76 15.72 51.99C15.21 52.23 14.43 52.26 13.15 52.26C13.08 51.87 12.91 51.23 12.68 50.83C13.51 50.87 14.33 50.87 14.55 50.85C14.83 50.85 14.91 50.77 14.91 50.5L14.91 46.79C14.19 47 13.51 47.17 12.91 47.33L12.55 45.81C13.21 45.65 14.03 45.44 14.91 45.23L14.91 42.13L12.78 42.13L12.78 40.69L14.91 40.69L14.91 37.59L16.43 37.59L16.43 40.69L18.11 40.69L18.11 42.13L16.43 42.13L16.43 44.82ZM37.16 41.12L37.16 43.33L43 43.33L43 44.72L29.03 44.72L29.03 43.33L35.6 43.33L35.6 41.12L31.88 41.12C31.42 41.89 30.94 42.56 30.46 43.11C30.14 42.9 29.47 42.5 29.1 42.31C30.25 41.22 31.26 39.43 31.83 37.68L33.32 38.03C33.12 38.61 32.87 39.2 32.62 39.76L35.6 39.76L35.6 37.59L37.16 37.59L37.16 39.76L41.9 39.76L41.9 41.12L37.16 41.12ZM69.48 37.97C69.26 38.64 68.99 39.28 68.67 39.91L75.02 39.91C75.02 39.91 75.02 40.44 75 40.64C74.78 48.03 74.57 50.6 73.95 51.38C73.58 51.91 73.19 52.07 72.62 52.15C72.09 52.21 71.21 52.19 70.35 52.16C70.32 51.75 70.12 51.14 69.88 50.72C70.81 50.8 71.61 50.8 72 50.8C72.28 50.8 72.46 50.74 72.64 50.53C73.1 49.99 73.34 47.54 73.53 41.25L67.96 41.25C67.67 41.75 67.37 42.23 67.07 42.64L71.82 42.64L71.82 49.06L68.09 49.06L68.09 49.99L66.75 49.99L66.75 43.04C66.55 43.3 66.36 43.51 66.19 43.71C65.9 43.44 65.28 42.95 64.91 42.72C66.2 41.51 67.32 39.54 67.96 37.59L69.48 37.97ZM62.7 37.91C63.48 38.63 64.49 39.62 64.96 40.29L63.87 41.27C63.44 40.58 62.46 39.51 61.69 38.74L62.7 37.91ZM25.64 43.59L25.92 43.54L26.86 43.84C26.49 45.84 25.77 47.65 24.68 49.17C25.48 49.92 26.39 50.55 27.4 50.96C27.05 51.25 26.62 51.83 26.38 52.24C25.39 51.75 24.51 51.11 23.72 50.32C22.96 51.11 22.09 51.78 21.08 52.31C20.87 51.97 20.51 51.55 20.17 51.27L20.17 52.23L18.7 52.23L18.7 38.13L26.43 38.13C26.43 38.13 26.41 38.51 26.39 38.71C26.32 40.95 26.16 41.89 25.8 42.26C25.48 42.61 25.07 42.71 24.52 42.76C24 42.79 23.02 42.77 22 42.72C21.98 42.35 21.8 41.83 21.6 41.49C22.59 41.57 23.56 41.59 23.88 41.59C24.22 41.59 24.38 41.57 24.52 41.44C24.7 41.27 24.78 40.72 24.86 39.51L20.17 39.51L20.17 43.59L25.64 43.59ZM64.23 42.5L64.23 48.77L65.74 47.67C65.85 48.07 66.09 48.64 66.25 48.92C63.47 51.06 63.02 51.44 62.76 51.78C62.64 51.43 62.27 50.8 62.01 50.51C62.33 50.29 62.8 49.8 62.8 49.06L62.8 43.92L60.71 43.92L60.71 42.5L64.23 42.5ZM70.51 45.27L70.51 43.84L68.09 43.84L68.09 45.27L70.51 45.27ZM47.48 49.6L47.48 44.39L56.44 44.39L56.44 49.6L47.48 49.6ZM20.49 44.93L20.17 44.93L20.17 51.14C21.18 50.64 22.04 49.99 22.76 49.23C21.8 47.99 21.05 46.53 20.49 44.93ZM23.69 48.07C24.35 47.12 24.81 46.07 25.13 44.93L21.92 44.93C22.35 46.07 22.96 47.12 23.69 48.07ZM48.96 46.48L54.91 46.48L54.91 45.41L48.96 45.41L48.96 46.48ZM32.44 52.35L30.94 52.35L30.94 46.12L41.28 46.12L41.28 52.32L39.72 52.32L39.72 51.51L32.44 51.51L32.44 52.35ZM68.09 46.44L68.09 47.86L70.51 47.86L70.51 46.44L68.09 46.44ZM48.96 48.56L54.91 48.56L54.91 47.48L48.96 47.48L48.96 48.56ZM39.72 50.13L39.72 47.49L32.44 47.49L32.44 50.13L39.72 50.13ZM58.87 51.78L45.18 51.78L45.18 50.45L58.87 50.45L58.87 51.78Z"
          fill="#7F62EE" fill-opacity="1.000000" fill-rule="evenodd"/>
    <path d="M93.09 43.99C93.09 44.37 93.1 44.76 93.12 45.14C93.14 45.53 93.16 45.91 93.2 46.29C93.24 46.68 93.29 47.06 93.34 47.44C93.4 47.82 93.47 48.2 93.54 48.58C93.62 48.95 93.7 49.33 93.79 49.7C93.89 50.08 93.99 50.45 94.1 50.81C94.21 51.18 94.33 51.55 94.46 51.91C94.59 52.27 94.73 52.63 94.88 52.99C95.03 53.34 95.18 53.7 95.35 54.04C95.51 54.39 95.68 54.74 95.87 55.07C96.05 55.41 96.24 55.75 96.43 56.08C96.63 56.41 96.84 56.73 97.05 57.05C97.27 57.37 97.49 57.69 97.72 58C97.95 58.31 98.18 58.61 98.43 58.91C98.67 59.21 98.92 59.5 99.18 59.78C99.44 60.07 99.7 60.35 99.98 60.62C100.25 60.89 100.53 61.16 100.81 61.41C101.1 61.67 101.39 61.92 101.69 62.17C101.99 62.41 102.29 62.65 102.6 62.88C102.91 63.11 103.22 63.33 103.54 63.54C103.86 63.76 104.19 63.96 104.52 64.16C104.85 64.36 105.18 64.55 105.52 64.73C105.86 64.91 106.2 65.08 106.55 65.25C106.9 65.41 107.25 65.57 107.61 65.72C107.96 65.86 108.32 66 108.68 66.13C109.05 66.26 109.41 66.38 109.78 66.49C110.15 66.61 110.52 66.71 110.89 66.8C111.27 66.9 111.64 66.98 112.02 67.06C112.4 67.13 112.78 67.2 113.16 67.25C113.54 67.31 113.92 67.36 114.3 67.39C114.69 67.43 115.07 67.46 115.45 67.48C115.84 67.5 116.22 67.51 116.61 67.51C116.99 67.51 117.38 67.5 117.76 67.48C118.15 67.46 118.53 67.43 118.91 67.39C119.3 67.36 119.68 67.31 120.06 67.25C120.44 67.2 120.82 67.13 121.2 67.06C121.57 66.98 121.95 66.9 122.32 66.8C122.7 66.71 123.07 66.61 123.44 66.49C123.8 66.38 124.17 66.26 124.53 66.13C124.89 66 125.25 65.86 125.61 65.72C125.96 65.57 126.32 65.41 126.66 65.25C127.01 65.08 127.36 64.91 127.7 64.73C128.03 64.55 128.37 64.36 128.7 64.16C129.03 63.96 129.36 63.76 129.67 63.54C130 63.33 130.31 63.11 130.62 62.88C130.93 62.65 131.23 62.41 131.53 62.17C131.83 61.92 132.12 61.67 132.4 61.41C132.69 61.16 132.97 60.89 133.24 60.62C133.51 60.35 133.78 60.07 134.03 59.78C134.29 59.5 134.55 59.21 134.79 58.91C135.03 58.61 135.27 58.31 135.5 58C135.73 57.69 135.95 57.37 136.16 57.05C136.38 56.73 136.58 56.41 136.78 56.08C136.98 55.75 137.17 55.41 137.35 55.07C137.53 54.74 137.71 54.39 137.87 54.04C138.03 53.7 138.19 53.34 138.34 52.99C138.49 52.63 138.62 52.27 138.75 51.91C138.88 51.55 139 51.18 139.12 50.81C139.23 50.45 139.33 50.08 139.42 49.7C139.52 49.33 139.6 48.95 139.68 48.58C139.75 48.2 139.82 47.82 139.87 47.44C139.93 47.06 139.98 46.68 140.02 46.29C140.05 45.91 140.08 45.53 140.1 45.14C140.12 44.76 140.13 44.37 140.13 43.99C140.13 43.6 140.12 43.22 140.1 42.83C140.08 42.45 140.05 42.07 140.02 41.68C139.98 41.3 139.93 40.92 139.87 40.54C139.82 40.16 139.75 39.78 139.68 39.4C139.6 39.02 139.52 38.65 139.42 38.27C139.33 37.9 139.23 37.53 139.12 37.16C139 36.79 138.88 36.43 138.75 36.06C138.62 35.7 138.49 35.34 138.34 34.99C138.19 34.63 138.03 34.28 137.87 33.93C137.71 33.58 137.53 33.24 137.35 32.9C137.17 32.56 136.98 32.23 136.78 31.9C136.58 31.57 136.38 31.24 136.16 30.92C135.95 30.6 135.73 30.29 135.5 29.98C135.27 29.67 135.03 29.36 134.79 29.07C134.55 28.77 134.29 28.48 134.03 28.19C133.78 27.91 133.51 27.63 133.24 27.36C132.97 27.08 132.69 26.82 132.4 26.56C132.12 26.3 131.83 26.05 131.53 25.81C131.23 25.56 130.93 25.33 130.62 25.1C130.31 24.87 130 24.65 129.67 24.43C129.36 24.22 129.03 24.01 128.7 23.81C128.37 23.62 128.03 23.43 127.7 23.24C127.36 23.06 127.01 22.89 126.66 22.73C126.32 22.56 125.96 22.41 125.61 22.26C125.25 22.11 124.89 21.97 124.53 21.84C124.17 21.71 123.8 21.59 123.44 21.48C123.07 21.37 122.7 21.27 122.32 21.17C121.95 21.08 121.57 20.99 121.2 20.92C120.82 20.84 120.44 20.78 120.06 20.72C119.68 20.67 119.3 20.62 118.91 20.58C118.53 20.54 118.15 20.51 117.76 20.5C117.38 20.48 116.99 20.47 116.61 20.47C116.22 20.47 115.84 20.48 115.45 20.5C115.07 20.51 114.69 20.54 114.3 20.58C113.92 20.62 113.54 20.67 113.16 20.72C112.78 20.78 112.4 20.84 112.02 20.92C111.64 20.99 111.27 21.08 110.89 21.17C110.52 21.27 110.15 21.37 109.78 21.48C109.41 21.59 109.05 21.71 108.68 21.84C108.32 21.97 107.96 22.11 107.61 22.26C107.25 22.41 106.9 22.56 106.55 22.73C106.2 22.89 105.86 23.06 105.52 23.24C105.18 23.43 104.85 23.62 104.52 23.81C104.19 24.01 103.86 24.22 103.54 24.43C103.22 24.65 102.91 24.87 102.6 25.1C102.29 25.33 101.99 25.56 101.69 25.81C101.39 26.05 101.1 26.3 100.81 26.56C100.53 26.82 100.25 27.08 99.98 27.36C99.7 27.63 99.44 27.91 99.18 28.19C98.92 28.48 98.67 28.77 98.43 29.07C98.18 29.36 97.95 29.67 97.72 29.98C97.49 30.29 97.27 30.6 97.05 30.92C96.84 31.24 96.63 31.57 96.43 31.9C96.24 32.23 96.05 32.56 95.87 32.9C95.68 33.24 95.51 33.58 95.35 33.93C95.18 34.28 95.03 34.63 94.88 34.99C94.73 35.34 94.59 35.7 94.46 36.06C94.33 36.43 94.21 36.79 94.1 37.16C93.99 37.53 93.89 37.9 93.79 38.27C93.7 38.65 93.62 39.02 93.54 39.4C93.47 39.78 93.4 40.16 93.34 40.54C93.29 40.92 93.24 41.3 93.2 41.68C93.16 42.07 93.14 42.45 93.12 42.83C93.1 43.22 93.09 43.6 93.09 43.99Z"
          fill="#B883F9" fill-opacity="1.000000" fill-rule="nonzero"/>
    <path d="M119.76 31.03L119.76 35.08C119.76 35.21 119.77 35.35 119.8 35.48C119.82 35.61 119.86 35.74 119.91 35.87C119.96 36 120.02 36.12 120.09 36.23C120.17 36.34 120.25 36.45 120.34 36.55C120.43 36.65 120.54 36.74 120.64 36.82C120.75 36.9 120.87 36.97 120.99 37.02C121.11 37.08 121.24 37.13 121.37 37.16C121.5 37.2 121.64 37.22 121.77 37.23L121.92 37.23L125.88 37.23L125.88 44.19C125.7 44.09 125.52 44 125.34 43.92C125.15 43.84 124.96 43.77 124.77 43.71C124.58 43.65 124.38 43.59 124.18 43.55C123.98 43.51 123.79 43.47 123.58 43.44C123.38 43.42 123.18 43.4 122.98 43.39C122.78 43.39 122.57 43.39 122.37 43.4C122.17 43.41 121.97 43.43 121.77 43.46C121.57 43.49 121.37 43.52 121.17 43.57C120.98 43.62 120.78 43.68 120.59 43.74C120.4 43.81 120.21 43.88 120.02 43.96C119.84 44.04 119.66 44.13 119.48 44.23C119.3 44.33 119.13 44.44 118.96 44.55C118.8 44.67 118.64 44.79 118.48 44.92C118.32 45.05 118.18 45.19 118.03 45.33C117.89 45.47 117.75 45.62 117.62 45.78C117.49 45.93 117.37 46.09 117.26 46.26C117.14 46.43 117.03 46.6 116.93 46.78C116.83 46.95 116.74 47.13 116.66 47.32C116.58 47.5 116.5 47.69 116.44 47.88C116.37 48.08 116.32 48.27 116.27 48.47C116.22 48.66 116.18 48.86 116.15 49.06C116.12 49.26 116.1 49.46 116.09 49.67C116.08 49.87 116.08 50.07 116.09 50.27C116.09 50.48 116.11 50.68 116.14 50.88C116.16 51.08 116.2 51.28 116.24 51.48C116.29 51.67 116.34 51.87 116.4 52.06C116.46 52.26 116.53 52.44 116.61 52.63C116.69 52.82 116.78 53 116.88 53.18C116.97 53.36 117.08 53.53 117.19 53.7C117.3 53.87 117.42 54.03 117.55 54.19C117.67 54.35 117.81 54.5 117.95 54.65C118.09 54.79 118.24 54.93 118.39 55.06L118.52 55.17L118.58 55.22L108.67 55.22C108.54 55.22 108.4 55.21 108.27 55.18C108.14 55.16 108.01 55.12 107.89 55.07C107.76 55.02 107.64 54.96 107.53 54.89C107.41 54.82 107.31 54.74 107.21 54.64C107.11 54.55 107.02 54.45 106.94 54.34C106.86 54.24 106.79 54.12 106.74 54C106.68 53.88 106.63 53.75 106.6 53.62C106.56 53.49 106.54 53.36 106.53 53.23L106.53 53.07L106.53 33.18C106.53 32.04 107.41 31.11 108.53 31.03L108.68 31.03L119.76 31.03ZM118.47 41.19L110.07 41.19C110.03 41.19 109.99 41.2 109.95 41.23C109.92 41.25 109.9 41.29 109.88 41.33L109.88 41.38L109.88 42.93C109.88 43.02 109.94 43.09 110.02 43.12L110.07 43.13L118.47 43.13C118.56 43.13 118.63 43.06 118.66 42.98L118.66 42.93L118.66 41.38C118.66 41.36 118.66 41.33 118.65 41.31C118.64 41.28 118.62 41.26 118.61 41.25C118.59 41.23 118.57 41.21 118.54 41.2C118.52 41.19 118.49 41.19 118.47 41.19ZM118.47 36.68L110.07 36.68C110.03 36.68 109.99 36.69 109.95 36.72C109.92 36.75 109.9 36.78 109.88 36.82L109.88 36.87L109.88 38.42C109.88 38.51 109.94 38.59 110.02 38.61L110.07 38.62L118.47 38.62C118.56 38.62 118.63 38.55 118.66 38.47L118.66 38.42L118.66 36.87C118.66 36.85 118.66 36.82 118.65 36.8C118.64 36.78 118.62 36.75 118.61 36.74C118.59 36.72 118.57 36.7 118.54 36.69C118.52 36.68 118.49 36.68 118.47 36.68ZM121.31 31.03L125.88 35.6L122.39 35.6C121.79 35.6 121.31 35.12 121.31 34.52L121.31 31.03Z"
          fill="#FFFFFF" fill-opacity="1.000000" fill-rule="nonzero"/>
    <path d="M122.72 44.84C122.96 44.84 123.2 44.85 123.45 44.89C123.69 44.92 123.93 44.97 124.16 45.04C124.4 45.11 124.62 45.19 124.85 45.29C125.07 45.39 125.29 45.51 125.49 45.64C125.7 45.77 125.89 45.92 126.08 46.07C126.27 46.23 126.44 46.4 126.6 46.59C126.76 46.77 126.91 46.96 127.05 47.17C127.18 47.37 127.3 47.58 127.41 47.8C127.51 48.03 127.6 48.25 127.67 48.49C127.75 48.72 127.8 48.96 127.84 49.2C127.88 49.44 127.9 49.68 127.91 49.93C127.91 50.17 127.9 50.41 127.87 50.66C127.84 50.9 127.79 51.14 127.73 51.37C127.66 51.61 127.58 51.84 127.49 52.07C127.39 52.29 127.28 52.51 127.15 52.72C127.03 52.93 126.89 53.12 126.73 53.31L128.37 54.95C128.42 55 128.46 55.05 128.49 55.1C128.53 55.15 128.56 55.21 128.58 55.27C128.61 55.33 128.63 55.39 128.64 55.45C128.65 55.51 128.66 55.58 128.66 55.64C128.66 55.71 128.65 55.77 128.64 55.83C128.63 55.89 128.61 55.96 128.58 56.01C128.56 56.07 128.53 56.13 128.49 56.18C128.46 56.24 128.42 56.29 128.37 56.33C128.33 56.38 128.28 56.42 128.22 56.45C128.17 56.49 128.12 56.52 128.06 56.54C128 56.57 127.94 56.58 127.87 56.6C127.81 56.61 127.75 56.62 127.68 56.62C127.62 56.62 127.56 56.61 127.49 56.6C127.43 56.58 127.37 56.57 127.31 56.54C127.25 56.52 127.2 56.49 127.14 56.45C127.09 56.42 127.04 56.38 126.99 56.33L125.23 54.57C125.06 54.66 124.88 54.75 124.7 54.82C124.52 54.9 124.33 54.96 124.14 55.02C123.95 55.07 123.76 55.11 123.56 55.15C123.37 55.18 123.17 55.2 122.98 55.21C122.78 55.22 122.58 55.22 122.39 55.2C122.19 55.19 121.99 55.17 121.8 55.13C121.6 55.1 121.41 55.05 121.22 55C121.04 54.94 120.85 54.87 120.67 54.79C120.49 54.72 120.31 54.63 120.14 54.53C119.97 54.43 119.8 54.32 119.64 54.21C119.49 54.09 119.33 53.96 119.19 53.83C119.04 53.7 118.91 53.55 118.78 53.4C118.65 53.25 118.53 53.1 118.42 52.93C118.31 52.77 118.21 52.6 118.12 52.43C118.03 52.25 117.95 52.07 117.88 51.89C117.8 51.7 117.74 51.52 117.69 51.33C117.65 51.13 117.61 50.94 117.58 50.75C117.55 50.55 117.54 50.35 117.53 50.16C117.53 49.96 117.53 49.76 117.55 49.57C117.57 49.37 117.6 49.17 117.64 48.98C117.68 48.79 117.73 48.6 117.79 48.41C117.85 48.22 117.92 48.04 118 47.86C118.09 47.68 118.18 47.51 118.28 47.34C118.38 47.17 118.49 47.01 118.61 46.85C118.74 46.69 118.86 46.54 119 46.4C119.14 46.26 119.29 46.13 119.44 46C119.59 45.88 119.75 45.76 119.92 45.66C120.08 45.55 120.25 45.45 120.43 45.37C120.61 45.28 120.79 45.2 120.98 45.14C121.16 45.07 121.35 45.02 121.54 44.97C121.74 44.93 121.93 44.89 122.13 44.87C122.32 44.85 122.52 44.84 122.72 44.84ZM122.74 46.9C122.63 46.9 122.53 46.9 122.43 46.91C122.32 46.92 122.22 46.94 122.12 46.96C122.02 46.98 121.92 47 121.82 47.03C121.72 47.06 121.63 47.1 121.53 47.14C121.44 47.18 121.34 47.22 121.25 47.27C121.16 47.32 121.07 47.37 120.99 47.43C120.9 47.49 120.82 47.55 120.74 47.61C120.66 47.68 120.58 47.75 120.51 47.82C120.44 47.89 120.37 47.97 120.3 48.05C120.24 48.13 120.18 48.21 120.12 48.3C120.06 48.38 120.01 48.47 119.96 48.56C119.91 48.65 119.87 48.74 119.83 48.84C119.79 48.93 119.76 49.03 119.73 49.13C119.7 49.23 119.67 49.33 119.65 49.43C119.63 49.53 119.62 49.63 119.61 49.73C119.6 49.84 119.59 49.94 119.59 50.04C119.59 50.15 119.6 50.25 119.61 50.35C119.62 50.45 119.63 50.56 119.65 50.66C119.67 50.76 119.7 50.86 119.73 50.96C119.76 51.05 119.79 51.15 119.83 51.25C119.87 51.34 119.91 51.43 119.96 51.53C120.01 51.62 120.06 51.7 120.12 51.79C120.18 51.88 120.24 51.96 120.3 52.04C120.37 52.12 120.44 52.19 120.51 52.27C120.58 52.34 120.66 52.41 120.74 52.47C120.82 52.54 120.9 52.6 120.99 52.66C121.07 52.72 121.16 52.77 121.25 52.82C121.34 52.87 121.44 52.91 121.53 52.95C121.63 52.99 121.72 53.02 121.82 53.05C121.92 53.08 122.02 53.11 122.12 53.13C122.22 53.15 122.32 53.16 122.43 53.17C122.53 53.18 122.63 53.19 122.74 53.19C122.84 53.19 122.94 53.18 123.04 53.17C123.15 53.16 123.25 53.15 123.35 53.13C123.45 53.11 123.55 53.08 123.65 53.05C123.75 53.02 123.84 52.99 123.94 52.95C124.03 52.91 124.13 52.87 124.22 52.82C124.31 52.77 124.4 52.72 124.48 52.66C124.57 52.6 124.65 52.54 124.73 52.47C124.81 52.41 124.89 52.34 124.96 52.27C125.03 52.19 125.1 52.12 125.17 52.04C125.23 51.96 125.29 51.88 125.35 51.79C125.41 51.7 125.46 51.62 125.51 51.53C125.56 51.43 125.6 51.34 125.64 51.25C125.68 51.15 125.71 51.05 125.74 50.96C125.77 50.86 125.8 50.76 125.82 50.66C125.84 50.56 125.86 50.45 125.87 50.35C125.88 50.25 125.88 50.15 125.88 50.04C125.88 49.94 125.88 49.84 125.87 49.73C125.86 49.63 125.84 49.53 125.82 49.43C125.8 49.33 125.77 49.23 125.74 49.13C125.71 49.03 125.68 48.93 125.64 48.84C125.6 48.74 125.56 48.65 125.51 48.56C125.46 48.47 125.41 48.38 125.35 48.3C125.29 48.21 125.23 48.13 125.17 48.05C125.1 47.97 125.03 47.89 124.96 47.82C124.89 47.75 124.81 47.68 124.73 47.61C124.65 47.55 124.57 47.49 124.48 47.43C124.4 47.37 124.31 47.32 124.22 47.27C124.13 47.22 124.03 47.18 123.94 47.14C123.84 47.1 123.75 47.06 123.65 47.03C123.55 47 123.45 46.98 123.35 46.96C123.25 46.94 123.15 46.92 123.04 46.91C122.94 46.9 122.84 46.9 122.74 46.9Z"
          fill="#FFFFFF" fill-opacity="1.000000" fill-rule="nonzero"/>
</svg>
