<?xml version="1.0" encoding="UTF-8"?>
<svg width="24px" height="24px" viewBox="0 0 24 24" version="1.1" xmlns="http://www.w3.org/2000/svg"
>
    <title>ic_03_onmdpi</title>
    <g id="ic_03_on" stroke="none" stroke-width="1" fill="none" fill-rule="evenodd">
        <path d="M6.29561884,1.23609679 C6.36668269,1.64416884 6.09348356,2.03258524 5.6854115,2.10364909 C5.06260385,2.21210814 4.68498237,2.566507 4.56833715,3.19636152 C4.56943353,3.20282656 4.56858748,3.20799979 4.56768604,3.21317618 C4.55480513,3.28714263 4.54502385,3.36335881 4.53828493,3.44172891 C4.51264327,3.76874183 4.54605606,4.15799173 4.63906589,4.61182336 C4.67554606,4.78982445 4.72112934,4.97351547 4.77560514,5.16239838 C6.5642751,2.4498942 9.63831608,0.659891248 13.1304347,0.659891248 C18.6532822,0.659891248 23.1304347,5.13704375 23.1304347,10.6598912 C23.1304347,14.1532921 21.3391169,17.2283083 18.6249113,19.0165099 C18.8149051,19.0715611 18.9996576,19.1174512 19.1786561,19.1541357 C19.5102582,19.2220954 19.8073812,19.2582373 20.0712172,19.2631991 C20.2506014,19.2639295 20.4205429,19.2505665 20.5800256,19.2227933 L20.6179792,19.2202946 C21.2329334,19.0985893 21.5797486,18.7226891 21.6868304,18.1077901 C21.7578942,17.6997181 22.1463106,17.4265189 22.5543827,17.4975828 C22.9624548,17.5686466 23.2356539,17.957063 23.16459,18.3651351 C22.9366329,19.6741403 22.1122883,20.4534372 20.9059197,20.6837587 C20.8840652,20.691284 20.8609429,20.696448 20.8373705,20.700553 C20.3898284,20.7784904 19.8948507,20.7777121 19.3627656,20.7052656 C19.204094,20.6846974 19.0424049,20.6573893 18.8775004,20.6235932 C18.2383844,20.4926105 17.5502082,20.2676553 16.8271214,19.955937 C15.6831949,20.4096864 14.436034,20.6598912 13.1304347,20.6598912 C7.60758715,20.6598912 3.13043465,16.1827387 3.13043465,10.6598912 C3.13043465,9.35355385 3.38092242,8.10572095 3.83648753,6.96180305 C3.82577641,6.93670142 3.81499655,6.91148508 3.80432288,6.88631197 C3.78747481,6.84551654 3.77029185,6.80444474 3.75338608,6.76347623 C3.59499919,6.38058605 3.46218676,6.00857693 3.35536528,5.64903217 C3.05579489,4.64578593 2.95513232,3.72986323 3.08992639,2.95583122 C3.09658055,2.91762083 3.10601719,2.88059298 3.11799189,2.84491958 C3.35721947,1.65987115 4.13366577,0.851303308 5.42806653,0.625889448 C5.83613859,0.554825598 6.22455499,0.828024728 6.29561884,1.23609679 Z"
              id="形状结合" fill="#0A59F7" fill-rule="nonzero"></path>
        <path d="M15.2916125,-0.646674887 C15.6304127,-0.408374098 15.7118836,0.0594587272 15.4735829,0.398258977 C15.2352821,0.737059227 14.7674492,0.818530137 14.428649,0.580229347 C13.9115653,0.216529967 13.3939488,0.200109087 12.8660938,0.563002867 C12.8622976,0.568349607 12.8580413,0.571409377 12.8537436,0.574432227 C12.7923332,0.617626227 12.7315239,0.664602797 12.6713427,0.715253687 C12.4219783,0.928355347 12.1703634,1.227223 11.9152239,1.61389831 C10.916982,3.12677823 10.1589022,5.6805444 9.84274842,8.77778683 C9.66835079,10.4862965 9.64499441,12.2080729 9.74740605,13.8426678 L9.79892315,14.5375779 C9.91331552,15.8718435 10.1118531,17.1361717 10.3800874,18.2731368 C10.7658836,19.8969561 11.2932642,21.2382186 11.913299,22.1779088 C12.0997223,22.4604416 12.2842638,22.6960956 12.4673155,22.8861642 C12.5936428,23.0135245 12.7232587,23.1242423 12.8556685,23.2173749 L12.8842727,23.2424454 C13.4051696,23.591225 13.9162066,23.5706588 14.4267241,23.2115778 C14.7655243,22.973277 15.2333571,23.0547479 15.4716579,23.3935482 C15.7099587,23.7323484 15.6284878,24.2001812 15.2896876,24.438482 C14.202891,25.2028984 13.0689453,25.1710449 12.053052,24.4808754 C12.0322773,24.4707431 12.0122759,24.4580446 11.992705,24.4442791 C11.6211349,24.1829291 11.2716831,23.8323767 10.9466696,23.4049083 C10.8490158,23.2781666 10.753994,23.1445254 10.6612864,23.0040229 C9.82334984,21.7340929 9.15813525,19.9140936 8.72788734,17.7355888 C8.44006539,16.28589 8.26004929,14.7001825 8.20321672,13.0564556 C8.08100722,9.67589273 8.48476018,6.38299686 9.29404069,3.81571852 C9.30735691,3.77391178 9.32043596,3.73282876 9.3336156,3.69195231 C9.35627744,3.62164733 9.37952142,3.55128254 9.40307663,3.48150384 C9.41712926,3.4394831 9.4312123,3.39821843 9.44540081,3.35718021 C9.51120822,3.16768879 9.57961436,2.98149544 9.65032605,2.80012316 C9.67208963,2.74318479 9.69427114,2.68731646 9.71666512,2.63195219 C9.73359845,2.59119208 9.75049042,2.54999974 9.76750534,2.50907645 C9.92625314,2.12633576 10.0953907,1.76937302 10.2740931,1.43960229 C10.7716671,0.518371807 11.348143,-0.200462533 11.9907801,-0.65247201 C12.0225041,-0.67478563 12.0553595,-0.694295565 12.0890518,-0.71105308 C13.096167,-1.37984941 14.2169412,-1.40256277 15.2916125,-0.646674887 Z"
              id="形状结合" fill-opacity="0.8" fill="#FFFFFF" fill-rule="nonzero"
              transform="translate(11.895960, 11.895960) rotate(-45.000000) translate(-11.895960, -11.895960) "></path>
    </g>
</svg>