<svg width="20" height="20" fill="none" xmlns="http://www.w3.org/2000/svg">
    <defs>
        <clipPath id="a">
            <path fill="#fff" fill-opacity="0" d="M0 0h20v20H0z"/>
        </clipPath>
    </defs>
    <g clip-path="url(#a)">
        <path d="M.62 9.99v-4.4c0-.71.09-1.41.26-2.1.39-1.45 1.33-2.31 2.78-2.65C4.39.68 5.14.61 5.88.62h8.43c.71 0 1.41.08 2.1.24 1.5.37 2.4 1.32 2.74 2.81.15.7.23 1.42.22 2.14v8.52c0 .7-.08 1.4-.24 2.09-.37 1.49-1.32 2.39-2.81 2.73-.73.16-1.47.23-2.22.22H5.71c-.71 0-1.43-.08-2.12-.24-1.5-.37-2.41-1.32-2.75-2.82-.17-.76-.22-1.52-.22-2.29V9.99z"
              fill="none"/>
        <path d="M.62 5.59c0-.71.09-1.41.26-2.1.39-1.45 1.33-2.31 2.78-2.65C4.39.68 5.14.61 5.88.62h8.43c.71 0 1.41.08 2.1.24 1.5.37 2.4 1.32 2.74 2.81.15.7.23 1.42.22 2.14v8.52c0 .7-.08 1.4-.24 2.09-.37 1.49-1.32 2.39-2.81 2.73-.73.16-1.47.23-2.22.22H5.71c-.71 0-1.43-.08-2.12-.24-1.5-.37-2.41-1.32-2.75-2.82-.17-.76-.22-1.52-.22-2.29V5.59z"/>
        <g opacity=".2">
            <path d="M.62 9.99v-4.4c0-.71.09-1.41.26-2.1.39-1.45 1.33-2.31 2.78-2.65C4.39.68 5.14.61 5.88.62h8.43c.71 0 1.41.08 2.1.24 1.5.37 2.4 1.32 2.74 2.81.15.7.23 1.42.22 2.14v8.52c0 .7-.08 1.4-.24 2.09-.37 1.49-1.32 2.39-2.81 2.73-.73.16-1.47.23-2.22.22H5.71c-.71 0-1.43-.08-2.12-.24-1.5-.37-2.41-1.32-2.75-2.82-.17-.76-.22-1.52-.22-2.29V9.99z"
                  fill="none"/>
            <path d="M.62 5.59c0-.71.09-1.41.26-2.1.39-1.45 1.33-2.31 2.78-2.65C4.39.68 5.14.61 5.88.62h8.43c.71 0 1.41.08 2.1.24 1.5.37 2.4 1.32 2.74 2.81.15.7.23 1.42.22 2.14v8.52c0 .7-.08 1.4-.24 2.09-.37 1.49-1.32 2.39-2.81 2.73-.73.16-1.47.23-2.22.22H5.71c-.71 0-1.43-.08-2.12-.24-1.5-.37-2.41-1.32-2.75-2.82-.17-.76-.22-1.52-.22-2.29V5.59z"/>
        </g>
        <circle cx="10" cy="10" r="10" fill="none"/>
        <circle cx="10" cy="10" r="10"/>
        <mask id="b" mask-type="alpha" maskUnits="userSpaceOnUse" x="0" y="0" width="20" height="20">
            <path d="M20 0v20H0V0h20zM10 9.87c-2.03 0-3.67 1.64-3.67 3.67V20h7.33v-6.46c0-2.03-1.64-3.67-3.66-3.67z"
                  fill="#FFF"/>
        </mask>
        <g mask="url(#b)">
            <path d="M9.32 1.1 1.51 8.63c-.49.47-.76 1.12-.76 1.8v6.32c0 1.38 1.11 2.5 2.5 2.5h13.5a2.5 2.5 0 0 0 2.5-2.5V10.4c0-.66-.27-1.29-.73-1.76l-7.45-7.52C10.59.64 9.81.63 9.32 1.1z"
                  fill="#0A59F7" fill-rule="evenodd"/>
            <path d="M1.51 8.63c-.49.47-.76 1.12-.76 1.8v6.32c0 1.38 1.11 2.5 2.5 2.5h13.5a2.5 2.5 0 0 0 2.5-2.5V10.4c0-.66-.27-1.29-.73-1.76l-7.45-7.52C10.59.64 9.81.63 9.32 1.1L1.51 8.63z"
                  stroke="#0A59F7" stroke-width="1.25" stroke-linejoin="round"/>
        </g>
        <path d="M12.91 19.25h3.84a2.5 2.5 0 0 0 2.5-2.5V10.4c0-.66-.27-1.29-.73-1.76l-7.45-7.52C10.59.64 9.81.63 9.32 1.1L1.51 8.63c-.49.47-.76 1.12-.76 1.8v6.32c0 1.38 1.11 2.5 2.5 2.5h3.83"/>
        <path d="M7.08 19.25v-5.71a2.915 2.915 0 1 1 5.83 0v3.21"/>
    </g>
</svg>