<svg width="20.000000" height="20.000000" viewBox="0 0 20 20" fill="none" xmlns="http://www.w3.org/2000/svg"
>
    <desc>
        Created with Pixso.
    </desc>
    <defs>
        <clipPath id="clip27_4802">
            <rect id="首页0" width="20.000000" height="20.000000" fill="white" fill-opacity="0"/>
        </clipPath>
    </defs>
    <g opacity="0.900000">
        <g clip-path="url(#clip27_4802)">
            <path id="path1"
                  d="M0.62 9.99C0.62 8.52 0.62 7.06 0.62 5.59C0.62 4.88 0.71 4.18 0.88 3.49C1.27 2.04 2.21 1.18 3.66 0.84C4.39 0.68 5.14 0.61 5.88 0.62C8.69 0.62 11.5 0.62 14.31 0.62C15.02 0.62 15.72 0.7 16.41 0.86C17.91 1.23 18.81 2.18 19.15 3.67C19.3 4.37 19.38 5.09 19.37 5.81C19.37 8.65 19.37 11.49 19.37 14.33C19.37 15.03 19.29 15.73 19.13 16.42C18.76 17.91 17.81 18.81 16.32 19.15C15.59 19.31 14.85 19.38 14.1 19.37C11.31 19.37 8.51 19.37 5.71 19.37C5 19.37 4.28 19.29 3.59 19.13C2.09 18.76 1.18 17.81 0.84 16.31C0.67 15.55 0.62 14.79 0.62 14.02C0.62 12.68 0.62 11.33 0.62 9.99Z"
                  fill="#FFFFFF" fill-opacity="0" fill-rule="nonzero"/>
            <path id="path1"
                  d="M0.62 5.59C0.62 4.88 0.71 4.18 0.88 3.49C1.27 2.04 2.21 1.18 3.66 0.84C4.39 0.68 5.14 0.61 5.88 0.62C8.69 0.62 11.5 0.62 14.31 0.62C15.02 0.62 15.72 0.7 16.41 0.86C17.91 1.23 18.81 2.18 19.15 3.67C19.3 4.37 19.38 5.09 19.37 5.81C19.37 8.65 19.37 11.49 19.37 14.33C19.37 15.03 19.29 15.73 19.13 16.42C18.76 17.91 17.81 18.81 16.32 19.15C15.59 19.31 14.85 19.38 14.1 19.37C11.31 19.37 8.51 19.37 5.71 19.37C5 19.37 4.28 19.29 3.59 19.13C2.09 18.76 1.18 17.81 0.84 16.31C0.67 15.55 0.62 14.79 0.62 14.02C0.62 12.68 0.62 11.33 0.62 9.99C0.62 8.52 0.62 7.06 0.62 5.59Z"
                  stroke="#FFFFFF" stroke-opacity="0" stroke-width="1.250000"/>
            <g opacity="0.600000">
                <path id="path2"
                      d="M0.62 9.99C0.62 8.52 0.62 7.06 0.62 5.59C0.62 4.88 0.71 4.18 0.88 3.49C1.27 2.04 2.21 1.18 3.66 0.84C4.39 0.68 5.14 0.61 5.88 0.62C8.69 0.62 11.5 0.62 14.31 0.62C15.02 0.62 15.72 0.7 16.41 0.86C17.91 1.23 18.81 2.18 19.15 3.67C19.3 4.37 19.38 5.09 19.37 5.81C19.37 8.65 19.37 11.49 19.37 14.33C19.37 15.03 19.29 15.73 19.13 16.42C18.76 17.91 17.81 18.81 16.32 19.15C15.59 19.31 14.85 19.38 14.1 19.37C11.31 19.37 8.51 19.37 5.71 19.37C5 19.37 4.28 19.29 3.59 19.13C2.09 18.76 1.18 17.81 0.84 16.31C0.67 15.55 0.62 14.79 0.62 14.02C0.62 12.68 0.62 11.33 0.62 9.99Z"
                      fill="#000000" fill-opacity="0" fill-rule="nonzero"/>
                <path id="path2"
                      d="M0.62 5.59C0.62 4.88 0.71 4.18 0.88 3.49C1.27 2.04 2.21 1.18 3.66 0.84C4.39 0.68 5.14 0.61 5.88 0.62C8.69 0.62 11.5 0.62 14.31 0.62C15.02 0.62 15.72 0.7 16.41 0.86C17.91 1.23 18.81 2.18 19.15 3.67C19.3 4.37 19.38 5.09 19.37 5.81C19.37 8.65 19.37 11.49 19.37 14.33C19.37 15.03 19.29 15.73 19.13 16.42C18.76 17.91 17.81 18.81 16.32 19.15C15.59 19.31 14.85 19.38 14.1 19.37C11.31 19.37 8.51 19.37 5.71 19.37C5 19.37 4.28 19.29 3.59 19.13C2.09 18.76 1.18 17.81 0.84 16.31C0.67 15.55 0.62 14.79 0.62 14.02C0.62 12.68 0.62 11.33 0.62 9.99C0.62 8.52 0.62 7.06 0.62 5.59Z"
                      stroke="#FFFFFF" stroke-opacity="0" stroke-width="1.250000"/>
            </g>
            <circle id="path3" cx="10.000000" cy="10.000000" r="10.000000" fill="#FFFFFF" fill-opacity="0"/>
            <circle id="path3" cx="10.000000" cy="10.000000" r="10.000000" stroke="#000000" stroke-opacity="0"
                    stroke-width="1.250000"/>
            <mask id="mask27_4810" mask-type="alpha" maskUnits="userSpaceOnUse" x="0.000000" y="0.000000"
                  width="20.000000" height="20.000000">
                <path id="path-1"
                      d="M20 0L20 20L0 20L0 0L20 0ZM10 9.87C7.97 9.87 6.33 11.51 6.33 13.54L6.33 20L13.66 20L13.66 13.54C13.66 11.51 12.02 9.87 10 9.87Z"
                      fill="#FFFFFF" fill-opacity="1.000000" fill-rule="nonzero"/>
            </mask>
            <g mask="url(#mask27_4810)">
                <path id="path5"
                      d="M9.32 1.1L1.51 8.63C1.02 9.1 0.75 9.75 0.75 10.43L0.75 16.75C0.75 18.13 1.86 19.25 3.25 19.25L16.75 19.25C18.13 19.25 19.25 18.13 19.25 16.75L19.25 10.4C19.25 9.74 18.98 9.11 18.52 8.64L11.07 1.12C10.59 0.64 9.81 0.63 9.32 1.1Z"
                      fill="#FFFFFF" fill-opacity="0" fill-rule="evenodd"/>
                <path id="path5"
                      d="M1.51 8.63C1.02 9.1 0.75 9.75 0.75 10.43L0.75 16.75C0.75 18.13 1.86 19.25 3.25 19.25L16.75 19.25C18.13 19.25 19.25 18.13 19.25 16.75L19.25 10.4C19.25 9.74 18.98 9.11 18.52 8.64L11.07 1.12C10.59 0.64 9.81 0.63 9.32 1.1L1.51 8.63Z"
                      stroke="#FFFFFF" stroke-opacity="0" stroke-width="1.250000" stroke-linejoin="round"/>
            </g>
            <path id="path6"
                  d="M12.93 19.85L12.91 19.87C12.57 19.87 12.29 19.59 12.29 19.25C12.29 18.89 12.57 18.62 12.91 18.62L12.93 18.64L12.93 19.85ZM7.06 18.64L7.08 18.62C7.42 18.62 7.7 18.89 7.7 19.25C7.7 19.59 7.42 19.87 7.08 19.87L7.06 19.85L7.06 18.64Z"
                  fill="#000000" fill-opacity="0" fill-rule="nonzero"/>
            <path id="path6"
                  d="M12.91 19.25L16.75 19.25C18.13 19.25 19.25 18.13 19.25 16.75L19.25 10.4C19.25 9.74 18.98 9.11 18.52 8.64L11.07 1.12C10.59 0.64 9.81 0.63 9.32 1.1L1.51 8.63C1.02 9.1 0.75 9.75 0.75 10.43L0.75 16.75C0.75 18.13 1.86 19.25 3.25 19.25L7.08 19.25"
                  stroke="#747c83" stroke-opacity="1.000000" stroke-width="1.250000" stroke-linejoin="round"
                  stroke-linecap="round"/>
            <path id="path7"
                  d="M7.68 19.23L7.7 19.25C7.7 19.6 7.43 19.87 7.08 19.87C6.73 19.87 6.45 19.6 6.45 19.25L6.47 19.23L7.68 19.23ZM13.52 16.73L13.54 16.75C13.54 17.1 13.26 17.37 12.91 17.37C12.56 17.37 12.29 17.1 12.29 16.75L12.31 16.73L13.52 16.73Z"
                  fill="#000000" fill-opacity="0" fill-rule="nonzero"/>
            <path id="path7"
                  d="M7.08 19.25L7.08 13.54C7.08 11.93 8.38 10.62 10 10.62C11.61 10.62 12.91 11.93 12.91 13.54L12.91 16.75"
                  stroke="#747c83" stroke-opacity="1.000000" stroke-width="1.250000" stroke-linejoin="round"
                  stroke-linecap="round"/>
        </g>
    </g>
</svg>
