<svg width="20.000000" height="20.000000" viewBox="0 0 20 20" fill="none" xmlns="http://www.w3.org/2000/svg"
>
    <desc>
        Created with Pixso.
    </desc>
    <defs>
        <clipPath id="clip27_4746">
            <rect id="消息0" width="20.000000" height="20.000000" fill="white" fill-opacity="0"/>
        </clipPath>
    </defs>
    <g opacity="0.600000">
        <g clip-path="url(#clip27_4746)">
            <rect id="ic_public_message_point-消息/base/ic_public_message_point" width="20.000000" height="20.000000"
                  fill="#FFFFFF" fill-opacity="0"/>
            <path id="path1"
                  d="M0 9.99C0 8.42 -0.01 6.86 0 5.3C-0.01 4.54 0.09 3.79 0.27 3.06C0.68 1.51 1.69 0.59 3.24 0.23C4.02 0.06 4.81 -0.02 5.6 0C8.6 0 11.6 0 14.6 0C15.35 -0.01 16.1 0.07 16.84 0.25C18.44 0.64 19.4 1.65 19.76 3.25C19.92 4 20 4.76 19.99 5.53C19.99 8.56 19.99 11.59 19.99 14.62C20 15.37 19.91 16.12 19.74 16.85C19.35 18.44 18.33 19.39 16.74 19.76C15.96 19.92 15.17 20 14.37 19.99C11.39 19.99 8.41 19.99 5.42 19.99C4.66 20 3.9 19.91 3.16 19.74C1.56 19.35 0.6 18.33 0.23 16.73C0.05 15.92 0 15.11 0 14.29C0 12.85 0 11.42 0 9.99Z"
                  fill="#FFFFFF" fill-opacity="0" fill-rule="evenodd"/>
            <circle id="path2" cx="10.000000" cy="10.000000" r="10.000000" fill="#FFFFFF" fill-opacity="0"/>
            <path id="path3"
                  d="M10 2.5C4.93 2.5 0.83 5.55 0.83 9.31C0.83 11.16 1.82 12.84 3.44 14.07C3.44 14.07 3.92 15.44 2.57 16.97C1.2 18.5 5.75 17.11 7.51 15.88C8.29 16.04 9.14 16.12 10 16.12C15.06 16.12 19.16 13.07 19.16 9.31C19.16 5.55 15.06 2.5 10 2.5Z"
                  fill="#FFFFFF" fill-opacity="0" fill-rule="evenodd"/>
            <path id="path3"
                  d="M0.83 9.31C0.83 11.16 1.82 12.84 3.44 14.07C3.44 14.07 3.92 15.44 2.57 16.97C1.2 18.5 5.75 17.11 7.51 15.88C8.29 16.04 9.14 16.12 10 16.12C15.06 16.12 19.16 13.07 19.16 9.31C19.16 5.55 15.06 2.5 10 2.5C4.93 2.5 0.83 5.55 0.83 9.31Z"
                  fill="#000000" fill-opacity="0" fill-rule="nonzero"/>
            <path id="path3"
                  d="M3.44 14.07C3.44 14.07 3.92 15.44 2.57 16.97C1.2 18.5 5.75 17.11 7.51 15.88C8.29 16.04 9.14 16.12 10 16.12C15.06 16.12 19.16 13.07 19.16 9.31C19.16 5.55 15.06 2.5 10 2.5C4.93 2.5 0.83 5.55 0.83 9.31C0.83 11.16 1.82 12.84 3.44 14.07Z"
                  stroke="#747c83" stroke-opacity="1.000000" stroke-width="1.000000" stroke-linejoin="round"/>
            <path id="path4"
                  d="M5 9.75C5 9.19 5.44 8.75 5.99 8.75C6.55 8.75 6.99 9.19 6.99 9.75C6.99 10.3 6.55 10.75 5.99 10.75C5.44 10.75 5 10.3 5 9.75ZM9 9.75C9 9.19 9.44 8.75 10 8.75C10.55 8.75 10.99 9.19 10.99 9.75C10.99 10.3 10.55 10.75 10 10.75C9.44 10.75 9 10.3 9 9.75ZM14 8.75C13.44 8.75 13 9.19 13 9.75C13 10.3 13.44 10.75 14 10.75C14.55 10.75 15 10.3 15 9.75C15 9.19 14.55 8.75 14 8.75Z"
                  fill="#747c83" fill-opacity="1.000000" fill-rule="evenodd"/>
        </g>
    </g>
</svg>
