<svg width="24.000000" height="24.000000" viewBox="0 0 24 24" fill="none" xmlns="http://www.w3.org/2000/svg"
>
    <desc>
        Created with Pixso.
    </desc>
    <defs>
        <clipPath id="clip28_5803">
            <rect id="就诊人管理" width="24.000000" height="24.000000" fill="white" fill-opacity="0"/>
        </clipPath>
    </defs>
    <g clip-path="url(#clip28_5803)">
        <path id="path1"
              d="M0 11.99C0 10.11 -0.01 8.23 0 6.36C-0.01 5.45 0.11 4.55 0.33 3.67C0.82 1.81 2.03 0.7 3.89 0.28C4.82 0.08 5.78 -0.02 6.72 0C10.32 0 13.91 0 17.52 0C18.42 -0.01 19.33 0.09 20.21 0.31C22.13 0.77 23.28 1.98 23.71 3.9C23.91 4.8 24 5.71 23.99 6.64C23.99 10.28 23.99 13.91 23.99 17.54C24 18.44 23.89 19.34 23.68 20.21C23.22 22.13 22 23.27 20.09 23.71C19.15 23.91 18.2 24.01 17.25 23.99C13.67 23.99 10.09 23.99 6.51 23.99C5.6 24 4.68 23.9 3.8 23.69C1.87 23.22 0.71 22 0.28 20.08C0.06 19.11 0 18.13 0 17.15C0 15.43 0 13.71 0 11.99Z"
              fill="#FFFFFF" fill-opacity="0" fill-rule="evenodd"/>
        <circle id="path2" cx="12.000000" cy="12.000000" r="12.000000" fill="#FFFFFF" fill-opacity="0"/>
        <path id="path11"
              d="M4.75 1.75L19.25 1.75C20.9 1.75 22.25 3.09 22.25 4.75L22.25 19.25C22.25 20.9 20.9 22.25 19.25 22.25L4.75 22.25C3.09 22.25 1.75 20.9 1.75 19.25L1.75 4.75C1.75 3.09 3.09 1.75 4.75 1.75Z"
              fill="#FFFFFF" fill-opacity="0" fill-rule="evenodd"/>
        <path id="path11"
              d="M19.25 1.75C20.9 1.75 22.25 3.09 22.25 4.75L22.25 19.25C22.25 20.9 20.9 22.25 19.25 22.25L4.75 22.25C3.09 22.25 1.75 20.9 1.75 19.25L1.75 4.75C1.75 3.09 3.09 1.75 4.75 1.75L19.25 1.75Z"
              fill="#747c83" fill-opacity="0" fill-rule="nonzero"/>
        <path id="path11"
              d="M22.25 4.75L22.25 19.25C22.25 20.9 20.9 22.25 19.25 22.25L4.75 22.25C3.09 22.25 1.75 20.9 1.75 19.25L1.75 4.75C1.75 3.09 3.09 1.75 4.75 1.75L19.25 1.75C20.9 1.75 22.25 3.09 22.25 4.75Z"
              stroke="#747c83" stroke-opacity="1.000000" stroke-width="1.500000"/>
        <path id="path4"
              d="M9.33 6.37C9.63 6.07 10.1 6.06 10.39 6.35C10.69 6.65 10.69 7.12 10.39 7.41L9.33 6.37ZM5.01 8.17C4.7 7.87 4.69 7.41 4.99 7.11C5.29 6.81 5.75 6.81 6.05 7.11L5.01 8.17Z"
              fill="#FFFFFF" fill-opacity="0" fill-rule="nonzero"/>
        <path id="path4"
              d="M9.33 6.38L9.33 6.35C9.63 6.05 10.09 6.05 10.39 6.35C10.69 6.65 10.69 7.11 10.39 7.41L10.36 7.41L9.33 6.38ZM5.02 8.17L4.99 8.17C4.69 7.87 4.69 7.41 4.99 7.11C5.29 6.81 5.75 6.81 6.05 7.11L6.05 7.14L5.02 8.17Z"
              fill="#000000" fill-opacity="0" fill-rule="nonzero"/>
        <path id="path4" d="M9.86 6.88L7.31 9.43L5.52 7.64" stroke="#747c83" stroke-opacity="1.000000"
              stroke-width="1.500000" stroke-linejoin="round" stroke-linecap="round"/>
        <circle id="path5" cx="7.250000" cy="15.750000" r="0.750000" fill="#747c83" fill-opacity="1.000000"/>
        <circle id="path5" cx="7.250000" cy="15.750000" r="0.750000" fill="#000000" fill-opacity="0"/>
        <circle id="path5" cx="7.250000" cy="15.750000" r="0.750000" stroke="#747c83" stroke-opacity="1.000000"
                stroke-width="1.500000" stroke-linejoin="round"/>
        <path id="path6"
              d="M12.51 8.73C12.09 8.73 11.75 8.41 11.75 8C11.75 7.58 12.08 7.25 12.5 7.25L12.51 8.73ZM18.49 7.26C18.9 7.26 19.25 7.58 19.25 8C19.25 8.41 18.91 8.75 18.5 8.75L18.49 7.26ZM12.01 16.49C11.59 16.49 11.25 16.16 11.25 15.75C11.25 15.33 11.58 15 12 15L12.01 16.49ZM18.49 15.01C18.9 15.01 19.25 15.33 19.25 15.75C19.25 16.16 18.91 16.5 18.5 16.5L18.49 15.01Z"
              fill="#FFFFFF" fill-opacity="0" fill-rule="nonzero"/>
        <path id="path6"
              d="M12.52 8.72L12.5 8.75C12.08 8.75 11.75 8.41 11.75 8C11.75 7.58 12.08 7.25 12.5 7.25L12.52 7.27L12.52 8.72ZM18.48 7.27L18.5 7.25C18.91 7.25 19.25 7.58 19.25 8C19.25 8.41 18.91 8.75 18.5 8.75L18.48 8.72L18.48 7.27ZM12.02 16.48L12 16.5C11.58 16.5 11.25 16.16 11.25 15.75C11.25 15.33 11.58 15 12 15L12.02 15.02L12.02 16.48ZM18.48 15.02L18.5 15C18.91 15 19.25 15.33 19.25 15.75C19.25 16.16 18.91 16.5 18.5 16.5L18.48 16.48L18.48 15.02Z"
              fill="#000000" fill-opacity="0" fill-rule="nonzero"/>
        <path id="path6" d="M12.5 8L18.5 8M12 15.75L18.5 15.75" stroke="#747c83" stroke-opacity="1.000000"
              stroke-width="1.500000" stroke-linejoin="round" stroke-linecap="round"/>
    </g>
</svg>
