<svg width="24.000000" height="24.000000" viewBox="0 0 24 24" fill="none" xmlns="http://www.w3.org/2000/svg"
>
    <desc>
        Created with Pixso.
    </desc>
    <defs>
        <clipPath id="clip28_5805">
            <rect id="报告查询" width="24.000000" height="24.000000" fill="white" fill-opacity="0"/>
        </clipPath>
    </defs>
    <g clip-path="url(#clip28_5805)">
        <path id="path1"
              d="M0.75 11.99C0.75 10.23 0.74 8.47 0.75 6.71C0.74 5.86 0.85 5.02 1.06 4.19C1.52 2.45 2.66 1.41 4.4 1.01C5.27 0.82 6.16 0.73 7.06 0.75C10.43 0.75 13.8 0.75 17.17 0.75C18.02 0.74 18.87 0.84 19.7 1.04C21.49 1.48 22.57 2.61 22.98 4.4C23.17 5.25 23.25 6.11 23.24 6.98C23.24 10.38 23.24 13.79 23.24 17.2C23.25 18.04 23.15 18.88 22.96 19.7C22.52 21.5 21.37 22.57 19.58 22.98C18.71 23.17 17.82 23.26 16.92 23.24C13.57 23.24 10.21 23.24 6.86 23.24C6 23.25 5.14 23.15 4.31 22.96C2.5 22.52 1.42 21.38 1.01 19.58C0.8 18.66 0.75 17.75 0.75 16.82C0.75 15.21 0.75 13.6 0.75 11.99Z"
              fill="#FFFFFF" fill-opacity="0" fill-rule="nonzero"/>
        <path id="path1"
              d="M0.75 6.71C0.74 5.86 0.85 5.02 1.06 4.19C1.52 2.45 2.66 1.41 4.4 1.01C5.27 0.82 6.16 0.73 7.06 0.75C10.43 0.75 13.8 0.75 17.17 0.75C18.02 0.74 18.87 0.84 19.7 1.04C21.49 1.48 22.57 2.61 22.98 4.4C23.17 5.25 23.25 6.11 23.24 6.98C23.24 10.38 23.24 13.79 23.24 17.2C23.25 18.04 23.15 18.88 22.96 19.7C22.52 21.5 21.37 22.57 19.58 22.98C18.71 23.17 17.82 23.26 16.92 23.24C13.57 23.24 10.21 23.24 6.86 23.24C6 23.25 5.14 23.15 4.31 22.96C2.5 22.52 1.42 21.38 1.01 19.58C0.8 18.66 0.75 17.75 0.75 16.82C0.75 15.21 0.75 13.6 0.75 11.99C0.75 10.23 0.74 8.47 0.75 6.71Z"
              stroke="#FFFFFF" stroke-opacity="0" stroke-width="1.500000"/>
        <g opacity="0.200000">
            <path id="path2"
                  d="M0.75 11.99C0.75 10.23 0.74 8.47 0.75 6.71C0.74 5.86 0.85 5.02 1.06 4.19C1.52 2.45 2.66 1.41 4.4 1.01C5.27 0.82 6.16 0.73 7.06 0.75C10.43 0.75 13.8 0.75 17.17 0.75C18.02 0.74 18.87 0.84 19.7 1.04C21.49 1.48 22.57 2.61 22.98 4.4C23.17 5.25 23.25 6.11 23.24 6.98C23.24 10.38 23.24 13.79 23.24 17.2C23.25 18.04 23.15 18.88 22.96 19.7C22.52 21.5 21.37 22.57 19.58 22.98C18.71 23.17 17.82 23.26 16.92 23.24C13.57 23.24 10.21 23.24 6.86 23.24C6 23.25 5.14 23.15 4.31 22.96C2.5 22.52 1.42 21.38 1.01 19.58C0.8 18.66 0.75 17.75 0.75 16.82C0.75 15.21 0.75 13.6 0.75 11.99Z"
                  fill="#000000" fill-opacity="0" fill-rule="nonzero"/>
            <path id="path2"
                  d="M0.75 6.71C0.74 5.86 0.85 5.02 1.06 4.19C1.52 2.45 2.66 1.41 4.4 1.01C5.27 0.82 6.16 0.73 7.06 0.75C10.43 0.75 13.8 0.75 17.17 0.75C18.02 0.74 18.87 0.84 19.7 1.04C21.49 1.48 22.57 2.61 22.98 4.4C23.17 5.25 23.25 6.11 23.24 6.98C23.24 10.38 23.24 13.79 23.24 17.2C23.25 18.04 23.15 18.88 22.96 19.7C22.52 21.5 21.37 22.57 19.58 22.98C18.71 23.17 17.82 23.26 16.92 23.24C13.57 23.24 10.21 23.24 6.86 23.24C6 23.25 5.14 23.15 4.31 22.96C2.5 22.52 1.42 21.38 1.01 19.58C0.8 18.66 0.75 17.75 0.75 16.82C0.75 15.21 0.75 13.6 0.75 11.99C0.75 10.23 0.74 8.47 0.75 6.71Z"
                  stroke="#FFFFFF" stroke-opacity="0" stroke-width="1.500000"/>
        </g>
        <circle id="path3" cx="12.000000" cy="12.000000" r="12.000000" fill="#FFFFFF" fill-opacity="0"/>
        <circle id="path3" cx="12.000000" cy="12.000000" r="12.000000" stroke="#000000" stroke-opacity="0"
                stroke-width="1.500000"/>
        <path id="path4"
              d="M20.27 8.02L20.25 8C20.25 7.58 20.58 7.25 21 7.25C21.41 7.25 21.75 7.58 21.75 8L21.73 8.02L20.27 8.02ZM7.51 6.72L7.49 6.75C7.07 6.75 6.74 6.41 6.74 6C6.74 5.58 7.07 5.25 7.49 5.25L7.51 5.27L7.51 6.72Z"
              fill="#000000" fill-opacity="0" fill-rule="nonzero"/>
        <path id="path4"
              d="M21 8L21 20.5C21 22.15 19.65 23.5 18 23.5L6 23.5C4.34 23.5 3 22.15 3 20.5L3 3.5C3 1.84 4.34 0.5 6 0.5L18 0.5C19.65 0.5 21 1.84 21 3.5L21 6L17 6L15.42 3.5L13.12 8.5L11.5 6L7.49 6"
              stroke="#747c83" stroke-opacity="1.000000" stroke-width="1.500000" stroke-linejoin="round"
              stroke-linecap="round"/>
        <mask id="mask28_5836" mask-type="alpha" maskUnits="userSpaceOnUse" x="0.000000" y="0.000000" width="24.000000"
              height="24.000000">
            <path id="path-1"
                  d="M24 0L24 24L0 24L0 0L24 0ZM15.81 3.22C15.59 2.89 15.1 2.93 14.93 3.29L13.06 7.45L11.94 5.72C11.84 5.58 11.69 5.5 11.52 5.5L7.99 5.5C7.72 5.5 7.49 5.72 7.49 6L7.5 6.05C7.53 6.3 7.74 6.5 7.99 6.5L11.25 6.5L12.72 8.77L12.76 8.82C12.99 9.09 13.44 9.04 13.6 8.7L15.47 4.54L16.6 6.27C16.69 6.41 16.85 6.5 17.02 6.5L21.5 6.5L21.5 5.5L17.29 5.5L15.81 3.22Z"
                  fill="#FFFFFF" fill-opacity="1.000000" fill-rule="nonzero"/>
        </mask>
        <g mask="url(#mask28_5836)">
            <path id="path6"
                  d="M3 20.5L3 3.5C3 1.84 4.34 0.5 6 0.5L18 0.5C19.65 0.5 21 1.84 21 3.5L21 20.5C21 22.15 19.65 23.5 18 23.5L6 23.5C4.34 23.5 3 22.15 3 20.5Z"
                  fill="#FFFFFF" fill-opacity="0" fill-rule="evenodd"/>
            <path id="path6"
                  d="M3 3.5C3 1.84 4.34 0.5 6 0.5L18 0.5C19.65 0.5 21 1.84 21 3.5L21 20.5C21 22.15 19.65 23.5 18 23.5L6 23.5C4.34 23.5 3 22.15 3 20.5L3 3.5Z"
                  stroke="#FFFFFF" stroke-opacity="0" stroke-width="1.500000" stroke-linejoin="round"/>
        </g>
        <path id="path7"
              d="M11.02 19.98L11 20C10.58 20 10.25 19.66 10.25 19.25C10.25 18.83 10.58 18.5 11 18.5L11.02 18.52L11.02 19.98ZM17.98 18.52L18 18.5C18.41 18.5 18.75 18.83 18.75 19.25C18.75 19.66 18.41 20 18 20L17.98 19.98L17.98 18.52ZM12.02 14.98L12 15C11.58 15 11.25 14.66 11.25 14.25C11.25 13.83 11.58 13.5 12 13.5L12.02 13.52L12.02 14.98ZM17.98 13.52L18 13.5C18.41 13.5 18.75 13.83 18.75 14.25C18.75 14.66 18.41 15 18 15L17.98 14.98L17.98 13.52Z"
              fill="#000000" fill-opacity="0" fill-rule="nonzero"/>
        <path id="path7" d="M11 19.25L18 19.25M12 14.25L18 14.25" stroke="#747c83" stroke-opacity="1.000000"
              stroke-width="1.500000" stroke-linejoin="round" stroke-linecap="round"/>
    </g>
</svg>
