<svg width="32.000000" height="32.000000" viewBox="0 0 32 32" fill="none" xmlns="http://www.w3.org/2000/svg" xmlns:xlink="http://www.w3.org/1999/xlink">
	<desc>
			Created with Pixso.
	</desc>
	<defs/>
	<path d="M16 28C9.37 28 4 22.62 4 16C4 9.37 9.37 4 16 4C22.62 4 28 9.37 28 16C28 22.62 22.62 28 16 28ZM14.52 15.2L14.52 21.1C14.52 21.19 14.53 21.28 14.54 21.37C14.56 21.45 14.59 21.54 14.62 21.62C14.66 21.7 14.7 21.78 14.75 21.86C14.8 21.93 14.85 22 14.91 22.06C14.98 22.12 15.05 22.18 15.12 22.23C15.19 22.28 15.27 22.32 15.35 22.35C15.44 22.39 15.52 22.41 15.61 22.43C15.69 22.45 15.78 22.46 15.87 22.46C15.96 22.46 16.05 22.45 16.14 22.43C16.22 22.41 16.31 22.39 16.39 22.35C16.47 22.32 16.55 22.28 16.62 22.23C16.7 22.18 16.77 22.12 16.83 22.06C16.89 22 16.95 21.93 17 21.86C17.05 21.78 17.09 21.7 17.12 21.62C17.16 21.54 17.18 21.45 17.2 21.37C17.22 21.28 17.23 21.19 17.23 21.1L17.23 15.2C17.23 15.11 17.22 15.02 17.2 14.93C17.18 14.84 17.16 14.76 17.12 14.68C17.09 14.59 17.05 14.52 17 14.44C16.95 14.37 16.89 14.3 16.83 14.24C16.77 14.18 16.7 14.12 16.62 14.07C16.55 14.02 16.47 13.98 16.39 13.94C16.31 13.91 16.22 13.88 16.14 13.87C16.05 13.85 15.96 13.84 15.87 13.84C15.78 13.84 15.69 13.85 15.61 13.87C15.52 13.88 15.44 13.91 15.35 13.94C15.27 13.98 15.19 14.02 15.12 14.07C15.05 14.12 14.98 14.18 14.91 14.24C14.85 14.3 14.8 14.37 14.75 14.44C14.7 14.52 14.66 14.59 14.62 14.68C14.59 14.76 14.56 14.84 14.54 14.93C14.53 15.02 14.52 15.11 14.52 15.2ZM15.86 9.53C15.49 9.53 15.18 9.65 14.92 9.91C14.65 10.16 14.52 10.48 14.52 10.88C14.52 11.26 14.65 11.58 14.92 11.84C15.18 12.11 15.49 12.24 15.86 12.24C16.04 12.24 16.22 12.21 16.39 12.14C16.56 12.08 16.71 11.98 16.84 11.86C17.1 11.6 17.23 11.28 17.23 10.88C17.23 10.48 17.1 10.16 16.84 9.91C16.58 9.65 16.25 9.53 15.86 9.53Z" fill="#000000" fill-opacity="1.000000" fill-rule="nonzero"/>
</svg>
