<svg width="44.000000" height="44.000000" viewBox="0 0 44 44" fill="none" xmlns="http://www.w3.org/2000/svg" xmlns:xlink="http://www.w3.org/1999/xlink">
	<desc>
			Created with Pixso.
	</desc>
	<defs/>
	<path id="path" d="M9.31 38C8.66 38 8.13 37.47 8.13 36.81C8.13 34.24 11.16 32.38 16.5 31.64L16.5 31.28C12.88 28.5 12.88 23.36 12.88 20.23C12.88 15.06 15.92 11.98 21.02 11.98L21.29 11.98C26.38 11.98 29.42 15.06 29.42 20.23C29.42 20.61 29.42 21 29.41 21.39C29.39 22.05 28.86 22.56 28.19 22.54C27.54 22.52 27.02 21.98 27.04 21.33C27.06 20.96 27.06 20.59 27.06 20.23C27.06 16.33 25.11 14.34 21.29 14.34L21.02 14.34C17.19 14.34 15.25 16.33 15.25 20.23C15.25 24.01 15.49 27.86 18.32 29.67C18.67 29.89 18.87 30.26 18.87 30.67L18.87 32.69C18.87 33.29 18.41 33.8 17.81 33.86C13.06 34.37 10.5 35.76 10.5 36.81C10.5 37.46 9.96 38 9.31 38Z" fill="#000000" fill-opacity="1.000000" fill-rule="nonzero"/>
	<path id="path" d="M33.11 38C32.45 38 31.92 37.47 31.92 36.81C31.92 35.75 29.36 34.37 24.61 33.86C24 33.8 23.54 33.29 23.54 32.69L23.54 30.66C23.54 30.01 24.07 29.48 24.73 29.48C25.38 29.48 25.91 30.01 25.91 30.66L25.91 31.64C31.25 32.38 34.29 34.24 34.29 36.81C34.29 37.46 33.76 38 33.11 38Z" fill="#000000" fill-opacity="1.000000" fill-rule="nonzero"/>
	<path id="path" d="M24.91 27.37C23.28 27.37 22.07 27.21 22.03 27.2C21.45 27.02 21.1 26.43 21.23 25.83C21.35 25.23 21.91 24.83 22.52 24.89C25.47 25.22 29.98 24.94 30.77 23.29C31.05 22.71 31.75 22.45 32.34 22.74C32.94 23.02 33.18 23.73 32.9 24.32C31.66 26.89 27.69 27.37 24.91 27.37Z" fill="#000000" fill-opacity="1.000000" fill-rule="nonzero"/>
	<path id="path" d="M35.41 26.13C34.76 26.13 34.23 25.6 34.23 24.95L34.23 20.81L32.64 20.25C32.17 20.08 31.85 19.63 31.85 19.13C31.85 13.19 27.07 8.36 21.2 8.36C15.33 8.36 10.55 13.19 10.55 19.13C10.55 19.51 10.36 19.87 10.05 20.09L9.36 20.58L9.36 24.95C9.36 25.6 8.83 26.13 8.18 26.13C7.52 26.13 7 25.6 7 24.95L7 19.98C7 19.6 7.18 19.24 7.49 19.02L8.19 18.51C8.52 11.56 14.22 6 21.2 6C28.1 6 33.76 11.44 34.2 18.29L35.81 18.86C36.28 19.03 36.6 19.48 36.6 19.98L36.6 24.95C36.6 25.6 36.07 26.13 35.41 26.13Z" fill="#000000" fill-opacity="1.000000" fill-rule="nonzero"/>
</svg>
