<svg width="32.000000" height="32.000000" viewBox="0 0 32 32" fill="none" xmlns="http://www.w3.org/2000/svg" xmlns:xlink="http://www.w3.org/1999/xlink">
	<desc>
			Created with Pixso.
	</desc>
	<defs/>
	<path d="M19.95 7.14L12.7 7.14C12.68 7.14 12.66 7.12 12.66 7.1L12.66 4.03C12.66 4.01 12.68 4 12.7 4L19.95 4C19.97 4 19.99 4.01 19.99 4.03L19.99 7.1C19.99 7.12 19.97 7.14 19.95 7.14Z" fill="#000000" fill-opacity="1.000000" fill-rule="nonzero"/>
	<path d="M23.79 6.02L20.94 6.02C20.89 7.05 20.04 7.88 19 7.88L13.65 7.88C12.61 7.88 11.76 7.05 11.71 6.02L8.86 6.02C7.28 6.02 6 7.31 6 8.88L6 25.13C6 26.71 7.28 28 8.86 28L23.79 28C25.36 28 26.65 26.71 26.65 25.13L26.65 8.88C26.65 7.31 25.36 6.02 23.79 6.02ZM21.7 22.07L10.95 22.07C10.55 22.07 10.23 21.75 10.23 21.36C10.23 20.96 10.55 20.64 10.95 20.64L21.7 20.64C22.1 20.64 22.42 20.96 22.42 21.36C22.42 21.75 22.1 22.07 21.7 22.07ZM21.7 17.7L10.95 17.7C10.55 17.7 10.23 17.38 10.23 16.99C10.23 16.59 10.55 16.27 10.95 16.27L21.7 16.27C22.1 16.27 22.42 16.59 22.42 16.99C22.42 17.38 22.1 17.7 21.7 17.7ZM21.7 13.33L10.95 13.33C10.55 13.33 10.23 13.01 10.23 12.62C10.23 12.22 10.55 11.9 10.95 11.9L21.7 11.9C22.1 11.9 22.42 12.22 22.42 12.62C22.42 13.01 22.1 13.33 21.7 13.33Z" fill="#000000" fill-opacity="1.000000" fill-rule="nonzero"/>
</svg>
