<svg width="32.000000" height="32.000000" viewBox="0 0 32 32" fill="none" xmlns="http://www.w3.org/2000/svg" xmlns:xlink="http://www.w3.org/1999/xlink">
	<desc>
			Created with Pixso.
	</desc>
	<defs/>
	<path d="M24.29 13.21L22.45 13.21L22.45 9.92C22.45 6.37 19.53 4 15.95 4C12.36 4 9.44 6.4 9.44 9.95L9.44 13.21L7.6 13.21C6.71 13.21 6 13.92 6 14.8L6 26.4C6 27.28 6.71 28 7.6 28L24.29 28C25.18 28 25.9 27.28 25.9 26.4L25.9 14.8C25.9 13.92 25.18 13.21 24.29 13.21ZM16.85 20.9L16.85 23.44C16.85 23.55 16.75 23.65 16.64 23.65L15.26 23.65C15.14 23.65 15.04 23.55 15.04 23.44L15.04 20.9C14.4 20.57 13.95 19.92 13.95 19.14C13.95 18.05 14.84 17.16 15.95 17.16C17.05 17.16 17.95 18.05 17.95 19.14C17.95 19.92 17.5 20.57 16.85 20.9ZM19.95 13.25L11.94 13.25L11.94 9.71C11.94 7.84 13.74 6.31 15.95 6.31C18.16 6.31 19.95 7.84 19.95 9.71L19.95 13.25Z" fill="#000000" fill-opacity="1.000000" fill-rule="nonzero"/>
</svg>
