<svg width="32.000000" height="32.000000" viewBox="0 0 32 32" fill="none" xmlns="http://www.w3.org/2000/svg" xmlns:xlink="http://www.w3.org/1999/xlink">
	<desc>
			Created with Pixso.
	</desc>
	<defs/>
	<path d="M12.88 28C11.51 27.61 10.24 27 9.08 26.16L9.13 23.69C9.13 23.56 9.12 23.43 9.1 23.3C9.08 23.18 9.05 23.05 9.01 22.93C8.97 22.81 8.92 22.69 8.86 22.58C8.8 22.46 8.73 22.36 8.65 22.26C8.56 22.15 8.48 22.06 8.38 21.98C8.28 21.89 8.18 21.81 8.07 21.75C7.96 21.68 7.85 21.62 7.73 21.57C7.61 21.53 7.48 21.49 7.36 21.46L4.93 20.96C4.38 19.65 4.07 18.27 4 16.84L5.96 15.34C6.06 15.27 6.16 15.18 6.24 15.08C6.33 14.99 6.41 14.89 6.48 14.78C6.55 14.67 6.61 14.56 6.66 14.44C6.71 14.32 6.75 14.2 6.78 14.07C6.81 13.95 6.82 13.82 6.83 13.69C6.84 13.56 6.83 13.43 6.82 13.3C6.8 13.18 6.77 13.05 6.74 12.93C6.7 12.8 6.65 12.69 6.59 12.57L5.47 10.36C6.16 9.11 7.04 8.01 8.11 7.06L10.51 7.66C10.63 7.69 10.76 7.71 10.89 7.72C11.02 7.73 11.14 7.73 11.27 7.72C11.4 7.7 11.53 7.68 11.65 7.64C11.77 7.61 11.9 7.56 12.01 7.51C12.13 7.45 12.24 7.39 12.34 7.31C12.45 7.24 12.54 7.15 12.63 7.06C12.73 6.97 12.81 6.87 12.88 6.76C12.95 6.66 13.02 6.55 13.07 6.43L14.1 4.18C14.8 4.06 15.5 3.99 16.21 4C16.93 4 17.63 4.06 18.32 4.18L19.35 6.43C19.4 6.55 19.46 6.66 19.54 6.76C19.61 6.87 19.69 6.97 19.78 7.06C19.87 7.15 19.97 7.24 20.07 7.31C20.18 7.39 20.29 7.45 20.41 7.51C20.52 7.56 20.64 7.61 20.77 7.64C20.89 7.68 21.02 7.7 21.14 7.72C21.27 7.73 21.4 7.73 21.53 7.72C21.66 7.71 21.79 7.69 21.91 7.66L24.31 7.06C25.38 8.01 26.26 9.11 26.94 10.36L25.82 12.57C25.77 12.69 25.72 12.8 25.68 12.93C25.64 13.05 25.62 13.18 25.6 13.3C25.58 13.43 25.58 13.56 25.59 13.69C25.59 13.82 25.61 13.95 25.64 14.07C25.67 14.2 25.71 14.32 25.76 14.44C25.81 14.56 25.87 14.67 25.94 14.78C26.01 14.89 26.08 14.99 26.17 15.08C26.26 15.18 26.35 15.27 26.46 15.34L28.42 16.84C28.35 18.27 28.04 19.65 27.48 20.96L25.06 21.46C24.93 21.49 24.81 21.53 24.69 21.57C24.57 21.62 24.46 21.68 24.35 21.75C24.24 21.81 24.13 21.89 24.04 21.98C23.94 22.06 23.85 22.15 23.77 22.25C23.69 22.36 23.62 22.46 23.56 22.58C23.5 22.69 23.45 22.81 23.4 22.93C23.36 23.05 23.33 23.18 23.31 23.3C23.29 23.43 23.28 23.56 23.29 23.69L23.34 26.16C22.18 26.99 20.91 27.61 19.53 27.99L17.63 26.41C17.53 26.33 17.43 26.26 17.31 26.19C17.2 26.13 17.09 26.07 16.96 26.03C16.84 25.99 16.72 25.95 16.59 25.93C16.46 25.91 16.34 25.9 16.21 25.9C16.08 25.9 15.95 25.91 15.82 25.93C15.7 25.95 15.57 25.99 15.45 26.03C15.33 26.07 15.21 26.13 15.1 26.19C14.99 26.26 14.89 26.33 14.79 26.41L12.88 28ZM16.21 21.23C16.37 21.23 16.54 21.22 16.7 21.2C16.86 21.19 17.02 21.16 17.18 21.13C17.34 21.1 17.5 21.06 17.66 21.01C17.82 20.96 17.97 20.91 18.12 20.85C18.27 20.78 18.42 20.71 18.57 20.64C18.71 20.56 18.85 20.47 18.99 20.38C19.12 20.29 19.26 20.19 19.38 20.09C19.51 19.99 19.63 19.88 19.75 19.76C19.86 19.65 19.97 19.52 20.08 19.4C20.18 19.27 20.28 19.14 20.37 19C20.46 18.87 20.54 18.73 20.62 18.58C20.7 18.44 20.77 18.29 20.83 18.14C20.89 17.99 20.95 17.83 21 17.68C21.04 17.52 21.08 17.36 21.11 17.2C21.15 17.04 21.17 16.88 21.19 16.71C21.2 16.55 21.21 16.39 21.21 16.22C21.21 16.06 21.2 15.9 21.19 15.73C21.17 15.57 21.15 15.41 21.11 15.25C21.08 15.09 21.04 14.93 21 14.77C20.95 14.61 20.89 14.46 20.83 14.31C20.77 14.16 20.7 14.01 20.62 13.87C20.54 13.72 20.46 13.58 20.37 13.44C20.28 13.31 20.18 13.18 20.08 13.05C19.97 12.92 19.86 12.8 19.75 12.69C19.63 12.57 19.51 12.46 19.38 12.36C19.26 12.25 19.12 12.16 18.99 12.06C18.85 11.97 18.71 11.89 18.57 11.81C18.42 11.73 18.27 11.66 18.12 11.6C17.97 11.54 17.82 11.48 17.66 11.44C17.5 11.39 17.34 11.35 17.18 11.32C17.02 11.29 16.86 11.26 16.7 11.25C16.54 11.23 16.37 11.22 16.21 11.22C16.04 11.22 15.88 11.23 15.72 11.25C15.55 11.26 15.39 11.29 15.23 11.32C15.07 11.35 14.91 11.39 14.76 11.44C14.6 11.48 14.45 11.54 14.29 11.6C14.14 11.66 13.99 11.73 13.85 11.81C13.71 11.89 13.57 11.97 13.43 12.06C13.29 12.16 13.16 12.25 13.03 12.36C12.91 12.46 12.79 12.57 12.67 12.69C12.55 12.8 12.45 12.92 12.34 13.05C12.24 13.18 12.14 13.31 12.05 13.44C11.96 13.58 11.87 13.72 11.8 13.87C11.72 14.01 11.65 14.16 11.59 14.31C11.52 14.46 11.47 14.61 11.42 14.77C11.37 14.93 11.33 15.09 11.3 15.25C11.27 15.41 11.25 15.57 11.23 15.73C11.21 15.9 11.21 16.06 11.21 16.22C11.21 16.39 11.21 16.55 11.23 16.71C11.25 16.88 11.27 17.04 11.3 17.2C11.33 17.36 11.37 17.52 11.42 17.68C11.47 17.83 11.52 17.99 11.59 18.14C11.65 18.29 11.72 18.44 11.8 18.58C11.87 18.73 11.96 18.87 12.05 19C12.14 19.14 12.24 19.27 12.34 19.4C12.45 19.52 12.55 19.65 12.67 19.76C12.79 19.88 12.91 19.99 13.03 20.09C13.16 20.19 13.29 20.29 13.43 20.38C13.57 20.47 13.71 20.56 13.85 20.64C13.99 20.71 14.14 20.78 14.29 20.85C14.45 20.91 14.6 20.96 14.76 21.01C14.91 21.06 15.07 21.1 15.23 21.13C15.39 21.16 15.55 21.19 15.72 21.2C15.88 21.22 16.04 21.23 16.21 21.23Z" fill="#000000" fill-opacity="1.000000" fill-rule="nonzero"/>
</svg>
