<svg width="32.000000" height="32.000000" viewBox="0 0 32 32" fill="none" xmlns="http://www.w3.org/2000/svg" xmlns:xlink="http://www.w3.org/1999/xlink">
	<desc>
			Created with Pixso.
	</desc>
	<defs/>
	<path d="M17.07 15.72L17.07 10.59C16.88 10.56 16.7 10.26 16.51 10.26L16.39 10.26C16.16 10.26 15.95 10.57 15.73 10.6L15.73 15.72L5 15.72L5 11.63C5 10.87 5.6 10.26 6.34 10.26L8.8 10.26C7.98 9.86 7.54 9.32 7.32 8.79C6.66 7.25 7.65 5.39 8.92 4.43C9.48 4 10.21 3.89 11.08 4.1C12.94 4.54 15.26 6.42 16.45 7.9C17.63 6.42 19.96 4.54 21.81 4.1C22.69 3.89 23.42 4 23.98 4.43C25.25 5.39 26.24 7.25 25.58 8.79C25.36 9.33 24.91 9.86 24.1 10.26L26.46 10.26C27.2 10.26 27.8 10.87 27.8 11.63L27.8 15.72L17.07 15.72ZM10.78 5.42C10.6 5.38 10.43 5.36 10.28 5.36C10.05 5.36 9.86 5.41 9.72 5.52C8.88 6.16 8.18 7.39 8.55 8.25C8.75 8.73 9.87 10.18 15.74 9.22C15.03 8.08 12.58 5.85 10.78 5.42ZM24.35 8.25C24.71 7.39 24.02 6.16 23.18 5.52C22.95 5.35 22.59 5.31 22.12 5.42C20.31 5.85 17.85 8.1 17.15 9.24C23.03 10.2 24.15 8.73 24.35 8.25ZM15.73 28L7.68 28C6.94 28 6.34 27.38 6.34 26.63L6.34 17.08L15.73 17.08L15.73 28ZM26.46 26.63C26.46 27.38 25.86 28 25.12 28L17.07 28L17.07 17.08L26.46 17.08L26.46 26.63Z" fill="#000000" fill-opacity="1.000000" fill-rule="nonzero"/>
</svg>
