<svg width="40.000000" height="40.000000" viewBox="0 0 40 40" fill="none" xmlns="http://www.w3.org/2000/svg" xmlns:xlink="http://www.w3.org/1999/xlink">
	<desc>
			Created with Pixso.
	</desc>
	<defs/>
	<rect id="close" rx="20.000000" width="40.000000" height="40.000000" fill="#000000" fill-opacity="0.047059"/>
	<rect id="xmark" width="18.000000" height="18.000000" transform="translate(11.000000 11.000000)" fill="#FFFFFF" fill-opacity="0"/>
	<path id="ó°–" d="M25.97 14.86Q25.93 15 25.83 15.12L20.79 20.16L25.83 25.18Q25.91 25.27 25.96 25.39Q25.99 25.48 25.99 25.59Q25.99 25.71 25.94 25.82Q25.9 25.91 25.83 25.99Q25.75 26.06 25.66 26.1Q25.56 26.15 25.43 26.15Q25.3 26.15 25.2 26.1Q25.11 26.06 25.04 25.99L20 20.95L14.95 25.99Q14.88 26.06 14.79 26.1Q14.69 26.14 14.56 26.14Q14.43 26.13 14.32 26.09Q14.23 26.05 14.15 25.99Q14.09 25.93 14.06 25.86Q14 25.74 14 25.59Q14 25.46 14.05 25.35Q14.08 25.26 14.15 25.18L19.2 20.16L14.15 15.12Q14.06 15.01 14.03 14.9Q14 14.81 14 14.71Q14 14.58 14.05 14.46Q14.09 14.39 14.15 14.32Q14.26 14.2 14.4 14.16Q14.48 14.14 14.56 14.14Q14.66 14.14 14.75 14.18Q14.86 14.22 14.95 14.32L20 19.36L25.04 14.32Q25.13 14.22 25.24 14.18Q25.33 14.14 25.43 14.14Q25.53 14.14 25.62 14.18Q25.74 14.22 25.83 14.32Q25.91 14.4 25.95 14.5Q25.99 14.6 25.99 14.71Q25.99 14.79 25.97 14.86Z" fill="#000000" fill-opacity="0.898039" fill-rule="evenodd"/>
</svg>
