<svg width="24.000000" height="24.000000" viewBox="0 0 24 24" fill="none" xmlns="http://www.w3.org/2000/svg" xmlns:xlink="http://www.w3.org/1999/xlink">
	<desc>
			Created with Pixso.
	</desc>
	<defs>
		<clipPath id="clip10_2032">
			<rect width="24.000000" height="24.000000" fill="white" fill-opacity="0"/>
		</clipPath>
	</defs>
	<g clip-path="url(#clip10_2032)">
		<path d="M0.75 11.99C0.75 10.23 0.74 8.47 0.75 6.71C0.74 5.86 0.85 5.02 1.06 4.19C1.52 2.45 2.66 1.41 4.4 1.01C5.27 0.82 6.16 0.73 7.06 0.75C10.43 0.75 13.8 0.75 17.17 0.75C18.02 0.74 18.87 0.84 19.7 1.04C21.49 1.48 22.57 2.61 22.98 4.4C23.17 5.25 23.25 6.11 23.24 6.98C23.24 10.38 23.24 13.79 23.24 17.2C23.25 18.04 23.15 18.88 22.96 19.7C22.52 21.5 21.37 22.57 19.58 22.98C18.71 23.17 17.82 23.26 16.92 23.24C13.57 23.24 10.21 23.24 6.86 23.24C6 23.25 5.14 23.15 4.31 22.96C2.5 22.52 1.42 21.38 1.01 19.58C0.8 18.66 0.75 17.75 0.75 16.82C0.75 15.21 0.75 13.6 0.75 11.99Z" fill="#FFFFFF" fill-opacity="0" fill-rule="nonzero"/>
		<path d="M0.75 6.71C0.74 5.86 0.85 5.02 1.06 4.19C1.52 2.45 2.66 1.41 4.4 1.01C5.27 0.82 6.16 0.73 7.06 0.75C10.43 0.75 13.8 0.75 17.17 0.75C18.02 0.74 18.87 0.84 19.7 1.04C21.49 1.48 22.57 2.61 22.98 4.4C23.17 5.25 23.25 6.11 23.24 6.98C23.24 10.38 23.24 13.79 23.24 17.2C23.25 18.04 23.15 18.88 22.96 19.7C22.52 21.5 21.37 22.57 19.58 22.98C18.71 23.17 17.82 23.26 16.92 23.24C13.57 23.24 10.21 23.24 6.86 23.24C6 23.25 5.14 23.15 4.31 22.96C2.5 22.52 1.42 21.38 1.01 19.58C0.8 18.66 0.75 17.75 0.75 16.82C0.75 15.21 0.75 13.6 0.75 11.99C0.75 10.23 0.74 8.47 0.75 6.71Z" stroke="#FFFFFF" stroke-opacity="0" stroke-width="1.500000"/>
		<path d="M0.75 11.99C0.75 10.23 0.74 8.47 0.75 6.71C0.74 5.86 0.85 5.02 1.06 4.19C1.52 2.45 2.66 1.41 4.4 1.01C5.27 0.82 6.16 0.73 7.06 0.75C10.43 0.75 13.8 0.75 17.17 0.75C18.02 0.74 18.87 0.84 19.7 1.04C21.49 1.48 22.57 2.61 22.98 4.4C23.17 5.25 23.25 6.11 23.24 6.98C23.24 10.38 23.24 13.79 23.24 17.2C23.25 18.04 23.15 18.88 22.96 19.7C22.52 21.5 21.37 22.57 19.58 22.98C18.71 23.17 17.82 23.26 16.92 23.24C13.57 23.24 10.21 23.24 6.86 23.24C6 23.25 5.14 23.15 4.31 22.96C2.5 22.52 1.42 21.38 1.01 19.58C0.8 18.66 0.75 17.75 0.75 16.82C0.75 15.21 0.75 13.6 0.75 11.99Z" fill="#000000" fill-opacity="0" fill-rule="nonzero"/>
		<path d="M0.75 6.71C0.74 5.86 0.85 5.02 1.06 4.19C1.52 2.45 2.66 1.41 4.4 1.01C5.27 0.82 6.16 0.73 7.06 0.75C10.43 0.75 13.8 0.75 17.17 0.75C18.02 0.74 18.87 0.84 19.7 1.04C21.49 1.48 22.57 2.61 22.98 4.4C23.17 5.25 23.25 6.11 23.24 6.98C23.24 10.38 23.24 13.79 23.24 17.2C23.25 18.04 23.15 18.88 22.96 19.7C22.52 21.5 21.37 22.57 19.58 22.98C18.71 23.17 17.82 23.26 16.92 23.24C13.57 23.24 10.21 23.24 6.86 23.24C6 23.25 5.14 23.15 4.31 22.96C2.5 22.52 1.42 21.38 1.01 19.58C0.8 18.66 0.75 17.75 0.75 16.82C0.75 15.21 0.75 13.6 0.75 11.99C0.75 10.23 0.74 8.47 0.75 6.71Z" stroke="#FFFFFF" stroke-opacity="0" stroke-width="1.500000"/>
		<circle cx="12.000000" cy="12.000000" r="12.000000" fill="#FFFFFF" fill-opacity="0"/>
		<circle cx="12.000000" cy="12.000000" r="12.000000" stroke="#000000" stroke-opacity="0" stroke-width="1.500000"/>
		<path d="M1.27 2.02L1.25 2C1.25 1.58 1.58 1.25 2 1.25C2.41 1.25 2.75 1.58 2.75 2L2.72 2.02L1.27 2.02ZM21.98 21.27L22 21.25C22.41 21.25 22.75 21.58 22.75 22C22.75 22.41 22.41 22.75 22 22.75L21.98 22.73L21.98 21.27Z" fill="#000000" fill-opacity="0" fill-rule="nonzero"/>
		<path d="M2 2L2 19C2 20.65 3.34 22 5 22L22 22" stroke="#191919" stroke-opacity="1.000000" stroke-width="1.500000" stroke-linejoin="round" stroke-linecap="round"/>
		<path d="M5.72 17.98L5.75 18C5.75 18.41 5.41 18.75 5 18.75C4.58 18.75 4.25 18.41 4.25 18L4.27 17.98L5.72 17.98ZM4.27 15.02L4.25 15C4.25 14.58 4.58 14.25 5 14.25C5.41 14.25 5.75 14.58 5.75 15L5.72 15.02L4.27 15.02ZM11.23 17.98L11.25 18C11.25 18.41 10.91 18.75 10.5 18.75C10.08 18.75 9.75 18.41 9.75 18L9.77 17.98L11.23 17.98ZM9.77 13.52L9.75 13.5C9.75 13.08 10.08 12.75 10.5 12.75C10.91 12.75 11.25 13.08 11.25 13.5L11.23 13.52L9.77 13.52ZM16.73 17.98L16.75 18C16.75 18.41 16.41 18.75 16 18.75C15.58 18.75 15.25 18.41 15.25 18L15.27 17.98L16.73 17.98ZM15.27 11.52L15.25 11.5C15.25 11.08 15.58 10.75 16 10.75C16.41 10.75 16.75 11.08 16.75 11.5L16.73 11.52L15.27 11.52ZM22.23 17.98L22.25 18C22.25 18.41 21.91 18.75 21.5 18.75C21.08 18.75 20.75 18.41 20.75 18L20.77 17.98L22.23 17.98ZM20.77 9.52L20.75 9.5C20.75 9.08 21.08 8.75 21.5 8.75C21.91 8.75 22.25 9.08 22.25 9.5L22.23 9.52L20.77 9.52Z" fill="#000000" fill-opacity="0" fill-rule="nonzero"/>
		<path d="M5 18L5 15M10.5 18L10.5 13.5M16 18L16 11.5M21.5 18L21.5 9.5" stroke="#191919" stroke-opacity="1.000000" stroke-width="1.500000" stroke-linejoin="round" stroke-linecap="round"/>
		<path d="M5.06 11.22L5.04 11.24C4.62 11.27 4.27 10.96 4.25 10.54C4.22 10.12 4.53 9.77 4.95 9.75L4.97 9.77L5.06 11.22ZM16.57 4.72L16.54 4.75C16.12 4.75 15.8 4.41 15.8 4C15.8 3.58 16.12 3.25 16.54 3.25L16.57 3.27L16.57 4.72Z" fill="#000000" fill-opacity="0" fill-rule="nonzero"/>
		<path d="M5 10.5C11.47 10.08 17.05 7.91 21.75 4L16.54 4" stroke="#E4480C" stroke-opacity="1.000000" stroke-width="1.500000" stroke-linejoin="round" stroke-linecap="round"/>
		<path d="M2 1.5C2.27 1.5 2.5 1.72 2.5 2L2.5 19C2.5 20.38 3.61 21.5 5 21.5L22 21.5C22.27 21.5 22.5 21.72 22.5 22C22.5 22.27 22.27 22.5 22 22.5L5 22.5C3.06 22.5 1.5 20.93 1.5 19L1.5 2C1.5 1.72 1.72 1.5 2 1.5Z" fill="#FFFFFF" fill-opacity="0" fill-rule="nonzero"/>
		<path d="M2.5 2L2.5 19C2.5 20.38 3.61 21.5 5 21.5L22 21.5C22.27 21.5 22.5 21.72 22.5 22C22.5 22.27 22.27 22.5 22 22.5L5 22.5C3.06 22.5 1.5 20.93 1.5 19L1.5 2C1.5 1.72 1.72 1.5 2 1.5C2.27 1.5 2.5 1.72 2.5 2Z" stroke="#FFFFFF" stroke-opacity="0" stroke-width="1.500000" stroke-linejoin="round"/>
	</g>
</svg>
