<svg width="16.000000" height="16.000000" viewBox="0 0 16 16" fill="none" xmlns="http://www.w3.org/2000/svg" xmlns:xlink="http://www.w3.org/1999/xlink">
	<desc>
			Created with Pixso.
	</desc>
	<defs>
		<clipPath id="clip20_2416">
			<rect width="16.000000" height="16.000000" fill="white" fill-opacity="0"/>
		</clipPath>
	</defs>
	<g clip-path="url(#clip20_2416)">
		<g opacity="0.000000">
			<rect width="16.000000" height="16.000000" fill="#000000" fill-opacity="1.000000"/>
		</g>
		<path d="M8.91 14.77C9.01 14.77 9.1 14.74 9.18 14.7C9.31 14.64 9.41 14.56 9.48 14.45C9.56 14.33 9.59 14.2 9.59 14.06L9.59 8.68L14.37 3.52C14.6 3.27 14.72 2.97 14.72 2.6C14.72 2.41 14.68 2.23 14.61 2.05C14.5 1.79 14.33 1.59 14.11 1.45C13.89 1.3 13.64 1.23 13.36 1.23L2.64 1.23C2.35 1.23 2.1 1.3 1.89 1.46C1.66 1.6 1.49 1.8 1.39 2.05C1.31 2.21 1.28 2.39 1.28 2.6C1.28 2.97 1.39 3.27 1.63 3.52L6.38 8.68L6.38 12.3C6.38 12.56 6.47 12.77 6.66 12.93L8.43 14.58C8.55 14.7 8.71 14.77 8.91 14.77ZM7.38 8.29L2.36 2.84C2.3 2.77 2.27 2.68 2.27 2.59C2.27 2.53 2.28 2.49 2.3 2.45C2.31 2.39 2.34 2.34 2.41 2.3C2.46 2.24 2.54 2.22 2.64 2.22L13.36 2.22C13.5 2.22 13.62 2.29 13.7 2.45C13.72 2.49 13.73 2.54 13.73 2.6C13.73 2.69 13.69 2.77 13.63 2.84L8.6 8.29L8.6 13.38L7.39 12.24L7.38 8.29Z" fill="#191919" fill-opacity="1.000000" fill-rule="nonzero"/>
	</g>
</svg>
