<svg width="24.000000" height="24.000000" viewBox="0 0 24 24" fill="none" xmlns="http://www.w3.org/2000/svg" xmlns:xlink="http://www.w3.org/1999/xlink">
	<desc>
			Created with Pixso.
	</desc>
	<defs>
		<clipPath id="clip10_1850">
			<rect width="24.000000" height="24.000000" fill="white" fill-opacity="0"/>
		</clipPath>
	</defs>
	<g clip-path="url(#clip10_1850)">
		<path d="M0.75 11.99C0.75 10.23 0.74 8.47 0.75 6.71C0.74 5.86 0.85 5.02 1.06 4.19C1.52 2.45 2.66 1.41 4.4 1.01C5.27 0.82 6.16 0.73 7.06 0.75C10.43 0.75 13.8 0.75 17.17 0.75C18.02 0.74 18.87 0.84 19.7 1.04C21.49 1.48 22.57 2.61 22.98 4.4C23.17 5.25 23.25 6.11 23.24 6.98C23.24 10.38 23.24 13.79 23.24 17.2C23.25 18.04 23.15 18.88 22.96 19.7C22.52 21.5 21.37 22.57 19.58 22.98C18.71 23.17 17.82 23.26 16.92 23.24C13.57 23.24 10.21 23.24 6.86 23.24C6 23.25 5.14 23.15 4.31 22.96C2.5 22.52 1.42 21.38 1.01 19.58C0.8 18.66 0.75 17.75 0.75 16.82C0.75 15.21 0.75 13.6 0.75 11.99Z" fill="#FFFFFF" fill-opacity="0" fill-rule="nonzero"/>
		<path d="M0.75 6.71C0.74 5.86 0.85 5.02 1.06 4.19C1.52 2.45 2.66 1.41 4.4 1.01C5.27 0.82 6.16 0.73 7.06 0.75C10.43 0.75 13.8 0.75 17.17 0.75C18.02 0.74 18.87 0.84 19.7 1.04C21.49 1.48 22.57 2.61 22.98 4.4C23.17 5.25 23.25 6.11 23.24 6.98C23.24 10.38 23.24 13.79 23.24 17.2C23.25 18.04 23.15 18.88 22.96 19.7C22.52 21.5 21.37 22.57 19.58 22.98C18.71 23.17 17.82 23.26 16.92 23.24C13.57 23.24 10.21 23.24 6.86 23.24C6 23.25 5.14 23.15 4.31 22.96C2.5 22.52 1.42 21.38 1.01 19.58C0.8 18.66 0.75 17.75 0.75 16.82C0.75 15.21 0.75 13.6 0.75 11.99C0.75 10.23 0.74 8.47 0.75 6.71Z" stroke="#FFFFFF" stroke-opacity="0" stroke-width="1.500000"/>
		<g opacity="0.200000">
			<path d="M0.75 11.99C0.75 10.23 0.74 8.47 0.75 6.71C0.74 5.86 0.85 5.02 1.06 4.19C1.52 2.45 2.66 1.41 4.4 1.01C5.27 0.82 6.16 0.73 7.06 0.75C10.43 0.75 13.8 0.75 17.17 0.75C18.02 0.74 18.87 0.84 19.7 1.04C21.49 1.48 22.57 2.61 22.98 4.4C23.17 5.25 23.25 6.11 23.24 6.98C23.24 10.38 23.24 13.79 23.24 17.2C23.25 18.04 23.15 18.88 22.96 19.7C22.52 21.5 21.37 22.57 19.58 22.98C18.71 23.17 17.82 23.26 16.92 23.24C13.57 23.24 10.21 23.24 6.86 23.24C6 23.25 5.14 23.15 4.31 22.96C2.5 22.52 1.42 21.38 1.01 19.58C0.8 18.66 0.75 17.75 0.75 16.82C0.75 15.21 0.75 13.6 0.75 11.99Z" fill="#000000" fill-opacity="0" fill-rule="nonzero"/>
			<path d="M0.75 6.71C0.74 5.86 0.85 5.02 1.06 4.19C1.52 2.45 2.66 1.41 4.4 1.01C5.27 0.82 6.16 0.73 7.06 0.75C10.43 0.75 13.8 0.75 17.17 0.75C18.02 0.74 18.87 0.84 19.7 1.04C21.49 1.48 22.57 2.61 22.98 4.4C23.17 5.25 23.25 6.11 23.24 6.98C23.24 10.38 23.24 13.79 23.24 17.2C23.25 18.04 23.15 18.88 22.96 19.7C22.52 21.5 21.37 22.57 19.58 22.98C18.71 23.17 17.82 23.26 16.92 23.24C13.57 23.24 10.21 23.24 6.86 23.24C6 23.25 5.14 23.15 4.31 22.96C2.5 22.52 1.42 21.38 1.01 19.58C0.8 18.66 0.75 17.75 0.75 16.82C0.75 15.21 0.75 13.6 0.75 11.99C0.75 10.23 0.74 8.47 0.75 6.71Z" stroke="#FFFFFF" stroke-opacity="0" stroke-width="1.500000"/>
		</g>
		<circle cx="12.000000" cy="12.000000" r="12.000000" fill="#FFFFFF" fill-opacity="0"/>
		<circle cx="12.000000" cy="12.000000" r="12.000000" stroke="#000000" stroke-opacity="0" stroke-width="1.500000"/>
		<mask id="mask10_1842" mask-type="alpha" maskUnits="userSpaceOnUse" x="0.000000" y="0.000000" width="24.000000" height="24.000244">
			<path d="M24 0L24 24L20.31 24C21.33 23.27 22 22.08 22 20.75C22 18.54 20.19 16.75 17.97 16.75L4.5 16.75C4.22 16.75 4 16.97 4 17.25C4 17.52 4.22 17.75 4.5 17.75L5.5 17.75C7.15 17.75 8.5 19.09 8.5 20.75C8.5 22.4 7.15 23.75 5.5 23.75L2.67 23.75C2.49 23.75 2.32 23.85 2.24 24L0 24L0 0L24 0ZM8.14 17.74L17.97 17.75C19.64 17.75 21 19.09 21 20.75C21 22.4 19.64 23.75 17.97 23.75L8.14 23.75C8.97 23.01 9.5 21.94 9.5 20.75C9.5 19.55 8.97 18.48 8.14 17.74Z" fill="#FFFFFF" fill-opacity="1.000000" fill-rule="nonzero"/>
		</mask>
		<g mask="url(#mask10_1842)">
			<path d="M5.5 0.75L17.5 0.75C19.15 0.75 20.5 2.09 20.5 3.75L20.5 21.25C20.5 22.35 19.6 23.25 18.5 23.25L5.5 23.25C3.84 23.25 2.5 21.9 2.5 20.25L2.5 3.75C2.5 2.09 3.84 0.75 5.5 0.75Z" fill="#FFFFFF" fill-opacity="0" fill-rule="evenodd"/>
			<path d="M17.5 0.75C19.15 0.75 20.5 2.09 20.5 3.75L20.5 21.25C20.5 22.35 19.6 23.25 18.5 23.25L5.5 23.25C3.84 23.25 2.5 21.9 2.5 20.25L2.5 3.75C2.5 2.09 3.84 0.75 5.5 0.75L17.5 0.75Z" stroke="#FFFFFF" stroke-opacity="0" stroke-width="1.500000" stroke-linejoin="round"/>
		</g>
		<path d="M3.22 20.23L3.25 20.25C3.25 20.66 2.91 21 2.5 21C2.08 21 1.75 20.66 1.75 20.25L1.77 20.23L3.22 20.23ZM21.23 15.64L21.25 15.66C21.25 16.08 20.91 16.41 20.5 16.41C20.08 16.41 19.75 16.08 19.75 15.66L19.77 15.64L21.23 15.64Z" fill="#000000" fill-opacity="0" fill-rule="nonzero"/>
		<path d="M2.5 20.25L2.5 3.75C2.5 2.09 3.84 0.75 5.5 0.75L17.5 0.75C19.15 0.75 20.5 2.09 20.5 3.75L20.5 15.66" stroke="#191919" stroke-opacity="1.000000" stroke-width="1.500000" stroke-linejoin="round" stroke-linecap="round"/>
		<path d="M8.75 6L11.49 9L11.5 14.5M11.49 9L14.25 6M8.25 9.25L14.75 9.25M8.25 11.25L14.75 11.25" stroke="#E4480C" stroke-opacity="1.000000" stroke-width="1.500000" stroke-linejoin="round" stroke-linecap="round"/>
		<path d="M1.77 20.27L1.75 20.25C1.75 19.83 2.08 19.5 2.5 19.5C2.91 19.5 3.25 19.83 3.25 20.25L3.22 20.27L1.77 20.27ZM5.52 17.98L5.5 18C5.08 18 4.75 17.66 4.75 17.25C4.75 16.83 5.08 16.5 5.5 16.5L5.52 16.52L5.52 17.98Z" fill="#000000" fill-opacity="0" fill-rule="nonzero"/>
		<path d="M2.5 20.25C2.5 21.9 3.84 23.25 5.5 23.25C7.15 23.25 8.5 21.9 8.5 20.25C8.5 18.59 7.15 17.25 5.5 17.25" stroke="#191919" stroke-opacity="1.000000" stroke-width="1.500000" stroke-linejoin="round" stroke-linecap="round"/>
		<path d="M4.52 17.98L4.5 18C4.08 18 3.75 17.66 3.75 17.25C3.75 16.83 4.08 16.5 4.5 16.5L4.52 16.52L4.52 17.98ZM5.52 23.98L5.5 24C5.08 24 4.75 23.66 4.75 23.25C4.75 22.83 5.08 22.5 5.5 22.5L5.52 22.52L5.52 23.98Z" fill="#000000" fill-opacity="0" fill-rule="nonzero"/>
		<path d="M4.5 17.25L18.5 17.25C20.15 17.25 21.5 18.59 21.5 20.25C21.5 21.9 20.15 23.25 18.5 23.25L5.5 23.25" stroke="#191919" stroke-opacity="1.000000" stroke-width="1.500000" stroke-linejoin="round" stroke-linecap="round"/>
	</g>
</svg>
