<svg width="24.000000" height="24.000000" viewBox="0 0 24 24" fill="none" xmlns="http://www.w3.org/2000/svg" xmlns:xlink="http://www.w3.org/1999/xlink">
	<desc>
			Created with Pixso.
	</desc>
	<defs>
		<clipPath id="clip93_276">
			<rect width="24.000000" height="24.000000" fill="white" fill-opacity="0"/>
		</clipPath>
		<linearGradient x1="12.000015" y1="2.567871" x2="12.000015" y2="21.432270" id="paint_linear_93_275_0" gradientUnits="userSpaceOnUse">
			<stop stop-color="#FE4F35"/>
			<stop offset="1.000000" stop-color="#FE4F35" stop-opacity="0.400000"/>
		</linearGradient>
	</defs>
	<g clip-path="url(#clip93_276)">
		<g opacity="0.000000">
			<rect width="24.000000" height="24.000000" fill="#D8D8D8" fill-opacity="1.000000"/>
			<rect width="24.000000" height="24.000000" stroke="#000000" stroke-opacity="0" stroke-width="1.000000"/>
		</g>
		<path d="M11.99 2.56C17.2 2.56 21.43 6.79 21.43 11.99C21.43 13.17 21.21 14.29 20.81 15.33L20.7 15.06C21.68 17.46 21.6 19.39 20.5 20.5C19.9 21.1 19.06 21.39 18.07 21.39C17.25 21.39 16.32 21.19 15.33 20.82C14.29 21.21 13.17 21.43 12 21.43C6.79 21.43 2.56 17.2 2.56 11.99C2.56 10.82 2.78 9.7 3.17 8.66C2.35 6.46 2.4 4.59 3.49 3.49C3.9 3.08 4.43 2.81 5.06 2.69C5.47 2.61 5.86 2.87 5.94 3.28C6.02 3.68 5.76 4.08 5.35 4.16C5.02 4.22 4.75 4.36 4.55 4.55C4.13 4.98 4 5.74 4.18 6.72C4.47 8.31 5.54 10.5 7.4 12.79C7.44 12.84 7.48 12.89 7.52 12.93L7.4 12.79C7.47 12.88 7.55 12.97 7.62 13.05L7.52 12.93C7.6 13.03 7.68 13.13 7.76 13.23L7.62 13.05C7.9 13.4 8.21 13.74 8.53 14.08C8.56 14.12 8.59 14.15 8.62 14.18L8.53 14.08C8.6 14.17 8.68 14.25 8.76 14.33L8.62 14.18C8.78 14.35 8.94 14.52 9.11 14.69C9.31 14.9 9.61 15.18 9.81 15.37C9.89 15.45 9.98 15.53 10.06 15.61L9.81 15.37C9.92 15.48 10.1 15.64 10.21 15.74L10.06 15.61C10.2 15.74 10.34 15.86 10.48 15.98L10.75 16.22C10.8 16.26 10.84 16.3 10.89 16.33C10.94 16.38 10.99 16.42 11.04 16.46L10.89 16.33C10.98 16.41 11.06 16.48 11.15 16.55L11.04 16.46C11.26 16.64 11.47 16.81 11.69 16.98C11.84 17.09 11.99 17.21 12.14 17.32C12.31 17.44 12.47 17.55 12.64 17.67C12.72 17.72 12.8 17.78 12.88 17.83L12.64 17.67C12.74 17.73 12.9 17.84 13 17.91L12.88 17.83C13.02 17.92 13.15 18.01 13.28 18.09L13.51 18.23C13.55 18.26 13.59 18.28 13.63 18.31C13.8 18.4 13.96 18.5 14.12 18.59C15.3 19.24 16.38 19.65 17.27 19.81C18.25 19.99 19.01 19.86 19.44 19.44C19.87 19.01 19.99 18.24 19.81 17.25C19.58 17.58 19.33 17.9 19.06 18.2C19 18.27 18.59 18.37 18.44 18.37C18.37 18.37 18.3 18.37 18.22 18.38C18.17 18.38 18.11 18.39 18.05 18.39C16.5 18.39 13.32 16.79 10.26 13.73C7.1 10.56 5.5 7.27 5.61 5.78C5.63 5.56 5.77 4.94 5.88 4.85C7.52 3.43 9.66 2.56 11.99 2.56Z" fill="url(#paint_linear_93_275_0)" fill-opacity="1.000000" fill-rule="evenodd"/>
	</g>
</svg>
