<svg width="24.000000" height="24.000000" viewBox="0 0 24 24" fill="none" xmlns="http://www.w3.org/2000/svg" xmlns:xlink="http://www.w3.org/1999/xlink">
	<desc>
			Created with Pixso.
	</desc>
	<defs>
		<clipPath id="clip54_351">
			<rect width="24.000000" height="24.000000" fill="white" fill-opacity="0"/>
		</clipPath>
	</defs>
	<g clip-path="url(#clip54_351)">
		<g opacity="0.000000">
			<rect width="24.000000" height="24.000000" fill="#D8D8D8" fill-opacity="1.000000"/>
			<rect width="24.000000" height="24.000000" stroke="#000000" stroke-opacity="0" stroke-width="1.000000"/>
		</g>
		<path d="M6.39 17.6C7.88 19.1 9.88 19.92 11.95 19.93C12.37 19.93 12.7 20.27 12.7 20.68C12.7 21.1 12.36 21.43 11.95 21.43C9.48 21.41 7.11 20.45 5.32 18.66C2.67 16.01 1.87 12.08 3.18 8.64C2.36 6.47 2.38 4.6 3.49 3.49C3.91 3.08 4.44 2.81 5.06 2.69C5.47 2.61 5.86 2.87 5.94 3.28C6.02 3.68 5.76 4.08 5.35 4.16C5.01 4.22 4.75 4.36 4.55 4.55C3.89 5.22 3.96 6.6 4.65 8.3C4.67 8.34 4.69 8.38 4.7 8.42C4.89 8.89 5.14 9.39 5.42 9.9L5.7 10.37C6.56 11.8 7.74 13.33 9.2 14.79C13.34 18.92 18.02 20.85 19.44 19.44C19.85 19.03 19.99 18.28 19.81 17.28C19.48 17.77 19.09 18.24 18.66 18.66C18.37 18.96 17.9 18.96 17.6 18.66C17.31 18.37 17.31 17.9 17.6 17.6C18.36 16.84 18.95 15.95 19.35 14.98C20.53 12.05 19.88 8.66 17.6 6.39C14.51 3.29 9.48 3.29 6.39 6.39C6.09 6.68 5.62 6.68 5.32 6.39C5.03 6.09 5.03 5.62 5.32 5.33C9.01 1.64 14.98 1.64 18.66 5.33C21.32 7.98 22.12 11.91 20.81 15.35C21.64 17.55 21.6 19.4 20.5 20.5C18.24 22.75 12.81 20.52 8.14 15.85C6.47 14.18 5.12 12.42 4.16 10.73L4.14 10.86C3.79 13.28 4.58 15.8 6.39 17.6Z" fill="#000000" fill-opacity="0.600000" fill-rule="evenodd"/>
		<path d="M11.95 19.93C12.37 19.93 12.7 20.27 12.7 20.68C12.7 21.1 12.36 21.43 11.95 21.43C9.48 21.41 7.11 20.45 5.32 18.66C2.67 16.01 1.87 12.08 3.18 8.64C2.36 6.47 2.38 4.6 3.49 3.49C3.91 3.08 4.44 2.81 5.06 2.69C5.47 2.61 5.86 2.87 5.94 3.28C6.02 3.68 5.76 4.08 5.35 4.16C5.01 4.22 4.75 4.36 4.55 4.55C3.89 5.22 3.96 6.6 4.65 8.3C4.67 8.34 4.69 8.38 4.7 8.42C4.89 8.89 5.14 9.39 5.42 9.9L5.7 10.37C6.56 11.8 7.74 13.33 9.2 14.79C13.34 18.92 18.02 20.85 19.44 19.44C19.85 19.03 19.99 18.28 19.81 17.28C19.48 17.77 19.09 18.24 18.66 18.66C18.37 18.96 17.9 18.96 17.6 18.66C17.31 18.37 17.31 17.9 17.6 17.6C18.36 16.84 18.95 15.95 19.35 14.98C20.53 12.05 19.88 8.66 17.6 6.39C14.51 3.29 9.48 3.29 6.39 6.39C6.09 6.68 5.62 6.68 5.32 6.39C5.03 6.09 5.03 5.62 5.32 5.33C9.01 1.64 14.98 1.64 18.66 5.33C21.32 7.98 22.12 11.91 20.81 15.35C21.64 17.55 21.6 19.4 20.5 20.5C18.24 22.75 12.81 20.52 8.14 15.85C6.47 14.18 5.12 12.42 4.16 10.73L4.14 10.86C3.79 13.28 4.58 15.8 6.39 17.6C7.88 19.1 9.88 19.92 11.95 19.93Z" stroke="#000000" stroke-opacity="0" stroke-width="1.000000"/>
	</g>
</svg>
