<svg width="24.000000" height="24.000000" viewBox="0 0 24 24" fill="none" xmlns="http://www.w3.org/2000/svg" xmlns:xlink="http://www.w3.org/1999/xlink">
	<desc>
			Created with Pixso.
	</desc>
	<defs>
		<clipPath id="clip21_22">
			<rect width="24.000000" height="24.000000" fill="white" fill-opacity="0"/>
		</clipPath>
		<linearGradient x1="12.000000" y1="2.457031" x2="12.000000" y2="21.543030" id="paint_linear_21_26_0" gradientUnits="userSpaceOnUse">
			<stop stop-color="#FE4F35"/>
			<stop offset="0.977404" stop-color="#FE4F35" stop-opacity="0.400000"/>
		</linearGradient>
	</defs>
	<g clip-path="url(#clip21_22)">
		<g opacity="0.000000">
			<rect width="24.000000" height="24.000000" fill="#D8D8D8" fill-opacity="1.000000"/>
			<rect width="24.000000" height="24.000000" stroke="#000000" stroke-opacity="0" stroke-width="1.000000"/>
		</g>
		<path d="M20.44 10.17L13.23 2.97C12.55 2.28 11.44 2.28 10.76 2.97L3.55 10.17C3.03 10.69 2.75 11.38 2.75 12.12L2.75 18.54C2.75 20.2 4.09 21.54 5.75 21.54L9.5 21.54L9.5 20.04L9.5 18.62L9.5 15.45C9.5 14.07 10.62 12.95 12 12.95C13.37 12.95 14.5 14.07 14.5 15.45L14.5 18.62L14.5 20.04L14.5 21.54L18.25 21.54C19.9 21.54 21.25 20.2 21.25 18.54L21.25 12.12C21.25 11.39 20.96 10.69 20.44 10.17Z" fill="url(#paint_linear_21_26_0)" fill-opacity="1.000000" fill-rule="evenodd"/>
		<path d="M13.23 2.97C12.55 2.28 11.44 2.28 10.76 2.97L3.55 10.17C3.03 10.69 2.75 11.38 2.75 12.12L2.75 18.54C2.75 20.2 4.09 21.54 5.75 21.54L9.5 21.54L9.5 20.04L9.5 18.62L9.5 15.45C9.5 14.07 10.62 12.95 12 12.95C13.37 12.95 14.5 14.07 14.5 15.45L14.5 18.62L14.5 20.04L14.5 21.54L18.25 21.54C19.9 21.54 21.25 20.2 21.25 18.54L21.25 12.12C21.25 11.39 20.96 10.69 20.44 10.17L13.23 2.97Z" stroke="#000000" stroke-opacity="0" stroke-width="1.000000"/>
	</g>
</svg>
