<svg width="24.000000" height="24.000000" viewBox="0 0 24 24" fill="none" xmlns="http://www.w3.org/2000/svg" xmlns:xlink="http://www.w3.org/1999/xlink">
	<desc>
			Created with Pixso.
	</desc>
	<defs>
		<clipPath id="clip95_657">
			<rect width="24.000000" height="24.000000" fill="white" fill-opacity="0"/>
		</clipPath>
		<linearGradient x1="12.002899" y1="3.000000" x2="12.002899" y2="21.000248" id="paint_linear_95_661_0" gradientUnits="userSpaceOnUse">
			<stop stop-color="#FE4F35"/>
			<stop offset="1.000000" stop-color="#FE4F35" stop-opacity="0.400000"/>
		</linearGradient>
	</defs>
	<g clip-path="url(#clip95_657)">
		<g opacity="0.000000">
			<rect width="24.000000" height="24.000000" fill="#D8D8D8" fill-opacity="1.000000"/>
			<rect width="24.000000" height="24.000000" stroke="#000000" stroke-opacity="0" stroke-width="1.000000"/>
		</g>
		<path d="M15.66 3C16.73 3 17.72 3.57 18.26 4.5L20.6 8.59C21.19 9.63 21.12 10.91 20.41 11.87L14.54 19.78C13.55 21.11 11.67 21.39 10.34 20.4C10.13 20.24 9.93 20.06 9.77 19.84L3.64 12.01C2.84 10.99 2.78 9.57 3.51 8.49L6.3 4.32C6.86 3.49 7.79 3 8.79 3L15.66 3ZM16.44 8.45C16.28 8.07 15.87 7.89 15.52 8.06C13.35 9.07 11 9.07 8.44 8.04C8.07 7.9 7.67 8.1 7.54 8.48C7.4 8.87 7.59 9.3 7.95 9.45C10.84 10.6 13.56 10.6 16.07 9.43C16.43 9.27 16.59 8.83 16.44 8.45Z" fill="url(#paint_linear_95_661_0)" fill-opacity="1.000000" fill-rule="evenodd"/>
	</g>
</svg>
