<svg width="24.000000" height="24.000000" viewBox="0 0 24 24" fill="none" xmlns="http://www.w3.org/2000/svg" xmlns:xlink="http://www.w3.org/1999/xlink">
	<desc>
			Created with Pixso.
	</desc>
	<defs>
		<clipPath id="clip54_354">
			<rect width="24.000000" height="24.000000" fill="white" fill-opacity="0"/>
		</clipPath>
	</defs>
	<g clip-path="url(#clip54_354)">
		<g opacity="0.000000">
			<rect width="24.000000" height="24.000000" fill="#D8D8D8" fill-opacity="1.000000"/>
			<rect width="24.000000" height="24.000000" stroke="#000000" stroke-opacity="0" stroke-width="1.000000"/>
		</g>
		<path d="M15.35 2.99C16.61 2.99 17.77 3.66 18.39 4.75C18.6 5.11 18.47 5.57 18.11 5.78C17.78 5.97 17.37 5.88 17.15 5.58C16.82 5.01 16.17 4.55 15.52 4.5L15.35 4.49L9.06 4.49C8.45 4.49 7.87 4.77 7.5 5.24L7.41 5.37L4.71 9.53C4.45 9.93 4.45 10.45 4.69 10.86L4.78 10.97L10.99 18.94C11.07 19.04 11.17 19.14 11.27 19.21C11.88 19.66 12.71 19.57 13.21 19.02L13.3 18.91L19.21 10.89C19.47 10.54 19.53 10.08 19.37 9.68L19.31 9.55L18.3 7.68C18.11 7.31 18.24 6.86 18.61 6.66C18.94 6.48 19.35 6.58 19.57 6.88L20.63 8.84C21.1 9.72 21.06 10.78 20.53 11.61L20.42 11.78L14.51 19.8C13.54 21.11 11.69 21.39 10.38 20.42C10.22 20.3 10.07 20.17 9.94 20.02L9.81 19.86L3.59 11.9C2.92 11.03 2.83 9.84 3.35 8.89L3.45 8.71L6.15 4.54C6.76 3.63 7.76 3.07 8.84 3L9.06 2.99L15.35 2.99ZM16.44 8.45C16.59 8.83 16.43 9.27 16.07 9.43C13.56 10.6 10.84 10.6 7.95 9.45C7.59 9.3 7.4 8.87 7.54 8.48C7.67 8.1 8.07 7.9 8.44 8.04C11 9.07 13.35 9.07 15.52 8.06C15.87 7.89 16.28 8.07 16.44 8.45Z" fill="#000000" fill-opacity="0.600000" fill-rule="evenodd"/>
		<path d="M18.39 4.75C18.6 5.11 18.47 5.57 18.11 5.78C17.78 5.97 17.37 5.88 17.15 5.58C16.82 5.01 16.17 4.55 15.52 4.5L15.35 4.49L9.06 4.49C8.45 4.49 7.87 4.77 7.5 5.24L7.41 5.37L4.71 9.53C4.45 9.93 4.45 10.45 4.69 10.86L4.78 10.97L10.99 18.94C11.07 19.04 11.17 19.14 11.27 19.21C11.88 19.66 12.71 19.57 13.21 19.02L13.3 18.91L19.21 10.89C19.47 10.54 19.53 10.08 19.37 9.68L19.31 9.55L18.3 7.68C18.11 7.31 18.24 6.86 18.61 6.66C18.94 6.48 19.35 6.58 19.57 6.88L20.63 8.84C21.1 9.72 21.06 10.78 20.53 11.61L20.42 11.78L14.51 19.8C13.54 21.11 11.69 21.39 10.38 20.42C10.22 20.3 10.07 20.17 9.94 20.02L9.81 19.86L3.59 11.9C2.92 11.03 2.83 9.84 3.35 8.89L3.45 8.71L6.15 4.54C6.76 3.63 7.76 3.07 8.84 3L9.06 2.99L15.35 2.99C16.61 2.99 17.77 3.66 18.39 4.75ZM16.07 9.43C13.56 10.6 10.84 10.6 7.95 9.45C7.59 9.3 7.4 8.87 7.54 8.48C7.67 8.1 8.07 7.9 8.44 8.04C11 9.07 13.35 9.07 15.52 8.06C15.87 7.89 16.28 8.07 16.44 8.45C16.59 8.83 16.43 9.27 16.07 9.43Z" stroke="#000000" stroke-opacity="0" stroke-width="1.000000"/>
	</g>
</svg>
