<svg width="60.000000" height="60.000000" viewBox="0 0 60 60" fill="none" xmlns="http://www.w3.org/2000/svg" xmlns:xlink="http://www.w3.org/1999/xlink">
	<desc>
			Created with Pixso.
	</desc>
	<defs/>
	<path d="M44.02 5C46.45 5 48.61 6.66 49.37 9.13L53.3 22.6L56.53 22.6C58.44 22.6 60 24.16 60 26.07C60 28.14 58.67 29.98 56.7 30.64L54.71 31.3L54.71 48.03C54.71 51.38 52.18 54.09 49.05 54.09C45.92 54.09 43.39 51.38 43.39 48.03L43.39 47L16.96 47L16.96 48.03C16.96 51.38 14.42 54.09 11.3 54.09C8.17 54.09 5.63 51.38 5.63 48.03L5.63 31.55L3.26 30.7C3.02 30.62 2.8 30.51 2.57 30.39C2.35 30.27 2.14 30.14 1.94 29.99C1.74 29.83 1.55 29.67 1.38 29.49C1.2 29.3 1.04 29.11 0.9 28.9C0.75 28.7 0.62 28.48 0.51 28.26C0.4 28.03 0.3 27.8 0.23 27.56C0.15 27.32 0.09 27.07 0.05 26.83C0.01 26.58 0 26.33 0 26.07C0 24.16 1.55 22.61 3.46 22.61L7.05 22.61L10.98 9.13C11.74 6.66 13.9 5 16.33 5L44.02 5ZM14.97 32.27C14.7 32.27 14.43 32.29 14.17 32.35C13.9 32.4 13.65 32.47 13.4 32.58C13.15 32.68 12.92 32.81 12.69 32.96C12.47 33.1 12.26 33.27 12.07 33.46C11.88 33.65 11.71 33.86 11.56 34.08C11.41 34.31 11.28 34.54 11.18 34.79C11.08 35.04 11 35.3 10.95 35.56C10.89 35.82 10.87 36.09 10.87 36.36C10.87 36.63 10.89 36.89 10.95 37.16C11 37.42 11.08 37.68 11.18 37.93C11.28 38.17 11.41 38.41 11.56 38.63C11.71 38.86 11.88 39.06 12.07 39.25C12.26 39.45 12.46 39.62 12.69 39.76C12.91 39.91 13.15 40.04 13.39 40.14C13.64 40.25 13.9 40.32 14.16 40.38C14.43 40.43 14.69 40.46 14.96 40.46C15.23 40.46 15.5 40.43 15.76 40.38C16.02 40.32 16.28 40.25 16.53 40.14C16.78 40.04 17.01 39.91 17.24 39.77C17.46 39.62 17.67 39.45 17.86 39.26C18.05 39.07 18.22 38.86 18.36 38.64C18.51 38.41 18.64 38.18 18.74 37.93C18.85 37.68 18.92 37.43 18.98 37.16C19.03 36.9 19.06 36.63 19.06 36.36C19.06 36.1 19.03 35.83 18.98 35.57C18.93 35.3 18.85 35.05 18.75 34.8C18.64 34.55 18.52 34.31 18.37 34.09C18.22 33.87 18.05 33.66 17.86 33.47C17.67 33.28 17.46 33.11 17.24 32.96C17.02 32.81 16.78 32.68 16.53 32.58C16.29 32.48 16.03 32.4 15.77 32.35C15.5 32.29 15.24 32.27 14.97 32.27ZM45.01 32.27C44.74 32.27 44.47 32.29 44.21 32.35C43.95 32.4 43.69 32.47 43.44 32.58C43.19 32.68 42.96 32.81 42.73 32.96C42.51 33.1 42.3 33.27 42.11 33.46C41.92 33.65 41.75 33.86 41.6 34.08C41.45 34.31 41.33 34.54 41.22 34.79C41.12 35.04 41.04 35.3 40.99 35.56C40.94 35.82 40.91 36.09 40.91 36.36C40.91 36.63 40.93 36.89 40.99 37.16C41.04 37.42 41.12 37.68 41.22 37.93C41.32 38.17 41.45 38.41 41.6 38.63C41.75 38.86 41.92 39.06 42.11 39.25C42.3 39.45 42.5 39.62 42.73 39.76C42.95 39.91 43.19 40.04 43.44 40.14C43.68 40.25 43.94 40.32 44.2 40.38C44.47 40.43 44.73 40.46 45 40.46C45.27 40.46 45.54 40.43 45.8 40.38C46.06 40.32 46.32 40.25 46.57 40.14C46.82 40.04 47.05 39.91 47.28 39.77C47.5 39.62 47.71 39.45 47.9 39.26C48.09 39.07 48.26 38.86 48.41 38.64C48.56 38.41 48.68 38.18 48.78 37.93C48.89 37.68 48.96 37.43 49.02 37.16C49.07 36.9 49.1 36.63 49.1 36.36C49.1 36.1 49.07 35.83 49.02 35.57C48.97 35.3 48.89 35.05 48.79 34.8C48.68 34.55 48.56 34.31 48.41 34.09C48.26 33.87 48.09 33.66 47.9 33.47C47.71 33.28 47.5 33.11 47.28 32.96C47.06 32.81 46.82 32.68 46.57 32.58C46.33 32.48 46.07 32.4 45.81 32.35C45.54 32.29 45.28 32.27 45.01 32.27ZM42.51 9.33L17.59 9.33C17.44 9.33 17.28 9.34 17.13 9.37C16.97 9.4 16.82 9.44 16.68 9.49C16.53 9.54 16.39 9.6 16.25 9.68C16.12 9.76 15.99 9.84 15.87 9.94C15.75 10.04 15.64 10.15 15.53 10.26C15.43 10.38 15.34 10.51 15.26 10.64C15.18 10.77 15.11 10.91 15.05 11.06C14.99 11.2 14.95 11.35 14.92 11.5L12.99 20.8C12.97 20.9 12.95 21 12.95 21.1C12.94 21.2 12.93 21.3 12.93 21.4C12.94 21.5 12.94 21.61 12.96 21.71C12.97 21.81 12.99 21.91 13.01 22C13.03 22.1 13.06 22.2 13.1 22.29C13.13 22.39 13.17 22.48 13.22 22.57C13.26 22.66 13.31 22.75 13.37 22.83C13.42 22.92 13.48 23 13.54 23.08C13.61 23.16 13.68 23.23 13.75 23.3C13.82 23.37 13.9 23.44 13.98 23.5C14.05 23.57 14.14 23.62 14.22 23.68C14.31 23.73 14.4 23.78 14.49 23.82C14.58 23.86 14.67 23.9 14.77 23.94C14.86 23.97 14.96 24 15.06 24.02C15.16 24.04 15.26 24.06 15.36 24.07C15.46 24.08 15.56 24.09 15.66 24.09L44.52 24.09C44.62 24.09 44.73 24.08 44.83 24.07C44.93 24.06 45.03 24.04 45.13 24.02C45.23 24 45.32 23.97 45.42 23.94C45.52 23.9 45.61 23.86 45.7 23.82C45.79 23.78 45.88 23.73 45.97 23.67C46.05 23.62 46.14 23.56 46.22 23.5C46.3 23.44 46.37 23.37 46.44 23.3C46.52 23.23 46.58 23.15 46.65 23.07C46.71 22.99 46.77 22.91 46.83 22.82C46.88 22.74 46.93 22.65 46.97 22.56C47.02 22.47 47.06 22.37 47.09 22.28C47.13 22.18 47.16 22.09 47.18 21.99C47.2 21.89 47.22 21.79 47.23 21.69C47.24 21.59 47.25 21.49 47.25 21.38C47.25 21.28 47.25 21.18 47.24 21.08C47.23 20.98 47.21 20.88 47.19 20.78L45.17 11.48C45.14 11.33 45.09 11.18 45.04 11.04C44.98 10.89 44.91 10.76 44.83 10.63C44.75 10.49 44.66 10.37 44.55 10.25C44.45 10.14 44.34 10.03 44.22 9.93C44.1 9.84 43.97 9.75 43.84 9.68C43.7 9.6 43.56 9.54 43.42 9.48C43.27 9.43 43.12 9.39 42.97 9.37C42.82 9.34 42.66 9.33 42.51 9.33Z" fill="#007DFF" fill-opacity="1.000000" fill-rule="nonzero"/>
</svg>
