<svg width="40.000000" height="40.000000" viewBox="0 0 40 40" fill="none" xmlns="http://www.w3.org/2000/svg" xmlns:xlink="http://www.w3.org/1999/xlink">
	<desc>
			Created with Pixso.
	</desc>
	<defs>
		<clipPath id="clip5_2126">
			<rect width="32.000000" height="32.000000" transform="translate(4.000000 4.000000)" fill="white" fill-opacity="0"/>
		</clipPath>
	</defs>
	<rect rx="16.000000" width="40.000000" height="40.000000" fill="#017CFE" fill-opacity="1.000000"/>
	<g clip-path="url(#clip5_2126)">
		<g opacity="0.000000">
			<rect x="4.000000" y="4.000000" width="32.000000" height="32.000000" fill="#D8D8D8" fill-opacity="1.000000"/>
			<rect x="4.000000" y="4.000000" width="32.000000" height="32.000000" stroke="#000000" stroke-opacity="0" stroke-width="1.000000"/>
		</g>
		<path d="M31 23.6L31 30.21C31 31.89 29.62 33.26 27.94 33.26L21 33.26L21 23.6L31 23.6ZM19 23.6L19 33.26L12.05 33.26C10.37 33.26 9 31.89 9 30.21L9 23.6L19 23.6ZM21 13.44L19 13.44L19 21.6L8.98 21.6C7.66 21.29 6.66 20.1 6.66 18.68L6.66 16.45C6.66 14.79 8.01 13.45 9.66 13.45L10.01 13.45C9.62 12.78 9.4 11.99 9.4 11.15C9.4 8.71 11.28 6.73 13.6 6.73C16.58 6.73 18.8 9.02 20 11.29C21.19 9.02 23.41 6.73 26.39 6.73C28.7 6.73 30.59 8.71 30.59 11.15C30.59 11.99 30.37 12.78 29.98 13.45L30.33 13.45C31.98 13.45 33.33 14.79 33.33 16.45L33.33 18.68C33.33 20.1 32.33 21.29 31.01 21.59L21 21.59L21 13.44ZM13.6 8.73C12.39 8.73 11.4 9.82 11.4 11.15C11.4 12.21 12.02 13.11 12.87 13.44L13.58 13.44L18.77 13.45C18.14 11.56 16.25 8.73 13.6 8.73ZM26.39 8.73C23.74 8.73 21.85 11.56 21.22 13.45L26.39 13.45L27.12 13.44C27.97 13.11 28.59 12.21 28.59 11.15C28.59 9.82 27.6 8.73 26.39 8.73Z" fill="#FFFFFF" fill-opacity="1.000000" fill-rule="evenodd"/>
		<path d="M31 30.21C31 31.89 29.62 33.26 27.94 33.26L21 33.26L21 23.6L31 23.6L31 30.21ZM19 33.26L12.05 33.26C10.37 33.26 9 31.89 9 30.21L9 23.6L19 23.6L19 33.26ZM19 13.44L19 21.6L8.98 21.6C7.66 21.29 6.66 20.1 6.66 18.68L6.66 16.45C6.66 14.79 8.01 13.45 9.66 13.45L10.01 13.45C9.62 12.78 9.4 11.99 9.4 11.15C9.4 8.71 11.28 6.73 13.6 6.73C16.58 6.73 18.8 9.02 20 11.29C21.19 9.02 23.41 6.73 26.39 6.73C28.7 6.73 30.59 8.71 30.59 11.15C30.59 11.99 30.37 12.78 29.98 13.45L30.33 13.45C31.98 13.45 33.33 14.79 33.33 16.45L33.33 18.68C33.33 20.1 32.33 21.29 31.01 21.59L21 21.59L21 13.44L19 13.44ZM11.4 11.15C11.4 12.21 12.02 13.11 12.87 13.44L13.58 13.44L18.77 13.45C18.14 11.56 16.25 8.73 13.6 8.73C12.39 8.73 11.4 9.82 11.4 11.15ZM21.22 13.45L26.39 13.45L27.12 13.44C27.97 13.11 28.59 12.21 28.59 11.15C28.59 9.82 27.6 8.73 26.39 8.73C23.74 8.73 21.85 11.56 21.22 13.45Z" stroke="#000000" stroke-opacity="0" stroke-width="1.000000"/>
	</g>
</svg>
