<svg width="40.000000" height="40.000000" viewBox="0 0 40 40" fill="none" xmlns="http://www.w3.org/2000/svg" xmlns:xlink="http://www.w3.org/1999/xlink">
	<desc>
			Created with Pixso.
	</desc>
	<defs>
		<clipPath id="clip5_2142">
			<rect width="32.000000" height="32.000000" transform="translate(4.000000 4.000000)" fill="white" fill-opacity="0"/>
		</clipPath>
	</defs>
	<rect rx="16.000000" width="40.000000" height="40.000000" fill="#009CFC" fill-opacity="1.000000"/>
	<g clip-path="url(#clip5_2142)">
		<path d="M32.67 12.51L32.09 12.51L32.09 9.62C32.08 9.37 32.03 9.12 31.96 8.87C31.88 8.63 31.77 8.4 31.64 8.18C31.5 7.96 31.34 7.76 31.16 7.58C30.97 7.41 30.77 7.25 30.54 7.13C30.54 7.13 27.49 5.6 20 5.6C12.51 5.6 9.45 7.13 9.45 7.13C8.54 7.64 7.96 8.58 7.9 9.62L7.9 12.51L7.32 12.51C7.21 12.51 7.1 12.52 6.99 12.54C6.88 12.56 6.77 12.6 6.66 12.64C6.56 12.68 6.46 12.74 6.37 12.8C6.27 12.86 6.18 12.93 6.1 13.01C6.02 13.09 5.95 13.18 5.89 13.27C5.83 13.37 5.77 13.47 5.73 13.57C5.69 13.68 5.65 13.78 5.63 13.9C5.61 14.01 5.6 14.12 5.59 14.23L5.59 15.96C5.6 16.92 6.37 17.69 7.32 17.69L7.9 17.69L7.9 29.5C7.9 29.59 7.91 29.68 7.92 29.76C7.93 29.85 7.96 29.94 7.98 30.02C8.01 30.11 8.04 30.19 8.08 30.27C8.12 30.35 8.17 30.42 8.22 30.5C8.27 30.57 8.33 30.64 8.39 30.7C8.45 30.76 8.52 30.82 8.59 30.88C8.66 30.93 8.73 30.98 8.81 31.02C8.89 31.06 8.97 31.1 9.05 31.13L9.05 32.09C9.05 32.17 9.06 32.24 9.06 32.32C9.07 32.39 9.08 32.47 9.1 32.54C9.11 32.61 9.13 32.69 9.15 32.76C9.17 32.83 9.2 32.9 9.23 32.97C9.26 33.04 9.29 33.11 9.32 33.18C9.36 33.24 9.4 33.31 9.44 33.37C9.48 33.43 9.53 33.49 9.58 33.55C9.62 33.61 9.67 33.67 9.73 33.72C9.78 33.77 9.84 33.82 9.9 33.87C9.95 33.92 10.01 33.96 10.08 34.01C10.14 34.05 10.2 34.09 10.27 34.12C10.34 34.16 10.41 34.19 10.48 34.22C10.54 34.25 10.62 34.27 10.69 34.3C10.76 34.32 10.83 34.34 10.91 34.35C10.98 34.37 11.06 34.38 11.13 34.38C11.21 34.39 11.28 34.4 11.36 34.4C11.43 34.4 11.51 34.39 11.58 34.38C11.66 34.38 11.73 34.37 11.81 34.35C11.88 34.34 11.95 34.32 12.03 34.3C12.1 34.27 12.17 34.25 12.24 34.22C12.31 34.19 12.38 34.16 12.44 34.12C12.51 34.09 12.57 34.05 12.64 34.01C12.7 33.96 12.76 33.92 12.82 33.87C12.88 33.82 12.93 33.77 12.99 33.72C13.04 33.67 13.09 33.61 13.14 33.55C13.19 33.49 13.23 33.43 13.27 33.37C13.31 33.31 13.35 33.24 13.39 33.18C13.42 33.11 13.46 33.04 13.49 32.97C13.51 32.9 13.54 32.83 13.56 32.76C13.58 32.69 13.6 32.61 13.62 32.54C13.63 32.47 13.64 32.39 13.65 32.32C13.66 32.24 13.66 32.17 13.66 32.09L13.66 31.23L26.33 31.23L26.33 32.09C26.33 32.17 26.33 32.24 26.34 32.32C26.35 32.39 26.36 32.47 26.37 32.54C26.39 32.61 26.41 32.69 26.43 32.76C26.45 32.83 26.48 32.9 26.5 32.97C26.53 33.04 26.57 33.11 26.6 33.18C26.64 33.24 26.68 33.31 26.72 33.37C26.76 33.43 26.8 33.49 26.85 33.55C26.9 33.61 26.95 33.67 27 33.72C27.06 33.77 27.11 33.82 27.17 33.87C27.23 33.92 27.29 33.96 27.35 34.01C27.42 34.05 27.48 34.09 27.55 34.12C27.61 34.16 27.68 34.19 27.75 34.22C27.82 34.25 27.89 34.27 27.96 34.3C28.04 34.32 28.11 34.34 28.18 34.35C28.26 34.37 28.33 34.38 28.41 34.38C28.48 34.39 28.56 34.4 28.63 34.4C28.71 34.4 28.78 34.39 28.86 34.38C28.93 34.38 29.01 34.37 29.08 34.35C29.16 34.34 29.23 34.32 29.3 34.3C29.37 34.27 29.45 34.25 29.51 34.22C29.58 34.19 29.65 34.16 29.72 34.12C29.79 34.09 29.85 34.05 29.91 34.01C29.98 33.96 30.04 33.92 30.09 33.87C30.15 33.82 30.21 33.77 30.26 33.72C30.32 33.67 30.37 33.61 30.41 33.55C30.46 33.49 30.51 33.43 30.55 33.37C30.59 33.31 30.63 33.24 30.67 33.18C30.7 33.11 30.73 33.04 30.76 32.97C30.79 32.9 30.82 32.83 30.84 32.76C30.86 32.69 30.88 32.61 30.89 32.54C30.91 32.47 30.92 32.39 30.93 32.32C30.93 32.24 30.94 32.17 30.94 32.09L30.94 31.13C31.02 31.1 31.1 31.06 31.18 31.02C31.26 30.98 31.33 30.93 31.4 30.88C31.47 30.82 31.54 30.76 31.6 30.7C31.66 30.64 31.72 30.57 31.77 30.5C31.82 30.42 31.87 30.35 31.91 30.27C31.95 30.19 31.98 30.11 32.01 30.02C32.03 29.94 32.06 29.85 32.07 29.76C32.08 29.68 32.09 29.59 32.09 29.5L32.09 17.69L32.67 17.69C33.62 17.69 34.39 16.92 34.4 15.96L34.4 14.23C34.39 14.12 34.38 14.01 34.36 13.9C34.34 13.79 34.3 13.68 34.26 13.57C34.22 13.47 34.16 13.37 34.1 13.28C34.04 13.18 33.97 13.1 33.89 13.02C33.81 12.94 33.72 12.86 33.62 12.8C33.53 12.74 33.43 12.68 33.33 12.64C33.22 12.6 33.11 12.56 33 12.54C32.89 12.52 32.78 12.51 32.67 12.51ZM14.24 8.48C14.24 8.16 14.49 7.9 14.81 7.9L25.18 7.9C25.22 7.9 25.25 7.9 25.29 7.91C25.33 7.92 25.36 7.93 25.4 7.94C25.43 7.96 25.47 7.98 25.5 8C25.53 8.02 25.56 8.04 25.58 8.07C25.61 8.1 25.64 8.12 25.66 8.16C25.68 8.19 25.7 8.22 25.71 8.26C25.72 8.29 25.74 8.33 25.74 8.36C25.75 8.4 25.75 8.44 25.75 8.48L25.75 9.62C25.76 9.66 25.75 9.7 25.74 9.74C25.74 9.77 25.73 9.81 25.71 9.84C25.7 9.88 25.68 9.91 25.66 9.94C25.64 9.98 25.61 10.01 25.59 10.03C25.56 10.06 25.53 10.08 25.5 10.1C25.47 10.13 25.43 10.14 25.4 10.16C25.36 10.17 25.33 10.18 25.29 10.19C25.25 10.2 25.22 10.2 25.18 10.2L14.81 10.2C14.77 10.2 14.74 10.2 14.7 10.19C14.66 10.18 14.63 10.17 14.59 10.16C14.56 10.14 14.52 10.13 14.49 10.1C14.46 10.08 14.43 10.06 14.4 10.03C14.38 10.01 14.35 9.98 14.33 9.94C14.31 9.91 14.29 9.88 14.28 9.84C14.27 9.81 14.25 9.77 14.25 9.74C14.24 9.7 14.24 9.66 14.24 9.62L14.24 8.48ZM11.64 28.92C11.55 28.93 11.46 28.92 11.36 28.9C11.27 28.89 11.18 28.86 11.09 28.83C11 28.79 10.92 28.75 10.84 28.7C10.76 28.65 10.68 28.59 10.61 28.53C10.55 28.46 10.48 28.39 10.43 28.31C10.37 28.24 10.33 28.15 10.29 28.07C10.25 27.98 10.22 27.89 10.2 27.8C10.18 27.71 10.17 27.61 10.17 27.52C10.16 27.42 10.17 27.33 10.19 27.24C10.2 27.14 10.23 27.05 10.26 26.96C10.29 26.88 10.34 26.79 10.39 26.71C10.44 26.63 10.5 26.56 10.56 26.49C10.63 26.42 10.7 26.36 10.77 26.3C10.85 26.25 10.93 26.2 11.02 26.16C11.11 26.13 11.2 26.1 11.29 26.07C11.38 26.05 11.47 26.04 11.57 26.04C11.66 26.04 11.76 26.04 11.85 26.06C11.94 26.08 12.04 26.1 12.12 26.13C12.21 26.17 12.3 26.21 12.38 26.26C12.46 26.31 12.53 26.37 12.6 26.44C12.67 26.5 12.73 26.57 12.78 26.65C12.84 26.73 12.89 26.81 12.92 26.89C12.96 26.98 12.99 27.07 13.01 27.16C13.03 27.26 13.05 27.35 13.05 27.44C13.05 27.54 13.04 27.63 13.03 27.73C13.01 27.82 12.99 27.91 12.95 28C12.92 28.09 12.88 28.17 12.83 28.25C12.78 28.33 12.72 28.41 12.65 28.47C12.59 28.54 12.52 28.6 12.44 28.66C12.36 28.71 12.28 28.76 12.19 28.8C12.11 28.84 12.02 28.87 11.93 28.89C11.83 28.91 11.74 28.92 11.64 28.92ZM28.35 28.92C28.25 28.93 28.16 28.92 28.06 28.9C27.97 28.89 27.88 28.86 27.79 28.83C27.7 28.79 27.62 28.75 27.54 28.7C27.46 28.65 27.38 28.59 27.31 28.53C27.25 28.46 27.18 28.39 27.13 28.31C27.07 28.24 27.03 28.15 26.99 28.07C26.95 27.98 26.92 27.89 26.9 27.8C26.88 27.71 26.87 27.61 26.87 27.52C26.86 27.42 26.87 27.33 26.89 27.24C26.9 27.14 26.93 27.05 26.96 26.96C27 26.87 27.04 26.79 27.09 26.71C27.14 26.63 27.2 26.56 27.26 26.49C27.33 26.42 27.4 26.36 27.48 26.3C27.56 26.25 27.64 26.2 27.72 26.16C27.81 26.12 27.9 26.09 27.99 26.07C28.08 26.05 28.18 26.04 28.27 26.04C28.37 26.04 28.46 26.04 28.56 26.06C28.65 26.08 28.74 26.1 28.83 26.14C28.92 26.17 29 26.21 29.08 26.26C29.16 26.31 29.23 26.37 29.3 26.44C29.37 26.5 29.43 26.57 29.49 26.65C29.54 26.73 29.59 26.81 29.63 26.9C29.66 26.98 29.69 27.07 29.72 27.16C29.74 27.26 29.75 27.35 29.75 27.45C29.75 27.54 29.75 27.63 29.73 27.73C29.71 27.82 29.69 27.91 29.65 28C29.62 28.09 29.58 28.17 29.53 28.25C29.48 28.33 29.42 28.41 29.35 28.47C29.29 28.54 29.22 28.61 29.14 28.66C29.06 28.71 28.98 28.76 28.89 28.8C28.81 28.84 28.72 28.87 28.63 28.89C28.53 28.91 28.44 28.92 28.35 28.92ZM29.79 22.3C29.79 22.34 29.78 22.37 29.78 22.41C29.77 22.45 29.76 22.48 29.74 22.52C29.73 22.55 29.71 22.59 29.69 22.62C29.67 22.65 29.64 22.68 29.62 22.71C29.59 22.73 29.56 22.76 29.53 22.78C29.5 22.8 29.47 22.82 29.43 22.83C29.4 22.84 29.36 22.86 29.32 22.86C29.29 22.87 29.25 22.87 29.21 22.88L10.78 22.88C10.74 22.87 10.7 22.87 10.67 22.86C10.63 22.86 10.59 22.85 10.56 22.83C10.52 22.82 10.49 22.8 10.46 22.78C10.43 22.76 10.4 22.73 10.37 22.71C10.34 22.68 10.32 22.65 10.3 22.62C10.28 22.59 10.26 22.55 10.25 22.52C10.23 22.48 10.22 22.45 10.21 22.41C10.21 22.37 10.2 22.34 10.2 22.3L10.2 13.08C10.2 12.76 10.46 12.51 10.78 12.51L29.21 12.51C29.25 12.51 29.29 12.51 29.32 12.52C29.36 12.53 29.4 12.54 29.43 12.55C29.47 12.57 29.5 12.58 29.53 12.61C29.56 12.63 29.59 12.65 29.62 12.68C29.64 12.7 29.67 12.73 29.69 12.76C29.71 12.8 29.73 12.83 29.74 12.86C29.76 12.9 29.77 12.93 29.78 12.97C29.78 13.01 29.79 13.05 29.79 13.08L29.79 22.3Z" fill="#FFFFFF" fill-opacity="1.000000" fill-rule="nonzero"/>
	</g>
</svg>
