<svg width="24.000000" height="24.000000" viewBox="0 0 24 24" fill="none" xmlns="http://www.w3.org/2000/svg" xmlns:xlink="http://www.w3.org/1999/xlink">
	<desc>
			Created with Pixso.
	</desc>
	<defs/>
	<path d="M0 12C0 12.19 0 12.39 0.01 12.58C0.02 12.78 0.03 12.98 0.05 13.17C0.07 13.37 0.1 13.56 0.12 13.76C0.15 13.95 0.19 14.14 0.23 14.34C0.26 14.53 0.31 14.72 0.35 14.91C0.4 15.1 0.45 15.29 0.51 15.48C0.57 15.67 0.63 15.85 0.7 16.04C0.76 16.22 0.83 16.41 0.91 16.59C0.98 16.77 1.06 16.95 1.15 17.13C1.23 17.3 1.32 17.48 1.41 17.65C1.5 17.83 1.6 18 1.7 18.16C1.8 18.33 1.91 18.5 2.02 18.66C2.13 18.83 2.24 18.99 2.36 19.14C2.47 19.3 2.59 19.46 2.72 19.61C2.84 19.76 2.97 19.91 3.1 20.05C3.24 20.2 3.37 20.34 3.51 20.48C3.65 20.62 3.79 20.75 3.94 20.89C4.08 21.02 4.23 21.15 4.38 21.27C4.53 21.4 4.69 21.52 4.85 21.63C5 21.75 5.16 21.86 5.33 21.97C5.49 22.08 5.66 22.19 5.83 22.29C5.99 22.39 6.17 22.49 6.34 22.58C6.51 22.67 6.69 22.76 6.86 22.84C7.04 22.93 7.22 23.01 7.4 23.08C7.58 23.16 7.77 23.23 7.95 23.29C8.14 23.36 8.32 23.42 8.51 23.48C8.7 23.54 8.89 23.59 9.08 23.64C9.27 23.68 9.46 23.73 9.65 23.76C9.85 23.8 10.04 23.84 10.23 23.87C10.43 23.89 10.62 23.92 10.82 23.94C11.01 23.96 11.21 23.97 11.41 23.98C11.6 23.99 11.8 24 12 24C12.19 24 12.39 23.99 12.58 23.98C12.78 23.97 12.98 23.96 13.17 23.94C13.37 23.92 13.56 23.89 13.76 23.87C13.95 23.84 14.14 23.8 14.34 23.76C14.53 23.73 14.72 23.68 14.91 23.64C15.1 23.59 15.29 23.54 15.48 23.48C15.67 23.42 15.85 23.36 16.04 23.29C16.22 23.23 16.41 23.16 16.59 23.08C16.77 23.01 16.95 22.93 17.13 22.84C17.3 22.76 17.48 22.67 17.65 22.58C17.83 22.49 18 22.39 18.16 22.29C18.33 22.19 18.5 22.08 18.66 21.97C18.83 21.86 18.99 21.75 19.14 21.63C19.3 21.52 19.46 21.4 19.61 21.27C19.76 21.15 19.91 21.02 20.05 20.89C20.2 20.75 20.34 20.62 20.48 20.48C20.62 20.34 20.75 20.2 20.89 20.05C21.02 19.91 21.15 19.76 21.27 19.61C21.4 19.46 21.52 19.3 21.63 19.14C21.75 18.99 21.86 18.83 21.97 18.66C22.08 18.5 22.19 18.33 22.29 18.16C22.39 18 22.49 17.83 22.58 17.65C22.67 17.48 22.76 17.3 22.84 17.13C22.93 16.95 23.01 16.77 23.08 16.59C23.16 16.41 23.23 16.22 23.29 16.04C23.36 15.85 23.42 15.67 23.48 15.48C23.54 15.29 23.59 15.1 23.64 14.91C23.68 14.72 23.73 14.53 23.76 14.34C23.8 14.14 23.84 13.95 23.87 13.76C23.89 13.56 23.92 13.37 23.94 13.17C23.96 12.98 23.97 12.78 23.98 12.58C23.99 12.39 24 12.19 24 12C24 11.8 23.99 11.6 23.98 11.41C23.97 11.21 23.96 11.01 23.94 10.82C23.92 10.62 23.89 10.43 23.87 10.23C23.84 10.04 23.8 9.85 23.76 9.65C23.73 9.46 23.68 9.27 23.64 9.08C23.59 8.89 23.54 8.7 23.48 8.51C23.42 8.32 23.36 8.14 23.29 7.95C23.23 7.77 23.16 7.58 23.08 7.4C23.01 7.22 22.93 7.04 22.84 6.86C22.76 6.69 22.67 6.51 22.58 6.34C22.49 6.16 22.39 5.99 22.29 5.83C22.19 5.66 22.08 5.49 21.97 5.33C21.86 5.16 21.75 5 21.63 4.85C21.52 4.69 21.4 4.53 21.27 4.38C21.15 4.23 21.02 4.08 20.89 3.94C20.75 3.79 20.62 3.65 20.48 3.51C20.34 3.37 20.2 3.24 20.05 3.1C19.91 2.97 19.76 2.84 19.61 2.72C19.46 2.59 19.3 2.47 19.14 2.36C18.99 2.24 18.83 2.13 18.66 2.02C18.5 1.91 18.33 1.8 18.16 1.7C18 1.6 17.83 1.5 17.65 1.41C17.48 1.32 17.3 1.23 17.13 1.15C16.95 1.06 16.77 0.98 16.59 0.91C16.41 0.83 16.22 0.76 16.04 0.7C15.85 0.63 15.67 0.57 15.48 0.51C15.29 0.45 15.1 0.4 14.91 0.35C14.72 0.31 14.53 0.26 14.34 0.23C14.14 0.19 13.95 0.15 13.76 0.12C13.56 0.1 13.37 0.07 13.17 0.05C12.98 0.03 12.78 0.02 12.58 0.01C12.39 0 12.19 0 12 0C11.8 0 11.6 0 11.41 0.01C11.21 0.02 11.01 0.03 10.82 0.05C10.62 0.07 10.43 0.1 10.23 0.12C10.04 0.15 9.85 0.19 9.65 0.23C9.46 0.26 9.27 0.31 9.08 0.35C8.89 0.4 8.7 0.45 8.51 0.51C8.32 0.57 8.14 0.63 7.95 0.7C7.77 0.76 7.58 0.83 7.4 0.91C7.22 0.98 7.04 1.06 6.86 1.15C6.69 1.23 6.51 1.32 6.34 1.41C6.17 1.5 5.99 1.6 5.83 1.7C5.66 1.8 5.49 1.91 5.33 2.02C5.16 2.13 5 2.24 4.85 2.36C4.69 2.47 4.53 2.59 4.38 2.72C4.23 2.84 4.08 2.97 3.94 3.1C3.79 3.24 3.65 3.37 3.51 3.51C3.37 3.65 3.24 3.79 3.1 3.94C2.97 4.08 2.84 4.23 2.72 4.38C2.59 4.53 2.47 4.69 2.36 4.85C2.24 5 2.13 5.16 2.02 5.33C1.91 5.49 1.8 5.66 1.7 5.83C1.6 5.99 1.5 6.16 1.41 6.34C1.32 6.51 1.23 6.69 1.15 6.86C1.06 7.04 0.98 7.22 0.91 7.4C0.83 7.58 0.76 7.77 0.7 7.95C0.63 8.14 0.57 8.32 0.51 8.51C0.45 8.7 0.4 8.89 0.35 9.08C0.31 9.27 0.26 9.46 0.23 9.65C0.19 9.85 0.15 10.04 0.12 10.23C0.1 10.43 0.07 10.62 0.05 10.82C0.03 11.01 0.02 11.21 0.01 11.41C0 11.6 0 11.8 0 12Z" fill="#007DFF" fill-opacity="1.000000" fill-rule="nonzero"/>
	<path d="M17.15 13.06L6.84 13.06C6.25 13.06 5.78 12.59 5.78 12C5.78 11.41 6.25 10.93 6.84 10.93L17.15 10.93C17.74 10.93 18.21 11.41 18.21 12C18.21 12.59 17.74 13.06 17.15 13.06Z" fill="#FFFDFD" fill-opacity="1.000000" fill-rule="nonzero"/>
	<path d="M13.06 6.84L13.06 17.15C13.06 17.74 12.58 18.22 11.99 18.22C11.41 18.22 10.93 17.74 10.93 17.15L10.93 6.84C10.93 6.25 11.41 5.78 11.99 5.78C12.58 5.78 13.06 6.25 13.06 6.84Z" fill="#FFFDFD" fill-opacity="1.000000" fill-rule="nonzero"/>
</svg>
