<svg width="60.000000" height="60.000000" viewBox="0 0 60 60" fill="none" xmlns="http://www.w3.org/2000/svg" xmlns:xlink="http://www.w3.org/1999/xlink">
	<desc>
			Created with Pixso.
	</desc>
	<defs/>
	<path d="M30.84 18.33L38.72 18.33L38.72 21.67L30.84 21.67L30.84 18.33Z" fill="#FFA937" fill-opacity="1.000000" fill-rule="nonzero"/>
	<path d="M52.02 7.69L32.85 0.45C32.05 0.15 31.22 0 30.36 0C29.5 -0.01 28.67 0.14 27.86 0.44L8.38 7.7C5.74 8.69 4 11.14 4 13.88L4 38.76C4 45.61 16.87 54.14 24.39 58.54C27.65 60.44 31.72 60.48 35.02 58.64C42.81 54.29 56.39 45.71 56.39 38.76L56.39 13.86C56.39 11.13 54.66 8.69 52.02 7.69ZM23.33 20.47L23.33 40.69C23.33 41.89 22.35 42.87 21.15 42.87C19.95 42.87 18.97 41.89 18.97 40.69L18.97 27.16C18.05 28.35 16.25 28.32 15.34 27.13C15.29 27.06 15.24 26.99 15.19 26.93C14.5 26.02 14.6 24.75 15.39 23.93C17.98 21.24 19.75 18.08 21.13 14.91C21.19 14.79 21.25 14.67 21.33 14.56C21.41 14.44 21.49 14.34 21.59 14.24C21.68 14.15 21.79 14.06 21.9 13.98C22.01 13.91 22.13 13.84 22.25 13.78C22.38 13.73 22.51 13.68 22.64 13.65C22.77 13.62 22.9 13.6 23.04 13.59C23.18 13.59 23.31 13.59 23.45 13.61C23.58 13.63 23.71 13.66 23.84 13.7C25.1 14.11 25.71 15.52 25.17 16.72C24.61 17.98 23.99 19.23 23.33 20.47ZM44.73 30.18C44.63 31.25 43.67 32.04 42.59 32.04L39.07 32.04C40.33 33.8 41.92 35.47 43.62 36.81C44.63 37.61 44.75 39.1 43.9 40.07C43.89 40.08 43.88 40.1 43.87 40.11C43.01 41.09 41.5 41.17 40.57 40.25C39.28 38.97 38.04 37.44 36.96 35.8L36.96 40.78C36.96 41.98 35.98 42.96 34.78 42.96L34.53 42.96C33.32 42.96 32.35 41.98 32.35 40.78L32.35 35.99C31.15 37.65 29.81 39.13 28.36 40.37C27.4 41.2 25.94 41.07 25.14 40.08L25.1 40.03C24.27 39.02 24.48 37.53 25.54 36.76C27.32 35.46 28.95 33.8 30.24 32.05L26.63 32.05C25.42 32.05 24.45 31.01 24.57 29.78C24.68 28.71 25.64 27.91 26.72 27.91L32.35 27.91L32.35 25.67L28.92 25.67C27.59 25.67 26.52 24.6 26.52 23.27L26.52 16.72C26.52 15.4 27.59 14.32 28.92 14.32L40.93 14.32C42.25 14.32 43.33 15.4 43.33 16.72L43.33 23.27C43.33 24.6 42.25 25.67 40.93 25.67L36.96 25.67L36.96 27.91L42.68 27.91C43.88 27.91 44.85 28.95 44.73 30.18Z" fill="#FFA937" fill-opacity="1.000000" fill-rule="nonzero"/>
</svg>
