<svg width="60.000000" height="60.000000" viewBox="0 0 60 60" fill="none" xmlns="http://www.w3.org/2000/svg" xmlns:xlink="http://www.w3.org/1999/xlink">
	<desc>
			Created with Pixso.
	</desc>
	<defs/>
	<path d="M19.37 28.02L7.28 28.02C3.26 28.02 0 24.75 0 20.72L0 8.6C0 4.57 3.26 1.3 7.28 1.3L19.37 1.3C23.39 1.3 26.65 4.57 26.65 8.6L26.65 20.72C26.65 24.75 23.39 28.02 19.37 28.02ZM19.37 60L7.28 60C3.26 60 0 56.73 0 52.69L0 40.57C0 36.54 3.26 33.27 7.28 33.27L19.37 33.27C23.39 33.27 26.65 36.54 26.65 40.57L26.65 52.69C26.65 56.73 23.39 60 19.37 60ZM51.41 60L39.32 60C35.3 60 32.04 56.73 32.04 52.69L32.04 40.57C32.04 36.54 35.3 33.27 39.32 33.27L51.41 33.27C55.44 33.27 58.7 36.54 58.7 40.57L58.7 52.69C58.7 56.73 55.44 60 51.41 60ZM40.22 27.18L32.87 19.82C30.03 16.97 30.03 12.35 32.87 9.49L40.22 2.13C43.06 -0.72 47.68 -0.72 50.52 2.13L57.86 9.49C60.71 12.35 60.71 16.97 57.86 19.82L50.52 27.18C47.67 30.03 43.06 30.03 40.22 27.18Z" fill="#007DFF" fill-opacity="1.000000" fill-rule="nonzero"/>
</svg>
