<svg width="60.000000" height="60.000000" viewBox="0 0 60 60" fill="none" xmlns="http://www.w3.org/2000/svg" xmlns:xlink="http://www.w3.org/1999/xlink">
	<desc>
			Created with Pixso.
	</desc>
	<defs/>
	<path d="M23.73 44.41C10.43 40.16 4.81 26.91 4.72 26.69C4.66 26.54 4.58 26.4 4.49 26.27C4.41 26.13 4.3 26.01 4.19 25.89C4.08 25.78 3.96 25.68 3.82 25.59C3.69 25.5 3.55 25.42 3.4 25.36C3.25 25.3 3.1 25.25 2.94 25.22C2.78 25.18 2.62 25.17 2.46 25.17C2.3 25.16 2.14 25.18 1.98 25.21C1.83 25.24 1.67 25.29 1.52 25.35C1.38 25.41 1.23 25.48 1.1 25.57C0.96 25.66 0.84 25.76 0.73 25.87C0.61 25.99 0.51 26.11 0.42 26.24C0.33 26.38 0.25 26.52 0.19 26.67C0.13 26.81 0.08 26.97 0.05 27.13C0.01 27.28 0 27.44 0 27.6C-0.01 27.77 0.01 27.92 0.04 28.08C0.07 28.24 0.11 28.39 0.17 28.54C0.42 29.15 6.21 43.02 20.53 48.48L20.53 54.82C20.53 56.17 21.63 57.27 22.99 57.27C24.34 57.27 25.44 56.18 25.44 54.82L25.44 46.75C25.44 46.48 25.4 46.23 25.32 45.98C25.24 45.74 25.12 45.51 24.97 45.3C24.82 45.09 24.63 44.9 24.42 44.75C24.21 44.6 23.98 44.48 23.73 44.41ZM58.43 25.34C58.28 25.28 58.13 25.23 57.97 25.21C57.81 25.18 57.65 25.17 57.49 25.17C57.33 25.17 57.17 25.19 57.01 25.23C56.85 25.26 56.7 25.31 56.55 25.38C56.41 25.44 56.27 25.52 56.13 25.61C56 25.7 55.88 25.81 55.77 25.92C55.66 26.04 55.56 26.16 55.47 26.3C55.39 26.44 55.31 26.58 55.25 26.73C55.2 26.86 49.89 40.14 36.5 44.41C36.26 44.48 36.03 44.6 35.82 44.75C35.6 44.9 35.42 45.08 35.27 45.29C35.11 45.5 35 45.73 34.92 45.98C34.84 46.23 34.8 46.48 34.8 46.74L34.8 54.82C34.8 56.17 35.89 57.27 37.25 57.27C38.6 57.27 39.7 56.17 39.7 54.82L39.7 48.48C54.03 43.01 59.59 29.12 59.83 28.51C60.32 27.25 59.7 25.83 58.43 25.34ZM50.24 6.69C49.28 5.61 45.73 2.07 40.34 2C36.91 1.96 33.61 3.32 30.53 6.08C26.92 2.76 20.07 -0.48 12.7 4.75C9.8 6.74 6.9 11.7 7.38 17.89C7.89 24.31 12.1 33.67 29.29 41.8C29.55 41.93 29.83 41.99 30.11 41.99C30.4 41.99 30.69 41.92 30.96 41.79C46.98 33.97 51.75 25.23 52.93 19.26C54.07 13.51 52.19 8.9 50.24 6.69ZM18.99 13.19C18.81 13.27 18.01 13.82 17.64 14.92C17.17 16.36 17.58 18.24 18.83 20.37C19.45 21.42 19.1 22.77 18.06 23.39C17.93 23.46 17.8 23.52 17.67 23.57C17.53 23.61 17.39 23.65 17.25 23.67C17.1 23.69 16.96 23.69 16.81 23.69C16.67 23.68 16.53 23.66 16.39 23.62C16.25 23.58 16.11 23.53 15.98 23.47C15.85 23.41 15.73 23.33 15.61 23.25C15.5 23.16 15.39 23.06 15.3 22.95C15.2 22.85 15.12 22.73 15.04 22.6C12.59 18.44 12.85 15.31 13.5 13.43C14.34 11.02 16.12 9.58 17.4 9.09C18.53 8.65 19.81 9.21 20.25 10.34C20.3 10.48 20.34 10.62 20.36 10.76C20.39 10.9 20.4 11.04 20.39 11.19C20.39 11.33 20.37 11.47 20.34 11.62C20.31 11.76 20.27 11.89 20.21 12.02C20.15 12.16 20.08 12.28 20 12.4C19.91 12.52 19.82 12.63 19.71 12.73C19.61 12.83 19.5 12.92 19.38 12.99C19.25 13.07 19.13 13.14 18.99 13.19Z" fill="#FF5F5F" fill-opacity="1.000000" fill-rule="nonzero"/>
</svg>
