<svg width="60.000000" height="60.000000" viewBox="0 0 60 60" fill="none" xmlns="http://www.w3.org/2000/svg" xmlns:xlink="http://www.w3.org/1999/xlink">
	<desc>
			Created with Pixso.
	</desc>
	<defs/>
	<path d="M58.88 26.86L52.31 20.77L52.31 9.55C52.31 7.56 50.76 5.96 48.84 5.96C46.92 5.96 45.37 7.56 45.37 9.55L45.37 14.34L33.15 3.03C31.24 1.41 27.68 1.81 26.01 3.43L1.09 26.84C-0.31 28.15 -0.38 30.35 0.94 31.75C2.25 33.14 4.45 33.21 5.84 31.9L26.67 12.34C28.43 10.68 31.18 10.67 32.96 12.32L54.17 31.96C54.49 32.25 54.85 32.48 55.26 32.64C55.67 32.8 56.09 32.88 56.53 32.88C57.46 32.88 58.39 32.51 59.07 31.77C60.37 30.36 60.29 28.16 58.88 26.86Z" fill="#FFA937" fill-opacity="1.000000" fill-rule="nonzero"/>
	<path d="M32.19 15.47C30.9 14.3 28.85 14.3 27.56 15.48L7.38 34.76L7.38 54.86C7.38 56.64 8.9 58.08 10.78 58.08L48.97 58.08C50.84 58.08 52.36 56.64 52.36 54.86L52.36 34.67L32.19 15.47Z" fill="#FFA937" fill-opacity="1.000000" fill-rule="nonzero"/>
</svg>
