<svg width="60.000000" height="60.000000" viewBox="0 0 60 60" fill="none" xmlns="http://www.w3.org/2000/svg" xmlns:xlink="http://www.w3.org/1999/xlink">
	<desc>
			Created with Pixso.
	</desc>
	<defs/>
	<path d="M59.84 41.77C59.78 41.65 59.72 41.53 59.64 41.41C59.57 41.3 59.48 41.2 59.38 41.1C59.29 41 59.18 40.92 59.07 40.84C58.95 40.77 58.83 40.7 58.71 40.65C58.58 40.6 58.45 40.56 58.32 40.53C58.18 40.51 58.05 40.49 57.91 40.49C57.77 40.49 57.64 40.51 57.5 40.53C57.37 40.56 57.24 40.6 57.11 40.65L52.99 42.37L52.99 8.94C52.99 5.66 49.99 3 46.28 3L13.71 3C10 3 7 5.66 7 8.94L7 42.44L2.9 40.67C2.78 40.61 2.65 40.57 2.51 40.54C2.38 40.51 2.24 40.5 2.11 40.5C1.97 40.49 1.84 40.5 1.7 40.53C1.57 40.55 1.44 40.59 1.31 40.64C1.18 40.69 1.06 40.75 0.95 40.83C0.83 40.9 0.73 40.99 0.63 41.08C0.53 41.18 0.44 41.28 0.36 41.39C0.29 41.5 0.22 41.62 0.17 41.75C0.11 41.87 0.07 42 0.04 42.14C0.01 42.27 0 42.4 0 42.54C-0.01 42.68 0 42.81 0.03 42.95C0.05 43.08 0.09 43.21 0.14 43.34C0.19 43.47 0.25 43.59 0.33 43.7C0.4 43.82 0.49 43.92 0.58 44.02C0.68 44.12 0.78 44.21 0.89 44.29C1 44.36 1.12 44.43 1.25 44.48L27.22 55.73C27.58 55.88 27.94 55.99 28.31 56.07C28.69 56.15 29.06 56.19 29.45 56.19C29.83 56.19 30.21 56.16 30.58 56.09C30.96 56.01 31.32 55.9 31.67 55.76L58.71 44.49C59.77 44.05 60.28 42.83 59.84 41.77ZM19.92 25.77C18.77 25.77 17.84 24.84 17.84 23.69C17.84 22.54 18.77 21.61 19.92 21.61L25.07 21.61L20.67 17.63C19.82 16.85 19.75 15.54 20.53 14.69C20.62 14.59 20.72 14.5 20.83 14.42C20.94 14.33 21.06 14.27 21.18 14.21C21.3 14.15 21.43 14.1 21.56 14.07C21.7 14.04 21.83 14.02 21.97 14.01C22.1 14 22.24 14.01 22.37 14.03C22.51 14.05 22.64 14.08 22.77 14.13C22.9 14.18 23.02 14.23 23.14 14.3C23.25 14.38 23.36 14.46 23.46 14.55L29.97 20.45L36.53 14.54C36.63 14.45 36.74 14.37 36.86 14.3C36.98 14.23 37.1 14.17 37.23 14.13C37.36 14.08 37.49 14.05 37.62 14.03C37.76 14.01 37.9 14.01 38.03 14.01C38.17 14.02 38.3 14.04 38.43 14.07C38.57 14.11 38.7 14.15 38.82 14.21C38.94 14.27 39.06 14.34 39.17 14.43C39.28 14.51 39.38 14.6 39.47 14.7C39.56 14.8 39.64 14.91 39.71 15.03C39.78 15.15 39.84 15.27 39.88 15.4C39.93 15.53 39.96 15.66 39.98 15.79C40 15.93 40.01 16.06 40 16.2C39.99 16.34 39.97 16.47 39.94 16.6C39.9 16.74 39.86 16.86 39.8 16.99C39.74 17.11 39.67 17.23 39.59 17.34C39.5 17.45 39.41 17.55 39.31 17.64L34.89 21.62L40.07 21.62C41.22 21.62 42.15 22.55 42.15 23.7C42.15 24.84 41.22 25.78 40.07 25.78L32.07 25.78L32.07 29.12L40.07 29.12C41.22 29.12 42.15 30.05 42.15 31.2C42.15 32.34 41.22 33.28 40.07 33.28L32.07 33.28L32.07 39.34C32.07 40.48 31.14 41.42 29.99 41.42C28.85 41.42 27.91 40.48 27.91 39.34L27.91 33.28L19.92 33.28C18.77 33.28 17.84 32.34 17.84 31.2C17.84 30.05 18.77 29.12 19.92 29.12L27.92 29.12L27.92 25.78L19.92 25.78L19.92 25.77Z" fill="#007DFF" fill-opacity="1.000000" fill-rule="nonzero"/>
</svg>
