<svg width="60.000000" height="60.000000" viewBox="0 0 60 60" fill="none" xmlns="http://www.w3.org/2000/svg" xmlns:xlink="http://www.w3.org/1999/xlink">
	<desc>
			Created with Pixso.
	</desc>
	<defs/>
	<path d="M50.05 5L9.94 5C4.45 5 0 9.45 0 14.94L0 45.18C0 50.67 4.45 55.12 9.94 55.12L50.05 55.12C55.54 55.12 60 50.67 60 45.18L60 14.94C60 9.45 55.54 5 50.05 5ZM27.82 44.83L7.97 44.83C6.73 44.83 5.73 43.83 5.73 42.59C5.73 41.36 6.73 40.35 7.97 40.35L27.82 40.35C29.06 40.35 30.06 41.36 30.06 42.59C30.06 43.83 29.06 44.83 27.82 44.83ZM5.73 31.67C5.73 30.44 6.73 29.43 7.97 29.43L18.45 29.43C19.69 29.43 20.69 30.44 20.69 31.67C20.69 32.91 19.69 33.91 18.45 33.91L7.97 33.91C6.73 33.91 5.73 32.91 5.73 31.67ZM51.17 38.02L46.73 38.02L46.73 42.46C46.73 43.7 45.72 44.7 44.49 44.7C43.25 44.7 42.25 43.7 42.25 42.46L42.25 38.02L37.8 38.02C36.57 38.02 35.56 37.02 35.56 35.78C35.56 34.54 36.57 33.54 37.8 33.54L42.25 33.54L42.25 29.1C42.25 27.86 43.25 26.85 44.49 26.85C45.72 26.85 46.73 27.86 46.73 29.1L46.73 33.54L51.17 33.54C52.41 33.54 53.41 34.54 53.41 35.78C53.41 37.02 52.41 38.02 51.17 38.02ZM52.02 20.44L7.97 20.44C6.73 20.44 5.73 19.44 5.73 18.2C5.73 16.97 6.73 15.96 7.97 15.96L52.02 15.96C53.26 15.96 54.26 16.97 54.26 18.2C54.26 19.44 53.25 20.44 52.02 20.44Z" fill="#42E59B" fill-opacity="1.000000" fill-rule="nonzero"/>
</svg>
