<svg width="100.000000" height="100.000000" viewBox="0 0 100 100" fill="none" xmlns="http://www.w3.org/2000/svg" xmlns:xlink="http://www.w3.org/1999/xlink">
	<desc>
			Created with Pixso.
	</desc>
	<defs/>
	<path d="M86.63 0L13.36 0C12.92 0 12.48 0.02 12.05 0.06C11.61 0.1 11.18 0.17 10.75 0.25C10.32 0.34 9.9 0.45 9.48 0.57C9.06 0.7 8.65 0.85 8.24 1.02C7.84 1.18 7.45 1.37 7.06 1.58C6.67 1.78 6.3 2.01 5.94 2.25C5.57 2.49 5.22 2.76 4.88 3.03C4.55 3.31 4.22 3.6 3.91 3.91C3.6 4.22 3.31 4.55 3.03 4.88C2.75 5.22 2.49 5.57 2.25 5.94C2.01 6.3 1.78 6.68 1.58 7.06C1.37 7.45 1.18 7.84 1.02 8.25C0.85 8.65 0.7 9.06 0.57 9.48C0.45 9.9 0.34 10.32 0.25 10.75C0.17 11.18 0.1 11.61 0.06 12.05C0.02 12.48 0 12.92 0 13.36L0 86.63C0 87.07 0.02 87.51 0.06 87.94C0.1 88.38 0.17 88.81 0.25 89.24C0.34 89.67 0.45 90.09 0.57 90.51C0.7 90.93 0.85 91.34 1.02 91.74C1.18 92.15 1.37 92.54 1.58 92.93C1.78 93.31 2.01 93.69 2.25 94.05C2.49 94.42 2.75 94.77 3.03 95.11C3.31 95.44 3.6 95.77 3.91 96.08C4.22 96.39 4.55 96.68 4.88 96.96C5.22 97.24 5.57 97.5 5.94 97.74C6.3 97.98 6.67 98.21 7.06 98.41C7.45 98.62 7.84 98.81 8.24 98.97C8.65 99.14 9.06 99.29 9.48 99.42C9.9 99.54 10.32 99.65 10.75 99.74C11.18 99.82 11.61 99.89 12.05 99.93C12.48 99.97 12.92 99.99 13.36 100L86.63 100C87.07 99.99 87.51 99.97 87.94 99.93C88.38 99.89 88.81 99.82 89.24 99.74C89.67 99.65 90.09 99.54 90.51 99.42C90.93 99.29 91.34 99.14 91.74 98.97C92.15 98.81 92.54 98.62 92.93 98.41C93.31 98.21 93.69 97.98 94.05 97.74C94.42 97.5 94.77 97.24 95.11 96.96C95.44 96.68 95.77 96.39 96.08 96.08C96.39 95.77 96.68 95.44 96.96 95.11C97.24 94.77 97.5 94.42 97.74 94.05C97.98 93.69 98.21 93.32 98.41 92.93C98.62 92.54 98.81 92.15 98.97 91.74C99.14 91.34 99.29 90.93 99.42 90.51C99.54 90.09 99.65 89.67 99.74 89.24C99.82 88.81 99.89 88.38 99.93 87.94C99.97 87.51 99.99 87.07 100 86.63L100 13.36C99.99 12.92 99.97 12.48 99.93 12.05C99.89 11.61 99.82 11.18 99.74 10.75C99.65 10.32 99.54 9.9 99.42 9.48C99.29 9.06 99.14 8.65 98.97 8.25C98.81 7.84 98.62 7.45 98.41 7.06C98.21 6.67 97.98 6.3 97.74 5.94C97.5 5.57 97.24 5.22 96.96 4.88C96.68 4.55 96.39 4.22 96.08 3.91C95.77 3.6 95.44 3.31 95.11 3.03C94.77 2.75 94.42 2.49 94.05 2.25C93.69 2.01 93.32 1.78 92.93 1.58C92.54 1.37 92.15 1.18 91.74 1.02C91.34 0.85 90.93 0.7 90.51 0.57C90.09 0.45 89.67 0.34 89.24 0.25C88.81 0.17 88.38 0.1 87.94 0.06C87.51 0.02 87.07 0 86.63 0ZM87.1 45.57C86.88 46.84 86.57 48.09 86.16 49.32C85.75 50.54 85.24 51.73 84.65 52.88C84.05 54.02 83.37 55.12 82.61 56.16C81.84 57.2 81 58.18 80.09 59.09L76.9 62.28L50.1 88.33L22.88 61.86L20.11 59.09C19.52 58.51 18.97 57.9 18.45 57.26C17.92 56.62 17.43 55.96 16.98 55.28C16.52 54.59 16.09 53.88 15.71 53.16C15.32 52.43 14.96 51.69 14.65 50.92C14.33 50.16 14.06 49.39 13.82 48.6C13.58 47.81 13.38 47.01 13.22 46.2C13.06 45.39 12.93 44.58 12.85 43.76C12.77 42.94 12.73 42.12 12.73 41.29C12.73 40.47 12.77 39.65 12.85 38.83C12.93 38.01 13.06 37.19 13.22 36.38C13.38 35.57 13.58 34.78 13.82 33.99C14.06 33.2 14.33 32.42 14.65 31.66C14.96 30.9 15.32 30.16 15.71 29.43C16.09 28.7 16.52 28 16.98 27.31C17.43 26.62 17.92 25.96 18.45 25.33C18.97 24.69 19.52 24.08 20.11 23.5C28.6 15 41.07 16.6 50.1 21.9C59.12 16.6 71.6 15 80.09 23.5C80.8 24.21 81.46 24.96 82.08 25.75C82.7 26.54 83.27 27.36 83.79 28.22C84.31 29.08 84.78 29.96 85.2 30.88C85.61 31.79 85.97 32.72 86.28 33.68C86.58 34.64 86.83 35.61 87.01 36.59C87.2 37.58 87.33 38.57 87.4 39.58C87.47 40.58 87.48 41.58 87.43 42.58C87.38 43.58 87.27 44.58 87.1 45.57ZM52.47 30.1L50.1 31.78L47.73 30.1C44.1 27.51 39.44 25.69 35 25.69C34.16 25.67 33.33 25.73 32.5 25.88C31.67 26.02 30.86 26.25 30.08 26.56C29.3 26.87 28.55 27.25 27.85 27.71C27.14 28.17 26.49 28.69 25.89 29.28C25.49 29.67 25.12 30.09 24.77 30.52C24.41 30.95 24.08 31.39 23.77 31.85C23.46 32.32 23.18 32.79 22.91 33.28C22.65 33.78 22.41 34.28 22.2 34.79C21.99 35.31 21.8 35.83 21.64 36.36C21.48 36.89 21.34 37.43 21.23 37.98C21.12 38.53 21.04 39.08 20.99 39.63C20.93 40.18 20.9 40.74 20.9 41.29C20.9 41.85 20.93 42.41 20.99 42.96C21.04 43.51 21.12 44.06 21.23 44.61C21.34 45.16 21.48 45.7 21.64 46.23C21.8 46.76 21.99 47.28 22.2 47.8C22.41 48.31 22.65 48.81 22.91 49.31C23.18 49.8 23.46 50.27 23.77 50.74C24.08 51.2 24.41 51.64 24.77 52.07C25.12 52.5 25.49 52.92 25.89 53.31L28.62 56.04L50.1 76.93L71.16 56.46L74.31 53.31C74.7 52.92 75.07 52.5 75.43 52.07C75.78 51.64 76.11 51.2 76.42 50.73C76.73 50.27 77.02 49.8 77.28 49.3C77.54 48.81 77.78 48.31 77.99 47.8C78.21 47.28 78.39 46.76 78.55 46.23C78.72 45.69 78.85 45.16 78.96 44.61C79.07 44.06 79.15 43.51 79.2 42.96C79.26 42.41 79.29 41.85 79.29 41.29C79.29 40.74 79.26 40.18 79.2 39.63C79.15 39.08 79.07 38.53 78.96 37.98C78.85 37.43 78.72 36.89 78.55 36.36C78.39 35.83 78.21 35.31 77.99 34.79C77.78 34.28 77.54 33.78 77.28 33.28C77.02 32.79 76.73 32.32 76.42 31.85C76.11 31.39 75.78 30.95 75.43 30.52C75.07 30.09 74.7 29.67 74.31 29.28C68.4 23.37 58.85 25.56 52.47 30.1ZM58.25 54.09L54.19 54.09L54.19 58.15C54.19 58.42 54.16 58.68 54.11 58.95C54.06 59.21 53.98 59.46 53.87 59.71C53.77 59.96 53.65 60.2 53.5 60.42C53.35 60.64 53.18 60.85 52.99 61.04C52.8 61.23 52.59 61.4 52.37 61.55C52.15 61.7 51.91 61.82 51.66 61.93C51.41 62.03 51.16 62.11 50.9 62.16C50.63 62.21 50.37 62.24 50.1 62.24C49.83 62.24 49.56 62.21 49.3 62.16C49.04 62.11 48.78 62.03 48.53 61.93C48.28 61.82 48.05 61.7 47.83 61.55C47.6 61.4 47.4 61.23 47.21 61.04C47.02 60.85 46.85 60.64 46.7 60.42C46.55 60.2 46.42 59.96 46.32 59.71C46.22 59.46 46.14 59.21 46.09 58.95C46.04 58.68 46.01 58.42 46.01 58.15L46.01 54.09L41.95 54.09C41.68 54.09 41.41 54.06 41.15 54.01C40.89 53.95 40.63 53.88 40.38 53.77C40.13 53.67 39.9 53.55 39.67 53.4C39.45 53.25 39.24 53.08 39.06 52.89C38.87 52.7 38.7 52.49 38.55 52.27C38.4 52.04 38.27 51.81 38.17 51.56C38.07 51.31 37.99 51.06 37.94 50.79C37.88 50.53 37.86 50.26 37.86 50C37.86 49.73 37.88 49.46 37.94 49.2C37.99 48.93 38.07 48.68 38.17 48.43C38.27 48.18 38.4 47.95 38.55 47.72C38.7 47.5 38.87 47.29 39.06 47.1C39.25 46.91 39.45 46.74 39.68 46.6C39.9 46.45 40.13 46.32 40.38 46.22C40.63 46.11 40.89 46.04 41.15 45.99C41.41 45.93 41.68 45.91 41.95 45.91L46.01 45.91L46.01 41.84C46.01 41.58 46.03 41.31 46.09 41.05C46.14 40.78 46.22 40.53 46.32 40.28C46.42 40.03 46.55 39.8 46.7 39.57C46.85 39.35 47.01 39.14 47.2 38.95C47.39 38.76 47.6 38.59 47.82 38.44C48.05 38.3 48.28 38.17 48.53 38.07C48.78 37.96 49.03 37.89 49.3 37.83C49.56 37.78 49.83 37.75 50.1 37.75C50.36 37.75 50.63 37.78 50.89 37.83C51.16 37.89 51.41 37.96 51.66 38.07C51.91 38.17 52.14 38.3 52.37 38.44C52.59 38.59 52.8 38.76 52.99 38.95C53.18 39.14 53.35 39.35 53.49 39.57C53.64 39.8 53.77 40.03 53.87 40.28C53.98 40.53 54.05 40.78 54.11 41.05C54.16 41.31 54.18 41.58 54.18 41.84L54.18 45.91L58.25 45.91C58.51 45.91 58.78 45.93 59.04 45.98C59.31 46.04 59.56 46.11 59.81 46.22C60.06 46.32 60.3 46.45 60.52 46.59C60.74 46.74 60.95 46.91 61.14 47.1C61.33 47.29 61.5 47.5 61.65 47.72C61.8 47.95 61.92 48.18 62.03 48.43C62.13 48.68 62.21 48.93 62.26 49.2C62.31 49.46 62.34 49.73 62.34 50C62.34 50.26 62.31 50.53 62.26 50.79C62.21 51.06 62.13 51.31 62.03 51.56C61.92 51.81 61.8 52.04 61.65 52.27C61.5 52.49 61.33 52.7 61.14 52.89C60.95 53.08 60.74 53.25 60.52 53.39C60.3 53.54 60.06 53.67 59.81 53.77C59.57 53.88 59.31 53.95 59.05 54.01C58.78 54.06 58.52 54.09 58.25 54.09Z" fill="#28C1D9" fill-opacity="1.000000" fill-rule="nonzero"/>
</svg>
