<?xml version="1.0" standalone="no"?><!DOCTYPE svg PUBLIC "-//W3C//DTD SVG 1.1//EN" "http://www.w3.org/Graphics/SVG/1.1/DTD/svg11.dtd"><svg t="1726273971528" class="icon" viewBox="0 0 1024 1024" version="1.1" xmlns="http://www.w3.org/2000/svg" p-id="3532" xmlns:xlink="http://www.w3.org/1999/xlink" width="200" height="200"><path d="M595.1488 404.650667c0 18.602667-15.36 33.553067-34.269867 33.553066H312.797867a33.792 33.792 0 0 1-34.2016-33.553066v-177.834667c0-18.5344 15.36-33.6896 34.2016-33.6896h248.2176a33.962667 33.962667 0 0 1 34.269866 33.6896v177.834667h-0.136533z m291.976533-127.931734s0.477867-10.990933-12.5952-22.528c-25.668267-22.664533-69.2224-60.3136-82.466133-73.386666-7.4752-7.406933-24.6784-11.605333-36.113067 0.170666-10.922667 11.264-6.212267 26.0096 1.911467 33.553067 11.434667 10.717867 37.376 31.9488 52.053333 47.8208-12.219733 14.848-32.529067 30.481067-45.1584 44.168533-1.6384 1.774933-1.570133 3.822933-1.570133 4.676267 0.136533 7.850667 0.341333 13.312 0.273067 16.554667-0.1024 2.935467 3.345067 3.925333 4.9152 3.925333h64.1024c4.266667 0 5.358933 4.266667 5.358933 4.266667v405.060266c0 22.6304-12.4928 29.696-25.361067 29.696-12.8 0-26.555733-7.168-26.555733-29.696v-331.229866c0-29.969067-3.345067-43.6224-37.888-45.4656-8.4992-0.443733-42.3936-0.068267-60.859733 0V153.258667c0-27.886933-23.04-50.3808-51.4048-50.3808H239.3088c-28.398933 0-51.4048 22.528-51.4048 50.3808v676.932266h-29.354667a20.855467 20.855467 0 0 0-21.0944 20.7872v30.481067c0 11.537067 9.454933 21.742933 21.0944 21.742933h557.021867c11.605333 0 21.0944-10.205867 21.0944-21.742933v-30.481067a20.923733 20.923733 0 0 0-21.0944-20.821333h-28.4672V413.149867h35.4304c12.629333 0 13.653333 12.219733 13.653333 12.219733v318.8736c0 81.3056 68.608 82.1248 76.219734 82.1248 10.274133 0 74.6496 0 74.6496-81.169067V276.718933h0.068266z" fill="#FDB44F" p-id="3533"></path></svg>