<?xml version="1.0" standalone="no"?><!DOCTYPE svg PUBLIC "-//W3C//DTD SVG 1.1//EN" "http://www.w3.org/Graphics/SVG/1.1/DTD/svg11.dtd"><svg t="1726273944376" class="icon" viewBox="0 0 1035 1024" version="1.1" xmlns="http://www.w3.org/2000/svg" p-id="2500" xmlns:xlink="http://www.w3.org/1999/xlink" width="202.1484375" height="200"><path d="M789.665454 1024H245.970464a116.649306 116.649306 0 0 1-116.521308-116.521307v-424.86971H28.927663A74.111135 74.111135 0 0 1 0 425.308318a74.2818 74.2818 0 0 1 28.927663-57.471329L447.994773 23.777003a109.69472 109.69472 0 0 1 69.801853-23.807723 109.566722 109.566722 0 0 1 69.759186 23.807723l419.109777 344.059986a74.239134 74.239134 0 0 1 29.012995 57.471329 74.111135 74.111135 0 0 1-29.012995 57.300665H906.229427v424.86971A116.691972 116.691972 0 0 1 789.665454 1024zM334.929426 644.271097v192.979082h63.017931v-190.504444c12.501187 13.994503 25.258372 29.140993 38.015557 45.012808l41.98351-40.532861v109.524056h-43.98882v62.975265h326.52419V760.749738h-30.50631V365.746346h-252.02906v280.743392a1484.782678 1484.782678 0 0 0-62.463271-56.746005l-17.49313 17.493129v-58.495317h65.023242v-59.519306H397.990023v-62.24994c20.906423-2.943966 42.282173-6.357259 63.529926-10.239881l-15.530486-62.463271a1518.019623 1518.019623 0 0 1-180.008566 20.949089 459.72797 459.72797 0 0 1 9.002562 63.999253c20.053099-1.322651 40.234197-2.943966 59.988633-4.778611v54.740695H265.980897v59.732636h56.532674a602.147642 602.147642 0 0 1-59.519306 118.995945 769.868352 769.868352 0 0 1 24.021053 83.967021A762.231107 762.231107 0 0 0 334.929426 644.271097z m329.084161 116.26531h-119.977267v-71.764496h120.019933v71.977827z m0-132.009126h-119.977267V558.938759h120.019933v69.972517z m0-129.961151h-119.977267v-69.801852h120.019933v69.972517z" fill="#A4E9F9" p-id="2501"></path></svg>