<svg width="80.000000" height="80.000000" viewBox="0 0 80 80" fill="none" xmlns="http://www.w3.org/2000/svg" xmlns:xlink="http://www.w3.org/1999/xlink">
	<desc>
			Created with Pixso.
	</desc>
	<defs>
		<filter id="filter_20_2693_dd" x="10.968750" y="8.078125" width="61.070312" height="66.843750" filterUnits="userSpaceOnUse" color-interpolation-filters="sRGB">
			<feFlood flood-opacity="0" result="BackgroundImageFix"/>
			<feColorMatrix in="SourceAlpha" type="matrix" values="0 0 0 0 0 0 0 0 0 0 0 0 0 0 0 0 0 0 127 0" result="hardAlpha"/>
			<feOffset dx="3" dy="3"/>
			<feGaussianBlur stdDeviation="0"/>
			<feComposite in2="hardAlpha" operator="out" k2="-1" k3="1"/>
			<feColorMatrix type="matrix" values="0 0 0 0 1 0 0 0 0 0.90588 0 0 0 0 0.90588 0 0 0 1 0"/>
			<feBlend mode="normal" in2="BackgroundImageFix" result="effect_dropShadow_1"/>
			<feBlend mode="normal" in="SourceGraphic" in2="effect_dropShadow_1" result="shape"/>
		</filter>
		<clipPath id="clip20_2692">
			<rect width="80.000000" height="80.000000" fill="white" fill-opacity="0"/>
		</clipPath>
	</defs>
	<g clip-path="url(#clip20_2692)">
		<g filter="url(#filter_20_2693_dd)">
			<path d="M37.46 11.04C37.42 9.92 37.13 9.43 36.77 9.07C36.41 8.7 35.98 8.52 35.5 8.52L14.5 8.47L14.5 17.48L37.46 17.48L37.46 11.04L37.46 11.04ZM29.81 16.19L20.88 16.19L20.88 14.9L29.81 14.9L29.81 16.19ZM29.81 12.33L20.88 12.33L20.88 11.04L29.81 11.04L29.81 12.33ZM38.74 23.92C38.74 23.4 38.43 23.18 38.07 22.83C37.42 22.22 37.96 22.63 37.46 22.63L27.25 22.63L27.25 23.92L32.35 23.92C32.77 23.92 33.63 24.79 33.63 25.21L33.63 27.78L32.35 27.78L32.35 25.21L27.25 25.21L27.25 27.78L29.81 31.64L27.25 36.79L32.35 36.79L33.03 35.17L33.63 36.79L38.73 36.79L36.18 31.64L38.74 27.78L38.74 23.92ZM20.88 36.78L25.98 36.78L25.98 34.21L27.25 34.21L27.25 31.64L25.98 31.64L25.98 21.34L38.74 21.34L38.74 18.77L11.95 18.77L11.95 21.34L13.22 21.34L13.22 31.64L11.95 31.64L11.95 34.21L20.88 34.21L20.88 36.78ZM18.32 21.34L20.88 21.34L20.88 23.91L18.32 23.91L18.32 21.34ZM18.32 25.2L20.88 25.2L20.88 27.77L18.32 27.77L18.32 25.2ZM18.32 31.64L18.32 29.06L20.88 29.06L20.88 31.64L18.32 31.64ZM42.59 18.43L47.73 18.43L46.94 13.64L41.81 13.64L42.59 18.43ZM54.07 18.43L54.89 13.64L49.78 13.64L48.99 18.43L54.07 18.43ZM55.32 10.85L51.63 10.85L51.63 8.07L45.09 8.07L45.09 10.85L41.39 10.85L41.39 12.84L55.33 12.84L55.32 10.85ZM45.44 27.2L41.28 27.2L41.1 33.24L45.26 33.24L45.44 27.2ZM62.31 16.69L62.31 10.62L68.61 10.14L68.61 8.13L56.61 8.96L56.61 36.36L62.31 36.36L62.31 18.7L63.19 18.7L63.19 36.4L68.15 36.4L68.15 18.7L69.03 18.7L69.03 16.68L62.31 16.68L62.31 16.69ZM51.54 27.2L51.75 33.24L56.03 33.24L55.73 27.2L51.54 27.2ZM45.73 23.97L41.12 23.97L41.12 26.01L45.73 26.01L45.73 33.97L44.53 33.97L44.53 36.31L51.07 36.31L51.07 26.01L55.85 26.01L55.85 23.97L51.07 23.97L51.07 21.37L55.5 21.37L55.5 19.33L40.92 19.33L40.92 21.37L45.73 21.37L45.73 23.97ZM27.71 44.21L32.91 58.48L39.57 58.48L34.17 44.21L27.71 44.21ZM27.83 60.22L30.21 67.59L21.75 68.71L27.77 52.94L21.09 52.94L14.6 69.66L13.08 69.87L13.58 71.85L30.83 69.52L31.57 71.77L38.52 71.77L34.44 60.23L27.83 60.22ZM23.52 44.21L16.75 44.21L10.96 58.48L17.92 58.48L23.52 44.21ZM64.77 59.84L43.21 59.84L43.21 71.92L66.59 71.92L66.59 61.71C66.59 61.19 66.41 60.75 66.05 60.39C65.68 60.02 65.26 59.84 64.77 59.84ZM59.37 69.93L50.42 69.93L50.42 61.89L58.76 61.89C59.17 61.89 59.38 62.09 59.38 62.51L59.38 69.93L59.37 69.93ZM59.49 49.96L66.17 49.96L66.17 47.92L59.49 47.92L59.49 43.65L51.98 43.65L51.98 47.92L49.64 47.92L50.31 44.68L43.91 44.68L41.85 54.1L48.34 54.1L49.19 49.96L51.98 49.96L51.98 55.55L41.01 55.55L41.01 57.5L68.62 57.5L68.62 55.55L59.49 55.55L59.49 49.96Z" fill="#FF3C3F" fill-opacity="1.000000" fill-rule="nonzero"/>
		</g>
	</g>
</svg>
