<svg width="60.000000" height="60.000000" viewBox="0 0 60 60" fill="none" xmlns="http://www.w3.org/2000/svg" xmlns:xlink="http://www.w3.org/1999/xlink">
	<desc>
			Created with Pixso.
	</desc>
	<defs/>
	<path d="M30 27.3C29.25 27.3 28.12 27.3 27.37 26.93L3.37 20.18C1.12 19.43 0 17.55 0 15.68C0 13.8 1.12 11.93 3 11.18L27.37 4.43C28.87 4.05 31.12 3.68 32.62 4.43L56.62 11.18C58.87 11.93 60 13.8 60 15.68C60 17.55 58.87 19.43 57 20.18L32.62 26.93C31.87 27.3 30.75 27.3 30 27.3Z" fill="#28C1D9" fill-opacity="1.000000" fill-rule="nonzero"/>
	<path d="M42.37 49.43L17.62 49.43C13.12 49.43 9.37 45.68 9.37 41.18L9.37 26.93C9.37 26.18 9.75 25.8 10.12 25.43C10.5 25.05 11.25 25.05 11.62 25.05L29.62 30.3C30.37 30.68 31.12 30.68 31.87 30.3L48 25.05C48.75 25.05 49.12 25.05 49.5 25.43C49.87 25.8 50.25 26.18 50.25 26.93L50.25 41.18C50.62 45.68 46.87 49.43 42.37 49.43Z" fill="#28C1D9" fill-opacity="1.000000" fill-rule="nonzero"/>
	<path d="M56.25 47.55C55.12 47.55 54.37 46.8 54.37 45.68L54.37 23.18C54.37 22.05 55.12 21.3 56.25 21.3C57.37 21.3 58.12 22.05 58.12 23.18L58.12 45.68C58.12 46.8 57.37 47.55 56.25 47.55Z" fill="#28C1D9" fill-opacity="1.000000" fill-rule="nonzero"/>
	<path d="M53.25 52.05C53.25 52.25 53.26 52.45 53.3 52.64C53.34 52.83 53.4 53.02 53.47 53.2C53.55 53.38 53.64 53.56 53.75 53.72C53.86 53.88 53.98 54.04 54.12 54.17C54.26 54.31 54.41 54.44 54.58 54.55C54.74 54.66 54.91 54.75 55.1 54.82C55.28 54.9 55.47 54.96 55.66 55C55.85 55.03 56.05 55.05 56.25 55.05C56.44 55.05 56.64 55.03 56.83 55C57.02 54.96 57.21 54.9 57.39 54.82C57.58 54.75 57.75 54.66 57.91 54.55C58.08 54.44 58.23 54.31 58.37 54.17C58.51 54.04 58.63 53.88 58.74 53.72C58.85 53.56 58.94 53.38 59.02 53.2C59.09 53.02 59.15 52.83 59.19 52.64C59.23 52.45 59.25 52.25 59.25 52.05C59.25 51.86 59.23 51.66 59.19 51.47C59.15 51.27 59.09 51.09 59.02 50.91C58.94 50.72 58.85 50.55 58.74 50.39C58.63 50.22 58.51 50.07 58.37 49.93C58.23 49.79 58.08 49.67 57.91 49.56C57.75 49.45 57.58 49.36 57.39 49.28C57.21 49.21 57.02 49.15 56.83 49.11C56.64 49.07 56.44 49.05 56.25 49.05C56.05 49.05 55.85 49.07 55.66 49.11C55.47 49.15 55.28 49.21 55.1 49.28C54.91 49.36 54.74 49.45 54.58 49.56C54.41 49.67 54.26 49.79 54.12 49.93C53.98 50.07 53.86 50.22 53.75 50.39C53.64 50.55 53.55 50.72 53.47 50.91C53.4 51.09 53.34 51.27 53.3 51.47C53.26 51.66 53.25 51.86 53.25 52.05Z" fill="#28C1D9" fill-opacity="1.000000" fill-rule="nonzero"/>
</svg>
