<svg width="16.000000" height="16.000000" viewBox="0 0 16 16" fill="none" xmlns="http://www.w3.org/2000/svg" xmlns:xlink="http://www.w3.org/1999/xlink">
	<desc>
			Created with Pixso.
	</desc>
	<defs>
		<clipPath id="clip2_2105">
			<rect width="16.000000" height="16.000000" fill="white" fill-opacity="0"/>
		</clipPath>
	</defs>
	<g clip-path="url(#clip2_2105)">
		<path d="M0 7.99C0 6.74 -0.01 5.49 0 4.24C-0.01 3.63 0.07 3.03 0.22 2.45C0.54 1.2 1.35 0.47 2.59 0.18C3.21 0.05 3.85 -0.02 4.48 0C6.88 0 9.28 0 11.68 0C12.28 -0.01 12.88 0.06 13.47 0.2C14.75 0.51 15.52 1.32 15.81 2.59C15.94 3.2 16 3.81 15.99 4.42C15.99 6.85 15.99 9.27 15.99 11.69C16 12.29 15.93 12.89 15.79 13.48C15.48 14.75 14.66 15.51 13.39 15.81C12.77 15.94 12.14 16 11.5 15.99C9.11 15.99 6.73 15.99 4.34 15.99C3.73 16 3.12 15.93 2.53 15.79C1.25 15.48 0.48 14.67 0.19 13.39C0.04 12.74 0 12.09 0 11.43C0 10.28 0 9.14 0 7.99Z" fill="#FFFFFF" fill-opacity="0" fill-rule="evenodd"/>
		<circle cx="8.000000" cy="8.000000" r="8.000000" fill="#FFFFFF" fill-opacity="0"/>
		<path d="M1.89 5.98L1.91 6C1.91 6.42 1.58 6.75 1.16 6.75C0.74 6.75 0.41 6.42 0.41 6L0.43 5.98L1.89 5.98ZM5.97 0.43L5.99 0.41C6.41 0.41 6.74 0.74 6.74 1.16C6.74 1.58 6.41 1.91 5.99 1.91L5.97 1.89L5.97 0.43ZM5.97 14.1L5.99 14.08C6.41 14.08 6.74 14.41 6.74 14.83C6.74 15.25 6.41 15.58 5.99 15.58L5.97 15.56L5.97 14.1ZM0.43 10.02L0.41 10C0.41 9.58 0.74 9.25 1.16 9.25C1.58 9.25 1.91 9.58 1.91 10L1.89 10.02L0.43 10.02ZM15.56 5.98L15.58 6C15.58 6.42 15.25 6.75 14.83 6.75C14.41 6.75 14.08 6.42 14.08 6L14.1 5.98L15.56 5.98ZM10.02 1.89L9.99 1.91C9.57 1.91 9.24 1.58 9.24 1.16C9.24 0.74 9.57 0.41 9.99 0.41L10.02 0.43L10.02 1.89ZM10.02 15.56L9.99 15.58C9.57 15.58 9.24 15.25 9.24 14.83C9.24 14.41 9.57 14.08 9.99 14.08L10.02 14.1L10.02 15.56ZM14.1 10.02L14.08 10C14.08 9.58 14.41 9.25 14.83 9.25C15.25 9.25 15.58 9.58 15.58 10L15.56 10.02L14.1 10.02Z" fill="#000000" fill-opacity="0" fill-rule="nonzero"/>
		<path d="M1.16 6L1.16 3.16C1.16 2.06 2.05 1.16 3.16 1.16L5.99 1.16M5.99 14.83L3.16 14.83C2.05 14.83 1.16 13.93 1.16 12.83L1.16 10M14.83 6L14.83 3.16C14.83 2.06 13.93 1.16 12.83 1.16L9.99 1.16M9.99 14.83L12.83 14.83C13.93 14.83 14.83 13.93 14.83 12.83L14.83 10" stroke="#191919" stroke-opacity="1.000000" stroke-width="1.500000" stroke-linejoin="round" stroke-linecap="round"/>
		<path d="M2.18 8.72L2.16 8.75C1.74 8.75 1.41 8.41 1.41 8C1.41 7.58 1.74 7.25 2.16 7.25L2.18 7.27L2.18 8.72ZM13.81 7.27L13.83 7.25C14.25 7.25 14.58 7.58 14.58 8C14.58 8.41 14.25 8.75 13.83 8.75L13.81 8.72L13.81 7.27Z" fill="#000000" fill-opacity="0" fill-rule="nonzero"/>
		<path d="M2.16 8L13.83 8" stroke="#191919" stroke-opacity="1.000000" stroke-width="1.500000" stroke-linejoin="round" stroke-linecap="round"/>
		<path d="M13.66 3.5L13.66 6C13.66 6.46 14.03 6.83 14.49 6.83C14.96 6.83 15.33 6.46 15.33 6L15.33 3.5C15.33 3.1 15.26 2.74 15.12 2.41C14.98 2.07 14.78 1.77 14.5 1.49C14.22 1.21 13.92 1.01 13.58 0.87C13.25 0.73 12.89 0.66 12.49 0.66L9.99 0.66C9.53 0.66 9.16 1.03 9.16 1.5C9.16 1.96 9.53 2.33 9.99 2.33L12.49 2.33C12.88 2.33 13.17 2.42 13.37 2.62C13.56 2.81 13.66 3.11 13.66 3.5ZM0.66 3.5L0.66 6C0.66 6.46 1.03 6.83 1.49 6.83C1.96 6.83 2.33 6.46 2.33 6L2.33 3.5C2.33 3.11 2.42 2.81 2.62 2.62C2.81 2.42 3.1 2.33 3.49 2.33L5.99 2.33C6.46 2.33 6.83 1.96 6.83 1.5C6.83 1.03 6.46 0.66 5.99 0.66L3.49 0.66C3.1 0.66 2.74 0.73 2.4 0.87C2.07 1.01 1.76 1.21 1.49 1.49C1.21 1.77 1 2.07 0.87 2.41C0.73 2.74 0.66 3.1 0.66 3.5ZM2.33 10C2.33 9.53 1.96 9.16 1.49 9.16C1.03 9.16 0.66 9.53 0.66 10L0.66 12.5C0.66 12.89 0.73 13.25 0.87 13.58C1 13.92 1.21 14.22 1.49 14.5C1.76 14.78 2.07 14.98 2.4 15.12C2.74 15.26 3.1 15.33 3.49 15.33L5.99 15.33C6.46 15.33 6.83 14.96 6.83 14.5C6.83 14.03 6.46 13.66 5.99 13.66L3.49 13.66C3.1 13.66 2.81 13.56 2.62 13.37C2.42 13.18 2.33 12.88 2.33 12.5L2.33 10ZM15.33 10C15.33 9.53 14.96 9.16 14.49 9.16C14.03 9.16 13.66 9.53 13.66 10L13.66 12.5C13.66 12.88 13.56 13.18 13.37 13.37C13.17 13.56 12.88 13.66 12.49 13.66L9.99 13.66C9.53 13.66 9.16 14.03 9.16 14.5C9.16 14.96 9.53 15.33 9.99 15.33L12.49 15.33C12.89 15.33 13.25 15.26 13.58 15.12C13.92 14.98 14.22 14.78 14.5 14.5C14.78 14.22 14.98 13.92 15.12 13.58C15.26 13.25 15.33 12.89 15.33 12.5L15.33 10Z" fill="#FFFFFF" fill-opacity="0" fill-rule="evenodd"/>
		<path d="M3.16 7.16L12.83 7.16C13.29 7.16 13.66 7.53 13.66 8C13.66 8.46 13.29 8.83 12.83 8.83L3.16 8.83C2.7 8.83 2.33 8.46 2.33 8C2.33 7.53 2.7 7.16 3.16 7.16Z" fill="#FFFFFF" fill-opacity="0" fill-rule="evenodd"/>
	</g>
</svg>
