<svg width="12.000000" height="14.369934" viewBox="0 0 12 14.3699" fill="none" xmlns="http://www.w3.org/2000/svg" xmlns:xlink="http://www.w3.org/1999/xlink">
	<desc>
			Created with Pixso.
	</desc>
	<defs/>
	<path d="M0 8.72C0 7.59 0.56 6.05 0.91 5.18C0.97 5.03 1.22 5.08 1.24 5.24C1.26 5.37 1.28 5.51 1.32 5.63C1.45 6.11 1.75 6.44 1.75 6.44C1.75 6.44 2.75 5.09 3.23 3.47C3.62 2.16 3.66 0.68 3.67 0.15C3.67 0.04 3.76 -0.03 3.86 0C4.47 0.2 6.35 0.87 7.67 2.1C9.26 3.57 10.03 5.83 10.03 5.83C10.03 5.83 10.3 5.42 10.4 4.93C10.43 4.74 10.45 4.55 10.45 4.38C10.46 4.23 10.65 4.16 10.73 4.29C11.18 5.05 12 6.69 12 8.72C12 11.31 10.35 13.51 8.05 14.35C7.95 14.39 7.85 14.31 7.86 14.2C7.94 13.49 8.13 11.96 7.76 10.96C7.43 10.05 6.73 9.43 6.28 9.12C6.11 8.99 5.86 9.12 5.82 9.34C5.76 9.65 5.64 10.08 5.4 10.53C5.12 11.03 4.53 11.44 4.35 11.96C3.98 12.97 4.06 13.75 4.13 14.2C4.15 14.31 4.05 14.39 3.94 14.36C1.64 13.52 0 11.31 0 8.72Z" fill="#FFFFFF" fill-opacity="1.000000" fill-rule="evenodd"/>
</svg>
