<?xml version="1.0" standalone="no"?><!DOCTYPE svg PUBLIC "-//W3C//DTD SVG 1.1//EN"
        "http://www.w3.org/Graphics/SVG/1.1/DTD/svg11.dtd">
<svg t="1737359885920" class="icon" viewBox="0 0 1042 1024" version="1.1" xmlns="http://www.w3.org/2000/svg" p-id="2678"
     xmlns:xlink="http://www.w3.org/1999/xlink" width="32" height="48">
    <path d="M512.124675 0C230.981818 0 0.124675 228.571429 0.124675 512s228.571429 512 512 512 512-228.571429 512-512S793.267532 0 512.124675 0z m0 985.142857c-260.571429 0-475.428571-212.571429-475.428571-475.428571S249.267532 36.571429 512.124675 36.571429s475.428571 212.571429 475.428572 475.428571-214.857143 473.142857-475.428572 473.142857z"
          p-id="2679" fill="#8a8a8a"></path>
    <path d="M763.553247 320l-342.857143 342.857143-162.285714-164.571429c-6.857143-6.857143-18.285714-6.857143-25.142858 0-6.857143 6.857143-6.857143 18.285714 0 25.142857l176 176c4.571429 4.571429 9.142857 4.571429 13.714286 4.571429s9.142857-2.285714 13.714286-4.571429l354.285714-354.285714c6.857143-6.857143 6.857143-18.285714 0-25.142857-6.857143-6.857143-18.285714-6.857143-27.428571 0z"
          p-id="2680" fill="#8a8a8a"></path>
</svg>