<svg width="44.000000" height="44.000000" viewBox="0 0 44 44" fill="none" xmlns="http://www.w3.org/2000/svg"
>
    <desc>
        Created with Pixso.
    </desc>
    <defs/>
    <mask id="mask28_5905" mask-type="alpha" maskUnits="userSpaceOnUse" x="0.000000" y="0.000000" width="44.000000"
          height="44.000000">
        <circle id="蒙版" cx="22.000000" cy="22.000000" r="22.000000" fill="#D8D8D8" fill-opacity="1.000000"/>
        <circle id="蒙版" cx="22.000000" cy="22.000000" r="21.500000" stroke="#979797" stroke-opacity="0"
                stroke-width="1.000000"/>
    </mask>
    <circle id="蒙版" cx="22.000000" cy="22.000000" r="22.000000" fill="#D8D8D8" fill-opacity="1.000000"/>
    <circle id="蒙版" cx="22.000000" cy="22.000000" r="21.500000" stroke="#979797" stroke-opacity="0"
            stroke-width="1.000000"/>
    <mask id="mask_28_5931" fill="white">
        <path id="形状结合"
              d="M19.7898 21.6191C18.55 20.4219 17.72 18.2476 17.72 15.7773C17.72 13.415 19.6355 11.498 22.0005 11.498C24.364 11.498 26.2798 13.415 26.2798 15.7773C26.2798 18.5537 25.53 20.5273 24.3894 21.6157L29.0437 24.687C30.0774 25.3428 30.8276 26.3604 31.1484 27.541L31.8484 30.1064C32.1775 31.314 31.2698 32.5015 30.0203 32.5015L13.981 32.5015C12.7302 32.5015 11.8228 31.314 12.1516 30.1064L12.8516 27.541C13.1726 26.3604 13.9238 25.3428 14.9575 24.687L19.7898 21.6191Z"
              clip-rule="evenodd" fill="" fill-opacity="1.000000" fill-rule="evenodd"/>
    </mask>
    <path id="形状结合"
          d="M19.7898 21.6191C18.55 20.4219 17.72 18.2476 17.72 15.7773C17.72 13.415 19.6355 11.498 22.0005 11.498C24.364 11.498 26.2798 13.415 26.2798 15.7773C26.2798 18.5537 25.53 20.5273 24.3894 21.6157L29.0437 24.687C30.0774 25.3428 30.8276 26.3604 31.1484 27.541L31.8484 30.1064C32.1775 31.314 31.2698 32.5015 30.0203 32.5015L13.981 32.5015C12.7302 32.5015 11.8228 31.314 12.1516 30.1064L12.8516 27.541C13.1726 26.3604 13.9238 25.3428 14.9575 24.687L19.7898 21.6191Z"
          clip-rule="evenodd" fill="#000000" fill-opacity="0.333333" fill-rule="evenodd" mask="url(#mask_28_5931)"/>
    <path id="形状结合" d="" clip-rule="evenodd" fill="#979797" fill-opacity="0.000000" fill-rule="evenodd"/>
</svg>
