<svg width="12.000000" height="24.000000" viewBox="0 0 12 24" fill="none" xmlns="http://www.w3.org/2000/svg" xmlns:xlink="http://www.w3.org/1999/xlink">
	<desc>
			Created with Pixso.
	</desc>
	<defs/>
	<path id="矩形备份" d="M2 9L10 9C10.55 9 11 9.44 11 10C11 10.22 10.92 10.44 10.78 10.62L6.78 15.62C6.43 16.05 5.8 16.12 5.37 15.78C5.31 15.73 5.26 15.68 5.21 15.62L1.21 10.62C0.87 10.19 0.94 9.56 1.37 9.21C1.55 9.07 1.77 9 2 9Z" fill="#000000" fill-opacity="0" fill-rule="evenodd"/>
	<path id="矩形备份" d="" fill="#979797" fill-opacity="0" fill-rule="evenodd"/>
	<mask id="mask68_7113" maskUnits="userSpaceOnUse" x="1.000000" y="9.000000" width="10.000000" height="7.000000">
		<path id="矩形备份" d="M2 9L10 9C10.55 9 11 9.44 11 10C11 10.22 10.92 10.44 10.78 10.62L6.78 15.62C6.43 16.05 5.8 16.12 5.37 15.78C5.31 15.73 5.26 15.68 5.21 15.62L1.21 10.62C0.87 10.19 0.94 9.56 1.37 9.21C1.55 9.07 1.77 9 2 9Z" fill="#C4C4C4" fill-opacity="1.000000" fill-rule="evenodd"/>
	</mask>
	<g mask="url(#mask68_7113)">
		<rect id="color/#000000" width="12.000000" height="24.000000" fill="#000000" fill-opacity="1.000000"/>
	</g>
</svg>
