<svg width="80.000000" height="80.000000" viewBox="0 0 80 80" fill="none" xmlns="http://www.w3.org/2000/svg" xmlns:xlink="http://www.w3.org/1999/xlink">
	<desc>
			Created with Pixso.
	</desc>
	<defs>
		<clipPath id="clip230_8424">
			<rect id="ic_public_todo_filled" width="80.000000" height="80.000000" fill="white" fill-opacity="0"/>
		</clipPath>
	</defs>
	<g clip-path="url(#clip230_8424)">
		<path id="path-1" d="M40 3.33C60.25 3.33 76.66 19.74 76.66 40C76.66 60.25 60.25 76.66 40 76.66C19.75 76.66 3.33 60.25 3.33 40C3.33 19.74 19.75 3.33 40 3.33ZM60.62 29.06C59.64 28.08 58.06 28.08 57.08 29.06L38.43 47.71C37.45 48.59 35.84 48.66 34.9 47.71L24.57 37.39C23.59 36.52 21.98 36.45 21.04 37.39C20.59 37.84 20.35 38.41 20.31 38.99L20.31 39.34L20.36 39.68C20.46 40.14 20.68 40.57 21.04 40.93L32.54 52.43C34.83 54.57 38.56 54.66 40.79 52.43L60.62 32.6C61.49 31.61 61.56 30 60.62 29.06Z" fill="#64BB5C" fill-opacity="1.000000" fill-rule="nonzero"/>
		<path id="path-1" d="M76.66 40C76.66 60.25 60.25 76.66 40 76.66C19.75 76.66 3.33 60.25 3.33 40C3.33 19.74 19.75 3.33 40 3.33C60.25 3.33 76.66 19.74 76.66 40ZM57.08 29.06L38.43 47.71C37.45 48.59 35.84 48.66 34.9 47.71L24.57 37.39C23.59 36.52 21.98 36.45 21.04 37.39C20.59 37.84 20.35 38.41 20.31 38.99L20.31 39.34L20.36 39.68C20.46 40.14 20.68 40.57 21.04 40.93L32.54 52.43C34.83 54.57 38.56 54.66 40.79 52.43L60.62 32.6C61.49 31.61 61.56 30 60.62 29.06C59.64 28.08 58.06 28.08 57.08 29.06Z" stroke="#000000" stroke-opacity="0" stroke-width="3.333333"/>
	</g>
</svg>
