<?xml version="1.0" standalone="no"?><!DOCTYPE svg PUBLIC "-//W3C//DTD SVG 1.1//EN"
        "http://www.w3.org/Graphics/SVG/1.1/DTD/svg11.dtd">
<svg t="1737081826081" class="icon" viewBox="0 0 4279 1024" version="1.1" xmlns="http://www.w3.org/2000/svg" p-id="8728"
     xmlns:xlink="http://www.w3.org/1999/xlink" width="30" height="20">
    <path d="M541.63279 781.729185a58.608198 58.608198 0 0 1-31.706074 24.778272c-13.147654 5.107358-24.32316 13.046519-33.475951 23.868049-6.877235 9.102222-13.754469 13.653333-20.631703 13.653334-4.551111-1.112494-9.456198-5.410765-14.563556-12.79368-4.601679-8.545975-6.573827-15.372642-6.01758-20.48 0.556247-3.994864-4.298272-11.934025-14.614124-23.868049-8.040296-8.545975-10.872099-14.765827-8.545975-18.811259 1.112494-3.994864 5.410765-5.663605 12.844247-5.107358 11.428346-0.556247 20.024889-1.112494 25.739062-1.719309 7.433481-1.112494 12.288-3.691457 14.614123-7.686321 1.719309-3.994864 2.831802-10.265284 3.438618-18.760691 0.556247-48.949728 0.859654-89.606321 0.859654-122.070914-36.054914 15.372642-63.513284 28.166321-82.375111 38.431605 0 1.112494 0.25284 2.528395 0.859654 4.247704v24.778272c-1.163062 8.495407-0.910222 20.783407 0.859654 36.712296 1.719309 12.54084 1.719309 22.452148 0 29.835062-1.112494 7.989728-5.461333 15.372642-13.046518 22.199308-5.815309 6.27042-10.720395 9.102222-14.765827 8.545975a12.186864 12.186864 0 0 1-11.32721-9.405629 49.809383 49.809383 0 0 0-10.315852-17.041383 18.356148 18.356148 0 0 1-5.157926-11.934025c0-14.20958 2.022716-25.890765 5.967012-34.992987 3.994864-12.490272 5.714173-21.592494 5.157926-27.306667v-5.967012c-5.714173 0-11.934025-0.859654-18.811259-2.578963-6.27042-1.719309-13.956741-6.27042-23.058963-13.653334a37.167407 37.167407 0 0 0-8.545975-7.686321c-6.27042-5.663605-10.518123-13.906173-12.793679-24.727703-1.112494-10.265284 3.691457-17.34479 14.512987-21.339655 11.934025-5.663605 33.223111-14.765827 63.86726-27.306666 16.940247-7.382914 44.348049-18.204444 82.172839-32.464593 8.44484-3.944296 16.940247-7.079506 25.435655-9.405629a421.129481 421.129481 0 0 1-0.859655-20.48v-10.265284c-10.164148 3.489185-19.822617 6.068148-28.924839 7.787456-13.097086 2.88237-22.199309 3.13521-27.306667 0.859655-6.27042-3.994864-12.844247-11.984593-19.620346-23.918618-5.714173-8.545975-8.849383-14.765827-9.405629-18.760691a82.526815 82.526815 0 0 1-1.719309-21.339654c2.275556-5.663605 13.956741-10.518123 34.992988-14.512988 0.556247-0.556247 1.112494-0.556247 1.719308 0a246.619654 246.619654 0 0 1-5.967012-12.793679 49.152 49.152 0 0 1-7.686321-22.199309 199.945481 199.945481 0 0 1-3.438617-34.992987 611.719901 611.719901 0 0 1-1.719309-35.802074c0.556247-6.27042 1.112494-13.653333 1.719309-22.199309a26.952691 26.952691 0 0 1-14.46242-6.826667 85.560889 85.560889 0 0 0-11.984593-9.405629 34.487309 34.487309 0 0 1-11.07437-11.124938 65.232593 65.232593 0 0 1-6.826667-17.901038 61.591704 61.591704 0 0 1-4.298271-17.041382c-1.668741-9.102222 6.27042-15.372642 23.918617-18.760692 23.311802-5.107358 48.89916-11.377778 76.812642-18.760691 14.20958-4.551111 33.577086-9.40563 58.001383-14.512988l-7.635753-13.703901a29.936198 29.936198 0 0 0-26.497581-17.041383c-8.495407-0.556247-14.765827-2.578963-18.760691-5.967012-4.551111-3.438617-7.130074-7.130074-7.686321-11.07437a56.686617 56.686617 0 0 1-3.388049-12.793679c-1.163062-5.157926 0.25284-10.265284 4.247703-15.42321a42.982716 42.982716 0 0 1 13.653334-11.074371c5.157926-1.719309 10.518123-3.691457 16.232296-5.967012a26.75042 26.75042 0 0 1 13.653333-1.719309c15.372642 2.88237 29.278815 7.989728 41.819655 15.372642 17.091951 10.265284 27.610074 19.620346 31.604938 28.166321 4.551111 10.770963 5.663605 19.923753 3.388049 27.306667-1.112494 3.438617-2.022716 7.130074-2.528395 11.124938 11.934025-3.388049 25.031111-6.27042 39.240692-8.545975a10.36642 10.36642 0 0 1 11.934024 2.578963c2.275556 2.831802 4.247704 4.551111 5.967013 5.107358 3.994864 2.275556 6.27042 4.247704 6.826666 5.967012 2.224988 2.88237 5.107358 5.967012 8.495408 9.40563 2.831802 2.275556 3.994864 5.967012 3.438617 11.124938a24.070321 24.070321 0 0 0 0 9.40563 22.553284 22.553284 0 0 1-3.438617 11.07437 24.272593 24.272593 0 0 0-2.528395 11.074371c-0.606815 5.157926-3.438617 7.989728-8.545976 8.545975-18.204444 6.27042-43.538963 14.512988-75.952987 24.727704a3522.054321 3522.054321 0 0 1-88.746667 25.53679c1.112494 6.27042 1.415901 13.097086 0.859654 20.48 0 11.428346 0.303407 25.890765 0.859655 43.538963 0.556247 9.658469 1.972148 20.783407 4.247703 33.273679 0.556247 7.382914 0.556247 13.956741 0 19.620345 5.107358-2.831802 10.518123-5.157926 16.181729-6.826666 5.714173-2.831802 14.765827-6.27042 27.306666-10.265284 3.438617-8.495407 7.686321-16.485136 12.793679-23.86805 11.934025-21.643062 22.452148-41.21284 31.604939-58.911604 7.93916-15.928889 15.372642-29.835062 22.14874-41.819655 7.382914-11.934025 17.34479-15.928889 29.88563-11.934024 13.653333 5.107358 25.031111 13.097086 34.133333 23.918617 5.107358 5.663605 5.663605 12.793679 1.719309 21.339654a62.046815 62.046815 0 0 1-16.181728 21.339654 265.481481 265.481481 0 0 0-31.604939 34.94242 197.265383 197.265383 0 0 1-11.07437 14.512988c20.48-1.719309 30.441877 4.551111 29.835062 18.760691-2.275556 22.755556-9.658469 37.875358-22.148741 45.258272-9.658469 4.551111-18.204444 10.265284-25.587358 17.041383-6.826667 6.826667-15.676049 12.237432-26.447012 16.232296 1.719309 7.382914 2.831802 14.765827 3.438617 22.148741v11.934024c6.27042-3.994864 13.046519-7.130074 20.48-9.405629 12.54084-5.107358 21.339654-7.382914 26.447012-6.826667 12.54084 2.831802 21.643062 6.826667 27.306667 11.934025 7.989728 6.27042 14.512988 12.793679 19.620346 19.620345 2.275556 5.157926 2.275556 11.377778 0 18.81126-3.994864 9.102222-13.956741 15.676049-29.835062 19.620345-14.816395 4.551111-35.296395 12.237432-61.44 23.058963 0.556247 7.989728 1.112494 17.041383 1.719309 27.306667 1.719309 34.133333 2.578963 76.205827 2.578963 126.268049-2.376691 21.69363-6.371556 37.925926-12.085729 48.696889z m27.306667-158.682074c3.994864-7.93916 12.237432-11.07437 24.727703-9.40563 25.587358 0 44.651457 3.691457 57.192297 11.074371 13.653333 10.821531 22.452148 22.199309 26.447012 34.133333a31.048691 31.048691 0 0 1-4.247704 30.694716c-7.382914 10.265284-15.676049 15.069235-24.778271 14.512988a123.13284 123.13284 0 0 1-32.414025-11.934025 190.135309 190.135309 0 0 1-41.819654-43.538963c-7.332346-9.607901-9.051654-18.153877-5.107358-25.53679z m161.311605 88.746667c-3.388049 15.928889-7.989728 27.306667-13.653334 34.133333-3.994864 3.388049-6.826667 10.265284-8.495407 20.48-2.275556 10.821531-5.410765 16.232296-9.40563 16.232296-5.663605 0.556247-9.40563-7.93916-11.07437-25.587358a570.203654 570.203654 0 0 1-3.388049-57.141728c0.556247-19.316938 2.831802-58.30479 6.826666-116.912988a1926.131358 1926.131358 0 0 1 15.372642-139.061728 4940.98963 4940.98963 0 0 0 26.447013-182.600691c2.831802-21.036247 9.658469-37.571951 20.48-49.505976a31.352099 31.352099 0 0 1 24.727703-10.214716l6.826667 1.719309h0.859654c15.928889 0.556247 49.000296-8.545975 99.113087-27.306667 37.369679-14.20958 60.327506-24.727704 68.974617-31.604938a35.852642 35.852642 0 0 1 21.339654-10.265284c5.663605 0 15.372642 5.410765 29.025976 16.232296 17.648198 14.765827 23.61521 27.306667 17.901037 37.571951-7.382914 12.54084-16.232296 19.923753-26.447013 22.148741a117.014123 117.014123 0 0 0-34.992987 13.653333c-11.478914 6.27042-59.51842 21.339654-144.219655 45.258272a65.738272 65.738272 0 0 1-13.653333 1.719308 1742.418173 1742.418173 0 0 0-29.025975 157.013334c15.878321-2.275556 36.105481-6.27042 60.580345-11.934025 9.658469-3.388049 20.783407-6.27042 33.273679-8.495408a37.015704 37.015704 0 0 1 3.438618-12.793679c2.88237-9.102222 7.736889-15.372642 14.664691-18.760691a47.685531 47.685531 0 0 1 36.206617 2.528395 48.342914 48.342914 0 0 1 15.524346 11.934025c7.433481-2.831802 15.777185-5.107358 24.929975-6.826667 18.811259-4.551111 30.745284-9.40563 35.852642-14.512987 4.551111-4.551111 11.377778-5.663605 20.48-3.38805 8.545975 3.388049 14.765827 5.410765 18.81126 5.967012 14.20958 2.88237 24.171457 9.658469 29.835061 20.48 6.826667 13.097086 8.242568 24.222025 4.247704 33.273679-6.27042 12.54084-11.377778 19.620346-15.372642 21.339655a122.728296 122.728296 0 0 1-23.918617 8.545975c-29.025975 8.495407-54.613333 16.485136-76.812642 23.918617 0 5.107358 0.303407 10.518123 0.859654 16.181729v74.233679c-0.556247 36.965136-1.112494 94.713679-1.719309 173.245629-0.556247 31.857778-2.831802 54.057086-6.826666 66.547358a69.682568 69.682568 0 0 1-24.727704 32.464593c-15.928889 10.214716-25.031111 20.73284-27.306667 31.55437-3.438617 15.928889-8.545975 23.61521-15.372642 23.058963-6.27042-0.556247-10.265284-19.620346-11.934024-57.141728a2155.355654 2155.355654 0 0 1-3.38805-145.079309c1.112494-56.332642 2.528395-113.524938 4.247704-171.526321V504.667654c-11.377778 2.88237-20.783407 5.410765-28.166321 7.686321-21.643062 5.157926-36.965136 5.714173-46.067358 1.719309a101.641481 101.641481 0 0 1-23.918617-16.232296l-5.967013-5.967013c-1.719309 9.102222-2.88237 18.760691-3.388049 29.025976-5.714173 41.263407-16.232296 104.978963-31.604938 190.893827zM1323.715951 189.579062c5.107358-7.382914 11.377778-11.124938 18.760691-11.124939 9.102222 0 17.041383 2.022716 23.918617 5.967013 11.934025 5.714173 19.923753 16.535704 23.86805 32.464592 1.719309 8.495407-0.303407 19.923753-5.967013 34.133334-8.495407 20.48-14.765827 51.528691-18.760691 92.99437a2076.92484 2076.92484 0 0 0-5.967012 131.425975c-1.112494 43.84237-2.022716 87.330765-2.528395 130.566321a1209.179654 1209.179654 0 0 0 9.405629 173.24563c2.831802 21.643062 1.719309 33.577086-3.438617 35.802074-19.923753 10.821531-30.998123 19.620346-33.273679 26.447012-2.88237 7.382914-6.826667 11.377778-11.934025 11.934025-5.157926 0.556247-10.518123-2.831802-16.232296-10.214716-7.382914-8.545975-12.237432-23.311802-14.512988-44.348049-7.382914-54.613333-10.265284-99.26479-8.545975-133.954371 1.719309-43.791802 2.831802-83.942716 3.388049-120.301037 0.556247-44.954864 2.831802-92.438123 6.826667-142.500345 4.551111-59.164444 12.237432-118.885136 23.058963-179.162074 2.831802-14.917531 6.776099-25.991901 11.934025-33.374815z m386.541037 135.673679c2.275556 2.831802 4.247704 4.551111 5.967012 5.107358 3.994864 2.275556 6.27042 4.551111 6.826667 6.826666 2.831802 2.831802 5.360198 5.967012 7.686321 9.40563 2.275556 2.831802 3.13521 6.826667 2.528395 11.934025a55.119012 55.119012 0 0 0-0.859655 8.495407 23.008395 23.008395 0 0 1-3.388049 11.074371 35.65037 35.65037 0 0 0-3.438617 11.124938c-0.556247 5.107358-3.691457 7.989728-9.40563 8.495407-0.556247 0-0.859654 0.303407-0.859654 0.859655v3.388049a251.524741 251.524741 0 0 0-2.578963 46.067358c1.719309 20.48 2.578963 47.23042 2.578963 80.200691v87.027358a230.083951 230.083951 0 0 1 42.679308-5.107358c22.755556-1.112494 36.965136 1.112494 42.679309 6.826667 14.20958 14.816395 21.036247 24.778272 20.48 29.88563-1.112494 5.663605-2.022716 9.40563-2.578963 11.07437a55.574123 55.574123 0 0 1-8.495407 13.653333c-7.382914 9.102222-13.956741 13.956741-19.620346 14.512988-6.27042 1.719309-11.377778 1.415901-15.372642-0.859654a59.670123 59.670123 0 0 0-23.058963-4.247704c-10.265284 1.163062-22.502716 2.88237-36.712296 5.157926v29.835062c-0.556247 34.133333-2.88237 58.001383-6.826667 71.654716a40.96 40.96 0 0 1-17.901037 23.058963c-10.214716 7.989728-16.485136 15.676049-18.760691 23.058963-2.275556 11.377778-5.967012 16.788543-11.074371 16.181728-5.107358-1.112494-7.989728-14.765827-8.545975-40.96a2808.64237 2808.64237 0 0 1-4.247704-112.665284c-32.970272 5.714173-89.555753 18.204444-169.807012 37.571951-9.102222 2.275556-17.34479 5.410765-24.727704 9.405629-6.826667 3.388049-13.097086 3.388049-18.811259 0a89.252346 89.252346 0 0 1-22.148741-12.793679c-4.551111-3.994864-8.849383-14.512988-12.793679-31.604938-3.438617-13.653333 5.967012-23.311802 28.166321-29.025975 21.036247-6.826667 41.819654-12.237432 62.299655-16.232297a149.478716 149.478716 0 0 1-5.107358-37.521382c0.556247-15.372642 1.972148-38.684444 4.247703-69.985976 2.831802-33.577086 5.410765-57.192296 7.686321-70.845629 2.275556-11.934025 5.410765-25.890765 9.40563-41.819655a37.217975 37.217975 0 0 1-11.124938-6.826666 319.184593 319.184593 0 0 1-10.214716-8.495408 36.61116 36.61116 0 0 1-8.545976-10.265284 106.597136 106.597136 0 0 1-5.107358-17.041382 73.070617 73.070617 0 0 1-3.438617-15.372642c-0.556247-8.545975 7.130074-13.653333 23.058963-15.372642 21.086815-3.438617 43.791802-7.989728 68.266667-13.653334 27.862914-7.382914 74.537086-15.676049 139.97195-24.727703 5.05679-1.618173 8.748247-0.455111 11.023803 3.539753zM1457.670321 153.72642c7.382914 2.275556 14.765827 7.130074 22.148741 14.512987 7.382914 6.826667 12.237432 10.518123 14.512987 11.074371 2.224988 1.719309 6.27042 0.859654 11.934025-2.578963 6.27042-3.994864 11.377778-7.686321 15.372642-11.074371 7.93916-5.663605 13.046519-7.382914 15.372642-5.107358 2.831802 1.719309 3.13521 5.967012 0.859654 12.793679l-10.214716 26.447013c-2.88237 7.382914-2.578963 16.535704 0.859655 27.306666 1.719309 8.545975 0.556247 14.816395-3.38805 18.81126a36.307753 36.307753 0 0 0-9.405629 17.901037c-2.275556 6.27042-8.849383 7.686321-19.620346 4.247703-8.545975-2.275556-19.923753-8.798815-34.133333-19.620345a98.860247 98.860247 0 0 1-28.166321-27.306667c-3.994864-7.382914-5.714173-19.013531-5.107358-34.992988-0.606815-17.59763 2.528395-28.41916 9.405629-32.414024 3.944296-3.994864 10.467556-3.994864 19.569778 0z m191.146667 470.989432c0-49.505975 0.859654-98.405136 2.578963-146.74805 0-26.143605-0.303407-47.786667-0.859655-64.878617-1.719309-0.556247-2.831802-0.556247-3.388049 0a1382.52642 1382.52642 0 0 1-92.185284 17.901037 12.338568 12.338568 0 0 0-0.859654 5.157926c-2.275556 9.102222-3.691457 19.064099-4.247704 29.835062l35.852642-8.495408a91.527901 91.527901 0 0 1 20.48-5.157925l11.934025-1.719309c3.994864 0 6.826667 1.163062 8.495407 3.388049a11.276642 11.276642 0 0 1 4.247704 5.157926c1.112494 1.112494 2.022716 2.831802 2.578963 5.107358s0.556247 5.107358 0 8.545976a28.672 28.672 0 0 0-0.859655 6.826666 121.413531 121.413531 0 0 0-1.719308 5.967013c-2.831802 5.107358-5.410765 7.989728-7.686321 8.545975-17.041383 6.826667-31.857778 11.377778-44.34805 13.653333a249.299753 249.299753 0 0 1-34.133333 5.107358c-1.163062 11.934025-2.022716 24.727704-2.578963 38.381037 11.377778-2.831802 24.727704-6.27042 40.100346-10.265284 9.658469-2.224988 17.901037-4.247704 24.778271-5.967012 5.107358-1.112494 9.658469-2.022716 13.653334-2.578963 4.551111 0 7.686321 1.112494 9.405629 3.388049a11.226074 11.226074 0 0 1 4.247704 5.107358c1.112494 1.163062 1.972148 2.88237 2.528395 5.157926s0.556247 5.107358 0 8.495408a28.672 28.672 0 0 0-0.859654 6.826666 63.209877 63.209877 0 0 0-1.719309 5.967013c-2.88237 5.107358-5.410765 7.989728-7.686321 8.495407-19.923753 9.102222-37.521383 15.372642-52.894025 18.811259-12.54084 2.275556-23.311802 4.551111-32.464592 6.826667l1.719308 40.100346c5.663605-1.719309 11.377778-2.88237 17.041383-3.438618a1989.846914 1989.846914 0 0 1 88.847803-13.501629z m33.273679-494.048395c31.857778-3.388049 54.613333-4.803951 68.266666-4.247704 13.046519 0.556247 27.559506 0.556247 43.488395 0 7.989728 0 17.041383 0.859654 27.306667 2.578963 12.54084 2.275556 23.918617 1.415901 34.133333-2.578963 10.770963-5.663605 19.923753-7.686321 27.306667-5.967012 11.377778 1.719309 20.48 5.410765 27.306667 11.124938 7.989728 6.826667 15.676049 18.760691 23.058963 35.802074 6.826667 15.372642 11.377778 30.694716 13.653333 46.067358 2.88237 19.923753 5.410765 50.618469 7.686321 92.185284 4.551111 67.71042 7.686321 153.878123 9.40563 258.553679a1348.848198 1348.848198 0 0 1-5.157926 175.774025 142.247506 142.247506 0 0 1-29.025976 77.672296c-9.658469 12.490272-23.311802 19.923753-40.96 22.148741a62.249086 62.249086 0 0 0-29.025975 13.653333c-11.934025 10.265284-21.643062 15.676049-29.025975 16.232296-9.102222 2.275556-15.372642 0-18.760692-6.826666a50.567901 50.567901 0 0 0-16.232296-17.091951 31.756642 31.756642 0 0 1-13.653333-20.48c-2.275556-9.658469-8.495407-19.064099-18.760692-28.166321-5.663605-5.663605-8.242568-9.658469-7.686321-11.934025 1.719309-3.994864 7.130074-5.663605 16.232297-5.157925 15.372642 2.275556 29.025975 3.691457 40.96 4.247703a23.868049 23.868049 0 0 0 20.48-7.686321c6.826667-2.831802 11.934025-10.518123 15.372642-23.058963 5.107358-17.648198 9.40563-39.544099 12.793679-65.687703 3.994864-31.301531 5.714173-67.71042 5.157926-109.226667-1.719309-100.124444-4.247704-189.427358-7.686321-267.959309-1.719309-41.516247-5.410765-74.233679-11.074371-98.101728-3.438617-13.653333-7.989728-22.452148-13.653333-26.447012a59.26558 59.26558 0 0 0-33.273679-7.686321c-33.02084 1.719309-64.271802 5.410765-93.854025 11.124938-28.469728 5.107358-54.057086 8.798815-76.812642 11.07437-9.102222 2.88237-16.535704 2.275556-22.199308-1.719308-7.382914-3.388049-12.237432-10.518123-14.512988-21.339655a33.72879 33.72879 0 0 1 1.719309-23.918617c2.831802-4.551111 8.798815-8.495407 17.901037-11.934025 22.199309-5.05679 45.258272-8.748247 69.126321-11.023802zM2388.170272 386.642173c19.923753-5.663605 31.857778-11.07437 35.852642-16.232296 4.551111-5.107358 11.934025-6.523259 22.14874-4.247704 8.545975 2.831802 15.372642 4.551111 20.48 5.107358a42.224198 42.224198 0 0 1 32.414025 20.48c7.989728 13.653333 9.961877 25.587358 5.967012 35.852642-6.27042 13.653333-11.377778 21.643062-15.372642 23.918617-8.545975 4.551111-17.041383 7.989728-25.587358 10.214716-32.414025 11.428346-61.44 21.643062-87.027358 30.745284a35.296395 35.296395 0 0 1 3.38805 11.07437c0.556247 6.27042-2.022716 13.653333-7.686321 22.148741-26.75042 35.852642-55.776395 75.952988-87.027358 120.301037-6.826667 9.102222-9.102222 15.372642-6.826667 18.81126 2.275556 2.275556 8.495407 1.415901 18.760691-2.578963 23.918617-11.377778 47.23042-21.592494 69.985976-30.694716 15.928889-6.826667 27.559506-11.934025 34.992987-15.372642a33.273679 33.273679 0 0 1 11.934025-4.247704 100.073877 100.073877 0 0 1-2.578963-6.826667 77.520593 77.520593 0 0 0-6.826667-13.653333c-5.714173-6.826667-7.382914-16.181728-5.157926-28.166321 2.831802-9.102222 10.265284-15.372642 22.199309-18.760692 6.27042-1.112494 13.906173-0.556247 23.058963 1.719309 6.826667 3.388049 12.793679 7.130074 17.901037 11.074371 3.388049 3.994864 8.495407 9.658469 15.372642 17.041382 7.93916 10.265284 15.625481 23.058963 23.058963 38.381037 1.719309 4.551111 3.388049 9.40563 5.107358 14.512988 14.20958-27.862914 29.329383-58.001383 45.258272-90.465975 17.648198-38.128198 35.245827-78.78479 52.894024-122.020346 2.224988-6.826667 4.551111-13.097086 6.826667-18.811259a375.61837 375.61837 0 0 0-29.025975 5.967012c-11.377778 1.719309-20.783407-0.25284-28.166321-5.967012-5.714173-5.107358-11.934025-14.765827-18.811259-29.025976-7.989728-15.928889-10.214716-27.559506-6.826667-34.992987 4.551111-9.102222 16.485136-15.625481 35.802074-19.620346a544.262321 544.262321 0 0 1 90.465975-11.07437c15.372642-27.306667 23.311802-54.866173 23.86805-82.779655 0.556247-21.643062 3.691457-39.544099 9.405629-53.753679 4.551111-11.377778 14.765827-17.34479 30.694716-17.901037 14.765827-1.112494 25.031111 0.859654 30.694716 5.967013a45.460543 45.460543 0 0 1 18.760692 29.835061c2.275556 11.377778 2.578963 20.48 0.859654 27.306667-2.275556 4.551111-3.691457 11.07437-4.247704 19.620346-1.719309 14.765827-7.686321 30.189037-17.901037 46.067358a60.378074 60.378074 0 0 0-11.07437 20.48c21.036247-1.112494 42.932148-1.719309 65.687704-1.719309 13.097086 0 24.171457-3.691457 33.273679-11.124938 7.93916-6.27042 19.064099-4.803951 33.273679 4.247704 13.046519 10.821531 22.452148 21.339654 28.166321 31.604938a38.431605 38.431605 0 0 1 7.686321 22.148741c-2.275556 44.398617-4.551111 87.330765-6.826667 128.847012-5.714173 63.159309-13.097086 111.755062-22.199309 145.938963-13.097086 48.342914-26.75042 86.471111-40.96 114.334025-15.928889 29.025975-28.469728 49.758815-37.521382 62.299654-11.934025 16.485136-25.031111 25.890765-39.240692 28.166321-13.097086 2.275556-22.502716 6.27042-28.166321 11.934025-6.826667 6.27042-23.311802 10.518123-49.505975 12.793679a37.420247 37.420247 0 0 0-20.48 9.405629c-6.826667 6.27042-13.097086 9.40563-18.760691 9.40563-5.663605-1.163062-10.265284-5.967012-13.653334-14.512988a82.375111 82.375111 0 0 0-12.793679-23.918617 32.869136 32.869136 0 0 1-5.967012-22.148741c0.556247-9.102222-3.691457-17.901037-12.793679-26.447012-6.27042-6.826667-8.242568-12.237432-5.967012-16.232297 1.112494-4.551111 6.826667-4.854519 17.041382-0.859654 20.48 8.545975 35.802074 12.54084 46.067358 11.934025a46.522469 46.522469 0 0 0 29.88563-11.074371c14.20958-12.54084 28.41916-30.138469 42.679309-52.894024 17.041383-27.306667 30.998123-58.30479 41.819654-92.994371 13.653333-41.516247 24.171457-87.027358 31.604938-136.533333 6.826667-46.623605 11.934025-86.471111 15.372642-119.491951 0.556247-11.377778-0.303407-19.064099-2.578963-23.058962-3.994864-5.107358-13.956741-3.994864-29.835062 3.388049-20.48 9.102222-44.651457 19.064099-72.564938 29.88563a172.537679 172.537679 0 0 0-8.545975 25.587358c-9.102222 27.862914-18.204444 49.505975-27.306667 64.828049-8.495407 13.653333-15.676049 28.469728-21.339654 44.348049-12.54084 34.740148-36.105481 80.200691-70.795062 136.533334-36.408889 59.720691-60.883753 93.854025-73.374025 102.4-11.377778 8.545975-18.811259 16.535704-22.199308 23.918617a77.014914 77.014914 0 0 1-21.339655 29.025975 172.032 172.032 0 0 0-25.587358 22.148741c-10.770963 13.097086-18.204444 17.901037-22.14874 14.512988-2.88237-2.88237-3.13521-9.658469-0.859655-20.48 1.112494-7.989728 7.686321-23.058963 19.620346-45.258272 11.377778-24.474864 25.890765-52.337778 43.538963-83.639309-3.994864 2.275556-8.545975 4.551111-13.653333 6.826667-5.157926 1.719309-11.07437 2.275556-17.901037 1.719309-2.88237-1.112494-6.27042-4.551111-10.265284-10.265284l-38.381037 15.372642c-27.862914 10.265284-57.445136 22.452148-88.746667 36.712296-14.816395 6.27042-32.717432 13.956741-53.753679 23.058963-17.648198 6.826667-30.189037 10.518123-37.571951 11.07437-9.658469 0.606815-19.923753-3.691457-30.694716-12.793679-14.20958-12.54084-22.199309-23.058963-23.918617-31.604938-1.719309-11.377778 2.578963-20.783407 12.793679-28.166321 13.653333-10.821531 24.171457-25.031111 31.55437-42.679309 17.041383-39.847506 35.852642-80.504099 56.332642-122.020345-18.204444 2.831802-30.998123 3.13521-38.381037 0.859654a112.918123 112.918123 0 0 1-26.447012-16.181728 158.732642 158.732642 0 0 1-16.232296-17.091951 58.254222 58.254222 0 0 1-11.074371-17.041383c-5.157926-10.770963-5.714173-20.783407-1.719308-29.835061 2.831802-5.157926 11.934025-8.798815 27.306666-11.124939a503.808 503.808 0 0 0 62.249087-15.372642 7179.630617 7179.630617 0 0 1 128.088494-38.128197z m-49.455408-182.600692c29.582222-8.495407 51.478123-17.34479 65.687704-26.447012a14.664691 14.664691 0 0 1 14.512988-0.859654c3.944296 2.275556 7.079506 3.691457 9.405629 4.247704a22.249877 22.249877 0 0 1 10.214716 5.107358c3.994864 2.88237 8.545975 5.410765 13.653334 7.686321 4.551111 2.275556 7.130074 6.826667 7.686321 13.653333l2.578963 10.265284c1.719309 3.994864 2.275556 8.849383 1.719308 14.512987s-0.859654 10.214716-0.859654 13.653334c-1.163062 7.382914-3.438617 12.237432-6.826667 14.512987-25.587358 15.372642-49.505975 27.306667-71.654716 35.852642-25.031111 9.658469-44.651457 15.676049-58.861037 17.901037-14.260148 1.719309-25.890765 0.606815-34.992988-3.388049-9.658469-3.994864-19.923753-14.512988-30.745284-31.55437-6.826667-10.265284-11.07437-23.311802-12.793679-39.240692-0.556247-14.20958 5.410765-21.036247 17.901038-20.48 11.32721 0.556247 35.802074-4.601679 73.374024-15.42321zM3707.790222 492.48079c15.878321 7.382914 25.587358 13.097086 29.025976 17.041383 3.388049 3.994864 12.237432 9.658469 26.447012 17.041383 18.204444 7.989728 24.424296 18.204444 18.760691 30.694716-6.27042 10.821531-13.956741 14.512988-23.058963 11.07437-20.48-7.382914-32.717432-9.40563-36.712296-5.967012-3.388049 1.163062-10.518123 0.606815-21.339654-1.719309-11.377778-3.388049-18.204444-3.13521-20.48 0.859654-5.157926 6.826667-9.658469 12.793679-13.653334 17.901037-4.551111 4.551111-19.923753 2.275556-46.117926-6.826666a303.609679 303.609679 0 0 1-92.134716-57.141729 687.723457 687.723457 0 0 1-80.200691-86.218271 218.099358 218.099358 0 0 0-28.166321-30.694716c-9.102222 25.587358-19.923753 46.370765-32.414025 62.299654-6.27042 6.826667-12.237432 13.653333-17.901037 20.48 11.934025 7.382914 25.031111 17.34479 39.240692 29.88563 7.93916 7.382914 12.793679 14.765827 14.512987 22.14874 1.719309 13.097086 1.415901 21.643062-0.859654 25.587358a46.623605 46.623605 0 0 0-5.967012 17.041383 44.246914 44.246914 0 0 1-11.934025 16.232296 30.189037 30.189037 0 0 1-15.372642 5.967013c-5.157926 1.112494-15.676049-7.130074-31.604938-24.727704a67.912691 67.912691 0 0 1-10.265284-17.041383 69.632 69.632 0 0 0-5.967013-10.265284 348.918519 348.918519 0 0 0-17.901037-20.48l-0.859654-0.859654a22.047605 22.047605 0 0 0-5.967012 4.247704c-18.760691 11.377778-36.105481 20.783407-52.034371 28.166321a501.684148 501.684148 0 0 1-63.159308 22.199308c-24.424296 8.495407-42.932148 15.676049-55.472988 21.339655-10.821531 5.107358-17.041383 5.663605-18.760691 1.719308-1.163062-4.551111 4.551111-12.237432 17.041382-23.058963a1482.650864 1482.650864 0 0 1 78.481383-62.299654 419.106765 419.106765 0 0 0 87.887012-91.32563c19.923753-27.862914 35.245827-61.44 46.067358-100.680691 1.112494-4.551111 2.022716-8.545975 2.578963-11.934025-21.086815 3.388049-40.100346 6.826667-57.141728 10.265284-22.755556 4.551111-37.875358 4.247704-45.258272-0.859654a101.338074 101.338074 0 0 1-23.918617-17.901037c-3.388049-4.551111-7.686321-10.518123-12.793679-17.901037a119.74479 119.74479 0 0 1-8.545975-17.091951c-4.551111-10.770963-3.994864-19.923753 1.719308-27.306666 3.438617-4.551111 12.237432-7.079506 26.447013-7.686321 23.311802-0.556247 51.478123-4.247704 84.448395-11.074371a355.998025 355.998025 0 0 1 53.753679-9.405629c1.719309-11.377778 3.691457-22.452148 5.967012-33.273679a200.754568 200.754568 0 0 0 2.578963-42.679309c-4.551111-27.862914-1.415901-47.23042 9.40563-58.001383 7.382914-7.382914 19.064099-6.523259 34.992987 2.578963 20.48 11.377778 33.577086 22.452148 39.240692 33.273679 7.382914 13.097086 8.495407 24.171457 3.388049 33.273679a47.533827 47.533827 0 0 0-7.686321 23.918618 187.101235 187.101235 0 0 0-2.578963 24.727703c11.377778-2.224988 23.918617-4.551111 37.571951-6.826666 26.194173-4.551111 42.932148-10.265284 50.36563-17.041383 4.551111-5.157926 11.934025-5.663605 22.199308-1.719309 7.93916 3.994864 14.512988 6.27042 19.620346 6.826667a43.994074 43.994074 0 0 1 29.835062 24.727704c6.826667 14.816395 7.382914 26.75042 1.719308 35.852642-6.826667 12.54084-12.793679 19.923753-17.901037 22.14874a72.109827 72.109827 0 0 1-26.447012 6.826667c-48.949728 10.265284-92.99437 19.064099-132.28563 26.447012a327.983407 327.983407 0 0 0-5.967012 22.199309c2.275556 1.112494 5.157926 2.831802 8.545975 5.107358 14.20958 8.545975 32.717432 23.311802 55.472988 44.348049a498.599506 498.599506 0 0 0 97.292642 74.233679c31.958914 18.912395 66.699062 35.953778 104.220444 51.32642zM3135.209877 646.91516c2.831802-3.388049 8.798815-3.13521 17.901037 0.859655 7.382914 3.438617 13.906173 7.130074 19.620345 11.124938 4.551111 4.551111 6.523259 13.653333 5.967013 27.306667 0 14.20958 0.859654 28.166321 2.578963 41.819654 1.719309 8.545975 3.691457 17.34479 5.967012 26.447012 3.388049 13.653333 8.545975 28.469728 15.372642 44.398618 3.388049 11.934025 2.275556 19.923753-3.388049 23.868049a32.768 32.768 0 0 0-11.074371 16.232296c-5.157926 15.372642-9.709037 23.311802-13.653333 23.918618-2.88237 0.556247-6.826667-1.163062-11.934025-5.157926-6.826667-5.107358-12.237432-14.512988-16.232296-28.166321-4.551111-18.204444-8.545975-38.381037-11.934025-60.580346a371.572938 371.572938 0 0 1-5.107358-51.225284c0-14.765827 0.25284-30.138469 0.859654-46.067358-0.101136-12.490272 1.668741-20.783407 5.056791-24.778272z m123.739654-5.107358c3.994864-9.658469 9.658469-14.765827 17.041383-15.372642 14.20958-1.112494 23.311802 0 27.306666 3.438618 7.989728 6.826667 13.906173 19.064099 17.901037 36.712296 3.388049 17.648198 10.518123 34.133333 21.339655 49.505975 15.928889 22.199309 34.133333 39.240691 54.613333 51.225284 23.311802 14.765827 48.646321 23.311802 75.952988 25.587358 35.802074 5.663605 68.519506 5.967012 98.101728 0.859655 32.414025-5.107358 54.866173-12.237432 67.407012-21.339655 2.831802-4.551111 2.275556-9.658469-1.719308-15.372642a697.53363 697.53363 0 0 0-26.447013-37.57195c-3.994864-6.826667-4.854519-11.07437-2.578963-12.793679 1.112494-2.275556 7.130074-0.556247 17.901037 5.107358 38.684444 25.081679 72.51437 39.544099 101.540346 43.538963 14.20958 8.545975 22.199309 22.199309 23.918617 40.96 1.719309 17.648198-4.247704 27.559506-17.901037 29.835061-13.653333 3.994864-25.890765 11.377778-36.712296 22.199309-10.214716 10.265284-25.890765 18.760691-46.927012 25.587358a262.447407 262.447407 0 0 1-75.90242 12.793679c-28.469728 1.112494-63.462716-1.719309-104.978963-8.495407a190.742123 190.742123 0 0 1-56.332642-16.232297c-27.862914-13.097086-50.36563-27.610074-67.407012-43.538963a276.303012 276.303012 0 0 1-52.894025-65.687703c-9.658469-15.878321-19.064099-38.684444-28.166321-68.266667-7.332346-19.923753-9.051654-34.133333-5.05679-42.679309z m199.692642-40.96c6.826667 2.831802 13.653333 7.686321 20.48 14.512988 6.826667 6.27042 11.377778 9.658469 13.653333 10.265284 2.831802 1.719309 7.130074 0 12.793679-5.107358l14.512988-14.512988c8.545975-7.93916 13.956741-10.770963 16.232296-8.545975 2.831802 2.275556 3.13521 6.826667 0.859654 13.653333-3.438617 8.545975-7.686321 18.204444-12.793679 29.025976-2.831802 7.382914-2.578963 17.34479 0.859655 29.885629 2.275556 9.658469 0.859654 16.535704-4.247704 20.48a43.994074 43.994074 0 0 0-10.265284 19.620346c-2.275556 6.826667-9.658469 8.293136-22.148741 4.247704-9.102222-2.275556-19.923753-9.658469-32.464592-22.148741a90.415407 90.415407 0 0 1-26.447013-28.166321c-2.88237-7.93916-3.13521-19.064099-0.859654-33.273679 1.112494-17.648198 5.157926-27.559506 11.934025-29.835062 4.500543-4.045432 10.467556-4.045432 17.901037-0.101136z m361.762765 36.712297a70.795062 70.795062 0 0 1 17.091951 17.901037c6.27042 12.54084 4.803951 33.577086-4.247704 63.159308a65.991111 65.991111 0 0 1-17.041383 29.025976c-4.551111 3.994864-19.064099-7.93916-43.538962-35.852642-20.48-28.41916-34.436741-46.067358-41.819655-52.894025-10.821531-7.382914-18.204444-13.653333-22.199308-18.811259-10.821531-13.046519-11.630617-22.452148-2.578963-28.166321 15.928889-9.102222 27.306667-12.793679 34.133333-11.074371 20.48 4.551111 36.965136 10.518123 49.505975 17.901038a278.123457 278.123457 0 0 1 30.694716 18.811259z"
          fill="#1296db" p-id="8729"></path>
</svg>