<svg width="32.000000" height="32.000000" viewBox="0 0 32 32" fill="none" xmlns="http://www.w3.org/2000/svg" xmlns:xlink="http://www.w3.org/1999/xlink">
	<desc>
			Created with Pixso.
	</desc>
	<defs>
		<clipPath id="clip114_1956">
			<rect width="32.000000" height="32.000000" fill="white" fill-opacity="0"/>
		</clipPath>
	</defs>
	<g clip-path="url(#clip114_1956)">
		<path d="M13.55 10.03C13.61 10.04 13.68 10.05 13.76 10.04C13.88 10.05 14 10.03 14.12 10L16.09 9.45C16.1 9.56 16.12 9.66 16.14 9.77C16.17 9.93 16.21 10.09 16.26 10.25C16.31 10.41 16.37 10.57 16.43 10.73C16.5 10.88 16.57 11.03 16.65 11.18C16.73 11.33 16.81 11.47 16.9 11.61C17 11.75 17.1 11.88 17.2 12.01C17.31 12.14 17.42 12.26 17.54 12.38C17.66 12.5 17.78 12.61 17.91 12.72C18.04 12.83 18.18 12.93 18.31 13.02C18.45 13.11 18.6 13.2 18.74 13.28C18.89 13.36 19.04 13.43 19.2 13.49C19.35 13.56 19.51 13.61 19.67 13.66C19.83 13.71 19.99 13.75 20.16 13.78C20.32 13.82 20.48 13.84 20.65 13.86C20.82 13.87 20.98 13.88 21.15 13.88C21.32 13.88 21.49 13.87 21.65 13.86Q21.78 13.84 21.9 13.82Q22.03 13.81 22.15 13.78C22.31 13.75 22.48 13.71 22.64 13.66C22.8 13.61 22.95 13.55 23.11 13.49Q23.22 13.44 23.34 13.39Q23.45 13.33 23.56 13.27C23.71 13.19 23.85 13.11 23.99 13.02C24.13 12.92 24.26 12.82 24.39 12.72C24.52 12.61 24.65 12.5 24.76 12.38C24.88 12.26 24.99 12.14 25.1 12.01C25.21 11.88 25.31 11.74 25.4 11.61C25.49 11.47 25.58 11.32 25.66 11.18C25.73 11.03 25.81 10.88 25.87 10.72C25.93 10.57 25.99 10.41 26.04 10.25C26.09 10.09 26.13 9.93 26.16 9.76C26.19 9.6 26.22 9.44 26.24 9.27C26.25 9.1 26.26 8.94 26.26 8.77C26.26 8.24 26.18 7.72 26.02 7.21C25.97 7.05 25.91 6.89 25.84 6.73L28.16 6.09C28.24 6.07 28.32 6.03 28.4 6C28.47 5.96 28.55 5.91 28.61 5.86C28.68 5.81 28.74 5.75 28.8 5.68C28.85 5.62 28.9 5.55 28.94 5.47C28.98 5.4 29.02 5.32 29.05 5.24C29.07 5.16 29.09 5.08 29.1 4.99C29.11 4.91 29.11 4.82 29.11 4.74C29.1 4.65 29.09 4.57 29.07 4.49C29.03 4.36 28.98 4.24 28.93 4.11C28.87 3.99 28.81 3.88 28.73 3.77C28.66 3.66 28.57 3.56 28.48 3.46C28.39 3.36 28.29 3.28 28.19 3.2C28.08 3.11 27.97 3.04 27.85 2.98C27.74 2.92 27.61 2.87 27.49 2.82C27.36 2.78 27.23 2.75 27.1 2.73C26.97 2.71 26.84 2.7 26.71 2.69C26.48 2.7 26.26 2.73 26.05 2.79L25.74 2.87L25.58 2.7C25.09 2.17 24.23 1.22 23.85 0.84C23.71 0.7 23.57 0.57 23.41 0.47C23.25 0.36 23.08 0.27 22.9 0.19C22.72 0.12 22.54 0.07 22.35 0.04C22.16 0 21.96 -0.01 21.77 -0.01C21.48 0 21.19 0.02 20.91 0.08C19.32 0.39 17.76 0.83 16.24 1.39C14.72 2.03 14.52 3.04 14.26 4.33L14.26 4.35C14.12 5.05 14.04 5.65 14 5.94L13.97 6.15L13.78 6.24C13.65 6.3 13.53 6.38 13.42 6.46C13.3 6.54 13.2 6.64 13.1 6.74C13 6.84 12.91 6.95 12.83 7.07C12.75 7.18 12.69 7.31 12.63 7.44C12.57 7.57 12.52 7.7 12.49 7.84C12.46 7.97 12.43 8.11 12.42 8.25C12.41 8.4 12.41 8.54 12.43 8.68C12.44 8.82 12.47 8.96 12.51 9.09C12.52 9.16 12.55 9.23 12.58 9.29C12.61 9.36 12.64 9.42 12.68 9.47Q12.71 9.52 12.74 9.56Q12.78 9.6 12.81 9.64C12.86 9.69 12.91 9.74 12.97 9.78Q13.01 9.81 13.06 9.84Q13.1 9.87 13.15 9.89C13.21 9.93 13.27 9.95 13.34 9.98C13.41 10 13.48 10.02 13.55 10.03ZM24.54 5.5L25.47 5.24L25.4 4.49C25.21 4.47 25.05 4.39 24.92 4.25C24.29 3.55 23.16 2.33 22.74 1.9C22.61 1.77 22.46 1.67 22.29 1.61C22.12 1.54 21.95 1.52 21.77 1.54L21.77 1.53C21.56 1.53 21.36 1.55 21.16 1.58C19.68 1.88 18.24 2.29 16.82 2.81C16.11 3.1 16.01 3.36 15.76 4.64C15.67 5.1 15.54 5.86 15.43 6.83C15.41 6.93 15.38 7.03 15.33 7.12Q15.29 7.19 15.24 7.25Q15.19 7.3 15.13 7.35L15.47 8.03L16.57 7.72C16.58 7.72 16.6 7.71 16.62 7.7L24.49 5.51C24.51 5.51 24.53 5.5 24.54 5.5ZM17.57 9.04L24.36 7.15L24.49 7.47C24.65 7.89 24.73 8.33 24.73 8.78C24.73 8.9 24.73 9.01 24.71 9.13C24.7 9.25 24.69 9.36 24.66 9.48Q24.65 9.56 24.62 9.65Q24.6 9.73 24.58 9.82C24.54 9.93 24.5 10.04 24.46 10.15C24.41 10.26 24.36 10.36 24.31 10.47C24.25 10.57 24.19 10.67 24.13 10.77C24.06 10.86 23.99 10.96 23.92 11.05C23.84 11.14 23.76 11.23 23.68 11.31C23.6 11.39 23.51 11.47 23.42 11.54C23.33 11.62 23.24 11.69 23.14 11.75C23.04 11.82 22.94 11.88 22.84 11.93C22.73 11.99 22.63 12.04 22.52 12.08C22.41 12.13 22.3 12.17 22.19 12.2C22.08 12.24 21.96 12.26 21.85 12.29C21.73 12.31 21.62 12.33 21.5 12.34C21.39 12.35 21.27 12.36 21.15 12.36C21.05 12.36 20.94 12.35 20.84 12.34C20.73 12.33 20.63 12.32 20.53 12.3C20.42 12.29 20.32 12.26 20.22 12.24C20.12 12.21 20.02 12.18 19.92 12.14C19.82 12.11 19.73 12.07 19.63 12.02C19.54 11.98 19.45 11.93 19.36 11.88C19.26 11.82 19.18 11.77 19.09 11.71C19.01 11.65 18.92 11.58 18.84 11.52C18.76 11.45 18.69 11.38 18.61 11.3C18.54 11.23 18.47 11.15 18.4 11.07C18.33 10.99 18.27 10.91 18.21 10.82C18.15 10.74 18.1 10.65 18.04 10.56C17.99 10.47 17.94 10.37 17.9 10.28C17.86 10.18 17.82 10.09 17.78 9.99C17.75 9.89 17.72 9.79 17.69 9.69C17.66 9.59 17.64 9.49 17.62 9.38L17.57 9.04ZM26.91 31.95C26.96 31.96 27.01 31.97 27.06 31.97C27.11 31.96 27.15 31.96 27.2 31.95C27.25 31.94 27.3 31.92 27.34 31.9C27.39 31.88 27.43 31.86 27.47 31.83C27.51 31.8 27.55 31.77 27.59 31.73C27.62 31.7 27.65 31.66 27.68 31.62C27.71 31.58 27.73 31.53 27.75 31.49C27.77 31.44 27.78 31.39 27.79 31.34C27.8 31.3 27.8 31.25 27.8 31.2L27.8 25.13C27.8 25.04 27.8 24.94 27.79 24.84C27.78 24.74 27.76 24.64 27.75 24.55C27.73 24.45 27.7 24.36 27.67 24.26C27.64 24.17 27.61 24.08 27.57 23.98C27.54 23.89 27.49 23.8 27.45 23.72C27.4 23.63 27.35 23.55 27.3 23.47C27.24 23.38 27.18 23.3 27.12 23.23C27.06 23.15 26.99 23.08 26.92 23.01C26.85 22.94 26.78 22.88 26.7 22.81C26.63 22.75 26.55 22.69 26.47 22.64C26.39 22.58 26.3 22.53 26.22 22.49Q26.15 22.45 26.08 22.42Q26.02 22.39 25.95 22.36C25.86 22.32 25.77 22.29 25.67 22.26C25.58 22.23 25.48 22.21 25.39 22.19C25.29 22.17 25.19 22.15 25.09 22.14C25 22.13 24.9 22.13 24.8 22.13C24.59 22.13 24.38 22.15 24.18 22.2L23.87 22.26L23.74 21.98C23.61 21.69 23.44 21.43 23.22 21.21L15.45 13.09C15.28 12.91 15.1 12.76 14.9 12.62C14.7 12.48 14.49 12.37 14.27 12.28C14.04 12.18 13.81 12.11 13.58 12.06C13.34 12.02 13.1 11.99 12.86 11.99Q12.56 11.99 12.26 12.04Q11.97 12.09 11.68 12.19C11.3 12.32 10.95 12.51 10.63 12.76C10.28 13.02 9.94 13.28 9.6 13.56C9.27 13.83 8.94 14.12 8.63 14.42C8.31 14.72 8.01 15.03 7.71 15.35C7.42 15.67 7.14 16 6.87 16.34C6.6 16.68 6.34 17.03 6.1 17.38C5.85 17.74 5.62 18.11 5.4 18.48C5.18 18.86 4.97 19.24 4.78 19.63C4.59 20.02 4.41 20.41 4.24 20.82C4.08 21.22 3.93 21.62 3.79 22.04C3.66 22.45 3.53 22.86 3.43 23.29Q3.35 23.6 3.28 23.92Q3.21 24.24 3.15 24.56C3.07 24.98 3.01 25.41 2.97 25.85C2.92 26.28 2.89 26.71 2.87 27.14C2.85 27.58 2.85 28.01 2.87 28.45C2.88 28.88 2.91 29.31 2.96 29.74C3 30.18 3.06 30.61 3.13 31.03C3.15 31.12 3.18 31.21 3.22 31.29C3.27 31.37 3.32 31.44 3.39 31.5C3.46 31.56 3.54 31.6 3.62 31.63C3.71 31.67 3.8 31.68 3.89 31.68C7.62 31.68 12.66 31.7 18.08 31.74L18.36 31.74C18.47 31.74 18.56 31.72 18.66 31.69C18.75 31.65 18.84 31.59 18.91 31.52C18.98 31.45 19.04 31.37 19.08 31.27C19.12 31.18 19.14 31.08 19.14 30.98L19.14 24.75L19.75 25.2C19.98 25.36 20.22 25.49 20.49 25.58C20.76 25.67 21.04 25.71 21.32 25.71L21.5 25.71C21.6 25.7 21.71 25.69 21.81 25.67L21.97 25.64L22.11 25.74C22.24 25.85 22.4 25.9 22.57 25.9C22.62 25.9 22.67 25.9 22.72 25.89C22.77 25.88 22.82 25.86 22.86 25.84C22.91 25.82 22.95 25.8 23 25.77C23.04 25.74 23.08 25.71 23.11 25.68C23.15 25.64 23.18 25.6 23.21 25.56C23.24 25.52 23.26 25.47 23.28 25.43C23.3 25.38 23.31 25.33 23.32 25.28C23.33 25.23 23.34 25.18 23.34 25.13C23.34 25.02 23.35 24.92 23.38 24.81L23.4 24.73L23.45 24.66C23.57 24.5 23.67 24.33 23.75 24.15L23.79 24.07L23.85 24.02C23.99 23.9 24.14 23.82 24.3 23.75C24.47 23.69 24.64 23.66 24.81 23.66C24.91 23.66 25.01 23.67 25.1 23.69Q25.17 23.7 25.24 23.72Q25.31 23.75 25.38 23.77C25.47 23.81 25.55 23.86 25.63 23.91C25.71 23.96 25.79 24.02 25.85 24.09C25.92 24.16 25.98 24.24 26.04 24.32C26.09 24.4 26.14 24.48 26.17 24.57C26.21 24.66 26.24 24.75 26.26 24.85C26.28 24.94 26.29 25.04 26.29 25.13L26.29 31.2C26.29 31.25 26.29 31.3 26.3 31.35C26.31 31.4 26.33 31.44 26.34 31.49C26.36 31.54 26.39 31.58 26.42 31.62C26.44 31.67 26.48 31.71 26.51 31.74C26.55 31.78 26.59 31.81 26.63 31.84C26.67 31.86 26.71 31.89 26.76 31.91C26.81 31.93 26.86 31.94 26.91 31.95ZM17.22 30.22C16.53 30.21 10.29 30.17 4.91 30.17L4.55 30.17L4.51 29.83C4.46 29.45 4.43 29.07 4.41 28.69C4.39 28.31 4.38 27.93 4.39 27.55C4.39 27.17 4.41 26.79 4.44 26.41C4.47 26.03 4.51 25.66 4.57 25.28C4.63 24.91 4.69 24.53 4.78 24.16C4.86 23.79 4.95 23.42 5.06 23.06C5.16 22.69 5.28 22.33 5.41 21.97C5.54 21.62 5.69 21.27 5.84 20.92C6 20.57 6.16 20.23 6.34 19.89C6.52 19.56 6.71 19.23 6.91 18.91C7.11 18.58 7.32 18.27 7.54 17.96C7.76 17.65 8 17.35 8.24 17.06C8.48 16.76 8.73 16.48 8.99 16.2C9.25 15.93 9.53 15.66 9.8 15.4C10.08 15.15 10.37 14.9 10.67 14.66C10.96 14.42 11.27 14.19 11.58 13.98C11.76 13.83 11.97 13.72 12.19 13.65C12.41 13.57 12.63 13.53 12.87 13.53C13.15 13.53 13.41 13.58 13.67 13.69Q13.86 13.77 14.03 13.89Q14.2 14.01 14.34 14.16L22.12 22.28C22.25 22.4 22.33 22.55 22.39 22.71C22.44 22.88 22.46 23.04 22.43 23.22L22.42 23.31L22.37 23.39C22.26 23.53 22.17 23.68 22.1 23.83L22.06 23.91L21.98 23.97C21.81 24.1 21.61 24.18 21.39 24.19L21.3 24.19C21.16 24.19 21.03 24.16 20.9 24.11C20.77 24.06 20.65 23.99 20.55 23.9L18.88 22.36C18.73 22.23 18.56 22.16 18.36 22.16C18.26 22.16 18.15 22.18 18.06 22.23C17.99 22.26 17.93 22.3 17.87 22.35C17.81 22.39 17.77 22.45 17.73 22.51C17.69 22.57 17.65 22.64 17.63 22.71C17.61 22.78 17.6 22.86 17.6 22.93L17.6 30.22L17.22 30.22Z" fill="#FFFFFF" fill-opacity="1.000000" fill-rule="evenodd"/>
	</g>
</svg>
