<svg width="24.000000" height="24.000000" viewBox="0 0 24 24" fill="none" xmlns="http://www.w3.org/2000/svg" xmlns:xlink="http://www.w3.org/1999/xlink">
	<desc>
			Created with Pixso.
	</desc>
	<defs/>
	<path id="路径" d="M6.45 12.29C6.24 12.29 6.06 12.14 6.01 11.94C5.96 11.74 6.05 11.52 6.24 11.43L16.51 6.07C16.73 5.96 17.01 6.04 17.12 6.27C17.24 6.49 17.15 6.77 16.93 6.88L6.66 12.24C6.6 12.27 6.53 12.29 6.45 12.29Z" fill="#333333" fill-opacity="1.000000" fill-rule="evenodd"/>
	<path id="形状" d="M13.3754 18.0283C13.231 18.0273 13.095 17.959 13.0089 17.8428C12.9229 17.7275 12.8968 17.5771 12.9387 17.4385L16.2878 6.35742C16.3622 6.11816 16.616 5.9834 16.8563 6.05566C17.0964 6.12793 17.2331 6.38086 17.1622 6.62207L13.8125 17.7041C13.754 17.8965 13.5766 18.0283 13.3754 18.0283ZM11.9097 12.6426L11.9099 12.6426C12.1567 12.6436 12.3591 12.4473 12.3668 12.2002C12.3745 11.9541 12.1847 11.7451 11.9382 11.7305L6.49286 11.3857C6.32996 11.376 6.17401 11.4531 6.08374 11.5889C5.99347 11.7256 5.9826 11.8984 6.05524 12.0449C6.12781 12.1914 6.27289 12.2871 6.43573 12.2979L11.8806 12.6416C11.8904 12.6426 11.9 12.6426 11.9097 12.6426Z" clip-rule="evenodd" fill="#333333" fill-opacity="1.000000" fill-rule="evenodd"/>
	<path id="路径" d="M13.36 18.02C13.16 18.02 12.98 17.88 12.92 17.68L11.46 12.3C11.42 12.14 11.47 11.98 11.58 11.86C11.7 11.74 11.86 11.7 12.02 11.74C12.18 11.78 12.3 11.9 12.35 12.06L13.8 17.44C13.84 17.56 13.82 17.68 13.76 17.79C13.7 17.89 13.6 17.97 13.48 18C13.44 18.01 13.4 18.02 13.36 18.02Z" fill="#333333" fill-opacity="1.000000" fill-rule="evenodd"/>
</svg>
