<svg width="24.000000" height="24.000000" viewBox="0 0 24 24" fill="none" xmlns="http://www.w3.org/2000/svg" xmlns:xlink="http://www.w3.org/1999/xlink">
	<desc>
			Created with Pixso.
	</desc>
	<defs/>
	<path id="形状" d="M17.8325 14.4688L17.6465 14.2295L17.6396 14.2227C17.5789 14.1592 17.4066 13.9834 17.1248 13.7412C16.7878 13.4512 16.1865 13.0234 16.139 12.9922L15.2979 12.4844C15.1435 12.4072 14.9797 12.3906 14.8694 12.3906C14.7496 12.3906 14.6316 12.4102 14.5286 12.4463C14.1646 12.5732 13.8251 13.1465 13.7306 13.3193C13.687 13.3994 13.639 13.4951 13.598 13.5801L13.5847 13.6064C13.5334 13.709 13.4761 13.8232 13.4154 13.9346C13.3555 14.043 13.2272 14.1523 13.0972 14.1523C13.057 14.1523 13.0194 14.1426 12.9831 14.1221C12.4194 13.7979 11.7519 13.3789 11.071 12.7227C10.303 11.9824 9.84711 11.3965 9.59485 10.8252C9.57947 10.7861 9.58118 10.6094 9.68121 10.5596C9.81934 10.4912 9.93182 10.4453 10.031 10.4053L10.0541 10.3955C10.197 10.3379 10.3325 10.2822 10.4869 10.1885C10.5536 10.1455 10.5891 10.126 10.6194 10.1084L10.6348 10.0996C10.6904 10.0693 10.7426 10.041 10.9025 9.93262C10.9094 9.92773 10.9385 9.9043 10.9692 9.87793L11.0719 9.78516C11.34 9.52637 11.4281 9.14648 11.296 8.81641L11.2498 8.68359C11.249 8.67969 11.0787 8.28418 10.8059 7.81348C10.6733 7.58594 10.4724 7.2832 10.2944 7.04297C9.81378 6.39453 9.36902 6.1875 9.36688 6.18652C9.36218 6.18359 9.2467 6.12305 9.17572 6.08984C8.8858 5.96582 8.55823 5.9707 8.26569 6.09863C7.82867 6.26367 7.56055 6.4873 7.27527 6.72559L7.21283 6.7793C6.36609 7.48633 5.90747 8.4082 6.01562 9.1875C6.17798 10.3652 7.5387 12.7695 9.30487 14.4717C11.0702 16.1719 13.5561 17.4795 14.7701 17.6338C14.8621 17.6455 14.9566 17.6523 15.0511 17.6523C15.9282 17.6523 16.6125 17.1172 17.1098 16.6504C17.3578 16.418 17.6854 16.0342 17.8599 15.6543C18.0139 15.3213 18.0874 14.835 17.8325 14.4688ZM10.451 13.3652C9.5965 12.543 9.0799 11.8701 8.77716 11.1846C8.60266 10.791 8.68311 10.0566 9.28522 9.75879C9.45282 9.67578 9.58881 9.62012 9.71326 9.56934C9.83899 9.51953 9.92749 9.4834 10.0156 9.42969C10.1105 9.36914 10.1584 9.34277 10.1978 9.32129C10.238 9.29785 10.2769 9.27734 10.3903 9.20215C10.3971 9.19434 10.4091 9.18359 10.4202 9.17285L10.4462 9.14648C10.4543 9.13867 10.459 9.13379 10.4608 9.13184C10.4599 9.13184 10.4591 9.12793 10.4561 9.12109L10.4167 9.00293C10.4133 8.99609 10.4095 8.9873 10.4048 8.97852C10.2838 8.7207 10.1584 8.47949 10.0327 8.26074C9.91809 8.06348 9.73938 7.79395 9.57599 7.57422C9.24841 7.13281 8.9632 6.9834 8.96021 6.98145L8.93195 6.96777C8.89948 6.9502 8.84644 6.92188 8.81482 6.90723C8.79083 6.89746 8.76306 6.8916 8.73694 6.8916C8.7002 6.8916 8.65613 6.90332 8.60138 6.92676C8.28455 7.0459 8.11133 7.19141 7.84961 7.41113L7.78503 7.46484C7.18292 7.96777 6.83569 8.5957 6.90063 9.06543C7.0238 9.95508 8.23364 12.1982 9.92407 13.8281C11.6201 15.4619 13.9554 16.6299 14.8835 16.7471C14.9437 16.7559 15.0037 16.7598 15.0614 16.7598C15.4993 16.7598 15.9291 16.5322 16.4995 15.999C16.6774 15.832 16.9276 15.5439 17.0486 15.2812C17.1042 15.1592 17.1141 15.0215 17.1042 14.9844L16.9674 14.8096C16.9622 14.8057 16.9572 14.8008 16.949 14.792C16.9028 14.7461 16.7612 14.6064 16.5419 14.418C16.2904 14.2012 15.8418 13.876 15.6605 13.7471L15.6481 13.7383L14.901 13.2861C14.8878 13.2852 14.8647 13.2852 14.8484 13.2852C14.7899 13.3389 14.6551 13.4932 14.5135 13.748C14.4875 13.7979 14.4589 13.8555 14.4272 13.917L14.3989 13.9756C14.3305 14.1133 14.2681 14.2383 14.1976 14.3672C14.0093 14.7061 13.5972 15.0479 13.0977 15.0479C12.9035 15.0479 12.7149 14.9971 12.5387 14.8965C11.925 14.5439 11.1976 14.0859 10.451 13.3652Z" clip-rule="evenodd" fill="#231F20" fill-opacity="1.000000" fill-rule="evenodd"/>
</svg>
