<svg width="24.000000" height="24.000000" viewBox="0 0 24 24" fill="none" xmlns="http://www.w3.org/2000/svg" xmlns:xlink="http://www.w3.org/1999/xlink">
	<desc>
			Created with Pixso.
	</desc>
	<defs/>
	<mask id="mask_31_378" fill="white">
		<path id="形状结合" d="M18.937 1.99088C18.6436 1.77301 18.2271 1.79721 17.9604 2.06348C17.668 2.35638 17.668 2.83124 17.9604 3.12415L21.0278 6.19113L21.1118 6.26376C21.4053 6.48163 21.8223 6.4574 22.0884 6.19113C22.3813 5.89825 22.3813 5.42337 22.0884 5.13049L19.0215 2.06348L18.937 1.99088ZM4.97803 2.06836C5.271 1.77548 5.74561 1.77548 6.03857 2.06836C6.30518 2.33463 6.3291 2.75128 6.11133 3.04489L6.03857 3.12903L2.97168 6.19601C2.67871 6.48892 2.2041 6.48892 1.91113 6.19601C1.64502 5.92975 1.62061 5.51309 1.83838 5.21948L1.91113 5.13538L4.97803 2.06836ZM12.7466 5.74051C12.6709 4.75253 11.7773 3.99939 10.7759 4.13547C5.65625 4.83008 2.11035 9.68289 3.12549 14.9135C3.81299 18.4501 6.65674 21.2936 10.1938 21.9809C15.8926 23.0885 21.0537 18.7874 21.0537 13.1046C21.0537 9.05496 18.3701 5.52994 14.5396 4.4136C14.1421 4.2977 13.7256 4.52612 13.6099 4.9238C13.4941 5.32147 13.7222 5.73779 14.1201 5.8537C17.3145 6.78467 19.5537 9.7261 19.5537 13.1046C19.5537 17.848 15.249 21.4354 10.48 20.5084C7.54297 19.9378 5.16895 17.5636 4.59814 14.6275C3.74805 10.2493 6.70605 6.20139 10.9775 5.62183C11.1167 5.60297 11.252 5.72382 11.252 5.87665L11.252 13.1046L11.2612 13.2227C11.2861 13.3779 11.3589 13.5225 11.4717 13.635L14.4717 16.635L14.5557 16.7076C14.8491 16.9254 15.2661 16.9012 15.5322 16.635L15.605 16.5508C15.8228 16.2572 15.7983 15.8406 15.5322 15.5743L12.751 12.7932L12.752 5.87665L12.7466 5.74051Z" clip-rule="evenodd" fill="" fill-opacity="1.000000" fill-rule="evenodd"/>
	</mask>
	<path id="形状结合" d="M18.937 1.99088C18.6436 1.77301 18.2271 1.79721 17.9604 2.06348C17.668 2.35638 17.668 2.83124 17.9604 3.12415L21.0278 6.19113L21.1118 6.26376C21.4053 6.48163 21.8223 6.4574 22.0884 6.19113C22.3813 5.89825 22.3813 5.42337 22.0884 5.13049L19.0215 2.06348L18.937 1.99088ZM4.97803 2.06836C5.271 1.77548 5.74561 1.77548 6.03857 2.06836C6.30518 2.33463 6.3291 2.75128 6.11133 3.04489L6.03857 3.12903L2.97168 6.19601C2.67871 6.48892 2.2041 6.48892 1.91113 6.19601C1.64502 5.92975 1.62061 5.51309 1.83838 5.21948L1.91113 5.13538L4.97803 2.06836ZM12.7466 5.74051C12.6709 4.75253 11.7773 3.99939 10.7759 4.13547C5.65625 4.83008 2.11035 9.68289 3.12549 14.9135C3.81299 18.4501 6.65674 21.2936 10.1938 21.9809C15.8926 23.0885 21.0537 18.7874 21.0537 13.1046C21.0537 9.05496 18.3701 5.52994 14.5396 4.4136C14.1421 4.2977 13.7256 4.52612 13.6099 4.9238C13.4941 5.32147 13.7222 5.73779 14.1201 5.8537C17.3145 6.78467 19.5537 9.7261 19.5537 13.1046C19.5537 17.848 15.249 21.4354 10.48 20.5084C7.54297 19.9378 5.16895 17.5636 4.59814 14.6275C3.74805 10.2493 6.70605 6.20139 10.9775 5.62183C11.1167 5.60297 11.252 5.72382 11.252 5.87665L11.252 13.1046L11.2612 13.2227C11.2861 13.3779 11.3589 13.5225 11.4717 13.635L14.4717 16.635L14.5557 16.7076C14.8491 16.9254 15.2661 16.9012 15.5322 16.635L15.605 16.5508C15.8228 16.2572 15.7983 15.8406 15.5322 15.5743L12.751 12.7932L12.752 5.87665L12.7466 5.74051Z" clip-rule="evenodd" fill="#000000" fill-opacity="1.000000" fill-rule="evenodd" mask="url(#mask_31_378)"/>
	<path id="形状结合" d="" clip-rule="evenodd" fill="#979797" fill-opacity="0.000000" fill-rule="evenodd"/>
</svg>
