<svg width="32.000000" height="32.000000" viewBox="0 0 32 32" fill="none" xmlns="http://www.w3.org/2000/svg" xmlns:xlink="http://www.w3.org/1999/xlink">
	<desc>
			Created with Pixso.
	</desc>
	<defs/>
	<path id="path" d="M27.38 26.14L4.61 26.14C3.53 26.14 2.66 25.27 2.66 24.19L2.66 20.29C4.82 20.29 6.56 18.84 6.56 17.05C6.56 15.26 4.82 13.8 2.66 13.8L2.66 8.61C2.66 7.53 3.53 6.66 4.61 6.66L27.38 6.66C28.46 6.66 29.33 7.53 29.33 8.61L29.33 13.87C29.11 13.82 28.9 13.8 28.68 13.8C26.88 13.8 25.43 15.26 25.43 17.05C25.43 18.84 26.88 20.29 28.68 20.29C28.9 20.29 29.12 20.27 29.33 20.23L29.33 24.19C29.33 25.27 28.46 26.14 27.38 26.14ZM13.72 20.94L18.98 20.94L18.98 19.65L13.72 19.65L13.72 20.94ZM13.72 17.05L21.09 17.05L21.09 15.75L13.72 15.75L13.72 17.05ZM10.47 7.31L9.17 7.31L9.17 9.91L10.47 9.91L10.47 7.31ZM10.47 11.21L9.17 11.21L9.17 13.8L10.47 13.8L10.47 11.21ZM10.47 15.1L9.17 15.1L9.17 17.7L10.47 17.7L10.47 15.1ZM10.47 19L9.17 19L9.17 21.59L10.47 21.59L10.47 19ZM10.47 22.89L9.17 22.89L9.17 25.49L10.47 25.49L10.47 22.89ZM24.78 11.85L13.72 11.85L13.72 13.15L24.78 13.15L24.78 11.85Z" fill="#E8AF4C" fill-opacity="1.000000" fill-rule="nonzero"/>
</svg>
