<svg width="24.000000" height="24.000000" viewBox="0 0 24 24" fill="none" xmlns="http://www.w3.org/2000/svg" xmlns:xlink="http://www.w3.org/1999/xlink">
	<desc>
			Created with Pixso.
	</desc>
	<defs/>
	<g opacity="0.000000">
		<rect id="rect" width="24.000000" height="24.000000" fill="#000000" fill-opacity="1.000000"/>
	</g>
	<path id="path" d="M17 3.37L17 3.01C17 2.72 16.9 2.48 16.7 2.29C16.52 2.09 16.29 2 16.02 2C15.74 2 15.5 2.09 15.31 2.29C15.1 2.48 15 2.72 15 3.01L15 3.37L9.02 3.37L9.02 3.01C9.02 2.72 8.93 2.48 8.72 2.29C8.52 2.09 8.29 2 8.02 2C7.75 2 7.52 2.09 7.31 2.29C7.12 2.48 7.02 2.72 7.02 3.01L7.02 3.37L5 3.37C4.45 3.37 3.95 3.5 3.5 3.78C3.04 4.04 2.68 4.41 2.41 4.88C2.13 5.34 2 5.84 2 6.37L2 19.87C2 20.71 2.29 21.42 2.87 22C3.45 22.58 4.16 22.88 5 22.88L19.02 22.88C19.85 22.88 20.56 22.58 21.14 22C21.72 21.42 22.02 20.71 22.02 19.87L22.02 6.37C22.02 5.53 21.72 4.82 21.14 4.23C20.56 3.66 19.85 3.37 19.02 3.37L17 3.37ZM7.02 4.88L7.02 5.07C7.02 5.35 7.12 5.59 7.31 5.79C7.52 5.98 7.75 6.07 8.02 6.07C8.29 6.07 8.52 5.98 8.72 5.79C8.93 5.59 9.02 5.35 9.02 5.07L9.02 4.88L15 4.88L15 5.07C15 5.35 15.1 5.59 15.29 5.79C15.49 5.98 15.72 6.07 15.99 6.07C16.26 6.07 16.5 5.98 16.7 5.79C16.89 5.59 17 5.35 17 5.07L17 4.88L18.99 4.88C19.41 4.88 19.76 5.02 20.06 5.32C20.35 5.62 20.5 5.97 20.5 6.37L20.5 8.57L3.5 8.57L3.5 6.37C3.5 5.95 3.66 5.59 3.95 5.31C4.25 5.02 4.6 4.88 5 4.88L7.02 4.88ZM5 21.39C4.58 21.39 4.23 21.24 3.95 20.95C3.65 20.65 3.5 20.29 3.5 19.87L3.5 10.09L20.5 10.09L20.5 19.87C20.5 20.29 20.36 20.65 20.06 20.95C19.78 21.24 19.43 21.39 19.02 21.39L5 21.39ZM11.5 17.21C11.44 17.28 11.37 17.31 11.29 17.31C11.24 17.31 11.16 17.28 11.06 17.21L8.72 14.89C8.6 14.74 8.43 14.67 8.22 14.67C8.01 14.67 7.83 14.74 7.68 14.89C7.54 15.03 7.47 15.2 7.47 15.42C7.47 15.62 7.54 15.8 7.68 15.94L10.02 18.27C10.37 18.62 10.79 18.79 11.29 18.79C11.78 18.79 12.2 18.62 12.56 18.27L17.12 13.71C17.27 13.55 17.35 13.36 17.35 13.16C17.35 12.95 17.27 12.77 17.12 12.63C17 12.49 16.83 12.42 16.62 12.42C16.41 12.42 16.23 12.49 16.08 12.63L11.5 17.21Z" fill="#191919" fill-opacity="1.000000" fill-rule="nonzero"/>
</svg>
