<svg width="32.000000" height="32.000000" viewBox="0 0 32 32" fill="none" xmlns="http://www.w3.org/2000/svg" xmlns:xlink="http://www.w3.org/1999/xlink">
	<desc>
			Created with Pixso.
	</desc>
	<defs/>
	<path id="path" d="M19.82 14.57L16.84 24.58L18.02 26.1C18.04 26.15 18.06 26.19 18.08 26.23C18.11 26.27 18.13 26.32 18.16 26.35C18.19 26.39 18.22 26.43 18.25 26.47C18.28 26.5 18.32 26.54 18.35 26.57C18.39 26.6 18.43 26.63 18.47 26.66C18.51 26.69 18.55 26.72 18.59 26.74C18.63 26.76 18.67 26.79 18.72 26.81C18.76 26.82 18.81 26.84 18.85 26.86C18.9 26.87 18.95 26.88 18.99 26.89C19.04 26.9 19.09 26.91 19.14 26.91C19.19 26.91 19.23 26.91 19.28 26.91C19.33 26.91 19.38 26.91 19.43 26.9C19.48 26.89 19.52 26.88 19.57 26.87C19.62 26.86 19.66 26.85 19.71 26.83C19.75 26.81 19.8 26.79 19.84 26.77C19.88 26.75 19.92 26.72 19.97 26.7L21.28 26.11L28.19 22.6C28.24 22.58 28.28 22.55 28.32 22.53C28.37 22.51 28.41 22.48 28.45 22.45C28.48 22.42 28.52 22.39 28.56 22.36C28.59 22.32 28.63 22.29 28.66 22.25C28.69 22.21 28.72 22.18 28.75 22.14C28.78 22.1 28.8 22.06 28.83 22.01C28.85 21.97 28.87 21.93 28.89 21.88C28.91 21.84 28.92 21.79 28.94 21.74C28.95 21.7 28.96 21.65 28.97 21.6C28.98 21.55 28.99 21.51 28.99 21.46C29 21.41 29 21.36 28.99 21.31C28.99 21.26 28.99 21.21 28.98 21.17C28.98 21.12 28.97 21.07 28.95 21.02C28.94 20.98 28.93 20.93 28.91 20.88C28.89 20.84 28.87 20.79 28.85 20.75C28.83 20.71 28.81 20.66 28.78 20.62L22.59 9.63C22.13 8.99 21.41 8.11 20.52 7.84L17.23 6.83L19.66 10.72C20.08 11.51 20.36 12.75 19.82 14.57ZM3.99 23.96L13.25 26.8C13.29 26.81 13.33 26.82 13.37 26.84C13.41 26.85 13.45 26.86 13.5 26.86C13.54 26.87 13.58 26.88 13.62 26.88C13.66 26.88 13.71 26.88 13.75 26.88C13.79 26.87 13.83 26.87 13.87 26.86C13.91 26.86 13.96 26.85 14 26.84C14.04 26.82 14.08 26.81 14.12 26.79C14.16 26.78 14.19 26.76 14.23 26.74C14.27 26.72 14.3 26.7 14.34 26.67C14.37 26.65 14.41 26.62 14.44 26.6C14.47 26.57 14.5 26.54 14.53 26.51C14.56 26.48 14.58 26.44 14.61 26.41C14.63 26.37 14.66 26.34 14.68 26.3C14.7 26.27 14.72 26.23 14.73 26.19C14.75 26.15 14.77 26.11 14.78 26.07C14.79 26.03 14.8 25.99 14.81 25.95L18.36 13.96C18.59 13.21 18.61 12.05 18.14 11.41L15.3 6.74C15.24 6.66 15.17 6.59 15.1 6.52C15.03 6.45 14.96 6.39 14.88 6.33C14.8 6.28 14.71 6.23 14.63 6.18C14.54 6.14 14.45 6.1 14.35 6.08C14.26 6.05 14.17 6.03 14.07 6.01C13.97 6 13.88 5.99 13.78 6C13.68 6 13.58 6.01 13.49 6.02C13.39 6.04 13.3 6.06 13.2 6.1L8.13 8.35C7.4 8.62 6.93 9.64 6.71 10.4L3.15 22.38C2.78 23.09 3.09 23.69 3.99 23.96ZM13.04 10.51C13.09 10.53 13.14 10.54 13.19 10.56C13.24 10.58 13.28 10.6 13.33 10.62C13.38 10.64 13.42 10.67 13.47 10.7C13.51 10.72 13.56 10.75 13.6 10.79C13.64 10.82 13.68 10.85 13.72 10.89C13.75 10.93 13.79 10.97 13.82 11.01C13.86 11.05 13.89 11.09 13.92 11.13C13.95 11.18 13.97 11.22 14 11.27C14.02 11.31 14.04 11.36 14.06 11.41C14.08 11.46 14.1 11.51 14.12 11.56C14.13 11.61 14.14 11.66 14.15 11.71C14.16 11.76 14.17 11.82 14.17 11.87C14.17 11.92 14.17 11.97 14.17 12.03C14.17 12.08 14.16 12.13 14.16 12.18C14.15 12.23 14.14 12.29 14.13 12.34C14.11 12.39 14.1 12.44 14.08 12.49C14.05 12.59 14.01 12.68 13.97 12.77C13.92 12.86 13.86 12.95 13.8 13.03C13.73 13.11 13.66 13.18 13.58 13.25C13.5 13.31 13.42 13.37 13.33 13.42C13.24 13.47 13.14 13.51 13.04 13.54C12.95 13.57 12.85 13.59 12.74 13.6C12.64 13.61 12.54 13.61 12.44 13.61C12.33 13.6 12.23 13.58 12.13 13.55C12.04 13.52 11.94 13.47 11.85 13.43C11.76 13.38 11.67 13.32 11.59 13.25C11.52 13.19 11.44 13.11 11.38 13.03C11.31 12.95 11.26 12.87 11.21 12.77C11.16 12.68 11.12 12.59 11.09 12.49C11.06 12.39 11.04 12.29 11.03 12.19C11.02 12.08 11.02 11.98 11.03 11.88C11.04 11.77 11.06 11.67 11.09 11.57C11.1 11.52 11.11 11.47 11.13 11.42C11.15 11.37 11.17 11.32 11.19 11.28C11.21 11.23 11.24 11.18 11.26 11.14C11.29 11.09 11.32 11.05 11.35 11.01C11.38 10.97 11.41 10.93 11.45 10.89C11.49 10.85 11.52 10.81 11.56 10.78C11.6 10.75 11.64 10.71 11.69 10.68C11.73 10.65 11.77 10.63 11.82 10.6C11.87 10.58 11.91 10.55 11.96 10.53C12.01 10.51 12.06 10.5 12.11 10.48C12.16 10.47 12.21 10.46 12.26 10.45C12.31 10.44 12.37 10.43 12.42 10.43C12.47 10.42 12.52 10.42 12.57 10.42C12.63 10.43 12.68 10.43 12.73 10.44C12.78 10.44 12.83 10.45 12.88 10.47C12.93 10.48 12.99 10.49 13.04 10.51Z" fill="#E64566" fill-opacity="1.000000" fill-rule="nonzero"/>
</svg>
