<svg width="24.000000" height="24.000000" viewBox="0 0 24 24" fill="none" xmlns="http://www.w3.org/2000/svg" xmlns:xlink="http://www.w3.org/1999/xlink">
	<desc>
			Created with Pixso.
	</desc>
	<defs/>
	<path id="path" d="M9.28 22L3.84 22C3.78 22 3.72 21.99 3.66 21.99C3.6 21.98 3.54 21.97 3.48 21.96C3.42 21.95 3.36 21.93 3.31 21.92C3.25 21.9 3.19 21.88 3.13 21.85C3.08 21.83 3.02 21.81 2.97 21.78C2.92 21.75 2.87 21.72 2.82 21.68C2.77 21.65 2.72 21.61 2.67 21.58C2.62 21.54 2.58 21.5 2.54 21.45C2.49 21.41 2.45 21.37 2.41 21.32C2.38 21.27 2.34 21.22 2.31 21.17C2.27 21.12 2.24 21.07 2.21 21.02C2.18 20.97 2.16 20.91 2.14 20.86C2.11 20.8 2.09 20.74 2.07 20.68C2.06 20.63 2.04 20.57 2.03 20.51C2.02 20.45 2.01 20.39 2 20.33C2 20.27 2 20.21 2 20.15L2 3.84C2 3.78 2 3.72 2 3.66C2.01 3.6 2.02 3.54 2.03 3.48C2.04 3.42 2.06 3.36 2.07 3.31C2.09 3.25 2.11 3.19 2.14 3.13C2.16 3.08 2.18 3.02 2.21 2.97C2.24 2.92 2.27 2.87 2.31 2.82C2.34 2.77 2.38 2.72 2.41 2.67C2.45 2.62 2.49 2.58 2.54 2.54C2.58 2.49 2.62 2.45 2.67 2.41C2.72 2.38 2.77 2.34 2.82 2.31C2.87 2.27 2.92 2.24 2.97 2.21C3.02 2.18 3.08 2.16 3.13 2.14C3.19 2.11 3.25 2.09 3.31 2.07C3.36 2.06 3.42 2.04 3.48 2.03C3.54 2.02 3.6 2.01 3.66 2C3.72 2 3.78 2 3.84 2L17.38 2C17.44 2 17.5 2 17.56 2C17.62 2.01 17.68 2.02 17.74 2.03C17.8 2.04 17.86 2.06 17.92 2.07C17.97 2.09 18.03 2.11 18.09 2.14C18.14 2.16 18.2 2.18 18.25 2.21C18.3 2.24 18.35 2.27 18.41 2.31C18.46 2.34 18.5 2.38 18.55 2.41C18.6 2.45 18.64 2.49 18.68 2.54C18.73 2.58 18.77 2.62 18.81 2.67C18.85 2.72 18.88 2.77 18.91 2.82C18.95 2.87 18.98 2.92 19.01 2.97C19.04 3.02 19.06 3.08 19.09 3.13C19.11 3.19 19.13 3.25 19.15 3.31C19.16 3.36 19.18 3.42 19.19 3.48C19.2 3.54 19.21 3.6 19.22 3.66C19.22 3.72 19.23 3.78 19.23 3.84L19.23 8.46C19.23 8.5 19.22 8.54 19.21 8.58C19.21 8.62 19.19 8.65 19.18 8.69C19.16 8.73 19.14 8.76 19.12 8.8C19.1 8.83 19.07 8.86 19.05 8.89C19.02 8.92 18.99 8.95 18.95 8.97C18.92 8.99 18.88 9.01 18.85 9.03C18.81 9.04 18.77 9.05 18.73 9.06C18.69 9.07 18.65 9.07 18.61 9.07C18.57 9.07 18.53 9.07 18.49 9.06C18.45 9.05 18.41 9.04 18.37 9.03C18.34 9.01 18.3 8.99 18.27 8.97C18.23 8.95 18.2 8.92 18.18 8.89C18.15 8.86 18.12 8.83 18.1 8.8C18.08 8.76 18.06 8.73 18.04 8.69C18.03 8.65 18.01 8.62 18.01 8.58C18 8.54 18 8.5 18 8.46L18 3.84C18 3.8 17.99 3.76 17.98 3.72C17.98 3.68 17.96 3.64 17.95 3.61C17.93 3.57 17.91 3.53 17.89 3.5C17.87 3.47 17.84 3.43 17.81 3.41C17.79 3.38 17.76 3.35 17.72 3.33C17.69 3.31 17.65 3.29 17.62 3.27C17.58 3.26 17.54 3.25 17.5 3.24C17.46 3.23 17.42 3.23 17.38 3.23L3.84 3.23C3.8 3.23 3.76 3.23 3.72 3.24C3.68 3.25 3.64 3.26 3.61 3.27C3.57 3.29 3.53 3.31 3.5 3.33C3.47 3.35 3.43 3.38 3.41 3.41C3.38 3.43 3.35 3.47 3.33 3.5C3.31 3.53 3.29 3.57 3.27 3.61C3.26 3.64 3.25 3.68 3.24 3.72C3.23 3.76 3.23 3.8 3.23 3.84L3.23 20.15C3.23 20.19 3.23 20.23 3.24 20.27C3.25 20.31 3.26 20.35 3.27 20.38C3.29 20.42 3.31 20.46 3.33 20.49C3.35 20.52 3.38 20.56 3.41 20.58C3.43 20.61 3.47 20.64 3.5 20.66C3.53 20.68 3.57 20.7 3.61 20.72C3.64 20.73 3.68 20.74 3.72 20.75C3.76 20.76 3.8 20.76 3.84 20.76L9.28 20.76C9.32 20.76 9.36 20.77 9.4 20.78C9.44 20.78 9.48 20.8 9.51 20.81C9.55 20.83 9.59 20.85 9.62 20.87C9.65 20.89 9.68 20.92 9.71 20.94C9.74 20.97 9.77 21 9.79 21.04C9.81 21.07 9.83 21.11 9.85 21.14C9.86 21.18 9.87 21.22 9.88 21.26C9.89 21.3 9.89 21.34 9.89 21.38C9.89 21.42 9.89 21.46 9.88 21.5C9.87 21.54 9.86 21.58 9.85 21.62C9.83 21.65 9.81 21.69 9.79 21.72C9.77 21.76 9.74 21.79 9.71 21.81C9.68 21.84 9.65 21.87 9.62 21.89C9.59 21.91 9.55 21.93 9.51 21.95C9.48 21.96 9.44 21.98 9.4 21.98C9.36 21.99 9.32 22 9.28 22Z" fill="#000000" fill-opacity="1.000000" fill-rule="nonzero"/>
	<path id="path" d="M14.92 7.53L5.38 7.53C5.34 7.53 5.3 7.53 5.26 7.52C5.22 7.51 5.18 7.5 5.14 7.49C5.11 7.47 5.07 7.45 5.04 7.43C5 7.41 4.97 7.38 4.94 7.35C4.92 7.32 4.89 7.29 4.87 7.26C4.85 7.23 4.83 7.19 4.81 7.15C4.8 7.12 4.78 7.08 4.78 7.04C4.77 7 4.76 6.96 4.76 6.92C4.76 6.88 4.77 6.84 4.78 6.8C4.78 6.76 4.8 6.72 4.81 6.68C4.83 6.65 4.85 6.61 4.87 6.58C4.89 6.54 4.92 6.51 4.94 6.48C4.97 6.45 5 6.43 5.04 6.41C5.07 6.38 5.11 6.37 5.14 6.35C5.18 6.33 5.22 6.32 5.26 6.31C5.3 6.31 5.34 6.3 5.38 6.3L14.92 6.3C14.96 6.3 15 6.31 15.04 6.31C15.08 6.32 15.12 6.33 15.15 6.35C15.19 6.37 15.23 6.38 15.26 6.41C15.29 6.43 15.32 6.45 15.35 6.48C15.38 6.51 15.41 6.54 15.43 6.58C15.45 6.61 15.47 6.65 15.49 6.68C15.5 6.72 15.51 6.76 15.52 6.8C15.53 6.84 15.53 6.88 15.53 6.92C15.53 6.96 15.53 7 15.52 7.04C15.51 7.08 15.5 7.12 15.49 7.15C15.47 7.19 15.45 7.23 15.43 7.26C15.41 7.29 15.38 7.32 15.35 7.35C15.32 7.38 15.29 7.41 15.26 7.43C15.23 7.45 15.19 7.47 15.15 7.49C15.12 7.5 15.08 7.51 15.04 7.52C15 7.53 14.96 7.53 14.92 7.53ZM8.46 12.15L5.38 12.15C5.34 12.15 5.3 12.14 5.26 12.14C5.22 12.13 5.18 12.12 5.14 12.1C5.11 12.09 5.07 12.07 5.04 12.04C5 12.02 4.97 12 4.94 11.97C4.92 11.94 4.89 11.91 4.87 11.88C4.85 11.84 4.83 11.81 4.81 11.77C4.8 11.73 4.78 11.69 4.78 11.65C4.77 11.61 4.76 11.57 4.76 11.53C4.76 11.49 4.77 11.45 4.78 11.41C4.78 11.37 4.8 11.34 4.81 11.3C4.83 11.26 4.85 11.23 4.87 11.19C4.89 11.16 4.92 11.13 4.94 11.1C4.97 11.07 5 11.04 5.04 11.02C5.07 11 5.11 10.98 5.14 10.97C5.18 10.95 5.22 10.94 5.26 10.93C5.3 10.92 5.34 10.92 5.38 10.92L8.46 10.92C8.5 10.92 8.54 10.92 8.58 10.93C8.62 10.94 8.65 10.95 8.69 10.97C8.73 10.98 8.76 11 8.8 11.02C8.83 11.04 8.86 11.07 8.89 11.1C8.92 11.13 8.95 11.16 8.97 11.19C8.99 11.23 9.01 11.26 9.02 11.3C9.04 11.34 9.05 11.37 9.06 11.41C9.07 11.45 9.07 11.49 9.07 11.53C9.07 11.57 9.07 11.61 9.06 11.65C9.05 11.69 9.04 11.73 9.02 11.77C9.01 11.81 8.99 11.84 8.97 11.88C8.95 11.91 8.92 11.94 8.89 11.97C8.86 12 8.83 12.02 8.8 12.04C8.76 12.07 8.73 12.09 8.69 12.1C8.65 12.12 8.62 12.13 8.58 12.14C8.54 12.14 8.5 12.15 8.46 12.15ZM7.23 16.76L5.38 16.76C5.34 16.76 5.3 16.76 5.26 16.75C5.22 16.74 5.18 16.73 5.14 16.72C5.11 16.7 5.07 16.68 5.04 16.66C5 16.64 4.97 16.61 4.94 16.58C4.92 16.56 4.89 16.52 4.87 16.49C4.85 16.46 4.83 16.42 4.81 16.38C4.8 16.35 4.78 16.31 4.78 16.27C4.77 16.23 4.76 16.19 4.76 16.15C4.76 16.11 4.77 16.07 4.78 16.03C4.78 15.99 4.8 15.95 4.81 15.91C4.83 15.88 4.85 15.84 4.87 15.81C4.89 15.77 4.92 15.74 4.94 15.71C4.97 15.69 5 15.66 5.04 15.64C5.07 15.61 5.11 15.6 5.14 15.58C5.18 15.56 5.22 15.55 5.26 15.55C5.3 15.54 5.34 15.53 5.38 15.53L7.23 15.53C7.27 15.53 7.31 15.54 7.35 15.55C7.39 15.55 7.42 15.56 7.46 15.58C7.5 15.6 7.53 15.61 7.57 15.64C7.6 15.66 7.63 15.69 7.66 15.71C7.69 15.74 7.71 15.77 7.74 15.81C7.76 15.84 7.78 15.88 7.79 15.91C7.81 15.95 7.82 15.99 7.83 16.03C7.84 16.07 7.84 16.11 7.84 16.15C7.84 16.19 7.84 16.23 7.83 16.27C7.82 16.31 7.81 16.35 7.79 16.38C7.78 16.42 7.76 16.46 7.74 16.49C7.71 16.52 7.69 16.56 7.66 16.58C7.63 16.61 7.6 16.64 7.57 16.66C7.53 16.68 7.5 16.7 7.46 16.72C7.42 16.73 7.39 16.74 7.35 16.75C7.31 16.76 7.27 16.76 7.23 16.76ZM15.84 21.99C15.74 21.99 15.64 21.99 15.54 21.99C15.44 21.98 15.34 21.98 15.24 21.97C15.14 21.96 15.04 21.94 14.94 21.93C14.84 21.91 14.74 21.9 14.64 21.88C14.54 21.86 14.44 21.84 14.35 21.81C14.25 21.79 14.15 21.76 14.05 21.73C13.96 21.7 13.86 21.67 13.77 21.64C13.67 21.6 13.58 21.57 13.49 21.53C13.39 21.49 13.3 21.45 13.21 21.4C13.12 21.36 13.03 21.32 12.94 21.27C12.85 21.22 12.76 21.17 12.68 21.12C12.59 21.07 12.51 21.01 12.42 20.96C12.34 20.9 12.26 20.84 12.18 20.78C12.09 20.72 12.02 20.66 11.94 20.6C11.86 20.53 11.78 20.47 11.71 20.4C11.63 20.33 11.56 20.26 11.49 20.19C11.42 20.12 11.35 20.05 11.28 19.97C11.21 19.9 11.15 19.82 11.08 19.75C11.02 19.67 10.96 19.59 10.9 19.51C10.84 19.43 10.78 19.34 10.72 19.26C10.67 19.18 10.61 19.09 10.56 19C10.51 18.92 10.46 18.83 10.41 18.74C10.37 18.65 10.32 18.56 10.28 18.47C10.23 18.38 10.19 18.29 10.16 18.2C10.12 18.1 10.08 18.01 10.05 17.91C10.01 17.82 9.98 17.72 9.95 17.63C9.92 17.53 9.9 17.43 9.87 17.34C9.85 17.24 9.83 17.14 9.81 17.04C9.79 16.94 9.77 16.84 9.75 16.74C9.74 16.64 9.73 16.54 9.72 16.44C9.71 16.34 9.7 16.24 9.69 16.14C9.69 16.04 9.69 15.94 9.69 15.84C9.69 15.74 9.69 15.64 9.69 15.54C9.7 15.44 9.71 15.34 9.72 15.24C9.73 15.14 9.74 15.04 9.75 14.94C9.77 14.84 9.79 14.74 9.81 14.64C9.83 14.54 9.85 14.44 9.87 14.35C9.9 14.25 9.92 14.15 9.95 14.05C9.98 13.96 10.01 13.86 10.05 13.77C10.08 13.67 10.12 13.58 10.16 13.49C10.19 13.39 10.23 13.3 10.28 13.21C10.32 13.12 10.37 13.03 10.41 12.94C10.46 12.85 10.51 12.76 10.56 12.68C10.61 12.59 10.67 12.51 10.72 12.42C10.78 12.34 10.84 12.26 10.9 12.18C10.96 12.09 11.02 12.02 11.08 11.94C11.15 11.86 11.21 11.78 11.28 11.71C11.35 11.63 11.42 11.56 11.49 11.49C11.56 11.42 11.63 11.35 11.71 11.28C11.78 11.21 11.86 11.15 11.94 11.08C12.02 11.02 12.09 10.96 12.18 10.9C12.26 10.84 12.34 10.78 12.42 10.72C12.51 10.67 12.59 10.61 12.68 10.56C12.76 10.51 12.85 10.46 12.94 10.41C13.03 10.37 13.12 10.32 13.21 10.28C13.3 10.24 13.39 10.19 13.49 10.16C13.58 10.12 13.67 10.08 13.77 10.05C13.86 10.01 13.96 9.98 14.05 9.95C14.15 9.92 14.25 9.9 14.35 9.87C14.44 9.85 14.54 9.83 14.64 9.81C14.74 9.79 14.84 9.77 14.94 9.75C15.04 9.74 15.14 9.73 15.24 9.72C15.34 9.71 15.44 9.7 15.54 9.69C15.64 9.69 15.74 9.69 15.84 9.69C15.94 9.69 16.04 9.69 16.14 9.69C16.24 9.7 16.34 9.71 16.44 9.72C16.54 9.73 16.64 9.74 16.74 9.75C16.84 9.77 16.94 9.79 17.04 9.81C17.14 9.83 17.24 9.85 17.34 9.87C17.43 9.9 17.53 9.92 17.63 9.95C17.72 9.98 17.82 10.01 17.91 10.05C18.01 10.08 18.1 10.12 18.2 10.16C18.29 10.19 18.38 10.24 18.47 10.28C18.56 10.32 18.65 10.37 18.74 10.41C18.83 10.46 18.92 10.51 19 10.56C19.09 10.61 19.18 10.67 19.26 10.72C19.34 10.78 19.43 10.84 19.51 10.9C19.59 10.96 19.67 11.02 19.75 11.08C19.82 11.15 19.9 11.21 19.97 11.28C20.05 11.35 20.12 11.42 20.19 11.49C20.26 11.56 20.33 11.63 20.4 11.71C20.47 11.78 20.53 11.86 20.6 11.94C20.66 12.02 20.72 12.09 20.78 12.18C20.84 12.26 20.9 12.34 20.96 12.42C21.01 12.51 21.07 12.59 21.12 12.68C21.17 12.76 21.22 12.85 21.27 12.94C21.32 13.03 21.36 13.12 21.4 13.21C21.45 13.3 21.49 13.39 21.53 13.49C21.56 13.58 21.6 13.67 21.64 13.77C21.67 13.86 21.7 13.96 21.73 14.05C21.76 14.15 21.79 14.25 21.81 14.35C21.83 14.44 21.86 14.54 21.88 14.64C21.9 14.74 21.91 14.84 21.93 14.94C21.94 15.04 21.96 15.14 21.97 15.24C21.98 15.34 21.98 15.44 21.99 15.54C21.99 15.64 22 15.74 22 15.84C22 15.94 21.99 16.04 21.99 16.14C21.98 16.24 21.98 16.34 21.97 16.44C21.96 16.54 21.94 16.64 21.93 16.74C21.91 16.84 21.9 16.94 21.88 17.04C21.86 17.14 21.83 17.24 21.81 17.34C21.79 17.43 21.76 17.53 21.73 17.63C21.7 17.72 21.67 17.82 21.64 17.91C21.6 18.01 21.56 18.1 21.53 18.2C21.49 18.29 21.45 18.38 21.4 18.47C21.36 18.56 21.32 18.65 21.27 18.74C21.22 18.83 21.17 18.92 21.12 19C21.07 19.09 21.01 19.18 20.96 19.26C20.9 19.34 20.84 19.43 20.78 19.51C20.72 19.59 20.66 19.67 20.6 19.75C20.53 19.82 20.47 19.9 20.4 19.97C20.33 20.05 20.26 20.12 20.19 20.19C20.12 20.26 20.05 20.33 19.97 20.4C19.9 20.47 19.82 20.53 19.75 20.6C19.67 20.66 19.59 20.72 19.51 20.78C19.43 20.84 19.34 20.9 19.26 20.96C19.18 21.01 19.09 21.07 19 21.12C18.92 21.17 18.83 21.22 18.74 21.27C18.65 21.32 18.56 21.36 18.47 21.4C18.38 21.45 18.29 21.49 18.2 21.53C18.1 21.57 18.01 21.6 17.91 21.64C17.82 21.67 17.72 21.7 17.63 21.73C17.53 21.76 17.43 21.79 17.34 21.81C17.24 21.84 17.14 21.86 17.04 21.88C16.94 21.9 16.84 21.91 16.74 21.93C16.64 21.94 16.54 21.96 16.44 21.97C16.34 21.98 16.24 21.98 16.14 21.99C16.04 21.99 15.94 21.99 15.84 21.99ZM15.84 10.92C15.68 10.92 15.52 10.93 15.36 10.94C15.2 10.96 15.04 10.98 14.88 11.01C14.72 11.04 14.57 11.08 14.41 11.13C14.26 11.18 14.11 11.23 13.96 11.29C13.81 11.35 13.66 11.42 13.52 11.5C13.38 11.58 13.24 11.66 13.11 11.75C12.97 11.84 12.84 11.93 12.72 12.04C12.59 12.14 12.47 12.25 12.36 12.36C12.25 12.47 12.14 12.59 12.04 12.72C11.93 12.84 11.84 12.97 11.75 13.11C11.66 13.24 11.58 13.38 11.5 13.52C11.42 13.66 11.35 13.81 11.29 13.96C11.23 14.11 11.18 14.26 11.13 14.41C11.08 14.57 11.04 14.72 11.01 14.88C10.98 15.04 10.96 15.2 10.94 15.36C10.93 15.52 10.92 15.68 10.92 15.84C10.92 16 10.93 16.16 10.94 16.32C10.96 16.48 10.98 16.64 11.01 16.8C11.04 16.96 11.08 17.12 11.13 17.27C11.18 17.42 11.23 17.58 11.29 17.73C11.35 17.87 11.42 18.02 11.5 18.16C11.58 18.3 11.66 18.44 11.75 18.58C11.84 18.71 11.93 18.84 12.04 18.96C12.14 19.09 12.25 19.21 12.36 19.32C12.47 19.44 12.59 19.54 12.72 19.65C12.84 19.75 12.97 19.84 13.11 19.93C13.24 20.02 13.38 20.11 13.52 20.18C13.66 20.26 13.81 20.33 13.96 20.39C14.11 20.45 14.26 20.51 14.41 20.55C14.57 20.6 14.72 20.64 14.88 20.67C15.04 20.7 15.2 20.72 15.36 20.74C15.52 20.76 15.68 20.76 15.84 20.76C16 20.76 16.16 20.76 16.32 20.74C16.48 20.72 16.64 20.7 16.8 20.67C16.96 20.64 17.12 20.6 17.27 20.55C17.42 20.51 17.58 20.45 17.73 20.39C17.87 20.33 18.02 20.26 18.16 20.18C18.3 20.11 18.44 20.02 18.58 19.93C18.71 19.84 18.84 19.75 18.96 19.65C19.09 19.54 19.21 19.44 19.32 19.32C19.44 19.21 19.54 19.09 19.65 18.96C19.75 18.84 19.84 18.71 19.93 18.58C20.02 18.44 20.11 18.3 20.18 18.16C20.26 18.02 20.33 17.87 20.39 17.73C20.45 17.58 20.51 17.42 20.55 17.27C20.6 17.12 20.64 16.96 20.67 16.8C20.7 16.64 20.72 16.48 20.74 16.32C20.76 16.16 20.76 16 20.76 15.84C20.76 15.68 20.76 15.52 20.74 15.36C20.72 15.2 20.7 15.04 20.67 14.88C20.64 14.72 20.6 14.57 20.55 14.41C20.51 14.26 20.45 14.11 20.39 13.96C20.33 13.81 20.26 13.66 20.18 13.52C20.11 13.38 20.02 13.24 19.93 13.11C19.84 12.97 19.75 12.84 19.65 12.72C19.54 12.59 19.44 12.47 19.32 12.36C19.21 12.25 19.09 12.14 18.96 12.04C18.84 11.93 18.71 11.84 18.58 11.75C18.44 11.66 18.3 11.58 18.16 11.5C18.02 11.42 17.87 11.35 17.73 11.29C17.58 11.23 17.42 11.18 17.27 11.13C17.12 11.08 16.96 11.04 16.8 11.01C16.64 10.98 16.48 10.96 16.32 10.94C16.16 10.93 16 10.92 15.84 10.92Z" fill="#000000" fill-opacity="1.000000" fill-rule="nonzero"/>
	<path id="path" d="M15.53 18.61C15.45 18.61 15.37 18.59 15.3 18.56C15.22 18.53 15.16 18.49 15.1 18.43L12.95 16.28C12.92 16.25 12.9 16.21 12.88 16.18C12.86 16.15 12.84 16.11 12.83 16.08C12.82 16.04 12.81 16 12.8 15.97C12.8 15.93 12.8 15.89 12.8 15.85C12.8 15.81 12.8 15.77 12.81 15.74C12.82 15.7 12.83 15.66 12.85 15.63C12.86 15.59 12.88 15.56 12.9 15.53C12.93 15.5 12.95 15.47 12.98 15.44C13.01 15.41 13.03 15.39 13.07 15.37C13.1 15.34 13.13 15.33 13.17 15.31C13.2 15.3 13.24 15.28 13.28 15.28C13.31 15.27 13.35 15.26 13.39 15.26C13.43 15.26 13.47 15.26 13.5 15.27C13.54 15.27 13.58 15.28 13.62 15.29C13.65 15.31 13.69 15.32 13.72 15.34C13.75 15.36 13.78 15.38 13.81 15.41L15.53 17.12L18.64 14.02C18.67 14 18.7 13.98 18.73 13.96C18.77 13.94 18.8 13.92 18.84 13.91C18.87 13.9 18.91 13.89 18.95 13.88C18.99 13.88 19.02 13.87 19.06 13.88C19.1 13.88 19.14 13.88 19.18 13.89C19.21 13.9 19.25 13.91 19.28 13.93C19.32 13.94 19.35 13.96 19.39 13.98C19.42 14 19.45 14.03 19.47 14.06C19.5 14.08 19.52 14.11 19.55 14.14C19.57 14.18 19.59 14.21 19.6 14.24C19.62 14.28 19.63 14.32 19.64 14.35C19.65 14.39 19.65 14.43 19.65 14.47C19.65 14.5 19.65 14.54 19.65 14.58C19.64 14.62 19.63 14.66 19.62 14.69C19.61 14.73 19.59 14.76 19.57 14.8C19.55 14.83 19.53 14.86 19.51 14.89L15.97 18.43C15.91 18.49 15.84 18.53 15.77 18.56C15.69 18.59 15.62 18.61 15.53 18.61Z" fill="#000000" fill-opacity="1.000000" fill-rule="nonzero"/>
</svg>
