<svg width="20.117188" height="20.117157" viewBox="0 0 20.1172 20.1172" fill="none" xmlns="http://www.w3.org/2000/svg" xmlns:xlink="http://www.w3.org/1999/xlink">
	<desc>
			Created with Pixso.
	</desc>
	<defs/>
	<path id="path" d="M20.11 10.05C20.11 15.61 15.61 20.11 10.05 20.11C4.5 20.11 0 15.61 0 10.05C0 4.5 4.5 0 10.05 0C15.61 0 20.11 4.5 20.11 10.05ZM10.05 1.43C5.29 1.43 1.43 5.29 1.43 10.05C1.43 14.82 5.29 18.68 10.05 18.68C14.81 18.68 18.68 14.82 18.68 10.05C18.68 5.29 14.81 1.43 10.05 1.43ZM16.56 11.43C16.56 11.79 16.27 12.08 15.91 12.08L10.03 12.08C9.67 12.08 9.38 11.79 9.38 11.43L9.38 11.29C9.38 10.93 9.67 10.64 10.03 10.64L15.91 10.64C16.27 10.64 16.56 10.93 16.56 11.29L16.56 11.43ZM10.81 11.43C10.81 11.79 10.52 12.08 10.16 12.08L10 12.08C9.64 12.08 9.35 11.79 9.35 11.43L9.35 4.94C9.35 4.58 9.64 4.28 10 4.28L10.16 4.28C10.52 4.28 10.81 4.58 10.81 4.94L10.81 11.43Z" fill="#272636" fill-opacity="1.000000" fill-rule="nonzero"/>
</svg>
