<svg width="53.000000" height="45.000061" viewBox="0 0 53 45.0001" fill="none" xmlns="http://www.w3.org/2000/svg" xmlns:xlink="http://www.w3.org/1999/xlink">
	<desc>
			Created with Pixso.
	</desc>
	<defs/>
	<path id="path" d="M42.71 40.17C43.26 40.17 43.53 40.45 43.53 41L43.53 44.16C43.53 44.72 43.26 45 42.71 45L10.29 45C9.74 45 9.46 44.72 9.46 44.16L9.46 41C9.46 40.44 9.74 40.17 10.29 40.17L42.71 40.17ZM24.73 0.45C24.93 0.34 25.15 0.24 25.37 0.17C25.59 0.1 25.81 0.05 26.04 0.02C26.27 -0.01 26.5 -0.01 26.73 0.01C26.96 0.02 27.19 0.06 27.41 0.12C27.64 0.19 27.85 0.27 28.06 0.38C28.27 0.48 28.46 0.6 28.64 0.75C28.83 0.89 28.99 1.05 29.14 1.23C29.29 1.4 29.43 1.59 29.54 1.79C29.65 2 29.75 2.21 29.82 2.43C29.89 2.65 29.94 2.88 29.97 3.11C30 3.34 30 3.57 29.99 3.8C29.97 4.03 29.93 4.26 29.87 4.48C29.81 4.71 29.72 4.92 29.62 5.13C29.51 5.34 29.39 5.53 29.25 5.72C29.1 5.9 28.95 6.07 28.77 6.22C28.59 6.37 28.41 6.5 28.2 6.62L36.42 21.53L46.68 14.97C46.61 14.86 46.54 14.74 46.49 14.62C46.43 14.5 46.38 14.38 46.33 14.26C46.29 14.13 46.25 14 46.23 13.88C46.2 13.75 46.17 13.62 46.16 13.49C46.15 13.35 46.14 13.22 46.14 13.09C46.14 12.96 46.15 12.83 46.17 12.69C46.18 12.56 46.21 12.43 46.24 12.3C46.27 12.18 46.31 12.05 46.35 11.93C46.4 11.8 46.45 11.68 46.51 11.56C46.57 11.45 46.64 11.33 46.71 11.22C46.78 11.11 46.86 11 46.95 10.9C47.03 10.8 47.12 10.71 47.22 10.62C47.31 10.53 47.41 10.44 47.52 10.36C47.62 10.28 47.73 10.21 47.85 10.14C47.96 10.08 48.08 10.02 48.2 9.96C48.32 9.91 48.44 9.87 48.57 9.83C48.7 9.79 48.83 9.76 48.95 9.73C49.08 9.71 49.21 9.69 49.35 9.69C49.48 9.68 49.61 9.68 49.74 9.68C49.87 9.69 50 9.7 50.13 9.73C50.26 9.75 50.39 9.78 50.52 9.81C50.64 9.85 50.77 9.89 50.89 9.95C51.01 10 51.13 10.05 51.25 10.12C51.36 10.18 51.47 10.25 51.58 10.33C51.68 10.41 51.79 10.49 51.88 10.58C51.98 10.67 52.07 10.77 52.16 10.87C52.25 10.97 52.33 11.07 52.4 11.18C52.47 11.29 52.54 11.4 52.6 11.52C52.66 11.64 52.72 11.76 52.77 11.88C52.81 12 52.85 12.13 52.89 12.26C52.92 12.39 52.94 12.52 52.96 12.65C52.98 12.78 52.99 12.91 52.99 13.04C53 13.17 52.99 13.3 52.98 13.44C52.97 13.57 52.95 13.7 52.92 13.83C52.89 13.96 52.86 14.08 52.82 14.21C52.78 14.34 52.73 14.46 52.67 14.58C52.61 14.7 52.55 14.81 52.48 14.93C52.41 15.04 52.34 15.15 52.26 15.25C52.17 15.35 52.09 15.45 51.99 15.55C51.9 15.64 51.8 15.73 51.7 15.81C51.6 15.89 51.49 15.97 51.38 16.04C51.27 16.11 51.15 16.17 51.03 16.23C50.91 16.28 50.79 16.33 50.66 16.38C50.54 16.42 50.41 16.45 50.28 16.48C50.15 16.51 50.02 16.53 49.89 16.54C49.76 16.55 49.63 16.56 49.5 16.56C49.37 16.55 49.24 16.54 49.11 16.52C48.98 16.51 48.85 16.48 48.72 16.45L43.69 36.16C43.67 36.25 43.63 36.33 43.58 36.41C43.53 36.48 43.47 36.55 43.4 36.61C43.32 36.66 43.25 36.71 43.16 36.74C43.07 36.77 42.98 36.78 42.89 36.78L10.1 36.78C10.01 36.78 9.92 36.77 9.84 36.74C9.75 36.71 9.67 36.66 9.6 36.61C9.53 36.55 9.46 36.48 9.41 36.41C9.36 36.33 9.33 36.25 9.3 36.16L4.27 16.45C4.15 16.48 4.02 16.51 3.89 16.53C3.76 16.55 3.62 16.56 3.49 16.56C3.36 16.56 3.23 16.56 3.1 16.54C2.97 16.53 2.84 16.51 2.71 16.48C2.58 16.46 2.45 16.42 2.33 16.38C2.2 16.34 2.08 16.29 1.96 16.23C1.84 16.18 1.73 16.11 1.62 16.04C1.5 15.97 1.4 15.9 1.29 15.81C1.19 15.73 1.09 15.64 1 15.55C0.9 15.46 0.82 15.36 0.74 15.26C0.65 15.15 0.58 15.04 0.51 14.93C0.44 14.82 0.38 14.7 0.32 14.58C0.26 14.46 0.22 14.34 0.17 14.22C0.13 14.09 0.1 13.96 0.07 13.83C0.04 13.7 0.02 13.57 0.01 13.44C0 13.31 -0.01 13.18 0 13.05C0 12.91 0.01 12.78 0.03 12.65C0.04 12.52 0.07 12.39 0.1 12.26C0.14 12.14 0.18 12.01 0.22 11.89C0.27 11.76 0.33 11.64 0.39 11.53C0.45 11.41 0.52 11.29 0.59 11.19C0.66 11.08 0.74 10.97 0.83 10.87C0.92 10.77 1.01 10.68 1.1 10.59C1.2 10.5 1.3 10.41 1.41 10.34C1.52 10.26 1.63 10.19 1.74 10.12C1.86 10.06 1.98 10 2.1 9.95C2.22 9.9 2.34 9.85 2.47 9.82C2.6 9.78 2.72 9.75 2.85 9.73C2.98 9.71 3.11 9.69 3.25 9.69C3.38 9.68 3.51 9.68 3.64 9.69C3.77 9.7 3.9 9.71 4.03 9.74C4.16 9.76 4.29 9.79 4.42 9.83C4.54 9.87 4.67 9.91 4.79 9.97C4.91 10.02 5.02 10.08 5.14 10.14C5.25 10.21 5.36 10.28 5.47 10.36C5.57 10.44 5.68 10.53 5.77 10.62C5.87 10.71 5.96 10.8 6.04 10.9C6.13 11.01 6.21 11.11 6.28 11.22C6.35 11.33 6.42 11.45 6.48 11.56C6.54 11.68 6.59 11.8 6.64 11.93C6.68 12.05 6.72 12.18 6.75 12.3C6.78 12.43 6.81 12.56 6.82 12.69C6.84 12.83 6.85 12.96 6.85 13.09C6.85 13.22 6.84 13.35 6.83 13.48C6.82 13.62 6.79 13.75 6.77 13.88C6.74 14 6.7 14.13 6.66 14.26C6.61 14.38 6.56 14.5 6.51 14.62C6.45 14.74 6.38 14.86 6.31 14.97L16.57 21.54L24.79 6.62L24.73 6.59C24.48 6.44 24.25 6.26 24.04 6.06C23.83 5.86 23.65 5.63 23.5 5.38C23.34 5.14 23.22 4.87 23.13 4.59C23.05 4.32 22.99 4.03 22.97 3.74L22.97 3.52C22.97 2.25 23.64 1.08 24.73 0.45Z" fill="#D3B286" fill-opacity="1.000000" fill-rule="nonzero"/>
</svg>
