<svg width="24.000000" height="24.000000" viewBox="0 0 24 24" fill="none" xmlns="http://www.w3.org/2000/svg" xmlns:xlink="http://www.w3.org/1999/xlink">
	<desc>
			Created with Pixso.
	</desc>
	<defs/>
	<circle id="椭圆 1" cx="12.000000" cy="12.000000" r="12.000000" fill="#F1F3F5" fill-opacity="1.000000"/>
	<path id="ic_public_location_2_0" d="M8.02 8.5C8.64 7.88 9.26 7.26 9.89 6.64C10.19 6.33 10.52 6.07 10.89 5.85C11.67 5.4 12.43 5.44 13.19 5.91C13.57 6.15 13.92 6.44 14.23 6.76C15.42 7.95 16.61 9.14 17.8 10.33C18.1 10.63 18.37 10.97 18.59 11.33C19.07 12.12 19.05 12.9 18.56 13.68C18.33 14.04 18.06 14.38 17.75 14.68C16.54 15.89 15.34 17.09 14.13 18.3C13.84 18.6 13.5 18.86 13.15 19.08C12.35 19.56 11.57 19.53 10.79 19.05C10.42 18.81 10.07 18.52 9.76 18.2C8.57 17.01 7.39 15.83 6.2 14.64C5.9 14.34 5.63 14 5.4 13.64C4.92 12.85 4.94 12.06 5.43 11.28C5.68 10.88 5.98 10.54 6.31 10.21C6.88 9.64 7.45 9.07 8.02 8.5Z" fill="#FFFFFF" fill-opacity="0" fill-rule="nonzero"/>
	<path id="ic_public_location_2_0" d="M9.89 6.64C10.19 6.33 10.52 6.07 10.89 5.85C11.67 5.4 12.43 5.44 13.19 5.91C13.57 6.15 13.92 6.44 14.23 6.76C15.42 7.95 16.61 9.14 17.8 10.33C18.1 10.63 18.37 10.97 18.59 11.33C19.07 12.12 19.05 12.9 18.56 13.68C18.33 14.04 18.06 14.38 17.75 14.68C16.54 15.89 15.34 17.09 14.13 18.3C13.84 18.6 13.5 18.86 13.15 19.08C12.35 19.56 11.57 19.53 10.79 19.05C10.42 18.81 10.07 18.52 9.76 18.2C8.57 17.01 7.39 15.83 6.2 14.64C5.9 14.34 5.63 14 5.4 13.64C4.92 12.85 4.94 12.06 5.43 11.28C5.68 10.88 5.98 10.54 6.31 10.21C6.88 9.64 7.45 9.07 8.02 8.5C8.64 7.88 9.26 7.26 9.89 6.64Z" stroke="#FFFFFF" stroke-opacity="0" stroke-width="1.000000"/>
	<g opacity="0.200000">
		<path id="ic_public_location_2_1" d="M8.02 8.5C8.64 7.88 9.26 7.26 9.89 6.64C10.19 6.33 10.52 6.07 10.89 5.85C11.67 5.4 12.43 5.44 13.19 5.91C13.57 6.15 13.92 6.44 14.23 6.76C15.42 7.95 16.61 9.14 17.8 10.33C18.1 10.63 18.37 10.97 18.59 11.33C19.07 12.12 19.05 12.9 18.56 13.68C18.33 14.04 18.06 14.38 17.75 14.68C16.54 15.89 15.34 17.09 14.13 18.3C13.84 18.6 13.5 18.86 13.15 19.08C12.35 19.56 11.57 19.53 10.79 19.05C10.42 18.81 10.07 18.52 9.76 18.2C8.57 17.01 7.39 15.83 6.2 14.64C5.9 14.34 5.63 14 5.4 13.64C4.92 12.85 4.94 12.06 5.43 11.28C5.68 10.88 5.98 10.54 6.31 10.21C6.88 9.64 7.45 9.07 8.02 8.5Z" fill="#000000" fill-opacity="0" fill-rule="nonzero"/>
		<path id="ic_public_location_2_1" d="M9.89 6.64C10.19 6.33 10.52 6.07 10.89 5.85C11.67 5.4 12.43 5.44 13.19 5.91C13.57 6.15 13.92 6.44 14.23 6.76C15.42 7.95 16.61 9.14 17.8 10.33C18.1 10.63 18.37 10.97 18.59 11.33C19.07 12.12 19.05 12.9 18.56 13.68C18.33 14.04 18.06 14.38 17.75 14.68C16.54 15.89 15.34 17.09 14.13 18.3C13.84 18.6 13.5 18.86 13.15 19.08C12.35 19.56 11.57 19.53 10.79 19.05C10.42 18.81 10.07 18.52 9.76 18.2C8.57 17.01 7.39 15.83 6.2 14.64C5.9 14.34 5.63 14 5.4 13.64C4.92 12.85 4.94 12.06 5.43 11.28C5.68 10.88 5.98 10.54 6.31 10.21C6.88 9.64 7.45 9.07 8.02 8.5C8.64 7.88 9.26 7.26 9.89 6.64Z" stroke="#FFFFFF" stroke-opacity="0" stroke-width="1.000000"/>
	</g>
	<circle id="ic_public_location_2_2" r="6.000000" transform="matrix(0.707107 0.707107 -0.707107 0.707107 12 12.4855)" fill="#FFFFFF" fill-opacity="0"/>
	<circle id="ic_public_location_2_2" r="6.000000" transform="matrix(0.707107 0.707107 -0.707107 0.707107 12 12.4855)" stroke="#000000" stroke-opacity="0" stroke-width="1.000000"/>
	<path id="ic_public_location_2_3" d="M14.14 9.37L6.92 12.12C6.53 12.27 6.34 12.71 6.49 13.09C6.57 13.3 6.74 13.47 6.95 13.54L9.59 14.42C9.81 14.49 9.99 14.67 10.06 14.89L10.94 17.52C11.07 17.92 11.5 18.13 11.89 18C12.1 17.93 12.27 17.76 12.35 17.55L15.11 10.33C15.26 9.95 15.06 9.51 14.68 9.37C14.5 9.3 14.31 9.3 14.14 9.37Z" fill="#191919" fill-opacity="1.000000" fill-rule="evenodd"/>
	<path id="ic_public_location_2_3" d="M6.92 12.12C6.53 12.27 6.34 12.71 6.49 13.09C6.57 13.3 6.74 13.47 6.95 13.54L9.59 14.42C9.81 14.49 9.99 14.67 10.06 14.89L10.94 17.52C11.07 17.92 11.5 18.13 11.89 18C12.1 17.93 12.27 17.76 12.35 17.55L15.11 10.33C15.26 9.95 15.06 9.51 14.68 9.37C14.5 9.3 14.31 9.3 14.14 9.37L6.92 12.12Z" stroke="#191919" stroke-opacity="1.000000" stroke-width="1.000000" stroke-linejoin="round"/>
</svg>
