<svg width="342.200195" height="300.000000" viewBox="0 0 342.2 300" fill="none" xmlns="http://www.w3.org/2000/svg" xmlns:xlink="http://www.w3.org/1999/xlink">
	<desc>
			Created with Pixso.
	</desc>
	<defs>
		<clipPath id="clip51_3244">
			<rect id="icon_canceled.svg" width="342.200012" height="300.000000" fill="white" fill-opacity="0"/>
		</clipPath>
	</defs>
	<g clip-path="url(#clip51_3244)">
		<path id="path" d="M338.9 101.3L287.1 19.5C282.6 12.4 273.1 10.3 266 14.8L7.1 178.5C0 183 -2.1 192.4 2.3 199.6L54.2 281.4C58.7 288.5 68.2 290.6 75.3 286.1L334.1 122.4C341.3 117.9 343.4 108.4 338.9 101.3ZM328.6 113.6L69.8 277.29C67.5 278.7 64.5 278.1 63.1 275.79L11.2 194C9.8 191.7 10.4 188.7 12.7 187.3L271.5 23.5C273.79 22.1 276.79 22.7 278.2 25L330.1 106.8C331.5 109.1 330.9 112.1 328.6 113.6ZM105.5 61.7L109.8 72L115.4 62.3L126.5 61.4L119 53.1L121.5 42.3L111.4 46.9L101.8 41.1L103 52.2L94.5 59.4C94.6 59.4 105.5 61.7 105.5 61.7ZM171.4 31L166.1 21.2L161.6 31.4L150.6 33.5L158.89 40.9L157.39 52L167.1 46.4L177.2 51.2L174.9 40.2L182.6 32.09L171.4 31ZM271.9 195.4L263.1 188.6L263.1 199.8L253.9 206L264.5 209.5L267.6 220.2L274.2 211.2L285.4 211.5L278.79 202.4L282.6 191.9L271.9 195.4ZM235.8 239.8L231.6 229.5L225.9 239.1L214.8 239.9L222.2 248.2L219.6 259L229.8 254.5L239.3 260.4L238.2 249.3L246.7 242.1L235.8 239.8ZM169.6 270.1L174.9 280L179.5 269.79L190.5 267.79L182.3 260.29L183.8 249.2L174.1 254.7L164.1 249.8L166.3 260.7L158.5 268.79L169.6 270.1ZM70.5 104.9L79.3 111.8L79.39 100.6L88.7 94.4L78.1 90.8L75.1 80L68.39 89L57.2 88.6L63.7 97.7L59.8 108.2L70.5 104.9ZM31.2 153C30 105.8 53 59.1 95.8 32.09C138.6 5.09 190.6 4.19 232.9 25.5L243.1 19.1C171 -21.3 79.89 4.5 39.6 76.6C25.5 101.8 19 130.6 20.9 159.5L31.2 153ZM309.2 145.8C310.4 193 287.5 239.7 244.7 266.79C201.9 293.9 149.89 294.6 107.6 273.4L97.39 279.9C169.5 320.2 260.5 294.4 300.79 222.3C307.79 209.7 313 196.2 316.2 182.1C319.4 168.1 320.5 153.6 319.5 139.3L309.2 145.8ZM126.7 80.8C138.2 73.5 151.39 69.19 165.1 68.4L180.9 58.4C137.8 53.4 97.1 79.1 83.2 120.2L99 110.2C105.6 98.2 115.1 88.1 126.7 80.8ZM213.7 218.1C202.2 225.4 189 229.7 175.3 230.5L159.5 240.5C202.6 245.5 243.3 219.8 257.2 178.7L241.4 188.7C234.9 200.7 225.3 210.8 213.7 218.1Z" fill="#E1E1E1" fill-opacity="1.000000" fill-rule="nonzero"/>
		<path id="已失效" d="M207.83 80.95L203.08 86.27Q207.56 89.29 212.01 92.05L198.07 101L202.09 107.26L232.59 87.68L228.58 81.42L215.44 89.85L217.72 87.62Q212.81 84.11 207.83 80.95ZM155.3 192.98L162.83 196.71Q166.33 191.91 169.06 186.7Q171.4 182.21 173.17 177.43Q174.69 173.11 175.58 168.66Q175.67 168.18 175.76 167.69Q176.26 163.29 175.94 158.64Q181.67 161.65 187.77 163.13Q190.07 163.69 192.42 164.03Q196.61 164.46 200.79 164.44Q202.1 164.44 203.4 164.39Q209.35 163.91 215.3 162.65L214.83 154.5Q208.63 155.81 202.41 156.48Q199.72 156.72 197.04 156.66Q194.42 156.6 191.8 156.26Q186.55 155.5 181.87 153.46Q178.88 152.16 176.12 150.34L200.36 134.78L196.3 128.45L171.31 144.48Q167.78 138.98 164.68 133.53L186.22 119.72L182.33 113.65L160.79 127.47L153.71 116.44L147.11 120.68L154.18 131.71L142.61 139.14Q141.59 134.57 140.26 130.3L133.16 132.58Q135.23 139.79 136.61 147.1Q137.43 153.6 137.34 160.39L144.99 159.59Q144.99 157.74 144.89 155.89Q144.66 151.38 143.87 146.89L158.08 137.78Q161.36 143.47 164.72 148.71L138.67 165.43L142.73 171.76L167.5 155.86Q167.78 156.85 167.95 157.86Q168.52 161.04 168.13 164.4Q167.49 169.19 166.06 173.91Q163.9 179.29 161.01 184.56Q158.21 188.93 155.3 192.98ZM235.63 97.62L242.52 100.32Q242.46 98.46 242.44 96.66Q245.7 100.01 249.41 102.75Q254.26 106.33 259.88 108.86Q259.17 114.16 257.76 118.76Q255.84 125.32 253.03 131.48Q252.93 131.71 252.82 131.93L260.18 134.24Q262.53 127.97 264.34 121.6Q265.8 116.94 266.49 111.65Q266.95 111.8 267.42 111.94Q277.76 115.12 288.86 115.84L289.46 108.02Q285.41 107.86 281.42 107.28Q274.16 106.23 267.09 103.84Q267.01 101.98 266.83 100.14Q266.32 95.18 265.07 90.3Q263.46 85.17 261.47 80.19Q259.97 76.42 258.25 72.73L263.23 69.53L259.35 63.48L239.9 75.96Q239.76 75.3 239.61 74.63Q238.44 69.44 236.57 64.41L229.99 67.49Q232.59 74.37 233.98 81.27Q235.61 89.56 235.63 97.62ZM102.99 153.84L53.23 185.77L57.29 192.1L100.46 164.4L109.86 179.06L74.85 201.53L69.28 192.85L62.48 197.22L82.74 228.8Q84.6 231.69 87.28 234.06Q88.42 235.34 89.83 235.77Q90.03 235.83 90.23 235.87Q92.14 236.28 93.92 235.95Q94.61 235.82 95.28 235.58Q98.69 234.53 101.59 232.67L131.27 213.62Q134.17 211.76 136.71 209.36Q137.7 208.37 138.38 207.2Q138.92 206.24 139.27 205.17Q139.57 203.44 139.3 201.83Q138.33 199.12 136.9 196.32Q134.38 191.2 131.79 186.58L123.88 189.38L129.02 197.96Q129.79 199.74 130.5 201.47Q130.59 201.72 130.63 201.98Q130.71 202.69 130.37 203.46Q130.31 203.74 130.21 204Q129.85 205.01 128.93 205.82Q127.21 207.29 125.24 208.19L99.44 224.74Q99.13 225.01 98.79 225.26Q97.37 226.31 95.62 226.92Q95.06 227.27 94.46 227.37Q93.68 227.49 92.84 227.17Q91.78 226.71 90.98 226.09Q89.53 224.84 88.55 222.89L78.74 207.6L120.35 180.9L102.99 153.84ZM210.54 124.56L217.11 125.47Q218.99 113.89 218.23 101.75L211.56 102.32Q211.95 107.3 211.86 112.28Q211.85 113.35 211.81 114.41Q211.4 119.53 210.54 124.56ZM223.07 94.93L220.66 100.94Q228.64 103.61 236.62 106.68L230.45 108.07Q231.87 113.82 232.5 119.4Q226.86 118.17 221.05 116.67L218.99 123.22L232.61 127.12Q232.05 132.61 230.62 138.38Q228.78 143.65 226.49 148.83L233.66 151.26Q235.8 145.41 237.71 139.05Q239.01 134.13 239.27 128.75L251.12 132.25L253.38 125.28Q246.53 123.32 239.52 121.16Q239.05 114.06 237.22 107.04Q239.32 107.5 241.43 108.43L243.69 102.15Q233.34 98.79 223.07 94.93ZM241.42 83.53L252.46 76.44Q255.55 83.02 257.9 90.08Q259.4 95.38 260.03 100.96Q255.13 98.49 251.1 95.18Q246.04 91.31 241.69 86.3Q241.59 84.95 241.42 83.53Z" fill="#E1E1E1" fill-opacity="1.000000" fill-rule="evenodd"/>
	</g>
</svg>
