<svg width="12.000000" height="12.000000" viewBox="0 0 12 12" fill="none" xmlns="http://www.w3.org/2000/svg" xmlns:xlink="http://www.w3.org/1999/xlink">
	<desc>
			Created with Pixso.
	</desc>
	<defs>
		<clipPath id="clip14_1667">
			<rect id="ic_public_position" width="12.000000" height="12.000000" fill="white" fill-opacity="0"/>
		</clipPath>
	</defs>
	<g clip-path="url(#clip14_1667)">
		<path id="path1" d="M0 5.99C0 5.05 -0.01 4.12 0 3.18C-0.01 2.72 0.05 2.27 0.16 1.83C0.41 0.9 1.01 0.35 1.94 0.14C2.41 0.04 2.89 -0.01 3.36 3.05e-5C5.16 3.05e-5 6.95 3.05e-5 8.76 3.05e-5C9.21 -0.01 9.66 0.04 10.1 0.15C11.06 0.38 11.64 0.99 11.85 1.95C11.95 2.4 12 2.86 11.99 3.32C11.99 5.14 11.99 6.95 11.99 8.77C12 9.22 11.95 9.67 11.84 10.1C11.61 11.06 11 11.63 10.04 11.85C9.58 11.95 9.1 12 8.62 11.99C6.83 11.99 5.04 11.99 3.25 11.99C2.8 12 2.34 11.95 1.89 11.84C0.93 11.61 0.36 11 0.14 10.04C0.03 9.55 0 9.06 0 8.57C0 7.71 0 6.85 0 5.99Z" fill="#FFFFFF" fill-opacity="0" fill-rule="evenodd"/>
		<circle id="path2" cx="6.000000" cy="6.000000" r="6.000000" fill="#FFFFFF" fill-opacity="0"/>
		<path id="path5" d="M6 11.5C6 11.5 10.44 8.1 10.44 4.87C10.44 2.41 8.45 0.5 6 0.5C3.54 0.5 1.55 2.41 1.55 4.87C1.55 8.1 6 11.5 6 11.5Z" fill="#FFFFFF" fill-opacity="0" fill-rule="evenodd"/>
		<path id="path5" d="M10.44 4.87C10.44 2.41 8.45 0.5 6 0.5C3.54 0.5 1.55 2.41 1.55 4.87C1.55 8.1 6 11.5 6 11.5C6 11.5 10.44 8.1 10.44 4.87Z" fill="#000000" fill-opacity="0" fill-rule="nonzero"/>
		<path id="path5" d="M6 0.5C3.54 0.5 1.55 2.41 1.55 4.87C1.55 8.1 6 11.5 6 11.5C6 11.5 10.44 8.1 10.44 4.87C10.44 2.41 8.45 0.5 6 0.5Z" stroke="#191919" stroke-opacity="1.000000" stroke-width="1.000000" stroke-linejoin="round"/>
		<circle id="path6" cx="6.000000" cy="4.946869" r="1.404276" fill="#FFFFFF" fill-opacity="0"/>
		<circle id="path6" cx="6.000000" cy="4.946869" r="1.404276" fill="#000000" fill-opacity="0"/>
		<circle id="path6" cx="6.000000" cy="4.946869" r="1.404276" stroke="#191919" stroke-opacity="1.000000" stroke-width="1.000000"/>
	</g>
</svg>
