<svg width="20.000000" height="20.000000" viewBox="0 0 20 20" fill="none" xmlns="http://www.w3.org/2000/svg" xmlns:xlink="http://www.w3.org/1999/xlink">
	<desc>
			Created with Pixso.
	</desc>
	<defs>
		<clipPath id="clip3_3029">
			<rect id="ic_public_person" width="20.000000" height="20.000000" fill="white" fill-opacity="0"/>
		</clipPath>
	</defs>
	<g opacity="0.330000">
		<g clip-path="url(#clip3_3029)">
			<rect id="ic_public_person-我的/base/ic_public_person" width="20.000000" height="20.000000" fill="#FFFFFF" fill-opacity="0"/>
			<path id="path1" d="M0 9.99C0 8.42 -0.01 6.86 0 5.3C-0.01 4.54 0.09 3.79 0.27 3.06C0.68 1.51 1.69 0.59 3.24 0.23C4.02 0.06 4.81 -0.02 5.6 6.1e-5C8.6 6.1e-5 11.6 6.1e-5 14.6 6.1e-5C15.35 -0.01 16.1 0.07 16.84 0.25C18.44 0.64 19.39 1.65 19.76 3.25C19.92 4 20 4.76 19.99 5.53C19.99 8.56 19.99 11.59 19.99 14.62C20 15.37 19.91 16.12 19.74 16.85C19.35 18.44 18.33 19.39 16.74 19.76C15.96 19.92 15.17 20 14.37 19.99C11.39 19.99 8.41 19.99 5.42 19.99C4.66 20 3.9 19.91 3.16 19.74C1.56 19.35 0.6 18.33 0.23 16.73C0.04 15.92 0 15.11 0 14.29C0 12.85 0 11.42 0 9.99Z" fill="#FFFFFF" fill-opacity="0" fill-rule="evenodd"/>
			<circle id="path2" cx="10.000000" cy="10.000000" r="10.000000" fill="#FFFFFF" fill-opacity="0"/>
			<path id="path3" d="M8.76 11.25L11.23 11.25C14.92 11.25 17.91 14.23 17.91 17.92C17.91 18.61 17.36 19.16 16.67 19.16L3.31 19.16C2.63 19.16 2.08 18.61 2.08 17.92C2.08 14.23 5.07 11.25 8.76 11.25Z" fill="#FFFFFF" fill-opacity="0" fill-rule="evenodd"/>
			<path id="path3" d="M11.23 11.25C14.92 11.25 17.91 14.23 17.91 17.92C17.91 18.61 17.36 19.16 16.67 19.16L3.31 19.16C2.63 19.16 2.08 18.61 2.08 17.92C2.08 14.23 5.07 11.25 8.76 11.25L11.23 11.25Z" fill="#000000" fill-opacity="0" fill-rule="nonzero"/>
			<path id="path3" d="M17.91 17.92C17.91 18.61 17.36 19.16 16.67 19.16L3.31 19.16C2.63 19.16 2.08 18.61 2.08 17.92C2.08 14.23 5.07 11.25 8.76 11.25L11.23 11.25C14.92 11.25 17.91 14.23 17.91 17.92Z" stroke="#191919" stroke-opacity="1.000000" stroke-width="1.995000" stroke-linejoin="round"/>
			<circle id="path4" cx="10.000000" cy="4.791595" r="3.958333" fill="#FFFFFF" fill-opacity="0"/>
			<circle id="path4" cx="10.000000" cy="4.791595" r="3.958333" fill="#000000" fill-opacity="0"/>
			<circle id="path4" cx="10.000000" cy="4.791595" r="3.958333" stroke="#191919" stroke-opacity="1.000000" stroke-width="1.995000" stroke-linejoin="round"/>
		</g>
	</g>
</svg>
