<svg width="48.000000" height="48.000000" viewBox="0 0 48 48" fill="none" xmlns="http://www.w3.org/2000/svg" xmlns:xlink="http://www.w3.org/1999/xlink">
	<desc>
			Created with Pixso.
	</desc>
	<defs>
		<clipPath id="clip31_2748">
			<rect id="ic_public_qrcode" width="48.000000" height="48.000000" fill="white" fill-opacity="0"/>
		</clipPath>
	</defs>
	<g clip-path="url(#clip31_2748)">
		<path id="ic_public_qrcode_2_0" d="M1.5 23.98C1.5 20.46 1.49 16.95 1.5 13.43C1.49 11.73 1.7 10.04 2.12 8.39C3.04 4.9 5.32 2.83 8.8 2.02C10.55 1.65 12.33 1.47 14.12 1.5C20.86 1.5 27.6 1.5 34.35 1.5C36.05 1.49 37.75 1.68 39.4 2.08C42.99 2.96 45.15 5.23 45.97 8.81C46.34 10.5 46.51 12.23 46.49 13.96C46.49 20.77 46.49 27.59 46.49 34.4C46.5 36.09 46.31 37.77 45.92 39.41C45.04 43 42.75 45.14 39.17 45.97C37.43 46.34 35.64 46.52 33.85 46.49C27.14 46.49 20.43 46.49 13.72 46.49C12 46.51 10.29 46.31 8.62 45.92C5.01 45.04 2.85 42.76 2.03 39.16C1.61 37.33 1.5 35.5 1.5 33.65C1.5 30.43 1.5 27.2 1.5 23.98Z" fill="#FFFFFF" fill-opacity="0" fill-rule="nonzero"/>
		<path id="ic_public_qrcode_2_0" d="M1.5 13.43C1.49 11.73 1.7 10.04 2.12 8.39C3.04 4.9 5.32 2.83 8.8 2.02C10.55 1.65 12.33 1.47 14.12 1.5C20.86 1.5 27.6 1.5 34.35 1.5C36.05 1.49 37.75 1.68 39.4 2.08C42.99 2.96 45.15 5.23 45.97 8.81C46.34 10.5 46.51 12.23 46.49 13.96C46.49 20.77 46.49 27.59 46.49 34.4C46.5 36.09 46.31 37.77 45.92 39.41C45.04 43 42.75 45.14 39.17 45.97C37.43 46.34 35.64 46.52 33.85 46.49C27.14 46.49 20.43 46.49 13.72 46.49C12 46.51 10.29 46.31 8.62 45.92C5.01 45.04 2.85 42.76 2.03 39.16C1.61 37.33 1.5 35.5 1.5 33.65C1.5 30.43 1.5 27.2 1.5 23.98C1.5 20.46 1.49 16.95 1.5 13.43Z" stroke="#FFFFFF" stroke-opacity="0" stroke-width="3.000000"/>
		<g opacity="0.200000">
			<path id="ic_public_qrcode_2_1" d="M1.5 23.98C1.5 20.46 1.49 16.95 1.5 13.43C1.49 11.73 1.7 10.04 2.12 8.39C3.04 4.9 5.32 2.83 8.8 2.02C10.55 1.65 12.33 1.47 14.12 1.5C20.86 1.5 27.6 1.5 34.35 1.5C36.05 1.49 37.75 1.68 39.4 2.08C42.99 2.96 45.15 5.23 45.97 8.81C46.34 10.5 46.51 12.23 46.49 13.96C46.49 20.77 46.49 27.59 46.49 34.4C46.5 36.09 46.31 37.77 45.92 39.41C45.04 43 42.75 45.14 39.17 45.97C37.43 46.34 35.64 46.52 33.85 46.49C27.14 46.49 20.43 46.49 13.72 46.49C12 46.51 10.29 46.31 8.62 45.92C5.01 45.04 2.85 42.76 2.03 39.16C1.61 37.33 1.5 35.5 1.5 33.65C1.5 30.43 1.5 27.2 1.5 23.98Z" fill="#000000" fill-opacity="0" fill-rule="nonzero"/>
			<path id="ic_public_qrcode_2_1" d="M1.5 13.43C1.49 11.73 1.7 10.04 2.12 8.39C3.04 4.9 5.32 2.83 8.8 2.02C10.55 1.65 12.33 1.47 14.12 1.5C20.86 1.5 27.6 1.5 34.35 1.5C36.05 1.49 37.75 1.68 39.4 2.08C42.99 2.96 45.15 5.23 45.97 8.81C46.34 10.5 46.51 12.23 46.49 13.96C46.49 20.77 46.49 27.59 46.49 34.4C46.5 36.09 46.31 37.77 45.92 39.41C45.04 43 42.75 45.14 39.17 45.97C37.43 46.34 35.64 46.52 33.85 46.49C27.14 46.49 20.43 46.49 13.72 46.49C12 46.51 10.29 46.31 8.62 45.92C5.01 45.04 2.85 42.76 2.03 39.16C1.61 37.33 1.5 35.5 1.5 33.65C1.5 30.43 1.5 27.2 1.5 23.98C1.5 20.46 1.49 16.95 1.5 13.43Z" stroke="#FFFFFF" stroke-opacity="0" stroke-width="3.000000"/>
		</g>
		<circle id="ic_public_qrcode_2_2" cx="24.000000" cy="24.000000" r="24.000000" fill="#FFFFFF" fill-opacity="0"/>
		<circle id="ic_public_qrcode_2_2" cx="24.000000" cy="24.000000" r="24.000000" stroke="#000000" stroke-opacity="0" stroke-width="3.000000"/>
		<path id="ic_public_qrcode_2_3" d="M5 3L18 3C19.1 3 20 3.89 20 5L20 18C20 19.1 19.1 20 18 20L5 20C3.89 20 3 19.1 3 18L3 5C3 3.89 3.89 3 5 3ZM5 28L18 28C19.1 28 20 28.89 20 30L20 43C20 44.1 19.1 45 18 45L5 45C3.89 45 3 44.1 3 43L3 30C3 28.89 3.89 28 5 28ZM30 3L43 3C44.1 3 45 3.89 45 5L45 18C45 19.1 44.1 20 43 20L30 20C28.89 20 28 19.1 28 18L28 5C28 3.89 28.89 3 30 3Z" fill="#000000" fill-opacity="0" fill-rule="evenodd"/>
		<path id="ic_public_qrcode_2_3" d="M18 3C19.1 3 20 3.89 20 5L20 18C20 19.1 19.1 20 18 20L5 20C3.89 20 3 19.1 3 18L3 5C3 3.89 3.89 3 5 3L18 3ZM18 28C19.1 28 20 28.89 20 30L20 43C20 44.1 19.1 45 18 45L5 45C3.89 45 3 44.1 3 43L3 30C3 28.89 3.89 28 5 28L18 28ZM43 3C44.1 3 45 3.89 45 5L45 18C45 19.1 44.1 20 43 20L30 20C28.89 20 28 19.1 28 18L28 5C28 3.89 28.89 3 30 3L43 3Z" stroke="#191919" stroke-opacity="1.000000" stroke-width="3.000000" stroke-linejoin="round"/>
		<path id="ic_public_qrcode_2_4" d="M18 2C19.65 2 21 3.34 21 5L21 18C21 19.65 19.65 21 18 21L5 21C3.34 21 2 19.65 2 18L2 5C2 3.34 3.34 2 5 2L18 2ZM18 4L5 4C4.44 4 4 4.44 4 5L4 18C4 18.55 4.44 19 5 19L18 19C18.55 19 19 18.55 19 18L19 5C19 4.44 18.55 4 18 4ZM18 27C19.65 27 21 28.34 21 30L21 43C21 44.65 19.65 46 18 46L5 46C3.34 46 2 44.65 2 43L2 30C2 28.34 3.34 27 5 27L18 27ZM18 29L5 29C4.44 29 4 29.44 4 30L4 43C4 43.55 4.44 44 5 44L18 44C18.55 44 19 43.55 19 43L19 30C19 29.44 18.55 29 18 29ZM43 2C44.65 2 46 3.34 46 5L46 18C46 19.65 44.65 21 43 21L30 21C28.34 21 27 19.65 27 18L27 5C27 3.34 28.34 2 30 2L43 2ZM43 4L30 4C29.44 4 29 4.44 29 5L29 18C29 18.55 29.44 19 30 19L43 19C43.55 19 44 18.55 44 18L44 5C44 4.44 43.55 4 43 4Z" fill="#FFFFFF" fill-opacity="0" fill-rule="nonzero"/>
		<path id="ic_public_qrcode_2_4" d="M21 5L21 18C21 19.65 19.65 21 18 21L5 21C3.34 21 2 19.65 2 18L2 5C2 3.34 3.34 2 5 2L18 2C19.65 2 21 3.34 21 5ZM5 4C4.44 4 4 4.44 4 5L4 18C4 18.55 4.44 19 5 19L18 19C18.55 19 19 18.55 19 18L19 5C19 4.44 18.55 4 18 4L5 4ZM21 30L21 43C21 44.65 19.65 46 18 46L5 46C3.34 46 2 44.65 2 43L2 30C2 28.34 3.34 27 5 27L18 27C19.65 27 21 28.34 21 30ZM5 29C4.44 29 4 29.44 4 30L4 43C4 43.55 4.44 44 5 44L18 44C18.55 44 19 43.55 19 43L19 30C19 29.44 18.55 29 18 29L5 29ZM46 5L46 18C46 19.65 44.65 21 43 21L30 21C28.34 21 27 19.65 27 18L27 5C27 3.34 28.34 2 30 2L43 2C44.65 2 46 3.34 46 5ZM30 4C29.44 4 29 4.44 29 5L29 18C29 18.55 29.44 19 30 19L43 19C43.55 19 44 18.55 44 18L44 5C44 4.44 43.55 4 43 4L30 4Z" stroke="#FFFFFF" stroke-opacity="0" stroke-width="3.000000" stroke-linejoin="round"/>
		<path id="ic_public_qrcode_2_5" d="M43 28L43 35L45 35L45 28L43 28ZM35 28L35 30.33L35 35L32.66 35L32.66 30.33L28 30.33L28 28L35 28ZM28 38L28 45L30 45L30 38L28 38ZM43 43L43 45L45 45L45 43L43 43ZM38 38L38 40L40 40L40 38L38 38Z" fill="#191919" fill-opacity="1.000000" fill-rule="nonzero"/>
		<path id="ic_public_qrcode_2_5" d="M43 35L45 35L45 28L43 28L43 35ZM35 30.33L35 35L32.66 35L32.66 30.33L28 30.33L28 28L35 28L35 30.33ZM28 45L30 45L30 38L28 38L28 45ZM43 45L45 45L45 43L43 43L43 45ZM38 40L40 40L40 38L38 38L38 40Z" stroke="#191919" stroke-opacity="1.000000" stroke-width="3.000000" stroke-linejoin="round"/>
		<path id="ic_public_qrcode_2_6" d="M10.5 10.5L10.5 12.5L12.5 12.5L12.5 10.5L10.5 10.5ZM10.5 35.5L10.5 37.5L12.5 37.5L12.5 35.5L10.5 35.5ZM35.5 10.5L35.5 12.5L37.5 12.5L37.5 10.5L35.5 10.5Z" fill="#191919" fill-opacity="1.000000" fill-rule="nonzero"/>
		<path id="ic_public_qrcode_2_6" d="M10.5 12.5L12.5 12.5L12.5 10.5L10.5 10.5L10.5 12.5ZM10.5 37.5L12.5 37.5L12.5 35.5L10.5 35.5L10.5 37.5ZM35.5 12.5L37.5 12.5L37.5 10.5L35.5 10.5L35.5 12.5Z" stroke="#191919" stroke-opacity="1.000000" stroke-width="3.000000" stroke-linejoin="round"/>
	</g>
</svg>
