<svg width="10.000000" height="10.000000" viewBox="0 0 10 10" fill="none" xmlns="http://www.w3.org/2000/svg" xmlns:xlink="http://www.w3.org/1999/xlink">
	<desc>
			Created with Pixso.
	</desc>
	<defs>
		<clipPath id="clip14_1608">
			<rect id="ic_public_star" width="10.000000" height="10.000000" fill="white" fill-opacity="0"/>
		</clipPath>
	</defs>
	<g clip-path="url(#clip14_1608)">
		<rect id="ic_public_star-收藏/base/ic_public_star" width="10.000000" height="10.000000" fill="#FFFFFF" fill-opacity="0"/>
		<path id="path1" d="M0 4.99C0 4.21 -0.01 3.43 0 2.65C-0.01 2.27 0.04 1.89 0.13 1.53C0.34 0.75 0.84 0.29 1.62 0.11C2.01 0.03 2.4 -0.01 2.8 3.05e-5C4.3 3.05e-5 5.79 3.05e-5 7.29 3.05e-5C7.67 -0.01 8.05 0.03 8.42 0.12C9.22 0.32 9.69 0.82 9.88 1.62C9.96 2 10 2.38 9.99 2.76C9.99 4.28 9.99 5.79 9.99 7.31C10 7.68 9.95 8.06 9.87 8.42C9.67 9.22 9.16 9.69 8.37 9.88C7.98 9.96 7.58 10 7.18 9.99C5.69 9.99 4.2 9.99 2.71 9.99C2.33 10 1.95 9.95 1.58 9.87C0.78 9.67 0.29 9.16 0.11 8.36C0.02 7.96 0 7.55 0 7.14C0 6.42 0 5.71 0 4.99Z" fill="#FFFFFF" fill-opacity="0" fill-rule="evenodd"/>
		<circle id="path2" cx="5.000000" cy="5.000000" r="5.000000" fill="#FFFFFF" fill-opacity="0"/>
		<path id="path3" d="M2.9 9.48C2.45 9.73 1.9 9.34 1.98 8.83L2.34 6.64C2.37 6.44 2.31 6.24 2.17 6.1L0.63 4.53C0.28 4.17 0.48 3.55 0.99 3.48L3.06 3.16C3.26 3.13 3.44 3 3.53 2.81L4.43 0.89C4.65 0.41 5.33 0.41 5.56 0.89L6.46 2.81C6.55 3 6.73 3.13 6.93 3.16L9 3.48C9.5 3.55 9.71 4.17 9.35 4.53L7.82 6.1C7.68 6.24 7.62 6.44 7.65 6.64L8.01 8.83C8.09 9.34 7.54 9.73 7.09 9.48L5.3 8.49C5.11 8.38 4.88 8.38 4.69 8.49L2.9 9.48Z" stroke="#E64566" stroke-opacity="1.000000" stroke-width="1.000000"/>
		<path id="path3" d="M2.9 9.48C2.45 9.73 1.9 9.34 1.98 8.83L2.34 6.64C2.37 6.44 2.31 6.24 2.17 6.1L0.63 4.53C0.28 4.17 0.48 3.55 0.99 3.48L3.06 3.16C3.26 3.13 3.44 3 3.53 2.81L4.43 0.89C4.65 0.41 5.33 0.41 5.56 0.89L6.46 2.81C6.55 3 6.73 3.13 6.93 3.16L9 3.48C9.5 3.55 9.71 4.17 9.35 4.53L7.82 6.1C7.68 6.24 7.62 6.44 7.65 6.64L8.01 8.83C8.09 9.34 7.54 9.73 7.09 9.48L5.3 8.49C5.11 8.38 4.88 8.38 4.69 8.49L2.9 9.48Z" fill="#000000" fill-opacity="0" fill-rule="nonzero"/>
		<path id="path3" d="M1.98 8.83L2.34 6.64C2.37 6.44 2.31 6.24 2.17 6.1L0.63 4.53C0.28 4.17 0.48 3.55 0.99 3.48L3.06 3.16C3.26 3.13 3.44 3 3.53 2.81L4.43 0.89C4.65 0.41 5.33 0.41 5.56 0.89L6.46 2.81C6.55 3 6.73 3.13 6.93 3.16L9 3.48C9.5 3.55 9.71 4.17 9.35 4.53L7.82 6.1C7.68 6.24 7.62 6.44 7.65 6.64L8.01 8.83C8.09 9.34 7.54 9.73 7.09 9.48L5.3 8.49C5.11 8.38 4.88 8.38 4.69 8.49L2.9 9.48C2.45 9.73 1.9 9.34 1.98 8.83Z" stroke="#E64566" stroke-opacity="1.000000" stroke-width="1.000000" stroke-linejoin="round"/>
	</g>
</svg>
