<svg width="16.000000" height="16.000000" viewBox="0 0 16 16" fill="none" xmlns="http://www.w3.org/2000/svg" xmlns:xlink="http://www.w3.org/1999/xlink">
	<desc>
			Created with Pixso.
	</desc>
	<defs>
		<clipPath id="clip1_159">
			<rect width="16.000000" height="16.000000" fill="white" fill-opacity="0"/>
		</clipPath>
	</defs>
	<g clip-path="url(#clip1_159)">
		<path d="M8.5 1.5C8.5 1.22 8.28 1 8 1C7.72 1 7.5 1.22 7.5 1.5L7.5 7.49L1.5 7.49C1.22 7.49 1 7.71 1 7.99C1 8.27 1.22 8.49 1.5 8.49L7.5 8.49L7.5 14.5C7.5 14.78 7.72 15 8 15C8.28 15 8.5 14.78 8.5 14.5L8.5 8.49L14.5 8.49C14.78 8.49 15 8.27 15 7.99C15 7.71 14.78 7.49 14.5 7.49L8.5 7.49L8.5 1.5Z" fill="#000000" fill-opacity="1.000000" fill-rule="evenodd"/>
	</g>
</svg>
