<svg width="12.000000" height="12.707611" viewBox="0 0 12 12.7076" fill="none" xmlns="http://www.w3.org/2000/svg" xmlns:xlink="http://www.w3.org/1999/xlink">
	<desc>
			Created with Pixso.
	</desc>
	<defs>
		<filter id="filter_41_3829_dd" x="0.006348" y="2.325043" width="11.982422" height="10.382568" filterUnits="userSpaceOnUse" color-interpolation-filters="sRGB">
			<feFlood flood-opacity="0" result="BackgroundImageFix"/>
			<feColorMatrix in="SourceAlpha" type="matrix" values="0 0 0 0 0 0 0 0 0 0 0 0 0 0 0 0 0 0 127 0" result="hardAlpha"/>
			<feOffset dx="0.0493555" dy="1.41335"/>
			<feGaussianBlur stdDeviation="0.666667"/>
			<feComposite in2="hardAlpha" operator="out" k2="-1" k3="1"/>
			<feColorMatrix type="matrix" values="0 0 0 0 0 0 0 0 0 0 0 0 0 0 0 0 0 0 0.1 0"/>
			<feBlend mode="normal" in2="BackgroundImageFix" result="effect_dropShadow_1"/>
			<feBlend mode="normal" in="SourceGraphic" in2="effect_dropShadow_1" result="shape"/>
		</filter>
	</defs>
	<rect id="Rectangle 2375 Copy" x="1.000000" y="1.000000" rx="5.000000" width="10.000000" height="10.000000" fill="#0A59F7" fill-opacity="1.000000"/>
	<g filter="url(#filter_41_3829_dd)">
		<mask id="mask_41_3829" fill="white">
			<path id="Rectangle 62" d="M8.78027 4.04605C8.57812 3.85773 8.26172 3.86877 8.07373 4.07071L5.26074 7.08737L3.79785 5.72354C3.59619 5.53522 3.27979 5.54626 3.09131 5.74823C2.90283 5.9502 2.91406 6.26657 3.11621 6.4549L4.93262 8.14896C4.93652 8.15265 4.94043 8.15631 4.94385 8.15991C5.04443 8.25339 5.17285 8.29773 5.2998 8.29401C5.42871 8.29031 5.55615 8.23703 5.65088 8.13522C5.65479 8.13135 5.6582 8.12744 5.66162 8.1235L8.80518 4.75272C8.99316 4.55075 8.98242 4.23438 8.78027 4.04605Z" clip-rule="evenodd" fill="" fill-opacity="1.000000" fill-rule="evenodd"/>
		</mask>
		<path id="Rectangle 62" d="M8.78027 4.04605C8.57812 3.85773 8.26172 3.86877 8.07373 4.07071L5.26074 7.08737L3.79785 5.72354C3.59619 5.53522 3.27979 5.54626 3.09131 5.74823C2.90283 5.9502 2.91406 6.26657 3.11621 6.4549L4.93262 8.14896C4.93652 8.15265 4.94043 8.15631 4.94385 8.15991C5.04443 8.25339 5.17285 8.29773 5.2998 8.29401C5.42871 8.29031 5.55615 8.23703 5.65088 8.13522C5.65479 8.13135 5.6582 8.12744 5.66162 8.1235L8.80518 4.75272C8.99316 4.55075 8.98242 4.23438 8.78027 4.04605Z" clip-rule="evenodd" fill="#FFFFFF" fill-opacity="1.000000" fill-rule="evenodd" mask="url(#mask_41_3829)"/>
		<path id="Rectangle 62" d="M9.66597 3.5476Q9.57732 3.42188 9.4624 3.3147Q9.34705 3.20711 9.21492 3.12729Q9.09201 3.05303 8.95459 3.00281Q8.82024 2.95374 8.68157 2.93109Q8.5365 2.9074 8.38672 2.91263Q8.23953 2.91777 8.09877 2.95054Q7.95983 2.98289 7.82715 3.04214Q7.6923 3.10237 7.57396 3.18597Q7.44891 3.2743 7.34229 3.38873L5.21119 5.67411L4.47998 4.99219Q4.36463 4.8846 4.2325 4.80478Q4.10959 4.73052 3.97217 4.6803Q3.83475 4.63013 3.69295 4.60759Q3.55107 4.58504 3.40479 4.59015Q3.25402 4.59541 3.11011 4.62956Q2.97437 4.66176 2.84473 4.71967Q2.71474 4.77781 2.59992 4.85775Q2.47021 4.94808 2.35986 5.06622Q2.25242 5.18154 2.17272 5.31359Q2.0985 5.4366 2.04834 5.57413Q1.99886 5.70926 1.9762 5.84874Q1.9528 5.99283 1.95801 6.14157Q1.96326 6.29137 1.99702 6.43444Q2.02923 6.57095 2.0874 6.70132Q2.14749 6.83564 2.23072 6.95363Q2.31929 7.07919 2.43408 7.18625L4.25049 8.88031L4.25053 8.88027Q4.25367 8.88326 4.25683 8.88623Q4.25951 8.88875 4.26221 8.89127Q4.3736 8.99531 4.50091 9.0734Q4.62584 9.15003 4.76611 9.20166Q4.89424 9.24898 5.0266 9.27211Q5.17519 9.29808 5.3291 9.29358Q5.47467 9.28941 5.61415 9.25812Q5.75679 9.22612 5.89307 9.16574Q6.02688 9.10645 6.14461 9.02415Q6.27304 8.93438 6.38232 8.81723Q6.39246 8.80646 6.40239 8.79551L9.53613 5.43472Q9.64524 5.3179 9.72573 5.1839Q9.79869 5.06242 9.84814 4.92682Q9.89762 4.79169 9.92028 4.6522Q9.94369 4.50811 9.93848 4.35938Q9.93324 4.20977 9.89955 4.06686Q9.86733 3.93016 9.80908 3.79959Q9.74907 3.66545 9.66597 3.5476ZM8.80518 4.75272C8.99316 4.55075 8.98242 4.23438 8.78027 4.04605C8.57812 3.85773 8.26172 3.86877 8.07373 4.07071L5.29236 7.05345L5.26073 7.08736L3.79887 5.72449L3.79785 5.72354C3.59619 5.53522 3.27979 5.54626 3.09131 5.74823C2.90283 5.9502 2.91406 6.26657 3.11621 6.4549L3.1164 6.45508L4.93262 8.14896C4.93652 8.15265 4.94043 8.15631 4.94385 8.15991C4.94919 8.16488 4.95462 8.16971 4.96012 8.1744C5.05808 8.25797 5.1796 8.29753 5.2998 8.29401C5.42871 8.29031 5.55615 8.23703 5.65088 8.13522L5.65124 8.13486C5.6538 8.1323 5.65616 8.12972 5.65845 8.12714C5.65951 8.12593 5.66057 8.12472 5.66162 8.1235L8.80518 4.75272Z" clip-rule="evenodd" fill="#000000" fill-opacity="0.047059" fill-rule="evenodd"/>
	</g>
</svg>
