<svg width="16.000000" height="16.000000" viewBox="0 0 16 16" fill="none" xmlns="http://www.w3.org/2000/svg" xmlns:xlink="http://www.w3.org/1999/xlink">
	<desc>
			Created with Pixso.
	</desc>
	<defs>
		<clipPath id="clip74_5204">
			<rect id="ic_public_plus" width="16.000000" height="16.000000" fill="white" fill-opacity="0"/>
		</clipPath>
	</defs>
	<g clip-path="url(#clip74_5204)">
		<path id="path1" d="M0.5 7.99C0.5 6.82 0.49 5.65 0.5 4.47C0.49 3.91 0.56 3.34 0.7 2.79C1.01 1.63 1.77 0.94 2.93 0.67C3.51 0.55 4.11 0.49 4.7 0.5C6.95 0.5 9.2 0.5 11.45 0.5C12.01 0.49 12.58 0.56 13.13 0.69C14.33 0.98 15.05 1.74 15.32 2.93C15.44 3.5 15.5 4.07 15.49 4.65C15.49 6.92 15.49 9.19 15.49 11.46C15.5 12.03 15.43 12.59 15.3 13.13C15.01 14.33 14.25 15.04 13.05 15.32C12.47 15.44 11.88 15.5 11.28 15.49C9.04 15.49 6.81 15.49 4.57 15.49C4 15.5 3.43 15.43 2.87 15.3C1.67 15.01 0.95 14.25 0.67 13.05C0.53 12.44 0.5 11.83 0.5 11.21C0.5 10.14 0.5 9.06 0.5 7.99Z" fill="#FFFFFF" fill-opacity="0" fill-rule="nonzero"/>
		<path id="path1" d="M0.5 4.47C0.49 3.91 0.56 3.34 0.7 2.79C1.01 1.63 1.77 0.94 2.93 0.67C3.51 0.55 4.11 0.49 4.7 0.5C6.95 0.5 9.2 0.5 11.45 0.5C12.01 0.49 12.58 0.56 13.13 0.69C14.33 0.98 15.05 1.74 15.32 2.93C15.44 3.5 15.5 4.07 15.49 4.65C15.49 6.92 15.49 9.19 15.49 11.46C15.5 12.03 15.43 12.59 15.3 13.13C15.01 14.33 14.25 15.04 13.05 15.32C12.47 15.44 11.88 15.5 11.28 15.49C9.04 15.49 6.81 15.49 4.57 15.49C4 15.5 3.43 15.43 2.87 15.3C1.67 15.01 0.95 14.25 0.67 13.05C0.53 12.44 0.5 11.83 0.5 11.21C0.5 10.14 0.5 9.06 0.5 7.99C0.5 6.82 0.49 5.65 0.5 4.47Z" stroke="#FFFFFF" stroke-opacity="0" stroke-width="1.500000"/>
		<path id="path2" d="M0.5 7.99C0.5 6.82 0.49 5.65 0.5 4.47C0.49 3.91 0.56 3.34 0.7 2.79C1.01 1.63 1.77 0.94 2.93 0.67C3.51 0.55 4.11 0.49 4.7 0.5C6.95 0.5 9.2 0.5 11.45 0.5C12.01 0.49 12.58 0.56 13.13 0.69C14.33 0.98 15.05 1.74 15.32 2.93C15.44 3.5 15.5 4.07 15.49 4.65C15.49 6.92 15.49 9.19 15.49 11.46C15.5 12.03 15.43 12.59 15.3 13.13C15.01 14.33 14.25 15.04 13.05 15.32C12.47 15.44 11.88 15.5 11.28 15.49C9.04 15.49 6.81 15.49 4.57 15.49C4 15.5 3.43 15.43 2.87 15.3C1.67 15.01 0.95 14.25 0.67 13.05C0.53 12.44 0.5 11.83 0.5 11.21C0.5 10.14 0.5 9.06 0.5 7.99Z" fill="#000000" fill-opacity="0" fill-rule="nonzero"/>
		<path id="path2" d="M0.5 4.47C0.49 3.91 0.56 3.34 0.7 2.79C1.01 1.63 1.77 0.94 2.93 0.67C3.51 0.55 4.11 0.49 4.7 0.5C6.95 0.5 9.2 0.5 11.45 0.5C12.01 0.49 12.58 0.56 13.13 0.69C14.33 0.98 15.05 1.74 15.32 2.93C15.44 3.5 15.5 4.07 15.49 4.65C15.49 6.92 15.49 9.19 15.49 11.46C15.5 12.03 15.43 12.59 15.3 13.13C15.01 14.33 14.25 15.04 13.05 15.32C12.47 15.44 11.88 15.5 11.28 15.49C9.04 15.49 6.81 15.49 4.57 15.49C4 15.5 3.43 15.43 2.87 15.3C1.67 15.01 0.95 14.25 0.67 13.05C0.53 12.44 0.5 11.83 0.5 11.21C0.5 10.14 0.5 9.06 0.5 7.99C0.5 6.82 0.49 5.65 0.5 4.47Z" stroke="#FFFFFF" stroke-opacity="0" stroke-width="1.500000"/>
		<circle id="path3" cx="8.000000" cy="8.000000" r="8.000000" fill="#FFFFFF" fill-opacity="0"/>
		<circle id="path3" cx="8.000000" cy="8.000000" r="8.000000" stroke="#000000" stroke-opacity="0" stroke-width="1.500000"/>
		<path id="path4" d="M0.68 8.72L0.66 8.75C0.24 8.75 -0.09 8.41 -0.09 8C-0.09 7.57 0.24 7.25 0.66 7.25L0.68 7.26L0.68 8.72ZM15.31 7.26L15.33 7.25C15.75 7.25 16.08 7.57 16.08 8C16.08 8.41 15.75 8.75 15.33 8.75L15.31 8.72L15.31 7.26ZM8.72 15.31L8.75 15.33C8.75 15.75 8.41 16.08 8 16.08C7.58 16.08 7.25 15.75 7.25 15.33L7.27 15.31L8.72 15.31ZM7.27 0.68L7.25 0.66C7.25 0.24 7.58 -0.09 8 -0.09C8.41 -0.09 8.75 0.24 8.75 0.66L8.72 0.68L7.27 0.68Z" fill="#000000" fill-opacity="0" fill-rule="nonzero"/>
		<path id="path4" d="M0.66 8L15.33 8M8 15.33L8 0.66" stroke="#191919" stroke-opacity="1.000000" stroke-width="1.500000" stroke-linejoin="round" stroke-linecap="round"/>
		<path id="path5" d="M8 0.66C8.18 0.66 8.33 0.8 8.33 0.98L8.33 7.66L15.01 7.66C15.19 7.66 15.33 7.81 15.33 8C15.33 8.18 15.19 8.33 15.01 8.33L8.33 8.33L8.33 15.01C8.33 15.19 8.18 15.33 8 15.33C7.81 15.33 7.66 15.19 7.66 15.01L7.66 8.33L0.98 8.33C0.8 8.33 0.66 8.18 0.66 8C0.66 7.81 0.8 7.66 0.98 7.66L7.66 7.66L7.66 0.98C7.66 0.8 7.81 0.66 8 0.66Z" fill="#FFFFFF" fill-opacity="0" fill-rule="nonzero"/>
		<path id="path5" d="M8.33 0.98L8.33 7.66L15.01 7.66C15.19 7.66 15.33 7.81 15.33 8C15.33 8.18 15.19 8.33 15.01 8.33L8.33 8.33L8.33 15.01C8.33 15.19 8.18 15.33 8 15.33C7.81 15.33 7.66 15.19 7.66 15.01L7.66 8.33L0.98 8.33C0.8 8.33 0.66 8.18 0.66 8C0.66 7.81 0.8 7.66 0.98 7.66L7.66 7.66L7.66 0.98C7.66 0.8 7.81 0.66 8 0.66C8.18 0.66 8.33 0.8 8.33 0.98Z" stroke="#FFFFFF" stroke-opacity="0" stroke-width="1.500000"/>
	</g>
</svg>
