<svg width="24.000000" height="24.000000" viewBox="0 0 24 24" fill="none" xmlns="http://www.w3.org/2000/svg" xmlns:xlink="http://www.w3.org/1999/xlink">
	<desc>
			Created with Pixso.
	</desc>
	<defs>
		<clipPath id="clip74_5503">
			<rect id="已取消.svg" width="24.000000" height="24.000000" fill="white" fill-opacity="0"/>
		</clipPath>
	</defs>
	<g clip-path="url(#clip74_5503)">
		<path id="path" d="M12.21 2.43C6.89 2.43 2.58 6.75 2.58 12.07C2.58 17.38 6.89 21.7 12.21 21.7C17.52 21.7 21.84 17.38 21.84 12.07C21.84 6.75 17.53 2.43 12.21 2.43ZM12.21 20.31C7.65 20.31 3.96 16.62 3.96 12.07C3.96 7.51 7.65 3.82 12.21 3.82C16.76 3.82 20.45 7.51 20.45 12.07C20.45 16.62 16.76 20.31 12.21 20.31Z" fill="#000000" fill-opacity="1.000000" fill-rule="nonzero"/>
		<path id="path" d="M13.15 12.49L16.13 9.52C16.4 9.24 16.4 8.79 16.13 8.52C15.86 8.25 15.41 8.25 15.14 8.52L12.16 11.5L9.18 8.52C8.91 8.25 8.46 8.25 8.18 8.52C7.91 8.79 7.91 9.24 8.18 9.52L11.16 12.49L8.18 15.48C7.91 15.75 7.91 16.2 8.18 16.47C8.36 16.65 8.55 16.65 8.73 16.65C8.91 16.65 9.09 16.56 9.27 16.47L12.25 13.49L15.23 16.47C15.41 16.65 15.59 16.65 15.77 16.65C15.95 16.65 16.13 16.56 16.31 16.47C16.58 16.2 16.58 15.75 16.31 15.48L13.15 12.49Z" fill="#000000" fill-opacity="1.000000" fill-rule="nonzero"/>
	</g>
</svg>
