<svg width="14.000000" height="14.000000" viewBox="0 0 14 14" fill="none" xmlns="http://www.w3.org/2000/svg" xmlns:xlink="http://www.w3.org/1999/xlink">
	<desc>
			Created with Pixso.
	</desc>
	<defs>
		<clipPath id="clip74_5197">
			<rect id="ic_public_plus" width="14.000000" height="14.000000" fill="white" fill-opacity="0"/>
		</clipPath>
	</defs>
	<g clip-path="url(#clip74_5197)">
		<path id="path1" d="M0.43 6.99C0.43 5.96 0.43 4.94 0.43 3.91C0.43 3.42 0.49 2.92 0.62 2.44C0.88 1.43 1.55 0.82 2.56 0.59C3.07 0.48 3.59 0.43 4.12 0.43C6.08 0.43 8.05 0.43 10.01 0.43C10.51 0.43 11.01 0.49 11.49 0.6C12.54 0.86 13.16 1.52 13.4 2.57C13.51 3.06 13.56 3.56 13.56 4.07C13.56 6.06 13.56 8.04 13.56 10.03C13.56 10.52 13.5 11.01 13.39 11.49C13.13 12.54 12.47 13.16 11.42 13.4C10.91 13.51 10.39 13.56 9.87 13.56C7.91 13.56 5.95 13.56 4 13.56C3.5 13.56 3 13.5 2.51 13.39C1.46 13.13 0.83 12.47 0.59 11.42C0.47 10.89 0.43 10.35 0.43 9.81C0.43 8.87 0.43 7.93 0.43 6.99Z" fill="#FFFFFF" fill-opacity="0" fill-rule="nonzero"/>
		<path id="path1" d="M0.43 3.91C0.43 3.42 0.49 2.92 0.62 2.44C0.88 1.43 1.55 0.82 2.56 0.59C3.07 0.48 3.59 0.43 4.12 0.43C6.08 0.43 8.05 0.43 10.01 0.43C10.51 0.43 11.01 0.49 11.49 0.6C12.54 0.86 13.16 1.52 13.4 2.57C13.51 3.06 13.56 3.56 13.56 4.07C13.56 6.06 13.56 8.04 13.56 10.03C13.56 10.52 13.5 11.01 13.39 11.49C13.13 12.54 12.47 13.16 11.42 13.4C10.91 13.51 10.39 13.56 9.87 13.56C7.91 13.56 5.95 13.56 4 13.56C3.5 13.56 3 13.5 2.51 13.39C1.46 13.13 0.83 12.47 0.59 11.42C0.47 10.89 0.43 10.35 0.43 9.81C0.43 8.87 0.43 7.93 0.43 6.99C0.43 5.96 0.43 4.94 0.43 3.91Z" stroke="#FFFFFF" stroke-opacity="0" stroke-width="0.997500"/>
		<path id="path2" d="M0.43 6.99C0.43 5.96 0.43 4.94 0.43 3.91C0.43 3.42 0.49 2.92 0.62 2.44C0.88 1.43 1.55 0.82 2.56 0.59C3.07 0.48 3.59 0.43 4.12 0.43C6.08 0.43 8.05 0.43 10.01 0.43C10.51 0.43 11.01 0.49 11.49 0.6C12.54 0.86 13.16 1.52 13.4 2.57C13.51 3.06 13.56 3.56 13.56 4.07C13.56 6.06 13.56 8.04 13.56 10.03C13.56 10.52 13.5 11.01 13.39 11.49C13.13 12.54 12.47 13.16 11.42 13.4C10.91 13.51 10.39 13.56 9.87 13.56C7.91 13.56 5.95 13.56 4 13.56C3.5 13.56 3 13.5 2.51 13.39C1.46 13.13 0.83 12.47 0.59 11.42C0.47 10.89 0.43 10.35 0.43 9.81C0.43 8.87 0.43 7.93 0.43 6.99Z" fill="#000000" fill-opacity="0" fill-rule="nonzero"/>
		<path id="path2" d="M0.43 3.91C0.43 3.42 0.49 2.92 0.62 2.44C0.88 1.43 1.55 0.82 2.56 0.59C3.07 0.48 3.59 0.43 4.12 0.43C6.08 0.43 8.05 0.43 10.01 0.43C10.51 0.43 11.01 0.49 11.49 0.6C12.54 0.86 13.16 1.52 13.4 2.57C13.51 3.06 13.56 3.56 13.56 4.07C13.56 6.06 13.56 8.04 13.56 10.03C13.56 10.52 13.5 11.01 13.39 11.49C13.13 12.54 12.47 13.16 11.42 13.4C10.91 13.51 10.39 13.56 9.87 13.56C7.91 13.56 5.95 13.56 4 13.56C3.5 13.56 3 13.5 2.51 13.39C1.46 13.13 0.83 12.47 0.59 11.42C0.47 10.89 0.43 10.35 0.43 9.81C0.43 8.87 0.43 7.93 0.43 6.99C0.43 5.96 0.43 4.94 0.43 3.91Z" stroke="#FFFFFF" stroke-opacity="0" stroke-width="0.997500"/>
		<circle id="path3" cx="7.000000" cy="7.000000" r="7.000000" fill="#FFFFFF" fill-opacity="0"/>
		<circle id="path3" cx="7.000000" cy="7.000000" r="7.000000" stroke="#000000" stroke-opacity="0" stroke-width="0.997500"/>
		<path id="path4" d="" fill="#000000" fill-opacity="0" fill-rule="nonzero"/>
		<path id="path4" d="M0.58 7L13.41 7M7 13.41L7 0.58" stroke="#FFFFFF" stroke-opacity="0" stroke-width="0.997500" stroke-linejoin="round" stroke-linecap="round"/>
		<path id="path5" d="M7 0.58C7.16 0.58 7.29 0.7 7.29 0.86L7.29 6.7L13.13 6.7C13.29 6.7 13.41 6.83 13.41 7C13.41 7.16 13.29 7.29 13.13 7.29L7.29 7.29L7.29 13.13C7.29 13.29 7.16 13.41 7 13.41C6.83 13.41 6.7 13.29 6.7 13.13L6.7 7.29L0.86 7.29C0.7 7.29 0.58 7.16 0.58 7C0.58 6.83 0.7 6.7 0.86 6.7L6.7 6.7L6.7 0.86C6.7 0.7 6.83 0.58 7 0.58Z" fill="#0A554A" fill-opacity="1.000000" fill-rule="nonzero"/>
		<path id="path5" d="M7.29 0.86L7.29 6.7L13.13 6.7C13.29 6.7 13.41 6.83 13.41 7C13.41 7.16 13.29 7.29 13.13 7.29L7.29 7.29L7.29 13.13C7.29 13.29 7.16 13.41 7 13.41C6.83 13.41 6.7 13.29 6.7 13.13L6.7 7.29L0.86 7.29C0.7 7.29 0.58 7.16 0.58 7C0.58 6.83 0.7 6.7 0.86 6.7L6.7 6.7L6.7 0.86C6.7 0.7 6.83 0.58 7 0.58C7.16 0.58 7.29 0.7 7.29 0.86Z" stroke="#0A554A" stroke-opacity="1.000000" stroke-width="0.997500"/>
	</g>
</svg>
