<svg width="20.545410" height="20.615692" viewBox="0 0 20.5454 20.6157" fill="none" xmlns="http://www.w3.org/2000/svg" xmlns:xlink="http://www.w3.org/1999/xlink">
	<desc>
			Created with Pixso.
	</desc>
	<defs/>
	<path id="path" d="M10.27 20.61C4.59 20.61 0 16 0 10.3C0 4.61 4.59 0 10.27 0C15.94 0 20.54 4.61 20.54 10.3C20.54 16 15.94 20.61 10.27 20.61ZM10.21 1.6C5.42 1.6 1.54 5.49 1.54 10.3C1.54 15.1 5.42 19 10.21 19C15 19 18.88 15.1 18.88 10.3C18.88 5.49 15 1.6 10.21 1.6ZM14.97 8.81L10.08 13.73C9.93 13.88 9.73 13.97 9.5 13.97C9.28 13.97 9.07 13.88 8.93 13.73L5.68 10.46C5.53 10.31 5.44 10.11 5.44 9.88C5.44 9.43 5.8 9.06 6.25 9.06C6.48 9.06 6.68 9.16 6.83 9.3L9.5 12L13.82 7.66C13.96 7.51 14.17 7.42 14.39 7.42C14.84 7.42 15.21 7.78 15.21 8.24C15.21 8.46 15.12 8.67 14.97 8.81Z" fill="#272636" fill-opacity="1.000000" fill-rule="nonzero"/>
</svg>
