<svg width="24.000000" height="24.000000" viewBox="0 0 24 24" fill="none" xmlns="http://www.w3.org/2000/svg" xmlns:xlink="http://www.w3.org/1999/xlink">
	<desc>
			Created with Pixso.
	</desc>
	<defs>
		<clipPath id="clip74_5211">
			<rect id="ic_public_success" width="24.000000" height="24.000000" fill="white" fill-opacity="0"/>
		</clipPath>
	</defs>
	<g clip-path="url(#clip74_5211)">
		<path id="path1" d="M0 11.99C0 10.11 -0.01 8.24 0 6.36C-0.01 5.45 0.11 4.55 0.33 3.67C0.82 1.81 2.03 0.71 3.89 0.27C4.82 0.08 5.78 -0.02 6.73 0C10.32 0 13.92 0 17.52 0C18.42 -0.01 19.33 0.09 20.21 0.3C22.13 0.77 23.28 1.99 23.71 3.9C23.91 4.8 24 5.72 23.99 6.64C23.99 10.28 23.99 13.91 23.99 17.54C24 18.44 23.9 19.34 23.69 20.21C23.22 22.13 22 23.27 20.09 23.71C19.16 23.91 18.21 24.01 17.25 23.99C13.67 23.99 10.09 23.99 6.51 23.99C5.6 24 4.69 23.9 3.8 23.69C1.87 23.22 0.72 22 0.28 20.08C0.06 19.11 0 18.13 0 17.15C0 15.43 0 13.71 0 11.99Z" fill="#FFFFFF" fill-opacity="0" fill-rule="evenodd"/>
		<circle id="path2" cx="12.000000" cy="12.000000" r="12.000000" fill="#FFFFFF" fill-opacity="0"/>
		<circle id="path4" cx="12.000000" cy="12.000000" r="11.000000" fill="#64BB5C" fill-opacity="1.000000"/>
		<circle id="path4" cx="12.000000" cy="12.000000" r="11.000000" fill="#000000" fill-opacity="0"/>
		<circle id="path4" cx="12.000000" cy="12.000000" r="11.000000" stroke="#64BB5C" stroke-opacity="1.000000" stroke-width="1.995000" stroke-linejoin="round"/>
		<path id="path6" d="M5.55 12.18L5.52 12.18C5.14 11.78 5.15 11.16 5.56 10.77C5.96 10.39 6.58 10.4 6.97 10.81L6.97 10.84L5.55 12.18ZM17.42 7.34L17.42 7.31C17.81 6.9 18.43 6.89 18.83 7.27C19.24 7.66 19.25 8.28 18.87 8.68L18.84 8.68L17.42 7.34Z" fill="#000000" fill-opacity="0" fill-rule="nonzero"/>
		<path id="path6" d="M6.25 11.5L10.54 16L18.14 8" stroke="#FFFFFF" stroke-opacity="1.000000" stroke-width="1.995000" stroke-linejoin="round" stroke-linecap="round"/>
	</g>
</svg>
