<svg width="16.000000" height="16.000000" viewBox="0 0 16 16" fill="none" xmlns="http://www.w3.org/2000/svg" xmlns:xlink="http://www.w3.org/1999/xlink">
	<desc>
			Created with Pixso.
	</desc>
	<defs>
		<clipPath id="clip74_5665">
			<rect id="ic_public_trash" width="16.000000" height="16.000000" fill="white" fill-opacity="0"/>
		</clipPath>
	</defs>
	<g clip-path="url(#clip74_5665)">
		<path id="path1" d="M0 7.99C0 6.74 -0.01 5.49 0 4.24C-0.01 3.63 0.07 3.03 0.22 2.44C0.54 1.2 1.35 0.47 2.59 0.18C3.21 0.05 3.85 -0.02 4.48 0C6.88 0 9.27 0 11.68 0C12.28 -0.01 12.88 0.06 13.47 0.2C14.75 0.51 15.52 1.32 15.81 2.59C15.94 3.19 16 3.81 15.99 4.42C15.99 6.85 15.99 9.27 15.99 11.69C16 12.29 15.93 12.89 15.79 13.47C15.48 14.75 14.66 15.51 13.39 15.81C12.77 15.94 12.14 16 11.5 15.99C9.11 15.99 6.72 15.99 4.34 15.99C3.73 16 3.12 15.93 2.53 15.79C1.25 15.48 0.47 14.67 0.18 13.39C0.04 12.74 0 12.09 0 11.43C0 10.28 0 9.13 0 7.99Z" fill="#FFFFFF" fill-opacity="0" fill-rule="evenodd"/>
		<circle id="path2" cx="8.000000" cy="8.000000" r="8.000000" fill="#FFFFFF" fill-opacity="0"/>
		<mask id="mask74_5669" mask-type="alpha" maskUnits="userSpaceOnUse" x="0.000000" y="4.833344" width="16.000000" height="11.166672">
			<path id="蒙版" d="M16 4.83L0 4.83L0 16L16 16L16 4.83Z" fill="#C4C4C4" fill-opacity="1.000000" fill-rule="evenodd"/>
		</mask>
		<g mask="url(#mask74_5669)">
			<path id="path" d="M14 3.43L13.15 13.5C13.06 14.53 12.2 15.33 11.16 15.33L4.83 15.33C3.79 15.33 2.93 14.53 2.84 13.5L2 3.43L14 3.43Z" fill="#000000" fill-opacity="0" fill-rule="nonzero"/>
			<path id="path" d="M13.15 13.5C13.06 14.53 12.2 15.33 11.16 15.33L4.83 15.33C3.79 15.33 2.93 14.53 2.84 13.5L2 3.43L14 3.43L13.15 13.5Z" stroke="#191919" stroke-opacity="1.000000" stroke-width="1.000000"/>
		</g>
		<path id="path4" d="M5.85 7.18L5.83 7.16C5.83 6.88 6.05 6.66 6.33 6.66C6.61 6.66 6.83 6.88 6.83 7.16L6.81 7.18L5.85 7.18ZM6.81 13.01L6.83 13.03C6.83 13.31 6.61 13.53 6.33 13.53C6.05 13.53 5.83 13.31 5.83 13.03L5.85 13.01L6.81 13.01ZM9.18 7.18L9.16 7.16C9.16 6.88 9.38 6.66 9.66 6.66C9.94 6.66 10.16 6.88 10.16 7.16L10.14 7.18L9.18 7.18ZM10.14 13.01L10.16 13.03C10.16 13.31 9.94 13.53 9.66 13.53C9.38 13.53 9.16 13.31 9.16 13.03L9.18 13.01L10.14 13.01Z" fill="#000000" fill-opacity="0" fill-rule="nonzero"/>
		<path id="path4" d="M6.33 7.16L6.33 13.03M9.66 7.16L9.66 13.03" stroke="#191919" stroke-opacity="1.000000" stroke-width="1.000000" stroke-linecap="round"/>
		<path id="path5" d="M0.68 3.82L0.66 3.84C0.38 3.84 0.16 3.62 0.16 3.34C0.16 3.06 0.38 2.84 0.66 2.84L0.68 2.86L0.68 3.82ZM15.31 2.86L15.33 2.84C15.61 2.84 15.83 3.06 15.83 3.34C15.83 3.62 15.61 3.84 15.33 3.84L15.31 3.82L15.31 2.86Z" fill="#000000" fill-opacity="0" fill-rule="nonzero"/>
		<path id="path5" d="M0.66 3.34L4.62 3.34L5.3 1.53C5.5 1 5.99 0.66 6.55 0.66L9.36 0.66C9.92 0.66 10.42 1 10.61 1.53L11.29 3.34L15.33 3.34" stroke="#191919" stroke-opacity="1.000000" stroke-width="1.000000" stroke-linejoin="round" stroke-linecap="round"/>
		<path id="path6" d="M14.38 4.83L13.65 13.7C13.59 14.35 13.33 14.89 12.85 15.33C12.37 15.77 11.81 15.99 11.16 15.99L4.83 15.99C4.18 15.99 3.62 15.77 3.14 15.33C2.9 15.11 2.71 14.87 2.58 14.59C2.45 14.32 2.37 14.03 2.34 13.7L1.61 4.83L14.38 4.83ZM6.83 13.03L6.83 7.16C6.83 6.88 6.61 6.66 6.33 6.66C6.05 6.66 5.83 6.88 5.83 7.16L5.83 13.03C5.83 13.31 6.05 13.53 6.33 13.53C6.61 13.53 6.83 13.31 6.83 13.03ZM9.66 6.66C9.94 6.66 10.16 6.88 10.16 7.16L10.16 13.03C10.16 13.31 9.94 13.53 9.66 13.53C9.38 13.53 9.16 13.31 9.16 13.03L9.16 7.16C9.16 6.88 9.38 6.66 9.66 6.66Z" fill="#FFFFFF" fill-opacity="0" fill-rule="evenodd"/>
		<path id="path7" d="M11.83 2.84L11.23 1.25C11.2 1.15 11.16 1.06 11.1 0.97C11.06 0.89 11.01 0.81 10.95 0.74C10.89 0.67 10.83 0.6 10.76 0.53C10.69 0.47 10.62 0.4 10.53 0.35C10.45 0.29 10.37 0.24 10.28 0.2C10.2 0.16 10.11 0.12 10.02 0.1C9.93 0.07 9.84 0.05 9.75 0.03C9.65 0.02 9.55 0.01 9.44 0.01L6.47 0.01C6.36 0.01 6.26 0.02 6.16 0.03C6.07 0.05 5.98 0.07 5.89 0.1C5.82 0.12 5.74 0.15 5.67 0.18C5.66 0.19 5.64 0.19 5.63 0.2C5.54 0.24 5.46 0.29 5.38 0.35C5.3 0.4 5.22 0.47 5.15 0.53C5.08 0.6 5.02 0.67 4.96 0.74C4.9 0.81 4.85 0.89 4.81 0.97C4.76 1.06 4.71 1.15 4.68 1.25L4.08 2.84L0.5 2.84C0.22 2.84 0 3.06 0 3.34C0 3.62 0.22 3.84 0.5 3.84L15.5 3.84C15.77 3.84 16 3.62 16 3.34C16 3.06 15.77 2.84 15.5 2.84L11.83 2.84Z" fill="#FFFFFF" fill-opacity="0" fill-rule="evenodd"/>
	</g>
</svg>
