<svg width="12.000000" height="12.000000" viewBox="0 0 12 12" fill="none" xmlns="http://www.w3.org/2000/svg" xmlns:xlink="http://www.w3.org/1999/xlink">
	<desc>
			Created with Pixso.
	</desc>
	<defs>
		<clipPath id="clip1_72">
			<rect width="12.000000" height="12.000000" fill="white" fill-opacity="0"/>
		</clipPath>
	</defs>
	<g clip-path="url(#clip1_72)">
		<g opacity="0.000000">
			<rect width="12.000000" height="12.000000" fill="#000000" fill-opacity="1.000000"/>
		</g>
		<path d="M7.63 3.61C7.84 3.61 8.01 3.68 8.16 3.83C8.3 3.98 8.37 4.15 8.37 4.37L8.37 9.35C8.37 9.56 8.3 9.74 8.16 9.89C8.01 10.04 7.84 10.11 7.63 10.11L2.63 10.11C2.42 10.11 2.24 10.04 2.1 9.89C1.95 9.74 1.88 9.56 1.88 9.35L1.88 4.37C1.88 4.15 1.95 3.98 2.1 3.83C2.24 3.68 2.42 3.61 2.63 3.61L7.63 3.61ZM2.63 2.87C2.35 2.87 2.1 2.93 1.88 3.06C1.65 3.2 1.46 3.39 1.33 3.62C1.19 3.84 1.13 4.09 1.13 4.37L1.13 9.35C1.13 9.63 1.19 9.88 1.33 10.11C1.46 10.34 1.65 10.53 1.88 10.66C2.1 10.79 2.35 10.86 2.63 10.86L7.63 10.86C7.9 10.86 8.15 10.79 8.38 10.66C8.6 10.53 8.79 10.34 8.93 10.11C9.06 9.88 9.13 9.63 9.13 9.35L9.13 4.37C9.13 4.09 9.06 3.84 8.93 3.62C8.79 3.39 8.6 3.2 8.38 3.06C8.15 2.93 7.9 2.87 7.63 2.87L2.63 2.87ZM5.47 6.53L5.47 4.9C5.47 4.75 5.4 4.64 5.28 4.59C5.16 4.53 5.03 4.53 4.91 4.59C4.78 4.64 4.71 4.75 4.71 4.9L4.71 6.53L3.09 6.53C2.94 6.53 2.83 6.6 2.77 6.72C2.7 6.84 2.7 6.97 2.77 7.09C2.83 7.22 2.94 7.28 3.09 7.28L4.71 7.28L4.71 8.9C4.71 9.06 4.78 9.17 4.91 9.23C5.03 9.3 5.16 9.3 5.28 9.23C5.4 9.17 5.47 9.06 5.47 8.9L5.47 7.28L7.09 7.28C7.25 7.28 7.36 7.22 7.43 7.09C7.49 6.97 7.49 6.84 7.43 6.72C7.36 6.6 7.25 6.53 7.09 6.53L5.47 6.53Z" fill="#000000" fill-opacity="1.000000" fill-rule="nonzero"/>
		<path d="M4.86 1.13C4.48 1.13 4.13 1.22 3.82 1.42C3.5 1.61 3.26 1.88 3.09 2.21L4.02 2.21C4.14 2.1 4.27 2.02 4.41 1.97C4.55 1.91 4.69 1.88 4.86 1.88L8.87 1.88C9.09 1.88 9.3 1.94 9.49 2.05C9.68 2.16 9.83 2.31 9.95 2.51C10.06 2.7 10.11 2.9 10.11 3.13L10.11 7.13C10.11 7.29 10.08 7.44 10.02 7.58C9.96 7.72 9.88 7.85 9.78 7.97L9.78 8.89C10.1 8.72 10.36 8.48 10.56 8.16C10.76 7.84 10.86 7.5 10.86 7.13L10.86 3.13C10.86 2.77 10.77 2.43 10.59 2.13C10.41 1.82 10.16 1.58 9.86 1.4C9.56 1.22 9.22 1.13 8.87 1.13L4.86 1.13Z" fill="#000000" fill-opacity="1.000000" fill-rule="nonzero"/>
	</g>
</svg>
