<svg width="12.000000" height="12.000000" viewBox="0 0 12 12" fill="none" xmlns="http://www.w3.org/2000/svg" xmlns:xlink="http://www.w3.org/1999/xlink">
	<desc>
			Created with Pixso.
	</desc>
	<defs>
		<clipPath id="clip1_65">
			<rect width="11.999998" height="12.000002" fill="white" fill-opacity="0"/>
		</clipPath>
	</defs>
	<g clip-path="url(#clip1_65)">
		<path d="M10.79 10.89L9.59 10.88L9.58 11.1C9.58 11.45 9.31 11.73 8.98 11.73C8.65 11.73 8.38 11.44 8.38 11.09L8.38 10.88L3.58 10.87L3.58 11.08C3.58 11.43 3.31 11.72 2.98 11.71C2.65 11.71 2.38 11.43 2.38 11.08L2.38 10.87L1.18 10.86C0.74 10.86 -0.02 10.06 -0.01 9.59L0 4.92C0 4.45 0.36 4.07 0.8 4.07L1.6 4.08C2.04 4.08 2.4 4.46 2.4 4.93L2.39 8.32L9.59 8.34L9.6 4.94C9.6 4.48 9.96 4.1 10.4 4.1L11.2 4.1C11.64 4.1 12 4.48 12 4.95L11.99 9.62C11.99 10.09 11.23 10.89 10.79 10.89ZM10 3.25C9.34 3.25 8.8 3.82 8.8 4.52L8.79 7.49L3.19 7.47L3.2 4.5C3.2 3.8 2.66 3.23 2 3.23C1.86 3.23 1.73 3.18 1.6 3.23L1.61 1.53C1.61 0.83 2.15 0.26 2.81 0.26L9.21 0.28C9.87 0.28 10.41 0.85 10.41 1.55L10.4 3.25C10.28 3.2 10.15 3.25 10 3.25Z" fill="#CCCCCC" fill-opacity="1.000000" fill-rule="nonzero"/>
	</g>
</svg>
