<svg width="21.000000" height="21.000000" viewBox="0 0 21 21" fill="none" xmlns="http://www.w3.org/2000/svg"
     xmlns:xlink="http://www.w3.org/1999/xlink">
    <desc>
        Created with Pixso.
    </desc>
    <defs/>
    <path id="路径"
          d="M10.67 0L10.5 0C4.76 0 0.09 4.6 0 10.32L0 10.49C0 16.23 4.6 20.9 10.32 20.99L10.49 21C16.23 21 20.9 16.39 20.99 10.67L21 10.5C21 4.76 16.39 0.09 10.67 0Z"
          fill="#0A59F7" fill-opacity="1.000000" fill-rule="evenodd"/>
    <path id="形状结合"
          d="M16.6938 16.3214C15.1431 17.9703 12.9419 19 10.5 19C8.05664 19 5.854 17.9691 4.30371 16.3186C4.95068 13.4951 7.47852 11.3889 10.4985 11.3889C13.519 11.3889 16.0479 13.4965 16.6938 16.3214ZM10.5 4.80762C8.84277 4.80762 7.5 6.15076 7.5 7.80762C7.5 9.46448 8.84277 10.8076 10.5 10.8076C12.1567 10.8076 13.5 9.46448 13.5 7.80762C13.5 6.15076 12.1567 4.80762 10.5 4.80762Z"
          clip-rule="evenodd" fill="#FFFFFF" fill-opacity="0.800000" fill-rule="evenodd"/>
</svg>
