<svg width="24.000000" height="24.000000" viewBox="0 0 24 24" fill="none" xmlns="http://www.w3.org/2000/svg"
     xmlns:xlink="http://www.w3.org/1999/xlink">
    <desc>
        Created with Pixso.
    </desc>
    <defs/>
    <g opacity="0.600000">
        <path d="M6.18 21.94C4.79 21.94 3.66 20.83 3.62 19.45L3.62 12.82L5.02 11.5L5.02 19.38C5.02 20 5.51 20.51 6.13 20.54L8.51 20.54L8.51 16.59C8.51 14.72 9.97 13.2 11.81 13.1L12 13.1C13.92 13.1 15.48 14.66 15.48 16.59L15.48 20.54L17.81 20.54C18.43 20.54 18.94 20.05 18.97 19.43L18.97 11.5L20.28 12.74L20.37 19.38C20.37 20.77 19.26 21.9 17.88 21.94L6.18 21.94ZM12 14.49C10.84 14.49 9.9 15.43 9.9 16.59L9.9 20.54L14.09 20.54L14.09 16.59C14.09 15.48 13.23 14.57 12.14 14.5L12 14.49ZM9.73 3.83C11.08 2.68 13.1 2.72 14.4 3.95L21.78 10.97C21.99 11.23 22.05 11.7 21.8 11.95C21.54 12.23 21.1 12.24 20.82 11.98L13.44 4.97L13.33 4.87C12.52 4.2 11.33 4.23 10.55 4.97L3.17 11.98C2.89 12.18 2.43 12.21 2.19 11.95C1.92 11.67 1.93 11.23 2.21 10.97L9.59 3.95L9.73 3.83Z"
              fill="#000000" fill-opacity="1.000000" fill-rule="nonzero"/>
        <path d="M3.62 19.45L3.62 12.82L5.02 11.5L5.02 19.38C5.02 20 5.51 20.51 6.13 20.54L8.51 20.54L8.51 16.59C8.51 14.72 9.97 13.2 11.81 13.1L12 13.1C13.92 13.1 15.48 14.66 15.48 16.59L15.48 20.54L17.81 20.54C18.43 20.54 18.94 20.05 18.97 19.43L18.97 11.5L20.28 12.74L20.37 19.38C20.37 20.77 19.26 21.9 17.88 21.94L6.18 21.94C4.79 21.94 3.66 20.83 3.62 19.45ZM9.9 16.59L9.9 20.54L14.09 20.54L14.09 16.59C14.09 15.48 13.23 14.57 12.14 14.5L12 14.49C10.84 14.49 9.9 15.43 9.9 16.59ZM14.4 3.95L21.78 10.97C21.99 11.23 22.05 11.7 21.8 11.95C21.54 12.23 21.1 12.24 20.82 11.98L13.44 4.97L13.33 4.87C12.52 4.2 11.33 4.23 10.55 4.97L3.17 11.98C2.89 12.18 2.43 12.21 2.19 11.95C1.92 11.67 1.93 11.23 2.21 10.97L9.59 3.95L9.73 3.83C11.08 2.68 13.1 2.72 14.4 3.95Z"
              stroke="#000000" stroke-opacity="0" stroke-width="1.000000"/>
    </g>
</svg>
