<svg width="24.000000" height="24.000000" viewBox="0 0 24 24" fill="none" xmlns="http://www.w3.org/2000/svg"
     xmlns:xlink="http://www.w3.org/1999/xlink">
    <desc>
        Created with Pixso.
    </desc>
    <defs/>
    <path d="M12.51 5.94L12.64 6.04L20.37 13.41L20.37 19.61C20.37 21.1 19.21 22.31 17.74 22.4L17.58 22.4L6.41 22.4C4.93 22.4 3.71 21.24 3.63 19.78L3.62 19.61L3.62 13.41L11.35 6.04C11.68 5.74 12.16 5.7 12.51 5.94ZM12 14.26C10.51 14.26 9.29 15.43 9.21 16.89L9.2 17.06L9.2 20.54L14.79 20.54L14.79 17.06C14.79 15.51 13.54 14.26 12 14.26ZM9.58 3.89C11.01 2.66 13.17 2.7 14.56 4.02L21.71 10.8C22 11.16 22.07 11.77 21.74 12.11C21.39 12.49 20.8 12.5 20.42 12.15L13.28 5.37L13.17 5.27C12.45 4.69 11.4 4.72 10.71 5.37L3.57 12.15C3.19 12.43 2.58 12.46 2.25 12.11C1.9 11.74 1.91 11.15 2.29 10.8L9.43 4.02L9.58 3.89Z"
          fill="#E84026" fill-opacity="1.000000" fill-rule="nonzero"/>
    <path d="M12.64 6.04L20.37 13.41L20.37 19.61C20.37 21.1 19.21 22.31 17.74 22.4L17.58 22.4L6.41 22.4C4.93 22.4 3.71 21.24 3.63 19.78L3.62 19.61L3.62 13.41L11.35 6.04C11.68 5.74 12.16 5.7 12.51 5.94L12.64 6.04ZM9.21 16.89L9.2 17.06L9.2 20.54L14.79 20.54L14.79 17.06C14.79 15.51 13.54 14.26 12 14.26C10.51 14.26 9.29 15.43 9.21 16.89ZM14.56 4.02L21.71 10.8C22 11.16 22.07 11.77 21.74 12.11C21.39 12.49 20.8 12.5 20.42 12.15L13.28 5.37L13.17 5.27C12.45 4.69 11.4 4.72 10.71 5.37L3.57 12.15C3.19 12.43 2.58 12.46 2.25 12.11C1.9 11.74 1.91 11.15 2.29 10.8L9.43 4.02L9.58 3.89C11.01 2.66 13.17 2.7 14.56 4.02Z"
          stroke="#000000" stroke-opacity="0" stroke-width="1.000000"/>
</svg>
