<svg width="20.000000" height="19.849548" viewBox="0 0 20 19.8495" fill="none" xmlns="http://www.w3.org/2000/svg"
     xmlns:xlink="http://www.w3.org/1999/xlink">
    <desc>
        Created with Pixso.
    </desc>
    <defs/>
    <path d="M8.03 0.79C8.18 0.57 8.39 0.43 8.66 0.39L10.86 0.01C11.09 -0.04 11.3 0.03 11.48 0.2C11.67 0.37 11.78 0.58 11.81 0.82L13.69 11.45C13.64 11.48 13.59 11.5 13.55 11.53C13.15 11.76 12.8 12.03 12.49 12.34C12.46 12.37 12.43 12.41 12.39 12.44L10.46 1.55L9.37 1.73L11.5 13.74C11.38 13.99 11.28 14.24 11.2 14.5C11.07 14.97 11 15.47 11 15.98C11 16.91 11.22 17.76 11.68 18.55C11.76 18.69 11.85 18.83 11.95 18.96L11.76 18.99C11.55 19.04 11.35 18.97 11.16 18.8C10.97 18.63 10.86 18.43 10.81 18.18L7.86 1.52C7.82 1.26 7.87 1.02 8.03 0.79ZM16.84 0.82L18.72 11.54C18.37 11.34 17.98 11.17 17.59 11.05C17.45 11.01 17.3 10.97 17.15 10.94L15.5 1.55L14.41 1.73L16 10.85C15.51 10.86 15.03 10.94 14.57 11.08L12.9 1.52C12.84 1.26 12.88 1.02 13.04 0.79C13.19 0.57 13.4 0.43 13.66 0.39L15.89 0.01C16.12 -0.02 16.32 0.05 16.51 0.21C16.58 0.28 16.65 0.36 16.7 0.44C16.77 0.56 16.82 0.68 16.84 0.82ZM0.9 0.17C1.07 0.09 1.26 0.06 1.46 0.06L5.64 0.06C5.83 0.06 6.01 0.09 6.17 0.16C6.35 0.23 6.52 0.34 6.66 0.49C6.82 0.64 6.93 0.81 7 0.99C7.07 1.15 7.1 1.33 7.1 1.52L7.1 17.49C7.1 17.89 6.95 18.22 6.66 18.5C6.53 18.64 6.38 18.74 6.21 18.81C6.04 18.88 5.85 18.92 5.64 18.92L1.46 18.92C1.24 18.92 1.04 18.88 0.86 18.79C0.7 18.73 0.56 18.63 0.43 18.5C0.14 18.22 0 17.89 0 17.49L0 1.52C0 1.33 0.03 1.15 0.09 0.99C0.17 0.81 0.28 0.64 0.43 0.49C0.57 0.35 0.73 0.24 0.9 0.17ZM1.46 17.49L5.64 17.49L5.64 1.52L1.46 1.52L1.46 17.49ZM5.13 7.2C5.06 7.27 4.98 7.33 4.89 7.36C4.81 7.4 4.71 7.41 4.62 7.41L2.48 7.41Q2.33 7.41 2.2 7.36C2.12 7.33 2.04 7.27 1.97 7.2C1.91 7.14 1.86 7.08 1.83 7.01C1.79 6.92 1.76 6.81 1.76 6.7C1.76 6.49 1.83 6.32 1.97 6.18C2.04 6.1 2.13 6.04 2.22 6C2.3 5.97 2.39 5.95 2.48 5.95L4.62 5.95C4.71 5.95 4.79 5.97 4.87 6C4.97 6.04 5.05 6.1 5.13 6.18C5.26 6.32 5.33 6.49 5.33 6.7C5.33 6.81 5.31 6.92 5.26 7.01C5.23 7.08 5.19 7.14 5.13 7.2ZM1.97 10.03C2.03 9.97 2.11 9.92 2.18 9.89C2.27 9.85 2.37 9.83 2.48 9.83L4.62 9.83C4.72 9.83 4.82 9.85 4.91 9.89C4.99 9.92 5.06 9.97 5.13 10.03C5.26 10.17 5.33 10.35 5.33 10.55C5.33 10.75 5.26 10.92 5.13 11.06C5.06 11.12 4.99 11.17 4.91 11.2C4.82 11.24 4.72 11.26 4.62 11.26L2.48 11.26C2.37 11.26 2.27 11.24 2.18 11.2C2.11 11.17 2.03 11.12 1.97 11.06C1.83 10.92 1.76 10.75 1.76 10.55C1.76 10.35 1.83 10.17 1.97 10.03ZM12.79 17.91C12.45 17.32 12.27 16.67 12.27 15.98C12.27 15.28 12.45 14.64 12.79 14.04C13.14 13.46 13.61 12.99 14.2 12.64C14.78 12.3 15.42 12.12 16.12 12.12C16.81 12.12 17.46 12.3 18.06 12.64C18.65 12.99 19.12 13.46 19.47 14.04C19.82 14.64 20 15.28 20 15.98C20 16.67 19.82 17.32 19.47 17.91C19.12 18.5 18.65 18.97 18.06 19.32C17.46 19.67 16.81 19.84 16.12 19.84C15.42 19.84 14.78 19.67 14.2 19.32C13.61 18.97 13.14 18.5 12.79 17.91ZM18.36 15.63C18.28 15.53 18.16 15.48 18.02 15.48L16.63 15.48L16.63 14.07C16.63 13.93 16.58 13.82 16.49 13.73C16.38 13.63 16.27 13.58 16.15 13.58C16.01 13.58 15.89 13.63 15.8 13.73C15.7 13.82 15.65 13.93 15.65 14.07L15.65 15.48L14.24 15.48C14.12 15.48 14.01 15.53 13.91 15.63C13.82 15.72 13.78 15.83 13.78 15.95C13.78 16.09 13.82 16.21 13.91 16.3C14.01 16.39 14.12 16.44 14.24 16.44L15.65 16.44L15.65 17.85C15.65 17.98 15.7 18.09 15.8 18.18C15.89 18.27 16.01 18.32 16.15 18.32C16.27 18.32 16.38 18.27 16.49 18.18C16.58 18.09 16.63 17.98 16.63 17.85L16.63 16.44L18.02 16.44C18.16 16.44 18.28 16.39 18.36 16.3C18.45 16.21 18.49 16.09 18.49 15.95C18.49 15.83 18.45 15.72 18.36 15.63Z"
          fill="#000000" fill-opacity="0.898039" fill-rule="evenodd"/>
</svg>
