<svg width="20.000000" height="19.800003" viewBox="0 0 20 19.8" fill="none" xmlns="http://www.w3.org/2000/svg"
     xmlns:xlink="http://www.w3.org/1999/xlink">
    <desc>
        Created with Pixso.
    </desc>
    <defs/>
    <path d="M12.2 15.89C12.2 16.59 12.37 17.24 12.72 17.84C13.07 18.44 13.55 18.92 14.14 19.27C14.73 19.62 15.38 19.79 16.08 19.79C16.78 19.79 17.44 19.62 18.04 19.27C18.64 18.92 19.12 18.44 19.47 17.84C19.82 17.24 20 16.59 20 15.89C20 15.19 19.82 14.54 19.47 13.94C19.12 13.35 18.64 12.87 18.04 12.52C17.44 12.17 16.78 12 16.08 12C15.38 12 14.73 12.17 14.14 12.52C13.55 12.87 13.07 13.35 12.72 13.94C12.37 14.54 12.2 15.19 12.2 15.89ZM15.73 17.41C15.51 17.41 15.32 17.33 15.14 17.15L14.05 16.05C13.94 15.96 13.88 15.84 13.88 15.71C13.88 15.58 13.94 15.46 14.05 15.37C14.14 15.26 14.25 15.21 14.38 15.21C14.52 15.21 14.63 15.26 14.72 15.37L15.73 16.36L17.72 14.39C17.82 14.3 17.93 14.25 18.06 14.25C18.2 14.25 18.31 14.3 18.4 14.39C18.51 14.48 18.57 14.59 18.57 14.73C18.57 14.86 18.51 14.97 18.4 15.07L16.34 17.15C16.17 17.33 15.96 17.41 15.73 17.41Z"
          fill="#64BB5C" fill-opacity="1.000000" fill-rule="nonzero"/>
    <path d="M8.78 0.39C8.51 0.43 8.3 0.57 8.14 0.79C7.99 1.02 7.93 1.26 7.98 1.52L10.97 18.17C11.02 18.41 11.13 18.62 11.32 18.79C11.51 18.96 11.71 19.03 11.93 18.98L12.12 18.95C12.03 18.82 11.94 18.68 11.85 18.54C11.39 17.75 11.16 16.89 11.16 15.97C11.16 15.46 11.23 14.96 11.37 14.49C11.45 14.24 11.55 13.98 11.67 13.74L9.51 1.73L10.62 1.54L12.58 12.43C12.61 12.4 12.64 12.37 12.67 12.33C12.99 12.02 13.35 11.75 13.75 11.52C13.79 11.5 13.84 11.47 13.89 11.44L11.98 0.82C11.95 0.58 11.84 0.37 11.65 0.2C11.46 0.03 11.25 -0.04 11.02 0.01L8.78 0.39ZM19 11.54L17.09 0.82C17.06 0.68 17.01 0.56 16.94 0.44C16.89 0.36 16.82 0.28 16.75 0.21C16.56 0.05 16.35 -0.02 16.12 0.01L13.86 0.39C13.59 0.43 13.38 0.57 13.23 0.79C13.07 1.02 13.02 1.26 13.09 1.52L14.79 11.07C15.24 10.93 15.74 10.85 16.24 10.84L14.62 1.73L15.73 1.54L17.4 10.94C17.55 10.97 17.7 11 17.85 11.05C18.24 11.16 18.63 11.33 19 11.54ZM1.49 0.06C1.28 0.06 1.09 0.09 0.91 0.17C0.74 0.24 0.58 0.35 0.44 0.49C0.28 0.64 0.17 0.81 0.09 0.99C0.03 1.15 0 1.33 0 1.52L0 17.47C0 17.87 0.14 18.21 0.44 18.49C0.57 18.62 0.71 18.71 0.87 18.78C1.06 18.86 1.26 18.9 1.49 18.9L5.72 18.9C5.93 18.9 6.12 18.87 6.3 18.79C6.47 18.73 6.62 18.62 6.76 18.49C7.06 18.21 7.2 17.87 7.2 17.47L7.2 1.52C7.2 1.33 7.17 1.15 7.1 0.99C7.03 0.81 6.92 0.64 6.76 0.49C6.61 0.34 6.44 0.23 6.26 0.16C6.09 0.09 5.92 0.06 5.72 0.06L1.49 0.06ZM5.72 17.47L1.49 17.47L1.49 1.52L5.72 1.52L5.72 17.47ZM4.96 7.36C5.05 7.32 5.13 7.27 5.2 7.2C5.26 7.14 5.31 7.07 5.34 7.01C5.39 6.91 5.41 6.81 5.41 6.69C5.41 6.49 5.34 6.31 5.2 6.17C5.12 6.09 5.04 6.03 4.94 6C4.86 5.97 4.78 5.95 4.68 5.95L2.52 5.95C2.42 5.95 2.34 5.97 2.26 6C2.16 6.03 2.07 6.09 2 6.17C1.86 6.31 1.79 6.49 1.79 6.69C1.79 6.81 1.81 6.91 1.86 7.01C1.89 7.07 1.94 7.14 2 7.2C2.07 7.27 2.15 7.32 2.24 7.36C2.32 7.39 2.42 7.41 2.52 7.41L4.68 7.41C4.78 7.41 4.88 7.39 4.96 7.36ZM2.22 9.88C2.14 9.92 2.06 9.96 2 10.03C1.86 10.17 1.79 10.34 1.79 10.54C1.79 10.74 1.86 10.91 2 11.05C2.06 11.11 2.14 11.16 2.22 11.2C2.31 11.23 2.41 11.25 2.52 11.25L4.68 11.25C4.79 11.25 4.89 11.23 4.98 11.2C5.06 11.16 5.14 11.11 5.2 11.05C5.34 10.91 5.41 10.74 5.41 10.54C5.41 10.34 5.34 10.17 5.2 10.03C5.14 9.96 5.06 9.92 4.98 9.88C4.89 9.84 4.79 9.82 4.68 9.82L2.52 9.82C2.41 9.82 2.31 9.84 2.22 9.88Z"
          fill="#000000" fill-opacity="1.000000" fill-rule="evenodd"/>
</svg>
