<svg width="20.000000" height="20.000000" viewBox="0 0 20 20" fill="none" xmlns="http://www.w3.org/2000/svg"
     xmlns:xlink="http://www.w3.org/1999/xlink">
    <desc>
        Created with Pixso.
    </desc>
    <defs/>
    <rect width="20.000000" height="20.000000" fill="#FFFFFF" fill-opacity="0"/>
    <path d="M5 2L15 2C16.1 2 17 2.89 17 4L17 16C17 17.1 16.1 18 15 18L5 18C3.89 18 3 17.1 3 16L3 4C3 2.89 3.89 2 5 2Z"
          fill="#FE4F35" fill-opacity="1.000000" fill-rule="evenodd"/>
    <path d="M6.21 10.31C6.49 9.78 7.2 8.19 10 8.19C12.79 8.19 13.52 9.78 13.78 10.31C13.88 10.51 13.95 10.78 13.99 11.11C14.04 11.55 13.7 11.94 13.24 11.99C13.21 11.99 13.18 12 13.15 12L6.84 12C6.37 12 6 11.64 6 11.2C6 11.17 6 11.14 6 11.11C6.04 10.78 6.11 10.51 6.21 10.31ZM10 4C8.89 4 7.99 4.85 7.99 5.9C7.99 6.94 8.89 7.8 10 7.8C11.11 7.8 12.01 6.94 12.01 5.9C12.01 4.85 11.11 4 10 4Z"
          fill="#FFFFFF" fill-opacity="1.000000" fill-rule="nonzero"/>
    <path d="M8.5 13L11.5 13C11.77 13 12 13.22 12 13.5C12 13.77 11.77 14 11.5 14L8.5 14C8.22 14 8 13.77 8 13.5C8 13.22 8.22 13 8.5 13Z"
          fill="#FFFFFF" fill-opacity="0.600000" fill-rule="evenodd"/>
    <path d="M7.5 15L12.5 15C12.77 15 13 15.22 13 15.5C13 15.77 12.77 16 12.5 16L7.5 16C7.22 16 7 15.77 7 15.5C7 15.22 7.22 15 7.5 15Z"
          fill="#FFFFFF" fill-opacity="0.600000" fill-rule="evenodd"/>
</svg>
