<svg width="20.000000" height="20.000000" viewBox="0 0 20 20" fill="none" xmlns="http://www.w3.org/2000/svg"
     xmlns:xlink="http://www.w3.org/1999/xlink">
    <desc>
        Created with Pixso.
    </desc>
    <defs>
        <clipPath id="clip17_2179">
            <rect width="20.000000" height="20.000000" fill="white" fill-opacity="0"/>
        </clipPath>
    </defs>
    <g clip-path="url(#clip17_2179)">
        <path d="M2.5 2.25C2.24 2.25 2.04 2.32 1.9 2.45C1.76 2.59 1.7 2.79 1.7 3.05L1.7 17.74C1.7 18 1.76 18.2 1.9 18.34C2.04 18.47 2.24 18.54 2.5 18.54L7.01 18.54C7.28 18.54 7.48 18.47 7.61 18.34C7.75 18.2 7.81 18 7.81 17.74L7.81 3.05C7.81 2.79 7.75 2.59 7.61 2.45C7.48 2.32 7.28 2.25 7.01 2.25L2.5 2.25ZM5.85 10.68C6.03 10.68 6.18 10.74 6.3 10.85C6.43 10.98 6.5 11.12 6.5 11.29C6.5 11.47 6.43 11.62 6.3 11.75C6.18 11.87 6.03 11.94 5.85 11.94L3.78 11.94C3.6 11.94 3.45 11.87 3.34 11.75C3.21 11.62 3.15 11.47 3.15 11.29C3.15 11.12 3.21 10.98 3.34 10.85C3.45 10.74 3.6 10.68 3.78 10.68L5.85 10.68ZM3.78 8.59C3.6 8.59 3.45 8.53 3.34 8.41C3.21 8.29 3.15 8.15 3.15 7.98C3.15 7.8 3.21 7.65 3.34 7.54C3.45 7.41 3.6 7.35 3.78 7.35L5.85 7.35C6.03 7.35 6.18 7.41 6.3 7.54C6.43 7.65 6.5 7.8 6.5 7.98C6.5 8.15 6.43 8.29 6.3 8.41C6.18 8.53 6.03 8.59 5.85 8.59L3.78 8.59Z"
              fill="#FE4F35" fill-opacity="1.000000" fill-rule="nonzero"/>
        <path d="M9.11 2.54C8.86 2.58 8.68 2.68 8.58 2.84C8.47 3 8.43 3.2 8.48 3.45L11.01 17.91C11.06 18.17 11.16 18.35 11.31 18.45C11.47 18.56 11.68 18.59 11.94 18.55L13.78 18.24C14.03 18.18 14.21 18.08 14.31 17.93C14.42 17.77 14.46 17.57 14.41 17.31L11.88 2.85C11.83 2.6 11.73 2.42 11.58 2.3C11.42 2.19 11.21 2.16 10.95 2.21L9.11 2.54ZM13.38 2.54C13.12 2.58 12.94 2.68 12.84 2.84C12.73 3 12.7 3.2 12.74 3.45L15.28 17.91C15.32 18.17 15.42 18.35 15.58 18.45C15.73 18.56 15.94 18.59 16.2 18.55L18.04 18.24C18.29 18.18 18.47 18.08 18.58 17.93C18.68 17.77 18.72 17.57 18.68 17.31L16.14 2.85C16.1 2.6 16 2.42 15.84 2.3C15.68 2.19 15.47 2.16 15.21 2.21L13.38 2.54Z"
              fill="#FE4F35" fill-opacity="0.400000" fill-rule="nonzero"/>
    </g>
</svg>
