<svg width="32.000000" height="32.000000" viewBox="0 0 32 32" fill="none" xmlns="http://www.w3.org/2000/svg"
     xmlns:xlink="http://www.w3.org/1999/xlink">
    <desc>
        Created with Pixso.
    </desc>
    <defs>
        <clipPath id="clip3_1905">
            <rect width="32.000000" height="32.000000" fill="white" fill-opacity="0"/>
        </clipPath>
    </defs>
    <g clip-path="url(#clip3_1905)">
        <path d="M25.25 9.26C25.47 9.26 25.65 9.18 25.8 9.03C25.95 8.87 26.03 8.69 26.03 8.48C26.03 8.28 25.95 8.1 25.8 7.95C25.65 7.81 25.47 7.73 25.25 7.73L6.7 7.73C6.5 7.73 6.32 7.81 6.17 7.95C6.03 8.1 5.96 8.28 5.96 8.48C5.96 8.69 6.03 8.87 6.17 9.03C6.32 9.18 6.5 9.26 6.7 9.26L25.25 9.26ZM25.25 14.25C25.47 14.25 25.65 14.17 25.8 14.03C25.95 13.89 26.03 13.71 26.03 13.5C26.03 13.29 25.95 13.12 25.8 12.98C25.65 12.83 25.47 12.76 25.25 12.76L6.7 12.76C6.5 12.76 6.32 12.83 6.17 12.98C6.03 13.12 5.96 13.29 5.96 13.5C5.96 13.71 6.03 13.89 6.17 14.03C6.32 14.17 6.5 14.25 6.7 14.25L25.25 14.25ZM25.25 19.24C25.47 19.24 25.65 19.16 25.8 19.02C25.95 18.87 26.03 18.7 26.03 18.5C26.03 18.28 25.95 18.11 25.8 17.96C25.65 17.82 25.47 17.75 25.25 17.75L6.7 17.75C6.5 17.75 6.32 17.82 6.17 17.96C6.03 18.11 5.96 18.28 5.96 18.5C5.96 18.7 6.03 18.87 6.17 19.02C6.32 19.16 6.5 19.24 6.7 19.24L25.25 19.24ZM25.25 24.26C25.47 24.26 25.65 24.18 25.8 24.03C25.95 23.87 26.03 23.69 26.03 23.49C26.03 23.28 25.95 23.1 25.8 22.96C25.65 22.81 25.47 22.74 25.25 22.74L6.7 22.74C6.5 22.74 6.32 22.81 6.17 22.96C6.03 23.1 5.96 23.28 5.96 23.49C5.96 23.69 6.03 23.87 6.17 24.03C6.32 24.18 6.5 24.26 6.7 24.26L25.25 24.26Z"
              fill="#000000" fill-opacity="0.901961" fill-rule="nonzero"/>
    </g>
</svg>
