<svg width="32.000000" height="32.000000" viewBox="0 0 32 32" fill="none" xmlns="http://www.w3.org/2000/svg"
     xmlns:xlink="http://www.w3.org/1999/xlink">
    <desc>
        Created with Pixso.
    </desc>
    <defs>
        <clipPath id="clip3_1907">
            <rect width="24.000000" height="24.000000" transform="translate(4.000000 4.000000)" fill="white"
                  fill-opacity="0"/>
        </clipPath>
        <clipPath id="clip3_1909">
            <rect width="32.000000" height="32.000000" fill="white" fill-opacity="0"/>
        </clipPath>
    </defs>
    <g clip-path="url(#clip3_1909)">
        <g clip-path="url(#clip3_1907)">
            <g opacity="0.000000">
                <rect x="4.000000" y="4.000000" width="24.000000" height="24.000000" fill="#000000"
                      fill-opacity="1.000000"/>
            </g>
        </g>
        <path d="M16.37 6.85C16.51 6.93 16.62 7.04 16.7 7.18L22.41 21.01C22.49 21.2 22.49 21.39 22.42 21.59C22.34 21.78 22.21 21.91 22.02 21.99C21.88 22.06 21.7 22.06 21.48 21.99C21.26 21.93 21.12 21.79 21.04 21.59L19.41 17.67L12.59 17.67L10.96 21.59C10.86 21.81 10.71 21.95 10.5 21.99C10.29 22.04 10.05 22.02 9.93 21.98C9.75 21.86 9.63 21.72 9.57 21.53Q9.52 21.4 9.52 21.27Q9.52 21.14 9.57 21.01L15.3 7.21C15.35 7.08 15.44 6.97 15.56 6.88C15.68 6.8 15.81 6.75 15.95 6.75C16.09 6.74 16.23 6.77 16.37 6.85ZM18.76 16.16L16 9.46L13.22 16.16L18.76 16.16ZM22.91 25.02C22.77 25.16 22.59 25.24 22.38 25.24L9.58 25.24C9.38 25.24 9.2 25.16 9.05 25.02C8.91 24.88 8.84 24.7 8.84 24.5C8.84 24.28 8.91 24.1 9.05 23.96Q9.17 23.83 9.32 23.77Q9.44 23.73 9.58 23.73L22.38 23.73Q22.55 23.73 22.69 23.79Q22.81 23.85 22.91 23.96C23.05 24.1 23.13 24.28 23.13 24.5Q23.13 24.66 23.06 24.8Q23.01 24.92 22.91 25.02Z"
              fill="#000000" fill-opacity="0.901961" fill-rule="evenodd"/>
    </g>
</svg>
