<svg width="20.000000" height="20.000000" viewBox="0 0 20 20" fill="none" xmlns="http://www.w3.org/2000/svg"
     xmlns:xlink="http://www.w3.org/1999/xlink">
    <desc>
        Created with Pixso.
    </desc>
    <defs>
        <clipPath id="clip16_2224">
            <rect width="20.000000" height="20.000000" fill="white" fill-opacity="0"/>
        </clipPath>
    </defs>
    <g clip-path="url(#clip16_2224)">
        <path d="M12.89 3.03C12.33 3.1 11.79 3.24 11.25 3.48C10.56 3.78 9.95 4.17 9.43 4.66L9.33 15.05C9.52 14.69 9.77 14.37 10.08 14.08C10.42 12.25 11.76 10.76 13.51 10.22L13.52 3C13.31 3 13.1 3.01 12.89 3.03ZM10 15.14C9.78 15.43 9.58 15.77 9.42 16.14L9.59 16.01C9.75 15.89 9.9 15.78 10.04 15.68C10.02 15.5 10 15.32 10 15.14ZM15.99 10.09C15.67 10.03 15.34 10 15 10C14.74 10 14.49 10.01 14.24 10.05L14.24 4.33C14.79 4.48 15.29 4.71 15.74 5.01C15.81 5.06 15.87 5.13 15.92 5.23C15.98 5.33 16 5.41 15.99 5.47L15.99 10.09ZM8.63 5.17C8.17 4.85 7.62 4.56 7.06 4.39C6.83 4.32 6.61 4.26 6.38 4.22C6.02 4.16 5.66 4.12 5.29 4.12C5.23 4.12 5.17 4.12 5.11 4.13C4.63 4.14 4.16 4.21 3.68 4.35C3.18 4.49 2.72 4.7 2.29 4.96C2.19 5.04 2.04 5.17 2.01 5.27C2 5.31 2 5.34 2 5.38L2 15.05C2 15.27 2.04 15.42 2.14 15.51C2.18 15.54 2.23 15.57 2.27 15.59C2.34 15.61 2.42 15.63 2.51 15.62C2.65 15.61 2.77 15.57 2.88 15.5C3.16 15.33 3.44 15.2 3.73 15.09C4.27 14.89 4.85 14.79 5.45 14.79C5.68 14.79 5.9 14.81 6.12 14.85C6.53 14.92 6.93 15.06 7.32 15.27C7.91 15.59 8.35 15.91 8.63 16.22L8.63 5.17Z"
              fill="#FE4F35" fill-opacity="1.000000" fill-rule="evenodd"/>
        <path d="M11 14.98C11 15.7 11.17 16.37 11.53 16.99C11.89 17.61 12.38 18.09 12.99 18.45C13.61 18.81 14.28 19 15 19C15.71 19 16.38 18.81 16.99 18.45C17.61 18.09 18.1 17.61 18.46 16.99C18.82 16.37 19 15.7 19 14.98C19 14.26 18.82 13.6 18.46 12.99C18.1 12.38 17.61 11.9 16.99 11.54C16.38 11.18 15.71 11 15 11C14.28 11 13.61 11.18 12.99 11.54C12.38 11.9 11.89 12.38 11.53 12.99C11.17 13.6 11 14.26 11 14.98ZM16.84 16.11C16.93 16.22 16.98 16.35 16.98 16.48C16.98 16.62 16.92 16.74 16.81 16.83C16.72 16.93 16.6 16.98 16.46 16.98C16.33 16.98 16.22 16.93 16.12 16.83L14.64 15.34C14.56 15.26 14.52 15.14 14.52 14.98L14.52 12.94C14.52 12.8 14.56 12.68 14.66 12.58C14.76 12.48 14.87 12.44 15 12.44C15.13 12.44 15.25 12.48 15.35 12.58C15.45 12.68 15.49 12.8 15.49 12.94L15.49 14.79L16.84 16.11Z"
              fill="#FE4F35" fill-opacity="0.400000" fill-rule="nonzero"/>
    </g>
</svg>
