<svg width="20.000000" height="20.000000" viewBox="0 0 20 20" fill="none" xmlns="http://www.w3.org/2000/svg"
     xmlns:xlink="http://www.w3.org/1999/xlink">
    <desc>
        Created with Pixso.
    </desc>
    <defs>
        <clipPath id="clip20_2411">
            <rect width="20.000000" height="20.000000" fill="white" fill-opacity="0"/>
        </clipPath>
    </defs>
    <g clip-path="url(#clip20_2411)">
        <path d="M16.93 12.89L16.93 4.62C16.93 4.42 16.9 4.22 16.86 4.03C16.83 3.88 16.78 3.74 16.72 3.6C16.66 3.44 16.58 3.28 16.48 3.14C16.39 3.01 16.29 2.88 16.17 2.77C16.04 2.63 15.89 2.51 15.74 2.4C15.62 2.33 15.49 2.26 15.36 2.2C15.21 2.14 15.05 2.09 14.89 2.05C14.72 2.01 14.54 2 14.35 2L5.57 2C5.38 2 5.2 2.01 5.03 2.05C4.87 2.09 4.72 2.14 4.56 2.2C4.43 2.26 4.31 2.33 4.19 2.4C4.03 2.51 3.88 2.63 3.75 2.77C3.63 2.88 3.53 3.01 3.44 3.14C3.34 3.28 3.26 3.44 3.2 3.6C3.14 3.74 3.09 3.88 3.06 4.03C3.02 4.22 3 4.42 3 4.62L3 15.37C3 15.58 3.02 15.77 3.06 15.96C3.09 16.11 3.14 16.25 3.2 16.39C3.26 16.55 3.34 16.71 3.44 16.85C3.53 16.98 3.63 17.11 3.75 17.22C3.88 17.36 4.03 17.48 4.19 17.59C4.31 17.66 4.43 17.73 4.56 17.79C4.72 17.85 4.87 17.9 5.03 17.94C5.2 17.98 5.38 18 5.57 18L16.38 18C16.42 18 16.45 17.99 16.49 17.98C16.53 17.98 16.56 17.96 16.59 17.95C16.63 17.94 16.65 17.92 16.68 17.9C16.71 17.88 16.74 17.86 16.77 17.83C16.82 17.78 16.86 17.72 16.89 17.66C16.91 17.59 16.93 17.52 16.93 17.44C16.93 17.37 16.91 17.3 16.89 17.23C16.86 17.17 16.82 17.11 16.77 17.06C16.74 17.03 16.71 17 16.68 16.98C16.65 16.97 16.63 16.95 16.59 16.94C16.56 16.92 16.53 16.91 16.49 16.9C16.45 16.9 16.42 16.89 16.38 16.89L5.57 16.89C5.46 16.89 5.36 16.88 5.25 16.86C5.17 16.84 5.08 16.81 5 16.77C4.92 16.74 4.86 16.71 4.79 16.67C4.7 16.61 4.61 16.53 4.53 16.45C4.46 16.38 4.4 16.31 4.35 16.23C4.29 16.15 4.25 16.06 4.21 15.97C4.18 15.89 4.15 15.81 4.13 15.73C4.1 15.62 4.09 15.5 4.09 15.37L4.09 4.62C4.09 4.49 4.1 4.37 4.13 4.26C4.15 4.18 4.18 4.1 4.21 4.02C4.25 3.93 4.29 3.84 4.35 3.76C4.4 3.68 4.46 3.61 4.53 3.54C4.61 3.46 4.7 3.38 4.79 3.32C4.86 3.28 4.92 3.25 5 3.22C5.08 3.18 5.17 3.15 5.25 3.13C5.36 3.11 5.46 3.1 5.57 3.1L14.35 3.1C14.46 3.1 14.57 3.11 14.67 3.13C14.76 3.15 14.84 3.18 14.93 3.22C15 3.25 15.06 3.28 15.13 3.32C15.22 3.38 15.31 3.46 15.4 3.54C15.46 3.61 15.52 3.68 15.57 3.76C15.63 3.84 15.67 3.93 15.71 4.02C15.75 4.1 15.77 4.18 15.79 4.26C15.82 4.37 15.83 4.49 15.83 4.62L15.83 12.89C15.83 13.01 15.82 13.13 15.79 13.25C15.77 13.33 15.75 13.41 15.71 13.48C15.67 13.58 15.63 13.67 15.57 13.75C15.52 13.83 15.46 13.9 15.4 13.97C15.31 14.05 15.22 14.12 15.13 14.18C15.06 14.22 15 14.26 14.93 14.29C14.84 14.33 14.76 14.35 14.67 14.37C14.57 14.4 14.46 14.41 14.35 14.41L5.57 14.41C5.53 14.41 5.49 14.41 5.45 14.42C5.42 14.43 5.38 14.44 5.35 14.45C5.32 14.47 5.29 14.48 5.26 14.5C5.23 14.52 5.2 14.55 5.18 14.57C5.12 14.63 5.09 14.68 5.06 14.75C5.03 14.81 5.02 14.88 5.02 14.96C5.02 15.04 5.03 15.11 5.06 15.17C5.09 15.24 5.12 15.3 5.18 15.35C5.2 15.38 5.23 15.4 5.26 15.42C5.29 15.44 5.32 15.45 5.35 15.47C5.38 15.48 5.42 15.49 5.45 15.5C5.49 15.51 5.53 15.51 5.57 15.51L14.35 15.51C14.54 15.51 14.72 15.49 14.89 15.45C15.05 15.42 15.21 15.37 15.36 15.31C15.49 15.25 15.62 15.18 15.74 15.1C15.89 15 16.04 14.88 16.17 14.74C16.29 14.63 16.39 14.5 16.48 14.37C16.58 14.22 16.66 14.07 16.72 13.91C16.78 13.77 16.83 13.63 16.86 13.48C16.9 13.29 16.93 13.09 16.93 12.89Z"
              fill="#FE4F35" fill-opacity="1.000000" fill-rule="evenodd"/>
        <path d="M5.13 2.89L14.79 2.89C15.55 2.89 16.17 3.51 16.17 4.27L16.17 13.93C16.17 14.69 15.55 15.31 14.79 15.31L5.18 15.35C4.42 15.35 3.75 14.69 3.75 13.93L3.75 4.27C3.75 3.51 4.37 2.89 5.13 2.89Z"
              fill="#FE4F35" fill-opacity="1.000000" fill-rule="evenodd"/>
        <path d="M8.93 2.34L13.75 2.34L13.75 8.2L11.79 6.53C11.53 6.31 11.15 6.31 10.89 6.53L8.93 8.2L8.93 2.34Z"
              fill="#FFCCC4" fill-opacity="1.000000" fill-rule="evenodd"/>
    </g>
</svg>
