<svg width="24.000000" height="24.000000" viewBox="0 0 24 24" fill="none" xmlns="http://www.w3.org/2000/svg"
     xmlns:xlink="http://www.w3.org/1999/xlink">
    <desc>
        Created with Pixso.
    </desc>
    <defs>
        <clipPath id="clip15_5945">
            <rect width="24.000000" height="24.000000" fill="white" fill-opacity="0"/>
        </clipPath>
    </defs>
    <g clip-path="url(#clip15_5945)">
        <rect width="16.000000" height="16.000000" transform="translate(4.000000 4.000000)" fill="#FFFFFF"
              fill-opacity="0"/>
        <path d="M15 17.73L13.1 17.73L11.8 14.51L6.95 14.51L5.74 17.73L4 17.73L8.7 6L10.1 6L15 17.73ZM9.32 8.3L7.53 13L11.21 13L9.32 8.3Z"
              fill="#000000" fill-opacity="0.898039" fill-rule="nonzero"/>
        <path d="M15.5 8L19.5 8C19.77 8 20 8.22 20 8.5C20 8.77 19.77 9 19.5 9L15.5 9C15.22 9 15 8.77 15 8.5C15 8.22 15.22 8 15.5 8Z"
              fill="#000000" fill-opacity="1.000000" fill-rule="evenodd"/>
    </g>
</svg>
