<svg width="32.000000" height="32.000000" viewBox="0 0 32 32" fill="none" xmlns="http://www.w3.org/2000/svg"
     xmlns:xlink="http://www.w3.org/1999/xlink">
    <desc>
        Created with Pixso.
    </desc>
    <defs>
        <clipPath id="clip3_1911">
            <rect width="24.000000" height="24.000000" transform="translate(4.000000 4.000000)" fill="white"
                  fill-opacity="0"/>
        </clipPath>
        <clipPath id="clip3_1916">
            <rect width="32.000000" height="32.000000" fill="white" fill-opacity="0"/>
        </clipPath>
    </defs>
    <g clip-path="url(#clip3_1916)">
        <g clip-path="url(#clip3_1911)">
            <g opacity="0.000000">
                <rect x="4.000000" y="4.000000" width="24.000000" height="24.000000" fill="#000000"
                      fill-opacity="1.000000"/>
            </g>
        </g>
        <path d="M16 10.49C16.99 10.49 17.91 10.74 18.75 11.24C19.59 11.74 20.25 12.4 20.75 13.24C21.25 14.09 21.5 15 21.5 15.99C21.5 16.99 21.25 17.9 20.75 18.74C20.25 19.59 19.59 20.25 18.75 20.74C17.91 21.24 16.99 21.49 16 21.49C15 21.49 14.08 21.24 13.24 20.74C12.39 20.25 11.72 19.59 11.24 18.74C10.74 17.9 10.5 16.99 10.5 15.99C10.5 15 10.74 14.09 11.24 13.24C11.72 12.4 12.39 11.74 13.24 11.24C14.08 10.74 15 10.49 16 10.49ZM16 8.98C14.73 8.98 13.56 9.3 12.5 9.93C11.42 10.57 10.57 11.42 9.93 12.49C9.3 13.56 8.99 14.73 8.99 15.99C8.99 17.26 9.3 18.43 9.93 19.49C10.57 20.57 11.42 21.42 12.5 22.05C13.56 22.69 14.73 23 16 23C17.26 23 18.43 22.69 19.5 22.05C20.57 21.42 21.42 20.57 22.06 19.49C22.69 18.43 23.01 17.26 23.01 15.99C23.01 14.73 22.69 13.56 22.06 12.49C21.42 11.42 20.57 10.57 19.5 9.93C18.43 9.3 17.26 8.98 16 8.98ZM15.98 7.54C16.2 7.54 16.39 7.46 16.54 7.3C16.7 7.14 16.79 6.95 16.79 6.73C16.79 6.51 16.7 6.31 16.54 6.15C16.39 5.99 16.2 5.91 15.98 5.91C15.75 5.91 15.56 5.99 15.4 6.15C15.24 6.31 15.16 6.51 15.16 6.73C15.16 6.95 15.24 7.14 15.4 7.3C15.56 7.46 15.75 7.54 15.98 7.54ZM15.98 26.08C16.2 26.08 16.39 25.99 16.54 25.84C16.7 25.67 16.79 25.48 16.79 25.25C16.79 25.03 16.7 24.85 16.54 24.68C16.39 24.52 16.2 24.45 15.98 24.45C15.75 24.45 15.56 24.52 15.4 24.68C15.24 24.85 15.16 25.03 15.16 25.25C15.16 25.48 15.24 25.67 15.4 25.84C15.56 25.99 15.75 26.08 15.98 26.08ZM21.95 10.01C22.11 10.17 22.3 10.25 22.53 10.25C22.75 10.25 22.94 10.17 23.1 10.01C23.26 9.85 23.34 9.66 23.34 9.44C23.34 9.22 23.26 9.02 23.1 8.86C22.94 8.7 22.75 8.62 22.53 8.62C22.3 8.62 22.11 8.7 21.95 8.86C21.79 9.02 21.71 9.22 21.71 9.44C21.71 9.66 21.79 9.85 21.95 10.01ZM8.85 23.12C9.01 23.28 9.2 23.36 9.42 23.36C9.64 23.36 9.84 23.28 10 23.12C10.17 22.97 10.26 22.77 10.26 22.54C10.26 22.33 10.17 22.13 10 21.98C9.84 21.79 9.64 21.71 9.42 21.71C9.2 21.71 9.01 21.79 8.85 21.98C8.68 22.13 8.61 22.33 8.61 22.54C8.61 22.77 8.68 22.97 8.85 23.12ZM24.42 15.99C24.4 16.22 24.48 16.42 24.65 16.59C24.81 16.75 25.01 16.83 25.24 16.81C25.46 16.81 25.66 16.73 25.82 16.55C25.98 16.39 26.06 16.2 26.06 15.99C26.06 15.77 25.98 15.58 25.82 15.41C25.66 15.25 25.46 15.17 25.24 15.17C25.01 15.16 24.81 15.24 24.65 15.4C24.48 15.57 24.4 15.77 24.42 15.99ZM5.9 15.99C5.9 16.2 5.98 16.39 6.15 16.55C6.31 16.73 6.5 16.81 6.71 16.81C6.93 16.83 7.13 16.75 7.3 16.59C7.46 16.42 7.54 16.22 7.53 15.99C7.54 15.77 7.46 15.57 7.3 15.4C7.13 15.24 6.93 15.16 6.71 15.17C6.5 15.17 6.31 15.25 6.15 15.41C5.98 15.58 5.9 15.77 5.9 15.99ZM21.95 21.98C21.79 22.13 21.71 22.33 21.71 22.54C21.71 22.77 21.79 22.97 21.95 23.12C22.11 23.28 22.3 23.36 22.53 23.36C22.75 23.36 22.94 23.28 23.1 23.12C23.26 22.97 23.34 22.77 23.34 22.54C23.34 22.33 23.26 22.13 23.1 21.98C22.94 21.79 22.75 21.71 22.53 21.71C22.3 21.71 22.11 21.79 21.95 21.98ZM8.85 8.86C8.68 9.02 8.61 9.22 8.61 9.44C8.61 9.66 8.68 9.85 8.85 10.01C9.01 10.17 9.2 10.25 9.42 10.25C9.64 10.25 9.84 10.17 10 10.01C10.17 9.85 10.26 9.66 10.26 9.44C10.26 9.22 10.17 9.02 10 8.86C9.84 8.7 9.64 8.62 9.42 8.62C9.2 8.62 9.01 8.7 8.85 8.86Z"
              fill="#000000" fill-opacity="0.901961" fill-rule="nonzero"/>
    </g>
</svg>
