<svg width="32.000000" height="32.000000" viewBox="0 0 32 32" fill="none" xmlns="http://www.w3.org/2000/svg"
     xmlns:xlink="http://www.w3.org/1999/xlink">
    <desc>
        Created with Pixso.
    </desc>
    <defs>
        <clipPath id="clip3_1921">
            <rect width="32.000000" height="32.000000" fill="white" fill-opacity="0"/>
        </clipPath>
    </defs>
    <g clip-path="url(#clip3_1921)">
        <path d="M25.31 9.22C24.69 8.83 23.91 8.54 22.98 8.37L22.98 7.55C23 7.25 22.9 6.99 22.7 6.78C22.48 6.57 22.23 6.46 21.95 6.46C20.78 6.42 19.6 6.77 18.4 7.53C17.58 8.02 16.71 8.8 15.78 9.88C14.88 9.14 13.67 8.63 12.14 8.33C10.92 8.12 9.84 8.12 8.91 8.35C7.99 8.58 7.23 8.87 6.65 9.22C6.44 9.35 6.26 9.53 6.14 9.77C6 10 5.94 10.24 5.94 10.5L5.94 23.51C5.94 23.75 6.01 23.96 6.15 24.14C6.28 24.31 6.46 24.42 6.67 24.47C6.89 24.51 7.11 24.49 7.34 24.4L7.46 24.35C8.03 24.09 8.64 23.87 9.29 23.68C9.96 23.48 10.6 23.41 11.22 23.46C11.99 23.52 12.7 23.72 13.34 24.04C13.98 24.36 14.62 24.72 15.26 25.14L15.4 25.24C15.56 25.35 15.74 25.41 15.95 25.41C16.15 25.41 16.36 25.35 16.58 25.24C16.75 25.12 16.92 25.02 17.1 24.93C17.69 24.56 18.28 24.24 18.87 23.97C19.47 23.69 20.1 23.52 20.78 23.46C21.38 23.41 22.02 23.48 22.7 23.68C23.36 23.87 23.96 24.09 24.5 24.33L24.66 24.4C24.88 24.49 25.1 24.51 25.32 24.47C25.54 24.42 25.71 24.31 25.85 24.14C25.99 23.96 26.06 23.75 26.06 23.51L26.06 10.5C26.06 10.24 25.99 10 25.85 9.77C25.71 9.53 25.53 9.35 25.31 9.22ZM19.17 8.8C19.6 8.52 20.01 8.32 20.4 8.2C20.79 8.07 21.16 7.99 21.5 7.96L21.5 20.34C21 20.4 20.46 20.52 19.9 20.7C19.33 20.88 18.84 21.11 18.42 21.4C18.18 21.56 17.73 21.93 17.08 22.53L16.74 22.84L16.74 11.06C17.65 9.96 18.46 9.21 19.17 8.8ZM10.89 21.95C9.88 21.95 8.73 22.2 7.46 22.7L7.46 10.5C7.94 10.23 8.54 10 9.28 9.82C10.03 9.63 10.89 9.63 11.87 9.83C12.83 9.98 13.58 10.22 14.12 10.55C14.65 10.87 15.03 11.17 15.26 11.46L15.26 23.34C14.6 22.94 13.88 22.61 13.1 22.35C12.31 22.08 11.57 21.95 10.89 21.95ZM24.54 22.7C24.44 22.66 24.37 22.63 24.33 22.6C23.96 22.47 23.58 22.36 23.2 22.28C22.81 22.18 22.38 22.13 21.9 22.11C21.42 22.08 20.91 22.1 20.37 22.17C20.73 22.07 21.02 21.99 21.24 21.95C21.46 21.9 21.63 21.86 21.76 21.83C22.08 21.81 22.42 21.69 22.66 21.46C22.89 21.22 23.01 20.95 23.01 20.63L23.01 9.88C23.34 9.96 23.64 10.06 23.91 10.18C24.17 10.3 24.38 10.4 24.54 10.5L24.54 22.7Z"
              fill="#000000" fill-opacity="0.901961" fill-rule="nonzero"/>
    </g>
</svg>
