<svg width="32.000000" height="32.000000" viewBox="0 0 32 32" fill="none" xmlns="http://www.w3.org/2000/svg"
     xmlns:xlink="http://www.w3.org/1999/xlink">
    <desc>
        Created with Pixso.
    </desc>
    <defs>
        <clipPath id="clip3_934">
            <rect width="32.000000" height="32.000000" fill="white" fill-opacity="0"/>
        </clipPath>
    </defs>
    <g clip-path="url(#clip3_934)">
        <path d="M16.48 16L16.48 7.74C16.48 7.53 16.41 7.35 16.27 7.21C16.12 7.07 15.94 7 15.74 7C15.53 7 15.35 7.07 15.21 7.21C15.07 7.35 15 7.53 15 7.74L15 16L6.73 16C6.53 16 6.35 16.07 6.21 16.2C6.07 16.35 6 16.53 6 16.74C6 16.94 6.07 17.12 6.21 17.27C6.35 17.41 6.53 17.48 6.73 17.48L15 17.48L15 25.74C15 25.94 15.07 26.12 15.21 26.27C15.35 26.41 15.53 26.48 15.74 26.48C15.94 26.48 16.12 26.41 16.27 26.27C16.41 26.12 16.48 25.94 16.48 25.74L16.48 17.48L24.74 17.48C24.94 17.48 25.12 17.41 25.27 17.27C25.41 17.12 25.48 16.94 25.48 16.74C25.48 16.53 25.41 16.35 25.27 16.2C25.12 16.07 24.94 16 24.74 16L16.48 16Z"
              fill="#000000" fill-opacity="0.600000" fill-rule="nonzero"/>
    </g>
</svg>
