<svg width="24.000000" height="24.000000" viewBox="0 0 24 24" fill="none" xmlns="http://www.w3.org/2000/svg"
     xmlns:xlink="http://www.w3.org/1999/xlink">
    <desc>
        Created with Pixso.
    </desc>
    <defs>
        <clipPath id="clip2_2612">
            <rect width="24.000000" height="24.000000" fill="white" fill-opacity="0"/>
        </clipPath>
    </defs>
    <g clip-path="url(#clip2_2612)">
        <path d="M21.19 5.21C20.57 4.81 19.8 4.53 18.87 4.35L18.87 3.54C18.89 3.24 18.8 2.99 18.6 2.77C18.38 2.57 18.13 2.46 17.85 2.46C16.69 2.42 15.51 2.77 14.32 3.52C13.51 4.01 12.64 4.79 11.72 5.85C10.83 5.13 9.62 4.62 8.1 4.32C6.89 4.11 5.82 4.11 4.9 4.34C3.98 4.57 3.23 4.86 2.65 5.21C2.43 5.33 2.26 5.51 2.13 5.75C2 5.98 1.94 6.22 1.94 6.47L1.94 19.4C1.94 19.64 2 19.85 2.14 20.03C2.28 20.2 2.45 20.31 2.67 20.36C2.88 20.4 3.1 20.38 3.33 20.29L3.45 20.24C4.02 19.99 4.63 19.76 5.27 19.57C5.93 19.38 6.57 19.31 7.18 19.35C7.95 19.42 8.65 19.61 9.29 19.93C9.93 20.25 10.56 20.61 11.2 21.02L11.34 21.12C11.5 21.24 11.68 21.29 11.89 21.29C12.09 21.29 12.3 21.24 12.51 21.12C12.68 21.01 12.86 20.91 13.03 20.81C13.62 20.45 14.21 20.13 14.8 19.86C15.39 19.59 16.02 19.42 16.69 19.35C17.29 19.31 17.93 19.38 18.6 19.57C19.26 19.76 19.85 19.98 20.38 20.22L20.54 20.29C20.77 20.38 20.99 20.4 21.2 20.36C21.42 20.31 21.59 20.2 21.73 20.03C21.87 19.85 21.94 19.64 21.94 19.4L21.94 6.47C21.94 6.22 21.87 5.98 21.73 5.75C21.59 5.51 21.41 5.33 21.19 5.21ZM15.09 4.78C15.52 4.51 15.92 4.31 16.31 4.18C16.7 4.06 17.06 3.98 17.4 3.95L17.4 16.25C16.91 16.32 16.37 16.44 15.81 16.61C15.25 16.79 14.76 17.02 14.34 17.31C14.1 17.46 13.66 17.84 13.01 18.43L12.67 18.74L12.67 7.03C13.58 5.94 14.38 5.19 15.09 4.78ZM6.86 17.85C5.85 17.85 4.72 18.1 3.45 18.6L3.45 6.47C3.92 6.21 4.53 5.98 5.27 5.79C6.01 5.61 6.86 5.61 7.83 5.8C8.78 5.96 9.53 6.2 10.07 6.52C10.6 6.84 10.97 7.14 11.2 7.43L11.2 19.23C10.54 18.84 9.83 18.51 9.05 18.25C8.27 17.99 7.54 17.85 6.86 17.85ZM20.42 18.6C20.33 18.57 20.26 18.53 20.22 18.5C19.85 18.37 19.48 18.27 19.09 18.18C18.71 18.09 18.28 18.03 17.8 18.01C17.32 17.99 16.82 18.01 16.28 18.07C16.64 17.97 16.93 17.9 17.14 17.85C17.36 17.81 17.53 17.77 17.66 17.73C17.98 17.72 18.32 17.6 18.56 17.37C18.79 17.13 18.9 16.86 18.9 16.54L18.9 5.85C19.23 5.93 19.53 6.03 19.8 6.15C20.06 6.27 20.27 6.38 20.42 6.47L20.42 18.6Z"
              fill="#000000" fill-opacity="0.901961" fill-rule="nonzero"/>
    </g>
</svg>
