<svg width="24.000000" height="24.000000" viewBox="0 0 24 24" fill="none" xmlns="http://www.w3.org/2000/svg"
     xmlns:xlink="http://www.w3.org/1999/xlink">
    <desc>
        Created with Pixso.
    </desc>
    <defs>
        <clipPath id="clip2_2617">
            <rect width="24.000000" height="24.000000" fill="white" fill-opacity="0"/>
        </clipPath>
    </defs>
    <g clip-path="url(#clip2_2617)">
        <path d="M11.44 1.08C9.63 1.08 7.96 1.52 6.43 2.42C4.89 3.31 3.67 4.52 2.78 6.06C1.88 7.58 1.44 9.25 1.44 11.06L1.44 18.44C1.44 19.05 1.59 19.6 1.89 20.11C2.19 20.61 2.6 21.02 3.1 21.31C3.61 21.61 4.17 21.76 4.78 21.76C5.38 21.76 5.94 21.61 6.44 21.31C6.96 21.02 7.36 20.61 7.65 20.11C7.94 19.6 8.09 19.05 8.09 18.44L8.09 15.62C8.09 15.01 7.94 14.46 7.65 13.95C7.36 13.44 6.96 13.04 6.44 12.73C5.94 12.43 5.38 12.28 4.78 12.28C4.08 12.28 3.44 12.48 2.86 12.89L2.86 11.06C2.86 9.51 3.25 8.08 4.03 6.77C4.8 5.46 5.84 4.42 7.15 3.64C8.46 2.87 9.89 2.49 11.44 2.49C12.98 2.49 14.41 2.87 15.72 3.64C17.03 4.42 18.07 5.46 18.84 6.77C19.62 8.08 20.01 9.51 20.01 11.06L20.01 12.89C19.43 12.48 18.79 12.28 18.09 12.28C17.49 12.28 16.93 12.43 16.43 12.73C15.91 13.04 15.51 13.44 15.2 13.95C14.9 14.46 14.75 15.01 14.75 15.62L14.75 18.44C14.75 19.05 14.9 19.6 15.2 20.11C15.51 20.61 15.91 21.02 16.43 21.31C16.93 21.61 17.49 21.76 18.09 21.76C18.7 21.76 19.26 21.61 19.77 21.31C20.27 21.02 20.68 20.61 20.98 20.11C21.28 19.6 21.44 19.05 21.44 18.44L21.44 11.06C21.44 9.25 20.98 7.58 20.08 6.06C19.18 4.52 17.96 3.31 16.44 2.42C14.91 1.52 13.24 1.08 11.44 1.08ZM4.78 13.69C5.31 13.69 5.76 13.88 6.13 14.26C6.5 14.64 6.68 15.09 6.68 15.62L6.68 18.44C6.68 18.95 6.5 19.4 6.13 19.78C5.76 20.16 5.31 20.35 4.78 20.35C4.26 20.35 3.81 20.16 3.43 19.78C3.05 19.4 2.86 18.95 2.86 18.44L2.86 15.62C2.86 15.09 3.05 14.64 3.42 14.26C3.8 13.88 4.25 13.69 4.78 13.69ZM20.01 18.44C20.01 18.95 19.82 19.4 19.44 19.78C19.06 20.16 18.61 20.35 18.09 20.35C17.56 20.35 17.11 20.16 16.73 19.79C16.35 19.42 16.16 18.97 16.16 18.44L16.16 15.62C16.16 15.09 16.35 14.64 16.73 14.26C17.11 13.88 17.56 13.69 18.09 13.69C18.61 13.69 19.06 13.88 19.44 14.26C19.82 14.64 20.01 15.09 20.01 15.62L20.01 18.44Z"
              fill="#000000" fill-opacity="0.901961" fill-rule="nonzero"/>
    </g>
</svg>
