<svg width="16.000000" height="16.000000" viewBox="0 0 16 16" fill="none" xmlns="http://www.w3.org/2000/svg"
     xmlns:xlink="http://www.w3.org/1999/xlink">
    <desc>
        Created with Pixso.
    </desc>
    <defs>
        <clipPath id="clip49_3772">
            <rect width="16.000000" height="16.000000" fill="white" fill-opacity="0"/>
        </clipPath>
    </defs>
    <g clip-path="url(#clip49_3772)">
        <path d="M1.16 6.45Q1 7.2 1 8C1 8.52 1.05 9.03 1.16 9.53C1.25 9.93 1.38 10.33 1.54 10.72C1.71 11.12 1.91 11.49 2.14 11.84C2.4 12.24 2.7 12.6 3.04 12.94C3.38 13.29 3.75 13.59 4.15 13.85L4.15 13.85Q4.68 14.19 5.27 14.44C5.66 14.61 6.05 14.74 6.45 14.83C6.96 14.94 7.47 15 8 15C8.52 15 9.03 14.94 9.52 14.83C9.93 14.74 10.33 14.61 10.72 14.44C11.11 14.28 11.49 14.08 11.84 13.85C12.23 13.59 12.6 13.29 12.94 12.94C13.29 12.6 13.59 12.23 13.85 11.84C14.08 11.49 14.28 11.11 14.44 10.72C14.61 10.33 14.74 9.93 14.83 9.52C14.94 9.03 15 8.52 15 8C15 7.47 14.94 6.96 14.83 6.45C14.74 6.05 14.61 5.66 14.44 5.27C14.28 4.87 14.08 4.5 13.85 4.15C13.59 3.75 13.29 3.38 12.94 3.04C12.6 2.7 12.24 2.4 11.84 2.14C11.49 1.91 11.12 1.71 10.72 1.54Q10.14 1.3 9.53 1.16L9.53 1.16C9.03 1.05 8.52 1 8 1Q7.2 1 6.45 1.16L6.45 1.16L6.45 1.16C6.05 1.26 5.65 1.38 5.27 1.54C4.87 1.71 4.5 1.91 4.14 2.15C3.75 2.41 3.38 2.7 3.04 3.04C2.7 3.38 2.41 3.75 2.15 4.14C1.91 4.5 1.71 4.87 1.54 5.27C1.38 5.65 1.26 6.05 1.16 6.45ZM2.04 9.35C1.94 8.91 1.89 8.46 1.89 8C1.89 7.53 1.94 7.07 2.04 6.63C2.12 6.28 2.23 5.95 2.37 5.62C2.51 5.27 2.69 4.95 2.89 4.64C3.11 4.3 3.38 3.97 3.68 3.68C3.97 3.38 4.3 3.11 4.64 2.89C4.95 2.69 5.27 2.51 5.62 2.37C5.95 2.23 6.28 2.12 6.63 2.04C7.07 1.94 7.53 1.89 8 1.89C8.46 1.89 8.91 1.94 9.35 2.04C9.7 2.12 10.04 2.23 10.37 2.37C10.71 2.51 11.04 2.69 11.34 2.89C11.69 3.11 12.01 3.38 12.31 3.68C12.61 3.98 12.88 4.3 13.1 4.65C13.3 4.95 13.48 5.28 13.62 5.62C13.76 5.95 13.87 6.29 13.95 6.63C14.05 7.08 14.1 7.53 14.1 8C14.1 8.46 14.05 8.91 13.95 9.35C13.87 9.7 13.76 10.04 13.62 10.37C13.48 10.71 13.31 11.04 13.11 11.34C12.88 11.69 12.61 12.01 12.31 12.31C12.01 12.61 11.69 12.88 11.34 13.11C11.04 13.31 10.71 13.48 10.37 13.62C10.04 13.76 9.7 13.87 9.35 13.95C8.91 14.05 8.46 14.1 8 14.1C7.53 14.1 7.08 14.05 6.63 13.95C6.29 13.87 5.95 13.76 5.62 13.62C5.28 13.48 4.95 13.3 4.65 13.1C4.3 12.88 3.98 12.61 3.68 12.31C3.38 12.01 3.11 11.69 2.89 11.34C2.69 11.04 2.51 10.71 2.37 10.37C2.23 10.04 2.12 9.7 2.04 9.35ZM8 4.42C7.67 4.42 7.4 4.69 7.4 5.02C7.4 5.35 7.67 5.61 8 5.61C8.32 5.61 8.59 5.35 8.59 5.02C8.59 4.69 8.32 4.42 8 4.42ZM7.4 6.47L7.99 6.47C8.12 6.47 8.22 6.52 8.31 6.6C8.4 6.69 8.44 6.8 8.44 6.92L8.44 11.12L8.83 11.12C8.95 11.12 9.06 11.17 9.14 11.25C9.23 11.34 9.28 11.45 9.28 11.57C9.28 11.69 9.23 11.8 9.14 11.89C9.06 11.97 8.95 12.02 8.83 12.02L7.16 12.02C6.91 12.02 6.71 11.82 6.71 11.57C6.71 11.32 6.91 11.12 7.16 11.12L7.55 11.12L7.55 7.37L7.4 7.37C7.15 7.37 6.95 7.17 6.95 6.92C6.95 6.67 7.15 6.47 7.4 6.47Z"
              fill="#191919" fill-opacity="1.000000" fill-rule="evenodd"/>
    </g>
</svg>
