<svg width="24.000000" height="24.000000" viewBox="0 0 24 24" fill="none" xmlns="http://www.w3.org/2000/svg"
     xmlns:xlink="http://www.w3.org/1999/xlink">
    <desc>
        Created with Pixso.
    </desc>
    <defs>
        <clipPath id="clip46_3710">
            <rect width="24.000000" height="24.000000" fill="white" fill-opacity="0"/>
        </clipPath>
    </defs>
    <g clip-path="url(#clip46_3710)">
        <path d="M1 4.26L6.41 4.26L7.25 2.03C7.31 1.88 7.38 1.73 7.46 1.59C7.52 1.49 7.59 1.39 7.66 1.3C7.75 1.19 7.84 1.09 7.94 0.99C8.04 0.9 8.14 0.81 8.26 0.73C8.37 0.65 8.49 0.58 8.62 0.52C8.74 0.46 8.87 0.41 9 0.37C9.12 0.33 9.24 0.3 9.37 0.28C9.52 0.26 9.67 0.25 9.82 0.25L14.05 0.25C14.21 0.25 14.36 0.26 14.51 0.28C14.63 0.3 14.76 0.33 14.88 0.37Q15.08 0.44 15.27 0.53C15.39 0.59 15.5 0.66 15.62 0.73C15.73 0.82 15.84 0.9 15.94 1C16.04 1.09 16.13 1.19 16.21 1.3C16.29 1.4 16.36 1.51 16.43 1.62C16.5 1.75 16.57 1.89 16.62 2.04L17.46 4.26L23 4.26C23.42 4.26 23.75 4.59 23.75 5.01C23.75 5.43 23.42 5.76 23 5.76L16.93 5.76C16.78 5.76 16.64 5.72 16.51 5.63C16.38 5.54 16.29 5.42 16.23 5.27L15.22 2.55C15.17 2.43 15.11 2.32 15.03 2.22C14.95 2.12 14.87 2.04 14.76 1.97Q14.61 1.86 14.44 1.81C14.32 1.77 14.19 1.75 14.05 1.75L9.82 1.75C9.69 1.75 9.56 1.76 9.44 1.8C9.32 1.84 9.22 1.9 9.11 1.97C9.01 2.04 8.92 2.12 8.84 2.22C8.76 2.32 8.7 2.43 8.65 2.56L7.64 5.27C7.58 5.42 7.49 5.54 7.36 5.63C7.23 5.72 7.09 5.76 6.93 5.76L1 5.76C0.57 5.76 0.25 5.43 0.25 5.01C0.25 4.59 0.57 4.26 1 4.26ZM21.57 7.25L20.47 20.31C20.45 20.57 20.4 20.82 20.33 21.06C20.27 21.27 20.19 21.47 20.09 21.66C20 21.86 19.88 22.05 19.75 22.22C19.61 22.41 19.45 22.59 19.27 22.76C19.1 22.92 18.91 23.06 18.71 23.19C18.52 23.3 18.32 23.4 18.12 23.48C17.91 23.56 17.71 23.62 17.49 23.67C17.25 23.72 16.99 23.74 16.74 23.74L7.25 23.74C6.99 23.74 6.74 23.72 6.49 23.67C6.28 23.62 6.07 23.56 5.87 23.48C5.66 23.4 5.47 23.3 5.28 23.19C5.08 23.06 4.89 22.92 4.71 22.76C4.53 22.59 4.37 22.41 4.23 22.22C4.1 22.05 3.99 21.86 3.89 21.66C3.79 21.47 3.71 21.27 3.65 21.06C3.58 20.82 3.53 20.57 3.51 20.31L2.42 7.25L3.92 7.25L5.01 20.18C5.02 20.35 5.05 20.5 5.1 20.65C5.13 20.77 5.18 20.89 5.23 21C5.29 21.11 5.36 21.22 5.43 21.32L5.43 21.33L5.43 21.33Q5.56 21.5 5.73 21.65C5.84 21.75 5.95 21.84 6.08 21.92C6.19 21.98 6.3 22.04 6.42 22.09C6.54 22.13 6.65 22.17 6.77 22.19C6.93 22.23 7.09 22.24 7.25 22.24L16.74 22.24C16.9 22.24 17.06 22.23 17.21 22.19C17.33 22.17 17.45 22.13 17.57 22.09C17.68 22.04 17.8 21.98 17.91 21.92Q17.91 21.91 17.91 21.91L17.91 21.91Q18.1 21.8 18.26 21.65C18.37 21.55 18.47 21.44 18.55 21.32C18.63 21.22 18.69 21.11 18.75 21C18.81 20.89 18.85 20.77 18.89 20.66C18.93 20.5 18.96 20.34 18.98 20.18L20.07 7.25L21.57 7.25ZM10.25 10.75L10.25 19.54C10.25 19.96 9.92 20.29 9.5 20.29C9.07 20.29 8.75 19.96 8.75 19.54L8.75 10.75C8.75 10.33 9.07 10 9.5 10C9.92 10 10.25 10.33 10.25 10.75ZM15.25 10.75C15.25 10.33 14.92 10 14.5 10C14.08 10 13.75 10.33 13.75 10.75L13.75 19.54C13.75 19.96 14.08 20.29 14.5 20.29C14.92 20.29 15.25 19.96 15.25 19.54L15.25 10.75Z"
              fill="#191919" fill-opacity="1.000000" fill-rule="evenodd"/>
    </g>
</svg>
