<svg width="24.000000" height="24.000000" viewBox="0 0 24 24" fill="none" xmlns="http://www.w3.org/2000/svg"
     xmlns:xlink="http://www.w3.org/1999/xlink">
    <desc>
        Created with Pixso.
    </desc>
    <defs/>
    <g opacity="0.600000">
        <path d="M11.87 2C14.88 2 17.32 4.44 17.32 7.45C17.32 10.39 15 12.78 12.09 12.9L11.87 12.9C11 12.9 10.16 13.04 9.38 13.28L9.14 13.36C8.98 13.42 8.81 13.48 8.65 13.55C8.61 13.57 8.57 13.58 8.53 13.6L8.65 13.55C8.58 13.58 8.6 13.57 8.53 13.6C8.45 13.63 8.38 13.67 8.3 13.7L8.53 13.6C8.44 13.64 8.26 13.72 8.17 13.77L8.3 13.7C8.23 13.74 8.24 13.73 8.17 13.77C8.08 13.81 7.99 13.86 7.9 13.91L8.17 13.77C8.1 13.8 7.97 13.87 7.9 13.91C7.76 13.98 7.62 14.07 7.48 14.15C7.43 14.18 7.38 14.22 7.33 14.25C7.21 14.33 7.09 14.41 6.98 14.49C6.9 14.55 6.83 14.6 6.76 14.66L6.98 14.49C6.91 14.54 6.82 14.61 6.76 14.66C6.69 14.71 6.63 14.76 6.57 14.81L6.76 14.66C6.68 14.72 6.64 14.75 6.57 14.81C6.5 14.87 6.44 14.92 6.37 14.98L6.57 14.81C6.5 14.87 6.43 14.92 6.37 14.98C6.3 15.04 6.24 15.1 6.17 15.16L6.37 14.98C6.32 15.03 6.23 15.11 6.17 15.16C6.03 15.29 5.9 15.43 5.77 15.57C5.66 15.68 5.56 15.8 5.46 15.91C5.42 15.97 5.37 16.03 5.33 16.08L5.46 15.91C5.42 15.97 5.37 16.02 5.33 16.08C5.27 16.15 5.22 16.22 5.17 16.29L5.33 16.08C5.27 16.16 5.15 16.32 5.09 16.4L5.17 16.29C5.12 16.36 5.07 16.43 5.01 16.51L5.09 16.4C5.04 16.47 5.06 16.44 5.01 16.51C4.97 16.58 4.92 16.65 4.87 16.73L5.01 16.51C4.96 16.58 4.85 16.76 4.8 16.84L4.87 16.73C4.83 16.79 4.84 16.77 4.8 16.84C4.64 17.09 4.5 17.35 4.37 17.62C4.35 17.66 4.33 17.69 4.32 17.73L4.37 17.62C4.33 17.7 4.3 17.78 4.26 17.86L4.32 17.73C4.29 17.8 4.29 17.79 4.26 17.86C4.22 17.95 4.18 18.04 4.15 18.13L4.26 17.86C4.23 17.94 4.18 18.04 4.15 18.13C4.12 18.2 4.09 18.28 4.06 18.35L4.15 18.13C4.11 18.22 4.05 18.37 4.02 18.47L4.06 18.35C4.04 18.4 4.04 18.42 4.02 18.47C3.89 18.82 3.79 19.19 3.72 19.56C3.71 19.62 3.7 19.67 3.69 19.73L3.72 19.56C3.7 19.65 3.7 19.64 3.69 19.73C3.67 19.82 3.65 19.91 3.64 20L3.69 19.73C3.67 19.83 3.64 20.03 3.62 20.13L3.64 20C3.63 20.08 3.62 20.17 3.61 20.25L3.62 20.13C3.61 20.21 3.6 20.3 3.6 20.38L3.61 20.25C3.6 20.35 3.59 20.46 3.58 20.56L3.6 20.38C3.58 20.56 3.56 20.75 3.56 20.94C3.56 21.03 3.55 21.12 3.55 21.21L3.56 20.94C3.56 21.03 3.55 21.12 3.55 21.21C3.55 21.64 3.2 22 2.77 22C2.34 22 2 21.65 2 21.22C2 21.01 2 20.81 2.01 20.6C2.02 20.55 2.02 20.5 2.02 20.44C2.03 20.4 2.03 20.36 2.04 20.31C2.04 20.27 2.04 20.22 2.05 20.17C2.06 20.11 2.06 20.06 2.07 20C2.07 19.97 2.08 19.93 2.08 19.89C2.12 19.6 2.17 19.31 2.24 19.03C2.27 18.9 2.31 18.74 2.34 18.61C2.36 18.54 2.38 18.48 2.4 18.41C2.42 18.35 2.46 18.22 2.48 18.15C2.49 18.11 2.51 18.07 2.52 18.04C2.53 17.99 2.55 17.94 2.57 17.89C2.58 17.85 2.6 17.81 2.61 17.77C2.68 17.59 2.75 17.42 2.82 17.25C2.92 17.03 3.03 16.81 3.14 16.6C3.16 16.55 3.19 16.5 3.22 16.45C3.24 16.41 3.31 16.29 3.34 16.24C3.36 16.2 3.39 16.15 3.42 16.1C3.47 16.03 3.58 15.86 3.63 15.78C3.71 15.66 3.79 15.54 3.87 15.42C3.97 15.3 4.13 15.08 4.23 14.96C4.27 14.91 4.38 14.78 4.42 14.74C4.47 14.68 4.6 14.54 4.65 14.48C4.84 14.27 5.06 14.06 5.27 13.87C5.32 13.82 5.38 13.78 5.43 13.73C5.48 13.69 5.59 13.6 5.64 13.55C5.67 13.53 5.78 13.45 5.81 13.42C5.87 13.38 5.93 13.33 5.99 13.28C6.04 13.24 6.14 13.17 6.19 13.14C6.27 13.08 6.43 12.97 6.51 12.92C6.55 12.89 6.6 12.87 6.64 12.84C6.68 12.82 6.72 12.79 6.76 12.77C6.82 12.73 6.95 12.65 7.02 12.62C7.09 12.58 7.2 12.52 7.27 12.48C7.31 12.46 7.45 12.39 7.5 12.36C7.85 12.19 8.3 12 8.67 11.87C7.3 10.88 6.41 9.27 6.41 7.45C6.41 4.44 8.85 2 11.87 2ZM16.15 12.33C19.46 13.92 21.74 17.3 21.74 21.22C21.74 21.65 21.39 22 20.96 22C20.53 22 20.18 21.65 20.18 21.22C20.18 17.57 17.83 14.48 14.57 13.35C15.15 13.09 15.68 12.74 16.15 12.33ZM11.87 3.55C9.71 3.55 7.97 5.3 7.97 7.45C7.97 9.6 9.71 11.35 11.87 11.35C14.02 11.35 15.76 9.6 15.76 7.45C15.76 5.3 14.02 3.55 11.87 3.55Z"
              fill="#000000" fill-opacity="1.000000" fill-rule="nonzero"/>
        <path d="M3.69 19.73C3.67 19.83 3.64 20.03 3.62 20.13C3.61 20.21 3.6 20.3 3.6 20.38C3.58 20.56 3.56 20.75 3.56 20.94C3.56 21.03 3.55 21.12 3.55 21.21C3.55 21.64 3.2 22 2.77 22C2.34 22 2 21.65 2 21.22C2 21.01 2 20.81 2.01 20.6C2.02 20.55 2.02 20.5 2.02 20.44C2.03 20.4 2.03 20.36 2.04 20.31C2.04 20.27 2.04 20.22 2.05 20.17C2.06 20.11 2.06 20.06 2.07 20C2.07 19.97 2.08 19.93 2.08 19.89C2.12 19.6 2.17 19.31 2.24 19.03C2.27 18.9 2.31 18.74 2.34 18.61C2.36 18.54 2.38 18.48 2.4 18.41C2.42 18.35 2.46 18.22 2.48 18.15C2.49 18.11 2.51 18.07 2.52 18.04C2.53 17.99 2.55 17.94 2.57 17.89C2.58 17.85 2.6 17.81 2.61 17.77C2.68 17.59 2.75 17.42 2.82 17.25C2.92 17.03 3.03 16.81 3.14 16.6C3.16 16.55 3.19 16.5 3.22 16.45C3.24 16.41 3.31 16.29 3.34 16.24C3.36 16.2 3.39 16.15 3.42 16.1C3.47 16.03 3.58 15.86 3.63 15.78C3.71 15.66 3.79 15.54 3.87 15.42C3.97 15.3 4.13 15.08 4.23 14.96C4.27 14.91 4.38 14.78 4.42 14.74C4.47 14.68 4.6 14.54 4.65 14.48C4.84 14.27 5.06 14.06 5.27 13.87C5.32 13.82 5.38 13.78 5.43 13.73C5.48 13.69 5.59 13.6 5.64 13.55C5.67 13.53 5.78 13.45 5.81 13.42C5.87 13.38 5.93 13.33 5.99 13.28C6.04 13.24 6.14 13.17 6.19 13.14C6.27 13.08 6.43 12.97 6.51 12.92C6.55 12.89 6.6 12.87 6.64 12.84C6.68 12.82 6.72 12.79 6.76 12.77C6.82 12.73 6.95 12.65 7.02 12.62C7.09 12.58 7.2 12.52 7.27 12.48C7.31 12.46 7.45 12.39 7.5 12.36C7.85 12.19 8.3 12 8.67 11.87C7.3 10.88 6.41 9.27 6.41 7.45C6.41 4.44 8.85 2 11.87 2C14.88 2 17.32 4.44 17.32 7.45C17.32 10.39 15 12.78 12.09 12.9L11.87 12.9C11 12.9 10.16 13.04 9.38 13.28L9.14 13.36C8.98 13.42 8.81 13.48 8.65 13.55C8.58 13.58 8.6 13.57 8.53 13.6C8.44 13.64 8.26 13.72 8.17 13.77M8.65 13.55C8.61 13.57 8.57 13.58 8.53 13.6M8.53 13.6L8.65 13.55M8.53 13.6C8.45 13.63 8.38 13.67 8.3 13.7C8.23 13.74 8.24 13.73 8.17 13.77C8.1 13.8 7.97 13.87 7.9 13.91M8.3 13.7L8.53 13.6M8.17 13.77L8.3 13.7M8.17 13.77C8.08 13.81 7.99 13.86 7.9 13.91C7.76 13.98 7.62 14.07 7.48 14.15C7.43 14.18 7.38 14.22 7.33 14.25C7.21 14.33 7.09 14.41 6.98 14.49C6.9 14.55 6.83 14.6 6.76 14.66M7.9 13.91L8.17 13.77M6.76 14.66L6.98 14.49M6.98 14.49C6.91 14.54 6.82 14.61 6.76 14.66C6.68 14.72 6.64 14.75 6.57 14.81M6.76 14.66C6.69 14.71 6.63 14.76 6.57 14.81C6.5 14.87 6.44 14.92 6.37 14.98M6.57 14.81L6.76 14.66M6.37 14.98L6.57 14.81M6.57 14.81C6.5 14.87 6.43 14.92 6.37 14.98C6.32 15.03 6.23 15.11 6.17 15.16M6.37 14.98C6.3 15.04 6.24 15.1 6.17 15.16C6.03 15.29 5.9 15.43 5.77 15.57C5.66 15.68 5.56 15.8 5.46 15.91C5.42 15.97 5.37 16.03 5.33 16.08C5.27 16.15 5.22 16.22 5.17 16.29C5.12 16.36 5.07 16.43 5.01 16.51C4.97 16.58 4.92 16.65 4.87 16.73C4.83 16.79 4.84 16.77 4.8 16.84M6.17 15.16L6.37 14.98M5.33 16.08L5.46 15.91M5.46 15.91C5.42 15.97 5.37 16.02 5.33 16.08M5.17 16.29L5.33 16.08M5.33 16.08C5.27 16.16 5.15 16.32 5.09 16.4C5.04 16.47 5.06 16.44 5.01 16.51M5.09 16.4L5.17 16.29M5.01 16.51L5.09 16.4M4.87 16.73L5.01 16.51M5.01 16.51C4.96 16.58 4.85 16.76 4.8 16.84C4.64 17.09 4.5 17.35 4.37 17.62C4.33 17.7 4.3 17.78 4.26 17.86M4.8 16.84L4.87 16.73M4.37 17.62C4.35 17.66 4.33 17.69 4.32 17.73C4.29 17.8 4.29 17.79 4.26 17.86C4.23 17.94 4.18 18.04 4.15 18.13C4.11 18.22 4.05 18.37 4.02 18.47C3.89 18.82 3.79 19.19 3.72 19.56C3.7 19.65 3.7 19.64 3.69 19.73M4.32 17.73L4.37 17.62M4.26 17.86L4.32 17.73M4.26 17.86C4.22 17.95 4.18 18.04 4.15 18.13M4.15 18.13L4.26 17.86M4.15 18.13C4.12 18.2 4.09 18.28 4.06 18.35C4.04 18.4 4.04 18.42 4.02 18.47M4.06 18.35L4.15 18.13M4.02 18.47L4.06 18.35M3.72 19.56C3.71 19.62 3.7 19.67 3.69 19.73C3.67 19.82 3.65 19.91 3.64 20C3.63 20.08 3.62 20.17 3.61 20.25C3.6 20.35 3.59 20.46 3.58 20.56L3.6 20.38M3.69 19.73L3.72 19.56M3.64 20L3.69 19.73M3.62 20.13L3.64 20M3.61 20.25L3.62 20.13M3.6 20.38L3.61 20.25M3.56 20.94C3.56 21.03 3.55 21.12 3.55 21.21M3.55 21.21L3.56 20.94M21.74 21.22C21.74 21.65 21.39 22 20.96 22C20.53 22 20.18 21.65 20.18 21.22C20.18 17.57 17.83 14.48 14.57 13.35C15.15 13.09 15.68 12.74 16.15 12.33C19.46 13.92 21.74 17.3 21.74 21.22ZM7.97 7.45C7.97 9.6 9.71 11.35 11.87 11.35C14.02 11.35 15.76 9.6 15.76 7.45C15.76 5.3 14.02 3.55 11.87 3.55C9.71 3.55 7.97 5.3 7.97 7.45Z"
              stroke="#000000" stroke-opacity="0" stroke-width="1.000000"/>
    </g>
</svg>
