<svg width="24.000000" height="24.000000" viewBox="0 0 24 24" fill="none" xmlns="http://www.w3.org/2000/svg"
     xmlns:xlink="http://www.w3.org/1999/xlink">
    <desc>
        Created with Pixso.
    </desc>
    <defs/>
    <path d="M3.51 17.77C4.16 16.45 5.85 12.5 12.45 12.5C19.05 12.5 20.77 16.45 21.39 17.77C21.63 18.27 21.79 18.95 21.88 19.79C21.99 20.89 21.19 21.87 20.1 21.98C20.03 21.99 19.96 22 19.89 22L5 22C3.89 22 3 21.1 3 20C3 19.93 3 19.86 3.01 19.79C3.09 18.95 3.26 18.28 3.51 17.77ZM12.45 2C9.83 2 7.7 4.12 7.7 6.75C7.7 9.37 9.83 11.5 12.45 11.5C15.07 11.5 17.2 9.37 17.2 6.75C17.2 4.12 15.07 2 12.45 2Z"
          fill="#E84026" fill-opacity="1.000000" fill-rule="nonzero"/>
    <path d="M12.45 12.5C19.05 12.5 20.77 16.45 21.39 17.77C21.63 18.27 21.79 18.95 21.88 19.79C21.99 20.89 21.19 21.87 20.1 21.98C20.03 21.99 19.96 22 19.89 22L5 22C3.89 22 3 21.1 3 20C3 19.93 3 19.86 3.01 19.79C3.09 18.95 3.26 18.28 3.51 17.77C4.16 16.45 5.85 12.5 12.45 12.5ZM7.7 6.75C7.7 9.37 9.83 11.5 12.45 11.5C15.07 11.5 17.2 9.37 17.2 6.75C17.2 4.12 15.07 2 12.45 2C9.83 2 7.7 4.12 7.7 6.75Z"
          stroke="#000000" stroke-opacity="0" stroke-width="1.000000"/>
</svg>
