<svg width="16.000000" height="16.000000" viewBox="0 0 16 16" fill="none" xmlns="http://www.w3.org/2000/svg" xmlns:xlink="http://www.w3.org/1999/xlink">
	<desc>
			Created with Pixso.
	</desc>
	<defs>
		<clipPath id="clip36_3635">
			<rect width="16.000000" height="16.000000" fill="white" fill-opacity="0"/>
		</clipPath>
	</defs>
	<g clip-path="url(#clip36_3635)">
		<path d="M14.1 7L14.1 3.41Q14.1 3.23 14.06 3.07C14.04 2.98 14.01 2.9 13.98 2.82C13.94 2.74 13.9 2.66 13.85 2.58C13.79 2.5 13.73 2.41 13.65 2.34C13.58 2.26 13.49 2.2 13.41 2.14C13.33 2.09 13.25 2.05 13.17 2.01Q13.05 1.96 12.93 1.93Q12.92 1.93 12.92 1.93C12.81 1.91 12.7 1.89 12.58 1.89L3.41 1.89C3.29 1.89 3.18 1.91 3.07 1.93Q3.07 1.93 3.06 1.93Q2.94 1.96 2.82 2.01C2.74 2.05 2.66 2.09 2.58 2.14C2.5 2.2 2.41 2.26 2.34 2.34C2.26 2.41 2.2 2.5 2.14 2.58Q2.14 2.59 2.14 2.59Q2.07 2.7 2.01 2.82C1.98 2.9 1.95 2.98 1.93 3.07C1.91 3.18 1.9 3.29 1.9 3.41L1.9 8.89L5.97 8.89Q6.07 8.89 6.16 8.93Q6.25 8.97 6.32 9.04C6.42 9.14 6.47 9.26 6.47 9.39C6.47 9.51 6.48 9.63 6.51 9.74C6.53 9.82 6.56 9.9 6.59 9.98C6.63 10.07 6.67 10.15 6.72 10.22C6.77 10.31 6.84 10.39 6.92 10.47C6.99 10.54 7.07 10.61 7.16 10.67C7.23 10.72 7.31 10.76 7.4 10.79C7.48 10.83 7.56 10.85 7.64 10.87C7.75 10.9 7.87 10.91 7.99 10.91C8.1 10.91 8.22 10.9 8.33 10.87C8.41 10.85 8.5 10.83 8.58 10.79C8.66 10.76 8.74 10.72 8.81 10.67C8.9 10.61 8.98 10.54 9.06 10.47C9.13 10.39 9.2 10.31 9.26 10.22C9.31 10.15 9.35 10.07 9.38 9.98C9.42 9.9 9.44 9.82 9.46 9.74C9.49 9.63 9.5 9.51 9.5 9.39C9.5 9.26 9.55 9.14 9.65 9.04C9.75 8.94 9.86 8.89 10 8.89L13.25 8.89C13.39 8.89 13.52 8.91 13.65 8.94C13.76 8.96 13.86 9 13.97 9.04C14.07 9.08 14.17 9.14 14.27 9.2Q14.42 9.3 14.55 9.44C14.64 9.52 14.72 9.62 14.79 9.72C14.85 9.82 14.91 9.92 14.95 10.02C14.99 10.13 15.03 10.23 15.05 10.34C15.08 10.47 15.1 10.6 15.1 10.74L15.1 12.58C15.1 12.76 15.08 12.95 15.04 13.12C15 13.27 14.96 13.42 14.9 13.56C14.84 13.7 14.76 13.84 14.68 13.96C14.59 14.11 14.48 14.24 14.36 14.36C14.24 14.48 14.11 14.59 13.96 14.68C13.84 14.76 13.7 14.84 13.56 14.9Q13.35 14.99 13.12 15.04L13.12 15.04C12.95 15.08 12.76 15.1 12.58 15.1L3.41 15.1C3.23 15.1 3.05 15.08 2.87 15.04C2.72 15 2.57 14.96 2.43 14.9C2.29 14.84 2.15 14.76 2.03 14.68C1.88 14.59 1.75 14.48 1.63 14.36C1.51 14.24 1.4 14.11 1.31 13.96C1.23 13.84 1.15 13.7 1.09 13.56C1.03 13.42 0.99 13.27 0.95 13.12C0.91 12.95 0.9 12.76 0.9 12.58L0.9 3.41C0.9 3.23 0.91 3.04 0.95 2.87C0.99 2.72 1.03 2.57 1.09 2.43C1.15 2.29 1.23 2.15 1.31 2.03C1.4 1.88 1.51 1.75 1.63 1.63C1.75 1.51 1.88 1.4 2.03 1.31C2.15 1.23 2.29 1.15 2.43 1.09C2.57 1.03 2.72 0.99 2.87 0.95C3.05 0.91 3.23 0.89 3.41 0.89L12.58 0.89C12.76 0.89 12.95 0.91 13.12 0.95L13.12 0.95Q13.35 1 13.56 1.09C13.7 1.15 13.84 1.23 13.96 1.31C14.11 1.4 14.24 1.51 14.36 1.63C14.48 1.75 14.59 1.88 14.68 2.03C14.76 2.15 14.84 2.29 14.9 2.43C14.96 2.57 15 2.72 15.04 2.87C15.08 3.04 15.1 3.23 15.1 3.41L15.1 7C15.1 7.28 14.88 7.5 14.6 7.5C14.32 7.5 14.1 7.28 14.1 7ZM2.83 3.89C2.83 3.61 3.05 3.39 3.33 3.39L10 3.39C10.28 3.39 10.5 3.61 10.5 3.89C10.5 4.17 10.28 4.39 10 4.39L3.33 4.39C3.05 4.39 2.83 4.17 2.83 3.89ZM7.33 6.33L3.33 6.33C3.05 6.33 2.83 6.55 2.83 6.83C2.83 7.11 3.05 7.33 3.33 7.33L7.33 7.33C7.61 7.33 7.83 7.11 7.83 6.83C7.83 6.55 7.61 6.33 7.33 6.33ZM1.9 12.58L1.9 9.89L5.53 9.94C5.56 10.09 5.61 10.23 5.67 10.37C5.73 10.52 5.8 10.65 5.89 10.78C5.98 10.92 6.09 11.05 6.21 11.17Q6.39 11.36 6.6 11.5L6.6 11.5C6.73 11.58 6.86 11.65 7.01 11.71C7.15 11.77 7.3 11.82 7.44 11.85L7.45 11.85Q7.71 11.91 7.99 11.91C8.17 11.91 8.35 11.89 8.53 11.85C8.68 11.82 8.82 11.77 8.97 11.71C9.11 11.65 9.24 11.58 9.37 11.5C9.51 11.4 9.64 11.3 9.77 11.17C9.89 11.05 10 10.92 10.09 10.78C10.17 10.65 10.24 10.52 10.31 10.37C10.37 10.23 10.42 10.04 10.45 9.89L13.25 9.89C13.37 9.89 13.48 9.92 13.58 9.96C13.67 10 13.77 10.06 13.85 10.14C13.93 10.22 13.99 10.32 14.03 10.42C14.07 10.51 14.1 10.62 14.1 10.74L14.1 12.58Q14.1 12.75 14.06 12.92L14.06 12.92C14.04 13.01 14.01 13.09 13.98 13.17C13.94 13.25 13.9 13.33 13.85 13.41C13.79 13.49 13.73 13.58 13.65 13.65C13.58 13.73 13.49 13.79 13.41 13.85C13.33 13.9 13.25 13.94 13.17 13.98C13.09 14.01 13.01 14.04 12.92 14.06C12.81 14.08 12.7 14.1 12.58 14.1L3.41 14.1C3.29 14.1 3.18 14.08 3.07 14.06C2.98 14.04 2.9 14.01 2.82 13.98C2.74 13.94 2.66 13.9 2.58 13.85C2.5 13.79 2.41 13.73 2.34 13.65C2.26 13.58 2.2 13.49 2.14 13.41Q2.14 13.4 2.14 13.4Q2.07 13.29 2.01 13.17C1.98 13.09 1.95 13.01 1.93 12.92C1.91 12.81 1.9 12.7 1.9 12.58Z" fill="#FFFFFF" fill-opacity="1.000000" fill-rule="evenodd"/>
	</g>
</svg>
