<svg width="24.000000" height="24.000000" viewBox="0 0 24 24" fill="none" xmlns="http://www.w3.org/2000/svg" xmlns:xlink="http://www.w3.org/1999/xlink">
	<desc>
			Created with Pixso.
	</desc>
	<defs>
		<clipPath id="clip36_3414">
			<rect width="24.000000" height="24.000000" fill="white" fill-opacity="0"/>
		</clipPath>
	</defs>
	<g clip-path="url(#clip36_3414)">
		<path d="M6 5.35L3.78 5.35C3.51 5.35 3.25 5.38 2.99 5.44C2.78 5.48 2.57 5.55 2.36 5.64C2.16 5.73 1.96 5.83 1.78 5.95C1.57 6.09 1.38 6.24 1.21 6.42C1.03 6.59 0.88 6.78 0.74 6.98C0.62 7.17 0.52 7.36 0.43 7.57C0.34 7.78 0.28 7.99 0.23 8.2C0.17 8.46 0.15 8.72 0.15 8.98L0.15 18.32C0.15 18.58 0.17 18.84 0.23 19.1C0.28 19.31 0.34 19.52 0.43 19.73C0.52 19.93 0.62 20.13 0.74 20.31C0.88 20.52 1.03 20.71 1.21 20.88C1.38 21.06 1.57 21.21 1.78 21.35C1.96 21.47 2.16 21.57 2.36 21.66C2.57 21.75 2.78 21.81 2.99 21.86C3.25 21.92 3.51 21.95 3.78 21.95L20.21 21.95C20.48 21.95 20.74 21.92 21 21.86C21.21 21.81 21.42 21.75 21.63 21.66C21.83 21.57 22.03 21.47 22.21 21.35C22.42 21.21 22.61 21.06 22.78 20.88C22.96 20.71 23.11 20.52 23.25 20.31C23.37 20.13 23.47 19.93 23.56 19.73C23.65 19.52 23.71 19.31 23.76 19.1C23.82 18.84 23.85 18.58 23.85 18.32L23.85 8.98C23.85 8.72 23.82 8.46 23.76 8.2C23.71 7.99 23.65 7.78 23.56 7.57C23.47 7.36 23.37 7.17 23.25 6.98C23.11 6.78 22.96 6.59 22.78 6.42C22.61 6.24 22.42 6.09 22.21 5.95Q21.94 5.77 21.63 5.64C21.42 5.55 21.21 5.48 21 5.44C20.74 5.38 20.48 5.35 20.21 5.35L17.99 5.35L17.46 3.53C17.42 3.4 17.38 3.29 17.32 3.18C17.27 3.08 17.22 2.98 17.15 2.88C17.09 2.79 17.01 2.7 16.94 2.62C16.85 2.54 16.76 2.46 16.67 2.38C16.57 2.31 16.47 2.25 16.37 2.19C16.27 2.14 16.16 2.1 16.05 2.06C15.95 2.02 15.84 2 15.73 1.98C15.6 1.96 15.48 1.95 15.35 1.95L8.64 1.95C8.51 1.95 8.39 1.96 8.26 1.98C8.15 2 8.04 2.02 7.94 2.06C7.83 2.1 7.72 2.14 7.62 2.19C7.52 2.25 7.42 2.31 7.32 2.38C7.23 2.46 7.14 2.54 7.05 2.62C6.98 2.7 6.9 2.79 6.84 2.88C6.77 2.98 6.72 3.08 6.67 3.18C6.61 3.29 6.57 3.4 6.53 3.53L6 5.35ZM7.02 6.7C7.15 6.6 7.24 6.47 7.29 6.31L7.97 3.94C8 3.87 8.03 3.8 8.07 3.74C8.11 3.68 8.16 3.63 8.22 3.58C8.28 3.54 8.35 3.5 8.42 3.48C8.49 3.46 8.56 3.45 8.64 3.45L15.35 3.45C15.43 3.45 15.5 3.46 15.57 3.48C15.64 3.5 15.71 3.54 15.77 3.58C15.83 3.63 15.88 3.68 15.92 3.74C15.96 3.8 15.99 3.87 16.02 3.94L16.7 6.31C16.75 6.47 16.84 6.6 16.97 6.7C17.1 6.8 17.25 6.85 17.42 6.85L20.21 6.85C20.38 6.85 20.54 6.87 20.7 6.91C20.82 6.93 20.93 6.97 21.04 7.02C21.16 7.07 21.27 7.13 21.38 7.2C21.5 7.28 21.61 7.37 21.72 7.48C21.83 7.58 21.92 7.7 22 7.82C22.07 7.93 22.13 8.04 22.18 8.15C22.23 8.27 22.26 8.38 22.29 8.5C22.33 8.66 22.35 8.82 22.35 8.98L22.35 18.32C22.35 18.48 22.33 18.64 22.29 18.8C22.26 18.92 22.23 19.03 22.18 19.14C22.13 19.26 22.07 19.37 22 19.48L22 19.48L22 19.48Q21.88 19.66 21.72 19.82C21.61 19.93 21.5 20.02 21.38 20.1C21.27 20.17 21.16 20.23 21.04 20.28C20.93 20.33 20.82 20.36 20.7 20.39Q20.46 20.45 20.21 20.45L3.78 20.45C3.61 20.45 3.45 20.43 3.29 20.39C3.17 20.36 3.06 20.33 2.95 20.28C2.83 20.23 2.72 20.17 2.61 20.1C2.49 20.02 2.38 19.93 2.27 19.82C2.16 19.71 2.07 19.6 1.99 19.48Q1.99 19.47 1.99 19.47Q1.89 19.32 1.81 19.14C1.76 19.03 1.73 18.92 1.7 18.8C1.66 18.64 1.65 18.48 1.65 18.32L1.65 8.98C1.65 8.82 1.66 8.66 1.7 8.5C1.73 8.38 1.76 8.27 1.81 8.15C1.86 8.04 1.92 7.93 1.99 7.82C2.07 7.7 2.16 7.58 2.27 7.48C2.38 7.37 2.49 7.28 2.61 7.2C2.72 7.13 2.83 7.07 2.95 7.02C3.06 6.97 3.17 6.93 3.29 6.91C3.45 6.87 3.61 6.85 3.78 6.85L6.57 6.85C6.74 6.85 6.89 6.8 7.02 6.7ZM3.99 8C3.46 8 3.02 8.42 3 8.96C3.02 9.49 3.46 10 3.99 10C4.55 10 5 9.55 5 9C5 8.44 4.55 8 3.99 8ZM6.81 13.6C6.81 10.68 9.17 8.32 12.09 8.32C15.01 8.32 17.38 10.68 17.38 13.6C17.38 16.52 15.01 18.89 12.09 18.89C9.17 18.89 6.81 16.52 6.81 13.6ZM8.31 13.6C8.31 11.51 10 9.82 12.09 9.82C14.18 9.82 15.88 11.51 15.88 13.6C15.88 15.69 14.18 17.39 12.09 17.39C10 17.39 8.31 15.69 8.31 13.6Z" fill="#191919" fill-opacity="1.000000" fill-rule="evenodd"/>
	</g>
</svg>
