<svg width="24.000000" height="24.000000" viewBox="0 0 24 24" fill="none" xmlns="http://www.w3.org/2000/svg" xmlns:xlink="http://www.w3.org/1999/xlink">
	<desc>
			Created with Pixso.
	</desc>
	<defs>
		<clipPath id="clip36_3431">
			<rect width="24.000000" height="24.000000" fill="white" fill-opacity="0"/>
		</clipPath>
	</defs>
	<g clip-path="url(#clip36_3431)">
		<path d="M16.75 11C16.75 11.35 16.71 11.69 16.63 12.02C16.57 12.3 16.48 12.58 16.37 12.84C16.26 13.11 16.12 13.37 15.96 13.61C15.79 13.88 15.58 14.12 15.35 14.35C15.12 14.58 14.87 14.79 14.61 14.96C14.37 15.12 14.11 15.26 13.84 15.37C13.58 15.48 13.3 15.57 13.02 15.63C12.69 15.71 12.35 15.75 12 15.75C11.64 15.75 11.3 15.71 10.97 15.63C10.69 15.57 10.41 15.48 10.15 15.37Q9.74 15.2 9.38 14.96C9.12 14.79 8.87 14.58 8.64 14.35C8.41 14.12 8.2 13.88 8.03 13.61C7.87 13.37 7.73 13.11 7.62 12.84C7.51 12.58 7.42 12.3 7.36 12.02C7.28 11.69 7.25 11.35 7.25 11L7.25 5C7.25 4.64 7.28 4.3 7.36 3.97C7.42 3.69 7.51 3.41 7.62 3.15C7.73 2.88 7.87 2.62 8.03 2.38C8.2 2.12 8.41 1.87 8.64 1.64C8.87 1.41 9.12 1.2 9.38 1.03Q9.74 0.79 10.15 0.62C10.41 0.51 10.69 0.42 10.97 0.36C11.3 0.28 11.64 0.25 12 0.25C12.35 0.25 12.69 0.28 13.02 0.36C13.3 0.42 13.58 0.51 13.84 0.62C14.11 0.73 14.37 0.87 14.61 1.03C14.87 1.2 15.12 1.41 15.35 1.64C15.58 1.87 15.79 2.12 15.96 2.38C16.12 2.62 16.26 2.88 16.37 3.15C16.48 3.41 16.57 3.69 16.63 3.97C16.71 4.3 16.75 4.64 16.75 5L16.75 11ZM15.25 11L15.25 5C15.25 4.75 15.22 4.5 15.16 4.26C15.12 4.08 15.06 3.9 14.99 3.73C14.91 3.55 14.82 3.38 14.72 3.22C14.6 3.03 14.45 2.86 14.29 2.7C14.13 2.54 13.96 2.39 13.77 2.27C13.61 2.17 13.44 2.08 13.26 2C13.09 1.93 12.91 1.87 12.73 1.83C12.49 1.77 12.24 1.75 12 1.75C11.75 1.75 11.5 1.77 11.26 1.83C11.08 1.87 10.9 1.93 10.73 2C10.55 2.08 10.38 2.17 10.22 2.27C10.03 2.39 9.86 2.54 9.7 2.7C9.54 2.86 9.39 3.03 9.27 3.22C9.17 3.38 9.08 3.55 9 3.73C8.93 3.9 8.87 4.08 8.83 4.26C8.77 4.5 8.75 4.75 8.75 5L8.75 11C8.75 11.24 8.77 11.49 8.83 11.73C8.87 11.91 8.93 12.09 9 12.26Q9.11 12.53 9.27 12.77Q9.27 12.77 9.27 12.77C9.39 12.96 9.54 13.13 9.7 13.29C9.86 13.45 10.03 13.6 10.22 13.72Q10.46 13.88 10.73 13.99C10.9 14.06 11.08 14.12 11.26 14.16C11.5 14.22 11.75 14.25 12 14.25C12.24 14.25 12.49 14.22 12.73 14.16C12.91 14.12 13.09 14.06 13.26 13.99C13.44 13.91 13.61 13.82 13.77 13.72C13.96 13.6 14.13 13.45 14.29 13.29C14.45 13.13 14.6 12.96 14.72 12.77L14.72 12.77Q14.88 12.53 14.99 12.26C15.06 12.09 15.12 11.91 15.16 11.73C15.22 11.49 15.25 11.24 15.25 11ZM3.25 11C3.25 10.58 3.57 10.25 4 10.25C4.41 10.25 4.75 10.58 4.75 11C4.75 11.98 4.93 12.92 5.31 13.82C5.49 14.25 5.72 14.66 5.98 15.05C6.24 15.43 6.54 15.79 6.87 16.12C7.19 16.45 7.55 16.75 7.94 17.01Q8.34 17.27 8.76 17.49Q8.96 17.59 9.17 17.68Q9.73 17.91 10.32 18.05Q11.13 18.25 12 18.25C12.98 18.25 13.92 18.06 14.81 17.68Q15.02 17.59 15.22 17.49Q15.65 17.27 16.04 17.01C16.43 16.75 16.79 16.45 17.12 16.12C17.45 15.79 17.75 15.43 18.01 15.05C18.27 14.66 18.49 14.25 18.68 13.82C19.06 12.92 19.25 11.98 19.25 11C19.25 10.58 19.58 10.25 20 10.25C20.42 10.25 20.75 10.58 20.75 11C20.75 11.59 20.68 12.18 20.56 12.76C20.45 13.32 20.28 13.87 20.06 14.4C19.84 14.92 19.57 15.42 19.25 15.89C18.93 16.35 18.58 16.78 18.18 17.18C17.78 17.58 17.35 17.93 16.89 18.25C16.42 18.57 15.92 18.84 15.4 19.06C14.87 19.28 14.32 19.45 13.76 19.57C13.42 19.63 13.08 19.68 12.75 19.71L12.75 22.25L15 22.25C15.42 22.25 15.75 22.58 15.75 23C15.75 23.42 15.42 23.75 15 23.75L9 23.75C8.57 23.75 8.25 23.42 8.25 23C8.25 22.58 8.57 22.25 9 22.25L11.25 22.25L11.25 19.71C10.9 19.68 10.57 19.63 10.23 19.57C9.67 19.45 9.12 19.28 8.58 19.06C8.06 18.84 7.57 18.57 7.1 18.25C6.63 17.93 6.2 17.58 5.81 17.18C5.41 16.78 5.05 16.35 4.73 15.89C4.42 15.42 4.15 14.92 3.93 14.4C3.71 13.87 3.54 13.32 3.42 12.76Q3.35 12.38 3.3 12.01Q3.25 11.51 3.25 11Z" fill="#191919" fill-opacity="1.000000" fill-rule="evenodd"/>
	</g>
</svg>
