<svg width="24.000000" height="24.000000" viewBox="0 0 24 24" fill="none" xmlns="http://www.w3.org/2000/svg" xmlns:xlink="http://www.w3.org/1999/xlink">
	<desc>
			Created with Pixso.
	</desc>
	<defs>
		<clipPath id="clip36_3422">
			<rect width="24.000000" height="24.000000" fill="white" fill-opacity="0"/>
		</clipPath>
	</defs>
	<g clip-path="url(#clip36_3422)">
		<path d="M4 20.75L15 20.75C15.27 20.75 15.54 20.72 15.8 20.66C16.03 20.61 16.24 20.54 16.45 20.45C16.67 20.36 16.87 20.25 17.06 20.13Q17.37 19.92 17.65 19.65C17.83 19.47 17.99 19.27 18.13 19.06C18.25 18.87 18.36 18.67 18.45 18.45C18.54 18.24 18.61 18.03 18.66 17.8C18.72 17.54 18.75 17.27 18.75 17L18.75 9.5L21.9 8.24C21.91 8.24 21.93 8.24 21.94 8.24C21.99 8.24 22.07 8.23 22.09 8.24C22.12 8.27 22.21 8.35 22.23 8.38L22.25 16.02C22.23 16.05 22.2 16.17 22.17 16.19C22.14 16.21 22.03 16.27 22 16.27L20.3 15.61C19.91 15.45 19.48 15.64 19.33 16.03C19.17 16.42 19.36 16.85 19.75 17L21.35 17.64Q21.5 17.71 21.66 17.74C21.77 17.76 21.88 17.77 22 17.77C22.12 17.77 22.24 17.76 22.36 17.73C22.47 17.71 22.57 17.67 22.68 17.63C22.78 17.59 22.87 17.54 22.96 17.48C23.06 17.41 23.15 17.34 23.23 17.26Q23.36 17.13 23.45 16.99Q23.45 16.99 23.45 16.99C23.51 16.9 23.56 16.8 23.61 16.7C23.65 16.6 23.68 16.49 23.71 16.39L23.71 16.39Q23.75 16.21 23.75 16.02L23.75 8.47C23.75 8.36 23.73 8.25 23.71 8.14C23.69 8.03 23.66 7.93 23.62 7.82C23.57 7.71 23.52 7.6 23.45 7.49C23.39 7.4 23.32 7.32 23.24 7.24C23.16 7.16 23.08 7.09 22.99 7.03C22.89 6.97 22.79 6.91 22.68 6.86C22.58 6.82 22.47 6.78 22.35 6.76C22.25 6.74 22.14 6.72 22.03 6.72C21.92 6.72 21.81 6.73 21.7 6.75C21.58 6.77 21.46 6.8 21.35 6.85L18.75 7.89L18.75 7C18.75 6.72 18.72 6.45 18.66 6.19C18.61 5.96 18.54 5.75 18.45 5.54C18.36 5.32 18.25 5.12 18.13 4.93C17.99 4.72 17.83 4.52 17.65 4.34C17.47 4.16 17.27 4 17.06 3.86C16.87 3.74 16.67 3.63 16.45 3.54C16.24 3.45 16.03 3.38 15.8 3.33C15.54 3.27 15.27 3.25 15 3.25L4 3.25C3.72 3.25 3.45 3.27 3.19 3.33C2.96 3.38 2.75 3.45 2.54 3.54Q2.22 3.68 1.93 3.86C1.72 4 1.52 4.16 1.34 4.34C1.16 4.52 1 4.72 0.86 4.93C0.74 5.12 0.63 5.32 0.54 5.54C0.45 5.75 0.38 5.96 0.33 6.19C0.27 6.45 0.25 6.72 0.25 7L0.25 17C0.25 17.27 0.27 17.54 0.33 17.8C0.38 18.03 0.45 18.24 0.54 18.45C0.63 18.67 0.74 18.87 0.86 19.06C1 19.27 1.16 19.47 1.34 19.65C1.52 19.83 1.72 19.99 1.93 20.13C2.12 20.25 2.32 20.36 2.54 20.45C2.75 20.54 2.96 20.61 3.19 20.66C3.45 20.72 3.72 20.75 4 20.75ZM17.25 17L17.25 9.04C17.24 9.01 17.24 8.97 17.25 8.94L17.25 7C17.25 6.82 17.23 6.65 17.19 6.48C17.16 6.36 17.12 6.24 17.07 6.12Q16.99 5.93 16.88 5.77C16.8 5.64 16.7 5.52 16.59 5.4C16.47 5.29 16.35 5.19 16.22 5.11C16.11 5.04 15.99 4.97 15.87 4.92Q15.69 4.85 15.51 4.8Q15.5 4.8 15.5 4.8Q15.25 4.75 15 4.75L4 4.75C3.82 4.75 3.65 4.76 3.48 4.8C3.36 4.83 3.24 4.87 3.12 4.92C3 4.97 2.88 5.04 2.77 5.11C2.64 5.19 2.52 5.29 2.4 5.4C2.29 5.52 2.19 5.64 2.11 5.77Q2 5.93 1.92 6.12C1.87 6.24 1.83 6.36 1.8 6.48C1.76 6.65 1.75 6.82 1.75 7L1.75 17C1.75 17.17 1.76 17.34 1.8 17.51C1.83 17.63 1.87 17.75 1.92 17.87Q2 18.06 2.11 18.22C2.19 18.35 2.29 18.47 2.4 18.59C2.52 18.7 2.64 18.8 2.77 18.88C2.88 18.95 3 19.02 3.12 19.07C3.24 19.12 3.36 19.16 3.48 19.19C3.65 19.23 3.82 19.25 4 19.25L15 19.25Q15.25 19.25 15.5 19.19Q15.5 19.19 15.51 19.19Q15.69 19.14 15.87 19.07C15.99 19.02 16.11 18.95 16.22 18.88C16.35 18.8 16.47 18.7 16.59 18.59C16.7 18.47 16.8 18.35 16.88 18.22Q16.99 18.06 17.07 17.87C17.12 17.75 17.16 17.63 17.19 17.51C17.23 17.34 17.25 17.17 17.25 17ZM5.75 11.75C7.12 11.75 8.25 10.62 8.25 9.25C8.25 7.87 7.12 6.75 5.75 6.75C4.37 6.75 3.25 7.87 3.25 9.25C3.25 10.62 4.37 11.75 5.75 11.75ZM5.75 10.25C6.3 10.25 6.75 9.8 6.75 9.25C6.75 8.69 6.3 8.25 5.75 8.25C5.19 8.25 4.75 8.69 4.75 9.25C4.75 9.8 5.19 10.25 5.75 10.25Z" fill="#191919" fill-opacity="1.000000" fill-rule="evenodd"/>
	</g>
</svg>
