<svg width="12.000000" height="12.000000" viewBox="0 0 12 12" fill="none" xmlns="http://www.w3.org/2000/svg" xmlns:xlink="http://www.w3.org/1999/xlink">
	<desc>
			Created with Pixso.
	</desc>
	<defs/>
	<rect width="12.000000" height="12.000000" fill="#FFCCCC" fill-opacity="0"/>
	<circle cx="6.000000" cy="6.000000" r="5.500000" fill="#E84026" fill-opacity="1.000000"/>
	<path d="M5.99976 3C5.66225 3 5.39584 3.28671 5.42059 3.62332L5.66434 6.93835C5.67726 7.11404 5.82358 7.25 5.99976 7.25C6.17593 7.25 6.32225 7.11404 6.33517 6.93835L6.57892 3.62332C6.60367 3.28671 6.33727 3 5.99976 3ZM5.37476 8.375C5.37476 8.02985 5.6546 7.75 5.99976 7.75C6.34491 7.75 6.62476 8.02985 6.62476 8.375C6.62476 8.72015 6.34491 9 5.99976 9C5.6546 9 5.37476 8.72015 5.37476 8.375Z" clip-rule="evenodd" fill="#FFFFFF" fill-opacity="1.000000" fill-rule="evenodd"/>
</svg>
