<svg width="12.000000" height="12.000000" viewBox="0 0 12 12" fill="none" xmlns="http://www.w3.org/2000/svg" xmlns:xlink="http://www.w3.org/1999/xlink">
	<desc>
			Created with Pixso.
	</desc>
	<defs>
		<clipPath id="clip170_6450">
			<rect id="ic_public_warning" width="12.000000" height="12.000000" fill="white" fill-opacity="0"/>
		</clipPath>
	</defs>
	<g clip-path="url(#clip170_6450)">
		<path id="path1" d="M0 5.99C0 5.05 -0.01 4.12 0 3.18C-0.01 2.72 0.05 2.27 0.16 1.83C0.41 0.9 1.01 0.35 1.94 0.14C2.41 0.04 2.88 -0.01 3.36 7.62e-6C5.16 7.62e-6 6.95 7.62e-6 8.76 7.62e-6C9.21 -0.01 9.66 0.04 10.1 0.15C11.06 0.38 11.63 0.99 11.85 1.95C11.95 2.4 12 2.86 11.99 3.32C11.99 5.14 11.99 6.95 11.99 8.77C12 9.22 11.95 9.67 11.84 10.1C11.6 11.06 11 11.63 10.04 11.85C9.57 11.95 9.1 12 8.62 11.99C6.83 11.99 5.04 11.99 3.25 11.99C2.79 12 2.34 11.95 1.89 11.84C0.93 11.61 0.35 11 0.14 10.04C0.02 9.55 0 9.06 0 8.57C0 7.71 0 6.85 0 5.99Z" fill="#FFFFFF" fill-opacity="0" fill-rule="evenodd"/>
		<circle id="path2" cx="6.000000" cy="6.000000" r="6.000000" fill="#FFFFFF" fill-opacity="0"/>
		<circle id="path3" cx="6.000000" cy="6.000000" r="5.500000" fill="#E01E1E" fill-opacity="1.000000"/>
		<circle id="path3" cx="6.000000" cy="6.000000" r="5.500000" fill="#000000" fill-opacity="0"/>
		<circle id="path3" cx="6.000000" cy="6.000000" r="5.500000" stroke="#E01E1E" stroke-opacity="1.000000" stroke-width="0.997500" stroke-linejoin="round"/>
		<path id="path4" d="M5.52 3.02L5.5 3C5.5 2.72 5.72 2.5 6 2.5C6.27 2.5 6.49 2.72 6.49 3L6.47 3.02L5.52 3.02ZM6.47 7.73L6.49 7.74C6.49 8.02 6.27 8.24 6 8.24C5.72 8.24 5.5 8.02 5.5 7.74L5.52 7.73L6.47 7.73Z" fill="#000000" fill-opacity="0" fill-rule="nonzero"/>
		<path id="path4" d="M6 3L6 7.74" stroke="#FFFFFF" stroke-opacity="1.000000" stroke-width="0.997500" stroke-linecap="round"/>
		<circle id="path5" cx="6.000000" cy="9.062500" r="0.437500" fill="#FFFFFF" fill-opacity="1.000000"/>
	</g>
</svg>
