<?xml version="1.0" standalone="no"?><!DOCTYPE svg PUBLIC "-//W3C//DTD SVG 1.1//EN" "http://www.w3.org/Graphics/SVG/1.1/DTD/svg11.dtd"><svg t="1742989313080" class="icon" viewBox="0 0 1024 1024" version="1.1" xmlns="http://www.w3.org/2000/svg" p-id="2456" width="128" height="128" xmlns:xlink="http://www.w3.org/1999/xlink"><path d="M512 992A480.512 480.512 0 0 1 32 512 480.512 480.512 0 0 1 512 32a480.512 480.512 0 0 1 480 480 480.512 480.512 0 0 1-480 480z m0-434.624l135.68 135.68a32 32 0 0 0 22.72 9.344 32 32 0 0 0 22.528-9.344 32 32 0 0 0 9.344-22.592 32 32 0 0 0-9.344-22.656L557.184 511.936l135.744-135.68a32 32 0 0 0 9.472-22.784 31.488 31.488 0 0 0-9.472-22.464 31.552 31.552 0 0 0-22.656-9.472 31.552 31.552 0 0 0-22.656 9.472L511.936 466.88 376.064 331.008a31.552 31.552 0 0 0-22.656-9.472 31.488 31.488 0 0 0-22.592 9.472 32 32 0 0 0 0 45.248l135.872 135.68-135.872 135.872a31.168 31.168 0 0 0-9.344 22.464 31.616 31.616 0 0 0 9.344 22.72 32 32 0 0 0 22.656 9.344A32 32 0 0 0 376 692.992l135.872-135.68z" p-id="2457" data-spm-anchor-id="a313x.search_index.0.i0.216a3a81UeIhA8" class="" fill="#dbdbdb"></path></svg>