<?xml version="1.0" standalone="no"?><!DOCTYPE svg PUBLIC "-//W3C//DTD SVG 1.1//EN" "http://www.w3.org/Graphics/SVG/1.1/DTD/svg11.dtd"><svg t="1742893274398" class="icon" viewBox="0 0 1024 1024" version="1.1" xmlns="http://www.w3.org/2000/svg" p-id="3942" width="128" height="128" xmlns:xlink="http://www.w3.org/1999/xlink"><path d="M763.54 829.09c0 30.16-24.53 54.7-54.61 54.7H315.07c-30.16-0.09-54.61-24.53-54.7-54.7V248.9h503.16l0.01 580.19zM369.68 150.76c0-6.33 4.92-11.26 11.26-11.26h262.75c6.33 0 11.17 4.92 11.17 11.26v32.98H369.68v-32.98z m557.77 32.98H720.1v-32.98c0-42.03-34.29-76.42-76.42-76.42H380.93c-42.12 0.09-76.33 34.21-76.42 76.42v32.98H96.46c-18.29 0-32.98 14.69-32.98 32.89s14.69 32.98 32.98 32.98h98.05V829.1c0 66.57 53.99 120.56 120.56 120.56h393.77c66.57 0 120.56-53.99 120.56-120.56V248.9h98.14c18.2 0 32.98-14.69 32.98-32.98s-14.78-32.18-33.07-32.18zM511.96 784.95c18.2 0 32.98-14.69 32.98-32.98V401.64c0-18.2-14.69-32.98-32.98-32.98-18.2 0-32.98 14.69-32.98 32.98v350.33c0 18.21 14.77 32.98 32.98 32.98m-153.45 0c18.2 0 32.98-14.69 32.98-32.98V401.64c0-18.2-14.69-32.98-32.98-32.98-18.2 0-32.98 14.69-32.98 32.98v350.33c0.71 18.21 15.48 32.98 32.98 32.98m306.89 0c18.2 0 32.98-14.69 32.98-32.98V401.64c0-18.2-14.69-32.98-32.98-32.98-18.2 0-32.98 14.69-32.98 32.98v350.33c0.09 18.21 14.78 32.98 32.98 32.98" fill="#999999" p-id="3943"></path></svg>