<?xml version="1.0" standalone="no"?><!DOCTYPE svg PUBLIC "-//W3C//DTD SVG 1.1//EN" "http://www.w3.org/Graphics/SVG/1.1/DTD/svg11.dtd"><svg t="1732939493534" class="icon" viewBox="0 0 1024 1024" version="1.1" xmlns="http://www.w3.org/2000/svg" p-id="2545" width="64" height="64" xmlns:xlink="http://www.w3.org/1999/xlink"><path d="M648.256 850.272a32 32 0 1 1-40.704-49.386667C758.304 676.693333 832 566.037333 832 471.072 832 293.344 688.693333 149.333333 512 149.333333c-176.693333 0-320 144.010667-320 321.738667 0 115.232 108.416 253.045333 329.173333 409.493333a32 32 0 0 1-37.013333 52.213334C248.021333 765.429333 128 612.853333 128 471.072 128 258.069333 299.882667 85.333333 512 85.333333s384 172.736 384 385.738667c0 118.378667-83.701333 244.053333-247.744 379.2zM512 618.666667c-82.474667 0-149.333333-66.858667-149.333333-149.333334s66.858667-149.333333 149.333333-149.333333 149.333333 66.858667 149.333333 149.333333-66.858667 149.333333-149.333333 149.333334z m0-64a85.333333 85.333333 0 1 0 0-170.666667 85.333333 85.333333 0 0 0 0 170.666667z" fill="#8a8a8a" p-id="2546"></path></svg>