<svg width="36.000000" height="36.000000" viewBox="0 0 36 36" fill="none" xmlns="http://www.w3.org/2000/svg" xmlns:xlink="http://www.w3.org/1999/xlink">
	<desc>
			Created with Pixso.
	</desc>
	<defs>
		<clipPath id="clip3_1658">
			<rect rx="18.000000" width="36.000000" height="36.000000" fill="white" fill-opacity="0"/>
		</clipPath>
	</defs>
	<g clip-path="url(#clip3_1658)">
		<path d="M30.98 26.47C30.14 27.77 29.12 28.92 27.93 29.92C26.72 30.94 25.39 31.74 23.93 32.34C21.4 33.38 18.8 33.74 16.15 33.4C13.5 33.05 11.1 32.09 8.94 30.53C6.76 28.96 5.1 26.96 3.96 24.51L5.87 22.63C6.03 22.45 6.11 22.24 6.11 22.01C6.11 21.79 6.03 21.61 5.87 21.46L1.45 17.02C1.29 16.87 1.1 16.79 0.88 16.79C0.66 16.79 0.46 16.87 0.29 17.02C0.13 17.18 0.04 17.38 0.04 17.61C-0.01 19.17 0.18 20.77 0.61 22.4C1.04 24.04 1.53 25.35 2.08 26.35C3.49 29.01 5.43 31.17 7.92 32.85C10.43 34.52 13.16 35.52 16.13 35.85C19.11 36.17 22.01 35.76 24.83 34.61C26.52 33.9 28.06 32.98 29.44 31.83C30.83 30.68 32.02 29.33 33.02 27.79C33.22 27.48 33.29 27.17 33.23 26.86C33.16 26.54 32.97 26.29 32.66 26.11C32.4 25.92 32.1 25.86 31.78 25.93C31.45 25.99 31.18 26.17 30.98 26.47ZM11.12 1.32C9.43 2.03 7.88 2.97 6.49 4.13C5.09 5.28 3.9 6.62 2.93 8.14C2.76 8.43 2.7 8.74 2.77 9.07C2.83 9.41 3.01 9.67 3.29 9.86C3.57 10.04 3.88 10.1 4.2 10.02C4.53 9.94 4.79 9.76 4.97 9.47C5.83 8.14 6.86 6.98 8.07 5.99C9.27 4.99 10.6 4.19 12.07 3.59C14.57 2.55 17.15 2.19 19.82 2.53C22.48 2.88 24.9 3.83 27.06 5.37C29.23 6.93 30.89 8.93 32.04 11.39L30.11 13.3C29.93 13.48 29.84 13.69 29.84 13.92C29.84 14.14 29.93 14.32 30.11 14.47L34.5 18.91C34.65 19.06 34.85 19.14 35.09 19.14C35.32 19.14 35.52 19.06 35.69 18.91C35.87 18.75 35.95 18.55 35.95 18.32C35.98 17.12 35.78 15.64 35.37 13.89C34.94 12.15 34.44 10.71 33.87 9.58C32.46 6.93 30.52 4.76 28.04 3.09C25.56 1.41 22.83 0.41 19.83 0.07C16.84 -0.27 13.94 0.15 11.12 1.32Z" fill="#0087FF" fill-opacity="0.600000" fill-rule="nonzero"/>
		<path d="M12.53 10.3L16.32 15.67L12.46 15.67C12.24 15.67 12.02 15.59 11.85 15.45L10.74 14.55C10.57 14.41 10.36 14.33 10.14 14.33L9.31 14.33C9.22 14.33 9.12 14.35 9.04 14.38C8.61 14.53 8.39 14.97 8.54 15.38L9.56 17.92L26.77 17.92C26.92 17.92 27.08 17.87 27.21 17.78C27.54 17.55 27.59 17.08 27.34 16.76C26.81 16.07 25.97 15.67 25.07 15.67L22.32 15.67C22.06 15.67 21.82 15.57 21.65 15.4L15.19 9.27C15.02 9.09 14.77 9 14.52 9L13.28 9C13.11 9 12.94 9.04 12.8 9.13C12.39 9.38 12.27 9.91 12.53 10.3ZM25.35 22.38L10.66 22.38C10.17 22.38 9.79 22.77 9.79 23.27C9.79 23.77 10.17 24.16 10.66 24.16L25.35 24.16C25.83 24.16 26.21 23.77 26.21 23.27C26.21 22.77 25.83 22.38 25.35 22.38Z" fill="#0087FF" fill-opacity="1.000000" fill-rule="evenodd"/>
	</g>
</svg>
