<?xml version="1.0" standalone="no"?><!DOCTYPE svg PUBLIC "-//W3C//DTD SVG 1.1//EN" "http://www.w3.org/Graphics/SVG/1.1/DTD/svg11.dtd"><svg t="1743589034768" class="icon" viewBox="0 0 1024 1024" version="1.1" xmlns="http://www.w3.org/2000/svg" p-id="3484" xmlns:xlink="http://www.w3.org/1999/xlink" width="128" height="128"><path d="M512 0Q372.571429 0 253.714286 69.714286 138.285714 138.285714 69.714286 253.714286 0 372.571429 0 512t69.714286 258.285714q68.571429 115.428571 184 184 118.857143 69.714286 258.285714 69.714286t258.285714-69.714286q115.428571-68.571429 184-184 69.714286-118.857143 69.714286-258.285714t-69.714286-258.285714Q885.714286 138.285714 770.285714 69.714286 651.428571 0 512 0z m-36.571429 576V265.142857q0-3.428571 2.857143-6.285714t6.285715-2.857143h54.857142q3.428571 0 6.285715 2.857143t2.857143 6.285714v310.857143q0 3.428571-2.857143 6.285714T539.428571 585.142857h-54.857142q-3.428571 0-6.285715-2.857143T475.428571 576z m36.571429 192q-22.857143 0-38.857143-16t-16-38.857143q0-22.857143 16-38.857143t38.857143-16q22.857143 0 38.857143 16t16 38.857143q0 22.857143-16 38.857143t-38.857143 16z" p-id="3485" data-spm-anchor-id="a313x.search_index.0.i0.74c73a81qIURvL" class="selected" fill="#F4840C"></path></svg>