<svg width="16.000000" height="16.000000" viewBox="0 0 16 16" fill="none" xmlns="http://www.w3.org/2000/svg" xmlns:xlink="http://www.w3.org/1999/xlink">
	<desc>
			Created with Pixso.
	</desc>
	<defs>
		<clipPath id="clip32_3163">
			<rect width="16.000000" height="16.000000" fill="white" fill-opacity="0"/>
		</clipPath>
	</defs>
	<g clip-path="url(#clip32_3163)">
		<path d="M4.36 5.11L2.32 5.11C2.23 5.11 2.13 5.12 2.04 5.14C1.96 5.16 1.88 5.18 1.81 5.22C1.73 5.25 1.66 5.29 1.59 5.33C1.52 5.38 1.45 5.44 1.38 5.5C1.32 5.56 1.26 5.63 1.22 5.71C1.17 5.77 1.13 5.85 1.1 5.92C1.07 6 1.04 6.08 1.03 6.16C1.01 6.25 1 6.34 1 6.44L1 9.39C1 9.49 1.01 9.59 1.03 9.68C1.04 9.76 1.07 9.84 1.1 9.91C1.17 10.07 1.26 10.21 1.38 10.33C1.45 10.4 1.52 10.45 1.59 10.5C1.66 10.55 1.73 10.59 1.81 10.62C1.88 10.65 1.96 10.68 2.04 10.69C2.13 10.71 2.23 10.72 2.32 10.72L4.16 10.72L5.76 14.47C5.86 14.7 6.12 14.8 6.34 14.71C6.57 14.61 6.67 14.35 6.58 14.12L4.89 10.19L4.89 5.84L13.9 1.89C13.94 1.88 13.98 1.88 14.01 1.89C14.02 1.91 14.11 2.01 14.11 2.03L14.11 13.81C14.11 13.85 14.09 13.88 14.07 13.91C14.04 13.94 14 13.95 13.96 13.95L7.01 10.92C6.79 10.82 6.53 10.92 6.43 11.15C6.33 11.38 6.43 11.63 6.65 11.73L13.54 14.75C13.61 14.78 13.68 14.8 13.75 14.82C13.82 14.83 13.89 14.84 13.96 14.84C14.1 14.84 14.24 14.81 14.36 14.76C14.49 14.71 14.6 14.63 14.69 14.54C14.79 14.44 14.86 14.33 14.91 14.21C14.97 14.08 15 13.95 15 13.81L15 2.03C15 1.96 14.99 1.89 14.97 1.82C14.96 1.75 14.94 1.68 14.91 1.61C14.85 1.48 14.77 1.37 14.67 1.28C14.57 1.18 14.46 1.11 14.33 1.07C14.21 1.02 14.08 0.99 13.94 1C13.81 1 13.67 1.03 13.54 1.08L4.36 5.11ZM4.01 9.84L4.01 6L2.32 6Q2.23 6 2.15 6.03L2.15 6.03C2.1 6.05 2.05 6.08 2.01 6.13C1.97 6.17 1.94 6.22 1.91 6.27C1.89 6.32 1.88 6.38 1.88 6.44L1.88 9.39C1.88 9.52 1.92 9.62 2.01 9.71C2.05 9.75 2.1 9.78 2.15 9.8C2.21 9.83 2.26 9.84 2.32 9.84L4.01 9.84Z" fill="#191919" fill-opacity="1.000000" fill-rule="evenodd"/>
	</g>
</svg>
