<svg width="16.000000" height="16.000000" viewBox="0 0 16 16" fill="none" xmlns="http://www.w3.org/2000/svg" xmlns:xlink="http://www.w3.org/1999/xlink">
	<desc>
			Created with Pixso.
	</desc>
	<defs>
		<clipPath id="clip73_85">
			<rect width="14.000000" height="14.000000" transform="translate(1.000000 1.000000)" fill="white" fill-opacity="0"/>
		</clipPath>
	</defs>
	<g opacity="0.160000">
		<rect rx="2.000000" width="16.000000" height="16.000000" fill="#8981F7" fill-opacity="1.000000"/>
	</g>
	<g clip-path="url(#clip73_85)">
		<g opacity="0.000000">
			<rect x="1.000000" y="1.000000" width="14.000000" height="14.000000" fill="#D8D8D8" fill-opacity="1.000000"/>
			<rect x="1.000000" y="1.000000" width="14.000000" height="14.000000" stroke="#000000" stroke-opacity="0" stroke-width="1.000000"/>
		</g>
		<path d="M8 2.16C9.29 2.16 10.52 2.58 11.53 3.35C11.72 3.5 11.76 3.77 11.61 3.96C11.46 4.16 11.19 4.19 11 4.05C10.14 3.4 9.1 3.04 8 3.04C5.26 3.04 3.04 5.26 3.04 8C3.04 10.73 5.26 12.95 8 12.95C10.73 12.95 12.95 10.73 12.95 8C12.95 6.9 12.6 5.85 11.94 4.99C11.8 4.8 11.83 4.53 12.03 4.38C12.22 4.23 12.49 4.27 12.64 4.46C13.41 5.47 13.83 6.7 13.83 8C13.83 11.22 11.22 13.83 8 13.83C4.77 13.83 2.16 11.22 2.16 8C2.16 4.77 4.77 2.16 8 2.16ZM8 6.76C8.22 6.76 8.4 6.92 8.43 7.13L8.43 7.19L8.43 10.62C8.43 10.86 8.24 11.06 8 11.06C7.77 11.06 7.59 10.89 7.56 10.68L7.56 10.62L7.56 7.19C7.56 6.95 7.75 6.76 8 6.76ZM8 4.79C8.32 4.79 8.58 5.05 8.58 5.37C8.58 5.69 8.32 5.95 8 5.95C7.67 5.95 7.41 5.69 7.41 5.37C7.41 5.05 7.67 4.79 8 4.79Z" fill="#191919" fill-opacity="1.000000" fill-rule="evenodd"/>
		<path d="M11.53 3.35C11.72 3.5 11.76 3.77 11.61 3.96C11.46 4.16 11.19 4.19 11 4.05C10.14 3.4 9.1 3.04 8 3.04C5.26 3.04 3.04 5.26 3.04 8C3.04 10.73 5.26 12.95 8 12.95C10.73 12.95 12.95 10.73 12.95 8C12.95 6.9 12.6 5.85 11.94 4.99C11.8 4.8 11.83 4.53 12.03 4.38C12.22 4.23 12.49 4.27 12.64 4.46C13.41 5.47 13.83 6.7 13.83 8C13.83 11.22 11.22 13.83 8 13.83C4.77 13.83 2.16 11.22 2.16 8C2.16 4.77 4.77 2.16 8 2.16C9.29 2.16 10.52 2.58 11.53 3.35ZM8.43 7.13L8.43 7.19L8.43 10.62C8.43 10.86 8.24 11.06 8 11.06C7.77 11.06 7.59 10.89 7.56 10.68L7.56 10.62L7.56 7.19C7.56 6.95 7.75 6.76 8 6.76C8.22 6.76 8.4 6.92 8.43 7.13ZM8.58 5.37C8.58 5.69 8.32 5.95 8 5.95C7.67 5.95 7.41 5.69 7.41 5.37C7.41 5.05 7.67 4.79 8 4.79C8.32 4.79 8.58 5.05 8.58 5.37Z" stroke="#000000" stroke-opacity="0" stroke-width="1.000000"/>
	</g>
</svg>
