<svg width="16.000000" height="16.000000" viewBox="0 0 16 16" fill="none" xmlns="http://www.w3.org/2000/svg" xmlns:xlink="http://www.w3.org/1999/xlink">
	<desc>
			Created with Pixso.
	</desc>
	<defs>
		<clipPath id="clip73_16">
			<rect width="14.000000" height="14.000000" transform="translate(1.000000 1.000000)" fill="white" fill-opacity="0"/>
		</clipPath>
		<clipPath id="clip73_12">
			<rect width="14.000000" height="14.000000" transform="translate(1.000000 1.000000)" fill="white" fill-opacity="0"/>
		</clipPath>
	</defs>
	<g opacity="0.160000">
		<rect rx="2.000000" width="16.000000" height="16.000000" fill="#B6C6B3" fill-opacity="1.000000"/>
	</g>
	<g clip-path="url(#clip73_12)">
		<g clip-path="url(#clip73_16)">
			<g opacity="0.000000">
				<rect x="1.000000" y="1.000000" width="14.000000" height="14.000000" fill="#D8D8D8" fill-opacity="1.000000"/>
				<rect x="1.000000" y="1.000000" width="14.000000" height="14.000000" stroke="#000000" stroke-opacity="0" stroke-width="1.000000"/>
			</g>
			<path d="M8 2.6C11.29 2.6 13.99 4.88 13.99 7.72C13.99 10.57 11.29 12.85 8 12.85C7.7 12.85 7.39 12.82 7.09 12.79C6.85 12.76 6.68 12.54 6.71 12.3C6.74 12.06 6.96 11.89 7.2 11.92C7.47 11.95 7.74 11.97 8 11.97C10.84 11.97 13.12 10.05 13.12 7.72C13.12 5.4 10.84 3.47 8 3.47C5.17 3.47 2.89 5.4 2.89 7.72C2.89 8.66 3.34 9.64 4.11 10.43C4.2 10.52 4.25 10.64 4.23 10.77C4.19 11.24 4.08 11.7 3.9 12.16L3.81 12.38L3.95 12.35C4.1 12.3 4.25 12.26 4.39 12.2L4.61 12.12C4.93 11.98 5.21 11.81 5.44 11.61C5.62 11.45 5.9 11.47 6.06 11.66C6.22 11.84 6.2 12.12 6.01 12.27C5.71 12.53 5.35 12.75 4.95 12.92C4.54 13.1 4.1 13.23 3.66 13.31L3.45 13.35C3.28 13.38 3.15 13.39 3.06 13.4C2.7 13.43 2.46 13.03 2.66 12.73L2.74 12.59C2.82 12.44 2.93 12.21 3.01 12.02C3.15 11.7 3.25 11.38 3.31 11.07L3.34 10.88L3.23 10.76C2.5 9.91 2.06 8.9 2.02 7.89L2.02 7.72C2.02 4.88 4.72 2.6 8 2.6ZM5.37 6.97C5.77 6.97 6.1 7.3 6.1 7.7C6.1 8.11 5.77 8.43 5.37 8.43C4.97 8.43 4.64 8.11 4.64 7.7C4.64 7.3 4.97 6.97 5.37 6.97ZM10.62 6.97C11.02 6.97 11.35 7.3 11.35 7.7C11.35 8.11 11.02 8.43 10.62 8.43C10.22 8.43 9.89 8.11 9.89 7.7C9.89 7.3 10.22 6.97 10.62 6.97ZM7.99 6.97C8.4 6.97 8.72 7.3 8.72 7.7C8.72 8.11 8.4 8.43 7.99 8.43C7.59 8.43 7.27 8.11 7.27 7.7C7.27 7.3 7.59 6.97 7.99 6.97Z" fill="#191919" fill-opacity="1.000000" fill-rule="evenodd"/>
			<path d="M13.99 7.72C13.99 10.57 11.29 12.85 8 12.85C7.7 12.85 7.39 12.82 7.09 12.79C6.85 12.76 6.68 12.54 6.71 12.3C6.74 12.06 6.96 11.89 7.2 11.92C7.47 11.95 7.74 11.97 8 11.97C10.84 11.97 13.12 10.05 13.12 7.72C13.12 5.4 10.84 3.47 8 3.47C5.17 3.47 2.89 5.4 2.89 7.72C2.89 8.66 3.34 9.64 4.11 10.43C4.2 10.52 4.25 10.64 4.23 10.77C4.19 11.24 4.08 11.7 3.9 12.16L3.81 12.38L3.95 12.35C4.1 12.3 4.25 12.26 4.39 12.2L4.61 12.12C4.93 11.98 5.21 11.81 5.44 11.61C5.62 11.45 5.9 11.47 6.06 11.66C6.22 11.84 6.2 12.12 6.01 12.27C5.71 12.53 5.35 12.75 4.95 12.92C4.54 13.1 4.1 13.23 3.66 13.31L3.45 13.35C3.28 13.38 3.15 13.39 3.06 13.4C2.7 13.43 2.46 13.03 2.66 12.73L2.74 12.59C2.82 12.44 2.93 12.21 3.01 12.02C3.15 11.7 3.25 11.38 3.31 11.07L3.34 10.88L3.23 10.76C2.5 9.91 2.06 8.9 2.02 7.89L2.02 7.72C2.02 4.88 4.72 2.6 8 2.6C11.29 2.6 13.99 4.88 13.99 7.72ZM6.1 7.7C6.1 8.11 5.77 8.43 5.37 8.43C4.97 8.43 4.64 8.11 4.64 7.7C4.64 7.3 4.97 6.97 5.37 6.97C5.77 6.97 6.1 7.3 6.1 7.7ZM11.35 7.7C11.35 8.11 11.02 8.43 10.62 8.43C10.22 8.43 9.89 8.11 9.89 7.7C9.89 7.3 10.22 6.97 10.62 6.97C11.02 6.97 11.35 7.3 11.35 7.7ZM8.72 7.7C8.72 8.11 8.4 8.43 7.99 8.43C7.59 8.43 7.27 8.11 7.27 7.7C7.27 7.3 7.59 6.97 7.99 6.97C8.4 6.97 8.72 7.3 8.72 7.7Z" stroke="#000000" stroke-opacity="0" stroke-width="1.000000"/>
		</g>
	</g>
</svg>
