<svg width="16.000000" height="16.000000" viewBox="0 0 16 16" fill="none" xmlns="http://www.w3.org/2000/svg" xmlns:xlink="http://www.w3.org/1999/xlink">
	<desc>
			Created with Pixso.
	</desc>
	<defs>
		<clipPath id="clip72_407">
			<rect width="14.000000" height="14.000000" transform="translate(1.000000 1.000000)" fill="white" fill-opacity="0"/>
		</clipPath>
	</defs>
	<g opacity="0.160000">
		<rect rx="2.000000" width="16.000000" height="16.000000" fill="#D7A4A4" fill-opacity="1.000000"/>
	</g>
	<g clip-path="url(#clip72_407)">
		<g opacity="0.000000">
			<rect x="1.000000" y="1.000000" width="14.000000" height="14.000000" fill="#D8D8D8" fill-opacity="1.000000"/>
			<rect x="1.000000" y="1.000000" width="14.000000" height="14.000000" stroke="#000000" stroke-opacity="0" stroke-width="1.000000"/>
		</g>
		<path d="M7.74 2.16C9.2 2.16 10.39 3.34 10.39 4.8C10.39 6.08 10.08 7.14 9.53 7.83C9.52 7.85 9.5 7.87 9.49 7.89C9.44 7.94 9.4 7.99 9.35 8.04C9.26 8.14 9.16 8.22 9.05 8.3L8.94 8.38L8.86 8.43L8.78 8.47C8.56 8.59 8.3 8.68 8.05 8.72C7.81 8.75 7.59 8.59 7.56 8.35C7.53 8.13 7.66 7.92 7.87 7.86C8.16 7.82 8.49 7.67 8.74 7.42L8.84 7.31C9.27 6.78 9.52 5.9 9.52 4.8C9.52 3.82 8.72 3.03 7.74 3.03C6.75 3.03 5.96 3.82 5.96 4.8C5.96 5.89 6.31 6.9 6.87 7.46C6.91 7.49 6.94 7.53 6.96 7.57C7.04 7.68 7.05 7.82 7 7.94L6.97 8.01L6.93 8.08L6.86 8.14L4.32 9.74C3.92 10 3.62 10.38 3.46 10.82L3.42 10.96L3.05 12.28C2.97 12.6 3.18 12.92 3.51 12.96L3.58 12.96L8.12 12.96C8.36 12.96 8.56 13.16 8.56 13.4C8.56 13.61 8.39 13.8 8.18 13.82L8.12 13.83L3.58 13.83C2.68 13.83 2.01 13.01 2.19 12.14L2.21 12.05L2.58 10.73C2.76 10.07 3.16 9.5 3.72 9.1L3.85 9.01L5.89 7.73L5.91 7.66C5.38 6.92 5.08 5.89 5.08 4.8C5.08 3.34 6.27 2.16 7.74 2.16ZM11.77 8.17L13.19 8.98C13.58 9.21 13.83 9.64 13.83 10.09L13.83 11.73C13.83 12.19 13.58 12.61 13.19 12.84L11.77 13.66C11.57 13.77 11.35 13.83 11.13 13.83C10.91 13.83 10.69 13.77 10.49 13.66L9.07 12.84C8.68 12.61 8.43 12.19 8.43 11.73L8.43 10.09C8.43 9.64 8.68 9.21 9.07 8.98L10.49 8.17C10.89 7.94 11.38 7.94 11.77 8.17ZM11.13 8.85C11.06 8.85 10.98 8.87 10.92 8.9L9.5 9.72C9.37 9.8 9.29 9.94 9.29 10.09L9.29 11.73C9.29 11.88 9.37 12.02 9.5 12.1L10.92 12.92C11.05 12.99 11.21 12.99 11.34 12.92L12.76 12.1C12.89 12.02 12.97 11.88 12.97 11.73L12.97 10.09C12.97 9.94 12.89 9.8 12.76 9.72L11.34 8.9C11.28 8.87 11.2 8.85 11.13 8.85ZM11.13 9.63C11.84 9.63 12.41 10.21 12.41 10.91C12.41 11.62 11.84 12.19 11.13 12.19C10.42 12.19 9.85 11.62 9.85 10.91C9.85 10.21 10.42 9.63 11.13 9.63ZM11.13 10.49C10.89 10.49 10.7 10.68 10.7 10.91C10.7 11.15 10.89 11.34 11.13 11.34C11.37 11.34 11.56 11.15 11.56 10.91C11.56 10.68 11.37 10.49 11.13 10.49Z" fill="#191919" fill-opacity="1.000000" fill-rule="evenodd"/>
		<path d="M10.39 4.8C10.39 6.08 10.08 7.14 9.53 7.83C9.52 7.85 9.5 7.87 9.49 7.89C9.44 7.94 9.4 7.99 9.35 8.04C9.26 8.14 9.16 8.22 9.05 8.3L8.94 8.38L8.86 8.43L8.78 8.47C8.56 8.59 8.3 8.68 8.05 8.72C7.81 8.75 7.59 8.59 7.56 8.35C7.53 8.13 7.66 7.92 7.87 7.86C8.16 7.82 8.49 7.67 8.74 7.42L8.84 7.31C9.27 6.78 9.52 5.9 9.52 4.8C9.52 3.82 8.72 3.03 7.74 3.03C6.75 3.03 5.96 3.82 5.96 4.8C5.96 5.89 6.31 6.9 6.87 7.46C6.91 7.49 6.94 7.53 6.96 7.57C7.04 7.68 7.05 7.82 7 7.94L6.97 8.01L6.93 8.08L6.86 8.14L4.32 9.74C3.92 10 3.62 10.38 3.46 10.82L3.42 10.96L3.05 12.28C2.97 12.6 3.18 12.92 3.51 12.96L3.58 12.96L8.12 12.96C8.36 12.96 8.56 13.16 8.56 13.4C8.56 13.61 8.39 13.8 8.18 13.82L8.12 13.83L3.58 13.83C2.68 13.83 2.01 13.01 2.19 12.14L2.21 12.05L2.58 10.73C2.76 10.07 3.16 9.5 3.72 9.1L3.85 9.01L5.89 7.73L5.91 7.66C5.38 6.92 5.08 5.89 5.08 4.8C5.08 3.34 6.27 2.16 7.74 2.16C9.2 2.16 10.39 3.34 10.39 4.8ZM13.19 8.98C13.58 9.21 13.83 9.64 13.83 10.09L13.83 11.73C13.83 12.19 13.58 12.61 13.19 12.84L11.77 13.66C11.57 13.77 11.35 13.83 11.13 13.83C10.91 13.83 10.69 13.77 10.49 13.66L9.07 12.84C8.68 12.61 8.43 12.19 8.43 11.73L8.43 10.09C8.43 9.64 8.68 9.21 9.07 8.98L10.49 8.17C10.89 7.94 11.38 7.94 11.77 8.17L13.19 8.98ZM10.92 8.9L9.5 9.72C9.37 9.8 9.29 9.94 9.29 10.09L9.29 11.73C9.29 11.88 9.37 12.02 9.5 12.1L10.92 12.92C11.05 12.99 11.21 12.99 11.34 12.92L12.76 12.1C12.89 12.02 12.97 11.88 12.97 11.73L12.97 10.09C12.97 9.94 12.89 9.8 12.76 9.72L11.34 8.9C11.28 8.87 11.2 8.85 11.13 8.85C11.06 8.85 10.98 8.87 10.92 8.9ZM12.41 10.91C12.41 11.62 11.84 12.19 11.13 12.19C10.42 12.19 9.85 11.62 9.85 10.91C9.85 10.21 10.42 9.63 11.13 9.63C11.84 9.63 12.41 10.21 12.41 10.91ZM10.7 10.91C10.7 11.15 10.89 11.34 11.13 11.34C11.37 11.34 11.56 11.15 11.56 10.91C11.56 10.68 11.37 10.49 11.13 10.49C10.89 10.49 10.7 10.68 10.7 10.91Z" stroke="#000000" stroke-opacity="0" stroke-width="1.000000"/>
	</g>
</svg>
