<svg width="16.000000" height="16.000000" viewBox="0 0 16 16" fill="none" xmlns="http://www.w3.org/2000/svg" xmlns:xlink="http://www.w3.org/1999/xlink">
	<desc>
			Created with Pixso.
	</desc>
	<defs>
		<clipPath id="clip73_63">
			<rect width="14.000000" height="14.000000" transform="translate(1.000000 1.000000)" fill="white" fill-opacity="0"/>
		</clipPath>
	</defs>
	<g opacity="0.160000">
		<rect rx="2.000000" width="16.000000" height="16.000000" fill="#F5DC62" fill-opacity="1.000000"/>
	</g>
	<g clip-path="url(#clip73_63)">
		<rect x="1.000000" y="1.000000" width="14.000000" height="14.000000" fill="#000000" fill-opacity="0"/>
		<rect x="1.000000" y="1.000000" width="14.000000" height="14.000000" stroke="#000000" stroke-opacity="0" stroke-width="1.000000"/>
		<path d="M8 2.89C10.21 2.89 12.09 4.3 12.8 6.27C13.46 6.4 13.96 6.99 13.96 7.7C13.96 8.5 13.31 9.15 12.5 9.15C12.34 9.15 12.21 9.02 12.21 8.86L12.21 7.67C12.04 5.48 10.22 3.77 8 3.77C5.76 3.77 3.93 5.5 3.78 7.7L3.78 8.29C3.91 10.31 5.47 11.94 7.46 12.19C7.59 12.04 7.79 11.95 8.01 11.95C8.41 11.95 8.74 12.27 8.74 12.67C8.74 13.08 8.41 13.4 8.01 13.4C7.75 13.4 7.52 13.27 7.39 13.06C5.21 12.81 3.46 11.18 3 9.07C2.43 8.87 2.03 8.33 2.03 7.69C2.03 6.99 2.53 6.4 3.19 6.26C3.9 4.3 5.78 2.89 8 2.89ZM8 5.08C9.61 5.08 10.91 6.38 10.91 8C10.91 9.61 9.61 10.91 8 10.91C6.38 10.91 5.08 9.61 5.08 8C5.08 6.38 6.38 5.08 8 5.08ZM8 5.95C6.87 5.95 5.95 6.87 5.95 8C5.95 9.12 6.87 10.04 8 10.04C9.12 10.04 10.04 9.12 10.04 8C10.04 6.87 9.12 5.95 8 5.95Z" fill="#191919" fill-opacity="1.000000" fill-rule="nonzero"/>
		<path d="M12.8 6.27C13.46 6.4 13.96 6.99 13.96 7.7C13.96 8.5 13.31 9.15 12.5 9.15C12.34 9.15 12.21 9.02 12.21 8.86L12.21 7.67C12.04 5.48 10.22 3.77 8 3.77C5.76 3.77 3.93 5.5 3.78 7.7L3.78 8.29C3.91 10.31 5.47 11.94 7.46 12.19C7.59 12.04 7.79 11.95 8.01 11.95C8.41 11.95 8.74 12.27 8.74 12.67C8.74 13.08 8.41 13.4 8.01 13.4C7.75 13.4 7.52 13.27 7.39 13.06C5.21 12.81 3.46 11.18 3 9.07C2.43 8.87 2.03 8.33 2.03 7.69C2.03 6.99 2.53 6.4 3.19 6.26C3.9 4.3 5.78 2.89 8 2.89C10.21 2.89 12.09 4.3 12.8 6.27ZM10.91 8C10.91 9.61 9.61 10.91 8 10.91C6.38 10.91 5.08 9.61 5.08 8C5.08 6.38 6.38 5.08 8 5.08C9.61 5.08 10.91 6.38 10.91 8ZM5.95 8C5.95 9.12 6.87 10.04 8 10.04C9.12 10.04 10.04 9.12 10.04 8C10.04 6.87 9.12 5.95 8 5.95C6.87 5.95 5.95 6.87 5.95 8Z" stroke="#000000" stroke-opacity="0" stroke-width="1.000000"/>
	</g>
</svg>
