<svg width="24.000000" height="24.000000" viewBox="0 0 24 24" fill="none" xmlns="http://www.w3.org/2000/svg" xmlns:xlink="http://www.w3.org/1999/xlink">
	<desc>
			Created with Pixso.
	</desc>
	<defs>
		<clipPath id="clip14_17">
			<rect width="24.000000" height="24.000000" fill="white" fill-opacity="0"/>
		</clipPath>
	</defs>
	<g clip-path="url(#clip14_17)">
		<g opacity="0.000000">
			<rect width="24.000000" height="24.000000" fill="#000000" fill-opacity="1.000000"/>
		</g>
		<path d="M11.23 13.97C11.23 14.17 11.16 14.35 11.02 14.5C10.87 14.64 10.69 14.71 10.49 14.71L9.64 14.71L9.64 19.44C9.64 19.64 9.57 19.82 9.42 19.96C9.26 20.11 9.08 20.18 8.88 20.18C8.67 20.18 8.49 20.11 8.35 19.96C8.21 19.82 8.14 19.64 8.14 19.44L8.14 14.71L7.32 14.71C7.11 14.71 6.93 14.64 6.78 14.5C6.62 14.35 6.55 14.17 6.55 13.97C6.55 13.76 6.62 13.58 6.78 13.44C6.93 13.29 7.11 13.22 7.32 13.22L8.14 13.22L8.14 12C8.14 11.79 8.21 11.61 8.35 11.47C8.49 11.33 8.67 11.26 8.88 11.26C9.08 11.26 9.26 11.33 9.42 11.47C9.57 11.61 9.64 11.79 9.64 12L9.64 13.22L10.49 13.22C10.69 13.22 10.87 13.29 11.02 13.44C11.16 13.58 11.23 13.76 11.23 13.97ZM17.4 16.7C17.6 16.7 17.78 16.77 17.94 16.92C18.09 17.06 18.17 17.24 18.17 17.45C18.17 17.65 18.09 17.83 17.94 17.98C17.78 18.12 17.6 18.19 17.4 18.19L16.56 18.19L16.56 19.44C16.56 19.64 16.48 19.82 16.34 19.96C16.2 20.11 16.02 20.18 15.82 20.18C15.6 20.18 15.43 20.11 15.29 19.96C15.14 19.82 15.07 19.64 15.07 19.44L15.07 18.19L14.23 18.19C14.02 18.19 13.84 18.12 13.7 17.98C13.56 17.83 13.49 17.65 13.49 17.45C13.49 17.24 13.56 17.06 13.7 16.92C13.84 16.77 14.02 16.7 14.23 16.7L15.07 16.7L15.07 12C15.07 11.79 15.14 11.61 15.29 11.47C15.43 11.33 15.6 11.26 15.82 11.26C16.02 11.26 16.2 11.33 16.34 11.47C16.48 11.61 16.56 11.79 16.56 12L16.56 16.7L17.4 16.7ZM1.46 11.47C1.6 11.61 1.78 11.69 1.99 11.69C2.19 11.69 2.37 11.62 2.52 11.5L10.61 3.84C11.01 3.45 11.47 3.26 12.01 3.26C12.55 3.26 13.02 3.45 13.42 3.84L21.48 11.47C21.62 11.61 21.8 11.69 22.01 11.69C22.21 11.69 22.39 11.61 22.54 11.45C22.66 11.3 22.73 11.12 22.73 10.92C22.73 10.71 22.65 10.53 22.51 10.39L14.45 2.76C14 2.32 13.48 2.03 12.89 1.88C12.29 1.73 11.7 1.73 11.11 1.88C10.51 2.03 9.99 2.32 9.55 2.76L1.51 10.39C1.35 10.53 1.27 10.71 1.27 10.92C1.27 11.12 1.33 11.31 1.46 11.47ZM20.37 12.07C19.87 11.59 19.18 10.93 18.29 10.09C17.41 9.25 16.47 8.36 15.48 7.44L13.06 5.14C12.75 4.86 12.39 4.73 11.99 4.73C11.58 4.73 11.22 4.86 10.92 5.14L3.65 12.07C3.52 12.19 3.42 12.33 3.35 12.49C3.27 12.64 3.24 12.8 3.24 12.98L3.24 19.99C3.24 20.39 3.34 20.76 3.55 21.12C3.75 21.47 4.03 21.75 4.38 21.95C4.72 22.15 5.1 22.25 5.5 22.25L18.48 22.25C18.89 22.25 19.27 22.15 19.62 21.95C19.96 21.75 20.24 21.47 20.44 21.13C20.64 20.79 20.74 20.41 20.74 19.99L20.74 12.96C20.74 12.78 20.7 12.62 20.64 12.47C20.57 12.31 20.48 12.18 20.37 12.07Z" fill="#0A59F7" fill-opacity="1.000000" fill-rule="nonzero"/>
	</g>
</svg>
