<svg width="24.000000" height="24.000000" viewBox="0 0 24 24" fill="none" xmlns="http://www.w3.org/2000/svg" xmlns:xlink="http://www.w3.org/1999/xlink">
	<desc>
			Created with Pixso.
	</desc>
	<defs>
		<clipPath id="clip72_221">
			<rect width="24.000000" height="24.000000" fill="white" fill-opacity="0"/>
		</clipPath>
	</defs>
	<g clip-path="url(#clip72_221)">
		<g opacity="0.000000">
			<rect width="24.000000" height="24.000000" fill="#000000" fill-opacity="1.000000"/>
		</g>
		<path d="M12 10.97C12.84 10.97 13.62 10.75 14.34 10.33C15.05 9.91 15.62 9.34 16.04 8.62C16.46 7.9 16.68 7.11 16.68 6.26C16.68 5.41 16.46 4.63 16.04 3.91C15.62 3.19 15.05 2.62 14.34 2.2C13.62 1.77 12.84 1.56 12 1.56C11.13 1.56 10.34 1.77 9.61 2.2C8.89 2.62 8.33 3.19 7.91 3.91C7.5 4.63 7.29 5.41 7.29 6.26C7.29 7.11 7.5 7.9 7.91 8.62C8.33 9.34 8.89 9.91 9.61 10.33C10.34 10.75 11.13 10.97 12 10.97ZM18.74 22.06C19.19 22.06 19.6 21.95 19.96 21.73C20.33 21.51 20.62 21.22 20.84 20.86C21.06 20.48 21.17 20.07 21.17 19.62C21.17 18.27 20.75 17.02 19.92 15.88C19.08 14.73 18.02 13.82 16.73 13.16C15.43 12.5 14.11 12.17 12.79 12.17L11.18 12.17C9.85 12.17 8.54 12.5 7.24 13.16C5.94 13.82 4.88 14.73 4.06 15.88C3.24 17.02 2.82 18.27 2.82 19.62C2.82 20.07 2.93 20.48 3.15 20.86C3.37 21.22 3.66 21.51 4.02 21.73C4.39 21.95 4.79 22.06 5.22 22.06L18.74 22.06Z" fill="#0A59F7" fill-opacity="1.000000" fill-rule="nonzero"/>
	</g>
</svg>
