<svg width="24.000000" height="24.000000" viewBox="0 0 24 24" fill="none" xmlns="http://www.w3.org/2000/svg" xmlns:xlink="http://www.w3.org/1999/xlink">
	<desc>
			Created with Pixso.
	</desc>
	<defs>
		<clipPath id="clip80_14">
			<rect width="24.000000" height="24.000000" fill="white" fill-opacity="0"/>
		</clipPath>
	</defs>
	<g clip-path="url(#clip80_14)">
		<g opacity="0.000000">
			<rect width="24.000000" height="24.000000" fill="#000000" fill-opacity="1.000000"/>
		</g>
		<path d="M16.37 5.90015Q16.37 5.12891 16.1264 4.44458Q15.9909 4.06396 15.78 3.70996Q15.5022 3.23926 15.1313 2.85938Q14.7145 2.43213 14.18 2.12012Q13.7559 1.87402 13.2995 1.73242Q12.6796 1.54004 12 1.54004Q11.2348 1.54004 10.551 1.77588Q10.1624 1.90991 9.79999 2.12012Q9.33501 2.39722 8.95827 2.76465Q8.53288 3.17969 8.21999 3.70996Q8.00909 4.06396 7.87358 4.44458L7.87357 4.44458Q7.62999 5.12891 7.62999 5.90015L7.62999 8.09009C7.62999 8.31006 7.71333 8.50659 7.87999 8.67993Q8.05088 8.84424 8.25202 8.90063Q8.35689 8.92993 8.46999 8.92993Q8.61736 8.92993 8.74782 8.88306Q8.91835 8.82178 9.05999 8.67993C9.22666 8.50659 9.30999 8.31006 9.30999 8.09009L9.30999 5.90015Q9.30999 5.49756 9.42246 5.12964Q9.51121 4.83911 9.66999 4.57007Q9.81703 4.3208 10.0091 4.11353Q10.2873 3.81299 10.66 3.6001Q10.9602 3.42578 11.2839 3.33569L11.2839 3.33569Q11.6287 3.23999 12 3.23999Q12.4024 3.23999 12.7705 3.35254Q13.0609 3.44116 13.33 3.6001Q13.635 3.78003 13.8775 4.02246Q14.12 4.26514 14.3 4.57007Q14.4588 4.83911 14.5475 5.12964Q14.66 5.49756 14.66 5.90015L14.66 8.09009C14.66 8.31006 14.7467 8.50659 14.92 8.67993C15.0867 8.84668 15.29 8.92993 15.53 8.92993C15.75 8.92993 15.9467 8.84668 16.12 8.67993C16.2867 8.50659 16.37 8.31006 16.37 8.09009L16.37 5.90015ZM20.09 8.54004Q20.0551 8.19629 19.9086 7.90991Q19.761 7.62085 19.5 7.39014C19.1533 7.09009 18.75 6.93994 18.29 6.93994L17.38 6.93994L17.38 8.06006Q17.38 8.36938 17.2844 8.64551Q17.2223 8.82471 17.12 8.98999C16.9533 9.27002 16.73 9.49341 16.45 9.66016C16.17 9.82666 15.8633 9.91016 15.53 9.91016Q15.1984 9.91016 14.9049 9.80444Q14.7469 9.74756 14.6 9.66016C14.32 9.49341 14.0967 9.27002 13.93 8.98999Q13.8425 8.84302 13.7857 8.68506L13.7857 8.68506Q13.68 8.3916 13.68 8.06006L13.68 6.93994L10.32 6.93994L10.32 8.06006Q10.32 8.3916 10.2143 8.68506Q10.1575 8.84302 10.07 8.98999C9.90333 9.27002 9.67999 9.49341 9.39999 9.66016Q9.25304 9.74756 9.09508 9.80444Q8.80156 9.91016 8.46999 9.91016Q8.17972 9.91016 7.9164 9.82568Q7.72616 9.76489 7.54999 9.66016C7.26999 9.49341 7.04666 9.27002 6.87999 8.98999Q6.77764 8.82471 6.71558 8.64551Q6.61999 8.36938 6.61999 8.06006L6.61999 6.93994L5.68999 6.93994Q5.39073 6.93994 5.12138 7.02979Q4.78773 7.14111 4.49999 7.39014Q4.23897 7.62085 4.09134 7.90991Q3.94486 8.19629 3.90999 8.54004L2.65999 20.5Q2.63417 20.8357 2.71669 21.1421L2.71673 21.1423Q2.76204 21.3105 2.83999 21.47C2.99333 21.7634 3.21333 22.0034 3.49999 22.1899Q3.70916 22.3184 3.93642 22.3857Q4.1872 22.46 4.45999 22.46L19.51 22.46Q19.8488 22.46 20.1468 22.3496Q20.3149 22.2874 20.47 22.1899C20.7567 22.0034 20.9767 21.7634 21.13 21.47C21.2833 21.1699 21.3433 20.8467 21.31 20.5L20.09 8.54004ZM16.27 12.3501C16.19 12.2766 16.0933 12.24 15.98 12.24L14.81 12.24C14.6633 12.2534 14.55 12.3335 14.47 12.48L12.02 16.6602L9.55 12.4299C9.51667 12.3701 9.47 12.3235 9.41 12.29C9.34333 12.2568 9.27 12.24 9.19 12.24L7.92 12.24C7.80667 12.24 7.71333 12.2734 7.64 12.3401C7.57333 12.4001 7.53 12.48 7.51 12.5801C7.49667 12.6733 7.51333 12.76 7.56 12.8401L10.78 18.3101C10.92 18.5701 11.0933 18.7534 11.3 18.8601C11.5133 18.9734 11.78 19.03 12.1 19.03Q12.2525 19.03 12.396 18.9941Q12.5913 18.9453 12.77 18.8301C12.9767 18.6899 13.1567 18.4968 13.27 18.3101L16.39 12.96C16.4367 12.8467 16.45 12.7334 16.43 12.6201C16.4033 12.5134 16.35 12.4233 16.27 12.3501Z" clip-rule="evenodd" fill="#0A59F7" fill-opacity="1.000000" fill-rule="evenodd"/>
	</g>
</svg>
