<svg width="24.000000" height="24.000000" viewBox="0 0 24 24" fill="none" xmlns="http://www.w3.org/2000/svg" xmlns:xlink="http://www.w3.org/1999/xlink">
	<desc>
			Created with Pixso.
	</desc>
	<defs>
		<clipPath id="clip102_6">
			<rect width="24.000000" height="24.000000" fill="white" fill-opacity="0"/>
		</clipPath>
	</defs>
	<g clip-path="url(#clip102_6)">
		<g opacity="0.000000">
			<rect width="24.000000" height="24.000000" fill="#000000" fill-opacity="1.000000"/>
		</g>
		<path d="M16.37 5.90004C16.37 5.38602 16.2888 4.90089 16.1264 4.44466C16.0361 4.19084 15.9206 3.94597 15.78 3.71004C15.5948 3.39616 15.3786 3.11256 15.1313 2.85928C14.8534 2.57459 14.5363 2.32818 14.18 2.12004C13.8973 1.95606 13.6038 1.82686 13.2995 1.73241C12.8862 1.60416 12.4531 1.54004 12 1.54004C11.4899 1.54004 11.0069 1.61864 10.551 1.77584C10.2919 1.86519 10.0416 1.97992 9.79999 2.12004C9.49001 2.30478 9.20943 2.51967 8.95827 2.7647C8.67468 3.04138 8.42859 3.35649 8.21999 3.71004C8.07939 3.94597 7.96392 4.19084 7.87358 4.44466L7.87357 4.44466C7.71119 4.90089 7.62999 5.38602 7.62999 5.90004L7.62999 8.09004C7.62999 8.31004 7.71333 8.50671 7.87999 8.68004C7.99392 8.78958 8.11793 8.86313 8.25202 8.90067C8.32193 8.92025 8.39459 8.93004 8.46999 8.93004C8.56824 8.93004 8.66085 8.91438 8.74782 8.88307C8.86151 8.84215 8.96557 8.77447 9.05999 8.68004C9.22666 8.50671 9.30999 8.31004 9.30999 8.09004L9.30999 5.90004C9.30999 5.63175 9.34748 5.37492 9.42246 5.12955C9.48162 4.93591 9.56414 4.7494 9.66999 4.57004C9.76801 4.40395 9.88105 4.25175 10.0091 4.11346C10.1946 3.91316 10.4115 3.74202 10.66 3.60004C10.8601 3.48383 11.0681 3.39574 11.2839 3.33581L11.2839 3.3358C11.5137 3.27196 11.7524 3.24004 12 3.24004C12.2683 3.24004 12.5251 3.27753 12.7705 3.35251C12.9641 3.41167 13.1506 3.49419 13.33 3.60004C13.5333 3.72004 13.7158 3.86087 13.8775 4.02254C14.0392 4.1842 14.18 4.36671 14.3 4.57004C14.4058 4.7494 14.4884 4.93591 14.5475 5.12955C14.6225 5.37492 14.66 5.63175 14.66 5.90004L14.66 8.09004C14.66 8.31004 14.7467 8.50671 14.92 8.68004C15.0867 8.8467 15.29 8.93004 15.53 8.93004C15.75 8.93004 15.9467 8.8467 16.12 8.68004C16.2867 8.50671 16.37 8.31004 16.37 8.09004L16.37 5.90004ZM20.09 8.54004C20.0668 8.31094 20.0063 8.10086 19.9086 7.9098C19.8102 7.71722 19.674 7.54398 19.5 7.39004C19.1533 7.09004 18.75 6.94004 18.29 6.94004L17.38 6.94004L17.38 8.06004C17.38 8.2662 17.3481 8.46132 17.2844 8.64542C17.243 8.76494 17.1882 8.87981 17.12 8.99004C16.9533 9.27004 16.73 9.49337 16.45 9.66004C16.17 9.82671 15.8633 9.91004 15.53 9.91004C15.3089 9.91004 15.1006 9.87482 14.9049 9.80437C14.7996 9.76646 14.698 9.71835 14.6 9.66004C14.32 9.49337 14.0967 9.27004 13.93 8.99004C13.8717 8.89208 13.8236 8.79046 13.7857 8.68516L13.7857 8.68513C13.7152 8.48945 13.68 8.28108 13.68 8.06004L13.68 6.94004L10.32 6.94004L10.32 8.06004C10.32 8.28109 10.2848 8.48946 10.2143 8.68514C10.1764 8.79044 10.1283 8.89207 10.07 8.99004C9.90333 9.27004 9.67999 9.49337 9.39999 9.66004C9.30203 9.71835 9.20039 9.76646 9.09508 9.80437C8.8994 9.87482 8.69103 9.91004 8.46999 9.91004C8.27647 9.91004 8.09194 9.88195 7.9164 9.82578C7.78957 9.78519 7.66744 9.72995 7.54999 9.66004C7.26999 9.49337 7.04666 9.27004 6.87999 8.99004C6.81176 8.87981 6.75695 8.76494 6.71558 8.64541C6.65185 8.46132 6.61999 8.26619 6.61999 8.06004L6.61999 6.94004L5.68999 6.94004C5.49048 6.94004 5.30095 6.96996 5.12138 7.02982C4.89894 7.10397 4.69181 7.22404 4.49999 7.39004C4.32598 7.54398 4.18976 7.71722 4.09134 7.9098C3.99368 8.10086 3.93324 8.31094 3.90999 8.54004L2.65999 20.5C2.64278 20.7238 2.66168 20.9379 2.71669 21.1422L2.71673 21.1423C2.74693 21.2545 2.78802 21.3637 2.83999 21.47C2.99333 21.7634 3.21333 22.0034 3.49999 22.19C3.63944 22.2756 3.78492 22.3408 3.93642 22.3857C4.10361 22.4353 4.27813 22.46 4.45999 22.46L19.51 22.46C19.7359 22.46 19.9482 22.4232 20.1468 22.3497C20.2589 22.3082 20.3666 22.255 20.47 22.19C20.7567 22.0034 20.9767 21.7634 21.13 21.47C21.2833 21.17 21.3433 20.8467 21.31 20.5L20.09 8.54004ZM16.27 12.3501C16.19 12.2767 16.0933 12.2401 15.98 12.2401L14.81 12.2401C14.6633 12.2534 14.55 12.3334 14.47 12.48L12.02 16.66L9.55 12.43C9.51667 12.37 9.47 12.3234 9.41 12.29C9.34333 12.2567 9.27 12.2401 9.19 12.2401L7.92 12.2401C7.80667 12.2401 7.71333 12.2734 7.64 12.34C7.57333 12.4 7.53 12.48 7.51 12.58C7.49667 12.6734 7.51333 12.76 7.56 12.84L10.78 18.31C10.92 18.57 11.0933 18.7534 11.3 18.86C11.5133 18.9734 11.78 19.03 12.1 19.03C12.2016 19.03 12.3003 19.0181 12.396 18.9942C12.5262 18.9616 12.6509 18.9069 12.77 18.83C12.9767 18.69 13.1567 18.4967 13.27 18.31L16.39 12.96C16.4367 12.8467 16.45 12.7334 16.43 12.62C16.4033 12.5134 16.35 12.4234 16.27 12.3501Z" clip-rule="evenodd" fill="#747475" fill-opacity="1.000000" fill-rule="evenodd"/>
	</g>
</svg>
