<svg width="14.000000" height="14.000000" viewBox="0 0 14 14" fill="none" xmlns="http://www.w3.org/2000/svg" xmlns:xlink="http://www.w3.org/1999/xlink">
	<desc>
			Created with Pixso.
	</desc>
	<defs>
		<clipPath id="clip126_4955">
			<rect width="14.000000" height="14.000000" transform="matrix(1 0 0 -1 0 14)" fill="white" fill-opacity="0"/>
		</clipPath>
	</defs>
	<g clip-path="url(#clip126_4955)">
		<g opacity="0.000000">
			<rect width="14.000000" height="14.000000" transform="matrix(1 0 0 -1 0 14)" fill="#000000" fill-opacity="1.000000"/>
		</g>
		<path d="M10.64 4.8C10.76 4.8 10.87 4.85 10.96 4.94C11.04 5.02 11.08 5.12 11.08 5.25C11.08 5.37 11.04 5.47 10.96 5.55L7.47 9C7.34 9.13 7.18 9.19 7 9.19C6.82 9.19 6.66 9.13 6.53 9L3.03 5.54C2.95 5.45 2.91 5.35 2.91 5.23C2.91 5.11 2.95 5 3.03 4.92C3.14 4.84 3.25 4.8 3.35 4.8C3.48 4.8 3.58 4.84 3.66 4.92L7 8.23L10.33 4.94C10.42 4.85 10.53 4.8 10.64 4.8Z" fill="#000000" fill-opacity="0.600000" fill-rule="nonzero"/>
	</g>
</svg>
