<svg width="24.000000" height="24.000000" viewBox="0 0 24 24" fill="none" xmlns="http://www.w3.org/2000/svg" xmlns:xlink="http://www.w3.org/1999/xlink">
	<desc>
			Created with Pixso.
	</desc>
	<defs>
		<clipPath id="clip3_1749">
			<rect width="24.000000" height="24.000000" fill="white" fill-opacity="0"/>
		</clipPath>
	</defs>
	<g clip-path="url(#clip3_1749)">
		<g opacity="0.000000">
			<rect width="24.000000" height="24.000000" fill="#000000" fill-opacity="1.000000"/>
		</g>
		<path d="M16.48 9.07C16.31 8.89 16.12 8.81 15.89 8.81C15.69 8.81 15.51 8.89 15.35 9.04C15.2 9.19 15.13 9.38 15.13 9.61C15.13 9.81 15.2 10.01 15.35 10.2C15.88 10.73 16.15 11.38 16.15 12.17C16.15 12.92 15.88 13.59 15.33 14.17C15.17 14.32 15.09 14.51 15.09 14.74C15.09 14.96 15.17 15.14 15.33 15.29C15.49 15.45 15.67 15.53 15.89 15.53C16.12 15.53 16.3 15.45 16.46 15.29C16.87 14.87 17.18 14.39 17.4 13.85C17.63 13.31 17.74 12.75 17.74 12.17C17.74 11.59 17.63 11.03 17.4 10.49C17.18 9.95 16.87 9.48 16.48 9.07ZM19.51 6.17C19.36 6 19.17 5.91 18.94 5.91C18.72 5.91 18.53 5.99 18.38 6.15C18.23 6.3 18.15 6.48 18.15 6.7C18.15 6.93 18.23 7.12 18.38 7.27C19.01 7.9 19.5 8.65 19.86 9.49C20.21 10.34 20.38 11.22 20.38 12.12C20.38 13.04 20.21 13.92 19.87 14.75C19.53 15.58 19.04 16.31 18.41 16.96C18.25 17.12 18.17 17.31 18.17 17.53C18.17 17.75 18.25 17.94 18.41 18.09C18.56 18.25 18.75 18.33 18.97 18.33C19.19 18.33 19.38 18.25 19.54 18.09C20.32 17.31 20.93 16.41 21.35 15.38C21.78 14.35 22 13.27 22 12.14C22 11 21.78 9.91 21.35 8.88C20.93 7.86 20.31 6.95 19.51 6.17ZM11.56 19.4C11.81 19.4 12.05 19.35 12.27 19.25C12.56 19.11 12.8 18.91 12.97 18.63C13.14 18.36 13.22 18.07 13.22 17.76L13.22 6.63C13.22 6.32 13.14 6.03 12.97 5.76C12.8 5.49 12.56 5.28 12.27 5.14C12.05 5.04 11.81 5 11.56 5C11.17 5 10.82 5.11 10.53 5.35L6.87 8.35L4.07 8.35C3.49 8.35 3 8.55 2.59 8.95C2.19 9.35 2 9.85 2 10.42L2 13.94C2 14.52 2.19 15.02 2.59 15.42C3 15.84 3.49 16.04 4.07 16.04L6.87 16.04L10.53 19.04C10.86 19.28 11.2 19.4 11.56 19.4ZM7.43 9.94L11.61 6.63L11.54 17.78L7.43 14.45L4.07 14.45C3.93 14.45 3.82 14.4 3.73 14.3C3.63 14.19 3.59 14.07 3.59 13.94L3.59 10.42C3.59 10.29 3.64 10.17 3.74 10.08C3.84 9.99 3.95 9.94 4.07 9.94L7.43 9.94Z" fill="#000000" fill-opacity="0.600000" fill-rule="nonzero"/>
	</g>
</svg>
