<svg width="12.000000" height="24.000000" viewBox="0 0 12 24" fill="none" xmlns="http://www.w3.org/2000/svg" xmlns:xlink="http://www.w3.org/1999/xlink">
	<desc>
			Created with Pixso.
	</desc>
	<defs/>
	<path id="路径" d="M4.24 5.78L4.28 5.81L9.22 10.76C9.89 11.43 9.91 12.5 9.27 13.19L9.22 13.23L4.28 18.18C4.15 18.31 3.98 18.38 3.81 18.4L3.77 18.4L3.72 18.4C3.54 18.4 3.36 18.32 3.21 18.18C2.93 17.9 2.92 17.45 3.18 17.15L3.21 17.12L7.81 12.53C8.09 12.24 8.1 11.79 7.84 11.5L7.81 11.46L3.21 6.87C2.92 6.58 2.92 6.1 3.21 5.81C3.36 5.67 3.54 5.59 3.72 5.59L3.77 5.59C3.94 5.59 4.11 5.66 4.24 5.78Z" fill="#000000" fill-opacity="0" fill-rule="evenodd"/>
	<mask id="mask44_3755" maskUnits="userSpaceOnUse" x="2.999786" y="5.593262" width="6.742640" height="12.813077">
		<path id="路径" d="M4.24 5.78L4.28 5.81L9.22 10.76C9.89 11.43 9.91 12.5 9.27 13.19L9.22 13.23L4.28 18.18C4.15 18.31 3.98 18.38 3.81 18.4L3.77 18.4L3.72 18.4C3.54 18.4 3.36 18.32 3.21 18.18C2.93 17.9 2.92 17.45 3.18 17.15L3.21 17.12L7.81 12.53C8.09 12.24 8.1 11.79 7.84 11.5L7.81 11.46L3.21 6.87C2.92 6.58 2.92 6.1 3.21 5.81C3.36 5.67 3.54 5.59 3.72 5.59L3.77 5.59C3.94 5.59 4.11 5.66 4.24 5.78Z" fill="#C4C4C4" fill-opacity="1.000000" fill-rule="evenodd"/>
	</mask>
	<g mask="url(#mask44_3755)">
		<rect id="color/#000000" width="12.000000" height="24.000000" fill="#000000" fill-opacity="1.000000"/>
	</g>
</svg>
