<svg width="24.000000" height="24.000000" viewBox="0 0 24 24" fill="none" xmlns="http://www.w3.org/2000/svg" xmlns:xlink="http://www.w3.org/1999/xlink">
	<desc>
			Created with Pixso.
	</desc>
	<defs>
		<clipPath id="clip36_3379">
			<rect id="ic_public_add_norm" width="24.000000" height="24.000000" fill="white" fill-opacity="0"/>
		</clipPath>
	</defs>
	<g clip-path="url(#clip36_3379)">
		<path id="path-1" d="M12 1C18.07 1 23 5.92 23 12C23 18.07 18.07 23 12 23C5.92 23 1 18.07 1 12C1 5.92 5.92 1 12 1ZM12 2.5C6.75 2.5 2.5 6.75 2.5 12C2.5 17.24 6.75 21.5 12 21.5C17.24 21.5 21.5 17.24 21.5 12C21.5 6.75 17.24 2.5 12 2.5ZM12.75 17.25C12.75 17.66 12.41 18 12 18C11.58 18 11.25 17.66 11.25 17.25L11.25 12.74L6.75 12.75C6.33 12.75 6 12.41 6 12C6 11.58 6.33 11.25 6.75 11.25L11.25 11.24L11.25 6.75C11.25 6.33 11.58 6 12 6C12.41 6 12.75 6.33 12.75 6.75L12.75 17.25ZM17.25 11.25C17.66 11.25 18 11.58 18 12C18 12.41 17.66 12.75 17.25 12.75L13.75 12.75L13.75 11.25L17.25 11.25Z" fill="#E84026" fill-opacity="1.000000" fill-rule="nonzero"/>
	</g>
</svg>
