<svg width="24.000000" height="25.494385" viewBox="0 0 24 25.4944" fill="none" xmlns="http://www.w3.org/2000/svg" xmlns:xlink="http://www.w3.org/1999/xlink">
	<desc>
			Created with Pixso.
	</desc>
	<defs>
		<filter id="filter_54_8624_dd" x="0.500000" y="2.500000" width="23.000000" height="22.994385" filterUnits="userSpaceOnUse" color-interpolation-filters="sRGB">
			<feFlood flood-opacity="0" result="BackgroundImageFix"/>
			<feColorMatrix in="SourceAlpha" type="matrix" values="0 0 0 0 0 0 0 0 0 0 0 0 0 0 0 0 0 0 127 0" result="hardAlpha"/>
			<feOffset dx="0" dy="2"/>
			<feGaussianBlur stdDeviation="1.5"/>
			<feComposite in2="hardAlpha" operator="out" k2="-1" k3="1"/>
			<feColorMatrix type="matrix" values="0 0 0 0 0.39216 0 0 0 0 0.73333 0 0 0 0 0.36078 0 0 0 0.5 0"/>
			<feBlend mode="normal" in2="BackgroundImageFix" result="effect_dropShadow_1"/>
			<feBlend mode="normal" in="SourceGraphic" in2="effect_dropShadow_1" result="shape"/>
		</filter>
		<linearGradient x1="12.000000" y1="0.000000" x2="12.000000" y2="24.000000" id="paint_linear_54_8623_0" gradientUnits="userSpaceOnUse">
			<stop stop-color="#64BB5C" stop-opacity="0.000000"/>
			<stop offset="1.000000" stop-color="#64BB5C" stop-opacity="0.200000"/>
		</linearGradient>
	</defs>
	<circle id="椭圆 22" cx="12.000000" cy="12.000000" r="12.000000" fill="url(#paint_linear_54_8623_0)" fill-opacity="1.000000"/>
	<g filter="url(#filter_54_8624_dd)">
		<path id="path" d="M18.99 9.89L18.99 16.89C18.99 18.05 18.05 18.99 16.89 18.99L7.09 18.99C5.94 18.99 5 18.05 5 16.89L5 9.89L18.99 9.89ZM16.33 14.98L14.09 14.98C13.7 14.98 13.39 15.3 13.39 15.68C13.39 16.07 13.7 16.38 14.09 16.38L16.33 16.38C16.71 16.38 17.03 16.07 17.03 15.68C17.03 15.3 16.71 14.98 16.33 14.98Z" fill="#64BB5C" fill-opacity="1.000000" fill-rule="evenodd"/>
		<path id="path" d="M18.99 16.89C18.99 18.05 18.05 18.99 16.89 18.99L7.09 18.99C5.94 18.99 5 18.05 5 16.89L5 9.89L18.99 9.89L18.99 16.89ZM14.09 14.98C13.7 14.98 13.39 15.3 13.39 15.68C13.39 16.07 13.7 16.38 14.09 16.38L16.33 16.38C16.71 16.38 17.03 16.07 17.03 15.68C17.03 15.3 16.71 14.98 16.33 14.98L14.09 14.98Z" stroke="#000000" stroke-opacity="0" stroke-width="1.018237"/>
		<g opacity="0.400000">
			<path id="path" d="M15.77 5C16.58 5 17.32 5.44 17.71 6.15L18.81 8.18C18.91 8.37 18.98 8.58 18.99 8.79L5.01 8.79C5.03 8.59 5.1 8.4 5.2 8.23L6.44 6.09C6.83 5.41 7.56 5 8.35 5L15.77 5Z" fill="#64BB5C" fill-opacity="1.000000" fill-rule="evenodd"/>
			<path id="path" d="M17.71 6.15L18.81 8.18C18.91 8.37 18.98 8.58 18.99 8.79L5.01 8.79C5.03 8.59 5.1 8.4 5.2 8.23L6.44 6.09C6.83 5.41 7.56 5 8.35 5L15.77 5C16.58 5 17.32 5.44 17.71 6.15Z" stroke="#000000" stroke-opacity="0" stroke-width="1.018237"/>
		</g>
		<path id="path" d="M19 8.92L19 10.24L5 10.24L5 9.04C5 8.91 5.01 8.78 5.05 8.65L18.97 8.65C18.99 8.74 19 8.83 19 8.92Z" fill="#64BB5C" fill-opacity="1.000000" fill-rule="evenodd"/>
		<path id="path" d="M19 10.24L5 10.24L5 9.04C5 8.91 5.01 8.78 5.05 8.65L18.97 8.65C18.99 8.74 19 8.83 19 8.92L19 10.24Z" stroke="#000000" stroke-opacity="0" stroke-width="1.018237"/>
	</g>
</svg>
