<svg width="16.000000" height="16.000000" viewBox="0 0 16 16" fill="none" xmlns="http://www.w3.org/2000/svg" xmlns:xlink="http://www.w3.org/1999/xlink">
	<desc>
			Created with Pixso.
	</desc>
	<defs/>
	<rect id="矩形 115" rx="2.666667" width="16.000000" height="16.000000" fill="#64BB5C" fill-opacity="1.000000"/>
	<path id="剩" d="M10.09 10.37L9.27 10.37L9.43 10.97L10.24 10.97Q10.36 10.97 10.48 10.95Q10.62 10.94 10.75 10.9Q10.87 10.87 10.96 10.81Q11.12 10.69 11.15 10.54Q11.15 10.53 11.16 10.53Q11.2 10.34 11.21 10.15Q11.21 10.12 11.21 10.09L11.21 4.09L10.68 4.09L10.68 9.84Q10.68 10 10.65 10.13Q10.62 10.2 10.58 10.26Q10.57 10.27 10.56 10.28Q10.5 10.31 10.4 10.34Q10.24 10.37 10.09 10.37ZM4.27 10.25L4.59 10.75Q4.92 10.5 5.24 10.23Q5.48 10.03 5.72 9.81Q6.02 9.51 6.27 9.17Q6.35 9.06 6.43 8.93L6.43 11.09L6.96 11.09L6.96 9.06Q7.87 9.78 8.75 10.53L9.12 10.13Q8.18 9.34 7.21 8.59L6.96 8.93L6.96 6.15L9 6.15L9 5.65L6.96 5.65L6.96 4.84Q7.09 4.83 7.22 4.82Q7.91 4.76 8.59 4.65L8.52 4.15Q6.65 4.41 4.81 4.47L4.83 4.97Q5.62 4.93 6.43 4.87L6.43 5.65L4.43 5.65L4.43 6.15L6.43 6.15L6.43 8Q6.31 8.26 6.16 8.49Q5.88 8.92 5.5 9.28Q4.93 9.84 4.27 10.25ZM9.43 4.75L9.43 9.34L9.93 9.34L9.93 4.75L9.43 4.75ZM5.4 6.37L5.4 6.87L4.5 6.87L4.5 7.34L5.4 7.34L5.4 7.84L4.4 8.18L4.5 8.65L5.4 8.34L5.4 8.72L5.87 8.72L5.87 6.37L5.4 6.37ZM8 6.37L7.52 6.37L7.52 8.18Q7.52 8.21 7.52 8.24Q7.53 8.34 7.56 8.44Q7.59 8.56 7.65 8.62Q7.71 8.67 7.78 8.7Q7.89 8.75 8.03 8.75L8.4 8.75Q8.56 8.75 8.72 8.72Q8.79 8.7 8.85 8.65Q8.88 8.62 8.9 8.59Q8.96 8.53 9.03 8.47Q9.06 8.34 9.06 8.18Q9.06 7.93 9.09 7.69L8.65 7.59L8.65 7.93Q8.65 8.03 8.62 8.13Q8.62 8.17 8.6 8.2Q8.59 8.21 8.59 8.21Q8.58 8.22 8.57 8.22Q8.49 8.28 8.37 8.28L8.21 8.28Q8.1 8.28 8.03 8.22Q8.03 8.22 8.03 8.21Q7.97 8.1 7.99 8.01Q7.99 8 8 8L8 7.59Q8.52 7.37 9.03 7.03L8.78 6.62Q8.4 6.87 8 7.09L8 6.37Z" fill="#FFFFFF" fill-opacity="1.000000" fill-rule="evenodd"/>
</svg>
