<svg width="24.000000" height="24.000000" viewBox="0 0 24 24" fill="none" xmlns="http://www.w3.org/2000/svg" xmlns:xlink="http://www.w3.org/1999/xlink">
	<desc>
			Created with Pixso.
	</desc>
	<defs>
		<clipPath id="clip8_3270">
			<rect id="ic_public_phone" width="24.000000" height="24.000000" fill="white" fill-opacity="0"/>
		</clipPath>
	</defs>
	<g clip-path="url(#clip8_3270)">
		<path id="path-1" d="M5.16 2.15C4.57 2.29 4.01 2.67 3.45 3.28C2.36 4.37 1.86 5.99 2.2 7.49C2.84 10.21 4.91 13.46 7.7 16.28C10.53 19.08 13.78 21.15 16.5 21.79C17.94 22.09 19.54 21.67 20.6 20.64C21.28 20.04 21.73 19.39 21.85 18.75C22.04 17.8 21.67 16.83 20.91 16.22L18.89 14.58C17.97 13.76 16.59 13.78 15.69 14.61L14.68 15.68C14.55 15.81 14.32 15.84 14.15 15.73C13.31 15.21 12.13 14.19 10.98 13.02L10.76 12.81C9.67 11.72 8.75 10.63 8.26 9.84C8.15 9.67 8.18 9.44 8.33 9.29L9.3 8.37C10.13 7.48 10.23 6.07 9.46 5.16L9.35 5.03L8.22 3.64C8.07 3.44 7.91 3.25 7.77 3.08C7.16 2.32 6.11 1.97 5.16 2.15ZM20.38 18.47C20.33 18.73 20.09 19.08 19.63 19.49C18.91 20.22 17.83 20.55 16.83 20.32C14.42 19.76 11.4 17.84 8.76 15.22C6.15 12.59 4.23 9.57 3.66 7.15C3.44 6.19 3.72 5.17 4.41 4.45C4.81 3.99 5.26 3.66 5.52 3.61C5.92 3.53 6.34 3.69 6.6 4.02L8.02 5.77L8.33 6.14C8.59 6.47 8.58 6.96 8.28 7.27L7.28 8.22C6.63 8.87 6.51 9.87 6.99 10.64C7.58 11.59 8.67 12.86 9.91 14.08L10.15 14.32C11.29 15.46 12.46 16.45 13.35 17C14.11 17.44 15.13 17.35 15.76 16.72L16.7 15.73C17 15.44 17.51 15.4 17.85 15.66L18.04 15.82C18.38 16.1 19.25 16.8 19.97 17.39C20.3 17.65 20.46 18.07 20.38 18.47Z" fill="#000000" fill-opacity="1.000000" fill-rule="nonzero"/>
		<path id="path-1" d="M3.45 3.28C2.36 4.37 1.86 5.99 2.2 7.49C2.84 10.21 4.91 13.46 7.7 16.28C10.53 19.08 13.78 21.15 16.5 21.79C17.94 22.09 19.54 21.67 20.6 20.64C21.28 20.04 21.73 19.39 21.85 18.75C22.04 17.8 21.67 16.83 20.91 16.22L18.89 14.58C17.97 13.76 16.59 13.78 15.69 14.61L14.68 15.68C14.55 15.81 14.32 15.84 14.15 15.73C13.31 15.21 12.13 14.19 10.98 13.02L10.76 12.81C9.67 11.72 8.75 10.63 8.26 9.84C8.15 9.67 8.18 9.44 8.33 9.29L9.3 8.37C10.13 7.48 10.23 6.07 9.46 5.16L9.35 5.03L8.22 3.64C8.07 3.44 7.91 3.25 7.77 3.08C7.16 2.32 6.11 1.97 5.16 2.15C4.57 2.29 4.01 2.67 3.45 3.28ZM19.63 19.49C18.91 20.22 17.83 20.55 16.83 20.32C14.42 19.76 11.4 17.84 8.76 15.22C6.15 12.59 4.23 9.57 3.66 7.15C3.44 6.19 3.72 5.17 4.41 4.45C4.81 3.99 5.26 3.66 5.52 3.61C5.92 3.53 6.34 3.69 6.6 4.02L8.02 5.77L8.33 6.14C8.59 6.47 8.58 6.96 8.28 7.27L7.28 8.22C6.63 8.87 6.51 9.87 6.99 10.64C7.58 11.59 8.67 12.86 9.91 14.08L10.15 14.32C11.29 15.46 12.46 16.45 13.35 17C14.11 17.44 15.13 17.35 15.76 16.72L16.7 15.73C17 15.44 17.51 15.4 17.85 15.66L18.04 15.82C18.38 16.1 19.25 16.8 19.97 17.39C20.3 17.65 20.46 18.07 20.38 18.47C20.33 18.73 20.09 19.08 19.63 19.49Z" stroke="#000000" stroke-opacity="0" stroke-width="1.000000"/>
	</g>
</svg>
