<svg width="50.000366" height="49.000000" viewBox="0 0 50.0004 49" fill="none" xmlns="http://www.w3.org/2000/svg" xmlns:xlink="http://www.w3.org/1999/xlink">
	<desc>
			Created with Pixso.
	</desc>
	<defs>
		<filter id="filter_7_11412_dd" x="0.000000" y="0.000000" width="50.000366" height="44.000000" filterUnits="userSpaceOnUse" color-interpolation-filters="sRGB">
			<feFlood flood-opacity="0" result="BackgroundImageFix"/>
			<feColorMatrix in="SourceAlpha" type="matrix" values="0 0 0 0 0 0 0 0 0 0 0 0 0 0 0 0 0 0 127 0" result="hardAlpha"/>
			<feOffset dx="0" dy="4"/>
			<feGaussianBlur stdDeviation="3"/>
			<feComposite in2="hardAlpha" operator="out" k2="-1" k3="1"/>
			<feColorMatrix type="matrix" values="0 0 0 0 0.27843 0 0 0 0 0.58824 0 0 0 0 0.76863 0 0 0 0.5 0"/>
			<feBlend mode="normal" in2="BackgroundImageFix" result="effect_dropShadow_1"/>
			<feBlend mode="normal" in="SourceGraphic" in2="effect_dropShadow_1" result="shape"/>
		</filter>
		<linearGradient x1="25.000000" y1="1.000000" x2="25.000000" y2="49.000000" id="paint_linear_7_11409_0" gradientUnits="userSpaceOnUse">
			<stop stop-color="#4AB1DB" stop-opacity="0.000000"/>
			<stop offset="1.000000" stop-color="#4AB1DB" stop-opacity="0.200000"/>
		</linearGradient>
	</defs>
	<circle id="椭圆 9" cx="25.000000" cy="25.000000" r="24.000000" fill="url(#paint_linear_7_11409_0)" fill-opacity="1.000000"/>
	<g filter="url(#filter_7_11412_dd)">
		<path id="合并" d="M40.884 8.92163C40.9614 9.27246 41 9.63208 41 10L41.0004 13.9573C41.0004 14.1357 40.9558 14.3025 40.8666 14.457C40.7775 14.6118 40.6556 14.7336 40.501 14.823C40.2222 14.9844 39.9722 15.1746 39.7509 15.3938C39.5289 15.6138 39.3359 15.863 39.1718 16.1414C39.0121 16.4124 38.8903 16.6941 38.8063 16.9868C38.7132 17.311 38.6667 17.6489 38.6667 18C38.6667 18.3511 38.7132 18.6887 38.8063 19.0132C38.8903 19.3059 39.0121 19.5876 39.1718 19.8586C39.3359 20.137 39.5289 20.3862 39.7509 20.6062C39.9722 20.8254 40.2222 21.0156 40.501 21.177C40.6556 21.2664 40.7774 21.3882 40.8666 21.543C40.9558 21.6975 41.0004 21.8643 41.0004 22.0427L41 26C41 26.3677 40.9614 26.7266 40.8843 27.0771C40.8192 27.373 40.7267 27.6628 40.6067 27.9465C40.4864 28.231 40.3426 28.4998 40.1754 28.7532C39.9907 29.033 39.7775 29.2937 39.5355 29.5356C39.2936 29.7773 39.0328 29.9907 38.7532 30.1753C38.4998 30.3425 38.2309 30.4863 37.9465 30.6067C37.6631 30.7266 37.3738 30.8191 37.0783 30.884C36.7274 30.9614 36.368 31 36 31L14 31C13.632 31 13.2726 30.9614 12.9217 30.884L12.9216 30.884C12.6262 30.8191 12.3369 30.7266 12.0535 30.6067C11.7691 30.4863 11.5002 30.3425 11.2468 30.1753C10.9672 29.9907 10.7064 29.7773 10.4645 29.5356C10.2226 29.2937 10.0093 29.0327 9.82465 28.7532L9.82458 28.7529C9.65735 28.4998 9.51361 28.231 9.39331 27.9465C9.2735 27.6631 9.18103 27.3738 9.11597 27.0784C9.03864 26.7273 9 26.3679 9 26L9.00018 22.0422C9.00018 21.8638 9.04474 21.6973 9.13391 21.5427C9.22308 21.3879 9.34491 21.2661 9.49939 21.1768C9.7782 21.0154 10.0282 20.8252 10.2495 20.6057C10.4713 20.3857 10.6643 20.1367 10.8283 19.8584C10.988 19.5876 11.1098 19.3059 11.1937 19.0132C11.2868 18.6887 11.3333 18.3511 11.3333 18C11.3333 17.6489 11.2868 17.3113 11.1938 16.9868L11.1937 16.9868C11.1098 16.6941 10.988 16.4124 10.8283 16.1416C10.6643 15.8633 10.4713 15.6143 10.2495 15.3943C10.0282 15.1748 9.7782 14.9846 9.49939 14.8232C9.42218 14.7786 9.35309 14.7258 9.29218 14.6648C9.23126 14.6038 9.17853 14.5347 9.13391 14.4573C9.04474 14.3027 9.00018 14.1362 9.00018 13.9578L9 10C9 9.63184 9.0387 9.27222 9.11603 8.92114C9.18109 8.62598 9.27356 8.33667 9.39331 8.05347C9.51361 7.76904 9.65741 7.50024 9.82465 7.24683C10.0093 6.96704 10.2226 6.7063 10.4645 6.46436C10.7064 6.22266 10.9672 6.00928 11.2468 5.82471L11.2469 5.82471C11.5002 5.65747 11.7691 5.51367 12.0535 5.39331C12.3369 5.27344 12.6262 5.18091 12.9217 5.11597C13.2726 5.03857 13.632 5 14 5L36 5C36.3679 5 36.7274 5.03857 37.0783 5.11597C37.3737 5.18091 37.6631 5.27344 37.9465 5.39331C38.231 5.51367 38.4998 5.65747 38.7532 5.82471C39.0328 6.00928 39.2936 6.22266 39.5355 6.46436C39.7775 6.7063 39.9907 6.96729 40.1754 7.24683L40.1754 7.24683C40.3427 7.50024 40.4864 7.76904 40.6067 8.05347C40.7265 8.33691 40.819 8.62622 40.884 8.92163Z" clip-rule="evenodd" fill="#46B1E3" fill-opacity="1.000000" fill-rule="evenodd"/>
	</g>
	<line id="path5" x1="25.000000" y1="23.000000" x2="25.000000" y2="12.333252" stroke="#FFFFFF" stroke-opacity="1.000000" stroke-width="2.000000"/>
</svg>
