<svg width="24.000000" height="24.000000" viewBox="0 0 24 24" fill="none" xmlns="http://www.w3.org/2000/svg" xmlns:xlink="http://www.w3.org/1999/xlink">
	<desc>
			Created with Pixso.
	</desc>
	<defs>
		<clipPath id="clip10_932">
			<rect width="24.000000" height="24.000000" fill="white" fill-opacity="0"/>
		</clipPath>
	</defs>
	<g clip-path="url(#clip10_932)">
		<g opacity="0.000000">
			<rect width="24.000000" height="24.000000" fill="#000000" fill-opacity="1.000000"/>
		</g>
		<path d="M21.24 16.68C21.72 16.68 22.13 16.5 22.47 16.16C22.82 15.81 22.99 15.4 22.99 14.92L22.99 12.93C22.99 12.45 22.82 12.04 22.47 11.7C22.13 11.35 21.72 11.18 21.24 11.18L17.23 11.18C16.48 11.18 15.83 11.45 15.3 12C14.76 12.54 14.49 13.19 14.49 13.94C14.49 14.69 14.76 15.34 15.3 15.87C15.83 16.41 16.48 16.68 17.23 16.68L21.24 16.68ZM21.24 12.69C21.4 12.69 21.48 12.77 21.48 12.93L21.48 14.92C21.48 15 21.45 15.07 21.4 15.12C21.36 15.17 21.3 15.19 21.24 15.19L17.23 15.19C16.87 15.19 16.58 15.07 16.34 14.83C16.1 14.59 15.98 14.29 15.98 13.94C15.98 13.59 16.1 13.29 16.34 13.05C16.58 12.81 16.87 12.69 17.23 12.69L21.24 12.69ZM21.24 9.88C21.35 9.88 21.6 9.92 22 10L22 9.62C22 8.95 21.83 8.33 21.5 7.75C21.16 7.17 20.71 6.71 20.13 6.38C19.56 6.04 18.93 5.88 18.26 5.88L17.47 3.96C17.26 3.4 16.92 2.95 16.45 2.62C15.98 2.3 15.46 2.13 14.9 2.13C14.56 2.13 14.25 2.19 13.96 2.3L3.72 6.02C2.93 6.24 2.28 6.69 1.77 7.35C1.26 8.02 1 8.77 1 9.62L1 18.12C1 18.79 1.17 19.41 1.51 19.99C1.84 20.57 2.3 21.02 2.88 21.36C3.45 21.69 4.08 21.86 4.75 21.86L18.26 21.86C18.93 21.86 19.56 21.69 20.13 21.36C20.71 21.02 21.16 20.57 21.5 19.99C21.83 19.41 22 18.79 22 18.12L22 17.87C21.73 17.95 21.48 18 21.24 18L20.52 18L20.52 18.12C20.52 18.74 20.29 19.27 19.86 19.71C19.42 20.15 18.88 20.37 18.26 20.37L4.75 20.37C4.14 20.37 3.62 20.15 3.17 19.71C2.73 19.27 2.52 18.74 2.52 18.12L2.52 9.62C2.52 8.99 2.73 8.46 3.17 8.02C3.62 7.58 4.14 7.36 4.75 7.36L18.26 7.36C18.88 7.36 19.42 7.58 19.86 8.02C20.29 8.46 20.52 8.99 20.52 9.62L20.52 9.88L21.24 9.88ZM14.47 3.72C14.61 3.67 14.75 3.64 14.9 3.64C15.15 3.64 15.39 3.71 15.61 3.86C15.83 4 15.98 4.2 16.08 4.46L16.58 5.88L8.52 5.88L14.47 3.72Z" fill="#191919" fill-opacity="1.000000" fill-rule="nonzero"/>
		<path d="M21.23 16.68C21.71 16.68 22.13 16.5 22.47 16.16C22.82 15.81 22.99 15.4 22.99 14.92L22.99 12.93C22.99 12.45 22.82 12.04 22.47 11.7C22.13 11.35 21.71 11.18 21.23 11.18L17.23 11.18C16.47 11.18 15.83 11.45 15.29 12C14.76 12.54 14.49 13.19 14.49 13.94C14.49 14.69 14.76 15.34 15.29 15.87C15.83 16.41 16.47 16.68 17.23 16.68L21.23 16.68ZM21.23 12.69C21.4 12.69 21.47 12.77 21.47 12.93L21.47 14.92C21.47 15 21.45 15.07 21.4 15.12C21.35 15.17 21.3 15.19 21.23 15.19L17.23 15.19C16.87 15.19 16.58 15.07 16.34 14.83C16.1 14.59 15.98 14.29 15.98 13.94C15.98 13.59 16.1 13.29 16.34 13.05C16.58 12.81 16.87 12.69 17.23 12.69L21.23 12.69Z" fill="#E4480C" fill-opacity="1.000000" fill-rule="nonzero"/>
	</g>
</svg>
