<svg width="24.000000" height="24.000000" viewBox="0 0 24 24" fill="none" xmlns="http://www.w3.org/2000/svg" xmlns:xlink="http://www.w3.org/1999/xlink">
	<desc>
			Created with Pixso.
	</desc>
	<defs>
		<clipPath id="clip10_960">
			<rect width="24.000000" height="24.000000" fill="white" fill-opacity="0"/>
		</clipPath>
	</defs>
	<g clip-path="url(#clip10_960)">
		<g opacity="0.000000">
			<rect width="24.000000" height="24.000000" fill="#000000" fill-opacity="1.000000"/>
		</g>
		<path d="M4.12 2.01C3.53 2.01 3.03 2.21 2.61 2.62C2.2 3.03 1.99 3.53 1.99 4.12L1.99 13.77C1.99 14.16 2.08 14.51 2.28 14.83C2.46 15.15 2.72 15.41 3.04 15.6L2.78 15.84C2.52 16.04 2.33 16.3 2.19 16.6C2.06 16.91 1.99 17.22 1.99 17.54L1.99 19.94C1.99 20.5 2.19 20.98 2.59 21.38C2.99 21.78 3.47 21.98 4.03 21.98L11.2 21.98C11.67 21.98 12.11 21.89 12.52 21.72C12.94 21.54 13.3 21.29 13.6 20.97L18.67 15.91L19.87 15.91C20.46 15.91 20.96 15.7 21.38 15.28C21.79 14.87 22 14.36 22 13.77L22 4.12C22 3.54 21.79 3.05 21.38 2.63C20.96 2.22 20.46 2.01 19.87 2.01L4.12 2.01ZM19.87 3.67C20 3.67 20.11 3.71 20.2 3.8C20.3 3.89 20.35 3.99 20.35 4.12L20.35 5.99L3.64 5.99L3.64 4.12C3.64 3.99 3.69 3.89 3.79 3.8C3.89 3.71 4 3.67 4.12 3.67L19.87 3.67ZM12.45 19.82C12.1 20.17 11.68 20.35 11.2 20.35L4.03 20.35C3.92 20.35 3.82 20.31 3.75 20.23C3.68 20.15 3.64 20.06 3.64 19.96L3.64 17.56C3.64 17.36 3.71 17.2 3.86 17.08L6.98 14.35L9.62 11.44C9.91 11.16 10.22 11.01 10.55 11.01C10.83 11.01 11.06 11.12 11.28 11.32C11.49 11.53 11.56 11.78 11.52 12.07C11.45 12.36 11.35 12.62 11.2 12.87C11.06 13.12 10.92 13.33 10.78 13.51C10.65 13.69 10.56 13.8 10.53 13.84C10.39 14 10.29 14.13 10.24 14.23C10.06 14.49 9.7 14.88 9.16 15.4C8.62 15.93 8.17 16.36 7.8 16.68C7.62 16.82 7.53 17.02 7.53 17.28C7.53 17.49 7.6 17.68 7.75 17.85C7.89 18.03 8.09 18.12 8.35 18.12C8.57 18.12 8.76 18.04 8.92 17.9C8.97 17.85 9.22 17.62 9.67 17.2C10.12 16.79 10.55 16.36 10.96 15.91L16.34 15.91L12.45 19.82ZM12.28 14.25C12.73 13.61 13.01 13 13.12 12.4C13.16 12.18 13.17 12.02 13.17 11.92C13.17 11.25 12.93 10.66 12.45 10.15C11.91 9.63 11.29 9.38 10.6 9.38C9.87 9.38 9.16 9.67 8.47 10.27L5.83 13.17L4.58 14.25L4.12 14.25C4 14.25 3.89 14.21 3.79 14.11C3.69 14.01 3.64 13.9 3.64 13.77L3.64 7.48L20.35 7.48L20.35 13.77C20.35 13.9 20.3 14.01 20.2 14.11C20.11 14.21 20 14.25 19.87 14.25L12.28 14.25Z" fill="#191919" fill-opacity="1.000000" fill-rule="nonzero"/>
		<path d="M20.35 6L3.64 6L3.64 7.48L20.35 7.48L20.35 6Z" fill="#E4480C" fill-opacity="1.000000" fill-rule="evenodd"/>
	</g>
</svg>
