<svg width="24.000000" height="24.000000" viewBox="0 0 24 24" fill="none" xmlns="http://www.w3.org/2000/svg" xmlns:xlink="http://www.w3.org/1999/xlink">
	<desc>
			Created with Pixso.
	</desc>
	<defs>
		<clipPath id="clip10_953">
			<rect id="svg" width="24.000000" height="24.000000" fill="white" fill-opacity="0"/>
		</clipPath>
	</defs>
	<g clip-path="url(#clip10_953)">
		<g opacity="0.000000">
			<rect id="rect" width="24.000000" height="24.000000" fill="#000000" fill-opacity="1.000000"/>
		</g>
		<path id="path" d="M12 22.75C13.93 22.75 15.72 22.26 17.37 21.3C19.02 20.33 20.33 19.02 21.3 17.37C22.26 15.72 22.75 13.93 22.75 12C22.75 10.06 22.26 8.27 21.3 6.62C20.33 4.97 19.02 3.66 17.37 2.69C15.72 1.73 13.93 1.24 12 1.24C10.04 1.24 8.24 1.73 6.59 2.69C4.95 3.66 3.64 4.97 2.68 6.61C1.72 8.25 1.24 10.04 1.24 12C1.24 13.95 1.72 15.74 2.68 17.38C3.64 19.02 4.95 20.33 6.59 21.3C8.24 22.26 10.04 22.75 12 22.75ZM12 2.75C13.68 2.75 15.22 3.17 16.64 3.99C18.06 4.81 19.18 5.93 20 7.35C20.82 8.77 21.24 10.32 21.24 12C21.24 13.68 20.82 15.22 20 16.64C19.18 18.06 18.06 19.18 16.64 20C15.22 20.82 13.68 21.24 12 21.24C10.33 21.24 8.79 20.82 7.38 20C5.96 19.18 4.83 18.06 4 16.64C3.17 15.22 2.76 13.68 2.76 12C2.76 10.32 3.17 8.77 4 7.35C4.83 5.93 5.96 4.81 7.38 3.99C8.79 3.17 10.33 2.75 12 2.75Z" fill="#191919" fill-opacity="1.000000" fill-rule="nonzero"/>
		<path id="path" d="M12 6.23C11.12 6.23 10.31 6.35 9.59 6.59C8.87 6.83 8.31 7.17 7.89 7.59C7.47 8.01 7.27 8.48 7.27 8.99L7.27 15C7.27 15.51 7.47 15.98 7.89 16.4C8.31 16.82 8.87 17.16 9.59 17.4C10.31 17.64 11.12 17.76 12 17.76C12.89 17.76 13.7 17.64 14.42 17.4C15.14 17.16 15.71 16.82 16.12 16.4C16.54 15.98 16.75 15.51 16.75 15L16.75 8.99C16.75 8.47 16.54 7.99 16.12 7.58C15.71 7.16 15.14 6.83 14.42 6.59C13.7 6.35 12.89 6.23 12 6.23ZM12 7.75C12.62 7.75 13.18 7.81 13.68 7.95C14.17 8.09 14.56 8.25 14.84 8.44C15.12 8.63 15.26 8.82 15.26 8.99C15.26 9.17 15.12 9.35 14.84 9.55C14.56 9.74 14.17 9.9 13.68 10.04C13.18 10.18 12.62 10.24 12 10.24C11.39 10.24 10.84 10.18 10.34 10.04C9.84 9.9 9.45 9.74 9.17 9.55C8.89 9.35 8.75 9.17 8.75 8.99C8.75 8.82 8.89 8.63 9.17 8.44C9.45 8.25 9.84 8.09 10.34 7.95C10.84 7.81 11.39 7.75 12 7.75ZM12 16.24C11.39 16.24 10.84 16.18 10.34 16.04C9.84 15.9 9.45 15.74 9.17 15.55C8.89 15.36 8.75 15.17 8.75 15L8.75 14.04C9.68 14.52 10.76 14.76 12 14.76C13.24 14.76 14.33 14.52 15.26 14.04L15.26 15C15.26 15.17 15.12 15.36 14.84 15.55C14.56 15.74 14.17 15.9 13.68 16.04C13.18 16.18 12.62 16.24 12 16.24ZM12 13.24C11.39 13.24 10.84 13.18 10.34 13.04C9.84 12.9 9.45 12.74 9.17 12.55C8.89 12.36 8.75 12.17 8.75 12L8.75 11.04C9.68 11.52 10.76 11.76 12 11.76C13.24 11.76 14.33 11.52 15.26 11.04L15.26 12C15.26 12.17 15.12 12.36 14.84 12.55C14.56 12.74 14.17 12.9 13.68 13.04C13.18 13.18 12.62 13.24 12 13.24Z" fill="#E4480C" fill-opacity="1.000000" fill-rule="nonzero"/>
	</g>
</svg>
