<svg width="24.000000" height="24.000000" viewBox="0 0 24 24" fill="none" xmlns="http://www.w3.org/2000/svg" xmlns:xlink="http://www.w3.org/1999/xlink">
	<desc>
			Created with Pixso.
	</desc>
	<defs>
		<clipPath id="clip10_939">
			<rect width="24.000000" height="24.000000" fill="white" fill-opacity="0"/>
		</clipPath>
	</defs>
	<g clip-path="url(#clip10_939)">
		<g opacity="0.000000">
			<rect width="24.000000" height="24.000000" fill="#000000" fill-opacity="1.000000"/>
		</g>
		<path d="M5.73 19.03C6.29 19.03 6.77 18.83 7.16 18.43C7.55 18.03 7.75 17.56 7.75 17.01L7.75 8.23C7.75 7.68 7.55 7.21 7.16 6.82C6.77 6.43 6.29 6.23 5.73 6.23L4.27 6.23C3.71 6.23 3.23 6.43 2.84 6.81C2.45 7.19 2.25 7.67 2.25 8.23L2.25 17.01C2.25 17.57 2.45 18.05 2.84 18.44C3.23 18.83 3.71 19.03 4.27 19.03L5.73 19.03ZM5.73 7.72C5.87 7.72 5.99 7.77 6.09 7.88C6.19 7.98 6.23 8.1 6.23 8.23L6.23 17.01C6.23 17.14 6.19 17.26 6.09 17.36C5.99 17.46 5.87 17.52 5.73 17.52L4.27 17.52C4.12 17.52 4 17.46 3.89 17.36C3.79 17.26 3.74 17.14 3.74 17.01L3.74 8.23C3.74 8.1 3.79 7.98 3.89 7.88C4 7.77 4.12 7.72 4.27 7.72L5.73 7.72ZM12.67 19.03C13.24 19.03 13.73 18.82 14.14 18.42C14.55 18.01 14.75 17.52 14.75 16.94L14.75 4.12C14.75 3.55 14.55 3.06 14.14 2.66C13.73 2.26 13.24 2.06 12.67 2.06L11.32 2.06C10.75 2.06 10.25 2.26 9.85 2.66C9.44 3.06 9.23 3.55 9.23 4.12L9.23 16.94C9.23 17.52 9.44 18.01 9.85 18.42C10.25 18.82 10.75 19.03 11.32 19.03L12.67 19.03ZM12.67 3.55C12.83 3.55 12.96 3.6 13.07 3.71C13.19 3.83 13.24 3.96 13.24 4.12L13.24 16.94C13.24 17.1 13.19 17.24 13.07 17.35C12.96 17.46 12.83 17.52 12.67 17.52L11.3 17.52C11.14 17.52 11 17.46 10.89 17.35C10.78 17.24 10.72 17.1 10.72 16.94L10.72 4.12C10.72 3.96 10.78 3.83 10.89 3.71C11 3.6 11.14 3.55 11.3 3.55L12.67 3.55ZM19.84 19.03C20.37 19.03 20.82 18.84 21.19 18.46C21.55 18.09 21.74 17.64 21.74 17.11L21.74 10.82C21.74 10.29 21.55 9.84 21.19 9.46C20.82 9.09 20.37 8.9 19.84 8.9L18.14 8.9C17.61 8.9 17.16 9.09 16.79 9.46C16.43 9.84 16.24 10.29 16.24 10.82L16.24 17.11C16.24 17.64 16.43 18.09 16.79 18.46C17.16 18.84 17.61 19.03 18.14 19.03L19.84 19.03ZM19.84 10.44C19.95 10.44 20.05 10.47 20.13 10.54C20.21 10.62 20.25 10.71 20.25 10.82L20.25 17.11C20.25 17.22 20.21 17.32 20.13 17.4C20.05 17.48 19.95 17.52 19.84 17.52L18.14 17.52C18.03 17.52 17.93 17.48 17.85 17.4C17.77 17.32 17.73 17.22 17.73 17.11L17.73 10.82C17.73 10.71 17.77 10.62 17.85 10.54C17.93 10.47 18.03 10.44 18.14 10.44L19.84 10.44ZM22.6 21.93C22.81 21.93 22.99 21.86 23.13 21.72C23.27 21.57 23.35 21.4 23.35 21.19C23.35 20.98 23.27 20.8 23.13 20.66C22.99 20.52 22.81 20.44 22.6 20.44L1.39 20.44C1.18 20.44 1 20.52 0.86 20.66C0.71 20.8 0.64 20.98 0.64 21.19C0.64 21.4 0.71 21.57 0.86 21.72C1 21.86 1.18 21.93 1.39 21.93L22.6 21.93Z" fill="#191919" fill-opacity="1.000000" fill-rule="nonzero"/>
		<path d="M19.84 19.03C20.37 19.03 20.82 18.84 21.19 18.46C21.55 18.09 21.74 17.64 21.74 17.11L21.74 10.82C21.74 10.29 21.55 9.84 21.19 9.46C20.82 9.09 20.37 8.9 19.84 8.9L18.14 8.9C17.61 8.9 17.16 9.09 16.79 9.46C16.43 9.84 16.24 10.29 16.24 10.82L16.24 17.11C16.24 17.64 16.43 18.09 16.79 18.46C17.16 18.84 17.61 19.03 18.14 19.03L19.84 19.03ZM19.84 10.44C19.95 10.44 20.05 10.47 20.13 10.54C20.21 10.62 20.25 10.71 20.25 10.82L20.25 17.11C20.25 17.22 20.21 17.32 20.13 17.4C20.05 17.48 19.95 17.52 19.84 17.52L18.14 17.52C18.03 17.52 17.93 17.48 17.85 17.4C17.77 17.32 17.73 17.22 17.73 17.11L17.73 10.82C17.73 10.71 17.77 10.62 17.85 10.54C17.93 10.47 18.03 10.44 18.14 10.44L19.84 10.44Z" fill="#E4480C" fill-opacity="1.000000" fill-rule="nonzero"/>
	</g>
</svg>
