<svg width="24.000000" height="24.000000" viewBox="0 0 24 24" fill="none" xmlns="http://www.w3.org/2000/svg" xmlns:xlink="http://www.w3.org/1999/xlink">
	<desc>
			Created with Pixso.
	</desc>
	<defs>
		<clipPath id="clip10_946">
			<rect width="24.000000" height="24.000000" fill="white" fill-opacity="0"/>
		</clipPath>
	</defs>
	<g clip-path="url(#clip10_946)">
		<g opacity="0.000000">
			<rect width="24.000000" height="24.000000" fill="#000000" fill-opacity="1.000000"/>
		</g>
		<path d="M1.63 16.17C1.63 16.78 1.73 17.31 1.94 17.76C2.15 18.2 2.49 18.63 2.97 19.03C3.45 19.43 4.14 19.87 5.04 20.35C6.46 21.1 7.72 21.64 8.8 21.98C9.89 22.32 10.93 22.48 11.92 22.48C12.92 22.48 13.84 22.31 14.71 21.97C15.57 21.62 16.6 21.06 17.78 20.28L18.19 19.99C19.66 19.03 20.72 18.25 21.38 17.65C22.04 17.05 22.36 16.42 22.36 15.76C22.36 15.56 22.33 15.36 22.27 15.19C22.09 14.63 21.8 14.19 21.38 13.87C20.96 13.55 20.48 13.38 19.94 13.36L19.68 13.36C19.16 13.41 18.68 13.57 18.21 13.84L17.85 14.01C18.41 13.34 18.85 12.58 19.16 11.74C19.47 10.9 19.63 10.04 19.63 9.14C19.63 7.76 19.28 6.49 18.6 5.32C17.91 4.15 16.98 3.23 15.81 2.54C14.64 1.85 13.37 1.51 12 1.51C10.6 1.51 9.32 1.85 8.16 2.54C6.99 3.23 6.06 4.15 5.37 5.32C4.68 6.49 4.34 7.76 4.34 9.14C4.34 9.97 4.48 10.8 4.75 11.61L4.39 11.61L4.2 11.61C3.62 11.69 3.13 11.91 2.72 12.27C2.31 12.63 2.03 13.11 1.87 13.7C1.71 14.44 1.63 15.26 1.63 16.17ZM3.12 16.17C3.12 15.37 3.2 14.65 3.36 14.01C3.5 13.47 3.84 13.16 4.39 13.1L6.31 13.1C7.36 13.1 8.18 13.11 8.77 13.14C9.35 13.16 9.88 13.23 10.36 13.34L10.77 13.44L14.47 14.54C14.52 14.56 14.66 14.62 14.89 14.72C15.12 14.82 15.29 14.98 15.4 15.18C15.52 15.38 15.56 15.61 15.52 15.88C15.41 16.28 15.11 16.48 14.61 16.48C14.42 16.48 14.2 16.46 13.96 16.41L12.74 16.1L10.6 15.6C10.52 15.58 10.41 15.55 10.27 15.51C10.12 15.47 10 15.45 9.88 15.45C9.71 15.45 9.55 15.5 9.4 15.6C9.26 15.69 9.19 15.83 9.19 16C9.19 16.18 9.25 16.31 9.38 16.39C9.51 16.47 9.64 16.52 9.79 16.56C9.93 16.59 10.03 16.61 10.08 16.63L11.11 16.87L13.12 17.37C13.32 17.42 13.43 17.44 13.46 17.44L13.7 17.49C13.96 17.56 14.22 17.59 14.49 17.59C14.8 17.59 15.07 17.53 15.31 17.42C15.55 17.31 15.87 17.11 16.27 16.82C16.6 16.58 16.92 16.37 17.23 16.2L18.93 15.24C19.01 15.19 19.15 15.12 19.34 15.02C19.53 14.92 19.68 14.87 19.79 14.85C20.12 14.85 20.37 14.95 20.56 15.14C20.72 15.3 20.8 15.48 20.8 15.69C20.8 15.93 20.71 16.16 20.52 16.39C20.23 16.71 19.73 17.11 19.03 17.59C18.69 17.84 18 18.32 16.94 19C15.88 19.71 14.99 20.21 14.25 20.52C13.52 20.82 12.74 20.97 11.92 20.97C11.06 20.97 10.14 20.82 9.15 20.5C8.17 20.19 7.04 19.69 5.76 19C4.94 18.57 4.34 18.2 3.96 17.89C3.57 17.58 3.34 17.3 3.25 17.06C3.16 16.82 3.12 16.52 3.12 16.17ZM5.85 9.14C5.85 8.03 6.13 7.01 6.68 6.07C7.23 5.12 7.98 4.37 8.91 3.82C9.85 3.27 10.88 2.99 12 2.99C13.1 2.99 14.12 3.27 15.06 3.82C15.99 4.37 16.74 5.12 17.29 6.07C17.84 7.01 18.12 8.03 18.12 9.14C18.12 10.02 17.94 10.86 17.58 11.66C17.21 12.46 16.71 13.15 16.05 13.72C15.86 13.56 15.57 13.4 15.19 13.24L12.69 12.48L12.72 12.33L12.72 10.82L14.23 10.82C14.44 10.82 14.62 10.75 14.77 10.6C14.92 10.46 15 10.28 15 10.08C15 9.87 14.92 9.69 14.78 9.55C14.64 9.4 14.46 9.33 14.25 9.33L12.72 9.33L12.72 8.71L14.25 8.71C14.46 8.71 14.64 8.63 14.78 8.49C14.92 8.35 15 8.17 15 7.96C15 7.75 14.92 7.58 14.78 7.43C14.64 7.29 14.46 7.22 14.25 7.22L13.22 7.22L14.37 6.07C14.52 5.92 14.59 5.75 14.59 5.54C14.59 5.33 14.52 5.15 14.37 5.01C14.23 4.87 14.05 4.8 13.84 4.8C13.64 4.8 13.46 4.87 13.32 5.01L11.95 6.35L10.6 5.03C10.46 4.87 10.28 4.8 10.08 4.8C9.87 4.8 9.69 4.87 9.55 5.03C9.4 5.18 9.33 5.35 9.33 5.56C9.33 5.77 9.4 5.95 9.55 6.09L10.68 7.19L9.72 7.19C9.51 7.19 9.33 7.27 9.17 7.42C9.02 7.57 8.95 7.75 8.95 7.96C8.95 8.17 9.02 8.35 9.17 8.49C9.33 8.63 9.51 8.71 9.72 8.71L11.23 8.71L11.23 9.31L9.69 9.31C9.48 9.31 9.31 9.38 9.16 9.53C9.02 9.69 8.95 9.87 8.95 10.08C8.95 10.28 9.02 10.46 9.16 10.6C9.31 10.75 9.48 10.82 9.69 10.82L11.23 10.82L11.23 12.02L11.16 12L10.68 11.88C10.13 11.76 9.56 11.69 8.95 11.66C8.34 11.63 7.48 11.61 6.36 11.61C6.02 10.81 5.85 9.99 5.85 9.14Z" fill="#191919" fill-opacity="1.000000" fill-rule="nonzero"/>
		<path d="M12.69 12.48L12.71 12.33L12.71 10.82L14.23 10.82C14.43 10.82 14.61 10.75 14.77 10.6C14.92 10.46 14.99 10.28 14.99 10.08C14.99 9.87 14.92 9.69 14.78 9.55C14.63 9.4 14.46 9.33 14.25 9.33L12.71 9.33L12.71 8.71L14.25 8.71C14.46 8.71 14.63 8.63 14.78 8.49C14.92 8.35 14.99 8.17 14.99 7.96C14.99 7.75 14.92 7.58 14.78 7.43C14.63 7.29 14.46 7.22 14.25 7.22L13.22 7.22L14.37 6.07C14.51 5.92 14.59 5.75 14.59 5.54C14.59 5.33 14.51 5.15 14.37 5.01C14.23 4.87 14.05 4.79 13.84 4.79C13.63 4.79 13.46 4.87 13.31 5.01L11.95 6.35L10.6 5.03C10.46 4.87 10.28 4.79 10.07 4.79C9.87 4.79 9.69 4.87 9.55 5.03C9.4 5.18 9.33 5.35 9.33 5.56C9.33 5.77 9.4 5.95 9.55 6.09L10.67 7.19L9.71 7.19C9.51 7.19 9.33 7.27 9.17 7.42C9.02 7.57 8.95 7.75 8.95 7.96C8.95 8.17 9.02 8.35 9.17 8.49C9.33 8.63 9.51 8.71 9.71 8.71L11.23 8.71L11.23 9.31L9.69 9.31C9.48 9.31 9.31 9.38 9.16 9.53C9.02 9.69 8.95 9.87 8.95 10.08C8.95 10.28 9.02 10.46 9.16 10.6C9.31 10.75 9.48 10.82 9.69 10.82L11.23 10.82L11.23 12.02L12.69 12.48Z" fill="#E4480C" fill-opacity="1.000000" fill-rule="evenodd"/>
	</g>
</svg>
