<svg width="16.000000" height="16.000000" viewBox="0 0 16 16" fill="none" xmlns="http://www.w3.org/2000/svg" xmlns:xlink="http://www.w3.org/1999/xlink">
	<desc>
			Created with Pixso.
	</desc>
	<defs>
		<clipPath id="clip34_1951">
			<rect width="16.000000" height="16.000000" fill="white" fill-opacity="0"/>
		</clipPath>
	</defs>
	<g clip-path="url(#clip34_1951)">
		<g opacity="0.000000"/>
		<path d="M11.79 10.18Q11.63 10.41 11.45 10.64L14.43 13.61Q14.49 13.68 14.53 13.76Q14.57 13.85 14.57 13.96Q14.57 14.08 14.53 14.17Q14.49 14.25 14.43 14.32Q14.36 14.38 14.29 14.42Q14.19 14.46 14.07 14.46Q13.97 14.46 13.87 14.42Q13.79 14.38 13.72 14.32L10.75 11.35Q10.36 11.67 9.94 11.92Q9.51 12.17 9.04 12.35Q8.89 12.4 8.74 12.45Q7.94 12.7 7.07 12.7Q6.2 12.7 5.41 12.46Q4.79 12.27 4.23 11.94Q3.59 11.57 3.08 11.06Q2.55 10.54 2.16 9.87Q1.83 9.3 1.64 8.68Q1.4 7.89 1.4 7.03Q1.4 6.18 1.64 5.39Q1.83 4.77 2.16 4.19Q2.55 3.52 3.09 3Q3.59 2.5 4.23 2.13Q4.8 1.8 5.42 1.61Q6.21 1.37 7.07 1.37Q7.95 1.37 8.76 1.62Q9.35 1.81 9.91 2.13Q10.54 2.5 11.04 2.99Q11.58 3.52 11.98 4.19Q12.33 4.78 12.52 5.42Q12.75 6.19 12.75 7.03Q12.75 7.53 12.66 8Q12.58 8.49 12.4 8.96Q12.16 9.61 11.79 10.18ZM2.6 5.7Q2.41 6.34 2.41 7.03Q2.41 7.74 2.6 8.38Q2.76 8.9 3.04 9.37Q3.37 9.93 3.82 10.37Q4.23 10.77 4.74 11.08Q5.2 11.35 5.69 11.5Q6.35 11.71 7.07 11.71Q7.79 11.71 8.44 11.5Q8.94 11.35 9.4 11.08Q9.96 10.75 10.39 10.31Q10.8 9.89 11.1 9.37Q11.39 8.9 11.54 8.38Q11.74 7.74 11.74 7.03Q11.74 6.34 11.54 5.7Q11.39 5.18 11.1 4.7Q10.79 4.17 10.37 3.75Q9.95 3.32 9.4 3Q8.93 2.72 8.43 2.56Q7.78 2.36 7.07 2.36Q6.36 2.36 5.71 2.56Q5.2 2.72 4.74 3Q4.24 3.29 3.84 3.68Q3.38 4.13 3.04 4.7Q2.76 5.18 2.6 5.7Z" fill="#000000" fill-opacity="0.600000" fill-rule="evenodd"/>
	</g>
</svg>
