<svg width="32.000000" height="32.000000" viewBox="0 0 32 32" fill="none" xmlns="http://www.w3.org/2000/svg" xmlns:xlink="http://www.w3.org/1999/xlink">
	<desc>
			Created with Pixso.
	</desc>
	<defs>
		<clipPath id="clip19_1763">
			<rect width="32.000000" height="32.000000" fill="white" fill-opacity="0"/>
		</clipPath>
	</defs>
	<g clip-path="url(#clip19_1763)">
		<g opacity="0.500000">
			<path d="M16.26 0L16 0C7.26 0 0.14 7.01 0 15.73L0 15.98C-6.11e-5 24.73 7.01 31.85 15.73 31.99L15.98 32C24.73 32 31.85 24.98 31.99 16.26L32 16.01C32 7.26 24.98 0.14 16.26 0Z" fill="#FD4238" fill-opacity="0.200000" fill-rule="evenodd"/>
			<path d="M16 0C7.26 0 0.14 7.01 0 15.73L0 15.98C-6.11e-5 24.73 7.01 31.85 15.73 31.99L15.98 32C24.73 32 31.85 24.98 31.99 16.26L32 16.01C32 7.26 24.98 0.14 16.26 0L16 0Z" stroke="#000000" stroke-opacity="0" stroke-width="1.500000"/>
		</g>
		<rect width="20.000000" height="20.000000" transform="translate(6.000000 6.000000)" fill="#FFFFFF" fill-opacity="0"/>
		<path d="M6 15.42C6 14.08 7.08 13 8.42 13C9.76 13 10.84 14.08 10.84 15.42C10.84 16.76 9.76 17.84 8.42 17.84C7.08 17.84 6 16.76 6 15.42Z" fill="#FD817B" fill-opacity="1.000000" fill-rule="evenodd"/>
		<path d="M13.57 15.42C13.57 14.08 14.66 13 16 13C17.33 13 18.42 14.08 18.42 15.42C18.42 16.76 17.33 17.84 16 17.84C14.66 17.84 13.57 16.76 13.57 15.42Z" fill="#FD4238" fill-opacity="1.000000" fill-rule="evenodd"/>
		<path d="M21.15 15.42C21.15 14.08 22.23 13 23.57 13C24.91 13 26 14.08 26 15.42C26 16.76 24.91 17.84 23.57 17.84C22.23 17.84 21.15 16.76 21.15 15.42Z" fill="#FD817B" fill-opacity="1.000000" fill-rule="evenodd"/>
		<path d="M8.42 13C9.76 13 10.84 14.08 10.84 15.42C10.84 16.76 9.76 17.84 8.42 17.84C7.08 17.84 6 16.76 6 15.42C6 14.08 7.08 13 8.42 13ZM16 13C17.33 13 18.42 14.08 18.42 15.42C18.42 16.76 17.33 17.84 16 17.84C14.66 17.84 13.57 16.76 13.57 15.42C13.57 14.08 14.66 13 16 13ZM23.57 13C24.91 13 26 14.08 26 15.42C26 16.76 24.91 17.84 23.57 17.84C22.23 17.84 21.15 16.76 21.15 15.42C21.15 14.08 22.23 13 23.57 13Z" stroke="#000000" stroke-opacity="0" stroke-width="1.500000"/>
	</g>
</svg>
