<svg width="14.000000" height="14.000000" viewBox="0 0 14 14" fill="none" xmlns="http://www.w3.org/2000/svg" xmlns:xlink="http://www.w3.org/1999/xlink">
	<desc>
			Created with Pixso.
	</desc>
	<defs>
		<clipPath id="clip1_701">
			<rect width="14.000000" height="14.000000" fill="white" fill-opacity="0"/>
		</clipPath>
	</defs>
	<g clip-path="url(#clip1_701)">
		<rect width="14.000000" height="14.000000" fill="#FFFFFF" fill-opacity="0"/>
		<path d="M0 6.99C0 5.9 -0.01 4.8 0 3.71C-0.01 3.18 0.06 2.65 0.19 2.14C0.48 1.05 1.18 0.41 2.27 0.16C2.81 0.04 3.37 -0.01 3.92 -3.06e-5C6.02 -3.06e-5 8.12 -3.06e-5 10.22 -3.06e-5C10.74 -0.01 11.27 0.05 11.79 0.18C12.9 0.45 13.58 1.16 13.83 2.27C13.95 2.79 14 3.33 13.99 3.87C13.99 5.99 13.99 8.11 13.99 10.23C14 10.75 13.94 11.28 13.81 11.79C13.54 12.91 12.83 13.57 11.71 13.83C11.17 13.95 10.62 14 10.06 13.99C7.97 13.99 5.88 13.99 3.8 13.99C3.26 14 2.73 13.94 2.21 13.81C1.09 13.54 0.42 12.83 0.16 11.71C0.03 11.14 0 10.57 0 10C0 9 0 7.99 0 6.99Z" fill="#FFFFFF" fill-opacity="0" fill-rule="evenodd"/>
		<circle cx="7.000000" cy="7.000000" r="7.000000" fill="#FFFFFF" fill-opacity="0"/>
		<path d="M4.06 13.27C3.42 13.62 2.66 13.08 2.78 12.36L3.28 9.3C3.32 9.03 3.23 8.75 3.04 8.55L0.89 6.34C0.39 5.83 0.68 4.98 1.39 4.87L4.28 4.43C4.57 4.38 4.82 4.2 4.94 3.93L6.2 1.24C6.52 0.57 7.47 0.57 7.79 1.24L9.05 3.93C9.17 4.2 9.42 4.38 9.71 4.43L12.6 4.87C13.31 4.98 13.59 5.83 13.1 6.34L10.95 8.55C10.75 8.75 10.67 9.03 10.71 9.3L11.21 12.36C11.33 13.08 10.56 13.62 9.92 13.27L7.42 11.88C7.15 11.74 6.83 11.74 6.57 11.88L4.06 13.27Z" fill="#000000" fill-opacity="0" fill-rule="nonzero"/>
		<path d="M4.06 13.27C3.42 13.62 2.66 13.08 2.78 12.36L3.28 9.3C3.32 9.03 3.23 8.75 3.04 8.55L0.89 6.34C0.39 5.83 0.68 4.98 1.39 4.87L4.28 4.43C4.57 4.38 4.82 4.2 4.94 3.93L6.2 1.24C6.52 0.57 7.47 0.57 7.79 1.24L9.05 3.93C9.17 4.2 9.42 4.38 9.71 4.43L12.6 4.87C13.31 4.98 13.59 5.83 13.1 6.34L10.95 8.55C10.75 8.75 10.67 9.03 10.71 9.3L11.21 12.36C11.33 13.08 10.56 13.62 9.92 13.27L7.42 11.88C7.15 11.74 6.83 11.74 6.57 11.88L4.06 13.27ZM3.81 12.27L4.26 9.46C4.28 9.34 4.29 9.22 4.29 9.11C4.28 8.93 4.26 8.76 4.2 8.59C4.16 8.45 4.1 8.32 4.02 8.2C3.95 8.07 3.86 7.96 3.76 7.85L1.78 5.82L4.43 5.42C4.62 5.39 4.8 5.33 4.96 5.25C5.07 5.2 5.17 5.14 5.27 5.06C5.4 4.97 5.51 4.86 5.61 4.74C5.7 4.62 5.78 4.49 5.85 4.35L6.99 1.91L8.14 4.36C8.21 4.5 8.3 4.64 8.4 4.76C8.49 4.87 8.6 4.97 8.72 5.06C8.84 5.16 8.97 5.23 9.11 5.29C9.25 5.35 9.39 5.39 9.55 5.42L12.21 5.82L10.23 7.85C10.12 7.96 10.03 8.08 9.96 8.21C9.89 8.33 9.83 8.46 9.79 8.6C9.74 8.74 9.71 8.88 9.7 9.02C9.69 9.17 9.7 9.31 9.72 9.46L10.18 12.27L7.9 11.01C7.75 10.92 7.59 10.86 7.42 10.82C7.28 10.79 7.14 10.77 6.99 10.77C6.83 10.77 6.68 10.79 6.53 10.83C6.38 10.87 6.23 10.93 6.09 11.01L3.81 12.27Z" fill="#000000" fill-opacity="1.000000" fill-rule="evenodd"/>
	</g>
</svg>
