<?xml version="1.0" encoding="UTF-8"?>
<svg width="12" height="12" viewBox="0 0 10 12" version="1.1" xmlns="http://www.w3.org/2000/svg" xmlns:xlink="http://www.w3.org/1999/xlink">
    <title>图标/12/icon_position</title>
    <g id="" stroke="none" stroke-width="1" fill="none" fill-rule="evenodd" fill-opacity="0.9">
        <g id="icon" transform="translate(-483.000000, -139.000000)" fill="#000000" fill-rule="nonzero">
            <g id="编组" transform="translate(482.000000, 139.000000)">
                <g id="形状" transform="translate(1.000000, 0.300000)">
                    <path d="M8.77031877,1.60245029 C6.85464364,-0.440579036 3.64547961,-0.543820007 1.60245029,1.37185512 C-0.440579036,3.28753026 -0.543820007,6.49669429 1.37185512,8.53972361 C2.05150402,9.21937251 3.47391205,10.5932342 4.3283278,11.4136675 C4.70526747,11.7805681 5.30583128,11.7805681 5.68277095,11.4136675 L8.41593043,8.68536266 C10.3827412,6.78696833 10.5378115,3.68768776 8.77031877,1.60245029 L8.77031877,1.60245029 Z M4.93515717,6.51534785 C4.25141225,6.51534785 3.63508608,6.10319852 3.37388405,5.47131196 C3.11268203,4.83942539 3.25811304,4.11239944 3.74228887,3.62961492 C4.22646469,3.1468304 4.95390614,3.00349215 5.58503843,3.26651146 C6.21617072,3.52953078 6.62653492,4.14704041 6.62457716,4.83078251 C6.62457716,5.27839755 6.446426,5.7076089 6.12945929,6.02366479 C5.81249258,6.33972068 5.38277035,6.5166308 4.93515717,6.51534785 Z"></path>
                </g>
            </g>
        </g>
    </g>
</svg>