<svg width="16.000000" height="16.000000" viewBox="0 0 16 16" fill="none" xmlns="http://www.w3.org/2000/svg" xmlns:xlink="http://www.w3.org/1999/xlink">
	<desc>
			Created with Pixso.
	</desc>
	<defs>
		<clipPath id="clip10_427">
			<rect width="16.000000" height="16.000000" fill="white" fill-opacity="0"/>
		</clipPath>
	</defs>
	<rect width="16.000000" height="16.000000" fill="#9E3434" fill-opacity="0"/>
	<g clip-path="url(#clip10_427)">
		<path d="M12.25 2.08C12.52 2.27 12.66 2.61 12.59 2.95L10.36 13.89C10.29 14.23 10.03 14.49 9.69 14.56C9.46 14.6 9.22 14.55 9.03 14.42C8.95 14.36 8.88 14.29 8.82 14.2L7.27 11.9L6.31 10.48L1.97 9.36C1.64 9.28 1.39 9 1.34 8.66C1.29 8.32 1.45 7.99 1.74 7.81L11.31 2.04C11.6 1.87 11.97 1.88 12.25 2.08Z" fill="#3399FF" fill-opacity="1.000000" fill-rule="evenodd"/>
		<path d="M12.59 2.95L10.36 13.89C10.29 14.23 10.03 14.49 9.69 14.56C9.46 14.6 9.22 14.55 9.03 14.42C8.95 14.36 8.88 14.29 8.82 14.2L7.27 11.9L6.31 10.48L1.97 9.36C1.64 9.28 1.39 9 1.34 8.66C1.29 8.32 1.45 7.99 1.74 7.81L11.31 2.04C11.6 1.87 11.97 1.88 12.25 2.08C12.52 2.27 12.66 2.61 12.59 2.95Z" stroke="#000000" stroke-opacity="0" stroke-width="1.000000"/>
	</g>
</svg>
