<svg width="24.000000" height="24.000000" viewBox="0 0 24 24" fill="none" xmlns="http://www.w3.org/2000/svg" xmlns:xlink="http://www.w3.org/1999/xlink">
	<desc>
			Created with Pixso.
	</desc>
	<defs>
		<clipPath id="clip114_8476">
			<rect id="ic_public_pause_norm" width="24.000000" height="24.000000" fill="white" fill-opacity="0"/>
		</clipPath>
	</defs>
	<g clip-path="url(#clip114_8476)">
		<path id="path-1" d="M12 1C18.07 1 23 5.92 23 12C23 18.07 18.07 23 12 23C5.92 23 1 18.07 1 12C1 5.92 5.92 1 12 1ZM12 2.5C6.75 2.5 2.5 6.75 2.5 12C2.5 17.24 6.75 21.5 12 21.5C17.24 21.5 21.5 17.24 21.5 12C21.5 6.75 17.24 2.5 12 2.5ZM9.5 7.5C10.05 7.5 10.5 7.94 10.5 8.5L10.5 15.5C10.5 16.05 10.05 16.5 9.5 16.5C8.94 16.5 8.5 16.05 8.5 15.5L8.5 8.5C8.5 7.94 8.94 7.5 9.5 7.5ZM14.5 7.5C15.05 7.5 15.5 7.94 15.5 8.5L15.5 15.5C15.5 16.05 15.05 16.5 14.5 16.5C13.94 16.5 13.5 16.05 13.5 15.5L13.5 8.5C13.5 7.94 13.94 7.5 14.5 7.5Z" fill="#FFFFFF" fill-opacity="1.000000" fill-rule="nonzero"/>
		<path id="path-1" d="M23 12C23 18.07 18.07 23 12 23C5.92 23 1 18.07 1 12C1 5.92 5.92 1 12 1C18.07 1 23 5.92 23 12ZM2.5 12C2.5 17.24 6.75 21.5 12 21.5C17.24 21.5 21.5 17.24 21.5 12C21.5 6.75 17.24 2.5 12 2.5C6.75 2.5 2.5 6.75 2.5 12ZM10.5 8.5L10.5 15.5C10.5 16.05 10.05 16.5 9.5 16.5C8.94 16.5 8.5 16.05 8.5 15.5L8.5 8.5C8.5 7.94 8.94 7.5 9.5 7.5C10.05 7.5 10.5 7.94 10.5 8.5ZM15.5 8.5L15.5 15.5C15.5 16.05 15.05 16.5 14.5 16.5C13.94 16.5 13.5 16.05 13.5 15.5L13.5 8.5C13.5 7.94 13.94 7.5 14.5 7.5C15.05 7.5 15.5 7.94 15.5 8.5Z" stroke="#000000" stroke-opacity="0" stroke-width="1.000000"/>
	</g>
</svg>
