<svg width="24.000000" height="24.000000" viewBox="0 0 24 24" fill="none" xmlns="http://www.w3.org/2000/svg" xmlns:xlink="http://www.w3.org/1999/xlink">
	<desc>
			Created with Pixso.
	</desc>
	<defs>
		<clipPath id="clip83_9565">
			<rect id="ic_public_play_norm" width="24.000000" height="24.000000" fill="white" fill-opacity="0"/>
		</clipPath>
	</defs>
	<g clip-path="url(#clip83_9565)">
		<path id="path-1" d="M12 1C18.07 1 23 5.92 23 12C23 18.07 18.07 23 12 23C5.92 23 1 18.07 1 12C1 5.92 5.92 1 12 1ZM12 2.5C6.75 2.5 2.5 6.75 2.5 12C2.5 17.24 6.75 21.5 12 21.5C17.24 21.5 21.5 17.24 21.5 12C21.5 6.75 17.24 2.5 12 2.5ZM16.14 13.07L10.87 16.15C10.28 16.5 9.51 16.29 9.17 15.7C9.05 15.51 9 15.29 9 15.07L9 8.92C9 8.23 9.55 7.67 10.25 7.67C10.47 7.67 10.68 7.73 10.87 7.84L16.14 10.92C16.74 11.26 16.94 12.03 16.59 12.62C16.49 12.81 16.33 12.97 16.14 13.07Z" fill="#000000" fill-opacity="0.600000" fill-rule="nonzero"/>
		<path id="path-1" d="M23 12C23 18.07 18.07 23 12 23C5.92 23 1 18.07 1 12C1 5.92 5.92 1 12 1C18.07 1 23 5.92 23 12ZM2.5 12C2.5 17.24 6.75 21.5 12 21.5C17.24 21.5 21.5 17.24 21.5 12C21.5 6.75 17.24 2.5 12 2.5C6.75 2.5 2.5 6.75 2.5 12ZM10.87 16.15C10.28 16.5 9.51 16.29 9.17 15.7C9.05 15.51 9 15.29 9 15.07L9 8.92C9 8.23 9.55 7.67 10.25 7.67C10.47 7.67 10.68 7.73 10.87 7.84L16.14 10.92C16.74 11.26 16.94 12.03 16.59 12.62C16.49 12.81 16.33 12.97 16.14 13.07L10.87 16.15Z" stroke="#000000" stroke-opacity="0" stroke-width="1.000000"/>
	</g>
</svg>
