<svg width="24.000000" height="24.000000" viewBox="0 0 24 24" fill="none" xmlns="http://www.w3.org/2000/svg" xmlns:xlink="http://www.w3.org/1999/xlink">
  <metadata>
    <agcit_code>agcit_huawei_course_recorded_player</agcit_code>
  </metadata>
	<desc>
			Created with Pixso.
	</desc>
	<defs>
		<clipPath id="clip299_20767">
			<rect id="icon_forward_end_fill" width="24.000000" height="24.000000" fill="white" fill-opacity="0"/>
		</clipPath>
	</defs>
	<g clip-path="url(#clip299_20767)">
		<g opacity="0.000000">
			<rect id="rect" width="24.000000" height="24.000000" fill="#000000" fill-opacity="1.000000"/>
		</g>
		<path id="path" d="M6.29 5.83C6 5.66 5.69 5.62 5.37 5.69C5.06 5.75 4.79 5.9 4.57 6.14C4.35 6.38 4.25 6.66 4.25 7.01L4.25 16.96C4.25 17.3 4.35 17.59 4.57 17.84C4.79 18.09 5.05 18.25 5.36 18.31C5.67 18.37 5.98 18.33 6.29 18.17L14.89 13.18C15.19 13 15.39 12.76 15.5 12.46C15.61 12.15 15.61 11.84 15.5 11.54C15.39 11.24 15.19 11 14.89 10.82L6.29 5.83ZM18.74 17.7C19.01 17.7 19.25 17.61 19.45 17.42C19.64 17.23 19.75 16.99 19.75 16.7L19.75 7.17C19.75 6.9 19.64 6.66 19.45 6.46C19.25 6.27 19.01 6.16 18.74 6.16C18.47 6.16 18.24 6.27 18.04 6.46C17.85 6.66 17.76 6.9 17.76 7.17L17.76 16.7C17.76 16.99 17.85 17.23 18.04 17.42C18.24 17.61 18.47 17.7 18.74 17.7Z" fill="#FFFFFF" fill-opacity="1.000000" fill-rule="nonzero"/>
	</g>
</svg>
