<svg width="32.000000" height="32.000000" viewBox="0 0 32 32" fill="none" xmlns="http://www.w3.org/2000/svg" xmlns:xlink="http://www.w3.org/1999/xlink">
	<desc>
			Created with Pixso.
	</desc>
	<defs/>
	<rect width="32.000053" height="32.000000" fill="#FFFFFF" fill-opacity="0"/>
	<path d="M0 16C0 24.83 7.16 32 16 32C24.83 32 32 24.83 32 16C32 7.16 24.83 0 16 0C7.16 0 0 7.16 0 16Z" fill="#FF0000" fill-opacity="1.000000" fill-rule="nonzero"/>
	<path d="M16 32C24.83 32 32 24.83 32 16C32 7.16 24.83 0 16 0C7.16 0 0 7.16 0 16C0 24.83 7.16 32 16 32Z" stroke="#000000" stroke-opacity="0" stroke-width="1.000000"/>
	<path d="M10.13 20.46C15.79 20.46 20.37 15.88 20.37 10.23C20.37 5.48 17.13 1.48 12.73 0.33C6.43 1.63 1.48 6.65 0.28 12.99C1.48 17.3 5.44 20.46 10.13 20.46Z" fill="#FFFFFF" fill-opacity="0.200000" fill-rule="nonzero"/>
	<path d="M20.37 10.23C20.37 5.48 17.13 1.48 12.73 0.33C6.43 1.63 1.48 6.65 0.28 12.99C1.48 17.3 5.44 20.46 10.13 20.46C15.79 20.46 20.37 15.88 20.37 10.23Z" stroke="#000000" stroke-opacity="0" stroke-width="1.000000"/>
	<path d="M16 32C24.83 32 32 24.83 32 16C32 15 31.9 14.03 31.73 13.09C29 10.5 25.3 8.91 21.24 8.91C12.81 8.91 5.98 15.74 5.98 24.17C5.98 25.89 6.26 27.54 6.79 29.08C9.39 30.92 12.57 32 16 32Z" fill="#FFFFFF" fill-opacity="0.149020" fill-rule="nonzero"/>
	<path d="M32 16C32 15 31.9 14.03 31.73 13.09C29 10.5 25.3 8.91 21.24 8.91C12.81 8.91 5.98 15.74 5.98 24.17C5.98 25.89 6.26 27.54 6.79 29.08C9.39 30.92 12.57 32 16 32C24.83 32 32 24.83 32 16Z" stroke="#000000" stroke-opacity="0" stroke-width="1.000000"/>
	<path d="M15.33 23.63L11.38 25.82C10.38 26.38 9.17 25.52 9.36 24.38L10.14 19.54C10.22 19.1 10.07 18.66 9.77 18.35L6.39 14.86C5.61 14.06 6.06 12.7 7.17 12.53L11.72 11.83C12.18 11.76 12.57 11.47 12.76 11.05L14.75 6.79C15.24 5.73 16.75 5.73 17.24 6.79L19.23 11.05C19.43 11.47 19.82 11.76 20.27 11.83L24.83 12.53C25.93 12.7 26.38 14.06 25.6 14.86L22.22 18.35C21.92 18.66 21.78 19.1 21.85 19.54L22.63 24.38C22.82 25.52 21.61 26.38 20.61 25.82L16.66 23.63C16.25 23.4 15.74 23.4 15.33 23.63Z" fill="#FFFFFF" fill-opacity="1.000000" fill-rule="evenodd"/>
</svg>
