<svg width="20.000000" height="20.000000" viewBox="0 0 20 20" fill="none" xmlns="http://www.w3.org/2000/svg" xmlns:xlink="http://www.w3.org/1999/xlink">
	<desc>
			Created with Pixso.
	</desc>
	<defs/>
	<rect rx="10.000000" width="20.000000" height="20.000000" fill="#000000" fill-opacity="0.047059"/>
	<path d="M11.75 15.05L14.04 15.05C14.12 15.05 14.2 15.04 14.28 15.02C14.33 15.01 14.38 14.99 14.43 14.97C14.49 14.94 14.54 14.92 14.59 14.88C14.65 14.85 14.7 14.8 14.75 14.75C14.8 14.7 14.85 14.65 14.88 14.59C14.92 14.54 14.94 14.49 14.97 14.43C14.99 14.38 15.01 14.33 15.02 14.28C15.04 14.2 15.04 14.12 15.04 14.05L15.04 10.24C15.04 10.17 15.04 10.11 15.03 10.04C15.01 9.98 14.99 9.92 14.97 9.86C14.94 9.8 14.91 9.74 14.88 9.68C14.84 9.63 14.8 9.58 14.76 9.53L10.29 5.02C10.26 5 10.14 4.96 10.11 4.95C10.09 4.95 10.02 4.98 9.97 5C9.96 5.01 9.94 5.02 9.93 5.02L5.25 9.54C5.2 9.58 5.16 9.64 5.12 9.69Q5.12 9.69 5.12 9.69Q5.06 9.77 5.02 9.87Q4.98 9.96 4.96 10.06C4.95 10.12 4.94 10.19 4.94 10.26L4.94 14.05C4.94 14.12 4.95 14.2 4.97 14.28C4.98 14.33 5 14.38 5.02 14.43C5.05 14.49 5.07 14.54 5.11 14.59C5.14 14.65 5.19 14.7 5.24 14.75C5.29 14.8 5.34 14.85 5.4 14.88C5.45 14.92 5.5 14.94 5.56 14.97C5.61 14.99 5.66 15.01 5.71 15.02C5.79 15.04 5.87 15.05 5.94 15.05L7.75 15.05L7.75 12.12C7.75 11.95 7.76 11.79 7.8 11.64C7.83 11.5 7.87 11.37 7.92 11.24C7.98 11.12 8.04 10.99 8.12 10.88C8.2 10.75 8.3 10.64 8.4 10.53Q8.56 10.37 8.75 10.25Q8.75 10.24 8.76 10.24C8.87 10.17 8.99 10.1 9.12 10.05C9.25 9.99 9.38 9.95 9.51 9.92C9.67 9.89 9.83 9.87 10 9.87C10.16 9.87 10.32 9.89 10.48 9.92C10.61 9.95 10.74 9.99 10.87 10.05C11 10.1 11.12 10.17 11.23 10.24Q11.24 10.24 11.24 10.25Q11.43 10.37 11.59 10.53C11.69 10.64 11.79 10.75 11.87 10.88L11.87 10.88Q11.99 11.05 12.07 11.24C12.12 11.37 12.16 11.5 12.19 11.64C12.23 11.79 12.25 11.95 12.25 12.12L12.25 14.05C12.25 14.33 12.03 14.55 11.75 14.55C11.47 14.55 11.25 14.33 11.25 14.05L11.25 12.12C11.25 12.02 11.23 11.93 11.21 11.83C11.2 11.77 11.17 11.7 11.15 11.63C11.12 11.57 11.08 11.5 11.04 11.44C11 11.37 10.94 11.3 10.88 11.24Q10.78 11.14 10.68 11.07C10.61 11.03 10.55 11 10.48 10.97C10.42 10.94 10.35 10.92 10.28 10.9Q10.14 10.87 10 10.87Q9.85 10.87 9.71 10.9C9.64 10.92 9.57 10.94 9.51 10.97C9.44 11 9.38 11.03 9.31 11.07Q9.21 11.14 9.11 11.24C9.05 11.3 8.99 11.37 8.95 11.44C8.91 11.5 8.87 11.57 8.84 11.63C8.82 11.7 8.79 11.77 8.78 11.83C8.76 11.93 8.75 12.02 8.75 12.12L8.74 15.55C8.74 15.83 8.52 16.04 8.24 16.04L5.94 16.04C5.8 16.04 5.66 16.03 5.52 16C5.4 15.97 5.28 15.94 5.17 15.89C5.05 15.84 4.94 15.78 4.84 15.71C4.73 15.64 4.63 15.56 4.53 15.46Q4.39 15.32 4.28 15.15Q4.28 15.15 4.28 15.15Q4.17 14.99 4.1 14.82C4.05 14.71 4.02 14.59 3.99 14.47C3.96 14.33 3.94 14.19 3.94 14.05L3.94 10.26C3.94 10.12 3.96 9.99 3.98 9.86C4.01 9.73 4.05 9.6 4.1 9.48C4.16 9.35 4.22 9.23 4.3 9.12C4.37 9.01 4.46 8.91 4.56 8.82L9.24 4.3Q9.34 4.21 9.45 4.14C9.51 4.1 9.58 4.06 9.65 4.03C9.73 4.01 9.8 3.98 9.88 3.97Q10 3.95 10.12 3.95C10.21 3.95 10.29 3.96 10.37 3.98C10.44 3.99 10.52 4.01 10.59 4.04C10.66 4.07 10.73 4.11 10.79 4.15C10.87 4.2 10.93 4.26 11 4.32L15.47 8.83C15.56 8.92 15.64 9.02 15.71 9.13C15.78 9.24 15.84 9.35 15.89 9.48C15.94 9.6 15.98 9.72 16.01 9.85C16.03 9.98 16.04 10.11 16.04 10.24L16.04 14.05C16.04 14.19 16.03 14.33 16 14.47C15.97 14.59 15.94 14.71 15.89 14.82Q15.82 14.99 15.72 15.14Q15.72 15.14 15.71 15.15C15.64 15.26 15.56 15.36 15.46 15.46C15.36 15.56 15.26 15.64 15.15 15.71C15.05 15.78 14.94 15.84 14.82 15.89Q14.65 15.96 14.48 16L14.47 16C14.33 16.03 14.19 16.04 14.04 16.04L11.75 16.04C11.47 16.04 11.25 15.83 11.25 15.55C11.25 15.27 11.47 15.05 11.75 15.05Z" fill="#191919" fill-opacity="1.000000" fill-rule="evenodd"/>
</svg>
