<svg width="107.000000" height="92.000000" viewBox="0 0 107 92" fill="none" xmlns="http://www.w3.org/2000/svg" xmlns:xlink="http://www.w3.org/1999/xlink">
	<desc>
			Created with Pixso.
	</desc>
	<defs/>
	<g opacity="0.200000">
		<path d="M103.15 83.15L3.84 83.15C1.72 83.15 0 85.14 0 87.57C0 90 1.72 92 3.84 92L103.15 92C105.27 92 107 90 107 87.57C107 85.14 105.27 83.15 103.15 83.15ZM4.51 75.19L102.54 75.19C104.99 75.19 107 73.2 107 70.76L107 66.34C107 39.53 86.89 17.41 60.88 13.82C61.82 12.38 62.43 10.67 62.43 8.84C62.43 3.98 58.42 0 53.52 0C48.62 0 44.61 3.98 44.61 8.84C44.61 10.72 45.17 12.43 46.17 13.82C20.1 17.36 0.05 39.47 0.05 66.34L0.05 70.76C0.05 73.2 2.06 75.19 4.51 75.19ZM15.03 50.75C19.21 42.51 26.01 35.77 34.31 31.62C35.75 30.9 37.54 31.45 38.32 32.95C39.04 34.38 38.48 36.21 36.98 36.93C29.85 40.47 23.95 46.33 20.38 53.4C19.88 54.45 18.82 55.06 17.71 55.06C17.26 55.06 16.82 54.95 16.37 54.73C14.87 54.01 14.31 52.24 15.03 50.75Z" fill="#FFFFFF" fill-opacity="1.000000" fill-rule="nonzero"/>
	</g>
</svg>
