<svg width="24.000000" height="24.000000" viewBox="0 0 24 24" fill="none" xmlns="http://www.w3.org/2000/svg" xmlns:xlink="http://www.w3.org/1999/xlink">
	<desc>
			Created with Pixso.
	</desc>
	<defs>
		<clipPath id="clip16_2202">
			<rect width="24.000000" height="24.000000" fill="white" fill-opacity="0"/>
		</clipPath>
	</defs>
	<g clip-path="url(#clip16_2202)">
		<path d="M11.25 9L11.25 3.25C11.25 3.08 11.23 2.92 11.19 2.77C11.16 2.63 11.12 2.5 11.07 2.37C11.01 2.24 10.95 2.12 10.87 2C10.79 1.88 10.69 1.76 10.58 1.65C10.48 1.54 10.36 1.45 10.23 1.37C10.12 1.29 10 1.23 9.87 1.17C9.74 1.12 9.6 1.07 9.46 1.04C9.31 1.01 9.15 1 9 1L3.25 1C3.08 1 2.92 1.01 2.76 1.05C2.63 1.08 2.5 1.12 2.37 1.17C2.24 1.23 2.12 1.29 2 1.37C1.88 1.45 1.76 1.55 1.65 1.65C1.55 1.76 1.45 1.88 1.37 2C1.29 2.12 1.23 2.24 1.17 2.37C1.12 2.5 1.08 2.63 1.05 2.76C1.01 2.92 1 3.08 1 3.25L1 9C1 9.15 1.01 9.31 1.04 9.46C1.07 9.6 1.12 9.74 1.17 9.87C1.23 10 1.29 10.12 1.37 10.23C1.45 10.36 1.54 10.48 1.65 10.58C1.76 10.69 1.88 10.79 2 10.87C2.12 10.95 2.24 11.01 2.37 11.07C2.5 11.12 2.63 11.16 2.77 11.19C2.92 11.23 3.08 11.25 3.25 11.25L9 11.25C9.15 11.25 9.31 11.23 9.46 11.2C9.6 11.17 9.74 11.12 9.87 11.07C10 11.01 10.12 10.95 10.23 10.88C10.36 10.79 10.47 10.69 10.58 10.58C10.69 10.47 10.79 10.36 10.88 10.23C10.95 10.12 11.01 10 11.07 9.87C11.12 9.74 11.17 9.6 11.2 9.46C11.23 9.31 11.25 9.15 11.25 9ZM9.69 2.96C9.73 3.05 9.75 3.14 9.75 3.25L9.75 9C9.75 9.09 9.73 9.18 9.69 9.27C9.66 9.36 9.6 9.45 9.52 9.52C9.45 9.6 9.36 9.66 9.27 9.69C9.18 9.73 9.09 9.75 9 9.75L3.25 9.75C3.14 9.75 3.05 9.73 2.96 9.69C2.87 9.65 2.79 9.6 2.71 9.52C2.64 9.45 2.58 9.37 2.55 9.28C2.51 9.19 2.5 9.1 2.5 9L2.5 3.25C2.5 3.14 2.51 3.04 2.55 2.95C2.59 2.86 2.64 2.79 2.71 2.71C2.79 2.64 2.86 2.59 2.95 2.55C3.04 2.51 3.14 2.5 3.25 2.5L9 2.5C9.1 2.5 9.19 2.51 9.28 2.55C9.37 2.58 9.45 2.64 9.52 2.71C9.6 2.79 9.65 2.87 9.69 2.96Z" fill="#000000" fill-opacity="0.600000" fill-rule="evenodd"/>
		<path d="M11.25 20.75L11.25 15C11.25 14.83 11.23 14.67 11.19 14.52C11.16 14.38 11.12 14.25 11.07 14.12C11.01 13.99 10.95 13.87 10.87 13.75C10.79 13.63 10.69 13.51 10.58 13.4C10.48 13.29 10.36 13.2 10.23 13.12C10.12 13.04 10 12.98 9.87 12.92C9.74 12.87 9.6 12.82 9.46 12.79C9.31 12.76 9.15 12.75 9 12.75L3.25 12.75C3.08 12.75 2.92 12.76 2.76 12.8C2.63 12.83 2.5 12.87 2.37 12.92C2.24 12.98 2.12 13.04 2 13.12C1.88 13.2 1.76 13.3 1.65 13.4C1.55 13.51 1.45 13.63 1.37 13.75C1.29 13.87 1.23 13.99 1.17 14.12C1.12 14.25 1.08 14.38 1.05 14.51C1.01 14.67 1 14.83 1 15L1 20.75C1 20.9 1.01 21.06 1.04 21.21C1.07 21.35 1.12 21.49 1.17 21.62C1.23 21.75 1.29 21.87 1.37 21.98C1.45 22.11 1.54 22.23 1.65 22.33C1.76 22.44 1.88 22.54 2 22.62C2.12 22.7 2.24 22.76 2.37 22.82C2.5 22.87 2.63 22.91 2.77 22.94C2.92 22.98 3.08 23 3.25 23L9 23C9.15 23 9.31 22.98 9.46 22.95C9.6 22.92 9.74 22.87 9.87 22.82C10 22.76 10.12 22.7 10.23 22.63C10.36 22.54 10.47 22.44 10.58 22.33C10.69 22.22 10.79 22.11 10.88 21.98C10.95 21.87 11.01 21.75 11.07 21.62C11.12 21.49 11.17 21.35 11.2 21.21C11.23 21.06 11.25 20.9 11.25 20.75ZM9.69 14.71C9.73 14.8 9.75 14.89 9.75 15L9.75 20.75C9.75 20.84 9.73 20.93 9.69 21.02C9.66 21.11 9.6 21.2 9.52 21.27C9.45 21.35 9.36 21.41 9.27 21.45C9.18 21.48 9.09 21.5 9 21.5L3.25 21.5C3.14 21.5 3.05 21.48 2.96 21.44C2.87 21.4 2.79 21.35 2.71 21.27C2.64 21.2 2.58 21.12 2.55 21.03C2.51 20.94 2.5 20.85 2.5 20.75L2.5 15C2.5 14.89 2.51 14.79 2.55 14.7C2.59 14.61 2.64 14.54 2.71 14.46C2.79 14.39 2.86 14.34 2.95 14.3C3.04 14.26 3.14 14.25 3.25 14.25L9 14.25C9.1 14.25 9.19 14.26 9.28 14.3C9.37 14.33 9.45 14.39 9.52 14.46C9.6 14.54 9.65 14.62 9.69 14.71Z" fill="#000000" fill-opacity="0.600000" fill-rule="evenodd"/>
		<path d="M23 9L23 3.25C23 3.08 22.98 2.92 22.94 2.77C22.91 2.63 22.87 2.5 22.82 2.37C22.76 2.24 22.7 2.12 22.62 2C22.54 1.88 22.44 1.76 22.33 1.65C22.23 1.54 22.11 1.45 21.98 1.37C21.87 1.29 21.75 1.23 21.62 1.17C21.49 1.12 21.35 1.07 21.21 1.04C21.06 1.01 20.9 1 20.75 1L15 1C14.83 1 14.67 1.01 14.51 1.05C14.38 1.08 14.25 1.12 14.12 1.17C13.99 1.23 13.87 1.29 13.75 1.37C13.63 1.45 13.51 1.55 13.4 1.65C13.3 1.76 13.2 1.88 13.12 2C13.04 2.12 12.98 2.24 12.92 2.37C12.87 2.5 12.83 2.63 12.8 2.76C12.76 2.92 12.75 3.08 12.75 3.25L12.75 9C12.75 9.15 12.76 9.31 12.79 9.46C12.82 9.6 12.87 9.74 12.92 9.87C12.98 10 13.04 10.12 13.12 10.23C13.2 10.36 13.29 10.48 13.4 10.58C13.51 10.69 13.63 10.79 13.75 10.87C13.87 10.95 13.99 11.01 14.12 11.07C14.25 11.12 14.38 11.16 14.52 11.19C14.67 11.23 14.83 11.25 15 11.25L20.75 11.25C20.9 11.25 21.06 11.23 21.21 11.2C21.35 11.17 21.49 11.12 21.62 11.07C21.75 11.01 21.87 10.95 21.98 10.88C22.11 10.79 22.22 10.69 22.33 10.58C22.44 10.47 22.54 10.36 22.63 10.23C22.7 10.12 22.76 10 22.82 9.87C22.87 9.74 22.92 9.6 22.95 9.46C22.98 9.31 23 9.15 23 9ZM21.44 2.96C21.48 3.05 21.5 3.14 21.5 3.25L21.5 9C21.5 9.09 21.48 9.18 21.45 9.27C21.41 9.36 21.35 9.45 21.27 9.52C21.2 9.6 21.11 9.66 21.02 9.69C20.93 9.73 20.84 9.75 20.75 9.75L15 9.75C14.89 9.75 14.8 9.73 14.71 9.69C14.62 9.65 14.54 9.6 14.46 9.52C14.39 9.45 14.33 9.37 14.3 9.28C14.26 9.19 14.25 9.1 14.25 9L14.25 3.25C14.25 3.14 14.26 3.04 14.3 2.95C14.34 2.86 14.39 2.79 14.46 2.71C14.54 2.64 14.61 2.59 14.7 2.55C14.79 2.51 14.89 2.5 15 2.5L20.75 2.5C20.85 2.5 20.94 2.51 21.03 2.55C21.12 2.58 21.2 2.64 21.27 2.71C21.35 2.79 21.4 2.87 21.44 2.96Z" fill="#000000" fill-opacity="0.600000" fill-rule="evenodd"/>
		<path d="M23.5 17.87C23.5 20.97 20.97 23.5 17.87 23.5C14.77 23.5 12.25 20.97 12.25 17.87C12.25 14.77 14.77 12.25 17.87 12.25C20.97 12.25 23.5 14.77 23.5 17.87ZM22 17.87C22 20.15 20.15 22 17.87 22C15.59 22 13.75 20.15 13.75 17.87C13.75 15.59 15.59 13.75 17.87 13.75C20.15 13.75 22 15.59 22 17.87Z" fill="#000000" fill-opacity="0.600000" fill-rule="evenodd"/>
	</g>
</svg>
