<svg width="24.000000" height="24.000000" viewBox="0 0 24 24" fill="none" xmlns="http://www.w3.org/2000/svg" xmlns:xlink="http://www.w3.org/1999/xlink">
	<desc>
			Created with Pixso.
	</desc>
	<defs>
		<clipPath id="clip16_2243">
			<rect width="24.000000" height="24.000000" fill="white" fill-opacity="0"/>
		</clipPath>
	</defs>
	<g clip-path="url(#clip16_2243)">
		<path d="M22.19 21.98C22.23 21.83 22.25 21.67 22.25 21.51C22.25 20.85 22.17 20.21 22.03 19.59C21.92 19.08 21.76 18.58 21.56 18.1C21.35 17.6 21.1 17.13 20.81 16.69C20.48 16.2 20.1 15.74 19.68 15.31C19.25 14.89 18.79 14.51 18.3 14.19C17.86 13.9 17.39 13.64 16.89 13.43C16.4 13.23 15.91 13.07 15.4 12.95C14.77 12.82 14.13 12.75 13.48 12.75L10.51 12.75C9.85 12.75 9.21 12.82 8.58 12.96C8.08 13.07 7.58 13.23 7.1 13.43C6.6 13.64 6.13 13.9 5.69 14.19C5.19 14.51 4.74 14.89 4.31 15.31C3.89 15.74 3.51 16.19 3.19 16.69C2.9 17.13 2.64 17.6 2.43 18.1C2.23 18.58 2.07 19.08 1.96 19.58C1.82 20.21 1.75 20.85 1.75 21.51C1.75 21.67 1.76 21.83 1.8 21.99C1.83 22.12 1.87 22.25 1.92 22.38C1.97 22.51 2.04 22.63 2.12 22.75C2.2 22.87 2.29 22.98 2.4 23.09C2.5 23.2 2.62 23.29 2.74 23.37C2.86 23.45 2.98 23.51 3.1 23.57C3.23 23.62 3.36 23.66 3.49 23.69C3.65 23.73 3.81 23.75 3.97 23.75L20.01 23.75C20.17 23.75 20.33 23.73 20.48 23.69C20.62 23.67 20.75 23.62 20.88 23.57C21.01 23.51 21.13 23.45 21.24 23.37C21.37 23.29 21.48 23.2 21.59 23.09C21.7 22.98 21.79 22.87 21.87 22.74C21.95 22.63 22.01 22.51 22.07 22.38C22.12 22.25 22.17 22.12 22.19 21.98ZM20.56 19.89C20.68 20.41 20.75 20.95 20.75 21.51C20.75 21.61 20.73 21.71 20.69 21.79C20.66 21.88 20.6 21.96 20.53 22.03C20.46 22.1 20.38 22.16 20.29 22.19C20.21 22.23 20.11 22.25 20.01 22.25L3.97 22.25C3.87 22.25 3.78 22.23 3.69 22.19C3.61 22.15 3.53 22.1 3.46 22.03C3.39 21.96 3.34 21.88 3.3 21.8C3.26 21.71 3.25 21.61 3.25 21.51C3.25 20.95 3.31 20.41 3.43 19.88C3.52 19.47 3.65 19.07 3.82 18.68C3.99 18.27 4.19 17.89 4.43 17.52C4.7 17.11 5.02 16.73 5.37 16.37C5.73 16.02 6.11 15.7 6.52 15.43C6.89 15.19 7.27 14.99 7.68 14.82C8.07 14.65 8.47 14.52 8.88 14.43C9.41 14.31 9.95 14.25 10.51 14.25L13.48 14.25C14.03 14.25 14.57 14.31 15.1 14.43C15.51 14.52 15.91 14.65 16.31 14.82C16.71 14.99 17.1 15.19 17.46 15.43C17.88 15.7 18.26 16.02 18.62 16.37C18.97 16.73 19.29 17.12 19.56 17.53C19.8 17.89 20 18.28 20.17 18.68C20.34 19.07 20.47 19.48 20.56 19.89Z" fill="#000000" fill-opacity="0.600000" fill-rule="evenodd"/>
		<path d="M6.5 5.75C6.5 2.71 8.96 0.25 12 0.25C15.03 0.25 17.5 2.71 17.5 5.75C17.5 8.78 15.03 11.25 12 11.25C8.96 11.25 6.5 8.78 6.5 5.75ZM8 5.75C8 3.54 9.79 1.75 12 1.75C14.2 1.75 16 3.54 16 5.75C16 7.95 14.2 9.75 12 9.75C9.79 9.75 8 7.95 8 5.75Z" fill="#000000" fill-opacity="0.600000" fill-rule="evenodd"/>
	</g>
</svg>
