<svg width="24.000000" height="24.000000" viewBox="0 0 24 24" fill="none" xmlns="http://www.w3.org/2000/svg" xmlns:xlink="http://www.w3.org/1999/xlink">
	<desc>
			Created with Pixso.
	</desc>
	<defs>
		<clipPath id="clip16_2227">
			<rect width="24.000000" height="24.000000" fill="white" fill-opacity="0"/>
		</clipPath>
	</defs>
	<g clip-path="url(#clip16_2227)">
		<path d="M9 1.75C9.82 1.75 10.5 2.42 10.5 3.25L10.5 9C10.5 9.82 9.82 10.5 9 10.5L3.25 10.5C2.41 10.5 1.75 9.82 1.75 9L1.75 3.25C1.75 2.42 2.41 1.75 3.25 1.75L9 1.75Z" fill="#FD4238" fill-opacity="1.000000" fill-rule="nonzero"/>
		<path d="M9 13.5C9.82 13.5 10.5 14.17 10.5 15L10.5 20.75C10.5 21.57 9.82 22.25 9 22.25L3.25 22.25C2.41 22.25 1.75 21.57 1.75 20.75L1.75 15C1.75 14.17 2.41 13.5 3.25 13.5L9 13.5Z" fill="#FD4238" fill-opacity="1.000000" fill-rule="nonzero"/>
		<path d="M20.75 1.75C21.57 1.75 22.25 2.42 22.25 3.25L22.25 9C22.25 9.82 21.57 10.5 20.75 10.5L15 10.5C14.17 10.5 13.5 9.82 13.5 9L13.5 3.25C13.5 2.42 14.17 1.75 15 1.75L20.75 1.75Z" fill="#FD4238" fill-opacity="1.000000" fill-rule="nonzero"/>
		<circle cx="17.875000" cy="17.875000" r="4.875000" fill="#FD4238" fill-opacity="0.600000"/>
	</g>
</svg>
