<svg width="24.000000" height="24.000000" viewBox="0 0 24 24" fill="none" xmlns="http://www.w3.org/2000/svg" xmlns:xlink="http://www.w3.org/1999/xlink">
	<desc>
			Created with Pixso.
	</desc>
	<defs>
		<clipPath id="clip16_2075">
			<rect width="24.000000" height="24.000000" fill="white" fill-opacity="0"/>
		</clipPath>
	</defs>
	<g clip-path="url(#clip16_2075)">
		<path d="M15.5 22.35L20.1 22.35Q21.22 22.35 21.78 21.78Q22.35 21.22 22.35 20.1L22.35 12.48C22.35 12.17 22.29 11.88 22.18 11.62C22.07 11.36 21.91 11.12 21.69 10.9L12.75 1.87C12.58 1.7 12.41 1.61 12.23 1.61C12.05 1.61 11.88 1.69 11.7 1.86L2.33 10.9C2.1 11.12 1.93 11.37 1.82 11.64C1.7 11.91 1.65 12.2 1.65 12.52L1.65 20.1Q1.65 21.22 2.21 21.78Q2.77 22.35 3.9 22.35L7.75 22.35L7.75 16.25C7.75 15.93 7.78 15.63 7.84 15.33C7.9 15.08 7.98 14.83 8.08 14.59C8.18 14.35 8.3 14.12 8.45 13.91C8.6 13.67 8.78 13.45 8.99 13.24C9.2 13.03 9.42 12.85 9.66 12.7C9.87 12.55 10.1 12.43 10.34 12.33C10.58 12.23 10.83 12.15 11.08 12.09C11.38 12.03 11.68 12 12 12C12.31 12 12.61 12.03 12.91 12.09C13.16 12.15 13.41 12.23 13.65 12.33C13.89 12.43 14.12 12.55 14.33 12.7C14.57 12.85 14.79 13.03 15 13.24C15.21 13.45 15.39 13.67 15.54 13.91C15.69 14.12 15.81 14.35 15.91 14.59C16.01 14.83 16.09 15.08 16.15 15.33C16.21 15.63 16.25 15.93 16.25 16.25L16.25 20.1C16.25 20.52 15.92 20.85 15.5 20.85C15.08 20.85 14.75 20.52 14.75 20.1L14.75 16.25C14.75 16.03 14.72 15.83 14.68 15.62C14.64 15.47 14.59 15.32 14.53 15.17C14.47 15.02 14.39 14.88 14.3 14.74C14.2 14.59 14.08 14.44 13.94 14.3C13.8 14.16 13.65 14.04 13.5 13.94C13.36 13.85 13.22 13.77 13.07 13.71C12.92 13.65 12.77 13.6 12.62 13.56C12.41 13.52 12.21 13.5 12 13.5C11.78 13.5 11.58 13.52 11.37 13.56C11.22 13.6 11.07 13.65 10.92 13.71C10.77 13.77 10.63 13.85 10.49 13.94C10.34 14.04 10.19 14.16 10.05 14.3C9.91 14.44 9.79 14.59 9.69 14.74C9.6 14.88 9.52 15.02 9.46 15.17C9.4 15.32 9.35 15.47 9.31 15.62C9.27 15.83 9.25 16.03 9.25 16.25L9.24 23.1C9.24 23.52 8.91 23.85 8.49 23.85L3.9 23.85Q3.12 23.85 2.46 23.57L2.46 23.57C2.01 23.39 1.61 23.11 1.24 22.75C0.88 22.38 0.6 21.98 0.42 21.53C0.24 21.09 0.15 20.61 0.15 20.1L0.15 12.52C0.15 11.99 0.24 11.5 0.43 11.05C0.62 10.6 0.91 10.19 1.29 9.82L10.66 0.78C11.19 0.27 11.72 0.02 12.25 0.02C12.77 0.03 13.3 0.29 13.82 0.82L22.76 9.84C23.12 10.21 23.39 10.61 23.57 11.05C23.75 11.49 23.85 11.97 23.85 12.48L23.85 20.1Q23.85 21.97 22.91 22.91Q21.97 23.85 20.1 23.85L15.5 23.85C15.08 23.85 14.75 23.52 14.75 23.1C14.75 22.68 15.08 22.35 15.5 22.35Z" fill="#000000" fill-opacity="0.600000" fill-rule="evenodd"/>
	</g>
</svg>
