<svg width="24.000000" height="24.000000" viewBox="0 0 24 24" fill="none" xmlns="http://www.w3.org/2000/svg" xmlns:xlink="http://www.w3.org/1999/xlink">
	<desc>
			Created with Pixso.
	</desc>
	<defs>
		<clipPath id="clip16_2155">
			<rect width="24.000000" height="24.000000" fill="white" fill-opacity="0"/>
		</clipPath>
	</defs>
	<g clip-path="url(#clip16_2155)">
		<path d="M16.4 23.1L20.09 23.1C21.75 23.1 23.09 21.75 23.09 20.1L23.09 12.48C23.09 11.69 22.78 10.93 22.23 10.37L13.29 1.35C12.71 0.76 11.77 0.75 11.18 1.32L1.81 10.36C1.23 10.93 0.89 11.71 0.89 12.52L0.89 20.1C0.89 21.75 2.24 23.1 3.89 23.1L7.59 23.1L7.59 16.25C7.59 13.81 9.56 11.85 11.99 11.85C14.43 11.85 16.4 13.81 16.4 16.25L16.4 23.1Z" fill="#FD4238" fill-opacity="1.000000" fill-rule="evenodd"/>
	</g>
</svg>
