<svg width="14.000000" height="14.000000" viewBox="0 0 14 14" fill="none" xmlns="http://www.w3.org/2000/svg" xmlns:xlink="http://www.w3.org/1999/xlink">
	<desc>
			Created with Pixso.
	</desc>
	<defs>
		<clipPath id="clip74_5488">
			<rect id="ic_public_clock" width="14.000000" height="14.000000" fill="white" fill-opacity="0"/>
		</clipPath>
	</defs>
	<g clip-path="url(#clip74_5488)">
		<path id="path1" d="M0.43 6.99C0.43 5.96 0.43 4.94 0.43 3.91C0.43 3.42 0.49 2.92 0.62 2.44C0.88 1.43 1.55 0.82 2.56 0.59C3.07 0.48 3.59 0.43 4.12 0.43C6.08 0.43 8.05 0.43 10.01 0.43C10.51 0.43 11.01 0.49 11.49 0.6C12.54 0.86 13.16 1.52 13.4 2.57C13.51 3.06 13.56 3.56 13.56 4.07C13.56 6.05 13.56 8.04 13.56 10.03C13.56 10.52 13.5 11.01 13.39 11.49C13.13 12.54 12.47 13.16 11.42 13.4C10.91 13.51 10.39 13.56 9.87 13.56C7.91 13.56 5.95 13.56 4 13.56C3.5 13.56 3 13.5 2.51 13.39C1.46 13.13 0.83 12.47 0.59 11.42C0.47 10.89 0.43 10.35 0.43 9.81C0.43 8.87 0.43 7.93 0.43 6.99Z" fill="#FFFFFF" fill-opacity="0" fill-rule="nonzero"/>
		<path id="path1" d="M0.43 3.91C0.43 3.42 0.49 2.92 0.62 2.44C0.88 1.43 1.55 0.82 2.56 0.59C3.07 0.48 3.59 0.43 4.12 0.43C6.08 0.43 8.05 0.43 10.01 0.43C10.51 0.43 11.01 0.49 11.49 0.6C12.54 0.86 13.16 1.52 13.4 2.57C13.51 3.06 13.56 3.56 13.56 4.07C13.56 6.05 13.56 8.04 13.56 10.03C13.56 10.52 13.5 11.01 13.39 11.49C13.13 12.54 12.47 13.16 11.42 13.4C10.91 13.51 10.39 13.56 9.87 13.56C7.91 13.56 5.95 13.56 4 13.56C3.5 13.56 3 13.5 2.51 13.39C1.46 13.13 0.83 12.47 0.59 11.42C0.47 10.89 0.43 10.35 0.43 9.81C0.43 8.87 0.43 7.93 0.43 6.99C0.43 5.96 0.43 4.94 0.43 3.91Z" stroke="#FFFFFF" stroke-opacity="0" stroke-width="0.997500"/>
		<g opacity="0.200000">
			<path id="path2" d="M0.43 6.99C0.43 5.96 0.43 4.94 0.43 3.91C0.43 3.42 0.49 2.92 0.62 2.44C0.88 1.43 1.55 0.82 2.56 0.59C3.07 0.48 3.59 0.43 4.12 0.43C6.08 0.43 8.05 0.43 10.01 0.43C10.51 0.43 11.01 0.49 11.49 0.6C12.54 0.86 13.16 1.52 13.4 2.57C13.51 3.06 13.56 3.56 13.56 4.07C13.56 6.05 13.56 8.04 13.56 10.03C13.56 10.52 13.5 11.01 13.39 11.49C13.13 12.54 12.47 13.16 11.42 13.4C10.91 13.51 10.39 13.56 9.87 13.56C7.91 13.56 5.95 13.56 4 13.56C3.5 13.56 3 13.5 2.51 13.39C1.46 13.13 0.83 12.47 0.59 11.42C0.47 10.89 0.43 10.35 0.43 9.81C0.43 8.87 0.43 7.93 0.43 6.99Z" fill="#000000" fill-opacity="0" fill-rule="nonzero"/>
			<path id="path2" d="M0.43 3.91C0.43 3.42 0.49 2.92 0.62 2.44C0.88 1.43 1.55 0.82 2.56 0.59C3.07 0.48 3.59 0.43 4.12 0.43C6.08 0.43 8.05 0.43 10.01 0.43C10.51 0.43 11.01 0.49 11.49 0.6C12.54 0.86 13.16 1.52 13.4 2.57C13.51 3.06 13.56 3.56 13.56 4.07C13.56 6.05 13.56 8.04 13.56 10.03C13.56 10.52 13.5 11.01 13.39 11.49C13.13 12.54 12.47 13.16 11.42 13.4C10.91 13.51 10.39 13.56 9.87 13.56C7.91 13.56 5.95 13.56 4 13.56C3.5 13.56 3 13.5 2.51 13.39C1.46 13.13 0.83 12.47 0.59 11.42C0.47 10.89 0.43 10.35 0.43 9.81C0.43 8.87 0.43 7.93 0.43 6.99C0.43 5.96 0.43 4.94 0.43 3.91Z" stroke="#FFFFFF" stroke-opacity="0" stroke-width="0.997500"/>
		</g>
		<circle id="path3" cx="7.000000" cy="7.000000" r="7.000000" fill="#FFFFFF" fill-opacity="0"/>
		<circle id="path3" cx="7.000000" cy="7.000000" r="7.000000" stroke="#000000" stroke-opacity="0" stroke-width="0.997500"/>
		<circle id="path4" cx="7.000000" cy="7.000031" r="6.475000" fill="#FFFFFF" fill-opacity="0"/>
		<circle id="path4" cx="7.000000" cy="7.000031" r="6.475000" stroke="#FFFFFF" stroke-opacity="0" stroke-width="0.997500" stroke-linejoin="round"/>
		<path id="path5" d="M11.3 2.14C11.29 2.16 11.28 2.17 11.26 2.19L11.8 2.73C11.82 2.72 11.84 2.7 11.86 2.69C12.08 2.52 12.39 2.56 12.55 2.78L12.55 2.81L12.17 3.1C12.99 4.18 13.47 5.53 13.47 7C13.47 10.57 10.57 13.47 7 13.47C3.42 13.47 0.52 10.57 0.52 7C0.52 3.42 3.42 0.52 7 0.52C8.26 0.52 9.44 0.88 10.44 1.51C10.59 1.61 10.75 1.71 10.89 1.82L11.18 1.44L11.21 1.44C11.43 1.61 11.47 1.91 11.3 2.14Z" fill="#FFFFFF" fill-opacity="0" fill-rule="evenodd"/>
		<path id="path5" d="M10.91 1.84C10.76 1.72 10.6 1.61 10.44 1.51C9.44 0.88 8.26 0.52 7 0.52C3.42 0.52 0.52 3.42 0.52 7C0.52 10.57 3.42 13.47 7 13.47C10.57 13.47 13.47 10.57 13.47 7C13.47 5.53 12.98 4.17 12.16 3.09" stroke="#0A554A" stroke-opacity="1.000000" stroke-width="0.997500" stroke-linejoin="round" stroke-linecap="round"/>
		<path id="path6" d="M6.52 2.92L6.5 2.9C6.5 2.62 6.72 2.4 7 2.4C7.27 2.4 7.49 2.62 7.49 2.9L7.47 2.92L6.52 2.92ZM9.24 8.56L9.27 8.56C9.46 8.77 9.45 9.08 9.25 9.27C9.04 9.46 8.73 9.45 8.54 9.25L8.54 9.22L9.24 8.56Z" fill="#000000" fill-opacity="0" fill-rule="nonzero"/>
		<path id="path6" d="M7 2.9L7 6.88L8.9 8.9" stroke="#0A554A" stroke-opacity="1.000000" stroke-width="0.997500" stroke-linejoin="round" stroke-linecap="round"/>
	</g>
</svg>
