<svg width="24.000000" height="24.000000" viewBox="0 0 24 24" fill="none" xmlns="http://www.w3.org/2000/svg" xmlns:xlink="http://www.w3.org/1999/xlink">
	<desc>
			Created with Pixso.
	</desc>
	<defs>
		<clipPath id="clip74_5170">
			<rect id="ic_public_teams" width="24.000000" height="24.000000" fill="white" fill-opacity="0"/>
		</clipPath>
	</defs>
	<g clip-path="url(#clip74_5170)">
		<path id="path1" d="M0 11.99C0 10.11 -0.01 8.24 0 6.36C-0.01 5.45 0.11 4.55 0.33 3.67C0.82 1.81 2.03 0.71 3.89 0.27C4.82 0.08 5.78 -0.02 6.73 0C10.32 0 13.92 0 17.52 0C18.42 -0.01 19.33 0.09 20.21 0.3C22.13 0.77 23.28 1.99 23.71 3.9C23.91 4.8 24 5.72 23.99 6.64C23.99 10.28 23.99 13.91 23.99 17.54C24 18.44 23.9 19.34 23.69 20.21C23.22 22.13 22 23.27 20.09 23.71C19.16 23.91 18.21 24.01 17.25 23.99C13.67 23.99 10.09 23.99 6.51 23.99C5.6 24 4.69 23.9 3.8 23.69C1.87 23.22 0.72 22 0.28 20.08C0.06 19.11 0 18.13 0 17.15C0 15.43 0 13.71 0 11.99Z" fill="#FFFFFF" fill-opacity="0" fill-rule="evenodd"/>
		<circle id="path2" cx="12.000000" cy="12.000000" r="12.000000" fill="#FFFFFF" fill-opacity="0"/>
		<mask id="mask74_5174" mask-type="alpha" maskUnits="userSpaceOnUse" x="0.000000" y="0.000000" width="24.000000" height="24.000000">
			<path id="mask" d="M7.2 0L0 0L0 16.08C0.13 15.84 0.28 15.6 0.43 15.37C0.6 15.12 0.78 14.88 0.97 14.65C1.18 14.39 1.4 14.15 1.64 13.91C1.88 13.67 2.13 13.44 2.39 13.23C2.62 13.05 2.86 12.87 3.1 12.7C3.4 12.5 3.7 12.32 4.02 12.15C4.27 12.02 4.52 11.9 4.78 11.79C5.03 11.68 5.28 11.59 5.54 11.5C4 10.27 3.01 8.37 3.01 6.24C3.01 3.42 4.74 1 7.2 0ZM0 23.62L0 24L0.51 24C0.46 23.96 0.4 23.93 0.35 23.89C0.22 23.81 0.11 23.72 0 23.62ZM18.98 24C19.04 23.96 19.1 23.93 19.15 23.89C19.35 23.76 19.53 23.61 19.7 23.44C19.87 23.27 20.02 23.09 20.15 22.89C20.27 22.71 20.38 22.51 20.47 22.3C20.56 22.08 20.63 21.86 20.67 21.64C20.72 21.4 20.75 21.15 20.75 20.9C20.75 20.45 20.72 20 20.66 19.56C20.63 19.34 20.59 19.12 20.55 18.91C20.48 18.59 20.4 18.27 20.31 17.96C20.21 17.65 20.1 17.35 19.97 17.05C19.86 16.79 19.74 16.53 19.61 16.28C19.44 15.97 19.26 15.66 19.06 15.37C18.89 15.12 18.72 14.88 18.53 14.65C18.32 14.39 18.09 14.15 17.86 13.91C17.62 13.67 17.37 13.44 17.11 13.23C16.88 13.05 16.64 12.87 16.39 12.7C16.1 12.5 15.79 12.32 15.48 12.15C15.23 12.02 14.97 11.9 14.71 11.79C14.46 11.68 14.21 11.59 13.96 11.5C15.5 10.27 16.49 8.37 16.49 6.24C16.49 3.42 14.76 1 12.3 0L24 0L24 24L18.98 24Z" fill="#C4C4C4" fill-opacity="1.000000" fill-rule="evenodd"/>
		</mask>
		<g mask="url(#mask74_5174)">
			<circle id="path3" cx="15.500000" cy="6.828369" r="3.611111" fill="#000000" fill-opacity="0"/>
			<circle id="path3" cx="15.500000" cy="6.828369" r="3.611111" stroke="#0A554A" stroke-opacity="1.000000" stroke-width="1.500000"/>
		</g>
		<mask id="mask74_5179" mask-type="alpha" maskUnits="userSpaceOnUse" x="0.000000" y="0.000000" width="24.000000" height="24.000000">
			<path id="mask" d="M7.2 0L0 0L0 16.08C0.13 15.84 0.28 15.6 0.43 15.37C0.6 15.12 0.78 14.88 0.97 14.65C1.18 14.39 1.4 14.15 1.64 13.91C1.88 13.67 2.13 13.44 2.39 13.23C2.62 13.05 2.86 12.87 3.1 12.7C3.4 12.5 3.7 12.32 4.02 12.15C4.27 12.02 4.52 11.9 4.78 11.79C5.03 11.68 5.28 11.59 5.54 11.5C4 10.27 3.01 8.37 3.01 6.24C3.01 3.42 4.74 1 7.2 0ZM0 23.62L0 24L0.51 24C0.46 23.96 0.4 23.93 0.35 23.89C0.22 23.81 0.11 23.72 0 23.62ZM18.98 24C19.04 23.96 19.1 23.93 19.15 23.89C19.35 23.76 19.53 23.61 19.7 23.44C19.87 23.27 20.02 23.09 20.15 22.89C20.27 22.71 20.38 22.51 20.47 22.3C20.56 22.08 20.63 21.86 20.67 21.64C20.72 21.4 20.75 21.15 20.75 20.9C20.75 20.45 20.72 20 20.66 19.56C20.63 19.34 20.59 19.12 20.55 18.91C20.48 18.59 20.4 18.27 20.31 17.96C20.21 17.65 20.1 17.35 19.97 17.05C19.86 16.79 19.74 16.53 19.61 16.28C19.44 15.97 19.26 15.66 19.06 15.37C18.89 15.12 18.72 14.88 18.53 14.65C18.32 14.39 18.09 14.15 17.86 13.91C17.62 13.67 17.37 13.44 17.11 13.23C16.88 13.05 16.64 12.87 16.39 12.7C16.1 12.5 15.79 12.32 15.48 12.15C15.23 12.02 14.97 11.9 14.71 11.79C14.46 11.68 14.21 11.59 13.96 11.5C15.5 10.27 16.49 8.37 16.49 6.24C16.49 3.42 14.76 1 12.3 0L24 0L24 24L18.98 24Z" fill="#C4C4C4" fill-opacity="1.000000" fill-rule="evenodd"/>
		</mask>
		<g mask="url(#mask74_5179)">
			<path id="path4" d="M16.45 13.08C20.06 13.08 23 16.01 23 19.62C23 20.26 22.48 20.78 21.84 20.78L9.14 20.78C8.51 20.78 8 20.26 8 19.62C8 16.01 10.92 13.08 14.54 13.08L16.45 13.08Z" fill="#000000" fill-opacity="0" fill-rule="nonzero"/>
			<path id="path4" d="M23 19.62C23 20.26 22.48 20.78 21.84 20.78L9.14 20.78C8.51 20.78 8 20.26 8 19.62C8 16.01 10.92 13.08 14.54 13.08L16.45 13.08C20.06 13.08 23 16.01 23 19.62Z" stroke="#0A554A" stroke-opacity="1.000000" stroke-width="1.500000"/>
		</g>
		<circle id="path5" cx="9.752930" cy="6.241577" r="4.491573" fill="#000000" fill-opacity="0"/>
		<circle id="path5" cx="9.752930" cy="6.241577" r="4.491573" stroke="#0A554A" stroke-opacity="1.000000" stroke-width="1.500000"/>
		<path id="path6" d="M10.86 13.26C15.08 13.26 18.5 16.68 18.5 20.9C18.5 21.64 17.89 22.24 17.15 22.24L2.34 22.24C1.6 22.24 1 21.64 1 20.9C1 16.68 4.41 13.26 8.63 13.26L10.86 13.26Z" fill="#000000" fill-opacity="0" fill-rule="nonzero"/>
		<path id="path6" d="M18.5 20.9C18.5 21.64 17.89 22.24 17.15 22.24L2.34 22.24C1.6 22.24 1 21.64 1 20.9C1 16.68 4.41 13.26 8.63 13.26L10.86 13.26C15.08 13.26 18.5 16.68 18.5 20.9Z" stroke="#0A554A" stroke-opacity="1.000000" stroke-width="1.500000"/>
		<mask id="mask74_5186" mask-type="alpha" maskUnits="userSpaceOnUse" x="0.000000" y="0.000000" width="24.000000" height="24.000000">
			<path id="mask" d="M7.2 0L0 0L0 16.08C0.13 15.84 0.28 15.6 0.43 15.37C0.6 15.12 0.78 14.88 0.97 14.65C1.18 14.39 1.4 14.15 1.64 13.91C1.88 13.67 2.13 13.44 2.39 13.23C2.62 13.05 2.86 12.87 3.1 12.7C3.4 12.5 3.7 12.32 4.02 12.15C4.27 12.02 4.52 11.9 4.78 11.79C5.03 11.68 5.28 11.59 5.54 11.5C4 10.27 3.01 8.37 3.01 6.24C3.01 3.42 4.74 1 7.2 0ZM0 23.62L0 24L0.51 24C0.46 23.96 0.4 23.93 0.35 23.89C0.22 23.81 0.11 23.72 0 23.62ZM18.98 24C19.04 23.96 19.1 23.93 19.15 23.89C19.35 23.76 19.53 23.61 19.7 23.44C19.87 23.27 20.02 23.09 20.15 22.89C20.27 22.71 20.38 22.51 20.47 22.3C20.56 22.08 20.63 21.86 20.67 21.64C20.72 21.4 20.75 21.15 20.75 20.9C20.75 20.45 20.72 20 20.66 19.56C20.63 19.34 20.59 19.12 20.55 18.91C20.48 18.59 20.4 18.27 20.31 17.96C20.21 17.65 20.1 17.35 19.97 17.05C19.86 16.79 19.74 16.53 19.61 16.28C19.44 15.97 19.26 15.66 19.06 15.37C18.89 15.12 18.72 14.88 18.53 14.65C18.32 14.39 18.09 14.15 17.86 13.91C17.62 13.67 17.37 13.44 17.11 13.23C16.88 13.05 16.64 12.87 16.39 12.7C16.1 12.5 15.79 12.32 15.48 12.15C15.23 12.02 14.97 11.9 14.71 11.79C14.46 11.68 14.21 11.59 13.96 11.5C15.5 10.27 16.49 8.37 16.49 6.24C16.49 3.42 14.76 1 12.3 0L24 0L24 24L18.98 24Z" fill="#C4C4C4" fill-opacity="1.000000" fill-rule="evenodd"/>
		</mask>
		<g mask="url(#mask74_5186)">
			<path id="path5" d="M15.5 2.46C13.08 2.46 11.13 4.41 11.13 6.82C11.13 9.23 13.08 11.18 15.5 11.18C17.9 11.18 19.85 9.23 19.85 6.82C19.85 4.41 17.9 2.46 15.5 2.46Z" fill="#FFFFFF" fill-opacity="0" fill-rule="evenodd"/>
		</g>
		<mask id="mask74_5191" mask-type="alpha" maskUnits="userSpaceOnUse" x="0.000000" y="0.000000" width="24.000000" height="24.000000">
			<path id="mask" d="M7.2 0L0 0L0 16.08C0.13 15.84 0.28 15.6 0.43 15.37C0.6 15.12 0.78 14.88 0.97 14.65C1.18 14.39 1.4 14.15 1.64 13.91C1.88 13.67 2.13 13.44 2.39 13.23C2.62 13.05 2.86 12.87 3.1 12.7C3.4 12.5 3.7 12.32 4.02 12.15C4.27 12.02 4.52 11.9 4.78 11.79C5.03 11.68 5.28 11.59 5.54 11.5C4 10.27 3.01 8.37 3.01 6.24C3.01 3.42 4.74 1 7.2 0ZM0 23.62L0 24L0.51 24C0.46 23.96 0.4 23.93 0.35 23.89C0.22 23.81 0.11 23.72 0 23.62ZM18.98 24C19.04 23.96 19.1 23.93 19.15 23.89C19.35 23.76 19.53 23.61 19.7 23.44C19.87 23.27 20.02 23.09 20.15 22.89C20.27 22.71 20.38 22.51 20.47 22.3C20.56 22.08 20.63 21.86 20.67 21.64C20.72 21.4 20.75 21.15 20.75 20.9C20.75 20.45 20.72 20 20.66 19.56C20.63 19.34 20.59 19.12 20.55 18.91C20.48 18.59 20.4 18.27 20.31 17.96C20.21 17.65 20.1 17.35 19.97 17.05C19.86 16.79 19.74 16.53 19.61 16.28C19.44 15.97 19.26 15.66 19.06 15.37C18.89 15.12 18.72 14.88 18.53 14.65C18.32 14.39 18.09 14.15 17.86 13.91C17.62 13.67 17.37 13.44 17.11 13.23C16.88 13.05 16.64 12.87 16.39 12.7C16.1 12.5 15.79 12.32 15.48 12.15C15.23 12.02 14.97 11.9 14.71 11.79C14.46 11.68 14.21 11.59 13.96 11.5C15.5 10.27 16.49 8.37 16.49 6.24C16.49 3.42 14.76 1 12.3 0L24 0L24 24L18.98 24Z" fill="#C4C4C4" fill-opacity="1.000000" fill-rule="evenodd"/>
		</mask>
		<g mask="url(#mask74_5191)">
			<path id="path6" d="M16.45 12.33C16.99 12.33 17.52 12.39 18.04 12.5C18.47 12.6 18.88 12.73 19.29 12.9C19.48 12.98 19.66 13.07 19.84 13.17C20.08 13.29 20.31 13.43 20.53 13.58C20.71 13.7 20.88 13.83 21.05 13.96C21.25 14.12 21.43 14.29 21.6 14.47C21.79 14.64 21.95 14.83 22.11 15.02C22.25 15.19 22.37 15.37 22.5 15.55C22.64 15.77 22.79 16 22.91 16.23C23 16.41 23.09 16.6 23.17 16.78C23.34 17.19 23.48 17.61 23.57 18.04C23.68 18.55 23.75 19.08 23.75 19.62C23.75 19.76 23.73 19.9 23.7 20.03C23.68 20.14 23.64 20.25 23.6 20.37C23.54 20.48 23.49 20.58 23.43 20.68C23.35 20.78 23.27 20.88 23.18 20.97C23.1 21.06 23 21.14 22.89 21.21C22.79 21.28 22.69 21.33 22.58 21.38C22.47 21.43 22.35 21.46 22.24 21.49C22.11 21.51 21.98 21.53 21.84 21.53L9.14 21.53C9.01 21.53 8.87 21.51 8.75 21.49C8.63 21.46 8.52 21.43 8.41 21.38C8.29 21.33 8.19 21.28 8.1 21.21C7.99 21.14 7.89 21.06 7.8 20.97C7.71 20.88 7.63 20.78 7.56 20.68C7.5 20.58 7.44 20.48 7.39 20.37C7.35 20.25 7.31 20.14 7.29 20.03C7.25 19.9 7.25 19.76 7.25 19.62C7.25 19.08 7.3 18.55 7.41 18.04C7.51 17.61 7.64 17.19 7.81 16.78C7.89 16.6 7.99 16.41 8.08 16.23C8.2 16 8.34 15.77 8.49 15.55C8.61 15.37 8.74 15.19 8.87 15.02C9.04 14.83 9.2 14.64 9.38 14.47C9.56 14.29 9.74 14.12 9.93 13.96C10.1 13.83 10.27 13.7 10.46 13.58C10.68 13.43 10.91 13.29 11.14 13.17C11.33 13.07 11.51 12.98 11.7 12.9C12.1 12.73 12.52 12.6 12.95 12.5C13.47 12.39 14 12.33 14.54 12.33L16.45 12.33Z" fill="#FFFFFF" fill-opacity="0" fill-rule="evenodd"/>
		</g>
		<path id="path7" d="M9.75 11.48C12.64 11.48 14.98 9.13 14.98 6.23C14.98 3.34 12.64 1 9.75 1C6.85 1 4.5 3.34 4.5 6.23C4.5 9.13 6.85 11.48 9.75 11.48Z" fill="#FFFFFF" fill-opacity="0" fill-rule="evenodd"/>
		<path id="path8" d="M12.05 12.6C12.22 12.62 12.39 12.65 12.55 12.68C12.83 12.74 13.1 12.81 13.35 12.89C13.62 12.97 13.87 13.06 14.12 13.17C14.35 13.26 14.56 13.36 14.76 13.47C15.03 13.61 15.29 13.77 15.55 13.94C15.76 14.08 15.96 14.23 16.15 14.39C16.37 14.57 16.59 14.76 16.79 14.97C17 15.17 17.19 15.39 17.37 15.61C17.52 15.8 17.68 16 17.81 16.2C17.99 16.46 18.14 16.73 18.29 17C18.4 17.2 18.5 17.42 18.59 17.63C18.7 17.89 18.79 18.14 18.87 18.4C18.95 18.67 19.02 18.94 19.08 19.2C19.11 19.37 19.14 19.54 19.16 19.71C19.22 20.1 19.25 20.5 19.25 20.9C19.25 21.05 19.23 21.2 19.2 21.34C19.18 21.47 19.14 21.59 19.08 21.71C19.03 21.83 18.97 21.95 18.9 22.06C18.83 22.17 18.74 22.28 18.64 22.38C18.54 22.48 18.43 22.57 18.31 22.65C18.2 22.72 18.09 22.78 17.97 22.83C17.85 22.88 17.72 22.92 17.6 22.95C17.45 22.98 17.31 22.99 17.15 22.99L2.34 22.99C2.19 22.99 2.04 22.98 1.89 22.95C1.77 22.92 1.64 22.88 1.52 22.83C1.41 22.78 1.29 22.72 1.18 22.65C1.06 22.57 0.95 22.48 0.85 22.38C0.75 22.28 0.67 22.17 0.59 22.06C0.52 21.95 0.46 21.83 0.41 21.71C0.35 21.59 0.31 21.47 0.29 21.34C0.26 21.2 0.25 21.05 0.25 20.9C0.25 20.5 0.27 20.1 0.33 19.7C0.35 19.54 0.38 19.37 0.41 19.2C0.47 18.94 0.54 18.67 0.62 18.4C0.7 18.14 0.79 17.89 0.9 17.63C1 17.42 1.1 17.2 1.2 17C1.35 16.73 1.5 16.46 1.68 16.2C1.81 16 1.97 15.8 2.12 15.61C2.3 15.39 2.5 15.17 2.7 14.97C2.91 14.76 3.12 14.57 3.34 14.39C3.53 14.23 3.73 14.08 3.94 13.94C4.2 13.77 4.46 13.61 4.73 13.47C4.93 13.36 5.15 13.26 5.37 13.17C5.62 13.06 5.87 12.97 6.14 12.89C6.4 12.81 6.66 12.74 6.94 12.68C7.1 12.65 7.27 12.62 7.44 12.6C7.83 12.54 8.23 12.51 8.63 12.51L10.86 12.51C11.26 12.51 11.66 12.54 12.05 12.6Z" fill="#FFFFFF" fill-opacity="0" fill-rule="evenodd"/>
	</g>
</svg>
