<svg width="48.000000" height="48.000000" viewBox="0 0 48 48" fill="none" xmlns="http://www.w3.org/2000/svg" xmlns:xlink="http://www.w3.org/1999/xlink">
	<desc>
			Created with Pixso.
	</desc>
	<defs/>
	<circle id="椭圆 20" cx="24.000000" cy="24.000000" r="23.000000" stroke="#000000" stroke-opacity="1.000000" stroke-width="2.000000" style=""/>
	<circle id="椭圆 20" cx="24.000000" cy="24.000000" r="18.500000" stroke="#000000" stroke-opacity="1.000000" stroke-width="1.000000" style=""/>
	<path id="已过期" d="M25.52 25.51L24.3 26.21L24.93 26.89L26.17 26.17C26.42 26.03 26.64 25.87 26.84 25.69C26.94 25.6 27.02 25.5 27.08 25.38C27.12 25.2 27.13 25.03 27.1 24.87C27.01 24.62 26.91 24.39 26.79 24.18L25.19 21.41L26.34 20.75L25.89 19.97L24.74 20.63L23.94 19.25L23.13 19.72L23.93 21.1L20.82 22.9L21.27 23.68L24.38 21.88L26.06 24.79C26.09 24.9 26.08 24.99 26.03 25.07Q25.99 25.14 25.91 25.24C25.78 25.34 25.66 25.43 25.52 25.51ZM28.85 22.99L29.24 23.67L32.08 22.03L31.9 22.82C32.46 22.95 33.01 23.08 33.54 23.22L33.74 22.39C33.2 22.28 32.65 22.16 32.08 22.03L33.57 21.17L33.18 20.49L32.54 20.86L30.57 17.45L31.21 17.08L30.82 16.41L30.18 16.78L29.73 16L29.02 16.41L29.47 17.19L28.02 18.03L27.57 17.25L26.86 17.66L27.31 18.44L26.73 18.77L27.12 19.45L27.7 19.11L29.67 22.52L28.85 22.99ZM18.56 22.59L18.25 23.39C18.98 23.66 19.71 23.95 20.42 24.26L20.77 23.38Q19.68 22.97 18.56 22.59ZM15.91 24.48L9.51 28.17L9.98 28.98L15.53 25.78L16.62 27.67L12.12 30.27L11.47 29.15L10.6 29.65L12.94 33.72C13.08 33.96 13.26 34.19 13.48 34.4C13.58 34.53 13.7 34.61 13.83 34.64C14.05 34.7 14.27 34.7 14.47 34.64C14.76 34.56 15.02 34.45 15.27 34.31L19.09 32.11C19.34 31.96 19.57 31.8 19.79 31.61C19.95 31.46 20.06 31.29 20.14 31.1C20.17 30.95 20.18 30.82 20.16 30.68C20.09 30.45 20 30.22 19.89 29.98C19.7 29.54 19.51 29.13 19.31 28.73L18.31 29.04L18.9 30.14Q18.99 30.36 19.07 30.58C19.09 30.66 19.08 30.75 19.04 30.83C19.01 30.94 18.94 31.04 18.84 31.12Q18.62 31.29 18.37 31.39L15.05 33.31Q15.01 33.34 14.97 33.37Q14.78 33.49 14.56 33.56C14.45 33.62 14.33 33.63 14.21 33.57C14.12 33.53 14.05 33.48 13.99 33.43C13.87 33.32 13.78 33.18 13.7 33.01L12.57 31.05L17.92 27.96L15.91 24.48ZM33.79 23.35L34.74 23.43C34.79 23.1 34.82 22.78 34.83 22.48Q34.81 22.08 34.76 21.66C34.68 21.17 34.52 20.69 34.29 20.22L35.78 19.37L36.46 20.54C36.51 20.64 36.55 20.72 36.56 20.81C36.6 20.87 36.6 20.92 36.58 20.97C36.56 21.04 36.52 21.09 36.48 21.12C36.4 21.2 36.32 21.26 36.23 21.31L35.45 21.76L36.04 22.41L36.79 21.98Q36.92 21.9 37.04 21.81Q37.17 21.71 37.29 21.6C37.4 21.47 37.47 21.34 37.52 21.2C37.53 21.07 37.52 20.95 37.49 20.85C37.44 20.67 37.37 20.49 37.27 20.31L33.73 14.19L30.89 15.83L32.53 18.67C32.83 19.19 33.11 19.7 33.38 20.21C33.56 20.58 33.71 20.96 33.82 21.35C33.88 21.62 33.9 21.87 33.89 22.12C33.89 22.54 33.86 22.95 33.79 23.35ZM32.03 16.16L33.45 15.34L34.19 16.62L32.77 17.44L32.03 16.16ZM28.41 18.7L29.86 17.86L30.27 18.57L28.82 19.41L28.41 18.7ZM22.23 23.48L21.91 24.25C22.73 24.57 23.51 24.91 24.26 25.28L24.63 24.44L22.23 23.48ZM21.81 28.14L21.16 29.83L21.97 30.53C22.17 29.88 22.39 29.24 22.63 28.62C22.87 28.72 23.12 28.8 23.4 28.86C23.6 28.89 23.8 28.89 23.99 28.87C24.25 28.85 24.49 28.78 24.73 28.68C25.05 28.55 25.35 28.4 25.65 28.23L29.43 26.04L29.16 25.16L25.31 27.39C25.03 27.54 24.76 27.69 24.48 27.83C24.29 27.88 24.11 27.92 23.92 27.97C23.72 27.99 23.51 27.98 23.28 27.94C23.03 27.89 22.82 27.8 22.63 27.67L20.93 24.73L19.03 25.82L19.48 26.6L20.56 25.98L21.81 28.14ZM29.19 20.05L30.64 19.21L31.05 19.92L29.6 20.76L29.19 20.05ZM33.95 19.48L33.18 18.15L34.6 17.33L35.37 18.66L33.95 19.48ZM29.97 21.4L31.42 20.56L31.83 21.27L30.38 22.11L29.97 21.4ZM30.14 25.23L30.99 25.46C31.25 24.65 31.45 23.82 31.58 22.96L30.75 22.84Q30.72 23.09 30.68 23.33Q30.51 24.3 30.14 25.23Z" fill="#000000" fill-opacity="1.000000" fill-rule="evenodd"/>
</svg>
