<svg width="48.000000" height="48.000000" viewBox="0 0 48 48" fill="none" xmlns="http://www.w3.org/2000/svg" xmlns:xlink="http://www.w3.org/1999/xlink">
	<desc>
			Created with Pixso.
	</desc>
	<defs/>
	<circle id="椭圆 20" cx="24.000000" cy="24.000000" r="23.000000" stroke="#000000" stroke-opacity="1.000000" stroke-width="2.000000" style=""/>
	<circle id="椭圆 20" cx="24.000000" cy="24.000000" r="18.500000" stroke="#000000" stroke-opacity="1.000000" stroke-width="1.000000" style=""/>
	<path id="已使用" d="M19.36 26.95L20.22 27.35C20.26 26.94 20.28 26.51 20.28 26.05L22.73 30.28L23.51 29.83L20.2 24.11Q20.02 23 19.75 21.9L18.88 22.12C19.11 23.04 19.27 23.96 19.34 24.88C19.41 25.57 19.41 26.26 19.36 26.95ZM23.33 22.8L21.26 23.99L22.61 26.33L23.15 26.02L22.92 26.7C23.5 26.99 24.13 27.17 24.8 27.23C24.63 27.54 24.42 27.84 24.19 28.12C23.9 28.45 23.59 28.76 23.29 29.05L24.07 29.54C24.5 29.15 24.9 28.71 25.25 28.24C25.47 27.93 25.65 27.6 25.8 27.24C26.32 27.21 26.85 27.12 27.36 26.97C28.12 26.77 28.85 26.53 29.55 26.25L29.31 25.35C28.68 25.62 28.05 25.87 27.4 26.1Q26.68 26.28 25.98 26.38Q25.96 26.03 25.86 25.62C25.76 25.3 25.63 24.98 25.46 24.69L27.52 23.5L26.17 21.16L24.11 22.35L23.7 21.64L26.07 20.27L25.66 19.56L23.29 20.93L22.72 19.95L21.94 20.4L22.51 21.38L20.21 22.71L20.62 23.42L22.92 22.09L23.33 22.8ZM15.91 24.48L9.51 28.17L9.98 28.98L15.53 25.78L16.62 27.67L12.12 30.27L11.47 29.15L10.6 29.65L12.94 33.72C13.08 33.96 13.26 34.19 13.48 34.4C13.58 34.53 13.7 34.61 13.83 34.64C14.05 34.7 14.27 34.7 14.47 34.64C14.76 34.56 15.02 34.45 15.27 34.31L19.09 32.11C19.34 31.96 19.57 31.8 19.79 31.61C19.95 31.46 20.06 31.29 20.14 31.1C20.17 30.95 20.18 30.82 20.16 30.68C20.09 30.45 20 30.22 19.89 29.98C19.7 29.54 19.51 29.13 19.31 28.73L18.31 29.04L18.9 30.14Q18.99 30.36 19.07 30.58C19.09 30.66 19.08 30.75 19.04 30.83C19.01 30.94 18.94 31.04 18.84 31.12Q18.62 31.29 18.37 31.39L15.05 33.31Q15.01 33.34 14.97 33.37Q14.78 33.49 14.56 33.56C14.45 33.62 14.33 33.63 14.21 33.57C14.12 33.53 14.05 33.48 13.99 33.43C13.87 33.32 13.78 33.18 13.7 33.01L12.57 31.05L17.92 27.96L15.91 24.48ZM30.26 25.52L31.24 25.49C31.28 24.93 31.25 24.38 31.14 23.84C31.03 23.37 30.87 22.91 30.66 22.45L32.72 21.25L34.01 23.49L34.79 23.04L33.5 20.81L35.56 19.62L36.19 20.7C36.24 20.79 36.28 20.88 36.29 20.96C36.31 21.04 36.3 21.11 36.29 21.19C36.26 21.23 36.22 21.27 36.17 21.29C36.07 21.39 35.98 21.46 35.89 21.51L35.01 22.02L35.65 22.73L36.63 22.16C36.81 22.06 36.98 21.93 37.13 21.78C37.19 21.69 37.26 21.59 37.32 21.49C37.36 21.35 37.36 21.2 37.33 21.03C37.28 20.85 37.21 20.67 37.11 20.49L33.53 14.3L27.07 18.03L29.06 21.48C29.31 21.9 29.55 22.34 29.77 22.79C29.9 23.01 30 23.26 30.06 23.52C30.17 23.82 30.24 24.12 30.27 24.44Q30.27 24.98 30.26 25.52ZM28.33 18.34L30.36 17.17L31.1 18.45L29.07 19.62L28.33 18.34ZM33.2 15.53L33.94 16.81L31.88 18L31.14 16.72L33.2 15.53ZM22.42 24.27L23.74 23.51L24.29 24.47L22.97 25.22L22.42 24.27ZM25.83 22.3L26.38 23.26L25.07 24.01L24.52 23.06L25.83 22.3ZM30.02 21.28L29.54 20.44L31.57 19.26L32.27 20.48L30.24 21.65L30.02 21.28ZM32.35 18.81L34.41 17.62L35.11 18.84L33.05 20.03L32.35 18.81ZM24.98 25.82C25.04 26.02 25.07 26.22 25.05 26.41C24.43 26.38 23.83 26.23 23.26 25.96L24.68 25.14C24.81 25.37 24.91 25.59 24.98 25.82Z" fill="#000000" fill-opacity="1.000000" fill-rule="evenodd"/>
</svg>
