<svg width="24.000000" height="23.905640" viewBox="0 0 24 23.9056" fill="none" xmlns="http://www.w3.org/2000/svg" xmlns:xlink="http://www.w3.org/1999/xlink">
	<desc>
			Created with Pixso.
	</desc>
	<defs>
		<clipPath id="clip4_208">
			<rect id="ic_public_chevron_up-下拉" width="23.905638" height="24.000000" transform="translate(0.000000 23.905640) rotate(-90.000000)" fill="white" fill-opacity="0"/>
		</clipPath>
	</defs>
	<g clip-path="url(#clip4_208)">
		<ellipse id="path3" cx="12.000000" cy="11.952820" rx="11.952819" ry="12.000000" fill="#F3F3F3" fill-opacity="0"/>
		<ellipse id="path3" cx="12.000000" cy="11.952820" rx="11.952819" ry="12.000000" stroke="#000000" stroke-opacity="0" stroke-width="1.000000"/>
		<path id="path5 (边框)" d="M6.39 9.44C6.39 9.23 6.47 9.06 6.62 8.91C6.76 8.77 6.94 8.7 7.15 8.7C7.36 8.7 7.53 8.78 7.68 8.92L12 13.37L16.31 8.92C16.39 8.85 16.47 8.79 16.55 8.76C16.64 8.72 16.74 8.7 16.84 8.7C17.05 8.7 17.23 8.77 17.37 8.91C17.45 8.98 17.5 9.06 17.54 9.15C17.58 9.24 17.6 9.33 17.6 9.44C17.6 9.65 17.53 9.82 17.39 9.97L12.53 14.97C12.46 15.04 12.38 15.1 12.28 15.14C12.19 15.18 12.09 15.2 12 15.2C11.9 15.2 11.8 15.18 11.71 15.14C11.61 15.1 11.53 15.04 11.46 14.97L6.6 9.97C6.46 9.82 6.39 9.65 6.39 9.44Z" fill="#000000" fill-opacity="0.600000" fill-rule="evenodd"/>
	</g>
</svg>
