<svg width="21.000000" height="21.000000" viewBox="0 0 21 21" fill="none" xmlns="http://www.w3.org/2000/svg" xmlns:xlink="http://www.w3.org/1999/xlink">
	<desc>
			Created with Pixso.
	</desc>
	<defs>
		<clipPath id="clip75_45550">
			<rect id="svg" width="21.000000" height="21.000000" fill="white" fill-opacity="0"/>
		</clipPath>
	</defs>
	<g clip-path="url(#clip75_45550)">
		<circle id="circle" cx="10.500000" cy="10.500000" r="10.500000" fill="#0A59F7" fill-opacity="1.000000"/>
		<path id="减去顶层" d="M11.4844 5.85742L15.6528 9.17151C15.8926 9.36206 15.939 9.71924 15.7563 9.96948C15.6533 10.111 15.4932 10.194 15.3228 10.194L14.5269 10.194L14.5269 14.3242C14.5269 14.9331 14.0332 15.4268 13.4243 15.4268L11.6338 15.4268L11.6338 13.7773C11.6338 13.1685 11.1401 12.6748 10.5312 12.6748L10.5303 12.6748C9.94775 12.6748 9.47119 13.1265 9.43066 13.6986L9.42773 13.7773L9.42773 15.4268L7.63623 15.4268C7.02734 15.4268 6.53369 14.9331 6.53369 14.3242L6.53369 10.194L5.66406 10.194C5.36279 10.194 5.11865 9.93896 5.11865 9.62451C5.11865 9.44678 5.19824 9.27917 5.3335 9.17151L9.50244 5.85742C10.0879 5.39197 10.8989 5.39197 11.4844 5.85742Z" clip-rule="evenodd" fill="#FFFFFF" fill-opacity="0.800000" fill-rule="evenodd"/>
	</g>
</svg>
