<svg width="24" height="24" viewBox="0 0 13.798 13.1887" fill="none" xmlns="http://www.w3.org/2000/svg" xmlns:xlink="http://www.w3.org/1999/xlink">
	<desc>
			Created with Pixso.
	</desc>
	<defs/>
	<path id="路径" d="M7.6 0.47L8.97 3.66C9.08 3.92 9.33 4.1 9.61 4.13L13.08 4.44C13.77 4.5 14.04 5.35 13.53 5.8L10.92 8.08C10.7 8.27 10.61 8.56 10.67 8.84L11.44 12.23C11.59 12.9 10.87 13.42 10.28 13.07L7.29 11.29C7.05 11.14 6.74 11.14 6.5 11.29L3.5 13.07C2.91 13.42 2.19 12.9 2.34 12.23L3.12 8.84C3.18 8.56 3.09 8.27 2.87 8.08L0.26 5.8C-0.25 5.35 0.02 4.5 0.7 4.44L4.15 4.13C4.44 4.1 4.68 3.92 4.8 3.66L6.17 0.47C6.44 -0.16 7.33 -0.16 7.6 0.47Z" fill="#FFD15D" fill-opacity="1.000000" fill-rule="evenodd"/>
</svg>
