<svg width="40.000000" height="40.000000" viewBox="0 0 40 40" fill="none" xmlns="http://www.w3.org/2000/svg" xmlns:xlink="http://www.w3.org/1999/xlink">
	<desc>
			Created with Pixso.
	</desc>
	<defs/>
	<rect id="尺寸=40" rx="20.000000" width="40.000000" height="40.000000" fill="#376BFC" fill-opacity="1.000000"/>
	<path id="funnel" d="M22 29.81Q21.9 29.89 21.77 29.93Q21.75 29.94 21.73 29.95Q21.5 30.07 21.19 30.01Q20.93 29.97 20.74 29.82Q20.69 29.78 20.65 29.74L17.98 27.27Q17.95 27.24 17.93 27.22Q17.77 27.06 17.67 26.84Q17.6 26.66 17.58 26.47Q17.57 26.4 17.57 26.33L17.57 20.91L10.44 13.16Q10.22 12.91 10.09 12.62Q9.98 12.38 9.93 12.1Q9.88 11.77 9.93 11.45Q9.97 11.19 10.08 10.95Q10.2 10.68 10.37 10.47Q10.56 10.24 10.83 10.06Q11.03 9.92 11.26 9.84Q11.59 9.72 11.96 9.72L28.03 9.72Q28.43 9.72 28.77 9.85Q28.98 9.93 29.16 10.05Q29.36 10.18 29.52 10.34Q29.76 10.6 29.91 10.95Q30.06 11.3 30.08 11.66Q30.09 11.89 30.05 12.11Q30.01 12.34 29.93 12.55Q29.79 12.88 29.55 13.16L22.4 20.91L22.4 29.07Q22.37 29.24 22.3 29.39Q22.25 29.49 22.19 29.59Q22.11 29.72 22 29.81ZM11.55 12.15L19.06 20.31L19.08 26.24L20.91 27.94L20.91 20.31L28.44 12.15Q28.5 12.08 28.54 11.99Q28.58 11.88 28.57 11.75Q28.57 11.6 28.5 11.48Q28.46 11.42 28.41 11.37Q28.37 11.32 28.32 11.29Q28.2 11.21 28.03 11.21L11.96 11.21Q11.81 11.21 11.69 11.27Q11.62 11.31 11.56 11.37Q11.48 11.44 11.44 11.53Q11.41 11.63 11.41 11.74Q11.41 11.79 11.41 11.85Q11.44 12 11.55 12.15Z" fill="#FFFFFF" fill-opacity="1.000000" fill-rule="evenodd"/>
</svg>
