<svg width="24.000000" height="24.000000" viewBox="0 0 24 24" fill="none" xmlns="http://www.w3.org/2000/svg" xmlns:xlink="http://www.w3.org/1999/xlink">
	<desc>
			Created with Pixso.
	</desc>
	<defs>
		<clipPath id="clip10_814">
			<rect id="svg" width="24.000000" height="24.000000" fill="white" fill-opacity="0"/>
		</clipPath>
	</defs>
	<g clip-path="url(#clip10_814)">
		<path id="path-1" d="M5.75 22C4.25 22 3.03 20.8 3 19.32L3 12.19L4.5 10.77L4.5 19.25C4.5 19.92 5.03 20.47 5.69 20.49L8.25 20.49L8.25 16.25C8.25 14.24 9.82 12.6 11.8 12.5L12 12.5C14.07 12.5 15.75 14.17 15.75 16.25L15.75 20.49L18.25 20.5C18.92 20.5 19.47 19.96 19.49 19.3L19.5 10.77L20.9 12.11L21 19.25C21 20.74 19.8 21.96 18.32 21.99L5.75 22ZM12 14C10.75 14 9.75 15 9.75 16.25L9.75 20.5L14.25 20.5L14.25 16.25C14.25 15.05 13.32 14.08 12.15 14L12 14ZM9.56 2.53C11.01 1.29 13.18 1.33 14.58 2.66L22.51 10.2C22.74 10.49 22.8 10.99 22.54 11.26C22.25 11.56 21.78 11.57 21.48 11.29L13.54 3.75L13.43 3.65C12.56 2.93 11.28 2.96 10.45 3.75L2.51 11.29C2.21 11.5 1.71 11.54 1.45 11.26C1.17 10.96 1.18 10.49 1.48 10.2L9.41 2.66L9.56 2.53Z" fill="#000000" fill-opacity="0.250000" fill-rule="nonzero"/>
		<path id="path-1" d="M3 19.32L3 12.19L4.5 10.77L4.5 19.25C4.5 19.92 5.03 20.47 5.69 20.49L8.25 20.49L8.25 16.25C8.25 14.24 9.82 12.6 11.8 12.5L12 12.5C14.07 12.5 15.75 14.17 15.75 16.25L15.75 20.49L18.25 20.5C18.92 20.5 19.47 19.96 19.49 19.3L19.5 10.77L20.9 12.11L21 19.25C21 20.74 19.8 21.96 18.32 21.99L5.75 22C4.25 22 3.03 20.8 3 19.32ZM9.75 16.25L9.75 20.5L14.25 20.5L14.25 16.25C14.25 15.05 13.32 14.08 12.15 14L12 14C10.75 14 9.75 15 9.75 16.25ZM14.58 2.66L22.51 10.2C22.74 10.49 22.8 10.99 22.54 11.26C22.25 11.56 21.78 11.57 21.48 11.29L13.54 3.75L13.43 3.65C12.56 2.93 11.28 2.96 10.45 3.75L2.51 11.29C2.21 11.5 1.71 11.54 1.45 11.26C1.17 10.96 1.18 10.49 1.48 10.2L9.41 2.66L9.56 2.53C11.01 1.29 13.18 1.33 14.58 2.66Z" stroke="#000000" stroke-opacity="0" stroke-width="1.000000"/>
	</g>
</svg>
