<svg width="24.000000" height="24.000000" viewBox="0 0 24 24" fill="none" xmlns="http://www.w3.org/2000/svg" xmlns:xlink="http://www.w3.org/1999/xlink">
	<desc>
			Created with Pixso.
	</desc>
	<defs>
		<clipPath id="clip6_238">
			<rect width="24.000000" height="24.000000" fill="white" fill-opacity="0"/>
		</clipPath>
	</defs>
	<g clip-path="url(#clip6_238)">
		<circle cx="12.000000" cy="12.000000" r="12.000000" fill="#FFFFFF" fill-opacity="0"/>
		<circle cx="12.000000" cy="12.000000" r="12.000000" stroke="#000000" stroke-opacity="0" stroke-width="1.500000"/>
		<path d="M12 23.1C18 18.18 21 13.73 21 9.75C21 4.77 16.97 0.9 12 0.9C7.02 0.9 3 4.77 3 9.75C3 13.73 6 18.18 12 23.1Z" fill="#999999" fill-opacity="1.000000" fill-rule="evenodd"/>
		<path d="M21 9.75C21 4.77 16.97 0.9 12 0.9C7.02 0.9 3 4.77 3 9.75C3 13.73 6 18.18 12 23.1C18 18.18 21 13.73 21 9.75Z" stroke="#999999" stroke-opacity="1.000000" stroke-width="1.500000" stroke-linejoin="round"/>
		<mask id="mask6_233" mask-type="alpha" maskUnits="userSpaceOnUse" x="3.000000" y="0.900024" width="18.000000" height="22.199997">
			<path d="M12 0.9C7.02 0.9 3 4.77 3 9.75C3 13.73 6 18.18 12 23.1C18 18.18 21 13.73 21 9.75C21 4.77 16.97 0.9 12 0.9Z" fill="#F1F3F5" fill-opacity="1.000000" fill-rule="nonzero"/>
		</mask>
		<g mask="url(#mask6_233)">
			<path d="M11.99 7C9.12 7 8.1 9 8.1 11.48C8.1 11.62 8.1 11.76 8.11 11.89C7.76 12.2 7.64 12.81 7.85 13.42C8.02 13.93 8.39 14.3 8.77 14.42C8.88 14.64 9.01 14.84 9.14 15.03L9.23 15.15C10.03 16.23 10 16.98 9.15 17.42C7.77 18.12 3.5 19.04 3.51 21.52L3.5 21.86C3.48 23.05 3.43 23.96 4.41 24C11.99 24 18.6 23.99 19.58 24C20.66 23.95 20.49 22.88 20.49 21.52C20.49 19.04 16.22 18.12 14.84 17.42C14.01 17 13.96 16.27 14.7 15.23L14.76 15.15C14.93 14.93 15.08 14.68 15.22 14.42C15.6 14.3 15.97 13.93 16.14 13.42C16.35 12.81 16.23 12.2 15.88 11.89C15.89 11.76 15.89 11.62 15.89 11.48C15.89 9 14.87 7 11.99 7Z" fill="#F1F3F5" fill-opacity="1.000000" fill-rule="evenodd"/>
		</g>
		<path d="M12 23.1C18 18.18 21 13.73 21 9.75C21 4.77 16.97 0.9 12 0.9C7.02 0.9 3 4.77 3 9.75C3 13.73 6 18.18 12 23.1Z" fill="#FFFFFF" fill-opacity="0" fill-rule="evenodd"/>
		<path d="M21 9.75C21 4.77 16.97 0.9 12 0.9C7.02 0.9 3 4.77 3 9.75C3 13.73 6 18.18 12 23.1C18 18.18 21 13.73 21 9.75Z" stroke="#999999" stroke-opacity="1.000000" stroke-width="1.500000" stroke-linejoin="round"/>
	</g>
</svg>
