<svg width="24.000000" height="24.000000" viewBox="0 0 24 24" fill="none" xmlns="http://www.w3.org/2000/svg" xmlns:xlink="http://www.w3.org/1999/xlink">
	<desc>
			Created with Pixso.
	</desc>
	<defs>
		<clipPath id="clip125_3429">
			<rect width="24.000000" height="24.000000" fill="white" fill-opacity="0"/>
		</clipPath>
	</defs>
	<rect width="24.000000" height="24.000000" fill="#FFFFFF" fill-opacity="0"/>
	<g clip-path="url(#clip125_3429)">
		<path d="M12 1.50012L12.1733 1.50153C17.8993 1.59436 22.4999 6.26579 22.4999 12.0082L22.4985 12.1734C22.4058 17.8994 17.7343 22.5001 11.9918 22.5001L11.8267 22.4987C6.10059 22.4059 1.5 17.7345 1.5 11.992L1.50134 11.8268C1.59424 6.1008 6.26562 1.50012 12 1.50012ZM12 6.30888C13.6569 6.30888 15 7.65204 15 9.30888C15 10.9657 13.6569 12.3089 12 12.3089C10.3433 12.3089 9 10.9657 9 9.30888C9 7.65204 10.3433 6.30888 12 6.30888ZM12 12.8901C15.02 12.8901 17.5479 14.9966 18.1948 17.8203C16.6439 19.4701 14.4423 20.5001 12 20.5001C9.55786 20.5001 7.3562 19.4701 5.80579 17.8209C6.45215 14.9966 8.9801 12.8901 12 12.8901Z" clip-rule="evenodd" fill="#000000" fill-opacity="0.400000" fill-rule="evenodd"/>
	</g>
</svg>
