<svg width="24.000000" height="24.000000" viewBox="0 0 24 24" fill="none" xmlns="http://www.w3.org/2000/svg" xmlns:xlink="http://www.w3.org/1999/xlink">
	<desc>
			Created with Pixso.
	</desc>
	<defs>
		<clipPath id="clip11_2588">
			<rect width="24.000000" height="24.000000" fill="white" fill-opacity="0"/>
		</clipPath>
	</defs>
	<rect width="24.000000" height="24.000000" fill="#FFFFFF" fill-opacity="0"/>
	<g clip-path="url(#clip11_2588)">
		<path d="M11.9999 1.50012L12.1733 1.50159C17.8993 1.59436 22.4999 6.26575 22.4999 12.0082L22.4985 12.1735C22.4057 17.8994 17.7343 22.5001 11.9919 22.5001L11.8267 22.4988C6.10065 22.4059 1.5 17.7345 1.5 11.9921L1.50134 11.8268C1.59424 6.10083 6.26562 1.50012 11.9999 1.50012ZM12 6.30884C13.6569 6.30884 15 7.65198 15 9.30884C15 10.9657 13.6569 12.3088 12 12.3088C10.3431 12.3088 9 10.9657 9 9.30884C9 7.65198 10.3431 6.30884 12 6.30884ZM12.0001 12.8901C15.02 12.8901 17.548 14.9966 18.1948 17.8204C16.6439 19.4702 14.4423 20.5001 12.0001 20.5001C9.55792 20.5001 7.35632 19.4702 5.80591 17.8209C6.45221 14.9966 8.98016 12.8901 12.0001 12.8901Z" clip-rule="evenodd" fill="#376BFC" fill-opacity="1.000000" fill-rule="evenodd"/>
	</g>
</svg>
