<svg width="24.000000" height="24.000000" viewBox="0 0 24 24" fill="none" xmlns="http://www.w3.org/2000/svg" xmlns:xlink="http://www.w3.org/1999/xlink">
	<desc>
			Created with Pixso.
	</desc>
	<defs>
		<clipPath id="clip50_3114">
			<rect width="24.000000" height="24.000000" fill="white" fill-opacity="0"/>
		</clipPath>
	</defs>
	<g clip-path="url(#clip50_3114)">
		<g opacity="0.000000">
			<rect width="24.000000" height="24.000000" fill="#000000" fill-opacity="1.000000"/>
		</g>
		<path d="M17.48 21.01C17.74 21.01 17.95 20.94 18.13 20.81C18.44 20.59 18.6 20.29 18.6 19.92C18.6 19.79 18.59 19.7 18.58 19.65L17.35 14.69C17.32 14.57 17.31 14.48 17.31 14.4C17.31 14.04 17.45 13.76 17.73 13.56L21.6 10.32C21.86 10.08 22 9.79 22 9.46C22 9.34 21.97 9.23 21.93 9.13C21.86 8.92 21.73 8.75 21.56 8.61C21.39 8.46 21.2 8.39 20.97 8.37L15.95 7.99C15.73 7.98 15.53 7.91 15.35 7.79C15.19 7.67 15.06 7.51 14.99 7.3L13.02 2.57C12.93 2.36 12.8 2.19 12.61 2.07C12.42 1.94 12.22 1.87 12 1.87C11.77 1.87 11.57 1.94 11.38 2.07C11.2 2.19 11.06 2.36 10.97 2.57L9 7.3C8.93 7.51 8.8 7.67 8.64 7.79C8.46 7.91 8.26 7.98 8.04 7.99L3.02 8.37C2.79 8.39 2.6 8.46 2.43 8.61C2.26 8.75 2.13 8.92 2.06 9.13C2.02 9.23 2 9.34 2 9.46C2 9.79 2.13 10.08 2.39 10.32L6.26 13.56C6.54 13.79 6.68 14.08 6.68 14.42C6.68 14.48 6.67 14.57 6.64 14.69L5.41 19.65C5.4 19.7 5.39 19.79 5.39 19.92C5.39 20.32 5.55 20.61 5.86 20.81C6.05 20.96 6.26 21.03 6.48 21.03C6.7 21.03 6.9 20.97 7.08 20.83L11.37 18.06C11.55 17.94 11.76 17.88 12 17.88C12.23 17.88 12.43 17.94 12.6 18.06L16.89 20.83C17.05 20.95 17.25 21.01 17.48 21.01ZM8.15 9.38C8.63 9.36 9.06 9.21 9.45 8.93C9.84 8.65 10.12 8.28 10.3 7.83L12 3.75L13.69 7.83C13.89 8.28 14.18 8.65 14.56 8.93C14.95 9.21 15.37 9.36 15.84 9.38L20.16 9.71L16.84 12.48C16.56 12.7 16.34 12.99 16.18 13.34C16.03 13.69 15.95 14.05 15.95 14.42C15.95 14.61 15.97 14.81 16.01 15.03L17.04 19.27L13.38 16.9C12.97 16.63 12.5 16.5 12 16.5C11.52 16.5 11.06 16.63 10.64 16.9L6.95 19.27L8 15.03C8.04 14.81 8.07 14.62 8.07 14.45C8.07 14.06 7.99 13.69 7.82 13.35C7.66 13.01 7.43 12.72 7.15 12.48L3.83 9.71L8.15 9.38Z" fill="#666666" fill-opacity="1.000000" fill-rule="nonzero"/>
		<path d="M18.13 20.81C18.44 20.59 18.6 20.29 18.6 19.92C18.6 19.79 18.59 19.7 18.58 19.65L17.35 14.69C17.32 14.57 17.31 14.48 17.31 14.4C17.31 14.04 17.45 13.76 17.73 13.56L21.6 10.32C21.86 10.08 22 9.79 22 9.46C22 9.34 21.97 9.23 21.93 9.13C21.86 8.92 21.73 8.75 21.56 8.61C21.39 8.46 21.2 8.39 20.97 8.37L15.95 7.99C15.73 7.98 15.53 7.91 15.35 7.79C15.19 7.67 15.06 7.51 14.99 7.3L13.02 2.57C12.93 2.36 12.8 2.19 12.61 2.07C12.42 1.94 12.22 1.87 12 1.87C11.77 1.87 11.57 1.94 11.38 2.07C11.2 2.19 11.06 2.36 10.97 2.57L9 7.3C8.93 7.51 8.8 7.67 8.64 7.79C8.46 7.91 8.26 7.98 8.04 7.99L3.02 8.37C2.79 8.39 2.6 8.46 2.43 8.61C2.26 8.75 2.13 8.92 2.06 9.13C2.02 9.23 2 9.34 2 9.46C2 9.79 2.13 10.08 2.39 10.32L6.26 13.56C6.54 13.79 6.68 14.08 6.68 14.42C6.68 14.48 6.67 14.57 6.64 14.69L5.41 19.65C5.4 19.7 5.39 19.79 5.39 19.92C5.39 20.32 5.55 20.61 5.86 20.81C6.05 20.96 6.26 21.03 6.48 21.03C6.7 21.03 6.9 20.97 7.08 20.83L11.37 18.06C11.55 17.94 11.76 17.88 12 17.88C12.23 17.88 12.43 17.94 12.6 18.06L16.89 20.83C17.05 20.95 17.25 21.01 17.48 21.01C17.74 21.01 17.95 20.94 18.13 20.81ZM9.45 8.93C9.84 8.65 10.12 8.28 10.3 7.83L12 3.75L13.69 7.83C13.89 8.28 14.18 8.65 14.56 8.93C14.95 9.21 15.37 9.36 15.84 9.38L20.16 9.71L16.84 12.48C16.56 12.7 16.34 12.99 16.18 13.34C16.03 13.69 15.95 14.05 15.95 14.42C15.95 14.61 15.97 14.81 16.01 15.03L17.04 19.27L13.38 16.9C12.97 16.63 12.5 16.5 12 16.5C11.52 16.5 11.06 16.63 10.64 16.9L6.95 19.27L8 15.03C8.04 14.81 8.07 14.62 8.07 14.45C8.07 14.06 7.99 13.69 7.82 13.35C7.66 13.01 7.43 12.72 7.15 12.48L3.83 9.71L8.15 9.38C8.63 9.36 9.06 9.21 9.45 8.93Z" stroke="#666666" stroke-opacity="0" stroke-width="1.200000"/>
	</g>
</svg>
