<svg xmlns="http://www.w3.org/2000/svg" xmlns:xlink="http://www.w3.org/1999/xlink" width="24px" height="24px" viewBox="0 0 24 24" version="1.1">
    <title>ic_show_as_up_and_down_dots_lined</title>
    <g id="ic_show_as_up_and_down_dots_lined" stroke="none" stroke-width="1" fill="none" fill-rule="evenodd">
        <g id="编组">
            <rect id="矩形" fill="#D8D8D8" opacity="0" x="0" y="0" width="24" height="24"></rect>
            <path d="M19.5,10.5 C20.328,10.5 21,11.171 21,12 C21,12.829 20.328,13.5 19.5,13.5 C18.671,13.5 18,12.829 18,12 C18,11.171 18.671,10.5 19.5,10.5 Z M9.5,10.5 C10.329,10.5 11,11.171 11,12 C11,12.829 10.329,13.5 9.5,13.5 C8.672,13.5 8,12.829 8,12 C8,11.171 8.672,10.5 9.5,10.5 Z M14.5,10.5 C15.329,10.5 16,11.171 16,12 C16,12.829 15.329,13.5 14.5,13.5 C13.672,13.5 13,12.829 13,12 C13,11.171 13.672,10.5 14.5,10.5 Z M4.5,10.5 C5.329,10.5 6,11.171 6,12 C6,12.829 5.329,13.5 4.5,13.5 C3.671,13.5 3,12.829 3,12 C3,11.171 3.671,10.5 4.5,10.5 Z" id="形状结合" fill="#191919"></path>
        </g>
    </g>
</svg>