<svg width="16.000000" height="16.000000" viewBox="0 0 16 16" fill="none" xmlns="http://www.w3.org/2000/svg" xmlns:xlink="http://www.w3.org/1999/xlink">
	<desc>
			Created with Pixso.
	</desc>
	<defs/>
	<g opacity="0.000000">
		<rect width="16.000000" height="16.000000" fill="#000000" fill-opacity="1.000000"/>
	</g>
	<path d="M6.06 4.03C6.19 4.03 6.32 3.98 6.41 3.89C6.51 3.79 6.56 3.67 6.56 3.54C6.56 3.13 6.7 2.78 7 2.48C7.29 2.18 7.64 2.03 8.06 2.03C8.47 2.03 8.83 2.18 9.13 2.48C9.42 2.78 9.57 3.13 9.57 3.54C9.57 3.67 9.61 3.79 9.7 3.89C9.81 3.98 9.92 4.03 10.06 4.03L13.7 4.03C13.83 4.03 13.95 3.98 14.05 3.89C14.14 3.79 14.18 3.67 14.18 3.54C14.18 3.4 14.14 3.28 14.05 3.18C13.95 3.08 13.83 3.04 13.7 3.04L10.51 3.04C10.39 2.46 10.11 1.99 9.65 1.61C9.18 1.23 8.65 1.04 8.05 1.04C7.44 1.04 6.91 1.23 6.45 1.61C6 1.99 5.71 2.46 5.6 3.04L2.29 3.04C2.15 3.04 2.03 3.08 1.93 3.18C1.84 3.28 1.79 3.4 1.79 3.54C1.79 3.67 1.84 3.79 1.93 3.89C2.03 3.98 2.15 4.03 2.29 4.03L6.06 4.03ZM9.16 11.92C9.31 11.92 9.42 11.87 9.52 11.78C9.61 11.69 9.66 11.58 9.67 11.44L9.84 6.77C9.85 6.63 9.8 6.51 9.69 6.41C9.6 6.31 9.47 6.25 9.34 6.24C9.2 6.24 9.09 6.28 8.98 6.38C8.89 6.46 8.85 6.58 8.85 6.72L8.66 11.39C8.66 11.53 8.7 11.65 8.81 11.75C8.91 11.85 9.03 11.9 9.16 11.92ZM6.85 11.92C6.98 11.9 7.11 11.85 7.2 11.75C7.31 11.65 7.35 11.53 7.34 11.39L7.15 6.72C7.15 6.58 7.1 6.46 7.01 6.38C6.91 6.28 6.78 6.24 6.64 6.24C6.5 6.25 6.38 6.31 6.29 6.41C6.18 6.51 6.14 6.63 6.16 6.77L6.34 11.44C6.34 11.56 6.4 11.68 6.5 11.78C6.59 11.87 6.7 11.92 6.85 11.92ZM10.64 14.96C11.12 14.96 11.53 14.8 11.87 14.48C12.21 14.16 12.4 13.76 12.46 13.28L13.12 5.63C13.13 5.49 13.09 5.37 13.01 5.27C12.92 5.17 12.81 5.11 12.66 5.09C12.53 5.07 12.41 5.11 12.31 5.21C12.21 5.29 12.15 5.41 12.13 5.55L11.47 13.2C11.45 13.41 11.36 13.59 11.2 13.74C11.04 13.88 10.85 13.95 10.64 13.95L5.36 13.95C5.13 13.95 4.94 13.88 4.79 13.74C4.63 13.59 4.55 13.41 4.53 13.2L3.86 5.55C3.84 5.41 3.78 5.29 3.67 5.21C3.57 5.11 3.44 5.07 3.31 5.09C3.16 5.11 3.06 5.17 2.97 5.27C2.89 5.37 2.85 5.49 2.86 5.63L3.54 13.28C3.58 13.76 3.77 14.16 4.12 14.48C4.46 14.8 4.88 14.96 5.36 14.96L10.64 14.96Z" fill="#191919" fill-opacity="1.000000" fill-rule="nonzero"/>
</svg>
