<svg xmlns="http://www.w3.org/2000/svg" xmlns:xlink="http://www.w3.org/1999/xlink" width="24px" height="24px" viewBox="0 0 24 24" version="1.1">
    <title>ic_mark_lined</title>
    <g id="ic_mark_lined" stroke="none" stroke-width="1" fill="none" fill-rule="evenodd">
        <g id="编组">
            <rect id="矩形" fill="#9e9e9e" opacity="0" x="0" y="0" width="24" height="24"></rect>
            <path d="M18.001,3 C19.654,3 21,4.346 21,5.999 C21,6.413 20.664,6.749 20.25,6.749 C19.836,6.749 19.5,6.413 19.5,5.999 C19.5,5.173 18.827,4.5 18.001,4.5 L5.999,4.5 C5.173,4.5 4.5,5.173 4.5,5.999 L4.5,18.001 C4.5,18.827 5.173,19.5 5.999,19.5 L18.001,19.5 C18.827,19.5 19.5,18.827 19.5,18.001 L19.5,8.5 C19.5,8.086 19.836,7.75 20.25,7.75 C20.664,7.75 21,8.086 21,8.5 L21,18.001 C21,19.654 19.654,21 18.001,21 L5.999,21 C4.346,21 3,19.654 3,18.001 L3,5.999 C3,4.346 4.346,3 5.999,3 L18.001,3 Z M16,7.1 C16.4142136,7.1 16.75,7.43578644 16.75,7.85 C16.75,8.22969577 16.4678461,8.54349096 16.1017706,8.59315338 L16,8.6 L12.75,8.6 L12.75,16.15 C12.75,16.5642136 12.4142136,16.9 12,16.9 C11.6203042,16.9 11.306509,16.6178461 11.2568466,16.2517706 L11.25,16.15 L11.25,8.6 L8,8.6 C7.58578644,8.6 7.25,8.26421356 7.25,7.85 C7.25,7.47030423 7.53215388,7.15650904 7.89822944,7.10684662 L8,7.1 L16,7.1 Z" id="形状结合" fill="#9e9e9e"></path>
        </g>
    </g>
</svg>