<svg width="120.000000" height="120.000000" viewBox="0 0 120 120" fill="none" xmlns="http://www.w3.org/2000/svg" xmlns:xlink="http://www.w3.org/1999/xlink">
	<desc>
			Created with Pixso.
	</desc>
	<defs>
		<clipPath id="clip38_3015">
			<rect width="120.000000" height="120.000000" fill="white" fill-opacity="0"/>
		</clipPath>
	</defs>
	<g clip-path="url(#clip38_3015)">
		<g opacity="0.700000">
			<path d="M22.1 26.65L22.1 51.69L19.47 80.15C19.46 80.27 19.45 80.39 19.45 80.52C19.45 81.96 20.22 83.22 21.36 83.93L21.23 89.75L21.23 90.04C21.31 94.11 23.15 96.2 26.74 96.29L27 96.29L94.45 96.29L94.63 96.29C97.43 96.22 99.51 94.55 99.36 89.75C99.32 88.72 99.27 86.75 99.2 83.85C100.38 83.07 101.11 81.68 100.97 80.17L98.45 51.69L98.45 26.65L98.69 26.65C102.01 26.65 104.69 29.34 104.69 32.65L104.69 97.03C104.69 100.34 102.01 103.03 98.69 103.03L21.88 103.03C18.57 103.03 15.88 100.34 15.88 97.03L15.88 32.65C15.88 29.34 18.57 26.65 21.88 26.65L22.1 26.65Z" fill="#A1A7B3" fill-opacity="1.000000" fill-rule="evenodd"/>
			<path d="M22.1 51.69L19.47 80.15C19.46 80.27 19.45 80.39 19.45 80.52C19.45 81.96 20.22 83.22 21.36 83.93L21.23 89.75L21.23 90.04C21.31 94.11 23.15 96.2 26.74 96.29L27 96.29L94.45 96.29L94.63 96.29C97.43 96.22 99.51 94.55 99.36 89.75C99.32 88.72 99.27 86.75 99.2 83.85C100.38 83.07 101.11 81.68 100.97 80.17L98.45 51.69L98.45 26.65L98.69 26.65C102.01 26.65 104.69 29.34 104.69 32.65L104.69 97.03C104.69 100.34 102.01 103.03 98.69 103.03L21.88 103.03C18.57 103.03 15.88 100.34 15.88 97.03L15.88 32.65C15.88 29.34 18.57 26.65 21.88 26.65L22.1 26.65L22.1 51.69Z" stroke="#000000" stroke-opacity="0" stroke-width="1.000000"/>
		</g>
		<g opacity="0.800000">
			<path d="M15.88 95.62C15.88 98.94 18.56 101.62 21.88 101.62L98.69 101.62C102 101.62 104.69 98.94 104.69 95.62L104.69 97.03C104.69 100.34 102 103.03 98.69 103.03L21.88 103.03C18.56 103.03 15.88 100.34 15.88 97.03L15.88 95.62Z" fill="#A1A7B3" fill-opacity="1.000000" fill-rule="evenodd"/>
			<path d="M21.88 101.62L98.69 101.62C102 101.62 104.69 98.94 104.69 95.62L104.69 97.03C104.69 100.34 102 103.03 98.69 103.03L21.88 103.03C18.56 103.03 15.88 100.34 15.88 97.03L15.88 95.62C15.88 98.94 18.56 101.62 21.88 101.62Z" stroke="#000000" stroke-opacity="0" stroke-width="1.000000"/>
		</g>
		<g opacity="0.300000">
			<path d="M98.45 84.24L98.45 88.27C98.45 91.58 95.77 94.27 92.45 94.27L28.1 94.27C24.79 94.27 22.1 91.58 22.1 88.27L22.1 84.28C22.52 84.43 22.98 84.52 23.45 84.52L96.99 84.52C97.1 84.52 97.22 84.51 97.34 84.5C97.73 84.47 98.11 84.38 98.45 84.24ZM75.42 18.66L75.39 18.88L75.39 19.1L75.38 24.41C73.78 25.43 72.72 27.23 72.72 29.27C72.72 32.46 75.31 35.04 78.49 35.04C81.68 35.04 84.27 32.46 84.27 29.27C84.27 27.31 83.29 25.58 81.8 24.54L81.6 24.41L81.6 19.1C81.6 18.95 81.59 18.8 81.57 18.66L92.45 18.66C95.77 18.66 98.45 21.35 98.45 24.66L98.45 51.69L22.1 51.69L22.1 24.66C22.1 21.35 24.79 18.66 28.1 18.66L39 18.66L38.98 18.88L38.97 19.1L38.97 24.41C37.37 25.43 36.31 27.23 36.31 29.27C36.31 32.46 38.89 35.04 42.08 35.04C45.27 35.04 47.85 32.46 47.85 29.27C47.85 27.31 46.88 25.58 45.39 24.54L45.19 24.41L45.19 19.1C45.19 18.95 45.18 18.8 45.16 18.66L75.42 18.66Z" fill="#A1A7B3" fill-opacity="1.000000" fill-rule="evenodd"/>
			<path d="M98.45 88.27C98.45 91.58 95.77 94.27 92.45 94.27L28.1 94.27C24.79 94.27 22.1 91.58 22.1 88.27L22.1 84.28C22.52 84.43 22.98 84.52 23.45 84.52L96.99 84.52C97.1 84.52 97.22 84.51 97.34 84.5C97.73 84.47 98.11 84.38 98.45 84.24L98.45 88.27ZM75.39 18.88L75.39 19.1L75.38 24.41C73.78 25.43 72.72 27.23 72.72 29.27C72.72 32.46 75.31 35.04 78.49 35.04C81.68 35.04 84.27 32.46 84.27 29.27C84.27 27.31 83.29 25.58 81.8 24.54L81.6 24.41L81.6 19.1C81.6 18.95 81.59 18.8 81.57 18.66L92.45 18.66C95.77 18.66 98.45 21.35 98.45 24.66L98.45 51.69L22.1 51.69L22.1 24.66C22.1 21.35 24.79 18.66 28.1 18.66L39 18.66L38.98 18.88L38.97 19.1L38.97 24.41C37.37 25.43 36.31 27.23 36.31 29.27C36.31 32.46 38.89 35.04 42.08 35.04C45.27 35.04 47.85 32.46 47.85 29.27C47.85 27.31 46.88 25.58 45.39 24.54L45.19 24.41L45.19 19.1C45.19 18.95 45.18 18.8 45.16 18.66L75.42 18.66L75.39 18.88Z" stroke="#000000" stroke-opacity="0" stroke-width="1.000000"/>
		</g>
		<g opacity="0.800000">
			<path d="M99.36 89.75C99.51 94.55 97.43 96.22 94.63 96.29L94.45 96.29L27 96.29C23.24 96.29 21.32 94.21 21.23 90.04L21.23 89.75L21.36 83.93C21.59 84.07 21.84 84.19 22.1 84.28L22.1 88.27C22.1 91.51 24.67 94.15 27.87 94.27L28.1 94.27L92.45 94.27C95.69 94.27 98.33 91.7 98.45 88.49L98.45 88.27L98.45 84.24C98.72 84.14 98.97 84.01 99.2 83.85C99.27 86.75 99.32 88.72 99.36 89.75Z" fill="#A1A7B3" fill-opacity="1.000000" fill-rule="evenodd"/>
			<path d="M94.63 96.29L94.45 96.29L27 96.29C23.24 96.29 21.32 94.21 21.23 90.04L21.23 89.75L21.36 83.93C21.59 84.07 21.84 84.19 22.1 84.28L22.1 88.27C22.1 91.51 24.67 94.15 27.87 94.27L28.1 94.27L92.45 94.27C95.69 94.27 98.33 91.7 98.45 88.49L98.45 88.27L98.45 84.24C98.72 84.14 98.97 84.01 99.2 83.85C99.27 86.75 99.32 88.72 99.36 89.75C99.51 94.55 97.43 96.22 94.63 96.29Z" stroke="#000000" stroke-opacity="0" stroke-width="1.000000"/>
		</g>
		<g opacity="0.200000">
			<path d="M92.45 18.66C95.77 18.66 98.45 21.35 98.45 24.66L98.45 51.69L22.1 51.69L22.1 24.66C22.1 21.35 24.79 18.66 28.1 18.66L39 18.66C38.98 18.8 38.97 18.95 38.97 19.1L38.97 24.41C37.37 25.43 36.31 27.23 36.31 29.27C36.31 32.46 38.89 35.04 42.08 35.04C45.27 35.04 47.85 32.46 47.85 29.27C47.85 27.23 46.79 25.43 45.19 24.41L45.19 19.1C45.19 18.95 45.18 18.8 45.16 18.66L75.42 18.66C75.4 18.8 75.39 18.95 75.39 19.1L75.39 24.41C73.78 25.43 72.72 27.23 72.72 29.27C72.72 32.46 75.31 35.04 78.49 35.04C81.68 35.04 84.27 32.46 84.27 29.27C84.27 27.23 83.2 25.43 81.6 24.41L81.6 19.1C81.6 18.95 81.59 18.8 81.57 18.66L92.45 18.66Z" fill="#A1A7B3" fill-opacity="1.000000" fill-rule="evenodd"/>
			<path d="M98.45 24.66L98.45 51.69L22.1 51.69L22.1 24.66C22.1 21.35 24.79 18.66 28.1 18.66L39 18.66C38.98 18.8 38.97 18.95 38.97 19.1L38.97 24.41C37.37 25.43 36.31 27.23 36.31 29.27C36.31 32.46 38.89 35.04 42.08 35.04C45.27 35.04 47.85 32.46 47.85 29.27C47.85 27.23 46.79 25.43 45.19 24.41L45.19 19.1C45.19 18.95 45.18 18.8 45.16 18.66L75.42 18.66C75.4 18.8 75.39 18.95 75.39 19.1L75.39 24.41C73.78 25.43 72.72 27.23 72.72 29.27C72.72 32.46 75.31 35.04 78.49 35.04C81.68 35.04 84.27 32.46 84.27 29.27C84.27 27.23 83.2 25.43 81.6 24.41L81.6 19.1C81.6 18.95 81.59 18.8 81.57 18.66L92.45 18.66C95.77 18.66 98.45 21.35 98.45 24.66Z" stroke="#000000" stroke-opacity="0" stroke-width="1.000000"/>
		</g>
		<g opacity="0.200000">
			<path d="M22.1 51.69L98.45 51.69L100.97 80.17C101.17 82.37 99.54 84.31 97.34 84.5C97.22 84.51 97.1 84.52 96.99 84.52L23.45 84.52C21.24 84.52 19.45 82.73 19.45 80.52C19.45 80.39 19.46 80.27 19.47 80.15L22.1 51.69Z" fill="#A1A7B3" fill-opacity="1.000000" fill-rule="evenodd"/>
			<path d="M98.45 51.69L100.97 80.17C101.17 82.37 99.54 84.31 97.34 84.5C97.22 84.51 97.1 84.52 96.99 84.52L23.45 84.52C21.24 84.52 19.45 82.73 19.45 80.52C19.45 80.39 19.46 80.27 19.47 80.15L22.1 51.69L98.45 51.69Z" stroke="#000000" stroke-opacity="0" stroke-width="1.000000"/>
		</g>
		<g opacity="0.800000">
			<path d="M47.85 29.27C47.85 32.46 45.27 35.04 42.08 35.04C38.89 35.04 36.31 32.46 36.31 29.27C36.31 27.23 37.37 25.43 38.97 24.41L38.97 28.87C38.97 30.59 40.37 31.98 42.08 31.98C43.8 31.98 45.19 30.59 45.19 28.87L45.19 24.41C46.79 25.43 47.85 27.23 47.85 29.27ZM84.27 29.27C84.27 32.46 81.68 35.04 78.49 35.04C75.31 35.04 72.72 32.46 72.72 29.27C72.72 27.23 73.78 25.43 75.39 24.41L75.39 28.87C75.39 30.59 76.78 31.98 78.49 31.98C80.21 31.98 81.6 30.59 81.6 28.87L81.6 24.41C83.2 25.43 84.27 27.23 84.27 29.27Z" fill="#A1A7B3" fill-opacity="1.000000" fill-rule="evenodd"/>
			<path d="M42.08 35.04C38.89 35.04 36.31 32.46 36.31 29.27C36.31 27.23 37.37 25.43 38.97 24.41L38.97 28.87C38.97 30.59 40.37 31.98 42.08 31.98C43.8 31.98 45.19 30.59 45.19 28.87L45.19 24.41C46.79 25.43 47.85 27.23 47.85 29.27C47.85 32.46 45.27 35.04 42.08 35.04ZM78.49 35.04C75.31 35.04 72.72 32.46 72.72 29.27C72.72 27.23 73.78 25.43 75.39 24.41L75.39 28.87C75.39 30.59 76.78 31.98 78.49 31.98C80.21 31.98 81.6 30.59 81.6 28.87L81.6 24.41C83.2 25.43 84.27 27.23 84.27 29.27C84.27 32.46 81.68 35.04 78.49 35.04Z" stroke="#000000" stroke-opacity="0" stroke-width="1.000000"/>
		</g>
		<g opacity="0.200000">
			<rect x="38.978516" y="16.000000" rx="3.108320" width="6.216640" height="15.985647" fill="#A1A7B3" fill-opacity="1.000000"/>
			<rect x="38.978516" y="16.000000" rx="3.108320" width="6.216640" height="15.985647" stroke="#000000" stroke-opacity="0" stroke-width="1.000000"/>
		</g>
		<g opacity="0.200000">
			<rect x="75.390137" y="16.000000" rx="3.108318" width="6.216637" height="15.985647" fill="#A1A7B3" fill-opacity="1.000000"/>
			<rect x="75.390137" y="16.000000" rx="3.108318" width="6.216637" height="15.985647" stroke="#000000" stroke-opacity="0" stroke-width="1.000000"/>
		</g>
	</g>
</svg>
