<svg width="64.000000" height="64.000000" viewBox="0 0 64 64" fill="none" xmlns="http://www.w3.org/2000/svg" xmlns:xlink="http://www.w3.org/1999/xlink">
    <desc>
        Created with Pixso.
    </desc>
    <defs>
        <clipPath id="clip5_196">
            <rect width="64.000000" height="64.000000" fill="white" fill-opacity="0"/>
        </clipPath>
    </defs>
    <g clip-path="url(#clip5_196)">
        <g opacity="0.000000">
            <rect width="64.000000" height="64.000000" fill="#000000" fill-opacity="1.000000"/>
        </g>
        <path d="M23.42 20.8C23.89 20.54 24.13 20.11 24.13 19.52C24.13 19.39 24.08 19.2 24 18.94C23.36 17.83 23.04 16.59 23.04 15.22C23.04 13.09 23.8 11.27 25.34 9.76C26.88 8.24 28.72 7.49 30.85 7.49C32.98 7.49 34.81 8.24 36.34 9.76C37.88 11.27 38.65 13.09 38.65 15.22C38.65 16.59 38.33 17.83 37.69 18.94C37.61 19.2 37.57 19.39 37.57 19.52C37.57 20.11 37.8 20.54 38.26 20.8C38.52 20.88 38.72 20.93 38.85 20.93C39.4 20.93 39.8 20.69 40.06 20.22C40.87 18.73 41.28 17.06 41.28 15.22C41.28 13.35 40.8 11.61 39.86 10.01C38.93 8.41 37.66 7.14 36.06 6.21C34.46 5.27 32.72 4.79 30.85 4.79C28.96 4.79 27.21 5.27 25.6 6.21C23.98 7.14 22.7 8.41 21.76 10.01C20.81 11.61 20.34 13.35 20.34 15.22C20.34 16.97 20.77 18.64 21.62 20.22C21.88 20.69 22.29 20.93 22.85 20.93C22.97 20.93 23.16 20.88 23.42 20.8ZM36.93 31.61C36.5 31.53 36.15 31.31 35.86 30.94C35.59 30.58 35.45 30.18 35.45 29.76L35.52 17.85C35.52 16.52 35.04 15.4 34.1 14.49C33.17 13.57 32.04 13.09 30.72 13.05C29.43 13.05 28.32 13.52 27.38 14.46C26.4 15.36 25.92 16.49 25.92 17.85L25.85 37.89C25.85 39.29 25.57 40.21 25.02 40.64C24.67 40.94 24.18 41.09 23.54 41.09C23.12 41.09 22.56 41 21.89 40.82C21.59 40.74 21.14 40.57 20.54 40.32C19.13 39.8 17.91 39.4 16.89 39.13C15.87 38.85 14.97 38.76 14.21 38.85C12.72 38.97 11.71 39.57 11.2 40.64C11.03 40.97 10.94 41.38 10.94 41.85C10.94 42.53 11.13 43.2 11.52 43.84C11.9 44.39 12.35 44.92 12.86 45.44L13.43 46.08L23.29 57.34C23.76 57.89 24.34 58.33 25.02 58.65C25.71 58.97 26.41 59.13 27.13 59.13L44.8 59.2C46.03 59.2 47.13 58.8 48.09 58.01C49.05 57.22 49.64 56.23 49.85 55.04L53.05 38.26C53.09 38.14 53.12 37.95 53.12 37.69C53.12 36.97 52.89 36.33 52.45 35.77C52 35.22 51.41 34.86 50.69 34.69L36.93 31.61Z" fill="#FFFFFF" fill-opacity="1.000000" fill-rule="nonzero"/>
    </g>
</svg>
