<svg width="80.000000" height="16.000000" viewBox="0 0 80 16" fill="none" xmlns="http://www.w3.org/2000/svg" xmlns:xlink="http://www.w3.org/1999/xlink">
    <desc>
        Created with Pixso.
    </desc>
    <defs/>
    <rect x="4.000000" rx="8.000000" width="72.000000" height="16.000000" fill="#FFFFFF" fill-opacity="0.200000"/>
    <path d="M33.4677 8.42487C33.446 8.42816 33.4243 8.42987 33.4027 8.42987C33.1815 8.42987 33.0001 8.24854 33.0001 8.02728C33.0001 7.91418 33.0468 7.80939 33.1283 7.7345L33.1233 7.72119L40.2697 3.99994L47.4227 7.7262L47.4127 7.74615C47.4875 7.81934 47.5309 7.92084 47.5309 8.02893C47.5309 8.25018 47.3512 8.42987 47.13 8.42987C47.0485 8.42987 46.9686 8.40491 46.9004 8.35663L40.2697 4.90491L33.4742 8.44318L33.4677 8.42487ZM47.4044 11.2963L47.4094 11.2814L40.2697 7.56171L33.2596 11.2131C33.1033 11.2729 33.0018 11.4194 33.0018 11.5874C33.0018 11.8086 33.1815 11.9883 33.4027 11.9883C33.4276 11.9883 33.4526 11.9867 33.4775 11.9817L33.4875 12L40.2714 8.46667L46.9536 11.9484C47.0101 11.975 47.0701 11.99 47.1283 11.99C47.3495 11.99 47.5292 11.8103 47.5292 11.5891C47.5309 11.476 47.4843 11.3711 47.4044 11.2963Z" clip-rule="evenodd" fill="#FFFFFF" fill-opacity="1.000000" fill-rule="evenodd"/>
</svg>
