<svg width="24.000000" height="24.000000" viewBox="0 0 24 24" fill="none" xmlns="http://www.w3.org/2000/svg" xmlns:xlink="http://www.w3.org/1999/xlink">
	<desc>
		Created with Pixso.
	</desc>
	<defs/>
	<g opacity="0.000000">
		<rect width="24.000000" height="24.000000" fill="#000000" fill-opacity="1.000000"/>
	</g>
	<path d="M21.93 14.28C22.14 14.53 22.25 14.83 22.25 15.19C22.25 15.45 22.17 15.71 22.03 15.98L20.45 18.71C20.29 18.99 20.07 19.19 19.79 19.33C19.52 19.46 19.24 19.52 18.93 19.49L16.87 19.25C16.39 19.53 16.03 19.73 15.79 19.85L15 21.74C14.88 22.03 14.7 22.26 14.43 22.43C14.17 22.59 13.88 22.68 13.56 22.68L10.39 22.68C10.06 22.68 9.78 22.59 9.53 22.43C9.27 22.26 9.08 22.03 8.97 21.74L8.14 19.79C7.76 19.6 7.43 19.4 7.13 19.2L5.06 19.45C4.73 19.49 4.44 19.44 4.18 19.31C3.9 19.17 3.68 18.96 3.53 18.7L1.96 15.96C1.82 15.68 1.75 15.42 1.75 15.17C1.75 14.81 1.85 14.51 2.06 14.26L3.33 12.53L3.33 11.42L2.06 9.72C1.85 9.4 1.75 9.08 1.75 8.78C1.75 8.51 1.82 8.26 1.96 8.02L3.55 5.28C3.7 5 3.92 4.8 4.19 4.66C4.47 4.53 4.77 4.47 5.08 4.51L7.19 4.75L8.16 4.2L9 2.26C9.11 1.96 9.3 1.73 9.56 1.57C9.82 1.4 10.12 1.32 10.43 1.32L13.61 1.32C13.93 1.32 14.21 1.4 14.47 1.57C14.73 1.73 14.91 1.96 15.02 2.26L15.86 4.2C16.43 4.53 16.77 4.72 16.85 4.78L18.93 4.53C19.26 4.5 19.55 4.55 19.81 4.69C20.09 4.83 20.3 5.02 20.45 5.28L22.03 8.03C22.17 8.28 22.25 8.54 22.25 8.83C22.25 9.18 22.14 9.48 21.93 9.73L20.68 11.42L20.68 12.6L21.93 14.28ZM12 9C12.54 9 13.04 9.13 13.5 9.41C13.95 9.68 14.31 10.05 14.59 10.51C14.86 10.97 15 11.47 15 12C15 12.83 14.7 13.54 14.12 14.12C13.54 14.7 12.83 15 12 15C11.47 15 10.97 14.86 10.51 14.59C10.05 14.31 9.68 13.95 9.41 13.5C9.13 13.04 9 12.54 9 12C9 11.47 9.13 10.97 9.41 10.51C9.68 10.05 10.05 9.68 10.51 9.41C10.97 9.13 11.47 9 12 9ZM12 7.51C11.18 7.51 10.43 7.71 9.73 8.1C9.05 8.51 8.51 9.05 8.1 9.73C7.7 10.43 7.51 11.18 7.51 12C7.51 12.81 7.7 13.56 8.1 14.26C8.51 14.94 9.05 15.49 9.73 15.9C10.43 16.3 11.18 16.51 12 16.51C12.81 16.51 13.56 16.3 14.26 15.9C14.94 15.49 15.49 14.94 15.9 14.26C16.3 13.56 16.51 12.81 16.51 12C16.51 11.18 16.3 10.43 15.9 9.73C15.49 9.05 14.94 8.51 14.26 8.1C13.56 7.71 12.81 7.51 12 7.51Z" fill="#3093FA" fill-opacity="1.000000" fill-rule="nonzero"/>
</svg>
