<svg t="1740145332526" class="icon" viewBox="0 0 1536 1024" version="1.1" xmlns="http://www.w3.org/2000/svg"
     p-id="16253" width="48" height="48">
    <path d="M1459.712 16.384a62.26 62.26 0 0 0-86.835 2.662L552.653 877.158 104.858 443.392a62.26 62.26 0 0 0-87.04 0.512 59.597 59.597 0 0 0 0.614 85.504l492.954 477.184 0.614 0.41 0.41 0.614c3.89 3.584 8.601 5.734 13.004 8.192 2.253 1.229 4.096 3.072 6.452 3.994a63.283 63.283 0 0 0 46.182-0.512c2.56-1.024 4.506-3.072 6.86-4.506 4.609-2.662 9.422-4.915 13.313-8.806l0.512-0.615c0-0.205 0.307-0.307 0.512-0.41l863.232-903.167a59.597 59.597 0 0 0-2.663-85.402z"
          fill="#ffffff" p-id="16254">
    </path>
</svg>