<svg width="20.000000" height="20.000000" viewBox="0 0 20 20" fill="none" xmlns="http://www.w3.org/2000/svg"
     xmlns:xlink="http://www.w3.org/1999/xlink">
    <desc>
        Created with Pixso.
    </desc>
    <defs>
        <clipPath id="clip74_5643">
            <rect id="ic_digital_power_lists_box" width="20.000000" height="20.000000" fill="white" fill-opacity="0"/>
        </clipPath>
    </defs>
    <g clip-path="url(#clip74_5643)">
        <path id="path1"
              d="M0.62 9.99C0.62 8.52 0.62 7.06 0.62 5.59C0.62 4.88 0.71 4.18 0.88 3.49C1.27 2.04 2.21 1.18 3.66 0.84C4.39 0.68 5.14 0.61 5.88 0.62C8.69 0.62 11.5 0.62 14.31 0.62C15.02 0.62 15.72 0.7 16.41 0.86C17.91 1.23 18.81 2.18 19.15 3.67C19.3 4.37 19.38 5.09 19.37 5.81C19.37 8.65 19.37 11.49 19.37 14.33C19.37 15.03 19.29 15.73 19.13 16.42C18.76 17.91 17.81 18.81 16.32 19.15C15.59 19.31 14.85 19.38 14.1 19.37C11.31 19.37 8.51 19.37 5.71 19.37C5 19.37 4.28 19.29 3.59 19.13C2.09 18.76 1.18 17.81 0.84 16.31C0.67 15.55 0.62 14.79 0.62 14.02C0.62 12.68 0.62 11.33 0.62 9.99Z"
              fill="#FFFFFF" fill-opacity="0" fill-rule="nonzero"/>
        <path id="path1"
              d="M0.62 5.59C0.62 4.88 0.71 4.18 0.88 3.49C1.27 2.04 2.21 1.18 3.66 0.84C4.39 0.68 5.14 0.61 5.88 0.62C8.69 0.62 11.5 0.62 14.31 0.62C15.02 0.62 15.72 0.7 16.41 0.86C17.91 1.23 18.81 2.18 19.15 3.67C19.3 4.37 19.38 5.09 19.37 5.81C19.37 8.65 19.37 11.49 19.37 14.33C19.37 15.03 19.29 15.73 19.13 16.42C18.76 17.91 17.81 18.81 16.32 19.15C15.59 19.31 14.85 19.38 14.1 19.37C11.31 19.37 8.51 19.37 5.71 19.37C5 19.37 4.28 19.29 3.59 19.13C2.09 18.76 1.18 17.81 0.84 16.31C0.67 15.55 0.62 14.79 0.62 14.02C0.62 12.68 0.62 11.33 0.62 9.99C0.62 8.52 0.62 7.06 0.62 5.59Z"
              stroke="#FFFFFF" stroke-opacity="0" stroke-width="1.500000"/>
        <g opacity="0.200000">
            <path id="path2"
                  d="M0.62 9.99C0.62 8.52 0.62 7.06 0.62 5.59C0.62 4.88 0.71 4.18 0.88 3.49C1.27 2.04 2.21 1.18 3.66 0.84C4.39 0.68 5.14 0.61 5.88 0.62C8.69 0.62 11.5 0.62 14.31 0.62C15.02 0.62 15.72 0.7 16.41 0.86C17.91 1.23 18.81 2.18 19.15 3.67C19.3 4.37 19.38 5.09 19.37 5.81C19.37 8.65 19.37 11.49 19.37 14.33C19.37 15.03 19.29 15.73 19.13 16.42C18.76 17.91 17.81 18.81 16.32 19.15C15.59 19.31 14.85 19.38 14.1 19.37C11.31 19.37 8.51 19.37 5.71 19.37C5 19.37 4.28 19.29 3.59 19.13C2.09 18.76 1.18 17.81 0.84 16.31C0.67 15.55 0.62 14.79 0.62 14.02C0.62 12.68 0.62 11.33 0.62 9.99Z"
                  fill="#000000" fill-opacity="0" fill-rule="nonzero"/>
            <path id="path2"
                  d="M0.62 5.59C0.62 4.88 0.71 4.18 0.88 3.49C1.27 2.04 2.21 1.18 3.66 0.84C4.39 0.68 5.14 0.61 5.88 0.62C8.69 0.62 11.5 0.62 14.31 0.62C15.02 0.62 15.72 0.7 16.41 0.86C17.91 1.23 18.81 2.18 19.15 3.67C19.3 4.37 19.38 5.09 19.37 5.81C19.37 8.65 19.37 11.49 19.37 14.33C19.37 15.03 19.29 15.73 19.13 16.42C18.76 17.91 17.81 18.81 16.32 19.15C15.59 19.31 14.85 19.38 14.1 19.37C11.31 19.37 8.51 19.37 5.71 19.37C5 19.37 4.28 19.29 3.59 19.13C2.09 18.76 1.18 17.81 0.84 16.31C0.67 15.55 0.62 14.79 0.62 14.02C0.62 12.68 0.62 11.33 0.62 9.99C0.62 8.52 0.62 7.06 0.62 5.59Z"
                  stroke="#FFFFFF" stroke-opacity="0" stroke-width="1.500000"/>
        </g>
        <circle id="path3" cx="10.000000" cy="10.000000" r="10.000000" fill="#FFFFFF" fill-opacity="0"/>
        <circle id="path3" cx="10.000000" cy="10.000000" r="10.000000" stroke="#000000" stroke-opacity="0"
                stroke-width="1.500000"/>
        <path id="path4" d="" fill="#000000" fill-opacity="0" fill-rule="nonzero"/>
        <path id="path4"
              d="M17.91 6.66L17.91 16.87C17.91 18.25 16.79 19.37 15.41 19.37L4.58 19.37C3.2 19.37 2.08 18.25 2.08 16.87L2.08 3.12C2.08 1.74 3.2 0.62 4.58 0.62L15.41 0.62C16.79 0.62 17.91 1.74 17.91 3.12L17.91 5"
              stroke="#FFFFFF" stroke-opacity="0" stroke-width="1.500000" stroke-linejoin="round"
              stroke-linecap="round"/>
        <path id="path5"
              d="M2.08 16.87L2.08 3.12C2.08 1.74 3.2 0.62 4.58 0.62L15.41 0.62C16.79 0.62 17.91 1.74 17.91 3.12L17.91 16.87C17.91 18.25 16.79 19.37 15.41 19.37L4.58 19.37C3.2 19.37 2.08 18.25 2.08 16.87Z"
              fill="#0A554A" fill-opacity="1.000000" fill-rule="evenodd"/>
        <path id="path5"
              d="M2.08 3.12C2.08 1.74 3.2 0.62 4.58 0.62L15.41 0.62C16.79 0.62 17.91 1.74 17.91 3.12L17.91 16.87C17.91 18.25 16.79 19.37 15.41 19.37L4.58 19.37C3.2 19.37 2.08 18.25 2.08 16.87L2.08 3.12Z"
              stroke="#0A554A" stroke-opacity="1.000000" stroke-width="1.500000" stroke-linejoin="round"/>
        <path id="path6"
              d="M7.52 6.56L7.5 6.58C7.08 6.58 6.75 6.25 6.75 5.83C6.75 5.41 7.08 5.08 7.5 5.08L7.52 5.1L7.52 6.56ZM14.14 5.1L14.16 5.08C14.58 5.08 14.91 5.41 14.91 5.83C14.91 6.25 14.58 6.58 14.16 6.58L14.14 6.56L14.14 5.1ZM7.52 10.73L7.5 10.75C7.08 10.75 6.75 10.42 6.75 9.99C6.75 9.57 7.08 9.24 7.5 9.24L7.52 9.26L7.52 10.73ZM14.14 9.26L14.16 9.24C14.58 9.24 14.91 9.57 14.91 9.99C14.91 10.42 14.58 10.75 14.16 10.75L14.14 10.73L14.14 9.26ZM7.52 14.89L7.5 14.91C7.08 14.91 6.75 14.58 6.75 14.16C6.75 13.74 7.08 13.41 7.5 13.41L7.52 13.43L7.52 14.89ZM14.14 13.43L14.16 13.41C14.58 13.41 14.91 13.74 14.91 14.16C14.91 14.58 14.58 14.91 14.16 14.91L14.14 14.89L14.14 13.43Z"
              fill="#000000" fill-opacity="0" fill-rule="nonzero"/>
        <path id="path6" d="M7.5 5.83L14.16 5.83M7.5 9.99L14.16 9.99M7.5 14.16L14.16 14.16" stroke="#FFFFFF"
              stroke-opacity="1.000000" stroke-width="1.500000" stroke-linejoin="round" stroke-linecap="round"/>
        <path id="path7"
              d="M5.72 14.16C5.73 14.1 5.77 14.06 5.83 14.06C5.89 14.06 5.93 14.1 5.93 14.16C5.93 14.22 5.89 14.27 5.83 14.27C5.77 14.27 5.73 14.21 5.72 14.16ZM5.72 9.99C5.73 9.94 5.77 9.89 5.83 9.89C5.89 9.89 5.93 9.94 5.93 10C5.93 10.05 5.89 10.1 5.83 10.1C5.77 10.1 5.73 10.05 5.72 9.99ZM5.72 5.82C5.73 5.77 5.77 5.72 5.83 5.72C5.89 5.72 5.93 5.77 5.93 5.83C5.93 5.89 5.89 5.93 5.83 5.93C5.77 5.93 5.73 5.88 5.72 5.82Z"
              fill="#000000" fill-opacity="0" fill-rule="evenodd"/>
        <path id="path7"
              d="M5.83 14.06C5.89 14.06 5.93 14.1 5.93 14.16C5.93 14.22 5.89 14.27 5.83 14.27C5.77 14.27 5.73 14.21 5.72 14.16C5.73 14.1 5.77 14.06 5.83 14.06ZM5.83 9.89C5.89 9.89 5.93 9.94 5.93 10C5.93 10.05 5.89 10.1 5.83 10.1C5.77 10.1 5.73 10.05 5.72 9.99C5.73 9.94 5.77 9.89 5.83 9.89ZM5.83 5.72C5.89 5.72 5.93 5.77 5.93 5.83C5.93 5.89 5.89 5.93 5.83 5.93C5.77 5.93 5.73 5.88 5.72 5.82C5.73 5.77 5.77 5.72 5.83 5.72Z"
              stroke="#FFFFFF" stroke-opacity="1.000000" stroke-width="1.500000"/>
    </g>
</svg>
