<svg width="16.000000" height="16.000000" viewBox="0 0 16 16" fill="none" xmlns="http://www.w3.org/2000/svg" xmlns:xlink="http://www.w3.org/1999/xlink">
	<desc>
			Created with Pixso.
	</desc>
	<defs>
		<clipPath id="clip254_2117">
			<rect width="16.000000" height="16.000000" fill="white" fill-opacity="0"/>
		</clipPath>
	</defs>
	<g clip-path="url(#clip254_2117)">
		<g opacity="0.000000">
			<rect width="16.000000" height="16.000000" fill="#000000" fill-opacity="1.000000"/>
		</g>
		<path d="M1.79 9.5C1.66 9.5 1.55 9.55 1.46 9.63C1.37 9.72 1.32 9.83 1.32 9.96C1.32 10.1 1.38 10.22 1.5 10.31L4.01 12.4C4.1 12.47 4.19 12.51 4.3 12.51C4.43 12.51 4.54 12.46 4.64 12.37C4.73 12.28 4.78 12.17 4.78 12.04L4.78 10.49L14.17 10.49C14.31 10.49 14.43 10.44 14.52 10.35C14.62 10.25 14.67 10.13 14.67 10C14.67 9.86 14.62 9.74 14.52 9.64C14.43 9.55 14.31 9.5 14.17 9.5L3.5 9.5L1.79 9.5ZM11.21 5.5L1.84 5.5C1.7 5.5 1.58 5.55 1.48 5.64C1.37 5.74 1.32 5.86 1.32 6C1.32 6.13 1.37 6.25 1.48 6.35C1.58 6.44 1.7 6.49 1.84 6.49L12.49 6.49L14.19 6.49C14.33 6.49 14.44 6.44 14.53 6.35C14.62 6.27 14.67 6.16 14.67 6.03C14.67 5.89 14.61 5.77 14.49 5.67L11.98 3.59C11.89 3.52 11.8 3.48 11.69 3.48C11.56 3.48 11.45 3.53 11.36 3.62C11.26 3.71 11.21 3.82 11.21 3.95L11.21 5.5Z" fill="#000000" fill-opacity="0.600000" fill-rule="nonzero"/>
	</g>
</svg>
