<svg width="24.000000" height="24.000000" viewBox="0 0 24 24" fill="none" xmlns="http://www.w3.org/2000/svg" xmlns:xlink="http://www.w3.org/1999/xlink">
	<desc>
			Created with Pixso.
	</desc>
	<defs>
		<clipPath id="clip6_126">
			<rect width="24.000000" height="24.000000" fill="white" fill-opacity="0"/>
		</clipPath>
	</defs>
	<g clip-path="url(#clip6_126)">
		<g opacity="0.000000">
			<rect width="24.000000" height="24.000000" fill="#D8D8D8" fill-opacity="1.000000"/>
			<rect width="24.000000" height="24.000000" stroke="#000000" stroke-opacity="0" stroke-width="1.000000"/>
		</g>
		<path d="M11.55 2C14.06 2 16.1 4.02 16.1 6.51C16.1 8.72 15.57 10.52 14.63 11.71C14.61 11.75 14.58 11.79 14.55 11.82C14.48 11.91 14.4 11.99 14.32 12.07C14.16 12.24 13.99 12.39 13.8 12.52L13.61 12.65L13.48 12.73L13.34 12.81C12.97 13.01 12.51 13.17 12.1 13.23C11.69 13.29 11.31 13.01 11.25 12.6C11.19 12.22 11.43 11.87 11.78 11.77C12.28 11.7 12.84 11.43 13.27 11L13.44 10.82C14.18 9.91 14.6 8.4 14.6 6.51C14.6 4.84 13.24 3.48 11.55 3.48C9.87 3.48 8.5 4.84 8.5 6.51C8.5 8.39 9.1 10.12 10.06 11.08C10.13 11.13 10.18 11.19 10.22 11.26C10.35 11.45 10.37 11.69 10.3 11.91L10.24 12.02L10.16 12.14L10.05 12.25L5.7 14.99C5.01 15.43 4.49 16.08 4.22 16.84L4.15 17.07L3.53 19.34C3.38 19.88 3.75 20.43 4.31 20.5L4.42 20.51L12.21 20.51C12.62 20.51 12.96 20.84 12.96 21.25C12.96 21.62 12.67 21.94 12.31 21.99L12.21 22L4.43 22C2.89 22 1.74 20.59 2.04 19.11L2.08 18.94L2.7 16.68C3.01 15.55 3.71 14.57 4.67 13.89L4.9 13.74L8.39 11.53L8.41 11.43C7.51 10.16 7 8.39 7 6.51C7 4.02 9.04 2 11.55 2Z" fill="#000000" fill-opacity="0.600000" fill-rule="evenodd"/>
		<path d="M16.1 6.51C16.1 8.72 15.57 10.52 14.63 11.71C14.61 11.75 14.58 11.79 14.55 11.82C14.48 11.91 14.4 11.99 14.32 12.07C14.16 12.24 13.99 12.39 13.8 12.52L13.61 12.65L13.48 12.73L13.34 12.81C12.97 13.01 12.51 13.17 12.1 13.23C11.69 13.29 11.31 13.01 11.25 12.6C11.19 12.22 11.43 11.87 11.78 11.77C12.28 11.7 12.84 11.43 13.27 11L13.44 10.82C14.18 9.91 14.6 8.4 14.6 6.51C14.6 4.84 13.24 3.48 11.55 3.48C9.87 3.48 8.5 4.84 8.5 6.51C8.5 8.39 9.1 10.12 10.06 11.08C10.13 11.13 10.18 11.19 10.22 11.26C10.35 11.45 10.37 11.69 10.3 11.91L10.24 12.02L10.16 12.14L10.05 12.25L5.7 14.99C5.01 15.43 4.49 16.08 4.22 16.84L4.15 17.07L3.53 19.34C3.38 19.88 3.75 20.43 4.31 20.5L4.42 20.51L12.21 20.51C12.62 20.51 12.96 20.84 12.96 21.25C12.96 21.62 12.67 21.94 12.31 21.99L12.21 22L4.43 22C2.89 22 1.74 20.59 2.04 19.11L2.08 18.94L2.7 16.68C3.01 15.55 3.71 14.57 4.67 13.89L4.9 13.74L8.39 11.53L8.41 11.43C7.51 10.16 7 8.39 7 6.51C7 4.02 9.04 2 11.55 2C14.06 2 16.1 4.02 16.1 6.51Z" stroke="#000000" stroke-opacity="0" stroke-width="1.000000"/>
		<path d="M20.68 14.31C22.25 15.89 22.41 18.34 21.17 20.09L22.81 21.73C23.1 22.03 23.1 22.5 22.81 22.79C22.54 23.06 22.12 23.08 21.83 22.87L20.11 21.16C18.35 22.42 15.89 22.26 14.31 20.68C12.56 18.92 12.56 16.07 14.31 14.31C16.07 12.56 18.92 12.56 20.68 14.31ZM15.37 15.37C14.2 16.55 14.2 18.44 15.37 19.62C16.55 20.79 18.44 20.79 19.62 19.62C20.79 18.44 20.79 16.55 19.62 15.37C18.44 14.2 16.55 14.2 15.37 15.37Z" fill="#000000" fill-opacity="0.600000" fill-rule="evenodd"/>
		<path d="M21.17 20.09L22.81 21.73C23.1 22.03 23.1 22.5 22.81 22.79C22.54 23.06 22.12 23.08 21.83 22.87L20.11 21.16C18.35 22.42 15.89 22.26 14.31 20.68C12.56 18.92 12.56 16.07 14.31 14.31C16.07 12.56 18.92 12.56 20.68 14.31C22.25 15.89 22.41 18.34 21.17 20.09ZM15.37 19.62C16.55 20.79 18.44 20.79 19.62 19.62C20.79 18.44 20.79 16.55 19.62 15.37C18.44 14.2 16.55 14.2 15.37 15.37C14.2 16.55 14.2 18.44 15.37 19.62Z" stroke="#000000" stroke-opacity="0" stroke-width="1.000000"/>
	</g>
</svg>
