<svg width="240" height="240" xmlns="http://www.w3.org/2000/svg" stroke="null">
 <g id="Layer_1">
  <title>Layer 1</title>
  <path fill="#eb8989" stroke-opacity="0.01" id="svg_2" stroke="#ffffff"/>
  <path id="svg_4" d="m338.30479,215.91991l0.745,0l0,0c0.41145,0 0.745,0.33355 0.745,0.745c0,0.41145 -0.33355,0.745 -0.745,0.745l-0.745,0l0,-1.49z" stroke="#eb8989" fill="#ffffff"/>
  <path id="svg_5" d="m311.10814,241.12654l0.745,0l0,0c0.41145,0 0.745,0.33355 0.745,0.745c0,0.41145 -0.33355,0.745 -0.745,0.745l-0.745,0l0,-1.49z" stroke="#eb8989" fill="#ffffff"/>
  <path id="svg_6" d="m-275.27793,-71.30314l0.745,0l0,0c0.41145,0 0.745,0.33355 0.745,0.745c0,0.41145 -0.33355,0.745 -0.745,0.745l-0.745,0l0,-1.49z" stroke="#eb8989" fill="#ffffff"/>
  <path id="svg_7" d="m-247.41796,-34.81984l0.745,0l0,0c0.41145,0 0.745,0.33355 0.745,0.745c0,0.41145 -0.33355,0.745 -0.745,0.745l-0.745,0l0,-1.49z" stroke="#eb8989" fill="#ffffff"/>
  <g stroke="null" id="svg_8">
   <ellipse stroke="#ffffff" fill="#eb8989" stroke-opacity="0.01" cx="119.31614" cy="118.31272" id="svg_1" rx="90.12714" ry="88.36769"/>
   <path stroke="#eb8989" fill="#ffffff" d="m118.6975,96.83228c23.37966,-59.93302 114.98197,0 0,77.05673c-114.98197,-77.05673 -23.37966,-136.98974 0,-77.05673z" id="svg_3"/>
  </g>
 </g>

</svg>