<svg xmlns="http://www.w3.org/2000/svg" width="24" height="24">
    <rect width="24" height="24" opacity="0"></rect>
    <g>
        <path d="M9.5 18.19Q9.91 18.19 10.3 18.04Q10.68 17.88 10.97 17.59L21.53 7.08Q21.74 6.86 21.74 6.55Q21.74 6.24 21.53 6.02Q21.31 5.78 21 5.78Q20.69 5.78 20.45 6.02L9.89 16.54Q9.72 16.7 9.5 16.7Q9.29 16.7 9.12 16.54L3.53 10.99Q3.31 10.75 3 10.76Q2.69 10.78 2.47 10.99Q2.23 11.21 2.23 11.52Q2.23 11.83 2.47 12.05L8.06 17.59Q8.35 17.88 8.72 18.04Q9.1 18.19 9.5 18.19Z"
              fill="rgba(0,0,0,0.9019607843137255)"></path>
    </g>
</svg>