<svg width="128.004150" height="120.942322" viewBox="0 0 128.004 120.942" fill="none" xmlns="http://www.w3.org/2000/svg" xmlns:xlink="http://www.w3.org/1999/xlink">
	<desc>
		Created with Pixso.
	</desc>
	<defs>
		<filter id="filter_10_3342_dd" x="0.000000" y="0.000000" width="128.004150" height="120.942322" filterUnits="userSpaceOnUse" color-interpolation-filters="sRGB">
			<feFlood flood-opacity="0" result="BackgroundImageFix"/>
			<feColorMatrix in="SourceAlpha" type="matrix" values="0 0 0 0 0 0 0 0 0 0 0 0 0 0 0 0 0 0 127 0" result="hardAlpha"/>
			<feOffset dx="-7" dy="13"/>
			<feGaussianBlur stdDeviation="8"/>
			<feComposite in2="hardAlpha" operator="out" k2="-1" k3="1"/>
			<feColorMatrix type="matrix" values="0 0 0 0 0.92941 0 0 0 0 0.43529 0 0 0 0 0.12941 0 0 0 1 0"/>
			<feBlend mode="normal" in2="BackgroundImageFix" result="effect_dropShadow_1"/>
			<feBlend mode="normal" in="SourceGraphic" in2="effect_dropShadow_1" result="shape"/>
		</filter>
		<linearGradient x1="79.615318" y1="55.952026" x2="86.085449" y2="44.616531" id="paint_linear_10_3357_0" gradientUnits="userSpaceOnUse">
			<stop offset="0.060000" stop-color="#ED6F21"/>
			<stop offset="0.470000" stop-color="#FD995C"/>
			<stop offset="1.000000" stop-color="#FFBE96"/>
		</linearGradient>
		<linearGradient x1="45.767578" y1="35.641663" x2="86.248131" y2="9.256805" id="paint_linear_10_3366_0" gradientUnits="userSpaceOnUse">
			<stop offset="0.060000" stop-color="#ED6F21"/>
			<stop offset="0.470000" stop-color="#FD995C"/>
			<stop offset="1.000000" stop-color="#FFBE96"/>
		</linearGradient>
	</defs>
	<g filter="url(#filter_10_3342_dd)">
		<path id="path" d="M108.8 71.5C108.16 72.13 107.44 72.64 106.63 73.02C105.82 73.41 104.97 73.64 104.08 73.73L64.59 78.36C59.15 79 53.16 74.85 51.21 69.09L37.01 27.27C36.14 24.73 36.21 22.29 37.03 20.31C37.4 19.41 37.92 18.62 38.59 17.93L33.2 23.44C31.08 25.61 30.36 29.08 31.61 32.78L45.81 74.6C47.77 80.36 53.76 84.51 59.2 83.87L98.69 79.25C99.5 79.15 100.29 78.95 101.04 78.63C101.24 78.54 101.44 78.44 101.63 78.34C101.73 78.29 101.82 78.24 101.91 78.18C102.1 78.07 102.28 77.95 102.45 77.83C102.54 77.77 102.62 77.7 102.71 77.64C102.95 77.45 103.19 77.24 103.41 77.02L108.8 71.5Z" fill="#FFF0E8" fill-opacity="1.000000" fill-rule="nonzero"/>
		<path id="path" d="M82.8 11.06C88.24 10.42 94.23 14.57 96.18 20.33L110.38 62.15C112.33 67.91 109.51 73.09 104.07 73.73L64.59 78.36C59.15 79 53.16 74.85 51.2 69.09L37.01 27.27C35.05 21.52 37.87 16.33 43.31 15.69L82.8 11.06Z" fill="#FFFAF7" fill-opacity="1.000000" fill-rule="nonzero"/>
		<path id="path" d="M104.28 73.31L64.8 77.94C59.36 78.58 53.37 74.43 51.41 68.67L37.21 26.85C36.31 24.18 36.43 21.63 37.37 19.61C36.25 21.7 36.04 24.41 37.01 27.27L51.2 69.1C53.16 74.86 59.15 79.01 64.59 78.37L104.07 73.74C106.99 73.4 109.15 71.75 110.23 69.41C109.09 71.52 107.02 72.99 104.28 73.31Z" fill="#FFE6D8" fill-opacity="1.000000" fill-rule="nonzero"/>
		<path id="path" d="M69.36 41.43L65.24 41.87C64.11 41.99 62.89 41.11 62.5 39.9L61.11 35.52C60.86 34.74 61.03 34.02 61.49 33.57L60.66 34.37C60.2 34.82 60.04 35.54 60.28 36.32L61.68 40.7C62.06 41.91 63.29 42.78 64.42 42.67L68.54 42.23C68.73 42.21 68.92 42.16 69.09 42.09C69.25 42.01 69.39 41.91 69.52 41.79L70.35 40.99C70.07 41.25 69.74 41.4 69.36 41.43Z" fill="#FFDCC9" fill-opacity="1.000000" fill-rule="nonzero"/>
		<path id="path" d="M66.58 32.78C67.71 32.66 68.93 33.54 69.32 34.75L70.71 39.13C71.09 40.33 70.49 41.41 69.36 41.52L65.24 41.96C64.11 42.08 62.89 41.2 62.5 40L61.11 35.62C60.73 34.41 61.33 33.33 62.46 33.22L66.58 32.78Z" fill="#FFF0E8" fill-opacity="1.000000" fill-rule="nonzero"/>
		<path id="path" d="M81.72 39.93L77.6 40.37C76.47 40.49 75.24 39.61 74.86 38.41L73.47 34.03C73.22 33.25 73.39 32.52 73.85 32.07L73.02 32.87C72.57 33.32 72.41 34.05 72.65 34.83L74.04 39.21C74.42 40.41 75.65 41.28 76.78 41.17L80.89 40.74C81.08 40.72 81.27 40.67 81.44 40.59C81.6 40.52 81.75 40.42 81.87 40.29L82.7 39.49C82.42 39.75 82.1 39.9 81.72 39.93Z" fill="#FFDCC9" fill-opacity="1.000000" fill-rule="nonzero"/>
		<path id="path" d="M78.94 31.29C80.07 31.17 81.3 32.05 81.68 33.25L83.07 37.63C83.46 38.84 82.85 39.91 81.72 40.03L77.6 40.47C76.47 40.59 75.24 39.71 74.86 38.5L73.46 34.12C73.08 32.92 73.68 31.84 74.82 31.72L78.94 31.29Z" fill="#FFF0E8" fill-opacity="1.000000" fill-rule="nonzero"/>
		<path id="path" d="M94.08 38.44L89.96 38.87C88.83 38.99 87.6 38.11 87.22 36.91L85.83 32.53C85.58 31.75 85.75 31.02 86.2 30.57L85.38 31.37C84.92 31.82 84.76 32.55 85 33.33L86.4 37.71C86.78 38.91 88.01 39.78 89.14 39.67L93.25 39.24C93.44 39.22 93.62 39.17 93.8 39.09C93.96 39.02 94.1 38.92 94.23 38.79L95.05 37.99C94.78 38.25 94.46 38.4 94.08 38.44Z" fill="#FFDCC9" fill-opacity="1.000000" fill-rule="nonzero"/>
		<path id="path" d="M91.31 29.79C92.44 29.67 93.66 30.55 94.05 31.75L95.44 36.13C95.82 37.34 95.21 38.42 94.08 38.53L89.96 38.97C88.83 39.09 87.6 38.21 87.22 37L85.83 32.62C85.44 31.42 86.05 30.34 87.18 30.23L91.31 29.79Z" fill="#FFF0E8" fill-opacity="1.000000" fill-rule="nonzero"/>
		<path id="path" d="M61.75 57.11L57.62 57.55C56.49 57.67 55.26 56.79 54.88 55.58L53.49 51.2C53.24 50.42 53.41 49.69 53.86 49.25L53.04 50.05C52.58 50.49 52.42 51.22 52.66 52L54.06 56.38C54.44 57.59 55.67 58.46 56.8 58.34L60.91 57.91C61.1 57.89 61.28 57.84 61.46 57.76C61.62 57.69 61.76 57.59 61.89 57.47L62.71 56.67C62.44 56.93 62.12 57.07 61.75 57.11Z" fill="#FFDCC9" fill-opacity="1.000000" fill-rule="nonzero"/>
		<path id="path" d="M58.96 48.46C60.09 48.35 61.32 49.23 61.71 50.43L63.1 54.81C63.48 56.01 62.88 57.09 61.75 57.2L57.62 57.64C56.49 57.76 55.26 56.88 54.88 55.68L53.49 51.3C53.11 50.09 53.71 49.01 54.84 48.9L58.96 48.46Z" fill="#FFF0E8" fill-opacity="1.000000" fill-rule="nonzero"/>
		<path id="path" d="M74.11 55.61L69.99 56.05C68.86 56.17 67.63 55.29 67.25 54.08L65.85 49.7C65.6 48.92 65.77 48.2 66.23 47.75L65.4 48.55C64.95 48.99 64.79 49.72 65.03 50.5L66.42 54.88C66.8 56.09 68.03 56.96 69.16 56.85L73.28 56.41C73.47 56.39 73.66 56.34 73.83 56.26C73.99 56.19 74.13 56.09 74.26 55.97L75.09 55.17C74.81 55.43 74.49 55.58 74.11 55.61Z" fill="#FFDCC9" fill-opacity="1.000000" fill-rule="nonzero"/>
		<path id="path" d="M71.33 46.97C72.46 46.85 73.69 47.73 74.07 48.93L75.46 53.31C75.85 54.52 75.24 55.59 74.11 55.71L69.99 56.14C68.86 56.26 67.63 55.38 67.25 54.18L65.86 49.8C65.48 48.6 66.08 47.52 67.22 47.4L71.33 46.97Z" fill="#FFF0E8" fill-opacity="1.000000" fill-rule="nonzero"/>
		<path id="path" d="M86.47 54.11L82.36 54.55C81.23 54.67 80 53.79 79.62 52.59L78.23 48.2C77.98 47.42 78.15 46.7 78.6 46.25L77.78 47.05C77.32 47.5 77.16 48.22 77.4 49L78.8 53.38C79.18 54.59 80.41 55.46 81.54 55.35L85.65 54.91C85.84 54.89 86.02 54.84 86.2 54.77C86.36 54.69 86.5 54.59 86.63 54.47L87.45 53.67C87.18 53.93 86.85 54.08 86.47 54.11Z" fill="#BF2980" fill-opacity="1.000000" fill-rule="nonzero"/>
		<path id="path" d="M83.69 45.37C84.82 45.25 86.05 46.13 86.44 47.34L87.83 51.72C88.21 52.92 87.6 54 86.47 54.11L82.36 54.55C81.23 54.67 80 53.79 79.62 52.59L78.23 48.2C77.84 47 78.45 45.92 79.58 45.81L83.69 45.37Z" fill="url(#paint_linear_10_3357_0)" fill-opacity="1.000000" fill-rule="nonzero"/>
		<path id="path" d="M98.84 52.62L94.73 53.05C93.59 53.17 92.37 52.29 91.98 51.09L90.59 46.71C90.34 45.93 90.51 45.2 90.97 44.75L90.14 45.55C89.68 46 89.52 46.72 89.76 47.5L91.16 51.89C91.54 53.09 92.77 53.96 93.9 53.85L98.01 53.42C98.2 53.4 98.38 53.35 98.56 53.27C98.72 53.2 98.86 53.1 98.99 52.97L99.81 52.17C99.54 52.43 99.21 52.58 98.84 52.62Z" fill="#FFDCC9" fill-opacity="1.000000" fill-rule="nonzero"/>
		<path id="path" d="M96.06 43.97C97.19 43.85 98.42 44.73 98.8 45.93L100.19 50.31C100.58 51.52 99.97 52.6 98.84 52.71L94.73 53.15C93.59 53.27 92.37 52.39 91.98 51.18L90.59 46.8C90.21 45.6 90.81 44.52 91.94 44.4L96.06 43.97Z" fill="#FFF0E8" fill-opacity="1.000000" fill-rule="nonzero"/>
		<path id="path" d="M66.5 71.29L62.38 71.72C61.25 71.84 60.02 70.96 59.64 69.76L58.24 65.38C58 64.6 58.16 63.87 58.62 63.43L57.8 64.23C57.34 64.67 57.18 65.4 57.42 66.18L58.81 70.56C59.19 71.77 60.42 72.63 61.55 72.52L65.68 72.09C65.87 72.07 66.05 72.02 66.22 71.94C66.38 71.87 66.53 71.77 66.65 71.64L67.48 70.85C67.2 71.11 66.88 71.26 66.5 71.29Z" fill="#FFDCC9" fill-opacity="1.000000" fill-rule="nonzero"/>
		<path id="path" d="M63.72 62.64C64.85 62.52 66.08 63.4 66.46 64.61L67.85 68.99C68.24 70.19 67.63 71.27 66.5 71.38L62.38 71.82C61.25 71.94 60.02 71.06 59.64 69.86L58.24 65.47C57.86 64.27 58.47 63.19 59.6 63.08L63.72 62.64Z" fill="#FFF0E8" fill-opacity="1.000000" fill-rule="nonzero"/>
		<path id="path" d="M78.86 69.79L74.75 70.23C73.62 70.35 72.39 69.47 72.01 68.26L70.62 63.88C70.37 63.1 70.54 62.37 70.99 61.93L70.17 62.73C69.71 63.17 69.55 63.9 69.79 64.68L71.19 69.06C71.57 70.27 72.8 71.14 73.93 71.03L78.05 70.59C78.24 70.57 78.42 70.52 78.6 70.44C78.76 70.37 78.9 70.27 79.03 70.15L79.85 69.35C79.57 69.61 79.24 69.76 78.86 69.79Z" fill="#FFDCC9" fill-opacity="1.000000" fill-rule="nonzero"/>
		<path id="path" d="M76.08 61.14C77.21 61.03 78.44 61.91 78.82 63.11L80.22 67.49C80.6 68.69 79.99 69.77 78.86 69.89L74.75 70.32C73.62 70.44 72.39 69.56 72.01 68.36L70.62 63.98C70.23 62.77 70.84 61.69 71.97 61.58L76.08 61.14Z" fill="#FFF0E8" fill-opacity="1.000000" fill-rule="nonzero"/>
		<path id="path" d="M91.23 68.29L87.11 68.73C85.97 68.85 84.75 67.97 84.36 66.76L82.97 62.38C82.72 61.6 82.89 60.88 83.35 60.43L82.52 61.23C82.06 61.68 81.9 62.4 82.14 63.18L83.54 67.56C83.92 68.77 85.15 69.64 86.28 69.53L90.4 69.09C90.59 69.07 90.77 69.02 90.95 68.94C91.11 68.87 91.25 68.77 91.38 68.65L92.2 67.85C91.93 68.11 91.6 68.26 91.23 68.29Z" fill="#FFDCC9" fill-opacity="1.000000" fill-rule="nonzero"/>
		<path id="path" d="M88.45 59.55C89.58 59.44 90.81 60.32 91.19 61.52L92.58 65.9C92.97 67.1 92.36 68.18 91.23 68.3L87.11 68.73C85.97 68.85 84.75 67.97 84.36 66.77L82.97 62.39C82.59 61.18 83.19 60.1 84.32 59.99L88.45 59.55Z" fill="#FFF0E8" fill-opacity="1.000000" fill-rule="nonzero"/>
		<path id="path" d="M96.18 20.33C94.23 14.57 88.24 10.42 82.8 11.06L43.31 15.69C37.87 16.33 35.05 21.52 37.01 27.27L38.75 32.41L97.9 25.4L96.18 20.33Z" fill="url(#paint_linear_10_3366_0)" fill-opacity="1.000000" fill-rule="nonzero"/>
		<path id="path" d="M38.75 32.41L37.01 27.27C36.14 24.73 36.21 22.29 37.03 20.31C37.4 19.41 37.92 18.62 38.59 17.93L33.2 23.44C31.08 25.61 30.36 29.08 31.61 32.78L33.55 38.47L38.75 32.41Z" fill="#BC4800" fill-opacity="1.000000" fill-rule="nonzero"/>
		<mask id="mask10_3369" mask-type="alpha" maskUnits="userSpaceOnUse" x="36.391418" y="11.000000" width="61.514648" height="21.411469">
			<path id="path" d="M96.18 20.33C94.23 14.57 88.24 10.42 82.8 11.06L43.31 15.69C37.87 16.33 35.05 21.52 37.01 27.27L38.75 32.41L97.9 25.4L96.18 20.33Z" fill="#000000" fill-opacity="1.000000" fill-rule="nonzero"/>
		</mask>
		<g mask="url(#mask10_3369)">
			<g opacity="0.500000">
				<g opacity="0.000000">
					<path id="path" d="M37.01 27.27C36.8 27.34 36.51 27.17 36.18 26.74C35.71 26.08 35.38 25.36 35.2 24.58C34.85 23.28 34.8 21.97 35.04 20.65C35.38 18.72 36.25 17.08 37.66 15.72C38.06 15.34 38.49 15 38.95 14.69C39.43 14.37 39.94 14.09 40.47 13.86C41.01 13.62 41.57 13.43 42.15 13.28C42.44 13.2 42.74 13.16 43.03 13.1L43.74 12.97C45.64 12.63 47.67 12.29 49.81 11.96C54.1 11.29 58.82 10.65 63.79 10.07C68.76 9.48 73.5 9.02 77.82 8.68C78.9 8.59 79.96 8.51 80.98 8.44L82.5 8.34C83.13 8.3 83.75 8.31 84.37 8.36C85.52 8.46 86.64 8.7 87.72 9.1L88.46 9.4C88.58 9.45 88.7 9.49 88.82 9.55L89.16 9.72L89.83 10.07C90.04 10.19 90.24 10.32 90.45 10.45C91.89 11.36 93.14 12.5 94.19 13.85C94.97 14.84 95.59 15.92 96.03 17.1C96.12 17.35 96.2 17.57 96.26 17.79C96.32 18 96.37 18.21 96.4 18.41C96.44 18.6 96.47 18.78 96.5 18.94C96.52 19.11 96.51 19.26 96.51 19.4C96.51 19.96 96.39 20.26 96.19 20.33C95.98 20.4 95.68 20.24 95.32 19.89C95.23 19.8 95.14 19.7 95.04 19.59C94.95 19.48 94.82 19.37 94.7 19.24C94.59 19.12 94.46 18.98 94.34 18.83C94.21 18.68 94.06 18.55 93.91 18.39C93.84 18.31 93.76 18.23 93.68 18.15L93.57 18.03L93.44 17.91C93.27 17.75 93.09 17.58 92.91 17.4C92.73 17.22 92.52 17.06 92.31 16.88C92.21 16.79 92.11 16.7 92 16.61L91.65 16.36C90.63 15.57 89.53 14.94 88.34 14.45C88.18 14.39 88.02 14.31 87.86 14.26L87.35 14.1L87.1 14.02C87.01 14 86.93 13.98 86.84 13.96L86.32 13.84C85.61 13.69 84.9 13.64 84.18 13.67C83.82 13.69 83.47 13.72 83.12 13.78L81.62 14.03C80.61 14.2 79.56 14.37 78.49 14.54C74.21 15.2 69.48 15.85 64.52 16.43C59.55 17.01 54.81 17.48 50.48 17.82C48.32 17.99 46.27 18.14 44.34 18.24L43.62 18.28C43.45 18.29 43.28 18.29 43.12 18.31C42.8 18.34 42.48 18.4 42.17 18.48C41.87 18.56 41.59 18.65 41.31 18.77C41.04 18.89 40.79 19.03 40.54 19.19C40.07 19.5 39.66 19.86 39.31 20.3C38.97 20.71 38.68 21.16 38.45 21.65C38.05 22.52 37.79 23.42 37.66 24.37C37.53 25.2 37.49 25.89 37.41 26.39C37.34 26.88 37.22 27.2 37.01 27.27Z" fill="#FFFFFF" fill-opacity="1.000000" fill-rule="nonzero"/>
				</g>
				<g opacity="0.020000">
					<path id="path" d="M36.95 27.1C36.75 27.17 36.46 27 36.13 26.56C35.68 25.9 35.36 25.18 35.19 24.39C35.04 23.82 34.96 23.24 34.94 22.65C34.91 21.92 34.96 21.2 35.1 20.49C35.48 18.58 36.37 16.97 37.78 15.65C38.61 14.88 39.55 14.28 40.59 13.84C41.14 13.62 41.69 13.43 42.27 13.3C42.41 13.26 42.55 13.24 42.7 13.21L43.11 13.13L43.82 13C45.71 12.67 47.73 12.33 49.86 12C54.13 11.34 58.83 10.7 63.77 10.12C68.71 9.54 73.44 9.08 77.74 8.73C78.81 8.64 79.86 8.57 80.88 8.49L82.39 8.39L82.48 8.39L82.6 8.39L82.84 8.39L83.31 8.39L83.77 8.39L84.22 8.43C84.52 8.46 84.82 8.48 85.11 8.52L85.96 8.68C86.1 8.71 86.24 8.74 86.37 8.77L86.77 8.89L87.55 9.13C90.14 10.07 92.3 11.62 94.03 13.78L94.36 14.21L94.52 14.42C94.56 14.49 94.61 14.56 94.66 14.64C94.84 14.92 95.01 15.2 95.18 15.47C95.34 15.74 95.46 16.01 95.59 16.26C95.65 16.39 95.71 16.51 95.77 16.63C95.82 16.76 95.86 16.88 95.91 17C96.62 18.91 96.49 20.07 96.11 20.2C95.69 20.36 95.03 19.52 93.84 18.29L93.62 18.06C93.54 17.98 93.46 17.9 93.37 17.82L92.84 17.31C92.65 17.15 92.45 16.98 92.24 16.8L92.09 16.67L91.92 16.54L91.58 16.29C90.55 15.52 89.45 14.89 88.26 14.42C87.61 14.16 86.94 13.96 86.25 13.81L85.71 13.74L85.45 13.7C85.36 13.68 85.27 13.68 85.18 13.68L84.64 13.65L84.11 13.67L83.84 13.67L83.57 13.71L83.02 13.78L81.53 14.03C80.52 14.2 79.48 14.37 78.42 14.53C74.15 15.19 69.45 15.83 64.51 16.41C59.57 16.99 54.85 17.45 50.54 17.8C48.39 17.97 46.35 18.12 44.43 18.22L43.18 18.29C42.85 18.32 42.54 18.37 42.22 18.45C41.64 18.59 41.09 18.82 40.58 19.14C39.64 19.74 38.93 20.55 38.45 21.56C38.04 22.42 37.76 23.32 37.62 24.26C37.49 25.08 37.44 25.77 37.36 26.26C37.27 26.76 37.16 27.04 36.95 27.1Z" fill="#FFFFFF" fill-opacity="1.000000" fill-rule="nonzero"/>
				</g>
				<g opacity="0.040000">
					<path id="path" d="M36.9 26.94C36.77 26.97 36.65 26.94 36.54 26.85C36.37 26.72 36.22 26.56 36.1 26.38C35.67 25.71 35.37 24.99 35.2 24.21C35.08 23.64 35.01 23.06 35 22.47C34.98 21.75 35.05 21.03 35.2 20.33C35.39 19.48 35.69 18.67 36.11 17.92C36.34 17.49 36.61 17.09 36.9 16.71C37.22 16.3 37.58 15.93 37.96 15.58C38.36 15.22 38.8 14.89 39.26 14.6C39.74 14.3 40.24 14.05 40.77 13.84C41.31 13.62 41.86 13.45 42.43 13.32L42.86 13.23L43.25 13.16L43.94 13.04C45.83 12.7 47.84 12.37 49.97 12.04C54.21 11.39 58.88 10.75 63.8 10.18C68.72 9.6 73.42 9.14 77.7 8.79L80.83 8.55L82.33 8.45L82.52 8.44L82.75 8.44L83.22 8.43C83.52 8.42 83.83 8.42 84.13 8.45L85.01 8.53C85.3 8.57 85.58 8.63 85.85 8.68L86.27 8.77C86.4 8.79 86.53 8.84 86.66 8.88L87.44 9.11C87.69 9.19 87.93 9.3 88.17 9.39C88.41 9.49 88.65 9.58 88.88 9.7L89.53 10.03L89.86 10.2L90.16 10.39C91.6 11.27 92.85 12.36 93.92 13.67C94.71 14.62 95.34 15.68 95.81 16.82C96.11 17.54 96.29 18.29 96.35 19.07C96.35 19.62 96.25 19.93 96.05 20C95.85 20.07 95.57 19.92 95.23 19.57C94.85 19.24 94.4 18.72 93.8 18.12C93.09 17.4 92.34 16.73 91.53 16.13C90.5 15.37 89.39 14.76 88.21 14.29L87.97 14.19L87.72 14.11L87.22 13.95C87.06 13.89 86.88 13.87 86.71 13.82C86.54 13.78 86.37 13.73 86.19 13.71L85.66 13.63C85.57 13.63 85.48 13.59 85.39 13.59L85.13 13.58C84.95 13.58 84.77 13.55 84.59 13.55C84.41 13.55 84.23 13.57 84.05 13.57C83.87 13.58 83.7 13.59 83.52 13.63L83.26 13.66L83.12 13.68L82.94 13.71L81.46 13.96L78.37 14.45C74.13 15.11 69.45 15.74 64.53 16.32C59.61 16.9 54.91 17.36 50.63 17.71C48.49 17.88 46.46 18.02 44.55 18.13L43.27 18.2C42.95 18.23 42.63 18.28 42.31 18.36C42.01 18.42 41.72 18.52 41.44 18.63C41.16 18.74 40.9 18.87 40.65 19.03C40.41 19.17 40.18 19.34 39.96 19.52C39.75 19.7 39.56 19.89 39.38 20.1C39.02 20.5 38.72 20.94 38.48 21.42C38.25 21.86 38.07 22.32 37.92 22.8C37.79 23.25 37.69 23.69 37.62 24.09C37.48 24.91 37.41 25.59 37.33 26.08C37.3 26.29 37.25 26.48 37.17 26.67C37.12 26.8 37.03 26.89 36.9 26.94Z" fill="#FFFFFF" fill-opacity="1.000000" fill-rule="nonzero"/>
				</g>
				<g opacity="0.060000">
					<path id="path" d="M36.85 26.76C36.64 26.82 36.38 26.64 36.07 26.19C36 26.08 35.92 25.95 35.84 25.81C35.76 25.66 35.69 25.5 35.61 25.32C35.53 25.14 35.47 24.94 35.41 24.73C35.34 24.51 35.28 24.28 35.23 24.02C34.96 22.73 34.98 21.44 35.29 20.16C35.73 18.3 36.67 16.75 38.11 15.5C38.95 14.78 39.88 14.22 40.92 13.83C41.45 13.62 42 13.45 42.57 13.33L42.99 13.25L43.35 13.19L44.04 13.06C45.92 12.73 47.92 12.4 50.02 12.08C54.25 11.43 58.9 10.8 63.8 10.22C68.69 9.65 73.37 9.19 77.62 8.84L80.74 8.6L82.23 8.5L82.42 8.49L82.51 8.49L82.63 8.49L83.09 8.48L83.54 8.48C83.69 8.47 83.84 8.48 83.99 8.49L84.87 8.57L85.08 8.59L85.29 8.63L85.7 8.71L86.11 8.79L86.32 8.83L86.52 8.89L87.29 9.12C87.54 9.2 87.78 9.29 88.02 9.39L88.72 9.68L89.38 10.01C89.58 10.13 89.81 10.22 90 10.36C91.43 11.21 92.69 12.29 93.77 13.57C94.56 14.52 95.2 15.56 95.69 16.69C95.85 17.1 95.99 17.52 96.1 17.95C96.17 18.26 96.22 18.59 96.25 18.91C96.27 19.45 96.16 19.77 95.97 19.84C95.56 20 94.92 19.18 93.71 17.97C92.99 17.27 92.23 16.61 91.42 16.02C90.39 15.27 89.28 14.66 88.09 14.2C86.75 13.67 85.37 13.45 83.94 13.52C83.85 13.52 83.76 13.53 83.67 13.54L83.41 13.58L83.14 13.61L83.08 13.61L82.99 13.63L82.81 13.66L81.33 13.91L78.24 14.4C74.01 15.05 69.36 15.68 64.47 16.25C59.57 16.83 54.9 17.29 50.64 17.64C48.51 17.81 46.48 17.95 44.58 18.06L43.28 18.14C42.96 18.16 42.63 18.21 42.31 18.28C41.72 18.41 41.16 18.62 40.64 18.93C39.68 19.51 38.95 20.29 38.43 21.28C38 22.12 37.7 23.01 37.53 23.94C37.38 24.75 37.31 25.43 37.22 25.91C37.14 26.4 37.04 26.71 36.85 26.76Z" fill="#FFFFFF" fill-opacity="1.000000" fill-rule="nonzero"/>
				</g>
				<g opacity="0.080000">
					<path id="path" d="M36.8 26.6C36.67 26.62 36.56 26.59 36.46 26.5C36.3 26.36 36.16 26.21 36.05 26.02C35.64 25.35 35.37 24.62 35.24 23.85C35.13 23.28 35.08 22.7 35.09 22.12C35.11 20.53 35.53 19.04 36.35 17.67C36.86 16.83 37.5 16.08 38.26 15.45C38.66 15.11 39.1 14.8 39.56 14.53C40.54 13.97 41.59 13.58 42.7 13.37L43.11 13.29L43.45 13.23L44.15 13.1C46 12.78 48.01 12.45 50.11 12.13C54.31 11.48 58.94 10.85 63.82 10.28C68.69 9.71 73.34 9.25 77.58 8.91L80.67 8.67L82.15 8.57L82.52 8.54L82.98 8.53C83.28 8.53 83.58 8.51 83.88 8.53C86.01 8.65 88 9.25 89.86 10.32C91.3 11.16 92.56 12.21 93.65 13.48C94.43 14.42 95.08 15.44 95.58 16.56C95.75 16.97 95.9 17.38 96.02 17.8C96.1 18.12 96.15 18.44 96.18 18.77C96.19 18.88 96.19 19 96.18 19.12C96.17 19.21 96.15 19.31 96.13 19.4C96.11 19.53 96.04 19.62 95.92 19.69C95.8 19.72 95.68 19.71 95.58 19.63C95.5 19.59 95.44 19.54 95.37 19.49C95.29 19.43 95.2 19.36 95.11 19.28C94.92 19.12 94.71 18.91 94.49 18.66C94.26 18.41 93.98 18.15 93.68 17.85C92.96 17.15 92.19 16.51 91.38 15.91C90.35 15.17 89.24 14.58 88.05 14.12C86.71 13.62 85.33 13.41 83.9 13.48C83.72 13.49 83.55 13.53 83.37 13.55L83.11 13.58L82.75 13.64L81.28 13.89L78.21 14.37C74 15.02 69.37 15.65 64.5 16.22C59.63 16.79 54.98 17.26 50.74 17.6C48.62 17.77 46.61 17.91 44.72 18.03L43.4 18.1C43.07 18.12 42.74 18.17 42.42 18.23C42.12 18.3 41.82 18.38 41.53 18.49C40.72 18.8 40.01 19.27 39.41 19.9C39.05 20.29 38.74 20.72 38.48 21.19C38.04 22.01 37.73 22.89 37.55 23.82C37.39 24.62 37.32 25.29 37.22 25.78C37.18 25.97 37.12 26.16 37.04 26.35C37 26.47 36.92 26.55 36.8 26.6Z" fill="#FFFFFF" fill-opacity="1.000000" fill-rule="nonzero"/>
				</g>
				<g opacity="0.100000">
					<path id="path" d="M36.76 26.43C36.56 26.48 36.3 26.29 36.02 25.84C35.63 25.16 35.37 24.44 35.26 23.67C35.16 23.1 35.12 22.52 35.14 21.95C35.16 21.24 35.27 20.54 35.46 19.86C35.68 19.04 36.02 18.27 36.48 17.56C37 16.73 37.64 16 38.4 15.39C39.25 14.71 40.18 14.19 41.2 13.82C41.74 13.64 42.28 13.49 42.83 13.39L43.21 13.32L43.55 13.26L44.24 13.14C46.1 12.81 48.08 12.49 50.17 12.17C54.36 11.53 58.97 10.91 63.81 10.34C68.66 9.77 73.3 9.3 77.51 8.96L80.6 8.72L82.08 8.62L82.44 8.6L82.53 8.6L82.64 8.6L82.87 8.6L83.76 8.58C85.89 8.68 87.87 9.26 89.73 10.31C91.17 11.12 92.43 12.15 93.51 13.4C93.75 13.66 93.95 13.95 94.15 14.21C94.25 14.34 94.36 14.46 94.44 14.6C94.52 14.73 94.61 14.86 94.69 14.99C94.85 15.25 95.01 15.48 95.13 15.73C95.25 15.98 95.37 16.21 95.47 16.43C95.58 16.64 95.66 16.86 95.73 17.08C95.81 17.29 95.87 17.48 95.92 17.66C95.98 17.83 96.02 18 96.04 18.17C96.07 18.33 96.09 18.48 96.1 18.61C96.16 19.13 96.06 19.44 95.87 19.53C95.69 19.61 95.42 19.45 95.05 19.13C94.95 19.05 94.86 18.95 94.75 18.85C94.65 18.75 94.55 18.64 94.42 18.52C94.29 18.4 94.17 18.28 94.04 18.14C93.91 18.01 93.77 17.86 93.61 17.73C93.45 17.59 93.29 17.44 93.13 17.28C92.96 17.12 92.76 16.97 92.58 16.8L92.29 16.56C92.19 16.47 92.08 16.4 91.98 16.31C91.76 16.15 91.55 15.97 91.31 15.82C90.28 15.08 89.16 14.49 87.97 14.06C86.63 13.57 85.25 13.36 83.83 13.45C83.65 13.47 83.48 13.5 83.3 13.52L83.17 13.54L83.1 13.54L83.01 13.55L82.65 13.61L81.19 13.86L78.14 14.34C73.95 14.98 69.34 15.6 64.5 16.17C59.65 16.74 55.02 17.21 50.81 17.54C48.7 17.72 46.68 17.86 44.81 17.98L43.47 18.06C43.14 18.07 42.81 18.11 42.49 18.17C41.89 18.29 41.32 18.5 40.78 18.8C40.29 19.07 39.84 19.41 39.45 19.81C39.08 20.19 38.76 20.62 38.5 21.08C38.25 21.51 38.05 21.95 37.88 22.42C37.74 22.84 37.62 23.26 37.53 23.69C37.35 24.48 37.28 25.16 37.17 25.63C37.07 26.11 36.95 26.38 36.76 26.43Z" fill="#FFFFFF" fill-opacity="1.000000" fill-rule="nonzero"/>
				</g>
				<g opacity="0.120000">
					<path id="path" d="M36.71 26.26C36.52 26.31 36.27 26.11 36 25.66C35.62 24.98 35.38 24.26 35.28 23.48C35.09 22.21 35.18 20.95 35.55 19.71C36.09 17.93 37.09 16.47 38.55 15.33C39.4 14.67 40.33 14.17 41.35 13.83C41.88 13.65 42.42 13.51 42.97 13.41L44.34 13.17C46.19 12.85 48.17 12.53 50.25 12.21C54.41 11.57 59 10.96 63.82 10.39C68.65 9.81 73.25 9.36 77.44 9.02L80.51 8.78L81.98 8.68L82.34 8.65L82.52 8.64L82.75 8.64L83.63 8.63C84.73 8.65 85.81 8.83 86.87 9.15C87.12 9.22 87.37 9.29 87.6 9.38L88.29 9.65L88.63 9.79C88.74 9.84 88.84 9.9 88.95 9.95L89.57 10.28C91.01 11.06 92.27 12.07 93.36 13.31C93.59 13.56 93.8 13.82 94 14.1C94.1 14.23 94.2 14.35 94.29 14.48C94.39 14.61 94.47 14.74 94.55 14.86C94.71 15.12 94.86 15.36 95 15.59C95.14 15.83 95.24 16.07 95.34 16.29C95.53 16.68 95.69 17.09 95.81 17.51C95.91 17.81 95.97 18.12 96 18.45C96.05 18.97 95.98 19.28 95.79 19.35C95.6 19.43 95.33 19.28 94.97 18.96C94.79 18.8 94.59 18.6 94.34 18.37C94.09 18.14 93.85 17.86 93.52 17.58L93.04 17.13C92.86 16.98 92.67 16.83 92.49 16.67C92.39 16.59 92.3 16.5 92.2 16.42L91.89 16.18C91.67 16.02 91.47 15.84 91.22 15.69C90.18 14.96 89.07 14.39 87.88 13.97C86.54 13.48 85.16 13.28 83.74 13.39C83.56 13.41 83.39 13.44 83.21 13.46L83.08 13.48L82.9 13.5L82.55 13.56L81.09 13.81L78.05 14.28C73.89 14.92 69.3 15.53 64.48 16.1C59.65 16.68 55.05 17.13 50.86 17.47C48.76 17.65 46.76 17.79 44.89 17.91L43.53 17.99C43.2 18 42.87 18.04 42.54 18.1C41.94 18.21 41.36 18.41 40.82 18.69C39.84 19.22 39.07 19.97 38.5 20.94C38.03 21.75 37.7 22.61 37.5 23.52C37.31 24.31 37.23 24.98 37.13 25.45C37.02 25.93 36.9 26.21 36.71 26.26Z" fill="#FFFFFF" fill-opacity="1.000000" fill-rule="nonzero"/>
				</g>
				<g opacity="0.140000">
					<path id="path" d="M36.67 26.09C36.55 26.1 36.44 26.06 36.35 25.97C36.2 25.83 36.07 25.67 35.98 25.48C35.62 24.8 35.39 24.07 35.31 23.3C35.23 22.74 35.21 22.17 35.25 21.61C35.37 20.05 35.86 18.62 36.74 17.33C37.28 16.54 37.94 15.85 38.71 15.27C39.56 14.64 40.49 14.16 41.5 13.83C42.02 13.66 42.55 13.53 43.09 13.44L44.45 13.2C46.28 12.89 48.25 12.57 50.32 12.25C54.46 11.63 59.03 11.01 63.83 10.45C68.63 9.88 73.21 9.42 77.38 9.08L80.44 8.84L81.9 8.74L82.26 8.71L82.44 8.71L82.52 8.71L82.64 8.71L83.51 8.69C83.8 8.69 84.08 8.7 84.36 8.74C84.64 8.77 84.92 8.78 85.19 8.83L85.98 8.98C86.11 9.01 86.24 9.03 86.36 9.06L86.73 9.17L87.46 9.39C87.7 9.48 87.92 9.58 88.15 9.66C88.59 9.84 89.01 10.04 89.42 10.27C90.86 11.04 92.12 12.03 93.22 13.24C94.03 14.12 94.7 15.1 95.23 16.18C95.33 16.4 95.44 16.6 95.51 16.8C95.59 17 95.65 17.2 95.71 17.38C95.76 17.56 95.81 17.72 95.85 17.87C95.88 18.01 95.9 18.16 95.91 18.3C95.97 18.83 95.91 19.13 95.73 19.21C95.35 19.38 94.68 18.6 93.46 17.46C92.74 16.78 91.97 16.15 91.14 15.59C90.11 14.88 88.99 14.31 87.8 13.9C87.48 13.78 87.15 13.69 86.82 13.61L86.31 13.49L85.79 13.41L85.53 13.37C85.44 13.36 85.35 13.35 85.26 13.35L84.73 13.32C84.55 13.3 84.38 13.33 84.2 13.33C84.02 13.32 83.84 13.33 83.67 13.36C83.49 13.39 83.32 13.41 83.14 13.43L83.07 13.43L82.98 13.44L82.81 13.47L82.45 13.53L81.01 13.77L77.99 14.25C73.84 14.87 69.28 15.49 64.48 16.05C59.68 16.62 55.1 17.07 50.93 17.42C48.84 17.59 46.85 17.74 44.99 17.85L43.62 17.94C43.28 17.95 42.95 17.99 42.62 18.04C42.01 18.15 41.43 18.34 40.88 18.61C40.38 18.87 39.92 19.2 39.51 19.59C39.13 19.96 38.81 20.37 38.53 20.82C38.05 21.62 37.7 22.48 37.5 23.39C37.29 24.17 37.21 24.84 37.1 25.3C37.06 25.49 37 25.68 36.92 25.85C36.88 25.97 36.79 26.05 36.67 26.09Z" fill="#FFFFFF" fill-opacity="1.000000" fill-rule="nonzero"/>
				</g>
				<g opacity="0.160000">
					<path id="path" d="M36.63 25.92C36.45 25.96 36.21 25.76 35.95 25.29C35.61 24.61 35.41 23.88 35.33 23.12C35.22 22.08 35.3 21.05 35.56 20.03C35.83 19.01 36.26 18.08 36.87 17.22C37.43 16.44 38.09 15.77 38.86 15.22C39.28 14.92 39.71 14.65 40.17 14.42C40.65 14.19 41.14 13.99 41.65 13.83C41.9 13.75 42.16 13.69 42.43 13.63L42.84 13.55L43.21 13.48L44.56 13.24C46.39 12.93 48.35 12.62 50.41 12.3C54.53 11.68 59.07 11.05 63.85 10.5C68.62 9.95 73.18 9.48 77.33 9.14L80.37 8.9L81.82 8.8L82.54 8.75L83.4 8.73L83.83 8.73L84.24 8.76L85.07 8.84L85.85 8.99L86.24 9.07C86.37 9.09 86.48 9.13 86.61 9.17L87.33 9.39C87.57 9.45 87.79 9.56 88.02 9.65C88.24 9.73 88.46 9.82 88.67 9.92L89.29 10.23C90.72 10.98 91.99 11.95 93.09 13.14C93.53 13.61 93.94 14.11 94.31 14.64C94.47 14.89 94.62 15.13 94.76 15.36C94.83 15.47 94.9 15.58 94.97 15.7L95.13 16.03C95.24 16.25 95.34 16.45 95.42 16.65C95.5 16.84 95.57 17.03 95.62 17.22C95.68 17.4 95.73 17.56 95.77 17.71C95.81 17.85 95.83 17.99 95.85 18.13C95.91 18.65 95.85 18.95 95.68 19.03C95.5 19.11 95.23 18.97 94.87 18.65C94.7 18.49 94.46 18.31 94.23 18.08C94.11 17.96 94 17.83 93.85 17.71C93.71 17.59 93.56 17.45 93.41 17.31L93.18 17.09C93.1 17.02 93.01 16.95 92.92 16.88C92.75 16.74 92.57 16.58 92.38 16.42C91.98 16.13 91.58 15.78 91.09 15.48C90.05 14.78 88.93 14.23 87.75 13.82L87.26 13.66C87.1 13.62 86.93 13.58 86.76 13.54C86.59 13.5 86.43 13.45 86.25 13.43L85.73 13.35C85.65 13.33 85.56 13.31 85.47 13.31L85.21 13.29L84.68 13.26L84.15 13.28L83.88 13.28L83.62 13.31L83.09 13.38L82.38 13.5L80.94 13.73L77.93 14.2C73.8 14.83 69.27 15.45 64.49 16C59.71 16.55 55.15 17.02 51 17.36C48.92 17.54 46.95 17.68 45.1 17.8L43.73 17.88L43.19 17.91C43.03 17.94 42.86 17.95 42.7 17.98C42.39 18.03 42.08 18.1 41.78 18.19C41.5 18.28 41.23 18.39 40.96 18.52C39.96 19.02 39.16 19.75 38.56 20.7C38.3 21.11 38.08 21.54 37.9 22C37.73 22.4 37.6 22.81 37.48 23.23C37.28 24.01 37.18 24.67 37.07 25.13C36.96 25.6 36.82 25.88 36.63 25.92Z" fill="#FFFFFF" fill-opacity="1.000000" fill-rule="nonzero"/>
				</g>
				<g opacity="0.180000">
					<path id="path" d="M36.6 25.74C36.41 25.78 36.19 25.58 35.94 25.12C35.61 24.44 35.42 23.71 35.36 22.95C35.25 21.69 35.41 20.46 35.85 19.27C36.47 17.57 37.53 16.21 39.01 15.18C39.87 14.58 40.79 14.14 41.79 13.85C42.04 13.78 42.3 13.71 42.57 13.65L42.96 13.57L43.31 13.51L44.65 13.28C46.47 12.96 48.42 12.65 50.47 12.34C54.57 11.72 59.09 11.12 63.84 10.56C68.59 10 73.12 9.55 77.26 9.2L80.28 8.96L81.72 8.86L82.43 8.81C82.54 8.81 82.71 8.8 82.85 8.79L83.27 8.78C83.83 8.77 84.38 8.8 84.92 8.87C85.19 8.9 85.45 8.97 85.71 9.01L86.09 9.09L86.27 9.13L86.46 9.18C86.93 9.3 87.4 9.46 87.86 9.64L88.51 9.91C88.72 10 88.93 10.11 89.13 10.21C90.56 10.94 91.83 11.89 92.94 13.06C93.17 13.32 93.41 13.55 93.6 13.81C93.8 14.06 93.99 14.3 94.16 14.54C94.34 14.77 94.47 15.02 94.62 15.25C94.75 15.46 94.88 15.68 94.99 15.91C95.1 16.11 95.2 16.32 95.28 16.53L95.39 16.8C95.43 16.89 95.46 16.99 95.49 17.08C95.59 17.37 95.67 17.67 95.73 17.98C95.79 18.5 95.73 18.8 95.56 18.88C95.4 18.96 95.13 18.82 94.78 18.51C94.55 18.33 94.34 18.14 94.13 17.94L93.95 17.76L93.75 17.58C93.61 17.46 93.46 17.32 93.31 17.18C93.16 17.04 92.99 16.9 92.82 16.75C92.64 16.61 92.47 16.45 92.27 16.3L91.65 15.83C91.45 15.67 91.2 15.53 90.97 15.37C89.93 14.68 88.81 14.14 87.62 13.74C86.35 13.33 84.91 13.08 83.5 13.27L83.24 13.31C83.14 13.32 83.08 13.32 82.95 13.35L82.25 13.46L80.81 13.7L77.82 14.16C73.72 14.79 69.2 15.39 64.45 15.95C59.69 16.51 55.17 16.96 51.03 17.31C48.97 17.48 47 17.63 45.15 17.74L43.8 17.83L43.23 17.86C43.06 17.87 42.9 17.9 42.74 17.92C42.12 18.01 41.54 18.19 40.98 18.45C39.97 18.94 39.16 19.65 38.55 20.59C38.05 21.36 37.69 22.2 37.46 23.09C37.25 23.86 37.13 24.51 37.02 24.97C36.9 25.43 36.78 25.71 36.6 25.74Z" fill="#FFFFFF" fill-opacity="1.000000" fill-rule="nonzero"/>
				</g>
				<g opacity="0.200000">
					<path id="path" d="M36.57 25.57C36.44 25.58 36.34 25.54 36.27 25.44C36.13 25.29 36.02 25.12 35.93 24.94C35.62 24.25 35.44 23.53 35.4 22.77C35.36 22.21 35.37 21.66 35.45 21.11C35.54 20.43 35.7 19.77 35.95 19.13C36.25 18.37 36.65 17.67 37.14 17.02C37.72 16.28 38.39 15.65 39.16 15.13C40.02 14.56 40.94 14.14 41.93 13.86C42.19 13.79 42.44 13.72 42.7 13.67L43.09 13.6L43.42 13.54L44.75 13.31C46.56 13 48.5 12.69 50.54 12.39C54.62 11.76 59.12 11.17 63.85 10.62C68.57 10.06 73.08 9.61 77.2 9.26L80.2 9.02L81.65 8.91L82.35 8.87L82.52 8.85L82.73 8.85L83.15 8.84C84.23 8.82 85.28 8.93 86.32 9.19C87.24 9.43 88.13 9.76 88.98 10.19C90.41 10.9 91.68 11.83 92.79 12.97C93.03 13.22 93.25 13.47 93.46 13.7C93.67 13.94 93.85 14.2 94.02 14.43C94.19 14.65 94.34 14.88 94.48 15.13C94.62 15.35 94.76 15.56 94.87 15.77C95.08 16.2 95.26 16.58 95.39 16.93C95.49 17.22 95.57 17.52 95.63 17.83C95.67 18.03 95.68 18.23 95.65 18.43C95.65 18.55 95.59 18.65 95.49 18.71C95.38 18.75 95.28 18.73 95.19 18.67C95.02 18.58 94.87 18.47 94.72 18.35C94.5 18.17 94.29 17.98 94.08 17.78C93.84 17.56 93.55 17.31 93.26 17.03C93.1 16.9 92.93 16.76 92.76 16.62C92.58 16.46 92.4 16.31 92.21 16.17L91.59 15.7L90.91 15.25C89.86 14.57 88.74 14.04 87.56 13.65C86.9 13.44 86.23 13.29 85.55 13.2C84.84 13.12 84.14 13.13 83.44 13.22L83.17 13.25L83.04 13.27L82.86 13.3L82.17 13.42L80.74 13.65L77.76 14.11C73.68 14.73 69.18 15.32 64.46 15.88C59.73 16.44 55.22 16.89 51.11 17.24C49.04 17.41 47.09 17.56 45.26 17.68L43.91 17.76L43.32 17.8C43.15 17.8 42.99 17.83 42.82 17.85C42.21 17.93 41.62 18.1 41.05 18.36C40.53 18.6 40.06 18.9 39.63 19.28C39.23 19.63 38.89 20.02 38.59 20.46C38.07 21.22 37.69 22.05 37.45 22.95C37.22 23.71 37.11 24.36 36.99 24.81C36.94 25 36.88 25.18 36.8 25.35C36.76 25.46 36.68 25.54 36.57 25.57Z" fill="#FFFFFF" fill-opacity="1.000000" fill-rule="nonzero"/>
				</g>
				<g opacity="0.220000">
					<path id="path" d="M36.54 25.4C36.36 25.43 36.14 25.22 35.92 24.76C35.62 24.06 35.46 23.34 35.43 22.59C35.38 21.56 35.52 20.56 35.83 19.58C36.15 18.61 36.63 17.72 37.27 16.92C37.86 16.2 38.54 15.58 39.31 15.08C40.17 14.53 41.09 14.12 42.07 13.87L42.45 13.77L42.84 13.69L43.2 13.62L43.52 13.57L44.85 13.34C46.65 13.03 48.58 12.73 50.61 12.42C54.67 11.81 59.14 11.22 63.85 10.66C68.55 10.11 73.04 9.66 77.13 9.31L80.12 9.07L81.56 8.97L82.27 8.92L82.44 8.91C82.5 8.91 82.55 8.91 82.62 8.9L83.04 8.88C83.32 8.88 83.59 8.87 83.86 8.88L84.66 8.95C84.79 8.96 84.93 8.97 85.06 8.99L85.44 9.06L86.18 9.21C86.42 9.27 86.66 9.34 86.89 9.42C87.13 9.49 87.36 9.54 87.58 9.64L88.22 9.9L88.54 10.03C88.64 10.07 88.74 10.13 88.84 10.18C90.26 10.87 91.53 11.78 92.65 12.9L93.32 13.63C93.53 13.86 93.71 14.11 93.88 14.34L94.14 14.68C94.22 14.79 94.28 14.91 94.36 15.02C94.49 15.25 94.62 15.46 94.74 15.66C94.97 16.08 95.13 16.47 95.27 16.8C95.38 17.09 95.46 17.39 95.53 17.69C95.64 18.18 95.56 18.49 95.41 18.57C95.26 18.65 95 18.5 94.63 18.22C94.44 18.07 94.24 17.88 94 17.66C93.76 17.44 93.47 17.19 93.17 16.92C93.01 16.79 92.85 16.65 92.67 16.5C92.59 16.43 92.5 16.35 92.41 16.28L92.12 16.07C91.91 15.93 91.73 15.76 91.5 15.62L90.82 15.16C89.77 14.49 88.65 13.97 87.47 13.6C87.39 13.57 87.31 13.54 87.23 13.52L86.98 13.46L86.48 13.34C86.32 13.29 86.14 13.28 85.98 13.25C85.81 13.22 85.63 13.19 85.46 13.17L84.93 13.14L84.67 13.12L84.41 13.13L83.88 13.14C83.7 13.15 83.53 13.18 83.35 13.21L83.08 13.24C83.03 13.24 82.98 13.25 82.93 13.26L82.76 13.29L82.06 13.4L80.64 13.63L77.68 14.09C73.62 14.7 69.14 15.3 64.44 15.85C59.74 16.4 55.25 16.86 51.16 17.2C49.11 17.38 47.17 17.52 45.34 17.64L44 17.73L43.38 17.77L43.13 17.78L42.88 17.81C42.26 17.89 41.67 18.05 41.09 18.3C40.07 18.76 39.24 19.45 38.6 20.36C38.32 20.76 38.08 21.17 37.87 21.61C37.7 22 37.55 22.4 37.42 22.81C37.19 23.57 37.07 24.21 36.94 24.66C36.81 25.11 36.71 25.37 36.54 25.4Z" fill="#FFFFFF" fill-opacity="1.000000" fill-rule="nonzero"/>
				</g>
				<g opacity="0.240000">
					<path id="path" d="M36.51 25.22C36.33 25.25 36.13 25.04 35.92 24.57C35.64 23.88 35.49 23.16 35.48 22.41C35.44 21.17 35.67 19.98 36.16 18.85C36.49 18.11 36.9 17.44 37.42 16.82C38.01 16.12 38.7 15.52 39.48 15.04C39.9 14.78 40.33 14.55 40.78 14.36C41.25 14.17 41.73 14 42.22 13.88C42.47 13.81 42.73 13.77 42.99 13.72L43.65 13.6L44.97 13.37C46.76 13.07 48.68 12.77 50.7 12.46C54.74 11.86 59.19 11.27 63.87 10.72C68.55 10.17 73.01 9.72 77.08 9.37L80.06 9.13L81.48 9.02L82.18 8.97L82.52 8.95C82.65 8.95 82.8 8.95 82.94 8.94C84.96 8.86 86.88 9.27 88.71 10.15C90.12 10.82 91.39 11.71 92.51 12.81C92.95 13.26 93.36 13.73 93.74 14.23L94 14.56C94.08 14.67 94.16 14.78 94.22 14.89C94.36 15.12 94.49 15.33 94.61 15.53C94.99 16.16 95.25 16.82 95.42 17.53C95.47 17.72 95.49 17.92 95.48 18.11C95.48 18.23 95.43 18.33 95.33 18.4C95.22 18.44 95.12 18.43 95.02 18.36C94.85 18.28 94.69 18.18 94.55 18.06C94.19 17.76 93.7 17.32 93.08 16.78C92.92 16.65 92.76 16.51 92.59 16.36C92.5 16.29 92.41 16.22 92.32 16.16L92.03 15.95C91.65 15.64 91.2 15.36 90.74 15.05C89.69 14.39 88.57 13.88 87.38 13.51C86.03 13.09 84.66 12.97 83.26 13.16L82.99 13.19L82.65 13.25L81.95 13.36L80.54 13.59L77.59 14.05C73.55 14.65 69.1 15.24 64.42 15.79C59.74 16.34 55.28 16.79 51.21 17.14C49.17 17.31 47.24 17.46 45.42 17.58L44.09 17.67L43.45 17.71C43.29 17.72 43.12 17.73 42.96 17.75C42.64 17.79 42.32 17.85 42.01 17.92C41.72 18 41.43 18.1 41.15 18.22C40.13 18.66 39.28 19.33 38.62 20.24C38.09 20.98 37.69 21.79 37.41 22.67C37.17 23.42 37.04 24.06 36.91 24.5C36.79 24.95 36.68 25.2 36.51 25.22Z" fill="#FFFFFF" fill-opacity="1.000000" fill-rule="nonzero"/>
				</g>
				<g opacity="0.250000">
					<path id="path" d="M36.48 25.05C36.37 25.05 36.28 25 36.21 24.9C36.08 24.75 35.98 24.58 35.92 24.39C35.65 23.7 35.52 22.98 35.53 22.24C35.52 21.69 35.56 21.15 35.67 20.61C35.8 19.95 36 19.32 36.29 18.71C36.62 17.99 37.05 17.33 37.57 16.73C38.16 16.04 38.85 15.47 39.63 15C40.48 14.49 41.39 14.12 42.36 13.89C42.61 13.83 42.87 13.79 43.11 13.74L43.75 13.63L45.07 13.41C46.85 13.11 48.76 12.8 50.77 12.51C54.79 11.91 59.22 11.32 63.87 10.77C68.52 10.22 72.97 9.77 77.02 9.43L79.98 9.19L81.4 9.08L82.09 9.03L82.43 9.01C82.49 9.01 82.54 9 82.61 8.99L82.82 8.99C84.82 8.91 86.74 9.29 88.56 10.13C89.98 10.79 91.25 11.66 92.38 12.74C92.44 12.8 92.5 12.86 92.56 12.91L92.73 13.1L93.05 13.45L93.36 13.78C93.45 13.9 93.54 14.02 93.62 14.13C93.8 14.36 93.96 14.58 94.11 14.78C94.26 14.99 94.38 15.22 94.5 15.42C94.72 15.77 94.9 16.14 95.05 16.52C95.12 16.69 95.19 16.84 95.23 16.98C95.28 17.13 95.31 17.26 95.34 17.39C95.44 17.88 95.42 18.16 95.27 18.24C95.12 18.33 94.86 18.2 94.49 17.91C94.4 17.84 94.3 17.76 94.2 17.67L93.85 17.37C93.6 17.17 93.34 16.91 93.02 16.65C92.87 16.53 92.7 16.39 92.54 16.24L91.97 15.82L91.68 15.6L91.35 15.39L91.02 15.17L90.86 15.05C90.8 15.02 90.74 14.98 90.68 14.95C89.63 14.29 88.51 13.79 87.32 13.43C85.97 13.03 84.6 12.93 83.21 13.12L83.08 13.13C83.04 13.13 82.97 13.15 82.92 13.16L82.58 13.22L81.89 13.33L80.49 13.55L77.55 14C73.53 14.6 69.1 15.19 64.45 15.74C59.8 16.28 55.35 16.74 51.31 17.08C49.28 17.26 47.35 17.41 45.55 17.53L44.22 17.61L43.57 17.65C43.4 17.67 43.23 17.67 43.07 17.69C42.44 17.76 41.84 17.91 41.26 18.14C40.22 18.57 39.36 19.23 38.69 20.12C38.15 20.85 37.73 21.66 37.45 22.52C37.2 23.27 37.06 23.9 36.93 24.34C36.88 24.52 36.81 24.69 36.72 24.86C36.64 24.97 36.57 25.04 36.48 25.05Z" fill="#FFFFFF" fill-opacity="1.000000" fill-rule="nonzero"/>
				</g>
				<g opacity="0.270000">
					<path id="path" d="M36.46 24.88C36.29 24.9 36.1 24.68 35.91 24.21C35.67 23.52 35.56 22.8 35.57 22.06C35.58 21.52 35.63 20.98 35.75 20.45C36.06 19 36.71 17.73 37.7 16.64C38.31 15.97 39 15.42 39.78 14.96C40.63 14.48 41.54 14.13 42.5 13.91L42.87 13.84L43.22 13.77L43.86 13.66L45.16 13.44C46.94 13.14 48.84 12.84 50.84 12.55C54.83 11.95 59.24 11.37 63.87 10.83C68.5 10.29 72.92 9.83 76.95 9.48L79.89 9.24L81.31 9.14L82 9.09L82.34 9.06C82.45 9.06 82.54 9.04 82.7 9.04C84.69 8.94 86.59 9.3 88.41 10.12C89.83 10.75 91.1 11.6 92.22 12.67C93.06 13.44 93.77 14.32 94.36 15.29C95.31 16.89 95.44 17.94 95.17 18.09C94.86 18.27 94.18 17.56 92.93 16.52C92.19 15.9 91.4 15.33 90.57 14.83C89.52 14.18 88.4 13.69 87.21 13.35C85.87 12.96 84.5 12.86 83.11 13.06L80.38 13.5L77.46 13.95C73.46 14.54 69.06 15.13 64.43 15.67C59.8 16.21 55.38 16.66 51.35 17.01C49.33 17.18 47.42 17.33 45.62 17.46L43.13 17.62C42.5 17.68 41.89 17.82 41.3 18.05C40.26 18.46 39.4 19.11 38.71 19.99C38.41 20.37 38.15 20.77 37.93 21.2C37.74 21.57 37.57 21.96 37.43 22.36C37.17 23.1 37.02 23.73 36.88 24.16C36.75 24.6 36.63 24.86 36.46 24.88Z" fill="#FFFFFF" fill-opacity="1.000000" fill-rule="nonzero"/>
				</g>
				<g opacity="0.290000">
					<path id="path" d="M36.44 24.7C36.28 24.72 36.09 24.49 35.92 24.03C35.69 23.34 35.59 22.62 35.62 21.89C35.66 20.68 35.95 19.53 36.51 18.45C36.86 17.75 37.31 17.12 37.85 16.55C38.46 15.9 39.15 15.36 39.93 14.93C40.78 14.46 41.68 14.13 42.64 13.93L43.01 13.86L43.33 13.8L43.97 13.69L45.27 13.47C47.03 13.18 48.92 12.88 50.91 12.59C54.89 12 59.27 11.42 63.88 10.88C68.49 10.34 72.88 9.89 76.89 9.54C78.89 9.37 80.79 9.22 82.59 9.1C84.56 8.98 86.45 9.31 88.27 10.11C89.68 10.72 90.95 11.55 92.08 12.6L92.44 12.93C92.55 13.04 92.65 13.16 92.76 13.27C92.97 13.5 93.18 13.71 93.35 13.93L93.84 14.57C93.91 14.68 93.99 14.78 94.06 14.87C94.13 14.97 94.18 15.08 94.24 15.18C94.46 15.52 94.65 15.88 94.82 16.25C94.94 16.52 95.05 16.8 95.13 17.08C95.24 17.57 95.22 17.85 95.08 17.93C94.94 18.02 94.68 17.9 94.33 17.61C94.15 17.47 93.92 17.3 93.69 17.09C93.46 16.87 93.16 16.65 92.85 16.38L92.61 16.18C92.53 16.11 92.44 16.05 92.35 15.98L91.8 15.57C91.59 15.43 91.39 15.29 91.18 15.15C91.07 15.08 90.97 15 90.85 14.93L90.5 14.72C89.44 14.09 88.32 13.6 87.14 13.27C85.79 12.89 84.43 12.81 83.04 13.01C81.28 13.31 79.39 13.6 77.4 13.9C73.42 14.48 69.04 15.07 64.43 15.61C59.82 16.15 55.43 16.6 51.42 16.94C49.42 17.12 47.5 17.27 45.73 17.39L43.22 17.56C42.59 17.61 41.98 17.75 41.39 17.97C40.34 18.36 39.46 19 38.75 19.87C38.19 20.58 37.75 21.36 37.45 22.21C37.17 22.94 37.02 23.56 36.88 24C36.74 24.43 36.6 24.69 36.44 24.7Z" fill="#FFFFFF" fill-opacity="1.000000" fill-rule="nonzero"/>
				</g>
				<g opacity="0.310000">
					<path id="path" d="M36.42 24.52C36.35 24.52 36.26 24.48 36.18 24.37C36.06 24.21 35.98 24.04 35.93 23.85C35.71 23.15 35.63 22.44 35.68 21.72C35.7 21.18 35.78 20.66 35.92 20.14C36.08 19.5 36.32 18.9 36.63 18.32C36.99 17.64 37.45 17.02 37.99 16.47C38.61 15.84 39.3 15.32 40.08 14.91C40.5 14.68 40.92 14.49 41.37 14.34C41.83 14.18 42.3 14.05 42.77 13.95L43.13 13.89L43.44 13.83L44.06 13.72L45.36 13.51C47.11 13.22 48.99 12.92 50.97 12.63C54.93 12.05 59.29 11.47 63.87 10.94C68.46 10.4 72.83 9.95 76.82 9.6C78.81 9.43 80.7 9.28 82.48 9.15L82.56 9.15L82.66 9.15L82.87 9.15L83.26 9.14C83.52 9.13 83.78 9.13 84.04 9.15C84.53 9.18 85.02 9.24 85.51 9.33L86.21 9.47L86.87 9.66C87.08 9.73 87.31 9.78 87.51 9.87L88.12 10.12C90.1 10.96 91.8 12.21 93.21 13.85C93.39 14.06 93.55 14.28 93.7 14.48C93.85 14.67 93.99 14.87 94.11 15.08C94.23 15.27 94.34 15.46 94.44 15.63C94.54 15.79 94.63 15.96 94.7 16.14C94.82 16.41 94.93 16.68 95.02 16.97C95.14 17.44 95.12 17.73 94.99 17.81C94.85 17.89 94.6 17.77 94.24 17.49C94.02 17.33 93.81 17.15 93.6 16.97C93.49 16.86 93.35 16.76 93.21 16.64C93.06 16.53 92.92 16.41 92.76 16.28C92.61 16.15 92.44 16.03 92.26 15.89C92.09 15.76 91.91 15.61 91.71 15.48C91.29 15.21 90.88 14.91 90.4 14.65C89.34 14.02 88.22 13.55 87.04 13.23L86.56 13.11C86.39 13.07 86.23 13.04 86.06 13.02L85.56 12.94L85.04 12.9C84.69 12.87 84.35 12.87 84 12.89C83.82 12.89 83.65 12.91 83.48 12.94L83.21 12.97L83.08 12.99L83.01 12.99L82.93 13C81.18 13.29 79.3 13.58 77.32 13.88C73.36 14.46 69 15.04 64.42 15.57C59.83 16.11 55.46 16.56 51.47 16.91C49.48 17.08 47.59 17.23 45.81 17.36L43.29 17.52C42.97 17.55 42.65 17.59 42.33 17.66C42.03 17.72 41.74 17.81 41.45 17.91C40.39 18.29 39.5 18.91 38.78 19.78C38.21 20.47 37.76 21.24 37.44 22.09C37.16 22.81 37 23.43 36.86 23.86C36.8 24.03 36.73 24.2 36.65 24.36C36.58 24.45 36.51 24.52 36.42 24.52Z" fill="#FFFFFF" fill-opacity="1.000000" fill-rule="nonzero"/>
				</g>
				<g opacity="0.330000">
					<path id="path" d="M36.41 24.35C36.26 24.36 36.08 24.14 35.93 23.67C35.74 22.97 35.67 22.27 35.73 21.55C35.77 21.02 35.86 20.5 36 19.98C36.39 18.59 37.1 17.4 38.13 16.39C38.76 15.78 39.46 15.28 40.23 14.88C41.08 14.45 41.98 14.15 42.91 13.98L43.25 13.92L43.56 13.86L44.18 13.76L45.47 13.55C47.21 13.26 49.08 12.97 51.05 12.68C54.99 12.1 59.33 11.53 63.88 11C68.44 10.46 72.8 10.01 76.76 9.66C78.74 9.49 80.63 9.34 82.39 9.21L82.56 9.2L82.75 9.2L83.14 9.2C83.4 9.2 83.66 9.18 83.91 9.2L84.65 9.27L85.02 9.3L85.37 9.37L86.07 9.5C86.29 9.55 86.51 9.63 86.73 9.69L87.37 9.88L87.97 10.12C89.37 10.7 90.64 11.48 91.79 12.49C92.63 13.22 93.36 14.05 93.98 14.98C94.22 15.36 94.42 15.71 94.58 16.01C94.7 16.28 94.81 16.56 94.91 16.84C94.94 16.94 94.97 17.05 94.99 17.15C95 17.24 95 17.32 95 17.4C95.03 17.52 95 17.61 94.9 17.67C94.8 17.74 94.7 17.73 94.61 17.65C94.54 17.62 94.47 17.58 94.41 17.53C94.33 17.48 94.24 17.43 94.15 17.36C93.93 17.2 93.72 17.03 93.52 16.85C93.27 16.65 92.98 16.43 92.68 16.17C91.92 15.57 91.13 15.03 90.31 14.55C89.25 13.95 88.13 13.49 86.94 13.17L86.46 13.05L85.96 12.97C85.8 12.95 85.63 12.9 85.46 12.9L84.95 12.86L84.69 12.84L84.43 12.84L83.91 12.85C83.73 12.85 83.56 12.89 83.39 12.91L83.12 12.94L82.99 12.96L82.82 12.98C81.08 13.27 79.21 13.56 77.24 13.85C73.3 14.43 68.96 15 64.4 15.53C59.85 16.07 55.49 16.52 51.53 16.87C49.55 17.04 47.66 17.19 45.89 17.31L43.37 17.48C42.74 17.52 42.12 17.64 41.52 17.85C40.97 18.04 40.46 18.29 39.99 18.62C39.56 18.92 39.17 19.27 38.82 19.67C38.51 20.03 38.23 20.41 38 20.82C37.79 21.19 37.61 21.56 37.45 21.95C37.16 22.67 36.99 23.28 36.84 23.7C36.69 24.13 36.57 24.34 36.41 24.35Z" fill="#FFFFFF" fill-opacity="1.000000" fill-rule="nonzero"/>
				</g>
				<g opacity="0.350000">
					<path id="path" d="M36.4 24.17C36.25 24.17 36.09 23.97 35.95 23.49C35.92 23.37 35.88 23.24 35.85 23.09C35.82 22.95 35.81 22.79 35.79 22.61C35.77 22.43 35.77 22.24 35.76 22.04C35.75 21.83 35.76 21.61 35.79 21.38C35.9 20.19 36.26 19.09 36.87 18.07C37.72 16.65 38.9 15.58 40.38 14.85C41.23 14.44 42.12 14.16 43.05 14C43.87 13.86 44.7 13.72 45.57 13.57C47.31 13.29 49.17 13 51.14 12.72C55.06 12.15 59.37 11.58 63.91 11.04C68.44 10.51 72.77 10.07 76.71 9.72C78.68 9.54 80.56 9.39 82.32 9.26C82.43 9.26 82.52 9.25 82.65 9.24L83.04 9.23L83.8 9.22C84.05 9.24 84.3 9.26 84.54 9.28C84.78 9.29 85.02 9.32 85.26 9.37C85.71 9.44 86.16 9.54 86.6 9.67L87.24 9.86C87.44 9.92 87.65 10.01 87.84 10.08C89.24 10.64 90.51 11.41 91.66 12.39L92.35 13.01C92.55 13.22 92.76 13.44 92.94 13.63L93.21 13.93L93.44 14.24C93.59 14.45 93.73 14.63 93.87 14.81C94.12 15.19 94.31 15.54 94.47 15.84C94.61 16.1 94.72 16.37 94.81 16.65C94.96 17.1 94.95 17.39 94.82 17.47C94.69 17.55 94.46 17.43 94.08 17.17C93.9 17.04 93.7 16.86 93.45 16.66C93.2 16.46 92.92 16.24 92.61 15.99L92.1 15.61L91.83 15.4L91.54 15.21C91.33 15.08 91.13 14.93 90.92 14.79L90.24 14.39C89.17 13.79 88.05 13.34 86.87 13.04C86.71 13.01 86.55 12.95 86.39 12.93L85.89 12.85C85.56 12.79 85.22 12.76 84.88 12.74C84.71 12.73 84.54 12.73 84.36 12.74L83.84 12.74L83.32 12.81L83.06 12.84C82.97 12.85 82.85 12.88 82.74 12.89C81 13.18 79.14 13.46 77.18 13.75C73.27 14.32 68.95 14.89 64.42 15.42C59.88 15.95 55.55 16.4 51.61 16.75C49.64 16.92 47.76 17.08 46.01 17.2L43.47 17.37C42.84 17.41 42.21 17.52 41.61 17.72C40.54 18.07 39.63 18.66 38.88 19.49C38.28 20.17 37.8 20.94 37.46 21.78C37.15 22.49 36.98 23.09 36.84 23.51C36.7 23.93 36.55 24.17 36.4 24.17Z" fill="#FFFFFF" fill-opacity="1.000000" fill-rule="nonzero"/>
				</g>
				<g opacity="0.370000">
					<path id="path" d="M36.39 24C36.32 24 36.25 23.95 36.17 23.83C36.07 23.67 36.01 23.5 35.97 23.31C35.8 22.62 35.77 21.92 35.86 21.21C35.99 20.04 36.37 18.95 37 17.95C37.87 16.56 39.05 15.53 40.54 14.84C41.38 14.45 42.26 14.18 43.18 14.03L45.68 13.62C47.41 13.34 49.26 13.05 51.2 12.77C55.1 12.2 59.39 11.64 63.9 11.11C68.41 10.58 72.72 10.14 76.64 9.79C78.6 9.61 80.47 9.46 82.21 9.33L82.54 9.31C82.65 9.31 82.79 9.31 82.91 9.3L83.66 9.28C83.91 9.28 84.16 9.31 84.4 9.33C84.64 9.35 84.88 9.36 85.11 9.4C85.99 9.54 86.85 9.77 87.68 10.09C89.07 10.63 90.35 11.38 91.5 12.33C91.95 12.72 92.38 13.14 92.78 13.58C93.12 13.94 93.43 14.33 93.72 14.74C93.78 14.83 93.85 14.91 93.9 15C93.96 15.09 94.01 15.18 94.06 15.27C94.16 15.44 94.25 15.6 94.33 15.75C94.48 16 94.59 16.27 94.68 16.55C94.83 17 94.85 17.27 94.72 17.35C94.59 17.44 94.34 17.32 93.98 17.06L92.5 15.9C92.18 15.66 91.84 15.39 91.44 15.13C91.03 14.88 90.6 14.6 90.13 14.32C89.07 13.74 87.95 13.3 86.77 13.01C86.11 12.85 85.45 12.76 84.78 12.73C84.6 12.72 84.43 12.73 84.26 12.73C84.09 12.73 83.91 12.73 83.74 12.75L83.22 12.81C83.13 12.82 83.05 12.83 82.95 12.84L82.62 12.9C80.89 13.18 79.04 13.46 77.09 13.75C73.2 14.31 68.91 14.88 64.4 15.41C59.88 15.94 55.58 16.38 51.66 16.73C49.69 16.91 47.83 17.06 46.09 17.18L43.56 17.36C42.92 17.38 42.29 17.49 41.68 17.68C40.61 18.02 39.69 18.59 38.92 19.41C38.31 20.07 37.83 20.81 37.48 21.64C37.17 22.34 36.99 22.94 36.83 23.35C36.77 23.52 36.7 23.68 36.61 23.84C36.54 23.94 36.47 24 36.39 24Z" fill="#FFFFFF" fill-opacity="1.000000" fill-rule="nonzero"/>
				</g>
				<g opacity="0.390000">
					<path id="path" d="M36.39 23.82C36.25 23.82 36.1 23.6 35.98 23.13C35.84 22.44 35.82 21.74 35.92 21.04C36.08 19.88 36.48 18.81 37.12 17.84C37.53 17.21 38.01 16.65 38.57 16.16C39.21 15.61 39.92 15.16 40.69 14.82C41.1 14.63 41.52 14.47 41.95 14.35C42.17 14.29 42.4 14.23 42.62 14.18L42.97 14.11L43.29 14.06L45.78 13.64C47.5 13.36 49.34 13.08 51.28 12.81C55.15 12.25 59.42 11.69 63.91 11.16C68.39 10.64 72.68 10.19 76.58 9.84C78.53 9.67 80.38 9.52 82.12 9.39L82.45 9.36L82.61 9.35L82.8 9.35L83.55 9.34C83.79 9.33 84.03 9.34 84.27 9.37L84.98 9.43C85.21 9.47 85.44 9.52 85.66 9.56C85.88 9.6 86.11 9.63 86.32 9.7L86.93 9.88C87.14 9.94 87.34 10.01 87.53 10.09C88.92 10.61 90.2 11.34 91.35 12.28C91.6 12.49 91.82 12.69 92.04 12.9C92.15 13 92.24 13.1 92.35 13.2L92.64 13.5C92.82 13.71 93 13.9 93.15 14.08L93.58 14.65C93.81 14.96 94.02 15.29 94.21 15.64C94.29 15.79 94.36 15.93 94.42 16.05C94.49 16.18 94.53 16.31 94.56 16.42C94.72 16.87 94.73 17.14 94.61 17.22C94.36 17.39 93.67 16.75 92.41 15.79L91.91 15.41C91.73 15.29 91.54 15.16 91.34 15.03L91.04 14.82C90.94 14.76 90.84 14.7 90.72 14.63C90.49 14.51 90.27 14.36 90.03 14.24C88.97 13.66 87.85 13.23 86.67 12.95C86.51 12.91 86.35 12.87 86.19 12.85L85.7 12.77C85.53 12.74 85.36 12.74 85.19 12.72L84.68 12.68L84.17 12.7C83.99 12.69 83.82 12.7 83.65 12.72L83.13 12.79L83 12.8L82.84 12.83L82.52 12.88C80.8 13.16 78.96 13.44 77.02 13.71C73.14 14.27 68.87 14.83 64.39 15.37C59.9 15.91 55.61 16.34 51.71 16.69C49.76 16.86 47.91 17.01 46.17 17.14L43.65 17.31L43.5 17.31L43.38 17.33L43.13 17.34C42.97 17.36 42.81 17.38 42.65 17.4C42.35 17.45 42.04 17.52 41.75 17.61C40.67 17.93 39.74 18.49 38.96 19.3C38.63 19.64 38.34 20.01 38.08 20.41C37.86 20.76 37.66 21.12 37.48 21.49C37.17 22.19 36.98 22.78 36.81 23.19C36.65 23.6 36.53 23.82 36.39 23.82Z" fill="#FFFFFF" fill-opacity="1.000000" fill-rule="nonzero"/>
				</g>
				<g opacity="0.410000">
					<path id="path" d="M36.39 23.65C36.25 23.65 36.11 23.42 36 22.96C35.87 22.26 35.87 21.57 35.99 20.88C36.17 19.73 36.59 18.68 37.25 17.73C38.16 16.4 39.36 15.43 40.84 14.8C41.04 14.71 41.25 14.64 41.46 14.56C41.66 14.48 41.88 14.42 42.1 14.36C42.32 14.31 42.54 14.24 42.77 14.2L43.11 14.14L43.41 14.09L45.88 13.67C47.59 13.4 49.42 13.12 51.35 12.84C55.21 12.29 59.45 11.73 63.92 11.21C68.38 10.68 72.64 10.24 76.52 9.89C78.46 9.71 80.31 9.56 82.04 9.43C82.26 9.42 82.45 9.4 82.69 9.39L83.43 9.37L83.79 9.37C83.92 9.37 84.03 9.39 84.15 9.4L84.85 9.46C84.97 9.47 85.08 9.48 85.19 9.51L85.53 9.57L86.18 9.7C86.6 9.82 87.01 9.93 87.4 10.07C88.79 10.57 90.06 11.28 91.21 12.21C92.06 12.88 92.81 13.65 93.46 14.52C93.59 14.69 93.71 14.86 93.82 15.02C93.93 15.18 94.01 15.35 94.09 15.49C94.24 15.74 94.36 15.99 94.47 16.26C94.62 16.71 94.64 16.97 94.52 17.06C94.41 17.14 94.16 17.03 93.81 16.76C93.64 16.63 93.4 16.48 93.17 16.29L92.78 15.97L92.33 15.64C91.57 15.07 90.78 14.56 89.95 14.12C88.89 13.54 87.77 13.12 86.59 12.86C86.27 12.79 85.95 12.75 85.62 12.69L85.11 12.65L84.86 12.63C84.77 12.62 84.69 12.62 84.6 12.62L84.09 12.63L83.83 12.63L83.57 12.66L83.05 12.72C82.86 12.75 82.64 12.79 82.43 12.82C80.72 13.1 78.89 13.38 76.96 13.65C73.11 14.21 68.86 14.76 64.4 15.29C59.93 15.81 55.67 16.25 51.79 16.6C49.86 16.78 48.01 16.93 46.28 17.06L43.78 17.24L43.48 17.25L43.24 17.28C43.07 17.28 42.92 17.31 42.75 17.33C42.59 17.35 42.45 17.39 42.29 17.41C42.14 17.44 41.99 17.48 41.85 17.53C40.77 17.83 39.83 18.38 39.03 19.17C38.4 19.81 37.9 20.53 37.52 21.34C37.19 22.02 37 22.61 36.84 23.01C36.67 23.42 36.53 23.65 36.39 23.65Z" fill="#FFFFFF" fill-opacity="1.000000" fill-rule="nonzero"/>
				</g>
				<g opacity="0.430000">
					<path id="path" d="M36.39 23.47C36.26 23.47 36.12 23.24 36.03 22.77C35.92 22.08 35.93 21.4 36.06 20.71C36.27 19.58 36.71 18.55 37.38 17.61C38.31 16.32 39.52 15.38 40.99 14.78C41.4 14.62 41.81 14.48 42.24 14.37L42.57 14.29L42.9 14.22C43.14 14.17 43.31 14.15 43.52 14.11L45.98 13.71C47.68 13.44 49.51 13.16 51.42 12.88C55.26 12.33 59.48 11.77 63.92 11.25C68.36 10.73 72.6 10.29 76.46 9.94C78.38 9.76 80.22 9.61 81.94 9.48L82.58 9.43C82.81 9.42 83.07 9.42 83.31 9.41C83.78 9.4 84.25 9.42 84.72 9.48C84.95 9.5 85.17 9.53 85.39 9.58L86.04 9.7C86.45 9.8 86.86 9.94 87.26 10.05C88.64 10.53 89.9 11.22 91.06 12.13C91.18 12.23 91.31 12.32 91.42 12.41L91.75 12.71C91.96 12.92 92.18 13.09 92.37 13.29L92.89 13.85C92.97 13.95 93.05 14.03 93.12 14.12L93.33 14.39C93.74 14.92 94.08 15.49 94.36 16.11C94.52 16.55 94.54 16.81 94.43 16.9C94.32 16.98 94.07 16.87 93.73 16.6C93.38 16.34 92.88 15.96 92.24 15.5L92 15.32C91.92 15.26 91.82 15.2 91.73 15.14L91.17 14.76C90.98 14.63 90.76 14.52 90.55 14.38L90.22 14.19L89.87 14.01C88.81 13.44 87.69 13.03 86.51 12.77C86.19 12.73 85.87 12.66 85.54 12.62L85.04 12.58C84.87 12.56 84.7 12.55 84.53 12.56C84.18 12.55 83.84 12.57 83.5 12.61L82.97 12.67L82.34 12.78C80.64 13.05 78.81 13.32 76.9 13.61C73.06 14.16 68.84 14.71 64.4 15.23C59.96 15.75 55.72 16.19 51.86 16.54C49.94 16.72 48.1 16.87 46.38 17L43.89 17.18L43.33 17.21L43.09 17.23L42.85 17.27C42.54 17.31 42.24 17.37 41.94 17.45C40.85 17.74 39.9 18.28 39.09 19.05C38.46 19.67 37.95 20.39 37.55 21.19C37.22 21.86 37.01 22.44 36.85 22.85C36.68 23.25 36.53 23.47 36.39 23.47Z" fill="#FFFFFF" fill-opacity="1.000000" fill-rule="nonzero"/>
				</g>
				<g opacity="0.450000">
					<path id="path" d="M36.4 23.29C36.33 23.29 36.27 23.23 36.21 23.12C36.13 22.95 36.08 22.77 36.06 22.59C35.97 21.91 35.99 21.23 36.14 20.55C36.24 20.05 36.39 19.57 36.59 19.1C36.83 18.53 37.14 18 37.51 17.5C38.46 16.25 39.67 15.33 41.14 14.77C41.34 14.69 41.55 14.62 41.75 14.56C41.96 14.51 42.17 14.44 42.39 14.39C42.61 14.34 42.82 14.3 43.05 14.25L43.64 14.15L46.09 13.75C47.79 13.48 49.6 13.21 51.5 12.93C55.32 12.39 59.52 11.84 63.93 11.32C68.35 10.8 72.56 10.36 76.4 10.01C78.32 9.84 80.14 9.68 81.86 9.55L82.49 9.5L82.65 9.49L82.83 9.49L83.2 9.49C83.43 9.49 83.67 9.47 83.91 9.49L84.6 9.55C85.46 9.64 86.3 9.82 87.12 10.09C88.5 10.55 89.76 11.22 90.92 12.11C91.38 12.46 91.82 12.83 92.23 13.24C92.42 13.43 92.59 13.62 92.75 13.8C92.91 13.96 93.05 14.14 93.19 14.32C93.43 14.62 93.65 14.94 93.85 15.26C94.01 15.56 94.14 15.81 94.24 16.02C94.31 16.18 94.36 16.35 94.39 16.53C94.4 16.66 94.38 16.75 94.32 16.79C94.1 16.95 93.42 16.33 92.15 15.41C92 15.29 91.82 15.18 91.64 15.06L91.08 14.69C90.67 14.45 90.25 14.17 89.76 13.94C88.7 13.39 87.58 12.99 86.41 12.75C85.75 12.61 85.09 12.54 84.43 12.54L83.91 12.54C83.74 12.54 83.57 12.58 83.4 12.6L83.14 12.62L83.01 12.64C82.96 12.64 82.91 12.65 82.86 12.66L82.22 12.76C80.53 13.03 78.72 13.31 76.81 13.58C73 14.12 68.8 14.67 64.38 15.19C59.97 15.71 55.75 16.15 51.92 16.5C50 16.68 48.17 16.83 46.46 16.96L43.99 17.14L43.41 17.18C43.25 17.19 43.09 17.2 42.93 17.22C42.77 17.25 42.61 17.26 42.46 17.3C42.31 17.33 42.16 17.36 42.01 17.4C40.92 17.67 39.97 18.19 39.14 18.95C38.8 19.28 38.49 19.63 38.21 20.01C37.98 20.34 37.76 20.69 37.57 21.05C37.22 21.71 37.02 22.29 36.84 22.69C36.78 22.85 36.7 23 36.61 23.14C36.53 23.24 36.46 23.3 36.4 23.29Z" fill="#FFFFFF" fill-opacity="1.000000" fill-rule="nonzero"/>
				</g>
				<g opacity="0.470000">
					<path id="path" d="M36.4 23.12C36.28 23.12 36.16 22.88 36.09 22.42C36.01 21.74 36.05 21.06 36.22 20.39C36.47 19.29 36.94 18.29 37.64 17.4C38.61 16.18 39.83 15.3 41.29 14.77C41.69 14.62 42.1 14.49 42.52 14.4C42.73 14.35 42.96 14.31 43.17 14.27L43.75 14.17L46.19 13.78C47.87 13.51 49.67 13.24 51.57 12.97C55.36 12.43 59.54 11.89 63.94 11.37C68.34 10.85 72.52 10.42 76.34 10.07C78.25 9.89 80.05 9.74 81.76 9.6L82.39 9.55C82.51 9.55 82.6 9.54 82.72 9.54L83.08 9.53L83.78 9.51C84.01 9.52 84.24 9.54 84.47 9.56C84.69 9.58 84.92 9.59 85.13 9.63L85.77 9.75C86.18 9.84 86.58 9.94 86.98 10.07C88.35 10.51 89.61 11.16 90.77 12.02C91.62 12.65 92.38 13.37 93.06 14.19C93.32 14.54 93.54 14.85 93.72 15.12C93.87 15.36 94 15.61 94.11 15.86C94.31 16.28 94.32 16.54 94.22 16.62C94.13 16.69 93.9 16.58 93.53 16.35C93.35 16.23 93.14 16.07 92.91 15.88C92.68 15.69 92.37 15.49 92.06 15.25C91.3 14.72 90.51 14.24 89.67 13.82C88.6 13.27 87.48 12.89 86.3 12.65C85.98 12.59 85.66 12.54 85.33 12.51L84.83 12.47C84.66 12.46 84.49 12.46 84.32 12.47C84.15 12.47 83.98 12.47 83.81 12.47L83.3 12.54L83.04 12.56L82.9 12.58L82.74 12.61L82.12 12.71C80.44 12.97 78.64 13.24 76.74 13.51C72.95 14.05 68.77 14.6 64.37 15.11C59.97 15.63 55.79 16.07 51.97 16.42C50.06 16.59 48.25 16.75 46.55 16.88L44.09 17.06L43.5 17.1L43.01 17.14C42.7 17.18 42.39 17.23 42.09 17.3C41 17.56 40.03 18.07 39.19 18.82C38.54 19.42 38.01 20.11 37.59 20.89C37.23 21.55 37.02 22.12 36.84 22.51C36.67 22.9 36.54 23.13 36.4 23.12Z" fill="#FFFFFF" fill-opacity="1.000000" fill-rule="nonzero"/>
				</g>
				<g opacity="0.490000">
					<path id="path" d="M36.42 22.94C36.3 22.94 36.18 22.7 36.13 22.24C36.07 21.56 36.13 20.89 36.31 20.23C36.58 19.15 37.07 18.17 37.79 17.3C38.77 16.11 39.99 15.27 41.44 14.76C41.65 14.69 41.84 14.63 42.04 14.57C42.25 14.5 42.45 14.46 42.66 14.41L42.98 14.35L43.14 14.32L43.29 14.3L43.86 14.2L46.29 13.81C47.96 13.55 49.75 13.28 51.65 13.01C55.42 12.47 59.58 11.94 63.94 11.42C68.31 10.91 72.48 10.47 76.27 10.12C78.17 9.95 79.98 9.79 81.67 9.66L82.28 9.61L82.6 9.59L82.95 9.58L83.65 9.56C83.76 9.56 83.87 9.56 83.99 9.57L84.32 9.6L84.99 9.66L85.62 9.77C85.82 9.82 86.03 9.85 86.24 9.91L86.82 10.08C88.19 10.5 89.45 11.13 90.61 11.96L91.32 12.51C91.52 12.69 91.73 12.88 91.94 13.06L92.22 13.32L92.46 13.59L92.92 14.09C93.19 14.42 93.4 14.74 93.59 15C93.68 15.13 93.75 15.26 93.82 15.39C93.89 15.52 93.94 15.63 93.99 15.74C94.07 15.89 94.13 16.06 94.17 16.23C94.19 16.35 94.17 16.43 94.12 16.48C94.07 16.52 93.99 16.51 93.87 16.46C93.72 16.39 93.57 16.31 93.43 16.21L91.95 15.14L91.44 14.8L91.17 14.62L90.88 14.44L90.26 14.08L89.56 13.72C88.5 13.19 87.38 12.82 86.21 12.6L85.73 12.51C85.57 12.48 85.41 12.48 85.24 12.46L84.74 12.42L84.24 12.42L83.98 12.42C83.9 12.42 83.81 12.42 83.73 12.44L83.21 12.5L82.95 12.53L82.64 12.58L82.02 12.67C80.35 12.94 78.56 13.21 76.66 13.47C72.89 14.01 68.74 14.55 64.37 15.06C60 15.57 55.83 16.01 52.04 16.36C50.14 16.54 48.33 16.69 46.65 16.82L44.2 17.01L43.61 17.04L43.47 17.04L43.35 17.06L43.11 17.08C42.95 17.09 42.79 17.12 42.64 17.14C42.48 17.15 42.33 17.19 42.18 17.23C41.09 17.47 40.11 17.96 39.26 18.7C38.6 19.28 38.06 19.96 37.63 20.73C37.26 21.38 37.04 21.94 36.86 22.33C36.68 22.72 36.55 22.95 36.42 22.94Z" fill="#FFFFFF" fill-opacity="1.000000" fill-rule="nonzero"/>
				</g>
				<g opacity="0.510000">
					<path id="path" d="M36.42 22.77C36.3 22.76 36.2 22.52 36.15 22.07C36.11 21.39 36.19 20.73 36.37 20.08C36.51 19.6 36.69 19.14 36.91 18.7C37.18 18.16 37.52 17.66 37.91 17.2C38.91 16.05 40.13 15.23 41.58 14.76C41.98 14.62 42.39 14.52 42.8 14.43L43.12 14.37L43.4 14.32L43.98 14.23L46.39 13.84C48.06 13.58 49.84 13.32 51.71 13.05C55.47 12.52 59.6 11.99 63.94 11.48C68.29 10.97 72.43 10.53 76.21 10.18C78.09 10.01 79.89 9.85 81.57 9.72L82.19 9.67C82.39 9.65 82.58 9.63 82.83 9.63L83.52 9.61C83.63 9.61 83.75 9.6 83.86 9.61L84.19 9.64L84.85 9.69C85.05 9.71 85.27 9.76 85.48 9.8L86.1 9.92C86.3 9.97 86.49 10.03 86.68 10.08C88.04 10.49 89.3 11.1 90.46 11.91L91.17 12.44C91.39 12.61 91.58 12.81 91.79 12.98C92.14 13.3 92.47 13.64 92.77 14L92.98 14.23C93.04 14.31 93.1 14.39 93.15 14.47C93.26 14.62 93.36 14.76 93.46 14.89C93.62 15.12 93.75 15.36 93.87 15.61C94.06 16.02 94.11 16.26 94.01 16.34C93.92 16.41 93.68 16.32 93.33 16.08C93.15 15.96 92.95 15.8 92.7 15.63C92.57 15.54 92.44 15.44 92.3 15.34L92.1 15.18L91.86 15.03C91.53 14.82 91.19 14.56 90.78 14.34C90.58 14.23 90.39 14.09 90.17 13.98L89.48 13.63C88.41 13.11 87.29 12.75 86.12 12.54L85.65 12.45L85.16 12.41C84.99 12.41 84.83 12.37 84.66 12.38L84.15 12.38L83.9 12.38C83.81 12.38 83.73 12.4 83.65 12.41L83.13 12.46C82.97 12.47 82.75 12.52 82.55 12.55L81.93 12.65C80.26 12.9 78.48 13.17 76.6 13.44C72.85 13.97 68.72 14.5 64.37 15.01C60.03 15.52 55.87 15.97 52.09 16.31C50.21 16.49 48.41 16.65 46.73 16.78L44.3 16.96L43.72 17L43.44 17.02L43.2 17.04C42.89 17.07 42.58 17.12 42.27 17.18C41.17 17.41 40.18 17.88 39.31 18.61C38.95 18.91 38.63 19.24 38.33 19.61C38.08 19.92 37.85 20.26 37.65 20.61C37.27 21.25 37.04 21.8 36.86 22.19C36.67 22.57 36.55 22.78 36.42 22.77Z" fill="#FFFFFF" fill-opacity="1.000000" fill-rule="nonzero"/>
				</g>
				<g opacity="0.530000">
					<path id="path" d="M36.45 22.59C36.34 22.58 36.24 22.34 36.21 21.89C36.18 21.22 36.27 20.56 36.47 19.93C36.79 18.87 37.32 17.93 38.05 17.11C39.06 15.99 40.29 15.2 41.73 14.76C41.93 14.7 42.12 14.64 42.32 14.59C42.53 14.54 42.74 14.49 42.94 14.45C43.15 14.42 43.34 14.38 43.53 14.35L44.1 14.26L46.49 13.88C48.14 13.62 49.92 13.36 51.79 13.1C55.52 12.57 59.63 12.04 63.96 11.53C68.29 11.03 72.4 10.59 76.15 10.24C78.03 10.06 79.81 9.91 81.48 9.77C81.89 9.74 82.31 9.7 82.72 9.68L83.41 9.66C83.63 9.65 83.85 9.65 84.07 9.67C84.5 9.69 84.93 9.74 85.35 9.82C85.75 9.88 86.15 9.97 86.54 10.09C87.89 10.47 89.15 11.06 90.32 11.85C90.56 12.03 90.79 12.21 91.02 12.38C91.24 12.54 91.44 12.72 91.64 12.9C91.83 13.08 92.01 13.24 92.18 13.4C92.34 13.57 92.48 13.74 92.63 13.9C93.73 15.18 94.07 16.07 93.89 16.2C93.72 16.34 93.01 15.77 91.74 14.91L91.24 14.57L90.67 14.23C90.47 14.1 90.26 13.98 90.05 13.88C89.83 13.76 89.6 13.65 89.37 13.53C88.3 13.02 87.18 12.67 86.01 12.47C85.7 12.41 85.37 12.37 85.05 12.36C84.72 12.33 84.38 12.32 84.05 12.34C83.88 12.34 83.71 12.35 83.54 12.38L83.03 12.43C82.65 12.49 82.23 12.56 81.82 12.62C80.17 12.88 78.39 13.14 76.52 13.4C72.79 13.93 68.68 14.46 64.35 14.96C60.02 15.47 55.92 15.9 52.16 16.26C50.28 16.43 48.5 16.59 46.83 16.72L44.41 16.91L43.83 16.95C43.64 16.96 43.44 16.97 43.29 16.99C43.15 17 42.98 17.01 42.82 17.04C42.67 17.06 42.51 17.09 42.36 17.12C41.26 17.33 40.27 17.79 39.39 18.5C38.72 19.05 38.15 19.71 37.7 20.46C37.4 20.97 37.13 21.49 36.89 22.02C36.7 22.41 36.57 22.61 36.45 22.59Z" fill="#FFFFFF" fill-opacity="1.000000" fill-rule="nonzero"/>
				</g>
				<g opacity="0.550000">
					<path id="path" d="M36.47 22.42C36.36 22.4 36.27 22.17 36.25 21.72C36.24 21.05 36.35 20.4 36.56 19.77C36.9 18.73 37.45 17.82 38.19 17.02C39.22 15.93 40.45 15.18 41.87 14.76C42.27 14.64 42.67 14.54 43.08 14.48L44.21 14.29L46.6 13.91C48.25 13.66 50.01 13.4 51.86 13.14C55.57 12.62 59.66 12.1 63.96 11.59C68.26 11.07 72.35 10.65 76.08 10.3C77.95 10.12 79.72 9.96 81.39 9.83L82.61 9.73C82.83 9.72 83.07 9.72 83.29 9.71L83.62 9.71C83.73 9.7 83.84 9.7 83.95 9.71L84.6 9.76C84.8 9.78 85.01 9.8 85.21 9.84L85.82 9.95L86.11 10.01L86.4 10.09C87.11 10.29 87.8 10.54 88.47 10.85C88.78 11.01 89.09 11.16 89.36 11.31L90.16 11.81C91.02 12.38 91.79 13.04 92.48 13.81L92.87 14.25C92.99 14.39 93.08 14.54 93.18 14.66C93.34 14.88 93.48 15.11 93.61 15.35C93.82 15.75 93.87 15.99 93.78 16.06C93.69 16.13 93.46 16.04 93.12 15.8C92.95 15.68 92.72 15.54 92.48 15.37C92.36 15.28 92.23 15.18 92.09 15.08L91.64 14.78C90.88 14.27 90.08 13.82 89.25 13.43L88.5 13.11L87.69 12.82C87.11 12.64 86.51 12.5 85.9 12.41L85.67 12.37L85.43 12.34L84.94 12.3C84.77 12.29 84.61 12.28 84.44 12.29L83.94 12.29C83.86 12.29 83.77 12.3 83.69 12.31L83.43 12.34L82.92 12.39L81.7 12.59C80.05 12.84 78.29 13.1 76.44 13.36C72.72 13.88 68.64 14.41 64.34 14.91C60.04 15.41 55.94 15.85 52.21 16.2C50.36 16.37 48.57 16.53 46.91 16.67L44.5 16.85L43.38 16.93C43.07 16.95 42.75 16.99 42.45 17.05C41.34 17.26 40.34 17.7 39.45 18.39C38.77 18.93 38.19 19.57 37.73 20.32C37.34 20.94 37.09 21.49 36.91 21.86C36.72 22.22 36.59 22.43 36.47 22.42Z" fill="#FFFFFF" fill-opacity="1.000000" fill-rule="nonzero"/>
				</g>
				<g opacity="0.570000">
					<path id="path" d="M36.5 22.24C36.39 22.23 36.31 21.99 36.3 21.54C36.31 20.88 36.43 20.24 36.65 19.62C37.02 18.6 37.58 17.7 38.34 16.93C39.37 15.88 40.6 15.15 42.02 14.76C42.21 14.7 42.41 14.66 42.61 14.61L43.21 14.49L44.33 14.31L46.7 13.94C48.35 13.69 50.09 13.43 51.94 13.18C55.63 12.66 59.69 12.14 63.96 11.64C68.24 11.13 72.31 10.7 76.02 10.35C77.88 10.17 79.64 10.02 81.29 9.88L82.51 9.79L82.66 9.77L82.83 9.77L83.17 9.76L83.83 9.75C84.26 9.79 84.68 9.8 85.08 9.86L85.68 9.97C85.88 10.01 86.07 10.05 86.26 10.1C87.6 10.44 88.86 10.99 90.01 11.76C90.26 11.91 90.5 12.08 90.72 12.26C90.94 12.43 91.16 12.58 91.34 12.75L91.88 13.24C91.96 13.32 92.05 13.39 92.12 13.47L92.33 13.71C92.77 14.17 93.15 14.68 93.48 15.23C93.68 15.62 93.73 15.86 93.65 15.93C93.57 16 93.35 15.9 93 15.67C92.65 15.43 92.17 15.08 91.52 14.67L91.28 14.51C91.19 14.45 91.1 14.4 91.01 14.35L90.45 14.01C90.26 13.89 90.04 13.8 89.82 13.68C89.6 13.56 89.37 13.44 89.13 13.35C88.07 12.85 86.95 12.51 85.79 12.34C85.63 12.31 85.47 12.3 85.31 12.29L84.82 12.25C84.5 12.23 84.17 12.25 83.83 12.25L83.32 12.3L83.07 12.33L82.94 12.34L82.79 12.36L81.59 12.55C79.95 12.8 78.19 13.06 76.35 13.32C72.65 13.83 68.59 14.36 64.32 14.86C60.05 15.36 55.97 15.79 52.26 16.14C50.4 16.32 48.64 16.48 46.99 16.61L44.6 16.8L43.47 16.88L42.99 16.92L42.53 16.99C41.42 17.18 40.42 17.61 39.51 18.28C38.82 18.81 38.23 19.44 37.76 20.18C37.45 20.67 37.17 21.17 36.91 21.69C36.75 22.06 36.6 22.26 36.5 22.24Z" fill="#FFFFFF" fill-opacity="1.000000" fill-rule="nonzero"/>
				</g>
				<g opacity="0.590000">
					<path id="path" d="M36.53 22.07C36.47 22.07 36.43 22 36.4 21.88C36.36 21.72 36.35 21.55 36.35 21.37C36.38 20.72 36.51 20.09 36.75 19.48C36.92 19.03 37.13 18.6 37.39 18.19C37.7 17.7 38.06 17.25 38.48 16.84C39.52 15.83 40.75 15.13 42.17 14.77C42.36 14.72 42.55 14.66 42.75 14.63C42.95 14.59 43.16 14.55 43.33 14.52L44.44 14.34L46.8 13.98C48.43 13.73 50.17 13.48 52.01 13.22C55.68 12.71 59.72 12.18 63.97 11.69C68.21 11.2 72.27 10.76 75.96 10.41C77.8 10.23 79.56 10.08 81.2 9.94L82.41 9.84C82.52 9.84 82.6 9.82 82.72 9.82L83.05 9.81L83.7 9.79C84.13 9.8 84.54 9.85 84.95 9.88C85.35 9.96 85.74 10.03 86.12 10.1C87.45 10.43 88.7 10.97 89.86 11.71L90.23 11.95C90.35 12.02 90.46 12.11 90.57 12.19L91.2 12.67C91.39 12.84 91.57 13 91.74 13.16C91.9 13.3 92.06 13.45 92.2 13.61C92.48 13.92 92.73 14.19 92.92 14.44C93.11 14.7 93.25 14.92 93.36 15.11C93.45 15.25 93.52 15.41 93.57 15.57C93.6 15.69 93.59 15.76 93.55 15.8C93.51 15.83 93.44 15.83 93.33 15.78C93.22 15.74 93.09 15.65 92.91 15.54C92.72 15.44 92.52 15.29 92.29 15.11C92.06 14.94 91.75 14.77 91.44 14.55C91.29 14.44 91.11 14.34 90.93 14.24L90.37 13.9L89.74 13.58C89.63 13.52 89.52 13.46 89.41 13.41L89.05 13.26C87.98 12.77 86.87 12.44 85.71 12.28L84.75 12.19C84.42 12.2 84.09 12.19 83.75 12.21L83.25 12.26L83 12.29C82.91 12.29 82.8 12.32 82.71 12.33L81.51 12.52C79.88 12.77 78.13 13.02 76.3 13.27C72.63 13.78 68.58 14.31 64.34 14.8C60.09 15.29 56.04 15.73 52.35 16.08C50.49 16.26 48.75 16.42 47.11 16.55L44.73 16.74L43.61 16.82C43.4 16.84 43.27 16.85 43.11 16.87C42.95 16.88 42.8 16.91 42.65 16.93C41.54 17.1 40.53 17.51 39.61 18.17C38.91 18.69 38.32 19.31 37.84 20.04C37.52 20.52 37.23 21.02 36.97 21.54C36.89 21.68 36.81 21.82 36.72 21.95C36.64 22.04 36.58 22.08 36.53 22.07Z" fill="#FFFFFF" fill-opacity="1.000000" fill-rule="nonzero"/>
				</g>
				<g opacity="0.610000">
					<path id="path" d="M36.56 21.9C36.46 21.88 36.39 21.64 36.41 21.2C36.45 20.56 36.6 19.93 36.85 19.34C37.26 18.35 37.85 17.49 38.62 16.77C39.68 15.78 40.91 15.12 42.31 14.78C42.5 14.74 42.69 14.69 42.89 14.66L43.18 14.6L43.45 14.56L44.56 14.38L46.9 14.02C48.52 13.77 50.26 13.52 52.08 13.27C55.73 12.76 59.75 12.25 63.98 11.75C68.2 11.26 72.22 10.83 75.9 10.47C77.73 10.3 79.48 10.14 81.11 10L82.32 9.9L82.61 9.88C82.71 9.88 82.83 9.88 82.93 9.87L83.58 9.85C83.78 9.84 83.99 9.85 84.2 9.87L84.81 9.92C85.21 9.97 85.6 10.06 85.98 10.13C87.3 10.44 88.55 10.96 89.71 11.68L90.08 11.91L90.26 12.02L90.42 12.15L91.04 12.62C91.14 12.69 91.23 12.77 91.32 12.85C91.41 12.94 91.49 13.01 91.58 13.09C91.75 13.24 91.91 13.39 92.05 13.53C92.33 13.83 92.57 14.11 92.77 14.34C92.93 14.56 93.08 14.78 93.22 15C93.45 15.37 93.51 15.6 93.43 15.67C93.34 15.74 93.14 15.64 92.78 15.42C92.6 15.32 92.4 15.17 92.16 15.01C91.92 14.85 91.63 14.66 91.32 14.45L90.81 14.15L90.53 13.98C90.44 13.92 90.34 13.87 90.24 13.82L89.62 13.5L89.46 13.41L89.29 13.34L88.93 13.18C87.87 12.71 86.75 12.4 85.6 12.24C85.28 12.22 84.97 12.17 84.64 12.17L84.14 12.17C83.98 12.16 83.81 12.17 83.65 12.19L83.14 12.24C83.06 12.25 82.98 12.26 82.88 12.27L82.59 12.32L81.39 12.5C79.77 12.74 78.04 12.99 76.21 13.24C72.56 13.75 68.54 14.26 64.32 14.76C60.1 15.26 56.07 15.69 52.4 16.04C50.57 16.22 48.82 16.37 47.19 16.51L44.82 16.7L43.71 16.78L43.43 16.8L43.2 16.82C43.04 16.84 42.89 16.86 42.74 16.88C41.62 17.04 40.61 17.44 39.68 18.08C38.97 18.58 38.37 19.19 37.87 19.9C37.55 20.38 37.26 20.87 36.99 21.38C36.8 21.72 36.66 21.92 36.56 21.9Z" fill="#FFFFFF" fill-opacity="1.000000" fill-rule="nonzero"/>
				</g>
				<g opacity="0.630000">
					<path id="path" d="M36.59 21.72C36.49 21.7 36.44 21.47 36.47 21.04C36.53 20.39 36.69 19.78 36.95 19.19C37.38 18.22 37.98 17.39 38.77 16.69C39.83 15.74 41.06 15.11 42.45 14.79C42.83 14.7 43.23 14.63 43.57 14.58L44.67 14.41L47 14.05C48.62 13.81 50.34 13.56 52.16 13.31C55.79 12.81 59.79 12.3 63.99 11.81C68.18 11.31 72.19 10.89 75.84 10.53C77.66 10.35 79.4 10.2 81.02 10.06L82.22 9.96L82.51 9.93L82.66 9.92L82.82 9.92L83.46 9.9C84.26 9.9 85.05 9.98 85.84 10.15C87.16 10.44 88.4 10.94 89.57 11.63C89.81 11.79 90.05 11.93 90.28 12.08C90.51 12.23 90.69 12.4 90.9 12.55C91 12.63 91.09 12.7 91.19 12.78L91.45 13.01L91.92 13.44C92.37 13.88 92.76 14.36 93.1 14.88C93.32 15.25 93.41 15.47 93.33 15.54C93.25 15.61 93.03 15.52 92.69 15.3C92.34 15.08 91.85 14.74 91.22 14.33L90.71 14.03L90.44 13.86C90.34 13.81 90.24 13.76 90.14 13.71L89.53 13.39L88.83 13.08C87.76 12.63 86.65 12.32 85.5 12.18C84.85 12.1 84.2 12.09 83.55 12.15L83.05 12.2L82.92 12.21L82.78 12.23L82.49 12.28L81.3 12.46C79.69 12.7 77.96 12.95 76.14 13.2C72.51 13.7 68.52 14.21 64.32 14.7C60.12 15.19 56.11 15.62 52.46 15.97C50.64 16.15 48.91 16.31 47.28 16.45L44.93 16.64C44.19 16.7 43.41 16.74 42.84 16.82C41.73 16.96 40.7 17.35 39.77 17.97C39.05 18.46 38.44 19.05 37.93 19.76C37.6 20.22 37.3 20.7 37.03 21.21C36.84 21.55 36.69 21.75 36.59 21.72Z" fill="#FFFFFF" fill-opacity="1.000000" fill-rule="nonzero"/>
				</g>
				<g opacity="0.650000">
					<path id="path" d="M36.63 21.55C36.54 21.53 36.49 21.3 36.53 20.87C36.61 20.23 36.78 19.63 37.06 19.05C37.14 18.86 37.25 18.67 37.36 18.46C37.47 18.25 37.61 18.05 37.78 17.85C38.11 17.39 38.49 16.97 38.92 16.6C39.99 15.69 41.22 15.09 42.6 14.79C42.79 14.75 42.98 14.72 43.17 14.69L43.7 14.6L44.79 14.43L47.11 14.07C48.71 13.83 50.43 13.59 52.23 13.34C55.84 12.85 59.82 12.34 63.99 11.85C68.15 11.36 72.14 10.94 75.77 10.58C77.58 10.4 79.31 10.24 80.93 10.1L82.12 10.01L82.7 9.96L83.33 9.94L83.64 9.94C83.75 9.93 83.85 9.93 83.95 9.94L84.55 9.99C84.94 10.02 85.32 10.07 85.7 10.16C87.01 10.43 88.25 10.9 89.41 11.58L90.12 12.02C90.35 12.16 90.55 12.33 90.74 12.47C91.1 12.74 91.44 13.03 91.77 13.35L91.98 13.55C92.04 13.62 92.1 13.69 92.16 13.76L92.49 14.14C92.59 14.26 92.68 14.36 92.77 14.47C92.85 14.57 92.91 14.67 92.96 14.76C93.19 15.13 93.27 15.34 93.2 15.41C93.05 15.55 92.38 15.01 91.1 14.22C90.78 14.03 90.43 13.8 90.03 13.61C89.82 13.51 89.62 13.39 89.41 13.29L88.72 12.99C87.65 12.55 86.54 12.26 85.39 12.12C85.07 12.08 84.75 12.06 84.43 12.06L83.94 12.06C83.86 12.06 83.78 12.07 83.7 12.08L83.45 12.11L82.94 12.16L82.37 12.24L81.19 12.42C79.59 12.66 77.87 12.9 76.07 13.15C72.46 13.65 68.48 14.15 64.32 14.64C60.15 15.13 56.16 15.56 52.53 15.92C50.72 16.09 48.99 16.25 47.38 16.39L45.04 16.58L43.94 16.67L43.4 16.71C43.25 16.73 43.09 16.74 42.94 16.75C41.83 16.89 40.79 17.26 39.85 17.86C39.46 18.11 39.1 18.4 38.77 18.72C38.61 18.87 38.48 19.03 38.34 19.17C38.2 19.32 38.09 19.46 37.99 19.61C37.65 20.07 37.34 20.55 37.06 21.05C36.86 21.39 36.73 21.58 36.63 21.55Z" fill="#FFFFFF" fill-opacity="1.000000" fill-rule="nonzero"/>
				</g>
				<g opacity="0.670000">
					<path id="path" d="M36.68 21.38C36.63 21.37 36.6 21.31 36.58 21.19C36.57 21.03 36.58 20.87 36.6 20.7C36.69 20.07 36.88 19.48 37.16 18.91C37.63 17.98 38.26 17.19 39.06 16.54C40.14 15.66 41.37 15.08 42.74 14.82C42.92 14.78 43.12 14.74 43.29 14.71L43.82 14.63L44.9 14.46L47.21 14.11C48.8 13.88 50.51 13.64 52.3 13.39C55.89 12.9 59.84 12.4 64 11.91C68.15 11.42 72.11 11 75.71 10.64C77.52 10.47 79.23 10.31 80.84 10.17L82.02 10.07L82.59 10.02C82.79 10.01 83.01 10 83.21 9.99L83.83 9.98L84.43 10.03C84.62 10.04 84.82 10.05 85.01 10.08L85.56 10.18C86.87 10.43 88.11 10.89 89.27 11.54C89.74 11.8 90.18 12.1 90.61 12.41C90.8 12.56 90.99 12.7 91.16 12.84L91.64 13.27C91.78 13.4 91.92 13.53 92.05 13.66L92.38 14.03C92.55 14.22 92.71 14.42 92.86 14.64C93.08 15 93.17 15.21 93.1 15.28C93.04 15.34 92.82 15.25 92.48 15.03C92.32 14.91 92.1 14.79 91.86 14.63L91.48 14.37C91.34 14.28 91.18 14.2 91.02 14.1L90.52 13.8L89.95 13.5C89.56 13.28 89.11 13.1 88.64 12.89C87.57 12.46 86.46 12.18 85.31 12.06L84.84 12.01C84.68 12.01 84.52 12.01 84.36 12.01L83.85 12.01L83.35 12.07C83.18 12.09 83.03 12.1 82.84 12.12L82.27 12.21L81.1 12.38C79.5 12.62 77.8 12.86 76 13.11C72.41 13.6 68.46 14.1 64.31 14.58C60.16 15.07 56.2 15.5 52.59 15.85C50.79 16.03 49.07 16.19 47.47 16.33L43.05 16.69C41.44 16.85 40.04 17.49 38.85 18.6C38.56 18.87 38.3 19.16 38.05 19.47C37.71 19.92 37.4 20.39 37.11 20.88C37.03 21.02 36.95 21.15 36.85 21.27C36.78 21.35 36.72 21.39 36.68 21.38Z" fill="#FFFFFF" fill-opacity="1.000000" fill-rule="nonzero"/>
				</g>
				<g opacity="0.690000">
					<path id="path" d="M36.72 21.21C36.64 21.19 36.6 20.96 36.67 20.54C36.78 19.92 36.98 19.33 37.29 18.78C37.77 17.87 38.41 17.1 39.21 16.47C40.31 15.62 41.53 15.08 42.88 14.83C43.27 14.76 43.59 14.72 43.95 14.66L45.03 14.49L47.32 14.15C48.91 13.91 50.6 13.67 52.39 13.43C55.95 12.95 59.88 12.45 64.01 11.97C68.14 11.48 72.07 11.06 75.66 10.7C77.45 10.52 79.17 10.36 80.75 10.23L81.93 10.12C82.32 10.09 82.67 10.05 83.1 10.04L83.71 10.03C83.92 10.03 84.11 10.05 84.3 10.06L84.88 10.11C85.06 10.13 85.25 10.17 85.43 10.2C86.73 10.43 87.96 10.86 89.12 11.5C89.98 11.97 90.76 12.53 91.49 13.18L91.9 13.57C92.03 13.69 92.13 13.82 92.23 13.93C92.44 14.16 92.6 14.36 92.72 14.52C92.95 14.88 93.04 15.09 92.97 15.15C92.91 15.2 92.7 15.12 92.37 14.9C92.19 14.8 91.98 14.67 91.75 14.51C91.62 14.43 91.5 14.34 91.36 14.26L90.91 13.99C90.14 13.53 89.35 13.13 88.52 12.8C87.45 12.38 86.35 12.11 85.2 12C85.04 11.99 84.89 11.96 84.73 11.96L84.25 11.96C84.08 11.95 83.92 11.95 83.76 11.96L83.26 12.01C82.95 12.04 82.55 12.11 82.18 12.16L81.01 12.33C79.42 12.57 77.73 12.8 75.94 13.05C72.37 13.53 68.45 14.03 64.32 14.51C60.19 15 56.25 15.42 52.67 15.78C50.88 15.96 49.16 16.12 47.58 16.26L43.17 16.62C42.05 16.73 41.01 17.07 40.04 17.64C39.31 18.08 38.67 18.64 38.13 19.31C37.78 19.75 37.46 20.22 37.17 20.7C36.94 21.05 36.81 21.24 36.72 21.21Z" fill="#FFFFFF" fill-opacity="1.000000" fill-rule="nonzero"/>
				</g>
				<g opacity="0.710000">
					<path id="path" d="M36.77 21.04C36.69 21.02 36.67 20.79 36.74 20.38C36.87 19.76 37.08 19.19 37.39 18.65C37.89 17.76 38.54 17.01 39.35 16.4C40.45 15.59 41.67 15.08 43.02 14.85C43.2 14.82 43.37 14.79 43.54 14.77L44.06 14.69L45.13 14.52L47.41 14.18C48.99 13.95 50.68 13.71 52.45 13.48C56 13 59.91 12.5 64.01 12.02C68.11 11.54 72.03 11.12 75.59 10.76C77.37 10.58 79.07 10.42 80.65 10.28L81.82 10.18L82.39 10.13L82.67 10.11L82.98 10.1C83.37 10.07 83.77 10.07 84.16 10.1C84.54 10.11 84.91 10.16 85.28 10.22C85.97 10.33 86.64 10.5 87.29 10.73L88.17 11.08L88.96 11.47C89.2 11.59 89.44 11.73 89.67 11.88C89.89 12.03 90.11 12.15 90.3 12.3L90.86 12.71C90.94 12.78 91.03 12.84 91.11 12.91L91.33 13.12C92.52 14.17 92.96 14.93 92.84 15.04C92.73 15.15 92.05 14.64 90.78 13.9L90.54 13.75C90.45 13.7 90.36 13.66 90.27 13.61L89.71 13.32C89.52 13.2 89.3 13.13 89.09 13.02C88.87 12.92 88.64 12.82 88.41 12.74L87.66 12.47L86.86 12.25C86.27 12.11 85.68 12.02 85.09 11.97C84.44 11.92 83.8 11.93 83.16 12.01L82.91 12.04L82.63 12.08L82.06 12.16L80.9 12.33C79.33 12.56 77.64 12.8 75.87 13.04C72.32 13.52 68.41 14.01 64.31 14.49C60.2 14.97 56.29 15.4 52.73 15.75C50.94 15.93 49.25 16.09 47.66 16.23L45.37 16.43L43.27 16.6C42.15 16.69 41.11 17.01 40.13 17.57C39.39 18 38.74 18.55 38.19 19.21C37.84 19.64 37.51 20.1 37.21 20.57C36.99 20.89 36.85 21.07 36.77 21.04Z" fill="#FFFFFF" fill-opacity="1.000000" fill-rule="nonzero"/>
				</g>
				<g opacity="0.730000">
					<path id="path" d="M36.82 20.88C36.74 20.85 36.74 20.62 36.82 20.21C36.96 19.61 37.19 19.04 37.51 18.52C37.74 18.13 38.01 17.77 38.31 17.43C38.67 17.02 39.07 16.66 39.51 16.34C40.61 15.56 41.83 15.07 43.16 14.87C48.49 14.03 55.86 13.03 64.02 12.08C68.1 11.6 71.99 11.17 75.53 10.82C77.31 10.64 78.99 10.48 80.56 10.34L81.73 10.23L82.29 10.19C82.48 10.17 82.65 10.15 82.86 10.14L83.46 10.13C83.65 10.11 83.85 10.11 84.04 10.13L84.61 10.17C84.79 10.18 84.97 10.2 85.15 10.23L85.68 10.33C85.85 10.35 86.02 10.39 86.19 10.43C86.52 10.53 86.84 10.62 87.15 10.71L88.02 11.05C88.31 11.16 88.56 11.31 88.81 11.43L89.18 11.61L89.52 11.82L90.16 12.22C90.54 12.51 90.9 12.75 91.19 13.01C91.48 13.27 91.74 13.51 91.95 13.72C92.16 13.93 92.31 14.14 92.44 14.3C92.7 14.62 92.78 14.84 92.72 14.89C92.67 14.95 92.47 14.85 92.12 14.65C91.95 14.55 91.74 14.42 91.51 14.27L90.66 13.76C90.35 13.57 89.98 13.4 89.59 13.19L88.96 12.91L88.63 12.76L88.28 12.63C88.04 12.55 87.8 12.45 87.53 12.38L86.73 12.16L85.87 11.99C85.72 11.96 85.58 11.94 85.42 11.94L84.96 11.89C84.81 11.87 84.65 11.87 84.49 11.87L84.02 11.87C83.85 11.87 83.69 11.88 83.53 11.9L83.04 11.95C82.88 11.96 82.68 12 82.5 12.02L81.94 12.11L80.79 12.28C79.22 12.5 77.54 12.74 75.78 12.97C72.25 13.45 68.37 13.94 64.29 14.42C56.13 15.37 48.72 16.11 43.36 16.52C42.24 16.6 41.19 16.91 40.21 17.45C39.81 17.68 39.43 17.93 39.08 18.23C38.78 18.48 38.5 18.76 38.25 19.06C37.88 19.48 37.55 19.93 37.25 20.4C37.04 20.73 36.9 20.9 36.82 20.88Z" fill="#FFFFFF" fill-opacity="1.000000" fill-rule="nonzero"/>
				</g>
				<g opacity="0.750000">
					<path id="path" d="M36.88 20.71C36.84 20.7 36.83 20.64 36.83 20.53C36.83 20.37 36.85 20.21 36.9 20.06C37.05 19.46 37.29 18.91 37.62 18.4C38.16 17.55 38.83 16.85 39.65 16.29C40.76 15.54 41.97 15.08 43.29 14.9C48.58 14.07 55.91 13.09 64.02 12.13C68.08 11.66 71.94 11.24 75.47 10.89C77.23 10.71 78.9 10.55 80.47 10.41L82.74 10.2C83.13 10.19 83.52 10.16 83.9 10.17C84.28 10.18 84.65 10.22 85.01 10.26C86.29 10.44 87.5 10.82 88.65 11.41C89.12 11.63 89.56 11.89 90 12.17C90.39 12.44 90.73 12.71 91.04 12.94C91.35 13.17 91.58 13.43 91.8 13.64C91.97 13.82 92.14 14.01 92.29 14.21C92.55 14.52 92.65 14.72 92.59 14.78C92.54 14.84 92.34 14.75 92 14.55C91.82 14.45 91.63 14.31 91.38 14.16C91.13 14.02 90.85 13.85 90.54 13.66C90.23 13.47 89.86 13.3 89.47 13.11C89.07 12.92 88.64 12.72 88.15 12.56C87.09 12.16 85.99 11.92 84.85 11.85C84.54 11.83 84.24 11.85 83.91 11.84C83.58 11.83 83.26 11.9 82.93 11.93L80.68 12.25C79.12 12.47 77.46 12.71 75.7 12.94C72.2 13.41 68.33 13.89 64.28 14.37C56.16 15.32 48.81 16.06 43.47 16.48C42.35 16.55 41.3 16.84 40.31 17.36C39.55 17.77 38.89 18.29 38.32 18.92C37.95 19.34 37.61 19.78 37.31 20.25C37.19 20.4 37.1 20.53 37.04 20.61C36.98 20.69 36.92 20.72 36.88 20.71Z" fill="#FFFFFF" fill-opacity="1.000000" fill-rule="nonzero"/>
				</g>
				<g opacity="0.760000">
					<path id="path" d="M36.94 20.54C36.91 20.53 36.89 20.46 36.89 20.36C36.91 20.2 36.94 20.04 36.98 19.89C37.15 19.31 37.41 18.77 37.74 18.26C38.29 17.44 38.98 16.76 39.81 16.22C40.32 15.88 40.87 15.61 41.44 15.39C41.6 15.33 41.75 15.28 41.91 15.24C42.07 15.19 42.23 15.14 42.4 15.1C42.57 15.06 42.73 15.02 42.91 14.99C43.08 14.96 43.26 14.93 43.42 14.9C48.68 14.09 55.97 13.12 64.04 12.17C68.07 11.7 71.91 11.28 75.41 10.92C77.16 10.75 78.83 10.58 80.39 10.44L82.64 10.23C83.02 10.21 83.42 10.2 83.79 10.19C84.16 10.21 84.53 10.24 84.89 10.27C86.15 10.43 87.36 10.8 88.51 11.35C88.76 11.48 89 11.59 89.23 11.72L89.86 12.1C89.96 12.17 90.06 12.22 90.15 12.29L90.41 12.48L90.9 12.85C91.37 13.22 91.79 13.63 92.17 14.08C92.42 14.39 92.53 14.58 92.48 14.64C92.43 14.69 92.22 14.61 91.89 14.41C91.55 14.21 91.06 13.91 90.45 13.54L89.94 13.27L89.67 13.13C89.57 13.08 89.47 13.04 89.37 13L88.75 12.72C88.54 12.62 88.3 12.55 88.07 12.46C87 12.07 85.9 11.85 84.77 11.78L83.82 11.78L82.84 11.88L80.6 12.2C79.05 12.42 77.4 12.65 75.65 12.88C72.17 13.34 68.33 13.83 64.3 14.3C56.23 15.24 48.92 15.98 43.61 16.41C43.44 16.42 43.29 16.44 43.14 16.45C43 16.47 42.85 16.49 42.71 16.51C42.56 16.54 42.42 16.56 42.28 16.59C42.14 16.62 42.01 16.65 41.87 16.69C41.37 16.83 40.89 17.01 40.43 17.25C39.67 17.64 39 18.15 38.42 18.77C38.04 19.18 37.7 19.61 37.39 20.07C37.3 20.2 37.21 20.32 37.12 20.43C37.03 20.52 36.98 20.56 36.94 20.54Z" fill="#FFFFFF" fill-opacity="1.000000" fill-rule="nonzero"/>
				</g>
				<g opacity="0.780000">
					<path id="path" d="M37 20.38C36.94 20.36 36.95 20.14 37.07 19.74C37.25 19.17 37.52 18.64 37.87 18.15C38.12 17.79 38.4 17.46 38.72 17.15C39.1 16.78 39.51 16.46 39.95 16.18C40.47 15.85 41.01 15.59 41.59 15.39C41.9 15.29 42.22 15.2 42.54 15.12C42.87 15.05 43.23 14.99 43.54 14.94C48.78 14.14 56.02 13.18 64.04 12.24C68.04 11.78 71.87 11.35 75.34 11C77.08 10.82 78.74 10.66 80.29 10.51L82.53 10.31C82.71 10.29 82.91 10.28 83.1 10.28L83.66 10.26C83.85 10.25 84.03 10.26 84.21 10.28L84.75 10.32C86.01 10.47 87.21 10.81 88.36 11.34L89.07 11.69C89.3 11.82 89.5 11.95 89.69 12.07C90.06 12.29 90.4 12.53 90.74 12.8C91.94 13.75 92.42 14.46 92.34 14.54C92.25 14.63 91.57 14.16 90.31 13.46C89.99 13.29 89.64 13.09 89.24 12.92C89.03 12.84 88.82 12.73 88.62 12.65L87.93 12.4C86.86 12.02 85.76 11.81 84.63 11.75L84.17 11.75C84.01 11.74 83.85 11.75 83.69 11.76L83.21 11.81C83.05 11.83 82.89 11.84 82.71 11.87L80.48 12.19C78.94 12.39 77.29 12.63 75.56 12.86C72.09 13.32 68.28 13.79 64.27 14.26C56.25 15.2 48.98 15.94 43.71 16.37C43.37 16.4 43.09 16.43 42.79 16.47C42.5 16.52 42.23 16.57 41.97 16.64C41.46 16.76 40.98 16.94 40.51 17.18C40.11 17.38 39.72 17.62 39.35 17.89C39.04 18.12 38.75 18.38 38.48 18.66C38.1 19.05 37.75 19.48 37.44 19.93C37.2 20.24 37.07 20.41 37 20.38Z" fill="#FFFFFF" fill-opacity="1.000000" fill-rule="nonzero"/>
				</g>
				<g opacity="0.800000">
					<path id="path" d="M37.07 20.22C37.02 20.19 37.02 19.98 37.16 19.6C37.36 19.03 37.64 18.51 38 18.03C38.57 17.26 39.27 16.62 40.11 16.13C40.62 15.83 41.17 15.58 41.74 15.39L42.2 15.25L42.68 15.13L43.18 15.04L43.67 14.97C48.87 14.18 56.07 13.23 64.04 12.29C68.02 11.83 71.82 11.41 75.28 11.05C77.01 10.87 78.65 10.71 80.19 10.56L82.42 10.35L82.69 10.33C82.78 10.33 82.88 10.33 82.97 10.32L83.53 10.3L83.8 10.3L84.07 10.31L84.61 10.35C85.86 10.48 87.05 10.8 88.2 11.31C88.66 11.52 89.11 11.75 89.54 12.02C89.75 12.14 89.93 12.25 90.11 12.37L90.59 12.73C90.74 12.84 90.88 12.94 91.01 13.05L91.36 13.37C91.54 13.53 91.72 13.7 91.88 13.89C92.14 14.19 92.25 14.38 92.21 14.43C92.16 14.48 91.97 14.39 91.64 14.19C91.48 14.08 91.26 13.98 91.02 13.83L90.64 13.6C90.5 13.52 90.34 13.44 90.19 13.36L89.69 13.09L89.12 12.83C88.69 12.64 88.26 12.46 87.81 12.31C86.74 11.96 85.64 11.76 84.52 11.71L84.05 11.71L83.81 11.71L83.58 11.73L83.09 11.78C83.01 11.78 82.93 11.79 82.85 11.8L82.58 11.84L80.37 12.16C78.84 12.36 77.2 12.59 75.48 12.82C72.03 13.27 68.24 13.74 64.26 14.21C56.29 15.15 49.06 15.88 43.82 16.32L43.34 16.37L42.9 16.41L42.47 16.48L42.06 16.57C41.56 16.69 41.07 16.86 40.6 17.09C39.83 17.45 39.14 17.93 38.54 18.54C38.15 18.93 37.8 19.34 37.48 19.78C37.26 20.08 37.14 20.25 37.07 20.22Z" fill="#FFFFFF" fill-opacity="1.000000" fill-rule="nonzero"/>
				</g>
				<g opacity="0.820000">
					<path id="path" d="M37.14 20.06C37.08 20.03 37.11 19.82 37.25 19.44C37.46 18.88 37.76 18.38 38.12 17.91C38.71 17.16 39.43 16.55 40.26 16.08C41.06 15.63 41.91 15.32 42.82 15.14C42.98 15.11 43.15 15.08 43.31 15.06L43.79 14.98C48.96 14.21 56.12 13.27 64.04 12.34C68 11.88 71.77 11.46 75.21 11.09L80.09 10.61L82.31 10.4C82.49 10.39 82.65 10.36 82.84 10.36L83.4 10.34C83.58 10.32 83.76 10.32 83.94 10.34L84.46 10.37C85.7 10.48 86.9 10.78 88.04 11.27C88.89 11.64 89.7 12.1 90.45 12.65C90.91 12.99 91.35 13.36 91.75 13.78C92.01 14.08 92.12 14.26 92.08 14.31C92.04 14.35 91.85 14.26 91.52 14.06C91.2 13.87 90.72 13.57 90.08 13.25C89.32 12.84 88.53 12.5 87.71 12.23C86.64 11.88 85.54 11.69 84.41 11.66L83.95 11.66C83.79 11.66 83.63 11.67 83.48 11.69L83 11.74C82.84 11.75 82.65 11.78 82.48 11.81L80.28 12.12L75.41 12.77C71.99 13.22 68.22 13.69 64.26 14.15C56.34 15.08 49.16 15.82 43.95 16.27L43.46 16.31L43.02 16.36C42.74 16.39 42.47 16.44 42.2 16.5C41.69 16.62 41.2 16.78 40.73 16.99C39.96 17.34 39.27 17.81 38.66 18.4C38.28 18.78 37.92 19.19 37.59 19.62C37.34 19.92 37.2 20.08 37.14 20.06Z" fill="#FFFFFF" fill-opacity="1.000000" fill-rule="nonzero"/>
				</g>
				<g opacity="0.840000">
					<path id="path" d="M37.22 19.9C37.17 19.88 37.19 19.66 37.35 19.29C37.57 18.75 37.87 18.26 38.25 17.81C38.52 17.48 38.82 17.18 39.15 16.9C40 16.19 40.96 15.68 42.03 15.38C42.65 15.21 43.28 15.09 43.92 15.02C49.06 14.26 56.18 13.33 64.05 12.4C67.99 11.94 71.74 11.52 75.16 11.16L80.01 10.67L82.21 10.46L82.73 10.41L83.28 10.39L83.82 10.37L84.34 10.41L84.85 10.44C85.01 10.46 85.18 10.5 85.34 10.52C85.65 10.57 85.96 10.63 86.26 10.71C86.56 10.79 86.85 10.86 87.12 10.96L87.9 11.25L88.08 11.32L88.26 11.41L88.6 11.57C88.82 11.69 89.05 11.78 89.24 11.9L89.8 12.24L90.05 12.4L90.29 12.57C90.58 12.8 90.86 12.99 91.07 13.18C91.28 13.37 91.46 13.54 91.6 13.67C91.66 13.75 91.73 13.81 91.77 13.86C91.81 13.91 91.85 13.96 91.88 14.02C91.94 14.1 91.96 14.16 91.94 14.18C91.92 14.2 91.87 14.19 91.78 14.15C91.73 14.13 91.67 14.1 91.61 14.06L91.39 13.95C91.22 13.85 91.01 13.74 90.78 13.59C90.54 13.44 90.25 13.31 89.95 13.14L89.71 13.01L89.45 12.89L88.89 12.63C88.7 12.53 88.48 12.47 88.27 12.39L87.94 12.26L87.77 12.2L87.59 12.15L86.85 11.94C86.6 11.88 86.33 11.83 86.06 11.78C85.77 11.72 85.49 11.68 85.21 11.66C85.06 11.65 84.91 11.63 84.76 11.62L84.31 11.62L83.85 11.62L83.38 11.67L82.9 11.71L82.38 11.78L80.19 12.09L75.35 12.73C71.95 13.18 68.2 13.64 64.27 14.1C56.39 15.03 49.26 15.76 44.08 16.22C43.49 16.25 42.9 16.33 42.31 16.44C41.81 16.54 41.31 16.7 40.84 16.91C40.06 17.24 39.37 17.69 38.75 18.27C38.35 18.64 37.99 19.04 37.66 19.48C37.4 19.76 37.27 19.93 37.22 19.9Z" fill="#FFFFFF" fill-opacity="1.000000" fill-rule="nonzero"/>
				</g>
				<g opacity="0.860000">
					<path id="path" d="M37.3 19.74C37.25 19.72 37.3 19.51 37.44 19.15C37.69 18.62 38 18.13 38.39 17.7C38.66 17.38 38.96 17.08 39.29 16.82C39.69 16.5 40.11 16.22 40.56 15.99C41.08 15.73 41.62 15.52 42.18 15.37C42.48 15.29 42.79 15.22 43.11 15.17C43.43 15.12 43.73 15.08 44.05 15.03C49.16 14.28 56.24 13.37 64.05 12.45C67.97 11.99 71.69 11.57 75.08 11.21L79.91 10.72L82.09 10.52L82.61 10.47C82.78 10.45 82.97 10.45 83.15 10.44L83.68 10.42C83.85 10.42 84.03 10.42 84.2 10.44C85.42 10.51 86.6 10.77 87.74 11.23C87.86 11.28 87.98 11.33 88.1 11.38L88.44 11.54L89.07 11.85C89.46 12.09 89.82 12.29 90.13 12.5C90.43 12.72 90.69 12.92 90.91 13.09C91.14 13.26 91.3 13.45 91.44 13.58C91.55 13.68 91.65 13.79 91.74 13.91C91.8 13.99 91.82 14.05 91.8 14.07C91.78 14.09 91.73 14.07 91.64 14.03C91.5 13.97 91.37 13.91 91.25 13.84C91.08 13.75 90.88 13.63 90.65 13.48C90.41 13.33 90.12 13.21 89.82 13.04C89.52 12.87 89.14 12.72 88.76 12.54L88.14 12.3L87.81 12.18C87.69 12.14 87.58 12.11 87.46 12.08C86.39 11.73 85.3 11.56 84.18 11.57C84.03 11.56 83.87 11.56 83.72 11.57L83.25 11.61C83.09 11.63 82.94 11.63 82.77 11.66L82.25 11.73L80.07 12.03L75.27 12.67C71.88 13.11 68.16 13.57 64.25 14.03C56.42 14.94 49.33 15.69 44.18 16.15C43.87 16.18 43.54 16.2 43.25 16.23C42.96 16.26 42.68 16.3 42.41 16.35C41.91 16.45 41.41 16.6 40.94 16.8C40.52 16.97 40.12 17.18 39.74 17.42C39.42 17.63 39.11 17.87 38.83 18.12C38.43 18.48 38.06 18.88 37.72 19.3C37.48 19.61 37.34 19.77 37.3 19.74Z" fill="#FFFFFF" fill-opacity="1.000000" fill-rule="nonzero"/>
				</g>
				<g opacity="0.880000">
					<path id="path" d="M37.38 19.59C37.33 19.56 37.38 19.36 37.55 19.01C37.8 18.49 38.13 18.02 38.52 17.6C39.15 16.92 39.88 16.37 40.71 15.97C41.23 15.72 41.77 15.52 42.33 15.38C42.48 15.35 42.62 15.31 42.78 15.28L43.25 15.2L44.18 15.06C49.26 14.33 56.29 13.42 64.07 12.51C67.95 12.05 71.66 11.64 75.03 11.28L79.82 10.79L82 10.58C82.35 10.55 82.67 10.51 83.03 10.5L83.55 10.48L83.81 10.47L84.07 10.48L84.56 10.52C84.73 10.53 84.89 10.54 85.05 10.57L85.96 10.73L86.81 10.96L87.02 11.01L87.21 11.08L87.59 11.23C88.04 11.4 88.49 11.6 88.92 11.82C89.32 12.03 89.66 12.26 89.98 12.45C90.29 12.63 90.54 12.86 90.77 13.02C90.87 13.1 90.97 13.18 91.06 13.27C91.15 13.36 91.23 13.43 91.3 13.5C91.58 13.77 91.71 13.92 91.67 13.96C91.63 14 91.45 13.92 91.12 13.74L90.85 13.58C90.75 13.52 90.64 13.45 90.52 13.39L89.69 12.95C89.37 12.8 89.02 12.63 88.63 12.46C88.2 12.29 87.77 12.14 87.33 12.01L86.96 11.91L86.78 11.85L86.59 11.82L85.8 11.65L84.95 11.56C84.8 11.54 84.66 11.54 84.51 11.54L84.06 11.54L83.83 11.54L83.6 11.56L83.13 11.6C82.82 11.62 82.47 11.69 82.13 11.73L79.96 12.03L75.19 12.65C71.82 13.08 68.12 13.54 64.23 14C56.46 14.91 49.41 15.66 44.3 16.12L43.36 16.2L42.94 16.25C42.8 16.27 42.66 16.29 42.52 16.31C42.02 16.41 41.52 16.54 41.04 16.73C40.26 17.04 39.55 17.47 38.91 18.01C38.51 18.37 38.13 18.75 37.79 19.17C37.56 19.46 37.42 19.61 37.38 19.59Z" fill="#FFFFFF" fill-opacity="1.000000" fill-rule="nonzero"/>
				</g>
				<g opacity="0.900000">
					<path id="path" d="M37.46 19.43C37.42 19.41 37.46 19.21 37.65 18.87C37.91 18.36 38.25 17.91 38.65 17.5C38.93 17.2 39.25 16.93 39.58 16.68C39.98 16.39 40.41 16.15 40.86 15.94C41.37 15.7 41.91 15.51 42.47 15.39C42.75 15.31 43.07 15.27 43.37 15.22L44.3 15.09C49.35 14.37 56.33 13.47 64.06 12.56C67.93 12.11 71.61 11.7 74.96 11.34L79.72 10.85L81.88 10.64L82.4 10.59C82.57 10.57 82.73 10.55 82.91 10.55L83.43 10.53C83.6 10.52 83.77 10.52 83.94 10.53C85.14 10.56 86.31 10.79 87.43 11.22C87.68 11.31 87.92 11.39 88.14 11.49L88.76 11.8C88.86 11.84 88.96 11.89 89.05 11.94L89.32 12.1L89.81 12.4C91.03 13.2 91.57 13.81 91.52 13.87C91.47 13.93 90.81 13.49 89.55 12.86L89.05 12.63L88.78 12.5C88.69 12.46 88.59 12.43 88.49 12.39L87.87 12.16C87.67 12.08 87.42 12.02 87.19 11.95C86.13 11.63 85.04 11.48 83.93 11.5C83.77 11.5 83.62 11.51 83.47 11.53L83 11.57C82.85 11.57 82.68 11.61 82.51 11.63L82 11.7L79.85 11.99L75.11 12.62C71.76 13.04 68.08 13.49 64.22 13.95C56.49 14.85 49.48 15.61 44.4 16.07L43.47 16.15C43.18 16.19 42.91 16.21 42.63 16.26C42.13 16.35 41.63 16.48 41.15 16.66C40.73 16.82 40.32 17.02 39.93 17.25C39.61 17.44 39.3 17.66 39 17.91C38.59 18.25 38.21 18.63 37.87 19.04C37.63 19.29 37.51 19.46 37.46 19.43Z" fill="#FFFFFF" fill-opacity="1.000000" fill-rule="nonzero"/>
				</g>
				<g opacity="0.920000">
					<path id="path" d="M37.55 19.28C37.51 19.26 37.58 19.07 37.76 18.73C38.04 18.24 38.39 17.8 38.79 17.4C38.92 17.27 39.07 17.14 39.22 17.01C39.37 16.87 39.55 16.74 39.73 16.62C40.14 16.34 40.56 16.1 41.01 15.91C41.53 15.68 42.06 15.51 42.62 15.39C43.21 15.27 43.8 15.2 44.43 15.11C49.45 14.41 56.39 13.52 64.08 12.62C67.92 12.17 71.58 11.76 74.91 11.4L79.64 10.9L81.78 10.7C82.13 10.67 82.46 10.63 82.8 10.6L83.82 10.56C85.01 10.59 86.16 10.8 87.29 11.19L87.99 11.46C88.21 11.55 88.42 11.67 88.61 11.75C88.97 11.93 89.33 12.12 89.67 12.33C89.94 12.5 90.21 12.68 90.46 12.88C90.65 13.01 90.83 13.16 91.01 13.31C91.28 13.57 91.42 13.73 91.39 13.76C91.36 13.79 91.18 13.71 90.86 13.52C90.71 13.42 90.49 13.32 90.26 13.19C90.02 13.06 89.75 12.9 89.43 12.77C89.09 12.6 88.73 12.44 88.37 12.3C88.17 12.23 87.97 12.15 87.75 12.07L87.07 11.86C86.01 11.57 84.92 11.43 83.82 11.45L82.89 11.53L81.89 11.66L79.75 11.95L75.04 12.57C71.71 12.99 68.06 13.44 64.21 13.89C56.53 14.79 49.58 15.54 44.53 16.02C43.9 16.08 43.29 16.12 42.76 16.2C42.25 16.28 41.75 16.41 41.27 16.58C40.84 16.73 40.44 16.92 40.05 17.15C39.86 17.24 39.71 17.35 39.54 17.46C39.38 17.57 39.24 17.67 39.11 17.79C38.7 18.12 38.31 18.49 37.96 18.89C37.73 19.16 37.59 19.29 37.55 19.28Z" fill="#FFFFFF" fill-opacity="1.000000" fill-rule="nonzero"/>
				</g>
				<g opacity="0.940000">
					<path id="path" d="M37.64 19.13C37.61 19.11 37.68 18.92 37.87 18.59C38.17 18.11 38.52 17.69 38.93 17.31C39.59 16.7 40.34 16.22 41.17 15.88C41.68 15.67 42.22 15.51 42.76 15.4C43.35 15.29 43.93 15.22 44.56 15.13C49.55 14.44 56.45 13.57 64.08 12.67C67.9 12.23 71.54 11.82 74.85 11.46L79.55 10.96L81.68 10.75L82.68 10.65C83.02 10.63 83.36 10.62 83.69 10.6C84.87 10.61 86.02 10.81 87.14 11.18C87.59 11.33 88.03 11.51 88.46 11.71L89.03 11.99L89.52 12.27L89.95 12.54L90.32 12.79C90.54 12.96 90.73 13.1 90.87 13.21C91.15 13.46 91.28 13.61 91.26 13.65C91.23 13.68 91.05 13.59 90.74 13.4C90.57 13.32 90.37 13.21 90.14 13.08L89.76 12.87L89.31 12.67L88.81 12.43L88.25 12.21C87.83 12.05 87.4 11.91 86.96 11.79C85.89 11.51 84.81 11.38 83.71 11.41C83.41 11.44 83.1 11.46 82.78 11.5L81.78 11.63L79.66 11.91L74.98 12.51C71.68 12.93 68.04 13.37 64.23 13.82C56.6 14.72 49.68 15.46 44.66 15.95C44.05 16.01 43.43 16.05 42.9 16.13C42.39 16.2 41.89 16.32 41.4 16.49C40.62 16.76 39.89 17.14 39.23 17.65C38.81 17.97 38.42 18.34 38.07 18.73C37.81 19 37.68 19.16 37.64 19.13Z" fill="#FFFFFF" fill-opacity="1.000000" fill-rule="nonzero"/>
				</g>
				<g opacity="0.960000">
					<path id="path" d="M37.74 18.98C37.71 18.96 37.78 18.78 37.99 18.46C38.3 18 38.66 17.58 39.07 17.21C39.37 16.95 39.69 16.71 40.04 16.49C40.44 16.24 40.87 16.03 41.32 15.85C41.83 15.66 42.36 15.51 42.91 15.41C43.2 15.36 43.49 15.32 43.78 15.28L44.69 15.16C49.64 14.48 56.51 13.61 64.09 12.73C67.88 12.28 71.5 11.87 74.79 11.51L79.46 11.01L81.58 10.79L82.57 10.69C82.9 10.66 83.24 10.66 83.56 10.64C84.73 10.63 85.87 10.8 86.99 11.15C87.82 11.42 88.61 11.77 89.36 12.21C90.6 12.92 91.16 13.48 91.12 13.54C91.08 13.59 90.43 13.15 89.18 12.57C88.42 12.21 87.64 11.93 86.83 11.71C85.77 11.44 84.68 11.33 83.59 11.38C83.28 11.41 82.99 11.42 82.66 11.46L81.67 11.6L79.56 11.88L74.9 12.47C71.61 12.89 68 13.32 64.21 13.77C56.63 14.66 49.75 15.4 44.77 15.89L43.86 15.98C43.56 16.01 43.27 16.04 43.01 16.07C42.5 16.14 42 16.25 41.51 16.41C41.09 16.55 40.68 16.72 40.28 16.93C39.94 17.11 39.63 17.31 39.32 17.53C38.9 17.85 38.51 18.2 38.15 18.59C37.9 18.86 37.77 19 37.74 18.98Z" fill="#FFFFFF" fill-opacity="1.000000" fill-rule="nonzero"/>
				</g>
				<g opacity="0.980000">
					<path id="path" d="M37.84 18.84C37.81 18.82 37.9 18.64 38.11 18.33C38.42 17.88 38.79 17.48 39.22 17.13C39.35 17.01 39.5 16.9 39.66 16.78C39.82 16.66 40 16.55 40.19 16.44C40.6 16.2 41.02 16 41.47 15.84C41.98 15.65 42.51 15.51 43.05 15.42C43.62 15.33 44.2 15.26 44.81 15.18C49.74 14.51 56.57 13.66 64.1 12.78C67.86 12.33 71.46 11.93 74.72 11.57L79.37 11.07L81.47 10.85C82.15 10.78 82.78 10.7 83.44 10.68C83.6 10.68 83.75 10.66 83.91 10.67L84.37 10.7L84.82 10.73C84.97 10.74 85.12 10.77 85.26 10.79L85.67 10.86C85.81 10.88 85.95 10.9 86.08 10.94L86.84 11.14C87.09 11.2 87.31 11.31 87.53 11.38C87.74 11.45 87.95 11.54 88.15 11.63L88.71 11.89L88.97 12.01C89.05 12.06 89.13 12.11 89.2 12.15C89.51 12.33 89.78 12.48 90.01 12.63C90.23 12.78 90.42 12.93 90.56 13.05C90.86 13.27 90.99 13.42 90.97 13.44C90.96 13.47 90.79 13.37 90.46 13.21C90.3 13.12 90.1 13.01 89.87 12.88C89.64 12.75 89.35 12.64 89.04 12.49L88.81 12.37L88.55 12.27L87.99 12.05C87.8 11.97 87.58 11.92 87.37 11.84C87.17 11.77 86.94 11.7 86.7 11.65L85.97 11.5C85.84 11.47 85.71 11.45 85.58 11.44L85.18 11.39C85.04 11.38 84.91 11.35 84.77 11.34L84.34 11.34L83.91 11.34C83.76 11.34 83.61 11.36 83.46 11.37C82.87 11.4 82.23 11.51 81.55 11.59L79.45 11.86L74.82 12.45C71.56 12.86 67.97 13.29 64.2 13.73C56.66 14.62 49.84 15.37 44.89 15.86C44.27 15.93 43.67 15.98 43.13 16.04C42.62 16.1 42.12 16.2 41.63 16.36C41.21 16.49 40.79 16.65 40.4 16.86C40.21 16.94 40.04 17.05 39.88 17.14C39.71 17.23 39.57 17.34 39.43 17.44C39 17.75 38.61 18.1 38.24 18.48C38 18.72 37.87 18.85 37.84 18.84Z" fill="#FFFFFF" fill-opacity="1.000000" fill-rule="nonzero"/>
				</g>
				<path id="path" d="M37.94 18.7C37.92 18.68 38 18.5 38.23 18.21C38.55 17.77 38.93 17.38 39.36 17.05C40.05 16.51 40.8 16.1 41.63 15.82C42.14 15.65 42.66 15.52 43.2 15.44L44.95 15.21C49.85 14.56 56.62 13.71 64.11 12.84C67.85 12.4 71.42 11.99 74.67 11.63L79.28 11.13L81.37 10.91L82.35 10.8C82.52 10.79 82.67 10.77 82.84 10.76L83.32 10.73L83.79 10.71C83.94 10.71 84.09 10.73 84.25 10.73L84.69 10.76C84.77 10.76 84.84 10.76 84.91 10.78L85.12 10.81L85.94 10.94L86.69 11.14C86.93 11.2 87.16 11.27 87.38 11.36L88 11.59C88.39 11.77 88.74 11.93 89.05 12.09L89.86 12.56C90.08 12.71 90.27 12.85 90.41 12.95C90.71 13.17 90.85 13.3 90.83 13.33C90.65 13.28 90.48 13.2 90.32 13.1C90.16 13.01 89.97 12.89 89.73 12.78L88.91 12.38C88.6 12.24 88.24 12.12 87.86 11.97L87.24 11.78C87.02 11.7 86.79 11.64 86.56 11.6L85.84 11.44L85.05 11.34L84.84 11.32C84.78 11.32 84.71 11.32 84.64 11.32L84.22 11.31C84.08 11.31 83.94 11.29 83.79 11.31L83.35 11.34L82.89 11.38C82.74 11.39 82.58 11.42 82.42 11.44L81.44 11.56L79.35 11.82L74.75 12.4C71.51 12.8 67.95 13.23 64.2 13.67C56.71 14.55 49.93 15.3 45.01 15.8L43.26 15.98C42.75 16.03 42.25 16.13 41.76 16.27C40.97 16.5 40.23 16.85 39.55 17.31C39.12 17.61 38.72 17.94 38.35 18.32C38.09 18.57 37.97 18.72 37.94 18.7Z" fill="#FFFFFF" fill-opacity="1.000000" fill-rule="nonzero"/>
			</g>
		</g>
	</g>
</svg>
