<svg width="120.000000" height="120.000000" viewBox="0 0 120 120" fill="none" xmlns="http://www.w3.org/2000/svg" xmlns:xlink="http://www.w3.org/1999/xlink">
	<desc>
		Created with Pixso.
	</desc>
	<defs>
		<clipPath id="clip9_5442">
			<rect id="svg" width="120.000000" height="120.000000" fill="white" fill-opacity="0"/>
		</clipPath>
	</defs>
	<g clip-path="url(#clip9_5442)">
		<g opacity="0.400000">
			<path id="形状结合" d="M91.34 83.96L94.95 87.57C94.59 88.46 94.74 89.5 95.39 90.26L95.53 90.41L98.73 93.6C98.11 95.33 96.5 96.59 94.58 96.68L94.36 96.68L66.64 96.68C63.12 96.68 58.81 97.27 56.24 99.9C55.84 100.31 55.46 100.51 55.11 100.49L55 100.47L55 97.85C59.61 95.05 64.63 92.59 70.05 90.49C72.39 89.58 74.73 88.76 77.09 88.03C77.91 88.14 78.75 88.2 79.6 88.2C83.91 88.2 87.87 86.72 91.01 84.23L91.34 83.96ZM94.36 33.25C96.85 33.25 98.88 35.21 98.99 37.67L99 37.88L99 86.06C98.34 85.66 97.54 85.58 96.83 85.81L96.65 85.87L93.08 82.31C96.09 79.03 97.97 74.63 97.97 69.83C97.97 62.13 93.23 55.54 86.51 52.81L86.51 33.25L94.36 33.25Z" fill="#A1A7B3" fill-opacity="1.000000" fill-rule="evenodd"/>
			<path id="形状结合" d="M94.95 87.57C94.59 88.46 94.74 89.5 95.39 90.26L95.53 90.41L98.73 93.6C98.11 95.33 96.5 96.59 94.58 96.68L94.36 96.68L66.64 96.68C63.12 96.68 58.81 97.27 56.24 99.9C55.84 100.31 55.46 100.51 55.11 100.49L55 100.47L55 97.85C59.61 95.05 64.63 92.59 70.05 90.49C72.39 89.58 74.73 88.76 77.09 88.03C77.91 88.14 78.75 88.2 79.6 88.2C83.91 88.2 87.87 86.72 91.01 84.23L91.34 83.96L94.95 87.57ZM98.99 37.67L99 37.88L99 86.06C98.34 85.66 97.54 85.58 96.83 85.81L96.65 85.87L93.08 82.31C96.09 79.03 97.97 74.63 97.97 69.83C97.97 62.13 93.23 55.54 86.51 52.81L86.51 33.25L94.36 33.25C96.85 33.25 98.88 35.21 98.99 37.67Z" stroke="#000000" stroke-opacity="0" stroke-width="1.000000"/>
		</g>
		<g opacity="0.100000">
			<path id="形状结合" d="M23.48 33.25L23.48 64.57L20.35 64.57C20.13 64.57 19.93 64.62 19.74 64.71L19.6 64.79C18.97 65.2 18.79 66.05 19.2 66.68L20.23 68.26C20.52 68.71 20.52 69.29 20.23 69.75L19.2 71.32C19.06 71.55 18.98 71.8 18.98 72.07C18.98 72.82 19.59 73.43 20.35 73.43L23.48 73.43L23.48 81.9L23.48 82.12C23.58 84.16 25 85.91 27 86.4C31.36 87.46 35.67 88.83 39.94 90.49C45.36 92.59 50.38 95.05 55 97.85L55 100.47L54.88 100.49C54.53 100.51 54.15 100.31 53.75 99.9C51.18 97.27 46.87 96.68 43.35 96.68L15.63 96.68L15.41 96.68C12.96 96.56 11 94.54 11 92.05L11 37.88L11 37.67C11.11 35.21 13.14 33.25 15.63 33.25L23.48 33.25Z" fill="#A1A7B3" fill-opacity="1.000000" fill-rule="evenodd"/>
			<path id="形状结合" d="M23.48 64.57L20.35 64.57C20.13 64.57 19.93 64.62 19.74 64.71L19.6 64.79C18.97 65.2 18.79 66.05 19.2 66.68L20.23 68.26C20.52 68.71 20.52 69.29 20.23 69.75L19.2 71.32C19.06 71.55 18.98 71.8 18.98 72.07C18.98 72.82 19.59 73.43 20.35 73.43L23.48 73.43L23.48 81.9L23.48 82.12C23.58 84.16 25 85.91 27 86.4C31.36 87.46 35.67 88.83 39.94 90.49C45.36 92.59 50.38 95.05 55 97.85L55 100.47L54.88 100.49C54.53 100.51 54.15 100.31 53.75 99.9C51.18 97.27 46.87 96.68 43.35 96.68L15.63 96.68L15.41 96.68C12.96 96.56 11 94.54 11 92.05L11 37.88L11 37.67C11.11 35.21 13.14 33.25 15.63 33.25L23.48 33.25L23.48 64.57Z" stroke="#000000" stroke-opacity="0" stroke-width="1.000000"/>
		</g>
		<g opacity="0.200000">
			<path id="形状结合" d="M86.46 21.79C86.49 21.96 86.51 22.14 86.51 22.31L86.52 52.81C84.38 51.94 82.04 51.46 79.6 51.46C69.45 51.46 61.23 59.69 61.23 69.83C61.23 79.13 68.13 86.81 77.09 88.03C74.73 88.76 72.39 89.58 70.05 90.49C64.63 92.59 59.61 95.05 55 97.85L54.07 97.3C49.71 94.72 45 92.45 39.94 90.49C35.67 88.83 31.36 87.46 27 86.4C25 85.91 23.58 84.16 23.48 82.12L23.48 81.9L23.47 73.43L31.66 73.43C32.37 73.43 32.95 72.89 33.02 72.2L33.02 72.07L33.02 65.93C33.02 65.23 32.48 64.64 31.79 64.58L31.66 64.57L23.47 64.57L23.48 22.31C23.48 22.14 23.5 21.96 23.53 21.79C23.82 20.54 25.07 19.77 26.31 20.05C36.65 22.44 43.77 24.26 47.66 25.52C51.8 26.85 54.23 29.73 54.94 34.16L55 34.52C55.64 29.88 58.08 26.88 62.33 25.52C66.22 24.26 73.34 22.44 83.68 20.05C84.92 19.77 86.17 20.54 86.46 21.79ZM53.57 56.55C52.87 56.26 52.08 56.6 51.8 57.3C51.51 57.99 51.85 58.79 52.55 59.07L59.14 61.73C59.83 62.01 60.63 61.68 60.91 60.98C61.19 60.28 60.85 59.49 60.16 59.21L53.57 56.55ZM59.19 48.21C58.59 47.76 57.74 47.88 57.28 48.48C56.83 49.08 56.95 49.93 57.55 50.39L63.23 54.66C63.83 55.12 64.68 55 65.13 54.4C65.58 53.8 65.46 52.94 64.86 52.49L59.19 48.21ZM65.7 41.62C65.24 41.02 64.38 40.92 63.79 41.38C63.2 41.84 63.09 42.7 63.56 43.29L67.93 48.89C68.39 49.48 69.25 49.59 69.84 49.12C70.43 48.66 70.54 47.81 70.08 47.21L65.7 41.62Z" fill="#A1A7B3" fill-opacity="1.000000" fill-rule="evenodd"/>
			<path id="形状结合" d="M86.51 22.31L86.52 52.81C84.38 51.94 82.04 51.46 79.6 51.46C69.45 51.46 61.23 59.69 61.23 69.83C61.23 79.13 68.13 86.81 77.09 88.03C74.73 88.76 72.39 89.58 70.05 90.49C64.63 92.59 59.61 95.05 55 97.85L54.07 97.3C49.71 94.72 45 92.45 39.94 90.49C35.67 88.83 31.36 87.46 27 86.4C25 85.91 23.58 84.16 23.48 82.12L23.48 81.9L23.47 73.43L31.66 73.43C32.37 73.43 32.95 72.89 33.02 72.2L33.02 72.07L33.02 65.93C33.02 65.23 32.48 64.64 31.79 64.58L31.66 64.57L23.47 64.57L23.48 22.31C23.48 22.14 23.5 21.96 23.53 21.79C23.82 20.54 25.07 19.77 26.31 20.05C36.65 22.44 43.77 24.26 47.66 25.52C51.8 26.85 54.23 29.73 54.94 34.16L55 34.52C55.64 29.88 58.08 26.88 62.33 25.52C66.22 24.26 73.34 22.44 83.68 20.05C84.92 19.77 86.17 20.54 86.46 21.79C86.49 21.96 86.51 22.14 86.51 22.31ZM51.8 57.3C51.51 57.99 51.85 58.79 52.55 59.07L59.14 61.73C59.83 62.01 60.63 61.68 60.91 60.98C61.19 60.28 60.85 59.49 60.16 59.21L53.57 56.55C52.87 56.26 52.08 56.6 51.8 57.3ZM57.28 48.48C56.83 49.08 56.95 49.93 57.55 50.39L63.23 54.66C63.83 55.12 64.68 55 65.13 54.4C65.58 53.8 65.46 52.94 64.86 52.49L59.19 48.21C58.59 47.76 57.74 47.88 57.28 48.48ZM63.79 41.38C63.2 41.84 63.09 42.7 63.56 43.29L67.93 48.89C68.39 49.48 69.25 49.59 69.84 49.12C70.43 48.66 70.54 47.81 70.08 47.21L65.7 41.62C65.24 41.02 64.38 40.92 63.79 41.38Z" stroke="#000000" stroke-opacity="0" stroke-width="1.000000"/>
		</g>
		<g opacity="0.100000">
			<path id="形状结合" d="M86.46 21.79C86.49 21.96 86.51 22.14 86.51 22.31L86.51 52.81C84.38 51.94 82.04 51.46 79.6 51.46C69.45 51.46 61.23 59.69 61.23 69.83C61.23 79.13 68.13 86.81 77.09 88.03C74.73 88.76 72.39 89.58 70.05 90.49C64.63 92.59 59.61 95.05 55 97.85L54.99 60.06L59.14 61.73C59.79 61.99 60.53 61.72 60.85 61.11L60.91 60.98C61.19 60.28 60.85 59.49 60.16 59.21L54.99 57.12L55 34.52C55.64 29.88 58.08 26.88 62.33 25.52C66.22 24.26 73.34 22.44 83.68 20.05C84.92 19.77 86.17 20.54 86.46 21.79ZM59.19 48.21C58.59 47.76 57.74 47.88 57.28 48.48C56.83 49.08 56.95 49.93 57.55 50.39L63.23 54.66C63.83 55.12 64.68 55 65.13 54.4C65.58 53.8 65.46 52.94 64.86 52.49L59.19 48.21ZM65.7 41.62C65.24 41.02 64.38 40.92 63.79 41.38C63.2 41.84 63.09 42.7 63.56 43.29L67.93 48.89C68.39 49.48 69.25 49.59 69.84 49.12C70.43 48.66 70.54 47.81 70.08 47.21L65.7 41.62Z" fill="#A1A7B3" fill-opacity="1.000000" fill-rule="evenodd"/>
			<path id="形状结合" d="M86.51 22.31L86.51 52.81C84.38 51.94 82.04 51.46 79.6 51.46C69.45 51.46 61.23 59.69 61.23 69.83C61.23 79.13 68.13 86.81 77.09 88.03C74.73 88.76 72.39 89.58 70.05 90.49C64.63 92.59 59.61 95.05 55 97.85L54.99 60.06L59.14 61.73C59.79 61.99 60.53 61.72 60.85 61.11L60.91 60.98C61.19 60.28 60.85 59.49 60.16 59.21L54.99 57.12L55 34.52C55.64 29.88 58.08 26.88 62.33 25.52C66.22 24.26 73.34 22.44 83.68 20.05C84.92 19.77 86.17 20.54 86.46 21.79C86.49 21.96 86.51 22.14 86.51 22.31ZM57.28 48.48C56.83 49.08 56.95 49.93 57.55 50.39L63.23 54.66C63.83 55.12 64.68 55 65.13 54.4C65.58 53.8 65.46 52.94 64.86 52.49L59.19 48.21C58.59 47.76 57.74 47.88 57.28 48.48ZM63.79 41.38C63.2 41.84 63.09 42.7 63.56 43.29L67.93 48.89C68.39 49.48 69.25 49.59 69.84 49.12C70.43 48.66 70.54 47.81 70.08 47.21L65.7 41.62C65.24 41.02 64.38 40.92 63.79 41.38Z" stroke="#000000" stroke-opacity="0" stroke-width="1.000000"/>
		</g>
		<g opacity="0.300000">
			<path id="矩形" d="M33.02 65.93L33.02 72.07C33.02 72.82 32.41 73.43 31.66 73.43L20.35 73.43C19.59 73.43 18.98 72.82 18.98 72.07C18.98 71.8 19.06 71.55 19.2 71.32L20.23 69.75C20.52 69.29 20.52 68.71 20.23 68.26L19.2 66.68C18.79 66.05 18.97 65.2 19.6 64.79C19.82 64.65 20.08 64.57 20.35 64.57L31.66 64.57C32.41 64.57 33.02 65.18 33.02 65.93Z" fill="#A1A7B3" fill-opacity="1.000000" fill-rule="evenodd"/>
			<path id="矩形" d="M33.02 72.07C33.02 72.82 32.41 73.43 31.66 73.43L20.35 73.43C19.59 73.43 18.98 72.82 18.98 72.07C18.98 71.8 19.06 71.55 19.2 71.32L20.23 69.75C20.52 69.29 20.52 68.71 20.23 68.26L19.2 66.68C18.79 66.05 18.97 65.2 19.6 64.79C19.82 64.65 20.08 64.57 20.35 64.57L31.66 64.57C32.41 64.57 33.02 65.18 33.02 65.93L33.02 72.07Z" stroke="#000000" stroke-opacity="0" stroke-width="1.000000"/>
		</g>
		<g opacity="0.800000">
			<path id="形状结合" d="M93.08 82.31L96.65 85.87C97.6 85.49 98.72 85.68 99.49 86.45L108.73 95.69C109.75 96.71 109.75 98.37 108.73 99.4L108.48 99.65C107.45 100.67 105.79 100.67 104.77 99.65L95.53 90.41C94.76 89.64 94.57 88.52 94.95 87.57L91.34 83.96C91.96 83.45 92.54 82.89 93.08 82.31Z" fill="#A1A7B3" fill-opacity="1.000000" fill-rule="evenodd"/>
			<path id="形状结合" d="M96.65 85.87C97.6 85.49 98.72 85.68 99.49 86.45L108.73 95.69C109.75 96.71 109.75 98.37 108.73 99.4L108.48 99.65C107.45 100.67 105.79 100.67 104.77 99.65L95.53 90.41C94.76 89.64 94.57 88.52 94.95 87.57L91.34 83.96C91.96 83.45 92.54 82.89 93.08 82.31L96.65 85.87Z" stroke="#000000" stroke-opacity="0" stroke-width="1.000000"/>
		</g>
		<g opacity="0.600000">
			<path id="形状结合" d="M79.6 51.46C89.74 51.46 97.97 59.69 97.97 69.83C97.97 79.98 89.74 88.2 79.6 88.2C69.45 88.2 61.23 79.98 61.23 69.83C61.23 59.69 69.45 51.46 79.6 51.46ZM79.6 55.55C71.71 55.55 65.31 61.94 65.31 69.83C65.31 77.72 71.71 84.12 79.6 84.12C87.49 84.12 93.88 77.72 93.88 69.83C93.88 61.94 87.49 55.55 79.6 55.55Z" fill="#A1A7B3" fill-opacity="1.000000" fill-rule="evenodd"/>
			<path id="形状结合" d="M97.97 69.83C97.97 79.98 89.74 88.2 79.6 88.2C69.45 88.2 61.23 79.98 61.23 69.83C61.23 59.69 69.45 51.46 79.6 51.46C89.74 51.46 97.97 59.69 97.97 69.83ZM65.31 69.83C65.31 77.72 71.71 84.12 79.6 84.12C87.49 84.12 93.88 77.72 93.88 69.83C93.88 61.94 87.49 55.55 79.6 55.55C71.71 55.55 65.31 61.94 65.31 69.83Z" stroke="#000000" stroke-opacity="0" stroke-width="1.000000"/>
		</g>
		<g opacity="0.400000">
			<circle id="椭圆形" cx="79.601746" cy="69.837524" r="14.287500" fill="#A1A7B3" fill-opacity="1.000000"/>
			<circle id="椭圆形" cx="79.601746" cy="69.837524" r="14.287500" stroke="#000000" stroke-opacity="0" stroke-width="1.000000"/>
		</g>
		<g opacity="0.300000">
			<rect id="矩形" x="89.984863" y="66.857483" rx="0.680357" width="8.164286" height="1.360714" transform="rotate(105 89.984863 66.857483)" fill="#A1A7B3" fill-opacity="1.000000"/>
			<rect id="矩形" x="89.984863" y="66.857483" rx="0.680357" width="8.164286" height="1.360714" transform="rotate(105 89.984863 66.857483)" stroke="#000000" stroke-opacity="0" stroke-width="1.000000"/>
		</g>
		<g opacity="0.300000">
			<rect id="矩形备份" x="87.415527" y="64.066528" rx="0.680357" width="4.082142" height="1.360714" transform="rotate(105 87.415527 64.066528)" fill="#A1A7B3" fill-opacity="1.000000"/>
			<rect id="矩形备份" x="87.415527" y="64.066528" rx="0.680357" width="4.082142" height="1.360714" transform="rotate(105 87.415527 64.066528)" stroke="#000000" stroke-opacity="0" stroke-width="1.000000"/>
		</g>
		<g opacity="0.600000">
			<path id="形状结合" d="M53.57 56.55L60.16 59.21C60.85 59.49 61.19 60.28 60.91 60.98C60.63 61.68 59.83 62.01 59.14 61.73L52.55 59.07C51.85 58.79 51.51 57.99 51.8 57.3C52.08 56.6 52.87 56.26 53.57 56.55ZM63.79 41.38C64.38 40.92 65.24 41.02 65.7 41.62L70.08 47.21C70.54 47.81 70.43 48.66 69.84 49.12C69.25 49.59 68.39 49.48 67.93 48.89L63.56 43.29C63.09 42.7 63.2 41.84 63.79 41.38ZM57.28 48.48C57.74 47.88 58.59 47.76 59.19 48.21L64.86 52.49C65.46 52.94 65.58 53.8 65.13 54.4C64.68 55 63.83 55.12 63.23 54.66L57.55 50.39C56.95 49.93 56.83 49.08 57.28 48.48Z" fill="#A1A7B3" fill-opacity="1.000000" fill-rule="evenodd"/>
			<path id="形状结合" d="M60.16 59.21C60.85 59.49 61.19 60.28 60.91 60.98C60.63 61.68 59.83 62.01 59.14 61.73L52.55 59.07C51.85 58.79 51.51 57.99 51.8 57.3C52.08 56.6 52.87 56.26 53.57 56.55L60.16 59.21ZM65.7 41.62L70.08 47.21C70.54 47.81 70.43 48.66 69.84 49.12C69.25 49.59 68.39 49.48 67.93 48.89L63.56 43.29C63.09 42.7 63.2 41.84 63.79 41.38C64.38 40.92 65.24 41.02 65.7 41.62ZM59.19 48.21L64.86 52.49C65.46 52.94 65.58 53.8 65.13 54.4C64.68 55 63.83 55.12 63.23 54.66L57.55 50.39C56.95 49.93 56.83 49.08 57.28 48.48C57.74 47.88 58.59 47.76 59.19 48.21Z" stroke="#000000" stroke-opacity="0" stroke-width="1.000000"/>
		</g>
		<ellipse id="椭圆形" cx="55.000000" cy="105.901367" rx="23.984863" ry="2.007568" fill="#A1A7B3" fill-opacity="0.149020"/>
		<ellipse id="椭圆形" cx="55.000000" cy="105.901367" rx="23.984863" ry="2.007568" stroke="#000000" stroke-opacity="0" stroke-width="1.000000"/>
	</g>
</svg>
