<svg width="36.000000" height="36.000000" viewBox="0 0 36 36" fill="none" xmlns="http://www.w3.org/2000/svg" xmlns:xlink="http://www.w3.org/1999/xlink">
	<desc>
		Created with Pixso.
	</desc>
	<defs/>
	<path id="path1" d="M1.12 17.98C1.12 15.35 1.11 12.71 1.12 10.07C1.12 8.8 1.28 7.53 1.59 6.29C2.28 3.67 3.99 2.12 6.6 1.52C7.91 1.23 9.25 1.1 10.59 1.12C15.65 1.12 20.7 1.12 25.76 1.12C27.03 1.11 28.31 1.26 29.55 1.56C32.24 2.22 33.86 3.92 34.47 6.61C34.75 7.87 34.88 9.17 34.87 10.47C34.87 15.58 34.87 20.69 34.87 25.8C34.88 27.06 34.73 28.32 34.44 29.55C33.78 32.25 32.06 33.86 29.38 34.47C28.07 34.75 26.73 34.89 25.39 34.87C20.35 34.87 15.32 34.87 10.29 34.87C9 34.88 7.72 34.73 6.46 34.44C3.76 33.78 2.14 32.07 1.52 29.37C1.21 28 1.12 26.62 1.12 25.24C1.12 22.82 1.12 20.4 1.12 17.98Z" fill="#FFFFFF" fill-opacity="0" fill-rule="nonzero"/>
	<path id="path1" d="M1.12 10.07C1.12 8.8 1.28 7.53 1.59 6.29C2.28 3.67 3.99 2.12 6.6 1.52C7.91 1.23 9.25 1.1 10.59 1.12C15.65 1.12 20.7 1.12 25.76 1.12C27.03 1.11 28.31 1.26 29.55 1.56C32.24 2.22 33.86 3.92 34.47 6.61C34.75 7.87 34.88 9.17 34.87 10.47C34.87 15.58 34.87 20.69 34.87 25.8C34.88 27.06 34.73 28.32 34.44 29.55C33.78 32.25 32.06 33.86 29.38 34.47C28.07 34.75 26.73 34.89 25.39 34.87C20.35 34.87 15.32 34.87 10.29 34.87C9 34.88 7.72 34.73 6.46 34.44C3.76 33.78 2.14 32.07 1.52 29.37C1.21 28 1.12 26.62 1.12 25.24C1.12 22.82 1.12 20.4 1.12 17.98C1.12 15.35 1.11 12.71 1.12 10.07Z" stroke="#FFFFFF" stroke-opacity="0" stroke-width="1.995000"/>
	<g opacity="0.200000">
		<path id="path2" d="M1.12 17.98C1.12 15.35 1.11 12.71 1.12 10.07C1.12 8.8 1.28 7.53 1.59 6.29C2.28 3.67 3.99 2.12 6.6 1.52C7.91 1.23 9.25 1.1 10.59 1.12C15.65 1.12 20.7 1.12 25.76 1.12C27.03 1.11 28.31 1.26 29.55 1.56C32.24 2.22 33.86 3.92 34.47 6.61C34.75 7.87 34.88 9.17 34.87 10.47C34.87 15.58 34.87 20.69 34.87 25.8C34.88 27.06 34.73 28.32 34.44 29.55C33.78 32.25 32.06 33.86 29.38 34.47C28.07 34.75 26.73 34.89 25.39 34.87C20.35 34.87 15.32 34.87 10.29 34.87C9 34.88 7.72 34.73 6.46 34.44C3.76 33.78 2.14 32.07 1.52 29.37C1.21 28 1.12 26.62 1.12 25.24C1.12 22.82 1.12 20.4 1.12 17.98Z" fill="#000000" fill-opacity="0" fill-rule="nonzero"/>
		<path id="path2" d="M1.12 10.07C1.12 8.8 1.28 7.53 1.59 6.29C2.28 3.67 3.99 2.12 6.6 1.52C7.91 1.23 9.25 1.1 10.59 1.12C15.65 1.12 20.7 1.12 25.76 1.12C27.03 1.11 28.31 1.26 29.55 1.56C32.24 2.22 33.86 3.92 34.47 6.61C34.75 7.87 34.88 9.17 34.87 10.47C34.87 15.58 34.87 20.69 34.87 25.8C34.88 27.06 34.73 28.32 34.44 29.55C33.78 32.25 32.06 33.86 29.38 34.47C28.07 34.75 26.73 34.89 25.39 34.87C20.35 34.87 15.32 34.87 10.29 34.87C9 34.88 7.72 34.73 6.46 34.44C3.76 33.78 2.14 32.07 1.52 29.37C1.21 28 1.12 26.62 1.12 25.24C1.12 22.82 1.12 20.4 1.12 17.98C1.12 15.35 1.11 12.71 1.12 10.07Z" stroke="#FFFFFF" stroke-opacity="0" stroke-width="1.995000"/>
	</g>
	<circle id="path3" cx="18.000000" cy="18.000000" r="18.000000" fill="#FFFFFF" fill-opacity="0"/>
	<circle id="path3" cx="18.000000" cy="18.000000" r="18.000000" stroke="#000000" stroke-opacity="0" stroke-width="1.995000"/>
	<path id="path-1" d="M36 33.19L36 36L0 36L0 33.19L36 33.19Z" fill="#FFFFFF" fill-opacity="0" fill-rule="nonzero"/>
	<path id="path-1" d="M36 36L0 36L0 33.19L36 33.19L36 36Z" stroke="#000000" stroke-opacity="0" stroke-width="1.995000"/>
	<mask id="mask9_6539" mask-type="alpha" maskUnits="userSpaceOnUse" x="0.000000" y="33.192017" width="36.000000" height="2.807983">
		<path id="path-1" d="M36 33.19L36 36L0 36L0 33.19L36 33.19Z" fill="#FFFFFF" fill-opacity="1.000000" fill-rule="nonzero"/>
	</mask>
	<g mask="url(#mask9_6539)">
		<circle id="path5" cx="17.625000" cy="27.791992" r="6.750000" fill="#FFFFFF" fill-opacity="0.400000"/>
		<circle id="path5" cx="17.625000" cy="27.791992" r="6.750000" stroke="#FFFFFF" stroke-opacity="0.400000" stroke-width="1.995000" stroke-linejoin="round"/>
	</g>
	<path id="path6" d="M27.12 11.18C25.95 7.03 22.12 3.98 17.56 3.98C13 3.98 9.16 7.04 8 11.2C7.87 11.64 7.77 12.12 7.71 12.61C7.69 12.61 7.67 12.61 7.65 12.61C7.09 12.6 6.65 13.04 6.64 13.6L6.66 13.62L7.64 13.63C7.64 13.7 7.64 13.77 7.64 13.84Q7.64 24.33 3.82 28.87C3.71 29 3.66 29.16 3.65 29.33C3.65 29.72 3.97 30.03 4.36 30.03L31.31 30.03C31.49 30.03 31.66 29.96 31.79 29.84C32.08 29.57 32.09 29.12 31.82 28.84Q27.49 24.3 27.49 13.84C27.49 13.75 27.49 13.65 27.48 13.56C27.46 12.7 27.34 11.91 27.12 11.18Z" fill="#FFFFFF" fill-opacity="0.400000" fill-rule="evenodd"/>
	<path id="path6" d="M27.12 11.18C27.34 11.91 27.46 12.7 27.48 13.56C27.49 13.65 27.49 13.75 27.49 13.84C27.49 20.81 28.93 25.81 31.82 28.84C32.09 29.12 32.08 29.57 31.79 29.84C31.66 29.96 31.49 30.03 31.31 30.03L4.36 30.03C3.97 30.03 3.65 29.72 3.65 29.33C3.66 29.16 3.71 29 3.82 28.87C6.36 25.85 7.64 20.84 7.64 13.84C7.64 13.7 7.64 13.56 7.64 13.43C7.65 13.38 7.65 13.33 7.65 13.28C7.69 12.54 7.81 11.84 8 11.2C9.16 7.04 13 3.98 17.56 3.98C22.12 3.98 25.95 7.03 27.12 11.18ZM7.64 13.84L7.64 13.61" stroke="#FFFFFF" stroke-opacity="0.400000" stroke-width="1.995000" stroke-linejoin="round" stroke-linecap="round"/>
	<line id="path7" x1="17.566284" y1="1.875000" x2="17.566284" y2="3.828186" stroke="#FFFFFF" stroke-opacity="0" stroke-width="1.995000"/>
	<path id="path8" d="M17.56 1.42C17.81 1.42 18.01 1.62 18.01 1.87L18.01 3.82C18.01 4.07 17.81 4.27 17.56 4.27C17.31 4.27 17.11 4.07 17.11 3.82L17.11 1.87C17.11 1.62 17.31 1.42 17.56 1.42Z" fill="#FFFFFF" fill-opacity="0.400000" fill-rule="nonzero"/>
	<path id="path8" d="M18.01 1.87L18.01 3.82C18.01 4.07 17.81 4.27 17.56 4.27C17.31 4.27 17.11 4.07 17.11 3.82L17.11 1.87C17.11 1.62 17.31 1.42 17.56 1.42C17.81 1.42 18.01 1.62 18.01 1.87Z" stroke="#FFFFFF" stroke-opacity="0.400000" stroke-width="1.995000" stroke-linejoin="round"/>
</svg>
