<svg width="16.000000" height="16.000000" viewBox="0 0 16 16" fill="none" xmlns="http://www.w3.org/2000/svg" xmlns:xlink="http://www.w3.org/1999/xlink">
	<desc>
		Created with Pixso.
	</desc>
	<defs>
		<clipPath id="clip9_5559">
			<rect id="ic_public_resetting" width="16.000000" height="16.000000" fill="white" fill-opacity="0"/>
		</clipPath>
	</defs>
	<g clip-path="url(#clip9_5559)">
		<path id="path3 (边框)" d="M8.4 14.87L7.12 13.11C6.96 12.89 6.65 12.84 6.42 13C6.2 13.17 6.15 13.48 6.31 13.7L6.95 14.58C6.81 14.56 6.66 14.53 6.51 14.5C6.13 14.41 5.76 14.29 5.4 14.14C5.03 13.98 4.67 13.79 4.34 13.57C3.96 13.33 3.61 13.04 3.28 12.71C2.95 12.38 2.66 12.03 2.42 11.65C2.2 11.32 2.01 10.96 1.85 10.59C1.7 10.22 1.58 9.85 1.49 9.47C1.38 8.99 1.33 8.5 1.33 8C1.33 7.49 1.38 6.99 1.49 6.51C1.58 6.13 1.7 5.76 1.85 5.4C2.01 5.03 2.2 4.67 2.42 4.34C2.67 3.96 2.95 3.61 3.28 3.28C3.61 2.95 3.96 2.67 4.34 2.42C4.67 2.2 5.03 2.01 5.4 1.85C5.76 1.7 6.13 1.58 6.51 1.49C6.99 1.38 7.49 1.33 8 1.33C8.5 1.33 8.99 1.38 9.47 1.49C9.85 1.58 10.22 1.7 10.59 1.85C10.96 2.01 11.32 2.2 11.65 2.42C12.03 2.66 12.38 2.95 12.71 3.28C13.04 3.61 13.33 3.96 13.57 4.34C13.79 4.67 13.98 5.03 14.14 5.4C14.29 5.76 14.41 6.13 14.5 6.51C14.61 7 14.66 7.49 14.66 8C14.66 8.46 14.61 8.92 14.52 9.36C14.45 9.72 14.34 10.08 14.2 10.43C14.07 10.77 13.91 11.1 13.72 11.41C13.5 11.78 13.24 12.13 12.94 12.46C12.76 12.66 12.77 12.98 12.98 13.16C13.19 13.35 13.5 13.33 13.69 13.13C14.02 12.76 14.32 12.36 14.57 11.94C14.79 11.57 14.98 11.19 15.13 10.79C15.29 10.38 15.42 9.97 15.5 9.55C15.61 9.04 15.66 8.52 15.66 8C15.66 7.42 15.6 6.86 15.48 6.32C15.38 5.87 15.24 5.44 15.06 5.01C14.88 4.58 14.66 4.17 14.4 3.78C14.12 3.35 13.79 2.95 13.42 2.57C13.04 2.2 12.64 1.87 12.21 1.59C11.82 1.33 11.41 1.11 10.98 0.93C10.55 0.75 10.11 0.61 9.67 0.51C9.12 0.39 8.57 0.33 8 0.33C7.42 0.33 6.86 0.39 6.31 0.51C5.87 0.61 5.43 0.75 5.01 0.93C4.58 1.11 4.17 1.33 3.78 1.59C3.35 1.87 2.95 2.2 2.57 2.57C2.2 2.95 1.87 3.35 1.59 3.78C1.33 4.17 1.11 4.58 0.93 5.01C0.75 5.43 0.61 5.87 0.51 6.31C0.39 6.86 0.33 7.42 0.33 8C0.33 8.57 0.39 9.12 0.51 9.67C0.61 10.11 0.75 10.55 0.93 10.98C1.11 11.41 1.33 11.82 1.59 12.21C1.87 12.64 2.2 13.04 2.57 13.42C2.95 13.79 3.35 14.12 3.78 14.4C4.17 14.66 4.58 14.88 5.01 15.06C5.44 15.24 5.87 15.38 6.32 15.48C6.86 15.6 7.42 15.66 8 15.66C8.05 15.66 8.1 15.65 8.15 15.64C8.2 15.62 8.25 15.6 8.29 15.57C8.4 15.48 8.47 15.38 8.49 15.24C8.51 15.1 8.48 14.98 8.4 14.87Z" fill="#ED6F21" fill-opacity="1.000000" fill-rule="evenodd"/>
	</g>
</svg>
