<svg width="16.000000" height="16.000000" viewBox="0 0 16 16" fill="none" xmlns="http://www.w3.org/2000/svg" xmlns:xlink="http://www.w3.org/1999/xlink">
	<desc>
		Created with Pixso.
	</desc>
	<defs>
		<clipPath id="clip10_3115">
			<rect id="ic_public_calendar" width="16.000000" height="16.000000" fill="white" fill-opacity="0"/>
		</clipPath>
	</defs>
	<g clip-path="url(#clip10_3115)">
		<path id="矢量 5" d="M15.33 12.83L15.33 3.83C15.33 3.64 15.31 3.46 15.27 3.28C15.24 3.14 15.19 2.99 15.13 2.85C15 2.55 14.83 2.29 14.6 2.06C14.36 1.83 14.1 1.65 13.8 1.52C13.49 1.39 13.17 1.33 12.83 1.33L3.16 1.33C2.97 1.33 2.79 1.35 2.61 1.39C2.47 1.42 2.33 1.47 2.19 1.52C2.04 1.59 1.91 1.66 1.78 1.74C1.64 1.83 1.51 1.94 1.39 2.06C1.27 2.18 1.17 2.31 1.08 2.45C0.99 2.57 0.92 2.71 0.86 2.85C0.8 2.99 0.75 3.13 0.72 3.28C0.68 3.46 0.66 3.64 0.66 3.83L0.66 12.83C0.66 13.17 0.73 13.49 0.86 13.8C0.98 14.1 1.16 14.36 1.39 14.6C1.51 14.72 1.64 14.82 1.78 14.92C1.91 15 2.05 15.07 2.19 15.13C2.5 15.26 2.82 15.33 3.16 15.33L12.83 15.33C13.17 15.33 13.49 15.26 13.8 15.13C14.1 15 14.37 14.83 14.6 14.6C14.83 14.37 15 14.1 15.13 13.8C15.26 13.49 15.33 13.17 15.33 12.83ZM14.29 3.48C14.32 3.59 14.33 3.71 14.33 3.83L14.33 12.83C14.33 13.03 14.29 13.23 14.21 13.41C14.13 13.59 14.03 13.75 13.89 13.89C13.75 14.03 13.59 14.13 13.41 14.21C13.23 14.29 13.03 14.33 12.83 14.33L3.16 14.33C3.04 14.33 2.93 14.32 2.82 14.29C2.73 14.27 2.66 14.24 2.58 14.21C2.4 14.13 2.24 14.03 2.1 13.89C1.96 13.75 1.85 13.59 1.78 13.41C1.75 13.33 1.72 13.25 1.7 13.17C1.67 13.06 1.66 12.94 1.66 12.83L1.66 3.83C1.66 3.71 1.68 3.59 1.7 3.48C1.72 3.4 1.75 3.32 1.78 3.24C1.81 3.16 1.86 3.08 1.91 3.01C1.96 2.92 2.03 2.84 2.1 2.77C2.17 2.69 2.25 2.63 2.34 2.57C2.41 2.52 2.49 2.48 2.58 2.45C2.65 2.41 2.73 2.39 2.81 2.37C2.92 2.34 3.04 2.33 3.16 2.33L12.83 2.33C13.03 2.33 13.23 2.37 13.41 2.45C13.59 2.52 13.75 2.63 13.89 2.77C13.96 2.84 14.03 2.92 14.09 3.01C14.13 3.08 14.18 3.16 14.21 3.24C14.24 3.32 14.27 3.4 14.29 3.48Z" fill="#000000" fill-opacity="1.000000" fill-rule="evenodd"/>
		<path id="矢量 5" d="M5.8 0.66L5.8 1.84C5.8 2.26 5.47 2.59 5.05 2.59C4.63 2.59 4.3 2.26 4.3 1.84L4.3 0.66C4.3 0.24 4.63 -0.09 5.05 -0.09C5.47 -0.09 5.8 0.24 5.8 0.66ZM11.68 0.66C11.68 0.24 11.36 -0.09 10.93 -0.09C10.52 -0.09 10.18 0.24 10.18 0.66L10.18 1.84C10.18 2.26 10.52 2.59 10.93 2.59C11.36 2.59 11.68 2.26 11.68 1.84L11.68 0.66Z" fill="#000000" fill-opacity="1.000000" fill-rule="evenodd"/>
		<path id="矢量 5" d="M1.16 5.16L14.83 5.16L14.83 6.16L1.16 6.16L1.16 5.16Z" fill="#000000" fill-opacity="1.000000" fill-rule="evenodd"/>
		<path id="矢量 5" d="M8.63 7.44L7.43 7.44C7.28 7.44 7.15 7.57 7.15 7.72L7.15 8.92C7.15 9.08 7.28 9.21 7.43 9.21L8.63 9.21C8.79 9.21 8.92 9.08 8.92 8.92L8.92 7.72C8.92 7.57 8.79 7.44 8.63 7.44ZM12.16 7.44L10.97 7.44C10.81 7.44 10.68 7.57 10.68 7.72L10.68 8.92C10.68 9.08 10.81 9.21 10.97 9.21L12.16 9.21C12.32 9.21 12.45 9.08 12.45 8.92L12.45 7.72C12.45 7.57 12.32 7.44 12.16 7.44ZM3.9 10.98L5.1 10.98C5.26 10.98 5.38 11.1 5.38 11.26L5.38 12.46C5.38 12.62 5.26 12.74 5.1 12.74L3.9 12.74C3.75 12.74 3.62 12.62 3.62 12.46L3.62 11.26C3.62 11.1 3.75 10.98 3.9 10.98ZM8.63 10.98L7.43 10.98C7.28 10.98 7.15 11.1 7.15 11.26L7.15 12.46C7.15 12.62 7.28 12.74 7.43 12.74L8.63 12.74C8.79 12.74 8.92 12.62 8.92 12.46L8.92 11.26C8.92 11.1 8.79 10.98 8.63 10.98Z" fill="#000000" fill-opacity="1.000000" fill-rule="evenodd"/>
		<path id="矢量 5" d="M0.66 6.16L15.33 6.16L15.33 12.83C15.33 14.21 14.21 15.33 12.83 15.33L3.16 15.33C1.78 15.33 0.66 14.21 0.66 12.83L0.66 6.16ZM7.43 7.44L8.63 7.44C8.79 7.44 8.92 7.57 8.92 7.72L8.92 8.92C8.92 9.08 8.79 9.21 8.63 9.21L7.43 9.21C7.28 9.21 7.15 9.08 7.15 8.92L7.15 7.72C7.15 7.57 7.28 7.44 7.43 7.44ZM10.97 7.44L12.16 7.44C12.32 7.44 12.45 7.57 12.45 7.72L12.45 8.92C12.45 9.08 12.32 9.21 12.16 9.21L10.97 9.21C10.81 9.21 10.68 9.08 10.68 8.92L10.68 7.72C10.68 7.57 10.81 7.44 10.97 7.44ZM5.1 10.98L3.9 10.98C3.75 10.98 3.62 11.1 3.62 11.26L3.62 12.46C3.62 12.62 3.75 12.74 3.9 12.74L5.1 12.74C5.26 12.74 5.38 12.62 5.38 12.46L5.38 11.26C5.38 11.1 5.26 10.98 5.1 10.98ZM7.43 10.98L8.63 10.98C8.79 10.98 8.92 11.1 8.92 11.26L8.92 12.46C8.92 12.62 8.79 12.74 8.63 12.74L7.43 12.74C7.28 12.74 7.15 12.62 7.15 12.46L7.15 11.26C7.15 11.1 7.28 10.98 7.43 10.98Z" fill="#FFFFFF" fill-opacity="0" fill-rule="evenodd"/>
		<path id="矢量 5" d="M4.55 1.33L3.16 1.33C1.78 1.33 0.66 2.45 0.66 3.83L0.66 5.16L15.33 5.16L15.33 3.83C15.33 2.45 14.21 1.33 12.83 1.33L11.44 1.33L11.44 0.66C11.44 0.38 11.22 0.16 10.94 0.16C10.66 0.16 10.44 0.38 10.44 0.66L10.44 1.33L5.55 1.33L5.55 0.66C5.55 0.38 5.33 0.16 5.05 0.16C4.77 0.16 4.55 0.38 4.55 0.66L4.55 1.33Z" fill="#FFFFFF" fill-opacity="0" fill-rule="evenodd"/>
	</g>
</svg>
