<svg width="16.000000" height="16.000000" viewBox="0 0 16 16" fill="none" xmlns="http://www.w3.org/2000/svg" xmlns:xlink="http://www.w3.org/1999/xlink">
	<desc>
		Created with Pixso.
	</desc>
	<defs>
		<clipPath id="clip9_5585">
			<rect id="ic_public_calendar" width="16.000000" height="16.000000" fill="white" fill-opacity="0"/>
		</clipPath>
	</defs>
	<g clip-path="url(#clip9_5585)">
		<path id="path1" d="M0 7.99C0 6.74 -0.01 5.49 0 4.24C-0.01 3.63 0.07 3.03 0.22 2.45C0.54 1.2 1.35 0.47 2.59 0.18C3.21 0.05 3.85 -0.02 4.48 0C6.88 0 9.28 0 11.68 0C12.28 -0.01 12.88 0.06 13.47 0.2C14.75 0.51 15.52 1.32 15.81 2.59C15.94 3.2 16 3.81 15.99 4.42C15.99 6.85 15.99 9.27 15.99 11.69C16 12.29 15.93 12.89 15.79 13.47C15.48 14.75 14.66 15.51 13.39 15.81C12.77 15.94 12.14 16 11.5 15.99C9.11 15.99 6.73 15.99 4.34 15.99C3.73 16 3.12 15.93 2.53 15.79C1.25 15.48 0.48 14.67 0.19 13.39C0.04 12.74 0 12.09 0 11.43C0 10.28 0 9.14 0 7.99Z" fill="#FFFFFF" fill-opacity="0" fill-rule="evenodd"/>
		<circle id="path2" cx="8.000000" cy="8.000000" r="8.000000" fill="#FFFFFF" fill-opacity="0"/>
		<path id="path3" d="M12.83 1.83C13.93 1.83 14.83 2.72 14.83 3.83L14.83 12.83C14.83 13.93 13.93 14.83 12.83 14.83L3.16 14.83C2.05 14.83 1.16 13.93 1.16 12.83L1.16 3.83C1.16 2.72 2.05 1.83 3.16 1.83L12.83 1.83Z" fill="#000000" fill-opacity="0" fill-rule="nonzero"/>
		<path id="path3" d="M14.83 3.83L14.83 12.83C14.83 13.93 13.93 14.83 12.83 14.83L3.16 14.83C2.05 14.83 1.16 13.93 1.16 12.83L1.16 3.83C1.16 2.72 2.05 1.83 3.16 1.83L12.83 1.83C13.93 1.83 14.83 2.72 14.83 3.83Z" stroke="#FFFFFF" stroke-opacity="1.000000" stroke-width="1.000000"/>
		<path id="path4" d="M5.78 1.82L5.8 1.84C5.8 2.26 5.47 2.59 5.05 2.59C4.63 2.59 4.3 2.26 4.3 1.84L4.32 1.82L5.78 1.82ZM4.32 0.68L4.3 0.66C4.3 0.24 4.63 -0.09 5.05 -0.09C5.47 -0.09 5.8 0.24 5.8 0.66L5.78 0.68L4.32 0.68ZM11.67 1.82L11.69 1.84C11.69 2.26 11.36 2.59 10.94 2.59C10.52 2.59 10.18 2.26 10.18 1.84L10.21 1.82L11.67 1.82ZM10.21 0.68L10.18 0.66C10.18 0.24 10.52 -0.09 10.94 -0.09C11.36 -0.09 11.69 0.24 11.69 0.66L11.67 0.68L10.21 0.68Z" fill="#000000" fill-opacity="0" fill-rule="nonzero"/>
		<path id="path4" d="M5.05 1.84L5.05 0.66M10.94 1.84L10.94 0.66" stroke="#FFFFFF" stroke-opacity="1.000000" stroke-width="1.500000" stroke-linecap="round"/>
		<path id="path5" d="" fill="#000000" fill-opacity="0" fill-rule="nonzero"/>
		<path id="path5" d="M1.16 5.66L14.83 5.66" stroke="#FFFFFF" stroke-opacity="1.000000" stroke-width="1.000000"/>
		<g opacity="0.720000">
			<path id="path6" d="M8.64 7.44L7.44 7.44C7.28 7.44 7.15 7.57 7.15 7.72L7.15 8.92C7.15 9.08 7.28 9.21 7.44 9.21L8.64 9.21C8.79 9.21 8.92 9.08 8.92 8.92L8.92 7.72C8.92 7.57 8.79 7.44 8.64 7.44ZM12.17 7.44L10.97 7.44C10.81 7.44 10.69 7.57 10.69 7.72L10.69 8.92C10.69 9.08 10.81 9.21 10.97 9.21L12.17 9.21C12.32 9.21 12.45 9.08 12.45 8.92L12.45 7.72C12.45 7.57 12.32 7.44 12.17 7.44ZM3.9 10.98L5.1 10.98C5.26 10.98 5.39 11.1 5.39 11.26L5.39 12.46C5.39 12.62 5.26 12.74 5.1 12.74L3.9 12.74C3.75 12.74 3.62 12.62 3.62 12.46L3.62 11.26C3.62 11.1 3.75 10.98 3.9 10.98ZM8.64 10.98L7.44 10.98C7.28 10.98 7.15 11.1 7.15 11.26L7.15 12.46C7.15 12.62 7.28 12.74 7.44 12.74L8.64 12.74C8.79 12.74 8.92 12.62 8.92 12.46L8.92 11.26C8.92 11.1 8.79 10.98 8.64 10.98Z" fill="#FFFFFF" fill-opacity="1.000000" fill-rule="evenodd"/>
		</g>
		<path id="path7" d="M0.66 6.16L15.33 6.16L15.33 12.83C15.33 14.21 14.21 15.33 12.83 15.33L3.16 15.33C1.78 15.33 0.66 14.21 0.66 12.83L0.66 6.16ZM7.44 7.44L8.64 7.44C8.79 7.44 8.92 7.57 8.92 7.73L8.92 8.93C8.92 9.08 8.79 9.21 8.64 9.21L7.44 9.21C7.28 9.21 7.15 9.08 7.15 8.93L7.15 7.73C7.15 7.57 7.28 7.44 7.44 7.44ZM10.97 7.44L12.17 7.44C12.32 7.44 12.45 7.57 12.45 7.73L12.45 8.93C12.45 9.08 12.32 9.21 12.17 9.21L10.97 9.21C10.81 9.21 10.69 9.08 10.69 8.93L10.69 7.73C10.69 7.57 10.81 7.44 10.97 7.44ZM5.1 10.97L3.9 10.97C3.75 10.97 3.62 11.1 3.62 11.26L3.62 12.46C3.62 12.61 3.75 12.74 3.9 12.74L5.1 12.74C5.26 12.74 5.39 12.61 5.39 12.46L5.39 11.26C5.39 11.1 5.26 10.97 5.1 10.97ZM7.44 10.97L8.64 10.97C8.79 10.97 8.92 11.1 8.92 11.26L8.92 12.46C8.92 12.61 8.79 12.74 8.64 12.74L7.44 12.74C7.28 12.74 7.15 12.61 7.15 12.46L7.15 11.26C7.15 11.1 7.28 10.97 7.44 10.97Z" fill="#FFFFFF" fill-opacity="0" fill-rule="evenodd"/>
		<path id="path8" d="M4.55 1.33L3.16 1.33C1.78 1.33 0.66 2.45 0.66 3.83L0.66 5.16L15.33 5.16L15.33 3.83C15.33 2.45 14.21 1.33 12.83 1.33L11.44 1.33L11.44 0.66C11.44 0.38 11.22 0.16 10.94 0.16C10.66 0.16 10.44 0.38 10.44 0.66L10.44 1.33L5.55 1.33L5.55 0.66C5.55 0.38 5.33 0.16 5.05 0.16C4.77 0.16 4.55 0.38 4.55 0.66L4.55 1.33Z" fill="#FFFFFF" fill-opacity="0" fill-rule="evenodd"/>
	</g>
</svg>
