<svg width="24.000000" height="24.000000" viewBox="0 0 24 24" fill="none" xmlns="http://www.w3.org/2000/svg" xmlns:xlink="http://www.w3.org/1999/xlink">
	<desc>
			Created with Pixso.
	</desc>
	<defs/>
	<path id="path" d="M11.46 14.72C11.55 14.85 11.66 14.93 11.79 14.96C11.92 15.01 12.06 15.01 12.2 14.96C12.35 14.93 12.47 14.85 12.57 14.72L16.85 9.11C16.96 8.95 17.01 8.78 16.99 8.61C16.98 8.44 16.9 8.29 16.77 8.17C16.64 8.05 16.49 8 16.31 8L7.67 8C7.48 8 7.33 8.05 7.21 8.17C7.09 8.29 7.02 8.44 7 8.62C6.98 8.79 7.03 8.96 7.14 9.11L11.46 14.72Z" fill="#000000" fill-opacity="0.898039" fill-rule="nonzero"/>
</svg>
