<svg width="40.000000" height="40.000000" viewBox="0 0 40 40" fill="none" xmlns="http://www.w3.org/2000/svg" xmlns:xlink="http://www.w3.org/1999/xlink">
	<desc>
			Created with Pixso.
	</desc>
	<defs>
		<filter id="filter_60_1190_dd" x="4.000000" y="6.998825" width="32.000000" height="25.606491" filterUnits="userSpaceOnUse" color-interpolation-filters="sRGB">
			<feFlood flood-opacity="0" result="BackgroundImageFix"/>
			<feColorMatrix in="SourceAlpha" type="matrix" values="0 0 0 0 0 0 0 0 0 0 0 0 0 0 0 0 0 0 127 0" result="hardAlpha"/>
			<feOffset dx="0" dy="0"/>
			<feGaussianBlur stdDeviation="1.33333"/>
			<feComposite in2="hardAlpha" operator="out" k2="-1" k3="1"/>
			<feColorMatrix type="matrix" values="0 0 0 0 0 0 0 0 0 0 0 0 0 0 0 0 0 0 0.1 0"/>
			<feBlend mode="normal" in2="BackgroundImageFix" result="effect_dropShadow_1"/>
			<feBlend mode="normal" in="SourceGraphic" in2="effect_dropShadow_1" result="shape"/>
		</filter>
		<clipPath id="clip60_1191">
			<rect width="40.000000" height="40.000000" fill="white" fill-opacity="0"/>
		</clipPath>
	</defs>
	<g clip-path="url(#clip60_1191)">
		<path d="M32.08 38.32L14.43 38.32C10.08 38.32 6.52 34.76 6.52 30.41L6.52 19.31C6.52 14.96 10.08 11.4 14.43 11.4L32.08 11.4C36.44 11.4 40 14.96 40 19.31L40 30.41C40 34.76 36.44 38.32 32.08 38.32Z" fill="#FCEDB0" fill-opacity="1.000000" fill-rule="nonzero"/>
		<path d="M30.62 36.26L9.41 36.26C5.3 36.26 1.95 32.91 1.95 28.8L1.95 11.19C1.95 7.09 5.3 3.73 9.41 3.73L30.62 3.73C34.72 3.73 38.08 7.09 38.08 11.19L38.08 28.8C38.08 32.91 34.73 36.26 30.62 36.26Z" fill="#FF9001" fill-opacity="1.000000" fill-rule="nonzero"/>
		<path d="M9.41 36.26C5.3 36.26 1.95 32.91 1.95 28.8L1.95 11.19C1.95 7.09 5.3 3.73 9.41 3.73L30.62 3.73C34.72 3.73 38.08 7.09 38.08 11.19C36.48 27.77 25.59 34.74 9.41 36.26Z" fill="#FFA61F" fill-opacity="1.000000" fill-rule="nonzero"/>
		<path d="M1.95 27.67L1.95 11.19C1.95 7.09 5.3 3.73 9.41 3.73L27.85 3.73C30.54 17.81 18.63 28.63 1.95 27.67Z" fill="#FFD055" fill-opacity="1.000000" fill-rule="nonzero"/>
		<path d="M1.95 18.22L1.95 11.19C1.95 7.09 5.3 3.73 9.41 3.73L17.4 3.73C17.75 16.47 13.71 17.1 1.95 18.22Z" fill="#FFE774" fill-opacity="1.000000" fill-rule="nonzero"/>
		<g filter="url(#filter_60_1190_dd)">
			<path d="M31.55 16.37L29.27 16.37C29.22 16.37 29.17 16.37 29.12 16.39C29.07 16.41 29.03 16.44 28.98 16.47C28.94 16.51 28.91 16.55 28.89 16.59C28.86 16.64 28.84 16.69 28.84 16.74L28.03 13.43C27.83 12.58 26.92 11.49 25.77 11.34C21.91 10.88 18.04 10.88 14.17 11.34C13.13 11.49 12.13 12.63 11.91 13.62L11.14 16.68C11.12 16.63 11.1 16.59 11.07 16.56C11.04 16.52 11.01 16.49 10.97 16.46C10.94 16.43 10.9 16.41 10.85 16.4C10.81 16.38 10.76 16.38 10.72 16.38L8.44 16.38C8.38 16.38 8.32 16.39 8.27 16.41C8.22 16.43 8.17 16.47 8.13 16.51C8.08 16.55 8.05 16.6 8.03 16.65C8.01 16.71 8 16.76 8 16.82L8 17.57C7.99 17.63 8 17.68 8.02 17.73C8.04 17.78 8.07 17.83 8.11 17.87C8.14 17.91 8.18 17.94 8.23 17.97C8.28 17.99 8.33 18.01 8.38 18.01L10.3 18.26C9.95 18.49 9.72 18.85 9.69 19.26L9.14 22.7L9.13 22.7L9.13 25.5C9.13 25.55 9.13 25.59 9.14 25.63C9.15 25.67 9.16 25.71 9.18 25.75C9.19 25.79 9.21 25.83 9.24 25.86C9.26 25.9 9.29 25.93 9.32 25.96C9.35 25.99 9.38 26.02 9.42 26.04C9.45 26.07 9.49 26.09 9.53 26.1C9.57 26.12 9.61 26.13 9.65 26.14C9.69 26.15 9.74 26.15 9.78 26.15L10.28 26.15L10.28 27.85C10.28 27.9 10.29 27.95 10.3 28C10.31 28.05 10.32 28.09 10.34 28.14C10.36 28.18 10.38 28.23 10.41 28.27C10.44 28.31 10.47 28.35 10.5 28.38C10.54 28.42 10.57 28.45 10.61 28.47C10.66 28.5 10.7 28.52 10.74 28.54C10.79 28.56 10.84 28.58 10.88 28.59C10.93 28.6 10.98 28.6 11.03 28.6L13.5 28.6C13.55 28.6 13.6 28.6 13.65 28.59C13.7 28.58 13.74 28.56 13.79 28.54C13.83 28.52 13.88 28.5 13.92 28.47C13.96 28.45 14 28.42 14.03 28.38C14.06 28.35 14.1 28.31 14.12 28.27C14.15 28.23 14.17 28.18 14.19 28.14C14.21 28.09 14.23 28.05 14.23 28C14.24 27.95 14.25 27.9 14.25 27.85L14.25 26.15L20.59 26.15L20.59 19.03C20.59 18.8 20.63 18.58 20.71 18.36C20.79 18.15 20.91 17.96 21.06 17.78L13.32 17.78C13.28 17.78 13.24 17.78 13.19 17.77C13.15 17.76 13.11 17.75 13.07 17.73C13.03 17.71 13 17.69 12.96 17.66C12.93 17.63 12.9 17.6 12.87 17.57C12.84 17.54 12.82 17.5 12.8 17.46C12.78 17.42 12.77 17.38 12.76 17.34C12.75 17.3 12.74 17.26 12.74 17.21C12.74 17.17 12.74 17.13 12.75 17.08L13.27 14.52C13.46 13.69 14.22 13.05 15.08 12.92L15.15 12.92C18.35 12.54 21.54 12.54 24.74 12.92L24.67 12.92C25.62 13.05 26.37 13.62 26.54 14.33L27.19 17.06C27.22 17.19 27.21 17.31 27.16 17.43C27.24 17.48 27.32 17.54 27.39 17.6L30.4 20.2L30.25 19.26C30.22 18.85 29.98 18.49 29.64 18.25L31.61 18C31.66 18 31.71 17.98 31.76 17.96C31.81 17.93 31.85 17.9 31.88 17.86C31.92 17.82 31.95 17.77 31.97 17.72C31.99 17.67 32 17.62 32 17.56L32 16.81C32 16.75 31.98 16.69 31.96 16.64C31.94 16.59 31.91 16.54 31.86 16.5C31.82 16.45 31.77 16.42 31.72 16.4C31.67 16.38 31.61 16.37 31.55 16.37ZM13.69 22.77C13.69 22.86 13.68 22.96 13.66 23.05C13.64 23.14 13.62 23.23 13.58 23.32C13.55 23.4 13.5 23.48 13.45 23.56C13.4 23.64 13.34 23.71 13.27 23.78C13.21 23.84 13.13 23.9 13.06 23.95C12.98 24.01 12.9 24.05 12.81 24.09C12.72 24.12 12.63 24.15 12.54 24.17C12.45 24.19 12.36 24.19 12.27 24.19C12.17 24.19 12.08 24.19 11.99 24.17C11.9 24.15 11.81 24.12 11.72 24.09C11.63 24.05 11.55 24.01 11.47 23.95C11.4 23.9 11.32 23.84 11.26 23.78C11.19 23.71 11.13 23.64 11.08 23.56C11.03 23.48 10.99 23.4 10.95 23.32C10.91 23.23 10.89 23.14 10.87 23.05C10.85 22.96 10.84 22.86 10.84 22.77C10.84 22.68 10.85 22.58 10.87 22.49C10.89 22.4 10.91 22.31 10.95 22.23C10.99 22.14 11.03 22.06 11.08 21.98C11.13 21.9 11.19 21.83 11.26 21.76C11.32 21.7 11.4 21.64 11.47 21.59C11.55 21.53 11.63 21.49 11.72 21.45C11.81 21.42 11.9 21.39 11.99 21.37C12.08 21.36 12.17 21.35 12.27 21.35C12.36 21.35 12.45 21.36 12.54 21.37C12.64 21.39 12.72 21.42 12.81 21.45C12.9 21.49 12.98 21.53 13.06 21.59C13.13 21.64 13.21 21.7 13.27 21.76C13.34 21.83 13.4 21.9 13.45 21.98C13.5 22.06 13.55 22.14 13.58 22.23C13.62 22.31 13.64 22.4 13.66 22.49C13.68 22.58 13.69 22.68 13.69 22.77Z" fill="#FFFFFF" fill-opacity="1.000000" fill-rule="nonzero"/>
			<path d="M25.3635 15.8191L22.5401 15.8191C22.4002 15.8191 22.2953 15.854 22.2254 15.924C22.1555 15.9939 22.1205 16.0988 22.1205 16.2386L22.1205 16.9902C22.1205 17.13 22.1555 17.2349 22.2254 17.3048C22.2953 17.3748 22.4002 17.4097 22.5401 17.4097L25.3635 17.4097C25.5033 17.4097 25.6082 17.3748 25.6781 17.3048C25.748 17.2349 25.783 17.13 25.783 16.9902L25.783 16.2386C25.783 15.9589 25.6432 15.8191 25.3635 15.8191ZM30.5788 21.7219L26.6251 18.3063C26.4808 18.1819 26.3135 18.1197 26.1231 18.1196L22.4418 18.1196C22.4166 18.1196 22.3915 18.1208 22.3665 18.1233C22.3415 18.1257 22.3166 18.1294 22.2918 18.1344C22.2423 18.1442 22.1943 18.1588 22.1477 18.1781C22.1243 18.1878 22.1016 18.1986 22.0795 18.2104L22.0795 18.2104C22.0573 18.2223 22.0358 18.2352 22.0148 18.2492C21.9728 18.2773 21.934 18.3092 21.8984 18.3449C21.8627 18.3806 21.8309 18.4195 21.8029 18.4615C21.7749 18.5035 21.7513 18.5478 21.732 18.5945C21.7224 18.6178 21.7139 18.6414 21.7067 18.6655L21.7067 18.6655C21.6994 18.6896 21.6933 18.714 21.6884 18.7387C21.6786 18.7882 21.6738 18.8382 21.6739 18.8887L21.6739 27.7421C21.6739 27.7925 21.6788 27.8425 21.6886 27.8919C21.6935 27.9166 21.6996 27.9409 21.7068 27.9649L21.7069 27.9652C21.7142 27.9892 21.7226 28.0128 21.7322 28.036C21.7419 28.0594 21.7527 28.0821 21.7645 28.1043L21.7646 28.1044L21.7647 28.1046C21.7764 28.1266 21.7893 28.148 21.8032 28.1689C21.8312 28.2108 21.863 28.2496 21.8987 28.2853C21.9165 28.3031 21.9351 28.32 21.9545 28.3359L21.9547 28.3361C21.974 28.3519 21.9942 28.3669 22.0151 28.3808C22.057 28.4089 22.1013 28.4325 22.1479 28.4518C22.1711 28.4615 22.1948 28.4699 22.2188 28.4772C22.2428 28.4845 22.2672 28.4906 22.292 28.4956C22.3414 28.5054 22.3914 28.5103 22.4418 28.5103L30.0768 28.5103C30.1272 28.5103 30.1771 28.5054 30.2266 28.4956C30.2761 28.4857 30.3241 28.4711 30.3707 28.4518C30.4173 28.4325 30.4616 28.4089 30.5036 28.3808C30.5455 28.3528 30.5843 28.321 30.62 28.2853C30.6556 28.2496 30.6875 28.2108 30.7155 28.1689C30.7295 28.148 30.7424 28.1265 30.7542 28.1044L30.7543 28.1042C30.7661 28.0821 30.7769 28.0594 30.7865 28.0361C30.8058 27.9895 30.8204 27.9414 30.8302 27.892C30.8401 27.8425 30.845 27.7925 30.845 27.7421L30.845 22.3031C30.8449 22.1915 30.8216 22.085 30.7752 21.9836C30.7287 21.8821 30.6632 21.7949 30.5788 21.7219ZM29.2519 22.7956C29.2216 22.8301 29.1881 22.8613 29.1516 22.8892C29.1151 22.9171 29.0762 22.9411 29.0349 22.9613C28.9937 22.9815 28.9508 22.9975 28.9064 23.0093C28.862 23.0211 28.8169 23.0284 28.771 23.0313C28.7251 23.0342 28.6794 23.0326 28.6339 23.0265C28.5884 23.0204 28.5439 23.0099 28.5004 22.995C28.4569 22.9801 28.4153 22.9612 28.3756 22.9381C28.3557 22.9265 28.3365 22.9141 28.318 22.9007C28.2994 22.8874 28.2815 22.8731 28.2643 22.8579L25.8298 20.7113C25.7935 20.6815 25.7606 20.6483 25.731 20.6118C25.7014 20.5753 25.6757 20.5363 25.654 20.4946C25.6323 20.453 25.6149 20.4096 25.602 20.3645C25.589 20.3193 25.5806 20.2734 25.5769 20.2265C25.5732 20.1797 25.5741 20.133 25.5798 20.0864C25.5855 20.0397 25.5958 19.9942 25.6106 19.9496C25.6255 19.905 25.6446 19.8624 25.6681 19.8217C25.6915 19.781 25.7188 19.7431 25.7499 19.7079C25.781 19.6727 25.8153 19.6409 25.8527 19.6126C25.8902 19.5843 25.9302 19.56 25.9725 19.5397C26.0149 19.5195 26.0589 19.5036 26.1044 19.4922C26.15 19.4808 26.1962 19.4741 26.2431 19.472C26.2901 19.4699 26.3367 19.4725 26.3831 19.4798C26.4295 19.4871 26.4747 19.4989 26.5187 19.5153C26.5628 19.5317 26.6047 19.5523 26.6446 19.5772C26.6844 19.602 26.7214 19.6306 26.7555 19.6629L29.19 21.8095C29.2244 21.8398 29.2554 21.8733 29.2832 21.9098C29.311 21.9463 29.3349 21.9851 29.3551 22.0263C29.3752 22.0675 29.3912 22.1103 29.4029 22.1546C29.4146 22.1989 29.4219 22.244 29.4248 22.2897C29.4277 22.3355 29.4261 22.3811 29.42 22.4266C29.4139 22.472 29.4034 22.5165 29.3886 22.5599C29.3738 22.6032 29.3549 22.6448 29.3319 22.6845C29.3089 22.7241 29.2822 22.7612 29.2519 22.7956Z" clip-rule="evenodd" fill="#FFFFFF" fill-opacity="0.800000" fill-rule="evenodd"/>
		</g>
	</g>
</svg>
