<svg width="18.528000" height="23.007442" viewBox="0 0 18.528 23.0074" fill="none" xmlns="http://www.w3.org/2000/svg" xmlns:xlink="http://www.w3.org/1999/xlink">
	<desc>
			Created with Pixso.
	</desc>
	<defs>
		<linearGradient x1="0.000000" y1="0.000001" x2="18.528004" y2="23.007442" id="paint_linear_60_1121_0" gradientUnits="userSpaceOnUse">
			<stop stop-color="#FFA56B"/>
			<stop offset="1.000000" stop-color="#FC7032"/>
		</linearGradient>
	</defs>
	<path d="M3.15205 0L8.27789 0C8.83018 0 9.27789 0.447716 9.27789 1L9.27789 1.32633C9.27789 1.87861 8.83018 2.32633 8.27789 2.32633L3.15205 2.32633C2.59978 2.32633 2.15205 1.87861 2.15205 1.32633L2.15205 1C2.15205 0.447716 2.59978 0 3.15205 0ZM10.943 5.78338L15.75 5.78338C17.2843 5.78338 18.528 7.01353 18.528 8.52434L18.528 20.2644C18.528 21.7772 17.2842 23.0074 15.75 23.0074L2.77866 23.0074C1.24411 23.0074 0 21.7772 0 20.2644L0 7.61134C0 7.3031 1.01988 4.19365 1.72974 4.19365L2.87888 4.19365L2.87888 2.99444L8.50244 2.99444L8.50244 4.19365L9.75211 4.19365C10.2142 4.19365 10.6336 4.80184 10.943 5.78338ZM8.84839 18.7587C10.7524 18.7587 12.2948 17.3214 12.2948 15.5498C12.3425 15.3529 12.2987 15.0876 12.1943 14.7792C12.1054 14.4446 11.9633 14.134 11.7681 13.8473C10.7922 12.0536 8.84839 9.75109 8.84839 9.75109C8.84839 9.75109 7.27792 11.6116 6.25117 13.292C6.13565 13.4805 6.02795 13.6658 5.92908 13.8472C5.73752 14.1297 5.59325 14.4452 5.50415 14.7792C5.39841 15.0876 5.35629 15.3529 5.40265 15.5498C5.40265 17.3214 6.94568 18.7587 8.84839 18.7587ZM10.244 13.8026C10.244 13.4857 9.98 13.2272 9.65393 13.2272C9.32726 13.2272 9.06258 13.4857 9.06258 13.8026C9.06258 14.1213 9.32727 14.3785 9.65393 14.3785C9.98 14.3785 10.244 14.1213 10.244 13.8026ZM9.25122 13.9088C9.25122 13.7478 9.38568 13.6192 9.54887 13.6192C9.71402 13.6192 9.8472 13.7478 9.8472 13.9088C9.8472 14.0662 9.71402 14.1964 9.54887 14.1964C9.38568 14.1965 9.25122 14.0662 9.25122 13.9088ZM10.5391 15.0601C10.0061 15.0601 9.57335 15.4815 9.57335 16.0008C9.57335 16.5165 10.0061 16.9376 10.5391 16.9376C11.0717 16.9376 11.5034 16.5165 11.5034 16.0008C11.5034 15.4815 11.0717 15.0601 10.5391 15.0601ZM10.7897 16.4342C10.5677 16.4342 10.3882 16.2592 10.3882 16.0451C10.3882 15.8278 10.5677 15.6528 10.7897 15.6528C11.0123 15.6528 11.1925 15.8278 11.1925 16.0451C11.1925 16.2593 11.0123 16.4342 10.7897 16.4342Z" clip-rule="evenodd" fill="url(#paint_linear_60_1121_0)" fill-opacity="1.000000" fill-rule="evenodd"/>
</svg>
