<svg width="24.000061" height="24.000000" viewBox="0 0 24.0001 24" fill="none" xmlns="http://www.w3.org/2000/svg" xmlns:xlink="http://www.w3.org/1999/xlink">
	<desc>
			Created with Pixso.
	</desc>
	<defs>
		<linearGradient x1="6.000003" y1="7.000000" x2="20.500002" y2="19.217182" id="paint_linear_60_1109_0" gradientUnits="userSpaceOnUse">
			<stop offset="0.001174" stop-color="#FF726E"/>
			<stop offset="1.000000" stop-color="#F23D50"/>
		</linearGradient>
	</defs>
	<rect width="24.000000" height="24.000000" fill="#C4C4C4" fill-opacity="0"/>
	<path d="M22.96 7.24C22.9 7.24 22.83 7.24 22.76 7.26C22.7 7.27 22.63 7.29 22.57 7.32C22.51 7.34 22.45 7.37 22.39 7.41C22.34 7.45 22.28 7.49 22.24 7.54C22.19 7.59 22.15 7.64 22.11 7.7C22.07 7.75 22.04 7.81 22.01 7.87C21.99 7.94 21.97 8 21.96 8.07C21.94 8.13 21.94 8.2 21.94 8.27L21.94 9.29L19.88 9.29L19.88 9.14C19.88 9.05 19.88 8.97 19.87 8.89C19.86 8.8 19.85 8.72 19.83 8.64C19.81 8.56 19.79 8.48 19.77 8.4C19.75 8.32 19.72 8.24 19.69 8.16C19.65 8.09 19.62 8.01 19.58 7.94C19.54 7.86 19.5 7.79 19.45 7.72C19.4 7.66 19.36 7.59 19.3 7.52C19.25 7.46 19.19 7.4 19.13 7.34C19.08 7.28 19.01 7.22 18.95 7.17C18.89 7.12 18.82 7.07 18.75 7.02C18.68 6.98 18.61 6.93 18.54 6.9C18.46 6.86 18.39 6.82 18.31 6.79C18.23 6.76 18.16 6.73 18.08 6.7C18 6.68 17.92 6.66 17.83 6.64C17.75 6.63 17.67 6.62 17.59 6.61C17.5 6.6 17.42 6.6 17.34 6.6L13.16 6.6L13.16 4.18C13.16 4.14 13.15 4.1 13.15 4.06L16.11 4.06C16.17 4.05 16.24 4.04 16.3 4.03C16.37 4.01 16.43 3.99 16.49 3.97C16.55 3.94 16.61 3.91 16.66 3.87C16.71 3.83 16.76 3.79 16.81 3.74C16.86 3.69 16.9 3.64 16.93 3.59C16.97 3.53 17 3.47 17.02 3.41C17.05 3.35 17.07 3.29 17.08 3.22C17.09 3.16 17.1 3.09 17.1 3.03C17.1 2.96 17.09 2.89 17.08 2.83C17.07 2.76 17.05 2.7 17.02 2.64C17 2.58 16.97 2.52 16.93 2.46C16.9 2.41 16.86 2.36 16.81 2.31C16.76 2.26 16.71 2.22 16.66 2.18C16.61 2.14 16.55 2.11 16.49 2.08C16.43 2.06 16.37 2.04 16.3 2.02C16.24 2.01 16.17 2 16.11 2L8.15 2C8.08 1.99 8.01 2 7.94 2.01C7.87 2.02 7.81 2.04 7.74 2.06C7.68 2.09 7.62 2.12 7.56 2.16C7.5 2.19 7.45 2.24 7.4 2.28C7.35 2.33 7.3 2.38 7.26 2.44C7.22 2.5 7.19 2.56 7.16 2.62C7.14 2.69 7.12 2.75 7.1 2.82C7.09 2.89 7.08 2.96 7.08 3.03C7.08 3.09 7.09 3.16 7.1 3.23C7.12 3.3 7.14 3.36 7.16 3.43C7.19 3.49 7.22 3.55 7.26 3.61C7.3 3.67 7.35 3.72 7.4 3.77C7.45 3.81 7.5 3.86 7.56 3.89C7.62 3.93 7.68 3.96 7.74 3.99C7.81 4.01 7.87 4.03 7.94 4.04C8.01 4.05 8.08 4.06 8.15 4.06L11.1 4.06C11.09 4.1 11.09 4.14 11.09 4.18L11.09 6.6L6.92 6.6C6.83 6.6 6.75 6.6 6.67 6.61C6.58 6.62 6.5 6.63 6.42 6.64C6.34 6.66 6.26 6.68 6.18 6.7C6.1 6.73 6.02 6.76 5.94 6.79C5.87 6.82 5.79 6.86 5.72 6.9C5.64 6.93 5.57 6.98 5.5 7.02C5.43 7.07 5.37 7.12 5.3 7.17C5.24 7.22 5.18 7.28 5.12 7.34C5.06 7.4 5 7.46 4.95 7.52C4.9 7.59 4.85 7.66 4.8 7.72C4.76 7.79 4.71 7.87 4.67 7.94C4.63 8.01 4.6 8.09 4.57 8.16C4.54 8.24 4.51 8.32 4.48 8.4C4.46 8.48 4.44 8.56 4.42 8.64C4.41 8.72 4.39 8.8 4.39 8.89C4.38 8.97 4.37 9.05 4.37 9.14L4.37 9.3L2.06 9.3L2.06 8.27C2.06 8.21 2.05 8.14 2.04 8.07C2.03 8 2.01 7.93 1.99 7.87C1.96 7.8 1.93 7.74 1.89 7.69C1.86 7.63 1.81 7.57 1.77 7.52C1.72 7.47 1.67 7.43 1.61 7.39C1.55 7.35 1.49 7.32 1.43 7.29C1.36 7.26 1.3 7.24 1.23 7.23C1.16 7.22 1.09 7.21 1.03 7.21C0.96 7.21 0.89 7.22 0.82 7.23C0.75 7.24 0.69 7.26 0.62 7.29C0.56 7.32 0.5 7.35 0.44 7.39C0.38 7.43 0.33 7.47 0.28 7.52C0.24 7.57 0.19 7.63 0.16 7.69C0.12 7.74 0.09 7.8 0.06 7.87C0.04 7.93 0.02 8 0.01 8.07C0 8.14 -0.01 8.21 0 8.27L0 17.54C0 17.6 0.01 17.67 0.02 17.73C0.04 17.8 0.06 17.86 0.08 17.92C0.11 17.98 0.14 18.04 0.18 18.09C0.22 18.15 0.26 18.2 0.31 18.24C0.36 18.29 0.41 18.33 0.46 18.37C0.52 18.4 0.58 18.43 0.64 18.46C0.7 18.48 0.76 18.5 0.83 18.51C0.89 18.53 0.96 18.53 1.03 18.53C1.09 18.53 1.16 18.53 1.22 18.51C1.29 18.5 1.35 18.48 1.41 18.46C1.47 18.43 1.53 18.4 1.59 18.37C1.64 18.33 1.69 18.29 1.74 18.24C1.79 18.2 1.83 18.15 1.87 18.09C1.91 18.04 1.94 17.98 1.97 17.92C1.99 17.86 2.01 17.8 2.03 17.73C2.04 17.67 2.05 17.6 2.06 17.54L2.06 16.51L4.37 16.51L4.37 16.67C4.37 16.75 4.38 16.84 4.39 16.92C4.39 17 4.41 17.09 4.42 17.17C4.44 17.25 4.46 17.33 4.48 17.41C4.51 17.49 4.54 17.57 4.57 17.64C4.6 17.72 4.63 17.8 4.67 17.87C4.71 17.94 4.76 18.01 4.8 18.08C4.85 18.15 4.9 18.22 4.95 18.28C5 18.35 5.06 18.41 5.12 18.47C5.18 18.53 5.24 18.58 5.3 18.64C5.37 18.69 5.43 18.74 5.5 18.78C5.57 18.83 5.64 18.87 5.72 18.91C5.79 18.95 5.87 18.99 5.94 19.02C6.02 19.05 6.1 19.08 6.18 19.1C6.26 19.13 6.34 19.15 6.42 19.16C6.5 19.18 6.58 19.19 6.67 19.2C6.75 19.21 6.83 19.21 6.92 19.21L17.34 19.21C17.42 19.21 17.5 19.21 17.59 19.2C17.67 19.19 17.75 19.18 17.83 19.16C17.92 19.15 18 19.13 18.08 19.1C18.16 19.08 18.23 19.05 18.31 19.02C18.39 18.99 18.46 18.95 18.54 18.91C18.61 18.87 18.68 18.83 18.75 18.78C18.82 18.74 18.89 18.69 18.95 18.64C19.01 18.58 19.08 18.53 19.13 18.47C19.19 18.41 19.25 18.35 19.3 18.28C19.36 18.22 19.4 18.15 19.45 18.08C19.5 18.01 19.54 17.94 19.58 17.87C19.62 17.8 19.65 17.72 19.69 17.64C19.72 17.57 19.75 17.49 19.77 17.41C19.79 17.33 19.81 17.25 19.83 17.17C19.85 17.09 19.86 17 19.87 16.92C19.88 16.84 19.88 16.75 19.88 16.67L19.88 16.51L21.94 16.51L21.94 17.54C21.94 17.6 21.95 17.67 21.96 17.73C21.98 17.8 22 17.86 22.02 17.92C22.05 17.98 22.08 18.04 22.12 18.09C22.16 18.15 22.2 18.2 22.25 18.24C22.3 18.29 22.35 18.33 22.4 18.37C22.46 18.4 22.52 18.43 22.58 18.46C22.64 18.48 22.7 18.5 22.77 18.51C22.83 18.53 22.9 18.53 22.97 18.53C23.03 18.53 23.1 18.53 23.16 18.51C23.23 18.5 23.29 18.48 23.35 18.46C23.41 18.43 23.47 18.4 23.53 18.37C23.58 18.33 23.63 18.29 23.68 18.24C23.73 18.2 23.77 18.15 23.81 18.09C23.85 18.04 23.88 17.98 23.91 17.92C23.93 17.86 23.95 17.8 23.97 17.73C23.98 17.67 23.99 17.6 24 17.54L24 8.27C24 8.2 23.99 8.13 23.98 8.07C23.96 8 23.94 7.94 23.92 7.87C23.89 7.81 23.86 7.75 23.82 7.7C23.78 7.64 23.74 7.59 23.69 7.54C23.65 7.49 23.59 7.45 23.54 7.41C23.48 7.37 23.42 7.34 23.36 7.32C23.3 7.29 23.23 7.27 23.17 7.26C23.1 7.24 23.03 7.24 22.96 7.24ZM12.6 15.88C13.33 15.17 13.89 13.8 12.98 12.9C12.9 12.98 12.82 13.06 12.75 13.15C12.68 13.25 12.63 13.34 12.58 13.45C12.53 13.55 12.49 13.66 12.47 13.77C12.44 13.88 12.43 14 12.43 14.11C12.35 14.04 12.28 13.96 12.21 13.88C12.15 13.8 12.09 13.71 12.03 13.62C11.98 13.53 11.94 13.43 11.9 13.34C11.86 13.24 11.83 13.14 11.8 13.03C11.78 12.93 11.77 12.83 11.76 12.72C11.75 12.62 11.75 12.51 11.76 12.41C11.77 12.3 11.79 12.2 11.81 12.1C11.84 11.99 11.87 11.89 11.91 11.8C11.23 12.44 10.08 13.88 11.48 15.95C11.48 15.95 9.12 15.41 9.12 13.23C9.12 11.05 11.81 9.78 12.86 9.63C12.74 10.02 12.83 10.87 13.52 11.25C14.21 11.62 14.88 12.57 14.88 13.29C14.88 14.01 14.48 15.74 12.6 15.88Z" fill="url(#paint_linear_60_1109_0)" fill-opacity="1.000000" fill-rule="nonzero"/>
	<path d="M12.6 15.88C13.33 15.17 13.89 13.8 12.98 12.9C12.9 12.98 12.82 13.06 12.75 13.15C12.68 13.25 12.63 13.34 12.58 13.45C12.53 13.55 12.49 13.66 12.47 13.77C12.44 13.88 12.43 14 12.43 14.11C12.35 14.04 12.28 13.96 12.21 13.88C12.15 13.8 12.09 13.71 12.03 13.62C11.98 13.53 11.94 13.43 11.9 13.34C11.86 13.24 11.83 13.14 11.8 13.03C11.78 12.93 11.77 12.83 11.76 12.72C11.75 12.62 11.75 12.51 11.76 12.41C11.77 12.3 11.79 12.2 11.81 12.1C11.84 11.99 11.87 11.89 11.91 11.8C11.23 12.44 10.08 13.88 11.48 15.95C11.48 15.95 9.12 15.41 9.12 13.23C9.12 11.05 11.81 9.78 12.86 9.63C12.74 10.02 12.83 10.87 13.52 11.25C14.21 11.62 14.88 12.57 14.88 13.29C14.88 14.01 14.48 15.74 12.6 15.88Z" fill="#FFBAB9" fill-opacity="1.000000" fill-rule="nonzero"/>
	<path d="M18.72 11.55C18.9 11.48 19.09 11.48 19.27 11.55L23.25 13.04C23.7 13.21 24 13.64 24 14.11L24 18.2C24 20.11 22.94 21.82 21.23 22.68L19.21 23.69C19.14 23.72 19.07 23.74 19 23.74C18.92 23.74 18.85 23.72 18.79 23.69L16.76 22.68C15.05 21.82 14 20.11 14 18.2L14 14.11C14 13.64 14.3 13.21 14.74 13.04L18.72 11.55ZM19.82 14.76C19.62 14.6 19.33 14.63 19.17 14.83L17.14 17.36C16.95 17.65 17.13 18.1 17.49 18.1L19.53 18.1L18.13 19.83C18.02 20.02 18.02 20.33 18.2 20.48C18.4 20.64 18.69 20.61 18.85 20.41L20.85 17.93C21.04 17.64 20.86 17.19 20.5 17.19L18.45 17.19L19.89 15.4C20 15.21 20 14.9 19.82 14.76Z" fill="#FFBAB9" fill-opacity="1.000000" fill-rule="evenodd"/>
	<path d="M19.27 11.55L23.25 13.04C23.7 13.21 24 13.64 24 14.11L24 18.2C24 20.11 22.94 21.82 21.23 22.68L19.21 23.69C19.14 23.72 19.07 23.74 19 23.74C18.92 23.74 18.85 23.72 18.79 23.69L16.76 22.68C15.05 21.82 14 20.11 14 18.2L14 14.11C14 13.64 14.3 13.21 14.74 13.04L18.72 11.55C18.9 11.48 19.09 11.48 19.27 11.55ZM19.17 14.83L17.14 17.36C16.95 17.65 17.13 18.1 17.49 18.1L19.53 18.1L18.13 19.83C18.02 20.02 18.02 20.33 18.2 20.48C18.4 20.64 18.69 20.61 18.85 20.41L20.85 17.93C21.04 17.64 20.86 17.19 20.5 17.19L18.45 17.19L19.89 15.4C20 15.21 20 14.9 19.82 14.76C19.62 14.6 19.33 14.63 19.17 14.83Z" stroke="#000000" stroke-opacity="0" stroke-width="1.000000"/>
	<path d="M19.82 14.76C19.62 14.6 19.33 14.63 19.17 14.83L17.14 17.36C16.95 17.65 17.13 18.1 17.49 18.1L19.53 18.1L18.13 19.83C18.02 20.02 18.02 20.33 18.2 20.48C18.4 20.64 18.69 20.61 18.85 20.41L20.85 17.93C21.04 17.64 20.86 17.19 20.5 17.19L18.45 17.19L19.89 15.4C20 15.21 20 14.9 19.82 14.76Z" fill="#FFFFFF" fill-opacity="1.000000" fill-rule="evenodd"/>
	<path d="M19.17 14.83L17.14 17.36C16.95 17.65 17.13 18.1 17.49 18.1L19.53 18.1L18.13 19.83C18.02 20.02 18.02 20.33 18.2 20.48C18.4 20.64 18.69 20.61 18.85 20.41L20.85 17.93C21.04 17.64 20.86 17.19 20.5 17.19L18.45 17.19L19.89 15.4C20 15.21 20 14.9 19.82 14.76C19.62 14.6 19.33 14.63 19.17 14.83Z" stroke="#FFFFFF" stroke-opacity="1.000000" stroke-width="0.500000"/>
</svg>
