<svg width="40.000000" height="39.876221" viewBox="0 0 40 39.8762" fill="none" xmlns="http://www.w3.org/2000/svg" xmlns:xlink="http://www.w3.org/1999/xlink">
	<desc>
			Created with Pixso.
	</desc>
	<defs/>
	<rect id=".close btn" rx="19.938080" width="40.000000" height="39.876160" fill="#000000" fill-opacity="0.047059"/>
	<g opacity="0.000000"/>
	<path id="ó°–" d="M25.97 14.8Q25.93 14.94 25.83 15.05L20.79 20.1L25.83 25.11Q25.91 25.21 25.96 25.33Q25.99 25.42 25.99 25.53Q25.99 25.65 25.94 25.76Q25.9 25.85 25.83 25.93Q25.75 26 25.66 26.04Q25.56 26.09 25.43 26.09Q25.3 26.09 25.2 26.04Q25.11 26 25.04 25.93L20 20.89L14.95 25.93Q14.88 26 14.79 26.04Q14.69 26.08 14.56 26.08Q14.43 26.07 14.32 26.03Q14.23 25.99 14.15 25.93Q14.09 25.87 14.06 25.8Q14 25.68 14 25.53Q14 25.4 14.05 25.28Q14.08 25.19 14.15 25.11L19.2 20.1L14.15 15.05Q14.06 14.95 14.03 14.83Q14 14.75 14 14.65Q14 14.51 14.05 14.4Q14.09 14.33 14.15 14.26Q14.26 14.14 14.4 14.1Q14.48 14.08 14.56 14.08Q14.66 14.08 14.75 14.11Q14.86 14.16 14.95 14.26L20 19.3L25.04 14.26Q25.13 14.16 25.24 14.11Q25.33 14.08 25.43 14.08Q25.53 14.08 25.62 14.11Q25.74 14.16 25.83 14.26Q25.91 14.34 25.95 14.44Q25.99 14.54 25.99 14.65Q25.99 14.73 25.97 14.8Z" fill="#000000" fill-opacity="0.898039" fill-rule="evenodd"/>
</svg>
