<svg width="24.333328" height="24.000000" viewBox="0 0 24.3333 24" fill="none" xmlns="http://www.w3.org/2000/svg" xmlns:xlink="http://www.w3.org/1999/xlink">
	<desc>
			Created with Pixso.
	</desc>
	<defs>
		<linearGradient x1="11.999602" y1="1.000000" x2="11.999602" y2="21.000443" id="paint_linear_60_1100_0" gradientUnits="userSpaceOnUse">
			<stop stop-color="#3C98FB"/>
			<stop offset="1.000000" stop-color="#9BCBFE"/>
		</linearGradient>
		<linearGradient x1="1.332937" y1="5.833770" x2="22.666269" y2="21.000443" id="paint_linear_60_1100_1" gradientUnits="userSpaceOnUse">
			<stop stop-color="#6BC2FC"/>
			<stop offset="1.000000" stop-color="#2595E8"/>
		</linearGradient>
	</defs>
	<rect width="24.000000" height="24.000000" transform="translate(0.333328 0.000000)" fill="#FFFFFF" fill-opacity="0"/>
	<path d="M5.99 14L4.44 14C4.41 14 4.38 14 4.35 14C4.32 14.01 4.3 14.02 4.27 14.03C4.24 14.04 4.22 14.05 4.19 14.07C4.17 14.09 4.15 14.11 4.12 14.13C4.1 14.15 4.09 14.17 4.07 14.19C4.05 14.22 4.04 14.24 4.03 14.27C4.02 14.3 4.01 14.32 4 14.35C4 14.38 3.99 14.41 3.99 14.44L3.99 14.88C3.99 14.91 4 14.94 4 14.97C4.01 15 4.02 15.03 4.03 15.05C4.04 15.08 4.05 15.11 4.07 15.13C4.09 15.16 4.1 15.18 4.12 15.2C4.15 15.22 4.17 15.24 4.19 15.25C4.22 15.27 4.24 15.28 4.27 15.29C4.3 15.31 4.32 15.31 4.35 15.32C4.38 15.33 4.41 15.33 4.44 15.33L5.99 15.33L5.99 16.88C5.99 16.91 6 16.94 6 16.97C6.01 17 6.02 17.03 6.03 17.05C6.04 17.08 6.05 17.11 6.07 17.13C6.09 17.16 6.1 17.18 6.12 17.2C6.15 17.22 6.17 17.24 6.19 17.25C6.22 17.27 6.24 17.28 6.27 17.29C6.3 17.31 6.32 17.31 6.35 17.32C6.38 17.33 6.41 17.33 6.44 17.33L6.88 17.33C6.91 17.33 6.94 17.33 6.97 17.32C7 17.31 7.03 17.31 7.05 17.29C7.08 17.28 7.11 17.27 7.13 17.25C7.15 17.24 7.18 17.22 7.2 17.2C7.22 17.18 7.24 17.16 7.25 17.13C7.27 17.11 7.28 17.08 7.29 17.05C7.31 17.03 7.31 17 7.32 16.97C7.33 16.94 7.33 16.91 7.33 16.88L7.33 15.33L8.88 15.33C8.91 15.33 8.94 15.33 8.97 15.32C9 15.31 9.03 15.31 9.05 15.29C9.08 15.28 9.11 15.27 9.13 15.25C9.15 15.24 9.18 15.22 9.2 15.2C9.22 15.18 9.24 15.16 9.25 15.13C9.27 15.11 9.28 15.08 9.29 15.05C9.31 15.03 9.31 15 9.32 14.97C9.33 14.94 9.33 14.91 9.33 14.88L9.33 14.44C9.33 14.41 9.33 14.38 9.32 14.35C9.31 14.32 9.31 14.3 9.29 14.27C9.28 14.24 9.27 14.22 9.25 14.19C9.24 14.17 9.22 14.15 9.2 14.13C9.18 14.11 9.15 14.09 9.13 14.07C9.11 14.05 9.08 14.04 9.05 14.03C9.03 14.02 9 14.01 8.97 14C8.94 14 8.91 14 8.88 14L7.33 14L7.33 12.44C7.33 12.41 7.33 12.38 7.32 12.35C7.31 12.32 7.31 12.3 7.29 12.27C7.28 12.24 7.27 12.22 7.25 12.19C7.24 12.17 7.22 12.15 7.2 12.13C7.18 12.11 7.15 12.09 7.13 12.07C7.11 12.05 7.08 12.04 7.05 12.03C7.03 12.02 7 12.01 6.97 12C6.94 12 6.91 12 6.88 12L6.44 12C6.41 12 6.38 12 6.35 12C6.32 12.01 6.3 12.02 6.27 12.03C6.24 12.04 6.22 12.05 6.19 12.07C6.17 12.09 6.15 12.11 6.12 12.13C6.1 12.15 6.09 12.17 6.07 12.19C6.05 12.22 6.04 12.24 6.03 12.27C6.02 12.3 6.01 12.32 6 12.35C6 12.38 5.99 12.41 5.99 12.44L5.99 14ZM20.76 4.37C21.81 4.37 22.66 5.24 22.66 6.32L22.66 19.04C22.66 20.12 21.81 21 20.76 21L3.22 21C2.18 21 1.33 20.12 1.33 19.04L1.33 6.32C1.33 5.24 2.18 4.37 3.22 4.37L20.76 4.37ZM8.38 1.97L8.38 3.44L4.12 3.44L4.12 1.97C4.12 1.43 4.54 1 5.06 1L7.43 1C7.96 1 8.38 1.43 8.38 1.97ZM19.76 1.97L19.76 3.44L15.49 3.44L15.49 1.97C15.49 1.43 15.92 1 16.44 1L18.81 1C19.34 1 19.76 1.43 19.76 1.97ZM15.55 14C15.52 14 15.49 14 15.46 14C15.43 14.01 15.41 14.02 15.38 14.03C15.35 14.04 15.33 14.05 15.3 14.07C15.28 14.09 15.26 14.11 15.24 14.13C15.22 14.15 15.2 14.17 15.18 14.19C15.16 14.22 15.15 14.24 15.14 14.27C15.13 14.3 15.12 14.32 15.11 14.35C15.11 14.38 15.11 14.41 15.11 14.44L15.11 14.88C15.11 14.91 15.11 14.94 15.11 14.97C15.12 15 15.13 15.03 15.14 15.05C15.15 15.08 15.16 15.11 15.18 15.13C15.2 15.16 15.22 15.18 15.24 15.2C15.26 15.22 15.28 15.24 15.3 15.25C15.33 15.27 15.35 15.28 15.38 15.29C15.41 15.31 15.43 15.31 15.46 15.32C15.49 15.33 15.52 15.33 15.55 15.33L19.99 15.33C20.02 15.33 20.05 15.33 20.08 15.32C20.11 15.31 20.14 15.31 20.16 15.29C20.19 15.28 20.22 15.27 20.24 15.25C20.27 15.24 20.29 15.22 20.31 15.2C20.33 15.18 20.35 15.16 20.36 15.13C20.38 15.11 20.39 15.08 20.41 15.05C20.42 15.03 20.42 15 20.43 14.97C20.44 14.94 20.44 14.91 20.44 14.88L20.44 14.44C20.44 14.41 20.44 14.38 20.43 14.35C20.42 14.32 20.42 14.3 20.41 14.27C20.39 14.24 20.38 14.22 20.36 14.19C20.35 14.17 20.33 14.15 20.31 14.13C20.29 14.11 20.27 14.09 20.24 14.07C20.22 14.05 20.19 14.04 20.16 14.03C20.14 14.02 20.11 14.01 20.08 14C20.05 14 20.02 14 19.99 14L15.55 14Z" fill="url(#paint_linear_60_1100_0)" fill-opacity="0" fill-rule="nonzero"/>
	<path d="M5.99 14L4.44 14C4.41 14 4.38 14 4.35 14C4.32 14.01 4.3 14.02 4.27 14.03C4.24 14.04 4.22 14.05 4.19 14.07C4.17 14.09 4.15 14.11 4.12 14.13C4.1 14.15 4.09 14.17 4.07 14.19C4.05 14.22 4.04 14.24 4.03 14.27C4.02 14.3 4.01 14.32 4 14.35C4 14.38 3.99 14.41 3.99 14.44L3.99 14.88C3.99 14.91 4 14.94 4 14.97C4.01 15 4.02 15.03 4.03 15.05C4.04 15.08 4.05 15.11 4.07 15.13C4.09 15.16 4.1 15.18 4.12 15.2C4.15 15.22 4.17 15.24 4.19 15.25C4.22 15.27 4.24 15.28 4.27 15.29C4.3 15.31 4.32 15.31 4.35 15.32C4.38 15.33 4.41 15.33 4.44 15.33L5.99 15.33L5.99 16.88C5.99 16.91 6 16.94 6 16.97C6.01 17 6.02 17.03 6.03 17.05C6.04 17.08 6.05 17.11 6.07 17.13C6.09 17.16 6.1 17.18 6.12 17.2C6.15 17.22 6.17 17.24 6.19 17.25C6.22 17.27 6.24 17.28 6.27 17.29C6.3 17.31 6.32 17.31 6.35 17.32C6.38 17.33 6.41 17.33 6.44 17.33L6.88 17.33C6.91 17.33 6.94 17.33 6.97 17.32C7 17.31 7.03 17.31 7.05 17.29C7.08 17.28 7.11 17.27 7.13 17.25C7.15 17.24 7.18 17.22 7.2 17.2C7.22 17.18 7.24 17.16 7.25 17.13C7.27 17.11 7.28 17.08 7.29 17.05C7.31 17.03 7.31 17 7.32 16.97C7.33 16.94 7.33 16.91 7.33 16.88L7.33 15.33L8.88 15.33C8.91 15.33 8.94 15.33 8.97 15.32C9 15.31 9.03 15.31 9.05 15.29C9.08 15.28 9.11 15.27 9.13 15.25C9.15 15.24 9.18 15.22 9.2 15.2C9.22 15.18 9.24 15.16 9.25 15.13C9.27 15.11 9.28 15.08 9.29 15.05C9.31 15.03 9.31 15 9.32 14.97C9.33 14.94 9.33 14.91 9.33 14.88L9.33 14.44C9.33 14.41 9.33 14.38 9.32 14.35C9.31 14.32 9.31 14.3 9.29 14.27C9.28 14.24 9.27 14.22 9.25 14.19C9.24 14.17 9.22 14.15 9.2 14.13C9.18 14.11 9.15 14.09 9.13 14.07C9.11 14.05 9.08 14.04 9.05 14.03C9.03 14.02 9 14.01 8.97 14C8.94 14 8.91 14 8.88 14L7.33 14L7.33 12.44C7.33 12.41 7.33 12.38 7.32 12.35C7.31 12.32 7.31 12.3 7.29 12.27C7.28 12.24 7.27 12.22 7.25 12.19C7.24 12.17 7.22 12.15 7.2 12.13C7.18 12.11 7.15 12.09 7.13 12.07C7.11 12.05 7.08 12.04 7.05 12.03C7.03 12.02 7 12.01 6.97 12C6.94 12 6.91 12 6.88 12L6.44 12C6.41 12 6.38 12 6.35 12C6.32 12.01 6.3 12.02 6.27 12.03C6.24 12.04 6.22 12.05 6.19 12.07C6.17 12.09 6.15 12.11 6.12 12.13C6.1 12.15 6.09 12.17 6.07 12.19C6.05 12.22 6.04 12.24 6.03 12.27C6.02 12.3 6.01 12.32 6 12.35C6 12.38 5.99 12.41 5.99 12.44L5.99 14ZM20.76 4.37C21.81 4.37 22.66 5.24 22.66 6.32L22.66 19.04C22.66 20.12 21.81 21 20.76 21L3.22 21C2.18 21 1.33 20.12 1.33 19.04L1.33 6.32C1.33 5.24 2.18 4.37 3.22 4.37L20.76 4.37ZM8.38 1.97L8.38 3.44L4.12 3.44L4.12 1.97C4.12 1.43 4.54 1 5.06 1L7.43 1C7.96 1 8.38 1.43 8.38 1.97ZM19.76 1.97L19.76 3.44L15.49 3.44L15.49 1.97C15.49 1.43 15.92 1 16.44 1L18.81 1C19.34 1 19.76 1.43 19.76 1.97ZM15.55 14C15.52 14 15.49 14 15.46 14C15.43 14.01 15.41 14.02 15.38 14.03C15.35 14.04 15.33 14.05 15.3 14.07C15.28 14.09 15.26 14.11 15.24 14.13C15.22 14.15 15.2 14.17 15.18 14.19C15.16 14.22 15.15 14.24 15.14 14.27C15.13 14.3 15.12 14.32 15.11 14.35C15.11 14.38 15.11 14.41 15.11 14.44L15.11 14.88C15.11 14.91 15.11 14.94 15.11 14.97C15.12 15 15.13 15.03 15.14 15.05C15.15 15.08 15.16 15.11 15.18 15.13C15.2 15.16 15.22 15.18 15.24 15.2C15.26 15.22 15.28 15.24 15.3 15.25C15.33 15.27 15.35 15.28 15.38 15.29C15.41 15.31 15.43 15.31 15.46 15.32C15.49 15.33 15.52 15.33 15.55 15.33L19.99 15.33C20.02 15.33 20.05 15.33 20.08 15.32C20.11 15.31 20.14 15.31 20.16 15.29C20.19 15.28 20.22 15.27 20.24 15.25C20.27 15.24 20.29 15.22 20.31 15.2C20.33 15.18 20.35 15.16 20.36 15.13C20.38 15.11 20.39 15.08 20.41 15.05C20.42 15.03 20.42 15 20.43 14.97C20.44 14.94 20.44 14.91 20.44 14.88L20.44 14.44C20.44 14.41 20.44 14.38 20.43 14.35C20.42 14.32 20.42 14.3 20.41 14.27C20.39 14.24 20.38 14.22 20.36 14.19C20.35 14.17 20.33 14.15 20.31 14.13C20.29 14.11 20.27 14.09 20.24 14.07C20.22 14.05 20.19 14.04 20.16 14.03C20.14 14.02 20.11 14.01 20.08 14C20.05 14 20.02 14 19.99 14L15.55 14Z" fill="url(#paint_linear_60_1100_1)" fill-opacity="1.000000" fill-rule="nonzero"/>
	<rect y="4.333771" rx="1.500000" width="24.000000" height="6.000000" fill="#A3DAFF" fill-opacity="1.000000"/>
</svg>
