<svg width="24.000000" height="24.000000" viewBox="0 0 24 24" fill="none" xmlns="http://www.w3.org/2000/svg" xmlns:xlink="http://www.w3.org/1999/xlink">
	<desc>
			Created with Pixso.
	</desc>
	<defs>
		<clipPath id="clip30_2572">
			<rect id="svg" width="24.000000" height="24.000000" fill="white" fill-opacity="0"/>
		</clipPath>
	</defs>
	<g clip-path="url(#clip30_2572)">
		<path id="path1" d="M0.75 11.99C0.75 10.23 0.74 8.47 0.75 6.71C0.74 5.86 0.85 5.02 1.06 4.19C1.52 2.45 2.66 1.41 4.4 1.01C5.27 0.82 6.16 0.73 7.06 0.75C10.43 0.75 13.8 0.75 17.17 0.75C18.02 0.74 18.87 0.84 19.7 1.04C21.49 1.48 22.57 2.61 22.98 4.4C23.17 5.25 23.25 6.11 23.24 6.98C23.24 10.38 23.24 13.79 23.24 17.2C23.25 18.04 23.15 18.88 22.96 19.7C22.52 21.5 21.37 22.57 19.58 22.98C18.71 23.17 17.82 23.26 16.92 23.24C13.57 23.24 10.21 23.24 6.86 23.24C6 23.25 5.14 23.15 4.31 22.96C2.5 22.52 1.42 21.38 1.01 19.58C0.8 18.66 0.75 17.75 0.75 16.82C0.75 15.21 0.75 13.6 0.75 11.99Z" fill="#FFFFFF" fill-opacity="0" fill-rule="nonzero"/>
		<path id="path1" d="M0.75 6.71C0.74 5.86 0.85 5.02 1.06 4.19C1.52 2.45 2.66 1.41 4.4 1.01C5.27 0.82 6.16 0.73 7.06 0.75C10.43 0.75 13.8 0.75 17.17 0.75C18.02 0.74 18.87 0.84 19.7 1.04C21.49 1.48 22.57 2.61 22.98 4.4C23.17 5.25 23.25 6.11 23.24 6.98C23.24 10.38 23.24 13.79 23.24 17.2C23.25 18.04 23.15 18.88 22.96 19.7C22.52 21.5 21.37 22.57 19.58 22.98C18.71 23.17 17.82 23.26 16.92 23.24C13.57 23.24 10.21 23.24 6.86 23.24C6 23.25 5.14 23.15 4.31 22.96C2.5 22.52 1.42 21.38 1.01 19.58C0.8 18.66 0.75 17.75 0.75 16.82C0.75 15.21 0.75 13.6 0.75 11.99C0.75 10.23 0.74 8.47 0.75 6.71Z" stroke="#FFFFFF" stroke-opacity="0" stroke-width="1.500000"/>
		<g opacity="0.200000">
			<path id="path2" d="M0.75 11.99C0.75 10.23 0.74 8.47 0.75 6.71C0.74 5.86 0.85 5.02 1.06 4.19C1.52 2.45 2.66 1.41 4.4 1.01C5.27 0.82 6.16 0.73 7.06 0.75C10.43 0.75 13.8 0.75 17.17 0.75C18.02 0.74 18.87 0.84 19.7 1.04C21.49 1.48 22.57 2.61 22.98 4.4C23.17 5.25 23.25 6.11 23.24 6.98C23.24 10.38 23.24 13.79 23.24 17.2C23.25 18.04 23.15 18.88 22.96 19.7C22.52 21.5 21.37 22.57 19.58 22.98C18.71 23.17 17.82 23.26 16.92 23.24C13.57 23.24 10.21 23.24 6.86 23.24C6 23.25 5.14 23.15 4.31 22.96C2.5 22.52 1.42 21.38 1.01 19.58C0.8 18.66 0.75 17.75 0.75 16.82C0.75 15.21 0.75 13.6 0.75 11.99Z" fill="#000000" fill-opacity="0" fill-rule="nonzero"/>
			<path id="path2" d="M0.75 6.71C0.74 5.86 0.85 5.02 1.06 4.19C1.52 2.45 2.66 1.41 4.4 1.01C5.27 0.82 6.16 0.73 7.06 0.75C10.43 0.75 13.8 0.75 17.17 0.75C18.02 0.74 18.87 0.84 19.7 1.04C21.49 1.48 22.57 2.61 22.98 4.4C23.17 5.25 23.25 6.11 23.24 6.98C23.24 10.38 23.24 13.79 23.24 17.2C23.25 18.04 23.15 18.88 22.96 19.7C22.52 21.5 21.37 22.57 19.58 22.98C18.71 23.17 17.82 23.26 16.92 23.24C13.57 23.24 10.21 23.24 6.86 23.24C6 23.25 5.14 23.15 4.31 22.96C2.5 22.52 1.42 21.38 1.01 19.58C0.8 18.66 0.75 17.75 0.75 16.82C0.75 15.21 0.75 13.6 0.75 11.99C0.75 10.23 0.74 8.47 0.75 6.71Z" stroke="#FFFFFF" stroke-opacity="0" stroke-width="1.500000"/>
		</g>
		<circle id="path3" cx="12.000000" cy="12.000000" r="12.000000" fill="#FFFFFF" fill-opacity="0"/>
		<circle id="path3" cx="12.000000" cy="12.000000" r="12.000000" stroke="#000000" stroke-opacity="0" stroke-width="1.500000"/>
		<path id="path4" d="M2.5 11.41L4.27 5.22C4.41 4.72 4.8 4.33 5.3 4.19C7.54 3.56 9.77 3.25 12 3.25C14.23 3.25 16.46 3.56 18.68 4.18C19.19 4.33 19.58 4.72 19.72 5.22L21.5 11.41C18.34 10.8 15.18 10.5 12.01 10.5C8.84 10.5 5.67 10.8 2.5 11.41Z" fill="#FFFFFF" fill-opacity="0" fill-rule="evenodd"/>
		<path id="path4" d="M4.27 5.22C4.41 4.72 4.8 4.33 5.3 4.19C7.54 3.56 9.77 3.25 12 3.25C14.23 3.25 16.46 3.56 18.68 4.18C19.19 4.33 19.58 4.72 19.72 5.22L21.5 11.41C18.34 10.8 15.18 10.5 12.01 10.5C8.84 10.5 5.67 10.8 2.5 11.41L4.27 5.22Z" stroke="#FFFFFF" stroke-opacity="0" stroke-width="1.500000" stroke-linejoin="round"/>
		<path id="path5" d="M12 10.5C14.71 10.5 17.79 10.78 21.23 11.35C22.24 11.52 22.96 12.41 22.9 13.43L22.55 20.05C22.52 20.58 22.08 21 21.55 21L18.5 21L17.5 19.25L6.5 19.25L5.5 21L2.44 21C1.91 21 1.47 20.58 1.44 20.05L1.09 13.43C1.03 12.41 1.75 11.52 2.76 11.35C6.2 10.78 9.28 10.5 12 10.5Z" fill="#EE3B55" fill-opacity="1.000000" fill-rule="evenodd"/>
		<path id="path5" d="M21.23 11.35C22.24 11.52 22.96 12.41 22.9 13.43L22.55 20.05C22.52 20.58 22.08 21 21.55 21L18.5 21L17.5 19.25L6.5 19.25L5.5 21L2.44 21C1.91 21 1.47 20.58 1.44 20.05L1.09 13.43C1.03 12.41 1.75 11.52 2.76 11.35C6.2 10.78 9.28 10.5 12 10.5C14.71 10.5 17.79 10.78 21.23 11.35Z" stroke="#EE3B55" stroke-opacity="1.000000" stroke-width="1.500000" stroke-linejoin="round"/>
		<path id="path6" d="M6.47 15.77L6.49 15.75C6.91 15.74 7.24 16.07 7.25 16.49C7.25 16.91 6.92 17.24 6.5 17.25L6.48 17.23L6.47 15.77ZM15.47 15.77L15.49 15.75C15.91 15.74 16.24 16.07 16.25 16.49C16.25 16.91 15.92 17.24 15.5 17.25L15.48 17.23L15.47 15.77ZM20.47 15.77L20.49 15.75C20.91 15.74 21.24 16.07 21.25 16.49C21.25 16.91 20.92 17.24 20.5 17.25L20.48 17.23L20.47 15.77ZM8.5 17.25L8.52 17.23L8.51 15.77L8.49 15.75C8.07 15.75 7.74 16.08 7.75 16.5C7.75 16.92 8.08 17.25 8.5 17.25ZM17.5 17.25L17.52 17.23L17.51 15.77L17.49 15.75C17.07 15.75 16.74 16.08 16.75 16.5C16.75 16.92 17.08 17.25 17.5 17.25ZM3.5 17.25L3.52 17.23L3.51 15.77L3.49 15.75C3.07 15.75 2.74 16.08 2.75 16.5C2.75 16.92 3.08 17.25 3.5 17.25Z" fill="#000000" fill-opacity="0" fill-rule="evenodd"/>
		<path id="path6" d="M6.5 16.5L3.5 16.5M15.5 16.5L8.5 16.5M20.5 16.5L17.5 16.5" stroke="#FFFFFF" stroke-opacity="1.000000" stroke-width="1.500000" stroke-linejoin="round" stroke-linecap="round"/>
		<path id="path7" d="M12 3C14.25 3 16.5 3.31 18.75 3.94C19.34 4.11 19.79 4.56 19.96 5.15L21.74 11.34C21.77 11.48 21.7 11.61 21.56 11.65C21.43 11.69 21.29 11.61 21.25 11.48L19.48 5.29C19.36 4.87 19.03 4.54 18.62 4.43C16.41 3.81 14.2 3.5 12 3.5C9.79 3.5 7.58 3.81 5.37 4.43C4.95 4.54 4.63 4.87 4.51 5.29L2.74 11.48C2.7 11.61 2.56 11.69 2.43 11.65C2.29 11.61 2.22 11.48 2.25 11.34L4.03 5.15C4.2 4.56 4.65 4.11 5.24 3.95C7.49 3.31 9.75 3 12 3Z" fill="#EE3B55" fill-opacity="1.000000" fill-rule="nonzero"/>
		<path id="path7" d="M18.75 3.94C19.34 4.11 19.79 4.56 19.96 5.15L21.74 11.34C21.77 11.48 21.7 11.61 21.56 11.65C21.43 11.69 21.29 11.61 21.25 11.48L19.48 5.29C19.36 4.87 19.03 4.54 18.62 4.43C16.41 3.81 14.2 3.5 12 3.5C9.79 3.5 7.58 3.81 5.37 4.43C4.95 4.54 4.63 4.87 4.51 5.29L2.74 11.48C2.7 11.61 2.56 11.69 2.43 11.65C2.29 11.61 2.22 11.48 2.25 11.34L4.03 5.15C4.2 4.56 4.65 4.11 5.24 3.95C7.49 3.31 9.75 3 12 3C14.25 3 16.5 3.31 18.75 3.94Z" stroke="#EE3B55" stroke-opacity="1.000000" stroke-width="1.500000" stroke-linejoin="round"/>
	</g>
</svg>
