<svg width="24.000000" height="24.000000" viewBox="0 0 24 24" fill="none" xmlns="http://www.w3.org/2000/svg" xmlns:xlink="http://www.w3.org/1999/xlink">
	<desc>
			Created with Pixso.
	</desc>
	<defs/>
	<mask id="mask13_1268" mask-type="alpha" maskUnits="userSpaceOnUse" x="2.236977" y="2.269043" width="19.708336" height="19.128052">
		<path id="path-1" d="M14.6148 3.27563C13.2457 1.97681 11.1245 1.93494 9.70689 3.15002L9.56752 3.27563L2.52274 9.95923C2.15546 10.3076 2.1402 10.8878 2.48864 11.2551C2.81219 11.5962 3.33557 11.6337 3.70275 11.3583L3.78455 11.2892L10.8293 4.60571C11.503 3.96655 12.5409 3.93616 13.2493 4.5144L13.353 4.60571L20.3977 11.2892C20.765 11.6377 21.3452 11.6224 21.6937 11.2551C22.0172 10.9141 22.0272 10.3894 21.7329 10.0372L21.6596 9.95923L14.6148 3.27563ZM12.6895 5.24316L12.7219 5.27283L20.341 12.5349L20.341 18.6471C20.341 20.1096 19.1992 21.3054 17.7585 21.3921L17.591 21.3971L6.59095 21.3971C5.07217 21.3971 3.84095 20.1659 3.84095 18.6471L3.84095 12.5349L11.4601 5.27283C11.8059 4.94482 12.3454 4.93677 12.6895 5.24316ZM12.091 13.375C10.5722 13.375 9.34095 14.6062 9.34095 16.125L9.34095 19.5625L14.841 19.5625L14.841 16.125C14.841 14.6062 13.6097 13.375 12.091 13.375Z" clip-rule="evenodd" fill="#C4C4C4" fill-opacity="1.000000" fill-rule="evenodd"/>
	</mask>
	<g mask="url(#mask13_1268)">
		<rect id="矩形" x="1.091007" y="1.000122" width="22.000000" height="22.000000" fill="#000000" fill-opacity="0.400000"/>
	</g>
</svg>
