<svg width="24.000000" height="24.000000" viewBox="0 0 24 24" fill="none" xmlns="http://www.w3.org/2000/svg" xmlns:xlink="http://www.w3.org/1999/xlink">
	<desc>
			Created with Pixso.
	</desc>
	<defs>
		<clipPath id="clip13_1228">
			<rect id="ic_me_on@" width="24.000000" height="24.000000" fill="white" fill-opacity="0"/>
		</clipPath>
	</defs>
	<rect id="ic_me_on@" width="24.000000" height="24.000000" fill="#FFFFFF" fill-opacity="0"/>
	<g clip-path="url(#clip13_1228)">
		<path id="差集" d="M12 1.5L12.1733 1.50146C17.8994 1.59424 22.5 6.26562 22.5 12.0081L22.4986 12.1733C22.4058 17.8994 17.7344 22.5 11.9919 22.5L11.8267 22.4985C6.10071 22.4058 1.50006 17.7344 1.50006 11.9919L1.50143 11.8267C1.59427 6.10059 6.26569 1.5 12 1.5ZM12.0001 6.30884C13.6569 6.30884 15.0001 7.6521 15.0001 9.30884C15.0001 10.9658 13.6569 12.3088 12.0001 12.3088C10.3432 12.3088 9.00006 10.9658 9.00006 9.30884C9.00006 7.6521 10.3432 6.30884 12.0001 6.30884ZM12 12.8901C15.02 12.8901 17.5479 14.9966 18.1948 17.8203C16.6439 19.4702 14.4422 20.5002 12.0001 20.5002C9.55786 20.5002 7.35626 19.4702 5.80585 17.821C6.45215 14.9966 8.9801 12.8901 12 12.8901Z" clip-rule="evenodd" fill="#EE3B55" fill-opacity="1.000000" fill-rule="evenodd"/>
	</g>
</svg>
