<svg width="24.000000" height="24.000000" viewBox="0 0 24 24" fill="none" xmlns="http://www.w3.org/2000/svg" xmlns:xlink="http://www.w3.org/1999/xlink">
	<desc>
			Created with Pixso.
	</desc>
	<defs>
		<clipPath id="clip244_2199">
			<rect id="ic_me_on@" width="24.000000" height="24.000000" fill="white" fill-opacity="0"/>
		</clipPath>
	</defs>
	<rect id="ic_me_on@" width="24.000000" height="24.000000" fill="#FFFFFF" fill-opacity="0"/>
	<g clip-path="url(#clip244_2199)">
		<path id="差集" d="M12 1.5L12.1733 1.50146C17.8992 1.59424 22.5 6.26562 22.5 12.0081L22.4985 12.1733C22.4058 17.8993 17.7344 22.5 11.9919 22.5L11.8267 22.4985C6.10059 22.4058 1.5 17.7344 1.5 11.9919L1.50146 11.8267C1.59424 6.10071 6.26562 1.5 12 1.5ZM12 6.30884C13.6567 6.30884 15 7.65198 15 9.30884C15 10.9657 13.6567 12.3088 12 12.3088C10.3433 12.3088 9 10.9657 9 9.30884C9 7.65198 10.3433 6.30884 12 6.30884ZM12 12.8901C15.02 12.8901 17.5479 14.9966 18.1948 17.8203C16.6438 19.4701 14.4421 20.5 12 20.5C9.55786 20.5 7.3562 19.4701 5.80566 17.8209C6.45215 14.9966 8.97998 12.8901 12 12.8901Z" clip-rule="evenodd" fill="#000000" fill-opacity="0.400000" fill-rule="evenodd"/>
	</g>
</svg>
