<svg width="40.000000" height="40.000000" viewBox="0 0 40 40" fill="none" xmlns="http://www.w3.org/2000/svg" xmlns:xlink="http://www.w3.org/1999/xlink">
	<desc>
			Created with Pixso.
	</desc>
	<defs>
		<filter id="filter_60_1145_dd" x="5.000000" y="7.000000" width="32.005463" height="27.230049" filterUnits="userSpaceOnUse" color-interpolation-filters="sRGB">
			<feFlood flood-opacity="0" result="BackgroundImageFix"/>
			<feColorMatrix in="SourceAlpha" type="matrix" values="0 0 0 0 0 0 0 0 0 0 0 0 0 0 0 0 0 0 127 0" result="hardAlpha"/>
			<feOffset dx="0" dy="0"/>
			<feGaussianBlur stdDeviation="1.33333"/>
			<feComposite in2="hardAlpha" operator="out" k2="-1" k3="1"/>
			<feColorMatrix type="matrix" values="0 0 0 0 0 0 0 0 0 0 0 0 0 0 0 0 0 0 0.1 0"/>
			<feBlend mode="normal" in2="BackgroundImageFix" result="effect_dropShadow_1"/>
			<feBlend mode="normal" in="SourceGraphic" in2="effect_dropShadow_1" result="shape"/>
		</filter>
		<clipPath id="clip60_1146">
			<rect width="40.000000" height="40.000000" fill="white" fill-opacity="0"/>
		</clipPath>
	</defs>
	<g clip-path="url(#clip60_1146)">
		<path d="M32.08 38.32L14.43 38.32C10.08 38.32 6.52 34.76 6.52 30.41L6.52 19.31C6.52 14.96 10.08 11.4 14.43 11.4L32.08 11.4C36.44 11.4 40 14.96 40 19.31L40 30.41C40 34.76 36.44 38.32 32.08 38.32Z" fill="#D5E0E7" fill-opacity="1.000000" fill-rule="nonzero"/>
		<path d="M30.62 36.26L9.41 36.26C5.3 36.26 1.95 32.91 1.95 28.8L1.95 11.19C1.95 7.09 5.3 3.73 9.41 3.73L30.62 3.73C34.72 3.73 38.08 7.09 38.08 11.19L38.08 28.8C38.08 32.91 34.73 36.26 30.62 36.26Z" fill="#A4B8C6" fill-opacity="1.000000" fill-rule="nonzero"/>
		<path d="M9.41 36.26C5.3 36.26 1.95 32.91 1.95 28.8L1.95 11.19C1.95 7.09 5.3 3.73 9.41 3.73L30.62 3.73C34.72 3.73 38.08 7.09 38.08 11.19C36.48 27.77 25.59 34.74 9.41 36.26Z" fill="#B7C7D2" fill-opacity="1.000000" fill-rule="nonzero"/>
		<path d="M1.95 27.67L1.95 11.19C1.95 7.09 5.3 3.73 9.41 3.73L27.85 3.73C30.54 17.81 18.63 28.63 1.95 27.67Z" fill="#C7D3DC" fill-opacity="1.000000" fill-rule="nonzero"/>
		<path d="M1.95 18.22L1.95 11.19C1.95 7.09 5.3 3.73 9.41 3.73L17.4 3.73C17.75 16.47 13.71 17.1 1.95 18.22Z" fill="#D0DAE2" fill-opacity="1.000000" fill-rule="nonzero"/>
		<g filter="url(#filter_60_1145_dd)">
			<path d="M17.8458 21.861C17.8458 17.2057 21.0548 13.4478 25.5699 13.4478C30.0889 13.4478 33.0055 17.2097 33.0055 21.8409C33.0055 26.4722 30.0849 30.23 25.5699 30.23C21.0548 30.23 17.8458 26.5163 17.8458 21.861ZM22.5091 21.8169C22.5091 25.1381 24.4882 27.8263 27.2645 27.8263C30.0449 27.8263 31.8356 25.1501 31.8356 21.841C31.8356 18.5318 30.0449 15.8075 27.2645 15.8075C24.4842 15.8075 22.5091 18.4957 22.5091 21.8169ZM27.0282 16.6088C24.8167 16.6088 23.0219 19.0125 23.0219 22.0172C23.0219 25.0219 24.8167 27.4257 27.0282 27.4257C29.2396 27.4257 31.0344 25.0219 31.0344 22.0172C31.0344 19.0125 29.2396 16.6088 27.0282 16.6088ZM26.5634 20.1783C26.4479 20.2373 26.3438 20.3121 26.2509 20.4027L24.4882 18.7121L24.5764 18.5798C24.6928 18.4085 24.8243 18.2496 24.9709 18.1031C25.1174 17.9567 25.2765 17.8254 25.4479 17.7091C25.6194 17.5928 25.8003 17.4937 25.9906 17.4118C26.1809 17.3298 26.3772 17.2665 26.5795 17.2217L26.5634 20.1783ZM27.529 17.2217C27.7312 17.2666 27.9275 17.33 28.1177 17.412C28.308 17.494 28.4888 17.5931 28.6603 17.7094C28.8318 17.8256 28.9908 17.9569 29.1374 18.1033C29.2107 18.1765 29.2802 18.2528 29.346 18.3322L29.346 18.3322C29.4118 18.4117 29.4738 18.4942 29.5321 18.5798C29.642 18.7409 29.7421 18.9079 29.8326 19.0806L27.9576 20.5189C27.8374 20.3788 27.6958 20.2653 27.533 20.1783L27.529 17.2217ZM23.5748 21.9732C23.5771 21.2251 23.7107 20.5014 23.9754 19.8018L25.7342 21.4924C25.705 21.6527 25.6903 21.8143 25.6901 21.9772L25.6901 22.2696L23.8232 23.7079C23.6641 23.1406 23.5853 22.5623 23.5868 21.9732L23.5748 21.9732ZM28.4143 22.4579C28.4435 22.2976 28.4582 22.136 28.4584 21.9732C28.4645 21.8757 28.4645 21.7782 28.4584 21.6807L30.3373 20.2384C30.4964 20.8057 30.5752 21.384 30.5737 21.9732C30.5775 22.7211 30.4506 23.4463 30.1931 24.1486L28.4143 22.4579ZM26.5634 26.7246C26.3611 26.6798 26.1649 26.6165 25.9746 26.5345C25.7843 26.4526 25.6034 26.3535 25.4319 26.2372C25.2604 26.1209 25.1014 25.9896 24.9548 25.8432C24.8083 25.6967 24.6768 25.5378 24.5603 25.3665C24.4455 25.2068 24.34 25.0412 24.2438 24.8697L26.1588 23.4194C26.2771 23.5629 26.4187 23.6778 26.5835 23.7639L26.5634 26.7246ZM29.5321 25.3665C29.4159 25.538 29.2845 25.6971 29.138 25.8437C28.9915 25.9902 28.8325 26.1217 28.661 26.238C28.4895 26.3542 28.3085 26.4533 28.1181 26.5351C27.9278 26.617 27.7314 26.6801 27.529 26.7246L27.529 23.772C27.6431 23.7111 27.7459 23.6349 27.8374 23.5436L29.6002 25.2383C29.5731 25.2826 29.5437 25.3253 29.5121 25.3665L29.5321 25.3665Z" clip-rule="evenodd" fill="#FFFFFF" fill-opacity="1.000000" fill-rule="evenodd"/>
			<path d="M9 11.92C9 11.86 9 11.8 9.02 11.74C9.03 11.68 9.05 11.62 9.07 11.57C9.09 11.51 9.12 11.46 9.16 11.41C9.19 11.36 9.23 11.31 9.28 11.27C9.32 11.22 9.37 11.18 9.42 11.15C9.47 11.12 9.52 11.09 9.58 11.06C9.64 11.04 9.7 11.02 9.76 11.01C9.82 11 9.88 10.99 9.94 11L21.27 11C21.33 10.99 21.39 11 21.45 11.01C21.51 11.02 21.57 11.04 21.63 11.06C21.69 11.09 21.74 11.12 21.79 11.15C21.84 11.18 21.89 11.22 21.93 11.27C21.98 11.31 22.02 11.36 22.05 11.41C22.09 11.46 22.12 11.51 22.14 11.57C22.16 11.62 22.18 11.68 22.2 11.74C22.21 11.8 22.21 11.86 22.22 11.92L22.22 13.24C21.83 13.38 21.46 13.55 21.1 13.75C20.74 13.95 20.39 14.18 20.07 14.43C19.74 14.68 19.44 14.95 19.15 15.25C18.87 15.55 18.61 15.87 18.37 16.2L9.96 16.2C9.9 16.2 9.84 16.2 9.77 16.19C9.71 16.18 9.65 16.16 9.6 16.14C9.54 16.12 9.48 16.09 9.43 16.06C9.38 16.02 9.33 15.98 9.28 15.94C9.24 15.9 9.2 15.85 9.16 15.8C9.13 15.75 9.1 15.69 9.07 15.64C9.05 15.58 9.03 15.52 9.02 15.46C9 15.4 9 15.34 9 15.27L9 11.92ZM16.61 22.61L9.92 22.61C9.86 22.61 9.8 22.61 9.74 22.6C9.68 22.58 9.63 22.57 9.57 22.54C9.51 22.52 9.46 22.49 9.41 22.46C9.36 22.42 9.31 22.38 9.27 22.34C9.22 22.3 9.19 22.25 9.15 22.2C9.12 22.15 9.09 22.1 9.07 22.04C9.04 21.98 9.02 21.92 9.01 21.87C9 21.81 9 21.74 9 21.68L9 18.33C9 18.27 9 18.21 9.01 18.15C9.02 18.09 9.04 18.04 9.07 17.98C9.09 17.92 9.12 17.87 9.15 17.82C9.19 17.77 9.22 17.72 9.27 17.68C9.31 17.63 9.36 17.6 9.41 17.56C9.46 17.53 9.51 17.5 9.57 17.48C9.63 17.45 9.68 17.43 9.74 17.42C9.8 17.41 9.86 17.41 9.92 17.41L17.81 17.41C17.61 17.77 17.43 18.14 17.27 18.52C17.12 18.91 16.99 19.3 16.89 19.7C16.78 20.1 16.71 20.51 16.66 20.92C16.6 21.33 16.58 21.74 16.58 22.16C16.58 22.31 16.58 22.46 16.61 22.61ZM11.84 28.62L9.93 28.62C9.87 28.62 9.81 28.62 9.75 28.6C9.69 28.59 9.63 28.58 9.57 28.55C9.52 28.53 9.46 28.5 9.41 28.47C9.36 28.43 9.31 28.39 9.27 28.35C9.23 28.31 9.19 28.26 9.15 28.21C9.12 28.16 9.09 28.11 9.07 28.05C9.04 27.99 9.03 27.93 9.01 27.87C9 27.81 9 27.75 9 27.69L9 24.35C9 24.29 9 24.23 9.01 24.17C9.03 24.11 9.04 24.05 9.07 23.99C9.09 23.93 9.12 23.88 9.15 23.83C9.19 23.78 9.23 23.73 9.27 23.69C9.31 23.65 9.36 23.61 9.41 23.57C9.46 23.54 9.52 23.51 9.57 23.49C9.63 23.46 9.69 23.45 9.75 23.43C9.81 23.42 9.87 23.41 9.93 23.41L16.7 23.41C16.74 23.9 16.83 24.37 16.95 24.84C17.08 25.31 17.24 25.76 17.43 26.21C17.63 26.65 17.86 27.07 18.13 27.48C18.39 27.88 18.68 28.26 19.01 28.62L11.84 28.62Z" fill="#FFFFFF" fill-opacity="0.800000" fill-rule="nonzero"/>
		</g>
	</g>
</svg>
