<svg width="40.000000" height="40.000000" viewBox="0 0 40 40" fill="none" xmlns="http://www.w3.org/2000/svg" xmlns:xlink="http://www.w3.org/1999/xlink">
	<desc>
			Created with Pixso.
	</desc>
	<defs>
		<filter id="filter_60_1156_dd" x="5.999695" y="5.000000" width="29.469009" height="29.333992" filterUnits="userSpaceOnUse" color-interpolation-filters="sRGB">
			<feFlood flood-opacity="0" result="BackgroundImageFix"/>
			<feColorMatrix in="SourceAlpha" type="matrix" values="0 0 0 0 0 0 0 0 0 0 0 0 0 0 0 0 0 0 127 0" result="hardAlpha"/>
			<feOffset dx="0" dy="0"/>
			<feGaussianBlur stdDeviation="1.33333"/>
			<feComposite in2="hardAlpha" operator="out" k2="-1" k3="1"/>
			<feColorMatrix type="matrix" values="0 0 0 0 0 0 0 0 0 0 0 0 0 0 0 0 0 0 0.1 0"/>
			<feBlend mode="normal" in2="BackgroundImageFix" result="effect_dropShadow_1"/>
			<feBlend mode="normal" in="SourceGraphic" in2="effect_dropShadow_1" result="shape"/>
		</filter>
		<clipPath id="clip60_1157">
			<rect width="40.000000" height="40.000000" fill="white" fill-opacity="0"/>
		</clipPath>
	</defs>
	<g clip-path="url(#clip60_1157)">
		<path d="M32.08 38.32L14.43 38.32C10.08 38.32 6.52 34.76 6.52 30.41L6.52 19.31C6.52 14.96 10.08 11.4 14.43 11.4L32.08 11.4C36.44 11.4 40 14.96 40 19.31L40 30.41C40 34.76 36.44 38.32 32.08 38.32Z" fill="#F9B2AB" fill-opacity="1.000000" fill-rule="nonzero"/>
		<path d="M30.62 36.26L9.41 36.26C5.3 36.26 1.95 32.91 1.95 28.8L1.95 11.19C1.95 7.09 5.3 3.73 9.41 3.73L30.62 3.73C34.72 3.73 38.08 7.09 38.08 11.19L38.08 28.8C38.08 32.91 34.73 36.26 30.62 36.26Z" fill="#FA3F2A" fill-opacity="1.000000" fill-rule="nonzero"/>
		<path d="M9.41 36.26C5.3 36.26 1.95 32.91 1.95 28.8L1.95 11.19C1.95 7.09 5.3 3.73 9.41 3.73L30.62 3.73C34.72 3.73 38.08 7.09 38.08 11.19C36.48 27.77 25.59 34.74 9.41 36.26Z" fill="#FD5E4D" fill-opacity="1.000000" fill-rule="nonzero"/>
		<path d="M1.95 27.67L1.95 11.19C1.95 7.09 5.3 3.73 9.41 3.73L27.85 3.73C30.54 17.81 18.63 28.63 1.95 27.67Z" fill="#FD776A" fill-opacity="1.000000" fill-rule="nonzero"/>
		<path d="M1.95 18.22L1.95 11.19C1.95 7.09 5.3 3.73 9.41 3.73L17.4 3.73C17.75 16.47 13.71 17.1 1.95 18.22Z" fill="#FE837A" fill-opacity="1.000000" fill-rule="nonzero"/>
		<g filter="url(#filter_60_1156_dd)">
			<path d="M17.75 14.73C19.16 14.52 20.57 14.52 21.97 14.73C22.96 14.93 23.94 15.08 24.87 15.34C25.04 15.38 25.2 15.45 25.35 15.53C25.51 15.62 25.65 15.72 25.77 15.84C25.9 15.96 26.01 16.09 26.1 16.24C26.2 16.39 26.27 16.54 26.33 16.71C26.72 17.84 27.14 18.96 27.59 20.07C27.66 20.25 27.9 20.53 28.04 20.51C28.13 20.49 28.23 20.49 28.32 20.49C28.41 20.49 28.51 20.5 28.6 20.52C28.69 20.55 28.78 20.57 28.87 20.61C28.95 20.65 29.03 20.7 29.11 20.75C29.19 20.8 29.26 20.86 29.33 20.93C29.39 21 29.45 21.07 29.5 21.15C29.55 21.23 29.6 21.31 29.63 21.4C29.67 21.49 29.69 21.58 29.71 21.67C29.76 21.87 29.76 22.08 29.71 22.28L28.59 22.59C28.66 22.98 28.71 23.37 28.73 23.77L28.73 29.22C28.72 29.39 28.69 29.55 28.63 29.7C28.58 29.86 28.5 30 28.39 30.13C27.35 30.33 26.3 30.35 25.24 30.19C24.51 29.73 24.97 28.95 24.73 28.32L15.16 28.32C14.97 28.99 14.86 30.11 14.65 30.19C13.57 30.38 12.5 30.38 11.42 30.19C11.31 30.04 11.22 29.87 11.16 29.69C11.1 29.52 11.07 29.33 11.06 29.14C11.01 28.36 11.01 27.61 11.01 26.84C11.01 25.41 11.01 23.99 11.06 22.55L10.02 22.27C9.99 22.11 9.99 21.95 10.02 21.79C10.32 21 10.71 20.39 11.72 20.48C11.84 20.48 12.07 20.24 12.14 20.07C12.51 19.19 12.84 18.29 13.12 17.38C13.17 17.22 13.23 17.06 13.3 16.9C13.37 16.75 13.45 16.6 13.54 16.46C13.63 16.31 13.74 16.18 13.85 16.05C13.96 15.92 14.09 15.81 14.22 15.7C14.35 15.59 14.49 15.49 14.63 15.41C14.78 15.32 14.93 15.24 15.09 15.18C15.25 15.12 15.41 15.07 15.57 15.03C15.74 14.99 15.91 14.96 16.08 14.95C16.62 14.85 17.18 14.78 17.72 14.69L17.75 14.73ZM13.4 20.82C14.46 21.04 15.52 21.21 16.6 21.32C17.68 21.43 18.75 21.49 19.84 21.49C20.92 21.49 22 21.43 23.07 21.32C24.15 21.21 25.22 21.04 26.28 20.82C25.91 19.72 25.55 18.75 25.29 17.76C25.27 17.67 25.25 17.58 25.21 17.49C25.18 17.4 25.13 17.32 25.09 17.24C25.04 17.16 24.98 17.08 24.92 17.01C24.85 16.94 24.79 16.87 24.71 16.81C24.64 16.75 24.56 16.7 24.48 16.65C24.39 16.61 24.31 16.57 24.22 16.54C24.13 16.51 24.03 16.49 23.94 16.47C23.85 16.46 23.75 16.45 23.66 16.45C21.62 16.37 19.57 16.3 17.53 16.28C16.87 16.3 16.21 16.4 15.56 16.58C15.42 16.61 15.28 16.67 15.16 16.75C15.03 16.84 14.93 16.95 14.85 17.07C14.29 18.26 13.88 19.5 13.4 20.82ZM14.23 25.46C14.59 25.48 14.94 25.46 15.29 25.4C15.42 25.37 15.55 25.31 15.66 25.23C15.77 25.15 15.86 25.04 15.93 24.92C15.98 24.77 15.75 24.41 15.55 24.32C14.75 23.94 13.93 23.62 13.09 23.34C12.68 23.2 12.21 23.23 12.11 23.81C11.91 24.66 12.11 25.14 12.75 25.27C13.25 25.37 13.73 25.39 14.28 25.44L14.23 25.46ZM25.59 25.46C26.11 25.43 26.62 25.36 27.13 25.27C27.87 25.1 27.71 24.5 27.69 23.98C27.67 23.45 27.4 23.21 26.99 23.33C25.98 23.63 25 24 24.04 24.45C23.61 24.65 23.77 25.23 24.26 25.33C24.7 25.4 25.14 25.44 25.59 25.45L25.59 25.46Z" fill="#FFFFFF" fill-opacity="1.000000" fill-rule="nonzero"/>
			<path d="M29.34 10.52L28.78 10.32L29.34 10.11C29.48 10.06 29.59 9.99 29.69 9.89C29.79 9.79 29.86 9.68 29.91 9.55L30.12 9L30.33 9.55C30.38 9.68 30.45 9.79 30.55 9.89C30.65 9.99 30.77 10.06 30.9 10.11L31.46 10.32L30.9 10.52C30.77 10.57 30.65 10.64 30.55 10.74C30.45 10.84 30.38 10.95 30.33 11.09L30.12 11.64L29.91 11.09C29.86 10.95 29.79 10.84 29.69 10.74C29.59 10.64 29.48 10.57 29.34 10.52ZM24.75 14.28L26.79 15.02C26.92 15.07 27.03 15.14 27.13 15.24C27.23 15.34 27.3 15.45 27.35 15.59L28.11 17.59L28.86 15.59C28.91 15.45 28.98 15.34 29.08 15.24C29.18 15.14 29.3 15.07 29.43 15.02L31.46 14.28L29.43 13.54C29.3 13.49 29.18 13.42 29.08 13.32C28.98 13.22 28.91 13.11 28.86 12.98L28.11 10.98L27.35 12.98C27.31 13.11 27.23 13.22 27.13 13.32C27.03 13.42 26.92 13.49 26.79 13.54L24.75 14.28ZM24.75 11.64L24.82 11.67C24.96 11.71 25.07 11.79 25.17 11.88C25.27 11.98 25.34 12.1 25.39 12.23L25.42 12.3L25.45 12.23C25.5 12.1 25.57 11.98 25.67 11.88C25.77 11.79 25.89 11.71 26.02 11.67L26.09 11.64L26.02 11.61C25.89 11.56 25.77 11.49 25.67 11.39C25.57 11.29 25.5 11.18 25.45 11.05L25.42 10.98L25.39 11.05C25.34 11.18 25.27 11.29 25.17 11.39C25.07 11.49 24.96 11.56 24.83 11.61L24.75 11.64Z" fill="#FFFFFF" fill-opacity="0.800000" fill-rule="nonzero"/>
		</g>
	</g>
</svg>
