<svg width="40.000000" height="40.000000" viewBox="0 0 40 40" fill="none" xmlns="http://www.w3.org/2000/svg" xmlns:xlink="http://www.w3.org/1999/xlink">
	<desc>
			Created with Pixso.
	</desc>
	<defs/>
	<circle id="椭圆 14" cx="20.000000" cy="20.000000" r="20.000000" fill="#000000" fill-opacity="0.050000"/>
	<g opacity="0.000000">
		<rect id="矩形" x="8.000000" y="8.000000" width="24.000000" height="24.000000" fill="#000000" fill-opacity="1.000000"/>
		<rect id="矩形" x="8.000000" y="8.000000" width="24.000000" height="24.000000" stroke="#000000" stroke-opacity="0" stroke-width="1.000000"/>
	</g>
	<path id="形状结合" d="M25.4 11C27.05 11 28.4 12.34 28.4 13.99L29 26C29 27.65 27.65 29 26 29L13.99 29C12.34 29 11 27.65 11 26L11.6 13.99C11.6 12.34 12.94 11 14.59 11L25.4 11ZM24 15.25C23.58 15.25 23.25 15.58 23.25 16C23.25 17.79 21.79 19.25 20 19.25C18.2 19.25 16.75 17.79 16.75 16C16.75 15.58 16.41 15.25 16 15.25C15.58 15.25 15.25 15.58 15.25 16C15.25 18.61 17.38 20.75 20 20.75C22.61 20.75 24.75 18.61 24.75 16C24.75 15.58 24.41 15.25 24 15.25Z" fill="#000000" fill-opacity="0.200000" fill-rule="evenodd"/>
	<path id="形状结合" d="M28.4 13.99L29 26C29 27.65 27.65 29 26 29L13.99 29C12.34 29 11 27.65 11 26L11.6 13.99C11.6 12.34 12.94 11 14.59 11L25.4 11C27.05 11 28.4 12.34 28.4 13.99ZM23.25 16C23.25 17.79 21.79 19.25 20 19.25C18.2 19.25 16.75 17.79 16.75 16C16.75 15.58 16.41 15.25 16 15.25C15.58 15.25 15.25 15.58 15.25 16C15.25 18.61 17.38 20.75 20 20.75C22.61 20.75 24.75 18.61 24.75 16C24.75 15.58 24.41 15.25 24 15.25C23.58 15.25 23.25 15.58 23.25 16Z" stroke="#000000" stroke-opacity="0" stroke-width="1.000000"/>
</svg>
