<svg width="40.000000" height="40.000000" viewBox="0 0 40 40" fill="none" xmlns="http://www.w3.org/2000/svg" xmlns:xlink="http://www.w3.org/1999/xlink">
	<desc>
			Created with Pixso.
	</desc>
	<defs>
		<filter id="filter_60_1176_dd" x="5.000000" y="5.000000" width="30.000000" height="29.118141" filterUnits="userSpaceOnUse" color-interpolation-filters="sRGB">
			<feFlood flood-opacity="0" result="BackgroundImageFix"/>
			<feColorMatrix in="SourceAlpha" type="matrix" values="0 0 0 0 0 0 0 0 0 0 0 0 0 0 0 0 0 0 127 0" result="hardAlpha"/>
			<feOffset dx="0" dy="0"/>
			<feGaussianBlur stdDeviation="1.33333"/>
			<feComposite in2="hardAlpha" operator="out" k2="-1" k3="1"/>
			<feColorMatrix type="matrix" values="0 0 0 0 0 0 0 0 0 0 0 0 0 0 0 0 0 0 0.1 0"/>
			<feBlend mode="normal" in2="BackgroundImageFix" result="effect_dropShadow_1"/>
			<feBlend mode="normal" in="SourceGraphic" in2="effect_dropShadow_1" result="shape"/>
		</filter>
		<clipPath id="clip60_1177">
			<rect width="40.000000" height="40.000000" fill="white" fill-opacity="0"/>
		</clipPath>
	</defs>
	<g clip-path="url(#clip60_1177)">
		<path d="M32.08 38.32L14.43 38.32C10.08 38.32 6.52 34.76 6.52 30.41L6.52 19.31C6.52 14.96 10.08 11.4 14.43 11.4L32.08 11.4C36.44 11.4 40 14.96 40 19.31L40 30.41C40 34.76 36.44 38.32 32.08 38.32Z" fill="#7ACFFB" fill-opacity="0.500000" fill-rule="nonzero"/>
		<path d="M30.62 36.26L9.41 36.26C5.3 36.26 1.95 32.91 1.95 28.8L1.95 11.19C1.95 7.09 5.3 3.73 9.41 3.73L30.62 3.73C34.72 3.73 38.08 7.09 38.08 11.19L38.08 28.8C38.08 32.91 34.73 36.26 30.62 36.26Z" fill="#399AFA" fill-opacity="1.000000" fill-rule="nonzero"/>
		<path d="M9.41 36.26C5.3 36.26 1.95 32.91 1.95 28.8L1.95 11.19C1.95 7.09 5.3 3.73 9.41 3.73L30.62 3.73C34.72 3.73 38.08 7.09 38.08 11.19C36.48 27.77 25.59 34.74 9.41 36.26Z" fill="#44ABFA" fill-opacity="1.000000" fill-rule="nonzero"/>
		<path d="M1.95 27.67L1.95 11.19C1.95 7.09 5.3 3.73 9.41 3.73L27.85 3.73C30.54 17.81 18.63 28.63 1.95 27.67Z" fill="#4DB6F6" fill-opacity="1.000000" fill-rule="nonzero"/>
		<path d="M1.95 18.22L1.95 11.19C1.95 7.09 5.3 3.73 9.41 3.73L17.4 3.73C17.75 16.47 13.71 17.1 1.95 18.22Z" fill="#55C0F2" fill-opacity="1.000000" fill-rule="nonzero"/>
		<g filter="url(#filter_60_1176_dd)">
			<path d="M30.86 19.71C30.62 19.24 30.44 18.93 30.04 18.89C29.63 18.84 28.67 18.77 27.65 18.72C26.51 17.25 25.3 15.91 24.97 15.91L21.7 15.91L18.26 15.91L15.01 15.91C14.68 15.91 13.47 17.25 12.33 18.72C11.32 18.77 10.36 18.84 9.95 18.89C9.55 18.93 9.37 19.24 9.13 19.71C8.89 20.19 8.94 20.33 9.46 20.54C9.97 20.75 10.44 20.87 10.44 20.87C10.44 20.87 9.83 22.02 9.56 22.52C9.4 22.82 9.38 22.82 9.38 23.39C9.37 24.28 9.37 28.65 9.38 29.28C9.39 29.86 9.53 30.1 10.05 30.11C10.71 30.12 12.59 30.11 12.96 30.11C13.44 30.11 13.61 29.8 13.61 29.45L13.61 28.2L18.26 28.2L21.7 28.2L26.26 28.2L26.26 29.45C26.26 29.8 26.44 30.11 26.92 30.11C27.29 30.11 29.19 30.12 29.86 30.11C30.38 30.1 30.5 29.86 30.51 29.28C30.52 28.65 30.51 24.7 30.51 24.01C30.51 23.08 30.52 22.8 30.35 22.52C30.05 22.04 29.55 20.87 29.55 20.87C29.55 20.87 30.01 20.75 30.53 20.54C31.05 20.33 31.1 20.19 30.86 19.71ZM15.01 24.83C15.01 24.83 12.19 24.73 11.42 24.67C10.43 24.58 10.75 23.23 10.77 22.85C10.77 22.82 13.23 23.05 14.03 23.18C14.85 23.31 15.01 23.69 15.01 23.84C15.01 23.99 15.01 24.64 15.01 24.83ZM19.98 20.9C17.67 20.9 13.95 20.9 13.04 20.9C12.74 20.9 13.24 19.74 14.01 18.77C15.16 17.33 15.46 17.44 15.65 17.44C15.95 17.43 17.04 17.43 18.27 17.43L18.27 17.44C18.72 17.44 19.33 17.44 19.98 17.43C20.64 17.44 21.25 17.44 21.69 17.44L21.69 17.43C22.93 17.43 24.03 17.43 24.32 17.44C24.51 17.44 24.83 17.38 25.97 18.77C26.88 19.89 27.24 20.9 26.94 20.9C26.03 20.9 22.3 20.9 19.98 20.9ZM28.57 24.67C27.79 24.73 24.97 24.83 24.97 24.83C24.97 24.64 24.97 23.99 24.97 23.84C24.97 23.69 25.13 23.31 25.95 23.18C26.75 23.05 29.22 22.82 29.22 22.85C29.23 23.23 29.56 24.58 28.57 24.67Z" fill="#FFFFFF" fill-opacity="1.000000" fill-rule="nonzero"/>
			<path d="M16.48 14.38C17.01 14.38 17.44 14 17.44 13.53C17.44 13.35 17.37 13.18 17.27 13.04L17.3 13.04L16.48 12.07L15.66 13.04L15.69 13.04C15.58 13.18 15.52 13.35 15.52 13.53C15.52 14 15.95 14.38 16.48 14.38ZM18.98 13.53C18.98 14 19.41 14.38 19.94 14.38C20.47 14.38 20.9 14 20.9 13.53C20.9 13.35 20.83 13.18 20.72 13.04L20.76 13.04L19.94 12.07L19.11 13.04L19.15 13.04C19.04 13.18 18.98 13.35 18.98 13.53ZM22.22 13.04C22.11 13.18 22.05 13.35 22.05 13.53C22.05 14 22.48 14.38 23.01 14.38C23.54 14.38 23.97 14 23.97 13.53C23.97 13.35 23.9 13.18 23.8 13.04L23.83 13.04L23.01 12.07L22.18 13.04L22.22 13.04ZM18.02 11.3C18.55 11.3 18.98 10.92 18.98 10.45C18.98 10.27 18.91 10.11 18.8 9.97L18.84 9.97L18.02 9L17.19 9.97L17.23 9.97C17.12 10.11 17.06 10.27 17.06 10.45C17.06 10.92 17.49 11.3 18.02 11.3ZM21.47 11.3C22 11.3 22.43 10.92 22.43 10.45C22.43 10.27 22.37 10.11 22.26 9.97L22.3 9.97L21.47 9L20.65 9.97L20.69 9.97C20.58 10.11 20.51 10.27 20.51 10.45C20.51 10.92 20.94 11.3 21.47 11.3Z" fill="#FFFFFF" fill-opacity="0.800000" fill-rule="nonzero"/>
		</g>
	</g>
</svg>
