<svg width="24.000000" height="24.000000" viewBox="0 0 24 24" fill="none" xmlns="http://www.w3.org/2000/svg" xmlns:xlink="http://www.w3.org/1999/xlink">
	<desc>
			Created with Pixso.
	</desc>
	<defs>
		<linearGradient x1="1.000010" y1="0.999999" x2="23.000002" y2="23.075031" id="paint_linear_60_1131_0" gradientUnits="userSpaceOnUse">
			<stop stop-color="#8D93F8"/>
			<stop offset="0.962171" stop-color="#6D6EEA"/>
		</linearGradient>
	</defs>
	<g opacity="0.000000">
		<rect width="24.000000" height="24.000000" fill="#D8D8D8" fill-opacity="1.000000"/>
		<rect width="24.000000" height="24.000000" stroke="#000000" stroke-opacity="0" stroke-width="1.000000"/>
	</g>
	<path d="M19.33 1C21.28 1 22.88 2.52 22.99 4.45L22.99 4.66L23 12.8C21.68 10.83 19.44 9.53 16.89 9.53C12.84 9.53 9.56 12.82 9.56 16.86C9.56 17.78 9.72 18.66 10.03 19.47L9.06 19.47L6.31 22.8C5.8 23.31 4.98 23.05 4.79 22.43L4.75 22.15L4.75 19.47C2.88 19.47 1.26 17.99 1.03 16.09L1 15.87L1 15.58L1 4.66C1 2.71 2.52 1.11 4.44 1L4.66 1L19.33 1ZM10.76 9.67L6.49 9.67L6.37 9.68C5.92 9.74 5.58 10.12 5.58 10.59C5.58 11.05 5.92 11.43 6.37 11.49L6.49 11.5L10.76 11.5L10.89 11.5C11.33 11.43 11.68 11.05 11.68 10.59C11.68 10.08 11.27 9.67 10.76 9.67ZM16.27 5.39L6.5 5.39L6.37 5.4C5.92 5.46 5.58 5.84 5.58 6.31C5.58 6.77 5.92 7.16 6.37 7.22L6.5 7.22L16.27 7.22L16.4 7.22C16.84 7.15 17.19 6.77 17.19 6.31C17.19 5.8 16.78 5.39 16.27 5.39Z" fill="url(#paint_linear_60_1131_0)" fill-opacity="1.000000" fill-rule="evenodd"/>
	<path d="M22.99 4.45L22.99 4.66L23 12.8C21.68 10.83 19.44 9.53 16.89 9.53C12.84 9.53 9.56 12.82 9.56 16.86C9.56 17.78 9.72 18.66 10.03 19.47L9.06 19.47L6.31 22.8C5.8 23.31 4.98 23.05 4.79 22.43L4.75 22.15L4.75 19.47C2.88 19.47 1.26 17.99 1.03 16.09L1 15.87L1 15.58L1 4.66C1 2.71 2.52 1.11 4.44 1L4.66 1L19.33 1C21.28 1 22.88 2.52 22.99 4.45ZM6.49 9.67L6.37 9.68C5.92 9.74 5.58 10.12 5.58 10.59C5.58 11.05 5.92 11.43 6.37 11.49L6.49 11.5L10.76 11.5L10.89 11.5C11.33 11.43 11.68 11.05 11.68 10.59C11.68 10.08 11.27 9.67 10.76 9.67L6.49 9.67ZM6.5 5.39L6.37 5.4C5.92 5.46 5.58 5.84 5.58 6.31C5.58 6.77 5.92 7.16 6.37 7.22L6.5 7.22L16.27 7.22L16.4 7.22C16.84 7.15 17.19 6.77 17.19 6.31C17.19 5.8 16.78 5.39 16.27 5.39L6.5 5.39Z" stroke="#000000" stroke-opacity="0" stroke-width="1.000000"/>
	<path d="M16.88 10.75C20.26 10.75 22.99 13.49 22.99 16.86C22.99 20.24 20.26 22.98 16.88 22.98C13.51 22.98 10.77 20.24 10.77 16.86C10.77 13.49 13.51 10.75 16.88 10.75ZM16.48 13.82C16.02 13.82 15.64 14.17 15.58 14.62L15.57 14.74L15.57 17.1L15.58 17.24C15.6 17.38 15.66 17.52 15.74 17.63L17.41 19.33C17.72 19.57 18.26 19.67 18.59 19.44L18.79 19.24C19.03 18.92 19.04 18.48 18.81 18.16L17.4 16.72L17.4 14.74L17.39 14.62C17.33 14.17 16.95 13.82 16.48 13.82Z" fill="#B8BCFF" fill-opacity="1.000000" fill-rule="evenodd"/>
	<path d="M22.99 16.86C22.99 20.24 20.26 22.98 16.88 22.98C13.51 22.98 10.77 20.24 10.77 16.86C10.77 13.49 13.51 10.75 16.88 10.75C20.26 10.75 22.99 13.49 22.99 16.86ZM15.58 14.62L15.57 14.74L15.57 17.1L15.58 17.24C15.6 17.38 15.66 17.52 15.74 17.63L17.41 19.33C17.72 19.57 18.26 19.67 18.59 19.44L18.79 19.24C19.03 18.92 19.04 18.48 18.81 18.16L17.4 16.72L17.4 14.74L17.39 14.62C17.33 14.17 16.95 13.82 16.48 13.82C16.02 13.82 15.64 14.17 15.58 14.62ZM10.76 11.5L10.89 11.5C11.33 11.43 11.68 11.05 11.68 10.59" stroke="#000000" stroke-opacity="0" stroke-width="1.000000"/>
</svg>
