<svg width="24.000000" height="24.000000" viewBox="0 0 24 24" fill="none" xmlns="http://www.w3.org/2000/svg" xmlns:xlink="http://www.w3.org/1999/xlink">
	<desc>
			Created with Pixso.
	</desc>
	<defs>
		<clipPath id="clip13_1389">
			<rect width="24.000000" height="24.000000" fill="white" fill-opacity="0"/>
		</clipPath>
	</defs>
	<g clip-path="url(#clip13_1389)">
		<g opacity="0.000000">
			<rect width="24.000000" height="24.000000" fill="#D8D8D8" fill-opacity="1.000000"/>
			<rect width="24.000000" height="24.000000" stroke="#000000" stroke-opacity="0" stroke-width="1.000000"/>
		</g>
		<path d="M5.75 21.54C4.15 21.54 2.84 20.29 2.75 18.71L2.75 18.54L2.75 12.12C2.75 11.45 2.98 10.81 3.42 10.32L3.55 10.17L10.76 2.96C11.4 2.32 12.42 2.28 13.11 2.85L13.23 2.96L20.44 10.17C20.91 10.64 21.19 11.26 21.24 11.92L21.25 12.12L21.25 18.54C21.25 20.14 20 21.44 18.42 21.53L18.25 21.54L14.5 21.54C14.08 21.54 13.75 21.2 13.75 20.79C13.75 20.41 14.03 20.09 14.39 20.04L14.5 20.04L18.25 20.04C19.02 20.04 19.67 19.44 19.74 18.68L19.75 18.54L19.75 12.12C19.75 11.83 19.65 11.56 19.47 11.34L19.38 11.23L12.17 4.03C12.09 3.94 11.97 3.93 11.87 3.98L4.61 11.23C4.41 11.43 4.28 11.7 4.25 11.98L4.25 12.12L4.25 18.54C4.25 19.32 4.84 19.96 5.6 20.03L5.75 20.04L8.75 20.04L8.75 15.44C8.75 13.65 10.21 12.19 12 12.19C13.72 12.19 15.14 13.56 15.24 15.26L15.25 15.44L15.25 18.5C15.25 18.91 14.91 19.25 14.5 19.25C14.12 19.25 13.8 18.96 13.75 18.6L13.75 18.5L13.75 15.44C13.75 14.48 12.96 13.69 12 13.69C11.08 13.69 10.32 14.41 10.25 15.3L10.25 15.44L10.25 20.79C10.25 21.17 9.96 21.48 9.6 21.53L9.5 21.54L5.75 21.54Z" fill="#FE4F35" fill-opacity="1.000000" fill-rule="evenodd"/>
		<path d="M2.75 18.71L2.75 18.54L2.75 12.12C2.75 11.45 2.98 10.81 3.42 10.32L3.55 10.17L10.76 2.96C11.4 2.32 12.42 2.28 13.11 2.85L13.23 2.96L20.44 10.17C20.91 10.64 21.19 11.26 21.24 11.92L21.25 12.12L21.25 18.54C21.25 20.14 20 21.44 18.42 21.53L18.25 21.54L14.5 21.54C14.08 21.54 13.75 21.2 13.75 20.79C13.75 20.41 14.03 20.09 14.39 20.04L14.5 20.04L18.25 20.04C19.02 20.04 19.67 19.44 19.74 18.68L19.75 18.54L19.75 12.12C19.75 11.83 19.65 11.56 19.47 11.34L19.38 11.23L12.17 4.03C12.09 3.94 11.97 3.93 11.87 3.98L4.61 11.23C4.41 11.43 4.28 11.7 4.25 11.98L4.25 12.12L4.25 18.54C4.25 19.32 4.84 19.96 5.6 20.03L5.75 20.04L8.75 20.04L8.75 15.44C8.75 13.65 10.21 12.19 12 12.19C13.72 12.19 15.14 13.56 15.24 15.26L15.25 15.44L15.25 18.5C15.25 18.91 14.91 19.25 14.5 19.25C14.12 19.25 13.8 18.96 13.75 18.6L13.75 18.5L13.75 15.44C13.75 14.48 12.96 13.69 12 13.69C11.08 13.69 10.32 14.41 10.25 15.3L10.25 15.44L10.25 20.79C10.25 21.17 9.96 21.48 9.6 21.53L9.5 21.54L5.75 21.54C4.15 21.54 2.84 20.29 2.75 18.71Z" stroke="#000000" stroke-opacity="0" stroke-width="1.000000"/>
	</g>
</svg>
