<svg width="24.000000" height="24.000000" viewBox="0 0 24 24" fill="none" xmlns="http://www.w3.org/2000/svg" xmlns:xlink="http://www.w3.org/1999/xlink">
	<desc>
			Created with Pixso.
	</desc>
	<defs/>
	<g opacity="0.000000">
		<rect width="24.000000" height="24.000000" fill="#000000" fill-opacity="0.600000"/>
	</g>
	<path d="M11.99 2.74C14.32 2.74 16.21 4.63 16.21 6.96C16.21 10.03 15.12 12.25 13.27 12.99C12.89 13.14 12.45 12.95 12.3 12.57C12.14 12.18 12.33 11.75 12.72 11.59C13.9 11.12 14.71 9.47 14.71 6.96C14.71 5.46 13.49 4.24 11.99 4.24C10.5 4.24 9.28 5.46 9.28 6.96C9.28 8.69 9.84 10.25 10.68 11.1C10.75 11.15 10.8 11.21 10.84 11.28C11.01 11.54 10.99 11.87 10.83 12.11L10.72 12.23L10.61 12.32L6.7 14.8C6.08 15.19 5.62 15.78 5.38 16.47L5.31 16.68L4.75 18.75C4.62 19.22 4.94 19.68 5.4 19.74L5.5 19.75L18.49 19.75C18.97 19.75 19.33 19.32 19.26 18.85L18.68 16.68C18.48 15.97 18.06 15.36 17.47 14.93L17.29 14.8L15.74 13.82C15.39 13.59 15.28 13.13 15.51 12.78C15.71 12.46 16.11 12.35 16.44 12.5L18.1 13.54C19.02 14.12 19.71 15.01 20.05 16.04L20.12 16.28L20.69 18.36C21.07 19.76 20.07 21.15 18.64 21.24L18.49 21.25L5.5 21.25C4.05 21.25 2.98 19.91 3.26 18.51L3.3 18.36L3.87 16.28C4.15 15.23 4.8 14.31 5.68 13.68L5.89 13.54L9.08 11.51C8.26 10.35 7.78 8.71 7.78 6.96C7.78 4.63 9.67 2.74 11.99 2.74Z" fill="#000000" fill-opacity="0.600000" fill-rule="evenodd"/>
</svg>
