<svg width="24.000000" height="24.000000" viewBox="0 0 24 24" fill="none" xmlns="http://www.w3.org/2000/svg" xmlns:xlink="http://www.w3.org/1999/xlink">
	<desc>
			Created with Pixso.
	</desc>
	<defs>
		<clipPath id="clip15_1481">
			<rect width="24.000000" height="24.000000" fill="white" fill-opacity="0"/>
		</clipPath>
	</defs>
	<g clip-path="url(#clip15_1481)">
		<g opacity="0.000000">
			<rect width="24.000000" height="24.000000" fill="#D8D8D8" fill-opacity="1.000000"/>
			<rect width="24.000000" height="24.000000" stroke="#000000" stroke-opacity="0" stroke-width="1.000000"/>
		</g>
		<path d="M8.99 12.73C10.24 12.73 11.26 13.75 11.26 15L11.26 19C11.26 20.24 10.24 21.26 8.99 21.26L4.99 21.26C3.75 21.26 2.73 20.24 2.73 19L2.73 15C2.73 13.75 3.75 12.73 4.99 12.73L8.99 12.73ZM20.49 19C20.77 19 20.99 19.22 20.99 19.5L20.99 20.5C20.99 20.77 20.77 21 20.49 21L19.49 21C19.22 21 18.99 20.77 18.99 20.5L18.99 19.5C18.99 19.22 19.22 19 19.49 19L20.49 19ZM14.49 17C14.77 17 14.99 17.22 14.99 17.5L14.99 20.5C14.99 20.77 14.77 21 14.49 21L13.49 21C13.22 21 12.99 20.77 12.99 20.5L12.99 17.5C12.99 17.22 13.22 17 13.49 17L14.49 17ZM8.99 14.73L4.99 14.73C4.85 14.73 4.73 14.85 4.73 15L4.73 19C4.73 19.14 4.85 19.26 4.99 19.26L8.99 19.26C9.14 19.26 9.26 19.14 9.26 19L9.26 15C9.26 14.85 9.14 14.73 8.99 14.73ZM18.49 17C18.77 17 18.99 17.22 18.99 17.5L18.99 18.5C18.99 18.77 18.77 19 18.49 19L17.49 19C17.22 19 16.99 18.77 16.99 18.5L16.99 17.5C16.99 17.22 17.22 17 17.49 17L18.49 17ZM7.49 16C7.77 16 7.99 16.22 7.99 16.5L7.99 17.5C7.99 17.77 7.77 18 7.49 18L6.49 18C6.22 18 5.99 17.77 5.99 17.5L5.99 16.5C5.99 16.22 6.22 16 6.49 16L7.49 16ZM16.49 13C16.77 13 16.99 13.22 16.99 13.5L16.99 16.5C16.99 16.77 16.77 17 16.49 17L15.49 17C15.22 17 14.99 16.77 14.99 16.5L14.99 15L13.49 15C13.22 15 12.99 14.77 12.99 14.5L12.99 13.5C12.99 13.22 13.22 13 13.49 13L16.49 13ZM20.49 13C20.77 13 20.99 13.22 20.99 13.5L20.99 16.5C20.99 16.77 20.77 17 20.49 17L19.49 17C19.22 17 18.99 16.77 18.99 16.5L18.99 13.5C18.99 13.22 19.22 13 19.49 13L20.49 13ZM18.99 2.73C20.24 2.73 21.26 3.75 21.26 5L21.26 9C21.26 10.24 20.24 11.26 18.99 11.26L14.99 11.26C13.75 11.26 12.73 10.24 12.73 9L12.73 5C12.73 3.75 13.75 2.73 14.99 2.73L18.99 2.73ZM8.99 2.73C10.24 2.73 11.26 3.75 11.26 5L11.26 9C11.26 10.24 10.24 11.26 8.99 11.26L4.99 11.26C3.75 11.26 2.73 10.24 2.73 9L2.73 5C2.73 3.75 3.75 2.73 4.99 2.73L8.99 2.73ZM18.99 4.73L14.99 4.73C14.85 4.73 14.73 4.85 14.73 5L14.73 9C14.73 9.14 14.85 9.26 14.99 9.26L18.99 9.26C19.14 9.26 19.26 9.14 19.26 9L19.26 5C19.26 4.85 19.14 4.73 18.99 4.73ZM8.99 4.73L4.99 4.73C4.85 4.73 4.73 4.85 4.73 5L4.73 9C4.73 9.14 4.85 9.26 4.99 9.26L8.99 9.26C9.14 9.26 9.26 9.14 9.26 9L9.26 5C9.26 4.85 9.14 4.73 8.99 4.73ZM7.49 6C7.77 6 7.99 6.22 7.99 6.5L7.99 7.5C7.99 7.77 7.77 8 7.49 8L6.49 8C6.22 8 5.99 7.77 5.99 7.5L5.99 6.5C5.99 6.22 6.22 6 6.49 6L7.49 6ZM17.49 6C17.77 6 17.99 6.22 17.99 6.5L17.99 7.5C17.99 7.77 17.77 8 17.49 8L16.49 8C16.22 8 15.99 7.77 15.99 7.5L15.99 6.5C15.99 6.22 16.22 6 16.49 6L17.49 6Z" fill="#000000" fill-opacity="0.600000" fill-rule="evenodd"/>
	</g>
</svg>
