<svg width="24.000000" height="24.000000" viewBox="0 0 24 24" fill="none" xmlns="http://www.w3.org/2000/svg" xmlns:xlink="http://www.w3.org/1999/xlink">
	<desc>
			Created with Pixso.
	</desc>
	<defs/>
	<g opacity="0.000000">
		<rect width="24.000000" height="24.000000" fill="#D8D8D8" fill-opacity="1.000000"/>
		<rect width="24.000000" height="24.000000" stroke="#000000" stroke-opacity="0" stroke-width="1.000000"/>
	</g>
	<path d="M15.7 13.28C17.88 13.28 19.86 14.54 21.13 16.86L21.19 17.04C21.27 17.23 21.26 17.46 21.15 17.66C19.89 19.98 17.91 21.25 15.72 21.25C13.27 21.25 11.18 19.83 10.27 17.58C10.21 17.41 10.18 17.12 10.25 16.94C11.15 14.69 13.25 13.28 15.7 13.28ZM6.95 3.04C7.27 3.36 7.33 3.85 7.11 4.25L7.04 4.35L6.22 5.19L17.69 5.19C19.66 5.19 21.25 6.78 21.25 8.75C21.25 10.65 19.75 12.21 17.86 12.3L6.99 12.31C5.75 12.31 4.75 13.31 4.75 14.55C4.75 15.74 5.67 16.72 6.84 16.8L6.99 16.8L8.25 16.8C8.8 16.8 9.24 17.25 9.25 17.8C9.25 18.3 8.87 18.72 8.37 18.79L8.25 18.8L6.99 18.8C4.65 18.8 2.75 16.9 2.75 14.55C2.75 12.29 4.53 10.42 6.79 10.31L6.99 10.31L17.69 10.3L17.83 10.3C18.63 10.23 19.25 9.56 19.25 8.75C19.25 7.98 18.7 7.34 17.97 7.21L17.83 7.19L17.69 7.19L6.1 7.19L6.95 8.04C7.25 8.33 7.32 8.77 7.16 9.14L7.11 9.25L7.04 9.35C6.71 9.68 6.14 9.83 5.74 9.61L5.64 9.54L3.04 6.95C2.72 6.63 2.66 6.14 2.88 5.74L2.95 5.64L5.54 3.04C5.93 2.65 6.56 2.65 6.95 3.04ZM15.69 15.7C14.87 15.7 14.19 16.37 14.19 17.2C14.19 18.03 14.87 18.7 15.69 18.7C16.52 18.7 17.19 18.03 17.19 17.2C17.19 16.37 16.52 15.7 15.69 15.7Z" fill="#FE4F35" fill-opacity="1.000000" fill-rule="evenodd"/>
	<path d="M21.13 16.86L21.19 17.04C21.27 17.23 21.26 17.46 21.15 17.66C19.89 19.98 17.91 21.25 15.72 21.25C13.27 21.25 11.18 19.83 10.27 17.58C10.21 17.41 10.18 17.12 10.25 16.94C11.15 14.69 13.25 13.28 15.7 13.28C17.88 13.28 19.86 14.54 21.13 16.86ZM7.11 4.25L7.04 4.35L6.22 5.19L17.69 5.19C19.66 5.19 21.25 6.78 21.25 8.75C21.25 10.65 19.75 12.21 17.86 12.3L6.99 12.31C5.75 12.31 4.75 13.31 4.75 14.55C4.75 15.74 5.67 16.72 6.84 16.8L6.99 16.8L8.25 16.8C8.8 16.8 9.24 17.25 9.25 17.8C9.25 18.3 8.87 18.72 8.37 18.79L8.25 18.8L6.99 18.8C4.65 18.8 2.75 16.9 2.75 14.55C2.75 12.29 4.53 10.42 6.79 10.31L6.99 10.31L17.69 10.3L17.83 10.3C18.63 10.23 19.25 9.56 19.25 8.75C19.25 7.98 18.7 7.34 17.97 7.21L17.83 7.19L17.69 7.19L6.1 7.19L6.95 8.04C7.25 8.33 7.32 8.77 7.16 9.14L7.11 9.25L7.04 9.35C6.71 9.68 6.14 9.83 5.74 9.61L5.64 9.54L3.04 6.95C2.72 6.63 2.66 6.14 2.88 5.74L2.95 5.64L5.54 3.04C5.93 2.65 6.56 2.65 6.95 3.04C7.27 3.36 7.33 3.85 7.11 4.25ZM14.19 17.2C14.19 18.03 14.87 18.7 15.69 18.7C16.52 18.7 17.19 18.03 17.19 17.2C17.19 16.37 16.52 15.7 15.69 15.7C14.87 15.7 14.19 16.37 14.19 17.2Z" stroke="#000000" stroke-opacity="0" stroke-width="1.000000"/>
</svg>
