<!--
  - Copyright (c) 2025 Huawei Device Co., Ltd.
  - Licensed under the Apache License, Version 2.0 (the "License");
  - you may not use this file except in compliance with the License.
  - You may obtain a copy of the License at
  -
  -     http://www.apache.org/licenses/LICENSE-2.0
  -
  - Unless required by applicable law or agreed to in writing, software
  - distributed under the License is distributed on an "AS IS" BASIS,
  - WITHOUT WARRANTIES OR CONDITIONS OF ANY KIND, either express or implied.
  - See the License for the specific language governing permissions and
  - limitations under the License.
  -->

<svg width="24.000000" height="24.000000" viewBox="0 0 24 24" fill="none" xmlns="http://www.w3.org/2000/svg" xmlns:xlink="http://www.w3.org/1999/xlink">
	<desc>
			Created with Pixso.
	</desc>
	<defs/>
	<circle id="椭圆 2" cx="12.000000" cy="12.000000" r="12.000000" fill="#F1F3F5" fill-opacity="1.000000"/>
	<path id="path1" d="M6.37 11.99C6.37 11.11 6.37 10.23 6.37 9.35C6.37 8.93 6.42 8.51 6.53 8.09C6.76 7.22 7.33 6.7 8.2 6.5C8.63 6.41 9.08 6.36 9.53 6.37C11.21 6.37 12.9 6.37 14.58 6.37C15.01 6.37 15.43 6.42 15.85 6.52C16.74 6.74 17.28 7.3 17.49 8.2C17.58 8.62 17.62 9.05 17.62 9.49C17.62 11.19 17.62 12.89 17.62 14.6C17.62 15.02 17.57 15.44 17.48 15.85C17.26 16.75 16.68 17.28 15.79 17.49C15.35 17.58 14.91 17.63 14.46 17.62C12.78 17.62 11.1 17.62 9.43 17.62C9 17.62 8.57 17.58 8.15 17.48C7.25 17.26 6.71 16.69 6.5 15.79C6.4 15.33 6.37 14.87 6.37 14.41C6.37 13.6 6.37 12.8 6.37 11.99Z" fill="#FFFFFF" fill-opacity="0" fill-rule="nonzero"/>
	<path id="path1" d="M6.37 9.35C6.37 8.93 6.42 8.51 6.53 8.09C6.76 7.22 7.33 6.7 8.2 6.5C8.63 6.41 9.08 6.36 9.53 6.37C11.21 6.37 12.9 6.37 14.58 6.37C15.01 6.37 15.43 6.42 15.85 6.52C16.74 6.74 17.28 7.3 17.49 8.2C17.58 8.62 17.62 9.05 17.62 9.49C17.62 11.19 17.62 12.89 17.62 14.6C17.62 15.02 17.57 15.44 17.48 15.85C17.26 16.75 16.68 17.28 15.79 17.49C15.35 17.58 14.91 17.63 14.46 17.62C12.78 17.62 11.1 17.62 9.43 17.62C9 17.62 8.57 17.58 8.15 17.48C7.25 17.26 6.71 16.69 6.5 15.79C6.4 15.33 6.37 14.87 6.37 14.41C6.37 13.6 6.37 12.8 6.37 11.99C6.37 11.11 6.37 10.23 6.37 9.35Z" stroke="#FFFFFF" stroke-opacity="0" stroke-width="1.000000"/>
	<g opacity="0.200000">
		<path id="path2" d="M6.37 11.99C6.37 11.11 6.37 10.23 6.37 9.35C6.37 8.93 6.42 8.51 6.53 8.09C6.76 7.22 7.33 6.7 8.2 6.5C8.63 6.41 9.08 6.36 9.53 6.37C11.21 6.37 12.9 6.37 14.58 6.37C15.01 6.37 15.43 6.42 15.85 6.52C16.74 6.74 17.28 7.3 17.49 8.2C17.58 8.62 17.62 9.05 17.62 9.49C17.62 11.19 17.62 12.89 17.62 14.6C17.62 15.02 17.57 15.44 17.48 15.85C17.26 16.75 16.68 17.28 15.79 17.49C15.35 17.58 14.91 17.63 14.46 17.62C12.78 17.62 11.1 17.62 9.43 17.62C9 17.62 8.57 17.58 8.15 17.48C7.25 17.26 6.71 16.69 6.5 15.79C6.4 15.33 6.37 14.87 6.37 14.41C6.37 13.6 6.37 12.8 6.37 11.99Z" fill="#000000" fill-opacity="0" fill-rule="nonzero"/>
		<path id="path2" d="M6.37 9.35C6.37 8.93 6.42 8.51 6.53 8.09C6.76 7.22 7.33 6.7 8.2 6.5C8.63 6.41 9.08 6.36 9.53 6.37C11.21 6.37 12.9 6.37 14.58 6.37C15.01 6.37 15.43 6.42 15.85 6.52C16.74 6.74 17.28 7.3 17.49 8.2C17.58 8.62 17.62 9.05 17.62 9.49C17.62 11.19 17.62 12.89 17.62 14.6C17.62 15.02 17.57 15.44 17.48 15.85C17.26 16.75 16.68 17.28 15.79 17.49C15.35 17.58 14.91 17.63 14.46 17.62C12.78 17.62 11.1 17.62 9.43 17.62C9 17.62 8.57 17.58 8.15 17.48C7.25 17.26 6.71 16.69 6.5 15.79C6.4 15.33 6.37 14.87 6.37 14.41C6.37 13.6 6.37 12.8 6.37 11.99C6.37 11.11 6.37 10.23 6.37 9.35Z" stroke="#FFFFFF" stroke-opacity="0" stroke-width="1.000000"/>
	</g>
	<circle id="path3" cx="12.000000" cy="12.000000" r="6.000000" fill="#FFFFFF" fill-opacity="0"/>
	<circle id="path3" cx="12.000000" cy="12.000000" r="6.000000" stroke="#000000" stroke-opacity="0" stroke-width="1.000000"/>
	<path id="path4" d="M7.1 10.36C6.8 9.58 6.6 8.59 6.5 7.38C6.5 7.36 6.5 7.33 6.5 7.31C6.5 6.86 6.86 6.5 7.31 6.5L8.88 6.5C9.28 6.5 9.61 6.79 9.68 7.18C9.74 7.59 9.81 7.91 9.87 8.16C9.95 8.53 10.12 9.08 10.37 9.81C10.31 10.37 10.12 10.68 9.79 10.76C10.32 13.06 13.16 14.54 13.23 14.2C13.31 13.87 13.62 13.68 14.18 13.62C14.91 13.87 15.46 14.04 15.83 14.12C16.08 14.18 16.4 14.25 16.81 14.31C17.2 14.38 17.49 14.71 17.49 15.11L17.5 16.68C17.5 17.13 17.13 17.49 16.68 17.5C16.66 17.5 16.63 17.49 16.61 17.49C15.41 17.39 14.41 17.19 13.63 16.89C10.15 15.75 7.97 13.57 7.1 10.36Z" fill="#191919" fill-opacity="1.000000" fill-rule="evenodd"/>
	<path id="path4" d="M6.5 7.38C6.5 7.36 6.5 7.33 6.5 7.31C6.5 6.86 6.86 6.5 7.31 6.5L8.88 6.5C9.28 6.5 9.61 6.79 9.68 7.18C9.74 7.59 9.81 7.91 9.87 8.16C9.95 8.53 10.12 9.08 10.37 9.81C10.31 10.37 10.12 10.68 9.79 10.76C10.32 13.06 13.16 14.54 13.23 14.2C13.31 13.87 13.62 13.68 14.18 13.62C14.91 13.87 15.46 14.04 15.83 14.12C16.08 14.18 16.4 14.25 16.81 14.31C17.2 14.38 17.49 14.71 17.49 15.11L17.5 16.68C17.5 17.13 17.13 17.49 16.68 17.5C16.66 17.5 16.63 17.49 16.61 17.49C15.41 17.39 14.41 17.19 13.63 16.89C10.15 15.75 7.97 13.57 7.1 10.36C6.8 9.58 6.6 8.59 6.5 7.38Z" stroke="#191919" stroke-opacity="1.000000" stroke-width="1.000000" stroke-linejoin="round"/>
</svg>
