<!--
  - Copyright (c) 2025 Huawei Device Co., Ltd.
  - Licensed under the Apache License, Version 2.0 (the "License");
  - you may not use this file except in compliance with the License.
  - You may obtain a copy of the License at
  -
  -     http://www.apache.org/licenses/LICENSE-2.0
  -
  - Unless required by applicable law or agreed to in writing, software
  - distributed under the License is distributed on an "AS IS" BASIS,
  - WITHOUT WARRANTIES OR CONDITIONS OF ANY KIND, either express or implied.
  - See the License for the specific language governing permissions and
  - limitations under the License.
  -->

<svg width="56.484375" height="48.000000" viewBox="0 0 56.4844 48" fill="none" xmlns="http://www.w3.org/2000/svg" xmlns:xlink="http://www.w3.org/1999/xlink">
	<desc>
			Created with Pixso.
	</desc>
	<defs>
		<clipPath id="clip31_2759">
			<rect id="暂无内容.svg" width="56.484375" height="48.000000" fill="white" fill-opacity="0"/>
		</clipPath>
	</defs>
	<g clip-path="url(#clip31_2759)">
		<path id="path" d="M49.32 17.13C49.29 17.07 49.25 17.01 49.21 16.95L49.1 16.75L49.04 16.64L48.78 16.15L48.77 16.16C48.64 15.95 48.58 15.95 48.43 15.95L48.35 15.95C47.78 15.41 46.95 14.89 45.93 14.89C45.93 14.89 12.25 14.9 10.95 14.9C9.58 14.9 8.53 15.54 7.65 16.92L7.49 17.16C2.81 24.47 0.43 28.88 0.43 30.27L0.43 43.68C0.43 45.98 2.32 47.86 4.63 47.86L52.24 47.86C54.55 47.86 56.44 45.98 56.44 43.68L56.44 30.27C56.44 28.3 51 19.73 49.32 17.13ZM34.2 30.69C34.2 30.74 34.21 30.79 34.21 30.85C34.21 34.04 31.61 36.64 28.41 36.64C25.21 36.64 22.61 34.04 22.61 30.85C22.61 30.77 22.62 30.69 22.62 30.61L22.63 30.42L22.61 30.35C22.08 28.87 20.54 28.84 20.48 28.84L4.79 28.84L10 19.23C10.01 19.21 10.9 17.65 12.04 17.65L45.09 17.65C45.96 17.65 46.09 17.87 46.81 19.05L52.23 28.84L36.39 28.85C35.33 28.85 34.53 29.43 34.21 30.44L34.19 30.51L34.2 30.69ZM16.24 10.32C16.39 10.45 16.55 10.56 16.73 10.63C16.91 10.7 17.1 10.74 17.29 10.74C17.5 10.74 17.7 10.69 17.89 10.61C18.08 10.53 18.25 10.41 18.39 10.26C18.53 10.12 18.64 9.95 18.71 9.76C18.78 9.57 18.82 9.38 18.81 9.18C18.81 8.98 18.76 8.78 18.68 8.6C18.6 8.41 18.48 8.25 18.34 8.11L14.13 4.12C13.99 3.99 13.83 3.88 13.65 3.81C13.47 3.74 13.28 3.7 13.08 3.7C12.87 3.7 12.67 3.75 12.48 3.83C12.29 3.91 12.12 4.03 11.98 4.18C11.91 4.25 11.85 4.33 11.8 4.41C11.74 4.5 11.7 4.59 11.66 4.68C11.63 4.77 11.6 4.87 11.59 4.97C11.57 5.06 11.56 5.16 11.56 5.26C11.57 5.36 11.58 5.46 11.6 5.56C11.62 5.66 11.65 5.75 11.69 5.84C11.74 5.93 11.78 6.02 11.84 6.1C11.9 6.18 11.96 6.26 12.04 6.33L16.24 10.32ZM27.84 8.55C27.98 8.69 28.14 8.79 28.32 8.86C28.5 8.94 28.69 8.97 28.88 8.97L28.92 8.97C29.02 8.97 29.12 8.96 29.22 8.93C29.32 8.91 29.41 8.88 29.5 8.84C29.59 8.8 29.68 8.75 29.76 8.69C29.84 8.64 29.92 8.57 29.99 8.5C30.05 8.43 30.12 8.35 30.17 8.26C30.22 8.18 30.27 8.09 30.3 8C30.34 7.9 30.37 7.81 30.38 7.71C30.4 7.61 30.41 7.51 30.4 7.41L30.25 1.61C30.25 1.51 30.24 1.42 30.22 1.32C30.2 1.23 30.17 1.13 30.13 1.04C30.09 0.95 30.04 0.87 29.99 0.79C29.93 0.71 29.87 0.63 29.8 0.56C29.73 0.49 29.65 0.43 29.57 0.38C29.48 0.32 29.4 0.28 29.31 0.24C29.22 0.21 29.12 0.18 29.03 0.16C28.93 0.14 28.83 0.13 28.73 0.13L28.69 0.13C28.59 0.14 28.5 0.15 28.4 0.17C28.3 0.19 28.21 0.22 28.12 0.26C28.02 0.31 27.94 0.35 27.86 0.41C27.77 0.47 27.7 0.53 27.63 0.61C27.56 0.68 27.5 0.76 27.45 0.84C27.39 0.93 27.35 1.02 27.31 1.11C27.28 1.2 27.25 1.3 27.24 1.4C27.22 1.49 27.21 1.59 27.21 1.69L27.36 7.49C27.37 7.69 27.41 7.89 27.5 8.07C27.58 8.25 27.69 8.42 27.84 8.55ZM39.79 10.53C40 10.53 40.2 10.49 40.39 10.4C40.58 10.32 40.75 10.21 40.9 10.05L44.89 5.85C44.96 5.77 45.02 5.7 45.07 5.61C45.13 5.53 45.17 5.44 45.21 5.34C45.24 5.25 45.27 5.16 45.28 5.06C45.3 4.96 45.31 4.86 45.31 4.76C45.3 4.66 45.29 4.56 45.27 4.47C45.25 4.37 45.22 4.27 45.18 4.18C45.14 4.09 45.09 4.01 45.03 3.92C44.97 3.84 44.91 3.77 44.83 3.7C44.69 3.56 44.53 3.46 44.35 3.39C44.17 3.32 43.98 3.28 43.79 3.28C43.58 3.28 43.38 3.32 43.19 3.4C43 3.49 42.83 3.6 42.69 3.75L38.69 7.96C38.55 8.11 38.45 8.27 38.37 8.46C38.3 8.65 38.27 8.85 38.27 9.05C38.28 9.25 38.32 9.44 38.4 9.63C38.49 9.81 38.6 9.97 38.75 10.11C38.89 10.24 39.05 10.35 39.23 10.42C39.41 10.49 39.6 10.53 39.79 10.53Z" fill="#B2B2B2" fill-opacity="1.000000" fill-rule="nonzero"/>
	</g>
</svg>
