<!--
  - Copyright (c) 2025 Huawei Device Co., Ltd.
  - Licensed under the Apache License, Version 2.0 (the "License");
  - you may not use this file except in compliance with the License.
  - You may obtain a copy of the License at
  -
  -     http://www.apache.org/licenses/LICENSE-2.0
  -
  - Unless required by applicable law or agreed to in writing, software
  - distributed under the License is distributed on an "AS IS" BASIS,
  - WITHOUT WARRANTIES OR CONDITIONS OF ANY KIND, either express or implied.
  - See the License for the specific language governing permissions and
  - limitations under the License.
  -->

<svg width="48.000000" height="48.000000" viewBox="0 0 48 48" fill="none" xmlns="http://www.w3.org/2000/svg" xmlns:xlink="http://www.w3.org/1999/xlink">
	<desc>
			Created with Pixso.
	</desc>
	<defs/>
	<path id="path" d="M24 0C10.74 0 0 10.74 0 24C0 37.25 10.74 48 24 48C37.25 48 48 37.25 48 24C48 10.74 37.24 0 24 0ZM14.16 30.53C14.94 27.15 18.37 24.5 22.64 24.05L22.64 14.27C22.64 13.54 23.24 12.94 23.97 12.94C24.7 12.94 25.3 13.54 25.3 14.27L25.3 24.05C29.57 24.5 32.99 27.15 33.77 30.53C33.94 31.29 33.44 32.02 32.73 32.02L15.21 32.02C14.5 32.02 13.99 31.29 14.16 30.53ZM32.94 35.04L15.01 35.04C14.49 35.04 14.07 34.61 14.07 34.1C14.07 33.59 14.5 33.16 15.01 33.16L32.94 33.16C33.46 33.16 33.88 33.59 33.88 34.1C33.88 34.61 33.46 35.04 32.94 35.04Z" fill="#11ACFF" fill-opacity="1.000000" fill-rule="nonzero"/>
</svg>
