<!--
  - Copyright (c) 2025 Huawei Device Co., Ltd.
  - Licensed under the Apache License, Version 2.0 (the "License");
  - you may not use this file except in compliance with the License.
  - You may obtain a copy of the License at
  -
  -     http://www.apache.org/licenses/LICENSE-2.0
  -
  - Unless required by applicable law or agreed to in writing, software
  - distributed under the License is distributed on an "AS IS" BASIS,
  - WITHOUT WARRANTIES OR CONDITIONS OF ANY KIND, either express or implied.
  - See the License for the specific language governing permissions and
  - limitations under the License.
  -->

<svg width="17.502197" height="24.000000" viewBox="0 0 17.5022 24" fill="none" xmlns="http://www.w3.org/2000/svg" xmlns:xlink="http://www.w3.org/1999/xlink">
	<desc>
			Created with Pixso.
	</desc>
	<defs/>
	<path id="path" d="M8.5 19.99C8.5 19.99 0 13.57 0 8.74C0 8.6 0 8.46 0.01 8.31C0.01 8.17 0.02 8.03 0.04 7.89C0.05 7.74 0.07 7.6 0.09 7.46C0.11 7.32 0.14 7.18 0.16 7.04C0.19 6.9 0.22 6.76 0.26 6.62C0.29 6.48 0.33 6.34 0.37 6.2C0.41 6.07 0.46 5.93 0.51 5.8C0.56 5.66 0.61 5.53 0.66 5.39C0.72 5.26 0.77 5.13 0.84 5C0.9 4.87 0.96 4.75 1.03 4.62C1.1 4.49 1.17 4.37 1.24 4.25C1.31 4.12 1.39 4 1.47 3.88C1.55 3.76 1.63 3.65 1.72 3.53C1.8 3.42 1.89 3.3 1.98 3.19C2.07 3.08 2.17 2.97 2.26 2.87C2.36 2.76 2.46 2.66 2.56 2.56C2.66 2.46 2.76 2.36 2.87 2.26C2.98 2.16 3.08 2.07 3.2 1.98C3.31 1.89 3.42 1.8 3.53 1.72C3.65 1.63 3.77 1.55 3.89 1.47C4 1.39 4.13 1.31 4.25 1.24C4.37 1.17 4.5 1.1 4.62 1.03C4.75 0.96 4.88 0.9 5.01 0.83C5.13 0.77 5.27 0.72 5.4 0.66C5.53 0.61 5.66 0.55 5.8 0.51C5.93 0.46 6.07 0.41 6.21 0.37C6.34 0.33 6.48 0.29 6.62 0.26C6.76 0.22 6.9 0.19 7.04 0.16C7.18 0.14 7.32 0.11 7.46 0.09C7.6 0.07 7.75 0.05 7.89 0.04C8.03 0.02 8.17 0.01 8.32 0.01C8.46 0 8.6 0 8.75 0C8.89 0 9.03 0 9.18 0.01C9.32 0.01 9.46 0.02 9.6 0.04C9.75 0.05 9.89 0.07 10.03 0.09C10.17 0.11 10.31 0.14 10.45 0.16C10.59 0.19 10.73 0.22 10.87 0.26C11.01 0.29 11.15 0.33 11.29 0.37C11.42 0.41 11.56 0.46 11.69 0.51C11.83 0.55 11.96 0.61 12.09 0.66C12.23 0.72 12.36 0.77 12.49 0.83C12.62 0.9 12.74 0.96 12.87 1.03C13 1.1 13.12 1.17 13.24 1.24C13.37 1.31 13.49 1.39 13.61 1.47C13.73 1.55 13.84 1.63 13.96 1.72C14.07 1.8 14.19 1.89 14.3 1.98C14.41 2.07 14.52 2.16 14.62 2.26C14.73 2.36 14.83 2.46 14.93 2.56C15.03 2.66 15.13 2.76 15.23 2.87C15.33 2.97 15.42 3.08 15.51 3.19C15.6 3.3 15.69 3.42 15.77 3.53C15.86 3.65 15.94 3.76 16.02 3.88C16.1 4 16.18 4.12 16.25 4.25C16.32 4.37 16.4 4.49 16.46 4.62C16.53 4.75 16.59 4.87 16.66 5C16.72 5.13 16.78 5.26 16.83 5.39C16.89 5.53 16.94 5.66 16.98 5.8C17.03 5.93 17.08 6.07 17.12 6.2C17.16 6.34 17.2 6.48 17.23 6.62C17.27 6.76 17.3 6.9 17.33 7.04C17.36 7.18 17.38 7.32 17.4 7.46C17.42 7.6 17.44 7.74 17.45 7.89C17.47 8.03 17.48 8.17 17.49 8.31C17.49 8.46 17.5 8.6 17.5 8.74C17.5 13.57 8.5 19.99 8.5 19.99ZM8.75 1.49C8.63 1.49 8.51 1.5 8.39 1.5C8.27 1.51 8.15 1.52 8.04 1.53C7.92 1.54 7.8 1.55 7.68 1.57C7.56 1.59 7.45 1.61 7.33 1.63C7.22 1.65 7.1 1.68 6.98 1.71C6.87 1.74 6.75 1.77 6.64 1.8C6.53 1.84 6.42 1.88 6.3 1.92C6.19 1.96 6.08 2 5.97 2.04C5.86 2.09 5.75 2.14 5.65 2.19C5.54 2.24 5.43 2.29 5.33 2.35C5.22 2.4 5.12 2.46 5.02 2.52C4.92 2.58 4.82 2.65 4.72 2.71C4.62 2.78 4.52 2.85 4.43 2.92C4.33 2.99 4.24 3.06 4.15 3.14C4.05 3.21 3.96 3.29 3.88 3.37C3.79 3.45 3.7 3.53 3.62 3.62C3.54 3.7 3.45 3.79 3.37 3.87C3.29 3.96 3.22 4.05 3.14 4.14C3.07 4.23 2.99 4.33 2.92 4.42C2.85 4.52 2.78 4.62 2.72 4.71C2.65 4.81 2.59 4.91 2.53 5.02C2.47 5.12 2.41 5.22 2.35 5.33C2.3 5.43 2.24 5.54 2.19 5.64C2.14 5.75 2.09 5.86 2.05 5.97C2 6.08 1.96 6.19 1.92 6.3C1.88 6.41 1.84 6.52 1.81 6.64C1.77 6.75 1.74 6.87 1.71 6.98C1.68 7.1 1.66 7.21 1.63 7.33C1.61 7.44 1.59 7.56 1.57 7.68C1.56 7.8 1.54 7.91 1.53 8.03C1.52 8.15 1.51 8.27 1.5 8.39C1.5 8.51 1.5 8.62 1.5 8.74C1.5 12.75 8.5 18.49 8.5 18.49C8.5 18.49 16 12.75 16 8.74C16 8.62 15.99 8.51 15.99 8.39C15.98 8.27 15.97 8.15 15.96 8.03C15.95 7.91 15.94 7.8 15.92 7.68C15.9 7.56 15.88 7.44 15.86 7.33C15.83 7.21 15.81 7.1 15.78 6.98C15.75 6.87 15.72 6.75 15.68 6.64C15.65 6.52 15.61 6.41 15.57 6.3C15.53 6.19 15.49 6.08 15.45 5.97C15.4 5.86 15.35 5.75 15.3 5.64C15.25 5.54 15.2 5.43 15.14 5.33C15.08 5.22 15.03 5.12 14.97 5.02C14.9 4.91 14.84 4.81 14.78 4.71C14.71 4.62 14.64 4.52 14.57 4.42C14.5 4.33 14.43 4.23 14.35 4.14C14.28 4.05 14.2 3.96 14.12 3.87C14.04 3.79 13.96 3.7 13.87 3.62C13.79 3.53 13.7 3.45 13.62 3.37C13.53 3.29 13.44 3.21 13.35 3.14C13.25 3.06 13.16 2.99 13.07 2.92C12.97 2.85 12.87 2.78 12.77 2.71C12.68 2.65 12.58 2.58 12.47 2.52C12.37 2.46 12.27 2.4 12.16 2.35C12.06 2.29 11.95 2.24 11.85 2.19C11.74 2.14 11.63 2.09 11.52 2.04C11.41 2 11.3 1.96 11.19 1.92C11.08 1.88 10.96 1.84 10.85 1.8C10.74 1.77 10.62 1.74 10.51 1.71C10.39 1.68 10.28 1.65 10.16 1.63C10.04 1.61 9.93 1.59 9.81 1.57C9.69 1.55 9.57 1.54 9.46 1.53C9.34 1.52 9.22 1.51 9.1 1.5C8.98 1.5 8.86 1.49 8.75 1.49ZM8.75 11.99C8.62 11.99 8.5 11.99 8.38 11.98C8.26 11.96 8.13 11.95 8.01 11.92C7.89 11.9 7.78 11.87 7.66 11.83C7.54 11.8 7.42 11.75 7.31 11.71C7.2 11.66 7.09 11.61 6.98 11.55C6.87 11.49 6.76 11.43 6.66 11.36C6.56 11.29 6.46 11.22 6.37 11.14C6.27 11.06 6.18 10.98 6.09 10.89C6.01 10.81 5.92 10.72 5.85 10.62C5.77 10.53 5.7 10.43 5.63 10.33C5.56 10.22 5.5 10.12 5.44 10.01C5.38 9.9 5.33 9.79 5.28 9.68C5.23 9.56 5.19 9.45 5.16 9.33C5.12 9.21 5.09 9.1 5.07 8.97C5.04 8.85 5.03 8.73 5.01 8.61C5 8.49 5 8.37 5 8.24C5 8.12 5 8 5.01 7.88C5.03 7.75 5.04 7.63 5.07 7.51C5.09 7.39 5.12 7.27 5.16 7.15C5.19 7.04 5.23 6.92 5.28 6.81C5.33 6.69 5.38 6.58 5.44 6.47C5.5 6.37 5.56 6.26 5.63 6.16C5.7 6.06 5.77 5.96 5.85 5.86C5.92 5.77 6.01 5.68 6.09 5.59C6.18 5.5 6.27 5.42 6.37 5.34C6.46 5.27 6.56 5.19 6.66 5.12C6.76 5.06 6.87 4.99 6.98 4.94C7.09 4.88 7.2 4.83 7.31 4.78C7.42 4.73 7.54 4.69 7.66 4.65C7.78 4.62 7.89 4.59 8.01 4.56C8.13 4.54 8.26 4.52 8.38 4.51C8.5 4.5 8.62 4.49 8.75 4.49C8.87 4.49 8.99 4.5 9.11 4.51C9.24 4.52 9.36 4.54 9.48 4.56C9.6 4.59 9.72 4.62 9.83 4.65C9.95 4.69 10.07 4.73 10.18 4.78C10.29 4.83 10.41 4.88 10.51 4.94C10.62 4.99 10.73 5.06 10.83 5.12C10.93 5.19 11.03 5.27 11.13 5.34C11.22 5.42 11.31 5.5 11.4 5.59C11.49 5.68 11.57 5.77 11.65 5.86C11.72 5.96 11.8 6.06 11.86 6.16C11.93 6.26 12 6.37 12.05 6.47C12.11 6.58 12.16 6.69 12.21 6.81C12.26 6.92 12.3 7.04 12.34 7.15C12.37 7.27 12.4 7.39 12.42 7.51C12.45 7.63 12.47 7.75 12.48 7.88C12.49 8 12.5 8.12 12.5 8.24C12.5 8.37 12.49 8.49 12.48 8.61C12.47 8.73 12.45 8.85 12.42 8.97C12.4 9.1 12.37 9.21 12.34 9.33C12.3 9.45 12.26 9.56 12.21 9.68C12.16 9.79 12.11 9.9 12.05 10.01C12 10.12 11.93 10.22 11.86 10.33C11.8 10.43 11.72 10.53 11.65 10.62C11.57 10.72 11.49 10.81 11.4 10.89C11.31 10.98 11.22 11.06 11.13 11.14C11.03 11.22 10.93 11.29 10.83 11.36C10.73 11.43 10.62 11.49 10.51 11.55C10.41 11.61 10.29 11.66 10.18 11.71C10.07 11.75 9.95 11.8 9.83 11.83C9.72 11.87 9.6 11.9 9.48 11.92C9.36 11.95 9.24 11.96 9.11 11.98C8.99 11.99 8.87 11.99 8.75 11.99ZM8.75 5.99C8.67 5.99 8.6 6 8.53 6C8.45 6.01 8.38 6.02 8.31 6.04C8.23 6.05 8.16 6.07 8.09 6.09C8.02 6.11 7.95 6.14 7.88 6.16C7.82 6.19 7.75 6.22 7.69 6.26C7.62 6.29 7.56 6.33 7.5 6.37C7.43 6.41 7.38 6.46 7.32 6.5C7.26 6.55 7.21 6.6 7.15 6.65C7.1 6.7 7.05 6.76 7.01 6.82C6.96 6.87 6.92 6.93 6.88 6.99C6.83 7.05 6.8 7.12 6.76 7.18C6.73 7.25 6.7 7.31 6.67 7.38C6.64 7.45 6.61 7.52 6.59 7.59C6.57 7.66 6.55 7.73 6.54 7.8C6.52 7.88 6.51 7.95 6.51 8.02C6.5 8.1 6.5 8.17 6.5 8.24C6.5 8.32 6.5 8.39 6.51 8.46C6.51 8.54 6.52 8.61 6.54 8.68C6.55 8.75 6.57 8.83 6.59 8.9C6.61 8.97 6.64 9.04 6.67 9.1C6.7 9.17 6.73 9.24 6.76 9.3C6.8 9.37 6.83 9.43 6.88 9.49C6.92 9.55 6.96 9.61 7.01 9.67C7.05 9.73 7.1 9.78 7.15 9.83C7.21 9.89 7.26 9.94 7.32 9.98C7.38 10.03 7.43 10.07 7.5 10.11C7.56 10.16 7.62 10.19 7.69 10.23C7.75 10.26 7.82 10.29 7.88 10.32C7.95 10.35 8.02 10.37 8.09 10.4C8.16 10.42 8.23 10.44 8.31 10.45C8.38 10.46 8.45 10.48 8.53 10.48C8.6 10.49 8.67 10.49 8.75 10.49C8.82 10.49 8.89 10.49 8.97 10.48C9.04 10.48 9.11 10.46 9.19 10.45C9.26 10.44 9.33 10.42 9.4 10.4C9.47 10.37 9.54 10.35 9.61 10.32C9.68 10.29 9.74 10.26 9.81 10.23C9.87 10.19 9.93 10.16 10 10.11C10.06 10.07 10.12 10.03 10.17 9.98C10.23 9.94 10.29 9.89 10.34 9.83C10.39 9.78 10.44 9.73 10.49 9.67C10.53 9.61 10.58 9.55 10.62 9.49C10.66 9.43 10.7 9.37 10.73 9.3C10.77 9.24 10.8 9.17 10.83 9.1C10.85 9.04 10.88 8.97 10.9 8.9C10.92 8.83 10.94 8.75 10.95 8.68C10.97 8.61 10.98 8.54 10.99 8.46C10.99 8.39 11 8.32 11 8.24C11 8.17 10.99 8.1 10.99 8.02C10.98 7.95 10.97 7.88 10.95 7.8C10.94 7.73 10.92 7.66 10.9 7.59C10.88 7.52 10.85 7.45 10.83 7.38C10.8 7.31 10.77 7.25 10.73 7.18C10.7 7.12 10.66 7.05 10.62 6.99C10.58 6.93 10.53 6.87 10.49 6.81C10.44 6.76 10.39 6.7 10.34 6.65C10.29 6.6 10.23 6.55 10.17 6.5C10.12 6.46 10.06 6.41 10 6.37C9.94 6.33 9.87 6.29 9.81 6.26C9.74 6.22 9.68 6.19 9.61 6.16C9.54 6.14 9.47 6.11 9.4 6.09C9.33 6.07 9.26 6.05 9.19 6.04C9.11 6.02 9.04 6.01 8.97 6C8.89 6 8.82 5.99 8.75 5.99ZM2.34 17.06L3.27 18.14C2.47 18.59 2 19.14 2 19.74C2 21.26 5.02 22.5 8.75 22.5C12.48 22.5 15.5 21.26 15.5 19.74C15.5 19.13 15 18.56 14.16 18.11L15.01 16.98C16.24 17.72 17 18.69 17 19.74C17 22.09 13.3 24 8.75 24C4.19 24 0.5 22.09 0.5 19.74C0.5 18.73 1.19 17.8 2.34 17.06Z" fill="#333333" fill-opacity="1.000000" fill-rule="nonzero"/>
</svg>
