<!--
  - Copyright (c) 2025 Huawei Device Co., Ltd.
  - Licensed under the Apache License, Version 2.0 (the "License");
  - you may not use this file except in compliance with the License.
  - You may obtain a copy of the License at
  -
  -     http://www.apache.org/licenses/LICENSE-2.0
  -
  - Unless required by applicable law or agreed to in writing, software
  - distributed under the License is distributed on an "AS IS" BASIS,
  - WITHOUT WARRANTIES OR CONDITIONS OF ANY KIND, either express or implied.
  - See the License for the specific language governing permissions and
  - limitations under the License.
  -->

<svg width="24.000000" height="24.000000" viewBox="0 0 24 24" fill="none" xmlns="http://www.w3.org/2000/svg" xmlns:xlink="http://www.w3.org/1999/xlink">
	<desc>
			Created with Pixso.
	</desc>
	<defs>
		<clipPath id="clip61_4865">
			<rect id="全部订单.svg" width="24.000000" height="24.000000" fill="white" fill-opacity="0"/>
		</clipPath>
	</defs>
	<g clip-path="url(#clip61_4865)">
		<path id="path" d="M18.6 22.2L5.39 22.2C5.32 22.2 5.24 22.19 5.16 22.18C5.08 22.18 5 22.16 4.93 22.15C4.85 22.13 4.77 22.11 4.7 22.09C4.62 22.07 4.55 22.04 4.48 22.01C4.4 21.98 4.33 21.95 4.26 21.91C4.19 21.87 4.13 21.83 4.06 21.79C4 21.75 3.93 21.7 3.87 21.65C3.81 21.6 3.75 21.55 3.7 21.49C3.64 21.44 3.59 21.38 3.54 21.32C3.49 21.26 3.44 21.19 3.4 21.13C3.36 21.06 3.32 21 3.28 20.93C3.24 20.86 3.21 20.79 3.18 20.71C3.15 20.64 3.12 20.57 3.1 20.49C3.08 20.42 3.06 20.34 3.04 20.26C3.03 20.19 3.01 20.11 3.01 20.03C3 19.95 3 19.87 3 19.79L3 5.39C3 5.32 3 5.24 3.01 5.16C3.01 5.08 3.03 5 3.04 4.93C3.06 4.85 3.08 4.77 3.1 4.7C3.12 4.62 3.15 4.55 3.18 4.48C3.21 4.4 3.24 4.33 3.28 4.26C3.32 4.19 3.36 4.13 3.4 4.06C3.44 4 3.49 3.93 3.54 3.87C3.59 3.81 3.64 3.75 3.7 3.7C3.75 3.64 3.81 3.59 3.87 3.54C3.93 3.49 4 3.44 4.06 3.4C4.13 3.36 4.19 3.32 4.26 3.28C4.33 3.24 4.4 3.21 4.48 3.18C4.55 3.15 4.62 3.12 4.7 3.1C4.77 3.08 4.85 3.06 4.93 3.04C5 3.03 5.08 3.01 5.16 3.01C5.24 3 5.32 3 5.39 3L8.39 3L8.39 4.2L5.39 4.2C5.32 4.2 5.24 4.2 5.16 4.22C5.08 4.23 5.01 4.26 4.94 4.29C4.86 4.32 4.79 4.35 4.73 4.4C4.66 4.44 4.6 4.49 4.55 4.55C4.49 4.6 4.44 4.66 4.4 4.73C4.35 4.79 4.32 4.86 4.29 4.94C4.26 5.01 4.23 5.08 4.22 5.16C4.2 5.24 4.19 5.32 4.19 5.39L4.19 19.79C4.19 19.87 4.2 19.95 4.22 20.03C4.23 20.11 4.26 20.18 4.29 20.25C4.32 20.33 4.35 20.4 4.4 20.46C4.44 20.53 4.49 20.59 4.55 20.64C4.6 20.7 4.66 20.75 4.73 20.79C4.79 20.84 4.86 20.87 4.94 20.9C5.01 20.93 5.08 20.96 5.16 20.97C5.24 20.99 5.32 21 5.39 21L18.6 21C18.67 21 18.75 20.99 18.83 20.97C18.91 20.96 18.98 20.93 19.05 20.9C19.13 20.87 19.2 20.84 19.26 20.79C19.33 20.75 19.39 20.7 19.44 20.64C19.5 20.59 19.55 20.53 19.59 20.46C19.64 20.4 19.67 20.33 19.7 20.25C19.73 20.18 19.76 20.11 19.77 20.03C19.79 19.95 19.79 19.87 19.79 19.79L19.79 5.39C19.79 5.32 19.79 5.24 19.77 5.16C19.76 5.08 19.73 5.01 19.7 4.94C19.67 4.86 19.64 4.79 19.59 4.73C19.55 4.66 19.5 4.6 19.44 4.55C19.39 4.49 19.33 4.44 19.26 4.4C19.2 4.35 19.13 4.32 19.05 4.29C18.98 4.26 18.91 4.23 18.83 4.22C18.75 4.2 18.67 4.2 18.6 4.2L15.6 4.2L15.6 3L18.6 3C18.67 3 18.75 3 18.83 3.01C18.91 3.01 18.99 3.03 19.06 3.04C19.14 3.06 19.22 3.08 19.29 3.1C19.37 3.12 19.44 3.15 19.51 3.18C19.59 3.21 19.66 3.24 19.73 3.28C19.8 3.32 19.86 3.36 19.93 3.4C19.99 3.44 20.06 3.49 20.12 3.54C20.18 3.59 20.24 3.64 20.29 3.7C20.35 3.75 20.4 3.81 20.45 3.87C20.5 3.93 20.55 4 20.59 4.06C20.63 4.13 20.67 4.19 20.71 4.26C20.75 4.33 20.78 4.4 20.81 4.48C20.84 4.55 20.87 4.62 20.89 4.7C20.91 4.77 20.93 4.85 20.95 4.93C20.96 5 20.98 5.08 20.98 5.16C20.99 5.24 21 5.32 21 5.39L21 19.79C21 19.87 20.99 19.95 20.98 20.03C20.98 20.11 20.96 20.19 20.95 20.26C20.93 20.34 20.91 20.42 20.89 20.49C20.87 20.57 20.84 20.64 20.81 20.71C20.78 20.79 20.75 20.86 20.71 20.93C20.67 21 20.63 21.06 20.59 21.13C20.55 21.19 20.5 21.26 20.45 21.32C20.4 21.38 20.35 21.44 20.29 21.49C20.24 21.55 20.18 21.6 20.12 21.65C20.06 21.7 19.99 21.75 19.93 21.79C19.86 21.83 19.8 21.87 19.73 21.91C19.66 21.95 19.59 21.98 19.51 22.01C19.44 22.04 19.37 22.07 19.29 22.09C19.22 22.11 19.14 22.13 19.06 22.15C18.99 22.16 18.91 22.18 18.83 22.18C18.75 22.19 18.67 22.2 18.6 22.2Z" fill="#212121" fill-opacity="1.000000" fill-rule="nonzero"/>
		<path id="path" d="M15 5.39L9 5.39C8.92 5.39 8.84 5.39 8.76 5.37C8.68 5.36 8.61 5.33 8.54 5.3C8.46 5.27 8.39 5.24 8.33 5.19C8.26 5.15 8.2 5.1 8.15 5.04C8.09 4.99 8.04 4.93 8 4.86C7.95 4.8 7.92 4.73 7.89 4.65C7.86 4.58 7.83 4.51 7.82 4.43C7.8 4.35 7.8 4.27 7.8 4.19L7.8 3C7.8 2.92 7.8 2.84 7.82 2.76C7.83 2.68 7.86 2.61 7.89 2.54C7.92 2.46 7.95 2.39 8 2.33C8.04 2.26 8.09 2.2 8.15 2.15C8.2 2.09 8.26 2.04 8.33 2C8.39 1.95 8.46 1.92 8.54 1.89C8.61 1.86 8.68 1.83 8.76 1.82C8.84 1.8 8.92 1.79 9 1.79L15 1.79C15.07 1.79 15.15 1.8 15.23 1.82C15.31 1.83 15.38 1.86 15.45 1.89C15.53 1.92 15.6 1.95 15.66 2C15.73 2.04 15.79 2.09 15.84 2.15C15.9 2.2 15.95 2.26 15.99 2.33C16.04 2.39 16.07 2.46 16.1 2.54C16.13 2.61 16.16 2.68 16.17 2.76C16.19 2.84 16.2 2.92 16.2 3L16.2 4.19C16.2 4.27 16.19 4.35 16.17 4.43C16.16 4.51 16.13 4.58 16.1 4.65C16.07 4.73 16.04 4.8 15.99 4.86C15.95 4.93 15.9 4.99 15.84 5.04C15.79 5.1 15.73 5.15 15.66 5.19C15.6 5.24 15.53 5.27 15.45 5.3C15.38 5.33 15.31 5.36 15.23 5.37C15.15 5.39 15.07 5.39 15 5.39ZM15 3L9 3L9 4.19L15 4.19L15 3ZM7.8 8.39L16.2 8.39C16.23 8.39 16.27 8.4 16.31 8.41C16.35 8.41 16.39 8.43 16.42 8.44C16.46 8.46 16.5 8.47 16.53 8.5C16.56 8.52 16.59 8.54 16.62 8.57C16.65 8.6 16.67 8.63 16.69 8.66C16.72 8.69 16.73 8.73 16.75 8.77C16.76 8.8 16.78 8.84 16.78 8.88C16.79 8.92 16.79 8.96 16.79 9C16.79 9.03 16.79 9.07 16.78 9.11C16.78 9.15 16.76 9.19 16.75 9.22C16.73 9.26 16.72 9.3 16.69 9.33C16.67 9.36 16.65 9.39 16.62 9.42C16.59 9.45 16.56 9.47 16.53 9.49C16.5 9.52 16.46 9.53 16.42 9.55C16.39 9.56 16.35 9.58 16.31 9.58C16.27 9.59 16.23 9.59 16.2 9.59L7.8 9.59C7.76 9.59 7.72 9.59 7.68 9.58C7.64 9.58 7.6 9.56 7.57 9.55C7.53 9.53 7.49 9.52 7.46 9.49C7.43 9.47 7.4 9.45 7.37 9.42C7.34 9.39 7.32 9.36 7.3 9.33C7.27 9.3 7.26 9.26 7.24 9.22C7.23 9.19 7.21 9.15 7.21 9.11C7.2 9.07 7.19 9.03 7.19 9C7.19 8.96 7.2 8.92 7.21 8.88C7.21 8.84 7.23 8.8 7.24 8.77C7.26 8.73 7.27 8.69 7.3 8.66C7.32 8.63 7.34 8.6 7.37 8.57C7.4 8.54 7.43 8.52 7.46 8.5C7.49 8.47 7.53 8.46 7.57 8.44C7.6 8.43 7.64 8.41 7.68 8.41C7.72 8.4 7.76 8.39 7.8 8.39ZM7.8 12L16.2 12C16.23 12 16.27 12 16.31 12.01C16.35 12.01 16.39 12.03 16.42 12.04C16.46 12.06 16.5 12.07 16.53 12.1C16.56 12.12 16.59 12.14 16.62 12.17C16.65 12.2 16.67 12.23 16.69 12.26C16.72 12.29 16.73 12.33 16.75 12.37C16.76 12.4 16.78 12.44 16.78 12.48C16.79 12.52 16.79 12.56 16.79 12.59C16.79 12.63 16.79 12.67 16.78 12.71C16.78 12.75 16.76 12.79 16.75 12.82C16.73 12.86 16.72 12.9 16.69 12.93C16.67 12.96 16.65 12.99 16.62 13.02C16.59 13.05 16.56 13.07 16.53 13.09C16.5 13.12 16.46 13.13 16.42 13.15C16.39 13.16 16.35 13.18 16.31 13.18C16.27 13.19 16.23 13.19 16.2 13.19L7.8 13.19C7.76 13.19 7.72 13.19 7.68 13.18C7.64 13.18 7.6 13.16 7.57 13.15C7.53 13.13 7.49 13.12 7.46 13.09C7.43 13.07 7.4 13.05 7.37 13.02C7.34 12.99 7.32 12.96 7.3 12.93C7.27 12.9 7.26 12.86 7.24 12.82C7.23 12.79 7.21 12.75 7.21 12.71C7.2 12.67 7.19 12.63 7.19 12.59C7.19 12.56 7.2 12.52 7.21 12.48C7.21 12.44 7.23 12.4 7.24 12.37C7.26 12.33 7.27 12.29 7.3 12.26C7.32 12.23 7.34 12.2 7.37 12.17C7.4 12.14 7.43 12.12 7.46 12.1C7.49 12.07 7.53 12.06 7.57 12.04C7.6 12.03 7.64 12.01 7.68 12.01C7.72 12 7.76 12 7.8 12ZM7.8 15.59L16.2 15.59C16.23 15.59 16.27 15.6 16.31 15.61C16.35 15.61 16.39 15.63 16.42 15.64C16.46 15.66 16.5 15.67 16.53 15.7C16.56 15.72 16.59 15.74 16.62 15.77C16.65 15.8 16.67 15.83 16.69 15.86C16.72 15.89 16.73 15.93 16.75 15.97C16.76 16 16.78 16.04 16.78 16.08C16.79 16.12 16.79 16.16 16.79 16.19C16.79 16.23 16.79 16.27 16.78 16.31C16.78 16.35 16.76 16.39 16.75 16.42C16.73 16.46 16.72 16.5 16.69 16.53C16.67 16.56 16.65 16.59 16.62 16.62C16.59 16.65 16.56 16.67 16.53 16.69C16.5 16.72 16.46 16.73 16.42 16.75C16.39 16.76 16.35 16.78 16.31 16.78C16.27 16.79 16.23 16.79 16.2 16.79L7.8 16.79C7.76 16.79 7.72 16.79 7.68 16.78C7.64 16.78 7.6 16.76 7.57 16.75C7.53 16.73 7.49 16.72 7.46 16.69C7.43 16.67 7.4 16.65 7.37 16.62C7.34 16.59 7.32 16.56 7.3 16.53C7.27 16.5 7.26 16.46 7.24 16.42C7.23 16.39 7.21 16.35 7.21 16.31C7.2 16.27 7.19 16.23 7.19 16.19C7.19 16.16 7.2 16.12 7.21 16.08C7.21 16.04 7.23 16 7.24 15.97C7.26 15.93 7.27 15.89 7.3 15.86C7.32 15.83 7.34 15.8 7.37 15.77C7.4 15.74 7.43 15.72 7.46 15.7C7.49 15.67 7.53 15.66 7.57 15.64C7.6 15.63 7.64 15.61 7.68 15.61C7.72 15.6 7.76 15.59 7.8 15.59Z" fill="#212121" fill-opacity="1.000000" fill-rule="nonzero"/>
	</g>
</svg>
