<!--
  - Copyright (c) 2025 Huawei Device Co., Ltd.
  - Licensed under the Apache License, Version 2.0 (the "License");
  - you may not use this file except in compliance with the License.
  - You may obtain a copy of the License at
  -
  -     http://www.apache.org/licenses/LICENSE-2.0
  -
  - Unless required by applicable law or agreed to in writing, software
  - distributed under the License is distributed on an "AS IS" BASIS,
  - WITHOUT WARRANTIES OR CONDITIONS OF ANY KIND, either express or implied.
  - See the License for the specific language governing permissions and
  - limitations under the License.
  -->

<svg width="24.000000" height="24.000000" viewBox="0 0 24 24" fill="none" xmlns="http://www.w3.org/2000/svg" xmlns:xlink="http://www.w3.org/1999/xlink">
	<desc>
			Created with Pixso.
	</desc>
	<defs>
		<clipPath id="clip112_4363">
			<rect id="待发货 (4).svg" width="24.000000" height="24.000000" fill="white" fill-opacity="0"/>
		</clipPath>
	</defs>
	<g clip-path="url(#clip112_4363)">
		<path id="path" d="M20.57 2.74L3.42 2.74C2.14 2.74 1.02 3.85 1.02 5.14L1.02 18.85C1.02 20.14 2.05 21.25 3.42 21.25L20.57 21.25C21.85 21.25 22.97 20.22 22.97 18.85L22.97 5.14C22.97 3.85 21.85 2.74 20.57 2.74ZM21.59 5.14L21.59 7.54L15.94 7.54L15.94 4.11L20.57 4.11C21.17 4.11 21.59 4.54 21.59 5.14ZM9.34 4.11L14.74 4.11L14.74 11.91L12.34 10.54C12.17 10.45 11.91 10.45 11.74 10.54L9.34 11.91L9.34 4.11ZM3.42 4.11L8.05 4.11L8.05 7.62L2.39 7.62L2.39 5.14C2.39 4.54 2.82 4.11 3.42 4.11ZM20.57 19.88L3.42 19.88C2.82 19.88 2.39 19.37 2.39 18.85L2.39 8.82L8.05 8.82L8.05 12.94C8.05 13.45 8.57 13.71 8.99 13.54L11.99 11.82L14.99 13.54C15.42 13.8 15.94 13.45 15.94 12.94L15.94 8.82L21.59 8.82L21.59 18.85C21.59 19.45 21.17 19.88 20.57 19.88Z" fill="#000000" fill-opacity="1.000000" fill-rule="nonzero"/>
	</g>
</svg>
