<!--
  - Copyright (c) 2025 Huawei Device Co., Ltd.
  - Licensed under the Apache License, Version 2.0 (the "License");
  - you may not use this file except in compliance with the License.
  - You may obtain a copy of the License at
  -
  -     http://www.apache.org/licenses/LICENSE-2.0
  -
  - Unless required by applicable law or agreed to in writing, software
  - distributed under the License is distributed on an "AS IS" BASIS,
  - WITHOUT WARRANTIES OR CONDITIONS OF ANY KIND, either express or implied.
  - See the License for the specific language governing permissions and
  - limitations under the License.
  -->

<svg width="24.000000" height="21.363770" viewBox="0 0 24 21.3638" fill="none" xmlns="http://www.w3.org/2000/svg" xmlns:xlink="http://www.w3.org/1999/xlink">
	<desc>
			Created with Pixso.
	</desc>
	<defs/>
	<path id="path" d="M21.1 19.22C21.1 19.28 21.09 19.33 21.08 19.39C21.07 19.45 21.05 19.5 21.03 19.56C21.01 19.61 20.98 19.66 20.95 19.71C20.92 19.75 20.88 19.8 20.84 19.84C20.8 19.88 20.76 19.92 20.71 19.95C20.66 19.98 20.61 20.01 20.56 20.03C20.5 20.05 20.45 20.07 20.39 20.08C20.34 20.09 20.28 20.1 20.22 20.1L2.13 20.1C2.08 20.1 2.02 20.09 1.96 20.08C1.91 20.07 1.85 20.05 1.8 20.03C1.75 20.01 1.7 19.98 1.65 19.95C1.6 19.92 1.56 19.88 1.52 19.84C1.47 19.8 1.44 19.75 1.41 19.71C1.37 19.66 1.35 19.61 1.33 19.56C1.3 19.5 1.29 19.45 1.28 19.39C1.26 19.33 1.26 19.28 1.26 19.22L1.26 2.13C1.26 2.08 1.26 2.02 1.28 1.96C1.29 1.91 1.3 1.85 1.33 1.8C1.35 1.75 1.37 1.7 1.41 1.65C1.44 1.6 1.47 1.56 1.52 1.52C1.56 1.47 1.6 1.44 1.65 1.41C1.7 1.37 1.75 1.35 1.8 1.33C1.85 1.3 1.91 1.29 1.96 1.28C2.02 1.26 2.08 1.26 2.13 1.26L20.22 1.26C20.28 1.26 20.34 1.26 20.39 1.28C20.45 1.29 20.5 1.3 20.56 1.33C20.61 1.35 20.66 1.37 20.71 1.41C20.76 1.44 20.8 1.47 20.84 1.52C20.88 1.56 20.92 1.6 20.95 1.65C20.98 1.7 21.01 1.75 21.03 1.8C21.05 1.85 21.07 1.91 21.08 1.96C21.09 2.02 21.1 2.08 21.1 2.13L21.1 6L22.36 6L22.36 2.13C22.36 2.06 22.36 1.99 22.35 1.92C22.34 1.85 22.33 1.79 22.32 1.72C22.31 1.65 22.29 1.58 22.27 1.51C22.25 1.45 22.23 1.38 22.2 1.32C22.17 1.25 22.14 1.19 22.11 1.13C22.08 1.06 22.04 1 22 0.95C21.96 0.89 21.92 0.83 21.88 0.78C21.83 0.72 21.78 0.67 21.73 0.62C21.68 0.57 21.63 0.53 21.58 0.48C21.52 0.44 21.47 0.39 21.41 0.36C21.35 0.32 21.29 0.28 21.23 0.25C21.17 0.22 21.11 0.19 21.04 0.16C20.98 0.13 20.91 0.11 20.84 0.09C20.78 0.07 20.71 0.05 20.64 0.04C20.57 0.02 20.5 0.01 20.43 0.01C20.36 0 20.29 0 20.22 0L2.13 0C2.06 0 1.99 0 1.92 0.01C1.85 0.01 1.79 0.02 1.72 0.04C1.65 0.05 1.58 0.07 1.51 0.09C1.45 0.11 1.38 0.13 1.32 0.16C1.25 0.19 1.19 0.22 1.13 0.25C1.06 0.28 1 0.32 0.95 0.36C0.89 0.39 0.83 0.44 0.78 0.48C0.72 0.53 0.67 0.57 0.62 0.62C0.57 0.67 0.53 0.72 0.48 0.78C0.44 0.83 0.4 0.89 0.36 0.95C0.32 1 0.28 1.06 0.25 1.13C0.22 1.19 0.19 1.25 0.16 1.32C0.13 1.38 0.11 1.45 0.09 1.51C0.07 1.58 0.05 1.65 0.04 1.72C0.02 1.79 0.01 1.85 0.01 1.92C0 1.99 0 2.06 0 2.13L0 19.22C0 19.29 0 19.36 0.01 19.43C0.01 19.5 0.02 19.57 0.04 19.64C0.05 19.71 0.07 19.77 0.09 19.84C0.11 19.91 0.13 19.97 0.16 20.04C0.19 20.1 0.22 20.17 0.25 20.23C0.28 20.29 0.32 20.35 0.36 20.41C0.4 20.47 0.44 20.52 0.48 20.58C0.53 20.63 0.57 20.68 0.62 20.73C0.67 20.78 0.72 20.83 0.78 20.87C0.83 20.92 0.89 20.96 0.95 21C1 21.04 1.06 21.07 1.13 21.11C1.19 21.14 1.25 21.17 1.32 21.2C1.38 21.22 1.45 21.25 1.51 21.27C1.58 21.29 1.65 21.3 1.72 21.32C1.79 21.33 1.85 21.34 1.92 21.35C1.99 21.36 2.06 21.36 2.13 21.36L20.22 21.36C20.29 21.36 20.36 21.36 20.43 21.35C20.5 21.34 20.57 21.33 20.64 21.32C20.71 21.3 20.78 21.29 20.84 21.27C20.91 21.25 20.98 21.22 21.04 21.2C21.11 21.17 21.17 21.14 21.23 21.11C21.29 21.07 21.35 21.04 21.41 21C21.47 20.96 21.52 20.92 21.58 20.87C21.63 20.83 21.68 20.78 21.73 20.73C21.78 20.68 21.83 20.63 21.88 20.58C21.92 20.52 21.96 20.47 22 20.41C22.04 20.35 22.08 20.29 22.11 20.23C22.14 20.17 22.17 20.1 22.2 20.04C22.23 19.97 22.25 19.91 22.27 19.84C22.29 19.77 22.31 19.71 22.32 19.64C22.33 19.57 22.34 19.5 22.35 19.43C22.36 19.36 22.36 19.29 22.36 19.22L22.36 15.23L21.1 15.23L21.1 19.22Z" fill="#231815" fill-opacity="1.000000" fill-rule="nonzero"/>
	<path id="path" d="M20.35 7.03L12.81 7.03C10.8 7.03 9.17 8.67 9.17 10.68C9.17 12.69 10.8 14.32 12.81 14.32L20.35 14.32C22.36 14.32 24 12.69 24 10.68C24 8.67 22.36 7.03 20.35 7.03ZM20.35 13.06L12.81 13.06C11.5 13.06 10.43 11.99 10.43 10.68C10.43 9.36 11.5 8.29 12.81 8.29L20.35 8.29C21.66 8.29 22.73 9.36 22.73 10.68C22.73 11.99 21.66 13.06 20.35 13.06Z" fill="#231815" fill-opacity="1.000000" fill-rule="nonzero"/>
	<path id="path" d="M13.03 10.68C13.03 10.75 13.04 10.83 13.05 10.9C13.07 10.97 13.09 11.04 13.12 11.11C13.15 11.18 13.18 11.25 13.22 11.31C13.26 11.37 13.31 11.43 13.36 11.48C13.42 11.53 13.47 11.58 13.54 11.62C13.6 11.66 13.66 11.7 13.73 11.72C13.8 11.75 13.87 11.77 13.94 11.79C14.02 11.8 14.09 11.81 14.16 11.81C14.24 11.81 14.31 11.8 14.39 11.79C14.46 11.77 14.53 11.75 14.6 11.72C14.67 11.7 14.73 11.66 14.79 11.62C14.86 11.58 14.91 11.53 14.97 11.48C15.02 11.43 15.07 11.37 15.11 11.31C15.15 11.25 15.18 11.18 15.21 11.11C15.24 11.04 15.26 10.97 15.28 10.9C15.29 10.83 15.3 10.75 15.3 10.68C15.3 10.6 15.29 10.53 15.28 10.46C15.26 10.38 15.24 10.31 15.21 10.24C15.18 10.17 15.15 10.11 15.11 10.05C15.07 9.99 15.02 9.93 14.97 9.88C14.91 9.82 14.86 9.78 14.79 9.73C14.73 9.69 14.67 9.66 14.6 9.63C14.53 9.6 14.46 9.58 14.39 9.57C14.31 9.55 14.24 9.54 14.16 9.54C14.09 9.54 14.02 9.55 13.94 9.57C13.87 9.58 13.8 9.6 13.73 9.63C13.66 9.66 13.6 9.69 13.54 9.73C13.47 9.78 13.42 9.82 13.36 9.88C13.31 9.93 13.26 9.99 13.22 10.05C13.18 10.11 13.15 10.17 13.12 10.24C13.09 10.31 13.07 10.38 13.05 10.46C13.04 10.53 13.03 10.6 13.03 10.68Z" fill="#231815" fill-opacity="1.000000" fill-rule="nonzero"/>
</svg>
