<!--
  - Copyright (c) 2025 Huawei Device Co., Ltd.
  - Licensed under the Apache License, Version 2.0 (the "License");
  - you may not use this file except in compliance with the License.
  - You may obtain a copy of the License at
  -
  -     http://www.apache.org/licenses/LICENSE-2.0
  -
  - Unless required by applicable law or agreed to in writing, software
  - distributed under the License is distributed on an "AS IS" BASIS,
  - WITHOUT WARRANTIES OR CONDITIONS OF ANY KIND, either express or implied.
  - See the License for the specific language governing permissions and
  - limitations under the License.
  -->

<svg width="24.000000" height="24.000000" viewBox="0 0 24 24" fill="none" xmlns="http://www.w3.org/2000/svg" xmlns:xlink="http://www.w3.org/1999/xlink">
	<desc>
			Created with Pixso.
	</desc>
	<defs>
		<clipPath id="clip61_4963">
			<rect id="已完成 (1).svg" width="24.000000" height="24.000000" fill="white" fill-opacity="0"/>
		</clipPath>
	</defs>
	<g clip-path="url(#clip61_4963)">
		<path id="path" d="M12.01 22.43C6.33 22.43 1.74 17.82 1.74 12.12C1.74 6.43 6.33 1.82 12.01 1.82C17.68 1.82 22.28 6.43 22.28 12.12C22.28 17.82 17.68 22.43 12.01 22.43ZM11.95 3.42C7.16 3.42 3.28 7.31 3.28 12.12C3.28 16.92 7.16 20.82 11.95 20.82C16.74 20.82 20.62 16.92 20.62 12.12C20.62 7.31 16.74 3.42 11.95 3.42ZM16.71 10.63L11.82 15.55C11.67 15.7 11.47 15.79 11.24 15.79C11.02 15.79 10.81 15.7 10.67 15.55L7.42 12.28C7.27 12.13 7.18 11.93 7.18 11.7C7.18 11.25 7.54 10.88 7.99 10.88C8.22 10.88 8.42 10.98 8.57 11.12L11.24 13.82L15.56 9.48C15.7 9.33 15.91 9.24 16.13 9.24C16.58 9.24 16.95 9.6 16.95 10.06C16.95 10.28 16.86 10.49 16.71 10.63Z" fill="#272636" fill-opacity="1.000000" fill-rule="nonzero"/>
	</g>
</svg>
