<!--
  - Copyright (c) 2025 Huawei Device Co., Ltd.
  - Licensed under the Apache License, Version 2.0 (the "License");
  - you may not use this file except in compliance with the License.
  - You may obtain a copy of the License at
  -
  -     http://www.apache.org/licenses/LICENSE-2.0
  -
  - Unless required by applicable law or agreed to in writing, software
  - distributed under the License is distributed on an "AS IS" BASIS,
  - WITHOUT WARRANTIES OR CONDITIONS OF ANY KIND, either express or implied.
  - See the License for the specific language governing permissions and
  - limitations under the License.
  -->

<svg width="24.000000" height="24.000000" viewBox="0 0 24 24" fill="none" xmlns="http://www.w3.org/2000/svg" xmlns:xlink="http://www.w3.org/1999/xlink">
	<desc>
			Created with Pixso.
	</desc>
	<defs>
		<clipPath id="clip61_4964">
			<rect id="已退款.svg" width="24.000000" height="24.000000" fill="white" fill-opacity="0"/>
		</clipPath>
	</defs>
	<g clip-path="url(#clip61_4964)">
		<path id="path" d="M10.9 1.04C11.1 1.04 11.29 1.04 11.49 1.05C11.68 1.06 11.88 1.08 12.08 1.1C12.27 1.12 12.47 1.14 12.66 1.18C12.85 1.21 13.05 1.24 13.24 1.29C13.43 1.33 13.62 1.37 13.81 1.43C14 1.48 14.19 1.54 14.37 1.6C14.56 1.66 14.75 1.73 14.93 1.8C15.11 1.87 15.29 1.95 15.47 2.03C15.65 2.11 15.82 2.2 16 2.29C16.17 2.38 16.34 2.48 16.51 2.58C16.68 2.68 16.85 2.79 17.01 2.9C17.17 3.01 17.33 3.12 17.49 3.24C17.64 3.36 17.8 3.48 17.95 3.61C18.1 3.74 18.24 3.87 18.39 4C18.53 4.14 18.67 4.28 18.8 4.42C18.94 4.56 19.07 4.71 19.2 4.86C19.32 5.01 19.45 5.16 19.57 5.31C19.68 5.47 19.8 5.63 19.91 5.79C20.02 5.96 20.13 6.12 20.23 6.29C20.33 6.46 20.43 6.63 20.52 6.8C20.61 6.97 20.7 7.15 20.78 7.33C20.86 7.51 20.94 7.69 21.01 7.87C21.09 8.05 21.15 8.24 21.22 8.42C21.28 8.61 21.34 8.8 21.39 8.99C21.44 9.18 21.49 9.37 21.53 9.56C21.57 9.75 21.61 9.94 21.64 10.14C21.67 10.33 21.7 10.53 21.72 10.72C21.74 10.92 21.76 11.11 21.77 11.31C21.78 11.5 21.78 11.7 21.78 11.9C21.78 12.09 21.78 12.29 21.77 12.49C21.76 12.68 21.74 12.88 21.72 13.07C21.7 13.27 21.67 13.46 21.64 13.66L21.94 13.48C21.99 13.46 22.03 13.43 22.08 13.42C22.13 13.4 22.18 13.39 22.23 13.38C22.29 13.37 22.34 13.37 22.39 13.38C22.44 13.38 22.5 13.39 22.55 13.4C22.6 13.42 22.64 13.43 22.69 13.46C22.74 13.48 22.78 13.51 22.83 13.54C22.87 13.57 22.9 13.61 22.94 13.65C22.97 13.69 23 13.73 23.03 13.77L23.32 14.26C23.33 14.29 23.34 14.32 23.35 14.35C23.35 14.38 23.35 14.41 23.34 14.44C23.33 14.47 23.32 14.5 23.3 14.52C23.28 14.54 23.26 14.56 23.23 14.58L20.76 16C20.74 16.01 20.71 16.03 20.67 16.04C20.64 16.05 20.61 16.06 20.58 16.07C20.55 16.08 20.52 16.09 20.48 16.09C20.45 16.1 20.42 16.1 20.38 16.1C20.35 16.1 20.32 16.1 20.28 16.1C20.25 16.1 20.22 16.09 20.18 16.08C20.15 16.08 20.12 16.07 20.09 16.05C20.06 16.04 20.03 16.03 20 16.01C19.97 16 19.94 15.98 19.91 15.96C19.88 15.94 19.86 15.92 19.83 15.9C19.81 15.88 19.78 15.86 19.76 15.83C19.74 15.81 19.72 15.78 19.7 15.75C19.68 15.72 19.67 15.7 19.65 15.67C19.64 15.64 19.62 15.6 19.61 15.57C19.6 15.54 19.59 15.51 19.58 15.48C19.58 15.45 19.57 15.41 19.57 15.38C19.54 15.23 19.54 15.07 19.6 14.93C19.65 14.77 19.7 14.62 19.75 14.46C19.79 14.31 19.84 14.15 19.87 14C19.91 13.84 19.95 13.68 19.98 13.52C20 13.36 20.03 13.2 20.05 13.04C20.07 12.88 20.09 12.72 20.1 12.56C20.11 12.4 20.12 12.24 20.13 12.07C20.13 11.91 20.13 11.75 20.13 11.59C20.12 11.43 20.11 11.26 20.1 11.1C20.09 10.94 20.07 10.78 20.05 10.62C20.03 10.46 20 10.3 19.97 10.14C19.94 9.98 19.91 9.82 19.87 9.67C19.83 9.51 19.79 9.35 19.75 9.2C19.7 9.04 19.65 8.89 19.6 8.74C19.54 8.58 19.48 8.43 19.42 8.28C19.36 8.13 19.29 7.99 19.22 7.84C19.15 7.69 19.08 7.55 19 7.41C18.92 7.27 18.84 7.13 18.76 6.99C18.67 6.85 18.58 6.71 18.49 6.58C18.4 6.45 18.3 6.32 18.2 6.19C18.1 6.06 18 5.94 17.9 5.81C17.79 5.69 17.68 5.57 17.57 5.45C17.46 5.34 17.34 5.22 17.23 5.11C17.11 5 16.99 4.89 16.86 4.79C16.74 4.68 16.61 4.58 16.48 4.48C16.35 4.39 16.22 4.29 16.09 4.2C15.96 4.11 15.82 4.02 15.68 3.94C15.54 3.86 15.4 3.78 15.26 3.7C15.12 3.62 14.97 3.55 14.83 3.48C14.68 3.41 14.53 3.35 14.38 3.29C14.23 3.23 14.08 3.17 13.93 3.12C13.77 3.06 13.62 3.01 13.46 2.97C13.31 2.92 13.15 2.88 12.99 2.85C12.83 2.81 12.68 2.78 12.52 2.75C12.36 2.72 12.2 2.7 12.04 2.68C11.88 2.66 11.72 2.64 11.55 2.63C11.39 2.62 11.23 2.61 11.07 2.61C10.91 2.61 10.74 2.61 10.58 2.61C10.42 2.62 10.26 2.63 10.1 2.64C9.94 2.66 9.78 2.67 9.62 2.7C9.46 2.72 9.3 2.75 9.14 2.78C8.98 2.81 8.82 2.84 8.66 2.88C8.51 2.92 8.35 2.97 8.2 3.01C8.04 3.06 7.89 3.11 7.73 3.17C7.58 3.22 7.43 3.28 7.28 3.35C7.13 3.41 6.99 3.48 6.84 3.55C6.7 3.62 6.55 3.7 6.41 3.78C6.27 3.85 6.13 3.94 5.99 4.02C5.86 4.11 5.72 4.2 5.59 4.29C5.46 4.39 5.33 4.48 5.2 4.58C5.07 4.68 4.95 4.79 4.83 4.89C4.71 5 4.59 5.11 4.47 5.22C4.35 5.33 4.24 5.45 4.13 5.57C4.02 5.69 3.91 5.81 3.81 5.93C3.71 6.06 3.61 6.19 3.51 6.32C3.41 6.45 3.32 6.58 3.23 6.71C3.14 6.85 3.05 6.98 2.97 7.12C2.89 7.26 2.81 7.4 2.74 7.55C2.66 7.69 2.59 7.84 2.52 7.98C2.45 8.13 2.39 8.28 2.33 8.43C2.27 8.58 2.21 8.73 2.16 8.89C2.11 9.04 2.06 9.19 2.02 9.35C1.98 9.51 1.94 9.66 1.9 9.82C1.87 9.98 1.84 10.14 1.81 10.3C1.78 10.46 1.76 10.62 1.74 10.78C1.72 10.94 1.71 11.1 1.7 11.26C1.69 11.42 1.68 11.58 1.68 11.75C1.68 11.91 1.68 12.07 1.69 12.23C1.7 12.39 1.71 12.56 1.72 12.72C1.74 12.88 1.76 13.04 1.78 13.2C1.81 13.36 1.83 13.52 1.87 13.68C1.9 13.84 1.93 13.99 1.98 14.15C2.02 14.31 2.06 14.46 2.11 14.62C2.16 14.77 2.21 14.92 2.27 15.08C2.33 15.23 2.39 15.38 2.45 15.53C2.52 15.67 2.58 15.82 2.66 15.97C2.73 16.11 2.81 16.25 2.89 16.39C2.97 16.53 3.05 16.67 3.14 16.81C3.22 16.95 3.32 17.08 3.41 17.21C3.5 17.34 3.6 17.47 3.7 17.6C3.8 17.72 3.91 17.85 4.02 17.97C4.12 18.09 4.24 18.21 4.35 18.32C4.46 18.44 4.58 18.55 4.7 18.66C4.82 18.77 4.94 18.87 5.07 18.98C5.19 19.08 5.32 19.18 5.45 19.27C5.58 19.37 5.72 19.46 5.85 19.55C5.99 19.64 6.12 19.72 6.26 19.81C6.4 19.89 6.55 19.96 6.69 20.04C6.83 20.11 6.98 20.18 7.13 20.25C7.27 20.31 7.42 20.38 7.58 20.44C7.73 20.49 7.88 20.55 8.03 20.6C8.19 20.65 8.34 20.7 8.5 20.74C8.65 20.78 8.81 20.82 8.97 20.85C9.13 20.89 9.29 20.92 9.45 20.94C9.61 20.97 9.77 20.99 9.93 21.01C10.09 21.02 10.25 21.04 10.41 21.04C10.57 21.05 10.74 21.06 10.9 21.06C11.62 21.06 12.34 20.98 13.05 20.81C13.76 20.64 14.43 20.39 15.08 20.06C15.13 20.03 15.18 20.01 15.24 19.99C15.29 19.97 15.35 19.95 15.4 19.95C15.46 19.94 15.52 19.94 15.58 19.94C15.63 19.95 15.69 19.96 15.74 19.97C15.8 19.99 15.85 20.01 15.9 20.04C15.95 20.06 16 20.09 16.05 20.13C16.09 20.17 16.13 20.21 16.17 20.25C16.2 20.3 16.23 20.35 16.26 20.4C16.29 20.45 16.31 20.5 16.32 20.56C16.34 20.61 16.34 20.67 16.35 20.73C16.35 20.78 16.35 20.84 16.34 20.9C16.33 20.95 16.32 21.01 16.3 21.06C16.28 21.12 16.25 21.17 16.22 21.22C16.19 21.27 16.16 21.31 16.12 21.35C16.08 21.39 16.03 21.43 15.99 21.46C15.94 21.5 15.89 21.52 15.84 21.54C15.65 21.64 15.47 21.73 15.28 21.81C15.1 21.89 14.91 21.97 14.72 22.04C14.52 22.12 14.33 22.18 14.14 22.24C13.94 22.3 13.74 22.36 13.55 22.41C13.35 22.46 13.15 22.51 12.95 22.54C12.75 22.58 12.55 22.62 12.34 22.64C12.14 22.67 11.94 22.69 11.73 22.71C11.53 22.73 11.32 22.74 11.12 22.74C10.92 22.75 10.71 22.74 10.51 22.74C10.3 22.73 10.1 22.72 9.89 22.7C9.69 22.68 9.49 22.66 9.29 22.63C9.08 22.6 8.88 22.56 8.68 22.52C8.48 22.48 8.28 22.43 8.08 22.38C7.89 22.33 7.69 22.27 7.5 22.2C7.3 22.14 7.11 22.07 6.92 22C6.73 21.92 6.54 21.84 6.35 21.76C6.17 21.67 5.99 21.58 5.8 21.48C5.62 21.39 5.45 21.29 5.27 21.18C5.1 21.08 4.92 20.97 4.75 20.85C4.59 20.74 4.42 20.62 4.26 20.49C4.1 20.37 3.94 20.24 3.78 20.1C3.63 19.97 3.48 19.83 3.33 19.69C3.18 19.55 3.04 19.4 2.9 19.25C2.76 19.1 2.63 18.95 2.5 18.79C2.37 18.63 2.24 18.47 2.12 18.3C2 18.14 1.89 17.97 1.77 17.8C1.66 17.63 1.56 17.45 1.46 17.27C1.35 17.1 1.26 16.92 1.17 16.73C1.08 16.55 0.99 16.37 0.91 16.18C0.83 15.99 0.75 15.8 0.68 15.61C0.61 15.41 0.55 15.22 0.49 15.02C0.43 14.83 0.38 14.63 0.33 14.43C0.28 14.23 0.24 14.03 0.2 13.83C0.16 13.63 0.13 13.43 0.11 13.23C0.08 13.02 0.06 12.82 0.05 12.62C0.04 12.41 0.03 12.21 0.03 12C0.02 11.8 0.03 11.59 0.04 11.39C0.05 11.18 0.06 10.98 0.08 10.78C0.1 10.57 0.13 10.37 0.16 10.17C0.2 9.97 0.23 9.77 0.28 9.57C0.32 9.37 0.37 9.17 0.43 8.97C0.48 8.77 0.54 8.58 0.61 8.39C0.67 8.19 0.75 8 0.82 7.81C0.9 7.62 0.98 7.43 1.07 7.25C1.16 7.06 1.25 6.88 1.35 6.7C1.44 6.52 1.55 6.35 1.66 6.17C1.76 6 1.88 5.83 1.99 5.66C2.11 5.49 2.23 5.33 2.36 5.17C2.49 5.01 2.62 4.85 2.75 4.7C2.89 4.54 3.03 4.4 3.17 4.25C3.32 4.11 3.46 3.96 3.62 3.83C3.77 3.69 3.92 3.56 4.08 3.43C4.24 3.3 4.41 3.18 4.57 3.06C4.74 2.94 4.91 2.83 5.08 2.72C5.25 2.61 5.43 2.5 5.61 2.4C5.79 2.31 5.97 2.21 6.15 2.12C6.34 2.03 6.52 1.95 6.71 1.87C6.9 1.79 7.09 1.72 7.29 1.65C7.48 1.58 7.67 1.52 7.87 1.46C8.07 1.41 8.27 1.36 8.46 1.31C8.66 1.27 8.86 1.23 9.07 1.19C9.27 1.16 9.47 1.13 9.67 1.11C9.88 1.08 10.08 1.07 10.28 1.06C10.49 1.04 10.7 1.04 10.9 1.04ZM8.7 7.49L10.92 9.68L13.12 7.49C13.16 7.45 13.21 7.41 13.26 7.38C13.31 7.35 13.36 7.32 13.42 7.29C13.47 7.27 13.53 7.25 13.59 7.24C13.65 7.23 13.71 7.23 13.77 7.23C13.83 7.23 13.89 7.23 13.94 7.24C14 7.25 14.06 7.27 14.12 7.29C14.17 7.32 14.22 7.35 14.27 7.38C14.32 7.41 14.37 7.45 14.41 7.49L14.9 7.98L12.3 10.56L13.65 10.56C13.7 10.56 13.75 10.57 13.8 10.58C13.85 10.59 13.9 10.6 13.95 10.62C14 10.64 14.04 10.67 14.09 10.7C14.13 10.72 14.17 10.76 14.21 10.79C14.24 10.83 14.28 10.87 14.31 10.91C14.34 10.95 14.36 11 14.39 11.04C14.41 11.09 14.42 11.14 14.44 11.19C14.45 11.24 14.46 11.29 14.46 11.34C14.46 11.39 14.46 11.44 14.46 11.5C14.45 11.55 14.44 11.6 14.42 11.65C14.41 11.7 14.39 11.74 14.36 11.79C14.34 11.84 14.31 11.88 14.28 11.92C14.25 11.96 14.21 12 14.17 12.03C14.13 12.06 14.09 12.09 14.04 12.12C14 12.14 13.95 12.17 13.9 12.18C13.85 12.2 13.8 12.21 13.75 12.22L13.65 12.23L11.75 12.23L11.75 13.29L13.65 13.29C13.7 13.29 13.75 13.3 13.8 13.31C13.85 13.32 13.9 13.33 13.95 13.35C14 13.37 14.04 13.4 14.09 13.43C14.13 13.45 14.17 13.49 14.21 13.52C14.24 13.56 14.28 13.6 14.31 13.64C14.34 13.68 14.36 13.73 14.39 13.77C14.41 13.82 14.42 13.87 14.44 13.92C14.45 13.97 14.46 14.02 14.46 14.07C14.46 14.12 14.46 14.17 14.46 14.23C14.45 14.28 14.44 14.33 14.42 14.38C14.41 14.43 14.39 14.47 14.36 14.52C14.34 14.57 14.31 14.61 14.28 14.65C14.25 14.69 14.21 14.73 14.17 14.76C14.13 14.79 14.09 14.82 14.04 14.85C14 14.87 13.95 14.9 13.9 14.91C13.85 14.93 13.8 14.94 13.75 14.95L13.65 14.96L11.75 14.96L11.75 16.29C11.75 16.34 11.74 16.4 11.73 16.45C11.72 16.5 11.71 16.56 11.69 16.61C11.66 16.66 11.64 16.71 11.61 16.75C11.58 16.8 11.54 16.84 11.5 16.88C11.47 16.92 11.42 16.95 11.38 16.98C11.33 17.01 11.28 17.04 11.23 17.06C11.18 17.08 11.13 17.1 11.08 17.11C11.02 17.12 10.97 17.12 10.91 17.12C10.86 17.12 10.81 17.12 10.75 17.11C10.7 17.1 10.65 17.08 10.6 17.06C10.54 17.04 10.5 17.01 10.45 16.98C10.41 16.95 10.36 16.92 10.32 16.88C10.29 16.84 10.25 16.8 10.22 16.75C10.19 16.71 10.16 16.66 10.14 16.61C10.12 16.56 10.11 16.5 10.1 16.45C10.09 16.4 10.08 16.34 10.08 16.29L10.08 14.96L8.16 14.96C8.11 14.96 8.06 14.95 8.01 14.94C7.96 14.93 7.91 14.91 7.86 14.89C7.81 14.87 7.77 14.85 7.73 14.82C7.68 14.79 7.64 14.76 7.61 14.72C7.57 14.69 7.54 14.65 7.51 14.61C7.48 14.56 7.45 14.52 7.43 14.47C7.41 14.43 7.39 14.38 7.38 14.33C7.37 14.28 7.36 14.23 7.36 14.18C7.35 14.13 7.36 14.08 7.36 14.02C7.37 13.97 7.38 13.92 7.39 13.87C7.41 13.83 7.43 13.78 7.45 13.73C7.48 13.69 7.51 13.64 7.54 13.6C7.57 13.56 7.6 13.53 7.64 13.49C7.68 13.46 7.72 13.43 7.77 13.41C7.81 13.38 7.86 13.36 7.91 13.34C7.96 13.32 8 13.31 8.06 13.3L8.16 13.3L10.08 13.3L10.08 12.23L8.16 12.23C8.11 12.23 8.06 12.22 8.01 12.21C7.96 12.2 7.91 12.18 7.86 12.16C7.81 12.14 7.77 12.12 7.73 12.09C7.68 12.06 7.64 12.03 7.61 11.99C7.57 11.96 7.54 11.92 7.51 11.88C7.48 11.84 7.45 11.79 7.43 11.75C7.41 11.7 7.39 11.65 7.38 11.6C7.37 11.55 7.36 11.5 7.36 11.45C7.35 11.4 7.36 11.35 7.36 11.3C7.37 11.25 7.38 11.19 7.39 11.15C7.41 11.1 7.43 11.05 7.45 11C7.48 10.96 7.51 10.92 7.54 10.88C7.57 10.84 7.6 10.8 7.64 10.77C7.68 10.73 7.72 10.7 7.77 10.68C7.81 10.65 7.86 10.63 7.91 10.61C7.96 10.59 8 10.58 8.06 10.57L8.16 10.57L9.53 10.57L6.92 7.98L7.41 7.5C7.45 7.46 7.5 7.42 7.55 7.39C7.6 7.35 7.65 7.32 7.7 7.3C7.76 7.28 7.82 7.26 7.88 7.25C7.93 7.24 7.99 7.23 8.05 7.23C8.11 7.23 8.17 7.24 8.23 7.25C8.29 7.26 8.35 7.28 8.4 7.3C8.46 7.32 8.51 7.35 8.56 7.39C8.61 7.42 8.66 7.46 8.7 7.5L8.7 7.49Z" fill="#333333" fill-opacity="1.000000" fill-rule="nonzero"/>
	</g>
</svg>
