<!--
  - Copyright (c) 2025 Huawei Device Co., Ltd.
  - Licensed under the Apache License, Version 2.0 (the "License");
  - you may not use this file except in compliance with the License.
  - You may obtain a copy of the License at
  -
  -     http://www.apache.org/licenses/LICENSE-2.0
  -
  - Unless required by applicable law or agreed to in writing, software
  - distributed under the License is distributed on an "AS IS" BASIS,
  - WITHOUT WARRANTIES OR CONDITIONS OF ANY KIND, either express or implied.
  - See the License for the specific language governing permissions and
  - limitations under the License.
  -->

<svg width="14.000000" height="14.000000" viewBox="0 0 14 14" fill="none" xmlns="http://www.w3.org/2000/svg" xmlns:xlink="http://www.w3.org/1999/xlink">
	<desc>
			Created with Pixso.
	</desc>
	<defs>
		<clipPath id="clip61_4905">
			<rect id="ic_public_teams" width="14.000000" height="14.000000" fill="white" fill-opacity="0"/>
		</clipPath>
	</defs>
	<g clip-path="url(#clip61_4905)">
		<path id="path1" d="M0 6.99C0 5.9 -0.01 4.8 0 3.71C-0.01 3.18 0.06 2.65 0.19 2.14C0.48 1.05 1.18 0.41 2.27 0.16C2.81 0.04 3.37 -0.01 3.92 0C6.02 0 8.12 0 10.22 0C10.74 -0.01 11.27 0.05 11.79 0.18C12.9 0.45 13.58 1.16 13.83 2.27C13.95 2.79 14 3.33 13.99 3.87C13.99 5.99 13.99 8.11 13.99 10.23C14 10.75 13.94 11.28 13.81 11.79C13.54 12.91 12.83 13.57 11.72 13.83C11.17 13.95 10.62 14 10.06 13.99C7.97 13.99 5.88 13.99 3.8 13.99C3.26 14 2.73 13.94 2.21 13.81C1.09 13.54 0.42 12.83 0.16 11.71C0.03 11.14 0 10.57 0 10C0 9 0 7.99 0 6.99Z" fill="#FFFFFF" fill-opacity="0" fill-rule="evenodd"/>
		<circle id="path2" cx="7.000000" cy="7.000000" r="7.000000" fill="#FFFFFF" fill-opacity="0"/>
		<mask id="mask61_4909" mask-type="alpha" maskUnits="userSpaceOnUse" x="0.000000" y="0.000000" width="14.000000" height="14.000000">
			<path id="mask" d="M4.2 0L0 0L0 9.38C0.07 9.24 0.16 9.1 0.25 8.96C0.35 8.82 0.45 8.68 0.56 8.55C0.68 8.39 0.82 8.25 0.95 8.11C1.09 7.97 1.24 7.84 1.39 7.72C1.52 7.61 1.66 7.5 1.81 7.41C1.98 7.29 2.16 7.18 2.34 7.09C2.49 7.01 2.64 6.94 2.79 6.88C2.93 6.81 3.08 6.76 3.23 6.71C2.33 5.99 1.75 4.88 1.75 3.64C1.75 1.99 2.76 0.58 4.2 0ZM0 13.78L0 14L0.3 14C0.26 13.98 0.23 13.96 0.2 13.93C0.13 13.89 0.06 13.83 0 13.78ZM11.07 14C11.1 13.98 11.14 13.96 11.17 13.93C11.28 13.86 11.39 13.77 11.49 13.67C11.59 13.57 11.67 13.47 11.75 13.35C11.82 13.24 11.89 13.13 11.94 13.01C11.99 12.88 12.03 12.75 12.06 12.62C12.09 12.48 12.1 12.34 12.1 12.19C12.1 11.93 12.08 11.66 12.05 11.41C12.03 11.28 12.01 11.15 11.99 11.03C11.95 10.84 11.9 10.66 11.84 10.47C11.79 10.29 11.72 10.12 11.65 9.94C11.58 9.79 11.51 9.64 11.44 9.5C11.34 9.31 11.23 9.14 11.12 8.96C11.02 8.82 10.92 8.68 10.81 8.55C10.68 8.39 10.55 8.25 10.41 8.11C10.27 7.97 10.13 7.84 9.98 7.72C9.84 7.61 9.7 7.5 9.56 7.41C9.39 7.29 9.21 7.18 9.03 7.09C8.88 7.01 8.73 6.94 8.58 6.88C8.44 6.81 8.29 6.76 8.14 6.71C9.04 5.99 9.62 4.88 9.62 3.64C9.62 1.99 8.61 0.58 7.17 0L14 0L14 14L11.07 14Z" fill="#C4C4C4" fill-opacity="1.000000" fill-rule="evenodd"/>
		</mask>
		<g mask="url(#mask61_4909)">
			<circle id="path3" cx="9.041748" cy="3.983398" r="2.106481" fill="#000000" fill-opacity="0"/>
			<circle id="path3" cx="9.041748" cy="3.983398" r="2.106481" stroke="#FFFFFF" stroke-opacity="0" stroke-width="0.997500"/>
		</g>
		<mask id="mask61_4914" mask-type="alpha" maskUnits="userSpaceOnUse" x="0.000000" y="0.000000" width="14.000000" height="14.000000">
			<path id="mask" d="M4.2 0L0 0L0 9.38C0.07 9.24 0.16 9.1 0.25 8.96C0.35 8.82 0.45 8.68 0.56 8.55C0.68 8.39 0.82 8.25 0.95 8.11C1.09 7.97 1.24 7.84 1.39 7.72C1.52 7.61 1.66 7.5 1.81 7.41C1.98 7.29 2.16 7.18 2.34 7.09C2.49 7.01 2.64 6.94 2.79 6.88C2.93 6.81 3.08 6.76 3.23 6.71C2.33 5.99 1.75 4.88 1.75 3.64C1.75 1.99 2.76 0.58 4.2 0ZM0 13.78L0 14L0.3 14C0.26 13.98 0.23 13.96 0.2 13.93C0.13 13.89 0.06 13.83 0 13.78ZM11.07 14C11.1 13.98 11.14 13.96 11.17 13.93C11.28 13.86 11.39 13.77 11.49 13.67C11.59 13.57 11.67 13.47 11.75 13.35C11.82 13.24 11.89 13.13 11.94 13.01C11.99 12.88 12.03 12.75 12.06 12.62C12.09 12.48 12.1 12.34 12.1 12.19C12.1 11.93 12.08 11.66 12.05 11.41C12.03 11.28 12.01 11.15 11.99 11.03C11.95 10.84 11.9 10.66 11.84 10.47C11.79 10.29 11.72 10.12 11.65 9.94C11.58 9.79 11.51 9.64 11.44 9.5C11.34 9.31 11.23 9.14 11.12 8.96C11.02 8.82 10.92 8.68 10.81 8.55C10.68 8.39 10.55 8.25 10.41 8.11C10.27 7.97 10.13 7.84 9.98 7.72C9.84 7.61 9.7 7.5 9.56 7.41C9.39 7.29 9.21 7.18 9.03 7.09C8.88 7.01 8.73 6.94 8.58 6.88C8.44 6.81 8.29 6.76 8.14 6.71C9.04 5.99 9.62 4.88 9.62 3.64C9.62 1.99 8.61 0.58 7.17 0L14 0L14 14L11.07 14Z" fill="#C4C4C4" fill-opacity="1.000000" fill-rule="evenodd"/>
		</mask>
		<g mask="url(#mask61_4914)">
			<path id="path4" d="M9.59 7.63C11.7 7.63 13.41 9.34 13.41 11.44C13.41 11.82 13.11 12.12 12.74 12.12L5.33 12.12C4.96 12.12 4.66 11.82 4.66 11.44C4.66 9.34 6.37 7.63 8.48 7.63L9.59 7.63Z" fill="#000000" fill-opacity="0" fill-rule="nonzero"/>
			<path id="path4" d="M13.41 11.44C13.41 11.82 13.11 12.12 12.74 12.12L5.33 12.12C4.96 12.12 4.66 11.82 4.66 11.44C4.66 9.34 6.37 7.63 8.48 7.63L9.59 7.63C11.7 7.63 13.41 9.34 13.41 11.44Z" stroke="#FFFFFF" stroke-opacity="0" stroke-width="0.997500"/>
		</g>
		<circle id="path5" cx="5.689209" cy="3.640625" r="2.620084" fill="#000000" fill-opacity="0"/>
		<circle id="path5" cx="5.689209" cy="3.640625" r="2.620084" stroke="#FFFFFF" stroke-opacity="0" stroke-width="0.997500"/>
		<path id="path6" d="M6.33 7.73C8.79 7.73 10.79 9.73 10.79 12.19C10.79 12.62 10.44 12.97 10 12.97L1.36 12.97C0.93 12.97 0.58 12.62 0.58 12.19C0.58 9.73 2.57 7.73 5.03 7.73L6.33 7.73Z" fill="#000000" fill-opacity="0" fill-rule="nonzero"/>
		<path id="path6" d="M10.79 12.19C10.79 12.62 10.44 12.97 10 12.97L1.36 12.97C0.93 12.97 0.58 12.62 0.58 12.19C0.58 9.73 2.57 7.73 5.03 7.73L6.33 7.73C8.79 7.73 10.79 9.73 10.79 12.19Z" stroke="#FFFFFF" stroke-opacity="0" stroke-width="0.997500"/>
		<mask id="mask61_4921" mask-type="alpha" maskUnits="userSpaceOnUse" x="0.000000" y="0.000000" width="14.000000" height="14.000000">
			<path id="mask" d="M4.2 0L0 0L0 9.38C0.07 9.24 0.16 9.1 0.25 8.96C0.35 8.82 0.45 8.68 0.56 8.55C0.68 8.39 0.82 8.25 0.95 8.11C1.09 7.97 1.24 7.84 1.39 7.72C1.52 7.61 1.66 7.5 1.81 7.41C1.98 7.29 2.16 7.18 2.34 7.09C2.49 7.01 2.64 6.94 2.79 6.88C2.93 6.81 3.08 6.76 3.23 6.71C2.33 5.99 1.75 4.88 1.75 3.64C1.75 1.99 2.76 0.58 4.2 0ZM0 13.78L0 14L0.3 14C0.26 13.98 0.23 13.96 0.2 13.93C0.13 13.89 0.06 13.83 0 13.78ZM11.07 14C11.1 13.98 11.14 13.96 11.17 13.93C11.28 13.86 11.39 13.77 11.49 13.67C11.59 13.57 11.67 13.47 11.75 13.35C11.82 13.24 11.89 13.13 11.94 13.01C11.99 12.88 12.03 12.75 12.06 12.62C12.09 12.48 12.1 12.34 12.1 12.19C12.1 11.93 12.08 11.66 12.05 11.41C12.03 11.28 12.01 11.15 11.99 11.03C11.95 10.84 11.9 10.66 11.84 10.47C11.79 10.29 11.72 10.12 11.65 9.94C11.58 9.79 11.51 9.64 11.44 9.5C11.34 9.31 11.23 9.14 11.12 8.96C11.02 8.82 10.92 8.68 10.81 8.55C10.68 8.39 10.55 8.25 10.41 8.11C10.27 7.97 10.13 7.84 9.98 7.72C9.84 7.61 9.7 7.5 9.56 7.41C9.39 7.29 9.21 7.18 9.03 7.09C8.88 7.01 8.73 6.94 8.58 6.88C8.44 6.81 8.29 6.76 8.14 6.71C9.04 5.99 9.62 4.88 9.62 3.64C9.62 1.99 8.61 0.58 7.17 0L14 0L14 14L11.07 14Z" fill="#C4C4C4" fill-opacity="1.000000" fill-rule="evenodd"/>
		</mask>
		<g mask="url(#mask61_4921)">
			<path id="path5" d="M9.04 1.43C7.63 1.43 6.49 2.57 6.49 3.98C6.49 5.38 7.63 6.52 9.04 6.52C10.44 6.52 11.58 5.38 11.58 3.98C11.58 2.57 10.44 1.43 9.04 1.43Z" fill="#191919" fill-opacity="1.000000" fill-rule="evenodd"/>
		</g>
		<mask id="mask61_4926" mask-type="alpha" maskUnits="userSpaceOnUse" x="0.000000" y="0.000000" width="14.000000" height="14.000000">
			<path id="mask" d="M4.2 0L0 0L0 9.38C0.07 9.24 0.16 9.1 0.25 8.96C0.35 8.82 0.45 8.68 0.56 8.55C0.68 8.39 0.82 8.25 0.95 8.11C1.09 7.97 1.24 7.84 1.39 7.72C1.52 7.61 1.66 7.5 1.81 7.41C1.98 7.29 2.16 7.18 2.34 7.09C2.49 7.01 2.64 6.94 2.79 6.88C2.93 6.81 3.08 6.76 3.23 6.71C2.33 5.99 1.75 4.88 1.75 3.64C1.75 1.99 2.76 0.58 4.2 0ZM0 13.78L0 14L0.3 14C0.26 13.98 0.23 13.96 0.2 13.93C0.13 13.89 0.06 13.83 0 13.78ZM11.07 14C11.1 13.98 11.14 13.96 11.17 13.93C11.28 13.86 11.39 13.77 11.49 13.67C11.59 13.57 11.67 13.47 11.75 13.35C11.82 13.24 11.89 13.13 11.94 13.01C11.99 12.88 12.03 12.75 12.06 12.62C12.09 12.48 12.1 12.34 12.1 12.19C12.1 11.93 12.08 11.66 12.05 11.41C12.03 11.28 12.01 11.15 11.99 11.03C11.95 10.84 11.9 10.66 11.84 10.47C11.79 10.29 11.72 10.12 11.65 9.94C11.58 9.79 11.51 9.64 11.44 9.5C11.34 9.31 11.23 9.14 11.12 8.96C11.02 8.82 10.92 8.68 10.81 8.55C10.68 8.39 10.55 8.25 10.41 8.11C10.27 7.97 10.13 7.84 9.98 7.72C9.84 7.61 9.7 7.5 9.56 7.41C9.39 7.29 9.21 7.18 9.03 7.09C8.88 7.01 8.73 6.94 8.58 6.88C8.44 6.81 8.29 6.76 8.14 6.71C9.04 5.99 9.62 4.88 9.62 3.64C9.62 1.99 8.61 0.58 7.17 0L14 0L14 14L11.07 14Z" fill="#C4C4C4" fill-opacity="1.000000" fill-rule="evenodd"/>
		</mask>
		<g mask="url(#mask61_4926)">
			<path id="path6" d="M9.59 7.19C9.91 7.19 10.22 7.22 10.52 7.29C10.77 7.35 11.01 7.42 11.25 7.52C11.36 7.57 11.47 7.62 11.57 7.68C11.71 7.75 11.84 7.83 11.97 7.92C12.08 7.99 12.18 8.06 12.28 8.14C12.39 8.23 12.5 8.33 12.6 8.44C12.71 8.54 12.8 8.65 12.9 8.76C12.97 8.86 13.05 8.96 13.12 9.07C13.21 9.19 13.29 9.33 13.36 9.47C13.41 9.57 13.47 9.68 13.51 9.79C13.61 10.03 13.69 10.27 13.75 10.52C13.81 10.82 13.85 11.13 13.85 11.44C13.85 11.52 13.84 11.6 13.82 11.68C13.81 11.75 13.79 11.81 13.76 11.88C13.73 11.94 13.7 12 13.66 12.06C13.62 12.12 13.58 12.17 13.52 12.23C13.47 12.28 13.41 12.33 13.35 12.37C13.3 12.41 13.23 12.44 13.17 12.47C13.11 12.5 13.04 12.52 12.97 12.53C12.9 12.55 12.82 12.55 12.74 12.55L5.33 12.55C5.25 12.55 5.18 12.55 5.1 12.53C5.03 12.52 4.96 12.5 4.9 12.47C4.84 12.44 4.78 12.41 4.72 12.37C4.66 12.33 4.6 12.28 4.55 12.23C4.5 12.17 4.45 12.12 4.41 12.06C4.37 12 4.34 11.94 4.31 11.88C4.28 11.81 4.26 11.75 4.25 11.68C4.23 11.6 4.22 11.52 4.22 11.44C4.22 11.13 4.26 10.82 4.32 10.52C4.38 10.27 4.46 10.03 4.56 9.79C4.6 9.68 4.66 9.57 4.71 9.47C4.78 9.33 4.86 9.19 4.95 9.07C5.02 8.96 5.1 8.86 5.18 8.76C5.27 8.65 5.36 8.54 5.47 8.44C5.57 8.33 5.68 8.23 5.79 8.14C5.89 8.06 5.99 7.99 6.1 7.92C6.23 7.83 6.36 7.75 6.5 7.68C6.6 7.62 6.71 7.57 6.82 7.52C7.06 7.42 7.3 7.35 7.55 7.29C7.85 7.22 8.16 7.19 8.48 7.19L9.59 7.19Z" fill="#191919" fill-opacity="1.000000" fill-rule="evenodd"/>
		</g>
		<path id="path7" d="M5.68 6.69C7.37 6.69 8.74 5.32 8.74 3.63C8.74 1.95 7.37 0.58 5.68 0.58C4 0.58 2.63 1.95 2.63 3.63C2.63 5.32 4 6.69 5.68 6.69Z" fill="#191919" fill-opacity="1.000000" fill-rule="evenodd"/>
		<path id="path8" d="M7.03 7.35C7.13 7.36 7.22 7.37 7.32 7.39C7.48 7.43 7.64 7.47 7.79 7.51C7.94 7.56 8.09 7.62 8.24 7.68C8.37 7.73 8.49 7.79 8.61 7.86C8.77 7.94 8.92 8.03 9.07 8.13C9.19 8.21 9.31 8.3 9.42 8.39C9.55 8.5 9.68 8.61 9.79 8.73C9.91 8.85 10.03 8.97 10.13 9.1C10.22 9.21 10.31 9.33 10.39 9.45C10.49 9.6 10.58 9.75 10.67 9.91C10.73 10.03 10.79 10.16 10.84 10.28C10.9 10.43 10.96 10.58 11.01 10.73C11.05 10.89 11.09 11.04 11.13 11.2C11.15 11.3 11.16 11.4 11.18 11.5C11.21 11.72 11.23 11.95 11.23 12.19C11.23 12.27 11.22 12.36 11.2 12.45C11.18 12.52 11.16 12.59 11.13 12.66C11.1 12.73 11.06 12.8 11.02 12.86C10.98 12.93 10.93 12.99 10.87 13.05C10.81 13.11 10.75 13.16 10.68 13.21C10.61 13.25 10.55 13.28 10.48 13.31C10.41 13.34 10.33 13.37 10.26 13.38C10.18 13.4 10.09 13.41 10 13.41L1.36 13.41C1.28 13.41 1.19 13.4 1.1 13.38C1.03 13.37 0.96 13.34 0.89 13.31C0.82 13.28 0.75 13.25 0.69 13.21C0.62 13.16 0.55 13.11 0.5 13.05C0.44 12.99 0.39 12.93 0.34 12.86C0.3 12.8 0.27 12.73 0.24 12.66C0.2 12.59 0.18 12.52 0.17 12.45C0.15 12.36 0.14 12.27 0.14 12.19C0.14 11.95 0.16 11.72 0.19 11.49C0.2 11.4 0.22 11.3 0.24 11.2C0.27 11.04 0.31 10.89 0.36 10.73C0.41 10.58 0.46 10.43 0.52 10.28C0.58 10.16 0.64 10.03 0.7 9.91C0.78 9.75 0.87 9.6 0.97 9.45C1.06 9.33 1.14 9.21 1.23 9.1C1.34 8.97 1.45 8.85 1.57 8.73C1.69 8.61 1.81 8.5 1.95 8.39C2.06 8.3 2.17 8.21 2.3 8.13C2.44 8.03 2.6 7.94 2.76 7.86C2.88 7.79 3 7.73 3.13 7.68C3.27 7.62 3.42 7.56 3.58 7.51C3.73 7.47 3.89 7.43 4.05 7.39C4.14 7.37 4.24 7.36 4.34 7.35C4.57 7.31 4.8 7.3 5.03 7.3L6.33 7.3C6.57 7.3 6.8 7.31 7.03 7.35Z" fill="#191919" fill-opacity="1.000000" fill-rule="evenodd"/>
	</g>
</svg>
