<!--
  - Copyright (c) 2025 Huawei Device Co., Ltd.
  - Licensed under the Apache License, Version 2.0 (the "License");
  - you may not use this file except in compliance with the License.
  - You may obtain a copy of the License at
  -
  -     http://www.apache.org/licenses/LICENSE-2.0
  -
  - Unless required by applicable law or agreed to in writing, software
  - distributed under the License is distributed on an "AS IS" BASIS,
  - WITHOUT WARRANTIES OR CONDITIONS OF ANY KIND, either express or implied.
  - See the License for the specific language governing permissions and
  - limitations under the License.
  -->

<svg width="14.000000" height="14.000000" viewBox="0 0 14 14" fill="none" xmlns="http://www.w3.org/2000/svg" xmlns:xlink="http://www.w3.org/1999/xlink">
	<desc>
			Created with Pixso.
	</desc>
	<defs>
		<clipPath id="clip61_4898">
			<rect id="ic_public_position" width="14.000000" height="14.000000" fill="white" fill-opacity="0"/>
		</clipPath>
	</defs>
	<g clip-path="url(#clip61_4898)">
		<path id="path1" d="M0 6.99C0 5.9 -0.01 4.8 0 3.71C-0.01 3.18 0.06 2.65 0.19 2.14C0.48 1.05 1.18 0.41 2.27 0.16C2.81 0.04 3.37 -0.01 3.92 0C6.02 0 8.12 0 10.22 0C10.74 -0.01 11.27 0.05 11.79 0.18C12.9 0.45 13.58 1.16 13.83 2.27C13.95 2.79 14 3.33 13.99 3.87C13.99 5.99 13.99 8.11 13.99 10.23C14 10.75 13.94 11.28 13.81 11.79C13.54 12.91 12.83 13.57 11.72 13.83C11.17 13.95 10.62 14 10.06 13.99C7.97 13.99 5.88 13.99 3.8 13.99C3.26 14 2.73 13.94 2.21 13.81C1.09 13.54 0.42 12.83 0.16 11.71C0.03 11.14 0 10.57 0 10C0 9 0 7.99 0 6.99Z" fill="#FFFFFF" fill-opacity="0" fill-rule="evenodd"/>
		<circle id="path2" cx="7.000000" cy="7.000000" r="7.000000" fill="#FFFFFF" fill-opacity="0"/>
		<path id="path5" d="M7 13.41C7 13.41 12.18 9.44 12.18 5.68C12.18 2.81 9.86 0.58 7 0.58C4.13 0.58 1.81 2.81 1.81 5.68C1.81 9.44 7 13.41 7 13.41Z" fill="#191919" fill-opacity="1.000000" fill-rule="evenodd"/>
		<path id="path5" d="M12.18 5.68C12.18 2.81 9.86 0.58 7 0.58C4.13 0.58 1.81 2.81 1.81 5.68C1.81 9.44 7 13.41 7 13.41C7 13.41 12.18 9.44 12.18 5.68Z" fill="#000000" fill-opacity="0" fill-rule="nonzero"/>
		<path id="path5" d="M7 0.58C4.13 0.58 1.81 2.81 1.81 5.68C1.81 9.44 7 13.41 7 13.41C7 13.41 12.18 9.44 12.18 5.68C12.18 2.81 9.86 0.58 7 0.58Z" stroke="#191919" stroke-opacity="1.000000" stroke-width="0.997500" stroke-linejoin="round"/>
		<circle id="path6" cx="7.000000" cy="5.770996" r="1.638322" fill="#FFFFFF" fill-opacity="1.000000"/>
		<circle id="path6" cx="7.000000" cy="5.770996" r="1.638322" fill="#000000" fill-opacity="0"/>
		<circle id="path6" cx="7.000000" cy="5.770996" r="1.638322" stroke="#FFFFFF" stroke-opacity="1.000000" stroke-width="0.997500"/>
	</g>
</svg>
