<!--
  - Copyright (c) 2025 Huawei Device Co., Ltd.
  - Licensed under the Apache License, Version 2.0 (the "License");
  - you may not use this file except in compliance with the License.
  - You may obtain a copy of the License at
  -
  -     http://www.apache.org/licenses/LICENSE-2.0
  -
  - Unless required by applicable law or agreed to in writing, software
  - distributed under the License is distributed on an "AS IS" BASIS,
  - WITHOUT WARRANTIES OR CONDITIONS OF ANY KIND, either express or implied.
  - See the License for the specific language governing permissions and
  - limitations under the License.
  -->

<svg width="16.000000" height="16.000000" viewBox="0 0 16 16" fill="none" xmlns="http://www.w3.org/2000/svg" xmlns:xlink="http://www.w3.org/1999/xlink">
	<desc>
			Created with Pixso.
	</desc>
	<defs/>
	<g opacity="0.200000">
		<rect id="矩形 48" rx="2.000000" width="16.000000" height="16.000000" fill="#0A59F7" fill-opacity="1.000000"/>
	</g>
	<path id="path" d="M8.01 3.13C5.32 3.13 3.14 5.3 3.14 7.99C3.14 10.68 5.32 12.86 8.01 12.86C10.7 12.86 12.87 10.68 12.87 7.99C12.87 5.3 10.7 3.13 8.01 3.13ZM10.96 10.95C10.58 11.33 10.13 11.63 9.64 11.84C9.12 12.06 8.58 12.17 8.01 12.17C7.45 12.17 6.9 12.06 6.39 11.84C5.89 11.63 5.44 11.33 5.06 10.95C4.67 10.56 4.37 10.11 4.16 9.62C3.94 9.1 3.83 8.55 3.83 7.99C3.83 7.42 3.94 6.88 4.16 6.36C4.37 5.87 4.67 5.41 5.06 5.03C5.43 4.65 5.89 4.34 6.38 4.14C6.9 3.92 7.45 3.81 8.01 3.81C8.58 3.81 9.12 3.92 9.64 4.14C10.14 4.34 10.58 4.65 10.96 5.03C11.35 5.42 11.65 5.86 11.86 6.36C12.08 6.88 12.19 7.42 12.19 7.99C12.19 9.1 11.75 10.16 10.96 10.95ZM7.96 9.43C7.95 9.43 7.94 9.43 7.93 9.43C7.74 9.41 7.6 9.25 7.62 9.06C7.67 8.58 8.02 8.2 8.4 7.82C9.01 7.2 9.02 7.01 9.03 6.8C9.04 6.56 8.95 6.32 8.78 6.15C8.58 5.94 8.3 5.82 8.01 5.82L8.01 5.82C7.45 5.82 6.99 6.28 6.99 6.84C6.99 7.03 6.83 7.18 6.65 7.18C6.46 7.18 6.31 7.03 6.31 6.84C6.3 6.39 6.48 5.95 6.8 5.64C7.12 5.32 7.56 5.14 8.01 5.14C8.49 5.14 8.95 5.33 9.28 5.68C9.58 6 9.74 6.41 9.72 6.84C9.69 7.28 9.56 7.63 8.88 8.31C8.54 8.65 8.33 8.9 8.3 9.13C8.28 9.3 8.14 9.43 7.96 9.43ZM7.54 10.43C7.54 10.58 7.62 10.72 7.74 10.79C7.87 10.86 8.03 10.86 8.15 10.79C8.28 10.72 8.36 10.58 8.36 10.43C8.36 10.21 8.18 10.02 7.95 10.02C7.72 10.02 7.54 10.21 7.54 10.43Z" fill="#0A59F7" fill-opacity="1.000000" fill-rule="nonzero"/>
</svg>
