<!--
  - Copyright (c) 2025 Huawei Device Co., Ltd.
  - Licensed under the Apache License, Version 2.0 (the "License");
  - you may not use this file except in compliance with the License.
  - You may obtain a copy of the License at
  -
  -     http://www.apache.org/licenses/LICENSE-2.0
  -
  - Unless required by applicable law or agreed to in writing, software
  - distributed under the License is distributed on an "AS IS" BASIS,
  - WITHOUT WARRANTIES OR CONDITIONS OF ANY KIND, either express or implied.
  - See the License for the specific language governing permissions and
  - limitations under the License.
  -->

<svg width="48.000000" height="48.000000" viewBox="0 0 48 48" fill="none" xmlns="http://www.w3.org/2000/svg" xmlns:xlink="http://www.w3.org/1999/xlink">
	<desc>
			Created with Pixso.
	</desc>
	<defs/>
	<path id="path" d="M24 0C23.6 0 23.21 0 22.82 0.02C22.43 0.04 22.03 0.07 21.64 0.11C21.25 0.15 20.86 0.2 20.47 0.25C20.08 0.31 19.7 0.38 19.31 0.46C18.93 0.53 18.54 0.62 18.16 0.71C17.78 0.81 17.4 0.91 17.03 1.03C16.65 1.14 16.28 1.27 15.91 1.4C15.54 1.53 15.17 1.67 14.81 1.82C14.45 1.97 14.09 2.13 13.73 2.3C13.38 2.47 13.03 2.64 12.68 2.83C12.34 3.01 11.99 3.21 11.66 3.41C11.32 3.61 10.99 3.82 10.66 4.04C10.33 4.26 10.01 4.48 9.7 4.72C9.38 4.95 9.07 5.19 8.77 5.44C8.47 5.69 8.17 5.95 7.88 6.21C7.59 6.48 7.3 6.75 7.02 7.02C6.75 7.3 6.48 7.59 6.21 7.88C5.95 8.17 5.69 8.47 5.44 8.77C5.19 9.07 4.95 9.38 4.72 9.7C4.48 10.01 4.26 10.33 4.04 10.66C3.82 10.99 3.61 11.32 3.41 11.66C3.21 11.99 3.01 12.33 2.83 12.68C2.64 13.03 2.47 13.38 2.3 13.73C2.13 14.09 1.97 14.45 1.82 14.81C1.67 15.17 1.53 15.54 1.4 15.91C1.27 16.28 1.14 16.65 1.03 17.03C0.91 17.4 0.81 17.78 0.71 18.16C0.62 18.54 0.53 18.93 0.46 19.31C0.38 19.7 0.31 20.08 0.25 20.47C0.2 20.86 0.15 21.25 0.11 21.64C0.07 22.03 0.04 22.43 0.02 22.82C0 23.21 0 23.6 0 24C0 24.39 0 24.78 0.02 25.17C0.04 25.56 0.07 25.96 0.11 26.35C0.15 26.74 0.2 27.13 0.25 27.52C0.31 27.91 0.38 28.29 0.46 28.68C0.53 29.06 0.62 29.45 0.71 29.83C0.81 30.21 0.91 30.59 1.03 30.96C1.14 31.34 1.27 31.71 1.4 32.08C1.53 32.45 1.67 32.82 1.82 33.18C1.97 33.54 2.13 33.9 2.3 34.26C2.47 34.61 2.64 34.96 2.83 35.31C3.01 35.66 3.21 36 3.41 36.33C3.61 36.67 3.82 37 4.04 37.33C4.26 37.66 4.48 37.98 4.72 38.29C4.95 38.61 5.19 38.92 5.44 39.22C5.69 39.52 5.95 39.82 6.21 40.11C6.48 40.4 6.75 40.69 7.02 40.97C7.3 41.24 7.59 41.51 7.88 41.78C8.17 42.04 8.47 42.3 8.77 42.55C9.07 42.8 9.38 43.04 9.7 43.27C10.01 43.51 10.33 43.73 10.66 43.95C10.99 44.17 11.32 44.38 11.66 44.58C11.99 44.78 12.34 44.98 12.68 45.16C13.03 45.35 13.38 45.52 13.73 45.69C14.09 45.86 14.45 46.02 14.81 46.17C15.17 46.32 15.54 46.46 15.91 46.59C16.28 46.72 16.65 46.85 17.03 46.96C17.4 47.08 17.78 47.18 18.16 47.28C18.54 47.37 18.93 47.46 19.31 47.53C19.7 47.61 20.08 47.68 20.47 47.74C20.86 47.79 21.25 47.84 21.64 47.88C22.03 47.92 22.43 47.95 22.82 47.97C23.21 47.99 23.6 48 24 48C24.39 48 24.78 47.99 25.17 47.97C25.56 47.95 25.96 47.92 26.35 47.88C26.74 47.84 27.13 47.79 27.52 47.74C27.91 47.68 28.29 47.61 28.68 47.53C29.06 47.46 29.45 47.37 29.83 47.28C30.21 47.18 30.59 47.08 30.96 46.96C31.34 46.85 31.71 46.72 32.08 46.59C32.45 46.46 32.82 46.32 33.18 46.17C33.54 46.02 33.9 45.86 34.26 45.69C34.61 45.52 34.96 45.35 35.31 45.16C35.65 44.98 36 44.78 36.33 44.58C36.67 44.38 37 44.17 37.33 43.95C37.66 43.73 37.98 43.51 38.29 43.27C38.61 43.04 38.92 42.8 39.22 42.55C39.52 42.3 39.82 42.04 40.11 41.78C40.4 41.51 40.69 41.24 40.97 40.97C41.24 40.69 41.51 40.4 41.78 40.11C42.04 39.82 42.3 39.52 42.55 39.22C42.8 38.92 43.04 38.61 43.27 38.29C43.51 37.98 43.73 37.66 43.95 37.33C44.17 37 44.38 36.67 44.58 36.33C44.78 36 44.98 35.66 45.16 35.31C45.35 34.96 45.52 34.61 45.69 34.26C45.86 33.9 46.02 33.54 46.17 33.18C46.32 32.82 46.46 32.45 46.59 32.08C46.72 31.71 46.85 31.34 46.96 30.96C47.08 30.59 47.18 30.21 47.28 29.83C47.37 29.45 47.46 29.06 47.53 28.68C47.61 28.29 47.68 27.91 47.74 27.52C47.79 27.13 47.84 26.74 47.88 26.35C47.92 25.96 47.95 25.56 47.97 25.17C47.99 24.78 48 24.39 48 24C48 23.6 47.99 23.21 47.97 22.82C47.95 22.43 47.92 22.03 47.88 21.64C47.84 21.25 47.79 20.86 47.74 20.47C47.68 20.08 47.61 19.7 47.53 19.31C47.46 18.93 47.37 18.54 47.28 18.16C47.18 17.78 47.08 17.4 46.96 17.03C46.85 16.65 46.72 16.28 46.59 15.91C46.46 15.54 46.32 15.17 46.17 14.81C46.02 14.45 45.86 14.09 45.69 13.73C45.52 13.38 45.35 13.03 45.16 12.68C44.98 12.33 44.78 11.99 44.58 11.66C44.38 11.32 44.17 10.99 43.95 10.66C43.73 10.33 43.51 10.01 43.27 9.7C43.04 9.38 42.8 9.07 42.55 8.77C42.3 8.47 42.04 8.17 41.78 7.88C41.51 7.59 41.24 7.3 40.97 7.02C40.69 6.75 40.4 6.48 40.11 6.21C39.82 5.95 39.52 5.69 39.22 5.44C38.92 5.19 38.61 4.95 38.29 4.72C37.98 4.48 37.66 4.26 37.33 4.04C37 3.82 36.67 3.61 36.33 3.41C36 3.21 35.65 3.01 35.31 2.83C34.96 2.64 34.61 2.47 34.26 2.3C33.9 2.13 33.54 1.97 33.18 1.82C32.82 1.67 32.45 1.53 32.08 1.4C31.71 1.27 31.34 1.14 30.96 1.03C30.59 0.91 30.21 0.81 29.83 0.71C29.45 0.62 29.06 0.53 28.68 0.46C28.29 0.38 27.91 0.31 27.52 0.25C27.13 0.2 26.74 0.15 26.35 0.11C25.96 0.07 25.56 0.04 25.17 0.02C24.78 0 24.39 0 24 0ZM35.4 33.96L33.96 35.4C33.87 35.5 33.77 35.58 33.66 35.65C33.55 35.73 33.43 35.79 33.31 35.84C33.18 35.89 33.06 35.93 32.93 35.96C32.8 35.98 32.66 35.99 32.53 35.99C32.4 35.99 32.27 35.98 32.14 35.96C32.01 35.93 31.88 35.89 31.76 35.84C31.64 35.79 31.52 35.73 31.41 35.65C31.3 35.58 31.2 35.5 31.1 35.4L24.72 29.02C24.65 28.95 24.57 28.89 24.49 28.84C24.4 28.8 24.31 28.76 24.21 28.74C24.11 28.72 24.01 28.72 23.91 28.73C23.81 28.74 23.72 28.77 23.63 28.8C23.39 28.9 23.15 28.99 22.91 29.07C22.67 29.15 22.42 29.22 22.17 29.28C21.93 29.34 21.68 29.39 21.43 29.43C21.17 29.47 20.92 29.5 20.67 29.52C20.41 29.54 20.16 29.55 19.9 29.55C19.65 29.55 19.39 29.54 19.14 29.52C18.88 29.5 18.63 29.47 18.38 29.43C18.13 29.39 17.88 29.34 17.63 29.28C17.38 29.22 17.14 29.15 16.89 29.07C16.65 28.99 16.41 28.9 16.18 28.8C15.94 28.7 15.71 28.6 15.49 28.48C15.26 28.36 15.04 28.24 14.82 28.1C14.6 27.97 14.39 27.82 14.19 27.67C13.98 27.52 13.78 27.36 13.59 27.19C13.4 27.03 13.21 26.85 13.03 26.67C12.86 26.49 12.68 26.3 12.52 26.1C12.36 25.91 12.2 25.71 12.05 25.5C11.91 25.29 11.77 25.08 11.64 24.86C11.51 24.64 11.38 24.41 11.27 24.19C11.16 23.96 11.05 23.72 10.96 23.49C10.87 23.25 10.78 23.01 10.71 22.77C10.63 22.52 10.56 22.28 10.51 22.03C10.45 21.78 10.41 21.53 10.37 21.27C10.34 21.02 10.31 20.77 10.3 20.51C10.28 20.26 10.27 20 10.28 19.75C10.28 19.49 10.3 19.24 10.32 18.99C10.35 18.73 10.38 18.48 10.43 18.23C10.47 17.98 10.53 17.73 10.59 17.48C10.66 17.24 10.73 16.99 10.82 16.75C10.9 16.51 10.99 16.27 11.1 16.04C11.2 15.81 11.31 15.58 11.43 15.35C11.56 15.13 11.68 14.91 11.82 14.7L17.25 20.12C17.31 20.18 17.37 20.22 17.45 20.24C17.52 20.26 17.6 20.27 17.68 20.26L19.56 19.99C19.62 19.98 19.67 19.97 19.72 19.94C19.77 19.92 19.81 19.89 19.85 19.85C19.89 19.81 19.92 19.77 19.94 19.72C19.97 19.67 19.98 19.62 19.99 19.56L20.26 17.68C20.27 17.6 20.26 17.52 20.24 17.45C20.22 17.37 20.18 17.31 20.12 17.25L14.7 11.82C14.91 11.69 15.13 11.56 15.35 11.44C15.58 11.32 15.81 11.2 16.04 11.1C16.27 11 16.51 10.91 16.75 10.82C16.99 10.74 17.23 10.67 17.48 10.6C17.73 10.54 17.98 10.48 18.23 10.44C18.48 10.39 18.73 10.36 18.98 10.34C19.24 10.31 19.49 10.3 19.75 10.29C20 10.29 20.26 10.29 20.51 10.31C20.76 10.33 21.02 10.35 21.27 10.39C21.52 10.42 21.77 10.47 22.02 10.53C22.27 10.58 22.51 10.65 22.76 10.72C23 10.8 23.24 10.88 23.48 10.98C23.71 11.07 23.95 11.17 24.18 11.29C24.4 11.4 24.63 11.52 24.85 11.65C25.06 11.78 25.28 11.92 25.49 12.07C25.69 12.22 25.89 12.37 26.09 12.54C26.29 12.7 26.47 12.87 26.66 13.05C26.84 13.23 27.01 13.41 27.18 13.6C27.35 13.8 27.51 14 27.66 14.2C27.81 14.41 27.95 14.62 28.09 14.83C28.22 15.05 28.35 15.27 28.46 15.5C28.58 15.72 28.69 15.95 28.79 16.19C28.89 16.42 28.98 16.66 29.06 16.9C29.14 17.14 29.21 17.39 29.27 17.64C29.33 17.88 29.38 18.13 29.42 18.38C29.46 18.64 29.49 18.89 29.51 19.14C29.53 19.4 29.54 19.65 29.54 19.91C29.54 20.16 29.53 20.41 29.51 20.67C29.49 20.92 29.46 21.18 29.43 21.43C29.39 21.68 29.34 21.93 29.28 22.18C29.22 22.42 29.15 22.67 29.07 22.91C28.99 23.15 28.9 23.39 28.8 23.63C28.77 23.72 28.74 23.81 28.73 23.91C28.72 24.01 28.72 24.11 28.74 24.21C28.76 24.31 28.8 24.4 28.84 24.49C28.89 24.57 28.95 24.65 29.02 24.72L35.4 31.1C35.5 31.19 35.58 31.3 35.65 31.41C35.73 31.52 35.79 31.64 35.84 31.76C35.89 31.88 35.93 32.01 35.96 32.14C35.98 32.27 35.99 32.4 35.99 32.53C35.99 32.66 35.98 32.8 35.96 32.93C35.93 33.06 35.89 33.18 35.84 33.31C35.79 33.43 35.73 33.55 35.65 33.66C35.58 33.77 35.5 33.87 35.4 33.96Z" fill="#FFAA2D" fill-opacity="1.000000" fill-rule="nonzero"/>
</svg>
