<!--
  - Copyright (c) 2025 Huawei Device Co., Ltd.
  - Licensed under the Apache License, Version 2.0 (the "License");
  - you may not use this file except in compliance with the License.
  - You may obtain a copy of the License at
  -
  -     http://www.apache.org/licenses/LICENSE-2.0
  -
  - Unless required by applicable law or agreed to in writing, software
  - distributed under the License is distributed on an "AS IS" BASIS,
  - WITHOUT WARRANTIES OR CONDITIONS OF ANY KIND, either express or implied.
  - See the License for the specific language governing permissions and
  - limitations under the License.
  -->

<svg width="16.000000" height="16.000000" viewBox="0 0 16 16" fill="none" xmlns="http://www.w3.org/2000/svg" xmlns:xlink="http://www.w3.org/1999/xlink">
	<desc>
			Created with Pixso.
	</desc>
	<defs>
		<clipPath id="clip61_4895">
			<rect id="magnifyingglass" width="16.000000" height="16.000000" fill="white" fill-opacity="0"/>
		</clipPath>
	</defs>
	<g clip-path="url(#clip61_4895)">
		<g opacity="0.000000"/>
		<path id="path" d="M11.45 10.71C11.86 10.21 12.18 9.65 12.4 9.03C12.63 8.42 12.75 7.78 12.75 7.11C12.75 6.09 12.49 5.15 11.98 4.27C11.47 3.4 10.78 2.71 9.91 2.21C9.04 1.7 8.09 1.45 7.07 1.45C6.04 1.45 5.1 1.7 4.23 2.21C3.36 2.71 2.67 3.4 2.16 4.27C1.66 5.15 1.4 6.09 1.4 7.11C1.4 8.14 1.66 9.08 2.16 9.95C2.67 10.83 3.36 11.52 4.23 12.02C5.1 12.53 6.04 12.78 7.07 12.78C7.76 12.78 8.42 12.66 9.04 12.43C9.67 12.19 10.24 11.86 10.75 11.43L13.72 14.39C13.82 14.49 13.94 14.54 14.08 14.54C14.21 14.54 14.33 14.49 14.43 14.39C14.52 14.3 14.57 14.18 14.57 14.04C14.57 13.9 14.52 13.79 14.43 13.69L11.45 10.71ZM2.41 7.11C2.41 6.27 2.62 5.49 3.04 4.78C3.46 4.07 4.03 3.5 4.74 3.07C5.45 2.65 6.22 2.44 7.07 2.44C7.91 2.44 8.69 2.65 9.4 3.07C10.12 3.5 10.69 4.07 11.11 4.78C11.53 5.49 11.74 6.27 11.74 7.11C11.74 7.96 11.53 8.74 11.11 9.45C10.69 10.16 10.12 10.73 9.4 11.15C8.69 11.58 7.91 11.79 7.07 11.79C6.22 11.79 5.45 11.58 4.74 11.15C4.03 10.73 3.46 10.16 3.04 9.45C2.62 8.74 2.41 7.96 2.41 7.11Z" fill="#000000" fill-opacity="0.898039" fill-rule="nonzero"/>
	</g>
</svg>
