<svg width="12.000000" height="24.000000" viewBox="0 0 12 24" fill="none" xmlns="http://www.w3.org/2000/svg" xmlns:xlink="http://www.w3.org/1999/xlink">
    <desc>
        Created with Pixso.
    </desc>
    <defs/>
    <path d="M3.35 18.11Q3.07 18.11 2.78 17.88Q2.67 17.77 2.62 17.65Q2.56 17.51 2.56 17.35Q2.56 17.18 2.63 17.03Q2.68 16.91 2.78 16.82L7.82 11.75L2.8 6.67L2.75 6.62Q2.66 6.49 2.62 6.34Q2.59 6.22 2.6 6.09Q2.6 5.91 2.68 5.76Q2.73 5.68 2.8 5.61Q2.9 5.51 3.02 5.46Q3.16 5.4 3.33 5.4Q3.52 5.4 3.67 5.47Q3.77 5.52 3.86 5.61L9.14 10.99Q9.24 11.08 9.3 11.18Q9.45 11.42 9.45 11.75Q9.45 12.02 9.35 12.23Q9.31 12.34 9.24 12.43L9.14 12.52L3.86 17.88Q3.73 18.02 3.57 18.08Q3.47 18.11 3.35 18.11Z" fill="#000000" fill-opacity="0.400000" fill-rule="evenodd"/>
</svg>
