<svg width="12.000000" height="12.000000" viewBox="0 0 12 12" fill="none" xmlns="http://www.w3.org/2000/svg" xmlns:xlink="http://www.w3.org/1999/xlink">
	<desc>
			Created with Pixso.
	</desc>
	<defs>
		<clipPath id="clip288_2024">
			<rect width="12.000000" height="12.000000" fill="white" fill-opacity="0"/>
		</clipPath>
	</defs>
	<g clip-path="url(#clip288_2024)">
		<path d="M5.65 4.08L5.65 4.11C5.45 4.3 5.14 4.3 4.94 4.11C4.74 3.91 4.74 3.6 4.94 3.4L4.97 3.4L5.65 4.08ZM8.6 7.01L8.6 7.04C8.4 7.24 8.09 7.24 7.89 7.04C7.69 6.84 7.69 6.53 7.89 6.34L7.92 6.34L8.6 7.01ZM6.34 7.92L6.34 7.89C6.53 7.69 6.84 7.69 7.04 7.89C7.24 8.09 7.24 8.4 7.04 8.6L7.01 8.6L6.34 7.92ZM3.4 4.97L3.4 4.94C3.6 4.74 3.91 4.74 4.11 4.94C4.31 5.14 4.31 5.45 4.11 5.65L4.08 5.65L3.4 4.97Z" fill="#000000" fill-opacity="0" fill-rule="nonzero"/>
		<path d="M5.3 3.75C5.68 3.37 5.82 3.23 6.55 2.5C7.38 1.67 8.71 1.65 9.52 2.47C10.34 3.28 10.32 4.61 9.49 5.44C8.76 6.18 8.62 6.31 8.24 6.69M6.69 8.24C6.32 8.61 6.18 8.75 5.44 9.49C4.61 10.32 3.28 10.34 2.47 9.52C1.65 8.71 1.67 7.38 2.5 6.55C3.23 5.82 3.37 5.67 3.76 5.29" stroke="#191919" stroke-opacity="1.000000" stroke-width="1.000000" stroke-linejoin="round" stroke-linecap="round"/>
		<line x1="4.442200" y1="7.524170" x2="7.524414" y2="4.441895" stroke="#191919" stroke-opacity="1.000000" stroke-width="1.000000"/>
	</g>
</svg>
