<svg width="24.000000" height="24.000000" viewBox="0 0 24 24" fill="none" xmlns="http://www.w3.org/2000/svg" xmlns:xlink="http://www.w3.org/1999/xlink">
	<desc>
			Created with Pixso.
	</desc>
	<defs>
		<clipPath id="clip68_4296">
			<rect width="24.000000" height="24.000000" fill="white" fill-opacity="0"/>
		</clipPath>
	</defs>
	<g clip-path="url(#clip68_4296)">
		<g opacity="0.000000">
			<rect width="24.000000" height="24.000000" fill="#000000" fill-opacity="1.000000"/>
		</g>
		<path d="M12.01 22.01C13.81 22.01 15.48 21.56 17.02 20.67C18.55 19.77 19.77 18.55 20.67 17.02C21.56 15.48 22.01 13.81 22.01 12.01C22.01 10.2 21.56 8.53 20.67 6.99C19.77 5.46 18.55 4.24 17.02 3.34C15.48 2.45 13.81 2.01 12.01 2.01C10.2 2.01 8.53 2.45 6.99 3.34C5.46 4.24 4.24 5.46 3.34 6.99C2.45 8.53 2.01 10.2 2.01 12.01C2.01 13.81 2.45 15.48 3.34 17.01C4.24 18.54 5.46 19.75 6.99 20.65C8.53 21.55 10.2 22.01 12.01 22.01ZM12.01 3.36C13.56 3.36 15 3.75 16.33 4.53C17.66 5.3 18.71 6.35 19.48 7.68C20.26 9.01 20.65 10.45 20.65 12.01C20.65 13.56 20.26 15.01 19.48 16.33C18.71 17.66 17.66 18.71 16.33 19.48C15 20.26 13.56 20.65 12.01 20.65C10.45 20.65 9.01 20.26 7.68 19.48C6.35 18.71 5.3 17.66 4.53 16.33C3.75 15.01 3.36 13.56 3.36 12.01C3.36 10.45 3.75 9.01 4.53 7.68C5.3 6.35 6.35 5.3 7.68 4.53C9.01 3.75 10.45 3.36 12.01 3.36ZM12.01 14.69C12.19 14.69 12.36 14.63 12.5 14.5C12.64 14.36 12.71 14.2 12.71 14.02L12.71 13.47C12.71 13.28 12.76 13.11 12.87 12.95C12.98 12.8 13.13 12.68 13.33 12.6C13.9 12.34 14.36 11.94 14.69 11.4C15.02 10.87 15.19 10.29 15.19 9.67C15.19 9.42 15.18 9.23 15.15 9.1C15.05 8.46 14.75 7.9 14.26 7.42C13.78 6.94 13.21 6.64 12.57 6.53C12.34 6.5 12.16 6.48 12.02 6.48C11.21 6.48 10.51 6.73 9.93 7.22C9.57 7.53 9.29 7.9 9.09 8.33C8.89 8.75 8.79 9.2 8.79 9.67C8.79 9.85 8.86 10.02 9 10.16C9.14 10.3 9.31 10.37 9.49 10.37C9.68 10.37 9.84 10.3 9.98 10.16C10.1 10.02 10.17 9.85 10.17 9.67C10.17 9.41 10.23 9.15 10.35 8.9C10.46 8.65 10.62 8.44 10.82 8.27C11.14 8 11.54 7.86 12.01 7.86C12.15 7.86 12.26 7.86 12.33 7.87C12.71 7.95 13.03 8.12 13.31 8.39C13.57 8.66 13.74 8.98 13.8 9.34C13.81 9.41 13.82 9.53 13.82 9.69C13.82 10.06 13.72 10.39 13.54 10.68C13.36 10.97 13.1 11.19 12.77 11.35C12.32 11.54 11.97 11.82 11.71 12.21C11.46 12.58 11.33 13 11.33 13.47L11.33 14.02C11.33 14.2 11.4 14.36 11.52 14.5C11.66 14.63 11.82 14.69 12.01 14.69ZM11.09 16.53C11.09 16.79 11.18 17.01 11.36 17.18C11.54 17.36 11.76 17.45 12.01 17.45C12.25 17.45 12.47 17.36 12.65 17.18C12.83 17.01 12.92 16.79 12.92 16.53C12.92 16.28 12.83 16.07 12.65 15.89C12.47 15.71 12.25 15.63 12.01 15.63C11.76 15.63 11.54 15.71 11.36 15.89C11.18 16.07 11.09 16.28 11.09 16.53Z" fill="#000000" fill-opacity="0.600000" fill-rule="nonzero"/>
	</g>
</svg>
