<svg width="60.000000" height="60.000000" viewBox="0 0 60 60" fill="none" xmlns="http://www.w3.org/2000/svg" xmlns:xlink="http://www.w3.org/1999/xlink">
	<desc>
			Created with Pixso.
	</desc>
	<defs/>
	<circle cx="30.000000" cy="30.000000" r="30.000000" fill="#50ABFF" fill-opacity="1.000000"/>
	<path d="M33.15 16.84C33.15 15.27 31.83 14 30.21 14C28.59 14 27.27 15.27 27.27 16.84C27.27 17 27.29 17.16 27.31 17.31C23.26 18.68 19.93 22.89 19.93 27.86L19.93 31.78C19.93 31.78 19.93 37.42 18.5 37.47C17.65 37.47 17 38.1 17 38.89C17 39.68 17.65 40.31 18.46 40.31L41.96 40.31C42.77 40.31 43.42 39.67 43.42 38.89C43.42 38.09 42.77 37.47 41.96 37.47C40.49 37.47 40.49 31.82 40.49 31.82L40.49 27.86C40.49 22.88 37.38 18.67 33.11 17.31C33.13 17.16 33.15 17 33.15 16.84ZM34.61 41.73C34.61 44.09 32.66 46 30.21 46C27.78 46 25.81 44.09 25.81 41.73L34.61 41.73Z" fill="#FFFFFF" fill-opacity="1.000000" fill-rule="nonzero"/>
</svg>
