<svg width="24.000000" height="24.087769" viewBox="0 0 24 24.0878" fill="none" xmlns="http://www.w3.org/2000/svg" xmlns:xlink="http://www.w3.org/1999/xlink">
	<desc>
			Created with Pixso.
	</desc>
	<defs/>
	<path d="M20.33 9.21L18.49 9.22L18.48 5.94C18.46 2.39 15.53 0.02 11.95 0.04C8.36 0.05 5.45 2.48 5.47 6.03L5.48 9.28L3.64 9.29C2.75 9.29 2.04 10.01 2.04 10.88L2.09 22.49C2.1 23.37 2.82 24.08 3.71 24.08L20.4 24C21.29 24 22 23.28 22 22.4L21.94 10.8C21.94 9.92 21.22 9.21 20.33 9.21ZM12.92 16.94L12.93 19.48C12.94 19.59 12.84 19.69 12.72 19.69L11.34 19.69C11.23 19.69 11.13 19.6 11.13 19.49L11.12 16.95C10.47 16.62 10.02 15.97 10.01 15.2C10.01 14.11 10.9 13.21 12 13.21C13.11 13.2 14.01 14.09 14.01 15.18C14.02 15.95 13.57 16.61 12.92 16.94ZM16 9.27L7.98 9.31L7.97 5.77C7.96 3.9 9.75 2.37 11.96 2.36C14.17 2.35 15.97 3.86 15.98 5.73L16 9.27Z" fill="#777777" fill-opacity="1.000000" fill-rule="nonzero"/>
</svg>
