<svg width="24.000000" height="24.000000" viewBox="0 0 24 24" fill="none" xmlns="http://www.w3.org/2000/svg" xmlns:xlink="http://www.w3.org/1999/xlink">
	<desc>
			Created with Pixso.
	</desc>
	<defs/>
	<path d="M20.95 3.75C20.93 3.37 20.63 3.05 20.24 3.03C20.22 3.03 16.55 2.93 14.89 2.32C13.25 1.73 11.85 0.35 11.54 0.03C11.54 0.03 11.54 0.02 11.53 0.02C11.52 0.01 11.5 0 11.47 0C11.45 0 11.43 0.01 11.41 0.02L11.4 0.03C11.09 0.35 9.7 1.73 8.05 2.32C6.4 2.93 2.72 3.03 2.7 3.03C2.32 3.06 2.01 3.37 2 3.75L2 14.53C2 19.91 9.33 23.19 11.09 23.9C11.17 23.94 11.25 23.97 11.33 23.98C11.37 23.99 11.42 24 11.47 24C11.52 24 11.57 23.99 11.62 23.98C11.69 23.97 11.76 23.94 11.82 23.91C13.53 23.23 20.95 19.94 20.95 14.53C20.95 11.84 20.95 3.76 20.95 3.75ZM9.11 6.41C9.31 6.87 9.61 7.37 10.03 7.92L9 8.53C8.78 7.89 8.49 7.36 8.15 6.96L9.11 6.41ZM8.17 16.88C8.21 16.31 8.23 15.67 8.23 14.96L8.23 12.26C7.8 12.75 7.33 13.25 6.82 13.76C6.69 13.33 6.49 12.97 6.22 12.66C6.54 12.54 6.97 12.2 7.51 11.66C8.05 11.11 8.6 10.44 9.15 9.65L7.71 9.65C7.29 9.65 6.87 9.7 6.47 9.79L6.47 8.66C6.98 8.74 7.69 8.77 8.6 8.77C9.51 8.77 10.21 8.74 10.69 8.67C10.26 9.52 9.76 10.33 9.17 11.12L9.17 14.96C9.17 15.67 9.19 16.32 9.23 16.89L8.17 16.88ZM9.33 11.91L10.11 11.43C10.3 11.86 10.64 12.37 11.14 12.96L10.19 13.56C9.95 12.96 9.66 12.41 9.33 11.91ZM16.76 16.23C16.09 16.15 15.01 16.11 13.5 16.11C11.99 16.11 10.91 16.15 10.25 16.23L10.25 15.1C10.81 15.16 11.76 15.2 13.1 15.21L13.1 10.47C12.09 10.49 11.38 10.53 10.99 10.59L10.99 9.48C11.38 9.54 12.09 9.58 13.1 9.59C13.1 7.71 13.06 6.6 12.99 6.27C13.12 6.3 13.52 6.32 14.18 6.32C14.3 6.32 14.35 6.34 14.35 6.38C14.35 6.42 14.32 6.47 14.26 6.51C14.2 6.55 14.16 6.61 14.12 6.69C14.09 6.76 14.08 6.84 14.08 6.9L14.08 9.59C15.17 9.58 15.92 9.54 16.32 9.48L16.32 10.59C15.92 10.52 15.17 10.49 14.08 10.47L14.08 15.21C15.38 15.2 16.27 15.16 16.77 15.1L16.76 16.23Z" fill="#FFFFFF" fill-opacity="1.000000" fill-rule="nonzero"/>
</svg>
