<svg width="32.000000" height="32.000000" viewBox="0 0 32 32" fill="none" xmlns="http://www.w3.org/2000/svg" xmlns:xlink="http://www.w3.org/1999/xlink">
	<desc>
			Created with Pixso.
	</desc>
	<defs/>
	<path d="M19.15 2.84C19.15 1.27 17.83 0 16.21 0C14.59 0 13.27 1.27 13.27 2.84C13.27 3 13.29 3.16 13.31 3.31C9.26 4.68 5.93 8.89 5.93 13.86L5.93 17.78C5.93 17.78 5.93 23.42 4.5 23.47C3.65 23.47 3 24.1 3 24.89C3 25.68 3.65 26.31 4.46 26.31L27.96 26.31C28.77 26.31 29.42 25.67 29.42 24.89C29.42 24.1 28.77 23.47 27.96 23.47C26.49 23.47 26.49 17.82 26.49 17.82L26.49 13.86C26.49 8.88 23.38 4.67 19.11 3.31C19.13 3.16 19.15 3 19.15 2.84ZM20.61 27.73C20.61 30.09 18.66 32 16.21 32C13.78 32 11.81 30.09 11.81 27.73L20.61 27.73Z" fill="#777777" fill-opacity="1.000000" fill-rule="nonzero"/>
</svg>
