<svg width="24.000000" height="24.000000" viewBox="0 0 24 24" fill="none" xmlns="http://www.w3.org/2000/svg" xmlns:xlink="http://www.w3.org/1999/xlink">
	<desc>
			Created with Pixso.
	</desc>
	<defs/>
	<path d="M12 24C5.37 24 0 18.62 0 12C0 5.37 5.37 0 12 0C18.62 0 24 5.37 24 12C24 18.62 18.62 24 12 24ZM10.52 11.2L10.52 17.1C10.52 17.19 10.53 17.28 10.54 17.37C10.56 17.45 10.59 17.54 10.62 17.62C10.66 17.7 10.7 17.78 10.75 17.86C10.8 17.93 10.85 18 10.91 18.06C10.98 18.12 11.05 18.18 11.12 18.23C11.19 18.28 11.27 18.32 11.35 18.35C11.44 18.39 11.52 18.41 11.61 18.43C11.69 18.45 11.78 18.46 11.87 18.46C11.96 18.46 12.05 18.45 12.14 18.43C12.22 18.41 12.31 18.39 12.39 18.35C12.47 18.32 12.55 18.28 12.62 18.23C12.7 18.18 12.77 18.12 12.83 18.06C12.89 18 12.95 17.93 13 17.86C13.05 17.78 13.09 17.7 13.12 17.62C13.16 17.54 13.18 17.45 13.2 17.37C13.22 17.28 13.23 17.19 13.23 17.1L13.23 11.2C13.23 11.11 13.22 11.02 13.2 10.93C13.18 10.84 13.16 10.76 13.12 10.68C13.09 10.59 13.05 10.52 13 10.44C12.95 10.37 12.89 10.3 12.83 10.24C12.77 10.18 12.7 10.12 12.62 10.07C12.55 10.02 12.47 9.98 12.39 9.94C12.31 9.91 12.22 9.88 12.14 9.87C12.05 9.85 11.96 9.84 11.87 9.84C11.78 9.84 11.69 9.85 11.61 9.87C11.52 9.88 11.44 9.91 11.35 9.94C11.27 9.98 11.19 10.02 11.12 10.07C11.05 10.12 10.98 10.18 10.91 10.24C10.85 10.3 10.8 10.37 10.75 10.44C10.7 10.52 10.66 10.59 10.62 10.68C10.59 10.76 10.56 10.84 10.54 10.93C10.53 11.02 10.52 11.11 10.52 11.2ZM11.86 5.53C11.49 5.53 11.18 5.65 10.92 5.91C10.65 6.16 10.52 6.48 10.52 6.88C10.52 7.26 10.65 7.58 10.92 7.84C11.18 8.11 11.49 8.24 11.86 8.24C12.04 8.24 12.22 8.21 12.39 8.14C12.56 8.08 12.71 7.98 12.84 7.86C13.1 7.6 13.23 7.28 13.23 6.88C13.23 6.48 13.1 6.16 12.84 5.91C12.58 5.65 12.25 5.53 11.86 5.53Z" fill="#777777" fill-opacity="1.000000" fill-rule="nonzero"/>
</svg>
