<svg width="60.000000" height="60.000000" viewBox="0 0 60 60" fill="none" xmlns="http://www.w3.org/2000/svg" xmlns:xlink="http://www.w3.org/1999/xlink">
	<desc>
			Created with Pixso.
	</desc>
	<defs/>
	<path d="M29.72 19.45C29.9 19.45 30.07 19.47 30.24 19.5C30.41 19.53 30.57 19.58 30.73 19.65C30.89 19.72 31.04 19.8 31.19 19.89C31.33 19.99 31.46 20.1 31.59 20.22C31.71 20.34 31.82 20.48 31.91 20.62C32.01 20.77 32.09 20.92 32.16 21.08C32.22 21.24 32.27 21.4 32.31 21.57C32.34 21.74 32.36 21.91 32.36 22.09C32.36 22.26 32.34 22.43 32.31 22.6C32.27 22.77 32.22 22.93 32.16 23.09C32.09 23.25 32.01 23.41 31.91 23.55C31.82 23.69 31.71 23.83 31.59 23.95C31.46 24.07 31.33 24.18 31.19 24.28C31.04 24.37 30.89 24.46 30.73 24.52C30.57 24.59 30.41 24.64 30.24 24.67C30.07 24.71 29.9 24.72 29.72 24.72C29.55 24.72 29.38 24.71 29.21 24.67C29.04 24.64 28.87 24.59 28.71 24.52C28.55 24.46 28.4 24.37 28.26 24.28C28.11 24.18 27.98 24.07 27.86 23.95C27.74 23.83 27.63 23.69 27.53 23.55C27.43 23.41 27.35 23.25 27.29 23.09C27.22 22.93 27.17 22.77 27.14 22.6C27.1 22.43 27.09 22.26 27.09 22.09C27.09 21.91 27.1 21.74 27.14 21.57C27.17 21.4 27.22 21.24 27.29 21.08C27.35 20.92 27.43 20.77 27.53 20.62C27.63 20.48 27.74 20.34 27.86 20.22C27.98 20.1 28.11 19.99 28.26 19.89C28.4 19.8 28.55 19.72 28.71 19.65C28.87 19.58 29.04 19.53 29.21 19.5C29.38 19.47 29.55 19.45 29.72 19.45ZM53.45 27.36C53.45 41.99 43.33 55.67 29.72 59C16.12 55.67 6 41.99 6 27.36L6 11.54L29.72 1L53.45 11.54L53.45 27.36ZM29.72 14.18C29.49 14.18 29.26 14.19 29.03 14.21C28.8 14.23 28.57 14.26 28.34 14.3C28.11 14.34 27.89 14.39 27.67 14.45C27.44 14.51 27.22 14.57 27.01 14.65C26.79 14.73 26.57 14.82 26.36 14.92C26.16 15.02 25.95 15.12 25.75 15.24C25.55 15.36 25.36 15.48 25.17 15.61C24.98 15.75 24.79 15.89 24.62 16.04C24.44 16.18 24.27 16.34 24.11 16.5C23.94 16.67 23.79 16.84 23.64 17.02C23.49 17.19 23.35 17.38 23.22 17.57C23.09 17.76 22.96 17.95 22.85 18.15C22.73 18.35 22.63 18.56 22.53 18.77C22.43 18.98 22.35 19.19 22.27 19.41C22.19 19.63 22.12 19.85 22.06 20.07C22 20.3 21.95 20.52 21.92 20.75C21.88 20.98 21.85 21.21 21.83 21.44C21.81 21.67 21.8 21.9 21.8 22.13C21.8 22.36 21.81 22.59 21.84 22.82C21.86 23.05 21.89 23.28 21.93 23.51C21.97 23.74 22.02 23.96 22.08 24.18C22.15 24.41 22.22 24.63 22.3 24.84C22.38 25.06 22.47 25.27 22.57 25.48C22.67 25.69 22.77 25.89 22.89 26.09C23.01 26.29 23.13 26.49 23.27 26.67C23.4 26.86 23.55 27.05 23.7 27.22C23.85 27.4 24 27.57 24.17 27.73C24.33 27.89 24.5 28.04 24.68 28.19C24.86 28.34 25.05 28.48 25.24 28.61C25.43 28.74 25.62 28.86 25.82 28.97C26.03 29.09 26.23 29.19 26.44 29.29C26.65 29.38 26.87 29.47 27.09 29.55L27.09 45.81L32.36 45.81L32.36 40.54L37.63 40.54L37.63 35.27L32.36 35.27L32.36 29.55C32.58 29.47 32.79 29.38 33 29.29C33.21 29.19 33.42 29.09 33.62 28.97C33.82 28.86 34.02 28.74 34.21 28.61C34.4 28.48 34.58 28.34 34.76 28.19C34.94 28.04 35.11 27.89 35.28 27.73C35.44 27.57 35.6 27.4 35.75 27.22C35.9 27.05 36.04 26.86 36.18 26.67C36.31 26.49 36.44 26.29 36.55 26.09C36.67 25.89 36.78 25.69 36.88 25.48C36.98 25.27 37.07 25.06 37.15 24.84C37.23 24.63 37.3 24.41 37.36 24.18C37.42 23.96 37.47 23.74 37.51 23.51C37.56 23.28 37.59 23.05 37.61 22.82C37.63 22.59 37.64 22.36 37.64 22.13C37.64 21.9 37.64 21.67 37.62 21.44C37.6 21.21 37.57 20.98 37.53 20.75C37.49 20.52 37.44 20.3 37.38 20.07C37.32 19.85 37.25 19.63 37.18 19.41C37.1 19.19 37.01 18.98 36.91 18.77C36.82 18.56 36.71 18.35 36.6 18.15C36.48 17.95 36.36 17.76 36.23 17.57C36.09 17.38 35.95 17.19 35.8 17.02C35.66 16.84 35.5 16.67 35.34 16.5C35.17 16.34 35 16.18 34.83 16.04C34.65 15.89 34.47 15.75 34.28 15.61C34.09 15.48 33.89 15.36 33.69 15.24C33.49 15.12 33.29 15.02 33.08 14.92C32.87 14.82 32.66 14.73 32.44 14.65C32.22 14.57 32 14.51 31.78 14.45C31.56 14.39 31.33 14.34 31.1 14.3C30.87 14.26 30.65 14.23 30.41 14.21C30.18 14.19 29.95 14.18 29.72 14.18Z" fill="#958DFF" fill-opacity="1.000000" fill-rule="nonzero"/>
</svg>
