<svg width="24.426392" height="24.000000" viewBox="0 0 24.4264 24" fill="none" xmlns="http://www.w3.org/2000/svg" xmlns:xlink="http://www.w3.org/1999/xlink">
	<desc>
			Created with Pixso.
	</desc>
	<defs/>
	<path d="M8.88 24C7.51 23.61 6.24 23 5.08 22.16L5.13 19.69C5.13 19.56 5.12 19.43 5.1 19.3C5.08 19.18 5.05 19.05 5.01 18.93C4.97 18.81 4.92 18.69 4.86 18.58C4.8 18.46 4.73 18.36 4.65 18.26C4.56 18.15 4.48 18.06 4.38 17.98C4.28 17.89 4.18 17.81 4.07 17.75C3.96 17.68 3.85 17.62 3.73 17.57C3.61 17.53 3.48 17.49 3.36 17.46L0.93 16.96C0.38 15.65 0.07 14.27 0 12.84L1.96 11.34C2.06 11.27 2.16 11.18 2.24 11.08C2.33 10.99 2.41 10.89 2.48 10.78C2.55 10.67 2.61 10.56 2.66 10.44C2.71 10.32 2.75 10.2 2.78 10.07C2.81 9.95 2.82 9.82 2.83 9.69C2.84 9.56 2.83 9.43 2.82 9.3C2.8 9.18 2.77 9.05 2.74 8.93C2.7 8.8 2.65 8.69 2.59 8.57L1.47 6.36C2.16 5.11 3.04 4.01 4.11 3.06L6.51 3.66C6.63 3.69 6.76 3.71 6.89 3.72C7.02 3.73 7.14 3.73 7.27 3.72C7.4 3.7 7.53 3.68 7.65 3.64C7.77 3.61 7.9 3.56 8.01 3.51C8.13 3.45 8.24 3.39 8.34 3.31C8.45 3.24 8.54 3.15 8.63 3.06C8.73 2.97 8.81 2.87 8.88 2.76C8.95 2.66 9.02 2.55 9.07 2.43L10.1 0.18C10.8 0.06 11.5 -0.01 12.21 0C12.93 0 13.63 0.06 14.32 0.18L15.35 2.43C15.4 2.55 15.46 2.66 15.54 2.76C15.61 2.87 15.69 2.97 15.78 3.06C15.87 3.15 15.97 3.24 16.07 3.31C16.18 3.39 16.29 3.45 16.41 3.51C16.52 3.56 16.64 3.61 16.77 3.64C16.89 3.68 17.02 3.7 17.14 3.72C17.27 3.73 17.4 3.73 17.53 3.72C17.66 3.71 17.79 3.69 17.91 3.66L20.31 3.06C21.38 4.01 22.26 5.11 22.94 6.36L21.82 8.57C21.77 8.69 21.72 8.8 21.68 8.93C21.64 9.05 21.62 9.18 21.6 9.3C21.58 9.43 21.58 9.56 21.59 9.69C21.59 9.82 21.61 9.95 21.64 10.07C21.67 10.2 21.71 10.32 21.76 10.44C21.81 10.56 21.87 10.67 21.94 10.78C22.01 10.89 22.08 10.99 22.17 11.08C22.26 11.18 22.35 11.27 22.46 11.34L24.42 12.84C24.35 14.27 24.04 15.65 23.48 16.96L21.06 17.46C20.93 17.49 20.81 17.53 20.69 17.57C20.57 17.62 20.46 17.68 20.35 17.75C20.24 17.81 20.13 17.89 20.04 17.98C19.94 18.06 19.85 18.15 19.77 18.25C19.69 18.36 19.62 18.46 19.56 18.58C19.5 18.69 19.45 18.81 19.4 18.93C19.36 19.05 19.33 19.18 19.31 19.3C19.29 19.43 19.28 19.56 19.29 19.69L19.34 22.16C18.18 22.99 16.91 23.61 15.53 23.99L13.63 22.41C13.53 22.33 13.43 22.26 13.31 22.19C13.2 22.13 13.09 22.07 12.96 22.03C12.84 21.99 12.72 21.95 12.59 21.93C12.47 21.91 12.34 21.9 12.21 21.9C12.08 21.9 11.95 21.91 11.82 21.93C11.7 21.95 11.57 21.99 11.45 22.03C11.33 22.07 11.21 22.13 11.1 22.19C10.99 22.26 10.89 22.33 10.79 22.41L8.88 24ZM12.21 17.23C12.37 17.23 12.54 17.22 12.7 17.2C12.86 17.19 13.02 17.16 13.18 17.13C13.34 17.1 13.5 17.06 13.66 17.01C13.82 16.96 13.97 16.91 14.12 16.85C14.27 16.78 14.42 16.71 14.57 16.64C14.71 16.56 14.85 16.47 14.99 16.38C15.12 16.29 15.26 16.19 15.38 16.09C15.51 15.99 15.63 15.88 15.75 15.76C15.86 15.65 15.97 15.52 16.08 15.4C16.18 15.27 16.28 15.14 16.37 15C16.46 14.87 16.54 14.73 16.62 14.58C16.7 14.44 16.77 14.29 16.83 14.14C16.89 13.99 16.95 13.83 17 13.68C17.04 13.52 17.08 13.36 17.11 13.2C17.15 13.04 17.17 12.88 17.19 12.71C17.2 12.55 17.21 12.39 17.21 12.22C17.21 12.06 17.2 11.9 17.19 11.73C17.17 11.57 17.15 11.41 17.11 11.25C17.08 11.09 17.04 10.93 17 10.77C16.95 10.61 16.89 10.46 16.83 10.31C16.77 10.16 16.7 10.01 16.62 9.87C16.54 9.72 16.46 9.58 16.37 9.44C16.28 9.31 16.18 9.18 16.08 9.05C15.97 8.92 15.86 8.8 15.75 8.69C15.63 8.57 15.51 8.46 15.38 8.36C15.26 8.25 15.12 8.16 14.99 8.06C14.85 7.97 14.71 7.89 14.57 7.81C14.42 7.73 14.27 7.66 14.12 7.6C13.97 7.54 13.82 7.48 13.66 7.44C13.5 7.39 13.34 7.35 13.18 7.32C13.02 7.29 12.86 7.26 12.7 7.25C12.54 7.23 12.37 7.22 12.21 7.22C12.04 7.22 11.88 7.23 11.72 7.25C11.55 7.26 11.39 7.29 11.23 7.32C11.07 7.35 10.91 7.39 10.76 7.44C10.6 7.48 10.45 7.54 10.29 7.6C10.14 7.66 9.99 7.73 9.85 7.81C9.71 7.89 9.57 7.97 9.43 8.06C9.29 8.16 9.16 8.25 9.03 8.36C8.91 8.46 8.79 8.57 8.67 8.69C8.55 8.8 8.45 8.92 8.34 9.05C8.24 9.18 8.14 9.31 8.05 9.44C7.96 9.58 7.87 9.72 7.8 9.87C7.72 10.01 7.65 10.16 7.59 10.31C7.52 10.46 7.47 10.61 7.42 10.77C7.37 10.93 7.33 11.09 7.3 11.25C7.27 11.41 7.25 11.57 7.23 11.73C7.21 11.9 7.21 12.06 7.21 12.22C7.21 12.39 7.21 12.55 7.23 12.71C7.25 12.88 7.27 13.04 7.3 13.2C7.33 13.36 7.37 13.52 7.42 13.68C7.47 13.83 7.52 13.99 7.59 14.14C7.65 14.29 7.72 14.44 7.8 14.58C7.87 14.73 7.96 14.87 8.05 15C8.14 15.14 8.24 15.27 8.34 15.4C8.45 15.52 8.55 15.65 8.67 15.76C8.79 15.88 8.91 15.99 9.03 16.09C9.16 16.19 9.29 16.29 9.43 16.38C9.57 16.47 9.71 16.56 9.85 16.64C9.99 16.71 10.14 16.78 10.29 16.85C10.45 16.91 10.6 16.96 10.76 17.01C10.91 17.06 11.07 17.1 11.23 17.13C11.39 17.16 11.55 17.19 11.72 17.2C11.88 17.22 12.04 17.23 12.21 17.23Z" fill="#777777" fill-opacity="1.000000" fill-rule="nonzero"/>
</svg>
