<svg width="60.000000" height="60.000000" viewBox="0 0 60 60" fill="none" xmlns="http://www.w3.org/2000/svg" xmlns:xlink="http://www.w3.org/1999/xlink">
	<desc>
			Created with Pixso.
	</desc>
	<defs/>
	<path d="M52.58 19.42C53.42 19.51 54.27 19.73 55.11 20.09C55.96 20.45 56.7 20.95 57.32 21.59C57.94 22.24 58.41 23.05 58.72 24.03C59.03 25.01 59.08 26.19 58.86 27.57C58.77 27.93 58.59 28.81 58.32 30.21C58.05 31.62 57.74 33.23 57.39 35.06C57.03 36.88 56.63 38.77 56.18 40.7C55.74 42.64 55.31 44.3 54.91 45.68C54.69 46.48 54.37 47.31 53.95 48.15C53.52 49 52.98 49.77 52.31 50.46C51.64 51.15 50.84 51.72 49.9 52.16C48.97 52.61 47.85 52.83 46.56 52.83L9.55 52.83C8.61 52.83 7.64 52.63 6.64 52.23C5.64 51.83 4.71 51.26 3.87 50.52C3.02 49.79 2.33 48.9 1.8 47.85C1.26 46.8 1 45.64 1 44.34L1 15.68C1 12.96 1.73 10.84 3.2 9.3C4.67 7.76 6.74 7 9.41 7L42.29 7C43.27 7 44.28 7.18 45.33 7.56C46.37 7.94 47.32 8.46 48.17 9.13C49.01 9.8 49.7 10.58 50.24 11.47C50.77 12.36 51.04 13.32 51.04 14.34L51.04 15.08L47.56 15.08C45.78 15.08 43.7 15.07 41.32 15.05C38.93 15.02 36.4 15.01 33.7 15.01C31.01 15.01 28.49 15 26.15 14.98C23.81 14.96 21.8 14.95 20.1 14.95L17.03 14.95C15.87 14.95 14.97 15.31 14.32 16.05C13.68 16.78 13.18 17.75 12.82 18.95C12.46 20.25 12.06 21.62 11.62 23.06C11.17 24.51 10.77 25.86 10.42 27.11C9.97 28.58 9.52 30 9.08 31.38C8.99 31.74 8.95 32.03 8.95 32.25C8.95 33.01 9.2 33.64 9.71 34.15C10.23 34.67 10.86 34.92 11.62 34.92C13 34.92 13.93 34.05 14.42 32.32L17.97 19.36C23.76 19.4 29.06 19.42 33.87 19.42L52.58 19.42Z" fill="#81D280" fill-opacity="1.000000" fill-rule="nonzero"/>
</svg>
