<svg width="60.000000" height="60.000000" viewBox="0 0 60 60" fill="none" xmlns="http://www.w3.org/2000/svg" xmlns:xlink="http://www.w3.org/1999/xlink">
	<desc>
			Created with Pixso.
	</desc>
	<defs/>
	<path d="M40.46 59L42.05 59C46.67 59 51.22 53.76 51.22 49.13L51.22 46.77L40.46 59ZM38.78 1L15.44 1C8.57 1 3 6.58 3 13.48L3 46.51C3 53.41 8.57 59 15.44 59L23.77 59L23.77 48.99C23.77 48.31 24.03 47.65 24.49 47.15L46.3 23.77C47.34 22.66 49.1 22.63 50.17 23.72L51.21 24.77L51.21 13.48C51.22 6.58 45.65 1 38.78 1ZM25.21 39.19L15.84 39.19C14.62 39.19 13.62 38.19 13.62 36.96C13.62 35.73 14.62 34.74 15.84 34.74L25.22 34.74C26.44 34.74 27.44 35.73 27.44 36.96C27.43 38.19 26.44 39.19 25.21 39.19ZM32 27.6L15.84 27.6C14.62 27.6 13.62 26.6 13.62 25.38C13.62 24.15 14.62 23.15 15.84 23.15L32 23.15C33.23 23.15 34.22 24.15 34.22 25.38C34.22 26.6 33.22 27.6 32 27.6ZM38.37 15.85L15.84 15.85C14.62 15.85 13.62 14.85 13.62 13.62C13.62 12.39 14.62 11.39 15.84 11.39L38.38 11.39C39.6 11.39 40.6 12.39 40.6 13.62C40.6 14.85 39.6 15.85 38.37 15.85Z" fill="#5097FF" fill-opacity="1.000000" fill-rule="nonzero"/>
	<path d="M42.26 33.77L28.2 49.04C27.93 49.33 27.79 49.71 27.79 50.11L27.93 57.77C27.93 57.84 27.94 57.9 27.95 57.96C27.97 58.02 27.99 58.08 28.02 58.14C28.04 58.19 28.08 58.25 28.11 58.29C28.15 58.34 28.2 58.39 28.24 58.43C28.29 58.47 28.34 58.5 28.4 58.53C28.45 58.56 28.51 58.58 28.57 58.6C28.63 58.62 28.69 58.63 28.75 58.63C28.82 58.63 28.88 58.63 28.94 58.62L35.83 57.5C36.17 57.45 36.48 57.28 36.71 57.03L50.97 41.54L42.26 33.77ZM55.54 34.3L49.21 28.46C49.14 28.39 49.06 28.33 48.97 28.28C48.89 28.22 48.8 28.18 48.7 28.15C48.61 28.11 48.51 28.09 48.41 28.07C48.31 28.05 48.21 28.05 48.11 28.05C48.01 28.06 47.91 28.07 47.82 28.09C47.72 28.12 47.63 28.15 47.53 28.19C47.44 28.24 47.36 28.29 47.28 28.35C47.2 28.41 47.12 28.47 47.05 28.55L45.03 30.75L53.74 38.52L55.63 36.47C55.7 36.39 55.76 36.31 55.81 36.23C55.86 36.14 55.9 36.05 55.94 35.96C55.97 35.86 55.99 35.77 56.01 35.67C56.02 35.57 56.03 35.47 56.03 35.37C56.02 35.27 56.01 35.17 55.98 35.07C55.96 34.97 55.93 34.88 55.89 34.79C55.84 34.7 55.79 34.61 55.73 34.53C55.68 34.45 55.61 34.37 55.54 34.3Z" fill="#5097FF" fill-opacity="1.000000" fill-rule="nonzero"/>
</svg>
