<svg width="24.000061" height="24.000000" viewBox="0 0 24.0001 24" fill="none" xmlns="http://www.w3.org/2000/svg" xmlns:xlink="http://www.w3.org/1999/xlink">
	<desc>
			Created with Pixso.
	</desc>
	<defs/>
	<path d="M16.79 15.5C16.43 15.5 16.08 15.56 15.74 15.7C15.71 15.66 15.71 15.63 15.68 15.63L9.12 8.94C9.01 8.83 8.9 8.74 8.77 8.66C8.64 8.58 8.5 8.53 8.35 8.49C8.2 8.45 8.05 8.43 7.9 8.43C7.75 8.44 7.6 8.46 7.46 8.5C7.43 8.51 7.41 8.52 7.39 8.54C7.16 8.6 6.96 8.72 6.79 8.88C2.8 11.33 0.03 17.34 0.03 22.31C-0.02 22.87 -0.02 23.43 0.03 24L12.64 24L12.64 17.44L13.24 18.08C13.34 18.19 13.46 18.28 13.6 18.35C13.6 18.42 13.61 18.5 13.63 18.57C13.65 18.64 13.68 18.71 13.71 18.78C13.74 18.85 13.78 18.91 13.83 18.97C13.87 19.03 13.92 19.09 13.98 19.14C14.03 19.19 14.09 19.24 14.16 19.27C14.22 19.31 14.29 19.35 14.36 19.38C14.43 19.4 14.5 19.42 14.57 19.44C14.65 19.45 14.72 19.46 14.8 19.46C14.87 19.46 14.94 19.45 15.01 19.44C15.08 19.43 15.15 19.41 15.22 19.39C15.28 19.36 15.35 19.33 15.41 19.3C15.47 19.26 15.53 19.22 15.58 19.18C15.64 19.13 15.69 19.08 15.73 19.03C15.78 18.97 15.82 18.91 15.86 18.85C15.89 18.79 15.92 18.72 15.94 18.66C15.97 18.59 15.99 18.52 16 18.45L16.03 18.45L16.03 18.18C16.03 18.13 16.03 18.09 16.04 18.04C16.05 17.99 16.06 17.95 16.08 17.9C16.1 17.86 16.12 17.82 16.15 17.78C16.17 17.74 16.2 17.71 16.24 17.67C16.27 17.64 16.31 17.61 16.35 17.58C16.38 17.56 16.43 17.53 16.47 17.52C16.51 17.5 16.56 17.49 16.6 17.48C16.65 17.47 16.7 17.46 16.74 17.46C16.79 17.46 16.84 17.47 16.88 17.48C16.93 17.49 16.97 17.5 17.02 17.52C17.06 17.53 17.1 17.56 17.14 17.58C17.18 17.61 17.22 17.64 17.25 17.67C17.28 17.71 17.31 17.74 17.34 17.78C17.37 17.82 17.39 17.86 17.41 17.9C17.42 17.95 17.44 17.99 17.45 18.04C17.46 18.09 17.46 18.13 17.46 18.18L17.46 23.92L19.38 23.92L19.38 18.25C19.39 18.16 19.38 18.08 19.38 17.99C19.37 17.9 19.36 17.81 19.35 17.73C19.34 17.64 19.32 17.55 19.3 17.47C19.27 17.38 19.25 17.3 19.22 17.22C19.18 17.14 19.15 17.06 19.11 16.98C19.07 16.9 19.03 16.82 18.98 16.75C18.94 16.67 18.89 16.6 18.83 16.53C18.78 16.46 18.72 16.39 18.66 16.33C18.6 16.27 18.54 16.21 18.47 16.15C18.41 16.09 18.34 16.04 18.27 15.99C18.19 15.93 18.12 15.89 18.04 15.84C17.97 15.8 17.89 15.76 17.81 15.73C17.73 15.69 17.65 15.66 17.56 15.63C17.48 15.6 17.4 15.58 17.31 15.56C17.23 15.54 17.14 15.53 17.05 15.52C16.96 15.5 16.88 15.5 16.79 15.5ZM20.39 3.23C20.29 2.83 19.09 2.33 18.7 2.43L18.47 2.5L17.33 1.15C16.96 0.76 16.56 0.4 16.13 0.08C15.47 -0.32 10.33 0.82 9.68 1.88C9.46 2.27 9.31 2.68 9.23 3.12L8.84 5.17L8.61 5.24C8.22 5.34 7.41 6.44 7.53 6.82C7.54 6.86 7.56 6.91 7.58 6.95C7.6 7 7.62 7.04 7.65 7.08C7.68 7.12 7.71 7.15 7.74 7.18C7.78 7.22 7.82 7.24 7.86 7.27C7.9 7.29 7.94 7.31 7.99 7.33C8.03 7.34 8.08 7.35 8.13 7.35C8.18 7.36 8.22 7.36 8.27 7.35C8.32 7.35 8.37 7.34 8.41 7.32L9.94 6.92C9.95 7.06 9.97 7.19 10 7.33C10.03 7.47 10.06 7.6 10.1 7.73C10.14 7.86 10.18 7.99 10.23 8.12C10.29 8.25 10.35 8.38 10.41 8.5C10.47 8.62 10.54 8.74 10.62 8.85C10.7 8.97 10.78 9.08 10.86 9.19C10.95 9.29 11.04 9.4 11.14 9.5C11.24 9.59 11.34 9.69 11.45 9.78C11.55 9.86 11.66 9.95 11.78 10.02C11.89 10.1 12.01 10.17 12.13 10.24C12.25 10.3 12.38 10.36 12.5 10.42C12.63 10.47 12.76 10.52 12.89 10.56C13.02 10.6 13.16 10.64 13.29 10.66C13.43 10.69 13.56 10.71 13.7 10.73C13.84 10.74 13.98 10.75 14.12 10.75C14.25 10.75 14.39 10.74 14.53 10.73C14.67 10.72 14.8 10.7 14.94 10.67C15.07 10.65 15.21 10.61 15.34 10.58C15.47 10.54 15.6 10.49 15.73 10.44C15.86 10.39 15.98 10.33 16.11 10.26C16.23 10.2 16.35 10.13 16.46 10.05C16.58 9.98 16.69 9.9 16.8 9.81C16.9 9.72 17.01 9.63 17.11 9.53C17.2 9.44 17.3 9.33 17.39 9.23C17.47 9.12 17.56 9.01 17.63 8.9C17.71 8.78 17.78 8.67 17.85 8.54C17.92 8.42 17.98 8.3 18.03 8.17C18.08 8.04 18.13 7.91 18.17 7.78C18.21 7.65 18.25 7.52 18.27 7.38C18.3 7.25 18.32 7.11 18.34 6.97C18.35 6.83 18.36 6.7 18.36 6.56C18.36 6.42 18.36 6.28 18.34 6.15C18.34 5.65 18.26 5.17 18.09 4.7L19.89 4.19C19.93 4.18 19.98 4.16 20.02 4.13C20.06 4.11 20.1 4.08 20.14 4.05C20.17 4.02 20.21 3.98 20.24 3.94C20.27 3.9 20.29 3.86 20.32 3.82C20.34 3.78 20.36 3.73 20.37 3.68C20.38 3.64 20.39 3.59 20.4 3.54C20.4 3.49 20.4 3.44 20.4 3.4C20.39 3.35 20.39 3.3 20.37 3.25L20.39 3.23ZM17.16 0.98L17.29 1.15C17.32 1.21 17.32 1.18 17.16 0.98Z" fill="#777777" fill-opacity="1.000000" fill-rule="nonzero"/>
</svg>
