<svg width="60.000000" height="60.000000" viewBox="0 0 60 60" fill="none" xmlns="http://www.w3.org/2000/svg" xmlns:xlink="http://www.w3.org/1999/xlink">
	<desc>
			Created with Pixso.
	</desc>
	<defs/>
	<path d="M50.35 47.75C46.43 47.75 43.13 46.46 42.08 44.67C41.83 45.07 41.71 45.47 41.71 45.9C41.71 48.28 45.57 50.22 50.35 50.22C55.14 50.22 59 48.28 59 45.9C59 45.47 58.87 45.07 58.62 44.67C57.58 46.46 54.27 47.75 50.35 47.75Z" fill="#E99020" fill-opacity="1.000000" fill-rule="nonzero"/>
	<path d="M50.35 52.69C46.43 52.69 43.13 51.4 42.08 49.61C41.83 50.01 41.71 50.41 41.71 50.84C41.71 53.22 45.57 55.16 50.35 55.16C55.14 55.16 59 53.22 59 50.84C59 50.41 58.87 50.01 58.62 49.61C57.58 51.4 54.27 52.69 50.35 52.69Z" fill="#E99020" fill-opacity="1.000000" fill-rule="nonzero"/>
	<path d="M41.71 40.96C41.71 41.11 41.72 41.25 41.75 41.39C41.78 41.53 41.82 41.67 41.88 41.81C41.93 41.95 42 42.08 42.08 42.22C42.16 42.35 42.26 42.49 42.37 42.62C42.48 42.75 42.6 42.88 42.73 43C42.86 43.13 43.01 43.25 43.17 43.37C43.32 43.48 43.49 43.6 43.67 43.71C43.85 43.82 44.04 43.92 44.24 44.02C44.44 44.12 44.65 44.22 44.87 44.3C45.09 44.39 45.32 44.48 45.55 44.56C45.79 44.64 46.03 44.71 46.28 44.78C46.53 44.84 46.78 44.9 47.05 44.96C47.31 45.01 47.57 45.06 47.84 45.1C48.11 45.14 48.39 45.17 48.67 45.2C48.94 45.23 49.22 45.25 49.51 45.26C49.79 45.28 50.07 45.29 50.35 45.29C50.64 45.29 50.92 45.28 51.2 45.26C51.48 45.25 51.76 45.23 52.04 45.2C52.32 45.17 52.59 45.14 52.86 45.1C53.13 45.06 53.4 45.01 53.66 44.96C53.92 44.9 54.18 44.84 54.43 44.78C54.68 44.71 54.92 44.64 55.15 44.56C55.39 44.48 55.62 44.39 55.84 44.3C56.05 44.22 56.26 44.12 56.46 44.02C56.66 43.92 56.85 43.82 57.03 43.71C57.21 43.6 57.38 43.48 57.54 43.37C57.7 43.25 57.84 43.13 57.97 43C58.11 42.88 58.23 42.75 58.34 42.62C58.45 42.49 58.54 42.35 58.62 42.22C58.71 42.08 58.77 41.95 58.83 41.81C58.88 41.67 58.93 41.53 58.95 41.39C58.98 41.25 59 41.11 59 40.96C59 40.82 58.98 40.68 58.95 40.54C58.93 40.4 58.88 40.26 58.83 40.12C58.77 39.98 58.71 39.85 58.62 39.71C58.54 39.57 58.45 39.44 58.34 39.31C58.23 39.18 58.11 39.05 57.97 38.93C57.84 38.8 57.7 38.68 57.54 38.56C57.38 38.45 57.21 38.33 57.03 38.22C56.85 38.11 56.66 38.01 56.46 37.91C56.26 37.81 56.05 37.71 55.84 37.62C55.62 37.53 55.39 37.45 55.15 37.37C54.92 37.29 54.68 37.22 54.43 37.15C54.18 37.09 53.92 37.03 53.66 36.97C53.4 36.92 53.13 36.87 52.86 36.83C52.59 36.79 52.32 36.75 52.04 36.73C51.76 36.7 51.48 36.68 51.2 36.66C50.92 36.65 50.64 36.64 50.35 36.64C50.07 36.64 49.79 36.65 49.51 36.66C49.22 36.68 48.94 36.7 48.67 36.73C48.39 36.75 48.11 36.79 47.84 36.83C47.57 36.87 47.31 36.92 47.05 36.97C46.78 37.03 46.53 37.09 46.28 37.15C46.03 37.22 45.79 37.29 45.55 37.37C45.32 37.45 45.09 37.53 44.87 37.62C44.65 37.71 44.44 37.81 44.24 37.91C44.04 38.01 43.85 38.11 43.67 38.22C43.49 38.33 43.32 38.45 43.17 38.56C43.01 38.68 42.86 38.8 42.73 38.93C42.6 39.05 42.48 39.18 42.37 39.31C42.26 39.44 42.16 39.57 42.08 39.71C42 39.85 41.93 39.98 41.88 40.12C41.82 40.26 41.78 40.4 41.75 40.54C41.72 40.68 41.71 40.82 41.71 40.96Z" fill="#E99020" fill-opacity="1.000000" fill-rule="nonzero"/>
	<path d="M39.24 50.87C39.24 50.01 39.46 49.21 39.92 48.4C39.49 47.63 39.24 46.8 39.24 45.93C39.24 45.07 39.46 44.27 39.92 43.46C39.49 42.69 39.24 41.86 39.24 41C39.24 40.22 39.43 39.51 39.73 38.83C38.53 38.46 37.39 37.94 36.31 37.26C33.87 38.77 31.03 39.58 28.13 39.58C25.2 39.58 22.39 38.77 19.95 37.26C17.51 38.74 14.7 39.58 11.77 39.58L11.28 39.58C8.47 39.54 5.75 38.77 3.41 37.32L3.41 50.41C3.41 52.45 5.07 54.11 7.11 54.11L40.44 54.11C39.67 53.16 39.24 52.08 39.24 50.87ZM54.77 20.65L54.77 20.56C54.74 20.38 54.67 20.19 54.58 20.04L50.07 8.83C49.21 6.43 46.86 4.88 44.3 5.01L12.08 5.01C9.61 4.85 7.33 6.36 6.52 8.71L1.58 20.38C1.55 20.44 1.52 20.53 1.52 20.65C1.15 21.74 0.97 22.88 1 24.02C0.94 29.82 5.6 34.61 11.4 34.67L11.77 34.67C14.95 34.67 17.94 33.28 19.98 30.84C23.78 35.35 30.48 35.93 34.98 32.14C35.44 31.74 35.88 31.3 36.28 30.84C38.31 33.25 41.34 34.64 44.49 34.64L44.52 34.64C46.31 34.67 48.07 34.24 49.67 33.43C54.24 30.93 56.37 25.59 54.77 20.65ZM42.94 22.32L13.31 22.32C11.96 22.32 10.84 21.21 10.84 19.85C10.84 18.49 11.96 17.38 13.31 17.38L42.94 17.38C44.3 17.38 45.41 18.49 45.41 19.85C45.41 21.21 44.3 22.32 42.94 22.32Z" fill="#E99020" fill-opacity="1.000000" fill-rule="nonzero"/>
</svg>
