<svg width="24.000000" height="24.000000" viewBox="0 0 24 24" fill="none" xmlns="http://www.w3.org/2000/svg" xmlns:xlink="http://www.w3.org/1999/xlink">
	<desc>
			Created with Pixso.
	</desc>
	<defs/>
	<path d="M24 5L24 18.5C24 18.59 23.99 18.69 23.98 18.79C23.97 18.89 23.96 18.98 23.94 19.08C23.92 19.18 23.89 19.27 23.87 19.37C23.84 19.46 23.8 19.55 23.77 19.64C23.73 19.73 23.69 19.82 23.64 19.91C23.59 20 23.54 20.08 23.49 20.16C23.43 20.24 23.38 20.32 23.31 20.4C23.25 20.47 23.19 20.55 23.12 20.62C23.05 20.69 22.97 20.75 22.9 20.81C22.82 20.88 22.74 20.93 22.66 20.99C22.58 21.04 22.5 21.09 22.41 21.14C22.32 21.19 22.23 21.23 22.14 21.27C22.05 21.3 21.96 21.34 21.87 21.37C21.77 21.39 21.68 21.42 21.58 21.44C21.48 21.46 21.39 21.47 21.29 21.48C21.19 21.49 21.09 21.5 21 21.5L3 21.5C2.9 21.5 2.8 21.49 2.7 21.48C2.6 21.47 2.51 21.46 2.41 21.44C2.31 21.42 2.22 21.39 2.12 21.37C2.03 21.34 1.94 21.3 1.85 21.27C1.76 21.23 1.67 21.19 1.58 21.14C1.49 21.09 1.41 21.04 1.33 20.99C1.25 20.93 1.17 20.88 1.09 20.81C1.02 20.75 0.94 20.69 0.87 20.62C0.8 20.55 0.74 20.47 0.68 20.4C0.61 20.32 0.56 20.24 0.5 20.16C0.45 20.08 0.4 20 0.35 19.91C0.3 19.82 0.26 19.73 0.22 19.64C0.19 19.55 0.15 19.46 0.12 19.37C0.1 19.27 0.07 19.18 0.05 19.08C0.03 18.98 0.02 18.89 0.01 18.79C0 18.69 0 18.59 0 18.5L0 5C0 4.9 0 4.8 0.01 4.7C0.02 4.6 0.03 4.51 0.05 4.41C0.07 4.31 0.1 4.22 0.12 4.12C0.15 4.03 0.19 3.94 0.22 3.85C0.26 3.76 0.3 3.67 0.35 3.58C0.4 3.49 0.45 3.41 0.5 3.33C0.56 3.25 0.61 3.17 0.68 3.09C0.74 3.02 0.8 2.94 0.87 2.87C0.94 2.8 1.02 2.74 1.09 2.68C1.17 2.61 1.25 2.56 1.33 2.5C1.41 2.45 1.49 2.4 1.58 2.35C1.67 2.3 1.76 2.26 1.85 2.22C1.94 2.19 2.03 2.15 2.12 2.12C2.22 2.1 2.31 2.07 2.41 2.05C2.51 2.03 2.6 2.02 2.7 2.01C2.8 2 2.9 2 3 2L21 2C21.09 2 21.19 2 21.29 2.01C21.39 2.02 21.48 2.03 21.58 2.05C21.68 2.07 21.77 2.1 21.87 2.12C21.96 2.15 22.05 2.19 22.14 2.22C22.23 2.26 22.32 2.3 22.41 2.35C22.5 2.4 22.58 2.45 22.66 2.5C22.74 2.56 22.82 2.61 22.9 2.68C22.97 2.74 23.05 2.8 23.12 2.87C23.19 2.94 23.25 3.02 23.31 3.09C23.38 3.17 23.43 3.25 23.49 3.33C23.54 3.41 23.59 3.49 23.64 3.58C23.69 3.67 23.73 3.76 23.77 3.85C23.8 3.94 23.84 4.03 23.87 4.12C23.89 4.22 23.92 4.31 23.94 4.41C23.96 4.51 23.97 4.6 23.98 4.7C23.99 4.8 24 4.9 24 5ZM16.5 7.25C16.45 7.25 16.4 7.25 16.35 7.26C16.3 7.27 16.25 7.28 16.21 7.3C16.16 7.32 16.12 7.34 16.08 7.37C16.04 7.4 16 7.43 15.96 7.46C15.93 7.5 15.9 7.54 15.87 7.58C15.84 7.62 15.82 7.66 15.8 7.71C15.78 7.75 15.77 7.8 15.76 7.85C15.75 7.9 15.75 7.95 15.75 8C15.75 8.04 15.75 8.09 15.76 8.14C15.77 8.19 15.78 8.24 15.8 8.28C15.82 8.33 15.84 8.37 15.87 8.41C15.9 8.45 15.93 8.49 15.96 8.53C16 8.56 16.04 8.59 16.08 8.62C16.12 8.65 16.16 8.67 16.21 8.69C16.25 8.71 16.3 8.72 16.35 8.73C16.4 8.74 16.45 8.75 16.5 8.75L20.25 8.75C20.29 8.75 20.34 8.74 20.39 8.73C20.44 8.72 20.49 8.71 20.53 8.69C20.58 8.67 20.62 8.65 20.66 8.62C20.7 8.59 20.74 8.56 20.78 8.53C20.81 8.49 20.84 8.45 20.87 8.41C20.9 8.37 20.92 8.33 20.94 8.28C20.96 8.24 20.97 8.19 20.98 8.14C20.99 8.09 21 8.04 21 8C21 7.95 20.99 7.9 20.98 7.85C20.97 7.8 20.96 7.75 20.94 7.71C20.92 7.66 20.9 7.62 20.87 7.58C20.84 7.54 20.81 7.5 20.78 7.46C20.74 7.43 20.7 7.4 20.66 7.37C20.62 7.34 20.58 7.32 20.53 7.3C20.49 7.28 20.44 7.27 20.39 7.26C20.34 7.25 20.29 7.25 20.25 7.25L16.5 7.25ZM16.5 11C16.45 11 16.4 11 16.35 11.01C16.3 11.02 16.25 11.03 16.21 11.05C16.16 11.07 16.12 11.09 16.08 11.12C16.04 11.15 16 11.18 15.96 11.21C15.93 11.25 15.9 11.29 15.87 11.33C15.84 11.37 15.82 11.41 15.8 11.46C15.78 11.5 15.77 11.55 15.76 11.6C15.75 11.65 15.75 11.7 15.75 11.75C15.75 11.79 15.75 11.84 15.76 11.89C15.77 11.94 15.78 11.99 15.8 12.03C15.82 12.08 15.84 12.12 15.87 12.16C15.9 12.2 15.93 12.24 15.96 12.28C16 12.31 16.04 12.34 16.08 12.37C16.12 12.4 16.16 12.42 16.21 12.44C16.25 12.46 16.3 12.47 16.35 12.48C16.4 12.49 16.45 12.5 16.5 12.5L20.25 12.5C20.29 12.5 20.34 12.49 20.39 12.48C20.44 12.47 20.49 12.46 20.53 12.44C20.58 12.42 20.62 12.4 20.66 12.37C20.7 12.34 20.74 12.31 20.78 12.28C20.81 12.24 20.84 12.2 20.87 12.16C20.9 12.12 20.92 12.08 20.94 12.03C20.96 11.99 20.97 11.94 20.98 11.89C20.99 11.84 21 11.79 21 11.75C21 11.7 20.99 11.65 20.98 11.6C20.97 11.55 20.96 11.5 20.94 11.46C20.92 11.41 20.9 11.37 20.87 11.33C20.84 11.29 20.81 11.25 20.78 11.21C20.74 11.18 20.7 11.15 20.66 11.12C20.62 11.09 20.58 11.07 20.53 11.05C20.49 11.03 20.44 11.02 20.39 11.01C20.34 11 20.29 11 20.25 11L16.5 11ZM16.5 14.75C16.45 14.75 16.4 14.75 16.35 14.76C16.3 14.77 16.25 14.78 16.21 14.8C16.16 14.82 16.12 14.84 16.08 14.87C16.04 14.9 16 14.93 15.96 14.96C15.93 15 15.9 15.04 15.87 15.08C15.84 15.12 15.82 15.16 15.8 15.21C15.78 15.25 15.77 15.3 15.76 15.35C15.75 15.4 15.75 15.45 15.75 15.5C15.75 15.54 15.75 15.59 15.76 15.64C15.77 15.69 15.78 15.74 15.8 15.78C15.82 15.83 15.84 15.87 15.87 15.91C15.9 15.95 15.93 15.99 15.96 16.03C16 16.06 16.04 16.09 16.08 16.12C16.12 16.15 16.16 16.17 16.21 16.19C16.25 16.21 16.3 16.22 16.35 16.23C16.4 16.24 16.45 16.25 16.5 16.25L20.25 16.25C20.29 16.25 20.34 16.24 20.39 16.23C20.44 16.22 20.49 16.21 20.53 16.19C20.58 16.17 20.62 16.15 20.66 16.12C20.7 16.09 20.74 16.06 20.78 16.03C20.81 15.99 20.84 15.95 20.87 15.91C20.9 15.87 20.92 15.83 20.94 15.78C20.96 15.74 20.97 15.69 20.98 15.64C20.99 15.59 21 15.54 21 15.5C21 15.45 20.99 15.4 20.98 15.35C20.97 15.3 20.96 15.25 20.94 15.21C20.92 15.16 20.9 15.12 20.87 15.08C20.84 15.04 20.81 15 20.78 14.96C20.74 14.93 20.7 14.9 20.66 14.87C20.62 14.84 20.58 14.82 20.53 14.8C20.49 14.78 20.44 14.77 20.39 14.76C20.34 14.75 20.29 14.75 20.25 14.75L16.5 14.75ZM8.25 6.5C8.1 6.5 7.95 6.51 7.81 6.54C7.66 6.57 7.52 6.61 7.38 6.67C7.25 6.72 7.12 6.79 6.99 6.87C6.87 6.96 6.76 7.05 6.65 7.15C6.55 7.26 6.46 7.37 6.37 7.5C6.29 7.62 6.22 7.75 6.17 7.88C6.11 8.02 6.07 8.16 6.04 8.31C6.01 8.45 6 8.6 6 8.75L6 10.25C6 10.39 6.01 10.54 6.04 10.68C6.07 10.83 6.11 10.97 6.17 11.11C6.22 11.24 6.29 11.37 6.37 11.5C6.46 11.62 6.55 11.73 6.65 11.84C6.76 11.94 6.87 12.03 6.99 12.12C7.12 12.2 7.25 12.27 7.38 12.32C7.52 12.38 7.66 12.42 7.81 12.45C7.95 12.48 8.1 12.5 8.25 12.5C8.39 12.5 8.54 12.48 8.68 12.45C8.83 12.42 8.97 12.38 9.11 12.32C9.24 12.27 9.37 12.2 9.5 12.12C9.62 12.03 9.73 11.94 9.84 11.84C9.94 11.73 10.03 11.62 10.12 11.5C10.2 11.37 10.27 11.24 10.32 11.11C10.38 10.97 10.42 10.83 10.45 10.68C10.48 10.54 10.5 10.39 10.5 10.25L10.5 8.75C10.5 8.6 10.48 8.45 10.45 8.31C10.42 8.16 10.38 8.02 10.32 7.88C10.27 7.75 10.2 7.62 10.12 7.5C10.03 7.37 9.94 7.26 9.84 7.15C9.73 7.05 9.62 6.96 9.5 6.87C9.37 6.79 9.24 6.72 9.11 6.67C8.97 6.61 8.83 6.57 8.68 6.54C8.54 6.51 8.39 6.5 8.25 6.5ZM5.72 13.02C4.56 13.52 3.61 14.36 3 15.39L3 15.5C3 15.59 3 15.69 3.02 15.79C3.04 15.88 3.07 15.98 3.11 16.07C3.15 16.16 3.19 16.25 3.25 16.33C3.3 16.41 3.36 16.49 3.43 16.56C3.5 16.63 3.58 16.69 3.66 16.74C3.74 16.8 3.83 16.84 3.92 16.88C4.01 16.92 4.11 16.95 4.2 16.97C4.3 16.99 4.4 17 4.5 17L12 17C12.09 17 12.19 16.99 12.29 16.97C12.38 16.95 12.48 16.92 12.57 16.88C12.66 16.84 12.75 16.8 12.83 16.74C12.91 16.69 12.99 16.63 13.06 16.56C13.13 16.49 13.19 16.41 13.24 16.33C13.3 16.25 13.34 16.16 13.38 16.07C13.42 15.98 13.45 15.88 13.47 15.79C13.49 15.69 13.5 15.59 13.5 15.5L13.5 15.39C12.88 14.36 11.93 13.52 10.77 13.02C10.6 13.17 10.42 13.31 10.22 13.43C10.02 13.56 9.82 13.66 9.6 13.74C9.38 13.83 9.16 13.89 8.93 13.93C8.71 13.97 8.48 14 8.25 14C8.01 14 7.78 13.97 7.56 13.93C7.33 13.89 7.11 13.83 6.89 13.74C6.67 13.66 6.47 13.56 6.27 13.43C6.07 13.31 5.89 13.17 5.72 13.02Z" fill="#FFFFFF" fill-opacity="1.000000" fill-rule="nonzero"/>
</svg>
