<svg width="12.000000" height="24.000000" viewBox="0 0 12 24" fill="none" xmlns="http://www.w3.org/2000/svg" xmlns:xlink="http://www.w3.org/1999/xlink">
	<desc>
			Created with Pixso.
	</desc>
	<defs>
		<clipPath id="clip74_5144">
			<rect id="ic_public_arrow_right.svg" width="12.000000" height="24.000000" fill="white" fill-opacity="0"/>
		</clipPath>
	</defs>
	<g clip-path="url(#clip74_5144)">
		<path id="path-1" d="M4.24 5.78L9.22 10.76C9.89 11.43 9.91 12.5 9.27 13.19L4.28 18.18C4.15 18.31 3.98 18.38 3.81 18.4C3.63 18.39 3.36 18.32 3.21 18.18C2.93 17.9 2.92 17.45 3.18 17.15L7.81 12.53C8.09 12.24 8.1 11.79 7.84 11.5L3.21 6.87C2.92 6.58 2.92 6.1 3.21 5.81C3.36 5.67 3.54 5.59 3.72 5.59C3.89 5.59 4.11 5.66 4.24 5.78Z" fill="#0A554A" fill-opacity="1.000000" fill-rule="nonzero"/>
		<path id="path-1" d="M9.22 10.76C9.89 11.43 9.91 12.5 9.27 13.19L4.28 18.18C4.15 18.31 3.98 18.38 3.81 18.4C3.63 18.39 3.36 18.32 3.21 18.18C2.93 17.9 2.92 17.45 3.18 17.15L7.81 12.53C8.09 12.24 8.1 11.79 7.84 11.5L3.21 6.87C2.92 6.58 2.92 6.1 3.21 5.81C3.36 5.67 3.54 5.59 3.72 5.59C3.89 5.59 4.11 5.66 4.24 5.78L9.22 10.76Z" stroke="#000000" stroke-opacity="0" stroke-width="1.000000"/>
	</g>
</svg>
