<svg width="24.000000" height="24.000000" viewBox="0 0 24 24" fill="none" xmlns="http://www.w3.org/2000/svg" xmlns:xlink="http://www.w3.org/1999/xlink">
	<desc>
			Created with Pixso.
	</desc>
	<defs>
		<clipPath id="clip59_5112">
			<rect width="24.000000" height="24.000000" fill="white" fill-opacity="0"/>
		</clipPath>
	</defs>
	<g clip-path="url(#clip59_5112)">
		<g opacity="0.000000">
			<rect width="24.000000" height="24.000000" fill="#000000" fill-opacity="1.000000"/>
		</g>
		<path d="M9.09 6.05C9.3 6.05 9.47 5.97 9.61 5.83C9.76 5.68 9.83 5.51 9.83 5.3C9.83 4.69 10.06 4.16 10.5 3.71C10.93 3.27 11.47 3.05 12.09 3.05C12.72 3.05 13.25 3.27 13.68 3.71C14.12 4.16 14.34 4.69 14.34 5.3C14.34 5.51 14.42 5.68 14.56 5.83C14.71 5.97 14.88 6.05 15.09 6.05L20.54 6.05C20.75 6.05 20.92 5.97 21.06 5.83C21.21 5.68 21.29 5.51 21.29 5.3C21.29 5.09 21.21 4.92 21.06 4.78C20.92 4.63 20.75 4.56 20.54 4.56L15.77 4.56C15.58 3.69 15.15 2.97 14.47 2.41C13.78 1.84 12.98 1.56 12.06 1.56C11.17 1.56 10.38 1.84 9.69 2.41C9 2.97 8.57 3.69 8.39 4.56L3.42 4.56C3.22 4.56 3.04 4.63 2.89 4.78C2.76 4.92 2.68 5.09 2.68 5.3C2.68 5.51 2.76 5.68 2.89 5.83C3.04 5.97 3.22 6.05 3.42 6.05L9.09 6.05ZM13.75 17.88C13.95 17.88 14.13 17.81 14.28 17.68C14.42 17.54 14.5 17.36 14.52 17.16L14.76 10.15C14.77 9.94 14.7 9.76 14.56 9.61C14.4 9.45 14.22 9.37 14.02 9.36C13.8 9.36 13.62 9.42 13.49 9.56C13.34 9.69 13.27 9.87 13.27 10.08L13.01 17.09C12.99 17.29 13.05 17.47 13.21 17.63C13.36 17.78 13.54 17.86 13.75 17.88ZM10.27 17.88C10.47 17.86 10.65 17.78 10.81 17.63C10.96 17.47 11.03 17.29 11.02 17.09L10.73 10.08C10.73 9.87 10.65 9.69 10.51 9.56C10.36 9.42 10.18 9.36 9.95 9.36C9.75 9.37 9.57 9.45 9.42 9.61C9.29 9.76 9.22 9.94 9.23 10.15L9.5 17.16C9.52 17.35 9.59 17.52 9.73 17.66C9.88 17.8 10.06 17.88 10.27 17.88ZM15.96 22.43C16.67 22.43 17.29 22.2 17.81 21.72C18.32 21.24 18.61 20.64 18.7 19.92L19.67 8.44C19.69 8.24 19.63 8.06 19.51 7.91C19.38 7.75 19.21 7.66 19.01 7.63C18.8 7.61 18.62 7.67 18.46 7.81C18.31 7.94 18.22 8.12 18.18 8.33L17.2 19.79C17.17 20.12 17.04 20.38 16.79 20.6C16.56 20.82 16.28 20.93 15.96 20.93L8.04 20.93C7.7 20.93 7.42 20.82 7.18 20.6C6.95 20.38 6.82 20.12 6.79 19.79L5.78 8.33C5.76 8.12 5.67 7.94 5.52 7.81C5.35 7.67 5.17 7.61 4.96 7.63C4.76 7.66 4.59 7.75 4.45 7.91C4.33 8.06 4.28 8.24 4.3 8.44L5.3 19.92C5.36 20.64 5.65 21.24 6.17 21.72C6.69 22.2 7.31 22.43 8.04 22.43L15.96 22.43Z" fill="#191919" fill-opacity="1.000000" fill-rule="nonzero"/>
	</g>
</svg>
