<svg xmlns="http://www.w3.org/2000/svg" xmlns:xlink="http://www.w3.org/1999/xlink" width="24px" height="24px" viewBox="0 0 24 24" version="1.1">
    <title>ic_ellipsis_lined</title>
    <g id="ic_ellipsis_lined" stroke="none" stroke-width="1" fill="none" fill-rule="evenodd">
        <g id="编组">
            <rect id="矩形" fill="#9e9e9e" opacity="0" x="0" y="0" width="24" height="24"></rect>
            <path d="M12,18.01145 C12.829,18.01145 13.5,18.68245 13.5,19.51145 C13.5,20.34045 12.829,21.01145 12,21.01145 C11.171,21.01145 10.5,20.34045 10.5,19.51145 C10.5,18.68245 11.171,18.01145 12,18.01145 Z M12,10.51095 C12.829,10.51095 13.5,11.18195 13.5,12.01095 C13.5,12.83895 12.829,13.51095 12,13.51095 C11.171,13.51095 10.5,12.83895 10.5,12.01095 C10.5,11.18195 11.171,10.51095 12,10.51095 Z M12,2.98855 C12.829,2.98855 13.5,3.66055 13.5,4.48855 C13.5,5.31755 12.829,5.98855 12,5.98855 C11.171,5.98855 10.5,5.31755 10.5,4.48855 C10.5,3.66055 11.171,2.98855 12,2.98855 Z" id="形状结合" fill="#9e9e9e"></path>
        </g>
    </g>
</svg>