<svg width="16.000000" height="16.000000" viewBox="0 0 16 16" fill="none" xmlns="http://www.w3.org/2000/svg" xmlns:xlink="http://www.w3.org/1999/xlink">
	<desc>
			Created with Pixso.
	</desc>
	<defs>
		<clipPath id="clip56_3254">
			<rect width="16.000000" height="16.000000" fill="white" fill-opacity="0"/>
		</clipPath>
	</defs>
	<g clip-path="url(#clip56_3254)">
		<g opacity="0.000000">
			<rect width="16.000000" height="16.000000" fill="#000000" fill-opacity="1.000000"/>
		</g>
		<path d="M8 15.36C8.36 15.36 8.67 15.23 8.95 14.99C10.17 13.92 11.31 12.65 12.38 11.18C13.46 9.7 14 8.18 14 6.64C14 5.55 13.73 4.55 13.18 3.63C12.64 2.71 11.91 1.98 11 1.45C10.08 0.91 9.08 0.64 8 0.64C6.91 0.64 5.9 0.91 4.98 1.45C4.07 1.98 3.35 2.71 2.81 3.63C2.27 4.55 2 5.55 2 6.64C2 8.18 2.53 9.7 3.61 11.18C4.68 12.65 5.82 13.92 7.04 14.99C7.32 15.23 7.63 15.36 8 15.36ZM8 1.65C8.9 1.65 9.73 1.87 10.5 2.32C11.26 2.76 11.87 3.37 12.33 4.14C12.78 4.9 13.01 5.73 13.01 6.64C13.01 8 12.51 9.35 11.52 10.7C10.52 12.04 9.45 13.22 8.32 14.24C8.23 14.31 8.12 14.35 8 14.35C7.87 14.35 7.78 14.31 7.69 14.24C6.56 13.24 5.5 12.07 4.5 10.72C3.5 9.36 3.01 8 3.01 6.64C3.01 5.73 3.23 4.9 3.67 4.14C4.12 3.37 4.73 2.76 5.5 2.32C6.26 1.87 7.09 1.65 8 1.65ZM8 4.93C7.58 4.93 7.23 5.07 6.93 5.37C6.64 5.66 6.5 6.01 6.5 6.42C6.5 6.83 6.64 7.18 6.93 7.47C7.23 7.77 7.58 7.92 8 7.92C8.4 7.92 8.75 7.77 9.05 7.47C9.34 7.18 9.48 6.83 9.48 6.42C9.48 6.01 9.34 5.66 9.05 5.37C8.75 5.07 8.4 4.93 8 4.93Z" fill="#3093FA" fill-opacity="1.000000" fill-rule="nonzero"/>
	</g>
</svg>
