<svg xmlns="http://www.w3.org/2000/svg" xmlns:xlink="http://www.w3.org/1999/xlink" width="24px" height="24px" viewBox="0 0 24 24" version="1.1">
    <title>ic_tree_lined</title>
    <g id="ic_tree_lined" stroke="none" stroke-width="1" fill="none" fill-rule="evenodd">
        <g id="ic_expand_tree_lined">
            <rect id="矩形" fill="#9e9e9e" fill-rule="nonzero" opacity="0" x="0" y="0" width="24" height="24"></rect>
            <path d="M7.995,3 C8.82342712,3 9.495,3.67157288 9.495,4.5 L9.494,4.8 L14.505,4.8 L14.505,4.5 C14.505,3.67157288 15.1765729,3 16.005,3 L19.5,3 C20.3284271,3 21,3.67157288 21,4.5 L21,6.495 C21,7.32342712 20.3284271,7.995 19.5,7.995 L16.005,7.995 C15.1765729,7.995 14.505,7.32342712 14.505,6.495 L14.505,6.3 L9.494,6.3 L9.495,6.495 C9.495,7.32342712 8.82342712,7.995 7.995,7.995 L7.047,7.995 L7.04754639,10.4913025 C7.04754639,10.8709983 7.32970027,11.1847935 7.69577583,11.2344559 L7.79754639,11.2413025 L14.505,11.249 L14.505,11.0025 C14.505,10.1740729 15.1765729,9.5025 16.005,9.5025 L19.5,9.5025 C20.3284271,9.5025 21,10.1740729 21,11.0025 L21,12.9975 C21,13.8259271 20.3284271,14.4975 19.5,14.4975 L16.005,14.4975 C15.1765729,14.4975 14.505,13.8259271 14.505,12.9975 L14.505,12.749 L7.79754639,12.7413025 C7.53431057,12.7413025 7.28163287,12.6960978 7.04685267,12.6130279 L7.04754639,16.993927 C7.04754639,17.3736228 7.32970027,17.687418 7.69577583,17.7370804 L7.79754639,17.743927 L14.505,17.751 L14.505,17.505 C14.505,16.6765729 15.1765729,16.005 16.005,16.005 L19.5,16.005 C20.3284271,16.005 21,16.6765729 21,17.505 L21,19.5 C21,20.3284271 20.3284271,21 19.5,21 L16.005,21 C15.1765729,21 14.505,20.3284271 14.505,19.5 L14.505,19.251 L7.79754639,19.243927 C6.6066824,19.243927 5.63190147,18.3187654 5.5527372,17.1479758 L5.54754639,16.993927 L5.547,7.995 L4.5,7.995 C3.67157288,7.995 3,7.32342712 3,6.495 L3,4.5 C3,3.67157288 3.67157288,3 4.5,3 L7.995,3 Z M19.5,17.505 L16.005,17.505 L16.005,19.5 L19.5,19.5 L19.5,17.505 Z M19.5,11.0025 L16.005,11.0025 L16.005,12.9975 L19.5,12.9975 L19.5,11.0025 Z M7.995,4.5 L4.5,4.5 L4.5,6.495 L7.995,6.495 L7.995,4.5 Z M19.5,4.5 L16.005,4.5 L16.005,6.495 L19.5,6.495 L19.5,4.5 Z" id="形状结合" fill="#9e9e9e"></path>
        </g>
    </g>
</svg>