<svg width="24.000000" height="24.000000" viewBox="0 0 24 24" fill="none" xmlns="http://www.w3.org/2000/svg" xmlns:xlink="http://www.w3.org/1999/xlink">
	<desc>
			Created with Pixso.
	</desc>
	<defs>
		<clipPath id="clip63_9702">
			<rect id="ic_public_edit" width="24.000000" height="24.000000" fill="white" fill-opacity="0"/>
		</clipPath>
	</defs>
	<g clip-path="url(#clip63_9702)">
		<path id="path-1" d="M16.87 2C17.87 2 18.51 2.05 19 2.17L17.66 3.51C17.48 3.5 17.29 3.5 17.07 3.5L7.02 3.5L6.82 3.5C5.65 3.51 5.2 3.61 4.75 3.85C4.36 4.06 4.06 4.36 3.85 4.75C3.59 5.24 3.5 5.72 3.5 7.12L3.5 16.97L3.5 17.17C3.51 18.34 3.61 18.79 3.85 19.24C4.06 19.63 4.36 19.93 4.75 20.14C5.22 20.39 5.68 20.49 6.92 20.49L16.87 20.5C18.27 20.5 18.75 20.4 19.24 20.14C19.63 19.93 19.93 19.63 20.14 19.24C20.39 18.77 20.49 18.31 20.49 17.07L20.5 16.87L20.5 7.12C20.5 6.82 20.49 6.56 20.48 6.34L21.82 4.99C21.94 5.48 22 6.12 22 7.12L22 16.87L21.99 17.09C21.98 18.67 21.8 19.3 21.48 19.91C21.15 20.53 20.65 21.06 20.04 21.41C19.39 21.76 18.65 22 16.87 22L7.12 22L6.9 21.99C5.32 21.98 4.69 21.8 4.08 21.48C3.46 21.15 2.93 20.65 2.58 20.04C2.23 19.39 2 18.65 2 16.87L2 7.12C2 5.38 2.17 4.72 2.51 4.08C2.84 3.46 3.34 2.93 3.95 2.58C4.6 2.23 5.34 2 7.12 2L16.87 2ZM22.23 1.77C22.62 2.16 22.62 2.79 22.23 3.18L12.68 12.73C12.29 13.12 11.66 13.12 11.27 12.73C10.87 12.33 10.87 11.7 11.27 11.31L20.81 1.77C21.2 1.37 21.83 1.37 22.23 1.77Z" fill="#000000" fill-opacity="1.000000" fill-rule="nonzero"/>
		<path id="path-1" d="M19 2.17L17.66 3.51C17.48 3.5 17.29 3.5 17.07 3.5L7.02 3.5L6.82 3.5C5.65 3.51 5.2 3.61 4.75 3.85C4.36 4.06 4.06 4.36 3.85 4.75C3.59 5.24 3.5 5.72 3.5 7.12L3.5 16.97L3.5 17.17C3.51 18.34 3.61 18.79 3.85 19.24C4.06 19.63 4.36 19.93 4.75 20.14C5.22 20.39 5.68 20.49 6.92 20.49L16.87 20.5C18.27 20.5 18.75 20.4 19.24 20.14C19.63 19.93 19.93 19.63 20.14 19.24C20.39 18.77 20.49 18.31 20.49 17.07L20.5 16.87L20.5 7.12C20.5 6.82 20.49 6.56 20.48 6.34L21.82 4.99C21.94 5.48 22 6.12 22 7.12L22 16.87L21.99 17.09C21.98 18.67 21.8 19.3 21.48 19.91C21.15 20.53 20.65 21.06 20.04 21.41C19.39 21.76 18.65 22 16.87 22L7.12 22L6.9 21.99C5.32 21.98 4.69 21.8 4.08 21.48C3.46 21.15 2.93 20.65 2.58 20.04C2.23 19.39 2 18.65 2 16.87L2 7.12C2 5.38 2.17 4.72 2.51 4.08C2.84 3.46 3.34 2.93 3.95 2.58C4.6 2.23 5.34 2 7.12 2L16.87 2C17.87 2 18.51 2.05 19 2.17ZM22.23 3.18L12.68 12.73C12.29 13.12 11.66 13.12 11.27 12.73C10.87 12.33 10.87 11.7 11.27 11.31L20.81 1.77C21.2 1.37 21.83 1.37 22.23 1.77C22.62 2.16 22.62 2.79 22.23 3.18Z" stroke="#000000" stroke-opacity="0" stroke-width="1.000000"/>
	</g>
</svg>
