<?xml version="1.0" encoding="utf-8"?>
<!-- Generator: Adobe Illustrator 24.2.0, SVG Export Plug-In . SVG Version: 6.00 Build 0)  -->
<svg version="1.1" id="图层_1" xmlns="http://www.w3.org/2000/svg" xmlns:xlink="http://www.w3.org/1999/xlink" x="0px" y="0px"
	 viewBox="0 0 300 300" style="enable-background:new 0 0 300 300;" xml:space="preserve">
<style type="text/css">
	.st0{fill:#E9ECEF;}
	.st1{fill:#ADB5BD;}
</style>
<path class="st0" d="M150,0c83.1,0,150,66.9,150,150s-66.9,150-150,150S0,233.1,0,150S66.9,0,150,0z"/>
<path class="st1" d="M193.8,201.3c21.2-18.1,29.4-48.1,19.4-74.4c-10-26.2-35-44.4-63.1-44.4S96.2,100,86.9,126.3
	s-1.9,56.2,19.4,74.4L95,211.9c-3.1,3.1-3.1,7.5,0,10.6c1.2,1.2,3.1,2.5,5.6,2.5c1.9,0,3.8-0.6,5.6-2.5l13.1-13.1
	c19.4,10,42.5,10,61.9,0l13.1,13.1c3.1,3.1,7.5,3.1,10.6,0c3.1-3.1,3.1-7.5,0-10.6L193.8,201.3z M181.2,157.5h-34.4
	c-2.5,0-5-1.9-5-5v-45c0-1.9,0.6-4.4,2.5-5.6c1.9-1.2,3.7-1.9,5.6-1.9c3.8,0.6,6.9,3.8,6.9,7.5v34.4h24.4c3.8,0,6.9,2.5,7.5,6.9
	c0,1.9-0.6,4.4-1.9,5.6C185.6,156.3,183.7,157.5,181.2,157.5L181.2,157.5z M205,75c-6.2,0-12.5,3.1-16.2,8.1
	c11.9,6.9,21.9,16.9,28.8,28.8c6.9-5,10-14.4,6.9-23.1C221.3,80,213.8,75,205,75z M96.2,95.6c4.4-4.4,10-8.8,15.6-11.9
	c-5-6.9-13.1-10-21.2-8.1S76.2,83.8,75,91.9s1.9,16.2,8.1,20.6C86.9,106.3,91.2,100.6,96.2,95.6z"/>
</svg>
