<?xml version="1.0" encoding="utf-8"?>
<!-- Generator: Adobe Illustrator 24.2.0, SVG Export Plug-In . SVG Version: 6.00 Build 0)  -->
<svg version="1.1" id="图层_1" xmlns="http://www.w3.org/2000/svg" xmlns:xlink="http://www.w3.org/1999/xlink" x="0px" y="0px"
	 viewBox="0 0 212.3 250" style="enable-background:new 0 0 212.3 250;" xml:space="preserve">
<path d="M106.2,18.8c-48.3,0-87.4,39.1-87.4,87.4c0,22.1,8.4,43.4,23.5,59.6l59.2,63.4c2.4,2.6,6.5,2.8,9.2,0.3
	c0.1-0.1,0.2-0.2,0.3-0.3l59.2-63.4c32.9-35.3,31-90.6-4.3-123.5C149.6,27.1,128.3,18.7,106.2,18.8 M106.2,0
	c28.2,0,55.2,11.2,75,31.1c40.4,40.4,41.6,105.6,2.6,147.4L124.6,242c-9.5,10.2-25.5,10.8-35.7,1.2c-0.4-0.4-0.8-0.8-1.2-1.2
	l-59.2-63.4c-39-41.8-37.9-107,2.6-147.4C51,11.1,78,0,106.2,0z"/>
<path d="M106.2,143.8c-20.7,0-37.5-16.8-37.5-37.5s16.8-37.5,37.5-37.5s37.5,16.8,37.5,37.5S126.9,143.8,106.2,143.8z M106.2,87.5
	c-10.4,0-18.8,8.4-18.8,18.8s8.4,18.8,18.8,18.8s18.8-8.4,18.8-18.8S116.6,87.5,106.2,87.5z"/>
</svg>
