<?xml version="1.0" encoding="utf-8"?>
<!-- Generator: Adobe Illustrator 24.2.0, SVG Export Plug-In . SVG Version: 6.00 Build 0)  -->
<svg version="1.1" id="图层_1" xmlns="http://www.w3.org/2000/svg" xmlns:xlink="http://www.w3.org/1999/xlink" x="0px" y="0px"
	 viewBox="0 0 92 112" style="enable-background:new 0 0 92 112;" xml:space="preserve">
<style type="text/css">
	.st0{fill:#BEBEBE;}
</style>
<path class="st0" d="M89.7,15.7c-1.3-1.2-3-1.9-4.8-1.9c-0.2,0-0.3,0-0.5,0c-0.1,0-1.2,0.1-3,0.1c-2.9,0-8.7-0.2-14.1-1.5
	c-7-1.7-15.1-9.7-17.5-11.2C48.6,0.4,47.2,0,45.8,0c-1.4,0-2.8,0.3-3.9,1.2c-2,1.6-8.8,9.2-17.1,11.2C19.4,13.8,13.5,14,10.6,14
	c-1.8,0-2.9-0.1-3-0.1c-0.2,0-0.3,0-0.5,0c-1.8,0-3.5,0.7-4.8,1.9C0.8,17.1,0,18.9,0,20.9v17.6c0,64.9,42.8,73.2,44.6,73.6
	c0.4,0.1,0.8,0.1,1.3,0.1s0.8,0,1.2-0.1c1.8-0.3,44.9-8.7,44.9-73.6V20.9C92,18.9,91.2,17.1,89.7,15.7 M84.9,38.4
	c0,59.8-39.1,66.7-39.1,66.7S7.1,98.2,7.1,38.4V20.9c0,0,1.3,0.1,3.5,0.1c3.7,0,9.9-0.3,15.9-1.7C36.3,16.9,45.8,7,45.8,7
	s10,9.8,19.8,12.2c6,1.5,12.1,1.7,15.8,1.7c2.2,0,3.5-0.1,3.5-0.1S84.9,38.4,84.9,38.4z"/>
<path class="st0" d="M72.6,43.9c1.7-1.7,1.7-4.4,0-6c-1.7-1.7-4.4-1.7-6,0L39.2,65.3L25.4,51.5c-1.7-1.7-4.4-1.7-6,0
	c-1.7,1.7-1.7,4.4,0,6l16.8,16.8c1.7,1.7,4.4,1.7,6,0C42.2,74.3,72.6,43.9,72.6,43.9z"/>
</svg>
