<?xml version="1.0" encoding="utf-8"?>
<!-- Generator: Adobe Illustrator 24.2.0, SVG Export Plug-In . SVG Version: 6.00 Build 0)  -->
<svg version="1.1" id="图层_1" xmlns="http://www.w3.org/2000/svg" xmlns:xlink="http://www.w3.org/1999/xlink" x="0px" y="0px"
	 viewBox="0 0 260.5 248.9" style="enable-background:new 0 0 260.5 248.9;" xml:space="preserve">
<style type="text/css">
	.st0{fill:#FD4647;}
</style>
<path class="st0" d="M259.9,94.2c-1.4-4.4-5.2-7.6-9.8-8.3L174.8,75L141.1,6.8c-2-4.1-6.3-6.8-10.9-6.8c-4.6,0-8.8,2.6-10.9,6.8
	L85.7,75L10.4,85.9c-4.6,0.7-8.4,3.9-9.8,8.3c-1.4,4.4-0.2,9.2,3.1,12.4l54.5,53.1l-12.9,75c-0.8,4.6,1.1,9.2,4.8,11.9
	c3.7,2.7,8.7,3.1,12.8,0.9l67.3-35.4l67.3,35.4c1.8,0.9,3.7,1.4,5.6,1.4c2.5,0,5-0.8,7.1-2.3c3.7-2.7,5.6-7.3,4.8-11.9l-12.9-75
	l54.5-53.1C260.1,103.4,261.3,98.6,259.9,94.2z"/>
</svg>
