<?xml version="1.0" encoding="utf-8"?>
<!-- Generator: Adobe Illustrator 24.2.0, SVG Export Plug-In . SVG Version: 6.00 Build 0)  -->
<svg version="1.1" id="图层_1" xmlns="http://www.w3.org/2000/svg" xmlns:xlink="http://www.w3.org/1999/xlink" x="0px" y="0px"
	 viewBox="0 0 214.3 202.9" style="enable-background:new 0 0 214.3 202.9;" xml:space="preserve">
<style type="text/css">
	.st0{fill:#BEBEBE;}
</style>
<path class="st0" d="M148.7,156.9l1.2,1.1l14.6,14.6c2.2,2.2,2.2,5.8,0,8c-1.9,2-5,2.2-7.3,0.6l-0.7-0.6l-14.6-14.7
	c-5.9-5.9-15.5-5.9-21.3,0c-5.9,5.9-5.9,15.5,0,21.3c4.4,4.4,11,5.6,16.7,3.2c2.9-1.2,6.2,0.1,7.4,2.9c1.2,2.9-0.1,6.2-2.9,7.4l0,0
	c-13.4,5.8-28.9-0.4-34.6-13.7s0.4-28.9,13.7-34.6C130.1,148.4,141,150.1,148.7,156.9L148.7,156.9z M143.3,135
	c15.1-15.1,39.7-15.1,54.8,0c15.1,15.1,15.1,39.7,0,54.8c-15.1,15.1-39.7,15.1-54.8,0c0,0,0,0,0,0L129.4,176l-0.6-0.7
	c-1.8-2.5-1.2-6,1.3-7.9c2.2-1.6,5.3-1.4,7.3,0.6l13.9,13.9l1.2,1.1c11.4,10.1,28.8,9.1,38.9-2.3c10.1-11.4,9.1-28.8-2.3-38.9
	c-10.9-9.7-27.4-9.2-37.8,1.1c-2.2,2.2-5.8,2.2-8,0C141.1,140.8,141.1,137.2,143.3,135L143.3,135L143.3,135z M170.1,0
	c9.8,0,18.7,5.7,22.9,14.5L207.7,46c12,18.1,7.1,42.6-11.1,54.6c-18.1,12-42.6,7.1-54.6-11.1l0,0l-0.9-1.3h-0.6l-0.8,1.3
	c-6.9,10.3-18.3,16.7-30.7,17.4l-2,0c-13.1,0-25.4-6.5-32.7-17.4l-0.8-1.3h-0.6l-0.8,1.3c-6.9,10.3-18.3,16.7-30.7,17.4l-2,0l-0.9,0
	v68.4c0,6.2,4.7,11.5,10.9,12.1l1.2,0.1h37.5c3.6,0,6.6,2.9,6.6,6.5c0,3.3-2.4,6.1-5.7,6.5l-0.9,0.1H50.7
	c-13.4,0-24.4-10.4-25.3-23.7l-0.1-1.6v-71C10.1,98.5,0,83.8,0,67.5C0,60,2.1,52.8,5.6,47.3l15.3-32.7C25.1,5.7,34,0,43.9,0H170.1z
	 M170.1,13.1H43.9c-4.7,0-9,2.7-11,7L17.1,53.6c-6.2,13.1-0.7,28.8,12.4,35c12.1,5.8,26.5,1.5,33.6-9.8c1.1-2.3,3.4-3.8,5.9-3.8h8.4
	c2.5,0,4.8,1.5,5.9,3.8c6.2,13.1,21.9,18.7,35,12.5c5.5-2.6,9.9-7,12.5-12.5c1.1-2.3,3.4-3.7,5.9-3.8h8.4c2.5,0,4.8,1.5,5.9,3.8
	c6.2,13.1,21.9,18.7,35,12.5c9.2-4.3,15-13.6,15-23.7c0-5.2-1.5-10.1-4.7-15.1l-15.2-32.2C179.1,15.8,174.8,13.1,170.1,13.1
	L170.1,13.1z"/>
</svg>
