<?xml version="1.0" encoding="utf-8"?>
<!-- Generator: Adobe Illustrator 24.2.0, SVG Export Plug-In . SVG Version: 6.00 Build 0)  -->
<svg version="1.1" id="图层_1" xmlns="http://www.w3.org/2000/svg" xmlns:xlink="http://www.w3.org/1999/xlink" x="0px" y="0px"
	 viewBox="0 0 116.2 124.8" style="enable-background:new 0 0 116.2 124.8;" xml:space="preserve">
<style type="text/css">
	.st0{fill:#BEBEBE;}
</style>
<path class="st0" d="M113.3,25.1c0-0.3,0.1-0.6,0.1-1C113.4,10.8,88,0,56.7,0C25.4,0,0,10.8,0,24.1c0,0.5,0,0.9,0.1,1.3
	c0,0.2-0.1,0.4-0.1,0.6v23.3c0,0.3,0,0.6,0,0.8s0,0.6,0,0.8v50.3c0,0.2,0,0.3,0,0.5l0,0.2c0,0.1,0.1,0.1,0.1,0.2
	c0.1,0.4,0.2,0.8,0.5,1.2c2,4.7,8.6,13.9,34.8,18.8c10.7,2,24.5,2.7,37,1c2.7-1,1.7-7.1-2.6-6.5c-11.2,1.4-24.3,0.6-33.3-0.8
	c-11.5-2.1-26.2-6.5-28.2-14.2c0-0.1,0-0.2,0-0.3V88.7c4,2.2,10.8,5.3,19.7,7.6c7.8,2,19,3.3,29.7,3.4c2.2-0.5,3.7-6-1.5-6.9
	c-6.4,0.6-18-0.8-25.1-2.4c-10.6-2.5-20-5.9-22.8-12.9V62.9c9.9,6.9,27.9,11.6,48.3,11.6c20.7,0,38.8-4.8,48.7-11.8V77
	c0,2.3,1.8,4.1,4.1,4.1c2.3,0,4.1-1.8,4.1-4.1V26C113.4,25.7,113.4,25.4,113.3,25.1z M105.2,48.2H105c0.1,0.2,0.1,0.5,0.2,0.7v2.8
	c-2,8.9-23,15.9-48.5,15.9c-25.4,0-46.3-6.9-48.5-15.7v-3.1c0.1-0.2,0.1-0.3,0.1-0.5H8.2V36.7c9.9,7,27.9,11.6,48.4,11.6
	c20.6,0,38.6-4.7,48.5-11.7C105.2,36.6,105.2,48.2,105.2,48.2z M56.7,41.4c-26.9,0-48.7-7.7-48.7-17.2c0-9.5,21.8-17.2,48.7-17.2
	s48.7,7.7,48.7,17.2C105.4,33.7,83.6,41.4,56.7,41.4z"/>
<path class="st0" d="M92.7,77.6c-13,0-23.6,10.6-23.6,23.6s10.6,23.6,23.6,23.6s23.6-10.6,23.6-23.6S105.7,77.6,92.7,77.6z
	 M109.6,101.2c0,9.3-7.6,16.9-16.9,16.9s-16.9-7.6-16.9-16.9c0-9.3,7.6-16.9,16.9-16.9S109.6,91.9,109.6,101.2z"/>
<path class="st0" d="M100.8,106.6c-0.2-0.6-0.7-1.2-1.3-1.5l-5.4-3.1v-8.8c0-1.4-1.2-2.6-2.6-2.6c-1.4,0-2.6,1.2-2.6,2.6v10.2
	c0,0.8,0.5,1.5,1.5,2.1c0.2,0.2,0.5,0.4,0.7,0.5c0,0,0.1,0,0.1,0.1l6,3.6l0,0c0.4,0.2,0.8,0.4,1.3,0.4c0.9,0,1.7-0.5,2.2-1.3
	C101,108,101,107.3,100.8,106.6z"/>
</svg>
