<?xml version="1.0" encoding="utf-8"?>
<!-- Generator: Adobe Illustrator 24.2.0, SVG Export Plug-In . SVG Version: 6.00 Build 0)  -->
<svg version="1.1" id="图层_1" xmlns="http://www.w3.org/2000/svg" xmlns:xlink="http://www.w3.org/1999/xlink" x="0px" y="0px"
	 viewBox="0 0 261.9 261.9" style="enable-background:new 0 0 261.9 261.9;" xml:space="preserve">
<path d="M98.2,139.1H40.9v16.4h57.3V139.1L98.2,139.1z M40.9,196.4h57.3V180H40.9V196.4z M196.4,130.9c-36.1,0-65.5,29.4-65.5,65.5
	s29.4,65.5,65.5,65.5c36.1,0,65.5-29.4,65.5-65.5S232.5,130.9,196.4,130.9z M196.4,245.5c-27.1,0-49.1-22-49.1-49.1
	s22-49.1,49.1-49.1c27.1,0,49.1,22,49.1,49.1S223.5,245.5,196.4,245.5L196.4,245.5z M24.5,220.9c-2.2,0-4.2-0.9-5.8-2.4
	c-1.5-1.6-2.4-3.6-2.4-5.8v-98.2h189.3c5.3,0.8,10.4,2.1,15.2,4.1V57.3c0-6.6-2.6-12.7-7.2-17.4c-4.6-4.6-10.8-7.2-17.4-7.2H180V0
	h-16.4v32.7H65.5V0H49.1v32.7H24.5c-6.6,0-12.7,2.6-17.4,7.2C2.6,44.6,0,50.7,0,57.3v155.5c0,6.6,2.6,12.7,7.2,17.4
	c4.6,4.6,10.8,7.2,17.4,7.2h103.7c-4-5-7.2-10.5-9.6-16.4H24.5z M16.4,73.6V57.3c0-2.2,0.8-4.2,2.4-5.8c1.6-1.5,3.6-2.4,5.8-2.4
	h24.5v24.5h16.4V49.1h98.2v24.5H180V49.1h16.4c2.2,0,4.2,0.9,5.8,2.4c1.5,1.5,2.4,3.6,2.4,5.8v40.9H16.4L16.4,73.6L16.4,73.6z
	 M204.6,163.7h-16.4v40.9h40.9v-16.4h-24.5V163.7z"/>
</svg>
