<svg width="24.000000" height="24.000000" viewBox="0 0 24 24" fill="none" xmlns="http://www.w3.org/2000/svg" xmlns:xlink="http://www.w3.org/1999/xlink">
	<desc>
			Created with Pixso.
	</desc>
	<defs>
		<clipPath id="clip3_1807">
			<rect width="24.000000" height="24.000000" fill="white" fill-opacity="0"/>
		</clipPath>
	</defs>
	<g clip-path="url(#clip3_1807)">
		<g opacity="0.000000">
			<rect width="24.000000" height="24.000000" fill="#000000" fill-opacity="1.000000"/>
		</g>
		<path d="M22.0098 13.3402C21.9131 11.6932 21.4847 10.2496 20.7244 9.0094C19.9644 7.76978 18.8729 6.7334 17.4498 5.90027L18.4598 3.91028C18.5665 3.69019 18.6199 3.42688 18.6199 3.12024C18.6199 2.80847 18.5524 2.53564 18.4174 2.30176C18.3994 2.27051 18.3802 2.23999 18.3599 2.21021C18.1998 1.93689 17.9865 1.72693 17.7198 1.5802C17.4598 1.44019 17.1765 1.37024 16.8699 1.37024L7.09985 1.37024C6.79987 1.37024 6.51654 1.44019 6.24988 1.5802C6.17578 1.62207 6.10571 1.66895 6.03973 1.72107C5.87421 1.85168 5.73425 2.01477 5.61987 2.21021C5.58984 2.25244 5.56238 2.29602 5.53735 2.34106C5.41235 2.56604 5.34985 2.82581 5.34985 3.12024C5.34985 3.42688 5.40649 3.69019 5.51984 3.91028L6.49988 5.88025C5.23877 6.60266 4.2475 7.50488 3.52606 8.58704C3.46185 8.68335 3.39978 8.78113 3.33984 8.88025C2.59985 10.0936 2.14984 11.5802 1.98987 13.3402C1.9765 13.5002 1.96985 13.7402 1.96985 14.0602C1.96985 15.6643 2.31573 17.0702 3.00757 18.278C3.29053 18.7719 3.63123 19.2327 4.02985 19.6603C4.06219 19.6947 4.09479 19.7289 4.12769 19.7628C5.01154 20.6726 6.11224 21.3718 7.42987 21.8602C8.79651 22.3735 10.3198 22.6302 11.9999 22.6302C13.6799 22.6302 15.1965 22.387 16.5499 21.9003C17.9032 21.4136 19.0098 20.7136 19.8699 19.8003C20.105 19.5549 20.321 19.2957 20.5179 19.0227C20.963 18.4058 21.3102 17.7183 21.5599 16.9602C21.9199 15.8602 22.0698 14.6536 22.0098 13.3402ZM15.4998 13.3002C15.3597 13.4402 15.1865 13.5103 14.9797 13.5103L12.7397 13.5402L12.7397 14.8102L14.9797 14.8102C15.1865 14.8102 15.3597 14.8802 15.4998 15.0201C15.6464 15.1669 15.7198 15.3435 15.7198 15.5502C15.7198 15.7568 15.6464 15.9336 15.4998 16.0802C15.3597 16.2268 15.1865 16.3002 14.9797 16.3002L12.7397 16.3002L12.7397 18.5302C12.7397 18.6406 12.7198 18.7426 12.6797 18.8358C12.645 18.9171 12.595 18.9919 12.5298 19.0602C12.3831 19.2002 12.2064 19.2701 11.9998 19.2701C11.7931 19.2701 11.6131 19.2002 11.4598 19.0602C11.3766 18.9806 11.3159 18.8922 11.2779 18.7949C11.2458 18.713 11.2297 18.6248 11.2297 18.5302L11.2297 16.3002L8.99976 16.3002C8.79309 16.3002 8.61646 16.2268 8.46979 16.0802C8.32977 15.9336 8.25977 15.7568 8.25977 15.5502C8.25977 15.3435 8.32977 15.1669 8.46979 15.0201C8.61646 14.8802 8.79309 14.8102 8.99976 14.8102L11.2297 14.8102L11.2297 13.5402L9.01978 13.5402C8.81311 13.5402 8.63977 13.4635 8.49976 13.3102C8.35309 13.1569 8.27979 12.9768 8.27979 12.7701C8.27979 12.6681 8.29767 12.5734 8.33344 12.486C8.37006 12.3964 8.42554 12.3145 8.49976 12.2402C8.63977 12.0935 8.81311 12.0201 9.01978 12.0201L10.8498 12.0201L8.97974 10.1501C8.83307 10.0103 8.75977 9.8335 8.75977 9.62024C8.75977 9.41357 8.83307 9.24023 8.97974 9.10022C9.11975 8.95349 9.29309 8.88025 9.49976 8.88025C9.71307 8.88025 9.88977 8.95349 10.0298 9.10022L11.9498 11.0201L13.9197 9.05017C14.0664 8.90356 14.2431 8.8302 14.4498 8.8302C14.6564 8.8302 14.8331 8.90356 14.9797 9.05017C15.1198 9.19019 15.1898 9.36682 15.1898 9.5802C15.1898 9.78687 15.1198 9.96021 14.9797 10.1002L13.0798 12.0201L14.9797 12.0201C15.1865 12.0201 15.3597 12.0935 15.4998 12.2402C15.6464 12.3868 15.7198 12.5635 15.7198 12.7701C15.7198 12.9768 15.6464 13.1536 15.4998 13.3002Z" clip-rule="evenodd" fill="#E4480C" fill-opacity="1.000000" fill-rule="evenodd"/>
	</g>
</svg>
