<svg width="24.000000" height="24.000000" viewBox="0 0 24 24" fill="none" xmlns="http://www.w3.org/2000/svg" xmlns:xlink="http://www.w3.org/1999/xlink">
	<desc>
			Created with Pixso.
	</desc>
	<defs>
		<clipPath id="clip34_3076">
			<rect width="24.000000" height="24.000000" fill="white" fill-opacity="0"/>
		</clipPath>
	</defs>
	<g clip-path="url(#clip34_3076)">
		<g opacity="0.000000">
			<rect width="24.000000" height="24.000000" fill="#000000" fill-opacity="1.000000"/>
		</g>
		<path d="M22 13.34C21.81 10.04 20.29 7.56 17.45 5.9L18.45 3.91C18.56 3.69 18.62 3.42 18.62 3.12C18.62 2.76 18.53 2.46 18.36 2.21C18.2 1.93 17.98 1.72 17.71 1.58C17.45 1.44 17.17 1.37 16.87 1.37L7.09 1.37C6.79 1.37 6.51 1.44 6.25 1.58C5.98 1.72 5.77 1.93 5.62 2.21C5.43 2.46 5.34 2.76 5.34 3.12C5.34 3.42 5.4 3.69 5.51 3.91L6.5 5.88C5.12 6.66 4.07 7.66 3.33 8.88C2.59 10.09 2.14 11.58 1.98 13.34C1.97 13.5 1.96 13.74 1.96 14.06C1.96 16.32 2.65 18.18 4.02 19.66C4.92 20.62 6.06 21.35 7.42 21.86C8.79 22.37 10.31 22.63 12 22.63C13.68 22.63 15.19 22.38 16.54 21.9C17.9 21.41 19 20.71 19.87 19.79C20.63 19 21.2 18.05 21.56 16.96C21.92 15.86 22.06 14.65 22 13.34ZM18.79 18.77C18.06 19.53 17.12 20.12 15.97 20.52C14.81 20.92 13.48 21.12 12 21.12C10.51 21.12 9.18 20.9 8.02 20.47C6.87 20.03 5.9 19.41 5.13 18.6C3.9 17.27 3.35 15.55 3.47 13.44C3.65 11.82 4.08 10.48 4.78 9.42C5.48 8.35 6.5 7.49 7.84 6.84L8.51 6.53L6.88 3.24C6.84 3.12 6.84 3.04 6.88 3C6.93 2.92 7 2.88 7.09 2.88L16.87 2.88C16.98 2.88 17.05 2.92 17.09 3C17.13 3.09 17.14 3.17 17.11 3.24L15.43 6.58L16.1 6.91C18.87 8.27 20.34 10.44 20.5 13.42C20.56 14.52 20.44 15.52 20.16 16.43C19.87 17.33 19.41 18.11 18.79 18.77ZM14.98 13.51C15.18 13.51 15.36 13.44 15.5 13.3C15.64 13.15 15.72 12.97 15.72 12.77C15.72 12.56 15.64 12.38 15.5 12.24C15.36 12.09 15.18 12.02 14.98 12.02L13.08 12.02L14.98 10.1C15.12 9.96 15.18 9.78 15.18 9.58C15.18 9.36 15.12 9.19 14.98 9.05C14.83 8.9 14.65 8.83 14.45 8.83C14.24 8.83 14.06 8.9 13.92 9.05L11.95 11.02L10.03 9.1C9.88 8.95 9.71 8.88 9.5 8.88C9.29 8.88 9.12 8.95 8.97 9.1C8.83 9.24 8.75 9.41 8.75 9.62C8.75 9.83 8.83 10.01 8.97 10.15L10.85 12.02L9.01 12.02C8.81 12.02 8.63 12.09 8.5 12.24C8.35 12.38 8.27 12.56 8.27 12.77C8.27 12.97 8.35 13.15 8.5 13.31C8.63 13.46 8.81 13.54 9.01 13.54L11.23 13.54L11.23 14.81L9 14.81C8.79 14.81 8.61 14.88 8.46 15.02C8.32 15.16 8.25 15.34 8.25 15.55C8.25 15.75 8.32 15.93 8.46 16.08C8.61 16.22 8.79 16.29 9 16.29L11.23 16.29L11.23 18.53C11.23 18.73 11.3 18.91 11.46 19.06C11.61 19.2 11.79 19.27 12 19.27C12.2 19.27 12.38 19.2 12.53 19.06C12.67 18.91 12.74 18.73 12.74 18.53L12.74 16.29L14.98 16.29C15.18 16.29 15.36 16.22 15.5 16.08C15.64 15.93 15.72 15.75 15.72 15.55C15.72 15.34 15.64 15.16 15.5 15.02C15.36 14.88 15.18 14.81 14.98 14.81L12.74 14.81L12.74 13.54L14.98 13.51Z" fill="#000000" fill-opacity="0.600000" fill-rule="nonzero"/>
	</g>
</svg>
