<svg width="24.000000" height="24.000000" viewBox="0 0 24 24" fill="none" xmlns="http://www.w3.org/2000/svg" xmlns:xlink="http://www.w3.org/1999/xlink">
	<desc>
			Created with Pixso.
	</desc>
	<defs>
		<clipPath id="clip3_1817">
			<rect width="24.000000" height="24.000000" fill="white" fill-opacity="0"/>
		</clipPath>
	</defs>
	<g clip-path="url(#clip3_1817)">
		<path d="M22.15 11.15C22.11 11.15 22.08 11.16 22.05 11.17C22.02 11.16 21.99 11.15 21.95 11.15L12.84 11.15L12.84 1.95C12.84 1.93 12.83 1.91 12.83 1.89C12.83 1.88 12.84 1.86 12.84 1.84C12.84 1.79 12.84 1.73 12.82 1.68C12.81 1.62 12.8 1.57 12.78 1.52C12.76 1.47 12.73 1.42 12.7 1.37C12.67 1.32 12.63 1.28 12.59 1.24C12.55 1.2 12.51 1.17 12.47 1.14C12.42 1.11 12.37 1.08 12.32 1.06C12.27 1.04 12.21 1.02 12.16 1.01C12.11 1 12.05 1 12 1C5.93 1 1 5.93 1 12C1 18.06 5.93 23 12 23C18.06 23 23 18.06 23 12C23 11.94 22.99 11.88 22.98 11.83C22.97 11.78 22.95 11.72 22.93 11.67C22.91 11.62 22.88 11.57 22.85 11.52C22.82 11.48 22.79 11.44 22.75 11.4C22.71 11.36 22.67 11.32 22.62 11.29C22.57 11.26 22.52 11.23 22.47 11.21C22.42 11.19 22.37 11.18 22.31 11.17C22.26 11.15 22.2 11.15 22.15 11.15ZM12 21.3C6.86 21.3 2.69 17.13 2.69 12C2.69 7.15 6.41 3.16 11.15 2.73L11.15 12C11.15 12.05 11.15 12.11 11.17 12.16C11.18 12.21 11.19 12.27 11.21 12.32C11.23 12.37 11.26 12.42 11.29 12.47C11.32 12.51 11.36 12.55 11.4 12.59C11.44 12.63 11.48 12.67 11.52 12.7C11.57 12.73 11.62 12.76 11.67 12.78C11.72 12.8 11.78 12.81 11.83 12.82C11.88 12.84 11.94 12.84 12 12.84L21.26 12.84C20.83 17.58 16.84 21.3 12 21.3ZM15 3.18C15.33 3.3 15.65 3.43 15.96 3.57C16.27 3.72 16.57 3.89 16.87 4.07C17.16 4.25 17.44 4.45 17.72 4.66C17.99 4.87 18.25 5.1 18.49 5.34C18.74 5.58 18.97 5.84 19.19 6.1C19.41 6.37 19.62 6.65 19.8 6.94C19.99 7.23 20.16 7.53 20.32 7.84C20.48 8.14 20.61 8.46 20.73 8.78C20.75 8.84 20.78 8.89 20.8 8.94C20.83 8.99 20.87 9.03 20.9 9.07C20.94 9.12 20.98 9.15 21.03 9.19C21.07 9.22 21.12 9.25 21.17 9.27C21.22 9.3 21.27 9.32 21.33 9.33C21.38 9.35 21.44 9.35 21.5 9.36C21.55 9.36 21.61 9.36 21.66 9.35C21.72 9.34 21.77 9.32 21.83 9.31C21.88 9.29 21.93 9.26 21.98 9.23C22.03 9.2 22.07 9.17 22.11 9.13C22.15 9.09 22.19 9.05 22.22 9C22.26 8.96 22.28 8.91 22.31 8.86C22.33 8.81 22.35 8.75 22.36 8.7C22.37 8.64 22.38 8.59 22.38 8.53C22.38 8.47 22.38 8.42 22.37 8.36C22.36 8.31 22.34 8.25 22.32 8.2C22.18 7.82 22.02 7.44 21.84 7.08C21.66 6.71 21.46 6.36 21.23 6.01C21.01 5.67 20.77 5.34 20.51 5.02C20.25 4.71 19.98 4.41 19.69 4.12C19.4 3.84 19.09 3.57 18.77 3.32C18.44 3.06 18.11 2.83 17.76 2.62C17.41 2.41 17.05 2.21 16.68 2.04C16.31 1.86 15.93 1.71 15.55 1.58C15.49 1.56 15.44 1.55 15.39 1.54C15.33 1.54 15.28 1.53 15.22 1.54C15.16 1.54 15.11 1.55 15.06 1.56C15 1.58 14.95 1.6 14.9 1.62C14.85 1.65 14.8 1.68 14.76 1.71C14.72 1.74 14.68 1.78 14.64 1.82C14.6 1.86 14.57 1.91 14.54 1.96C14.51 2.01 14.49 2.06 14.47 2.11C14.46 2.16 14.44 2.21 14.44 2.27C14.43 2.32 14.43 2.38 14.43 2.44C14.43 2.49 14.44 2.55 14.46 2.6C14.47 2.65 14.49 2.7 14.51 2.75C14.54 2.8 14.57 2.85 14.6 2.9C14.64 2.94 14.67 2.98 14.71 3.02C14.76 3.05 14.8 3.09 14.85 3.11C14.9 3.14 14.95 3.16 15 3.18Z" fill="#000000" fill-opacity="0.600000" fill-rule="nonzero"/>
	</g>
</svg>
