<?xml version="1.0" standalone="no"?><!--
  - Copyright (c) 2025 Huawei Device Co., Ltd.
  - Licensed under the Apache License, Version 2.0 (the "License");
  - you may not use this file except in compliance with the License.
  - You may obtain a copy of the License at
  -
  -     http://www.apache.org/licenses/LICENSE-2.0
  -
  - Unless required by applicable law or agreed to in writing, software
  - distributed under the License is distributed on an "AS IS" BASIS,
  - WITHOUT WARRANTIES OR CONDITIONS OF ANY KIND, either express or implied.
  - See the License for the specific language governing permissions and
  - limitations under the License.
  -->

<!DOCTYPE svg PUBLIC "-//W3C//DTD SVG 1.1//EN" "http://www.w3.org/Graphics/SVG/1.1/DTD/svg11.dtd"><svg t="1741317303941" class="icon" viewBox="0 0 1024 1024" version="1.1" xmlns="http://www.w3.org/2000/svg" p-id="34304" width="16" height="16" xmlns:xlink="http://www.w3.org/1999/xlink"><path d="M474.58679343 587.16868738c-11.45302241 0-22.90604486-4.37057868-31.6472022-13.11173601-17.48231469-17.48231469-17.48231469-45.83841849 0-63.29440437l487.24053555-487.24053552c17.48231469-17.48231469 45.81208967-17.48231469 63.29440431 0 17.48231469 17.48231469 17.48231469 45.83841849 0 63.29440441L506.23399561 574.05695137a44.61676276 44.61676276 0 0 1-31.64720218 13.11173601z" fill="#2c2c2c" p-id="34305"></path><path d="M904.16728498 1017.19676833h-781.96497912c-62.68884228 0-113.68770304-50.99886074-113.68770305-113.71403181v-781.96497913c0-62.71517108 50.99886074-113.71403182 113.66137425-113.71403185l457.51533479 0.0263288c24.72273117 0 44.75893818 20.03620706 44.75893819 44.7589382s-20.03620706 44.75893818-44.75893819 44.7589382l-457.51533479-0.02632877c-13.2960375 0-24.14349786 10.84746035-24.14349785 24.16982661v781.96497915c0 13.32236631 10.84746035 24.1698266 24.16982665 24.16982664h781.96497912c13.32236631 0 24.1698266-10.84746035 24.16982668-24.16982664V403.42008173c0-24.72273117 20.06253583-44.75893818 44.75893815-44.75893828 24.72273117 0 44.75893818 20.03620706 44.7589382 44.75893828V903.50906532c0 62.68884228-50.99886074 113.68770304-113.68770303 113.68770301z" fill="#2c2c2c" p-id="34306"></path></svg>