<svg width="20.000000" height="20.000000" viewBox="0 0 20 20" fill="none" xmlns="http://www.w3.org/2000/svg" xmlns:xlink="http://www.w3.org/1999/xlink">
	<desc>
			Created with Pixso.
	</desc>
	<defs/>
	<path d="M17.7142 7.84375C17.7142 3.51175 14.1965 0 9.85718 0L9.74622 0C5.40686 0 2 3.51175 2 7.84375C2 12.5845 7.52063 18.096 9.30566 19.7542C9.33484 19.7815 9.36169 19.8065 9.38892 19.8315C9.51758 19.9355 9.67859 20 9.85669 20C10.0369 20 10.2004 19.934 10.3293 19.8275C10.3544 19.8045 10.3796 19.7815 10.4064 19.7563C12.1892 18.1005 17.7142 12.5865 17.7142 7.84375ZM9.93872 1.6015C13.4562 1.6015 16.2938 4.3615 16.2938 7.74899C16.2938 10.6121 13.5286 14.5395 9.93884 18.0301C6.34668 14.5365 3.5835 10.6109 3.5835 7.74899C3.5835 4.32611 6.33008 1.6015 9.81201 1.6015L9.93872 1.6015Z" clip-rule="evenodd" fill="#666666" fill-opacity="1.000000" fill-rule="evenodd"/>
	<path d="M9.85 9.28C8.67 9.28 7.71 8.32 7.71 7.14C7.71 5.95 8.67 5 9.85 5C11.04 5 12 5.95 12 7.14C12 8.32 11.04 9.28 9.85 9.28Z" fill="#666666" fill-opacity="1.000000" fill-rule="evenodd"/>
	<path d="" fill="#979797" fill-opacity="0" fill-rule="evenodd"/>
</svg>
