<svg width="62.236328" height="61.031372" viewBox="0 0 62.2363 61.0314" fill="none" xmlns="http://www.w3.org/2000/svg" xmlns:xlink="http://www.w3.org/1999/xlink">
	<desc>
			Created with Pixso.
	</desc>
	<defs>
		<filter id="filter_11_4066_dd" x="0.000000" y="0.000000" width="62.236328" height="61.031372" filterUnits="userSpaceOnUse" color-interpolation-filters="sRGB">
			<feFlood flood-opacity="0" result="BackgroundImageFix"/>
			<feColorMatrix in="SourceAlpha" type="matrix" values="0 0 0 0 0 0 0 0 0 0 0 0 0 0 0 0 0 0 127 0" result="hardAlpha"/>
			<feOffset dx="0" dy="0"/>
			<feGaussianBlur stdDeviation="8.42105"/>
			<feComposite in2="hardAlpha" operator="out" k2="-1" k3="1"/>
			<feColorMatrix type="matrix" values="0 0 0 0 0 0 0 0 0 0 0 0 0 0 0 0 0 0 0.1 0"/>
			<feBlend mode="normal" in2="BackgroundImageFix" result="effect_dropShadow_1"/>
			<feBlend mode="normal" in="SourceGraphic" in2="effect_dropShadow_1" result="shape"/>
		</filter>
		<linearGradient x1="31.118652" y1="12.184204" x2="31.118652" y2="44.184204" id="paint_linear_11_4063_0" gradientUnits="userSpaceOnUse">
			<stop stop-color="#EB543D"/>
			<stop offset="1.000000" stop-color="#FF724D"/>
		</linearGradient>
		<linearGradient x1="39.155239" y1="17.049992" x2="36.020512" y2="21.253656" id="paint_linear_11_4064_0" gradientUnits="userSpaceOnUse">
			<stop stop-color="#E63E24" stop-opacity="0.800000"/>
			<stop offset="1.000000" stop-color="#E63E24" stop-opacity="0.000000"/>
		</linearGradient>
		<linearGradient x1="36.852154" y1="18.642406" x2="39.374012" y2="15.934659" id="paint_linear_11_4065_0" gradientUnits="userSpaceOnUse">
			<stop stop-color="#FF8666"/>
			<stop offset="1.000000" stop-color="#FF7B59" stop-opacity="0.501961"/>
		</linearGradient>
	</defs>
	<rect x="15.118652" y="12.184204" width="32.000000" height="32.000000" fill="#FFFFFF" fill-opacity="0"/>
	<path d="M20.8 12.18L35.11 12.18C35.42 12.18 35.73 12.31 35.95 12.53L42.76 19.33C42.99 19.55 43.11 19.86 43.11 20.18L43.11 42.49C43.11 43.42 42.36 44.18 41.43 44.18L20.8 44.18C19.87 44.18 19.11 43.42 19.11 42.49L19.11 13.86C19.11 12.93 19.87 12.18 20.8 12.18Z" fill="url(#paint_linear_11_4063_0)" fill-opacity="1.000000" fill-rule="evenodd"/>
	<path d="M20.8 12.18L35.11 12.18C35.42 12.18 35.73 12.31 35.95 12.53L42.76 19.33C42.99 19.55 43.11 19.86 43.11 20.18L43.11 42.49C43.11 43.42 42.36 44.18 41.43 44.18L20.8 44.18C19.87 44.18 19.11 43.42 19.11 42.49L19.11 13.86C19.11 12.93 19.87 12.18 20.8 12.18Z" fill="url(#paint_linear_11_4064_0)" fill-opacity="1.000000" fill-rule="evenodd"/>
	<path d="M35.77 12.31L35.78 12.33C35.78 12.32 35.78 12.32 35.77 12.31ZM36.18 13.2C36.18 13.22 36.18 13.24 36.18 13.25L36.18 17.47C36.18 18.36 36.9 19.07 37.78 19.07L42.03 19.07C42.41 19.07 42.76 19.26 42.97 19.55C42.91 19.45 42.84 19.37 42.77 19.29L35.89 12.43C36.07 12.64 36.18 12.91 36.18 13.2Z" fill="url(#paint_linear_11_4065_0)" fill-opacity="1.000000" fill-rule="evenodd"/>
	<g filter="url(#filter_11_4066_dd)">
		<path d="M28.58 33.24L33.65 33.24L31.11 28.85L28.58 33.24Z" fill="#000000" fill-opacity="0" fill-rule="nonzero"/>
		<path d="M33.65 33.24L31.11 28.85L28.58 33.24L33.65 33.24Z" stroke="#FFFFFF" stroke-opacity="1.000000" stroke-width="1.000000" stroke-linejoin="round"/>
		<path d="" fill="#000000" fill-opacity="0" fill-rule="nonzero"/>
		<path d="M31.19 28.46C31.81 27.73 32.13 27.17 32.13 26.8C32.13 26.23 31.67 25.76 31.11 25.76C30.55 25.76 30.1 26.23 30.1 26.8C30.1 27.17 30.41 27.73 31.04 28.46" stroke="#FFFFFF" stroke-opacity="1.000000" stroke-width="1.000000" stroke-linejoin="round"/>
		<path d="" fill="#000000" fill-opacity="0" fill-rule="nonzero"/>
		<path d="M33.96 33.48C34.28 34.39 34.6 34.93 34.92 35.12C35.42 35.41 36.06 35.25 36.34 34.76C36.62 34.28 36.44 33.65 35.94 33.36C35.62 33.18 34.98 33.17 34.03 33.35" stroke="#FFFFFF" stroke-opacity="1.000000" stroke-width="1.000000" stroke-linejoin="round"/>
		<path d="" fill="#000000" fill-opacity="0" fill-rule="nonzero"/>
		<path d="M28.19 33.35C27.24 33.17 26.61 33.18 26.29 33.36C25.79 33.65 25.61 34.28 25.89 34.76C26.17 35.25 26.8 35.41 27.3 35.12C27.62 34.93 27.94 34.39 28.27 33.48" stroke="#FFFFFF" stroke-opacity="1.000000" stroke-width="1.000000" stroke-linejoin="round"/>
	</g>
</svg>
