<svg width="16.000000" height="16.000000" viewBox="0 0 16 16" fill="none" xmlns="http://www.w3.org/2000/svg" xmlns:xlink="http://www.w3.org/1999/xlink">
	<desc>
			Created with Pixso.
	</desc>
	<defs>
		<clipPath id="clip11_4090">
			<rect width="16.000000" height="16.000000" fill="white" fill-opacity="0"/>
		</clipPath>
	</defs>
	<g clip-path="url(#clip11_4090)">
		<circle cx="8.000000" cy="8.000000" r="8.000000" fill="#FFFFFF" fill-opacity="0"/>
		<circle cx="8.000000" cy="8.000000" r="8.000000" stroke="#000000" stroke-opacity="0" stroke-width="1.500000"/>
		<path d="M1.83325 9.33325C1.09644 9.33325 0.5 8.73682 0.5 8C0.5 7.26306 1.09644 6.66663 1.83325 6.66663C2.57031 6.66663 3.16675 7.26306 3.16675 8C3.16675 8.73682 2.57031 9.33325 1.83325 9.33325ZM8 9.33325C7.26318 9.33325 6.66675 8.73596 6.66675 8C6.66675 7.26306 7.26318 6.66663 8 6.66663C8.73682 6.66663 9.33325 7.26306 9.33325 8C9.33325 8.73596 8.73682 9.33325 8 9.33325ZM12.833 8C12.833 7.26392 13.4294 6.66663 14.1665 6.66663C14.9033 6.66663 15.4998 7.26392 15.4998 8C15.4998 8.73682 14.9033 9.33325 14.1665 9.33325C13.4294 9.33325 12.833 8.73682 12.833 8Z" clip-rule="evenodd" fill="#999999" fill-opacity="1.000000" fill-rule="evenodd"/>
	</g>
</svg>
