<svg width="24.000000" height="24.000000" viewBox="0 0 24 24" fill="none" xmlns="http://www.w3.org/2000/svg" xmlns:xlink="http://www.w3.org/1999/xlink">
	<desc>
			Created with Pixso.
	</desc>
	<defs>
		<clipPath id="clip24_4063">
			<rect width="24.000000" height="24.000000" fill="white" fill-opacity="0"/>
		</clipPath>
	</defs>
	<g clip-path="url(#clip24_4063)">
		<circle cx="12.000000" cy="11.876831" r="10.000000" fill="#FFFFFF" fill-opacity="0"/>
		<circle cx="12.000000" cy="11.876831" r="10.000000" stroke="#000000" stroke-opacity="0" stroke-width="1.500000"/>
		<path d="M19.91 8.36L19.91 18.51C19.91 20.02 18.9 21.25 17.65 21.25L6.34 21.25C5.09 21.25 4.08 20.02 4.08 18.51L4.08 5.23C4.08 3.72 5.09 2.5 6.34 2.5L17.65 2.5C18.9 2.5 19.91 3.72 19.91 5.23L19.91 5.69" stroke="#666666" stroke-opacity="1.000000" stroke-width="1.500000" stroke-linejoin="round" stroke-linecap="round"/>
		<line x1="9.083344" y1="17.251831" x2="14.916687" y2="17.251831" stroke="#666666" stroke-opacity="1.000000" stroke-width="1.500000"/>
		<path d="M11.61 13.12L10.65 13.62C10.28 13.81 9.83 13.67 9.63 13.31C9.56 13.16 9.53 12.99 9.56 12.83L9.74 11.76C9.79 11.49 9.7 11.22 9.5 11.02L8.73 10.27C8.43 9.98 8.42 9.5 8.71 9.21C8.83 9.09 8.98 9.01 9.14 8.99L10.21 8.83C10.49 8.79 10.72 8.62 10.84 8.37L11.32 7.4C11.51 7.03 11.96 6.88 12.33 7.06C12.48 7.14 12.6 7.26 12.67 7.4L13.15 8.37C13.27 8.62 13.5 8.79 13.78 8.83L14.85 8.99C15.26 9.05 15.54 9.43 15.48 9.84C15.46 10 15.38 10.15 15.26 10.27L14.49 11.02C14.29 11.22 14.2 11.49 14.25 11.76L14.43 12.83C14.5 13.24 14.23 13.63 13.82 13.7C13.66 13.73 13.49 13.7 13.34 13.62L12.38 13.12C12.14 12.99 11.85 12.99 11.61 13.12Z" fill="#FFFFFF" fill-opacity="0" fill-rule="evenodd"/>
		<path d="M10.65 13.62C10.28 13.81 9.83 13.67 9.63 13.31C9.56 13.16 9.53 12.99 9.56 12.83L9.74 11.76C9.79 11.49 9.7 11.22 9.5 11.02L8.73 10.27C8.43 9.98 8.42 9.5 8.71 9.21C8.83 9.09 8.98 9.01 9.14 8.99L10.21 8.83C10.49 8.79 10.72 8.62 10.84 8.37L11.32 7.4C11.51 7.03 11.96 6.88 12.33 7.06C12.48 7.14 12.6 7.26 12.67 7.4L13.15 8.37C13.27 8.62 13.5 8.79 13.78 8.83L14.85 8.99C15.26 9.05 15.54 9.43 15.48 9.84C15.46 10 15.38 10.15 15.26 10.27L14.49 11.02C14.29 11.22 14.2 11.49 14.25 11.76L14.43 12.83C14.5 13.24 14.23 13.63 13.82 13.7C13.66 13.73 13.49 13.7 13.34 13.62L12.38 13.12C12.14 12.99 11.85 12.99 11.61 13.12L10.65 13.62Z" stroke="#666666" stroke-opacity="1.000000" stroke-width="1.200000" stroke-linejoin="round"/>
	</g>
</svg>
