<svg width="12.000000" height="12.000000" viewBox="0 0 12 12" fill="none" xmlns="http://www.w3.org/2000/svg" xmlns:xlink="http://www.w3.org/1999/xlink">
	<desc>
		Created with Pixso.
	</desc>
	<defs>
		<clipPath id="clip70_1151">
			<rect id="ic_public_warning" width="12.000000" height="12.000000" fill="white" fill-opacity="0"/>
		</clipPath>
	</defs>
	<g clip-path="url(#clip70_1151)">
		<path id="矢量 6" d="M0.5 6C0.5 2.96 2.96 0.5 6 0.5C9.03 0.5 11.5 2.96 11.5 6C11.5 9.03 9.03 11.5 6 11.5C2.96 11.5 0.5 9.03 0.5 6Z" fill="#E84026" fill-opacity="1.000000" fill-rule="evenodd"/>
		<path id="矢量 6" d="M5.66 7.75L5.66 3C5.66 2.81 5.81 2.66 6 2.66C6.18 2.66 6.33 2.81 6.33 3L6.33 7.75C6.33 7.93 6.18 8.08 6 8.08C5.81 8.08 5.66 7.93 5.66 7.75Z" fill="#FFFFFF" fill-opacity="1.000000" fill-rule="evenodd"/>
		<path id="矢量 6" d="M6.43 9.06C6.43 9.3 6.24 9.5 6 9.5C5.75 9.5 5.56 9.3 5.56 9.06C5.56 8.82 5.75 8.62 6 8.62C6.24 8.62 6.43 8.82 6.43 9.06Z" fill="#FFFFFF" fill-opacity="1.000000" fill-rule="evenodd"/>
	</g>
</svg>
