<svg width="312.000000" height="67.000000" viewBox="0 0 312 67" fill="none" xmlns="http://www.w3.org/2000/svg" xmlns:xlink="http://www.w3.org/1999/xlink">
	<desc>
		Created with Pixso.
	</desc>
	<defs>
		<linearGradient x1="53.500000" y1="0.000000" x2="53.500000" y2="44.000000" id="paint_linear_10_3011_0" gradientUnits="userSpaceOnUse">
			<stop stop-color="#FFE3D2" stop-opacity="0.000000"/>
			<stop offset="1.000000" stop-color="#FFE3D2"/>
		</linearGradient>
		<linearGradient x1="258.500000" y1="0.000000" x2="258.500000" y2="44.000000" id="paint_linear_10_3012_0" gradientUnits="userSpaceOnUse">
			<stop stop-color="#FFE3D2" stop-opacity="0.000000"/>
			<stop offset="1.000000" stop-color="#FFE3D2"/>
		</linearGradient>
	</defs>
	<rect id="矩形 3427" y="44.000000" rx="11.500000" width="312.000000" height="23.000000" fill="#EFA679" fill-opacity="1.000000"/>
	<rect id="矩形 3428" x="11.000000" y="58.000000" rx="4.000000" width="290.000000" height="8.000000" fill="#ED6F21" fill-opacity="1.000000"/>
	<path id="矢量 3" d="M18 52C18 49.79 19.79 48 22 48C24.2 48 26 49.79 26 52C26 54.2 24.2 56 22 56C19.79 56 18 54.2 18 52ZM34 52C34 49.79 35.79 48 38 48C40.2 48 42 49.79 42 52C42 54.2 40.2 56 38 56C35.79 56 34 54.2 34 52ZM54 48C51.79 48 50 49.79 50 52C50 54.2 51.79 56 54 56C56.2 56 58 54.2 58 52C58 49.79 56.2 48 54 48Z" fill="#FFFFFF" fill-opacity="1.000000" fill-rule="evenodd"/>
	<path id="矢量 4" d="M254 52C254 49.79 255.79 48 258 48C260.2 48 262 49.79 262 52C262 54.2 260.2 56 258 56C255.79 56 254 54.2 254 52ZM270 52C270 49.79 271.79 48 274 48C276.2 48 278 49.79 278 52C278 54.2 276.2 56 274 56C271.79 56 270 54.2 270 52ZM290 48C287.79 48 286 49.79 286 52C286 54.2 287.79 56 290 56C292.2 56 294 54.2 294 52C294 49.79 292.2 48 290 48Z" fill="#FFFFFF" fill-opacity="1.000000" fill-rule="evenodd"/>
	<rect id="矩形 3429" x="49.000000" width="9.000000" height="44.000000" fill="url(#paint_linear_10_3011_0)" fill-opacity="1.000000"/>
	<rect id="矩形 3430" x="254.000000" width="9.000000" height="44.000000" fill="url(#paint_linear_10_3012_0)" fill-opacity="1.000000"/>
</svg>
