<svg width="16.000000" height="16.000000" viewBox="0 0 16 16" fill="none" xmlns="http://www.w3.org/2000/svg" xmlns:xlink="http://www.w3.org/1999/xlink">
	<desc>
			Created with Pixso.
	</desc>
	<defs/>
	<rect x="0.500000" y="0.500000" rx="7.500000" width="15.000000" height="15.000000" stroke="#666666" stroke-opacity="1.000000" stroke-width="1.000000"/>
	<path d="M5.33 3C5.09 3 4.86 3.05 4.66 3.17C4.46 3.29 4.3 3.46 4.18 3.67C4.06 3.88 4 4.11 4 4.36L4 11.63C4 11.88 4.06 12.11 4.18 12.31C4.3 12.52 4.46 12.69 4.66 12.81C4.86 12.93 5.09 13 5.33 13L10.66 13C10.9 13 11.13 12.93 11.33 12.81C11.53 12.69 11.69 12.52 11.81 12.31C11.93 12.11 12 11.88 12 11.63L12 4.36C12 4.11 11.93 3.88 11.81 3.67C11.69 3.46 11.53 3.29 11.33 3.17C11.13 3.05 10.9 3 10.66 3L5.33 3ZM11.33 11.63C11.33 11.82 11.27 11.98 11.14 12.12C11 12.25 10.85 12.32 10.66 12.32L5.33 12.32C5.14 12.32 4.99 12.25 4.86 12.12C4.73 11.98 4.67 11.82 4.67 11.63L4.67 4.36C4.67 4.17 4.73 4.01 4.86 3.87C4.99 3.74 5.14 3.67 5.33 3.67L10.66 3.67C10.85 3.67 11 3.74 11.14 3.87C11.27 4.01 11.33 4.17 11.33 4.36L11.33 11.63ZM6 5.38C5.91 5.38 5.83 5.42 5.76 5.48C5.7 5.55 5.67 5.63 5.67 5.72C5.67 5.82 5.7 5.9 5.76 5.97C5.83 6.03 5.91 6.06 6 6.06L9.98 6.06C10.07 6.06 10.15 6.03 10.21 5.97C10.28 5.9 10.31 5.82 10.31 5.72C10.31 5.63 10.28 5.55 10.21 5.48C10.15 5.42 10.07 5.38 9.98 5.38L6 5.38ZM6 7.67C5.91 7.67 5.83 7.7 5.76 7.77C5.7 7.83 5.67 7.91 5.67 8C5.67 8.1 5.7 8.18 5.76 8.25C5.83 8.31 5.91 8.35 6 8.35L9.98 8.35C10.07 8.35 10.15 8.31 10.21 8.25C10.28 8.18 10.31 8.1 10.31 8C10.31 7.91 10.28 7.83 10.21 7.77C10.15 7.7 10.07 7.67 9.98 7.67L6 7.67ZM6 9.93C5.91 9.93 5.83 9.96 5.76 10.03C5.7 10.1 5.67 10.18 5.67 10.28C5.67 10.37 5.7 10.45 5.76 10.52C5.83 10.58 5.91 10.62 6 10.62L7.99 10.62C8.08 10.62 8.16 10.58 8.22 10.52C8.28 10.45 8.32 10.37 8.32 10.28C8.32 10.18 8.29 10.1 8.23 10.03C8.16 9.96 8.09 9.93 8 9.93L6 9.93Z" fill="#666666" fill-opacity="1.000000" fill-rule="nonzero"/>
</svg>
