<svg width="16.000000" height="16.000000" viewBox="0 0 16 16" fill="none" xmlns="http://www.w3.org/2000/svg" xmlns:xlink="http://www.w3.org/1999/xlink">
	<desc>
			Created with Pixso.
	</desc>
	<defs/>
	<rect width="16.000000" height="16.000000" fill="#FFFFFF" fill-opacity="0"/>
	<path d="M15.5 8C15.5 12.13 12.13 15.5 8 15.5C3.86 15.5 0.5 12.13 0.5 8C0.5 3.86 3.86 0.5 8 0.5C12.13 0.5 15.5 3.86 15.5 8ZM14.5 8C14.5 11.58 11.58 14.5 8 14.5C4.41 14.5 1.5 11.58 1.5 8C1.5 4.41 4.41 1.5 8 1.5C11.58 1.5 14.5 4.41 14.5 8ZM7.58 10.3C7.58 10.28 7.58 10.22 7.58 10.14C7.57 9.8 7.57 9.56 7.59 9.44C7.6 9.32 7.63 9.2 7.67 9.09C7.71 8.97 7.77 8.84 7.86 8.71C7.99 8.51 8.2 8.3 8.49 8.09C8.64 7.98 8.93 7.8 9.17 7.66C9.32 7.56 9.45 7.44 9.56 7.31C9.63 7.22 9.7 7.12 9.75 7.01C9.83 6.88 9.88 6.74 9.92 6.59C9.95 6.45 9.97 6.31 9.97 6.16C9.97 6.03 9.96 5.9 9.93 5.77C9.9 5.66 9.87 5.56 9.82 5.45C9.79 5.37 9.75 5.29 9.7 5.21C9.62 5.09 9.53 4.97 9.42 4.87C9.34 4.79 9.25 4.72 9.16 4.66C9.05 4.58 8.94 4.52 8.82 4.47C8.73 4.43 8.63 4.4 8.53 4.38C8.38 4.35 8.24 4.33 8.08 4.33C7.93 4.33 7.77 4.35 7.62 4.38C7.53 4.41 7.44 4.44 7.34 4.47C7.22 4.52 7.11 4.58 7 4.66C6.91 4.72 6.82 4.79 6.74 4.87C6.64 4.97 6.55 5.08 6.47 5.2C6.42 5.28 6.38 5.36 6.34 5.45C6.3 5.55 6.26 5.66 6.24 5.76C6.21 5.89 6.19 6.03 6.19 6.16C6.19 6.44 5.97 6.66 5.69 6.66C5.41 6.66 5.19 6.44 5.19 6.16C5.19 5.96 5.22 5.76 5.26 5.56C5.3 5.39 5.35 5.22 5.42 5.05C5.49 4.91 5.56 4.77 5.65 4.64C5.76 4.46 5.89 4.3 6.04 4.15C6.17 4.03 6.31 3.92 6.45 3.82C6.61 3.71 6.78 3.62 6.96 3.55C7.12 3.49 7.27 3.44 7.43 3.4C7.64 3.35 7.86 3.33 8.08 3.33C8.3 3.33 8.52 3.35 8.72 3.4C8.89 3.43 9.05 3.48 9.2 3.55C9.38 3.62 9.55 3.71 9.71 3.82C9.86 3.92 9.99 4.03 10.12 4.15C10.27 4.3 10.41 4.46 10.52 4.64C10.61 4.77 10.68 4.91 10.74 5.05C10.82 5.22 10.87 5.39 10.91 5.57C10.95 5.76 10.97 5.96 10.97 6.16C10.97 6.39 10.94 6.62 10.89 6.84C10.83 7.06 10.75 7.28 10.63 7.49C10.52 7.69 10.4 7.87 10.25 8.04C10.1 8.2 9.93 8.35 9.74 8.48C9.72 8.5 9.67 8.53 9.59 8.57C9.1 8.87 8.8 9.09 8.7 9.24C8.66 9.31 8.63 9.38 8.61 9.43C8.59 9.46 8.59 9.51 8.58 9.56C8.57 9.63 8.57 9.82 8.58 10.11C8.58 10.21 8.58 10.27 8.58 10.3C8.58 10.58 8.36 10.8 8.08 10.8C7.8 10.8 7.58 10.58 7.58 10.3ZM7.49 12.08C7.49 11.76 7.75 11.5 8.08 11.5C8.41 11.5 8.68 11.76 8.68 12.08C8.68 12.4 8.41 12.66 8.08 12.66C7.75 12.66 7.49 12.4 7.49 12.08Z" fill="#000000" fill-opacity="1.000000" fill-rule="evenodd"/>
</svg>
