<svg width="36.000000" height="36.000000" viewBox="0 0 36 36" fill="none" xmlns="http://www.w3.org/2000/svg" xmlns:xlink="http://www.w3.org/1999/xlink">
	<desc>
			Created with Pixso.
	</desc>
	<defs>
		<clipPath id="clip1_59">
			<rect width="30.000000" height="30.000000" transform="translate(3.000000 3.000000)" fill="white" fill-opacity="0"/>
		</clipPath>
		<linearGradient x1="18.000000" y1="5.640381" x2="18.000000" y2="30.363371" id="paint_linear_1_61_0" gradientUnits="userSpaceOnUse">
			<stop stop-color="#FF9F2F"/>
			<stop offset="1.000000" stop-color="#ED6F21"/>
		</linearGradient>
	</defs>
	<g opacity="0.000000">
		<rect width="36.000000" height="36.000000" fill="#FF9F2F" fill-opacity="1.000000"/>
	</g>
	<g clip-path="url(#clip1_59)">
		<path d="M19.56 16.26C19.03 16.26 18.59 16.44 18.22 16.81C17.85 17.18 17.67 17.63 17.67 18.15C17.67 18.66 17.85 19.1 18.22 19.47C18.59 19.83 19.03 20.01 19.56 20.01C20.07 20.01 20.51 19.83 20.87 19.47C21.24 19.1 21.42 18.66 21.42 18.15C21.42 17.63 21.24 17.18 20.87 16.81C20.51 16.44 20.07 16.26 19.56 16.26ZM24.68 7.64C24.07 6.9 23.36 6.36 22.56 6.02C21.76 5.69 20.87 5.57 19.88 5.67L10.26 6.72C9.37 6.82 8.57 7.12 7.85 7.62C7.11 8.12 6.54 8.75 6.13 9.52C5.72 10.29 5.52 11.11 5.52 12L5.52 24C5.52 24.88 5.72 25.7 6.13 26.47C6.54 27.24 7.11 27.87 7.85 28.36C8.57 28.85 9.37 29.15 10.26 29.25L19.88 30.3C20.72 30.44 21.57 30.34 22.42 30.01C23.27 29.68 23.97 29.14 24.51 28.37L26.55 28.37C27.25 28.37 27.9 28.2 28.51 27.85C29.12 27.5 29.6 27.02 29.95 26.41C30.3 25.8 30.47 25.15 30.47 24.45L30.47 11.61C30.47 10.88 30.3 10.22 29.95 9.61C29.6 9 29.12 8.52 28.51 8.17C27.9 7.82 27.25 7.64 26.55 7.64L24.68 7.64ZM10.43 27.38C9.57 27.31 8.85 26.95 8.26 26.3C7.67 25.65 7.37 24.88 7.37 24L7.37 12C7.37 11.11 7.67 10.35 8.26 9.7C8.85 9.05 9.57 8.68 10.43 8.61L20.07 7.56C20.63 7.5 21.2 7.61 21.8 7.88C22.38 8.17 22.87 8.58 23.26 9.12C23.65 9.65 23.85 10.26 23.85 10.95L23.85 25.05C23.85 25.66 23.69 26.25 23.37 26.8C23.05 27.35 22.6 27.77 22.02 28.07C21.44 28.37 20.79 28.49 20.07 28.43L10.43 27.38ZM28.58 24.45C28.58 25 28.38 25.49 27.98 25.9C27.58 26.31 27.1 26.52 26.55 26.52L25.5 26.52C25.65 26 25.73 25.5 25.73 25.05L25.73 10.95C25.73 10.39 25.65 9.92 25.5 9.53L26.55 9.53C27.1 9.53 27.58 9.74 27.98 10.14C28.38 10.56 28.58 11.05 28.58 11.61L28.58 24.45Z" fill="url(#paint_linear_1_61_0)" fill-opacity="1.000000" fill-rule="nonzero"/>
		<g opacity="0.000000">
			<rect x="2.999977" y="3.000000" width="30.000000" height="30.000000" fill="#000000" fill-opacity="1.000000"/>
		</g>
	</g>
</svg>
