<svg width="16.000000" height="16.000000" viewBox="0 0 16 16" fill="none" xmlns="http://www.w3.org/2000/svg" xmlns:xlink="http://www.w3.org/1999/xlink">
	<desc>
			Created with Pixso.
	</desc>
	<defs>
		<clipPath id="clip62_1267">
			<rect width="16.000000" height="16.000000" fill="white" fill-opacity="0"/>
		</clipPath>
	</defs>
	<g clip-path="url(#clip62_1267)">
		<g opacity="0.000000">
			<rect width="16.000000" height="16.000000" fill="#D8D8D8" fill-opacity="1.000000"/>
			<rect width="16.000000" height="16.000000" stroke="#000000" stroke-opacity="0" stroke-width="1.000000"/>
		</g>
		<path d="M10.33 1.73C10.58 1.73 10.79 1.92 10.82 2.16L10.83 2.23L10.83 2.87L12 2.87C13.06 2.87 13.93 3.7 13.99 4.75L14 4.87L14 5.9C14 6.15 13.81 6.36 13.56 6.39L13.5 6.4L4.17 6.4C3.89 6.4 3.67 6.17 3.67 5.9C3.67 5.64 3.86 5.44 4.1 5.4L4.17 5.4L13 5.4L13 4.87C13 4.35 12.6 3.92 12.09 3.87L12 3.87L4 3.87C3.48 3.87 3.05 4.27 3 4.77L3 4.87L3 12.26C3 12.78 3.39 13.21 3.9 13.25L4 13.26L12 13.26C12.51 13.26 12.94 12.86 12.99 12.36L13 12.26L13 7.57C13 7.29 13.22 7.07 13.5 7.07C13.75 7.07 13.96 7.26 13.99 7.5L14 12.26C14 13.32 13.16 14.19 12.11 14.26L12 14.26L4 14.26C2.93 14.26 2.06 13.43 2 12.38L2 12.26L2 4.87C2 3.8 2.83 2.93 3.88 2.87L4 2.87L5.16 2.87L5.16 2.23C5.16 1.95 5.39 1.73 5.66 1.73C5.91 1.73 6.12 1.92 6.16 2.16L6.16 2.23L6.16 2.87L9.83 2.87L9.83 2.23C9.83 1.95 10.05 1.73 10.33 1.73ZM7.67 7.75C7.95 7.75 8.17 7.97 8.17 8.25L8.17 10.25L9.71 10.25C9.99 10.25 10.22 10.47 10.22 10.75C10.22 11.02 9.99 11.25 9.71 11.25L7.71 11.25C7.41 11.25 7.17 11.01 7.17 10.71L7.17 8.25C7.17 7.97 7.4 7.75 7.67 7.75Z" fill="#191919" fill-opacity="1.000000" fill-rule="evenodd"/>
		<path d="M10.82 2.16L10.83 2.23L10.83 2.87L12 2.87C13.06 2.87 13.93 3.7 13.99 4.75L14 4.87L14 5.9C14 6.15 13.81 6.36 13.56 6.39L13.5 6.4L4.17 6.4C3.89 6.4 3.67 6.17 3.67 5.9C3.67 5.64 3.86 5.44 4.1 5.4L4.17 5.4L13 5.4L13 4.87C13 4.35 12.6 3.92 12.09 3.87L12 3.87L4 3.87C3.48 3.87 3.05 4.27 3 4.77L3 4.87L3 12.26C3 12.78 3.39 13.21 3.9 13.25L4 13.26L12 13.26C12.51 13.26 12.94 12.86 12.99 12.36L13 12.26L13 7.57C13 7.29 13.22 7.07 13.5 7.07C13.75 7.07 13.96 7.26 13.99 7.5L14 12.26C14 13.32 13.16 14.19 12.11 14.26L12 14.26L4 14.26C2.93 14.26 2.06 13.43 2 12.38L2 12.26L2 4.87C2 3.8 2.83 2.93 3.88 2.87L4 2.87L5.16 2.87L5.16 2.23C5.16 1.95 5.39 1.73 5.66 1.73C5.91 1.73 6.12 1.92 6.16 2.16L6.16 2.23L6.16 2.87L9.83 2.87L9.83 2.23C9.83 1.95 10.05 1.73 10.33 1.73C10.58 1.73 10.79 1.92 10.82 2.16ZM8.17 8.25L8.17 10.25L9.71 10.25C9.99 10.25 10.22 10.47 10.22 10.75C10.22 11.02 9.99 11.25 9.71 11.25L7.71 11.25C7.41 11.25 7.17 11.01 7.17 10.71L7.17 8.25C7.17 7.97 7.4 7.75 7.67 7.75C7.95 7.75 8.17 7.97 8.17 8.25Z" stroke="#000000" stroke-opacity="0" stroke-width="1.000000"/>
	</g>
</svg>
