<svg width="14.000000" height="14.000000" viewBox="0 0 14 14" fill="none" xmlns="http://www.w3.org/2000/svg" xmlns:xlink="http://www.w3.org/1999/xlink">
	<desc>
			Created with Pixso.
	</desc>
	<defs>
		<clipPath id="clip62_1273">
			<rect width="14.000000" height="14.000000" fill="white" fill-opacity="0"/>
		</clipPath>
	</defs>
	<g clip-path="url(#clip62_1273)">
		<path d="M0.43 6.99C0.43 5.96 0.43 4.94 0.43 3.91C0.43 3.42 0.49 2.92 0.62 2.44C0.88 1.43 1.55 0.82 2.56 0.59C3.07 0.48 3.59 0.43 4.12 0.43C6.08 0.43 8.05 0.43 10.01 0.43C10.51 0.43 11.01 0.49 11.49 0.6C12.54 0.86 13.16 1.52 13.4 2.57C13.51 3.06 13.56 3.56 13.56 4.07C13.56 6.06 13.56 8.04 13.56 10.03C13.56 10.52 13.5 11.01 13.39 11.49C13.13 12.54 12.47 13.16 11.42 13.4C10.91 13.51 10.39 13.56 9.87 13.56C7.91 13.56 5.95 13.56 4 13.56C3.5 13.56 3 13.5 2.51 13.39C1.46 13.13 0.83 12.47 0.59 11.42C0.47 10.89 0.43 10.35 0.43 9.81C0.43 8.87 0.43 7.93 0.43 6.99Z" fill="#FFFFFF" fill-opacity="0" fill-rule="nonzero"/>
		<path d="M0.43 3.91C0.43 3.42 0.49 2.92 0.62 2.44C0.88 1.43 1.55 0.82 2.56 0.59C3.07 0.48 3.59 0.43 4.12 0.43C6.08 0.43 8.05 0.43 10.01 0.43C10.51 0.43 11.01 0.49 11.49 0.6C12.54 0.86 13.16 1.52 13.4 2.57C13.51 3.06 13.56 3.56 13.56 4.07C13.56 6.06 13.56 8.04 13.56 10.03C13.56 10.52 13.5 11.01 13.39 11.49C13.13 12.54 12.47 13.16 11.42 13.4C10.91 13.51 10.39 13.56 9.87 13.56C7.91 13.56 5.95 13.56 4 13.56C3.5 13.56 3 13.5 2.51 13.39C1.46 13.13 0.83 12.47 0.59 11.42C0.47 10.89 0.43 10.35 0.43 9.81C0.43 8.87 0.43 7.93 0.43 6.99C0.43 5.96 0.43 4.94 0.43 3.91Z" stroke="#FFFFFF" stroke-opacity="0" stroke-width="2.000000"/>
		<path d="M0.43 6.99C0.43 5.96 0.43 4.94 0.43 3.91C0.43 3.42 0.49 2.92 0.62 2.44C0.88 1.43 1.55 0.82 2.56 0.59C3.07 0.48 3.59 0.43 4.12 0.43C6.08 0.43 8.05 0.43 10.01 0.43C10.51 0.43 11.01 0.49 11.49 0.6C12.54 0.86 13.16 1.52 13.4 2.57C13.51 3.06 13.56 3.56 13.56 4.07C13.56 6.06 13.56 8.04 13.56 10.03C13.56 10.52 13.5 11.01 13.39 11.49C13.13 12.54 12.47 13.16 11.42 13.4C10.91 13.51 10.39 13.56 9.87 13.56C7.91 13.56 5.95 13.56 4 13.56C3.5 13.56 3 13.5 2.51 13.39C1.46 13.13 0.83 12.47 0.59 11.42C0.47 10.89 0.43 10.35 0.43 9.81C0.43 8.87 0.43 7.93 0.43 6.99Z" fill="#000000" fill-opacity="0" fill-rule="nonzero"/>
		<path d="M0.43 3.91C0.43 3.42 0.49 2.92 0.62 2.44C0.88 1.43 1.55 0.82 2.56 0.59C3.07 0.48 3.59 0.43 4.12 0.43C6.08 0.43 8.05 0.43 10.01 0.43C10.51 0.43 11.01 0.49 11.49 0.6C12.54 0.86 13.16 1.52 13.4 2.57C13.51 3.06 13.56 3.56 13.56 4.07C13.56 6.06 13.56 8.04 13.56 10.03C13.56 10.52 13.5 11.01 13.39 11.49C13.13 12.54 12.47 13.16 11.42 13.4C10.91 13.51 10.39 13.56 9.87 13.56C7.91 13.56 5.95 13.56 4 13.56C3.5 13.56 3 13.5 2.51 13.39C1.46 13.13 0.83 12.47 0.59 11.42C0.47 10.89 0.43 10.35 0.43 9.81C0.43 8.87 0.43 7.93 0.43 6.99C0.43 5.96 0.43 4.94 0.43 3.91Z" stroke="#FFFFFF" stroke-opacity="0" stroke-width="2.000000"/>
		<circle cx="7.000000" cy="7.000000" r="7.000000" fill="#FFFFFF" fill-opacity="0"/>
		<circle cx="7.000000" cy="7.000000" r="7.000000" stroke="#000000" stroke-opacity="0" stroke-width="2.000000"/>
		<path d="M0.82 1.56L1.41 0.97C1.6 0.78 1.9 0.74 2.13 0.88L4.83 2.5L2.35 4.98L0.73 2.27C0.59 2.04 0.63 1.75 0.82 1.56ZM9.33 7.41L12.58 10.66C13.15 11.23 13.15 12.16 12.58 12.73C12.01 13.3 11.09 13.3 10.52 12.73L7.27 9.48L9.33 7.41Z" fill="#FFFFFF" fill-opacity="0" fill-rule="evenodd"/>
		<path d="M1.41 0.97C1.6 0.78 1.9 0.74 2.13 0.88L4.83 2.5L2.35 4.98L0.73 2.27C0.59 2.04 0.63 1.75 0.82 1.56L1.41 0.97ZM12.58 10.66C13.15 11.23 13.15 12.16 12.58 12.73C12.01 13.3 11.09 13.3 10.52 12.73L7.27 9.48L9.33 7.41L12.58 10.66Z" stroke="#191919" stroke-opacity="1.000000" stroke-width="1.000000" stroke-linejoin="round"/>
		<line x1="3.511719" y1="3.657471" x2="5.659668" y2="5.805298" stroke="#191919" stroke-opacity="1.000000" stroke-width="1.000000"/>
		<path d="M3.3 3.86L5.45 6.01L5.86 5.59L3.71 3.45L3.3 3.86Z" fill="#FFFFFF" fill-opacity="0" fill-rule="nonzero"/>
		<path d="M5.45 6.01L5.86 5.59L3.71 3.45L3.3 3.86L5.45 6.01Z" stroke="#FFFFFF" stroke-opacity="0" stroke-width="1.000000"/>
		<path d="M9.11 1.49C9.84 0.76 10.93 0.62 11.8 1.05L10.66 2.2C10.37 2.49 10.37 2.95 10.66 3.24C10.94 3.53 11.41 3.53 11.69 3.24L12.84 2.08C13.29 2.95 13.14 4.06 12.41 4.79C11.72 5.48 10.7 5.65 9.85 5.29L5.2 9.94C5.56 10.79 5.39 11.81 4.7 12.5C3.97 13.23 2.88 13.37 2.01 12.94L3.16 11.79C3.45 11.5 3.45 11.04 3.16 10.75C2.88 10.47 2.41 10.47 2.13 10.75L0.97 11.91C0.52 11.04 0.67 9.93 1.4 9.2C2.09 8.51 3.11 8.34 3.96 8.7L8.61 4.05C8.25 3.2 8.42 2.18 9.11 1.49Z" fill="#FFFFFF" fill-opacity="0" fill-rule="evenodd"/>
		<path d="M11.8 1.05L10.66 2.2C10.37 2.49 10.37 2.95 10.66 3.24C10.94 3.53 11.41 3.53 11.69 3.24L12.84 2.08C13.29 2.95 13.14 4.06 12.41 4.79C11.72 5.48 10.7 5.65 9.85 5.29L5.2 9.94C5.56 10.79 5.39 11.81 4.7 12.5C3.97 13.23 2.88 13.37 2.01 12.94L3.16 11.79C3.45 11.5 3.45 11.04 3.16 10.75C2.88 10.47 2.41 10.47 2.13 10.75L0.97 11.91C0.52 11.04 0.67 9.93 1.4 9.2C2.09 8.51 3.11 8.34 3.96 8.7L8.61 4.05C8.25 3.2 8.42 2.18 9.11 1.49C9.84 0.76 10.93 0.62 11.8 1.05Z" stroke="#191919" stroke-opacity="1.000000" stroke-width="1.000000" stroke-linejoin="round"/>
	</g>
</svg>
