<svg width="16.000000" height="16.000000" viewBox="0 0 16 16" fill="none" xmlns="http://www.w3.org/2000/svg" xmlns:xlink="http://www.w3.org/1999/xlink">
	<desc>
			Created with Pixso.
	</desc>
	<defs>
		<clipPath id="clip62_1283">
			<rect width="16.000000" height="16.000000" fill="white" fill-opacity="0"/>
		</clipPath>
	</defs>
	<g clip-path="url(#clip62_1283)">
		<g opacity="0.000000">
			<rect width="16.000000" height="16.000000" fill="#D8D8D8" fill-opacity="1.000000"/>
			<rect width="16.000000" height="16.000000" stroke="#000000" stroke-opacity="0" stroke-width="1.000000"/>
		</g>
		<path d="M7.26 1.37C9.52 1.13 11.67 2.02 13.09 3.7C13.56 4.25 13.54 5.07 13.07 5.62L12.99 5.71L7.66 11.03C7.49 11.21 7.21 11.23 7.01 11.08L4.29 8.37C4.09 8.17 4.09 7.86 4.29 7.66C4.47 7.48 4.75 7.47 4.94 7.61L7.31 9.97L12.28 5C12.45 4.84 12.48 4.58 12.37 4.4C11.16 2.97 9.29 2.16 7.37 2.36C4.73 2.64 2.59 4.82 2.35 7.47C2.03 11.01 4.97 13.95 8.51 13.64C11.13 13.41 13.3 11.31 13.62 8.71C13.71 7.93 13.69 7.29 13.48 6.56C13.4 6.29 13.55 6.01 13.82 5.94C14.08 5.86 14.36 6.01 14.43 6.28C14.68 7.14 14.72 7.91 14.61 8.83C14.23 11.9 11.68 14.36 8.6 14.63C4.44 15 0.98 11.54 1.36 7.38C1.64 4.26 4.15 1.7 7.26 1.37Z" fill="#191919" fill-opacity="1.000000" fill-rule="evenodd"/>
		<path d="M13.09 3.7C13.56 4.25 13.54 5.07 13.07 5.62L12.99 5.71L7.66 11.03C7.49 11.21 7.21 11.23 7.01 11.08L4.29 8.37C4.09 8.17 4.09 7.86 4.29 7.66C4.47 7.48 4.75 7.47 4.94 7.61L7.31 9.97L12.28 5C12.45 4.84 12.48 4.58 12.37 4.4C11.16 2.97 9.29 2.16 7.37 2.36C4.73 2.64 2.59 4.82 2.35 7.47C2.03 11.01 4.97 13.95 8.51 13.64C11.13 13.41 13.3 11.31 13.62 8.71C13.71 7.93 13.69 7.29 13.48 6.56C13.4 6.29 13.55 6.01 13.82 5.94C14.08 5.86 14.36 6.01 14.43 6.28C14.68 7.14 14.72 7.91 14.61 8.83C14.23 11.9 11.68 14.36 8.6 14.63C4.44 15 0.98 11.54 1.36 7.38C1.64 4.26 4.15 1.7 7.26 1.37C9.52 1.13 11.67 2.02 13.09 3.7Z" stroke="#000000" stroke-opacity="0" stroke-width="1.000000"/>
	</g>
</svg>
