<svg width="16.000000" height="16.000000" viewBox="0 0 16 16" fill="none" xmlns="http://www.w3.org/2000/svg" xmlns:xlink="http://www.w3.org/1999/xlink">
	<desc>
			Created with Pixso.
	</desc>
	<defs/>
	<circle cx="8.000000" cy="8.000000" r="8.000000" fill="#EE3B55" fill-opacity="1.000000"/>
	<circle cx="8.000000" cy="8.000000" r="8.000000" stroke="#000000" stroke-opacity="0" stroke-width="1.000000"/>
	<mask id="mask64_1637" mask-type="alpha" maskUnits="userSpaceOnUse" x="3.000000" y="3.000000" width="10.000000" height="10.000000">
		<path d="M13 3L13 13L3 13L3 3L13 3ZM11.2 4L4.79 4C4.35 4 3.97 4.28 3.83 4.7L3.23 6.53L3.23 6.56L3.22 6.59C3.21 6.66 3.2 6.73 3.2 6.8C3.2 7.53 3.81 8.13 4.55 8.13L4.6 8.12C5.07 8.11 5.45 7.95 5.68 7.67L5.7 7.64C5.93 7.95 6.35 8.13 6.85 8.13L6.9 8.12C7.36 8.11 7.75 7.95 7.97 7.67L7.99 7.64C8.23 7.95 8.64 8.13 9.14 8.13L9.2 8.12C9.66 8.11 10.04 7.95 10.27 7.67L10.29 7.64L10.31 7.67C10.55 7.96 10.95 8.13 11.44 8.13C12.18 8.13 12.79 7.53 12.79 6.8C12.79 6.75 12.78 6.69 12.77 6.61L12.77 6.57L12.76 6.54L12.15 4.7C12.02 4.28 11.64 4 11.2 4Z" fill="#FFFFFF" fill-opacity="1.000000" fill-rule="nonzero"/>
	</mask>
	<g mask="url(#mask64_1637)">
		<mask id="mask_64_1645" fill="white">
			<path d="M10.5955 4.6062C11.2571 4.6062 11.7934 5.14258 11.7934 5.80408L11.7934 10.9951C11.7934 11.6567 11.2571 12.193 10.5955 12.193L10.5955 10.5958C10.5955 10.0444 10.1486 9.59753 9.59723 9.59753C9.0459 9.59753 8.59897 10.0444 8.59897 10.5958L8.59891 12.1929L5.40451 12.193C4.74292 12.193 4.2066 11.6567 4.2066 10.9951L4.2066 5.80408C4.2066 5.14258 4.74292 4.6062 5.40451 4.6062L10.5955 4.6062ZM7.05618 9.07947L5.89456 9.07947C5.73419 9.07947 5.60416 9.20947 5.60416 9.36987L5.60416 10.5315C5.60416 10.6918 5.73419 10.8219 5.89456 10.8219L7.05618 10.8219C7.21658 10.8219 7.34659 10.6918 7.34659 10.5315L7.34659 9.36987C7.34659 9.20947 7.21658 9.07947 7.05618 9.07947Z" clip-rule="evenodd" fill="" fill-opacity="1.000000" fill-rule="evenodd"/>
		</mask>
		<path d="M10.5955 4.6062C11.2571 4.6062 11.7934 5.14258 11.7934 5.80408L11.7934 10.9951C11.7934 11.6567 11.2571 12.193 10.5955 12.193L10.5955 10.5958C10.5955 10.0444 10.1486 9.59753 9.59723 9.59753C9.0459 9.59753 8.59897 10.0444 8.59897 10.5958L8.59891 12.1929L5.40451 12.193C4.74292 12.193 4.2066 11.6567 4.2066 10.9951L4.2066 5.80408C4.2066 5.14258 4.74292 4.6062 5.40451 4.6062L10.5955 4.6062ZM7.05618 9.07947L5.89456 9.07947C5.73419 9.07947 5.60416 9.20947 5.60416 9.36987L5.60416 10.5315C5.60416 10.6918 5.73419 10.8219 5.89456 10.8219L7.05618 10.8219C7.21658 10.8219 7.34659 10.6918 7.34659 10.5315L7.34659 9.36987C7.34659 9.20947 7.21658 9.07947 7.05618 9.07947Z" clip-rule="evenodd" fill="#FFFFFF" fill-opacity="1.000000" fill-rule="evenodd" mask="url(#mask_64_1645)"/>
		<path d="" fill="#191919" fill-opacity="0.000000" fill-rule="nonzero"/>
	</g>
	<path d="M5.7 6.4C5.7 7.02 5.19 7.53 4.55 7.53C3.92 7.53 3.4 7.02 3.4 6.4C3.4 6.34 3.41 6.28 3.42 6.22L3.42 6.19L4.03 4.36C4.13 4.03 4.44 3.8 4.79 3.8L11.2 3.8C11.55 3.8 11.86 4.03 11.96 4.36L12.57 6.2L12.57 6.23C12.58 6.31 12.59 6.36 12.59 6.4C12.59 7.02 12.07 7.53 11.44 7.53C10.81 7.53 10.29 7.02 10.29 6.4L5.7 6.4ZM8 6.4C8 7.02 7.48 7.53 6.85 7.53C6.23 7.53 5.73 7.05 5.7 6.46L5.7 6.4L8 6.4ZM10.29 6.4C10.29 7.02 9.78 7.53 9.14 7.53C8.53 7.53 8.02 7.05 8 6.46L8 6.4L10.29 6.4Z" fill="#FFFFFF" fill-opacity="1.000000" fill-rule="evenodd"/>
	<path d="M4.55 7.53C3.92 7.53 3.4 7.02 3.4 6.4C3.4 6.34 3.41 6.28 3.42 6.22L3.42 6.19L4.03 4.36C4.13 4.03 4.44 3.8 4.79 3.8L11.2 3.8C11.55 3.8 11.86 4.03 11.96 4.36L12.57 6.2L12.57 6.23C12.58 6.31 12.59 6.36 12.59 6.4C12.59 7.02 12.07 7.53 11.44 7.53C10.81 7.53 10.29 7.02 10.29 6.4C10.29 7.02 9.78 7.53 9.14 7.53C8.53 7.53 8.02 7.05 8 6.46L8 6.4C8 7.02 7.48 7.53 6.85 7.53C6.23 7.53 5.73 7.05 5.7 6.46L5.7 6.4C5.7 7.02 5.19 7.53 4.55 7.53Z" stroke="#191919" stroke-opacity="0" stroke-width="1.000000" stroke-linejoin="round"/>
</svg>
