<svg width="6.494446" height="12.813080" viewBox="0 0 6.49445 12.8131" fill="none" xmlns="http://www.w3.org/2000/svg" xmlns:xlink="http://www.w3.org/1999/xlink">
	<desc>
			Created with Pixso.
	</desc>
	<defs/>
	<path id="路径" d="M1.2 0.18L1.23 0.21L6 5.16C6.64 5.83 6.65 6.91 6.04 7.6L6 7.64L1.23 12.59C1.1 12.72 0.95 12.79 0.78 12.81L0.74 12.81L0.7 12.81C0.52 12.8 0.34 12.73 0.21 12.59C-0.07 12.31 -0.08 11.85 0.18 11.56L0.21 11.53L4.63 6.93C4.91 6.65 4.92 6.2 4.66 5.9L4.63 5.87L0.21 1.28C-0.08 0.98 -0.08 0.51 0.21 0.21C0.34 0.07 0.52 0 0.7 0L0.74 0C0.91 0 1.07 0.06 1.2 0.18Z" fill="#C4C4C4" fill-opacity="1.000000" fill-rule="evenodd"/>
</svg>
