<svg width="24.000000" height="24.000000" viewBox="0 0 24 24" fill="none" xmlns="http://www.w3.org/2000/svg" xmlns:xlink="http://www.w3.org/1999/xlink">
	<desc>
			Created with Pixso.
	</desc>
	<defs>
		<clipPath id="clip9_1448">
			<rect width="24.000000" height="24.000000" fill="white" fill-opacity="0"/>
		</clipPath>
	</defs>
	<g clip-path="url(#clip9_1448)">
		<path d="M23.91 5.19C23.97 5.45 24 5.72 24 6L24 8.96C24 9.25 23.87 9.47 23.62 9.61C23.2 9.85 22.87 10.18 22.62 10.6C22.37 11.03 22.25 11.49 22.25 12Q22.25 12.39 22.35 12.76Q22.44 13.08 22.62 13.39C22.87 13.81 23.2 14.14 23.62 14.38C23.87 14.52 24 14.74 24 15.03L24 18Q24 18.41 23.91 18.8Q23.84 19.14 23.7 19.45C23.51 19.9 23.24 20.3 22.9 20.65C22.55 20.99 22.15 21.26 21.7 21.45C21.49 21.54 21.28 21.61 21.05 21.66C20.79 21.72 20.52 21.75 20.25 21.75L3.75 21.75Q3.33 21.75 2.94 21.66C2.71 21.61 2.5 21.54 2.29 21.45C1.84 21.26 1.44 20.99 1.09 20.65C0.75 20.3 0.48 19.9 0.29 19.45C0.2 19.24 0.13 19.03 0.08 18.8C0.02 18.54 0 18.27 0 18L0 15.03C0 14.74 0.12 14.52 0.37 14.38C0.58 14.26 0.77 14.11 0.93 13.95L0.93 13.95Q1.18 13.7 1.37 13.39C1.49 13.19 1.58 12.97 1.64 12.75C1.71 12.51 1.75 12.26 1.75 12C1.75 11.73 1.71 11.48 1.64 11.24C1.58 11.02 1.49 10.8 1.37 10.6C1.12 10.18 0.79 9.85 0.37 9.61Q0.18 9.5 0.09 9.34Q0 9.18 0 8.96L0 6C0 5.72 0.02 5.45 0.08 5.19C0.13 4.96 0.2 4.75 0.29 4.54C0.38 4.32 0.49 4.12 0.61 3.93C0.75 3.72 0.91 3.52 1.09 3.34C1.27 3.16 1.47 3 1.68 2.86C1.87 2.74 2.07 2.63 2.29 2.54C2.5 2.45 2.71 2.38 2.94 2.33C3.2 2.27 3.47 2.25 3.75 2.25L20.25 2.25C20.52 2.25 20.79 2.27 21.05 2.33C21.28 2.38 21.49 2.45 21.7 2.54C22.15 2.73 22.55 3 22.9 3.34C23.24 3.69 23.51 4.09 23.7 4.54C23.79 4.75 23.86 4.96 23.91 5.19ZM22.44 5.48L22.44 5.48C22.41 5.36 22.37 5.24 22.32 5.12Q22.24 4.93 22.13 4.77Q22 4.57 21.84 4.4C21.63 4.2 21.39 4.04 21.12 3.92C20.84 3.8 20.55 3.75 20.25 3.75L3.75 3.75C3.57 3.75 3.4 3.76 3.23 3.8C3.11 3.83 2.99 3.87 2.87 3.92C2.75 3.97 2.63 4.04 2.52 4.11C2.39 4.19 2.27 4.29 2.15 4.4C2.04 4.52 1.94 4.64 1.86 4.77Q1.75 4.93 1.67 5.12C1.62 5.24 1.58 5.36 1.55 5.48C1.51 5.65 1.5 5.82 1.5 5.99L1.55 8.6C1.7 8.71 1.85 8.84 1.99 8.98C2.13 9.11 2.25 9.26 2.37 9.41C2.48 9.55 2.57 9.69 2.66 9.84C2.85 10.16 2.99 10.49 3.09 10.84L3.09 10.84Q3.25 11.4 3.25 12C3.25 12.39 3.19 12.78 3.09 13.15C2.99 13.5 2.85 13.83 2.66 14.15C2.57 14.3 2.48 14.44 2.37 14.58C2.25 14.73 2.13 14.88 1.99 15.01C1.85 15.15 1.65 15.32 1.5 15.43L1.5 18C1.5 18.3 1.55 18.59 1.67 18.87C1.79 19.14 1.95 19.38 2.15 19.59C2.36 19.79 2.6 19.95 2.87 20.07C2.99 20.12 3.11 20.16 3.23 20.19C3.4 20.23 3.57 20.25 3.75 20.25L20.25 20.25C20.55 20.25 20.84 20.19 21.12 20.07C21.39 19.95 21.63 19.79 21.84 19.59C22.04 19.38 22.2 19.14 22.32 18.87C22.44 18.59 22.5 18.3 22.5 17.99L22.5 15.43C22.32 15.31 22.16 15.17 22 15.01C21.74 14.75 21.52 14.47 21.33 14.15C21.14 13.83 21 13.5 20.9 13.15C20.8 12.78 20.75 12.39 20.75 12C20.75 11.6 20.8 11.21 20.9 10.84L20.9 10.84Q21.05 10.32 21.33 9.84C21.42 9.69 21.51 9.55 21.62 9.41C21.74 9.26 21.86 9.11 22 8.98C22.16 8.82 22.32 8.68 22.5 8.56L22.5 6Q22.5 5.73 22.44 5.48ZM12 7.25C12.42 7.25 12.75 7.58 12.75 8L12.75 16C12.75 16.42 12.42 16.75 12 16.75C11.58 16.75 11.25 16.42 11.25 16L11.25 8C11.25 7.58 11.58 7.25 12 7.25Z" fill="#191919" fill-opacity="1.000000" fill-rule="evenodd"/>
	</g>
</svg>
