<svg width="24.000000" height="24.000000" viewBox="0 0 24 24" fill="none" xmlns="http://www.w3.org/2000/svg" xmlns:xlink="http://www.w3.org/1999/xlink">
	<desc>
			Created with Pixso.
	</desc>
	<defs>
		<clipPath id="clip9_1873">
			<rect width="24.000000" height="24.000000" fill="white" fill-opacity="0"/>
		</clipPath>
	</defs>
	<g clip-path="url(#clip9_1873)">
		<path d="M17.12 11.65C18.2 10.03 18.75 8.47 18.75 7C18.75 6.49 18.69 6 18.59 5.53C18.5 5.13 18.37 4.75 18.21 4.37C18.05 3.99 17.86 3.62 17.64 3.28C17.39 2.9 17.1 2.55 16.77 2.22C16.44 1.89 16.09 1.6 15.71 1.35C15.37 1.13 15 0.94 14.62 0.78C14.24 0.62 13.86 0.49 13.46 0.4C12.99 0.3 12.5 0.25 12 0.25C11.49 0.25 11 0.3 10.53 0.4C10.13 0.49 9.75 0.62 9.37 0.78C8.99 0.94 8.62 1.13 8.28 1.35C7.9 1.6 7.55 1.89 7.22 2.22Q6.73 2.71 6.35 3.28L6.35 3.28C6.13 3.62 5.94 3.99 5.78 4.37C5.62 4.75 5.49 5.13 5.4 5.53C5.3 6 5.25 6.49 5.25 7C5.25 8.47 5.79 10.03 6.87 11.65Q8.43 13.99 11.51 16.57Q11.62 16.66 11.74 16.7Q11.86 16.75 12 16.75C12.18 16.75 12.34 16.69 12.48 16.57Q15.56 13.99 17.12 11.65ZM17.12 5.82C17.2 6.21 17.25 6.6 17.25 7Q17.25 8.76 15.87 10.82Q14.55 12.8 12 15.01Q9.44 12.8 8.12 10.82Q6.75 8.76 6.75 7C6.75 6.6 6.79 6.21 6.87 5.82C6.94 5.53 7.04 5.24 7.16 4.95C7.28 4.66 7.43 4.38 7.6 4.12C7.8 3.82 8.02 3.54 8.28 3.28C8.54 3.02 8.82 2.8 9.12 2.6Q9.51 2.34 9.95 2.16C10.24 2.04 10.53 1.94 10.83 1.87Q11.4 1.75 12 1.75Q12.59 1.75 13.17 1.87C13.46 1.94 13.75 2.04 14.04 2.16C14.33 2.28 14.61 2.43 14.87 2.6C15.17 2.8 15.45 3.02 15.71 3.28C15.97 3.54 16.19 3.82 16.39 4.12C16.56 4.38 16.71 4.66 16.83 4.95C16.95 5.24 17.05 5.53 17.12 5.82ZM12 4.25C10.48 4.25 9.25 5.48 9.25 7C9.25 8.51 10.48 9.75 12 9.75C13.51 9.75 14.75 8.51 14.75 7C14.75 5.48 13.51 4.25 12 4.25ZM12 5.75C11.3 5.75 10.75 6.3 10.75 7C10.75 7.69 11.3 8.25 12 8.25C12.69 8.25 13.25 7.69 13.25 7C13.25 6.3 12.69 5.75 12 5.75ZM0.75 18.5C0.75 16.35 3.51 14.5 7.48 13.69C7.84 14.11 8.23 14.54 8.66 14.97C4.92 15.5 2.25 16.88 2.25 18.5C2.25 20.57 6.61 22.25 12 22.25C17.38 22.25 21.75 20.57 21.75 18.5C21.75 16.88 19.07 15.5 15.33 14.97C15.76 14.54 16.15 14.11 16.51 13.69C20.48 14.5 23.25 16.35 23.25 18.5C23.25 21.39 18.21 23.75 12 23.75C5.78 23.75 0.75 21.39 0.75 18.5ZM12 17.5C10.34 17.5 9 17.94 9 18.5C9 19.05 10.34 19.5 12 19.5C13.65 19.5 15 19.05 15 18.5C15 17.94 13.65 17.5 12 17.5Z" fill="#191919" fill-opacity="1.000000" fill-rule="evenodd"/>
	</g>
</svg>
