<svg width="11.714294" height="14.720001" viewBox="0 0 11.7143 14.72" fill="none" xmlns="http://www.w3.org/2000/svg" xmlns:xlink="http://www.w3.org/1999/xlink">
	<desc>
			Created with Pixso.
	</desc>
	<defs/>
	<path id="path" d="M5.85 0C4.79 0 3.81 0.26 2.92 0.8C2.02 1.34 1.31 2.07 0.78 2.99C0.26 3.9 0 4.91 0 6C0 7.54 0.52 9.05 1.56 10.53C2.61 12.01 3.73 13.28 4.91 14.35C5.18 14.59 5.5 14.72 5.85 14.72C6.21 14.72 6.52 14.59 6.79 14.35C7.98 13.28 9.1 12.01 10.14 10.53C11.19 9.05 11.71 7.54 11.71 6C11.71 4.91 11.45 3.9 10.92 2.99C10.4 2.07 9.68 1.34 8.78 0.8C7.88 0.26 6.9 0 5.85 0ZM5.85 7.28C5.58 7.28 5.34 7.21 5.11 7.08C4.88 6.94 4.71 6.76 4.58 6.53C4.45 6.3 4.38 6.05 4.38 5.77C4.38 5.5 4.45 5.25 4.58 5.03C4.71 4.8 4.88 4.62 5.11 4.48C5.34 4.35 5.58 4.28 5.85 4.28C6.11 4.28 6.36 4.35 6.58 4.48C6.8 4.62 6.98 4.8 7.11 5.03C7.24 5.25 7.3 5.5 7.3 5.77C7.3 6.05 7.24 6.3 7.11 6.53C6.98 6.76 6.8 6.94 6.58 7.08C6.36 7.21 6.11 7.28 5.85 7.28Z" fill="#E64566" fill-opacity="1.000000" fill-rule="nonzero"/>
</svg>
