<svg width="32.000000" height="32.000000" viewBox="0 0 32 32" fill="none" xmlns="http://www.w3.org/2000/svg"
     xmlns:xlink="http://www.w3.org/1999/xlink">
    <desc>
        Created with Pixso.
    </desc>
    <defs>
        <clipPath id="clip9_1418">
            <rect width="32.000000" height="32.000000" fill="white" fill-opacity="0"/>
        </clipPath>
    </defs>
    <g clip-path="url(#clip9_1418)">
        <path d="M29.98 7.07L29.98 4.61C29.98 2.57 28.33 0.92 26.29 0.92L6.61 0.92C4.57 0.92 2.92 2.57 2.92 4.61L2.92 7.07L29.98 7.07ZM4.24 19.74C3.43 19.07 2.92 18.05 2.92 16.91L2.92 8.3L29.98 8.3L29.98 16.91C29.98 18.74 28.66 20.25 26.92 20.55C26.89 19.62 26.15 18.76 25.07 18.76L17.64 18.75C17.82 18.5 17.96 18.27 18.07 18.07C19.14 16.09 18.92 13.5 17.45 12.2C15.99 10.9 13.25 11.02 11.7 12.37C11.25 12.77 9.8 14.18 7.28 16.7L5.95 18.03C5.42 18.56 4.85 19.13 4.24 19.74Z"
              fill="#EE3B55" fill-opacity="0.200000" fill-rule="evenodd"/>
        <path d="M30.91 7.07L30.91 4.61C30.91 3.97 30.79 3.38 30.57 2.84C30.34 2.29 30.01 1.8 29.56 1.35C29.11 0.9 28.61 0.56 28.06 0.33C27.52 0.11 26.93 0 26.29 0L6.61 0C5.97 0 5.38 0.11 4.84 0.33C4.29 0.56 3.8 0.9 3.35 1.35C2.9 1.8 2.56 2.29 2.33 2.84C2.11 3.38 2 3.97 2 4.61L2 7.07L3.84 7.07L3.84 4.61C3.84 3.69 4.07 2.99 4.53 2.53C4.99 2.07 5.69 1.84 6.61 1.84L26.29 1.84C27.22 1.84 27.91 2.07 28.37 2.53C28.83 2.99 29.06 3.69 29.06 4.61L29.06 7.07L30.91 7.07ZM3.84 8.3L2 8.3L2 16.91C2 17.55 2.11 18.14 2.33 18.68C2.56 19.23 2.9 19.72 3.35 20.17C3.43 20.25 3.51 20.33 3.59 20.4C4 19.98 4.4 19.58 4.78 19.2C4.69 19.14 4.61 19.07 4.53 18.99C4.07 18.53 3.84 17.83 3.84 16.91L3.84 8.3ZM26.66 19.67C27.4 19.61 27.97 19.39 28.37 18.99C28.83 18.53 29.06 17.83 29.06 16.91L29.06 8.3L30.91 8.3L30.91 16.91C30.91 17.55 30.79 18.14 30.57 18.68C30.34 19.23 30.01 19.72 29.56 20.17C29.11 20.62 28.61 20.96 28.06 21.19C27.63 21.37 27.17 21.47 26.68 21.51C27.03 20.91 26.98 20.21 26.66 19.67Z"
              fill="#EE3C56" fill-opacity="1.000000" fill-rule="evenodd"/>
        <path d="M11.46 22.9C14.29 20.01 15.96 18.1 16.45 17.19C17.19 15.82 16.93 14.2 16.23 13.58C15.53 12.96 13.83 12.96 12.91 13.76C12.3 14.3 9.38 17.2 4.15 22.45L4.15 26.76C4.15 27.44 4.7 28 5.38 28L17.06 28L25.07 20.61L14 20.61L11.46 22.9Z"
              fill="#EE3C56" fill-opacity="1.000000" fill-rule="evenodd"/>
    </g>
</svg>
