<svg width="36.000000" height="36.000000" viewBox="0 0 36 36" fill="none" xmlns="http://www.w3.org/2000/svg" xmlns:xlink="http://www.w3.org/1999/xlink">
	<desc>
			Created with Pixso.
	</desc>
	<defs>
		<clipPath id="clip9_722">
			<rect id="svg" width="36.000000" height="36.000000" fill="white" fill-opacity="0"/>
		</clipPath>
	</defs>
	<g clip-path="url(#clip9_722)">
		<path id="矢量 47" d="M10.85 15L25.15 15C26.93 15 28.32 16.55 28.13 18.32L26.47 33.32C26.3 34.84 25.02 36 23.49 36L12.5 36C10.97 36 9.69 34.84 9.52 33.32L7.86 18.32C7.67 16.55 9.06 15 10.85 15Z" fill="#86AD2B" fill-opacity="1.000000" fill-rule="evenodd"/>
		<path id="矢量 47" d="M27.97 20.15C27.06 19.73 26.06 19.5 25 19.5C21.13 19.5 18 22.63 18 26.5C18 30.36 21.13 33.5 25 33.5C25.55 33.5 26.09 33.43 26.61 33.31L27.97 20.15Z" fill="#C1D03A" fill-opacity="1.000000" fill-rule="evenodd"/>
		<path id="矢量 47" d="M7.5 12L28.5 12C30.15 12 31.5 13.34 31.5 15C31.5 16.65 30.15 18 28.5 18L7.5 18C5.84 18 4.5 16.65 4.5 15C4.5 13.34 5.84 12 7.5 12Z" fill="#A3CF3A" fill-opacity="1.000000" fill-rule="evenodd"/>
		<path id="矢量 47" d="M10.5 12L25.62 12C24.35 9.35 21.44 7.5 18.06 7.5C14.68 7.5 11.77 9.35 10.5 12Z" fill="#C7F460" fill-opacity="1.000000" fill-rule="evenodd"/>
	</g>
</svg>
