<svg width="24.000000" height="24.000000" viewBox="0 0 24 24" fill="none" xmlns="http://www.w3.org/2000/svg" xmlns:xlink="http://www.w3.org/1999/xlink">
	<desc>
			Created with Pixso.
	</desc>
	<defs>
		<clipPath id="clip25_439">
			<rect rx="12.000000" width="24.000000" height="24.000000" fill="white" fill-opacity="0"/>
		</clipPath>
	</defs>
	<rect rx="12.000000" width="24.000000" height="24.000000" fill="#86AD2B" fill-opacity="0.200000"/>
	<g clip-path="url(#clip25_439)">
		<path d="M17.59 7.99L13.72 18.11C13.52 18.66 12.91 18.93 12.37 18.72C12.07 18.61 11.84 18.37 11.74 18.07L10.51 14.38C10.4 14.06 10.16 13.82 9.84 13.71L6.15 12.48C5.6 12.29 5.3 11.7 5.49 11.15C5.58 10.85 5.81 10.61 6.11 10.5L16.23 6.63C16.78 6.42 17.38 6.69 17.59 7.24C17.68 7.48 17.68 7.75 17.59 7.99Z" fill="#86AD2B" fill-opacity="1.000000" fill-rule="evenodd"/>
	</g>
</svg>
