<svg width="24.000000" height="24.000000" viewBox="0 0 24 24" fill="none" xmlns="http://www.w3.org/2000/svg" xmlns:xlink="http://www.w3.org/1999/xlink">
	<desc>
			Created with Pixso.
	</desc>
	<defs>
		<clipPath id="clip9_257">
			<rect id="ic_public_qrcode" width="24.000000" height="24.000000" fill="white" fill-opacity="0"/>
		</clipPath>
	</defs>
	<g clip-path="url(#clip9_257)">
		<path id="矢量 6" d="M9.67 0.87C9.46 0.79 9.24 0.75 9 0.75L2.5 0.75C1.91 0.75 1.47 0.89 1.18 1.18C0.89 1.47 0.75 1.91 0.75 2.5L0.75 9C0.75 9.58 0.89 10.02 1.18 10.31C1.47 10.6 1.91 10.75 2.5 10.75L9 10.75C9.24 10.75 9.46 10.7 9.67 10.62C9.87 10.53 10.06 10.4 10.23 10.23C10.4 10.06 10.53 9.87 10.62 9.67C10.7 9.46 10.75 9.24 10.75 9L10.75 2.5C10.75 2.25 10.7 2.03 10.62 1.82C10.53 1.62 10.4 1.43 10.23 1.26C10.06 1.09 9.87 0.96 9.67 0.87ZM22.17 0.87C21.96 0.79 21.74 0.75 21.5 0.75L15 0.75C14.41 0.75 13.97 0.89 13.68 1.18C13.39 1.47 13.25 1.91 13.25 2.5L13.25 9C13.25 9.58 13.39 10.02 13.68 10.31C13.97 10.6 14.41 10.75 15 10.75L21.5 10.75C21.74 10.75 21.96 10.7 22.17 10.62C22.37 10.53 22.56 10.4 22.73 10.23C23.07 9.89 23.25 9.48 23.25 9L23.25 2.5C23.25 2.25 23.2 2.03 23.12 1.82C23.03 1.62 22.9 1.43 22.73 1.26C22.56 1.09 22.37 0.96 22.17 0.87ZM2.5 2.25L9 2.25C9.16 2.25 9.25 2.33 9.25 2.5L9.25 9C9.25 9.16 9.16 9.25 9 9.25L2.5 9.25C2.47 9.23 2.34 9.2 2.32 9.17C2.27 9.12 2.25 9.06 2.25 9L2.25 2.5C2.26 2.47 2.29 2.34 2.32 2.32C2.34 2.29 2.47 2.26 2.5 2.25ZM15 2.25L21.5 2.25C21.66 2.25 21.75 2.33 21.75 2.5L21.75 9C21.75 9.16 21.66 9.25 21.5 9.25L15 9.25C14.97 9.23 14.84 9.2 14.82 9.17C14.77 9.12 14.75 9.06 14.75 9L14.75 2.5C14.75 2.43 14.77 2.37 14.82 2.32C14.84 2.29 14.97 2.26 15 2.25ZM5.25 7Q4.87 7 4.68 6.81C4.56 6.68 4.5 6.5 4.5 6.25L4.5 5.25Q4.5 4.87 4.68 4.68Q4.87 4.5 5.25 4.5L6.25 4.5C6.5 4.5 6.68 4.56 6.81 4.68C6.93 4.81 7 5 7 5.25L7 6.25C7 6.5 6.93 6.68 6.81 6.81C6.68 6.93 6.5 7 6.25 7L5.25 7ZM17.75 7Q17.37 7 17.18 6.81C17.06 6.68 17 6.5 17 6.25L17 5.25Q17 4.87 17.18 4.68Q17.37 4.5 17.75 4.5L18.75 4.5Q19.12 4.5 19.31 4.68Q19.5 4.87 19.5 5.25L19.5 6.25C19.5 6.5 19.43 6.68 19.31 6.81C19.18 6.93 19 7 18.75 7L17.75 7ZM9.67 13.37C9.46 13.29 9.24 13.25 9 13.25L2.5 13.25C2.25 13.25 2.03 13.29 1.82 13.37C1.62 13.46 1.43 13.59 1.26 13.76C0.92 14.1 0.75 14.51 0.75 15L0.75 21.5C0.75 21.74 0.79 21.96 0.87 22.17C0.96 22.37 1.09 22.56 1.26 22.73C1.6 23.07 2.01 23.25 2.5 23.25L9 23.25C9.58 23.25 10.02 23.1 10.31 22.81C10.6 22.52 10.75 22.08 10.75 21.5L10.75 15C10.75 14.75 10.7 14.53 10.62 14.32C10.53 14.12 10.4 13.93 10.23 13.76C10.06 13.59 9.87 13.46 9.67 13.37ZM18.25 17.5L18.25 14C18.25 13.75 18.18 13.56 18.06 13.43Q17.87 13.25 17.5 13.25L14 13.25C13.75 13.25 13.56 13.31 13.43 13.43C13.31 13.56 13.25 13.75 13.25 14L13.25 15.16C13.25 15.66 13.5 15.91 14 15.91L15.58 15.91L15.58 17.5C15.58 17.75 15.64 17.93 15.77 18.06C15.89 18.18 16.08 18.25 16.33 18.25L17.5 18.25Q17.87 18.25 18.06 18.06Q18.25 17.87 18.25 17.5ZM20.93 18.06Q21.12 18.25 21.5 18.25L22.5 18.25Q22.87 18.25 23.06 18.06Q23.25 17.87 23.25 17.5L23.25 14C23.25 13.75 23.18 13.56 23.06 13.43Q22.87 13.25 22.5 13.25L21.5 13.25Q21.12 13.25 20.93 13.43C20.81 13.56 20.75 13.75 20.75 14L20.75 17.5Q20.75 17.87 20.93 18.06ZM2.5 14.75L9 14.75C9.16 14.75 9.25 14.83 9.25 15L9.25 21.5C9.25 21.66 9.16 21.75 9 21.75L2.5 21.75C2.47 21.73 2.34 21.7 2.32 21.67C2.31 21.64 2.25 21.53 2.25 21.5L2.25 15C2.26 14.97 2.29 14.84 2.32 14.82C2.37 14.77 2.43 14.75 2.5 14.75ZM5.25 19.5Q4.87 19.5 4.68 19.31Q4.5 19.12 4.5 18.75L4.5 17.75Q4.5 17.37 4.68 17.18Q4.87 17 5.25 17L6.25 17C6.5 17 6.68 17.06 6.81 17.18C6.93 17.31 7 17.5 7 17.75L7 18.75Q7 19.12 6.81 19.31C6.68 19.43 6.5 19.5 6.25 19.5L5.25 19.5ZM13.43 23.06C13.56 23.18 13.75 23.25 14 23.25L15 23.25C15.25 23.25 15.43 23.18 15.56 23.06Q15.75 22.87 15.75 22.5L15.75 19Q15.75 18.62 15.56 18.43C15.43 18.31 15.25 18.25 15 18.25L14 18.25C13.75 18.25 13.56 18.31 13.43 18.43Q13.25 18.62 13.25 19L13.25 22.5Q13.25 22.87 13.43 23.06ZM18.43 20.56Q18.62 20.75 19 20.75L20 20.75Q20.37 20.75 20.56 20.56Q20.75 20.37 20.75 20L20.75 19Q20.75 18.62 20.56 18.43Q20.37 18.25 20 18.25L19 18.25Q18.62 18.25 18.43 18.43Q18.25 18.62 18.25 19L18.25 20Q18.25 20.37 18.43 20.56ZM20.93 23.06Q21.12 23.25 21.5 23.25L22.5 23.25Q22.87 23.25 23.06 23.06Q23.25 22.87 23.25 22.5L23.25 21.5Q23.25 21.12 23.06 20.93Q22.87 20.75 22.5 20.75L21.5 20.75Q21.12 20.75 20.93 20.93Q20.75 21.12 20.75 21.5L20.75 22.5Q20.75 22.87 20.93 23.06Z" fill="#191919" fill-opacity="1.000000" fill-rule="evenodd"/>
	</g>
</svg>
