<svg width="24.000000" height="24.000000" viewBox="0 0 24 24" fill="none" xmlns="http://www.w3.org/2000/svg" xmlns:xlink="http://www.w3.org/1999/xlink">
	<desc>
			Created with Pixso.
	</desc>
	<defs>
		<clipPath id="clip25_445">
			<rect rx="12.000000" width="24.000000" height="24.000000" fill="white" fill-opacity="0"/>
		</clipPath>
	</defs>
	<rect rx="12.000000" width="24.000000" height="24.000000" fill="#86AD2B" fill-opacity="0.200000"/>
	<g clip-path="url(#clip25_445)">
		<path d="M6.65 10.46C6.33 9.61 6.11 8.53 6 7.21C6 7.18 6 7.16 6 7.13C6 6.64 6.39 6.25 6.88 6.25L8.59 6.25C9.03 6.25 9.4 6.56 9.47 6.99C9.54 7.44 9.61 7.79 9.67 8.06C9.77 8.46 9.95 9.06 10.22 9.86C10.16 10.47 9.95 10.82 9.59 10.89C10.17 13.4 13.27 15.02 13.35 14.65C13.42 14.29 13.77 14.08 14.38 14.02C15.18 14.29 15.78 14.47 16.18 14.57C16.45 14.63 16.8 14.7 17.25 14.77C17.68 14.84 17.99 15.21 17.99 15.65L18 17.36C17.99 17.85 17.6 18.24 17.11 18.25C17.08 18.25 17.06 18.24 17.03 18.24C15.72 18.13 14.63 17.91 13.78 17.59C9.98 16.34 7.61 13.97 6.65 10.46Z" fill="#86AD2B" fill-opacity="1.000000" fill-rule="evenodd"/>
	</g>
</svg>
