<svg width="100.000000" height="67.000000" viewBox="0 0 100 67" fill="none" xmlns="http://www.w3.org/2000/svg" xmlns:xlink="http://www.w3.org/1999/xlink">
	<desc>
			Created with Pixso.
	</desc>
	<defs>
		<clipPath id="clip6_1189">
			<rect id="外卖配送" rx="0.000000" width="99.000000" height="66.000000" transform="translate(0.500000 0.500000)" fill="white" fill-opacity="0"/>
		</clipPath>
	</defs>
	<rect id="外卖配送" rx="0.000000" width="99.000000" height="66.000000" transform="translate(0.500000 0.500000)" fill="#8BED66" fill-opacity="0"/>
	<g clip-path="url(#clip6_1189)">
		<path id="矢量 50" d="M12 49.5C12 46.46 29.01 44 50 44C70.98 44 88 46.46 88 49.5C88 52.53 70.98 55 50 55C29.01 55 12 52.53 12 49.5Z" fill="#9DC540" fill-opacity="0.400000" fill-rule="evenodd"/>
		<linearGradient x1="89.497467" y1="44.061409" x2="12.000010" y2="33.499996" id="paint_linear_149_30751_0" gradientUnits="userSpaceOnUse">
			<stop stop-color="#94C424"/>
			<stop offset="1.000000" stop-color="#A9D542"/>
		</linearGradient>
		<path id="矢量 50" d="M65.01 20.82L58.48 20.82C58.48 20.82 59.1 26.29 58.96 31.76C58.92 33.27 58.82 34.78 58.7 36.18L50.8 36.18L50.8 31.19C50.8 29.92 49.77 28.88 48.5 28.88L36.97 28.88C32.94 28.88 29.68 32.15 29.68 36.18L29.68 42.7L69.04 42.7C69.04 42.7 70.19 40.59 69.19 37.23C68.18 33.87 65.77 33.37 65.01 29.27C64.25 25.17 65.01 20.82 65.01 20.82Z" fill="url(#paint_linear_149_30751_0)" fill-opacity="1.000000" fill-rule="evenodd"/>
		<path id="矢量 50" d="M65.24 20.63L58.27 20.63L58.29 20.85C58.63 23.81 58.8 26.78 58.8 29.75C58.8 30.42 58.79 31.09 58.77 31.76C58.73 33.07 58.65 34.48 58.52 35.98L50.99 35.98L50.99 31.19C50.99 30.84 50.93 30.52 50.81 30.23C50.69 29.94 50.5 29.67 50.26 29.42C50.02 29.18 49.75 29 49.45 28.87C49.16 28.75 48.84 28.69 48.5 28.69L36.97 28.69C35.94 28.69 34.98 28.87 34.1 29.24C33.22 29.61 32.41 30.15 31.68 30.88C30.95 31.62 30.4 32.42 30.03 33.3C29.67 34.19 29.48 35.14 29.48 36.18L29.48 42.89L69.16 42.89L69.21 42.79C69.41 42.42 69.57 41.91 69.68 41.26C69.9 39.97 69.8 38.61 69.37 37.18C69.06 36.15 68.41 35 67.41 33.73C66.21 32.21 65.47 30.71 65.2 29.23C65.17 29.06 65.14 28.88 65.11 28.71C64.7 26.16 64.73 23.54 65.2 20.86L65.24 20.63ZM58.7 21.02C59.02 23.92 59.18 26.83 59.18 29.73C59.18 30.41 59.17 31.09 59.15 31.77C59.12 33.14 59.03 34.62 58.89 36.19L58.88 36.37L50.61 36.37L50.61 31.19C50.61 30.9 50.56 30.63 50.45 30.38C50.35 30.13 50.19 29.9 49.99 29.69C49.78 29.49 49.55 29.33 49.31 29.23C49.06 29.13 48.79 29.08 48.5 29.08L36.97 29.08C35.99 29.08 35.08 29.25 34.25 29.6C33.41 29.94 32.64 30.46 31.95 31.16C31.26 31.85 30.74 32.61 30.39 33.45C30.04 34.29 29.87 35.2 29.87 36.18L29.87 42.51L68.92 42.51C69.08 42.18 69.21 41.75 69.3 41.19C69.51 39.96 69.41 38.66 69 37.29C68.71 36.31 68.08 35.2 67.11 33.97C65.87 32.4 65.1 30.84 64.82 29.3C64.78 29.11 64.75 28.91 64.72 28.72C64.33 26.21 64.35 23.65 64.78 21.02L58.7 21.02Z" fill="#86AD2B" fill-opacity="1.000000" fill-rule="evenodd"/>
		<linearGradient x1="89.497467" y1="44.061409" x2="12.000010" y2="33.499996" id="paint_linear_149_30753_1" gradientUnits="userSpaceOnUse">
			<stop stop-color="#61860B"/>
			<stop offset="1.000000" stop-color="#A9D542"/>
		</linearGradient>
		<path id="矢量 50" d="M50.8 33.66L50.8 31.19C50.8 29.92 49.77 28.88 48.5 28.88L36.97 28.88C35.48 28.88 34.09 29.33 32.93 30.1C34.49 29.81 36.18 29.65 37.93 29.65C43.56 29.65 48.43 31.28 50.8 33.66ZM67.86 34.64C66.79 33.17 65.52 32.04 65.01 29.27C64.25 25.17 65.01 20.82 65.01 20.82L58.48 20.82C58.48 20.82 58.48 20.85 58.49 20.89C61.52 21.44 63.86 25.15 63.86 29.65C63.86 31.5 63.46 33.22 62.78 34.64L67.86 34.64Z" fill="url(#paint_linear_149_30753_1)" fill-opacity="0.400000" fill-rule="evenodd"/>
		<radialGradient gradientTransform="translate(50 33.5) rotate(90) scale(21.5 38)" cx="0.000000" cy="0.000000" r="1.000000" id="paint_radial_149_30754_2" gradientUnits="userSpaceOnUse">
			<stop stop-color="#717982"/>
			<stop offset="1.000000" stop-color="#313C47"/>
		</radialGradient>
		<path id="矢量 50" d="M58.48 42.7C58.48 38.67 61.75 35.41 65.78 35.41C69.81 35.41 73.07 38.67 73.07 42.7C73.07 46.73 69.81 50 65.78 50C61.75 50 58.48 46.73 58.48 42.7Z" fill="url(#paint_radial_149_30754_2)" fill-opacity="1.000000" fill-rule="evenodd"/>
		<path id="矢量 50" d="M61.94 42.7C61.94 40.58 63.66 38.86 65.78 38.86C67.9 38.86 69.62 40.58 69.62 42.7C69.62 44.82 67.9 46.54 65.78 46.54C63.66 46.54 61.94 44.82 61.94 42.7Z" fill="#FFFFFF" fill-opacity="1.000000" fill-rule="evenodd"/>
		<path id="矢量 50" d="M63.86 42.7C63.86 41.64 64.72 40.78 65.78 40.78C66.84 40.78 67.7 41.64 67.7 42.7C67.7 43.76 66.84 44.62 65.78 44.62C64.72 44.62 63.86 43.76 63.86 42.7Z" fill="#A8A8A8" fill-opacity="1.000000" fill-rule="evenodd"/>
		<path id="矢量 50" d="M65.78 33.49C60.69 33.49 56.56 37.61 56.56 42.7C56.56 43.09 56.58 43.48 56.63 43.85L74.92 43.85C74.97 43.48 75 43.09 75 42.7C75 37.61 70.87 33.49 65.78 33.49Z" fill="#C1D03A" fill-opacity="1.000000" fill-rule="evenodd"/>
		<path id="矢量 50" d="M73.07 43.85L74.92 43.85C74.97 43.48 75 43.09 75 42.7C75 37.61 70.87 33.49 65.78 33.49C65.21 33.49 64.66 33.54 64.12 33.64C69.08 34.47 72.89 38.7 73.07 43.85Z" fill="#86AD2B" fill-opacity="0.400000" fill-rule="evenodd"/>
		<path id="矢量 50" d="M64.7 36.56C65.13 36.51 65.43 36.14 65.39 35.72C65.35 35.29 64.98 34.99 64.55 35.03C64.44 35.04 64.3 35.06 64.14 35.1C63.82 35.17 63.51 35.27 63.19 35.39C62.98 35.47 62.78 35.57 62.58 35.67C62.36 35.78 62.14 35.91 61.93 36.04C61.72 36.18 61.52 36.33 61.32 36.49C61.06 36.71 60.82 36.95 60.59 37.2C60.41 37.41 60.23 37.63 60.06 37.86C59.88 38.09 59.72 38.33 59.57 38.57C59.32 38.97 59.11 39.37 58.93 39.78C58.8 40.07 58.69 40.36 58.6 40.64C58.55 40.79 58.52 40.91 58.5 41C58.41 41.42 58.66 41.82 59.08 41.92C59.5 42.01 59.9 41.75 60 41.33C60.01 41.28 60.03 41.21 60.06 41.1C60.14 40.88 60.23 40.64 60.33 40.4C60.49 40.05 60.67 39.72 60.87 39.39C61 39.18 61.14 38.97 61.29 38.78C61.43 38.59 61.58 38.4 61.74 38.22C61.92 38.02 62.12 37.83 62.33 37.66C62.47 37.54 62.62 37.43 62.78 37.32C62.94 37.22 63.11 37.12 63.28 37.03C63.44 36.95 63.59 36.88 63.75 36.82C64 36.72 64.23 36.65 64.47 36.6C64.54 36.58 64.64 36.57 64.7 36.56Z" fill="#FFFFFF" fill-opacity="0.800000" fill-rule="evenodd"/>
		<radialGradient gradientTransform="translate(50 33.5) rotate(90) scale(21.5 38)" cx="0.000000" cy="0.000000" r="1.000000" id="paint_radial_149_307511_3" gradientUnits="userSpaceOnUse">
			<stop stop-color="#717982"/>
			<stop offset="1.000000" stop-color="#313C47"/>
		</radialGradient>
		<path id="矢量 50" d="M29.68 42.7C29.68 38.67 32.94 35.41 36.97 35.41C41 35.41 44.27 38.67 44.27 42.7C44.27 46.73 41 50 36.97 50C32.94 50 29.68 46.73 29.68 42.7Z" fill="url(#paint_radial_149_307511_3)" fill-opacity="1.000000" fill-rule="evenodd"/>
		<path id="矢量 50" d="M33.13 42.7C33.13 40.58 34.85 38.86 36.97 38.86C39.09 38.86 40.81 40.58 40.81 42.7C40.81 44.82 39.09 46.54 36.97 46.54C34.85 46.54 33.13 44.82 33.13 42.7Z" fill="#FFFFFF" fill-opacity="1.000000" fill-rule="evenodd"/>
		<path id="矢量 50" d="M35.05 42.7C35.05 41.64 35.91 40.78 36.97 40.78C38.03 40.78 38.89 41.64 38.89 42.7C38.89 43.76 38.03 44.62 36.97 44.62C35.91 44.62 35.05 43.76 35.05 42.7Z" fill="#A8A8A8" fill-opacity="1.000000" fill-rule="evenodd"/>
		<path id="矢量 50" d="M36.97 33.49C31.88 33.49 27.76 37.61 27.76 42.7C27.76 43.09 27.78 43.48 27.83 43.85L46.12 43.85C46.17 43.48 46.19 43.09 46.19 42.7C46.19 37.61 42.06 33.49 36.97 33.49Z" fill="#C1D03A" fill-opacity="1.000000" fill-rule="evenodd"/>
		<path id="矢量 50" d="M28.25 39.09C27.79 40.2 27.56 41.4 27.56 42.7C27.56 43.08 27.59 43.45 27.63 43.82C27.63 43.84 27.63 43.86 27.64 43.88L27.83 44.05L46.12 44.05L46.31 43.88C46.31 43.86 46.31 43.84 46.32 43.83C46.36 43.45 46.38 43.08 46.38 42.7C46.38 41.4 46.15 40.2 45.69 39.09C45.23 37.98 44.55 36.97 43.63 36.05C42.71 35.13 41.69 34.45 40.59 33.99C39.48 33.53 38.27 33.3 36.97 33.3C35.67 33.3 34.47 33.53 33.36 33.99C32.25 34.45 31.24 35.13 30.32 36.05C29.4 36.97 28.71 37.98 28.25 39.09ZM28 43.66C27.96 43.34 27.95 43.02 27.95 42.7C27.95 41.46 28.17 40.3 28.61 39.24C29.05 38.18 29.71 37.2 30.59 36.32C31.47 35.44 32.44 34.78 33.51 34.34C34.57 33.9 35.73 33.68 36.97 33.68C38.22 33.68 39.37 33.9 40.44 34.34C41.5 34.78 42.47 35.44 43.36 36.32C44.24 37.2 44.9 38.18 45.34 39.24C45.78 40.3 46 41.46 46 42.7C46 43.02 45.98 43.34 45.95 43.66L28 43.66Z" fill="#86AD2B" fill-opacity="1.000000" fill-rule="evenodd"/>
		<path id="矢量 50" d="M44.26 43.85L46.12 43.85C46.17 43.48 46.19 43.09 46.19 42.7C46.19 37.61 42.06 33.49 36.97 33.49C36.41 33.49 35.85 33.54 35.31 33.64C40.27 34.47 44.08 38.7 44.26 43.85Z" fill="#86AD2B" fill-opacity="0.400000" fill-rule="evenodd"/>
		<path id="矢量 50" d="M35.9 36.56C36.32 36.51 36.63 36.14 36.58 35.72C36.54 35.29 36.17 34.99 35.74 35.03C35.63 35.04 35.5 35.06 35.33 35.1C35.02 35.17 34.71 35.27 34.39 35.39C34.18 35.47 33.97 35.57 33.77 35.67C33.55 35.78 33.34 35.91 33.13 36.04C32.92 36.18 32.71 36.33 32.52 36.49C32.26 36.71 32.02 36.95 31.79 37.2C31.6 37.41 31.42 37.63 31.25 37.86C31.08 38.09 30.92 38.33 30.76 38.57C30.52 38.97 30.31 39.37 30.13 39.78C29.99 40.07 29.88 40.36 29.8 40.64C29.75 40.79 29.71 40.91 29.69 41C29.6 41.42 29.86 41.82 30.28 41.92C30.7 42.01 31.1 41.75 31.19 41.33C31.2 41.28 31.23 41.21 31.26 41.1C31.33 40.88 31.42 40.64 31.53 40.4C31.68 40.05 31.86 39.72 32.07 39.39C32.2 39.18 32.34 38.97 32.48 38.78C32.63 38.59 32.78 38.4 32.94 38.22C33.12 38.02 33.32 37.83 33.53 37.66C33.67 37.54 33.82 37.43 33.97 37.32C34.14 37.22 34.31 37.12 34.48 37.03C34.63 36.95 34.79 36.88 34.95 36.82C35.19 36.72 35.43 36.65 35.66 36.6C35.73 36.58 35.84 36.57 35.9 36.56Z" fill="#FFFFFF" fill-opacity="0.800000" fill-rule="evenodd"/>
		<linearGradient x1="87.999977" y1="42.458321" x2="11.999998" y2="33.500000" id="paint_linear_149_307518_4" gradientUnits="userSpaceOnUse">
			<stop offset="0.005591" stop-color="#182431"/>
			<stop offset="1.000000" stop-color="#313C47"/>
		</linearGradient>
		<path id="矢量 50" d="M39.66 24.28L49.26 24.28C50.54 24.28 51.57 25.31 51.57 26.58C51.57 27.85 50.54 28.88 49.26 28.88L39.28 28.88C39.07 28.88 38.89 28.71 38.89 28.5L38.89 25.05C38.89 24.62 39.24 24.28 39.66 24.28Z" fill="url(#paint_linear_149_307518_4)" fill-opacity="1.000000" fill-rule="evenodd"/>
		<path id="矢量 50" d="M54.64 17.37L59.25 17.37L59.25 20.44L54.64 20.44C53.79 20.44 53.1 19.75 53.1 18.9C53.1 18.06 53.79 17.37 54.64 17.37Z" fill="#395066" fill-opacity="1.000000" fill-rule="evenodd"/>
		<path id="矢量 50" d="M58.86 16.22L64.24 16.22C65.94 16.22 67.31 17.59 67.31 19.29C67.31 20.14 66.63 20.82 65.78 20.82L58.86 20.82C58.02 20.82 57.33 20.14 57.33 19.29L57.33 17.75C57.33 16.9 58.02 16.22 58.86 16.22Z" fill="#D0CA0F" fill-opacity="1.000000" fill-rule="evenodd"/>
		<path id="矢量 50" d="M67.31 19.29C67.31 17.59 65.94 16.22 64.24 16.22L58.86 16.22C58.02 16.22 57.33 16.9 57.33 17.75L57.33 19.29C57.33 20.14 58.02 20.82 58.86 20.82L65.78 20.82C66.63 20.82 67.31 20.14 67.31 19.29ZM66.93 19.29C66.93 17.8 65.73 16.6 64.24 16.6L58.86 16.6C58.23 16.6 57.71 17.12 57.71 17.75L57.71 19.29C57.71 19.92 58.23 20.44 58.86 20.44L65.78 20.44C66.41 20.44 66.93 19.92 66.93 19.29Z" fill="#B7B212" fill-opacity="1.000000" fill-rule="evenodd"/>
		<path id="矢量 50" d="M65.72 20.82C66.6 20.82 67.31 20.14 67.31 19.29C67.31 17.59 65.88 16.22 64.12 16.22L58.93 16.22C58.89 16.22 58.85 16.22 58.82 16.22C62.65 16.32 65.72 18.34 65.72 20.82Z" fill="#74710E" fill-opacity="0.200000" fill-rule="evenodd"/>
		<path id="矢量 50" d="M24.3 12L36.59 12C37.86 12 38.89 13.03 38.89 14.3L38.89 26.58C38.89 27.85 37.86 28.88 36.59 28.88L24.3 28.88C23.03 28.88 22 27.85 22 26.58L22 14.3C22 13.03 23.03 12 24.3 12Z" fill="#F9A01E" fill-opacity="1.000000" fill-rule="evenodd"/>
		<path id="矢量 50" d="M38.89 14.3C38.89 13.03 37.86 12 36.59 12L24.3 12C23.03 12 22 13.03 22 14.3L22 26.58C22 27.85 23.03 28.88 24.3 28.88L36.59 28.88C37.86 28.88 38.89 27.85 38.89 26.58L38.89 14.3ZM38.51 14.3C38.51 13.24 37.65 12.38 36.59 12.38L24.3 12.38C23.24 12.38 22.38 13.24 22.38 14.3L22.38 26.58C22.38 27.64 23.24 28.5 24.3 28.5L36.59 28.5C37.65 28.5 38.51 27.64 38.51 26.58L38.51 14.3Z" fill="#8E5A0D" fill-opacity="1.000000" fill-rule="evenodd"/>
		<path id="矢量 50" d="M28.76 12L24.1 12L22 15.09L22 21.96L28.76 12ZM25.65 28.88L24.3 28.88C23.03 28.88 22 27.85 22 26.58L22 24.25L32.62 12L37.12 12L25.65 28.88ZM32.64 28.88L28.58 28.88L38.89 14.3L38.89 21.09L32.64 28.88Z" fill="#724400" fill-opacity="0.100000" fill-rule="evenodd"/>
		<path id="矢量 50" d="M22 16.22L38.89 16.22L38.89 17.75L22 17.75L22 16.22Z" fill="#8E5A0D" fill-opacity="1.000000" fill-rule="evenodd"/>
		<path id="矢量 50" d="M25.45 16.22L26.6 16.22L26.6 28.88L25.45 28.88L25.45 16.22Z" fill="#8E5A0D" fill-opacity="1.000000" fill-rule="evenodd"/>
		<path id="矢量 50" d="M34.28 16.22L35.44 16.22L35.44 28.88L34.28 28.88L34.28 16.22Z" fill="#8E5A0D" fill-opacity="1.000000" fill-rule="evenodd"/>
		<path id="矢量 50" d="M23.77 21.37C23.99 21.37 24.19 21.41 24.37 21.5C24.55 21.59 24.69 21.72 24.79 21.88C24.89 22.05 24.94 22.25 24.94 22.49C24.94 22.72 24.89 22.92 24.79 23.09C24.69 23.26 24.55 23.39 24.37 23.48C24.19 23.57 24 23.61 23.77 23.61L23.02 23.61L23.02 21.37L23.77 21.37ZM23.72 23.23C23.96 23.23 24.15 23.17 24.28 23.04C24.41 22.91 24.47 22.73 24.47 22.49C24.47 22.25 24.41 22.07 24.28 21.94C24.15 21.81 23.96 21.74 23.72 21.74L23.47 21.74L23.47 23.23L23.72 23.23Z" fill="#FFFFFF" fill-opacity="1.000000" fill-rule="nonzero"/>
		<path id="矢量 50" d="M26.67 22.67L25.75 22.67L25.75 23.22L26.81 23.22L26.81 23.61L25.31 23.61L25.31 21.37L26.77 21.37L26.77 21.75L25.75 21.75L25.75 22.28L26.67 22.28L26.67 22.67Z" fill="#FFFFFF" fill-opacity="1.000000" fill-rule="nonzero"/>
		<path id="矢量 50" d="M27.17 21.37L27.62 21.37L27.62 23.22L28.64 23.22L28.64 23.61L27.17 23.61L27.17 21.37Z" fill="#FFFFFF" fill-opacity="1.000000" fill-rule="nonzero"/>
		<path id="矢量 50" d="M29.4 23.61L28.96 23.61L28.96 21.37L29.4 21.37L29.4 23.61Z" fill="#FFFFFF" fill-opacity="1.000000" fill-rule="nonzero"/>
		<path id="矢量 50" d="M30.16 21.37L30.76 22.99L31.34 21.37L31.82 21.37L30.94 23.61L30.56 23.61L29.66 21.37L30.16 21.37Z" fill="#FFFFFF" fill-opacity="1.000000" fill-rule="nonzero"/>
		<path id="矢量 50" d="M33.43 22.67L32.52 22.67L32.52 23.22L33.57 23.22L33.57 23.61L32.08 23.61L32.08 21.37L33.54 21.37L33.54 21.75L32.52 21.75L32.52 22.28L33.43 22.28L33.43 22.67Z" fill="#FFFFFF" fill-opacity="1.000000" fill-rule="nonzero"/>
		<path id="矢量 50" d="M35.81 23.61L35.28 23.61L34.73 22.8L34.71 22.8L34.39 22.8L34.39 23.61L33.94 23.61L33.94 21.37L34.72 21.37C34.9 21.37 35.05 21.4 35.18 21.46C35.32 21.52 35.42 21.6 35.49 21.71C35.56 21.82 35.6 21.94 35.6 22.09C35.6 22.23 35.56 22.35 35.49 22.46C35.42 22.57 35.31 22.65 35.18 22.71L35.81 23.61ZM34.39 21.74L34.39 22.43L34.67 22.43C34.8 22.43 34.91 22.4 35 22.34C35.08 22.29 35.13 22.2 35.13 22.09C35.13 21.97 35.08 21.88 35 21.83C34.91 21.77 34.8 21.74 34.67 21.74L34.39 21.74Z" fill="#FFFFFF" fill-opacity="1.000000" fill-rule="nonzero"/>
		<path id="矢量 50" d="M36.71 22.29L37.22 21.37L37.7 21.37L36.91 22.73L36.91 23.61L36.47 23.61L36.47 22.73L35.65 21.37L36.18 21.37L36.71 22.29Z" fill="#FFFFFF" fill-opacity="1.000000" fill-rule="nonzero"/>
		<path id="矢量 50" d="M64.63 25.62C64.63 24.46 65.31 23.51 66.16 23.51C67.01 23.51 67.7 24.46 67.7 25.62C67.7 26.79 67.01 27.73 66.16 27.73C65.31 27.73 64.63 26.79 64.63 25.62Z" fill="#EDEDED" fill-opacity="1.000000" fill-rule="evenodd"/>
		<path id="矢量 50" d="M65.01 25.62C65.01 24.99 65.53 24.47 66.16 24.47C66.8 24.47 67.31 24.99 67.31 25.62C67.31 26.26 66.8 26.77 66.16 26.77C65.53 26.77 65.01 26.26 65.01 25.62Z" fill="#FFFFFF" fill-opacity="1.000000" fill-rule="evenodd"/>
		<path id="矢量 50" d="M65.78 23.13C64.28 23.21 63.09 24.3 63.09 25.62C63.09 26.95 64.28 28.03 65.78 28.12L65.78 23.13Z" fill="#61860B" fill-opacity="1.000000" fill-rule="evenodd"/>
		<path id="矢量 50" d="M63.88 23.9C63.87 24.02 63.86 24.15 63.86 24.28C63.86 25.57 64.65 26.67 65.78 27.13L65.78 28.12C64.28 28.03 63.09 26.95 63.09 25.62C63.09 24.95 63.39 24.35 63.88 23.9Z" fill="#1A2128" fill-opacity="0.250000" fill-rule="evenodd"/>
		<path id="矢量 50" d="M65.78 23.13C65.78 22.91 65.95 22.74 66.16 22.74C66.37 22.74 66.55 22.91 66.55 23.13L66.55 28.12C66.55 28.33 66.37 28.5 66.16 28.5C65.95 28.5 65.78 28.33 65.78 28.12L65.78 23.13Z" fill="#1A2128" fill-opacity="1.000000" fill-rule="evenodd"/>
	</g>
	<rect id="外卖配送" rx="0.000000" width="99.000000" height="66.000000" transform="translate(0.500000 0.500000)" stroke="#9DC540" stroke-opacity="0" stroke-width="1.000000"/>
</svg>
