<svg width="24.000000" height="24.000000" viewBox="0 0 24 24" fill="none" xmlns="http://www.w3.org/2000/svg" xmlns:xlink="http://www.w3.org/1999/xlink">
	<desc>
			Created with Pixso.
	</desc>
	<defs>
		<clipPath id="clip63_9676">
			<rect id="ic_public_delete (1)" width="24.000000" height="24.000000" fill="white" fill-opacity="0"/>
		</clipPath>
	</defs>
	<g clip-path="url(#clip63_9676)">
		<path id="path-1" d="M5.62 7.5L6.72 18.47C6.83 19.6 7.77 20.46 8.89 20.49L15.03 20.5C16.16 20.5 17.12 19.65 17.26 18.53L18.19 9.25L18.36 7.5L19.87 7.5L19.68 9.4L18.76 18.62C18.57 20.51 17 21.95 15.11 21.99L8.96 22C7.06 22 5.47 20.58 5.24 18.7L4.12 7.5L5.62 7.5ZM10.25 11.75C10.66 11.75 11 12.08 11 12.5L11 18.5C11 18.91 10.66 19.25 10.25 19.25C9.83 19.25 9.5 18.91 9.5 18.5L9.5 12.5C9.5 12.08 9.83 11.75 10.25 11.75ZM13.75 11.75C14.16 11.75 14.5 12.08 14.5 12.5L14.5 18.5C14.5 18.91 14.16 19.25 13.75 19.25C13.33 19.25 13 18.91 13 18.5L13 12.5C13 12.08 13.33 11.75 13.75 11.75ZM12 1.75C13.76 1.75 15.2 3.16 15.24 4.92L21 5C21.41 5 21.75 5.33 21.75 5.75C21.75 6.14 21.43 6.47 21.04 6.49L14.5 6.5C14.1 6.5 13.77 6.18 13.75 5.79L13.75 5C13.75 4.03 12.96 3.25 12 3.25C11.05 3.25 10.28 4 10.25 4.93L10.25 5.75C10.25 6.14 9.93 6.47 9.54 6.49L2.75 6.5C2.33 6.5 2 6.16 2 5.75C2 5.35 2.31 5.02 2.7 5L8.75 5C8.75 3.2 10.2 1.75 12 1.75Z" fill="#000000" fill-opacity="1.000000" fill-rule="nonzero"/>
		<path id="path-1" d="M6.72 18.47C6.83 19.6 7.77 20.46 8.89 20.49L15.03 20.5C16.16 20.5 17.12 19.65 17.26 18.53L18.19 9.25L18.36 7.5L19.87 7.5L19.68 9.4L18.76 18.62C18.57 20.51 17 21.95 15.11 21.99L8.96 22C7.06 22 5.47 20.58 5.24 18.7L4.12 7.5L5.62 7.5L6.72 18.47ZM11 12.5L11 18.5C11 18.91 10.66 19.25 10.25 19.25C9.83 19.25 9.5 18.91 9.5 18.5L9.5 12.5C9.5 12.08 9.83 11.75 10.25 11.75C10.66 11.75 11 12.08 11 12.5ZM14.5 12.5L14.5 18.5C14.5 18.91 14.16 19.25 13.75 19.25C13.33 19.25 13 18.91 13 18.5L13 12.5C13 12.08 13.33 11.75 13.75 11.75C14.16 11.75 14.5 12.08 14.5 12.5ZM15.24 4.92L21 5C21.41 5 21.75 5.33 21.75 5.75C21.75 6.14 21.43 6.47 21.04 6.49L14.5 6.5C14.1 6.5 13.77 6.18 13.75 5.79L13.75 5C13.75 4.03 12.96 3.25 12 3.25C11.05 3.25 10.28 4 10.25 4.93L10.25 5.75C10.25 6.14 9.93 6.47 9.54 6.49L2.75 6.5C2.33 6.5 2 6.16 2 5.75C2 5.35 2.31 5.02 2.7 5L8.75 5C8.75 3.2 10.2 1.75 12 1.75C13.76 1.75 15.2 3.16 15.24 4.92Z" stroke="#000000" stroke-opacity="0" stroke-width="1.000000"/>
	</g>
</svg>
