<svg width="24.000000" height="24.000000" viewBox="0 0 24 24" fill="none" xmlns="http://www.w3.org/2000/svg" xmlns:xlink="http://www.w3.org/1999/xlink">
	<desc>
			Created with Pixso.
	</desc>
	<defs>
		<clipPath id="clip19_1893">
			<rect id="常见问题.svg" width="24.000000" height="24.000000" fill="white" fill-opacity="0"/>
		</clipPath>
	</defs>
	<g clip-path="url(#clip19_1893)">
		<path id="path" d="M18.14 2.53L5.84 2.53C4.53 2.53 3.46 3.6 3.46 4.91L3.46 15.79C3.46 17.1 4.53 18.17 5.84 18.17L6.36 18.17L6.36 20.84C6.36 21.05 6.47 21.25 6.65 21.37C6.84 21.48 7.07 21.49 7.26 21.39L13.53 18.17L18.14 18.17C19.45 18.17 20.52 17.1 20.52 15.79L20.52 4.91C20.52 3.6 19.45 2.53 18.14 2.53ZM19.28 15.79C19.28 16.42 18.77 16.92 18.14 16.92L13.38 16.92C13.29 16.92 13.19 16.95 13.1 16.99L7.6 19.82L7.6 17.55C7.6 17.38 7.53 17.22 7.42 17.11C7.3 16.99 7.14 16.92 6.98 16.93L5.84 16.93C5.21 16.93 4.7 16.42 4.7 15.79L4.7 4.91C4.7 4.28 5.21 3.77 5.84 3.77L18.14 3.77C18.77 3.77 19.28 4.28 19.28 4.91L19.28 15.79Z" fill="#2C2C2C" fill-opacity="1.000000" fill-rule="nonzero"/>
		<path id="path" d="M11.99 5.99C10.43 5.99 9.17 7.25 9.17 8.81C9.19 9.13 9.46 9.38 9.78 9.38C10.11 9.38 10.37 9.13 10.39 8.81C10.39 7.93 11.11 7.21 11.99 7.21C12.87 7.21 13.58 7.93 13.58 8.81C13.58 9.45 13.2 10.03 12.6 10.28C11.86 10.59 11.38 11.32 11.38 12.12C11.39 12.44 11.66 12.69 11.99 12.69C12.31 12.69 12.58 12.44 12.6 12.12C12.6 11.8 12.79 11.52 13.08 11.4L13.09 11.4C14.13 10.95 14.8 9.94 14.8 8.81C14.81 7.25 13.55 5.99 11.99 5.99ZM11.93 13.39C11.46 13.41 11.09 13.8 11.09 14.27C11.09 14.74 11.46 15.12 11.93 15.14C12.4 15.12 12.77 14.74 12.77 14.27C12.77 13.8 12.4 13.41 11.93 13.39Z" fill="#333333" fill-opacity="1.000000" fill-rule="nonzero"/>
	</g>
</svg>
