<?xml version="1.0" encoding="UTF-8"?>
<svg width="24px" height="24px" viewBox="0 0 24 24" version="1.1" xmlns="http://www.w3.org/2000/svg" xmlns:xlink="http://www.w3.org/1999/xlink">
    <title>图标/我/icon_my_order2 4</title>
    <g id="" stroke="none" stroke-width="1" fill="none" fill-rule="evenodd">
        <g id="icon" transform="translate(-302.000000, -381.000000)">
            <g id="图标/我/icon_my_order2" transform="translate(302.000000, 381.000000)">
                <rect id="图标/我/icon_my_order1" fill-opacity="0" fill="#D8D8D8" x="0" y="0" width="24" height="24"></rect>
                <circle id="椭圆形" cx="17.5" cy="17.5" r="3.5"></circle>
                <path d="M12,20 L7,20 C5.8954305,20 5,19.1045695 5,18 L5,5 C5,3.8954305 5.8954305,3 7,3 L17,3 C18.1045695,3 19,3.8954305 19,5 C19,6.66666667 19,9.33333333 19,11" id="路径" stroke="#333333" stroke-width="1.2" stroke-linecap="round" stroke-linejoin="round"></path>
                <line x1="8" y1="7" x2="15" y2="7" id="路径-15" stroke="#333333" stroke-width="1.2" stroke-linecap="round" stroke-linejoin="round"></line>
                <line x1="8" y1="11" x2="15" y2="11" id="路径-15" stroke="#333333" stroke-width="1.2" stroke-linecap="round" stroke-linejoin="round"></line>
                <line x1="8" y1="15" x2="11" y2="15" id="路径-15" stroke="#333333" stroke-width="1.2" stroke-linecap="round" stroke-linejoin="round"></line>
                <line x1="16" y1="16" x2="19" y2="19" id="路径-16" stroke="#333333" stroke-width="1.2" stroke-linecap="round" stroke-linejoin="round"></line>
                <line x1="19" y1="16" x2="16" y2="19" id="路径-17" stroke="#333333" stroke-width="1.2" stroke-linecap="round" stroke-linejoin="round"></line>
            </g>
        </g>
    </g>
</svg>