<?xml version="1.0" encoding="UTF-8"?>
<svg width="14px" height="14px" viewBox="0 0 14 14" version="1.1" xmlns="http://www.w3.org/2000/svg" xmlns:xlink="http://www.w3.org/1999/xlink">
    <title>icon_order_call</title>
    <g id="" stroke="none" stroke-width="1" fill="none" fill-rule="evenodd">
        <g id="icon" transform="translate(-670.000000, -243.000000)" fill="#333333" fill-rule="nonzero">
            <path d="M675.423132,247.177584 L673.935034,248.692737 C674.709522,250.412505 676.353193,252.32843 678.258972,252.972709 L679.545839,251.690916 C679.545839,251.690916 682.594747,252.223587 683.27961,252.555027 C683.87485,252.8425 684.071008,253.481706 683.978002,254.269721 C683.879923,255.116922 682.768922,256.983808 680.770137,257.0041 C678.771351,257.024393 675.827286,255.517694 673.718584,253.297385 C671.609882,251.073694 669.729468,248.256454 670.03216,245.865352 C670.331471,243.472559 672.414807,243.044731 672.935642,243.005837 C673.46324,242.966944 673.880922,243.120827 674.198834,243.514834 C674.60806,244.023831 675.423132,247.177584 675.423132,247.177584 Z" id="icon_order_call" transform="translate(677.000000, 250.002151) scale(-1, 1) translate(-677.000000, -250.002151) "></path>
        </g>
    </g>
</svg>