<?xml version="1.0" encoding="UTF-8"?>
<svg width="20px" height="18px" viewBox="0 0 20 18" version="1.1" xmlns="http://www.w3.org/2000/svg" xmlns:xlink="http://www.w3.org/1999/xlink">
    <title>图标/我/icon_my_recommendatio</title>
    <g id="" stroke="none" stroke-width="1" fill="none" fill-rule="evenodd">
        <g id="icon" transform="translate(-52.000000, -495.000000)">
            <g id="编组" transform="translate(50.000000, 491.000000)">
                <rect id="图标/我/icon_my_order1" fill-opacity="0" fill="#D8D8D8" x="0" y="0" width="24" height="24"></rect>
                <path d="M19,4.6 C19.6627417,4.6 20.2627417,4.86862915 20.6970563,5.30294373 C21.1313708,5.7372583 21.4,6.3372583 21.4,7 L21.4,7 L21.4,17 C21.4,17.6627417 21.1313708,18.2627417 20.6970563,18.6970563 C20.2627417,19.1313708 19.6627417,19.4 19,19.4 L19,19.4 L15.6055513,19.4 C14.4018798,19.4 13.277847,20.0015641 12.6101702,21.0030793 C12.4706509,21.2123582 12.2998666,21.354405 12.1130429,21.4067299 C10.603526,19.9014678 9.52180863,19.4 8.39444872,19.4 L8.39444872,19.4 L5,19.4 C4.3372583,19.4 3.7372583,19.1313708 3.30294373,18.6970563 C2.86862915,18.2627417 2.6,17.6627417 2.6,17 L2.6,17 L2.6,7 C2.6,6.3372583 2.86862915,5.7372583 3.30294373,5.30294373 C3.7372583,4.86862915 4.3372583,4.6 5,4.6 L5,4.6 Z" id="矩形" stroke="#333333" stroke-width="1.2"></path>
                <rect id="矩形" fill="#333333" x="11" y="7" width="2" height="7" rx="1"></rect>
                <rect id="矩形" fill="#333333" x="11" y="15" width="2" height="2" rx="1"></rect>
            </g>
        </g>
    </g>
</svg>