<?xml version="1.0" encoding="UTF-8"?>
<svg width="14px" height="15px" viewBox="0 0 14 15" version="1.1" xmlns="http://www.w3.org/2000/svg" xmlns:xlink="http://www.w3.org/1999/xlink">
    <title>icon_order_cos</title>
    <g id="" stroke="none" stroke-width="1" fill="none" fill-rule="evenodd">
        <g id="icon" transform="translate(-640.000000, -243.000000)" fill="#333333" fill-rule="nonzero">
            <g id="icon_order_cos" transform="translate(640.000000, 243.000000)">
                <path d="M14,10.5014 C13.9993585,12.4735741 12.6270564,14.1798525 10.7009,14.6034 L10.2543,13.2636 C11.0824205,13.1272076 11.8058012,12.6268008 12.2255,11.9 L10.5,11.9 C10.1286969,11.9 9.77260143,11.7525004 9.5100505,11.4899495 C9.24749957,11.2273986 9.09999999,10.8713031 9.1,10.5 L9.1,7.7 C9.09999999,7.32869692 9.24749957,6.97260144 9.5100505,6.71005051 C9.77260143,6.44749957 10.1286969,6.3 10.5,6.3 L12.5566,6.3 C12.2031664,3.50025715 9.82196303,1.40075344 7,1.40075344 C4.17803697,1.40075344 1.79683362,3.50025715 1.4434,6.3 L3.5,6.3 C3.8713031,6.3 4.22739857,6.44749957 4.4899495,6.71005051 C4.75250043,6.97260144 4.90000001,7.32869692 4.9,7.7 L4.9,10.5 C4.90000001,10.8713031 4.75250043,11.2273986 4.4899495,11.4899495 C4.22739857,11.7525004 3.8713031,11.9 3.5,11.9 L1.40000001,11.9 C1.02869692,11.9 0.672601437,11.7525004 0.410050504,11.4899495 C0.147499572,11.2273986 2.98427949e-16,10.8713031 2.98427949e-16,10.5 L2.98427949e-16,7 C2.98427949e-16,3.1339 3.1339,5.96855898e-16 7,5.96855898e-16 C10.8661,5.96855898e-16 14,3.1339 14,7 L14,10.5014 Z" id="路径"></path>
            </g>
        </g>
    </g>
</svg>