<?xml version="1.0" encoding="UTF-8"?>
<svg width="18px" height="19px" viewBox="0 0 18 19" version="1.1" xmlns="http://www.w3.org/2000/svg" xmlns:xlink="http://www.w3.org/1999/xlink">
    <title>图标/我/icon_my_about</title>
    <g id="" stroke="none" stroke-width="1" fill="none" fill-rule="evenodd">
        <g id="icon" transform="translate(-134.000000, -431.000000)">
            <g id="编组" transform="translate(131.000000, 428.500000)">
                <rect id="图标/我/icon_my_order1" fill-opacity="0" fill="#D8D8D8" x="0" y="0" width="24" height="24"></rect>
                <circle id="椭圆形" stroke="#333333" stroke-width="1.2" cx="12" cy="12" r="8.4"></circle>
                <g transform="translate(10.000000, 7.000000)" fill="#272636" fill-rule="nonzero" id="形状">
                    <path d="M2.98278673,0.00163856094 C3.57609864,0.0341523456 4.03080967,0.542853184 3.99836642,1.13786953 C3.96593491,1.73283886 3.45864465,2.18880767 2.865321,2.15629388 C2.27197382,2.1237801 1.81729805,1.61505574 1.84972956,1.02006291 C1.88216105,0.4250583 2.38943956,-0.0308987378 2.98278673,0.00163856094 Z M0.311096406,4.31579218 C0.311096406,4.31579218 2.3956931,2.78405911 3.07776552,3.08270162 C3.75980268,3.38136765 2.8375914,5.26952983 2.77034217,5.54889447 C2.7031047,5.82828262 2.27081008,8.96689264 3.69258871,7.78196151 C3.69258871,7.78196151 4.4034604,7.30991215 3.38516536,8.39848916 C2.36685856,9.48705441 1.07961364,9.83385636 0.925919598,9.01504031 C0.810040748,8.39776036 1.41875146,5.15904644 1.54071929,4.31579217 C1.58055632,4.04041241 1.23331945,4.31579217 1.23331945,4.31579217 C1.23331945,4.31579217 0.233820333,5.01951693 0.00368481541,4.62408538 C-0.0329666623,4.56110315 0.2135433,4.36786596 0.311096406,4.31579218 Z"></path>
                </g>
            </g>
        </g>
    </g>
</svg>