<svg width="24.000000" height="24.000000" viewBox="0 0 24 24" fill="none" xmlns="http://www.w3.org/2000/svg" xmlns:xlink="http://www.w3.org/1999/xlink">
	<desc>
			Created with Pixso.
	</desc>
	<defs>
		<clipPath id="clip1_251">
			<rect width="24.000000" height="24.000000" fill="white" fill-opacity="0"/>
		</clipPath>
	</defs>
	<g clip-path="url(#clip1_251)">
		<path d="M12.53 12L19.88 19.34C20.03 19.49 20.03 19.73 19.88 19.88C19.73 20.03 19.49 20.03 19.34 19.88L12 12.53L4.65 19.88C4.5 20.03 4.26 20.03 4.11 19.88C3.96 19.73 3.96 19.49 4.11 19.34L11.46 12L4.11 4.65C3.96 4.5 3.96 4.26 4.11 4.11C4.26 3.96 4.5 3.96 4.65 4.11L12 11.46L19.34 4.11C19.49 3.96 19.73 3.96 19.88 4.11C20.03 4.26 20.03 4.5 19.88 4.65L12.53 12Z" fill="#CCCCCC" fill-opacity="1.000000" fill-rule="nonzero"/>
		<path d="M19.88 19.34C20.03 19.49 20.03 19.73 19.88 19.88C19.73 20.03 19.49 20.03 19.34 19.88L12 12.53L4.65 19.88C4.5 20.03 4.26 20.03 4.11 19.88C3.96 19.73 3.96 19.49 4.11 19.34L11.46 12L4.11 4.65C3.96 4.5 3.96 4.26 4.11 4.11C4.26 3.96 4.5 3.96 4.65 4.11L12 11.46L19.34 4.11C19.49 3.96 19.73 3.96 19.88 4.11C20.03 4.26 20.03 4.5 19.88 4.65L12.53 12L19.88 19.34Z" stroke="#CCCCCC" stroke-opacity="1.000000" stroke-width="0.500000"/>
	</g>
</svg>
