<svg width="24.000000" height="24.000000" viewBox="0 0 24 24" fill="none" xmlns="http://www.w3.org/2000/svg" xmlns:xlink="http://www.w3.org/1999/xlink">
	<desc>
			Created with Pixso.
	</desc>
	<defs>
		<clipPath id="clip157_4454">
			<rect width="24.000000" height="24.000000" fill="white" fill-opacity="0"/>
		</clipPath>
	</defs>
	<g clip-path="url(#clip157_4454)">
		<path d="M8.09 12L15.05 5.04C15.19 4.88 15.26 4.69 15.26 4.5C15.26 4.3 15.19 4.12 15.05 3.95C14.9 3.81 14.72 3.73 14.52 3.73C14.31 3.73 14.13 3.81 13.99 3.95L7.01 10.93C6.72 11.23 6.58 11.58 6.58 12C6.58 12.41 6.72 12.76 7.01 13.05L13.97 19.99C14.09 20.13 14.26 20.2 14.48 20.2C14.7 20.2 14.88 20.13 15.02 19.99C15.16 19.85 15.24 19.67 15.24 19.45C15.24 19.25 15.16 19.08 15.02 18.93L8.09 12Z" fill="#000000" fill-opacity="0.898039" fill-rule="nonzero"/>
	</g>
</svg>
