<svg width="14.000000" height="14.000000" viewBox="0 0 14 14" fill="none" xmlns="http://www.w3.org/2000/svg" xmlns:xlink="http://www.w3.org/1999/xlink">
	<desc>
			Created with Pixso.
	</desc>
	<defs/>
	<path d="M0.07 3.42C-0.15 2.47 0.14 1.46 0.84 0.77C1.22 0.34 1.59 0.09 1.94 0.02C2.46 -0.08 2.99 0.13 3.32 0.54L4.44 1.93C4.5 1.99 4.54 2.05 4.57 2.08C5 2.56 5.01 3.31 4.57 3.78L3.79 4.52C3.48 4.82 3.43 5.29 3.66 5.65C4.09 6.36 4.91 7.3 5.81 8.18C6.69 9.08 7.63 9.9 8.34 10.33C8.7 10.56 9.17 10.51 9.47 10.2L10.18 9.45C10.64 9.02 11.36 8.97 11.84 9.36L11.96 9.46C12.24 9.69 13.1 10.39 13.45 10.67C13.86 11 14.07 11.53 13.97 12.05C13.9 12.4 13.65 12.77 13.22 13.15C12.53 13.85 11.52 14.14 10.57 13.92C8.53 13.45 6.12 11.85 4.12 9.87C2.14 7.87 0.54 5.46 0.07 3.42Z" fill="#FFFFFF" fill-opacity="1.000000" fill-rule="nonzero"/>
	<path d="M0.84 0.77C1.22 0.34 1.59 0.09 1.94 0.02C2.46 -0.08 2.99 0.13 3.32 0.54L4.44 1.93C4.5 1.99 4.54 2.05 4.57 2.08C5 2.56 5.01 3.31 4.57 3.78L3.79 4.52C3.48 4.82 3.43 5.29 3.66 5.65C4.09 6.36 4.91 7.3 5.81 8.18C6.69 9.08 7.63 9.9 8.34 10.33C8.7 10.56 9.17 10.51 9.47 10.2L10.18 9.45C10.64 9.02 11.36 8.97 11.84 9.36L11.96 9.46C12.24 9.69 13.1 10.39 13.45 10.67C13.86 11 14.07 11.53 13.97 12.05C13.9 12.4 13.65 12.77 13.22 13.15C12.53 13.85 11.52 14.14 10.57 13.92C8.53 13.45 6.12 11.85 4.12 9.87C2.14 7.87 0.54 5.46 0.07 3.42C-0.15 2.47 0.14 1.46 0.84 0.77Z" stroke="#000000" stroke-opacity="0" stroke-width="1.000000"/>
</svg>
