<svg width="32.000000" height="32.000000" viewBox="0 0 32 32" fill="none" xmlns="http://www.w3.org/2000/svg" xmlns:xlink="http://www.w3.org/1999/xlink">
	<desc>
			Created with Pixso.
	</desc>
	<defs/>
	<rect rx="16.000000" width="32.000000" height="32.000000" fill="#62B42E" fill-opacity="0.100000"/>
	<path d="M13.08 16.71C14.29 16.71 15.28 17.7 15.28 18.91L15.28 22.79C15.28 24.01 14.29 25 13.08 25L9.19 25C7.98 25 7 24.01 7 22.79L7 18.91C7 17.7 7.98 16.71 9.19 16.71L13.08 16.71ZM24.25 22.79C24.52 22.79 24.74 23.01 24.74 23.28L24.74 24.25C24.74 24.52 24.52 24.74 24.25 24.74L23.28 24.74C23.01 24.74 22.8 24.52 22.8 24.25L22.8 23.28C22.8 23.01 23.01 22.79 23.28 22.79L24.25 22.79ZM18.42 20.85C18.69 20.85 18.91 21.07 18.91 21.34L18.91 24.25C18.91 24.52 18.69 24.74 18.42 24.74L17.45 24.74C17.18 24.74 16.97 24.52 16.97 24.25L16.97 21.34C16.97 21.07 17.18 20.85 17.45 20.85L18.42 20.85ZM13.08 18.65L9.19 18.65C9.06 18.65 8.94 18.77 8.94 18.91L8.94 22.79C8.94 22.93 9.06 23.05 9.19 23.05L13.08 23.05C13.22 23.05 13.34 22.93 13.34 22.79L13.34 18.91C13.34 18.77 13.22 18.65 13.08 18.65ZM22.31 20.85C22.58 20.85 22.8 21.07 22.8 21.34L22.8 22.31C22.8 22.58 22.58 22.79 22.31 22.79L21.34 22.79C21.07 22.79 20.85 22.58 20.85 22.31L20.85 21.34C20.85 21.07 21.07 20.85 21.34 20.85L22.31 20.85ZM11.62 19.88C11.89 19.88 12.11 20.1 12.11 20.37L12.11 21.34C12.11 21.61 11.89 21.82 11.62 21.82L10.65 21.82C10.38 21.82 10.17 21.61 10.17 21.34L10.17 20.37C10.17 20.1 10.38 19.88 10.65 19.88L11.62 19.88ZM20.37 16.97C20.63 16.97 20.85 17.18 20.85 17.45L20.85 20.37C20.85 20.63 20.63 20.85 20.37 20.85L19.39 20.85C19.13 20.85 18.91 20.63 18.91 20.37L18.91 18.91L17.45 18.91C17.18 18.91 16.97 18.69 16.97 18.42L16.97 17.45C16.97 17.18 17.18 16.97 17.45 16.97L20.37 16.97ZM24.25 16.97C24.52 16.97 24.74 17.18 24.74 17.45L24.74 20.37C24.74 20.63 24.52 20.85 24.25 20.85L23.28 20.85C23.01 20.85 22.8 20.63 22.8 20.37L22.8 17.45C22.8 17.18 23.01 16.97 23.28 16.97L24.25 16.97ZM22.79 7C24.01 7 25 7.98 25 9.2L25 13.08C25 14.29 24.01 15.28 22.79 15.28L18.91 15.28C17.7 15.28 16.71 14.29 16.71 13.08L16.71 9.2C16.71 7.98 17.7 7 18.91 7L22.79 7ZM13.08 7C14.29 7 15.28 7.98 15.28 9.2L15.28 13.08C15.28 14.29 14.29 15.28 13.08 15.28L9.19 15.28C7.98 15.28 7 14.29 7 13.08L7 9.2C7 7.98 7.98 7 9.19 7L13.08 7ZM22.79 8.94L18.91 8.94C18.77 8.94 18.65 9.06 18.65 9.2L18.65 13.08C18.65 13.22 18.77 13.34 18.91 13.34L22.79 13.34C22.93 13.34 23.05 13.22 23.05 13.08L23.05 9.2C23.05 9.06 22.93 8.94 22.79 8.94ZM13.08 8.94L9.19 8.94C9.06 8.94 8.94 9.06 8.94 9.2L8.94 13.08C8.94 13.22 9.06 13.34 9.19 13.34L13.08 13.34C13.22 13.34 13.34 13.22 13.34 13.08L13.34 9.2C13.34 9.06 13.22 8.94 13.08 8.94ZM11.62 10.17C11.89 10.17 12.11 10.38 12.11 10.65L12.11 11.62C12.11 11.89 11.89 12.11 11.62 12.11L10.65 12.11C10.38 12.11 10.17 11.89 10.17 11.62L10.17 10.65C10.17 10.38 10.38 10.17 10.65 10.17L11.62 10.17ZM21.34 10.17C21.61 10.17 21.82 10.38 21.82 10.65L21.82 11.62C21.82 11.89 21.61 12.11 21.34 12.11L20.37 12.11C20.1 12.11 19.88 11.89 19.88 11.62L19.88 10.65C19.88 10.38 20.1 10.17 20.37 10.17L21.34 10.17Z" fill="#62B42E" fill-opacity="1.000000" fill-rule="evenodd"/>
</svg>
