<svg width="32.000000" height="32.000000" viewBox="0 0 32 32" fill="none" xmlns="http://www.w3.org/2000/svg" xmlns:xlink="http://www.w3.org/1999/xlink">
	<desc>
			Created with Pixso.
	</desc>
	<defs/>
	<rect rx="16.000000" width="32.000000" height="32.000000" fill="#62B42E" fill-opacity="0.100000"/>
	<path d="M17 7C17.91 7 18.67 7.7 18.74 8.6L18.75 8.75L18.75 9.99L19 10C20.65 10 22 11.34 22 13L22 13.25C22 13.66 21.66 14 21.25 14C20.83 14 20.5 13.66 20.5 13.25L20.5 13C20.5 12.22 19.9 11.57 19.14 11.5L19 11.5L18.75 11.49L10.25 11.5L10 11.5C9.22 11.5 8.57 12.09 8.5 12.85L8.5 13L8.5 21C8.5 21.77 9.09 22.42 9.85 22.49L10 22.5L15.71 22.5C16.13 22.5 16.46 22.83 16.46 23.25C16.46 23.66 16.13 24 15.71 24L11.75 23.99L11.75 24.25C11.75 24.66 11.41 25 11 25C10.62 25 10.3 24.71 10.25 24.35L10.25 24.25L10.25 23.99L10 24C8.34 24 7 22.65 7 21L7 13C7 11.34 8.34 10 10 10L10.25 9.99L10.25 8.75C10.25 7.83 10.95 7.08 11.85 7L12 7L17 7ZM17 8.5L12 8.5C11.88 8.5 11.78 8.58 11.75 8.69L11.75 9.99L17.25 9.99L17.25 8.75C17.25 8.65 17.19 8.57 17.11 8.53L17 8.5Z" fill="#62B42E" fill-opacity="1.000000" fill-rule="nonzero"/>
	<path d="M18.74 8.6L18.75 8.75L18.75 9.99L19 10C20.65 10 22 11.34 22 13L22 13.25C22 13.66 21.66 14 21.25 14C20.83 14 20.5 13.66 20.5 13.25L20.5 13C20.5 12.22 19.9 11.57 19.14 11.5L19 11.5L18.75 11.49L10.25 11.5L10 11.5C9.22 11.5 8.57 12.09 8.5 12.85L8.5 13L8.5 21C8.5 21.77 9.09 22.42 9.85 22.49L10 22.5L15.71 22.5C16.13 22.5 16.46 22.83 16.46 23.25C16.46 23.66 16.13 24 15.71 24L11.75 23.99L11.75 24.25C11.75 24.66 11.41 25 11 25C10.62 25 10.3 24.71 10.25 24.35L10.25 24.25L10.25 23.99L10 24C8.34 24 7 22.65 7 21L7 13C7 11.34 8.34 10 10 10L10.25 9.99L10.25 8.75C10.25 7.83 10.95 7.08 11.85 7L12 7L17 7C17.91 7 18.67 7.7 18.74 8.6ZM12 8.5C11.88 8.5 11.78 8.58 11.75 8.69L11.75 9.99L17.25 9.99L17.25 8.75C17.25 8.65 17.19 8.57 17.11 8.53L17 8.5L12 8.5Z" stroke="#000000" stroke-opacity="0" stroke-width="1.000000"/>
	<path d="M11.75 14C12.12 14 12.44 14.28 12.49 14.64L12.5 14.75L12.5 18.75C12.5 19.16 12.16 19.5 11.75 19.5C11.37 19.5 11.05 19.21 11 18.85L11 18.75L11 14.75C11 14.33 11.33 14 11.75 14Z" fill="#ABE189" fill-opacity="1.000000" fill-rule="evenodd"/>
	<path d="M12.49 14.64L12.5 14.75L12.5 18.75C12.5 19.16 12.16 19.5 11.75 19.5C11.37 19.5 11.05 19.21 11 18.85L11 18.75L11 14.75C11 14.33 11.33 14 11.75 14C12.12 14 12.44 14.28 12.49 14.64Z" stroke="#000000" stroke-opacity="0" stroke-width="1.000000"/>
	<path d="M21 15.5C18.51 15.5 16.5 17.51 16.5 20C16.5 22.48 18.51 24.5 21 24.5C23.48 24.5 25.5 22.48 25.5 20C25.5 17.51 23.48 15.5 21 15.5ZM21 16.71C19.18 16.71 17.71 18.18 17.71 20C17.71 21.81 19.18 23.28 21 23.28C22.81 23.28 24.28 21.81 24.28 20C24.28 18.18 22.81 16.71 21 16.71ZM22.77 19.85C22.77 19.99 22.76 20.13 22.73 20.26C22.7 20.37 22.62 20.6 22.57 20.71L22.88 21.02C23.13 21.27 23.13 21.64 22.88 21.88C22.64 22.13 22.27 22.13 22.02 21.88L21.6 21.62C21.49 21.67 21.37 21.7 21.26 21.73C21.13 21.76 20.99 21.77 20.85 21.77C20.71 21.77 20.57 21.76 20.44 21.73C20.32 21.7 20.21 21.67 20.1 21.62C19.99 21.57 19.89 21.52 19.79 21.45C19.68 21.38 19.58 21.3 19.49 21.21C19.4 21.12 19.32 21.02 19.25 20.91C19.18 20.81 19.13 20.71 19.08 20.6C19.03 20.49 19 20.37 18.97 20.26C18.94 20.13 18.93 19.99 18.93 19.85C18.93 19.71 18.94 19.57 18.97 19.44C19 19.32 19.03 19.21 19.08 19.1C19.13 18.99 19.18 18.89 19.25 18.79C19.32 18.68 19.4 18.58 19.49 18.49C19.58 18.4 19.68 18.32 19.79 18.25C19.89 18.18 19.99 18.13 20.1 18.08C20.21 18.03 20.32 18 20.44 17.97C20.57 17.94 20.71 17.93 20.85 17.93C20.99 17.93 21.13 17.94 21.26 17.97C21.37 18 21.49 18.03 21.6 18.08C21.71 18.13 21.81 18.18 21.91 18.25C22.02 18.32 22.12 18.4 22.21 18.49C22.3 18.58 22.38 18.68 22.45 18.79C22.52 18.89 22.57 18.99 22.62 19.1C22.67 19.21 22.7 19.32 22.73 19.44C22.76 19.57 22.77 19.71 22.77 19.85ZM21.55 19.85C21.55 19.75 21.54 19.66 21.5 19.58C21.47 19.5 21.42 19.42 21.35 19.35C21.28 19.28 21.2 19.23 21.12 19.2C21.04 19.16 20.95 19.14 20.85 19.14C20.75 19.14 20.66 19.16 20.58 19.2C20.5 19.23 20.42 19.28 20.35 19.35C20.28 19.42 20.23 19.5 20.2 19.58C20.16 19.66 20.14 19.75 20.14 19.85C20.14 19.95 20.16 20.04 20.2 20.12C20.23 20.2 20.28 20.28 20.35 20.35C20.42 20.42 20.5 20.47 20.58 20.5C20.66 20.54 20.75 20.55 20.85 20.55C20.95 20.55 21.04 20.54 21.12 20.5C21.2 20.47 21.28 20.42 21.35 20.35C21.42 20.28 21.47 20.2 21.5 20.12C21.54 20.04 21.55 19.95 21.55 19.85Z" fill="#62B42E" fill-opacity="1.000000" fill-rule="evenodd"/>
</svg>
