<svg width="32.000000" height="32.000000" viewBox="0 0 32 32" fill="none" xmlns="http://www.w3.org/2000/svg" xmlns:xlink="http://www.w3.org/1999/xlink">
	<desc>
			Created with Pixso.
	</desc>
	<defs>
		<clipPath id="clip190_1426">
			<rect width="24.000000" height="24.000000" transform="translate(4.000000 4.000000)" fill="white" fill-opacity="0"/>
		</clipPath>
	</defs>
	<rect rx="16.000000" width="32.000000" height="32.000000" fill="#62B42E" fill-opacity="0.100000"/>
	<g clip-path="url(#clip190_1426)">
		<path d="M23.4 7.97C23.4 7.43 22.95 7 22.4 7L9.99 7C9.44 7 9 7.43 9 7.97L9 22.08C9 23.69 10.33 25 11.97 25L22.4 25C22.95 25 23.4 24.56 23.4 24.02L23.4 7.97ZM22.65 7.97C22.65 7.83 22.54 7.72 22.4 7.72L9.99 7.72C9.85 7.72 9.74 7.83 9.74 7.97L9.74 22.08C9.74 23.29 10.74 24.27 11.97 24.27L22.4 24.27C22.54 24.27 22.65 24.16 22.65 24.02L22.65 7.97ZM10.98 8.94L17.44 8.94C17.71 8.94 17.93 9.16 17.93 9.43L17.93 12.35C17.93 12.62 17.71 12.83 17.44 12.83L10.98 12.83C10.71 12.83 10.48 12.62 10.48 12.35L10.48 9.43C10.48 9.16 10.71 8.94 10.98 8.94ZM20.91 15.27L10.98 15.27C10.71 15.27 10.48 15.48 10.48 15.75C10.48 16.02 10.71 16.24 10.98 16.24L20.91 16.24C21.19 16.24 21.41 16.02 21.41 15.75C21.41 15.48 21.19 15.27 20.91 15.27ZM20.91 18.18L10.98 18.18C10.71 18.18 10.48 18.4 10.48 18.67C10.48 18.94 10.71 19.16 10.98 19.16L20.91 19.16C21.19 19.16 21.41 18.94 21.41 18.67C21.41 18.4 21.19 18.18 20.91 18.18ZM10.98 21.1L17.44 21.1C17.71 21.1 17.93 21.32 17.93 21.59C17.93 21.86 17.71 22.08 17.44 22.08L10.98 22.08C10.71 22.08 10.48 21.86 10.48 21.59C10.48 21.32 10.71 21.1 10.98 21.1Z" fill="#62B42E" fill-opacity="1.000000" fill-rule="evenodd"/>
	</g>
</svg>
