<svg width="32.000000" height="32.000000" viewBox="0 0 32 32" fill="none" xmlns="http://www.w3.org/2000/svg" xmlns:xlink="http://www.w3.org/1999/xlink">
	<desc>
			Created with Pixso.
	</desc>
	<defs/>
	<rect rx="16.000000" width="32.000000" height="32.000000" fill="#62B42E" fill-opacity="0.100000"/>
	<path d="M17 7C17.91 7 18.67 7.7 18.74 8.6L18.75 8.75L18.75 9.99L19 10C20.65 10 22 11.34 22 13L22 13.25C22 13.66 21.66 14 21.25 14C20.83 14 20.5 13.66 20.5 13.25L20.5 13C20.5 12.22 19.9 11.57 19.14 11.5L19 11.5L18.75 11.49L10.25 11.5L10 11.5C9.22 11.5 8.57 12.09 8.5 12.85L8.5 13L8.5 21C8.5 21.77 9.09 22.42 9.85 22.49L10 22.5L15.71 22.5C16.13 22.5 16.46 22.83 16.46 23.25C16.46 23.66 16.13 24 15.71 24L11.75 23.99L11.75 24.25C11.75 24.66 11.41 25 11 25C10.62 25 10.3 24.71 10.25 24.35L10.25 24.25L10.25 23.99L10 24C8.34 24 7 22.65 7 21L7 13C7 11.34 8.34 10 10 10L10.25 9.99L10.25 8.75C10.25 7.83 10.95 7.08 11.85 7L12 7L17 7ZM17 8.5L12 8.5C11.88 8.5 11.78 8.58 11.75 8.69L11.75 9.99L17.25 9.99L17.25 8.75C17.25 8.65 17.19 8.57 17.11 8.53L17 8.5Z" fill="#62B42E" fill-opacity="1.000000" fill-rule="nonzero"/>
	<path d="M18.74 8.6L18.75 8.75L18.75 9.99L19 10C20.65 10 22 11.34 22 13L22 13.25C22 13.66 21.66 14 21.25 14C20.83 14 20.5 13.66 20.5 13.25L20.5 13C20.5 12.22 19.9 11.57 19.14 11.5L19 11.5L18.75 11.49L10.25 11.5L10 11.5C9.22 11.5 8.57 12.09 8.5 12.85L8.5 13L8.5 21C8.5 21.77 9.09 22.42 9.85 22.49L10 22.5L15.71 22.5C16.13 22.5 16.46 22.83 16.46 23.25C16.46 23.66 16.13 24 15.71 24L11.75 23.99L11.75 24.25C11.75 24.66 11.41 25 11 25C10.62 25 10.3 24.71 10.25 24.35L10.25 24.25L10.25 23.99L10 24C8.34 24 7 22.65 7 21L7 13C7 11.34 8.34 10 10 10L10.25 9.99L10.25 8.75C10.25 7.83 10.95 7.08 11.85 7L12 7L17 7C17.91 7 18.67 7.7 18.74 8.6ZM12 8.5C11.88 8.5 11.78 8.58 11.75 8.69L11.75 9.99L17.25 9.99L17.25 8.75C17.25 8.65 17.19 8.57 17.11 8.53L17 8.5L12 8.5Z" stroke="#000000" stroke-opacity="0" stroke-width="1.000000"/>
	<path d="M11.75 14C12.12 14 12.44 14.28 12.49 14.64L12.5 14.75L12.5 18.75C12.5 19.16 12.16 19.5 11.75 19.5C11.37 19.5 11.05 19.21 11 18.85L11 18.75L11 14.75C11 14.33 11.33 14 11.75 14Z" fill="#ABE189" fill-opacity="1.000000" fill-rule="evenodd"/>
	<path d="M12.49 14.64L12.5 14.75L12.5 18.75C12.5 19.16 12.16 19.5 11.75 19.5C11.37 19.5 11.05 19.21 11 18.85L11 18.75L11 14.75C11 14.33 11.33 14 11.75 14C12.12 14 12.44 14.28 12.49 14.64Z" stroke="#000000" stroke-opacity="0" stroke-width="1.000000"/>
	<path d="M18.37 21.75L22.75 17.37L23.81 18.43L19.43 22.81L18.37 21.75ZM19.43 22.78L19.43 22.81C19.13 23.1 18.67 23.1 18.37 22.81C18.07 22.51 18.07 22.04 18.37 21.75L18.4 21.75L19.43 22.78ZM22.75 17.4L22.75 17.37C23.04 17.07 23.51 17.07 23.81 17.37C24.1 17.67 24.1 18.13 23.81 18.43L23.78 18.43L22.75 17.4Z" fill="#62B42E" fill-opacity="1.000000" fill-rule="evenodd"/>
	<ellipse cx="21.093781" cy="20.093750" rx="3.843776" ry="3.843780" stroke="#62B42E" stroke-opacity="1.000000" stroke-width="1.500000" stroke-linejoin="round"/>
</svg>
