<svg width="32.000000" height="32.000000" viewBox="0 0 32 32" fill="none" xmlns="http://www.w3.org/2000/svg" xmlns:xlink="http://www.w3.org/1999/xlink">
	<desc>
			Created with Pixso.
	</desc>
	<defs/>
	<path d="M28.04 32L3.95 32C3.82 31.99 3.69 31.99 3.56 31.97C3.43 31.96 3.3 31.94 3.18 31.92C3.05 31.89 2.92 31.86 2.8 31.82C2.68 31.78 2.55 31.74 2.43 31.69C2.31 31.64 2.2 31.58 2.08 31.52C1.97 31.46 1.86 31.39 1.75 31.32C1.64 31.25 1.54 31.17 1.44 31.08C1.34 31 1.24 30.91 1.15 30.82C1.06 30.73 0.97 30.63 0.89 30.53C0.81 30.43 0.73 30.33 0.66 30.22C0.59 30.11 0.52 30 0.46 29.89C0.4 29.77 0.34 29.65 0.29 29.53C0.24 29.41 0.2 29.29 0.16 29.17C0.13 29.04 0.09 28.92 0.07 28.79C0.04 28.66 0.03 28.53 0.01 28.4C0 28.27 -0.01 28.14 0 28.01L0 7.3C-0.01 7.17 0 7.05 0.01 6.92C0.03 6.79 0.04 6.66 0.07 6.53C0.09 6.4 0.13 6.28 0.16 6.15C0.2 6.03 0.24 5.91 0.29 5.79C0.34 5.67 0.4 5.55 0.46 5.43C0.52 5.32 0.59 5.21 0.66 5.1C0.73 4.99 0.81 4.89 0.89 4.79C0.97 4.68 1.06 4.59 1.15 4.5C1.24 4.4 1.34 4.32 1.44 4.23C1.54 4.15 1.64 4.07 1.75 4C1.86 3.93 1.97 3.86 2.08 3.8C2.2 3.74 2.31 3.68 2.43 3.63C2.55 3.58 2.68 3.54 2.8 3.5C2.92 3.46 3.05 3.43 3.18 3.4C3.3 3.38 3.43 3.36 3.56 3.34C3.69 3.33 3.82 3.32 3.95 3.32L5.91 3.32L5.91 5.76L3.95 5.76C3.85 5.76 3.75 5.77 3.65 5.79C3.55 5.81 3.46 5.84 3.36 5.88C3.27 5.92 3.18 5.97 3.1 6.02C3.01 6.08 2.94 6.14 2.86 6.22C2.79 6.29 2.73 6.37 2.67 6.45C2.62 6.53 2.57 6.62 2.53 6.72C2.49 6.81 2.46 6.91 2.45 7C2.43 7.1 2.42 7.2 2.42 7.3L2.42 28.01C2.42 28.12 2.43 28.22 2.45 28.31C2.46 28.41 2.49 28.51 2.53 28.6C2.57 28.7 2.62 28.79 2.67 28.87C2.73 28.95 2.79 29.03 2.86 29.1C2.94 29.18 3.01 29.24 3.1 29.3C3.18 29.35 3.27 29.4 3.36 29.44C3.46 29.48 3.55 29.51 3.65 29.53C3.75 29.55 3.85 29.56 3.95 29.56L28.04 29.56C28.14 29.56 28.24 29.55 28.34 29.53C28.44 29.51 28.53 29.48 28.63 29.44C28.72 29.4 28.81 29.35 28.89 29.3C28.98 29.24 29.05 29.18 29.13 29.1C29.2 29.03 29.26 28.95 29.32 28.87C29.37 28.79 29.42 28.7 29.46 28.6C29.5 28.51 29.53 28.41 29.54 28.31C29.56 28.22 29.57 28.12 29.57 28.01L29.57 7.3C29.57 7.2 29.56 7.1 29.54 7C29.53 6.91 29.5 6.81 29.46 6.72C29.42 6.62 29.37 6.53 29.32 6.45C29.26 6.37 29.2 6.29 29.13 6.22C29.05 6.14 28.98 6.08 28.89 6.02C28.81 5.97 28.72 5.92 28.63 5.88C28.53 5.84 28.44 5.81 28.34 5.79C28.24 5.77 28.14 5.76 28.04 5.76L25.79 5.76L25.79 3.32L28.04 3.32C28.17 3.32 28.3 3.33 28.43 3.35C28.56 3.36 28.69 3.38 28.81 3.4C28.94 3.43 29.07 3.46 29.19 3.5C29.31 3.54 29.44 3.58 29.56 3.63C29.68 3.68 29.79 3.74 29.91 3.8C30.02 3.86 30.13 3.93 30.24 4C30.35 4.07 30.45 4.15 30.55 4.23C30.65 4.32 30.75 4.4 30.84 4.5C30.93 4.59 31.02 4.69 31.1 4.79C31.18 4.89 31.26 4.99 31.33 5.1C31.4 5.21 31.47 5.32 31.53 5.43C31.59 5.55 31.65 5.67 31.7 5.79C31.75 5.91 31.79 6.03 31.83 6.15C31.86 6.28 31.9 6.4 31.92 6.53C31.95 6.66 31.96 6.79 31.98 6.92C31.99 7.05 32 7.17 32 7.3L32 28.01C32 28.14 31.99 28.27 31.98 28.4C31.96 28.53 31.95 28.66 31.92 28.79C31.9 28.92 31.86 29.04 31.83 29.17C31.79 29.29 31.75 29.41 31.7 29.53C31.65 29.65 31.59 29.77 31.53 29.89C31.47 30 31.4 30.11 31.33 30.22C31.26 30.33 31.18 30.43 31.1 30.53C31.02 30.63 30.93 30.73 30.84 30.82C30.75 30.91 30.65 31 30.55 31.08C30.45 31.17 30.35 31.25 30.24 31.32C30.13 31.39 30.02 31.46 29.91 31.52C29.79 31.58 29.68 31.64 29.56 31.69C29.44 31.74 29.31 31.78 29.19 31.82C29.07 31.86 28.94 31.89 28.81 31.92C28.69 31.94 28.56 31.96 28.43 31.97C28.3 31.99 28.17 31.99 28.04 32ZM19.82 8.48L11.95 8.48C11.81 8.48 11.67 8.47 11.53 8.46C11.39 8.45 11.26 8.42 11.12 8.4C10.99 8.37 10.85 8.34 10.72 8.29C10.59 8.25 10.46 8.21 10.33 8.15C10.2 8.1 10.08 8.04 9.96 7.97C9.83 7.91 9.72 7.84 9.6 7.76C9.49 7.68 9.38 7.6 9.27 7.51C9.16 7.42 9.06 7.33 8.96 7.23C8.87 7.13 8.77 7.03 8.69 6.92C8.6 6.82 8.52 6.7 8.44 6.59C8.36 6.47 8.29 6.35 8.23 6.23C8.16 6.11 8.1 5.98 8.05 5.86C8 5.73 7.95 5.6 7.91 5.47C7.87 5.33 7.84 5.2 7.81 5.06C7.78 4.93 7.76 4.79 7.75 4.65C7.74 4.52 7.73 4.38 7.73 4.24C7.73 4.1 7.74 3.96 7.75 3.83C7.76 3.69 7.78 3.55 7.81 3.41C7.84 3.28 7.87 3.14 7.91 3.01C7.95 2.88 8 2.75 8.05 2.62C8.1 2.49 8.16 2.37 8.23 2.25C8.29 2.12 8.36 2.01 8.44 1.89C8.52 1.77 8.6 1.66 8.69 1.56C8.77 1.45 8.87 1.35 8.96 1.25C9.06 1.15 9.16 1.06 9.27 0.97C9.38 0.88 9.49 0.8 9.6 0.72C9.72 0.64 9.83 0.57 9.96 0.51C10.08 0.44 10.2 0.38 10.33 0.33C10.46 0.27 10.59 0.23 10.72 0.18C10.85 0.14 10.99 0.11 11.12 0.08C11.26 0.05 11.39 0.03 11.53 0.02C11.67 0 11.81 0 11.95 0L19.82 0C19.96 0 20.09 0 20.23 0.02C20.37 0.03 20.51 0.05 20.64 0.08C20.78 0.11 20.91 0.14 21.04 0.18C21.18 0.23 21.31 0.27 21.43 0.33C21.56 0.38 21.69 0.44 21.81 0.51C21.93 0.57 22.05 0.64 22.16 0.72C22.28 0.8 22.39 0.88 22.49 0.97C22.6 1.06 22.7 1.15 22.8 1.25C22.9 1.35 22.99 1.45 23.08 1.56C23.17 1.66 23.25 1.77 23.32 1.89C23.4 2.01 23.47 2.12 23.54 2.25C23.6 2.37 23.66 2.49 23.71 2.62C23.77 2.75 23.81 2.88 23.85 3.01C23.89 3.14 23.93 3.28 23.95 3.41C23.98 3.55 24 3.69 24.01 3.83C24.03 3.96 24.03 4.1 24.03 4.24C24.03 4.38 24.03 4.52 24.01 4.65C24 4.79 23.98 4.93 23.95 5.06C23.93 5.2 23.89 5.33 23.85 5.47C23.81 5.6 23.77 5.73 23.71 5.86C23.66 5.98 23.6 6.11 23.54 6.23C23.47 6.35 23.4 6.47 23.32 6.59C23.25 6.7 23.17 6.82 23.08 6.92C22.99 7.03 22.9 7.13 22.8 7.23C22.7 7.33 22.6 7.42 22.49 7.51C22.39 7.6 22.28 7.68 22.16 7.76C22.05 7.84 21.93 7.91 21.81 7.97C21.69 8.04 21.56 8.1 21.43 8.15C21.31 8.21 21.18 8.25 21.04 8.29C20.91 8.34 20.78 8.37 20.64 8.4C20.51 8.42 20.37 8.45 20.23 8.46C20.09 8.47 19.96 8.48 19.82 8.48ZM11.95 2.43C11.83 2.43 11.71 2.45 11.6 2.47C11.48 2.49 11.37 2.53 11.26 2.57C11.15 2.62 11.05 2.68 10.95 2.74C10.85 2.81 10.76 2.88 10.68 2.97C10.6 3.05 10.52 3.14 10.46 3.24C10.39 3.34 10.34 3.44 10.29 3.55C10.25 3.66 10.21 3.77 10.19 3.89C10.17 4 10.16 4.12 10.16 4.24C10.16 4.36 10.17 4.47 10.19 4.59C10.21 4.71 10.25 4.82 10.29 4.93C10.34 5.04 10.39 5.14 10.46 5.24C10.52 5.34 10.6 5.43 10.68 5.51C10.76 5.6 10.85 5.67 10.95 5.74C11.05 5.8 11.15 5.86 11.26 5.9C11.37 5.95 11.48 5.99 11.6 6.01C11.71 6.03 11.83 6.05 11.95 6.05L19.82 6.05C19.94 6.05 20.05 6.03 20.17 6.01C20.28 5.99 20.4 5.95 20.5 5.9C20.61 5.86 20.72 5.8 20.81 5.74C20.91 5.67 21 5.6 21.08 5.51C21.17 5.43 21.24 5.34 21.31 5.24C21.37 5.14 21.43 5.04 21.47 4.93C21.52 4.82 21.55 4.71 21.57 4.59C21.6 4.47 21.61 4.36 21.61 4.24C21.61 4.12 21.6 4 21.57 3.89C21.55 3.77 21.52 3.66 21.47 3.55C21.43 3.44 21.37 3.34 21.31 3.24C21.24 3.14 21.17 3.05 21.08 2.97C21 2.88 20.91 2.81 20.81 2.74C20.72 2.68 20.61 2.62 20.5 2.57C20.4 2.53 20.28 2.49 20.17 2.47C20.05 2.45 19.94 2.43 19.82 2.43L11.95 2.43Z" fill="#007DFF" fill-opacity="1.000000" fill-rule="nonzero"/>
	<path d="M21.71 17.64L17.19 17.64L17.19 13.33L14.8 13.33L14.8 17.64L10.28 17.64L10.28 20.06L14.8 20.06L14.8 24.37L17.19 24.37L17.19 20.06L21.71 20.06L21.71 17.64Z" fill="#F79C42" fill-opacity="1.000000" fill-rule="nonzero"/>
</svg>
