<svg width="32.000000" height="32.000000" viewBox="0 0 32 32" fill="none" xmlns="http://www.w3.org/2000/svg" xmlns:xlink="http://www.w3.org/1999/xlink">
	<desc>
			Created with Pixso.
	</desc>
	<defs/>
	<path d="M9.9 32L4.27 32C4.13 31.99 3.99 31.99 3.85 31.97C3.71 31.96 3.57 31.94 3.44 31.91C3.3 31.88 3.16 31.85 3.03 31.81C2.9 31.77 2.76 31.72 2.63 31.67C2.51 31.61 2.38 31.55 2.26 31.49C2.13 31.42 2.01 31.35 1.9 31.27C1.78 31.2 1.67 31.11 1.56 31.02C1.45 30.93 1.35 30.84 1.25 30.74C1.15 30.64 1.06 30.54 0.97 30.43C0.88 30.32 0.79 30.21 0.72 30.09C0.64 29.98 0.57 29.86 0.5 29.73C0.44 29.61 0.38 29.48 0.32 29.35C0.27 29.23 0.22 29.09 0.18 28.96C0.14 28.83 0.11 28.69 0.08 28.55C0.05 28.42 0.03 28.28 0.02 28.14C0 28 0 27.86 0 27.72L0 22.09L2.61 22.09L2.61 27.72C2.61 27.83 2.62 27.94 2.64 28.04C2.67 28.15 2.7 28.25 2.74 28.35C2.78 28.45 2.83 28.55 2.89 28.64C2.95 28.73 3.02 28.81 3.1 28.89C3.17 28.97 3.26 29.04 3.35 29.1C3.44 29.16 3.54 29.21 3.64 29.25C3.74 29.29 3.84 29.32 3.95 29.35C4.05 29.37 4.16 29.38 4.27 29.38L9.9 29.38L9.9 32ZM27.72 32L22.09 32L22.09 29.38L27.72 29.38C27.83 29.38 27.94 29.37 28.04 29.35C28.15 29.32 28.25 29.29 28.35 29.25C28.45 29.21 28.55 29.16 28.64 29.1C28.73 29.04 28.81 28.97 28.89 28.89C28.97 28.81 29.04 28.73 29.1 28.64C29.16 28.55 29.21 28.45 29.25 28.35C29.29 28.25 29.32 28.15 29.35 28.04C29.37 27.94 29.38 27.83 29.38 27.72L29.38 22.09L32 22.09L32 27.72C31.99 27.86 31.99 28 31.97 28.14C31.96 28.28 31.94 28.42 31.91 28.55C31.88 28.69 31.85 28.83 31.81 28.96C31.77 29.09 31.72 29.23 31.67 29.35C31.61 29.48 31.55 29.61 31.49 29.73C31.42 29.86 31.35 29.98 31.27 30.09C31.2 30.21 31.11 30.32 31.02 30.43C30.93 30.54 30.84 30.64 30.74 30.74C30.64 30.84 30.54 30.93 30.43 31.02C30.32 31.11 30.21 31.2 30.09 31.27C29.98 31.35 29.86 31.42 29.73 31.49C29.61 31.55 29.48 31.61 29.35 31.67C29.23 31.72 29.09 31.77 28.96 31.81C28.83 31.85 28.69 31.88 28.55 31.91C28.42 31.94 28.28 31.96 28.14 31.97C28 31.99 27.86 31.99 27.72 32ZM2.61 9.9L0 9.9L0 4.27C0 4.13 0 3.99 0.02 3.85C0.03 3.71 0.05 3.57 0.08 3.44C0.11 3.3 0.14 3.16 0.18 3.03C0.22 2.9 0.27 2.76 0.32 2.64C0.38 2.51 0.44 2.38 0.5 2.26C0.57 2.13 0.64 2.01 0.72 1.9C0.79 1.78 0.88 1.67 0.97 1.56C1.06 1.45 1.15 1.35 1.25 1.25C1.35 1.15 1.45 1.06 1.56 0.97C1.67 0.88 1.78 0.79 1.9 0.72C2.01 0.64 2.13 0.57 2.26 0.5C2.38 0.44 2.51 0.38 2.63 0.32C2.76 0.27 2.9 0.22 3.03 0.18C3.16 0.14 3.3 0.11 3.44 0.08C3.57 0.05 3.71 0.03 3.85 0.02C3.99 0 4.13 0 4.27 0L9.9 0L9.9 2.61L4.27 2.61C4.16 2.61 4.05 2.62 3.95 2.64C3.84 2.67 3.74 2.7 3.64 2.74C3.54 2.78 3.44 2.83 3.35 2.89C3.26 2.95 3.17 3.02 3.1 3.1C3.02 3.18 2.95 3.26 2.89 3.35C2.83 3.44 2.78 3.54 2.74 3.64C2.7 3.74 2.67 3.84 2.64 3.95C2.62 4.05 2.61 4.16 2.61 4.27L2.61 9.9ZM32 9.9L29.38 9.9L29.38 4.27C29.38 4.16 29.37 4.05 29.35 3.95C29.32 3.84 29.29 3.74 29.25 3.64C29.21 3.54 29.16 3.44 29.1 3.35C29.04 3.26 28.97 3.18 28.89 3.1C28.81 3.02 28.73 2.95 28.64 2.89C28.55 2.83 28.45 2.78 28.35 2.74C28.25 2.7 28.15 2.67 28.04 2.64C27.94 2.62 27.83 2.61 27.72 2.61L22.09 2.61L22.09 0L27.72 0C27.86 0 28 0 28.14 0.02C28.28 0.03 28.42 0.05 28.55 0.08C28.69 0.11 28.83 0.14 28.96 0.18C29.09 0.22 29.23 0.27 29.35 0.32C29.48 0.38 29.61 0.44 29.73 0.5C29.86 0.57 29.98 0.64 30.09 0.72C30.21 0.79 30.32 0.88 30.43 0.97C30.54 1.06 30.64 1.15 30.74 1.25C30.84 1.35 30.93 1.45 31.02 1.56C31.11 1.67 31.2 1.78 31.27 1.9C31.35 2.01 31.42 2.13 31.49 2.26C31.55 2.38 31.61 2.51 31.67 2.64C31.72 2.76 31.77 2.9 31.81 3.03C31.85 3.16 31.88 3.3 31.91 3.44C31.94 3.57 31.96 3.71 31.97 3.85C31.99 3.99 31.99 4.13 32 4.27L32 9.9Z" fill="#007DFF" fill-opacity="1.000000" fill-rule="nonzero"/>
	<path d="M31.87 17.31L0.12 17.31L0.12 14.68L31.87 14.68L31.87 17.31Z" fill="#F79C42" fill-opacity="1.000000" fill-rule="nonzero"/>
</svg>
