<svg width="32.000000" height="32.000000" viewBox="0 0 32 32" fill="none" xmlns="http://www.w3.org/2000/svg" xmlns:xlink="http://www.w3.org/1999/xlink">
	<desc>
			Created with Pixso.
	</desc>
	<defs/>
	<path d="M11.14 17.14L11.14 19.4L22.14 19.4L22.14 17.14L11.14 17.14ZM11.14 23.75L22.14 23.75L22.14 21.48L11.14 21.48L11.14 23.75ZM11.14 28.09L22.14 28.09L22.14 25.82L11.14 25.82L11.14 28.09ZM15.62 14.99L17.89 14.99L17.89 13.39L19.49 13.39L19.49 11.13L17.89 11.13L17.89 9.53L15.62 9.53L15.62 11.13L14.01 11.13L14.01 13.39L15.62 13.39L15.62 14.99Z" fill="#F79C42" fill-opacity="1.000000" fill-rule="nonzero"/>
	<path d="M24.58 4.07L22.91 4.07C22.86 3.94 22.79 3.82 22.72 3.7C22.65 3.58 22.57 3.47 22.48 3.36C22.39 3.25 22.29 3.15 22.19 3.06C22.08 2.96 21.97 2.88 21.85 2.8C21.74 2.72 21.62 2.65 21.49 2.59C21.36 2.53 21.23 2.48 21.1 2.44C20.96 2.4 20.83 2.37 20.69 2.35C20.55 2.33 20.41 2.32 20.27 2.32L20.17 2.32C20.09 2.15 20 1.98 19.9 1.82C19.79 1.66 19.68 1.51 19.55 1.37C19.43 1.22 19.29 1.09 19.15 0.97C19 0.84 18.85 0.73 18.69 0.63C18.53 0.52 18.36 0.43 18.19 0.35C18.01 0.28 17.84 0.21 17.65 0.16C17.47 0.1 17.28 0.06 17.1 0.04C16.91 0.01 16.72 0 16.53 0C16.34 0 16.15 0.01 15.96 0.04C15.77 0.06 15.58 0.1 15.4 0.16C15.22 0.21 15.04 0.28 14.87 0.35C14.69 0.43 14.53 0.52 14.37 0.63C14.2 0.73 14.05 0.84 13.91 0.97C13.76 1.09 13.63 1.22 13.5 1.37C13.38 1.51 13.26 1.66 13.16 1.82C13.05 1.98 12.96 2.15 12.88 2.32L12.79 2.32C12.65 2.32 12.51 2.33 12.37 2.35C12.23 2.37 12.09 2.4 11.96 2.44C11.82 2.48 11.69 2.53 11.57 2.59C11.44 2.65 11.32 2.72 11.2 2.8C11.08 2.88 10.97 2.96 10.87 3.06C10.76 3.15 10.67 3.25 10.58 3.36C10.49 3.47 10.41 3.58 10.33 3.7C10.26 3.82 10.2 3.94 10.14 4.07L8.7 4.07C8.57 4.07 8.45 4.08 8.33 4.09C8.21 4.1 8.09 4.12 7.97 4.15C7.85 4.17 7.74 4.2 7.62 4.23C7.51 4.27 7.39 4.31 7.28 4.36C7.17 4.4 7.06 4.46 6.95 4.51C6.84 4.57 6.74 4.63 6.64 4.7C6.54 4.77 6.44 4.84 6.35 4.92C6.26 4.99 6.17 5.07 6.08 5.16C5.99 5.25 5.91 5.34 5.84 5.43C5.76 5.52 5.69 5.62 5.62 5.72C5.55 5.82 5.49 5.92 5.43 6.03C5.38 6.14 5.32 6.25 5.28 6.36C5.23 6.47 5.19 6.59 5.16 6.7C5.12 6.82 5.09 6.94 5.07 7.05C5.04 7.17 5.03 7.29 5.01 7.41C5 7.53 5 7.65 5 7.78L5 28.29C5 28.41 5 28.54 5.01 28.66C5.03 28.78 5.04 28.9 5.07 29.01C5.09 29.13 5.12 29.25 5.16 29.37C5.19 29.48 5.23 29.6 5.28 29.71C5.32 29.82 5.38 29.93 5.43 30.04C5.49 30.14 5.55 30.25 5.62 30.35C5.69 30.45 5.76 30.55 5.84 30.64C5.91 30.73 5.99 30.82 6.08 30.91C6.17 30.99 6.26 31.08 6.35 31.15C6.44 31.23 6.54 31.3 6.64 31.37C6.74 31.44 6.84 31.5 6.95 31.56C7.06 31.61 7.17 31.67 7.28 31.71C7.39 31.76 7.51 31.8 7.62 31.83C7.74 31.87 7.85 31.9 7.97 31.92C8.09 31.95 8.21 31.96 8.33 31.98C8.45 31.99 8.57 31.99 8.7 32L24.58 32C24.71 31.99 24.83 31.99 24.95 31.98C25.07 31.96 25.19 31.95 25.31 31.92C25.43 31.9 25.54 31.87 25.66 31.83C25.77 31.8 25.89 31.76 26 31.71C26.11 31.67 26.22 31.61 26.33 31.56C26.44 31.5 26.54 31.44 26.64 31.37C26.74 31.3 26.84 31.23 26.93 31.15C27.03 31.08 27.11 31 27.2 30.91C27.29 30.82 27.37 30.73 27.44 30.64C27.52 30.55 27.59 30.45 27.66 30.35C27.73 30.25 27.79 30.14 27.85 30.04C27.9 29.93 27.96 29.82 28 29.71C28.05 29.6 28.09 29.48 28.13 29.37C28.16 29.25 28.19 29.13 28.21 29.01C28.24 28.9 28.26 28.78 28.27 28.66C28.28 28.54 28.29 28.41 28.29 28.29L28.29 7.78C28.29 7.65 28.28 7.53 28.27 7.41C28.26 7.29 28.24 7.17 28.21 7.05C28.19 6.94 28.16 6.82 28.13 6.7C28.09 6.59 28.05 6.47 28 6.36C27.96 6.25 27.9 6.14 27.85 6.03C27.79 5.92 27.73 5.82 27.66 5.72C27.59 5.62 27.52 5.52 27.44 5.43C27.37 5.34 27.29 5.25 27.2 5.16C27.11 5.07 27.03 4.99 26.93 4.92C26.84 4.84 26.74 4.77 26.64 4.7C26.54 4.63 26.44 4.57 26.33 4.51C26.22 4.46 26.11 4.4 26 4.36C25.89 4.31 25.77 4.27 25.66 4.23C25.54 4.2 25.43 4.17 25.31 4.15C25.19 4.12 25.07 4.1 24.95 4.09C24.83 4.08 24.71 4.07 24.58 4.07ZM12.79 4.59L14.62 4.59L14.81 3.67C14.83 3.57 14.85 3.48 14.89 3.38C14.93 3.29 14.97 3.2 15.02 3.11C15.07 3.03 15.13 2.95 15.2 2.87C15.26 2.79 15.34 2.72 15.41 2.66C15.49 2.59 15.57 2.54 15.66 2.49C15.75 2.44 15.84 2.4 15.94 2.36C16.03 2.33 16.13 2.3 16.23 2.29C16.33 2.27 16.43 2.26 16.53 2.26C16.63 2.26 16.73 2.27 16.83 2.29C16.93 2.3 17.02 2.33 17.12 2.36C17.21 2.4 17.3 2.44 17.39 2.49C17.48 2.54 17.56 2.59 17.64 2.66C17.72 2.72 17.79 2.79 17.86 2.87C17.92 2.95 17.98 3.03 18.03 3.11C18.08 3.2 18.13 3.29 18.16 3.38C18.2 3.48 18.23 3.57 18.25 3.67L18.43 4.59L20.27 4.59C20.35 4.59 20.43 4.6 20.5 4.63C20.58 4.66 20.64 4.71 20.7 4.76C20.75 4.82 20.8 4.89 20.83 4.96C20.86 5.04 20.88 5.11 20.88 5.19C20.88 5.27 20.86 5.35 20.83 5.43C20.8 5.5 20.75 5.57 20.7 5.62C20.64 5.68 20.58 5.72 20.5 5.75C20.43 5.79 20.35 5.8 20.27 5.8L12.79 5.8C12.7 5.8 12.63 5.79 12.55 5.75C12.48 5.72 12.41 5.68 12.36 5.62C12.3 5.57 12.26 5.5 12.22 5.43C12.19 5.35 12.18 5.27 12.18 5.19C12.18 5.11 12.19 5.04 12.22 4.96C12.26 4.89 12.3 4.82 12.36 4.76C12.41 4.71 12.48 4.66 12.55 4.63C12.63 4.6 12.7 4.59 12.79 4.59ZM26.02 28.29C26.02 28.39 26.01 28.48 25.99 28.57C25.97 28.67 25.95 28.76 25.91 28.84C25.88 28.93 25.83 29.01 25.78 29.09C25.73 29.17 25.67 29.24 25.6 29.31C25.53 29.37 25.46 29.43 25.38 29.49C25.3 29.54 25.22 29.58 25.13 29.62C25.05 29.66 24.96 29.68 24.87 29.7C24.77 29.72 24.68 29.73 24.59 29.73L8.7 29.73C8.6 29.73 8.51 29.72 8.42 29.7C8.32 29.68 8.23 29.66 8.15 29.62C8.06 29.58 7.98 29.54 7.9 29.49C7.82 29.43 7.75 29.37 7.68 29.31C7.61 29.24 7.55 29.17 7.5 29.09C7.45 29.01 7.41 28.93 7.37 28.84C7.33 28.76 7.31 28.67 7.29 28.57C7.27 28.48 7.26 28.39 7.26 28.29L7.26 7.78C7.26 7.68 7.27 7.59 7.29 7.5C7.31 7.4 7.33 7.31 7.37 7.23C7.41 7.14 7.45 7.06 7.5 6.98C7.55 6.9 7.61 6.83 7.68 6.76C7.75 6.69 7.82 6.63 7.9 6.58C7.98 6.53 8.06 6.49 8.15 6.45C8.23 6.41 8.32 6.39 8.42 6.37C8.51 6.35 8.6 6.34 8.7 6.34L10.15 6.34C10.21 6.47 10.27 6.59 10.35 6.71C10.42 6.83 10.5 6.94 10.59 7.04C10.68 7.15 10.78 7.25 10.88 7.34C10.99 7.43 11.1 7.52 11.21 7.6C11.33 7.67 11.45 7.74 11.58 7.8C11.7 7.86 11.83 7.91 11.96 7.95C12.1 7.99 12.23 8.02 12.37 8.04C12.51 8.06 12.65 8.07 12.79 8.07L20.27 8.07C20.41 8.07 20.55 8.06 20.68 8.04C20.82 8.02 20.96 7.99 21.09 7.95C21.22 7.91 21.35 7.86 21.48 7.8C21.6 7.74 21.73 7.67 21.84 7.6C21.96 7.52 22.07 7.43 22.17 7.34C22.28 7.25 22.37 7.15 22.46 7.04C22.55 6.94 22.63 6.83 22.71 6.71C22.78 6.59 22.84 6.47 22.9 6.34L24.59 6.34C24.68 6.34 24.77 6.35 24.87 6.37C24.96 6.39 25.05 6.41 25.13 6.45C25.22 6.49 25.3 6.53 25.38 6.58C25.46 6.63 25.53 6.69 25.6 6.76C25.67 6.83 25.73 6.9 25.78 6.98C25.83 7.06 25.88 7.14 25.91 7.23C25.95 7.31 25.97 7.4 25.99 7.5C26.01 7.59 26.02 7.68 26.02 7.78L26.02 28.29Z" fill="#007DFF" fill-opacity="1.000000" fill-rule="nonzero"/>
</svg>
