<svg width="32.000000" height="32.000000" viewBox="0 0 32 32" fill="none" xmlns="http://www.w3.org/2000/svg" xmlns:xlink="http://www.w3.org/1999/xlink">
	<desc>
			Created with Pixso.
	</desc>
	<defs/>
	<path d="M30.31 26.47C30.43 26.43 30.54 26.38 30.65 26.32C30.76 26.26 30.86 26.19 30.95 26.11C31.05 26.03 31.13 25.94 31.21 25.84C31.29 25.74 31.35 25.64 31.41 25.53C31.46 25.41 31.51 25.3 31.54 25.18C31.58 25.06 31.6 24.94 31.61 24.81C31.62 24.69 31.61 24.57 31.6 24.44C31.59 24.32 31.56 24.2 31.52 24.08L28.96 16.2C28.92 16.07 28.87 15.95 28.81 15.83C28.75 15.7 28.68 15.59 28.6 15.48C28.52 15.37 28.43 15.26 28.33 15.17C28.24 15.07 28.13 14.98 28.02 14.9C27.91 14.82 27.8 14.75 27.68 14.69C27.55 14.63 27.43 14.58 27.3 14.54C27.17 14.49 27.04 14.46 26.9 14.44C26.77 14.42 26.63 14.41 26.5 14.41L22.38 14.41C23.42 12.57 24.12 10.55 24.12 8.54C24.12 3.83 20.35 0 15.71 0C11.06 0 7.29 3.83 7.29 8.54C7.3 9.57 7.44 10.58 7.71 11.57C7.97 12.56 8.35 13.51 8.85 14.41L5.11 14.41C4.97 14.41 4.84 14.42 4.7 14.44C4.57 14.46 4.44 14.49 4.31 14.54C4.18 14.58 4.05 14.63 3.93 14.69C3.81 14.75 3.7 14.82 3.59 14.9C3.48 14.98 3.37 15.07 3.28 15.17C3.18 15.26 3.09 15.37 3.01 15.48C2.93 15.59 2.86 15.7 2.8 15.83C2.74 15.95 2.69 16.07 2.65 16.2L0.09 24.08C0.05 24.2 0.02 24.32 0.01 24.44C-0.01 24.57 -0.01 24.69 0 24.81C0.01 24.94 0.03 25.06 0.07 25.18C0.1 25.3 0.14 25.41 0.2 25.53C0.26 25.64 0.32 25.74 0.4 25.84C0.48 25.94 0.56 26.03 0.66 26.11C0.75 26.19 0.85 26.26 0.96 26.32C1.07 26.38 1.18 26.43 1.3 26.47L0.33 29.52C0.31 29.59 0.29 29.66 0.27 29.73C0.26 29.81 0.25 29.88 0.24 29.95C0.24 30.03 0.24 30.1 0.24 30.18C0.24 30.25 0.25 30.33 0.26 30.4C0.28 30.47 0.29 30.55 0.31 30.62C0.33 30.69 0.36 30.76 0.39 30.83C0.42 30.9 0.45 30.96 0.48 31.03C0.52 31.09 0.56 31.16 0.61 31.22C0.65 31.28 0.7 31.33 0.75 31.39C0.8 31.44 0.85 31.49 0.91 31.54C0.97 31.59 1.03 31.64 1.09 31.68C1.15 31.72 1.21 31.76 1.28 31.79C1.35 31.82 1.42 31.85 1.49 31.88C1.56 31.9 1.63 31.93 1.7 31.94C1.77 31.96 1.84 31.97 1.92 31.98C1.99 31.99 2.07 32 2.14 32L29.47 32C29.54 32 29.62 31.99 29.69 31.98C29.76 31.97 29.84 31.96 29.91 31.94C29.98 31.93 30.05 31.9 30.12 31.88C30.19 31.85 30.26 31.82 30.33 31.79C30.39 31.76 30.46 31.72 30.52 31.68C30.58 31.64 30.64 31.59 30.7 31.54C30.76 31.49 30.81 31.44 30.86 31.39C30.91 31.33 30.96 31.28 31 31.22C31.05 31.16 31.09 31.09 31.12 31.03C31.16 30.96 31.19 30.9 31.22 30.83C31.25 30.76 31.28 30.69 31.3 30.62C31.32 30.54 31.33 30.47 31.34 30.4C31.36 30.32 31.36 30.25 31.37 30.18C31.37 30.1 31.37 30.03 31.36 29.95C31.36 29.88 31.35 29.8 31.33 29.73C31.32 29.66 31.3 29.59 31.28 29.52L30.31 26.47ZM15.71 2.42C19.01 2.42 21.7 5.17 21.7 8.54C21.7 12.31 18.32 16.54 15.68 18.62C12.72 16.46 9.72 12.53 9.72 8.54C9.72 5.17 12.4 2.42 15.71 2.42ZM4.96 16.95C4.97 16.92 4.99 16.89 5.01 16.87C5.04 16.85 5.07 16.84 5.11 16.84L10.44 16.84C11.68 18.45 13.14 19.82 14.82 20.97C14.95 21.06 15.1 21.13 15.25 21.17C15.41 21.22 15.56 21.24 15.73 21.24C15.89 21.23 16.04 21.21 16.2 21.16C16.35 21.11 16.49 21.04 16.62 20.94C18.2 19.77 19.58 18.4 20.77 16.84L26.5 16.84C26.53 16.84 26.57 16.85 26.59 16.87C26.62 16.89 26.64 16.92 26.65 16.95L28.99 24.14L2.62 24.14L4.96 16.95ZM2.86 29.57L3.82 26.57L27.79 26.57L28.75 29.57L2.86 29.57Z" fill="#007DFF" fill-opacity="1.000000" fill-rule="nonzero"/>
	<path d="M19.65 8.07L16.99 8.07L16.99 5.41L14.56 5.41L14.56 8.07L11.9 8.07L11.9 10.5L14.56 10.5L14.56 13.16L16.99 13.16L16.99 10.5L19.65 10.5L19.65 8.07Z" fill="#F79C42" fill-opacity="1.000000" fill-rule="nonzero"/>
</svg>
