<svg width="32.000732" height="32.000000" viewBox="0 0 32.0007 32" fill="none" xmlns="http://www.w3.org/2000/svg" xmlns:xlink="http://www.w3.org/1999/xlink">
	<desc>
			Created with Pixso.
	</desc>
	<defs/>
	<path d="M16 32C15.76 32 15.52 31.97 15.29 31.93C15.06 31.88 14.83 31.81 14.61 31.72C14.39 31.63 14.18 31.52 13.98 31.39C13.78 31.25 13.6 31.1 13.43 30.94L1.06 18.56C0.97 18.47 0.89 18.39 0.82 18.29C0.74 18.2 0.67 18.11 0.61 18.01C0.54 17.91 0.48 17.81 0.42 17.7C0.37 17.6 0.32 17.49 0.27 17.38C0.23 17.27 0.19 17.16 0.15 17.05C0.12 16.93 0.09 16.82 0.06 16.7C0.04 16.59 0.02 16.47 0.01 16.35C0 16.23 0 16.11 0 15.99C0 15.88 0 15.76 0.01 15.64C0.02 15.52 0.04 15.4 0.06 15.29C0.09 15.17 0.12 15.06 0.15 14.94C0.19 14.83 0.23 14.72 0.27 14.61C0.32 14.5 0.37 14.39 0.42 14.29C0.48 14.18 0.54 14.08 0.61 13.98C0.67 13.88 0.74 13.79 0.82 13.7C0.89 13.6 0.97 13.52 1.06 13.43L13.43 1.05C13.52 0.97 13.61 0.89 13.7 0.82C13.79 0.74 13.88 0.67 13.98 0.6C14.08 0.54 14.18 0.48 14.29 0.42C14.39 0.37 14.5 0.32 14.61 0.27C14.72 0.22 14.83 0.19 14.94 0.15C15.06 0.12 15.17 0.09 15.29 0.06C15.41 0.04 15.52 0.02 15.64 0.01C15.76 0 15.88 0 16 0C16.11 0 16.23 0 16.35 0.01C16.47 0.02 16.59 0.04 16.7 0.06C16.82 0.09 16.93 0.12 17.05 0.15C17.16 0.19 17.27 0.22 17.38 0.27C17.49 0.32 17.6 0.37 17.7 0.42C17.81 0.48 17.91 0.54 18.01 0.6C18.11 0.67 18.2 0.74 18.29 0.82C18.39 0.89 18.47 0.97 18.56 1.05L30.93 13.43C31.02 13.52 31.1 13.6 31.17 13.7C31.25 13.79 31.32 13.88 31.39 13.98C31.45 14.08 31.51 14.18 31.57 14.29C31.62 14.39 31.67 14.5 31.72 14.61C31.77 14.72 31.81 14.83 31.84 14.94C31.87 15.06 31.9 15.17 31.93 15.29C31.95 15.4 31.97 15.52 31.98 15.64C31.99 15.76 32 15.88 32 16C32 16.11 31.99 16.23 31.98 16.35C31.97 16.47 31.95 16.59 31.93 16.7C31.9 16.82 31.87 16.93 31.84 17.05C31.81 17.16 31.77 17.27 31.72 17.38C31.67 17.49 31.62 17.6 31.57 17.7C31.51 17.81 31.45 17.91 31.39 18.01C31.32 18.11 31.25 18.2 31.17 18.29C31.1 18.39 31.02 18.47 30.93 18.56L18.56 30.93C18.39 31.1 18.21 31.25 18.01 31.39C17.81 31.52 17.6 31.63 17.38 31.72C17.16 31.81 16.94 31.88 16.7 31.93C16.47 31.97 16.23 32 16 32ZM15 29.37C15.07 29.43 15.14 29.49 15.21 29.54C15.29 29.59 15.37 29.64 15.46 29.67C15.54 29.71 15.63 29.73 15.72 29.75C15.81 29.77 15.9 29.78 16 29.78C16.09 29.78 16.18 29.77 16.27 29.75C16.36 29.73 16.45 29.71 16.53 29.67C16.62 29.64 16.7 29.59 16.78 29.54C16.85 29.49 16.92 29.43 16.99 29.37L29.37 16.99C29.43 16.92 29.49 16.85 29.54 16.78C29.59 16.7 29.64 16.62 29.67 16.53C29.71 16.45 29.73 16.36 29.75 16.27C29.77 16.18 29.78 16.09 29.78 15.99C29.78 15.9 29.77 15.81 29.75 15.72C29.73 15.63 29.71 15.54 29.67 15.46C29.64 15.37 29.59 15.29 29.54 15.21C29.49 15.14 29.43 15.07 29.37 15L16.99 2.62C16.92 2.56 16.85 2.5 16.78 2.45C16.7 2.4 16.62 2.35 16.53 2.32C16.45 2.28 16.36 2.26 16.27 2.24C16.18 2.22 16.09 2.21 16 2.21C15.9 2.21 15.81 2.22 15.72 2.24C15.63 2.26 15.54 2.28 15.46 2.32C15.37 2.35 15.29 2.4 15.21 2.45C15.14 2.5 15.07 2.56 15 2.62L2.62 15C2.56 15.07 2.5 15.14 2.45 15.21C2.4 15.29 2.36 15.37 2.32 15.46C2.28 15.54 2.26 15.63 2.24 15.72C2.22 15.81 2.21 15.9 2.21 16C2.21 16.09 2.22 16.18 2.24 16.27C2.26 16.36 2.28 16.45 2.32 16.53C2.36 16.62 2.4 16.7 2.45 16.78C2.5 16.85 2.56 16.92 2.62 16.99L15 29.37Z" fill="#007DFF" fill-opacity="1.000000" fill-rule="nonzero"/>
	<path d="M20.92 14.87L17.13 14.87L17.13 11.08L14.91 11.08L14.91 14.87L11.12 14.87L11.12 17.08L14.91 17.08L14.91 20.87L17.13 20.87L17.13 17.08L20.92 17.08L20.92 14.87Z" fill="#F79C42" fill-opacity="1.000000" fill-rule="nonzero"/>
</svg>
