<svg width="32.000000" height="32.000000" viewBox="0 0 32 32" fill="none" xmlns="http://www.w3.org/2000/svg" xmlns:xlink="http://www.w3.org/1999/xlink">
	<desc>
			Created with Pixso.
	</desc>
	<defs/>
	<path d="M28.24 5L3.75 5C3.63 5 3.51 5 3.38 5.01C3.26 5.03 3.14 5.05 3.02 5.07C2.9 5.09 2.78 5.13 2.66 5.16C2.54 5.2 2.42 5.24 2.31 5.29C2.2 5.33 2.09 5.39 1.98 5.45C1.87 5.5 1.76 5.57 1.66 5.64C1.56 5.71 1.46 5.78 1.36 5.86C1.27 5.94 1.18 6.02 1.09 6.11C1 6.2 0.92 6.29 0.84 6.38C0.77 6.48 0.69 6.58 0.62 6.68C0.56 6.78 0.49 6.89 0.44 7C0.38 7.11 0.33 7.22 0.28 7.33C0.23 7.45 0.19 7.56 0.15 7.68C0.12 7.8 0.09 7.92 0.07 8.04C0.04 8.16 0.02 8.28 0.01 8.4C0 8.53 -0.01 8.65 0 8.77L0 25.03C-0.01 25.15 0 25.27 0.01 25.39C0.02 25.52 0.04 25.64 0.07 25.76C0.09 25.88 0.12 26 0.15 26.12C0.19 26.24 0.23 26.35 0.28 26.47C0.33 26.58 0.38 26.69 0.44 26.8C0.49 26.91 0.56 27.02 0.62 27.12C0.69 27.22 0.77 27.32 0.84 27.42C0.92 27.51 1 27.6 1.09 27.69C1.18 27.78 1.27 27.86 1.36 27.94C1.46 28.02 1.56 28.09 1.66 28.16C1.76 28.23 1.87 28.29 1.98 28.35C2.09 28.41 2.2 28.46 2.31 28.51C2.42 28.56 2.54 28.6 2.66 28.64C2.78 28.67 2.9 28.7 3.02 28.73C3.14 28.75 3.26 28.77 3.38 28.79C3.51 28.8 3.63 28.8 3.75 28.8L28.24 28.8C28.36 28.8 28.49 28.8 28.61 28.79C28.73 28.77 28.85 28.75 28.97 28.73C29.09 28.7 29.21 28.67 29.33 28.64C29.45 28.6 29.57 28.56 29.68 28.51C29.79 28.46 29.9 28.41 30.01 28.35C30.12 28.29 30.23 28.23 30.33 28.16C30.43 28.09 30.53 28.02 30.63 27.94C30.72 27.86 30.81 27.78 30.9 27.69C30.99 27.6 31.07 27.51 31.15 27.42C31.22 27.32 31.3 27.22 31.37 27.12C31.43 27.02 31.5 26.91 31.55 26.8C31.61 26.69 31.66 26.58 31.71 26.47C31.76 26.35 31.8 26.24 31.84 26.12C31.87 26 31.9 25.88 31.92 25.76C31.95 25.64 31.97 25.52 31.98 25.39C31.99 25.27 32 25.15 32 25.03L32 8.77C32 8.65 31.99 8.53 31.98 8.4C31.97 8.28 31.95 8.16 31.92 8.04C31.9 7.92 31.87 7.8 31.84 7.68C31.8 7.56 31.76 7.45 31.71 7.33C31.66 7.22 31.61 7.11 31.55 7C31.5 6.89 31.43 6.78 31.37 6.68C31.3 6.58 31.22 6.48 31.15 6.38C31.07 6.29 30.99 6.2 30.9 6.11C30.81 6.02 30.72 5.94 30.63 5.86C30.53 5.78 30.43 5.71 30.33 5.64C30.23 5.57 30.12 5.5 30.01 5.45C29.9 5.39 29.79 5.33 29.68 5.29C29.57 5.24 29.45 5.2 29.33 5.16C29.21 5.13 29.09 5.09 28.97 5.07C28.85 5.05 28.73 5.03 28.61 5.01C28.49 5 28.36 5 28.24 5ZM3.75 7.31L28.24 7.31C28.33 7.31 28.43 7.32 28.52 7.34C28.62 7.36 28.71 7.38 28.8 7.42C28.89 7.46 28.97 7.5 29.05 7.56C29.13 7.61 29.2 7.67 29.27 7.74C29.34 7.81 29.4 7.88 29.45 7.96C29.5 8.04 29.55 8.13 29.59 8.22C29.62 8.3 29.65 8.4 29.67 8.49C29.69 8.58 29.7 8.68 29.7 8.77L29.7 11.18L2.29 11.18L2.29 8.77C2.29 8.68 2.3 8.58 2.32 8.49C2.34 8.39 2.37 8.3 2.4 8.21C2.44 8.13 2.49 8.04 2.54 7.96C2.59 7.88 2.65 7.81 2.72 7.74C2.79 7.67 2.86 7.61 2.94 7.56C3.02 7.5 3.1 7.46 3.19 7.42C3.28 7.38 3.37 7.36 3.47 7.34C3.56 7.32 3.66 7.31 3.75 7.31ZM28.24 26.49L3.75 26.49C3.66 26.49 3.56 26.48 3.47 26.46C3.37 26.44 3.28 26.42 3.19 26.38C3.1 26.34 3.02 26.3 2.94 26.24C2.86 26.19 2.79 26.13 2.72 26.06C2.65 25.99 2.59 25.92 2.54 25.84C2.49 25.76 2.44 25.67 2.4 25.58C2.37 25.5 2.34 25.4 2.32 25.31C2.3 25.22 2.29 25.12 2.29 25.02L2.29 23.61L15.47 23.61L15.47 21.29L2.29 21.29L2.29 19.59L8.54 19.59L8.54 17.28L2.29 17.28L2.29 13.5L29.7 13.5L29.7 25.03C29.7 25.12 29.69 25.22 29.67 25.31C29.65 25.4 29.62 25.5 29.59 25.58C29.55 25.67 29.5 25.76 29.45 25.84C29.4 25.92 29.34 25.99 29.27 26.06C29.2 26.13 29.13 26.19 29.05 26.24C28.97 26.3 28.89 26.34 28.8 26.38C28.71 26.42 28.62 26.44 28.52 26.46C28.43 26.48 28.33 26.49 28.24 26.49Z" fill="#007DFF" fill-opacity="1.000000" fill-rule="nonzero"/>
	<path d="M27.29 18.74L24.16 18.74L24.16 15.59L21.87 15.59L21.87 18.74L18.74 18.74L18.74 21.05L21.87 21.05L21.87 24.19L24.16 24.19L24.16 21.05L27.29 21.05L27.29 18.74Z" fill="#F79C42" fill-opacity="1.000000" fill-rule="nonzero"/>
</svg>
