<svg width="32.000000" height="32.000000" viewBox="0 0 32 32" fill="none" xmlns="http://www.w3.org/2000/svg" xmlns:xlink="http://www.w3.org/1999/xlink">
	<desc>
			Created with Pixso.
	</desc>
	<defs/>
	<path d="M28.1 2.99L24.37 2.99L24.37 2L21.98 2L21.98 2.99L9.71 2.99L9.71 2L7.32 2L7.32 2.99L3.89 2.99C3.76 2.99 3.64 3 3.51 3.01C3.39 3.02 3.26 3.04 3.14 3.06C3.01 3.09 2.89 3.12 2.77 3.15C2.65 3.19 2.53 3.23 2.41 3.28C2.29 3.33 2.18 3.38 2.06 3.44C1.95 3.5 1.84 3.56 1.74 3.63C1.63 3.7 1.53 3.78 1.43 3.86C1.33 3.94 1.24 4.02 1.15 4.11C1.06 4.2 0.97 4.29 0.89 4.39C0.81 4.49 0.73 4.59 0.66 4.69C0.59 4.8 0.53 4.91 0.47 5.02C0.41 5.13 0.35 5.24 0.3 5.36C0.25 5.48 0.21 5.6 0.17 5.72C0.13 5.84 0.1 5.96 0.08 6.08C0.05 6.21 0.03 6.33 0.02 6.46C0 6.59 0 6.71 0 6.84L0 26.72C0 26.85 0 26.98 0.02 27.1C0.03 27.23 0.05 27.35 0.08 27.48C0.1 27.6 0.13 27.72 0.17 27.84C0.21 27.96 0.25 28.08 0.3 28.2C0.35 28.32 0.41 28.43 0.47 28.54C0.53 28.65 0.59 28.76 0.66 28.87C0.73 28.97 0.81 29.07 0.89 29.17C0.97 29.27 1.06 29.36 1.15 29.45C1.24 29.54 1.33 29.62 1.43 29.7C1.53 29.78 1.63 29.86 1.74 29.93C1.84 30 1.95 30.06 2.06 30.12C2.18 30.18 2.29 30.23 2.41 30.28C2.53 30.33 2.65 30.37 2.77 30.41C2.89 30.44 3.01 30.47 3.14 30.5C3.26 30.52 3.39 30.54 3.51 30.55C3.64 30.56 3.76 30.57 3.89 30.57L28.1 30.57C28.22 30.57 28.35 30.56 28.48 30.55C28.6 30.54 28.73 30.52 28.85 30.5C28.98 30.47 29.1 30.44 29.22 30.41C29.34 30.37 29.46 30.33 29.58 30.28C29.7 30.23 29.81 30.18 29.92 30.12C30.04 30.06 30.15 30 30.25 29.93C30.36 29.86 30.46 29.78 30.56 29.7C30.66 29.62 30.75 29.54 30.84 29.45C30.93 29.36 31.02 29.27 31.1 29.17C31.18 29.07 31.26 28.97 31.33 28.87C31.4 28.76 31.46 28.65 31.52 28.54C31.58 28.43 31.64 28.32 31.69 28.2C31.74 28.08 31.78 27.96 31.82 27.84C31.86 27.72 31.89 27.6 31.91 27.48C31.94 27.35 31.96 27.23 31.97 27.1C31.99 26.98 31.99 26.85 32 26.72L32 6.84C31.99 6.71 31.99 6.59 31.97 6.46C31.96 6.33 31.94 6.21 31.91 6.08C31.89 5.96 31.86 5.84 31.82 5.72C31.78 5.6 31.74 5.48 31.69 5.36C31.64 5.24 31.58 5.13 31.52 5.02C31.46 4.91 31.4 4.8 31.33 4.69C31.26 4.59 31.18 4.49 31.1 4.39C31.02 4.29 30.93 4.2 30.84 4.11C30.75 4.02 30.66 3.94 30.56 3.86C30.46 3.78 30.36 3.7 30.25 3.63C30.15 3.56 30.04 3.5 29.92 3.44C29.81 3.38 29.7 3.33 29.58 3.28C29.46 3.23 29.34 3.19 29.22 3.15C29.1 3.12 28.98 3.09 28.85 3.06C28.73 3.04 28.6 3.02 28.48 3.01C28.35 3 28.22 2.99 28.1 2.99ZM3.89 5.35L7.32 5.35L7.32 6.4L9.71 6.4L9.71 5.35L21.98 5.35L21.98 6.4L24.37 6.4L24.37 5.35L28.1 5.35C28.2 5.35 28.29 5.36 28.39 5.37C28.49 5.39 28.58 5.42 28.67 5.46C28.76 5.5 28.85 5.54 28.93 5.6C29.02 5.65 29.09 5.71 29.16 5.78C29.23 5.85 29.3 5.93 29.35 6.01C29.41 6.09 29.45 6.17 29.49 6.27C29.53 6.36 29.56 6.45 29.58 6.55C29.6 6.64 29.61 6.74 29.61 6.84L29.61 9.11L2.38 9.11L2.38 6.84C2.38 6.74 2.39 6.64 2.41 6.55C2.43 6.45 2.46 6.36 2.5 6.26C2.54 6.17 2.58 6.09 2.64 6.01C2.69 5.92 2.76 5.85 2.83 5.78C2.9 5.71 2.97 5.65 3.06 5.6C3.14 5.54 3.23 5.5 3.32 5.46C3.41 5.42 3.5 5.39 3.6 5.37C3.7 5.36 3.79 5.35 3.89 5.35ZM28.1 28.21L3.89 28.21C3.79 28.21 3.7 28.21 3.6 28.19C3.5 28.17 3.41 28.14 3.32 28.1C3.23 28.07 3.14 28.02 3.06 27.97C2.97 27.91 2.9 27.85 2.83 27.78C2.76 27.71 2.69 27.64 2.64 27.55C2.58 27.47 2.54 27.39 2.5 27.3C2.46 27.2 2.43 27.11 2.41 27.01C2.39 26.92 2.38 26.82 2.38 26.72L2.38 11.46L29.61 11.46L29.61 26.72C29.61 26.82 29.6 26.92 29.58 27.01C29.56 27.11 29.53 27.2 29.49 27.3C29.45 27.39 29.41 27.47 29.35 27.55C29.3 27.64 29.23 27.71 29.16 27.78C29.09 27.85 29.02 27.91 28.93 27.97C28.85 28.02 28.76 28.07 28.67 28.1C28.58 28.14 28.49 28.17 28.39 28.19C28.29 28.21 28.2 28.21 28.1 28.21ZM23.02 17.42L21.57 16.26L20.07 18.09L23.37 20.73L27.2 16.07L25.35 14.58L23.02 17.42Z" fill="#007DFF" fill-opacity="1.000000" fill-rule="nonzero"/>
	<path d="M9.57 17.08C9.58 16.95 9.56 16.82 9.54 16.7C9.52 16.57 9.48 16.45 9.44 16.34C9.39 16.22 9.33 16.11 9.26 16C9.19 15.89 9.11 15.79 9.03 15.7C8.94 15.61 8.84 15.53 8.74 15.46C8.63 15.39 8.52 15.33 8.4 15.28C8.29 15.23 8.17 15.19 8.04 15.17C7.92 15.14 7.79 15.13 7.67 15.12C7.54 15.12 7.42 15.14 7.29 15.16C7.17 15.18 7.05 15.22 6.93 15.27C6.81 15.31 6.7 15.37 6.59 15.44C6.49 15.51 6.39 15.59 6.3 15.68C6.21 15.77 6.13 15.86 6.06 15.97C5.99 16.07 5.93 16.19 5.88 16.3C5.83 16.42 5.79 16.54 5.77 16.66C5.74 16.79 5.73 16.91 5.73 17.04C5.73 17.17 5.74 17.29 5.76 17.42C5.79 17.54 5.82 17.66 5.87 17.78C5.92 17.9 5.98 18.01 6.05 18.11C6.12 18.22 6.2 18.32 6.29 18.41C6.38 18.5 6.47 18.58 6.58 18.65C6.68 18.72 6.79 18.78 6.91 18.83C7.03 18.87 7.15 18.91 7.27 18.94C7.4 18.96 7.52 18.97 7.65 18.97C7.78 18.97 7.9 18.96 8.02 18.94C8.15 18.91 8.27 18.88 8.38 18.83C8.5 18.79 8.61 18.73 8.71 18.66C8.82 18.59 8.92 18.51 9.01 18.42C9.09 18.33 9.17 18.24 9.24 18.13C9.31 18.03 9.37 17.92 9.42 17.81C9.47 17.69 9.51 17.57 9.53 17.45C9.56 17.33 9.57 17.2 9.57 17.08ZM17.18 17.08C17.18 16.95 17.17 16.82 17.14 16.7C17.12 16.57 17.09 16.45 17.04 16.34C16.99 16.22 16.93 16.11 16.87 16C16.8 15.89 16.72 15.79 16.63 15.7C16.54 15.61 16.44 15.53 16.34 15.46C16.23 15.39 16.12 15.33 16.01 15.28C15.89 15.23 15.77 15.19 15.65 15.17C15.52 15.14 15.4 15.13 15.27 15.12C15.14 15.12 15.02 15.14 14.89 15.16C14.77 15.18 14.65 15.22 14.53 15.27C14.41 15.31 14.3 15.37 14.2 15.44C14.09 15.51 13.99 15.59 13.9 15.68C13.81 15.77 13.73 15.86 13.66 15.97C13.59 16.07 13.53 16.19 13.48 16.3C13.43 16.42 13.39 16.54 13.37 16.66C13.34 16.79 13.33 16.91 13.33 17.04C13.33 17.17 13.34 17.29 13.36 17.42C13.39 17.54 13.43 17.66 13.47 17.78C13.52 17.9 13.58 18.01 13.65 18.11C13.72 18.22 13.8 18.32 13.89 18.41C13.98 18.5 14.08 18.58 14.18 18.65C14.29 18.72 14.4 18.78 14.51 18.83C14.63 18.87 14.75 18.91 14.88 18.94C15 18.96 15.13 18.97 15.25 18.97C15.38 18.97 15.5 18.96 15.63 18.94C15.75 18.91 15.87 18.88 15.98 18.83C16.1 18.78 16.21 18.73 16.32 18.66C16.42 18.59 16.52 18.51 16.61 18.42C16.7 18.33 16.78 18.24 16.85 18.13C16.92 18.03 16.98 17.92 17.03 17.81C17.07 17.69 17.11 17.57 17.14 17.45C17.16 17.32 17.18 17.2 17.18 17.08ZM9.57 23.11C9.58 22.98 9.56 22.85 9.54 22.73C9.52 22.6 9.48 22.48 9.44 22.37C9.39 22.25 9.33 22.14 9.26 22.03C9.19 21.92 9.11 21.83 9.03 21.73C8.94 21.64 8.84 21.56 8.74 21.49C8.63 21.42 8.52 21.36 8.4 21.31C8.29 21.26 8.17 21.22 8.04 21.2C7.92 21.17 7.79 21.16 7.67 21.16C7.54 21.15 7.42 21.17 7.29 21.19C7.17 21.21 7.05 21.25 6.93 21.3C6.81 21.34 6.7 21.4 6.59 21.47C6.49 21.54 6.39 21.62 6.3 21.71C6.21 21.8 6.13 21.9 6.06 22C5.99 22.1 5.93 22.22 5.88 22.33C5.83 22.45 5.79 22.57 5.77 22.69C5.74 22.82 5.73 22.94 5.73 23.07C5.73 23.2 5.74 23.32 5.76 23.45C5.79 23.57 5.82 23.69 5.87 23.81C5.92 23.93 5.98 24.04 6.05 24.14C6.12 24.25 6.2 24.35 6.29 24.44C6.38 24.53 6.47 24.61 6.58 24.68C6.68 24.75 6.79 24.81 6.91 24.86C7.03 24.9 7.15 24.94 7.27 24.97C7.4 24.99 7.52 25 7.65 25C7.78 25 7.9 24.99 8.02 24.97C8.15 24.95 8.27 24.91 8.38 24.86C8.5 24.82 8.61 24.76 8.71 24.69C8.82 24.62 8.92 24.54 9.01 24.45C9.09 24.36 9.17 24.27 9.24 24.16C9.32 24.06 9.37 23.95 9.42 23.84C9.47 23.72 9.51 23.6 9.53 23.48C9.56 23.36 9.57 23.23 9.57 23.11ZM17.18 23.11C17.18 22.98 17.17 22.85 17.14 22.73C17.12 22.6 17.09 22.48 17.04 22.37C16.99 22.25 16.93 22.14 16.87 22.03C16.8 21.92 16.72 21.83 16.63 21.73C16.54 21.64 16.44 21.56 16.34 21.49C16.23 21.42 16.12 21.36 16.01 21.31C15.89 21.26 15.77 21.22 15.65 21.2C15.52 21.17 15.4 21.16 15.27 21.16C15.14 21.15 15.02 21.17 14.89 21.19C14.77 21.21 14.65 21.25 14.53 21.3C14.41 21.34 14.3 21.4 14.2 21.47C14.09 21.54 13.99 21.62 13.9 21.71C13.81 21.8 13.73 21.9 13.66 22C13.59 22.1 13.53 22.22 13.48 22.33C13.43 22.45 13.39 22.57 13.37 22.69C13.34 22.82 13.33 22.94 13.33 23.07C13.33 23.2 13.34 23.32 13.36 23.45C13.39 23.57 13.43 23.69 13.47 23.81C13.52 23.93 13.58 24.04 13.65 24.14C13.72 24.25 13.8 24.35 13.89 24.44C13.98 24.53 14.08 24.61 14.18 24.68C14.29 24.75 14.4 24.81 14.51 24.86C14.63 24.9 14.75 24.94 14.88 24.97C15 24.99 15.13 25 15.25 25C15.38 25 15.5 24.99 15.63 24.97C15.75 24.95 15.87 24.91 15.98 24.86C16.1 24.82 16.21 24.76 16.32 24.69C16.42 24.62 16.52 24.54 16.61 24.45C16.7 24.36 16.78 24.27 16.85 24.16C16.92 24.06 16.98 23.95 17.03 23.84C17.07 23.72 17.11 23.6 17.14 23.48C17.16 23.36 17.18 23.23 17.18 23.11Z" fill="#F79C42" fill-opacity="1.000000" fill-rule="nonzero"/>
</svg>
