<?xml version="1.0" standalone="no"?><!DOCTYPE svg PUBLIC "-//W3C//DTD SVG 1.1//EN" "http://www.w3.org/Graphics/SVG/1.1/DTD/svg11.dtd"><svg t="1744798430284" class="icon" viewBox="0 0 1024 1024" version="1.1" xmlns="http://www.w3.org/2000/svg" p-id="6433" width="16" height="16" xmlns:xlink="http://www.w3.org/1999/xlink"><path d="M637.94 149.54c-2.09 1.67-5 4.48 0 0z" fill="#0071C3" p-id="6434"></path><path d="M871.08 222.27a167.66 167.66 0 0 0-12.38-42c-9.56-21.75-25.21-39-41.79-55.64-5.94-5.94-11.76-12-18.26-17.38a172 172 0 0 0-45.14-26.88c-28.27-11.62-60-13.18-89.74-7.29-29.52 5.85-57.21 21.52-78.5 42.62-6.34 6.29-12.63 12.63-18.95 19l-52.75 52.75-37.85-38.25c-22.41-22.65-44.39-49-72.66-64.43C376.75 70.4 345.73 63 315.75 65.61c-15.21 1.32-30.3 4.06-44.51 9.78a173.92 173.92 0 0 0-45.31 26.49c-6.69 5.37-12.63 11.55-18.68 17.6-5.6 5.6-11.41 11.06-16.64 17C180.37 148 171.3 160.89 165 175.09a174.06 174.06 0 0 0-13.87 50.11c-6 47.74 13 95.87 46.62 129.51l36 36 68.11 68.12 78.86 78.85L449.08 606l36.39 36.4 1.71 1.7a28.87 28.87 0 0 0 7.13 5.18c12.08 10.42 30.27 11 42-0.68l25.56-25.6 62.24-62.25L702 482.89l72.51-72.52 46.25-46.25c24.49-24.48 43.83-53.61 49.73-88.4a166.35 166.35 0 0 0 0.59-53.45m-58.82 37a131.75 131.75 0 0 1-6.8 24.91 129.62 129.62 0 0 1-9.06 16.45c-0.92 1.41-1.88 2.8-2.85 4.17l-0.48 0.65c-2.25 2.69-4.54 5.35-7 7.88-1.18 1.22-2.39 2.42-3.59 3.62l-16 16-66.82 66.83-87.88 87.87-78.87 78.87c-6.3 6.3-12.67 12.55-19 18.83l-15.8-15.8-75.26-75.27-88.42-88.38-71.38-71.38L243.5 315l-4.12-4.13-2-2c-2.41-2.5-4.65-5.13-6.9-7.77l-0.14-0.17q-1.89-2.64-3.66-5.37a128.41 128.41 0 0 1-8.79-16.13 132 132 0 0 1-6.68-24.62 132 132 0 0 1 0-25.91 131.29 131.29 0 0 1 6.75-24.78 129.07 129.07 0 0 1 7.57-14.16c1.52-2.44 3.13-4.84 4.81-7.17l0.07-0.1c0.82-1 1.63-2 2.47-2.94 4.93-5.65 10.41-10.84 15.71-16.15s10.5-10.79 16.16-15.72c0.94-0.82 1.91-1.61 2.87-2.42l0.16-0.11c2.33-1.68 4.73-3.29 7.18-4.81a126.23 126.23 0 0 1 14.14-7.57 131.6 131.6 0 0 1 24.79-6.75 132 132 0 0 1 25.91 0 131.67 131.67 0 0 1 25 6.85q5.22 2.4 10.22 5.26c2.48 1.43 4.92 3 7.3 4.55s9.81 8.19 2.08 1.26c4 3.6 8.19 7 12 10.82q8.91 9 17.78 18l59.23 59.87q7.69 7.78 15.4 15.56a28 28 0 0 0 5.77 4.46c12.06 9.44 29.44 9.63 40.74-1.68q45.36-45.34 90.7-90.7c3.28-3.28 6.61-6.49 10.16-9.48 0.93-0.78 1.93-1.5 2.83-2.31l-1.09 1 0.79-0.6c2.35-1.65 4.76-3.23 7.22-4.72a129.49 129.49 0 0 1 12.81-6.78 132.68 132.68 0 0 1 24.91-6.79 131.85 131.85 0 0 1 25.9 0 131.19 131.19 0 0 1 24.79 6.75 126.37 126.37 0 0 1 14.17 7.46c2.45 1.52 4.84 3.13 7.18 4.81l0.1 0.07c1 0.82 2 1.63 2.93 2.46 5.66 4.94 10.85 10.42 16.16 15.72s10.79 10.49 15.71 16.15c0.83 0.95 1.62 1.92 2.42 2.88l0.12 0.16c1.68 2.33 3.29 4.73 4.81 7.17a128.93 128.93 0 0 1 7.57 14.15 132.35 132.35 0 0 1 6.75 24.79 132 132 0 0 1 0 25.91M95.59 459.83c12 55.9 35.31 110.18 68.69 156.68 34.56 48.13 78.32 88.88 129.55 118.84a442.86 442.86 0 0 0 94.88 41.11l-22.18-29.14v181.44c0 15.8 13.9 31 30.22 30.21S427 945.7 427 928.76V747.32c0-13.56-9.44-25.27-22.19-29.14A427 427 0 0 1 363 703.1l7.22 3A402.08 402.08 0 0 1 317 678.77q-12.37-7.6-24.16-16.12c-1.9-1.37-3.79-2.77-5.67-4.18-1.11-0.83-2.31-1.64-3.36-2.55 0 0 6.37 5 2.79 2.14-4-3.21-8-6.43-11.93-9.76a385.06 385.06 0 0 1-40.55-40.13q-4.56-5.24-8.92-10.63c-1.46-1.8-2.86-3.64-4.32-5.43 6.87 8.5 0.41 0.47-1.14-1.62q-8.27-11.16-15.7-22.89a397.91 397.91 0 0 1-30.35-58.05l3.05 7.22a414.41 414.41 0 0 1-22.88-73c-3.32-15.47-22.25-25.93-37.17-21.1-16.31 5.28-24.67 20.59-21.1 37.17z" fill="#0071C3" p-id="6435"></path><path d="M870.21 443.76a414.41 414.41 0 0 1-22.88 73l3-7.22a398.89 398.89 0 0 1-26.32 51.56q-7.38 12.17-15.65 23.77c-2.68 3.76-5.46 7.46-8.25 11.15 6.53-8.64 1-1.39-0.42 0.43-1.74 2.16-3.5 4.31-5.28 6.43a384.32 384.32 0 0 1-39.78 40.82q-5.23 4.63-10.65 9.08-2.7 2.22-5.46 4.4c-0.73 0.58-1.48 1.15-2.2 1.74 8-6.51 2.38-1.85 0.53-0.46q-11.31 8.49-23.21 16.14a401.36 401.36 0 0 1-59.8 31.53l7.22-3a428 428 0 0 1-41.82 15.08c-12.76 3.87-22.19 15.62-22.19 29.14v181.41c0 15.8 13.9 31 30.22 30.21s30.22-13.27 30.22-30.21V747.32l-22.19 29.14a435.39 435.39 0 0 0 158.91-87.25A409.47 409.47 0 0 0 896 554.77a442.14 442.14 0 0 0 32.47-94.94c3.32-15.41-4.57-33.41-21.1-37.17-15.22-3.47-33.62 4.58-37.17 21.1z" fill="#FD9A16" p-id="6436"></path></svg>