<svg width="32.000000" height="32.000000" viewBox="0 0 32 32" fill="none" xmlns="http://www.w3.org/2000/svg">
	<desc>
			Created with Pixso.
	</desc>
	<defs>
		<clipPath id="clip1_46">
			<rect width="32.000000" height="32.000000" transform="matrix(1 0 0 -1 0 32)" fill="white" fill-opacity="0"/>
		</clipPath>
	</defs>
	<g clip-path="url(#clip1_46)">
		<path d="M29.92 15.99C29.92 23.68 23.68 29.91 16 29.91C8.31 29.91 2.08 23.68 2.08 15.99C2.08 8.31 8.31 2.07 16 2.07C23.68 2.07 29.92 8.31 29.92 15.99ZM28.02 15.99C28.02 9.37 22.62 3.97 16 3.97C9.37 3.97 3.97 9.37 3.97 15.99C3.97 22.62 9.37 28.02 16 28.02C22.62 28.02 28.02 22.62 28.02 15.99Z" fill="#000000" fill-opacity="1.000000" fill-rule="nonzero"/>
		<path d="M20.97 13.15C21.35 13.47 21.35 13.98 20.99 14.31L16.69 18.81C16.32 19.14 15.72 19.15 15.35 18.83L11.02 14.43C10.64 14.12 10.64 13.61 11 13.28C11.37 12.96 11.97 12.95 12.34 13.26L15.99 17.1L19.63 13.18C19.99 12.85 20.59 12.84 20.97 13.15Z" fill="#000000" fill-opacity="1.000000" fill-rule="nonzero"/>
	</g>
</svg>
