<svg width="20.000000" height="20.000000" viewBox="0 0 20 20" fill="none" xmlns="http://www.w3.org/2000/svg">
	<desc>
			Created with Pixso.
	</desc>
	<defs>
		<clipPath id="clip1_252">
			<rect width="20.000000" height="20.000000" fill="white" fill-opacity="0"/>
		</clipPath>
	</defs>
	<g clip-path="url(#clip1_252)">
		<path d="M16.8 2.6L3.19 2.6C2.38 2.6 1.72 3.26 1.72 4.07L1.72 14.05C1.72 14.86 2.38 15.53 3.19 15.53L8.13 15.53L10 17.39L11.86 15.53L16.8 15.53C17.61 15.53 18.27 14.86 18.27 14.05L18.27 4.07C18.27 3.26 17.61 2.6 16.8 2.6ZM17.14 4.53L17.14 13.6C17.14 14.03 16.78 14.39 16.35 14.39L11.31 14.39L10 15.71L8.68 14.39L3.64 14.39C3.21 14.39 2.85 14.03 2.85 13.6L2.85 4.53C2.85 4.09 3.21 3.73 3.64 3.73L16.35 3.73C16.78 3.73 17.14 4.09 17.14 4.53Z" fill="#666666" fill-opacity="1.000000" fill-rule="nonzero"/>
		<path d="M5.91 7.88L14.47 7.88C14.76 7.88 15 7.64 15 7.34C15 7.04 14.76 6.79 14.47 6.79L5.91 6.79C5.62 6.79 5.38 7.04 5.38 7.34C5.38 7.64 5.62 7.88 5.91 7.88Z" fill="#666666" fill-opacity="1.000000" fill-rule="nonzero"/>
		<path d="M14.47 9.69L5.91 9.69C5.62 9.69 5.38 9.94 5.38 10.24C5.38 10.54 5.62 10.78 5.91 10.78L14.47 10.78C14.76 10.78 15 10.54 15 10.24C15 9.94 14.76 9.69 14.47 9.69Z" fill="#666666" fill-opacity="1.000000" fill-rule="nonzero"/>
	</g>
</svg>
