<svg width="60.000000" height="60.000000" viewBox="0 0 60 60" fill="none" xmlns="http://www.w3.org/2000/svg">
	<desc>
			Created with Pixso.
	</desc>
	<defs>
		<clipPath id="clip1_193">
			<rect width="60.000000" height="60.000000" fill="white" fill-opacity="0"/>
		</clipPath>
	</defs>
	<rect width="60.000000" height="60.000000" fill="#FFFFFF" fill-opacity="1.000000"/>
	<g clip-path="url(#clip1_193)">
		<rect x="8.035400" y="10.000000" width="20.000000" height="4.000000" transform="rotate(15 8.035400 10.000000)" fill="#707070" fill-opacity="1.000000"/>
		<rect width="20.000000" height="4.000000" transform="matrix(-0.965926 0.258819 0.258819 0.965926 52.4951 10.52)" fill="#707070" fill-opacity="1.000000"/>
		<rect x="8.035400" y="33.000000" width="20.000000" height="4.000000" transform="rotate(15 8.035400 33.000000)" fill="#707070" fill-opacity="1.000000"/>
		<rect width="20.000000" height="4.000000" transform="matrix(-0.965926 0.258819 0.258819 0.965926 52.4951 33.52)" fill="#707070" fill-opacity="1.000000"/>
		<rect x="8.212524" y="17.520020" width="4.000000" height="4.000000" transform="rotate(15 8.212524 17.520020)" fill="#707070" fill-opacity="1.000000"/>
		<rect width="4.000000" height="4.000000" transform="matrix(-0.965926 0.25882 0.25882 0.965926 52.3182 18.04)" fill="#707070" fill-opacity="1.000000"/>
		<rect x="8.212524" y="40.520020" width="4.000000" height="4.000000" transform="rotate(15 8.212524 40.520020)" fill="#707070" fill-opacity="1.000000"/>
		<rect width="4.000000" height="4.000000" transform="matrix(-0.965926 0.258819 0.258819 0.965926 52.3182 41.0402)" fill="#707070" fill-opacity="1.000000"/>
		<rect x="18.762817" y="20.070557" width="4.000000" height="4.000000" transform="rotate(15 18.762817 20.070557)" fill="#707070" fill-opacity="1.000000"/>
		<rect width="4.000000" height="4.000000" transform="matrix(-0.965926 0.258819 0.258819 0.965926 41.7675 20.5906)" fill="#707070" fill-opacity="1.000000"/>
		<rect x="18.762817" y="43.070557" width="4.000000" height="4.000000" transform="rotate(15 18.762817 43.070557)" fill="#707070" fill-opacity="1.000000"/>
		<rect width="4.000000" height="4.000000" transform="matrix(-0.965926 0.258819 0.258819 0.965926 41.7675 43.5906)" fill="#707070" fill-opacity="1.000000"/>
	</g>
</svg>
