<svg width="60.000000" height="60.000000" viewBox="0 0 60 60" fill="none" xmlns="http://www.w3.org/2000/svg">
	<desc>
			Created with Pixso.
	</desc>
	<defs/>
	<rect width="60.000000" height="60.000000" fill="#FFFFFF" fill-opacity="1.000000"/>
	<rect x="0.500000" y="0.500000" width="59.000000" height="59.000000" stroke="#666666" stroke-opacity="0" stroke-width="1.000000"/>
	<path d="M48.09 33L45.38 33L45.38 19.42C45.38 19.25 45.36 19.07 45.32 18.89C45.29 18.72 45.24 18.55 45.17 18.39C45.1 18.22 45.02 18.06 44.92 17.92C44.82 17.77 44.71 17.63 44.58 17.51C44.45 17.38 44.32 17.27 44.17 17.17C44.02 17.07 43.86 16.98 43.7 16.92C43.54 16.85 43.37 16.8 43.19 16.76C43.02 16.73 42.84 16.71 42.66 16.71L17.33 16.71C17.15 16.71 16.97 16.73 16.8 16.76C16.62 16.8 16.45 16.85 16.29 16.92C16.13 16.98 15.97 17.07 15.82 17.17C15.67 17.27 15.54 17.38 15.41 17.51C15.28 17.63 15.17 17.77 15.07 17.92C14.97 18.06 14.89 18.22 14.82 18.39C14.75 18.55 14.7 18.72 14.67 18.89C14.63 19.07 14.61 19.25 14.61 19.42L14.61 33L11.9 33L11.9 18.52C11.9 18.37 11.91 18.22 11.92 18.08C11.94 17.93 11.96 17.78 11.99 17.64C12.02 17.49 12.05 17.35 12.09 17.21C12.14 17.07 12.19 16.93 12.24 16.79C12.3 16.65 12.36 16.52 12.43 16.39C12.5 16.26 12.58 16.13 12.66 16.01C12.74 15.88 12.83 15.76 12.93 15.65C13.02 15.54 13.12 15.43 13.22 15.32C13.33 15.22 13.44 15.12 13.55 15.02C13.67 14.93 13.79 14.84 13.91 14.76C14.03 14.68 14.16 14.6 14.29 14.53C14.42 14.46 14.56 14.4 14.69 14.34C14.83 14.28 14.97 14.23 15.11 14.19C15.25 14.15 15.4 14.11 15.54 14.08C15.69 14.05 15.83 14.03 15.98 14.02C16.13 14 16.28 14 16.42 14L43.57 14C43.71 14 43.86 14 44.01 14.02C44.16 14.03 44.3 14.05 44.45 14.08C44.59 14.11 44.74 14.15 44.88 14.19C45.02 14.23 45.16 14.28 45.3 14.34C45.43 14.4 45.57 14.46 45.7 14.53C45.83 14.6 45.96 14.68 46.08 14.76C46.2 14.84 46.32 14.93 46.44 15.02C46.55 15.12 46.66 15.22 46.77 15.32C46.87 15.43 46.97 15.54 47.06 15.65C47.16 15.76 47.25 15.88 47.33 16.01C47.41 16.13 47.49 16.26 47.56 16.39C47.63 16.52 47.69 16.65 47.75 16.79C47.8 16.93 47.85 17.07 47.9 17.21C47.94 17.35 47.97 17.49 48 17.64C48.03 17.78 48.05 17.93 48.07 18.08C48.08 18.22 48.09 18.37 48.09 18.52L48.09 33Z" fill="#666666" fill-opacity="1.000000" fill-rule="nonzero"/>
	<path d="M42.66 28.81L39.95 28.13L39.95 25.76C39.95 25.7 39.94 25.64 39.93 25.58C39.92 25.52 39.9 25.47 39.88 25.41C39.86 25.36 39.83 25.3 39.79 25.26C39.76 25.21 39.72 25.16 39.68 25.12C39.64 25.08 39.59 25.04 39.55 25.01C39.5 24.97 39.44 24.94 39.39 24.92C39.33 24.9 39.28 24.88 39.22 24.87C39.16 24.86 39.1 24.85 39.04 24.85L20.95 24.85C20.89 24.85 20.83 24.86 20.77 24.87C20.71 24.88 20.66 24.9 20.6 24.92C20.55 24.94 20.49 24.97 20.44 25.01C20.4 25.04 20.35 25.08 20.31 25.12C20.27 25.16 20.23 25.21 20.2 25.26C20.16 25.3 20.13 25.36 20.11 25.41C20.09 25.47 20.07 25.52 20.06 25.58C20.05 25.64 20.04 25.7 20.04 25.76L20.04 28.16L17.33 28.82L17.33 23.95C17.33 22.95 18.14 22.14 19.14 22.14L40.85 22.14C41.85 22.14 42.66 22.95 42.66 23.95L42.66 28.81Z" fill="#666666" fill-opacity="1.000000" fill-rule="nonzero"/>
	<path d="M13.71 36.61L13.71 41.14L46.28 41.14L46.28 36.61C46.28 31.61 39.49 31.19 30 31.19C20.5 31.19 13.71 31.61 13.71 36.61L13.71 36.61ZM11 35.71C11 29.71 19 28.47 30 28.47C40.99 28.47 49 29.71 49 35.71L49 43.85L11 43.85L11 35.71Z" fill="#666666" fill-opacity="1.000000" fill-rule="nonzero"/>
	<path d="M12.35 39.33C12.44 39.33 12.53 39.34 12.62 39.36C12.7 39.37 12.79 39.4 12.87 39.43C12.95 39.47 13.03 39.51 13.11 39.56C13.18 39.61 13.25 39.66 13.31 39.73C13.37 39.79 13.43 39.86 13.48 39.93C13.53 40.01 13.57 40.08 13.61 40.17C13.64 40.25 13.67 40.33 13.68 40.42C13.7 40.51 13.71 40.6 13.71 40.69L13.71 47.92C13.71 48.01 13.7 48.1 13.68 48.19C13.67 48.28 13.64 48.36 13.61 48.44C13.57 48.53 13.53 48.6 13.48 48.68C13.43 48.75 13.37 48.82 13.31 48.88C13.25 48.95 13.18 49 13.11 49.05C13.03 49.1 12.95 49.14 12.87 49.18C12.79 49.21 12.7 49.24 12.62 49.25C12.53 49.27 12.44 49.28 12.35 49.28C12.26 49.28 12.17 49.27 12.09 49.25C12 49.24 11.92 49.21 11.83 49.18C11.75 49.14 11.67 49.1 11.6 49.05C11.52 49 11.46 48.95 11.39 48.88C11.33 48.82 11.27 48.75 11.22 48.68C11.17 48.6 11.13 48.53 11.1 48.44C11.06 48.36 11.04 48.28 11.02 48.19C11 48.1 11 48.01 11 47.92L11 40.69C11 40.6 11 40.51 11.02 40.42C11.04 40.33 11.06 40.25 11.1 40.17C11.13 40.08 11.17 40.01 11.22 39.93C11.27 39.86 11.33 39.79 11.39 39.73C11.46 39.66 11.52 39.61 11.6 39.56C11.67 39.51 11.75 39.47 11.83 39.43C11.92 39.4 12 39.37 12.09 39.36C12.17 39.34 12.26 39.33 12.35 39.33ZM47.64 39.33C47.73 39.33 47.82 39.34 47.9 39.36C47.99 39.37 48.07 39.4 48.16 39.43C48.24 39.47 48.32 39.51 48.39 39.56C48.47 39.61 48.53 39.66 48.6 39.73C48.66 39.79 48.72 39.86 48.77 39.93C48.82 40.01 48.86 40.08 48.89 40.17C48.93 40.25 48.95 40.33 48.97 40.42C48.99 40.51 49 40.6 49 40.69L49 47.92C49 48.01 48.99 48.1 48.97 48.19C48.95 48.28 48.93 48.36 48.89 48.44C48.86 48.53 48.82 48.6 48.77 48.68C48.72 48.75 48.66 48.82 48.6 48.88C48.53 48.95 48.47 49 48.39 49.05C48.32 49.1 48.24 49.14 48.16 49.18C48.07 49.21 47.99 49.24 47.9 49.25C47.82 49.27 47.73 49.28 47.64 49.28C47.55 49.28 47.46 49.27 47.37 49.25C47.29 49.24 47.2 49.21 47.12 49.18C47.04 49.14 46.96 49.1 46.88 49.05C46.81 49 46.74 48.95 46.68 48.88C46.62 48.82 46.56 48.75 46.51 48.68C46.46 48.6 46.42 48.53 46.38 48.44C46.35 48.36 46.32 48.28 46.31 48.19C46.29 48.1 46.28 48.01 46.28 47.92L46.28 40.69C46.28 40.6 46.29 40.51 46.31 40.42C46.32 40.33 46.35 40.25 46.38 40.17C46.42 40.08 46.46 40.01 46.51 39.93C46.56 39.86 46.62 39.79 46.68 39.73C46.74 39.66 46.81 39.61 46.88 39.56C46.96 39.51 47.04 39.47 47.12 39.43C47.2 39.4 47.29 39.37 47.37 39.36C47.46 39.34 47.55 39.33 47.64 39.33Z" fill="#666666" fill-opacity="1.000000" fill-rule="nonzero"/>
</svg>
