<svg width="60.000000" height="60.000000" viewBox="0 0 60 60" fill="none" xmlns="http://www.w3.org/2000/svg">
	<desc>
			Created with Pixso.
	</desc>
	<defs>
		<clipPath id="clip1_163">
			<rect width="60.000000" height="60.000000" fill="white" fill-opacity="0"/>
		</clipPath>
	</defs>
	<rect width="60.000000" height="60.000000" fill="#FFFFFF" fill-opacity="1.000000"/>
	<g clip-path="url(#clip1_163)">
		<circle cx="51.000000" cy="14.000000" r="3.000000" fill="#707070" fill-opacity="1.000000"/>
		<circle cx="9.000000" cy="14.000000" r="3.000000" fill="#707070" fill-opacity="1.000000"/>
		<circle cx="51.000000" cy="26.000000" r="3.000000" fill="#707070" fill-opacity="1.000000"/>
		<circle cx="9.000000" cy="26.000000" r="3.000000" fill="#707070" fill-opacity="1.000000"/>
		<circle cx="47.000000" cy="39.000000" r="3.000000" fill="#707070" fill-opacity="1.000000"/>
		<circle cx="13.000000" cy="39.000000" r="3.000000" fill="#707070" fill-opacity="1.000000"/>
		<circle cx="24.000000" cy="49.000000" r="3.000000" fill="#707070" fill-opacity="1.000000"/>
		<circle cx="36.000000" cy="49.000000" r="3.000000" fill="#707070" fill-opacity="1.000000"/>
		<path d="M19 9L19 29C19 35.07 23.92 40 30 40C36.07 40 41 35.07 41 29L41 9M23 9L23 29C23 32.86 26.13 36 30 36C33.86 36 37 32.86 37 29L37 9" stroke="#707070" stroke-opacity="1.000000" stroke-width="4.000000"/>
	</g>
</svg>
