<svg width="60.000000" height="60.000000" viewBox="0 0 60 60" fill="none" xmlns="http://www.w3.org/2000/svg">
	<desc>
			Created with Pixso.
	</desc>
	<defs/>
	<rect width="60.000000" height="60.000000" fill="#FFFFFF" fill-opacity="1.000000"/>
	<rect x="0.500000" y="0.500000" width="59.000000" height="59.000000" stroke="#666666" stroke-opacity="0" stroke-width="1.000000"/>
	<path d="M45.45 12L12.54 12C11.1 12 10 13.1 10 14.54L10 47.45C10 48.89 11.1 50 12.54 50L45.43 50C46.87 50 47.98 48.89 47.98 47.45L47.98 14.54C48 13.1 46.89 12 45.45 12ZM45.16 14.83L45.16 22.35L12.83 22.35L12.83 14.83L45.16 14.83ZM22.4 25.16L22.4 47.17L12.83 47.17L12.83 25.16L22.4 25.16ZM45.16 25.16L45.16 47.17L25.23 47.17L25.23 25.16L45.16 25.16Z" fill="#666666" fill-opacity="1.000000" fill-rule="nonzero"/>
</svg>
