<svg width="60.000000" height="60.000000" viewBox="0 0 60 60" fill="none" xmlns="http://www.w3.org/2000/svg">
	<desc>
			Created with Pixso.
	</desc>
	<defs/>
	<rect width="60.000000" height="60.000000" fill="#FFFFFF" fill-opacity="1.000000"/>
	<rect x="0.500000" y="0.500000" width="59.000000" height="59.000000" stroke="#666666" stroke-opacity="0" stroke-width="1.000000"/>
	<path d="M25.95 42.65C25.95 42.77 25.96 42.9 25.97 43.02C25.98 43.15 26 43.27 26.02 43.39C26.05 43.51 26.08 43.64 26.11 43.75C26.15 43.87 26.19 43.99 26.24 44.11C26.29 44.22 26.34 44.33 26.4 44.44C26.46 44.55 26.52 44.66 26.59 44.76C26.66 44.87 26.74 44.97 26.82 45.06C26.89 45.16 26.98 45.25 27.07 45.34C27.15 45.43 27.25 45.51 27.34 45.59C27.44 45.67 27.54 45.75 27.64 45.82C27.75 45.88 27.85 45.95 27.96 46.01C28.07 46.07 28.19 46.12 28.3 46.17C28.42 46.21 28.53 46.26 28.65 46.29C28.77 46.33 28.89 46.36 29.02 46.38C29.14 46.41 29.26 46.43 29.39 46.44C29.51 46.45 29.63 46.46 29.76 46.46C29.88 46.46 30.01 46.45 30.13 46.44C30.26 46.43 30.38 46.41 30.5 46.38C30.62 46.36 30.74 46.33 30.86 46.29C30.98 46.26 31.1 46.21 31.22 46.17C31.33 46.12 31.44 46.07 31.55 46.01C31.66 45.95 31.77 45.88 31.87 45.82C31.98 45.75 32.08 45.67 32.17 45.59C32.27 45.51 32.36 45.43 32.45 45.34C32.54 45.25 32.62 45.16 32.7 45.06C32.78 44.97 32.85 44.87 32.92 44.76C32.99 44.66 33.06 44.55 33.12 44.44C33.18 44.33 33.23 44.22 33.28 44.11C33.32 43.99 33.37 43.87 33.4 43.75C33.44 43.64 33.47 43.51 33.49 43.39C33.52 43.27 33.54 43.15 33.55 43.02C33.56 42.9 33.57 42.77 33.57 42.65C33.57 42.52 33.56 42.4 33.55 42.28C33.54 42.15 33.52 42.03 33.49 41.91C33.47 41.78 33.44 41.66 33.4 41.54C33.37 41.42 33.32 41.31 33.28 41.19C33.23 41.08 33.18 40.96 33.12 40.85C33.06 40.74 32.99 40.64 32.92 40.53C32.85 40.43 32.78 40.33 32.7 40.23C32.62 40.14 32.54 40.05 32.45 39.96C32.36 39.87 32.27 39.78 32.17 39.71C32.08 39.63 31.98 39.55 31.87 39.48C31.77 39.41 31.66 39.35 31.55 39.29C31.44 39.23 31.33 39.18 31.22 39.13C31.1 39.08 30.98 39.04 30.86 39.01C30.74 38.97 30.62 38.94 30.5 38.91C30.38 38.89 30.26 38.87 30.13 38.86C30.01 38.85 29.88 38.84 29.76 38.84C29.63 38.84 29.51 38.85 29.39 38.86C29.26 38.87 29.14 38.89 29.02 38.91C28.89 38.94 28.77 38.97 28.65 39.01C28.53 39.04 28.42 39.08 28.3 39.13C28.19 39.18 28.07 39.23 27.96 39.29C27.85 39.35 27.75 39.41 27.64 39.48C27.54 39.55 27.44 39.63 27.34 39.71C27.25 39.78 27.15 39.87 27.07 39.96C26.98 40.05 26.89 40.14 26.82 40.23C26.74 40.33 26.66 40.43 26.59 40.53C26.52 40.64 26.46 40.74 26.4 40.85C26.34 40.96 26.29 41.08 26.24 41.19C26.19 41.31 26.15 41.42 26.11 41.54C26.08 41.66 26.05 41.78 26.02 41.91C26 42.03 25.98 42.15 25.97 42.28C25.96 42.4 25.95 42.52 25.95 42.65Z" fill="#666666" fill-opacity="1.000000" fill-rule="nonzero"/>
	<path d="M25.97 43.02C25.98 43.15 26 43.27 26.02 43.39C26.05 43.51 26.08 43.64 26.11 43.75C26.15 43.87 26.19 43.99 26.24 44.11C26.29 44.22 26.34 44.33 26.4 44.44C26.46 44.55 26.52 44.66 26.59 44.76C26.66 44.87 26.74 44.97 26.82 45.06C26.89 45.16 26.98 45.25 27.07 45.34C27.15 45.43 27.25 45.51 27.34 45.59C27.44 45.67 27.54 45.75 27.64 45.82C27.75 45.88 27.85 45.95 27.96 46.01C28.07 46.07 28.19 46.12 28.3 46.17C28.42 46.21 28.53 46.26 28.65 46.29C28.77 46.33 28.89 46.36 29.02 46.38C29.14 46.41 29.26 46.43 29.39 46.44C29.51 46.45 29.63 46.46 29.76 46.46C29.88 46.46 30.01 46.45 30.13 46.44C30.26 46.43 30.38 46.41 30.5 46.38C30.62 46.36 30.74 46.33 30.86 46.29C30.98 46.26 31.1 46.21 31.22 46.17C31.33 46.12 31.44 46.07 31.55 46.01C31.66 45.95 31.77 45.88 31.87 45.82C31.98 45.75 32.08 45.67 32.17 45.59C32.27 45.51 32.36 45.43 32.45 45.34C32.54 45.25 32.62 45.16 32.7 45.06C32.78 44.97 32.85 44.87 32.92 44.76C32.99 44.66 33.06 44.55 33.12 44.44C33.18 44.33 33.23 44.22 33.28 44.11C33.32 43.99 33.37 43.87 33.4 43.75C33.44 43.64 33.47 43.51 33.49 43.39C33.52 43.27 33.54 43.15 33.55 43.02C33.56 42.9 33.57 42.77 33.57 42.65C33.57 42.52 33.56 42.4 33.55 42.28C33.54 42.15 33.52 42.03 33.49 41.91C33.47 41.78 33.44 41.66 33.4 41.54C33.37 41.42 33.32 41.31 33.28 41.19C33.23 41.08 33.18 40.96 33.12 40.85C33.06 40.74 32.99 40.64 32.92 40.53C32.85 40.43 32.78 40.33 32.7 40.23C32.62 40.14 32.54 40.05 32.45 39.96C32.36 39.87 32.27 39.78 32.17 39.71C32.08 39.63 31.98 39.55 31.87 39.48C31.77 39.41 31.66 39.35 31.55 39.29C31.44 39.23 31.33 39.18 31.22 39.13C31.1 39.08 30.98 39.04 30.86 39.01C30.74 38.97 30.62 38.94 30.5 38.91C30.38 38.89 30.26 38.87 30.13 38.86C30.01 38.85 29.88 38.84 29.76 38.84C29.63 38.84 29.51 38.85 29.39 38.86C29.26 38.87 29.14 38.89 29.02 38.91C28.89 38.94 28.77 38.97 28.65 39.01C28.53 39.04 28.42 39.08 28.3 39.13C28.19 39.18 28.07 39.23 27.96 39.29C27.85 39.35 27.75 39.41 27.64 39.48C27.54 39.55 27.44 39.63 27.34 39.71C27.25 39.78 27.15 39.87 27.07 39.96C26.98 40.05 26.89 40.14 26.82 40.23C26.74 40.33 26.66 40.43 26.59 40.53C26.52 40.64 26.46 40.74 26.4 40.85C26.34 40.96 26.29 41.08 26.24 41.19C26.19 41.31 26.15 41.42 26.11 41.54C26.08 41.66 26.05 41.78 26.02 41.91C26 42.03 25.98 42.15 25.97 42.28C25.96 42.4 25.95 42.52 25.95 42.65C25.95 42.77 25.96 42.9 25.97 43.02Z" stroke="#666666" stroke-opacity="1.000000" stroke-width="1.000000"/>
	<path d="M39.12 30.81C38.82 30.51 38.51 30.22 38.18 29.96C37.86 29.69 37.52 29.43 37.17 29.2C36.81 28.96 36.45 28.75 36.08 28.55C35.71 28.35 35.32 28.17 34.93 28.01C34.54 27.84 34.14 27.7 33.74 27.58C33.33 27.46 32.92 27.35 32.51 27.27C32.09 27.19 31.68 27.13 31.26 27.09C30.83 27.05 30.41 27.02 29.99 27.03C26.52 27.03 23.26 28.4 20.86 30.81C20.22 31.44 19.66 32.13 19.17 32.88C19.13 32.95 19.09 33.02 19.05 33.1C19.02 33.18 19 33.26 18.98 33.34C18.96 33.42 18.95 33.51 18.95 33.59C18.95 33.68 18.96 33.76 18.98 33.84C19 33.92 19.02 34 19.05 34.08C19.09 34.16 19.13 34.23 19.17 34.3C19.22 34.37 19.27 34.44 19.33 34.5C19.39 34.55 19.46 34.61 19.53 34.65C19.6 34.7 19.67 34.74 19.75 34.77C19.83 34.8 19.91 34.82 19.99 34.84C20.08 34.85 20.16 34.86 20.24 34.86C20.33 34.86 20.41 34.85 20.49 34.83C20.58 34.81 20.66 34.79 20.73 34.75C20.81 34.72 20.88 34.68 20.95 34.63C21.02 34.58 21.08 34.53 21.14 34.47C21.2 34.41 21.25 34.34 21.3 34.27C21.69 33.67 22.14 33.11 22.65 32.6C23.13 32.12 23.66 31.69 24.22 31.31C24.79 30.93 25.39 30.61 26.02 30.35C26.65 30.09 27.3 29.89 27.96 29.76C28.63 29.63 29.31 29.56 29.99 29.56C32.78 29.56 35.39 30.67 37.33 32.6C37.83 33.11 38.29 33.67 38.68 34.27C38.73 34.34 38.78 34.4 38.84 34.46C38.9 34.52 38.96 34.57 39.03 34.62C39.1 34.66 39.17 34.7 39.25 34.73C39.32 34.76 39.4 34.79 39.48 34.8C39.56 34.82 39.64 34.83 39.73 34.83C39.81 34.83 39.89 34.82 39.97 34.81C40.05 34.79 40.13 34.77 40.21 34.74C40.29 34.71 40.36 34.67 40.43 34.62C40.5 34.58 40.56 34.53 40.62 34.47C40.68 34.41 40.73 34.35 40.78 34.28C40.83 34.21 40.86 34.14 40.9 34.06C40.93 33.99 40.96 33.91 40.97 33.83C40.99 33.75 41 33.67 41 33.58C41 33.5 41 33.42 40.98 33.34C40.97 33.26 40.95 33.18 40.92 33.1C40.89 33.02 40.85 32.95 40.81 32.88C40.32 32.13 39.76 31.44 39.12 30.81Z" fill="#666666" fill-opacity="1.000000" fill-rule="nonzero"/>
	<path d="M38.18 29.96C37.86 29.69 37.52 29.43 37.17 29.2C36.81 28.96 36.45 28.75 36.08 28.55C35.71 28.35 35.32 28.17 34.93 28.01C34.54 27.84 34.14 27.7 33.74 27.58C33.33 27.46 32.92 27.35 32.51 27.27C32.09 27.19 31.68 27.13 31.26 27.09C30.83 27.05 30.41 27.02 29.99 27.03C26.52 27.03 23.26 28.4 20.86 30.81C20.22 31.44 19.66 32.13 19.17 32.88C19.13 32.95 19.09 33.02 19.05 33.1C19.02 33.18 19 33.26 18.98 33.34C18.96 33.42 18.95 33.51 18.95 33.59C18.95 33.68 18.96 33.76 18.98 33.84C19 33.92 19.02 34 19.05 34.08C19.09 34.16 19.13 34.23 19.17 34.3C19.22 34.37 19.27 34.44 19.33 34.5C19.39 34.55 19.46 34.61 19.53 34.65C19.6 34.7 19.67 34.74 19.75 34.77C19.83 34.8 19.91 34.82 19.99 34.84C20.08 34.85 20.16 34.86 20.24 34.86C20.33 34.86 20.41 34.85 20.49 34.83C20.58 34.81 20.66 34.79 20.73 34.75C20.81 34.72 20.88 34.68 20.95 34.63C21.02 34.58 21.08 34.53 21.14 34.47C21.2 34.41 21.25 34.34 21.3 34.27C21.69 33.67 22.14 33.11 22.65 32.6C23.13 32.12 23.66 31.69 24.22 31.31C24.79 30.93 25.39 30.61 26.02 30.35C26.65 30.09 27.3 29.89 27.96 29.76C28.63 29.63 29.31 29.56 29.99 29.56C32.78 29.56 35.39 30.67 37.33 32.6C37.83 33.11 38.29 33.67 38.68 34.27C38.73 34.34 38.78 34.4 38.84 34.46C38.9 34.52 38.96 34.57 39.03 34.62C39.1 34.66 39.17 34.7 39.25 34.73C39.32 34.76 39.4 34.79 39.48 34.8C39.56 34.82 39.64 34.83 39.73 34.83C39.81 34.83 39.89 34.82 39.97 34.81C40.05 34.79 40.13 34.77 40.21 34.74C40.29 34.71 40.36 34.67 40.43 34.62C40.5 34.58 40.56 34.53 40.62 34.47C40.68 34.41 40.73 34.35 40.78 34.28C40.83 34.21 40.86 34.14 40.9 34.06C40.93 33.99 40.96 33.91 40.97 33.83C40.99 33.75 41 33.67 41 33.58C41 33.5 41 33.42 40.98 33.34C40.97 33.26 40.95 33.18 40.92 33.1C40.89 33.02 40.85 32.95 40.81 32.88C40.32 32.13 39.76 31.44 39.12 30.81C38.82 30.51 38.51 30.22 38.18 29.96Z" stroke="#666666" stroke-opacity="1.000000" stroke-width="1.000000"/>
	<path d="M48.79 26.17C47.94 24.87 46.96 23.67 45.86 22.57C41.68 18.39 36.02 16 29.99 16C23.96 16 18.3 18.39 14.12 22.57C13.02 23.67 12.04 24.87 11.19 26.17C11.15 26.24 11.11 26.32 11.08 26.39C11.05 26.47 11.03 26.55 11.01 26.63C11 26.71 10.99 26.79 11 26.88C11 26.96 11.01 27.04 11.02 27.12C11.04 27.2 11.07 27.28 11.1 27.36C11.13 27.43 11.17 27.5 11.22 27.57C11.27 27.64 11.32 27.7 11.38 27.76C11.44 27.82 11.5 27.87 11.57 27.91C11.64 27.96 11.71 28 11.79 28.03C11.86 28.06 11.94 28.08 12.02 28.1C12.11 28.11 12.19 28.12 12.27 28.12C12.35 28.12 12.43 28.11 12.52 28.1C12.6 28.08 12.67 28.05 12.75 28.02C12.83 27.99 12.9 27.95 12.97 27.91C13.04 27.86 13.1 27.81 13.16 27.75C13.22 27.69 13.27 27.63 13.32 27.56C14.07 26.41 14.94 25.34 15.91 24.36C19.62 20.66 24.64 18.53 29.99 18.53C35.34 18.53 40.35 20.66 44.07 24.37C45.04 25.34 45.91 26.41 46.66 27.56C46.71 27.63 46.76 27.7 46.82 27.76C46.88 27.82 46.94 27.87 47.01 27.92C47.08 27.96 47.15 28 47.23 28.04C47.3 28.07 47.38 28.09 47.47 28.11C47.55 28.13 47.63 28.14 47.71 28.14C47.8 28.14 47.88 28.13 47.96 28.12C48.04 28.1 48.12 28.08 48.2 28.05C48.28 28.01 48.35 27.98 48.42 27.93C48.49 27.89 48.55 27.83 48.61 27.77C48.67 27.72 48.73 27.65 48.77 27.58C48.82 27.51 48.86 27.44 48.89 27.37C48.93 27.29 48.95 27.21 48.97 27.13C48.99 27.05 48.99 26.96 48.99 26.88C49 26.8 48.99 26.71 48.97 26.63C48.96 26.55 48.93 26.47 48.9 26.39C48.87 26.32 48.83 26.24 48.79 26.17Z" fill="#666666" fill-opacity="1.000000" fill-rule="nonzero"/>
	<path d="M45.86 22.57C41.68 18.39 36.02 16 29.99 16C23.96 16 18.3 18.39 14.12 22.57C13.02 23.67 12.04 24.87 11.19 26.17C11.15 26.24 11.11 26.32 11.08 26.39C11.05 26.47 11.03 26.55 11.01 26.63C11 26.71 10.99 26.79 11 26.88C11 26.96 11.01 27.04 11.02 27.12C11.04 27.2 11.07 27.28 11.1 27.36C11.13 27.43 11.17 27.5 11.22 27.57C11.27 27.64 11.32 27.7 11.38 27.76C11.44 27.82 11.5 27.87 11.57 27.91C11.64 27.96 11.71 28 11.79 28.03C11.86 28.06 11.94 28.08 12.02 28.1C12.11 28.11 12.19 28.12 12.27 28.12C12.35 28.12 12.43 28.11 12.52 28.1C12.6 28.08 12.67 28.05 12.75 28.02C12.83 27.99 12.9 27.95 12.97 27.91C13.04 27.86 13.1 27.81 13.16 27.75C13.22 27.69 13.27 27.63 13.32 27.56C14.07 26.41 14.94 25.34 15.91 24.36C19.62 20.66 24.64 18.53 29.99 18.53C35.34 18.53 40.35 20.66 44.07 24.37C45.04 25.34 45.91 26.41 46.66 27.56C46.71 27.63 46.76 27.7 46.82 27.76C46.88 27.82 46.94 27.87 47.01 27.92C47.08 27.96 47.15 28 47.23 28.04C47.3 28.07 47.38 28.09 47.47 28.11C47.55 28.13 47.63 28.14 47.71 28.14C47.8 28.14 47.88 28.13 47.96 28.12C48.04 28.1 48.12 28.08 48.2 28.05C48.28 28.01 48.35 27.98 48.42 27.93C48.49 27.89 48.55 27.83 48.61 27.77C48.67 27.72 48.73 27.65 48.77 27.58C48.82 27.51 48.86 27.44 48.89 27.37C48.93 27.29 48.95 27.21 48.97 27.13C48.99 27.05 48.99 26.96 48.99 26.88C49 26.8 48.99 26.71 48.97 26.63C48.96 26.55 48.93 26.47 48.9 26.39C48.87 26.32 48.83 26.24 48.79 26.17C47.94 24.87 46.96 23.67 45.86 22.57Z" stroke="#666666" stroke-opacity="1.000000" stroke-width="1.000000"/>
</svg>
