<svg width="60.000000" height="60.000000" viewBox="0 0 60 60" fill="none" xmlns="http://www.w3.org/2000/svg">
	<desc>
			Created with Pixso.
	</desc>
	<defs/>
	<rect width="60.000000" height="60.000000" fill="#FFFFFF" fill-opacity="1.000000"/>
	<rect x="0.500000" y="0.500000" width="59.000000" height="59.000000" stroke="#666666" stroke-opacity="0" stroke-width="1.000000"/>
	<path d="M46.61 12.01C49.03 12.01 51 13.97 51 16.39L51 45.6C51 48.02 49.03 49.98 46.61 49.98L17.38 49.98C14.96 49.98 13 48.02 13 45.6L13 39.77C13 37.49 14.73 35.61 16.95 35.4L17.37 35.38L22.74 35.38C22.83 35.38 22.93 35.37 23.02 35.35C23.11 35.33 23.2 35.3 23.29 35.27C23.38 35.23 23.47 35.19 23.55 35.13C23.62 35.08 23.7 35.02 23.77 34.95C23.83 34.88 23.89 34.81 23.95 34.73C24 34.65 24.05 34.57 24.08 34.48C24.12 34.39 24.15 34.3 24.17 34.21C24.19 34.11 24.2 34.02 24.2 33.92L24.2 28.07C24.2 25.65 26.16 23.68 28.58 23.68L33.94 23.68C34.04 23.68 34.13 23.68 34.22 23.66C34.32 23.64 34.41 23.61 34.5 23.57C34.59 23.54 34.67 23.49 34.75 23.44C34.83 23.39 34.9 23.33 34.97 23.26C35.04 23.19 35.1 23.12 35.15 23.04C35.21 22.96 35.25 22.87 35.29 22.78C35.33 22.7 35.35 22.6 35.37 22.51C35.39 22.42 35.4 22.32 35.4 22.22L35.4 16.39C35.4 13.97 37.37 12.01 39.79 12.01L46.61 12.01ZM46.61 15.18L39.79 15.18C39.71 15.18 39.63 15.18 39.55 15.2C39.48 15.21 39.4 15.24 39.33 15.27C39.25 15.3 39.18 15.34 39.12 15.38C39.05 15.42 38.99 15.48 38.93 15.53C38.87 15.59 38.82 15.65 38.78 15.72C38.73 15.78 38.7 15.85 38.67 15.93C38.64 16 38.61 16.08 38.6 16.15C38.58 16.23 38.57 16.31 38.57 16.39L38.57 22.23C38.57 24.78 36.5 26.85 33.94 26.85L28.58 26.85C28.5 26.85 28.43 26.86 28.35 26.88C28.27 26.89 28.19 26.92 28.12 26.95C28.04 26.98 27.97 27.02 27.91 27.06C27.84 27.1 27.78 27.15 27.72 27.21C27.67 27.27 27.62 27.33 27.57 27.4C27.53 27.46 27.49 27.53 27.46 27.61C27.43 27.68 27.4 27.76 27.39 27.84C27.37 27.91 27.37 27.99 27.37 28.07L27.37 33.92C27.37 36.47 25.29 38.55 22.74 38.55L17.35 38.55L17.13 38.57C17.02 38.6 16.91 38.64 16.8 38.69C16.7 38.75 16.6 38.82 16.52 38.9C16.43 38.99 16.36 39.08 16.31 39.19C16.25 39.29 16.21 39.4 16.19 39.52L16.16 39.77L16.16 45.6C16.16 46.27 16.71 46.82 17.38 46.82L46.61 46.82C46.69 46.82 46.77 46.81 46.85 46.79C46.93 46.78 47 46.75 47.08 46.72C47.15 46.69 47.22 46.66 47.29 46.61C47.35 46.57 47.41 46.52 47.47 46.46C47.53 46.4 47.58 46.34 47.62 46.28C47.67 46.21 47.7 46.14 47.73 46.07C47.77 45.99 47.79 45.92 47.8 45.84C47.82 45.76 47.83 45.68 47.83 45.6L47.83 16.39C47.83 16.31 47.82 16.23 47.8 16.15C47.79 16.08 47.77 16 47.73 15.93C47.7 15.85 47.67 15.78 47.62 15.72C47.58 15.65 47.53 15.59 47.47 15.53C47.41 15.48 47.35 15.42 47.29 15.38C47.22 15.34 47.15 15.3 47.08 15.27C47 15.24 46.93 15.21 46.85 15.2C46.77 15.18 46.69 15.18 46.61 15.18ZM24.08 12C24.18 12 24.29 12.01 24.39 12.03C24.49 12.05 24.59 12.08 24.68 12.12C24.78 12.16 24.87 12.21 24.96 12.26C25.04 12.32 25.12 12.39 25.2 12.46C25.27 12.53 25.34 12.61 25.39 12.7C25.45 12.79 25.5 12.88 25.54 12.97C25.58 13.07 25.61 13.17 25.63 13.27C25.65 13.37 25.66 13.48 25.66 13.58C25.66 13.68 25.65 13.79 25.63 13.89C25.61 13.99 25.58 14.09 25.54 14.19C25.5 14.28 25.45 14.37 25.39 14.46C25.34 14.55 25.27 14.63 25.2 14.7C25.12 14.77 25.04 14.84 24.96 14.9C24.87 14.95 24.78 15 24.68 15.04C24.59 15.08 24.49 15.11 24.39 15.13C24.29 15.15 24.18 15.16 24.08 15.16L16.16 15.16L16.16 18.33L20.91 18.33C21.02 18.33 21.12 18.34 21.22 18.36C21.32 18.38 21.42 18.41 21.52 18.45C21.61 18.49 21.7 18.54 21.79 18.6C21.88 18.65 21.96 18.72 22.03 18.79C22.1 18.87 22.17 18.95 22.23 19.03C22.29 19.12 22.33 19.21 22.37 19.31C22.41 19.4 22.44 19.5 22.46 19.6C22.48 19.71 22.5 19.81 22.5 19.91C22.5 20.02 22.48 20.12 22.46 20.22C22.44 20.32 22.41 20.42 22.37 20.52C22.33 20.62 22.29 20.71 22.23 20.79C22.17 20.88 22.1 20.96 22.03 21.03C21.96 21.11 21.88 21.17 21.79 21.23C21.7 21.29 21.61 21.34 21.52 21.38C21.42 21.42 21.32 21.45 21.22 21.47C21.12 21.49 21.02 21.5 20.91 21.5L16.16 21.5L16.16 26.25C16.16 26.35 16.15 26.45 16.13 26.56C16.11 26.66 16.08 26.76 16.04 26.85C16 26.95 15.95 27.04 15.89 27.13C15.84 27.21 15.77 27.29 15.7 27.37C15.62 27.44 15.54 27.51 15.46 27.56C15.37 27.62 15.28 27.67 15.18 27.71C15.09 27.75 14.99 27.78 14.89 27.8C14.79 27.82 14.68 27.83 14.58 27.83C14.47 27.83 14.37 27.82 14.27 27.8C14.17 27.78 14.07 27.75 13.97 27.71C13.88 27.67 13.79 27.62 13.7 27.56C13.61 27.51 13.53 27.44 13.46 27.37C13.39 27.29 13.32 27.21 13.26 27.13C13.2 27.04 13.16 26.95 13.12 26.85C13.08 26.76 13.05 26.66 13.03 26.56C13.01 26.45 13 26.35 13 26.25L13 13.58C13 13.48 13.01 13.37 13.03 13.27C13.05 13.17 13.08 13.07 13.12 12.97C13.16 12.88 13.2 12.79 13.26 12.7C13.32 12.61 13.39 12.53 13.46 12.46C13.53 12.39 13.61 12.32 13.7 12.26C13.79 12.21 13.88 12.16 13.97 12.12C14.07 12.08 14.17 12.05 14.27 12.03C14.37 12.01 14.47 12 14.58 12L24.08 12Z" fill="#666666" fill-opacity="1.000000" fill-rule="nonzero"/>
</svg>
