<svg width="60.000000" height="60.000000" viewBox="0 0 60 60" fill="none" xmlns="http://www.w3.org/2000/svg">
	<desc>
			Created with Pixso.
	</desc>
	<defs/>
	<rect width="60.000000" height="60.000000" fill="#FFFFFF" fill-opacity="1.000000"/>
	<rect x="0.500000" y="0.500000" width="59.000000" height="59.000000" stroke="#666666" stroke-opacity="0" stroke-width="1.000000"/>
	<path d="M43.51 45.22L39.88 45.22L39.88 32.1C39.88 29.62 39.53 27.84 38.84 26.77C38.15 25.71 37.01 25.17 35.43 25.17C34.09 25.17 32.95 25.87 32 27.26C31.05 28.65 30.57 30.3 30.57 32.2L30.57 45.22L26.94 45.22L26.94 31.68C26.94 27.34 25.43 25.17 22.43 25.17C21.05 25.17 19.9 25.83 18.99 27.16C18.08 28.48 17.63 30.17 17.63 32.22L17.63 45.22L14 45.22L14 22.36L17.63 22.36L17.63 25.98L17.7 25.98C19.16 23.21 21.29 21.83 24.1 21.83C25.47 21.83 26.68 22.25 27.73 23.09C28.78 23.93 29.51 25.06 29.92 26.5C31.44 23.38 33.72 21.83 36.74 21.83C41.26 21.83 43.51 24.92 43.51 31.12L43.51 45.22ZM51.53 24.56L48.63 24.56L49.88 23.34C50.69 22.54 51.23 21.89 51.53 21.35C51.84 20.8 52 20.22 52 19.64C52 18.84 51.73 18.19 51.22 17.71C50.71 17.24 50.02 17 49.17 17C48.21 17 47.36 17.28 46.63 17.84C46.53 17.92 46.48 18.02 46.48 18.15L46.48 19.22C46.48 19.3 46.5 19.37 46.55 19.43C46.59 19.5 46.65 19.55 46.72 19.58C46.77 19.6 46.82 19.61 46.87 19.61C46.97 19.61 47.06 19.57 47.14 19.5C47.74 18.93 48.36 18.66 49 18.66C49.4 18.66 49.7 18.75 49.89 18.93C50.08 19.11 50.17 19.38 50.17 19.74C50.17 20.09 50.08 20.43 49.88 20.76C49.67 21.12 49.24 21.63 48.6 22.27L46.17 24.69C46.09 24.77 46.06 24.86 46.06 24.97L46.06 25.89C46.06 26.1 46.23 26.28 46.45 26.28L51.53 26.28C51.75 26.28 51.92 26.1 51.92 25.89L51.92 24.95C51.92 24.73 51.75 24.56 51.53 24.56Z" fill="#666666" fill-opacity="1.000000" fill-rule="nonzero"/>
</svg>
