<?xml version="1.0" standalone="no"?>
<svg xmlns="http://www.w3.org/2000/svg" width="24" height="24"><rect width="24" height="24" opacity="0"></rect><g><path d="M1.78 11.35Q1.78 13.22 2.68 14.98Q3.58 16.73 5.16 18.02Q5.45 18.24 5.3 18.8Q5.16 19.37 4.8 20.3L4.66 20.64Q4.58 20.83 4.6 21.05Q4.61 21.26 4.75 21.41Q4.92 21.62 5.06 21.66Q5.21 21.7 5.47 21.65Q6.48 21.43 7.16 21.17Q7.85 20.9 8.59 20.52L8.66 20.47Q8.88 20.35 9.12 20.24Q9.36 20.14 9.53 20.11Q10.7 20.35 12 20.35Q14.76 20.35 17.11 19.14Q19.46 17.93 20.86 15.86Q22.25 13.8 22.25 11.35Q22.25 8.9 20.86 6.83Q19.46 4.75 17.11 3.54Q14.76 2.33 12 2.33Q9.24 2.33 6.89 3.54Q4.54 4.75 3.16 6.83Q1.78 8.9 1.78 11.35ZM3.34 11.35Q3.34 9.31 4.5 7.58Q5.66 5.86 7.66 4.84Q9.65 3.82 12 3.82Q14.35 3.82 16.33 4.84Q18.31 5.86 19.48 7.58Q20.64 9.31 20.64 11.35Q20.64 13.39 19.48 15.12Q18.31 16.85 16.33 17.86Q14.35 18.86 12 18.86Q10.92 18.86 9.86 18.65Q9.46 18.55 9.07 18.68Q8.69 18.82 8.09 19.13Q7.01 19.63 6.6 19.8L6.62 19.75Q6.89 18.84 6.82 18.08Q6.74 17.33 6.1 16.85Q4.78 15.79 4.06 14.35Q3.34 12.91 3.34 11.35Z" fill="rgba(0,0,0,0.9019607843137255)"></path><path d="M6.91 10.3Q6.38 10.3 6 10.67Q5.62 11.04 5.62 11.59Q5.62 12.12 6 12.5Q6.38 12.89 6.91 12.89Q7.46 12.89 7.85 12.5Q8.23 12.12 8.23 11.59Q8.23 11.06 7.85 10.68Q7.46 10.3 6.91 10.3ZM10.7 11.59Q10.7 12.12 11.09 12.5Q11.47 12.89 12 12.89Q12.55 12.89 12.92 12.5Q13.3 12.12 13.3 11.59Q13.3 11.04 12.92 10.67Q12.55 10.3 12 10.3Q11.47 10.3 11.09 10.67Q10.7 11.04 10.7 11.59ZM15.79 11.59Q15.79 12.12 16.18 12.5Q16.56 12.89 17.09 12.89Q17.64 12.89 18.01 12.5Q18.38 12.12 18.38 11.59Q18.38 11.04 18.01 10.67Q17.64 10.3 17.09 10.3Q16.56 10.3 16.18 10.67Q15.79 11.04 15.79 11.59Z" fill="rgba(0,0,0,0.9019607843137255)"></path></g></svg>