<svg width="24.000000" height="24.000000" viewBox="0 0 24 24" fill="none" xmlns="http://www.w3.org/2000/svg">
	<desc>
			Created with Pixso.
	</desc>
	<defs>
		<clipPath id="clip1_217">
			<rect width="24.000000" height="24.000000" fill="white" fill-opacity="0"/>
		</clipPath>
	</defs>
	<g clip-path="url(#clip1_217)">
		<path d="M20.42 18.06L16.54 14.17C16.48 14.11 16.41 14.06 16.35 14.02C16.28 13.97 16.21 13.93 16.13 13.9C16.05 13.87 15.98 13.85 15.9 13.83C15.82 13.81 15.73 13.81 15.65 13.81C15.57 13.81 15.49 13.81 15.41 13.83C15.33 13.85 15.25 13.87 15.17 13.9C15.1 13.93 15.03 13.97 14.96 14.02C14.89 14.06 14.83 14.11 14.77 14.17L13.88 15.06C13.38 15.56 11.77 15.06 10.35 13.64C8.93 12.22 8.43 10.61 8.93 10.11L9.82 9.22C9.88 9.16 9.93 9.1 9.97 9.03C10.02 8.96 10.06 8.89 10.09 8.82C10.12 8.74 10.14 8.66 10.16 8.58C10.18 8.5 10.18 8.42 10.18 8.34C10.18 8.26 10.18 8.17 10.16 8.09C10.14 8.01 10.12 7.94 10.09 7.86C10.06 7.78 10.02 7.71 9.97 7.64C9.93 7.58 9.88 7.51 9.82 7.45L5.93 3.57C5.87 3.51 5.81 3.46 5.74 3.41C5.67 3.36 5.6 3.33 5.52 3.29C5.45 3.26 5.37 3.24 5.29 3.22C5.21 3.21 5.13 3.2 5.05 3.2C4.96 3.2 4.88 3.21 4.8 3.22C4.72 3.24 4.64 3.26 4.57 3.29C4.49 3.33 4.42 3.36 4.35 3.41C4.28 3.46 4.22 3.51 4.16 3.57L3.28 4.45C2.62 5.1 2.23 5.96 2.09 7C1.97 7.97 2.09 9.05 2.43 10.22C3.12 12.57 4.68 15.04 6.81 17.18C8.95 19.31 11.42 20.87 13.77 21.56C14.63 21.82 15.45 21.94 16.21 21.94C16.47 21.94 16.73 21.93 16.99 21.9C18.03 21.76 18.89 21.37 19.54 20.71L20.42 19.83C20.48 19.77 20.53 19.71 20.58 19.64C20.63 19.57 20.66 19.5 20.7 19.42C20.73 19.35 20.75 19.27 20.77 19.19C20.78 19.11 20.79 19.03 20.79 18.94C20.79 18.86 20.78 18.78 20.77 18.7C20.75 18.62 20.73 18.54 20.7 18.47C20.66 18.39 20.63 18.32 20.58 18.25C20.53 18.18 20.48 18.12 20.42 18.06Z" fill="#007DFF" fill-opacity="1.000000" fill-rule="nonzero"/>
	</g>
</svg>
