<?xml version="1.0" standalone="no"?><!DOCTYPE svg PUBLIC "-//W3C//DTD SVG 1.1//EN" "http://www.w3.org/Graphics/SVG/1.1/DTD/svg11.dtd"><svg t="1735616786989" class="icon" viewBox="0 0 1024 1024" version="1.1" xmlns="http://www.w3.org/2000/svg" p-id="3430" xmlns:xlink="http://www.w3.org/1999/xlink" width="200" height="200"><path d="M512 0c-70.554 0-137.037 13.312-199.373 39.987-62.361 26.675-116.736 63.181-163.072 109.568-46.387 46.336-82.893 100.71-109.568 163.072C13.337 374.963 0 441.447 0 512c0 70.554 13.312 137.037 39.987 199.373 26.675 62.361 63.181 116.736 109.568 163.072 46.336 46.387 100.71 82.893 163.072 109.568C374.963 1010.663 441.447 1024 512 1024c70.554 0 137.037-13.312 199.373-39.987 62.361-26.675 116.736-63.181 163.072-109.568 46.387-46.336 82.893-100.71 109.568-163.072C1010.663 649.037 1024 582.553 1024 512c0-70.554-13.312-137.037-39.987-199.373-26.675-62.361-63.181-116.736-109.568-163.072-46.336-46.387-100.71-82.893-163.072-109.568C649.037 13.337 582.553 0 512 0z m0 802.458a56.96 56.96 0 0 1-41.856-17.23 56.96 56.96 0 0 1-17.229-41.855c0-16.384 5.76-30.336 17.229-41.83A56.96 56.96 0 0 1 512 684.287c16.41 0 30.362 5.734 41.856 17.229 11.469 11.494 17.229 25.42 17.229 41.83 0 16.41-5.76 30.362-17.229 41.856A56.96 56.96 0 0 1 512 802.432z m59.085-256c0 16.41-5.76 30.361-17.229 41.856A56.96 56.96 0 0 1 512 605.542a56.96 56.96 0 0 1-41.856-17.228 56.96 56.96 0 0 1-17.229-41.856V270.746c0-16.384 5.76-30.336 17.229-41.83A56.96 56.96 0 0 1 512 211.711c16.41 0 30.362 5.76 41.856 17.229 11.469 11.494 17.229 25.446 17.229 41.856v275.712z" fill="#F7BA2A" p-id="3431"></path></svg>