<svg width="21.500000" height="20.600098" viewBox="0 0 21.5 20.6001" fill="none" xmlns="http://www.w3.org/2000/svg" xmlns:xlink="http://www.w3.org/1999/xlink">
  <metadata>
    <agcit_code>agcit_huawei_comprehensive_news</agcit_code>
  </metadata>
	<desc>
			Created with Pixso.
	</desc>
	<defs/>
	<path id="path" d="M16.65 20.56C16.92 20.56 17.15 20.5 17.35 20.35C17.68 20.12 17.85 19.79 17.85 19.39C17.85 19.26 17.84 19.16 17.83 19.1L16.51 13.77C16.47 13.65 16.45 13.54 16.45 13.47C16.45 13.08 16.61 12.77 16.92 12.56L21.07 9.08C21.35 8.81 21.5 8.51 21.5 8.16C21.5 8.03 21.47 7.91 21.43 7.79C21.35 7.58 21.21 7.39 21.03 7.24C20.85 7.08 20.64 7 20.4 6.99L15 6.58C14.76 6.56 14.54 6.49 14.36 6.35C14.18 6.23 14.05 6.06 13.97 5.83L11.85 0.75C11.75 0.52 11.61 0.34 11.41 0.2C11.21 0.06 10.99 0 10.75 0C10.51 0 10.29 0.06 10.09 0.2C9.89 0.34 9.74 0.52 9.64 0.75L7.53 5.83C7.45 6.06 7.32 6.23 7.14 6.35C6.95 6.49 6.74 6.56 6.5 6.58L1.1 6.99C0.86 7 0.65 7.08 0.47 7.24C0.28 7.39 0.15 7.58 0.06 7.79C0.02 7.91 0 8.03 0 8.16C0 8.51 0.14 8.81 0.43 9.08L4.58 12.56C4.88 12.81 5.04 13.12 5.04 13.49C5.04 13.55 5.02 13.65 4.98 13.77L3.67 19.1C3.65 19.16 3.65 19.26 3.65 19.39C3.65 19.82 3.81 20.14 4.15 20.35C4.35 20.52 4.58 20.6 4.82 20.6C5.06 20.6 5.27 20.52 5.47 20.37L10.08 17.39C10.27 17.27 10.49 17.2 10.75 17.2C11 17.2 11.22 17.27 11.4 17.39L16.01 20.37C16.18 20.5 16.39 20.56 16.65 20.56ZM6.62 8.06C7.13 8.04 7.59 7.89 8.01 7.58C8.43 7.28 8.73 6.89 8.93 6.41L10.75 2.02L12.57 6.41C12.78 6.89 13.09 7.28 13.51 7.58C13.92 7.89 14.38 8.04 14.88 8.06L19.53 8.43L15.96 11.39C15.65 11.64 15.41 11.95 15.25 12.33C15.08 12.7 15 13.08 15 13.49C15 13.69 15.02 13.91 15.07 14.14L16.17 18.7L12.24 16.16C11.79 15.86 11.29 15.72 10.75 15.72C10.23 15.72 9.75 15.86 9.29 16.16L5.33 18.7L6.45 14.14C6.5 13.91 6.53 13.7 6.53 13.52C6.53 13.1 6.44 12.7 6.26 12.33C6.08 11.97 5.84 11.66 5.54 11.39L1.97 8.43L6.62 8.06Z" fill="#FFF" fill-opacity="0.898039" fill-rule="nonzero"/>
</svg>
