<svg width="48.000000" height="48.000000" viewBox="0 0 48 48" fill="none" xmlns="http://www.w3.org/2000/svg" xmlns:xlink="http://www.w3.org/1999/xlink">
	<desc>
			Created with Pixso.
	</desc>
	<defs>
		<linearGradient x1="23.999998" y1="47.999996" x2="23.999998" y2="0.000000" id="paint_linear_211_10123_0" gradientUnits="userSpaceOnUse">
			<stop stop-color="#FFFFFF" stop-opacity="0.200000"/>
			<stop offset="1.000000" stop-color="#FFFFFF" stop-opacity="0.600000"/>
		</linearGradient>
	</defs>
	<path id="path-2" d="M0 24.02C0 28.37 1.06 32.37 3.21 36.03C5.35 39.69 8.25 42.6 11.92 44.75C15.61 46.91 19.62 48 23.97 48C28.32 48 32.34 46.91 36.02 44.75C39.69 42.6 42.6 39.68 44.76 36.01C46.92 32.33 48 28.33 48 24.02C48 19.67 46.92 15.65 44.76 11.97C42.6 8.3 39.69 5.39 36.02 3.23C32.34 1.08 28.32 0 23.97 0C19.62 0 15.61 1.08 11.92 3.23C8.25 5.39 5.35 8.3 3.21 11.97C1.06 15.65 0 19.67 0 24.02Z" fill="#999999" fill-opacity="1.000000" fill-rule="nonzero"/>
	<path id="path-2" d="M3.21 36.03C5.35 39.69 8.25 42.6 11.92 44.75C15.61 46.91 19.62 48 23.97 48C28.32 48 32.34 46.91 36.02 44.75C39.69 42.6 42.6 39.68 44.76 36.01C46.92 32.33 48 28.33 48 24.02C48 19.67 46.92 15.65 44.76 11.97C42.6 8.3 39.69 5.39 36.02 3.23C32.34 1.08 28.32 0 23.97 0C19.62 0 15.61 1.08 11.92 3.23C8.25 5.39 5.35 8.3 3.21 11.97C1.06 15.65 0 19.67 0 24.02C0 28.37 1.06 32.37 3.21 36.03Z" stroke="#000000" stroke-opacity="0" stroke-width="1.000000"/>
	<path id="path-2" d="M0 24.02C0 28.37 1.06 32.37 3.21 36.03C5.35 39.69 8.25 42.6 11.92 44.75C15.61 46.91 19.62 48 23.97 48C28.32 48 32.34 46.91 36.02 44.75C39.69 42.6 42.6 39.68 44.76 36.01C46.92 32.33 48 28.33 48 24.02C48 19.67 46.92 15.65 44.76 11.97C42.6 8.3 39.69 5.39 36.02 3.23C32.34 1.08 28.32 0 23.97 0C19.62 0 15.61 1.08 11.92 3.23C8.25 5.39 5.35 8.3 3.21 11.97C1.06 15.65 0 19.67 0 24.02Z" fill="url(#paint_linear_211_10123_0)" fill-opacity="1.000000" fill-rule="nonzero"/>
	<path id="path-2" d="M3.21 36.03C5.35 39.69 8.25 42.6 11.92 44.75C15.61 46.91 19.62 48 23.97 48C28.32 48 32.34 46.91 36.02 44.75C39.69 42.6 42.6 39.68 44.76 36.01C46.92 32.33 48 28.33 48 24.02C48 19.67 46.92 15.65 44.76 11.97C42.6 8.3 39.69 5.39 36.02 3.23C32.34 1.08 28.32 0 23.97 0C19.62 0 15.61 1.08 11.92 3.23C8.25 5.39 5.35 8.3 3.21 11.97C1.06 15.65 0 19.67 0 24.02C0 28.37 1.06 32.37 3.21 36.03Z" stroke="#000000" stroke-opacity="0" stroke-width="1.000000"/>
	<path id="people" d="M16.39 16.75C16.38 14.69 17.12 12.9 18.62 11.4C19.42 10.6 20.31 10.02 21.27 9.65C22.11 9.33 23.01 9.18 23.97 9.19C26.04 9.2 27.82 9.96 29.32 11.46C30.13 12.28 30.73 13.18 31.11 14.16C31.42 14.99 31.58 15.87 31.6 16.81C31.61 18.87 30.87 20.66 29.37 22.16C28.57 22.96 27.68 23.55 26.72 23.91C25.88 24.23 24.98 24.39 24.02 24.38C23.08 24.37 22.21 24.21 21.39 23.9C20.4 23.52 19.49 22.92 18.67 22.1C17.86 21.28 17.26 20.38 16.88 19.4C16.57 18.58 16.41 17.69 16.39 16.75ZM13.08 40.84C13.95 41.41 14.87 41.91 15.82 42.34C16.29 42.55 16.77 42.74 17.25 42.92C19.37 43.67 21.61 44.04 23.99 44.04C26.84 44.04 29.53 43.49 32.06 42.38C32.74 42.07 33.4 41.74 34.04 41.36C35.77 40.35 37.34 39.07 38.75 37.52C38.57 36.98 38.36 36.46 38.11 35.95C37.53 34.79 36.76 33.72 35.79 32.74C35.3 32.25 34.78 31.8 34.23 31.38C33.23 30.63 32.13 30 30.93 29.51C29.22 28.79 27.5 28.41 25.77 28.36C25.64 28.35 25.5 28.35 25.37 28.35L22.62 28.35C22.49 28.35 22.36 28.35 22.22 28.36C20.49 28.41 18.77 28.79 17.06 29.51C15.92 29.98 14.87 30.57 13.91 31.27C13.3 31.71 12.72 32.21 12.18 32.74C11.15 33.76 10.34 34.88 9.75 36.1C9.53 36.56 9.34 37.03 9.18 37.52C10.36 38.81 11.66 39.92 13.08 40.84Z" fill="#FFFFFF" fill-opacity="0.894118" fill-rule="evenodd"/>
	<path id="people" d="M18.62 11.4C19.42 10.6 20.31 10.02 21.27 9.65C22.11 9.33 23.01 9.18 23.97 9.19C26.04 9.2 27.82 9.96 29.32 11.46C30.13 12.28 30.73 13.18 31.11 14.16C31.42 14.99 31.58 15.87 31.6 16.81C31.61 18.87 30.87 20.66 29.37 22.16C28.57 22.96 27.68 23.55 26.72 23.91C25.88 24.23 24.98 24.39 24.02 24.38C23.08 24.37 22.21 24.21 21.39 23.9C20.4 23.52 19.49 22.92 18.67 22.1C17.86 21.28 17.26 20.38 16.88 19.4C16.57 18.58 16.41 17.69 16.39 16.75C16.38 14.69 17.12 12.9 18.62 11.4ZM15.82 42.34C16.29 42.55 16.77 42.74 17.25 42.92C19.37 43.67 21.61 44.04 23.99 44.04C26.84 44.04 29.53 43.49 32.06 42.38C32.74 42.07 33.4 41.74 34.04 41.36C35.77 40.35 37.34 39.07 38.75 37.52C38.57 36.98 38.36 36.46 38.11 35.95C37.53 34.79 36.76 33.72 35.79 32.74C35.3 32.25 34.78 31.8 34.23 31.38C33.23 30.63 32.13 30 30.93 29.51C29.22 28.79 27.5 28.41 25.77 28.36C25.64 28.35 25.5 28.35 25.37 28.35L22.62 28.35C22.49 28.35 22.36 28.35 22.22 28.36C20.49 28.41 18.77 28.79 17.06 29.51C15.92 29.98 14.87 30.57 13.91 31.27C13.3 31.71 12.72 32.21 12.18 32.74C11.15 33.76 10.34 34.88 9.75 36.1C9.53 36.56 9.34 37.03 9.18 37.52C10.36 38.81 11.66 39.92 13.08 40.84C13.95 41.41 14.87 41.91 15.82 42.34Z" stroke="#000000" stroke-opacity="0" stroke-width="1.000000"/>
</svg>
