<svg width="16.000000" height="16.000000" viewBox="0 0 16 16" fill="none" xmlns="http://www.w3.org/2000/svg" xmlns:xlink="http://www.w3.org/1999/xlink">
	<desc>
			Created with Pixso.
	</desc>
	<defs>
		<clipPath id="clip217_9828">
			<rect width="16.000000" height="16.000000" fill="white" fill-opacity="0"/>
		</clipPath>
	</defs>
	<g clip-path="url(#clip217_9828)">
		<g opacity="0.000000">
			<rect width="16.000000" height="16.000000" fill="#000000" fill-opacity="1.000000"/>
		</g>
		<path d="M10.84 10.14C10.94 10.24 10.99 10.35 10.99 10.49C10.99 10.63 10.94 10.75 10.84 10.84C10.76 10.94 10.64 10.99 10.49 10.99C10.34 10.99 10.23 10.94 10.14 10.84L8 8.7L5.85 10.84C5.76 10.94 5.65 10.99 5.5 10.99C5.35 10.99 5.23 10.94 5.15 10.84C5.05 10.75 5 10.63 5 10.49C5 10.35 5.05 10.24 5.15 10.14L7.29 8L5.15 5.85C5.05 5.73 5 5.62 5 5.5C5 5.36 5.05 5.24 5.15 5.15C5.24 5.04 5.36 4.99 5.5 4.99C5.64 4.99 5.76 5.04 5.85 5.15L8 7.29L10.14 5.15C10.24 5.04 10.35 4.99 10.49 4.99C10.63 4.99 10.75 5.04 10.84 5.15C10.94 5.24 10.99 5.36 10.99 5.5C10.99 5.62 10.94 5.73 10.84 5.85L8.7 8L10.84 10.14ZM8 0.67C6.66 0.67 5.44 1 4.31 1.65C3.19 2.31 2.31 3.19 1.65 4.32C1 5.43 0.67 6.66 0.67 8C0.67 9.32 1 10.54 1.65 11.67C2.31 12.79 3.2 13.68 4.32 14.34C5.45 15 6.67 15.32 8 15.32C9.32 15.32 10.54 15 11.67 14.34C12.79 13.68 13.68 12.79 14.34 11.67C15 10.54 15.32 9.32 15.32 8C15.32 6.66 15 5.43 14.34 4.32C13.68 3.19 12.8 2.31 11.68 1.65C10.56 1 9.33 0.67 8 0.67Z" fill="#000000" fill-opacity="0.400000" fill-rule="nonzero"/>
	</g>
</svg>
