<svg width="24.000000" height="24.000000" viewBox="0 0 24 24" fill="none" xmlns="http://www.w3.org/2000/svg" xmlns:xlink="http://www.w3.org/1999/xlink">
	<desc>
			Created with Pixso.
	</desc>
	<defs>
		<clipPath id="clip5_3175">
			<rect width="24.000000" height="24.000000" fill="white" fill-opacity="0"/>
		</clipPath>
	</defs>
	<g clip-path="url(#clip5_3175)">
		<path d="M0.75 11.99C0.75 10.23 0.74 8.47 0.75 6.71C0.74 5.86 0.85 5.02 1.06 4.19C1.52 2.45 2.66 1.41 4.4 1.01C5.27 0.82 6.16 0.73 7.06 0.75C10.43 0.75 13.8 0.75 17.17 0.75C18.02 0.74 18.87 0.84 19.7 1.04C21.49 1.48 22.57 2.61 22.98 4.4C23.17 5.25 23.25 6.11 23.24 6.98C23.24 10.38 23.24 13.79 23.24 17.2C23.25 18.04 23.15 18.88 22.96 19.7C22.52 21.5 21.37 22.57 19.58 22.98C18.71 23.17 17.82 23.26 16.92 23.24C13.57 23.24 10.21 23.24 6.86 23.24C6 23.25 5.14 23.15 4.31 22.96C2.5 22.52 1.42 21.38 1.01 19.58C0.8 18.66 0.75 17.75 0.75 16.82C0.75 15.21 0.75 13.6 0.75 11.99Z" fill="#FFFFFF" fill-opacity="0" fill-rule="nonzero"/>
		<path d="M0.75 6.71C0.74 5.86 0.85 5.02 1.06 4.19C1.52 2.45 2.66 1.41 4.4 1.01C5.27 0.82 6.16 0.73 7.06 0.75C10.43 0.75 13.8 0.75 17.17 0.75C18.02 0.74 18.87 0.84 19.7 1.04C21.49 1.48 22.57 2.61 22.98 4.4C23.17 5.25 23.25 6.11 23.24 6.98C23.24 10.38 23.24 13.79 23.24 17.2C23.25 18.04 23.15 18.88 22.96 19.7C22.52 21.5 21.37 22.57 19.58 22.98C18.71 23.17 17.82 23.26 16.92 23.24C13.57 23.24 10.21 23.24 6.86 23.24C6 23.25 5.14 23.15 4.31 22.96C2.5 22.52 1.42 21.38 1.01 19.58C0.8 18.66 0.75 17.75 0.75 16.82C0.75 15.21 0.75 13.6 0.75 11.99C0.75 10.23 0.74 8.47 0.75 6.71Z" stroke="#FFFFFF" stroke-opacity="0" stroke-width="1.500000"/>
		<g opacity="0.200000">
			<path d="M0.75 11.99C0.75 10.23 0.74 8.47 0.75 6.71C0.74 5.86 0.85 5.02 1.06 4.19C1.52 2.45 2.66 1.41 4.4 1.01C5.27 0.82 6.16 0.73 7.06 0.75C10.43 0.75 13.8 0.75 17.17 0.75C18.02 0.74 18.87 0.84 19.7 1.04C21.49 1.48 22.57 2.61 22.98 4.4C23.17 5.25 23.25 6.11 23.24 6.98C23.24 10.38 23.24 13.79 23.24 17.2C23.25 18.04 23.15 18.88 22.96 19.7C22.52 21.5 21.37 22.57 19.58 22.98C18.71 23.17 17.82 23.26 16.92 23.24C13.57 23.24 10.21 23.24 6.86 23.24C6 23.25 5.14 23.15 4.31 22.96C2.5 22.52 1.42 21.38 1.01 19.58C0.8 18.66 0.75 17.75 0.75 16.82C0.75 15.21 0.75 13.6 0.75 11.99Z" fill="#000000" fill-opacity="0" fill-rule="nonzero"/>
			<path d="M0.75 6.71C0.74 5.86 0.85 5.02 1.06 4.19C1.52 2.45 2.66 1.41 4.4 1.01C5.27 0.82 6.16 0.73 7.06 0.75C10.43 0.75 13.8 0.75 17.17 0.75C18.02 0.74 18.87 0.84 19.7 1.04C21.49 1.48 22.57 2.61 22.98 4.4C23.17 5.25 23.25 6.11 23.24 6.98C23.24 10.38 23.24 13.79 23.24 17.2C23.25 18.04 23.15 18.88 22.96 19.7C22.52 21.5 21.37 22.57 19.58 22.98C18.71 23.17 17.82 23.26 16.92 23.24C13.57 23.24 10.21 23.24 6.86 23.24C6 23.25 5.14 23.15 4.31 22.96C2.5 22.52 1.42 21.38 1.01 19.58C0.8 18.66 0.75 17.75 0.75 16.82C0.75 15.21 0.75 13.6 0.75 11.99C0.75 10.23 0.74 8.47 0.75 6.71Z" stroke="#FFFFFF" stroke-opacity="0" stroke-width="1.500000"/>
		</g>
		<circle cx="12.000000" cy="12.000000" r="12.000000" fill="#FFFFFF" fill-opacity="0"/>
		<circle cx="12.000000" cy="12.000000" r="12.000000" stroke="#000000" stroke-opacity="0" stroke-width="1.500000"/>
		<path d="M24 0L24 14.56C22.83 12.29 20.48 10.75 17.75 10.75C13.88 10.75 10.75 13.88 10.75 17.75C10.75 20.48 12.29 22.83 14.56 24L0 24L0 0L24 0ZM24 20.95L24 24L20.95 24C22.26 23.32 23.33 22.26 24 20.95Z" fill="#FFFFFF" fill-opacity="0" fill-rule="nonzero"/>
		<path d="M24 14.56C22.83 12.29 20.48 10.75 17.75 10.75C13.88 10.75 10.75 13.88 10.75 17.75C10.75 20.48 12.29 22.83 14.56 24L0 24L0 0L24 0L24 14.56ZM24 24L20.95 24C22.26 23.32 23.33 22.26 24 20.95L24 24Z" stroke="#000000" stroke-opacity="0" stroke-width="1.500000"/>
		<mask id="mask5_3149" mask-type="alpha" maskUnits="userSpaceOnUse" x="0.000000" y="0.000000" width="24.000244" height="24.000244">
			<path d="M24 0L24 14.56C22.83 12.29 20.48 10.75 17.75 10.75C13.88 10.75 10.75 13.88 10.75 17.75C10.75 20.48 12.29 22.83 14.56 24L0 24L0 0L24 0ZM24 20.95L24 24L20.95 24C22.26 23.32 23.33 22.26 24 20.95Z" fill="#FFFFFF" fill-opacity="1.000000" fill-rule="nonzero"/>
		</mask>
		<g mask="url(#mask5_3149)">
			<path d="M21.5 12L21.5 18.5C21.5 18.59 21.5 18.66 21.5 18.75C21.5 21.23 17.24 23.25 12 23.25C6.75 23.25 2.5 21.23 2.5 18.75C2.5 18.66 2.49 18.58 2.5 18.5L2.5 12C2.5 14.48 6.75 16.5 12 16.5C17.17 16.5 21.39 14.53 21.49 12.09L21.5 12Z" fill="#FFFFFF" fill-opacity="0" fill-rule="evenodd"/>
			<path d="M21.5 18.5C21.5 18.59 21.5 18.66 21.5 18.75C21.5 21.23 17.24 23.25 12 23.25C6.75 23.25 2.5 21.23 2.5 18.75C2.5 18.66 2.49 18.58 2.5 18.5L2.5 12C2.5 14.48 6.75 16.5 12 16.5C17.17 16.5 21.39 14.53 21.49 12.09L21.5 12L21.5 18.5Z" stroke="#191919" stroke-opacity="1.000000" stroke-width="1.500000" stroke-linejoin="round"/>
		</g>
		<mask id="mask5_3154" mask-type="alpha" maskUnits="userSpaceOnUse" x="0.000000" y="0.000000" width="24.000244" height="24.000244">
			<path d="M24 0L24 14.56C22.83 12.29 20.48 10.75 17.75 10.75C13.88 10.75 10.75 13.88 10.75 17.75C10.75 20.48 12.29 22.83 14.56 24L0 24L0 0L24 0ZM24 20.95L24 24L20.95 24C22.26 23.32 23.33 22.26 24 20.95Z" fill="#FFFFFF" fill-opacity="1.000000" fill-rule="nonzero"/>
		</mask>
		<g mask="url(#mask5_3154)">
			<path d="M21.5 5.25L21.5 11.75C21.5 11.84 21.5 11.91 21.5 12C21.5 14.48 17.24 16.5 12 16.5C6.75 16.5 2.5 14.48 2.5 12C2.5 11.91 2.49 11.83 2.5 11.75L2.5 5.25C2.5 7.73 6.75 9.75 12 9.75C17.17 9.75 21.39 7.78 21.49 5.34L21.5 5.25Z" fill="#FFFFFF" fill-opacity="0" fill-rule="evenodd"/>
			<path d="M21.5 11.75C21.5 11.84 21.5 11.91 21.5 12C21.5 14.48 17.24 16.5 12 16.5C6.75 16.5 2.5 14.48 2.5 12C2.5 11.91 2.49 11.83 2.5 11.75L2.5 5.25C2.5 7.73 6.75 9.75 12 9.75C17.17 9.75 21.39 7.78 21.49 5.34L21.5 5.25L21.5 11.75Z" stroke="#191919" stroke-opacity="1.000000" stroke-width="1.500000" stroke-linejoin="round"/>
		</g>
		<path d="M24 0L24 14.56C22.83 12.29 20.48 10.75 17.75 10.75C13.88 10.75 10.75 13.88 10.75 17.75C10.75 20.48 12.29 22.83 14.56 24L0 24L0 0L24 0ZM24 20.95L24 24L20.95 24C22.26 23.32 23.33 22.26 24 20.95Z" fill="#FFFFFF" fill-opacity="0" fill-rule="nonzero"/>
		<path d="M24 14.56C22.83 12.29 20.48 10.75 17.75 10.75C13.88 10.75 10.75 13.88 10.75 17.75C10.75 20.48 12.29 22.83 14.56 24L0 24L0 0L24 0L24 14.56ZM24 24L20.95 24C22.26 23.32 23.33 22.26 24 20.95L24 24Z" stroke="#000000" stroke-opacity="0" stroke-width="1.500000"/>
		<mask id="mask5_3162" mask-type="alpha" maskUnits="userSpaceOnUse" x="0.000000" y="0.000000" width="24.000244" height="24.000244">
			<path d="M24 0L24 14.56C23.71 13.99 23.34 13.47 22.92 13.01C22.97 12.76 23 12.51 23 12.25C23 8.68 18.05 6.25 12 6.25C5.94 6.25 1 8.68 1 12.25C1 15.57 5.28 17.9 10.76 18.21C10.92 20.74 12.42 22.9 14.56 24L0 24L0 0L24 0ZM24 20.95L24 24L20.95 24C22.26 23.32 23.33 22.26 24 20.95ZM12 7.25C17.44 7.25 21.92 9.35 21.99 12.17C20.82 11.28 19.35 10.75 17.75 10.75C14.07 10.75 11.04 13.59 10.77 17.21C5.85 16.92 2 14.89 2 12.25C2 9.38 6.51 7.25 12 7.25Z" fill="#FFFFFF" fill-opacity="1.000000" fill-rule="nonzero"/>
		</mask>
		<g mask="url(#mask5_3162)">
			<path d="M21.5 12L21.5 18.5C21.5 18.59 21.5 18.66 21.5 18.75C21.5 21.23 17.24 23.25 12 23.25C6.75 23.25 2.5 21.23 2.5 18.75C2.5 18.66 2.49 18.58 2.5 18.5L2.5 12C2.5 14.48 6.75 16.5 12 16.5C17.17 16.5 21.39 14.53 21.49 12.09L21.5 12Z" fill="#FFFFFF" fill-opacity="0" fill-rule="evenodd"/>
			<path d="M21.5 18.5C21.5 18.59 21.5 18.66 21.5 18.75C21.5 21.23 17.24 23.25 12 23.25C6.75 23.25 2.5 21.23 2.5 18.75C2.5 18.66 2.49 18.58 2.5 18.5L2.5 12C2.5 14.48 6.75 16.5 12 16.5C17.17 16.5 21.39 14.53 21.49 12.09L21.5 12L21.5 18.5Z" stroke="#FFFFFF" stroke-opacity="0" stroke-width="1.500000" stroke-linejoin="round"/>
		</g>
		<mask id="mask5_3168" mask-type="alpha" maskUnits="userSpaceOnUse" x="0.000000" y="0.000000" width="24.000244" height="24.000244">
			<path d="M7.44 0C3.64 0.88 1 2.88 1 5.5C1 9.06 5.94 11.5 12 11.5C13.06 11.5 14.1 11.42 15.08 11.27C12.53 12.33 10.75 14.83 10.75 17.75C10.75 20.48 12.29 22.83 14.56 24L0 24L0 0L7.44 0ZM24 20.95L24 24L20.95 24C22.26 23.32 23.33 22.26 24 20.95ZM24 0L24 14.56C22.83 12.29 20.48 10.75 17.75 10.75C17.66 10.75 17.57 10.75 17.48 10.75C20.77 9.77 23 7.89 23 5.5C23 2.88 20.35 0.88 16.55 0L24 0ZM12 0.5C17.48 0.5 22 2.63 22 5.5C22 8.36 17.48 10.5 12 10.5C6.51 10.5 2 8.36 2 5.5C2 2.63 6.51 0.5 12 0.5Z" fill="#FFFFFF" fill-opacity="1.000000" fill-rule="nonzero"/>
		</mask>
		<g mask="url(#mask5_3168)">
			<path d="M21.5 5.5L21.5 12C21.5 12.09 21.5 12.16 21.5 12.25C21.5 14.73 17.24 16.75 12 16.75C6.75 16.75 2.5 14.73 2.5 12.25C2.5 12.16 2.49 12.08 2.5 12L2.5 5.5C2.5 7.98 6.75 10 12 10C17.17 10 21.39 8.03 21.49 5.59L21.5 5.5Z" fill="#FFFFFF" fill-opacity="0" fill-rule="evenodd"/>
			<path d="M21.5 12C21.5 12.09 21.5 12.16 21.5 12.25C21.5 14.73 17.24 16.75 12 16.75C6.75 16.75 2.5 14.73 2.5 12.25C2.5 12.16 2.49 12.08 2.5 12L2.5 5.5C2.5 7.98 6.75 10 12 10C17.17 10 21.39 8.03 21.49 5.59L21.5 5.5L21.5 12Z" stroke="#FFFFFF" stroke-opacity="0" stroke-width="1.500000" stroke-linejoin="round"/>
		</g>
		<ellipse cx="12.000000" cy="5.500000" rx="9.500000" ry="4.500000" fill="#FFFFFF" fill-opacity="0"/>
		<ellipse cx="12.000000" cy="5.500000" rx="9.500000" ry="4.500000" stroke="#191919" stroke-opacity="1.000000" stroke-width="1.500000"/>
		<circle cx="17.750000" cy="17.750000" r="5.500000" fill="#FFFFFF" fill-opacity="0"/>
		<circle cx="17.750000" cy="17.750000" r="5.500000" stroke="#191919" stroke-opacity="1.000000" stroke-width="1.500000" stroke-linejoin="round"/>
		<path d="M16 17.42L19.5 17.42M16 15L17.75 17.42L19.5 15M16 19.14L19.5 19.14M17.75 17.57L17.75 21" stroke="#E4480C" stroke-opacity="1.000000" stroke-width="1.500000" stroke-linejoin="round" stroke-linecap="round"/>
	</g>
</svg>
