<svg width="72.892899" height="59.080078" viewBox="0 0 72.8929 59.0801" fill="none" xmlns="http://www.w3.org/2000/svg" xmlns:xlink="http://www.w3.org/1999/xlink">
	<desc>
			Created with Pixso.
	</desc>
	<defs/>
	<g opacity="0.150000">
		<path d="M44.47 54.04C45.51 54.05 48.44 54.45 49.73 50.22C54.04 51.15 56.76 52.51 56.76 54.03C56.76 56.82 47.58 59.08 36.26 59.08C24.94 59.08 15.76 56.82 15.76 54.03L44.47 54.04Z" fill="#A1A7B3" fill-opacity="1.000000" fill-rule="evenodd"/>
		<path d="M49.73 50.22C54.04 51.15 56.76 52.51 56.76 54.03C56.76 56.82 47.58 59.08 36.26 59.08C24.94 59.08 15.76 56.82 15.76 54.03L44.47 54.04C45.51 54.05 48.44 54.45 49.73 50.22Z" stroke="#000000" stroke-opacity="0" stroke-width="1.000000"/>
	</g>
	<g opacity="0.600000">
		<path d="M56.01 0C59.34 0 61.68 2.86 61.68 6.06C61.68 6.13 61.68 6.19 61.68 6.26L61.68 12.24L50.34 12.24L50.34 6.26C50.34 6.19 50.34 6.13 50.34 6.06C50.34 2.86 52.68 0 56.01 0Z" fill="#A1A7B3" fill-opacity="1.000000" fill-rule="evenodd"/>
		<path d="M61.68 6.06C61.68 6.13 61.68 6.19 61.68 6.26L61.68 12.24L50.34 12.24L50.34 6.26C50.34 6.19 50.34 6.13 50.34 6.06C50.34 2.86 52.68 0 56.01 0C59.34 0 61.68 2.86 61.68 6.06Z" stroke="#000000" stroke-opacity="0" stroke-width="1.000000"/>
	</g>
	<g opacity="0.300000">
		<path d="M56.1 0.1C53.85 0.1 52.38 1.27 51.64 2.3C50.7 3.6 50.37 4.8 50.36 5.91C50.35 6.4 50.35 6.88 50.35 7.37L50.36 8.09L50.36 23.99C44.84 25.19 40.71 30.09 40.71 35.96C40.71 41.78 44.77 46.65 50.2 47.9C49.4 54.58 45.67 54.05 44.47 54.04L13.15 54.04L5.12 54.03C4.45 54.03 2.35 52.53 1.15 50.15C0.35 48.56 -0.03 46.21 0 43.09L13.15 43.09L13.15 6.69C13.15 3.34 14.75 1.16 17.95 0.16L18.16 0.1L56.1 0.1Z" fill="#A1A7B3" fill-opacity="1.000000" fill-rule="evenodd"/>
		<path d="M51.64 2.3C50.7 3.6 50.37 4.8 50.36 5.91C50.35 6.4 50.35 6.88 50.35 7.37L50.36 8.09L50.36 23.99C44.84 25.19 40.71 30.09 40.71 35.96C40.71 41.78 44.77 46.65 50.2 47.9C49.4 54.58 45.67 54.05 44.47 54.04L13.15 54.04L5.12 54.03C4.45 54.03 2.35 52.53 1.15 50.15C0.35 48.56 -0.03 46.21 0 43.09L13.15 43.09L13.15 6.69C13.15 3.34 14.75 1.16 17.95 0.16L18.16 0.1L56.1 0.1C53.85 0.1 52.38 1.27 51.64 2.3Z" stroke="#000000" stroke-opacity="0" stroke-width="1.000000"/>
	</g>
	<g opacity="0.400000">
		<path d="M0 43.09L38.08 43.09C37.83 46.89 38.31 49.59 39.54 51.18C40.76 52.77 42.57 53.72 44.97 54.03C18.84 54.03 5.56 54.03 5.12 54.03C4.45 54.03 2.35 52.53 1.15 50.15C0.35 48.56 -0.03 46.21 0 43.09Z" fill="#A1A7B3" fill-opacity="1.000000" fill-rule="evenodd"/>
		<path d="M38.08 43.09C37.83 46.89 38.31 49.59 39.54 51.18C40.76 52.77 42.57 53.72 44.97 54.03C18.84 54.03 5.56 54.03 5.12 54.03C4.45 54.03 2.35 52.53 1.15 50.15C0.35 48.56 -0.03 46.21 0 43.09L38.08 43.09Z" stroke="#000000" stroke-opacity="0" stroke-width="1.000000"/>
	</g>
	<g opacity="0.600000">
		<path d="M61.95 44.28L64.32 46.66C64.96 46.4 65.7 46.53 66.22 47.04L72.38 53.2C73.06 53.88 73.06 54.99 72.38 55.67L72.21 55.84C71.53 56.52 70.42 56.52 69.74 55.84L63.58 49.68C63.07 49.17 62.94 48.42 63.19 47.79L60.79 45.38C61.2 45.04 61.58 44.67 61.95 44.28Z" fill="#A1A7B3" fill-opacity="1.000000" fill-rule="evenodd"/>
		<path d="M64.32 46.66C64.96 46.4 65.7 46.53 66.22 47.04L72.38 53.2C73.06 53.88 73.06 54.99 72.38 55.67L72.21 55.84C71.53 56.52 70.42 56.52 69.74 55.84L63.58 49.68C63.07 49.17 62.94 48.42 63.19 47.79L60.79 45.38C61.2 45.04 61.58 44.67 61.95 44.28L64.32 46.66Z" stroke="#000000" stroke-opacity="0" stroke-width="1.000000"/>
	</g>
	<g opacity="0.500000">
		<path d="M52.96 23.72C59.72 23.72 65.2 29.2 65.2 35.96C65.2 42.73 59.72 48.21 52.96 48.21C46.19 48.21 40.71 42.73 40.71 35.96C40.71 29.2 46.19 23.72 52.96 23.72ZM52.96 26.44C47.7 26.44 43.43 30.7 43.43 35.96C43.43 41.22 47.7 45.49 52.96 45.49C58.22 45.49 62.48 41.22 62.48 35.96C62.48 30.7 58.22 26.44 52.96 26.44Z" fill="#A1A7B3" fill-opacity="1.000000" fill-rule="evenodd"/>
		<path d="M65.2 35.96C65.2 42.73 59.72 48.21 52.96 48.21C46.19 48.21 40.71 42.73 40.71 35.96C40.71 29.2 46.19 23.72 52.96 23.72C59.72 23.72 65.2 29.2 65.2 35.96ZM43.43 35.96C43.43 41.22 47.7 45.49 52.96 45.49C58.22 45.49 62.48 41.22 62.48 35.96C62.48 30.7 58.22 26.44 52.96 26.44C47.7 26.44 43.43 30.7 43.43 35.96Z" stroke="#000000" stroke-opacity="0" stroke-width="1.000000"/>
	</g>
	<g opacity="0.200000">
		<circle cx="52.961067" cy="35.967529" r="9.525001" fill="#A1A7B3" fill-opacity="1.000000"/>
		<circle cx="52.961067" cy="35.967529" r="9.525001" stroke="#000000" stroke-opacity="0" stroke-width="1.000000"/>
	</g>
	<g opacity="0.200000">
		<rect x="59.883133" y="33.980957" rx="0.453571" width="5.442857" height="0.907143" transform="rotate(105 59.883133 33.980957)" fill="#A1A7B3" fill-opacity="1.000000"/>
		<rect x="59.883133" y="33.980957" rx="0.453571" width="5.442857" height="0.907143" transform="rotate(105 59.883133 33.980957)" stroke="#000000" stroke-opacity="0" stroke-width="1.000000"/>
	</g>
	<g opacity="0.200000">
		<rect x="58.170242" y="32.120361" rx="0.453571" width="2.721428" height="0.907143" transform="rotate(105 58.170242 32.120361)" fill="#A1A7B3" fill-opacity="1.000000"/>
		<rect x="58.170242" y="32.120361" rx="0.453571" width="2.721428" height="0.907143" transform="rotate(105 58.170242 32.120361)" stroke="#000000" stroke-opacity="0" stroke-width="1.000000"/>
	</g>
	<g opacity="0.300000">
		<path d="M32.94 27.1L37.33 28.88C37.79 29.07 38.02 29.6 37.83 30.06C37.64 30.53 37.11 30.75 36.65 30.56L32.26 28.79C31.79 28.6 31.57 28.07 31.76 27.61C31.94 27.14 32.47 26.92 32.94 27.1ZM39.75 16.99C40.15 16.69 40.72 16.76 41.03 17.15L43.94 20.88C44.25 21.28 44.18 21.85 43.79 22.16C43.39 22.47 42.82 22.4 42.51 22L39.6 18.27C39.29 17.87 39.36 17.3 39.75 16.99ZM35.41 21.73C35.72 21.33 36.28 21.25 36.68 21.55L40.47 24.4C40.87 24.7 40.95 25.27 40.65 25.67C40.34 26.07 39.78 26.15 39.38 25.85L35.59 23C35.19 22.7 35.11 22.13 35.41 21.73Z" fill="#A1A7B3" fill-opacity="1.000000" fill-rule="evenodd"/>
		<path d="M37.33 28.88C37.79 29.07 38.02 29.6 37.83 30.06C37.64 30.53 37.11 30.75 36.65 30.56L32.26 28.79C31.79 28.6 31.57 28.07 31.76 27.61C31.94 27.14 32.47 26.92 32.94 27.1L37.33 28.88ZM41.03 17.15L43.94 20.88C44.25 21.28 44.18 21.85 43.79 22.16C43.39 22.47 42.82 22.4 42.51 22L39.6 18.27C39.29 17.87 39.36 17.3 39.75 16.99C40.15 16.69 40.72 16.76 41.03 17.15ZM36.68 21.55L40.47 24.4C40.87 24.7 40.95 25.27 40.65 25.67C40.34 26.07 39.78 26.15 39.38 25.85L35.59 23C35.19 22.7 35.11 22.13 35.41 21.73C35.72 21.33 36.28 21.25 36.68 21.55Z" stroke="#000000" stroke-opacity="0" stroke-width="1.000000"/>
	</g>
</svg>
