<svg width="16.000000" height="16.000000" viewBox="0 0 16 16" fill="none" xmlns="http://www.w3.org/2000/svg" xmlns:xlink="http://www.w3.org/1999/xlink">
	<desc>
			Created with Pixso.
	</desc>
	<defs>
		<clipPath id="clip35_2227">
			<rect width="16.000000" height="16.000000" fill="white" fill-opacity="0"/>
		</clipPath>
	</defs>
	<g clip-path="url(#clip35_2227)">
		<path d="M15.06 4.51C15.31 4.75 15.34 5.16 15.12 5.43C14.62 6.06 14.05 6.62 13.4 7.11L14.72 8.52C14.95 8.78 14.94 9.19 14.7 9.44C14.67 9.47 14.64 9.49 14.61 9.52C14.58 9.54 14.55 9.56 14.51 9.57C14.47 9.59 14.44 9.6 14.4 9.61C14.36 9.62 14.32 9.62 14.28 9.62C14.24 9.62 14.2 9.62 14.16 9.61C14.13 9.6 14.09 9.59 14.05 9.57C14.02 9.56 13.98 9.54 13.95 9.52C13.92 9.49 13.89 9.47 13.86 9.44L12.34 7.81C11.65 8.2 10.92 8.5 10.15 8.69L10.86 10.76C10.97 11.1 10.81 11.47 10.49 11.59C10.18 11.71 9.83 11.54 9.72 11.2L8.94 8.92C8.31 8.99 7.67 8.99 7.04 8.93L6.26 11.2C6.15 11.54 5.8 11.71 5.49 11.59C5.17 11.47 5.01 11.1 5.12 10.76L5.82 8.71C5.05 8.52 4.31 8.23 3.61 7.84L2.12 9.44C2.09 9.47 2.06 9.49 2.03 9.52C2 9.54 1.96 9.56 1.92 9.58C1.89 9.59 1.85 9.6 1.81 9.61C1.77 9.62 1.73 9.62 1.69 9.62C1.65 9.62 1.61 9.62 1.57 9.61C1.53 9.6 1.49 9.58 1.46 9.57C1.42 9.55 1.38 9.53 1.35 9.51C1.32 9.48 1.29 9.45 1.26 9.42C1.24 9.39 1.21 9.36 1.19 9.32C1.17 9.29 1.15 9.25 1.14 9.21C1.12 9.17 1.11 9.14 1.11 9.09C1.1 9.05 1.09 9.01 1.09 8.97C1.09 8.93 1.1 8.89 1.11 8.85C1.11 8.81 1.12 8.77 1.14 8.73C1.15 8.69 1.17 8.66 1.19 8.62C1.21 8.59 1.24 8.55 1.26 8.52L2.55 7.15C1.92 6.67 1.36 6.13 0.86 5.53C0.65 5.25 0.68 4.84 0.94 4.61C1.19 4.39 1.55 4.41 1.77 4.67C3.33 6.58 5.59 7.68 7.95 7.67C10.39 7.67 12.65 6.53 14.2 4.59C14.42 4.31 14.8 4.28 15.06 4.51Z" fill="#000000" fill-opacity="0.898039" fill-rule="nonzero"/>
	</g>
</svg>
