<svg width="12.000000" height="12.000000" viewBox="0 0 12 12" fill="none" xmlns="http://www.w3.org/2000/svg" xmlns:xlink="http://www.w3.org/1999/xlink">
	<desc>
			Created with Pixso.
	</desc>
	<defs>
		<clipPath id="clip3_1676">
			<rect width="12.000000" height="12.000000" fill="white" fill-opacity="0"/>
		</clipPath>
	</defs>
	<rect width="12.000000" height="12.000000" fill="#FFFFFF" fill-opacity="0"/>
	<g opacity="0.500000">
		<g clip-path="url(#clip3_1676)">
			<path d="M0.37 5.99C0.37 5.11 0.37 4.23 0.37 3.35C0.37 2.93 0.42 2.51 0.53 2.09C0.76 1.22 1.33 0.7 2.2 0.5C2.63 0.41 3.08 0.36 3.53 0.37C5.21 0.37 6.9 0.37 8.58 0.37C9.01 0.37 9.43 0.42 9.85 0.52C10.74 0.74 11.28 1.3 11.49 2.2C11.58 2.62 11.62 3.05 11.62 3.49C11.62 5.19 11.62 6.89 11.62 8.6C11.62 9.02 11.57 9.44 11.48 9.85C11.26 10.75 10.68 11.28 9.79 11.49C9.35 11.58 8.91 11.63 8.46 11.62C6.78 11.62 5.1 11.62 3.43 11.62C3 11.62 2.57 11.57 2.15 11.48C1.25 11.26 0.71 10.69 0.5 9.79C0.4 9.33 0.37 8.87 0.37 8.41C0.37 7.6 0.37 6.8 0.37 5.99Z" fill="#FFFFFF" fill-opacity="0" fill-rule="nonzero"/>
			<path d="M0.37 3.35C0.37 2.93 0.42 2.51 0.53 2.09C0.76 1.22 1.33 0.7 2.2 0.5C2.63 0.41 3.08 0.36 3.53 0.37C5.21 0.37 6.9 0.37 8.58 0.37C9.01 0.37 9.43 0.42 9.85 0.52C10.74 0.74 11.28 1.3 11.49 2.2C11.58 2.62 11.62 3.05 11.62 3.49C11.62 5.19 11.62 6.89 11.62 8.6C11.62 9.02 11.57 9.44 11.48 9.85C11.26 10.75 10.68 11.28 9.79 11.49C9.35 11.58 8.91 11.63 8.46 11.62C6.78 11.62 5.1 11.62 3.43 11.62C3 11.62 2.57 11.57 2.15 11.48C1.25 11.26 0.71 10.69 0.5 9.79C0.4 9.33 0.37 8.87 0.37 8.41C0.37 7.6 0.37 6.8 0.37 5.99C0.37 5.11 0.37 4.23 0.37 3.35Z" stroke="#FFFFFF" stroke-opacity="0" stroke-width="1.000000"/>
			<path d="M0.37 5.99C0.37 5.11 0.37 4.23 0.37 3.35C0.37 2.93 0.42 2.51 0.53 2.09C0.76 1.22 1.33 0.7 2.2 0.5C2.63 0.41 3.08 0.36 3.53 0.37C5.21 0.37 6.9 0.37 8.58 0.37C9.01 0.37 9.43 0.42 9.85 0.52C10.74 0.74 11.28 1.3 11.49 2.2C11.58 2.62 11.62 3.05 11.62 3.49C11.62 5.19 11.62 6.89 11.62 8.6C11.62 9.02 11.57 9.44 11.48 9.85C11.26 10.75 10.68 11.28 9.79 11.49C9.35 11.58 8.91 11.63 8.46 11.62C6.78 11.62 5.1 11.62 3.43 11.62C3 11.62 2.57 11.57 2.15 11.48C1.25 11.26 0.71 10.69 0.5 9.79C0.4 9.33 0.37 8.87 0.37 8.41C0.37 7.6 0.37 6.8 0.37 5.99Z" fill="#000000" fill-opacity="0" fill-rule="nonzero"/>
			<path d="M0.37 3.35C0.37 2.93 0.42 2.51 0.53 2.09C0.76 1.22 1.33 0.7 2.2 0.5C2.63 0.41 3.08 0.36 3.53 0.37C5.21 0.37 6.9 0.37 8.58 0.37C9.01 0.37 9.43 0.42 9.85 0.52C10.74 0.74 11.28 1.3 11.49 2.2C11.58 2.62 11.62 3.05 11.62 3.49C11.62 5.19 11.62 6.89 11.62 8.6C11.62 9.02 11.57 9.44 11.48 9.85C11.26 10.75 10.68 11.28 9.79 11.49C9.35 11.58 8.91 11.63 8.46 11.62C6.78 11.62 5.1 11.62 3.43 11.62C3 11.62 2.57 11.57 2.15 11.48C1.25 11.26 0.71 10.69 0.5 9.79C0.4 9.33 0.37 8.87 0.37 8.41C0.37 7.6 0.37 6.8 0.37 5.99C0.37 5.11 0.37 4.23 0.37 3.35Z" stroke="#FFFFFF" stroke-opacity="0" stroke-width="1.000000"/>
			<circle cx="6.000000" cy="6.000000" r="6.000000" fill="#FFFFFF" fill-opacity="0"/>
			<circle cx="6.000000" cy="6.000000" r="6.000000" stroke="#000000" stroke-opacity="0" stroke-width="1.000000"/>
			<path d="M3.84 11.2L3.84 11.23C3.64 11.42 3.33 11.42 3.14 11.22C2.94 11.02 2.95 10.71 3.15 10.51L3.17 10.51L3.84 11.2ZM3.17 1.48L3.15 1.48C2.95 1.28 2.94 0.97 3.14 0.77C3.33 0.57 3.64 0.57 3.84 0.76L3.84 0.79L3.17 1.48Z" fill="#000000" fill-opacity="0" fill-rule="nonzero"/>
			<path d="M3.5 10.87L8.5 6L3.5 1.12" stroke="#191919" stroke-opacity="1.000000" stroke-width="1.000000" stroke-linejoin="round" stroke-linecap="round"/>
			<path d="M3.32 1.3C3.22 1.2 3.22 1.04 3.32 0.95C3.41 0.85 3.57 0.84 3.67 0.94L8.67 5.82C8.77 5.91 8.77 6.08 8.67 6.17L3.67 11.05C3.57 11.15 3.41 11.14 3.32 11.04C3.22 10.95 3.22 10.79 3.32 10.69L8.14 6L3.32 1.3Z" fill="#FFFFFF" fill-opacity="0" fill-rule="nonzero"/>
			<path d="M3.32 0.95C3.41 0.85 3.57 0.84 3.67 0.94L8.67 5.82C8.77 5.91 8.77 6.08 8.67 6.17L3.67 11.05C3.57 11.15 3.41 11.14 3.32 11.04C3.22 10.95 3.22 10.79 3.32 10.69L8.14 6L3.32 1.3C3.22 1.2 3.22 1.04 3.32 0.95Z" stroke="#FFFFFF" stroke-opacity="0" stroke-width="1.000000"/>
		</g>
	</g>
</svg>
