<svg width="24.000000" height="24.000000" viewBox="0 0 24 24" fill="none" xmlns="http://www.w3.org/2000/svg" xmlns:xlink="http://www.w3.org/1999/xlink">
	<desc>
			Created with Pixso.
	</desc>
	<defs>
		<clipPath id="clip5_3092">
			<rect width="24.000000" height="24.000000" fill="white" fill-opacity="0"/>
		</clipPath>
	</defs>
	<g clip-path="url(#clip5_3092)">
		<g opacity="0.000000">
			<rect width="24.000000" height="24.000000" fill="#000000" fill-opacity="1.000000"/>
		</g>
		<path d="M18.64 22.1C19.4 22.1 20.04 21.83 20.57 21.3C21.11 20.76 21.37 20.12 21.37 19.37L21.37 15.86C21.37 15.11 21.11 14.46 20.57 13.92C20.04 13.37 19.4 13.1 18.64 13.1L15.13 13.1C14.37 13.1 13.72 13.37 13.18 13.92C12.64 14.46 12.37 15.11 12.37 15.86L12.37 19.37C12.37 20.12 12.64 20.76 13.18 21.3C13.72 21.83 14.37 22.1 15.13 22.1L18.64 22.1ZM18.64 14.62C18.98 14.62 19.27 14.74 19.51 14.98C19.77 15.22 19.89 15.51 19.89 15.86L19.89 19.37C19.89 19.7 19.77 19.99 19.51 20.24C19.27 20.49 18.98 20.62 18.64 20.62L15.13 20.62C14.79 20.62 14.49 20.49 14.25 20.24C14.01 19.99 13.89 19.7 13.89 19.37L13.89 15.86C13.89 15.51 14.01 15.22 14.25 14.98C14.49 14.74 14.79 14.62 15.13 14.62L18.64 14.62ZM8.13 22.1C8.88 22.1 9.53 21.83 10.07 21.3C10.62 20.76 10.89 20.12 10.89 19.37L10.89 15.86C10.89 15.11 10.62 14.46 10.07 13.92C9.53 13.37 8.88 13.1 8.13 13.1L4.62 13.1C3.87 13.1 3.23 13.37 2.69 13.92C2.16 14.46 1.89 15.11 1.89 15.86L1.89 19.37C1.89 20.12 2.16 20.76 2.69 21.3C3.23 21.83 3.87 22.1 4.62 22.1L8.13 22.1ZM8.13 14.62C8.47 14.62 8.76 14.74 9 14.98C9.25 15.22 9.37 15.51 9.37 15.86L9.37 19.37C9.37 19.7 9.25 19.99 9 20.24C8.76 20.49 8.47 20.62 8.13 20.62L4.62 20.62C4.29 20.62 4 20.49 3.75 20.24C3.5 19.99 3.37 19.7 3.37 19.37L3.37 15.86C3.37 15.51 3.5 15.22 3.75 14.98C4 14.74 4.29 14.62 4.62 14.62L8.13 14.62ZM8.13 11.62C8.88 11.62 9.53 11.35 10.07 10.81C10.62 10.27 10.89 9.62 10.89 8.86L10.89 5.35C10.89 4.59 10.62 3.95 10.07 3.42C9.53 2.88 8.88 2.62 8.13 2.62L4.62 2.62C3.87 2.62 3.23 2.88 2.69 3.42C2.16 3.95 1.89 4.59 1.89 5.35L1.89 8.86C1.89 9.62 2.16 10.27 2.69 10.81C3.23 11.35 3.87 11.62 4.62 11.62L8.13 11.62ZM8.13 4.1C8.47 4.1 8.76 4.22 9 4.48C9.25 4.72 9.37 5.01 9.37 5.35L9.37 8.86C9.37 9.2 9.25 9.5 9 9.74C8.76 9.98 8.47 10.1 8.13 10.1L4.62 10.1C4.29 10.1 4 9.98 3.75 9.74C3.5 9.5 3.37 9.2 3.37 8.86L3.37 5.35C3.37 5.01 3.5 4.72 3.75 4.48C4 4.22 4.29 4.1 4.62 4.1L8.13 4.1Z" fill="#191919" fill-opacity="1.000000" fill-rule="nonzero"/>
		<path d="M16.89 12.33C17.64 12.33 18.29 12.06 18.83 11.52L21.28 9.04C21.82 8.52 22.09 7.87 22.09 7.09C22.09 6.75 22.03 6.4 21.89 6.05C21.76 5.71 21.56 5.41 21.28 5.15L18.83 2.68C18.58 2.42 18.28 2.23 17.93 2.09C17.59 1.96 17.24 1.89 16.89 1.89C16.15 1.89 15.5 2.16 14.94 2.68L12.47 5.17C11.93 5.72 11.65 6.37 11.65 7.12C11.65 7.84 11.93 8.49 12.47 9.06L14.94 11.53C15.47 12.07 16.12 12.33 16.89 12.33ZM16.89 3.37C17.23 3.37 17.52 3.51 17.77 3.77L20.25 6.23C20.49 6.47 20.61 6.76 20.61 7.09C20.61 7.45 20.49 7.75 20.25 7.98L17.77 10.46C17.52 10.72 17.23 10.84 16.89 10.84C16.59 10.84 16.29 10.72 16 10.46L13.53 7.98C13.29 7.75 13.17 7.45 13.17 7.09C13.17 6.76 13.29 6.47 13.53 6.23L16 3.77C16.24 3.51 16.54 3.37 16.89 3.37Z" fill="#E4480C" fill-opacity="1.000000" fill-rule="nonzero"/>
	</g>
</svg>
