<svg width="16.000000" height="16.000000" viewBox="0 0 16 16" fill="none" xmlns="http://www.w3.org/2000/svg" xmlns:xlink="http://www.w3.org/1999/xlink">
	<desc>
			Created with Pixso.
	</desc>
	<defs>
		<clipPath id="clip5_3003">
			<rect width="16.000000" height="16.000000" fill="white" fill-opacity="0"/>
		</clipPath>
	</defs>
	<g clip-path="url(#clip5_3003)">
		<g opacity="0.000000">
			<rect width="16.000000" height="16.000000" fill="#000000" fill-opacity="1.000000"/>
		</g>
		<path d="M8.02 13.5C8.42 13.5 8.8 13.44 9.18 13.34C9.55 13.22 9.94 13.07 10.35 12.88C11.2 12.38 12.02 11.76 12.8 11.02C13.5 10.35 14.19 9.6 14.86 8.78C15 8.63 15.07 8.44 15.07 8.21C15.07 8 14.99 7.8 14.85 7.63C14.77 7.53 14.52 7.23 14.08 6.73C13.94 6.6 13.66 6.28 13.25 5.79C13.15 5.68 13.02 5.63 12.86 5.63C12.72 5.63 12.61 5.67 12.53 5.76C12.42 5.85 12.37 5.97 12.37 6.13C12.37 6.27 12.41 6.38 12.5 6.45L14.03 8.21C13.45 8.93 12.81 9.63 12.11 10.3C11.89 10.51 11.58 10.78 11.18 11.1C10.78 11.41 10.34 11.72 9.87 12C9.17 12.33 8.55 12.5 8.02 12.5C7.36 12.5 6.75 12.34 6.18 12.02C5.59 11.7 4.91 11.21 4.13 10.56C3.33 9.82 2.6 9.03 1.94 8.17C2.85 7.1 3.6 6.25 4.21 5.63C4.72 5.01 5.29 4.56 5.91 4.28C6.52 4 7.22 3.86 8.02 3.86C8.27 3.86 8.48 3.86 8.65 3.88C8.81 3.89 8.99 3.93 9.18 4C9.21 4.01 9.26 4.02 9.33 4.02C9.44 4.02 9.54 3.98 9.64 3.91C9.73 3.85 9.79 3.76 9.82 3.65C9.83 3.63 9.84 3.58 9.84 3.52C9.84 3.41 9.8 3.31 9.73 3.21C9.68 3.13 9.59 3.07 9.48 3.04C9.22 2.96 8.99 2.91 8.78 2.89C8.56 2.86 8.3 2.85 8.02 2.85C7.08 2.85 6.24 3.02 5.5 3.37C4.75 3.71 4.07 4.24 3.46 4.95C2.71 5.76 1.93 6.63 1.12 7.58C0.97 7.75 0.91 7.95 0.91 8.17C0.91 8.38 0.97 8.56 1.09 8.71C1.35 9.06 1.7 9.46 2.11 9.92C2.54 10.39 2.98 10.85 3.47 11.31C4.02 11.77 4.5 12.14 4.92 12.42C5.33 12.71 5.8 12.96 6.34 13.17C6.87 13.39 7.43 13.5 8.02 13.5ZM11.5 5.76C11.54 5.8 11.59 5.82 11.63 5.82C11.67 5.82 11.72 5.8 11.76 5.76C11.77 5.72 11.82 5.58 11.9 5.33C11.98 5.07 12.1 4.87 12.26 4.73C12.44 4.54 12.65 4.41 12.89 4.34C13.11 4.27 13.24 4.22 13.28 4.2C13.34 4.15 13.36 4.11 13.32 4.08C13.26 4.06 13.1 3.97 12.96 3.93C12.82 3.89 12.69 3.84 12.58 3.78C12.46 3.71 12.34 3.62 12.24 3.52C12.11 3.4 12 3.2 11.92 2.93C11.83 2.66 11.77 2.52 11.74 2.51C11.66 2.48 11.6 2.49 11.57 2.53C11.55 2.53 11.48 2.68 11.38 2.96C11.28 3.25 11.15 3.45 11.01 3.58C10.85 3.73 10.67 3.84 10.46 3.9C10.24 3.96 10.1 4.01 10.06 4.03C10 4.05 9.97 4.08 9.97 4.14C9.97 4.18 10.01 4.22 10.08 4.26C10.1 4.26 10.22 4.3 10.45 4.38C10.67 4.44 10.85 4.56 10.99 4.71C11.09 4.8 11.16 4.9 11.22 5C11.27 5.1 11.32 5.22 11.38 5.39L11.5 5.76ZM8 10.83C8.47 10.83 8.92 10.71 9.33 10.47C9.73 10.22 10.06 9.9 10.3 9.5C10.54 9.08 10.66 8.64 10.66 8.15C10.66 7.67 10.54 7.23 10.3 6.82C10.06 6.41 9.73 6.09 9.33 5.85C8.92 5.61 8.47 5.48 8 5.48C7.5 5.48 7.06 5.61 6.66 5.85C6.25 6.09 5.93 6.41 5.69 6.82C5.45 7.23 5.33 7.67 5.33 8.15C5.33 8.64 5.45 9.08 5.69 9.5C5.93 9.9 6.25 10.22 6.66 10.47C7.07 10.71 7.52 10.83 8 10.83ZM8 6.5C8.46 6.5 8.85 6.65 9.18 6.97C9.5 7.3 9.66 7.69 9.66 8.15C9.66 8.62 9.5 9.01 9.18 9.34C8.85 9.65 8.46 9.82 8 9.82C7.54 9.82 7.14 9.65 6.82 9.34C6.48 9.01 6.32 8.62 6.32 8.15C6.32 7.69 6.48 7.3 6.81 6.97C7.13 6.65 7.53 6.5 8 6.5Z" fill="#000000" fill-opacity="0.898039" fill-rule="nonzero"/>
	</g>
</svg>
