<svg width="24.000000" height="24.000000" viewBox="0 0 24 24" fill="none" xmlns="http://www.w3.org/2000/svg" xmlns:xlink="http://www.w3.org/1999/xlink">
	<desc>
			Created with Pixso.
	</desc>
	<defs>
		<clipPath id="clip5_3059">
			<rect width="24.000000" height="24.000000" fill="white" fill-opacity="0"/>
		</clipPath>
	</defs>
	<g clip-path="url(#clip5_3059)">
		<g opacity="0.000000">
			<rect width="24.000000" height="24.000000" fill="#000000" fill-opacity="1.000000"/>
		</g>
		<path d="M6.16 22.27C6.4 22.27 6.62 22.2 6.81 22.08L11.41 19.1C11.64 18.96 11.76 18.75 11.76 18.48C11.76 18.3 11.72 18.17 11.64 18.07C11.49 17.85 11.27 17.74 10.99 17.74C10.86 17.74 10.73 17.78 10.61 17.86L6.65 20.4L7.77 15.84C7.82 15.61 7.84 15.4 7.84 15.22C7.84 14.8 7.76 14.4 7.57 14.04C7.4 13.67 7.16 13.36 6.85 13.1L3.28 10.13L7.93 9.77C8.45 9.75 8.91 9.59 9.31 9.29C9.73 8.98 10.04 8.59 10.25 8.11L12.06 3.72L13.9 8.11C14.08 8.59 14.39 8.98 14.81 9.29C15.24 9.59 15.73 9.75 16.27 9.79L21.9 9.79C22.11 9.79 22.29 9.72 22.43 9.58C22.58 9.43 22.65 9.25 22.65 9.05C22.65 8.84 22.58 8.66 22.43 8.51C22.29 8.35 22.11 8.28 21.9 8.28L16.31 8.28C16.09 8.26 15.89 8.19 15.71 8.06C15.52 7.93 15.38 7.76 15.28 7.54L13.17 2.45C13.08 2.22 12.92 2.04 12.73 1.91C12.52 1.77 12.3 1.7 12.06 1.7C11.83 1.7 11.61 1.77 11.4 1.91C11.21 2.04 11.06 2.22 10.97 2.45L8.88 7.54C8.78 7.76 8.64 7.93 8.45 8.06C8.27 8.19 8.06 8.26 7.84 8.28L2.41 8.69C2.17 8.7 1.96 8.78 1.78 8.94C1.6 9.09 1.46 9.28 1.39 9.5C1.35 9.58 1.33 9.7 1.33 9.86C1.33 10.23 1.47 10.54 1.75 10.78L5.92 14.26C6.21 14.5 6.35 14.82 6.35 15.22C6.35 15.32 6.35 15.41 6.33 15.48L5.02 20.81C5 20.87 4.98 20.96 4.98 21.1C4.98 21.51 5.15 21.83 5.46 22.06C5.69 22.2 5.92 22.27 6.16 22.27ZM21.9 19.03C22.11 19.03 22.29 18.95 22.43 18.8C22.58 18.65 22.65 18.47 22.65 18.26C22.65 18.05 22.58 17.88 22.43 17.74C22.29 17.59 22.11 17.52 21.9 17.52L16.05 17.52C15.84 17.52 15.66 17.59 15.52 17.74C15.38 17.88 15.3 18.05 15.3 18.26C15.3 18.47 15.38 18.65 15.52 18.8C15.66 18.95 15.84 19.03 16.05 19.03L21.9 19.03Z" fill="#191919" fill-opacity="1.000000" fill-rule="nonzero"/>
		<path d="M21.9 14.4C22.11 14.4 22.29 14.32 22.43 14.18C22.58 14.04 22.65 13.86 22.65 13.66C22.65 13.44 22.58 13.26 22.43 13.12C22.29 12.96 22.11 12.89 21.9 12.89L16.05 12.89C15.84 12.89 15.66 12.96 15.52 13.12C15.38 13.26 15.3 13.44 15.3 13.66C15.3 13.86 15.38 14.04 15.52 14.18C15.66 14.32 15.84 14.4 16.05 14.4L21.9 14.4Z" fill="#E4480C" fill-opacity="1.000000" fill-rule="nonzero"/>
	</g>
</svg>
