<svg width="16.000000" height="16.000000" viewBox="0 0 16 16" fill="none" xmlns="http://www.w3.org/2000/svg" xmlns:xlink="http://www.w3.org/1999/xlink">
	<desc>
			Created with Pixso.
	</desc>
	<defs>
		<clipPath id="clip5_3187">
			<rect width="16.000000" height="16.000000" fill="white" fill-opacity="0"/>
		</clipPath>
	</defs>
	<g clip-path="url(#clip5_3187)">
		<g opacity="0.000000">
			<rect width="16.000000" height="16.000000" fill="#000000" fill-opacity="1.000000"/>
		</g>
		<path d="M8 14C9.08 14 10.08 13.73 11 13.18C11.92 12.65 12.65 11.92 13.18 11C13.72 10.08 14 9.08 14 8C14 6.91 13.72 5.91 13.18 4.99C12.65 4.07 11.92 3.34 11 2.81C10.08 2.27 9.08 2 8 2C6.91 2 5.91 2.27 4.99 2.81C4.07 3.34 3.34 4.07 2.81 4.99C2.27 5.91 2 6.91 2 8C2 9.08 2.27 10.07 2.81 10.99C3.34 11.91 4.07 12.64 4.99 13.18C5.91 13.73 6.91 14 8 14ZM8 2.81C8.93 2.81 9.79 3.04 10.59 3.51C11.38 3.98 12.01 4.61 12.48 5.4C12.95 6.2 13.18 7.06 13.18 8C13.18 8.93 12.95 9.79 12.48 10.59C12.01 11.38 11.38 12.01 10.59 12.48C9.79 12.95 8.93 13.18 8 13.18C7.06 13.18 6.2 12.95 5.4 12.48C4.61 12.01 3.98 11.38 3.51 10.59C3.04 9.79 2.81 8.93 2.81 8C2.81 7.06 3.04 6.2 3.51 5.4C3.98 4.61 4.61 3.98 5.4 3.51C6.2 3.04 7.06 2.81 8 2.81ZM8 9.61C8.11 9.61 8.21 9.57 8.29 9.48C8.37 9.41 8.41 9.31 8.41 9.2L8.41 8.87C8.41 8.76 8.45 8.66 8.51 8.57C8.58 8.48 8.67 8.4 8.8 8.35C9.14 8.19 9.41 7.95 9.61 7.63C9.81 7.32 9.91 6.97 9.91 6.6C9.91 6.45 9.9 6.33 9.88 6.25C9.82 5.87 9.64 5.53 9.35 5.24C9.06 4.96 8.72 4.78 8.34 4.7C8.2 4.69 8.09 4.68 8.01 4.68C7.52 4.68 7.1 4.83 6.75 5.13C6.53 5.31 6.36 5.53 6.24 5.78C6.13 6.05 6.07 6.32 6.07 6.6C6.07 6.71 6.11 6.81 6.19 6.89C6.28 6.97 6.37 7.01 6.49 7.01C6.6 7.01 6.7 6.97 6.78 6.89C6.86 6.81 6.9 6.71 6.9 6.6C6.9 6.44 6.93 6.28 7 6.14C7.07 5.99 7.17 5.86 7.29 5.75C7.48 5.59 7.72 5.51 8 5.51C8.08 5.51 8.15 5.51 8.19 5.52C8.42 5.57 8.61 5.67 8.77 5.83C8.94 5.99 9.03 6.18 9.07 6.4C9.08 6.44 9.08 6.51 9.08 6.6C9.08 6.82 9.03 7.02 8.92 7.19C8.81 7.37 8.66 7.5 8.45 7.6C8.18 7.72 7.97 7.89 7.81 8.11C7.66 8.34 7.59 8.59 7.59 8.87L7.59 9.2C7.59 9.31 7.63 9.41 7.71 9.48C7.78 9.57 7.88 9.61 8 9.61ZM7.45 10.7C7.45 10.86 7.5 10.99 7.61 11.1C7.72 11.2 7.85 11.25 8 11.25C8.14 11.25 8.27 11.2 8.38 11.1C8.49 10.99 8.54 10.86 8.54 10.7C8.54 10.56 8.49 10.43 8.38 10.33C8.27 10.22 8.14 10.17 8 10.17C7.85 10.17 7.72 10.22 7.61 10.33C7.5 10.43 7.45 10.56 7.45 10.7Z" fill="#000000" fill-opacity="0.400000" fill-rule="nonzero"/>
	</g>
</svg>
