<svg width="40.000000" height="40.000000" viewBox="0 0 40 40" fill="none" xmlns="http://www.w3.org/2000/svg" xmlns:xlink="http://www.w3.org/1999/xlink">
	<desc>
			Created with Pixso.
	</desc>
	<defs>
		<clipPath id="clip157_413">
			<rect width="40.000000" height="40.000000" fill="white" fill-opacity="0"/>
		</clipPath>
	</defs>
	<g clip-path="url(#clip157_413)">
		<path d="M24.12 17.92C24.12 18.18 24.13 18.44 24.16 18.7C24.18 18.96 24.22 19.21 24.27 19.47C24.32 19.72 24.39 19.97 24.46 20.22C24.54 20.47 24.62 20.72 24.72 20.96C24.82 21.2 24.93 21.43 25.06 21.66C25.18 21.89 25.31 22.11 25.46 22.33C25.6 22.54 25.76 22.75 25.92 22.95C26.08 23.15 26.26 23.34 26.44 23.53C26.63 23.71 26.82 23.88 27.02 24.05C27.22 24.21 27.43 24.37 27.64 24.51C27.86 24.66 28.08 24.79 28.31 24.91C28.54 25.04 28.77 25.15 29.01 25.25C29.25 25.34 29.5 25.43 29.75 25.51C29.99 25.58 30.25 25.65 30.5 25.7C30.76 25.75 31.01 25.79 31.27 25.81C31.53 25.84 31.79 25.85 32.05 25.85C32.31 25.85 32.57 25.84 32.82 25.81C33.08 25.79 33.34 25.75 33.59 25.7C33.85 25.65 34.1 25.58 34.35 25.51C34.6 25.43 34.84 25.34 35.08 25.25C35.32 25.15 35.56 25.04 35.78 24.91C36.01 24.79 36.24 24.66 36.45 24.51C36.67 24.37 36.88 24.21 37.08 24.05C37.28 23.88 37.47 23.71 37.65 23.53C37.84 23.34 38.01 23.15 38.18 22.95C38.34 22.75 38.49 22.54 38.64 22.33C38.78 22.11 38.92 21.89 39.04 21.66C39.16 21.43 39.27 21.2 39.37 20.96C39.47 20.72 39.56 20.47 39.63 20.22C39.71 19.97 39.77 19.72 39.82 19.47C39.87 19.21 39.91 18.96 39.94 18.7C39.96 18.44 39.97 18.18 39.97 17.92C39.97 17.66 39.96 17.4 39.94 17.15C39.91 16.89 39.87 16.63 39.82 16.38C39.77 16.12 39.71 15.87 39.63 15.62C39.56 15.37 39.47 15.13 39.37 14.89C39.27 14.65 39.16 14.41 39.04 14.19C38.92 13.96 38.78 13.73 38.64 13.52C38.49 13.3 38.34 13.09 38.18 12.89C38.01 12.69 37.84 12.5 37.65 12.32C37.47 12.13 37.28 11.96 37.08 11.79C36.88 11.63 36.67 11.48 36.45 11.33C36.24 11.19 36.01 11.05 35.78 10.93C35.56 10.81 35.32 10.7 35.08 10.6C34.84 10.5 34.6 10.41 34.35 10.34C34.1 10.26 33.85 10.2 33.59 10.15C33.34 10.1 33.08 10.06 32.82 10.03C32.57 10.01 32.31 10 32.05 10C31.79 10 31.53 10.01 31.27 10.03C31.01 10.06 30.76 10.1 30.5 10.15C30.25 10.2 29.99 10.26 29.75 10.34C29.5 10.41 29.25 10.5 29.01 10.6C28.77 10.7 28.54 10.81 28.31 10.93C28.08 11.05 27.86 11.19 27.64 11.33C27.43 11.48 27.22 11.63 27.02 11.79C26.82 11.96 26.63 12.13 26.44 12.32C26.26 12.5 26.08 12.69 25.92 12.89C25.76 13.09 25.6 13.3 25.46 13.52C25.31 13.73 25.18 13.96 25.06 14.19C24.93 14.41 24.82 14.65 24.72 14.89C24.62 15.13 24.54 15.37 24.46 15.62C24.39 15.87 24.32 16.12 24.27 16.38C24.22 16.63 24.18 16.89 24.16 17.15C24.13 17.4 24.12 17.66 24.12 17.92Z" fill="#F85E77" fill-opacity="0.100000" fill-rule="nonzero"/>
		<path d="M14 8L26 8C28.2 8 30 9.79 30 12L30 20L30 28C30 30.2 28.2 32 26 32L14 32C11.79 32 10 30.2 10 28L10 12C10 9.79 11.79 8 14 8Z" fill="#C4C4C4" fill-opacity="0" fill-rule="evenodd"/>
		<path d="M26 8C28.2 8 30 9.79 30 12L30 20L30 28C30 30.2 28.2 32 26 32L14 32C11.79 32 10 30.2 10 28L10 12C10 9.79 11.79 8 14 8L26 8Z" stroke="#333333" stroke-opacity="1.000000" stroke-width="2.000000"/>
		<path d="M24.5 16.25C24.56 16.24 24.62 16.25 24.69 16.26C24.75 16.27 24.81 16.29 24.87 16.32C24.93 16.34 24.99 16.37 25.04 16.4C25.1 16.44 25.15 16.48 25.19 16.52C25.24 16.57 25.28 16.62 25.32 16.67C25.35 16.72 25.39 16.78 25.41 16.84C25.44 16.89 25.46 16.95 25.47 17.02C25.49 17.08 25.5 17.14 25.5 17.21C25.5 17.27 25.5 17.34 25.49 17.4C25.48 17.46 25.46 17.52 25.44 17.59C25.42 17.65 25.39 17.7 25.36 17.76C25.32 17.81 25.29 17.87 25.24 17.91C25.2 17.96 25.15 18 25.1 18.04C25.05 18.08 25 18.12 24.94 18.14C24.88 18.17 24.82 18.19 24.76 18.21C24.7 18.23 24.63 18.24 24.57 18.24L24.5 18.25L15.5 18.25C15.43 18.25 15.37 18.24 15.3 18.23C15.24 18.22 15.18 18.2 15.12 18.17C15.06 18.15 15 18.12 14.95 18.09C14.9 18.05 14.84 18.01 14.8 17.97C14.75 17.92 14.71 17.87 14.67 17.82C14.64 17.77 14.6 17.71 14.58 17.65C14.55 17.6 14.53 17.54 14.52 17.47C14.5 17.41 14.49 17.35 14.49 17.28C14.49 17.22 14.49 17.15 14.5 17.09C14.51 17.03 14.53 16.97 14.55 16.91C14.57 16.84 14.6 16.79 14.63 16.73C14.67 16.68 14.7 16.62 14.75 16.58C14.79 16.53 14.84 16.49 14.89 16.45C14.94 16.41 14.99 16.37 15.05 16.35C15.11 16.32 15.17 16.3 15.23 16.28C15.29 16.26 15.36 16.25 15.42 16.25L15.5 16.25L24.5 16.25Z" fill="#444444" fill-opacity="1.000000" fill-rule="nonzero"/>
		<path d="M22.5 21C23.05 21 23.5 21.44 23.5 22C23.5 22.06 23.49 22.13 23.48 22.19C23.46 22.25 23.44 22.32 23.42 22.38C23.39 22.44 23.36 22.5 23.33 22.55C23.29 22.61 23.25 22.66 23.2 22.7C23.16 22.75 23.11 22.79 23.05 22.83C23 22.86 22.94 22.89 22.88 22.92C22.82 22.94 22.75 22.96 22.69 22.98C22.63 22.99 22.56 23 22.5 23L15.5 23C15.43 23 15.36 22.99 15.3 22.98C15.24 22.96 15.17 22.94 15.11 22.92C15.05 22.89 14.99 22.86 14.94 22.83C14.88 22.79 14.83 22.75 14.79 22.7C14.74 22.66 14.7 22.61 14.66 22.55C14.63 22.5 14.6 22.44 14.57 22.38C14.55 22.32 14.53 22.25 14.51 22.19C14.5 22.13 14.5 22.06 14.5 22C14.5 21.44 14.94 21 15.5 21L22.5 21Z" fill="#F85E77" fill-opacity="1.000000" fill-rule="nonzero"/>
	</g>
</svg>
