<svg width="40.000000" height="40.000000" viewBox="0 0 40 40" fill="none" xmlns="http://www.w3.org/2000/svg" xmlns:xlink="http://www.w3.org/1999/xlink">
	<desc>
			Created with Pixso.
	</desc>
	<defs/>
	<rect width="40.000000" height="40.000000" fill="#C4C4C4" fill-opacity="0"/>
	<path d="M24 18C24 18.26 24.01 18.52 24.03 18.78C24.06 19.04 24.1 19.3 24.15 19.56C24.2 19.81 24.26 20.07 24.34 20.32C24.42 20.57 24.5 20.81 24.6 21.06C24.7 21.3 24.82 21.54 24.94 21.77C25.06 22 25.2 22.22 25.34 22.44C25.49 22.66 25.64 22.87 25.81 23.07C25.98 23.27 26.15 23.47 26.34 23.65C26.52 23.84 26.72 24.01 26.92 24.18C27.12 24.35 27.33 24.5 27.55 24.65C27.77 24.79 27.99 24.93 28.22 25.05C28.45 25.17 28.69 25.29 28.93 25.39C29.18 25.49 29.42 25.57 29.67 25.65C29.92 25.73 30.18 25.79 30.43 25.84C30.69 25.89 30.95 25.93 31.21 25.96C31.47 25.98 31.73 26 32 26C32.26 26 32.52 25.98 32.78 25.96C33.04 25.93 33.3 25.89 33.56 25.84C33.81 25.79 34.07 25.73 34.32 25.65C34.57 25.57 34.81 25.49 35.06 25.39C35.3 25.29 35.54 25.17 35.77 25.05C36 24.93 36.22 24.79 36.44 24.65C36.66 24.5 36.87 24.35 37.07 24.18C37.27 24.01 37.47 23.84 37.65 23.65C37.84 23.47 38.01 23.27 38.18 23.07C38.35 22.87 38.5 22.66 38.65 22.44C38.79 22.22 38.93 22 39.05 21.77C39.17 21.54 39.29 21.3 39.39 21.06C39.49 20.81 39.57 20.57 39.65 20.32C39.73 20.07 39.79 19.81 39.84 19.56C39.89 19.3 39.93 19.04 39.96 18.78C39.98 18.52 40 18.26 40 18C40 17.73 39.98 17.47 39.96 17.21C39.93 16.95 39.89 16.69 39.84 16.43C39.79 16.18 39.73 15.92 39.65 15.67C39.57 15.42 39.49 15.18 39.39 14.93C39.29 14.69 39.17 14.45 39.05 14.22C38.93 13.99 38.79 13.77 38.65 13.55C38.5 13.33 38.35 13.12 38.18 12.92C38.01 12.72 37.84 12.52 37.65 12.34C37.47 12.15 37.27 11.98 37.07 11.81C36.87 11.64 36.66 11.49 36.44 11.34C36.22 11.2 36 11.06 35.77 10.94C35.54 10.82 35.3 10.7 35.06 10.6C34.81 10.5 34.57 10.42 34.32 10.34C34.07 10.26 33.81 10.2 33.56 10.15C33.3 10.1 33.04 10.06 32.78 10.03C32.52 10.01 32.26 10 32 10C31.73 10 31.47 10.01 31.21 10.03C30.95 10.06 30.69 10.1 30.43 10.15C30.18 10.2 29.92 10.26 29.67 10.34C29.42 10.42 29.18 10.5 28.93 10.6C28.69 10.7 28.45 10.82 28.22 10.94C27.99 11.06 27.77 11.2 27.55 11.34C27.33 11.49 27.12 11.64 26.92 11.81C26.72 11.98 26.52 12.15 26.34 12.34C26.15 12.52 25.98 12.72 25.81 12.92C25.64 13.12 25.49 13.33 25.34 13.55C25.2 13.77 25.06 13.99 24.94 14.22C24.82 14.45 24.7 14.69 24.6 14.93C24.5 15.18 24.42 15.42 24.34 15.67C24.26 15.92 24.2 16.18 24.15 16.43C24.1 16.69 24.06 16.95 24.03 17.21C24.01 17.47 24 17.73 24 18Z" fill="#F85E77" fill-opacity="0.100000" fill-rule="nonzero"/>
	<path d="M20 7C19.88 7 19.77 7 19.65 7.01C19.53 7.02 19.42 7.04 19.3 7.06C19.19 7.09 19.08 7.11 18.96 7.15C18.85 7.18 18.74 7.22 18.63 7.27C18.52 7.31 18.42 7.36 18.31 7.41C18.21 7.47 18.11 7.53 18.01 7.59C17.91 7.66 17.82 7.73 17.73 7.8C17.63 7.87 17.55 7.95 17.46 8.04C17.38 8.12 17.3 8.2 17.22 8.29C17.14 8.38 17.07 8.48 17 8.58C16.93 8.67 16.87 8.77 16.81 8.88C16.75 8.98 16.7 9.09 16.65 9.19C16.6 9.3 16.56 9.41 16.52 9.53C16.48 9.64 16.45 9.75 16.42 9.87C16.39 9.99 16.37 10.1 16.35 10.22C16.33 10.34 16.32 10.46 16.32 10.58C10.52 12.23 6 17.66 6 24.02L6 25.03C6 25.12 6 25.21 6.01 25.3C6.02 25.39 6.03 25.48 6.05 25.57C6.06 25.66 6.09 25.75 6.11 25.83C6.14 25.92 6.17 26.01 6.2 26.09C6.23 26.17 6.27 26.25 6.31 26.33C6.36 26.41 6.4 26.49 6.45 26.57C6.5 26.64 6.55 26.71 6.61 26.78C6.66 26.85 6.72 26.92 6.79 26.98C6.85 27.05 6.91 27.11 6.98 27.17C7.05 27.22 7.12 27.28 7.19 27.33C7.27 27.38 7.34 27.42 7.42 27.47C7.5 27.51 7.58 27.55 7.66 27.58C7.74 27.62 7.82 27.65 7.91 27.67C7.99 27.7 8.08 27.72 8.16 27.74C8.25 27.76 8.34 27.77 8.43 27.78C8.51 27.79 8.6 27.79 8.69 27.79L31.3 27.79C31.39 27.79 31.48 27.79 31.56 27.78C31.65 27.77 31.74 27.76 31.83 27.74C31.91 27.72 32 27.7 32.08 27.67C32.17 27.65 32.25 27.62 32.33 27.58C32.41 27.55 32.49 27.51 32.57 27.47C32.65 27.42 32.72 27.38 32.8 27.33C32.87 27.28 32.94 27.22 33.01 27.17C33.08 27.11 33.14 27.05 33.21 26.98C33.27 26.92 33.33 26.85 33.38 26.78C33.44 26.71 33.49 26.64 33.54 26.57C33.59 26.49 33.63 26.41 33.68 26.33C33.72 26.25 33.76 26.17 33.79 26.09C33.82 26.01 33.85 25.92 33.88 25.83C33.9 25.75 33.93 25.66 33.94 25.57C33.96 25.48 33.97 25.39 33.98 25.3C33.99 25.21 33.99 25.12 34 25.03L34 24.02C34 17.67 29.47 12.24 23.69 10.58C23.68 10.46 23.67 10.34 23.65 10.22C23.63 10.11 23.61 9.99 23.58 9.87C23.55 9.76 23.52 9.64 23.48 9.53C23.44 9.42 23.4 9.3 23.35 9.2C23.3 9.09 23.25 8.98 23.19 8.88C23.13 8.77 23.07 8.67 23 8.58C22.93 8.48 22.86 8.39 22.78 8.3C22.71 8.2 22.63 8.12 22.54 8.04C22.46 7.95 22.37 7.88 22.28 7.8C22.18 7.73 22.09 7.66 21.99 7.59C21.89 7.53 21.79 7.47 21.69 7.41C21.58 7.36 21.48 7.31 21.37 7.27C21.26 7.22 21.15 7.18 21.04 7.15C20.92 7.11 20.81 7.09 20.7 7.06C20.58 7.04 20.47 7.02 20.35 7.01C20.23 7 20.12 7 20 7ZM8.69 26.05C8.62 26.05 8.56 26.05 8.5 26.03C8.43 26.02 8.37 26 8.31 25.97C8.25 25.95 8.19 25.92 8.14 25.88C8.08 25.84 8.03 25.8 7.99 25.75C7.94 25.71 7.9 25.65 7.86 25.6C7.83 25.54 7.8 25.48 7.77 25.42C7.75 25.36 7.73 25.3 7.71 25.23C7.7 25.17 7.69 25.1 7.69 25.03L7.69 24.02C7.69 17.83 12.54 12.73 18.36 11.92C18.24 11.75 18.16 11.57 18.1 11.37C18.04 11.18 18.01 10.98 18.01 10.77C18.01 10.71 18.01 10.64 18.02 10.57C18.03 10.51 18.04 10.44 18.05 10.38C18.06 10.31 18.08 10.25 18.1 10.18C18.12 10.12 18.14 10.06 18.16 9.99C18.19 9.93 18.22 9.87 18.25 9.81C18.28 9.75 18.31 9.7 18.35 9.64C18.38 9.59 18.42 9.53 18.46 9.48C18.51 9.43 18.55 9.38 18.59 9.33C18.64 9.29 18.69 9.24 18.74 9.2C18.79 9.16 18.84 9.12 18.9 9.08C18.95 9.04 19.01 9.01 19.06 8.98C19.12 8.95 19.18 8.92 19.24 8.89C19.3 8.87 19.36 8.84 19.42 8.82C19.49 8.81 19.55 8.79 19.61 8.78C19.68 8.76 19.74 8.75 19.8 8.75C19.87 8.74 19.93 8.74 20 8.74C20.06 8.74 20.13 8.74 20.19 8.75C20.26 8.75 20.32 8.76 20.39 8.78C20.45 8.79 20.51 8.8 20.58 8.82C20.64 8.84 20.7 8.87 20.76 8.89C20.82 8.92 20.88 8.95 20.94 8.98C20.99 9.01 21.05 9.04 21.1 9.08C21.16 9.12 21.21 9.16 21.26 9.2C21.31 9.24 21.36 9.29 21.41 9.33C21.45 9.38 21.5 9.43 21.54 9.48C21.58 9.53 21.62 9.59 21.65 9.64C21.69 9.7 21.72 9.75 21.75 9.81C21.78 9.87 21.81 9.93 21.84 9.99C21.86 10.06 21.88 10.12 21.9 10.18C21.92 10.25 21.94 10.31 21.95 10.38C21.96 10.44 21.97 10.51 21.98 10.57C21.99 10.64 21.99 10.71 21.99 10.77C21.99 11.19 21.85 11.59 21.64 11.92C27.45 12.75 32.3 17.84 32.3 24.02L32.3 25.03C32.3 25.1 32.29 25.17 32.28 25.23C32.26 25.3 32.24 25.36 32.22 25.42C32.19 25.48 32.16 25.54 32.13 25.6C32.09 25.65 32.05 25.71 32 25.75C31.96 25.8 31.91 25.84 31.85 25.88C31.8 25.92 31.74 25.95 31.68 25.97C31.62 26 31.56 26.02 31.49 26.03C31.43 26.05 31.37 26.05 31.3 26.05L8.69 26.05ZM33.06 30.96L6.93 30.96C6.42 30.96 6 31.42 6 31.98C6 32.54 6.42 33 6.93 33L33.06 33C33.58 33 34 32.54 34 31.98C34 31.42 33.58 30.96 33.06 30.96Z" fill="#333333" fill-opacity="1.000000" fill-rule="nonzero"/>
	<path d="M12.06 20.09C12.28 19.66 12.53 19.24 12.81 18.85C13.1 18.46 13.41 18.09 13.75 17.75C14.1 17.41 14.46 17.1 14.85 16.81C15.25 16.53 15.66 16.28 16.09 16.06C16.13 16.04 16.17 16.03 16.21 16.02C16.24 16.01 16.28 16 16.33 16C16.37 15.99 16.41 15.99 16.45 16C16.49 16.01 16.53 16.01 16.57 16.03C16.61 16.04 16.64 16.06 16.68 16.08C16.71 16.1 16.75 16.12 16.78 16.15C16.81 16.17 16.84 16.2 16.86 16.24C16.89 16.27 16.91 16.3 16.93 16.34C16.95 16.38 16.96 16.41 16.97 16.45C16.98 16.49 16.99 16.53 16.99 16.57C17 16.62 17 16.66 16.99 16.7C16.99 16.74 16.98 16.78 16.96 16.82C16.95 16.86 16.93 16.89 16.91 16.93C16.89 16.96 16.87 17 16.84 17.03C16.82 17.06 16.79 17.09 16.75 17.11C16.72 17.14 16.69 17.16 16.65 17.18C16.28 17.36 15.92 17.58 15.58 17.82C15.25 18.07 14.93 18.34 14.63 18.63C14.34 18.93 14.07 19.24 13.83 19.58C13.58 19.92 13.37 20.27 13.18 20.65C13.16 20.68 13.14 20.72 13.12 20.75C13.09 20.78 13.06 20.81 13.03 20.84C13 20.87 12.97 20.89 12.93 20.91C12.9 20.93 12.86 20.95 12.82 20.96C12.78 20.98 12.74 20.99 12.7 20.99C12.66 21 12.62 21 12.58 20.99C12.54 20.99 12.5 20.98 12.46 20.97C12.42 20.96 12.38 20.94 12.34 20.93C12.31 20.91 12.27 20.89 12.24 20.86C12.21 20.84 12.18 20.81 12.15 20.78C12.12 20.75 12.1 20.71 12.08 20.68C12.06 20.64 12.04 20.6 12.03 20.57C12.01 20.53 12 20.49 12 20.45C11.99 20.4 11.99 20.36 12 20.32C12 20.28 12.01 20.24 12.02 20.2C12.03 20.16 12.04 20.12 12.06 20.09Z" fill="#F85E77" fill-opacity="1.000000" fill-rule="nonzero"/>
	<path d="M12.81 18.85C13.1 18.46 13.41 18.09 13.75 17.75C14.1 17.41 14.46 17.1 14.85 16.81C15.25 16.53 15.66 16.28 16.09 16.06C16.13 16.04 16.17 16.03 16.21 16.02C16.24 16.01 16.28 16 16.33 16C16.37 15.99 16.41 15.99 16.45 16C16.49 16.01 16.53 16.01 16.57 16.03C16.61 16.04 16.64 16.06 16.68 16.08C16.71 16.1 16.75 16.12 16.78 16.15C16.81 16.17 16.84 16.2 16.86 16.24C16.89 16.27 16.91 16.3 16.93 16.34C16.95 16.38 16.96 16.41 16.97 16.45C16.98 16.49 16.99 16.53 16.99 16.57C17 16.62 17 16.66 16.99 16.7C16.99 16.74 16.98 16.78 16.96 16.82C16.95 16.86 16.93 16.89 16.91 16.93C16.89 16.96 16.87 17 16.84 17.03C16.82 17.06 16.79 17.09 16.75 17.11C16.72 17.14 16.69 17.16 16.65 17.18C16.28 17.36 15.92 17.58 15.58 17.82C15.25 18.07 14.93 18.34 14.63 18.63C14.34 18.93 14.07 19.24 13.83 19.58C13.58 19.92 13.37 20.27 13.18 20.65C13.16 20.68 13.14 20.72 13.12 20.75C13.09 20.78 13.06 20.81 13.03 20.84C13 20.87 12.97 20.89 12.93 20.91C12.9 20.93 12.86 20.95 12.82 20.96C12.78 20.98 12.74 20.99 12.7 20.99C12.66 21 12.62 21 12.58 20.99C12.54 20.99 12.5 20.98 12.46 20.97C12.42 20.96 12.38 20.94 12.34 20.93C12.31 20.91 12.27 20.89 12.24 20.86C12.21 20.84 12.18 20.81 12.15 20.78C12.12 20.75 12.1 20.71 12.08 20.68C12.06 20.64 12.04 20.6 12.03 20.57C12.01 20.53 12 20.49 12 20.45C11.99 20.4 11.99 20.36 12 20.32C12 20.28 12.01 20.24 12.02 20.2C12.03 20.16 12.04 20.12 12.06 20.09C12.28 19.66 12.53 19.24 12.81 18.85Z" stroke="#F85E77" stroke-opacity="1.000000" stroke-width="0.500000"/>
</svg>
