<svg width="40.000000" height="40.000000" viewBox="0 0 40 40" fill="none" xmlns="http://www.w3.org/2000/svg" xmlns:xlink="http://www.w3.org/1999/xlink">
	<desc>
			Created with Pixso.
	</desc>
	<defs>
		<clipPath id="clip157_421">
			<rect width="40.000000" height="40.000000" fill="white" fill-opacity="0"/>
		</clipPath>
	</defs>
	<g clip-path="url(#clip157_421)">
		<path d="M23.57 18C23.57 18.26 23.58 18.52 23.61 18.78C23.63 19.04 23.67 19.3 23.72 19.56C23.77 19.81 23.84 20.07 23.91 20.32C23.99 20.57 24.08 20.81 24.18 21.06C24.28 21.3 24.39 21.54 24.51 21.77C24.64 22 24.77 22.22 24.92 22.44C25.06 22.66 25.22 22.87 25.39 23.07C25.55 23.27 25.73 23.47 25.91 23.65C26.1 23.84 26.29 24.01 26.49 24.18C26.7 24.35 26.91 24.5 27.13 24.65C27.34 24.79 27.57 24.93 27.8 25.05C28.03 25.17 28.27 25.29 28.51 25.39C28.75 25.49 29 25.57 29.25 25.65C29.5 25.73 29.75 25.79 30.01 25.84C30.27 25.89 30.53 25.93 30.79 25.96C31.05 25.98 31.31 26 31.57 26C31.83 26 32.09 25.98 32.35 25.96C32.61 25.93 32.87 25.89 33.13 25.84C33.39 25.79 33.64 25.73 33.89 25.65C34.14 25.57 34.39 25.49 34.63 25.39C34.87 25.29 35.11 25.17 35.34 25.05C35.57 24.93 35.8 24.79 36.01 24.65C36.23 24.5 36.44 24.35 36.65 24.18C36.85 24.01 37.04 23.84 37.23 23.65C37.41 23.47 37.59 23.27 37.75 23.07C37.92 22.87 38.08 22.66 38.22 22.44C38.37 22.22 38.5 22 38.63 21.77C38.75 21.54 38.86 21.3 38.96 21.06C39.06 20.81 39.15 20.57 39.23 20.32C39.3 20.07 39.37 19.81 39.42 19.56C39.47 19.3 39.51 19.04 39.53 18.78C39.56 18.52 39.57 18.26 39.57 18C39.57 17.73 39.56 17.47 39.53 17.21C39.51 16.95 39.47 16.69 39.42 16.43C39.37 16.18 39.3 15.92 39.23 15.67C39.15 15.42 39.06 15.18 38.96 14.93C38.86 14.69 38.75 14.45 38.63 14.22C38.5 13.99 38.37 13.77 38.22 13.55C38.08 13.33 37.92 13.12 37.75 12.92C37.59 12.72 37.41 12.52 37.23 12.34C37.04 12.15 36.85 11.98 36.65 11.81C36.44 11.64 36.23 11.49 36.01 11.34C35.8 11.2 35.57 11.06 35.34 10.94C35.11 10.82 34.87 10.7 34.63 10.6C34.39 10.5 34.14 10.42 33.89 10.34C33.64 10.26 33.39 10.2 33.13 10.15C32.87 10.1 32.61 10.06 32.35 10.03C32.09 10.01 31.83 10 31.57 10C31.31 10 31.05 10.01 30.79 10.03C30.53 10.06 30.27 10.1 30.01 10.15C29.75 10.2 29.5 10.26 29.25 10.34C29 10.42 28.75 10.5 28.51 10.6C28.27 10.7 28.03 10.82 27.8 10.94C27.57 11.06 27.34 11.2 27.13 11.34C26.91 11.49 26.7 11.64 26.49 11.81C26.29 11.98 26.1 12.15 25.91 12.34C25.73 12.52 25.55 12.72 25.39 12.92C25.22 13.12 25.06 13.33 24.92 13.55C24.77 13.77 24.64 13.99 24.51 14.22C24.39 14.45 24.28 14.69 24.18 14.93C24.08 15.18 23.99 15.42 23.91 15.67C23.84 15.92 23.77 16.18 23.72 16.43C23.67 16.69 23.63 16.95 23.61 17.21C23.58 17.47 23.57 17.73 23.57 18Z" fill="#F85E77" fill-opacity="0.100000" fill-rule="nonzero"/>
		<path d="M23.15 8.49L25.2 8.73L25.08 9.76C24.77 12.41 22.79 14.41 20.07 14.49L19.91 14.49C19.34 14.49 18.88 14.03 18.88 13.45C18.88 12.88 19.34 12.42 19.91 12.42C21.57 12.42 22.76 11.28 23.01 9.64L23.03 9.52L23.15 8.49Z" fill="#F85E77" fill-opacity="1.000000" fill-rule="nonzero"/>
		<path d="M16.58 16.3C16.64 16.3 16.7 16.3 16.77 16.32C16.83 16.33 16.89 16.35 16.95 16.37C17.01 16.39 17.07 16.42 17.13 16.46C17.18 16.49 17.23 16.53 17.28 16.57C17.33 16.62 17.37 16.67 17.41 16.72C17.45 16.77 17.48 16.83 17.51 16.88C17.54 16.94 17.56 17 17.57 17.06C17.59 17.13 17.6 17.19 17.61 17.26L17.61 17.33L17.61 18.7C17.61 18.77 17.6 18.84 17.59 18.9C17.58 18.97 17.56 19.03 17.54 19.09C17.51 19.15 17.48 19.21 17.45 19.27C17.41 19.33 17.37 19.38 17.32 19.42C17.28 19.47 17.23 19.52 17.17 19.55C17.12 19.59 17.06 19.63 17 19.65C16.94 19.68 16.88 19.7 16.81 19.72C16.75 19.73 16.68 19.74 16.61 19.74C16.55 19.75 16.48 19.74 16.42 19.73C16.35 19.72 16.29 19.7 16.22 19.68C16.16 19.66 16.1 19.63 16.04 19.6C15.99 19.56 15.93 19.52 15.88 19.48C15.84 19.43 15.79 19.39 15.75 19.33C15.71 19.28 15.68 19.22 15.65 19.16C15.62 19.1 15.59 19.04 15.58 18.98C15.56 18.91 15.55 18.85 15.54 18.78L15.54 18.7L15.54 17.33C15.54 17.26 15.55 17.2 15.56 17.13C15.57 17.06 15.59 17 15.62 16.94C15.65 16.87 15.68 16.81 15.72 16.76C15.75 16.7 15.8 16.65 15.84 16.6C15.89 16.55 15.94 16.51 16 16.47C16.06 16.43 16.12 16.4 16.18 16.38C16.24 16.35 16.31 16.33 16.37 16.32C16.44 16.3 16.51 16.3 16.58 16.3ZM23.41 16.3C23.48 16.3 23.54 16.3 23.61 16.32C23.67 16.33 23.73 16.35 23.79 16.37C23.85 16.39 23.91 16.42 23.96 16.46C24.02 16.49 24.07 16.53 24.12 16.57C24.17 16.62 24.21 16.67 24.25 16.72C24.29 16.77 24.32 16.83 24.35 16.88C24.37 16.94 24.4 17 24.41 17.06C24.43 17.13 24.44 17.19 24.45 17.26L24.45 17.33L24.45 18.7C24.45 18.77 24.44 18.84 24.43 18.9C24.42 18.97 24.4 19.03 24.37 19.09C24.35 19.15 24.32 19.21 24.28 19.27C24.25 19.32 24.2 19.37 24.16 19.42C24.11 19.47 24.06 19.51 24.01 19.55C23.95 19.59 23.9 19.62 23.84 19.65C23.78 19.67 23.71 19.69 23.65 19.71C23.58 19.72 23.52 19.73 23.45 19.74C23.39 19.74 23.32 19.73 23.26 19.72C23.19 19.71 23.13 19.7 23.06 19.68C23 19.65 22.94 19.62 22.89 19.59C22.83 19.56 22.78 19.52 22.73 19.47C22.68 19.43 22.63 19.38 22.59 19.33C22.55 19.28 22.52 19.22 22.49 19.16C22.46 19.1 22.43 19.04 22.42 18.98C22.4 18.91 22.39 18.85 22.38 18.78L22.38 18.7L22.38 17.33C22.38 17.26 22.39 17.2 22.4 17.13C22.41 17.06 22.43 17 22.46 16.94C22.48 16.87 22.52 16.81 22.55 16.76C22.59 16.7 22.64 16.65 22.68 16.6C22.73 16.55 22.78 16.51 22.84 16.47C22.9 16.43 22.96 16.4 23.02 16.38C23.08 16.35 23.15 16.33 23.21 16.32C23.28 16.3 23.35 16.3 23.41 16.3Z" fill="#333333" fill-opacity="1.000000" fill-rule="nonzero"/>
		<path d="M19.75 7C14.54 7.08 10.02 10.48 8.36 15.35L8.28 15.58L8.16 15.61C6.35 16.01 5 17.68 5 19.65L5 19.78C5.06 21.79 6.51 23.44 8.4 23.74L8.46 23.75L8.48 23.8C10.25 28.56 14.79 31.82 19.95 31.82L20.15 31.82C25.15 31.74 29.54 28.59 31.34 23.99L31.43 23.76L31.47 23.76C33.46 23.51 35 21.76 35 19.65L34.99 19.52C34.93 17.56 33.54 15.93 31.71 15.58L31.6 15.56L31.6 15.55C29.98 10.51 25.31 6.99 19.95 6.99L19.75 7ZM19.95 9.06C24.61 9.06 28.66 12.28 29.81 16.81C29.82 16.87 29.84 16.93 29.87 16.98C29.89 17.03 29.92 17.09 29.95 17.14C29.99 17.19 30.03 17.23 30.07 17.27C30.11 17.32 30.15 17.36 30.2 17.39C30.25 17.43 30.3 17.46 30.35 17.48C30.41 17.51 30.46 17.53 30.52 17.55C30.58 17.57 30.64 17.58 30.69 17.58C30.75 17.59 30.81 17.59 30.87 17.59L30.97 17.58C32.04 17.58 32.93 18.5 32.93 19.65C32.93 20.8 32.04 21.72 30.97 21.72C30.91 21.72 30.85 21.72 30.77 21.71C30.71 21.7 30.65 21.7 30.6 21.71C30.54 21.71 30.48 21.72 30.42 21.74C30.36 21.75 30.31 21.77 30.25 21.8C30.2 21.82 30.15 21.85 30.1 21.88C30.05 21.92 30 21.95 29.96 21.99C29.92 22.03 29.88 22.08 29.85 22.13C29.81 22.17 29.78 22.22 29.75 22.28C29.73 22.33 29.7 22.38 29.69 22.44C28.39 26.75 24.45 29.75 19.95 29.75C15.44 29.75 11.51 26.76 10.2 22.45C10.19 22.39 10.17 22.34 10.14 22.28C10.12 22.23 10.09 22.18 10.05 22.14C10.02 22.09 9.98 22.05 9.94 22.01C9.9 21.97 9.85 21.93 9.8 21.9C9.76 21.86 9.71 21.83 9.65 21.81C9.6 21.78 9.55 21.76 9.49 21.75C9.44 21.73 9.38 21.72 9.32 21.72C9.26 21.71 9.21 21.71 9.15 21.71L9.02 21.72C7.95 21.72 7.06 20.8 7.06 19.65L7.07 19.54C7.12 18.48 7.93 17.64 8.92 17.59L9.04 17.59L9.05 17.59C9.11 17.59 9.17 17.58 9.23 17.58C9.29 17.57 9.34 17.55 9.4 17.54C9.45 17.52 9.51 17.5 9.56 17.47C9.61 17.44 9.66 17.41 9.7 17.38C9.75 17.34 9.79 17.3 9.83 17.26C9.87 17.22 9.91 17.17 9.94 17.12C9.97 17.08 10 17.03 10.03 16.97C10.05 16.92 10.07 16.86 10.08 16.81C11.24 12.28 15.28 9.06 19.95 9.06Z" fill="#333333" fill-opacity="1.000000" fill-rule="nonzero"/>
		<path d="M22.29 21.63C22.34 21.58 22.39 21.54 22.45 21.5C22.5 21.46 22.56 21.43 22.62 21.41C22.69 21.38 22.75 21.36 22.82 21.35C22.88 21.33 22.95 21.33 23.02 21.33C23.08 21.33 23.15 21.33 23.22 21.35C23.28 21.36 23.35 21.38 23.41 21.4C23.47 21.43 23.53 21.46 23.59 21.5C23.64 21.53 23.7 21.58 23.74 21.62C23.79 21.67 23.83 21.72 23.87 21.78C23.91 21.83 23.94 21.89 23.97 21.95C24 22.01 24.02 22.08 24.03 22.14C24.05 22.21 24.05 22.28 24.05 22.34C24.06 22.41 24.05 22.48 24.04 22.54C24.03 22.61 24.01 22.67 23.98 22.74C23.96 22.8 23.93 22.86 23.89 22.92C23.86 22.97 23.82 23.03 23.77 23.08C22.73 24.14 21.35 24.74 19.87 24.74C18.46 24.74 17.13 24.19 16.11 23.21C16.06 23.16 16.01 23.11 15.97 23.06C15.93 23 15.9 22.94 15.87 22.88C15.84 22.82 15.82 22.75 15.81 22.69C15.79 22.62 15.78 22.55 15.78 22.48C15.78 22.41 15.78 22.35 15.79 22.28C15.81 22.21 15.82 22.15 15.85 22.08C15.87 22.02 15.9 21.96 15.94 21.9C15.98 21.84 16.02 21.79 16.07 21.74C16.11 21.69 16.16 21.64 16.22 21.61C16.28 21.57 16.34 21.53 16.4 21.51C16.46 21.48 16.53 21.46 16.59 21.44C16.66 21.43 16.73 21.42 16.8 21.42C16.87 21.42 16.93 21.42 17 21.44C17.07 21.45 17.13 21.47 17.2 21.49C17.26 21.52 17.32 21.55 17.38 21.59C17.44 21.62 17.49 21.67 17.54 21.71C18.18 22.33 19 22.67 19.87 22.67C20.78 22.67 21.63 22.3 22.29 21.63Z" fill="#333333" fill-opacity="1.000000" fill-rule="nonzero"/>
	</g>
</svg>
