<svg width="40.000000" height="40.000000" viewBox="0 0 40 40" fill="none" xmlns="http://www.w3.org/2000/svg" xmlns:xlink="http://www.w3.org/1999/xlink">
	<desc>
			Created with Pixso.
	</desc>
	<defs>
		<clipPath id="clip157_405">
			<rect id="环境安全" width="40.000000" height="40.000000" fill="white" fill-opacity="0"/>
		</clipPath>
	</defs>
	<g clip-path="url(#clip157_405)">
		<path id="path" d="M23.12 18C23.12 18.26 23.13 18.52 23.16 18.78C23.18 19.04 23.22 19.3 23.27 19.56C23.33 19.81 23.39 20.07 23.46 20.32C23.54 20.57 23.63 20.81 23.73 21.06C23.83 21.3 23.94 21.54 24.07 21.77C24.19 22 24.32 22.22 24.47 22.44C24.61 22.66 24.77 22.87 24.94 23.07C25.1 23.27 25.28 23.47 25.46 23.65C25.65 23.84 25.84 24.01 26.05 24.18C26.25 24.35 26.46 24.5 26.68 24.65C26.89 24.79 27.12 24.93 27.35 25.05C27.58 25.17 27.82 25.29 28.06 25.39C28.3 25.49 28.55 25.57 28.8 25.65C29.05 25.73 29.3 25.79 29.56 25.84C29.82 25.89 30.08 25.93 30.34 25.96C30.6 25.98 30.86 26 31.12 26C31.38 26 31.64 25.98 31.9 25.96C32.17 25.93 32.42 25.89 32.68 25.84C32.94 25.79 33.19 25.73 33.44 25.65C33.69 25.57 33.94 25.49 34.18 25.39C34.42 25.29 34.66 25.17 34.89 25.05C35.12 24.93 35.35 24.79 35.56 24.65C35.78 24.5 35.99 24.35 36.2 24.18C36.4 24.01 36.59 23.84 36.78 23.65C36.96 23.47 37.14 23.27 37.3 23.07C37.47 22.87 37.63 22.66 37.77 22.44C37.92 22.22 38.05 22 38.18 21.77C38.3 21.54 38.41 21.3 38.51 21.06C38.61 20.81 38.7 20.57 38.78 20.32C38.85 20.07 38.92 19.81 38.97 19.56C39.02 19.3 39.06 19.04 39.08 18.78C39.11 18.52 39.12 18.26 39.12 18C39.12 17.73 39.11 17.47 39.08 17.21C39.06 16.95 39.02 16.69 38.97 16.43C38.92 16.18 38.85 15.92 38.78 15.67C38.7 15.42 38.61 15.18 38.51 14.93C38.41 14.69 38.3 14.45 38.18 14.22C38.05 13.99 37.92 13.77 37.77 13.55C37.63 13.33 37.47 13.12 37.3 12.92C37.14 12.72 36.96 12.52 36.78 12.34C36.59 12.15 36.4 11.98 36.2 11.81C35.99 11.64 35.78 11.49 35.56 11.34C35.35 11.2 35.12 11.06 34.89 10.94C34.66 10.82 34.42 10.7 34.18 10.6C33.94 10.5 33.69 10.42 33.44 10.34C33.19 10.26 32.94 10.2 32.68 10.15C32.42 10.1 32.17 10.06 31.9 10.03C31.64 10.01 31.38 10 31.12 10C30.86 10 30.6 10.01 30.34 10.03C30.08 10.06 29.82 10.1 29.56 10.15C29.3 10.2 29.05 10.26 28.8 10.34C28.55 10.42 28.3 10.5 28.06 10.6C27.82 10.7 27.58 10.82 27.35 10.94C27.12 11.06 26.89 11.2 26.68 11.34C26.46 11.49 26.25 11.64 26.05 11.81C25.84 11.98 25.65 12.15 25.46 12.34C25.28 12.52 25.1 12.72 24.94 12.92C24.77 13.12 24.61 13.33 24.47 13.55C24.32 13.77 24.19 13.99 24.07 14.22C23.94 14.45 23.83 14.69 23.73 14.93C23.63 15.18 23.54 15.42 23.46 15.67C23.39 15.92 23.33 16.18 23.27 16.43C23.22 16.69 23.18 16.95 23.16 17.21C23.13 17.47 23.12 17.73 23.12 18Z" fill="#F85E77" fill-opacity="0.100000" fill-rule="nonzero"/>
		<path id="path" d="M14.49 7.36C14.85 6.46 15.88 6.02 16.78 6.38C17 6.47 17.19 6.6 17.36 6.76C17.53 6.93 17.66 7.12 17.75 7.34L17.76 7.36L20.61 14.19C20.79 14.63 20.58 15.13 20.15 15.31C20.13 15.32 20.12 15.32 20.1 15.33C19.62 15.5 19.09 15.26 18.9 14.79L16.13 8.01L8.69 26.67L23.56 26.67L25.2 26.02C25.55 26.93 25.11 27.95 24.21 28.31C24.02 28.39 23.81 28.43 23.6 28.43L23.56 28.43L8.69 28.43C7.72 28.43 6.94 27.65 6.94 26.67C6.94 26.46 6.97 26.26 7.05 26.06L7.06 26.02L14.49 7.36Z" fill="#333333" fill-opacity="1.000000" fill-rule="nonzero"/>
		<path id="path" d="M16.1 23.22C16.57 23.22 16.97 23.6 16.98 24.08L16.98 24.09L17.01 32.33C17.01 32.82 16.62 33.21 16.13 33.21C15.65 33.22 15.26 32.83 15.25 32.36L15.25 32.34L15.22 24.1C15.22 23.61 15.61 23.22 16.1 23.22ZM24.86 15.19C21.2 15.19 18.24 18.15 18.24 21.81C18.24 25.47 21.2 28.43 24.86 28.43C28.52 28.43 31.48 25.47 31.48 21.81C31.48 18.15 28.52 15.19 24.86 15.19ZM24.86 16.95C27.54 16.95 29.72 19.13 29.72 21.81C29.72 24.5 27.54 26.67 24.86 26.67C22.17 26.67 20 24.5 20 21.81C20 19.13 22.17 16.95 24.86 16.95Z" fill="#333333" fill-opacity="1.000000" fill-rule="nonzero"/>
		<path id="path" d="M22.49 12.5C22.49 12.5 22.49 12.5 22.5 12.5C24.83 11.73 26.82 11.89 29.11 12.88C29.2 12.92 29.28 12.96 29.37 13C29.79 13.2 29.96 13.7 29.76 14.12C29.75 14.14 29.74 14.15 29.73 14.17C29.49 14.59 28.97 14.75 28.53 14.55C28.46 14.51 28.38 14.48 28.31 14.45C26.48 13.69 24.85 13.42 23 14C22.67 14.1 22.3 14.03 22.1 13.76C21.79 13.31 21.98 12.67 22.49 12.5Z" fill="#F85E77" fill-opacity="1.000000" fill-rule="nonzero"/>
		<path id="path" d="M24.83 23.22C25.31 23.22 25.7 23.6 25.71 24.08L25.71 24.09L25.74 32.33C25.74 32.82 25.35 33.21 24.86 33.21C24.38 33.22 23.99 32.83 23.98 32.36L23.98 32.34L23.95 24.1C23.95 23.61 24.34 23.22 24.83 23.22Z" fill="#333333" fill-opacity="1.000000" fill-rule="nonzero"/>
	</g>
</svg>
