<svg width="40.000000" height="40.000000" viewBox="0 0 40 40" fill="none" xmlns="http://www.w3.org/2000/svg" xmlns:xlink="http://www.w3.org/1999/xlink">
	<desc>
			Created with Pixso.
	</desc>
	<defs>
		<clipPath id="clip157_379">
			<rect width="40.000000" height="40.000000" fill="white" fill-opacity="0"/>
		</clipPath>
	</defs>
	<g clip-path="url(#clip157_379)">
		<path d="M23 18C23 18.26 23.01 18.52 23.03 18.78C23.06 19.04 23.1 19.3 23.15 19.56C23.2 19.81 23.26 20.07 23.34 20.32C23.42 20.57 23.5 20.81 23.6 21.06C23.7 21.3 23.82 21.54 23.94 21.77C24.06 22 24.2 22.22 24.34 22.44C24.49 22.66 24.64 22.87 24.81 23.07C24.98 23.27 25.15 23.47 25.34 23.65C25.52 23.84 25.72 24.01 25.92 24.18C26.12 24.35 26.33 24.5 26.55 24.65C26.77 24.79 26.99 24.93 27.22 25.05C27.45 25.17 27.69 25.29 27.93 25.39C28.18 25.49 28.42 25.57 28.67 25.65C28.92 25.73 29.18 25.79 29.43 25.84C29.69 25.89 29.95 25.93 30.21 25.96C30.47 25.98 30.73 26 31 26C31.26 26 31.52 25.98 31.78 25.96C32.04 25.93 32.3 25.89 32.56 25.84C32.81 25.79 33.07 25.73 33.32 25.65C33.57 25.57 33.81 25.49 34.06 25.39C34.3 25.29 34.54 25.17 34.77 25.05C35 24.93 35.22 24.79 35.44 24.65C35.66 24.5 35.87 24.35 36.07 24.18C36.27 24.01 36.47 23.84 36.65 23.65C36.84 23.47 37.01 23.27 37.18 23.07C37.35 22.87 37.5 22.66 37.65 22.44C37.79 22.22 37.93 22 38.05 21.77C38.17 21.54 38.29 21.3 38.39 21.06C38.49 20.81 38.57 20.57 38.65 20.32C38.73 20.07 38.79 19.81 38.84 19.56C38.89 19.3 38.93 19.04 38.96 18.78C38.98 18.52 39 18.26 39 18C39 17.73 38.98 17.47 38.96 17.21C38.93 16.95 38.89 16.69 38.84 16.43C38.79 16.18 38.73 15.92 38.65 15.67C38.57 15.42 38.49 15.18 38.39 14.93C38.29 14.69 38.17 14.45 38.05 14.22C37.93 13.99 37.79 13.77 37.65 13.55C37.5 13.33 37.35 13.12 37.18 12.92C37.01 12.72 36.84 12.52 36.65 12.34C36.47 12.15 36.27 11.98 36.07 11.81C35.87 11.64 35.66 11.49 35.44 11.34C35.22 11.2 35 11.06 34.77 10.94C34.54 10.82 34.3 10.7 34.06 10.6C33.81 10.5 33.57 10.42 33.32 10.34C33.07 10.26 32.81 10.2 32.56 10.15C32.3 10.1 32.04 10.06 31.78 10.03C31.52 10.01 31.26 10 31 10C30.73 10 30.47 10.01 30.21 10.03C29.95 10.06 29.69 10.1 29.43 10.15C29.18 10.2 28.92 10.26 28.67 10.34C28.42 10.42 28.18 10.5 27.93 10.6C27.69 10.7 27.45 10.82 27.22 10.94C26.99 11.06 26.77 11.2 26.55 11.34C26.33 11.49 26.12 11.64 25.92 11.81C25.72 11.98 25.52 12.15 25.34 12.34C25.15 12.52 24.98 12.72 24.81 12.92C24.64 13.12 24.49 13.33 24.34 13.55C24.2 13.77 24.06 13.99 23.94 14.22C23.82 14.45 23.7 14.69 23.6 14.93C23.5 15.18 23.42 15.42 23.34 15.67C23.26 15.92 23.2 16.18 23.15 16.43C23.1 16.69 23.06 16.95 23.03 17.21C23.01 17.47 23 17.73 23 18Z" fill="#F85E77" fill-opacity="0.100000" fill-rule="nonzero"/>
		<path d="M11.6 8.07C11.67 8.04 11.73 8.02 11.8 8.01C11.87 8 11.94 7.99 12.01 8C12.08 8 12.15 8.01 12.22 8.02C12.28 8.04 12.35 8.06 12.41 8.09C12.48 8.12 12.54 8.15 12.59 8.19C12.65 8.24 12.7 8.28 12.75 8.33C12.8 8.39 12.84 8.44 12.88 8.5C12.92 8.56 12.95 8.63 12.97 8.7C14.49 12.77 14.32 16.96 12.43 20.77C12.24 21.15 12.03 21.53 11.75 21.97L11.02 23.08C9.29 25.73 8.75 27.75 9.35 31.71C9.36 31.79 9.37 31.86 9.37 31.93C9.36 32 9.36 32.07 9.34 32.14C9.32 32.22 9.3 32.28 9.27 32.35C9.24 32.42 9.21 32.48 9.17 32.54C9.13 32.6 9.08 32.65 9.03 32.7C8.98 32.75 8.92 32.79 8.86 32.83C8.8 32.87 8.74 32.9 8.67 32.93C8.61 32.95 8.54 32.97 8.47 32.98C8.4 32.99 8.33 33 8.26 32.99C8.19 32.99 8.12 32.98 8.05 32.96C7.98 32.95 7.92 32.92 7.86 32.89C7.79 32.86 7.73 32.82 7.67 32.78C7.62 32.74 7.57 32.69 7.52 32.63C7.47 32.58 7.43 32.52 7.39 32.46C7.36 32.4 7.33 32.33 7.31 32.26C7.28 32.19 7.27 32.12 7.26 32.05C6.58 27.59 7.22 25.04 9.14 22.04L9.86 20.95C10.16 20.48 10.37 20.13 10.55 19.77C12.16 16.53 12.3 12.98 10.99 9.48C10.97 9.41 10.95 9.34 10.94 9.27C10.93 9.2 10.92 9.13 10.92 9.06C10.93 8.99 10.93 8.92 10.95 8.85C10.96 8.78 10.99 8.71 11.01 8.64C11.04 8.58 11.08 8.52 11.12 8.46C11.16 8.4 11.2 8.35 11.25 8.3C11.3 8.25 11.36 8.2 11.42 8.16C11.48 8.13 11.54 8.09 11.6 8.07Z" fill="#434343" fill-opacity="1.000000" fill-rule="nonzero"/>
		<path d="M29.36 23.49L29.38 23.46C29.42 23.41 29.46 23.36 29.51 23.32C29.56 23.28 29.61 23.24 29.67 23.21C29.73 23.18 29.79 23.15 29.85 23.13C29.91 23.11 29.97 23.09 30.04 23.09C30.1 23.08 30.17 23.08 30.23 23.08C30.3 23.09 30.36 23.1 30.43 23.11C30.49 23.13 30.55 23.15 30.61 23.18C30.67 23.21 30.72 23.25 30.77 23.29C30.83 23.33 30.87 23.37 30.92 23.42C30.96 23.47 31 23.52 31.03 23.58C31.06 23.64 31.09 23.69 31.11 23.76C31.13 23.82 31.15 23.88 31.16 23.95C31.16 24.01 31.17 24.08 31.16 24.14C31.16 24.21 31.15 24.27 31.13 24.34C31.11 24.4 31.09 24.46 31.06 24.52C31.03 24.58 31 24.63 30.96 24.68C30.84 24.84 30.61 25.09 30.28 25.39C29.76 25.86 29.11 26.33 28.33 26.77C26.15 27.99 23.38 28.72 19.97 28.72C16.57 28.72 13.78 27.99 11.58 26.77C10.8 26.33 10.14 25.87 9.61 25.39C9.27 25.1 9.05 24.85 8.92 24.69C8.88 24.64 8.85 24.59 8.82 24.53C8.79 24.48 8.77 24.42 8.75 24.36C8.73 24.3 8.72 24.23 8.71 24.17C8.7 24.11 8.7 24.04 8.71 23.98C8.72 23.91 8.73 23.85 8.75 23.79C8.77 23.73 8.79 23.67 8.82 23.61C8.85 23.56 8.88 23.5 8.92 23.45C8.96 23.4 9.01 23.36 9.05 23.32C9.1 23.27 9.16 23.24 9.21 23.21C9.27 23.17 9.32 23.15 9.39 23.13C9.45 23.11 9.51 23.09 9.57 23.08C9.63 23.07 9.7 23.07 9.76 23.08C9.83 23.08 9.89 23.09 9.95 23.1C10.01 23.12 10.07 23.14 10.13 23.17C10.19 23.2 10.24 23.23 10.3 23.27C10.35 23.3 10.39 23.35 10.44 23.39L10.54 23.51C10.62 23.6 10.75 23.73 10.94 23.89C11.36 24.27 11.9 24.66 12.55 25.02C14.46 26.08 16.91 26.72 19.97 26.72C23.03 26.72 25.47 26.08 27.35 25.02C28 24.66 28.52 24.28 28.94 23.9C29.16 23.71 29.29 23.57 29.36 23.49Z" fill="#434343" fill-opacity="1.000000" fill-rule="nonzero"/>
		<path d="M21.46 23.14C21.46 23.23 21.45 23.33 21.44 23.42C21.42 23.51 21.39 23.6 21.35 23.69C21.32 23.78 21.27 23.87 21.22 23.95C21.16 24.02 21.1 24.1 21.04 24.17C20.97 24.23 20.9 24.29 20.82 24.35C20.74 24.4 20.65 24.45 20.56 24.48C20.47 24.52 20.38 24.55 20.29 24.57C20.2 24.58 20.1 24.59 20.01 24.59C19.91 24.59 19.81 24.58 19.72 24.57C19.63 24.55 19.54 24.52 19.45 24.48C19.36 24.45 19.27 24.4 19.2 24.35C19.12 24.29 19.04 24.23 18.97 24.17C18.91 24.1 18.85 24.02 18.79 23.95C18.74 23.87 18.69 23.78 18.66 23.69C18.62 23.6 18.59 23.51 18.58 23.42C18.56 23.33 18.55 23.23 18.55 23.14C18.55 23.04 18.56 22.94 18.58 22.85C18.59 22.76 18.62 22.67 18.66 22.58C18.69 22.49 18.74 22.4 18.79 22.32C18.85 22.25 18.91 22.17 18.97 22.1C19.04 22.04 19.12 21.98 19.2 21.92C19.27 21.87 19.36 21.82 19.45 21.79C19.54 21.75 19.63 21.72 19.72 21.7C19.81 21.69 19.91 21.68 20.01 21.68C20.1 21.68 20.2 21.69 20.29 21.7C20.38 21.72 20.47 21.75 20.56 21.79C20.65 21.82 20.74 21.87 20.82 21.92C20.9 21.98 20.97 22.04 21.04 22.1C21.1 22.17 21.16 22.25 21.22 22.32C21.27 22.4 21.32 22.49 21.35 22.58C21.39 22.67 21.42 22.76 21.44 22.85C21.45 22.94 21.46 23.04 21.46 23.14Z" fill="#444444" fill-opacity="1.000000" fill-rule="nonzero"/>
		<path d="M27.02 8.69C27.04 8.63 27.07 8.56 27.11 8.5C27.15 8.44 27.19 8.39 27.24 8.33C27.29 8.28 27.34 8.24 27.4 8.19C27.45 8.15 27.51 8.12 27.58 8.09C27.64 8.06 27.71 8.04 27.77 8.02C27.84 8.01 27.91 8 27.98 8C28.05 7.99 28.12 8 28.19 8.01C28.26 8.02 28.32 8.04 28.39 8.07C28.45 8.09 28.51 8.13 28.57 8.16C28.63 8.2 28.69 8.25 28.74 8.3C28.79 8.35 28.83 8.4 28.87 8.46C28.91 8.52 28.95 8.58 28.97 8.64C29 8.71 29.03 8.78 29.04 8.85C29.06 8.92 29.06 8.99 29.07 9.06C29.07 9.13 29.06 9.2 29.05 9.27C29.04 9.34 29.02 9.41 29 9.48C27.69 12.99 27.83 16.54 29.44 19.78C29.6 20.09 29.78 20.4 30.02 20.79L30.34 21.28C30.5 21.52 30.69 21.8 30.73 21.87C32.74 24.95 33.43 27.51 32.73 32.07C32.72 32.14 32.71 32.21 32.68 32.28C32.66 32.35 32.63 32.41 32.59 32.47C32.55 32.53 32.51 32.59 32.47 32.64C32.42 32.7 32.37 32.74 32.31 32.79C32.25 32.83 32.2 32.86 32.13 32.89C32.07 32.92 32 32.95 31.94 32.96C31.87 32.98 31.8 32.99 31.73 32.99C31.66 33 31.59 32.99 31.52 32.98C31.45 32.97 31.39 32.95 31.32 32.93C31.26 32.9 31.19 32.87 31.13 32.83C31.08 32.8 31.02 32.75 30.97 32.71C30.92 32.66 30.87 32.6 30.83 32.55C30.79 32.49 30.75 32.43 30.73 32.36C30.7 32.3 30.67 32.23 30.66 32.16C30.64 32.09 30.63 32.02 30.63 31.95C30.63 31.87 30.63 31.8 30.64 31.73C31.23 27.85 30.73 25.83 29.08 23.26L28.37 22.17C28.02 21.64 27.77 21.22 27.56 20.78C25.67 16.97 25.5 12.77 27.02 8.69Z" fill="#434343" fill-opacity="1.000000" fill-rule="nonzero"/>
		<path d="M30.91 10.68C31.23 10.3 31.8 10.26 32.17 10.58C32.53 10.89 32.58 11.42 32.33 11.82C31.65 12.93 31.41 14.15 31.97 16.39C31.99 16.46 32.01 16.53 32.04 16.59C32.26 17.11 31.97 17.71 31.43 17.86C30.93 17.99 30.42 17.69 30.3 17.2C29.63 14.56 29.59 13.34 30.45 11.3C30.5 11.19 30.57 11.08 30.65 10.99L30.91 10.68Z" fill="#F85E77" fill-opacity="1.000000" fill-rule="nonzero"/>
	</g>
</svg>
