<svg width="40.000000" height="40.000000" viewBox="0 0 40 40" fill="none" xmlns="http://www.w3.org/2000/svg" xmlns:xlink="http://www.w3.org/1999/xlink">
	<desc>
			Created with Pixso.
	</desc>
	<defs>
		<clipPath id="clip157_397">
			<rect width="40.000000" height="40.000000" fill="white" fill-opacity="0"/>
		</clipPath>
	</defs>
	<g clip-path="url(#clip157_397)">
		<path d="M24 20C24 20.26 24.01 20.52 24.03 20.78C24.06 21.04 24.1 21.3 24.15 21.56C24.2 21.81 24.26 22.07 24.34 22.32C24.42 22.57 24.5 22.81 24.6 23.06C24.7 23.3 24.82 23.54 24.94 23.77C25.06 24 25.2 24.22 25.34 24.44C25.49 24.66 25.64 24.87 25.81 25.07C25.98 25.27 26.15 25.47 26.34 25.65C26.52 25.84 26.72 26.01 26.92 26.18C27.12 26.35 27.33 26.5 27.55 26.65C27.77 26.79 27.99 26.93 28.22 27.05C28.45 27.17 28.69 27.29 28.93 27.39C29.18 27.49 29.42 27.57 29.67 27.65C29.92 27.73 30.18 27.79 30.43 27.84C30.69 27.89 30.95 27.93 31.21 27.96C31.47 27.98 31.73 28 32 28C32.26 28 32.52 27.98 32.78 27.96C33.04 27.93 33.3 27.89 33.56 27.84C33.81 27.79 34.07 27.73 34.32 27.65C34.57 27.57 34.81 27.49 35.06 27.39C35.3 27.29 35.54 27.17 35.77 27.05C36 26.93 36.22 26.79 36.44 26.65C36.66 26.5 36.87 26.35 37.07 26.18C37.27 26.01 37.47 25.84 37.65 25.65C37.84 25.47 38.01 25.27 38.18 25.07C38.35 24.87 38.5 24.66 38.65 24.44C38.79 24.22 38.93 24 39.05 23.77C39.17 23.54 39.29 23.3 39.39 23.06C39.49 22.81 39.57 22.57 39.65 22.32C39.73 22.07 39.79 21.81 39.84 21.56C39.89 21.3 39.93 21.04 39.96 20.78C39.98 20.52 40 20.26 40 20C40 19.73 39.98 19.47 39.96 19.21C39.93 18.95 39.89 18.69 39.84 18.43C39.79 18.18 39.73 17.92 39.65 17.67C39.57 17.42 39.49 17.18 39.39 16.93C39.29 16.69 39.17 16.45 39.05 16.22C38.93 15.99 38.79 15.77 38.65 15.55C38.5 15.33 38.35 15.12 38.18 14.92C38.01 14.72 37.84 14.52 37.65 14.34C37.47 14.15 37.27 13.98 37.07 13.81C36.87 13.64 36.66 13.49 36.44 13.34C36.22 13.2 36 13.06 35.77 12.94C35.54 12.82 35.3 12.7 35.06 12.6C34.81 12.5 34.57 12.42 34.32 12.34C34.07 12.26 33.81 12.2 33.56 12.15C33.3 12.1 33.04 12.06 32.78 12.03C32.52 12.01 32.26 12 32 12C31.73 12 31.47 12.01 31.21 12.03C30.95 12.06 30.69 12.1 30.43 12.15C30.18 12.2 29.92 12.26 29.67 12.34C29.42 12.42 29.18 12.5 28.93 12.6C28.69 12.7 28.45 12.82 28.22 12.94C27.99 13.06 27.77 13.2 27.55 13.34C27.33 13.49 27.12 13.64 26.92 13.81C26.72 13.98 26.52 14.15 26.34 14.34C26.15 14.52 25.98 14.72 25.81 14.92C25.64 15.12 25.49 15.33 25.34 15.55C25.2 15.77 25.06 15.99 24.94 16.22C24.82 16.45 24.7 16.69 24.6 16.93C24.5 17.18 24.42 17.42 24.34 17.67C24.26 17.92 24.2 18.18 24.15 18.43C24.1 18.69 24.06 18.95 24.03 19.21C24.01 19.47 24 19.73 24 20Z" fill="#F85E77" fill-opacity="0.100000" fill-rule="nonzero"/>
		<path d="M19.12 21.25L19.12 19.5C19.12 19.44 19.13 19.38 19.14 19.32C19.15 19.27 19.16 19.21 19.19 19.16C19.21 19.11 19.24 19.06 19.27 19.01C19.3 18.96 19.34 18.92 19.38 18.88C19.42 18.83 19.46 18.8 19.51 18.77C19.56 18.73 19.61 18.71 19.66 18.69C19.71 18.66 19.77 18.65 19.82 18.64C19.88 18.62 19.94 18.62 20 18.62C20.05 18.62 20.11 18.62 20.17 18.64C20.22 18.65 20.28 18.66 20.33 18.69C20.38 18.71 20.43 18.73 20.48 18.77C20.53 18.8 20.57 18.83 20.61 18.88C20.65 18.92 20.69 18.96 20.72 19.01C20.75 19.06 20.78 19.11 20.8 19.16C20.83 19.21 20.84 19.27 20.85 19.32C20.86 19.38 20.87 19.44 20.87 19.5L20.87 21.25L22.62 21.25C22.68 21.25 22.73 21.25 22.79 21.26C22.85 21.27 22.9 21.29 22.95 21.31C23.01 21.33 23.06 21.36 23.11 21.39C23.15 21.42 23.2 21.46 23.24 21.5C23.28 21.54 23.32 21.59 23.35 21.63C23.38 21.68 23.41 21.73 23.43 21.79C23.45 21.84 23.47 21.89 23.48 21.95C23.49 22.01 23.5 22.06 23.5 22.12C23.5 22.18 23.49 22.23 23.48 22.29C23.47 22.35 23.45 22.4 23.43 22.45C23.41 22.51 23.38 22.56 23.35 22.61C23.32 22.65 23.28 22.7 23.24 22.74C23.2 22.78 23.15 22.82 23.11 22.85C23.06 22.88 23.01 22.91 22.95 22.93C22.9 22.95 22.85 22.97 22.79 22.98C22.73 22.99 22.68 23 22.62 23L20.87 23L20.87 24.75C20.87 24.8 20.86 24.86 20.85 24.92C20.84 24.97 20.83 25.03 20.8 25.08C20.78 25.13 20.75 25.18 20.72 25.23C20.69 25.28 20.65 25.32 20.61 25.36C20.57 25.4 20.53 25.44 20.48 25.47C20.43 25.51 20.38 25.53 20.33 25.55C20.28 25.58 20.22 25.59 20.17 25.6C20.11 25.62 20.05 25.62 20 25.62C19.94 25.62 19.88 25.62 19.82 25.6C19.77 25.59 19.71 25.58 19.66 25.55C19.61 25.53 19.56 25.51 19.51 25.47C19.46 25.44 19.42 25.4 19.38 25.36C19.34 25.32 19.3 25.28 19.27 25.23C19.24 25.18 19.21 25.13 19.19 25.08C19.16 25.03 19.15 24.97 19.14 24.92C19.13 24.86 19.12 24.8 19.12 24.75L19.12 23L17.37 23C17.31 23 17.26 22.99 17.2 22.98C17.14 22.97 17.09 22.95 17.04 22.93C16.98 22.91 16.93 22.88 16.88 22.85C16.84 22.82 16.79 22.78 16.75 22.74C16.71 22.7 16.67 22.65 16.64 22.61C16.61 22.56 16.58 22.51 16.56 22.45C16.54 22.4 16.52 22.35 16.51 22.29C16.5 22.23 16.5 22.18 16.5 22.12C16.5 22.06 16.5 22.01 16.51 21.95C16.52 21.89 16.54 21.84 16.56 21.79C16.58 21.73 16.61 21.68 16.64 21.63C16.67 21.59 16.71 21.54 16.75 21.5C16.79 21.46 16.84 21.42 16.88 21.39C16.93 21.36 16.98 21.33 17.04 21.31C17.09 21.29 17.14 21.27 17.2 21.26C17.26 21.25 17.31 21.25 17.37 21.25L19.12 21.25ZM20 33.5C19.15 33.5 18.31 33.11 17.47 32.23L8.16 22.35C7.05 20.89 6 19.51 6 16.84C6 12.51 9.34 9 13.46 9C15.01 9 16.5 9.49 17.76 10.42C18.18 10.73 18.28 11.35 17.98 11.79C17.95 11.84 17.91 11.89 17.87 11.93C17.82 11.98 17.78 12.02 17.72 12.05C17.67 12.08 17.62 12.11 17.56 12.14C17.5 12.16 17.44 12.18 17.38 12.19C17.32 12.2 17.26 12.2 17.2 12.2C17.14 12.2 17.08 12.19 17.02 12.18C16.96 12.17 16.9 12.14 16.84 12.12C16.78 12.09 16.73 12.06 16.68 12.02C16.45 11.85 16.21 11.7 15.95 11.57C15.7 11.43 15.43 11.32 15.16 11.23C14.89 11.14 14.61 11.07 14.32 11.02C14.04 10.98 13.75 10.95 13.46 10.96C10.37 10.96 7.86 13.59 7.86 16.84C7.86 18.72 8.45 19.59 9.59 21.08L18.79 30.85C19.26 31.34 19.63 31.53 20 31.54C20.37 31.54 20.72 31.35 21.2 30.84L30.44 21.05C31.2 20.18 32.13 18.73 32.13 16.84C32.13 13.59 29.62 10.96 26.53 10.96C26.18 10.96 25.83 10.99 25.49 11.06C25.15 11.13 24.81 11.23 24.49 11.36C24.17 11.49 23.86 11.65 23.56 11.84C23.27 12.03 23 12.25 22.75 12.5L18.84 16.6C18.8 16.65 18.75 16.69 18.7 16.72C18.65 16.76 18.6 16.79 18.54 16.81C18.48 16.84 18.42 16.86 18.36 16.87C18.3 16.88 18.24 16.89 18.18 16.89C18.12 16.89 18.06 16.88 18 16.87C17.94 16.86 17.88 16.84 17.82 16.81C17.76 16.79 17.71 16.76 17.66 16.72C17.61 16.69 17.56 16.65 17.52 16.6C17.48 16.56 17.44 16.51 17.4 16.45C17.37 16.4 17.34 16.34 17.32 16.28C17.29 16.22 17.28 16.16 17.27 16.1C17.25 16.04 17.25 15.97 17.25 15.91C17.25 15.85 17.25 15.78 17.27 15.72C17.28 15.66 17.29 15.6 17.32 15.54C17.34 15.48 17.37 15.42 17.4 15.37C17.44 15.31 17.48 15.26 17.52 15.22L21.46 11.08C22.87 9.72 24.66 9 26.53 9C30.65 9 34 12.51 34 16.84C34 19.36 32.79 21.25 31.79 22.4L22.53 32.22C21.69 33.11 20.84 33.5 20 33.5Z" fill="#333333" fill-opacity="1.000000" fill-rule="nonzero"/>
		<path d="M19.12 19.5C19.12 19.44 19.13 19.38 19.14 19.32C19.15 19.27 19.16 19.21 19.19 19.16C19.21 19.11 19.24 19.06 19.27 19.01C19.3 18.96 19.34 18.92 19.38 18.88C19.42 18.83 19.46 18.8 19.51 18.77C19.56 18.73 19.61 18.71 19.66 18.69C19.71 18.66 19.77 18.65 19.82 18.64C19.88 18.62 19.94 18.62 20 18.62C20.05 18.62 20.11 18.62 20.17 18.64C20.22 18.65 20.28 18.66 20.33 18.69C20.38 18.71 20.43 18.73 20.48 18.77C20.53 18.8 20.57 18.83 20.61 18.88C20.65 18.92 20.69 18.96 20.72 19.01C20.75 19.06 20.78 19.11 20.8 19.16C20.83 19.21 20.84 19.27 20.85 19.32C20.86 19.38 20.87 19.44 20.87 19.5L20.87 21.25L22.62 21.25C22.68 21.25 22.73 21.25 22.79 21.26C22.85 21.27 22.9 21.29 22.95 21.31C23.01 21.33 23.06 21.36 23.11 21.39C23.15 21.42 23.2 21.46 23.24 21.5C23.28 21.54 23.32 21.59 23.35 21.63C23.38 21.68 23.41 21.73 23.43 21.79C23.45 21.84 23.47 21.89 23.48 21.95C23.49 22.01 23.5 22.06 23.5 22.12C23.5 22.18 23.49 22.23 23.48 22.29C23.47 22.35 23.45 22.4 23.43 22.45C23.41 22.51 23.38 22.56 23.35 22.61C23.32 22.65 23.28 22.7 23.24 22.74C23.2 22.78 23.15 22.82 23.11 22.85C23.06 22.88 23.01 22.91 22.95 22.93C22.9 22.95 22.85 22.97 22.79 22.98C22.73 22.99 22.68 23 22.62 23L20.87 23L20.87 24.75C20.87 24.8 20.86 24.86 20.85 24.92C20.84 24.97 20.83 25.03 20.8 25.08C20.78 25.13 20.75 25.18 20.72 25.23C20.69 25.28 20.65 25.32 20.61 25.36C20.57 25.4 20.53 25.44 20.48 25.47C20.43 25.51 20.38 25.53 20.33 25.55C20.28 25.58 20.22 25.59 20.17 25.6C20.11 25.62 20.05 25.62 20 25.62C19.94 25.62 19.88 25.62 19.82 25.6C19.77 25.59 19.71 25.58 19.66 25.55C19.61 25.53 19.56 25.51 19.51 25.47C19.46 25.44 19.42 25.4 19.38 25.36C19.34 25.32 19.3 25.28 19.27 25.23C19.24 25.18 19.21 25.13 19.19 25.08C19.16 25.03 19.15 24.97 19.14 24.92C19.13 24.86 19.12 24.8 19.12 24.75L19.12 23L17.37 23C17.31 23 17.26 22.99 17.2 22.98C17.14 22.97 17.09 22.95 17.04 22.93C16.98 22.91 16.93 22.88 16.88 22.85C16.84 22.82 16.79 22.78 16.75 22.74C16.71 22.7 16.67 22.65 16.64 22.61C16.61 22.56 16.58 22.51 16.56 22.45C16.54 22.4 16.52 22.35 16.51 22.29C16.5 22.23 16.5 22.18 16.5 22.12C16.5 22.06 16.5 22.01 16.51 21.95C16.52 21.89 16.54 21.84 16.56 21.79C16.58 21.73 16.61 21.68 16.64 21.63C16.67 21.59 16.71 21.54 16.75 21.5C16.79 21.46 16.84 21.42 16.88 21.39C16.93 21.36 16.98 21.33 17.04 21.31C17.09 21.29 17.14 21.27 17.2 21.26C17.26 21.25 17.31 21.25 17.37 21.25L19.12 21.25L19.12 19.5ZM17.47 32.23L8.16 22.35C7.05 20.89 6 19.51 6 16.84C6 12.51 9.34 9 13.46 9C15.01 9 16.5 9.49 17.76 10.42C18.18 10.73 18.28 11.35 17.98 11.79C17.95 11.84 17.91 11.89 17.87 11.93C17.82 11.98 17.78 12.02 17.72 12.05C17.67 12.08 17.62 12.11 17.56 12.14C17.5 12.16 17.44 12.18 17.38 12.19C17.32 12.2 17.26 12.2 17.2 12.2C17.14 12.2 17.08 12.19 17.02 12.18C16.96 12.17 16.9 12.14 16.84 12.12C16.78 12.09 16.73 12.06 16.68 12.02C16.45 11.85 16.21 11.7 15.95 11.57C15.7 11.43 15.43 11.32 15.16 11.23C14.89 11.14 14.61 11.07 14.32 11.02C14.04 10.98 13.75 10.95 13.46 10.96C10.37 10.96 7.86 13.59 7.86 16.84C7.86 18.72 8.45 19.59 9.59 21.08L18.79 30.85C19.26 31.34 19.63 31.53 20 31.54C20.37 31.54 20.72 31.35 21.2 30.84L30.44 21.05C31.2 20.18 32.13 18.73 32.13 16.84C32.13 13.59 29.62 10.96 26.53 10.96C26.18 10.96 25.83 10.99 25.49 11.06C25.15 11.13 24.81 11.23 24.49 11.36C24.17 11.49 23.86 11.65 23.56 11.84C23.27 12.03 23 12.25 22.75 12.5L18.84 16.6C18.8 16.65 18.75 16.69 18.7 16.72C18.65 16.76 18.6 16.79 18.54 16.81C18.48 16.84 18.42 16.86 18.36 16.87C18.3 16.88 18.24 16.89 18.18 16.89C18.12 16.89 18.06 16.88 18 16.87C17.94 16.86 17.88 16.84 17.82 16.81C17.76 16.79 17.71 16.76 17.66 16.72C17.61 16.69 17.56 16.65 17.52 16.6C17.48 16.56 17.44 16.51 17.4 16.45C17.37 16.4 17.34 16.34 17.32 16.28C17.29 16.22 17.28 16.16 17.27 16.1C17.25 16.04 17.25 15.97 17.25 15.91C17.25 15.85 17.25 15.78 17.27 15.72C17.28 15.66 17.29 15.6 17.32 15.54C17.34 15.48 17.37 15.42 17.4 15.37C17.44 15.31 17.48 15.26 17.52 15.22L21.46 11.08C22.87 9.72 24.66 9 26.53 9C30.65 9 34 12.51 34 16.84C34 19.36 32.79 21.25 31.79 22.4L22.53 32.22C21.69 33.11 20.84 33.5 20 33.5C19.15 33.5 18.31 33.11 17.47 32.23Z" stroke="#FFFFFF" stroke-opacity="0" stroke-width="0.500000"/>
		<path d="M19.12 21.25L19.12 19.5C19.12 19.44 19.13 19.38 19.14 19.32C19.15 19.27 19.16 19.21 19.19 19.16C19.21 19.11 19.24 19.06 19.27 19.01C19.3 18.96 19.34 18.92 19.38 18.88C19.42 18.83 19.46 18.8 19.51 18.77C19.56 18.73 19.61 18.71 19.66 18.69C19.71 18.66 19.77 18.65 19.82 18.64C19.88 18.62 19.94 18.62 20 18.62C20.05 18.62 20.11 18.62 20.17 18.64C20.22 18.65 20.28 18.66 20.33 18.69C20.38 18.71 20.43 18.73 20.48 18.77C20.53 18.8 20.57 18.83 20.61 18.88C20.65 18.92 20.69 18.96 20.72 19.01C20.75 19.06 20.78 19.11 20.8 19.16C20.83 19.21 20.84 19.27 20.85 19.32C20.86 19.38 20.87 19.44 20.87 19.5L20.87 21.25L22.62 21.25C22.68 21.25 22.73 21.25 22.79 21.26C22.85 21.27 22.9 21.29 22.95 21.31C23.01 21.33 23.06 21.36 23.11 21.39C23.15 21.42 23.2 21.46 23.24 21.5C23.28 21.54 23.32 21.59 23.35 21.63C23.38 21.68 23.41 21.73 23.43 21.79C23.45 21.84 23.47 21.89 23.48 21.95C23.49 22.01 23.5 22.06 23.5 22.12C23.5 22.18 23.49 22.23 23.48 22.29C23.47 22.35 23.45 22.4 23.43 22.45C23.41 22.51 23.38 22.56 23.35 22.61C23.32 22.65 23.28 22.7 23.24 22.74C23.2 22.78 23.15 22.82 23.11 22.85C23.06 22.88 23.01 22.91 22.95 22.93C22.9 22.95 22.85 22.97 22.79 22.98C22.73 22.99 22.68 23 22.62 23L20.87 23L20.87 24.75C20.87 24.8 20.86 24.86 20.85 24.92C20.84 24.97 20.83 25.03 20.8 25.08C20.78 25.13 20.75 25.18 20.72 25.23C20.69 25.28 20.65 25.32 20.61 25.36C20.57 25.4 20.53 25.44 20.48 25.47C20.43 25.51 20.38 25.53 20.33 25.55C20.28 25.58 20.22 25.59 20.17 25.6C20.11 25.62 20.05 25.62 20 25.62C19.94 25.62 19.88 25.62 19.82 25.6C19.77 25.59 19.71 25.58 19.66 25.55C19.61 25.53 19.56 25.51 19.51 25.47C19.46 25.44 19.42 25.4 19.38 25.36C19.34 25.32 19.3 25.28 19.27 25.23C19.24 25.18 19.21 25.13 19.19 25.08C19.16 25.03 19.15 24.97 19.14 24.92C19.13 24.86 19.12 24.8 19.12 24.75L19.12 23L17.37 23C17.31 23 17.26 22.99 17.2 22.98C17.14 22.97 17.09 22.95 17.04 22.93C16.98 22.91 16.93 22.88 16.88 22.85C16.84 22.82 16.79 22.78 16.75 22.74C16.71 22.7 16.67 22.65 16.64 22.61C16.61 22.56 16.58 22.51 16.56 22.45C16.54 22.4 16.52 22.35 16.51 22.29C16.5 22.23 16.5 22.18 16.5 22.12C16.5 22.06 16.5 22.01 16.51 21.95C16.52 21.89 16.54 21.84 16.56 21.79C16.58 21.73 16.61 21.68 16.64 21.63C16.67 21.59 16.71 21.54 16.75 21.5C16.79 21.46 16.84 21.42 16.88 21.39C16.93 21.36 16.98 21.33 17.04 21.31C17.09 21.29 17.14 21.27 17.2 21.26C17.26 21.25 17.31 21.25 17.37 21.25L19.12 21.25Z" fill="#F85E77" fill-opacity="1.000000" fill-rule="nonzero"/>
		<path d="M19.12 19.5C19.12 19.44 19.13 19.38 19.14 19.32C19.15 19.27 19.16 19.21 19.19 19.16C19.21 19.11 19.24 19.06 19.27 19.01C19.3 18.96 19.34 18.92 19.38 18.88C19.42 18.83 19.46 18.8 19.51 18.77C19.56 18.73 19.61 18.71 19.66 18.69C19.71 18.66 19.77 18.65 19.82 18.64C19.88 18.62 19.94 18.62 20 18.62C20.05 18.62 20.11 18.62 20.17 18.64C20.22 18.65 20.28 18.66 20.33 18.69C20.38 18.71 20.43 18.73 20.48 18.77C20.53 18.8 20.57 18.83 20.61 18.88C20.65 18.92 20.69 18.96 20.72 19.01C20.75 19.06 20.78 19.11 20.8 19.16C20.83 19.21 20.84 19.27 20.85 19.32C20.86 19.38 20.87 19.44 20.87 19.5L20.87 21.25L22.62 21.25C22.68 21.25 22.73 21.25 22.79 21.26C22.85 21.27 22.9 21.29 22.95 21.31C23.01 21.33 23.06 21.36 23.11 21.39C23.15 21.42 23.2 21.46 23.24 21.5C23.28 21.54 23.32 21.59 23.35 21.63C23.38 21.68 23.41 21.73 23.43 21.79C23.45 21.84 23.47 21.89 23.48 21.95C23.49 22.01 23.5 22.06 23.5 22.12C23.5 22.18 23.49 22.23 23.48 22.29C23.47 22.35 23.45 22.4 23.43 22.45C23.41 22.51 23.38 22.56 23.35 22.61C23.32 22.65 23.28 22.7 23.24 22.74C23.2 22.78 23.15 22.82 23.11 22.85C23.06 22.88 23.01 22.91 22.95 22.93C22.9 22.95 22.85 22.97 22.79 22.98C22.73 22.99 22.68 23 22.62 23L20.87 23L20.87 24.75C20.87 24.8 20.86 24.86 20.85 24.92C20.84 24.97 20.83 25.03 20.8 25.08C20.78 25.13 20.75 25.18 20.72 25.23C20.69 25.28 20.65 25.32 20.61 25.36C20.57 25.4 20.53 25.44 20.48 25.47C20.43 25.51 20.38 25.53 20.33 25.55C20.28 25.58 20.22 25.59 20.17 25.6C20.11 25.62 20.05 25.62 20 25.62C19.94 25.62 19.88 25.62 19.82 25.6C19.77 25.59 19.71 25.58 19.66 25.55C19.61 25.53 19.56 25.51 19.51 25.47C19.46 25.44 19.42 25.4 19.38 25.36C19.34 25.32 19.3 25.28 19.27 25.23C19.24 25.18 19.21 25.13 19.19 25.08C19.16 25.03 19.15 24.97 19.14 24.92C19.13 24.86 19.12 24.8 19.12 24.75L19.12 23L17.37 23C17.31 23 17.26 22.99 17.2 22.98C17.14 22.97 17.09 22.95 17.04 22.93C16.98 22.91 16.93 22.88 16.88 22.85C16.84 22.82 16.79 22.78 16.75 22.74C16.71 22.7 16.67 22.65 16.64 22.61C16.61 22.56 16.58 22.51 16.56 22.45C16.54 22.4 16.52 22.35 16.51 22.29C16.5 22.23 16.5 22.18 16.5 22.12C16.5 22.06 16.5 22.01 16.51 21.95C16.52 21.89 16.54 21.84 16.56 21.79C16.58 21.73 16.61 21.68 16.64 21.63C16.67 21.59 16.71 21.54 16.75 21.5C16.79 21.46 16.84 21.42 16.88 21.39C16.93 21.36 16.98 21.33 17.04 21.31C17.09 21.29 17.14 21.27 17.2 21.26C17.26 21.25 17.31 21.25 17.37 21.25L19.12 21.25L19.12 19.5Z" stroke="#FFFFFF" stroke-opacity="0" stroke-width="0.500000"/>
	</g>
</svg>
