<svg width="24.000000" height="24.000000" viewBox="0 0 24 24" fill="none" xmlns="http://www.w3.org/2000/svg" xmlns:xlink="http://www.w3.org/1999/xlink">
	<desc>
			Created with Pixso.
	</desc>
	<defs>
		<clipPath id="clip174_1735">
			<rect width="24.000000" height="24.000000" fill="white" fill-opacity="0"/>
		</clipPath>
	</defs>
	<g clip-path="url(#clip174_1735)">
		<path d="M15.35 14.38C17.02 11.4 17.61 8.54 17.61 8.54L17.32 8.54L14.75 8.54L12.07 8.54L12.07 6.51L18.63 6.51L18.63 5.62L12.07 5.62L12.07 2.46L9.09 2.46L9.09 5.62L3.13 5.62L3.13 6.51L9.09 6.51L9.09 8.6L3.97 8.6L3.97 9.49L14.28 9.49C14.28 9.67 14.28 9.67 14.1 9.79C14.1 10.86 13.32 12.35 12.73 13.54C5.1 10.56 2.9 12.35 2.3 12.65C-2.76 16.23 2 20.69 2.78 20.58C8.14 21.77 11.6 19.5 13.98 16.7C14.16 16.88 14.28 16.88 14.46 16.88C16.12 17.78 23.99 21.53 23.99 21.53L23.99 17.06C22.8 16.94 18.45 15.45 15.35 14.38ZM11.48 15.75C7.72 20.52 3.25 19.03 2.54 18.73C0.75 18.25 0.15 14.97 2.36 13.96C6.11 12.77 9.39 14.14 11.77 15.33C11.6 15.57 11.48 15.75 11.48 15.75Z" fill="#0A59F7" fill-opacity="1.000000" fill-rule="nonzero"/>
	</g>
</svg>
