<svg width="24.000000" height="24.000000" viewBox="0 0 24 24" fill="none" xmlns="http://www.w3.org/2000/svg" xmlns:xlink="http://www.w3.org/1999/xlink">
	<desc>
			Created with Pixso.
	</desc>
	<defs/>
	<circle cx="12.000000" cy="12.000000" r="12.000000" fill="#E54730" fill-opacity="1.000000"/>
	<path d="M11.27 7.15C12.21 7.15 12.98 6.44 12.98 5.57C12.98 4.7 12.21 4 11.27 4C10.32 4 9.56 4.7 9.56 5.57C9.56 6.44 10.32 7.15 11.27 7.15ZM13.91 16.08C13.45 17.54 12 18.61 10.28 18.61C8.19 18.61 6.5 17.04 6.5 15.12C6.5 13.7 7.43 12.47 8.76 11.93L8.76 10.45C6.58 11.06 5 12.92 5 15.12C5 17.81 7.37 20 10.28 20C12.4 20 14.23 18.83 15.07 17.16L14.47 16.08L13.91 16.08ZM18.89 17.95L16.6 13.8C16.43 13.49 16.08 13.3 15.7 13.3L12.77 13.3L12.77 12.68L15.29 12.68C15.41 12.68 15.52 12.65 15.63 12.6C15.74 12.55 15.82 12.48 15.89 12.38C15.98 12.27 16.05 12.14 16.05 11.98C16.05 11.6 15.71 11.29 15.29 11.29L12.77 11.29L12.77 9.2C12.77 8.62 12.31 7.81 11.27 7.81C10.44 7.81 9.76 8.43 9.76 9.2L9.76 13.73C9.76 14.51 10.45 15.15 11.3 15.15L15.09 15.15L17.1 18.79C17.27 19.12 17.63 19.3 17.99 19.3C18.15 19.3 18.3 19.27 18.45 19.2C18.94 18.97 19.14 18.41 18.89 17.95Z" fill="#FFFFFF" fill-opacity="1.000000" fill-rule="nonzero"/>
</svg>
