<svg width="16.000000" height="16.000000" viewBox="0 0 16 16" fill="none" xmlns="http://www.w3.org/2000/svg" xmlns:xlink="http://www.w3.org/1999/xlink">
	<desc>
			Created with Pixso.
	</desc>
	<defs>
		<clipPath id="clip63_1299">
			<rect width="16.000000" height="16.000000" fill="white" fill-opacity="0"/>
		</clipPath>
	</defs>
	<g clip-path="url(#clip63_1299)">
		<g opacity="0.000000">
			<rect width="16.000000" height="16.000000" fill="#D8D8D8" fill-opacity="1.000000"/>
			<rect width="16.000000" height="16.000000" stroke="#000000" stroke-opacity="0" stroke-width="1.000000"/>
		</g>
		<path d="M7.27 2C7.86 1.93 8.39 2.38 8.44 2.97L8.45 3.05L8.44 7.79L9.98 9.33C10.14 9.49 10.16 9.74 10.03 9.92C9.87 10.08 9.58 10.14 9.4 10.01L7.68 8.3C7.61 8.23 7.57 8.14 7.55 8.05L7.55 7.98L7.55 3.05C7.55 2.96 7.46 2.89 7.37 2.9C4.83 3.21 2.9 5.38 2.9 7.98C2.9 10.86 5.26 13.17 8.14 13.09C10.83 13.02 13.06 10.73 13.09 8.04C13.12 5.7 11.58 3.67 9.37 3.05C9.14 2.98 9 2.73 9.06 2.49C9.13 2.25 9.38 2.11 9.62 2.18C12.21 2.91 14.03 5.3 13.99 8.05C13.96 11.23 11.34 13.91 8.16 13.99C4.78 14.09 2 11.36 2 7.98C2 4.93 4.27 2.37 7.27 2Z" fill="#000000" fill-opacity="0.600000" fill-rule="evenodd"/>
		<path d="M8.44 2.97L8.45 3.05L8.44 7.79L9.98 9.33C10.14 9.49 10.16 9.74 10.03 9.92C9.87 10.08 9.58 10.14 9.4 10.01L7.68 8.3C7.61 8.23 7.57 8.14 7.55 8.05L7.55 7.98L7.55 3.05C7.55 2.96 7.46 2.89 7.37 2.9C4.83 3.21 2.9 5.38 2.9 7.98C2.9 10.86 5.26 13.17 8.14 13.09C10.83 13.02 13.06 10.73 13.09 8.04C13.12 5.7 11.58 3.67 9.37 3.05C9.14 2.98 9 2.73 9.06 2.49C9.13 2.25 9.38 2.11 9.62 2.18C12.21 2.91 14.03 5.3 13.99 8.05C13.96 11.23 11.34 13.91 8.16 13.99C4.78 14.09 2 11.36 2 7.98C2 4.93 4.27 2.37 7.27 2C7.86 1.93 8.39 2.38 8.44 2.97Z" stroke="#000000" stroke-opacity="0" stroke-width="1.000000"/>
	</g>
</svg>
