<svg width="32.000000" height="32.000000" viewBox="0 0 32 32" fill="none" xmlns="http://www.w3.org/2000/svg" xmlns:xlink="http://www.w3.org/1999/xlink">
	<desc>
			Created with Pixso.
	</desc>
	<defs/>
	<circle cx="16.000000" cy="16.000000" r="16.000000" fill="#FE4F35" fill-opacity="0.100000"/>
	<path d="M16 7.68C19.04 7.68 21.8 9.33 23.26 11.94C23.8 12.91 24.14 13.97 24.26 15.08L24.27 15.21C24.3 15.34 24.31 15.47 24.31 15.61L24.31 16.48C24.31 18.54 22.64 20.21 20.58 20.21C20.23 20.21 19.95 19.93 19.95 19.59L19.95 15.23C19.95 14.24 20.75 13.43 21.74 13.43L22.13 13.43C22.29 13.43 22.45 13.45 22.6 13.48C22.48 13.16 22.34 12.85 22.17 12.55C20.92 10.33 18.58 8.93 16 8.93C12.97 8.93 10.4 10.82 9.39 13.49C9.54 13.46 9.7 13.44 9.86 13.44L10.25 13.44C11.24 13.44 12.04 14.24 12.04 15.23L12.04 19.59C12.04 19.94 11.76 20.22 11.41 20.22C10.98 20.22 10.56 20.15 10.18 20.01C11.12 21.37 12.52 22.38 14.16 22.82C14.13 22.7 14.12 22.57 14.12 22.44C14.12 21.4 14.96 20.56 16 20.56C17.03 20.56 17.87 21.4 17.87 22.44C17.87 23.47 17.03 24.31 16 24.31C11.9 24.31 8.5 21.35 7.81 17.46C7.72 17.15 7.68 16.82 7.68 16.49L7.68 15.62C7.68 15.48 7.69 15.35 7.71 15.22C8.1 10.99 11.66 7.68 16 7.68Z" fill="#FE4F35" fill-opacity="1.000000" fill-rule="evenodd"/>
	<path d="M14 22.5C14 21.11 15.11 20 16.5 20C17.88 20 19 21.11 19 22.5C19 23.88 17.88 25 16.5 25C15.11 25 14 23.88 14 22.5Z" fill="#FFCCC4" fill-opacity="1.000000" fill-rule="evenodd"/>
</svg>
