<svg width="24.000000" height="24.000000" viewBox="0 0 24 24" fill="none" xmlns="http://www.w3.org/2000/svg" xmlns:xlink="http://www.w3.org/1999/xlink">
	<desc>
			Created with Pixso.
	</desc>
	<defs/>
	<circle cx="12.000000" cy="12.000000" r="12.000000" fill="#E54730" fill-opacity="1.000000"/>
	<path d="M17.05 7.32L14.52 7.32L14.52 5.68C14.51 5.22 14.13 4.86 13.68 4.87L10.3 4.87C9.84 4.86 9.46 5.22 9.45 5.68L9.45 7.32L6.92 7.32C6 7.31 5.24 8.04 5.23 8.96L5.23 15.51C5.24 16.43 6 17.16 6.92 17.15L17.05 17.15C17.97 17.16 18.73 16.43 18.74 15.51L18.74 8.96C18.73 8.04 17.97 7.31 17.05 7.32ZM10.3 5.68L13.68 5.68L13.68 7.32L10.3 7.32L10.3 5.68ZM15.37 13.06L12.83 13.06L12.83 15.51L11.14 15.51L11.14 13.06L8.61 13.06L8.61 11.42L11.14 11.42L11.14 8.96L12.83 8.96L12.83 11.42L15.37 11.42L15.37 13.06Z" fill="#FFFFFF" fill-opacity="1.000000" fill-rule="nonzero"/>
</svg>
