<svg width="16.000000" height="16.000000" viewBox="0 0 16 16" fill="none" xmlns="http://www.w3.org/2000/svg" xmlns:xlink="http://www.w3.org/1999/xlink">
	<desc>
			Created with Pixso.
	</desc>
	<defs>
		<clipPath id="clip174_1775">
			<rect width="16.000000" height="16.000000" fill="white" fill-opacity="0"/>
		</clipPath>
	</defs>
	<g clip-path="url(#clip174_1775)">
		<g opacity="0.000000">
			<rect width="16.000000" height="16.000000" fill="#D8D8D8" fill-opacity="1.000000"/>
			<rect width="16.000000" height="16.000000" stroke="#000000" stroke-opacity="0" stroke-width="1.000000"/>
		</g>
		<path d="M12 2C13.1 2 14 2.89 14 4C14 5.1 13.1 6 12 6C11.62 6 11.28 5.89 10.98 5.72L5.72 10.98C5.81 11.14 5.88 11.31 5.93 11.49L10.06 11.49C10.28 10.63 11.06 10 12 10C13.1 10 14 10.89 14 12C14 13.1 13.1 14 12 14C11.06 14 10.28 13.36 10.06 12.5L5.93 12.5C5.71 13.36 4.93 14 4 14C2.89 14 2 13.1 2 12C2 10.89 2.89 10 4 10C4.37 10 4.71 10.1 5.01 10.27L10.27 5.01C10.18 4.85 10.11 4.68 10.06 4.5L5.93 4.5C5.71 5.36 4.93 6 4 6C2.89 6 2 5.1 2 4C2 2.89 2.89 2 4 2C4.93 2 5.71 2.63 5.93 3.49L10.06 3.49C10.28 2.63 11.06 2 12 2ZM4 11C3.44 11 3 11.44 3 12C3 12.55 3.44 13 4 13C4.55 13 5 12.55 5 12C5 11.44 4.55 11 4 11ZM12 11C11.44 11 11 11.44 11 12C11 12.55 11.44 13 12 13C12.55 13 13 12.55 13 12C13 11.44 12.55 11 12 11ZM4 3C3.44 3 3 3.44 3 4C3 4.55 3.44 5 4 5C4.55 5 5 4.55 5 4C5 3.44 4.55 3 4 3ZM12 3C11.44 3 11 3.44 11 4C11 4.55 11.44 5 12 5C12.55 5 13 4.55 13 4C13 3.44 12.55 3 12 3Z" fill="#000000" fill-opacity="0.600000" fill-rule="evenodd"/>
		<path d="M14 4C14 5.1 13.1 6 12 6C11.62 6 11.28 5.89 10.98 5.72L5.72 10.98C5.81 11.14 5.88 11.31 5.93 11.49L10.06 11.49C10.28 10.63 11.06 10 12 10C13.1 10 14 10.89 14 12C14 13.1 13.1 14 12 14C11.06 14 10.28 13.36 10.06 12.5L5.93 12.5C5.71 13.36 4.93 14 4 14C2.89 14 2 13.1 2 12C2 10.89 2.89 10 4 10C4.37 10 4.71 10.1 5.01 10.27L10.27 5.01C10.18 4.85 10.11 4.68 10.06 4.5L5.93 4.5C5.71 5.36 4.93 6 4 6C2.89 6 2 5.1 2 4C2 2.89 2.89 2 4 2C4.93 2 5.71 2.63 5.93 3.49L10.06 3.49C10.28 2.63 11.06 2 12 2C13.1 2 14 2.89 14 4ZM3 12C3 12.55 3.44 13 4 13C4.55 13 5 12.55 5 12C5 11.44 4.55 11 4 11C3.44 11 3 11.44 3 12ZM11 12C11 12.55 11.44 13 12 13C12.55 13 13 12.55 13 12C13 11.44 12.55 11 12 11C11.44 11 11 11.44 11 12ZM3 4C3 4.55 3.44 5 4 5C4.55 5 5 4.55 5 4C5 3.44 4.55 3 4 3C3.44 3 3 3.44 3 4ZM11 4C11 4.55 11.44 5 12 5C12.55 5 13 4.55 13 4C13 3.44 12.55 3 12 3C11.44 3 11 3.44 11 4Z" stroke="#000000" stroke-opacity="0" stroke-width="1.000000"/>
	</g>
</svg>
