<svg width="24.000000" height="24.000000" viewBox="0 0 24 24" fill="none" xmlns="http://www.w3.org/2000/svg" xmlns:xlink="http://www.w3.org/1999/xlink">
	<desc>
			Created with Pixso.
	</desc>
	<defs>
		<clipPath id="clip186_2571">
			<rect width="24.000000" height="24.000000" fill="white" fill-opacity="0"/>
		</clipPath>
	</defs>
	<g clip-path="url(#clip186_2571)">
		<path d="M0.75 11.99C0.75 10.23 0.74 8.47 0.75 6.71C0.74 5.86 0.85 5.02 1.06 4.19C1.52 2.45 2.66 1.41 4.4 1.01C5.27 0.82 6.16 0.73 7.06 0.75C10.43 0.75 13.8 0.75 17.17 0.75C18.02 0.74 18.87 0.84 19.7 1.04C21.49 1.48 22.57 2.61 22.98 4.4C23.17 5.25 23.25 6.11 23.24 6.98C23.24 10.38 23.24 13.79 23.24 17.2C23.25 18.04 23.15 18.88 22.96 19.7C22.52 21.5 21.37 22.57 19.58 22.98C18.71 23.17 17.82 23.26 16.92 23.24C13.57 23.24 10.21 23.24 6.86 23.24C6 23.25 5.14 23.15 4.31 22.96C2.5 22.52 1.42 21.38 1.01 19.58C0.8 18.66 0.75 17.75 0.75 16.82C0.75 15.21 0.75 13.6 0.75 11.99Z" fill="#FFFFFF" fill-opacity="0" fill-rule="nonzero"/>
		<path d="M0.75 6.71C0.74 5.86 0.85 5.02 1.06 4.19C1.52 2.45 2.66 1.41 4.4 1.01C5.27 0.82 6.16 0.73 7.06 0.75C10.43 0.75 13.8 0.75 17.17 0.75C18.02 0.74 18.87 0.84 19.7 1.04C21.49 1.48 22.57 2.61 22.98 4.4C23.17 5.25 23.25 6.11 23.24 6.98C23.24 10.38 23.24 13.79 23.24 17.2C23.25 18.04 23.15 18.88 22.96 19.7C22.52 21.5 21.37 22.57 19.58 22.98C18.71 23.17 17.82 23.26 16.92 23.24C13.57 23.24 10.21 23.24 6.86 23.24C6 23.25 5.14 23.15 4.31 22.96C2.5 22.52 1.42 21.38 1.01 19.58C0.8 18.66 0.75 17.75 0.75 16.82C0.75 15.21 0.75 13.6 0.75 11.99C0.75 10.23 0.74 8.47 0.75 6.71Z" stroke="#FFFFFF" stroke-opacity="0" stroke-width="1.500000"/>
		<g opacity="0.200000">
			<path d="M0.75 11.99C0.75 10.23 0.74 8.47 0.75 6.71C0.74 5.86 0.85 5.02 1.06 4.19C1.52 2.45 2.66 1.41 4.4 1.01C5.27 0.82 6.16 0.73 7.06 0.75C10.43 0.75 13.8 0.75 17.17 0.75C18.02 0.74 18.87 0.84 19.7 1.04C21.49 1.48 22.57 2.61 22.98 4.4C23.17 5.25 23.25 6.11 23.24 6.98C23.24 10.38 23.24 13.79 23.24 17.2C23.25 18.04 23.15 18.88 22.96 19.7C22.52 21.5 21.37 22.57 19.58 22.98C18.71 23.17 17.82 23.26 16.92 23.24C13.57 23.24 10.21 23.24 6.86 23.24C6 23.25 5.14 23.15 4.31 22.96C2.5 22.52 1.42 21.38 1.01 19.58C0.8 18.66 0.75 17.75 0.75 16.82C0.75 15.21 0.75 13.6 0.75 11.99Z" fill="#000000" fill-opacity="0" fill-rule="nonzero"/>
			<path d="M0.75 6.71C0.74 5.86 0.85 5.02 1.06 4.19C1.52 2.45 2.66 1.41 4.4 1.01C5.27 0.82 6.16 0.73 7.06 0.75C10.43 0.75 13.8 0.75 17.17 0.75C18.02 0.74 18.87 0.84 19.7 1.04C21.49 1.48 22.57 2.61 22.98 4.4C23.17 5.25 23.25 6.11 23.24 6.98C23.24 10.38 23.24 13.79 23.24 17.2C23.25 18.04 23.15 18.88 22.96 19.7C22.52 21.5 21.37 22.57 19.58 22.98C18.71 23.17 17.82 23.26 16.92 23.24C13.57 23.24 10.21 23.24 6.86 23.24C6 23.25 5.14 23.15 4.31 22.96C2.5 22.52 1.42 21.38 1.01 19.58C0.8 18.66 0.75 17.75 0.75 16.82C0.75 15.21 0.75 13.6 0.75 11.99C0.75 10.23 0.74 8.47 0.75 6.71Z" stroke="#FFFFFF" stroke-opacity="0" stroke-width="1.500000"/>
		</g>
		<circle cx="12.000000" cy="12.000000" r="12.000000" fill="#FFFFFF" fill-opacity="0"/>
		<circle cx="12.000000" cy="12.000000" r="12.000000" stroke="#000000" stroke-opacity="0" stroke-width="1.500000"/>
		<mask id="mask186_2564" mask-type="alpha" maskUnits="userSpaceOnUse" x="0.000000" y="0.000000" width="24.000732" height="24.000488">
			<path d="M24 0L24 14.59C22.81 12.5 20.57 11.1 18 11.1C14.18 11.1 11.1 14.18 11.1 18C11.1 20.57 12.5 22.81 14.59 24L0 24L0 0L24 0ZM24 21.4L24 24L21.4 24C22.48 23.38 23.38 22.48 24 21.4Z" fill="#FFFFFF" fill-opacity="1.000000" fill-rule="nonzero"/>
		</mask>
		<g mask="url(#mask186_2564)">
			<path d="M5.5 0.9L17.5 0.9C19.15 0.9 20.5 2.24 20.5 3.9L20.5 20.1C20.5 21.75 19.15 23.1 17.5 23.1L5.5 23.1C3.84 23.1 2.5 21.75 2.5 20.1L2.5 3.9C2.5 2.24 3.84 0.9 5.5 0.9Z" fill="#FFFFFF" fill-opacity="0" fill-rule="evenodd"/>
			<path d="M17.5 0.9C19.15 0.9 20.5 2.24 20.5 3.9L20.5 20.1C20.5 21.75 19.15 23.1 17.5 23.1L5.5 23.1C3.84 23.1 2.5 21.75 2.5 20.1L2.5 3.9C2.5 2.24 3.84 0.9 5.5 0.9L17.5 0.9Z" stroke="#191919" stroke-opacity="1.000000" stroke-width="1.500000" stroke-linejoin="round"/>
		</g>
		<path d="M6.52 5.97L6.5 6C6.08 6 5.75 5.67 5.75 5.25C5.75 4.82 6.08 4.5 6.5 4.5L6.52 4.52L6.52 5.97ZM16.48 4.52L16.5 4.5C16.92 4.5 17.25 4.82 17.25 5.25C17.25 5.67 16.92 6 16.5 6L16.48 5.97L16.48 4.52ZM6.52 10.98L6.5 11C6.08 11 5.75 10.67 5.75 10.25C5.75 9.82 6.08 9.5 6.5 9.5L6.52 9.52L6.52 10.98ZM12.48 9.52L12.5 9.5C12.92 9.5 13.25 9.82 13.25 10.25C13.25 10.67 12.92 11 12.5 11L12.48 10.98L12.48 9.52Z" fill="#000000" fill-opacity="0" fill-rule="nonzero"/>
		<path d="M6.5 5.25L16.5 5.25M6.5 10.25L12.5 10.25" stroke="#191919" stroke-opacity="1.000000" stroke-width="1.500000" stroke-linejoin="round" stroke-linecap="round"/>
		<circle cx="18.000000" cy="18.000000" r="4.800000" fill="#FFFFFF" fill-opacity="0"/>
		<circle cx="18.000000" cy="18.000000" r="4.800000" stroke="#191919" stroke-opacity="1.000000" stroke-width="1.500000" stroke-linejoin="round"/>
		<path d="M16.67 15.32L16.65 15.3C16.65 14.88 16.98 14.55 17.4 14.55C17.82 14.55 18.15 14.88 18.15 15.3L18.12 15.32L16.67 15.32ZM20.26 19.53L20.28 19.53C20.6 19.8 20.64 20.27 20.36 20.58C20.09 20.9 19.62 20.94 19.31 20.66L19.3 20.64L20.26 19.53Z" fill="#000000" fill-opacity="0" fill-rule="nonzero"/>
		<path d="M17.4 15.3L17.4 18.03L19.79 20.1" stroke="#191919" stroke-opacity="1.000000" stroke-width="1.500000" stroke-linejoin="round" stroke-linecap="round"/>
	</g>
</svg>
