<svg width="24.000000" height="24.000000" viewBox="0 0 24 24" fill="none" xmlns="http://www.w3.org/2000/svg" xmlns:xlink="http://www.w3.org/1999/xlink">
	<desc>
			Created with Pixso.
	</desc>
	<defs>
		<clipPath id="clip186_2585">
			<rect width="24.000000" height="24.000000" fill="white" fill-opacity="0"/>
		</clipPath>
		<clipPath id="clip186_2586">
			<rect width="24.000000" height="24.000000" fill="white" fill-opacity="0"/>
		</clipPath>
	</defs>
	<g clip-path="url(#clip186_2586)">
		<g clip-path="url(#clip186_2585)">
			<rect width="24.000000" height="24.000000" fill="#000000" fill-opacity="0"/>
			<rect width="24.000000" height="24.000000" stroke="#000000" stroke-opacity="0" stroke-width="1.000000"/>
			<path d="M18.25 4C20.25 4 21.89 5.57 21.99 7.55L22 7.75L22 8.22C22 8.64 21.66 8.97 21.25 8.97C20.87 8.97 20.55 8.69 20.5 8.33L20.5 8.22L20.5 7.75C20.5 6.55 19.57 5.58 18.4 5.5L18.25 5.5L5.75 5.5C4.55 5.5 3.58 6.42 3.5 7.59L3.5 7.75L3.5 16.25C3.5 17.44 4.42 18.41 5.59 18.49L5.75 18.5L18.25 18.5C19.44 18.5 20.41 17.57 20.49 16.4L20.5 16.25L20.5 11.25C20.5 10.83 20.83 10.5 21.25 10.5C21.62 10.5 21.94 10.78 21.99 11.14L22 11.25L22 16.25C22 18.25 20.42 19.89 18.44 19.99L18.25 20L5.75 20C3.74 20 2.1 18.42 2 16.44L2 16.25L2 7.75C2 5.74 3.57 4.1 5.55 4L5.75 4L18.25 4ZM14.82 6.86C15.15 7.06 15.27 7.46 15.12 7.8L13.61 10.24L14.5 10.25C14.91 10.25 15.25 10.58 15.25 11C15.25 11.37 14.96 11.69 14.6 11.74L14.5 11.75L12.74 11.74L12.74 12.74L14.5 12.75C14.91 12.75 15.25 13.08 15.25 13.5C15.25 13.87 14.96 14.19 14.6 14.24L14.5 14.25L12.74 14.24L12.75 16.49C12.75 16.91 12.41 17.24 12 17.24C11.62 17.24 11.3 16.96 11.25 16.6L11.25 16.49L11.24 14.24L9.5 14.25C9.08 14.25 8.75 13.91 8.75 13.5C8.75 13.12 9.03 12.8 9.39 12.75L9.5 12.75L11.24 12.74L11.24 11.74L9.5 11.75C9.08 11.75 8.75 11.41 8.75 11C8.75 10.62 9.03 10.3 9.39 10.25L9.5 10.25L10.37 10.24L8.91 7.89C8.69 7.54 8.8 7.08 9.15 6.86C9.47 6.66 9.89 6.73 10.12 7.01L11.98 9.99L13.79 7.1C14.01 6.75 14.47 6.64 14.82 6.86Z" fill="#000000" fill-opacity="1.000000" fill-rule="nonzero"/>
			<path d="M21.99 7.55L22 7.75L22 8.22C22 8.64 21.66 8.97 21.25 8.97C20.87 8.97 20.55 8.69 20.5 8.33L20.5 8.22L20.5 7.75C20.5 6.55 19.57 5.58 18.4 5.5L18.25 5.5L5.75 5.5C4.55 5.5 3.58 6.42 3.5 7.59L3.5 7.75L3.5 16.25C3.5 17.44 4.42 18.41 5.59 18.49L5.75 18.5L18.25 18.5C19.44 18.5 20.41 17.57 20.49 16.4L20.5 16.25L20.5 11.25C20.5 10.83 20.83 10.5 21.25 10.5C21.62 10.5 21.94 10.78 21.99 11.14L22 11.25L22 16.25C22 18.25 20.42 19.89 18.44 19.99L18.25 20L5.75 20C3.74 20 2.1 18.42 2 16.44L2 16.25L2 7.75C2 5.74 3.57 4.1 5.55 4L5.75 4L18.25 4C20.25 4 21.89 5.57 21.99 7.55ZM15.12 7.8L13.61 10.24L14.5 10.25C14.91 10.25 15.25 10.58 15.25 11C15.25 11.37 14.96 11.69 14.6 11.74L14.5 11.75L12.74 11.74L12.74 12.74L14.5 12.75C14.91 12.75 15.25 13.08 15.25 13.5C15.25 13.87 14.96 14.19 14.6 14.24L14.5 14.25L12.74 14.24L12.75 16.49C12.75 16.91 12.41 17.24 12 17.24C11.62 17.24 11.3 16.96 11.25 16.6L11.25 16.49L11.24 14.24L9.5 14.25C9.08 14.25 8.75 13.91 8.75 13.5C8.75 13.12 9.03 12.8 9.39 12.75L9.5 12.75L11.24 12.74L11.24 11.74L9.5 11.75C9.08 11.75 8.75 11.41 8.75 11C8.75 10.62 9.03 10.3 9.39 10.25L9.5 10.25L10.37 10.24L8.91 7.89C8.69 7.54 8.8 7.08 9.15 6.86C9.47 6.66 9.89 6.73 10.12 7.01L11.98 9.99L13.79 7.1C14.01 6.75 14.47 6.64 14.82 6.86C15.15 7.06 15.27 7.46 15.12 7.8Z" stroke="#000000" stroke-opacity="0" stroke-width="1.000000"/>
		</g>
	</g>
</svg>
