<svg width="24.000000" height="24.000000" viewBox="0 0 24 24" fill="none" xmlns="http://www.w3.org/2000/svg" xmlns:xlink="http://www.w3.org/1999/xlink">
	<desc>
			Created with Pixso.
	</desc>
	<defs>
		<clipPath id="clip186_2578">
			<rect width="24.000000" height="24.000000" fill="white" fill-opacity="0"/>
		</clipPath>
		<clipPath id="clip186_2579">
			<rect width="24.000000" height="24.000000" fill="white" fill-opacity="0"/>
		</clipPath>
	</defs>
	<g clip-path="url(#clip186_2579)">
		<g clip-path="url(#clip186_2578)">
			<g opacity="0.000000">
				<rect width="24.000000" height="24.000000" fill="#D8D8D8" fill-opacity="1.000000"/>
				<rect width="24.000000" height="24.000000" stroke="#000000" stroke-opacity="0" stroke-width="1.000000"/>
			</g>
			<path d="M20.92 7.82C21.15 7.71 21.42 7.72 21.64 7.86C21.86 8 22 8.24 22 8.5L22 17.09C22 18.23 21.33 19.29 20.31 19.79L15.84 21.96C15.36 22.19 14.8 22.19 14.31 21.96L9.02 19.38C8.95 19.35 8.87 19.35 8.8 19.38L3.07 22.17C2.97 22.22 2.86 22.25 2.75 22.25C2.61 22.25 2.47 22.21 2.35 22.13C2.13 21.99 2 21.75 2 21.5L2 12.9C2 11.76 2.66 10.7 3.68 10.2L5.96 9.1C6.1 9.58 6.29 10.05 6.51 10.5L4.34 11.55C3.83 11.8 3.5 12.33 3.5 12.9L3.5 20.3L8.15 18.03L8.25 13.19C8.77 13.83 9.3 14.39 9.75 14.83L9.75 18.07L14.25 20.26L14.25 14.83C14.69 14.39 15.22 13.83 15.75 13.19L15.75 20.34L19.65 18.44C20.16 18.19 20.5 17.66 20.5 17.09L20.5 9.69L17 11.39C17.4 10.72 17.74 10 17.98 9.25L20.92 7.82ZM11.99 1.74C14.95 1.74 17.34 4.14 17.34 7.09C17.34 8.93 16.41 10.81 14.87 12.67C14.35 13.3 13.79 13.88 13.23 14.41C13.09 14.53 12.97 14.64 12.85 14.75L12.55 15.01L12.44 15.1L12.55 15.01C12.51 15.04 12.48 15.07 12.44 15.1C12.43 15.11 12.31 15.17 12.29 15.18C12.27 15.19 12.16 15.23 12.15 15.23C12.12 15.23 12.07 15.24 12.04 15.24C12.02 15.24 11.9 15.24 11.88 15.24C11.86 15.23 11.75 15.2 11.73 15.2C11.72 15.19 11.61 15.14 11.6 15.13L11.31 14.9C11.14 14.76 10.96 14.59 10.76 14.41C10.2 13.88 9.64 13.3 9.12 12.67C7.58 10.81 6.65 8.93 6.65 7.09C6.65 4.14 9.04 1.74 11.99 1.74ZM11.99 3.24C9.87 3.24 8.15 4.97 8.15 7.09C8.15 8.51 8.94 10.1 10.27 11.71C10.75 12.29 11.27 12.83 11.79 13.31L11.99 13.5C12.04 13.46 12.16 13.35 12.2 13.31C12.72 12.83 13.24 12.29 13.72 11.71C15.05 10.1 15.84 8.51 15.84 7.09C15.84 4.97 14.12 3.24 11.99 3.24ZM11.99 4.72C13.3 4.72 14.37 5.78 14.37 7.09C14.37 8.4 13.3 9.46 11.99 9.46C10.68 9.46 9.62 8.4 9.62 7.09C9.62 5.78 10.68 4.72 11.99 4.72ZM11.99 6.22C11.51 6.22 11.12 6.61 11.12 7.09C11.12 7.57 11.51 7.96 11.99 7.96C12.48 7.96 12.87 7.57 12.87 7.09C12.87 6.61 12.48 6.22 11.99 6.22Z" fill="#191919" fill-opacity="1.000000" fill-rule="evenodd"/>
			<path d="M21.64 7.86C21.86 8 22 8.24 22 8.5L22 17.09C22 18.23 21.33 19.29 20.31 19.79L15.84 21.96C15.36 22.19 14.8 22.19 14.31 21.96L9.02 19.38C8.95 19.35 8.87 19.35 8.8 19.38L3.07 22.17C2.97 22.22 2.86 22.25 2.75 22.25C2.61 22.25 2.47 22.21 2.35 22.13C2.13 21.99 2 21.75 2 21.5L2 12.9C2 11.76 2.66 10.7 3.68 10.2L5.96 9.1C6.1 9.58 6.29 10.05 6.51 10.5L4.34 11.55C3.83 11.8 3.5 12.33 3.5 12.9L3.5 20.3L8.15 18.03L8.25 13.19C8.77 13.83 9.3 14.39 9.75 14.83L9.75 18.07L14.25 20.26L14.25 14.83C14.69 14.39 15.22 13.83 15.75 13.19L15.75 20.34L19.65 18.44C20.16 18.19 20.5 17.66 20.5 17.09L20.5 9.69L17 11.39C17.4 10.72 17.74 10 17.98 9.25L20.92 7.82C21.15 7.71 21.42 7.72 21.64 7.86ZM12.55 15.01C12.51 15.04 12.48 15.07 12.44 15.1C12.43 15.11 12.31 15.17 12.29 15.18C12.27 15.19 12.16 15.23 12.15 15.23C12.12 15.23 12.07 15.24 12.04 15.24C12.02 15.24 11.9 15.24 11.88 15.24C11.86 15.23 11.75 15.2 11.73 15.2C11.72 15.19 11.61 15.14 11.6 15.13L11.31 14.9C11.14 14.76 10.96 14.59 10.76 14.41C10.2 13.88 9.64 13.3 9.12 12.67C7.58 10.81 6.65 8.93 6.65 7.09C6.65 4.14 9.04 1.74 11.99 1.74C14.95 1.74 17.34 4.14 17.34 7.09C17.34 8.93 16.41 10.81 14.87 12.67C14.35 13.3 13.79 13.88 13.23 14.41C13.09 14.53 12.97 14.64 12.85 14.75L12.55 15.01L12.44 15.1M8.15 7.09C8.15 8.51 8.94 10.1 10.27 11.71C10.75 12.29 11.27 12.83 11.79 13.31L11.99 13.5C12.04 13.46 12.16 13.35 12.2 13.31C12.72 12.83 13.24 12.29 13.72 11.71C15.05 10.1 15.84 8.51 15.84 7.09C15.84 4.97 14.12 3.24 11.99 3.24C9.87 3.24 8.15 4.97 8.15 7.09ZM14.37 7.09C14.37 8.4 13.3 9.46 11.99 9.46C10.68 9.46 9.62 8.4 9.62 7.09C9.62 5.78 10.68 4.72 11.99 4.72C13.3 4.72 14.37 5.78 14.37 7.09ZM11.12 7.09C11.12 7.57 11.51 7.96 11.99 7.96C12.48 7.96 12.87 7.57 12.87 7.09C12.87 6.61 12.48 6.22 11.99 6.22C11.51 6.22 11.12 6.61 11.12 7.09Z" stroke="#000000" stroke-opacity="0" stroke-width="1.000000"/>
		</g>
	</g>
</svg>
