<svg width="16.000000" height="16.000000" viewBox="0 0 16 16" fill="none" xmlns="http://www.w3.org/2000/svg" xmlns:xlink="http://www.w3.org/1999/xlink">
	<desc>
			Created with Pixso.
	</desc>
	<defs>
		<clipPath id="clip63_1306">
			<rect width="16.000000" height="16.000000" fill="white" fill-opacity="0"/>
		</clipPath>
	</defs>
	<g clip-path="url(#clip63_1306)">
		<g opacity="0.000000">
			<rect x="-4.000000" y="-4.000000" width="24.000000" height="24.000000" fill="#D8D8D8" fill-opacity="1.000000"/>
			<rect x="-4.000000" y="-4.000000" width="24.000000" height="24.000000" stroke="#000000" stroke-opacity="0" stroke-width="1.000000"/>
		</g>
		<path d="M11.12 1.5C12.16 1.5 13 2.37 13 3.44C13 3.71 12.79 3.93 12.53 3.93C12.29 3.93 12.09 3.75 12.06 3.51L12.06 3.44C12.06 2.94 11.69 2.52 11.21 2.47L11.12 2.47L4.87 2.47C4.38 2.47 3.98 2.86 3.94 3.35L3.93 3.44L3.93 13.09L5.55 11.98C5.69 11.88 5.87 11.87 6.02 11.95L8 13.41L9.91 11.99C10.05 11.88 10.23 11.87 10.38 11.94L10.44 11.98L12.06 13.1L12.06 5.07C12.06 4.82 12.23 4.62 12.46 4.59L12.53 4.58C12.76 4.58 12.96 4.77 12.99 5L13 5.07L13 14.01C13 14.37 12.63 14.6 12.32 14.45L10.19 12.97L8.27 14.4C8.12 14.51 7.94 14.52 7.79 14.44L7.72 14.4L5.8 12.97L3.72 14.41C3.43 14.62 3.04 14.42 3 14.07L3 14.01L3 3.44C3 2.41 3.78 1.56 4.76 1.5L4.87 1.5L11.12 1.5ZM9.88 4.01C10.08 4.13 10.16 4.4 10.06 4.62L8.84 6.21L10.18 6.21C10.44 6.21 10.65 6.43 10.65 6.69C10.65 6.94 10.47 7.15 10.25 7.18L10.18 7.18L8.46 7.18L8.46 7.83L10.18 7.83C10.44 7.83 10.65 8.05 10.65 8.32C10.65 8.57 10.47 8.77 10.25 8.8L10.18 8.81L8.46 8.81L8.46 10.77C8.46 11.03 8.25 11.24 8 11.24C7.76 11.24 7.56 11.07 7.53 10.84L7.53 8.81L5.81 8.81C5.55 8.81 5.34 8.59 5.34 8.32C5.34 8.07 5.52 7.87 5.74 7.84L5.81 7.83L7.53 7.83L7.53 7.18L5.81 7.18C5.55 7.18 5.34 6.96 5.34 6.69C5.34 6.45 5.52 6.24 5.74 6.21L5.81 6.21L7.14 6.21L5.96 4.68C5.82 4.45 5.89 4.15 6.11 4.01C6.31 3.88 6.57 3.92 6.72 4.11L8 5.76L9.24 4.16C9.37 3.93 9.66 3.86 9.88 4.01Z" fill="#000000" fill-opacity="0.600000" fill-rule="evenodd"/>
		<path d="M13 3.44C13 3.71 12.79 3.93 12.53 3.93C12.29 3.93 12.09 3.75 12.06 3.51L12.06 3.44C12.06 2.94 11.69 2.52 11.21 2.47L11.12 2.47L4.87 2.47C4.38 2.47 3.98 2.86 3.94 3.35L3.93 3.44L3.93 13.09L5.55 11.98C5.69 11.88 5.87 11.87 6.02 11.95L8 13.41L9.91 11.99C10.05 11.88 10.23 11.87 10.38 11.94L10.44 11.98L12.06 13.1L12.06 5.07C12.06 4.82 12.23 4.62 12.46 4.59L12.53 4.58C12.76 4.58 12.96 4.77 12.99 5L13 5.07L13 14.01C13 14.37 12.63 14.6 12.32 14.45L10.19 12.97L8.27 14.4C8.12 14.51 7.94 14.52 7.79 14.44L7.72 14.4L5.8 12.97L3.72 14.41C3.43 14.62 3.04 14.42 3 14.07L3 14.01L3 3.44C3 2.41 3.78 1.56 4.76 1.5L4.87 1.5L11.12 1.5C12.16 1.5 13 2.37 13 3.44ZM10.06 4.62L8.84 6.21L10.18 6.21C10.44 6.21 10.65 6.43 10.65 6.69C10.65 6.94 10.47 7.15 10.25 7.18L10.18 7.18L8.46 7.18L8.46 7.83L10.18 7.83C10.44 7.83 10.65 8.05 10.65 8.32C10.65 8.57 10.47 8.77 10.25 8.8L10.18 8.81L8.46 8.81L8.46 10.77C8.46 11.03 8.25 11.24 8 11.24C7.76 11.24 7.56 11.07 7.53 10.84L7.53 8.81L5.81 8.81C5.55 8.81 5.34 8.59 5.34 8.32C5.34 8.07 5.52 7.87 5.74 7.84L5.81 7.83L7.53 7.83L7.53 7.18L5.81 7.18C5.55 7.18 5.34 6.96 5.34 6.69C5.34 6.45 5.52 6.24 5.74 6.21L5.81 6.21L7.14 6.21L5.96 4.68C5.82 4.45 5.89 4.15 6.11 4.01C6.31 3.88 6.57 3.92 6.72 4.11L8 5.76L9.24 4.16C9.37 3.93 9.66 3.86 9.88 4.01C10.08 4.13 10.16 4.4 10.06 4.62Z" stroke="#000000" stroke-opacity="0" stroke-width="1.000000"/>
	</g>
</svg>
