<svg width="64.000000" height="64.000000" viewBox="0 0 64 64" fill="none" xmlns="http://www.w3.org/2000/svg" xmlns:xlink="http://www.w3.org/1999/xlink">
	<desc>
			Created with Pixso.
	</desc>
	<defs>
		<linearGradient x1="32.000000" y1="64.000000" x2="32.000000" y2="0.000000" id="paint_linear_304_2704_0" gradientUnits="userSpaceOnUse">
			<stop stop-color="#FFFFFF" stop-opacity="0.200000"/>
			<stop offset="1.000000" stop-color="#FFFFFF" stop-opacity="0.600000"/>
		</linearGradient>
	</defs>
	<path d="M0 32.03C0 37.83 1.42 43.16 4.28 48.05C7.13 52.92 11.01 56.8 15.9 59.67C20.81 62.56 26.16 64 31.96 64C37.77 64 43.12 62.56 48.03 59.67C52.92 56.8 56.81 52.91 59.68 48.01C62.56 43.11 64 37.78 64 32.03C64 26.23 62.56 20.87 59.68 15.97C56.81 11.07 52.92 7.18 48.03 4.31C43.12 1.43 37.77 0 31.96 0C26.16 0 20.81 1.43 15.9 4.31C11.01 7.18 7.13 11.07 4.28 15.97C1.42 20.87 0 26.23 0 32.03Z" fill="#999999" fill-opacity="1.000000" fill-rule="nonzero"/>
	<path d="M4.28 48.05C7.13 52.92 11.01 56.8 15.9 59.67C20.81 62.56 26.16 64 31.96 64C37.77 64 43.12 62.56 48.03 59.67C52.92 56.8 56.81 52.91 59.68 48.01C62.56 43.11 64 37.78 64 32.03C64 26.23 62.56 20.87 59.68 15.97C56.81 11.07 52.92 7.18 48.03 4.31C43.12 1.43 37.77 0 31.96 0C26.16 0 20.81 1.43 15.9 4.31C11.01 7.18 7.13 11.07 4.28 15.97C1.42 20.87 0 26.23 0 32.03C0 37.83 1.42 43.16 4.28 48.05Z" stroke="#000000" stroke-opacity="0" stroke-width="1.000000"/>
	<path d="M0 32.03C0 37.83 1.42 43.16 4.28 48.05C7.13 52.92 11.01 56.8 15.9 59.67C20.81 62.56 26.16 64 31.96 64C37.77 64 43.12 62.56 48.03 59.67C52.92 56.8 56.81 52.91 59.68 48.01C62.56 43.11 64 37.78 64 32.03C64 26.23 62.56 20.87 59.68 15.97C56.81 11.07 52.92 7.18 48.03 4.31C43.12 1.43 37.77 0 31.96 0C26.16 0 20.81 1.43 15.9 4.31C11.01 7.18 7.13 11.07 4.28 15.97C1.42 20.87 0 26.23 0 32.03Z" fill="url(#paint_linear_304_2704_0)" fill-opacity="1.000000" fill-rule="nonzero"/>
	<path d="M4.28 48.05C7.13 52.92 11.01 56.8 15.9 59.67C20.81 62.56 26.16 64 31.96 64C37.77 64 43.12 62.56 48.03 59.67C52.92 56.8 56.81 52.91 59.68 48.01C62.56 43.11 64 37.78 64 32.03C64 26.23 62.56 20.87 59.68 15.97C56.81 11.07 52.92 7.18 48.03 4.31C43.12 1.43 37.77 0 31.96 0C26.16 0 20.81 1.43 15.9 4.31C11.01 7.18 7.13 11.07 4.28 15.97C1.42 20.87 0 26.23 0 32.03C0 37.83 1.42 43.16 4.28 48.05Z" stroke="#000000" stroke-opacity="0" stroke-width="1.000000"/>
	<path d="M21.86 22.34C21.84 19.59 22.83 17.21 24.83 15.21C25.9 14.14 27.08 13.36 28.36 12.87C29.48 12.44 30.68 12.24 31.96 12.25C34.72 12.27 37.09 13.28 39.1 15.28C40.18 16.37 40.97 17.57 41.48 18.88C41.9 19.98 42.11 21.16 42.13 22.41C42.15 25.17 41.16 27.54 39.16 29.55C38.09 30.62 36.91 31.4 35.63 31.89C34.51 32.31 33.31 32.52 32.03 32.5C30.78 32.49 29.61 32.28 28.52 31.87C27.2 31.37 25.99 30.57 24.89 29.47C23.81 28.38 23.02 27.18 22.51 25.87C22.09 24.77 21.88 23.59 21.86 22.34ZM17.45 54.46C18.6 55.22 19.82 55.88 21.1 56.46C21.73 56.74 22.36 56.99 23.01 57.22C25.82 58.23 28.82 58.73 31.99 58.73C35.79 58.73 39.38 57.99 42.75 56.5C43.66 56.1 44.54 55.65 45.39 55.15C47.69 53.8 49.78 52.09 51.67 50.03C51.43 49.31 51.15 48.61 50.82 47.94C50.04 46.38 49.01 44.96 47.72 43.66C47.07 43 46.37 42.4 45.64 41.85C44.3 40.84 42.84 40.01 41.24 39.34C38.96 38.39 36.67 37.88 34.36 37.81C34.18 37.81 34 37.81 33.82 37.81L30.17 37.81C29.99 37.81 29.81 37.81 29.63 37.81C27.32 37.88 25.03 38.39 22.75 39.34C21.23 39.97 19.83 40.76 18.54 41.7C17.73 42.29 16.96 42.94 16.24 43.66C14.87 45.01 13.79 46.51 13.01 48.14C12.71 48.75 12.46 49.38 12.25 50.03C13.82 51.75 15.55 53.22 17.45 54.46Z" fill="#FFFFFF" fill-opacity="0.894118" fill-rule="evenodd"/>
	<path d="M24.83 15.21C25.9 14.14 27.08 13.36 28.36 12.87C29.48 12.44 30.68 12.24 31.96 12.25C34.72 12.27 37.09 13.28 39.1 15.28C40.18 16.37 40.97 17.57 41.48 18.88C41.9 19.98 42.11 21.16 42.13 22.41C42.15 25.17 41.16 27.54 39.16 29.55C38.09 30.62 36.91 31.4 35.63 31.89C34.51 32.31 33.31 32.52 32.03 32.5C30.78 32.49 29.61 32.28 28.52 31.87C27.2 31.37 25.99 30.57 24.89 29.47C23.81 28.38 23.02 27.18 22.51 25.87C22.09 24.77 21.88 23.59 21.86 22.34C21.84 19.59 22.83 17.21 24.83 15.21ZM21.1 56.46C21.73 56.74 22.36 56.99 23.01 57.22C25.82 58.23 28.82 58.73 31.99 58.73C35.79 58.73 39.38 57.99 42.75 56.5C43.66 56.1 44.54 55.65 45.39 55.15C47.69 53.8 49.78 52.09 51.67 50.03C51.43 49.31 51.15 48.61 50.82 47.94C50.04 46.38 49.01 44.96 47.72 43.66C47.07 43 46.37 42.4 45.64 41.85C44.3 40.84 42.84 40.01 41.24 39.34C38.96 38.39 36.67 37.88 34.36 37.81C34.18 37.81 34 37.81 33.82 37.81L30.17 37.81C29.99 37.81 29.81 37.81 29.63 37.81C27.32 37.88 25.03 38.39 22.75 39.34C21.23 39.97 19.83 40.76 18.54 41.7C17.73 42.29 16.96 42.94 16.24 43.66C14.87 45.01 13.79 46.51 13.01 48.14C12.71 48.75 12.46 49.38 12.25 50.03C13.82 51.75 15.55 53.22 17.45 54.46C18.6 55.22 19.82 55.88 21.1 56.46Z" stroke="#000000" stroke-opacity="0" stroke-width="1.000000"/>
</svg>
