<svg width="32.000000" height="32.000000" viewBox="0 0 32 32" fill="none" xmlns="http://www.w3.org/2000/svg" xmlns:xlink="http://www.w3.org/1999/xlink">
	<desc>
			Created with Pixso.
	</desc>
	<defs/>
	<rect rx="16.000000" width="32.000000" height="32.000000" fill="#FE4F35" fill-opacity="0.101961"/>
	<path d="M21.25 7C23.25 7 24.89 8.57 24.99 10.55L25 10.75L25 12.75C25 14.26 24.1 15.6 22.75 16.18L22.75 21.24C22.75 23.25 21.17 24.88 19.19 24.99L19 24.99L13 24.99C10.99 24.99 9.35 23.42 9.25 21.44L9.25 21.24L9.24 16.18C7.96 15.62 7.08 14.37 7 12.95L7 12.75L7 10.75C7 8.74 8.57 7.1 10.55 7L10.75 7L21.25 7ZM21 10.75L11 10.75C10.88 10.75 10.78 10.83 10.75 10.94L10.75 21.24C10.75 22.43 11.67 23.41 12.84 23.49L13 23.49L19 23.49C20.19 23.49 21.16 22.57 21.24 21.4L21.25 21.24L21.25 11C21.25 10.86 21.13 10.75 21 10.75ZM21.25 8.5L10.75 8.5C9.55 8.5 8.58 9.42 8.5 10.59L8.5 10.75L8.5 12.75C8.5 13.4 8.78 14.01 9.24 14.42L9.25 11C9.25 10.08 9.95 9.32 10.85 9.25L11 9.25L21 9.25C21.91 9.25 22.67 9.95 22.74 10.85L22.75 11L22.75 14.43C23.17 14.05 23.45 13.51 23.49 12.92L23.5 12.75L23.5 10.75C23.5 9.55 22.57 8.58 21.4 8.5L21.25 8.5Z" fill="#FE4F35" fill-opacity="1.000000" fill-rule="nonzero"/>
	<path d="M24.99 10.55L25 10.75L25 12.75C25 14.26 24.1 15.6 22.75 16.18L22.75 21.24C22.75 23.25 21.17 24.88 19.19 24.99L19 24.99L13 24.99C10.99 24.99 9.35 23.42 9.25 21.44L9.25 21.24L9.24 16.18C7.96 15.62 7.08 14.37 7 12.95L7 12.75L7 10.75C7 8.74 8.57 7.1 10.55 7L10.75 7L21.25 7C23.25 7 24.89 8.57 24.99 10.55ZM11 10.75C10.88 10.75 10.78 10.83 10.75 10.94L10.75 21.24C10.75 22.43 11.67 23.41 12.84 23.49L13 23.49L19 23.49C20.19 23.49 21.16 22.57 21.24 21.4L21.25 21.24L21.25 11C21.25 10.86 21.13 10.75 21 10.75L11 10.75ZM10.75 8.5C9.55 8.5 8.58 9.42 8.5 10.59L8.5 10.75L8.5 12.75C8.5 13.4 8.78 14.01 9.24 14.42L9.25 11C9.25 10.08 9.95 9.32 10.85 9.25L11 9.25L21 9.25C21.91 9.25 22.67 9.95 22.74 10.85L22.75 11L22.75 14.43C23.17 14.05 23.45 13.51 23.49 12.92L23.5 12.75L23.5 10.75C23.5 9.55 22.57 8.58 21.4 8.5L21.25 8.5L10.75 8.5Z" stroke="#000000" stroke-opacity="0" stroke-width="1.000000"/>
	<path d="M19.2 20C19.64 20 20 20.33 20 20.75C20 21.12 19.69 21.44 19.3 21.49L19.2 21.5L12.8 21.5C12.35 21.5 12 21.16 12 20.75C12 20.37 12.3 20.05 12.69 20L12.8 20L19.2 20Z" fill="#FFCCC4" fill-opacity="1.000000" fill-rule="evenodd"/>
	<path d="M20 20.75C20 21.12 19.69 21.44 19.3 21.49L19.2 21.5L12.8 21.5C12.35 21.5 12 21.16 12 20.75C12 20.37 12.3 20.05 12.69 20L12.8 20L19.2 20C19.64 20 20 20.33 20 20.75Z" stroke="#000000" stroke-opacity="0" stroke-width="1.000000"/>
</svg>
