<svg width="32.000000" height="32.000000" viewBox="0 0 32 32" fill="none" xmlns="http://www.w3.org/2000/svg" xmlns:xlink="http://www.w3.org/1999/xlink">
	<desc>
			Created with Pixso.
	</desc>
	<defs>
		<clipPath id="clip25_618">
			<rect width="24.000000" height="24.000000" transform="translate(4.000000 4.000000)" fill="white" fill-opacity="0"/>
		</clipPath>
	</defs>
	<rect rx="16.000000" width="32.000000" height="32.000000" fill="#FE4F35" fill-opacity="0.100000"/>
	<g clip-path="url(#clip25_618)">
		<path d="M19 15C19.55 15 20 15.44 20 16C20 16.51 19.61 16.93 19.11 16.99L19 17L16.99 17L16.99 23L22 23C22.55 23 23 23.44 23 24C23 24.51 22.61 24.93 22.11 24.99L22 25L10 25C9.44 25 9 24.55 9 24C9 23.48 9.38 23.06 9.88 23L10 23L14.99 23L14.99 17L13 17C12.44 17 12 16.55 12 16C12 15.48 12.38 15.06 12.88 15L13 15L19 15ZM16 7C16.51 7 16.93 7.38 16.99 7.88L17 8C21.22 8.49 24.5 12.14 24.5 16.5C24.5 17.63 24.27 18.7 23.87 19.69C23.66 20.21 23.4 20.71 23.09 21.17C22.99 21.33 22.85 21.51 22.68 21.73C22.35 22.13 21.77 22.19 21.37 21.86L21.25 21.75C20.89 21.39 20.85 20.82 21.17 20.42C21.27 20.29 21.36 20.17 21.42 20.07C21.66 19.71 21.86 19.34 22.02 18.94C22.33 18.18 22.5 17.35 22.5 16.5C22.5 12.91 19.58 10 16 10C12.41 10 9.5 12.91 9.5 16.5C9.5 17.35 9.66 18.18 9.97 18.94C10.13 19.34 10.33 19.71 10.57 20.07C10.63 20.17 10.72 20.29 10.82 20.42C11.14 20.82 11.1 21.39 10.74 21.75C10.38 22.11 9.74 22.16 9.38 21.8C9.2 21.58 9 21.33 8.9 21.17C8.59 20.71 8.33 20.21 8.12 19.69C7.72 18.7 7.5 17.63 7.5 16.5C7.5 12.14 10.77 8.55 15 8.05C15 7.5 15.44 7 16 7Z" fill="#FE4F35" fill-opacity="1.000000" fill-rule="nonzero"/>
		<path d="M20 16C20 16.51 19.61 16.93 19.11 16.99L19 17L16.99 17L16.99 23L22 23C22.55 23 23 23.44 23 24C23 24.51 22.61 24.93 22.11 24.99L22 25L10 25C9.44 25 9 24.55 9 24C9 23.48 9.38 23.06 9.88 23L10 23L14.99 23L14.99 17L13 17C12.44 17 12 16.55 12 16C12 15.48 12.38 15.06 12.88 15L13 15L19 15C19.55 15 20 15.44 20 16ZM16.99 7.88L17 8C21.22 8.49 24.5 12.14 24.5 16.5C24.5 17.63 24.27 18.7 23.87 19.69C23.66 20.21 23.4 20.71 23.09 21.17C22.99 21.33 22.85 21.51 22.68 21.73C22.35 22.13 21.77 22.19 21.37 21.86L21.25 21.75C20.89 21.39 20.85 20.82 21.17 20.42C21.27 20.29 21.36 20.17 21.42 20.07C21.66 19.71 21.86 19.34 22.02 18.94C22.33 18.18 22.5 17.35 22.5 16.5C22.5 12.91 19.58 10 16 10C12.41 10 9.5 12.91 9.5 16.5C9.5 17.35 9.66 18.18 9.97 18.94C10.13 19.34 10.33 19.71 10.57 20.07C10.63 20.17 10.72 20.29 10.82 20.42C11.14 20.82 11.1 21.39 10.74 21.75C10.38 22.11 9.74 22.16 9.38 21.8C9.2 21.58 9 21.33 8.9 21.17C8.59 20.71 8.33 20.21 8.12 19.69C7.72 18.7 7.5 17.63 7.5 16.5C7.5 12.14 10.77 8.55 15 8.05C15 7.5 15.44 7 16 7C16.51 7 16.93 7.38 16.99 7.88Z" stroke="#000000" stroke-opacity="0" stroke-width="1.000000"/>
	</g>
	<rect x="12.000000" y="15.000000" rx="1.000000" width="8.000000" height="2.000000" fill="#FFCCC4" fill-opacity="1.000000"/>
</svg>
