<svg width="12.000000" height="12.000000" viewBox="0 0 12 12" fill="none" xmlns="http://www.w3.org/2000/svg" xmlns:xlink="http://www.w3.org/1999/xlink">
	<desc>
			Created with Pixso.
	</desc>
	<defs/>
	<path d="M8.55 1.48C8.7 1.24 9.01 1.17 9.26 1.31C9.45 1.43 9.63 1.55 9.81 1.69C10 1.84 10.19 2 10.37 2.18C10.54 2.36 10.71 2.54 10.86 2.74C10.99 2.91 11.11 3.09 11.22 3.28C11.46 3.68 11.64 4.11 11.77 4.57C11.81 4.74 11.85 4.92 11.88 5.09C11.94 5.39 11.96 5.69 11.96 6C11.96 6.3 11.93 6.61 11.88 6.91C11.85 7.09 11.81 7.27 11.76 7.45C11.7 7.66 11.63 7.87 11.54 8.07C11.44 8.31 11.33 8.53 11.2 8.75C11.08 8.94 10.96 9.12 10.82 9.29C10.67 9.49 10.5 9.68 10.32 9.86C10.14 10.04 9.94 10.2 9.74 10.35C9.56 10.49 9.38 10.61 9.18 10.72C8.93 10.86 8.62 10.79 8.47 10.55C8.33 10.31 8.4 10.01 8.65 9.86C8.81 9.77 8.96 9.67 9.1 9.57C9.27 9.44 9.43 9.31 9.58 9.16C9.86 8.88 10.1 8.58 10.3 8.25C10.5 7.92 10.65 7.58 10.75 7.22C10.87 6.83 10.93 6.42 10.93 6C10.93 5.58 10.87 5.17 10.76 4.79C10.66 4.44 10.51 4.1 10.32 3.77C10.12 3.44 9.89 3.14 9.63 2.87C9.36 2.6 9.06 2.37 8.72 2.17C8.47 2.02 8.4 1.71 8.55 1.48ZM6.27 1.5L6.27 10.5C4.46 10.5 3.12 8.2 3.12 8.2L1.62 8.2C1.33 8.2 1.1 7.98 1.1 7.7L1.1 4.25C1.1 3.97 1.33 3.75 1.62 3.75L3.12 3.75C3.12 3.75 4.46 1.5 6.27 1.5ZM8.68 3.37C8.47 3.19 8.15 3.2 7.95 3.41C7.76 3.62 7.78 3.93 8 4.12C8.05 4.16 8.1 4.21 8.14 4.26C8.22 4.34 8.29 4.42 8.36 4.5C8.43 4.61 8.5 4.71 8.56 4.82C8.63 4.94 8.68 5.07 8.72 5.19C8.76 5.29 8.78 5.38 8.8 5.48C8.84 5.65 8.86 5.82 8.86 6C8.86 6.17 8.84 6.34 8.8 6.51C8.78 6.6 8.76 6.7 8.73 6.79C8.68 6.92 8.63 7.04 8.57 7.16C8.51 7.27 8.44 7.37 8.37 7.47C8.3 7.56 8.23 7.65 8.15 7.73C8.1 7.78 8.05 7.83 8 7.87C7.78 8.06 7.76 8.37 7.95 8.58C8.15 8.79 8.47 8.8 8.68 8.62C8.76 8.55 8.84 8.48 8.91 8.4C9.02 8.29 9.11 8.18 9.2 8.06C9.31 7.92 9.41 7.77 9.49 7.61C9.58 7.45 9.65 7.28 9.71 7.1C9.76 6.96 9.8 6.81 9.83 6.67C9.87 6.45 9.89 6.22 9.89 6C9.89 5.77 9.87 5.54 9.83 5.32C9.8 5.17 9.76 5.03 9.71 4.88Q9.63 4.66 9.53 4.45L9.53 4.45Q9.5 4.41 9.48 4.36C9.4 4.21 9.3 4.06 9.19 3.91C9.11 3.8 9.01 3.69 8.91 3.59C8.84 3.51 8.76 3.44 8.68 3.37Z" fill="#E54730" fill-opacity="1.000000" fill-rule="evenodd"/>
</svg>
