<svg width="24.000000" height="24.000000" viewBox="0 0 24 24" fill="none" xmlns="http://www.w3.org/2000/svg" xmlns:xlink="http://www.w3.org/1999/xlink">
	<desc>
			Created with Pixso.
	</desc>
	<defs/>
	<circle cx="12.000000" cy="12.000000" r="12.000000" fill="#E54730" fill-opacity="1.000000"/>
	<path d="M16.75 6C17.44 6 18 6.55 18 7.25L18 16.74C18 17.43 17.44 17.99 16.75 17.99L13.69 17.99C13.03 17.99 12.49 17.49 12.44 16.83C12.37 15.83 11.85 15.36 10.71 15.33L10.39 15.33C8 15.51 6.13 14.36 6.03 12.5C6.01 12.22 6.24 11.97 6.53 11.97L13.33 11.97C13.46 11.97 13.56 11.88 13.58 11.75L14.33 7.11C14.4 6.47 14.93 6 15.57 6L16.75 6ZM12.97 9.21L12.68 10.97L6.52 10.97L6.42 10.98C6.27 10.99 6.13 11.02 6 11.07C6.07 10.07 6.87 9.27 7.87 9.22L7.99 9.21L12.97 9.21Z" fill="#FFFFFF" fill-opacity="1.000000" fill-rule="evenodd"/>
	<path d="M18 7.25L18 16.74C18 17.43 17.44 17.99 16.75 17.99L13.69 17.99C13.03 17.99 12.49 17.49 12.44 16.83C12.37 15.83 11.85 15.36 10.71 15.33L10.39 15.33C8 15.51 6.13 14.36 6.03 12.5C6.01 12.22 6.24 11.97 6.53 11.97L13.33 11.97C13.46 11.97 13.56 11.88 13.58 11.75L14.33 7.11C14.4 6.47 14.93 6 15.57 6L16.75 6C17.44 6 18 6.55 18 7.25ZM12.68 10.97L6.52 10.97L6.42 10.98C6.27 10.99 6.13 11.02 6 11.07C6.07 10.07 6.87 9.27 7.87 9.22L7.99 9.21L12.97 9.21L12.68 10.97Z" stroke="#000000" stroke-opacity="0" stroke-width="1.000000"/>
</svg>
