<svg width="24.000000" height="24.000000" viewBox="0 0 24 24" fill="none" xmlns="http://www.w3.org/2000/svg" xmlns:xlink="http://www.w3.org/1999/xlink">
	<desc>
			Created with Pixso.
	</desc>
	<defs>
		<clipPath id="clip174_1730">
			<rect width="24.000000" height="24.000000" fill="white" fill-opacity="0"/>
		</clipPath>
	</defs>
	<g clip-path="url(#clip174_1730)">
		<path d="M16 8.54C16.26 8.54 16.52 8.57 16.78 8.59C16.09 5.39 12.63 3 8.68 3C4.27 3.01 0.66 5.99 0.66 9.77C0.66 11.96 1.87 13.75 3.87 15.15L3.06 17.54L5.87 16.14C6.87 16.34 7.68 16.54 8.67 16.54C8.93 16.54 9.18 16.53 9.42 16.5C9.26 15.96 9.18 15.4 9.18 14.83C9.19 11.36 12.19 8.54 16 8.54ZM11.69 6.39C12.3 6.39 12.69 6.78 12.69 7.38C12.69 7.97 12.3 8.38 11.69 8.38C11.09 8.38 10.48 7.99 10.48 7.38C10.48 6.78 11.09 6.39 11.69 6.39ZM6.07 8.38C5.48 8.38 4.87 7.99 4.87 7.38C4.87 6.78 5.48 6.39 6.07 6.39C6.67 6.39 7.08 6.78 7.08 7.38C7.08 7.97 6.68 8.38 6.07 8.38ZM23.33 14.75C23.33 11.57 20.12 8.97 16.51 8.97C12.7 8.97 9.69 11.57 9.69 14.75C9.69 17.94 12.7 20.53 16.51 20.53C17.3 20.53 18.11 20.33 18.92 20.13L21.12 21.33L20.51 19.34C22.12 18.13 23.33 16.54 23.33 14.75ZM14.3 13.75C13.9 13.75 13.49 13.36 13.49 12.95C13.49 12.56 13.9 12.15 14.3 12.15C14.91 12.15 15.3 12.54 15.3 12.95C15.3 13.36 14.91 13.75 14.3 13.75ZM18.71 13.75C18.31 13.75 17.91 13.36 17.91 12.95C17.91 12.56 18.31 12.15 18.71 12.15C19.32 12.15 19.71 12.54 19.71 12.95C19.71 13.36 19.32 13.75 18.71 13.75Z" fill="#09BB07" fill-opacity="1.000000" fill-rule="nonzero"/>
	</g>
</svg>
