<svg width="16.000000" height="16.000000" viewBox="0 0 16 16" fill="none" xmlns="http://www.w3.org/2000/svg" xmlns:xlink="http://www.w3.org/1999/xlink">
	<desc>
			Created with Pixso.
	</desc>
	<defs/>
	<circle cx="8.000000" cy="8.000000" r="8.000000" fill="#EE3B55" fill-opacity="1.000000"/>
	<circle cx="8.000000" cy="8.000000" r="8.000000" stroke="#000000" stroke-opacity="0" stroke-width="1.000000"/>
	<path d="M3.31 7.99C3.31 7.26 3.31 6.53 3.31 5.79C3.31 5.44 3.35 5.09 3.44 4.74C3.63 4.02 4.1 3.59 4.83 3.42C5.19 3.34 5.57 3.3 5.94 3.31C7.34 3.31 8.75 3.31 10.15 3.31C10.51 3.31 10.86 3.35 11.2 3.43C11.95 3.61 12.4 4.09 12.57 4.83C12.65 5.18 12.69 5.54 12.68 5.9C12.68 7.32 12.68 8.74 12.68 10.16C12.68 10.51 12.64 10.86 12.56 11.21C12.38 11.95 11.9 12.4 11.16 12.57C10.79 12.65 10.42 12.69 10.05 12.68C8.65 12.68 7.25 12.68 5.85 12.68C5.5 12.68 5.14 12.64 4.79 12.56C4.04 12.38 3.59 11.9 3.42 11.15C3.33 10.77 3.31 10.39 3.31 10.01C3.31 9.34 3.31 8.66 3.31 7.99Z" fill="#FFFFFF" fill-opacity="0" fill-rule="nonzero"/>
	<path d="M3.31 5.79C3.31 5.44 3.35 5.09 3.44 4.74C3.63 4.02 4.1 3.59 4.83 3.42C5.19 3.34 5.57 3.3 5.94 3.31C7.34 3.31 8.75 3.31 10.15 3.31C10.51 3.31 10.86 3.35 11.2 3.43C11.95 3.61 12.4 4.09 12.57 4.83C12.65 5.18 12.69 5.54 12.68 5.9C12.68 7.32 12.68 8.74 12.68 10.16C12.68 10.51 12.64 10.86 12.56 11.21C12.38 11.95 11.9 12.4 11.16 12.57C10.79 12.65 10.42 12.69 10.05 12.68C8.65 12.68 7.25 12.68 5.85 12.68C5.5 12.68 5.14 12.64 4.79 12.56C4.04 12.38 3.59 11.9 3.42 11.15C3.33 10.77 3.31 10.39 3.31 10.01C3.31 9.34 3.31 8.66 3.31 7.99C3.31 7.26 3.31 6.53 3.31 5.79Z" stroke="#FFFFFF" stroke-opacity="0" stroke-width="0.000000"/>
	<g opacity="0.200000">
		<path d="M3.31 7.99C3.31 7.26 3.31 6.53 3.31 5.79C3.31 5.44 3.35 5.09 3.44 4.74C3.63 4.02 4.1 3.59 4.83 3.42C5.19 3.34 5.57 3.3 5.94 3.31C7.34 3.31 8.75 3.31 10.15 3.31C10.51 3.31 10.86 3.35 11.2 3.43C11.95 3.61 12.4 4.09 12.57 4.83C12.65 5.18 12.69 5.54 12.68 5.9C12.68 7.32 12.68 8.74 12.68 10.16C12.68 10.51 12.64 10.86 12.56 11.21C12.38 11.95 11.9 12.4 11.16 12.57C10.79 12.65 10.42 12.69 10.05 12.68C8.65 12.68 7.25 12.68 5.85 12.68C5.5 12.68 5.14 12.64 4.79 12.56C4.04 12.38 3.59 11.9 3.42 11.15C3.33 10.77 3.31 10.39 3.31 10.01C3.31 9.34 3.31 8.66 3.31 7.99Z" fill="#000000" fill-opacity="0" fill-rule="nonzero"/>
		<path d="M3.31 5.79C3.31 5.44 3.35 5.09 3.44 4.74C3.63 4.02 4.1 3.59 4.83 3.42C5.19 3.34 5.57 3.3 5.94 3.31C7.34 3.31 8.75 3.31 10.15 3.31C10.51 3.31 10.86 3.35 11.2 3.43C11.95 3.61 12.4 4.09 12.57 4.83C12.65 5.18 12.69 5.54 12.68 5.9C12.68 7.32 12.68 8.74 12.68 10.16C12.68 10.51 12.64 10.86 12.56 11.21C12.38 11.95 11.9 12.4 11.16 12.57C10.79 12.65 10.42 12.69 10.05 12.68C8.65 12.68 7.25 12.68 5.85 12.68C5.5 12.68 5.14 12.64 4.79 12.56C4.04 12.38 3.59 11.9 3.42 11.15C3.33 10.77 3.31 10.39 3.31 10.01C3.31 9.34 3.31 8.66 3.31 7.99C3.31 7.26 3.31 6.53 3.31 5.79Z" stroke="#FFFFFF" stroke-opacity="0" stroke-width="0.000000"/>
	</g>
	<circle cx="8.000000" cy="8.000000" r="5.000000" fill="#FFFFFF" fill-opacity="0"/>
	<circle cx="8.000000" cy="8.000000" r="5.000000" stroke="#000000" stroke-opacity="0" stroke-width="0.000000"/>
	<path d="M4.04 7.75L4.78 5.17C4.84 4.96 5 4.8 5.21 4.74C6.14 4.48 7.07 4.35 8 4.35C8.93 4.35 9.85 4.48 10.78 4.74C10.99 4.8 11.15 4.96 11.21 5.17L11.95 7.75C10.64 7.5 9.32 7.37 8 7.37C6.68 7.37 5.36 7.5 4.04 7.75Z" fill="#FFFFFF" fill-opacity="0" fill-rule="evenodd"/>
	<path d="M4.78 5.17C4.84 4.96 5 4.8 5.21 4.74C6.14 4.48 7.07 4.35 8 4.35C8.93 4.35 9.85 4.48 10.78 4.74C10.99 4.8 11.15 4.96 11.21 5.17L11.95 7.75C10.64 7.5 9.32 7.37 8 7.37C6.68 7.37 5.36 7.5 4.04 7.75L4.78 5.17Z" stroke="#FFFFFF" stroke-opacity="0" stroke-width="0.000000" stroke-linejoin="round"/>
	<path d="M8 7.37C9.12 7.37 10.41 7.49 11.84 7.73C12.26 7.8 12.56 8.17 12.54 8.59L12.39 11.35C12.38 11.57 12.2 11.75 11.98 11.75L10.7 11.75L10.29 11.02L5.7 11.02L5.29 11.75L4.01 11.75C3.79 11.75 3.61 11.57 3.6 11.35L3.45 8.59C3.43 8.17 3.73 7.8 4.15 7.73C5.58 7.49 6.87 7.37 8 7.37Z" fill="#FFFFFF" fill-opacity="1.000000" fill-rule="evenodd"/>
	<path d="M11.84 7.73C12.26 7.8 12.56 8.17 12.54 8.59L12.39 11.35C12.38 11.57 12.2 11.75 11.98 11.75L10.7 11.75L10.29 11.02L5.7 11.02L5.29 11.75L4.01 11.75C3.79 11.75 3.61 11.57 3.6 11.35L3.45 8.59C3.43 8.17 3.73 7.8 4.15 7.73C5.58 7.49 6.87 7.37 8 7.37C9.12 7.37 10.41 7.49 11.84 7.73Z" stroke="#FFFFFF" stroke-opacity="1.000000" stroke-width="0.000000" stroke-linejoin="round"/>
	<path d="M9.43 9.64L9.45 9.62C9.59 9.62 9.7 9.73 9.7 9.87C9.7 10.01 9.59 10.12 9.45 10.12L9.43 10.1L9.43 9.64ZM5.68 9.64L5.7 9.62C5.84 9.62 5.95 9.73 5.95 9.87C5.95 10.01 5.84 10.12 5.7 10.12L5.68 10.1L5.68 9.64ZM11.52 9.64L11.54 9.62C11.68 9.62 11.79 9.73 11.79 9.87C11.79 10.01 11.68 10.12 11.54 10.12L11.52 10.1L11.52 9.64ZM6.54 10.12L6.56 10.1L6.56 9.64L6.54 9.62C6.4 9.62 6.29 9.73 6.29 9.87C6.29 10.01 6.4 10.12 6.54 10.12ZM10.29 10.12L10.31 10.1L10.31 9.64L10.29 9.62C10.15 9.62 10.04 9.73 10.04 9.87C10.04 10.01 10.15 10.12 10.29 10.12ZM4.45 10.12L4.47 10.1L4.47 9.64L4.45 9.62C4.31 9.62 4.2 9.73 4.2 9.87C4.2 10.01 4.31 10.12 4.45 10.12Z" fill="#000000" fill-opacity="0" fill-rule="evenodd"/>
	<path d="M5.7 9.87L4.45 9.87M9.45 9.87L6.54 9.87M11.54 9.87L10.29 9.87" stroke="#EE3B55" stroke-opacity="1.000000" stroke-width="0.500000" stroke-linejoin="round" stroke-linecap="round"/>
	<path d="M8 4.25C8.93 4.25 9.87 4.38 10.81 4.64C11.05 4.71 11.24 4.9 11.31 5.14L12.05 7.72C12.07 7.78 12.04 7.84 11.98 7.85C11.93 7.87 11.87 7.84 11.85 7.78L11.11 5.2C11.06 5.03 10.93 4.89 10.75 4.84C9.83 4.58 8.92 4.45 8 4.45C7.08 4.45 6.16 4.58 5.24 4.84C5.06 4.89 4.93 5.03 4.88 5.2L4.14 7.78C4.12 7.84 4.06 7.87 4.01 7.85C3.95 7.84 3.92 7.78 3.94 7.72L4.68 5.14C4.75 4.9 4.94 4.71 5.18 4.64C6.12 4.38 7.06 4.25 8 4.25Z" fill="#FFFFFF" fill-opacity="1.000000" fill-rule="nonzero"/>
	<path d="M10.81 4.64C11.05 4.71 11.24 4.9 11.31 5.14L12.05 7.72C12.07 7.78 12.04 7.84 11.98 7.85C11.93 7.87 11.87 7.84 11.85 7.78L11.11 5.2C11.06 5.03 10.93 4.89 10.75 4.84C9.83 4.58 8.92 4.45 8 4.45C7.08 4.45 6.16 4.58 5.24 4.84C5.06 4.89 4.93 5.03 4.88 5.2L4.14 7.78C4.12 7.84 4.06 7.87 4.01 7.85C3.95 7.84 3.92 7.78 3.94 7.72L4.68 5.14C4.75 4.9 4.94 4.71 5.18 4.64C6.12 4.38 7.06 4.25 8 4.25C8.93 4.25 9.87 4.38 10.81 4.64Z" stroke="#FFFFFF" stroke-opacity="1.000000" stroke-width="0.500000" stroke-linejoin="round"/>
</svg>
