<svg width="48.000000" height="48.000000" viewBox="0 0 48 48" fill="none" xmlns="http://www.w3.org/2000/svg" xmlns:xlink="http://www.w3.org/1999/xlink">
	<desc>
			Created with Pixso.
	</desc>
	<defs>
		<clipPath id="clip64_1975">
			<rect width="48.000000" height="48.000000" fill="white" fill-opacity="0"/>
		</clipPath>
	</defs>
	<rect width="48.000000" height="48.000000" fill="#FFFFFF" fill-opacity="0"/>
	<g clip-path="url(#clip64_1975)">
		<path d="M37.58 24.46C33.14 24.46 29.53 28.08 29.53 32.52C29.53 36.96 33.14 40.57 37.58 40.57C42.02 40.57 45.63 36.96 45.63 32.52C45.63 28.08 42.02 24.46 37.58 24.46ZM32.49 29.77C32.49 29.77 32.46 29.44 32.76 29.49C32.76 29.49 33.51 30.75 34.43 30.37C34.43 30.37 35.34 29.98 35.48 28.94C35.48 28.94 35.66 28.64 34.55 27.75C34.55 27.75 34.44 27.35 34.97 27.49C34.97 27.49 37.8 28.35 36.81 30.56L37.74 31.48L36.53 32.67L35.64 31.79C35.64 31.79 33.23 32.96 32.49 29.77ZM42.5 36.37L41.39 37.46C41.39 37.46 41.34 37.51 41.26 37.51C41.18 37.51 41.1 37.43 41.1 37.43L38.47 34.67L39.69 33.46L42.47 36.1C42.47 36.1 42.54 36.15 42.54 36.24C42.54 36.34 42.5 36.37 42.5 36.37ZM42.24 34.03L41.69 33.5C41.75 31.81 40.99 31.48 40.99 31.48C40.73 31.25 40.57 31.5 40.57 31.49L37.74 34.26L37.69 34.73L34.92 37.56C34.25 37.58 33.93 37.2 33.93 37.2C33.44 36.78 33.64 36.11 33.64 36.11L36.46 33.33L36.94 33.4L39.41 30.94C39.99 29.61 38.34 29.54 38.34 29.54L37.67 28.89L39.04 27.54L39.8 28.28C39.73 29.25 40.68 29.15 40.68 29.15C42.59 30.55 42.61 31.6 42.61 31.6C42.82 32.72 42.24 34.03 42.24 34.03Z" fill="#C7C7C7" fill-opacity="1.000000" fill-rule="nonzero"/>
		<path d="M37.16 23.26C38.74 23.26 40.21 23.69 41.48 24.43L41.48 21.37C41.38 20.99 41.22 20.41 41.12 20.03L39.22 16.81C39.21 16.81 39.22 16.8 39.22 16.8L40.65 16.8C41.41 16.8 42.03 16.22 42.09 15.47C42.15 14.62 41.47 13.92 40.61 13.92L37.77 13.92C37.55 13.92 37.35 13.98 37.16 14.07C37.16 14.07 37.16 14.06 37.15 14.06L34.12 10.02L32.31 9.11L13.42 9.11L11.61 10.02L8.58 14.06C8.57 14.06 8.57 14.07 8.57 14.07C8.38 13.98 8.18 13.92 7.96 13.92L5.08 13.92C4.28 13.92 3.63 14.57 3.63 15.36C3.63 16.16 4.28 16.8 5.08 16.8L6.51 16.8C6.51 16.8 6.51 16.81 6.51 16.81L4.61 20.03C4.48 20.49 4.37 20.92 4.24 21.37L4.24 34.19C4.24 35.21 5.07 36.04 6.09 36.04L10.44 36.04C11.46 36.04 12.29 35.21 12.29 34.19L12.29 30.27C12.29 30.27 12.29 30.27 12.29 30.27L28.72 30.27C29.46 26.28 32.96 23.26 37.16 23.26ZM38.25 20.71C38.22 21.76 37.33 22.57 36.28 22.57L33.48 22.57C32.43 22.57 31.55 21.76 31.52 20.71C31.49 19.62 32.36 18.73 33.44 18.73L36.32 18.73C37.41 18.73 38.28 19.62 38.25 20.71ZM12.81 11.94C12.92 11.8 13.04 11.67 13.17 11.56C13.3 11.45 13.45 11.35 13.61 11.27C13.76 11.2 13.93 11.14 14.1 11.1C14.27 11.06 14.44 11.04 14.62 11.04L30.93 11.04C31.64 11.04 32.31 11.37 32.73 11.94L36.38 16.8L9.16 16.8L12.81 11.94ZM12.25 22.57L9.44 22.57C8.4 22.57 7.51 21.76 7.48 20.71C7.45 19.62 8.32 18.73 9.4 18.73L12.29 18.73C13.37 18.73 14.24 19.62 14.21 20.71C14.18 21.76 13.29 22.57 12.25 22.57Z" fill="#C7C7C7" fill-opacity="1.000000" fill-rule="nonzero"/>
	</g>
</svg>
