<svg width="16.000000" height="16.000000" viewBox="0 0 16 16" fill="none" xmlns="http://www.w3.org/2000/svg" xmlns:xlink="http://www.w3.org/1999/xlink">
	<desc>
			Created with Pixso.
	</desc>
	<defs/>
	<circle cx="8.000000" cy="8.000000" r="8.000000" fill="#EE3B55" fill-opacity="1.000000"/>
	<circle cx="8.000000" cy="8.000000" r="8.000000" stroke="#000000" stroke-opacity="0" stroke-width="1.000000"/>
	<g opacity="0.000000">
		<rect x="3.000000" y="3.000000" width="10.000000" height="10.000000" fill="#D8D8D8" fill-opacity="1.000000"/>
		<rect x="3.000000" y="3.000000" width="10.000000" height="10.000000" stroke="#000000" stroke-opacity="0" stroke-width="1.000000"/>
	</g>
	<path d="M8 4.24C8.84 4.24 9.52 4.93 9.52 5.77C9.52 6.76 9.26 7.47 8.85 7.86L10.51 8.95C10.88 9.19 11.15 9.55 11.26 9.97L11.51 10.89C11.63 11.32 11.31 11.75 10.86 11.75L5.13 11.75C4.68 11.75 4.36 11.32 4.48 10.89L4.73 9.97C4.84 9.55 5.11 9.19 5.48 8.95L7.21 7.86C6.76 7.43 6.47 6.66 6.47 5.77C6.47 4.93 7.15 4.24 8 4.24Z" fill="#FFFFFF" fill-opacity="1.000000" fill-rule="evenodd"/>
	<path d="M9.52 5.77C9.52 6.76 9.26 7.47 8.85 7.86L10.51 8.95C10.88 9.19 11.15 9.55 11.26 9.97L11.51 10.89C11.63 11.32 11.31 11.75 10.86 11.75L5.13 11.75C4.68 11.75 4.36 11.32 4.48 10.89L4.73 9.97C4.84 9.55 5.11 9.19 5.48 8.95L7.21 7.86C6.76 7.43 6.47 6.66 6.47 5.77C6.47 4.93 7.15 4.24 8 4.24C8.84 4.24 9.52 4.93 9.52 5.77Z" stroke="#000000" stroke-opacity="0" stroke-width="1.000000"/>
</svg>
