<svg width="24.000000" height="24.000000" viewBox="0 0 24 24" fill="none" xmlns="http://www.w3.org/2000/svg" xmlns:xlink="http://www.w3.org/1999/xlink">
	<desc>
			Created with Pixso.
	</desc>
	<defs>
		<clipPath id="clip118_627">
			<rect width="24.000000" height="24.000000" fill="white" fill-opacity="0"/>
		</clipPath>
	</defs>
	<g clip-path="url(#clip118_627)">
		<g opacity="0.400000">
			<path d="M11.17 2.63L2.85 6.55C2.78 6.59 2.71 6.62 2.65 6.67C2.58 6.71 2.52 6.75 2.47 6.8C2.41 6.86 2.35 6.91 2.31 6.97C2.26 7.03 2.21 7.09 2.17 7.15C2.13 7.22 2.09 7.29 2.06 7.36C2.03 7.42 2.01 7.5 1.99 7.57C1.97 7.64 1.95 7.72 1.94 7.79C1.93 7.87 1.93 7.95 1.93 8.02C1.93 8.1 1.94 8.17 1.95 8.25C1.96 8.33 1.98 8.4 2 8.47C2.02 8.55 2.05 8.62 2.08 8.69C2.11 8.76 2.15 8.82 2.19 8.89C2.24 8.95 2.28 9.01 2.33 9.07C2.38 9.12 2.44 9.18 2.5 9.23C2.56 9.27 2.62 9.32 2.68 9.36C2.75 9.4 2.82 9.44 2.89 9.47L11.21 13.11C11.31 13.16 11.41 13.19 11.52 13.21C11.63 13.24 11.74 13.25 11.85 13.25C11.96 13.25 12.07 13.24 12.18 13.21C12.29 13.19 12.39 13.16 12.49 13.11L20.82 9.46C20.89 9.43 20.95 9.4 21.02 9.36C21.08 9.32 21.14 9.27 21.2 9.22C21.26 9.17 21.32 9.12 21.37 9.06C21.42 9.01 21.46 8.95 21.51 8.88C21.55 8.82 21.59 8.75 21.62 8.68C21.65 8.62 21.68 8.54 21.7 8.47C21.72 8.4 21.74 8.32 21.75 8.25C21.76 8.17 21.77 8.1 21.77 8.02C21.77 7.94 21.77 7.87 21.76 7.79C21.75 7.72 21.73 7.64 21.71 7.57C21.69 7.5 21.67 7.42 21.64 7.35C21.61 7.28 21.57 7.22 21.53 7.15C21.49 7.09 21.44 7.03 21.39 6.97C21.35 6.91 21.29 6.85 21.23 6.8C21.18 6.75 21.12 6.71 21.05 6.66C20.99 6.62 20.92 6.58 20.85 6.55L12.53 2.63C12.43 2.58 12.31 2.54 12.2 2.52C12.08 2.49 11.97 2.48 11.85 2.48C11.73 2.48 11.62 2.49 11.5 2.52C11.39 2.54 11.27 2.58 11.17 2.63ZM3.53 8L11.85 4.08L20.17 8L11.85 11.65L3.53 8ZM20.17 16.06C20.22 16.04 20.27 16.02 20.32 16.01C20.37 16 20.42 15.99 20.47 15.99C20.52 15.99 20.57 16 20.62 16C20.67 16.01 20.72 16.03 20.77 16.04C20.82 16.06 20.87 16.09 20.91 16.11C20.95 16.14 20.99 16.17 21.03 16.21C21.07 16.24 21.1 16.28 21.13 16.32C21.16 16.36 21.19 16.41 21.21 16.45C21.23 16.5 21.25 16.55 21.26 16.6C21.28 16.65 21.28 16.7 21.29 16.75C21.29 16.8 21.29 16.85 21.28 16.9C21.27 16.95 21.26 17 21.24 17.05C21.23 17.1 21.21 17.15 21.18 17.19C21.15 17.24 21.12 17.28 21.09 17.32C21.06 17.36 21.02 17.39 20.98 17.42C20.94 17.45 20.9 17.48 20.85 17.51L20.79 17.53L12.15 21.18C12.06 21.22 11.97 21.24 11.87 21.24C11.78 21.25 11.69 21.24 11.59 21.21L11.53 21.18L2.88 17.53C2.84 17.51 2.79 17.49 2.75 17.46C2.71 17.43 2.67 17.4 2.63 17.36C2.59 17.33 2.56 17.29 2.53 17.25C2.5 17.2 2.48 17.16 2.46 17.11C2.44 17.06 2.42 17.02 2.41 16.97C2.4 16.92 2.4 16.87 2.4 16.81C2.39 16.76 2.4 16.71 2.41 16.66C2.41 16.61 2.43 16.56 2.45 16.51C2.46 16.47 2.49 16.42 2.51 16.38C2.54 16.33 2.57 16.29 2.61 16.25C2.64 16.22 2.68 16.18 2.72 16.15C2.76 16.12 2.8 16.1 2.85 16.07C2.9 16.05 2.95 16.03 2.99 16.02C3.04 16.01 3.09 16 3.15 16C3.2 15.99 3.25 16 3.3 16C3.35 16.01 3.4 16.02 3.45 16.04L3.51 16.06L11.84 19.58L20.17 16.06Z" fill="#000000" fill-opacity="1.000000" fill-rule="nonzero"/>
		</g>
		<g opacity="0.400000">
			<path d="M20 12L11.99 15.6L4 12L4 13.3C4 13.61 4.18 13.9 4.46 14.02L11.16 17C11.42 17.13 11.7 17.19 11.99 17.19C12.27 17.19 12.56 17.13 12.82 17L19.53 14.02C19.6 13.98 19.67 13.94 19.72 13.89C19.78 13.84 19.83 13.79 19.87 13.72C19.91 13.66 19.94 13.59 19.96 13.51C19.99 13.44 20 13.37 20 13.29L20 12Z" fill="#000000" fill-opacity="1.000000" fill-rule="nonzero"/>
		</g>
	</g>
</svg>
