<svg width="24.000000" height="24.000000" viewBox="0 0 24 24" fill="none" xmlns="http://www.w3.org/2000/svg" xmlns:xlink="http://www.w3.org/1999/xlink">
	<desc>
			Created with Pixso.
	</desc>
	<defs>
		<clipPath id="clip123_505">
			<rect width="24.000000" height="24.000000" fill="white" fill-opacity="0"/>
		</clipPath>
	</defs>
	<g clip-path="url(#clip123_505)">
		<g opacity="0.400000">
			<path d="M10.95 2.26L3.34 8.98C3.25 9.05 3.18 9.14 3.11 9.23C3.04 9.32 2.98 9.42 2.94 9.52C2.89 9.62 2.85 9.73 2.83 9.84C2.81 9.95 2.8 10.07 2.8 10.18L2.8 20.8C2.8 20.85 2.8 20.9 2.8 20.95C2.81 21 2.82 21.06 2.83 21.11C2.84 21.16 2.85 21.21 2.86 21.26C2.88 21.31 2.9 21.36 2.92 21.41C2.94 21.46 2.96 21.5 2.98 21.55C3.01 21.6 3.04 21.64 3.06 21.68C3.09 21.73 3.12 21.77 3.16 21.81C3.19 21.85 3.23 21.89 3.26 21.93C3.3 21.96 3.34 22 3.38 22.03C3.42 22.07 3.46 22.1 3.51 22.13C3.55 22.15 3.59 22.18 3.64 22.21C3.69 22.23 3.73 22.25 3.78 22.27C3.83 22.29 3.88 22.31 3.93 22.33C3.98 22.34 4.03 22.35 4.08 22.36C4.13 22.37 4.19 22.38 4.24 22.39C4.29 22.39 4.34 22.4 4.4 22.4L19.6 22.4C19.65 22.4 19.7 22.39 19.75 22.39C19.8 22.38 19.86 22.37 19.91 22.36C19.96 22.35 20.01 22.34 20.06 22.33C20.11 22.31 20.16 22.29 20.21 22.27C20.26 22.25 20.3 22.23 20.35 22.21C20.4 22.18 20.44 22.15 20.48 22.13C20.53 22.1 20.57 22.07 20.61 22.03C20.65 22 20.69 21.96 20.73 21.93C20.76 21.89 20.8 21.85 20.83 21.81C20.87 21.77 20.9 21.73 20.93 21.68C20.95 21.64 20.98 21.6 21.01 21.55C21.03 21.5 21.05 21.46 21.07 21.41C21.09 21.36 21.11 21.31 21.13 21.26C21.14 21.21 21.15 21.16 21.16 21.11C21.17 21.06 21.18 21 21.19 20.95C21.19 20.9 21.2 20.85 21.2 20.8L21.2 10.18C21.2 10.06 21.18 9.95 21.16 9.84C21.14 9.73 21.1 9.62 21.05 9.52C21.01 9.42 20.95 9.32 20.88 9.23C20.82 9.14 20.74 9.05 20.66 8.98L13.07 2.26C13 2.2 12.92 2.14 12.84 2.09C12.75 2.04 12.67 2 12.58 1.97C12.49 1.93 12.39 1.91 12.3 1.89C12.2 1.87 12.11 1.86 12.01 1.86C11.91 1.86 11.82 1.87 11.72 1.89C11.63 1.91 11.53 1.93 11.44 1.97C11.35 2 11.27 2.04 11.18 2.09C11.1 2.14 11.02 2.2 10.95 2.26ZM4.4 10.18L12.01 3.46L19.6 10.18L19.6 20.8L4.4 20.8L4.4 10.18Z" fill="#000000" fill-opacity="1.000000" fill-rule="nonzero"/>
		</g>
		<g opacity="0.400000">
			<path d="M12.8 11.8L12.8 16.2C12.8 16.64 12.44 17 12 17C11.55 17 11.2 16.64 11.2 16.2L11.2 11.8C11.2 11.74 11.2 11.69 11.21 11.64C11.22 11.59 11.24 11.54 11.26 11.49C11.28 11.44 11.3 11.39 11.33 11.35C11.36 11.31 11.39 11.27 11.43 11.23C11.47 11.19 11.51 11.16 11.55 11.13C11.59 11.1 11.64 11.08 11.69 11.06C11.74 11.04 11.79 11.02 11.84 11.01C11.89 11 11.94 11 12 11C12.05 11 12.1 11 12.15 11.01C12.2 11.02 12.25 11.04 12.3 11.06C12.35 11.08 12.4 11.1 12.44 11.13C12.48 11.16 12.52 11.19 12.56 11.23C12.6 11.27 12.63 11.31 12.66 11.35C12.69 11.39 12.71 11.44 12.73 11.49C12.75 11.54 12.77 11.59 12.78 11.64C12.79 11.69 12.8 11.74 12.8 11.8Z" fill="#000000" fill-opacity="1.000000" fill-rule="nonzero"/>
		</g>
	</g>
</svg>
