<svg width="24.000000" height="24.000000" viewBox="0 0 24 24" fill="none" xmlns="http://www.w3.org/2000/svg" xmlns:xlink="http://www.w3.org/1999/xlink">
	<desc>
			Created with Pixso.
	</desc>
	<defs>
		<clipPath id="clip118_706">
			<rect width="24.000000" height="24.000000" fill="white" fill-opacity="0"/>
		</clipPath>
	</defs>
	<g clip-path="url(#clip118_706)">
		<path d="M11.98 1.6C9.22 1.6 7.44 2.76 6.59 4.72C6.04 5.98 5.95 7.31 6.07 8.57L6.09 8.7C6.24 9.88 6.84 11.3 7.7 12.32L7.75 12.38L3.37 16.06C3.28 16.14 3.2 16.22 3.13 16.31C3.05 16.41 2.99 16.51 2.95 16.61C2.9 16.72 2.86 16.83 2.83 16.94C2.81 17.05 2.8 17.17 2.79 17.29L2.79 20.8C2.79 20.85 2.8 20.9 2.8 20.95C2.81 21 2.82 21.06 2.83 21.11C2.84 21.16 2.85 21.21 2.86 21.26C2.88 21.31 2.9 21.36 2.92 21.41C2.94 21.46 2.96 21.5 2.98 21.55C3.01 21.6 3.04 21.64 3.06 21.68C3.09 21.73 3.12 21.77 3.16 21.81C3.19 21.85 3.23 21.89 3.26 21.93C3.3 21.96 3.34 22 3.38 22.03C3.42 22.07 3.46 22.1 3.51 22.13C3.55 22.15 3.59 22.18 3.64 22.21C3.69 22.23 3.73 22.25 3.78 22.27C3.83 22.29 3.88 22.31 3.93 22.33C3.98 22.34 4.03 22.35 4.08 22.36C4.13 22.37 4.19 22.38 4.24 22.39C4.29 22.39 4.34 22.4 4.39 22.4L19.6 22.4C19.65 22.4 19.7 22.39 19.75 22.39C19.8 22.38 19.86 22.37 19.91 22.36C19.96 22.35 20.01 22.34 20.06 22.33C20.11 22.31 20.16 22.29 20.21 22.27C20.26 22.25 20.3 22.23 20.35 22.21C20.4 22.18 20.44 22.15 20.48 22.13C20.53 22.1 20.57 22.07 20.61 22.03C20.65 22 20.69 21.96 20.73 21.93C20.76 21.89 20.8 21.85 20.83 21.81C20.87 21.77 20.9 21.73 20.93 21.68C20.95 21.64 20.98 21.6 21.01 21.55C21.03 21.5 21.05 21.46 21.07 21.41C21.09 21.36 21.11 21.31 21.13 21.26C21.14 21.21 21.15 21.16 21.16 21.11C21.17 21.06 21.18 21 21.19 20.95C21.19 20.9 21.2 20.85 21.2 20.8L21.2 17.29L21.19 17.19C21.19 17.08 21.17 16.98 21.14 16.87C21.11 16.77 21.07 16.67 21.02 16.57C20.97 16.47 20.92 16.38 20.85 16.29C20.78 16.21 20.7 16.13 20.62 16.06L16.28 12.44L16.35 12.37C17.24 11.35 17.81 9.98 18 8.59C18.17 7.33 18.05 5.86 17.45 4.59C16.56 2.7 14.74 1.6 11.98 1.6ZM11.98 3.2C14.14 3.2 15.38 3.95 16.01 5.28C16.45 6.22 16.55 7.39 16.42 8.38C16.23 9.76 15.57 11.09 14.59 11.84C14.54 11.87 14.5 11.91 14.46 11.96C14.42 12.01 14.39 12.06 14.36 12.11C14.33 12.16 14.31 12.22 14.3 12.28C14.28 12.34 14.27 12.39 14.27 12.45C14.27 12.51 14.28 12.57 14.29 12.63C14.3 12.69 14.32 12.75 14.34 12.8C14.37 12.86 14.4 12.91 14.44 12.96C14.47 13.01 14.51 13.05 14.56 13.09L19.6 17.29L19.6 20.8L4.39 20.8L4.39 17.29L9.46 13.04C9.5 13 9.55 12.96 9.58 12.91C9.62 12.86 9.65 12.81 9.67 12.76C9.7 12.7 9.72 12.65 9.73 12.59C9.74 12.53 9.75 12.47 9.74 12.41C9.74 12.35 9.74 12.29 9.72 12.24C9.71 12.18 9.69 12.12 9.66 12.07C9.63 12.02 9.6 11.97 9.56 11.92C9.53 11.87 9.49 11.83 9.44 11.8C8.52 11.08 7.78 9.52 7.67 8.4C7.56 7.4 7.64 6.31 8.06 5.36C8.65 3.98 9.85 3.2 11.98 3.2Z" fill="#333333" fill-opacity="1.000000" fill-rule="nonzero"/>
		<path d="M12.8 15.2L12.8 18.39C12.8 18.84 12.44 19.2 12 19.2C11.55 19.2 11.2 18.84 11.2 18.39L11.2 15.2C11.2 15.14 11.2 15.09 11.21 15.04C11.22 14.99 11.24 14.94 11.26 14.89C11.28 14.84 11.3 14.79 11.33 14.75C11.36 14.71 11.39 14.67 11.43 14.63C11.47 14.59 11.51 14.56 11.55 14.53C11.59 14.5 11.64 14.48 11.69 14.46C11.74 14.44 11.79 14.42 11.84 14.41C11.89 14.4 11.94 14.39 12 14.39C12.05 14.39 12.1 14.4 12.15 14.41C12.2 14.42 12.25 14.44 12.3 14.46C12.35 14.48 12.4 14.5 12.44 14.53C12.48 14.56 12.52 14.59 12.56 14.63C12.6 14.67 12.63 14.71 12.66 14.75C12.69 14.79 12.71 14.84 12.73 14.89C12.75 14.94 12.77 14.99 12.78 15.04C12.79 15.09 12.8 15.14 12.8 15.2Z" fill="#F85E77" fill-opacity="1.000000" fill-rule="nonzero"/>
	</g>
</svg>
