<svg width="24.000000" height="24.000000" viewBox="0 0 24 24" fill="none" xmlns="http://www.w3.org/2000/svg" xmlns:xlink="http://www.w3.org/1999/xlink">
	<desc>
			Created with Pixso.
	</desc>
	<defs>
		<clipPath id="clip118_591">
			<rect width="24.000000" height="24.000000" fill="white" fill-opacity="0"/>
		</clipPath>
	</defs>
	<g clip-path="url(#clip118_591)">
		<g opacity="0.000000">
			<rect width="24.000000" height="24.000000" fill="#000000" fill-opacity="1.000000"/>
		</g>
		<path d="M7.75 8.99C7.53 8.99 7.35 9.06 7.22 9.18C7.09 9.31 7.03 9.49 7.03 9.71C7.03 9.93 7.09 10.16 7.22 10.3C7.35 10.42 7.53 10.49 7.75 10.49L12.31 10.49C12.53 10.49 12.71 10.42 12.84 10.3C12.96 10.16 13.03 9.98 13.03 9.76C13.03 9.54 12.96 9.31 12.84 9.18C12.71 9.06 12.53 8.99 12.31 8.99L7.75 8.99ZM7.75 12.96C7.53 12.96 7.35 13.02 7.22 13.15C7.09 13.27 7.03 13.45 7.03 13.68C7.03 13.9 7.09 14.12 7.22 14.26C7.35 14.38 7.53 14.45 7.75 14.45L12.31 14.45C12.53 14.45 12.71 14.38 12.84 14.26C12.96 14.12 13.03 13.95 13.03 13.73C13.03 13.5 12.96 13.27 12.84 13.15C12.71 13.02 12.53 12.96 12.31 12.96L7.75 12.96ZM20.02 20.46L20.02 9.23C20.02 8.75 19.87 8.32 19.58 7.92C19.29 7.53 18.92 7.26 18.45 7.12L16.01 6.37L16.01 3.49C16.01 3.05 15.81 2.66 15.43 2.32C15.13 2.1 14.82 1.98 14.5 1.98C14.42 1.98 14.31 2 14.18 2.03L5.59 3.84C5.13 3.95 4.74 4.19 4.44 4.56C4.13 4.92 3.98 5.34 3.98 5.82L3.98 20.46L2.76 20.46C2.55 20.46 2.37 20.54 2.23 20.7C2.08 20.85 2.02 21.03 2.02 21.24C2.02 21.44 2.08 21.62 2.23 21.77C2.37 21.91 2.55 21.98 2.76 21.98L21.22 21.98C21.42 21.98 21.6 21.91 21.74 21.77C21.88 21.62 21.96 21.44 21.96 21.24C21.96 21.03 21.88 20.85 21.74 20.7C21.6 20.54 21.42 20.46 21.22 20.46L20.02 20.46ZM5.5 5.82C5.5 5.55 5.63 5.37 5.9 5.29L13.58 3.71L13.73 3.7C13.95 3.7 14.13 3.77 14.29 3.91C14.44 4.07 14.52 4.25 14.52 4.45L14.52 18.19C14.52 18.39 14.59 18.57 14.74 18.71C14.88 18.86 15.05 18.94 15.26 18.94C15.47 18.94 15.65 18.86 15.79 18.71C15.93 18.57 16.01 18.39 16.01 18.19L16.01 7.93L18.02 8.56C18.18 8.61 18.3 8.7 18.4 8.81C18.48 8.93 18.53 9.07 18.53 9.23L18.53 20.46L5.5 20.46L5.5 5.82Z" fill="#999999" fill-opacity="1.000000" fill-rule="nonzero"/>
	</g>
</svg>
