<svg width="16.000000" height="16.000000" viewBox="0 0 16 16" fill="none" xmlns="http://www.w3.org/2000/svg" xmlns:xlink="http://www.w3.org/1999/xlink">
  <metadata>
    <agcit_code>agcit_huawei_driver_license_exam</agcit_code>
  </metadata>
	<desc>
			Created with Pixso.
	</desc>
	<defs>
		<clipPath id="clip46_2642">
			<rect width="16.000000" height="16.000000" fill="white" fill-opacity="0"/>
		</clipPath>
	</defs>
	<g clip-path="url(#clip46_2642)">
		<path d="M5.55 1.01L14.65 1.01C14.68 1.01 14.71 1.01 14.74 1.01C14.77 1.02 14.79 1.02 14.82 1.03C14.85 1.03 14.88 1.04 14.91 1.05C14.94 1.06 14.97 1.07 14.99 1.08C15.02 1.09 15.05 1.1 15.08 1.12C15.1 1.13 15.13 1.15 15.15 1.16C15.18 1.18 15.2 1.2 15.22 1.22C15.25 1.23 15.27 1.25 15.29 1.28C15.31 1.3 15.33 1.32 15.35 1.34C15.37 1.36 15.39 1.39 15.4 1.41C15.42 1.44 15.43 1.46 15.45 1.49C15.46 1.52 15.48 1.54 15.49 1.57C15.5 1.6 15.51 1.63 15.52 1.65C15.53 1.68 15.53 1.71 15.54 1.74C15.54 1.77 15.55 1.8 15.55 1.83C15.55 1.86 15.56 1.89 15.56 1.92C15.56 1.95 15.55 1.98 15.55 2.01C15.55 2.04 15.54 2.07 15.54 2.1C15.53 2.12 15.53 2.15 15.52 2.18C15.51 2.21 15.5 2.24 15.49 2.27C15.48 2.29 15.46 2.32 15.45 2.35C15.43 2.37 15.42 2.4 15.4 2.42C15.39 2.45 15.37 2.47 15.35 2.49C15.33 2.52 15.31 2.54 15.29 2.56C15.27 2.58 15.25 2.6 15.22 2.62C15.2 2.64 15.18 2.66 15.15 2.67C15.13 2.69 15.1 2.71 15.08 2.72C15.05 2.73 15.02 2.75 14.99 2.76C14.97 2.77 14.94 2.78 14.91 2.79C14.88 2.8 14.85 2.8 14.82 2.81C14.79 2.82 14.77 2.82 14.74 2.82C14.71 2.83 14.68 2.83 14.65 2.83L5.54 2.83C5.51 2.83 5.48 2.83 5.46 2.82C5.43 2.82 5.4 2.82 5.37 2.81C5.34 2.8 5.31 2.8 5.28 2.79C5.25 2.78 5.22 2.77 5.2 2.76C5.17 2.75 5.14 2.73 5.12 2.72C5.09 2.71 5.06 2.69 5.04 2.67C5.01 2.66 4.99 2.64 4.97 2.62C4.94 2.6 4.92 2.58 4.9 2.56C4.88 2.54 4.86 2.52 4.84 2.5C4.82 2.47 4.8 2.45 4.79 2.42C4.77 2.4 4.76 2.37 4.74 2.35C4.73 2.32 4.72 2.29 4.7 2.27C4.69 2.24 4.68 2.21 4.67 2.18C4.67 2.15 4.66 2.12 4.65 2.1C4.65 2.07 4.64 2.04 4.64 2.01C4.64 1.98 4.63 1.95 4.63 1.92C4.63 1.89 4.64 1.86 4.64 1.83C4.64 1.8 4.65 1.77 4.65 1.74C4.66 1.71 4.67 1.68 4.67 1.65C4.68 1.63 4.69 1.6 4.7 1.57C4.72 1.54 4.73 1.52 4.74 1.49C4.76 1.46 4.77 1.44 4.79 1.41C4.8 1.39 4.82 1.36 4.84 1.34C4.86 1.32 4.88 1.3 4.9 1.28C4.92 1.25 4.94 1.23 4.97 1.22C4.99 1.2 5.01 1.18 5.04 1.16C5.06 1.15 5.09 1.13 5.12 1.12C5.14 1.1 5.17 1.09 5.2 1.08C5.22 1.07 5.25 1.06 5.28 1.05C5.31 1.04 5.34 1.03 5.37 1.03C5.4 1.02 5.43 1.02 5.46 1.01C5.48 1.01 5.52 1.01 5.55 1.01ZM2.27 13.75C2.23 13.75 2.19 13.75 2.14 13.74C2.1 13.74 2.06 13.73 2.02 13.72C1.98 13.72 1.94 13.71 1.9 13.69C1.86 13.68 1.82 13.67 1.78 13.65C1.74 13.64 1.7 13.62 1.67 13.6C1.63 13.58 1.6 13.56 1.56 13.53C1.53 13.51 1.49 13.49 1.46 13.46C1.43 13.43 1.4 13.41 1.37 13.38C1.34 13.35 1.31 13.32 1.28 13.28C1.26 13.25 1.23 13.22 1.21 13.18C1.18 13.15 1.16 13.11 1.14 13.08C1.12 13.04 1.11 13 1.09 12.96C1.07 12.92 1.06 12.88 1.05 12.84C1.04 12.8 1.03 12.76 1.02 12.72C1.01 12.68 1 12.64 1 12.6C1 12.56 0.99 12.52 0.99 12.47C0.99 12.43 1 12.39 1 12.35C1 12.31 1.01 12.27 1.02 12.22C1.03 12.18 1.04 12.14 1.05 12.1C1.06 12.06 1.07 12.02 1.09 11.99C1.11 11.95 1.12 11.91 1.14 11.87C1.16 11.84 1.18 11.8 1.21 11.76C1.23 11.73 1.26 11.7 1.28 11.66C1.31 11.63 1.34 11.6 1.37 11.57C1.4 11.54 1.43 11.51 1.46 11.49C1.49 11.46 1.53 11.44 1.56 11.41C1.6 11.39 1.63 11.37 1.67 11.35C1.7 11.33 1.74 11.31 1.78 11.3C1.82 11.28 1.86 11.27 1.9 11.25C1.94 11.24 1.98 11.23 2.02 11.22C2.06 11.21 2.1 11.21 2.14 11.2C2.19 11.2 2.23 11.2 2.27 11.2C2.31 11.2 2.35 11.2 2.39 11.2C2.44 11.21 2.48 11.21 2.52 11.22C2.56 11.23 2.6 11.24 2.64 11.25C2.68 11.27 2.72 11.28 2.76 11.3C2.8 11.31 2.83 11.33 2.87 11.35C2.91 11.37 2.94 11.39 2.98 11.41C3.01 11.44 3.05 11.46 3.08 11.49C3.11 11.51 3.14 11.54 3.17 11.57C3.2 11.6 3.23 11.63 3.26 11.66C3.28 11.7 3.31 11.73 3.33 11.77C3.35 11.8 3.37 11.84 3.39 11.87C3.41 11.91 3.43 11.95 3.45 11.99C3.46 12.02 3.48 12.06 3.49 12.1C3.5 12.14 3.51 12.18 3.52 12.22C3.53 12.27 3.53 12.31 3.54 12.35C3.54 12.39 3.54 12.43 3.54 12.47C3.54 12.52 3.54 12.56 3.54 12.6C3.53 12.64 3.53 12.68 3.52 12.72C3.51 12.76 3.5 12.8 3.49 12.84C3.48 12.88 3.46 12.92 3.45 12.96C3.43 13 3.41 13.04 3.39 13.07C3.37 13.11 3.35 13.15 3.33 13.18C3.31 13.22 3.28 13.25 3.26 13.28C3.23 13.32 3.2 13.35 3.17 13.38C3.14 13.41 3.11 13.43 3.08 13.46C3.05 13.49 3.01 13.51 2.98 13.53C2.94 13.56 2.91 13.58 2.87 13.6C2.83 13.62 2.8 13.64 2.76 13.65C2.72 13.67 2.68 13.68 2.64 13.69C2.6 13.71 2.56 13.72 2.52 13.72C2.48 13.73 2.44 13.74 2.39 13.74C2.35 13.75 2.31 13.75 2.27 13.75ZM2.27 8.65C2.23 8.65 2.19 8.65 2.14 8.65C2.1 8.64 2.06 8.64 2.02 8.63C1.98 8.62 1.94 8.61 1.9 8.6C1.86 8.59 1.82 8.57 1.78 8.56C1.74 8.54 1.71 8.52 1.67 8.5C1.63 8.48 1.6 8.46 1.56 8.44C1.53 8.42 1.49 8.39 1.46 8.36C1.43 8.34 1.4 8.31 1.37 8.28C1.34 8.25 1.31 8.22 1.28 8.19C1.26 8.16 1.23 8.12 1.21 8.09C1.19 8.05 1.16 8.02 1.14 7.98C1.13 7.94 1.11 7.91 1.09 7.87C1.08 7.83 1.06 7.79 1.05 7.75C1.04 7.71 1.03 7.67 1.02 7.63C1.01 7.59 1 7.55 1 7.5C1 7.46 0.99 7.42 0.99 7.38C0.99 7.34 1 7.3 1 7.25C1 7.21 1.01 7.17 1.02 7.13C1.03 7.09 1.04 7.05 1.05 7.01C1.06 6.97 1.08 6.93 1.09 6.89C1.11 6.85 1.13 6.81 1.14 6.78C1.16 6.74 1.19 6.7 1.21 6.67C1.23 6.64 1.26 6.6 1.28 6.57C1.31 6.54 1.34 6.51 1.37 6.48C1.4 6.45 1.43 6.42 1.46 6.39C1.49 6.37 1.53 6.34 1.56 6.32C1.6 6.29 1.63 6.27 1.67 6.25C1.71 6.23 1.74 6.22 1.78 6.2C1.82 6.18 1.86 6.17 1.9 6.16C1.94 6.15 1.98 6.14 2.02 6.13C2.06 6.12 2.1 6.11 2.14 6.11C2.19 6.11 2.23 6.1 2.27 6.1C2.31 6.1 2.35 6.11 2.39 6.11C2.44 6.11 2.48 6.12 2.52 6.13C2.56 6.14 2.6 6.15 2.64 6.16C2.68 6.17 2.72 6.18 2.76 6.2C2.8 6.22 2.83 6.23 2.87 6.25C2.91 6.27 2.94 6.29 2.98 6.32C3.01 6.34 3.05 6.37 3.08 6.39C3.11 6.42 3.14 6.45 3.17 6.48C3.2 6.51 3.23 6.54 3.26 6.57C3.28 6.6 3.31 6.64 3.33 6.67C3.35 6.7 3.37 6.74 3.39 6.78C3.41 6.81 3.43 6.85 3.45 6.89C3.46 6.93 3.48 6.97 3.49 7.01C3.5 7.05 3.51 7.09 3.52 7.13C3.53 7.17 3.53 7.21 3.54 7.25C3.54 7.3 3.54 7.34 3.54 7.38C3.54 7.42 3.54 7.46 3.54 7.5C3.53 7.55 3.53 7.59 3.52 7.63C3.51 7.67 3.5 7.71 3.49 7.75C3.48 7.79 3.46 7.83 3.45 7.87C3.43 7.91 3.41 7.94 3.39 7.98C3.37 8.02 3.35 8.05 3.33 8.09C3.31 8.12 3.28 8.16 3.26 8.19C3.23 8.22 3.2 8.25 3.17 8.28C3.14 8.31 3.11 8.34 3.08 8.36C3.05 8.39 3.01 8.42 2.98 8.44C2.94 8.46 2.91 8.48 2.87 8.5C2.83 8.52 2.8 8.54 2.76 8.56C2.72 8.57 2.68 8.59 2.64 8.6C2.6 8.61 2.56 8.62 2.52 8.63C2.48 8.64 2.44 8.64 2.39 8.65C2.35 8.65 2.31 8.65 2.27 8.65ZM2.27 3.56C2.23 3.56 2.19 3.55 2.14 3.55C2.1 3.55 2.06 3.54 2.02 3.53C1.98 3.52 1.94 3.51 1.9 3.5C1.86 3.49 1.82 3.48 1.78 3.46C1.74 3.44 1.71 3.43 1.67 3.41C1.63 3.39 1.6 3.36 1.56 3.34C1.53 3.32 1.49 3.29 1.46 3.27C1.43 3.24 1.4 3.21 1.37 3.18C1.34 3.15 1.31 3.12 1.28 3.09C1.26 3.06 1.23 3.02 1.21 2.99C1.19 2.96 1.16 2.92 1.14 2.88C1.13 2.85 1.11 2.81 1.09 2.77C1.08 2.73 1.06 2.69 1.05 2.65C1.04 2.61 1.03 2.57 1.02 2.53C1.01 2.49 1 2.45 1 2.41C1 2.36 0.99 2.32 0.99 2.28C0.99 2.24 1 2.2 1 2.16C1 2.11 1.01 2.07 1.02 2.03C1.03 1.99 1.04 1.95 1.05 1.91C1.06 1.87 1.08 1.83 1.09 1.79C1.11 1.75 1.13 1.72 1.14 1.68C1.16 1.64 1.19 1.61 1.21 1.57C1.23 1.54 1.26 1.5 1.28 1.47C1.31 1.44 1.34 1.41 1.37 1.38C1.4 1.35 1.43 1.32 1.46 1.3C1.49 1.27 1.53 1.24 1.56 1.22C1.6 1.2 1.63 1.18 1.67 1.16C1.71 1.14 1.74 1.12 1.78 1.1C1.82 1.09 1.86 1.07 1.9 1.06C1.94 1.05 1.98 1.04 2.02 1.03C2.06 1.02 2.1 1.02 2.14 1.01C2.19 1.01 2.23 1.01 2.27 1.01C2.31 1.01 2.35 1.01 2.39 1.01C2.44 1.02 2.48 1.02 2.52 1.03C2.56 1.04 2.6 1.05 2.64 1.06C2.68 1.07 2.72 1.09 2.76 1.1C2.8 1.12 2.83 1.14 2.87 1.16C2.91 1.18 2.94 1.2 2.98 1.22C3.01 1.24 3.05 1.27 3.08 1.3C3.11 1.32 3.14 1.35 3.17 1.38C3.2 1.41 3.23 1.44 3.26 1.47C3.28 1.5 3.31 1.54 3.33 1.57C3.35 1.61 3.37 1.64 3.39 1.68C3.41 1.72 3.43 1.75 3.45 1.79C3.46 1.83 3.48 1.87 3.49 1.91C3.5 1.95 3.51 1.99 3.52 2.03C3.53 2.07 3.53 2.11 3.54 2.16C3.54 2.2 3.54 2.24 3.54 2.28C3.54 2.32 3.54 2.36 3.54 2.41C3.53 2.45 3.53 2.49 3.52 2.53C3.51 2.57 3.5 2.61 3.49 2.65C3.48 2.69 3.46 2.73 3.45 2.77C3.43 2.81 3.41 2.85 3.39 2.88C3.37 2.92 3.35 2.96 3.33 2.99C3.31 3.02 3.28 3.06 3.26 3.09C3.23 3.12 3.2 3.15 3.17 3.18C3.14 3.21 3.11 3.24 3.08 3.27C3.05 3.29 3.01 3.32 2.98 3.34C2.94 3.36 2.91 3.39 2.87 3.41C2.83 3.43 2.8 3.44 2.76 3.46C2.72 3.48 2.68 3.49 2.64 3.5C2.6 3.51 2.56 3.52 2.52 3.53C2.48 3.54 2.44 3.55 2.39 3.55C2.35 3.55 2.31 3.56 2.27 3.56ZM14.65 8.29L5.54 8.29C5.49 8.29 5.43 8.28 5.37 8.27C5.32 8.25 5.26 8.23 5.21 8.21C5.16 8.18 5.11 8.16 5.06 8.12C5.01 8.09 4.97 8.05 4.93 8.01C4.89 7.97 4.85 7.92 4.82 7.87C4.79 7.82 4.76 7.77 4.74 7.72C4.72 7.67 4.7 7.61 4.69 7.55C4.68 7.5 4.68 7.44 4.68 7.38C4.68 7.32 4.68 7.27 4.69 7.21C4.7 7.15 4.72 7.1 4.74 7.04C4.76 6.99 4.79 6.94 4.82 6.89C4.85 6.84 4.89 6.79 4.93 6.75C4.97 6.71 5.01 6.67 5.06 6.64C5.11 6.61 5.16 6.58 5.21 6.55C5.26 6.53 5.32 6.51 5.37 6.5C5.43 6.48 5.49 6.47 5.54 6.47L14.65 6.47C14.7 6.47 14.76 6.48 14.82 6.5C14.87 6.51 14.93 6.53 14.98 6.55C15.03 6.58 15.08 6.61 15.13 6.64C15.18 6.67 15.22 6.71 15.26 6.75C15.3 6.79 15.34 6.84 15.37 6.89C15.4 6.94 15.43 6.99 15.45 7.04C15.47 7.1 15.49 7.15 15.5 7.21C15.51 7.27 15.51 7.32 15.51 7.38C15.51 7.44 15.51 7.5 15.5 7.55C15.49 7.61 15.47 7.67 15.45 7.72C15.43 7.77 15.4 7.82 15.37 7.87C15.34 7.92 15.3 7.97 15.26 8.01C15.22 8.05 15.18 8.09 15.13 8.12C15.08 8.16 15.03 8.18 14.98 8.21C14.93 8.23 14.87 8.25 14.82 8.27C14.76 8.28 14.7 8.29 14.65 8.29ZM5.54 7.43L14.65 7.43L5.54 7.43ZM14.65 13.75L5.54 13.75C5.49 13.75 5.43 13.74 5.37 13.72C5.32 13.71 5.26 13.69 5.21 13.67C5.16 13.64 5.11 13.62 5.06 13.58C5.01 13.55 4.97 13.51 4.93 13.47C4.89 13.43 4.85 13.38 4.82 13.33C4.79 13.28 4.76 13.23 4.74 13.18C4.72 13.12 4.7 13.07 4.69 13.01C4.68 12.96 4.68 12.9 4.68 12.84C4.68 12.78 4.68 12.72 4.69 12.67C4.7 12.61 4.72 12.56 4.74 12.5C4.76 12.45 4.79 12.4 4.82 12.35C4.85 12.3 4.89 12.25 4.93 12.21C4.97 12.17 5.01 12.13 5.06 12.1C5.11 12.06 5.16 12.04 5.21 12.01C5.26 11.99 5.32 11.97 5.37 11.96C5.43 11.94 5.49 11.93 5.54 11.93L14.65 11.93C14.7 11.93 14.76 11.94 14.82 11.96C14.87 11.97 14.93 11.99 14.98 12.01C15.03 12.04 15.08 12.06 15.13 12.1C15.18 12.13 15.22 12.17 15.26 12.21C15.3 12.25 15.34 12.3 15.37 12.35C15.4 12.4 15.43 12.45 15.45 12.5C15.47 12.56 15.49 12.61 15.5 12.67C15.51 12.72 15.51 12.78 15.51 12.84C15.51 12.9 15.51 12.96 15.5 13.01C15.49 13.07 15.47 13.12 15.45 13.18C15.43 13.23 15.4 13.28 15.37 13.33C15.34 13.38 15.3 13.43 15.26 13.47C15.22 13.51 15.18 13.55 15.13 13.58C15.08 13.62 15.03 13.64 14.98 13.67C14.93 13.69 14.87 13.71 14.82 13.72C14.76 13.74 14.7 13.75 14.65 13.75ZM5.54 12.89L14.65 12.89L5.54 12.89Z" fill="#000000" fill-opacity="0.600000" fill-rule="nonzero"/>
	</g>
</svg>
