<svg xmlns="http://www.w3.org/2000/svg" xmlns:xlink="http://www.w3.org/1999/xlink" width="24px" height="24px" viewBox="0 0 24 24" version="1.1">
    <title>ic_checkmask_lined</title>
    <g id="ic_checkmask_lined" stroke="none" stroke-width="1" fill="none" fill-rule="evenodd">
        <g id="编组">
            <rect id="矩形" fill="#D8D8D8" opacity="0" x="0" y="0" width="24" height="24"></rect>
            <path d="M20.4696699,5.78041991 C20.7625631,5.4875267 21.2374369,5.4875267 21.5303301,5.78041991 C21.7965966,6.04668648 21.8208027,6.46335016 21.6029482,6.75696165 L21.5303301,6.84108009 L10.5913301,17.7800801 C9.75428893,18.6171212 8.42202734,18.6569803 7.53782233,17.8996574 L7.40866991,17.7800801 L2.46966991,12.8410801 C2.1767767,12.5481869 2.1767767,12.0733131 2.46966991,11.7804199 C2.73593648,11.5141534 3.15260016,11.4899473 3.44621165,11.7078018 L3.53033009,11.7804199 L8.46933009,16.7194199 C8.7357908,16.9858806 9.15268083,17.0101043 9.44649233,16.792091 L9.53066991,16.7194199 L20.4696699,5.78041991 Z" id="Stroke-1" fill="#191919"></path>
        </g>
    </g>
</svg>