<svg width="64.000000" height="16.000000" viewBox="0 0 64 16" fill="none" xmlns="http://www.w3.org/2000/svg" xmlns:xlink="http://www.w3.org/1999/xlink">
	<desc>
			Created with Pixso.
	</desc>
	<defs/>
	<rect rx="8.000000" width="64.000000" height="16.000000" fill="#000000" fill-opacity="0.047059"/>
	<path d="M25.4675 7.57507C25.4459 7.57178 25.4243 7.57007 25.4027 7.57007C25.1814 7.57007 25.0001 7.75146 25.0001 7.97266C25.0001 8.08582 25.0468 8.19055 25.1282 8.26538L25.1232 8.27881L32.2697 12L39.4227 8.2738L39.4127 8.25378C39.4875 8.18054 39.5308 8.0791 39.5308 7.97095C39.5308 7.74976 39.3512 7.57007 39.1299 7.57007C39.0483 7.57007 38.9685 7.59509 38.9004 7.64331L32.2697 11.0951L25.4742 7.55676L25.4675 7.57507ZM39.4043 4.70361L39.4093 4.71863L32.2697 8.43823L25.2596 4.78687C25.1033 4.72693 25.0017 4.58057 25.0017 4.4126C25.0017 4.19128 25.1814 4.0116 25.4027 4.0116C25.4276 4.0116 25.4525 4.01331 25.4775 4.01831L25.4875 4L32.2712 7.53333L38.9535 4.05151C39.0101 4.0249 39.0699 4.01001 39.1282 4.01001C39.3495 4.01001 39.5292 4.1897 39.5292 4.41089C39.5308 4.52405 39.4843 4.62878 39.4043 4.70361Z" clip-rule="evenodd" fill="#000000" fill-opacity="0.600000" fill-rule="evenodd"/>
</svg>
