<svg width="64.000000" height="16.000000" viewBox="0 0 64 16" fill="none" xmlns="http://www.w3.org/2000/svg" xmlns:xlink="http://www.w3.org/1999/xlink">
	<desc>
			Created with Pixso.
	</desc>
	<defs/>
	<rect rx="8.000000" width="64.000000" height="16.000000" fill="#000000" fill-opacity="0.047059"/>
	<path d="M25.4677 8.4248C25.446 8.42822 25.4243 8.42981 25.4027 8.42981C25.1815 8.42981 25.0001 8.24854 25.0001 8.02734C25.0001 7.91418 25.0468 7.80933 25.1283 7.7345L25.1233 7.72119L32.2697 4L39.4227 7.7262L39.4127 7.74609C39.4875 7.81934 39.5309 7.92078 39.5309 8.02893C39.5309 8.25024 39.3512 8.42981 39.13 8.42981C39.0485 8.42981 38.9686 8.40491 38.9004 8.35669L32.2697 4.90491L25.4742 8.44312L25.4677 8.4248ZM39.4044 11.2963L39.4094 11.2814L32.2697 7.56177L25.2596 11.2131C25.1033 11.2729 25.0018 11.4194 25.0018 11.5874C25.0018 11.8086 25.1815 11.9883 25.4027 11.9883C25.4276 11.9883 25.4526 11.9867 25.4775 11.9817L25.4875 12L32.2714 8.46667L38.9536 11.9484C39.0101 11.975 39.0701 11.99 39.1283 11.99C39.3495 11.99 39.5292 11.8103 39.5292 11.5891C39.5309 11.476 39.4843 11.3711 39.4044 11.2963Z" clip-rule="evenodd" fill="#000000" fill-opacity="0.600000" fill-rule="evenodd"/>
</svg>
