<svg width="40.000000" height="40.000000" viewBox="0 0 40 40" fill="none" xmlns="http://www.w3.org/2000/svg" xmlns:xlink="http://www.w3.org/1999/xlink">
	<desc>
			Created with Pixso.
	</desc>
	<defs>
		<clipPath id="clip152_3829">
			<rect rx="20.000000" width="40.000000" height="40.000000" fill="white" fill-opacity="0"/>
		</clipPath>
	</defs>
	<rect rx="20.000000" width="40.000000" height="40.000000" fill="#486602" fill-opacity="1.000000"/>
	<g clip-path="url(#clip152_3829)">
		<path d="M15.23 16L24.76 16C25.95 16 26.88 17.03 26.75 18.21L25.64 28.21C25.53 29.23 24.68 30 23.66 30L16.33 30C15.31 30 14.46 29.23 14.35 28.21L13.24 18.21C13.11 17.03 14.04 16 15.23 16Z" fill="#EAFFB9" fill-opacity="1.000000" fill-rule="evenodd"/>
		<path d="M26.66 19.28C26.14 19.09 25.58 18.99 24.99 18.99C22.23 18.99 19.99 21.23 19.99 23.99C19.99 26.76 22.23 28.99 24.99 28.99C25.16 28.99 25.33 28.99 25.5 28.97C25.63 28.74 25.62 28.49 25.64 28.21L26.66 19.28Z" fill="#9ABE45" fill-opacity="1.000000" fill-rule="evenodd"/>
		<path d="M13 14L27 14C28.1 14 29 14.89 29 16C29 17.1 28.1 18 27 18L13 18C11.89 18 11 17.1 11 16C11 14.89 11.89 14 13 14Z" fill="#9ABE45" fill-opacity="1.000000" fill-rule="evenodd"/>
		<path d="M29.14 7.98C29.69 7.91 30.06 7.41 29.98 6.85C29.91 6.3 29.41 5.93 28.85 6.01C28.25 6.09 27.63 6.2 26.99 6.33C26.41 6.44 25.93 6.56 25.55 6.67C25.3 6.74 25.09 6.82 24.92 6.89C24.65 7 24.44 7.14 24.29 7.29C24.12 7.46 23.84 7.85 23.47 8.46C23.19 8.91 22.85 9.48 22.44 10.18C21.98 10.98 21.54 11.75 21.12 12.51C20.85 13 21.02 13.6 21.51 13.87C22 14.14 22.6 13.97 22.87 13.48C23.28 12.73 23.72 11.97 24.17 11.18C24.57 10.5 24.9 9.94 25.17 9.51C25.32 9.27 25.45 9.07 25.55 8.92C25.6 8.84 25.64 8.78 25.67 8.74C25.77 8.7 25.94 8.64 26.11 8.59C26.44 8.49 26.86 8.39 27.38 8.29C27.99 8.17 28.57 8.07 29.14 7.98Z" fill="#EAFFB8" fill-opacity="0.563218" fill-rule="evenodd"/>
		<path d="M14.99 14L25.08 14C24.23 12.23 22.29 11 20.04 11C17.78 11 15.84 12.23 14.99 14Z" fill="#C4E082" fill-opacity="1.000000" fill-rule="evenodd"/>
	</g>
</svg>
