<svg width="24.000000" height="24.000000" viewBox="0 0 24 24" fill="none" xmlns="http://www.w3.org/2000/svg" xmlns:xlink="http://www.w3.org/1999/xlink">
	<desc>
			Created with Pixso.
	</desc>
	<defs>
		<clipPath id="clip48_2128">
			<rect width="24.000000" height="24.000000" transform="translate(24.000000 24.000000) rotate(180.000000)" fill="white" fill-opacity="0"/>
		</clipPath>
	</defs>
	<g clip-path="url(#clip48_2128)">
		<g opacity="0.000000">
			<rect x="4.000000" y="4.000000" width="16.000000" height="16.000000" fill="#C4C4C4" fill-opacity="1.000000"/>
		</g>
		<circle cx="12.000000" cy="9.000000" r="5.000000" fill="#000000" fill-opacity="0"/>
		<circle cx="12.000000" cy="9.000000" r="5.000000" stroke="#191919" stroke-opacity="1.000000" stroke-width="2.000000" stroke-linejoin="round"/>
		<path d="M11.02 14.02L11 14C11 13.44 11.43 13 12 13C12.56 13 13 13.44 13 14L12.98 14.02L11.02 14.02ZM12.98 18.98L13 19C13 19.56 12.56 20 12 20C11.43 20 11 19.56 11 19L11.02 18.98L12.98 18.98Z" fill="#FFFFFF" fill-opacity="1.000000" fill-rule="nonzero"/>
		<path d="M12 14L12 19" stroke="#191919" stroke-opacity="1.000000" stroke-width="2.000000" stroke-linejoin="round" stroke-linecap="round"/>
		<path d="M8.02 17.98L8 18C7.43 18 7 17.56 7 17C7 16.44 7.43 16 8 16L8.02 16.02L8.02 17.98ZM15.98 16.02L16 16C16.56 16 17 16.44 17 17C17 17.56 16.56 18 16 18L15.98 17.98L15.98 16.02Z" fill="#FFFFFF" fill-opacity="1.000000" fill-rule="nonzero"/>
		<path d="M8 17L16 17" stroke="#191919" stroke-opacity="1.000000" stroke-width="2.000000" stroke-linejoin="round" stroke-linecap="round"/>
	</g>
</svg>
