<svg width="24.000000" height="24.000000" viewBox="0 0 24 24" fill="none" xmlns="http://www.w3.org/2000/svg" xmlns:xlink="http://www.w3.org/1999/xlink">
	<desc>
			Created with Pixso.
	</desc>
	<defs>
		<clipPath id="clip48_2107">
			<rect width="24.000000" height="24.000000" fill="white" fill-opacity="0"/>
		</clipPath>
	</defs>
	<g clip-path="url(#clip48_2107)">
		<path d="M4.5 11.99C4.5 10.82 4.49 9.65 4.5 8.47C4.49 7.91 4.56 7.34 4.7 6.79C5.01 5.63 5.77 4.94 6.93 4.67C7.51 4.55 8.11 4.49 8.7 4.5C10.95 4.5 13.2 4.5 15.45 4.5C16.01 4.49 16.58 4.56 17.13 4.69C18.33 4.98 19.05 5.74 19.32 6.93C19.44 7.5 19.5 8.07 19.49 8.65C19.49 10.92 19.49 13.19 19.49 15.46C19.5 16.03 19.43 16.59 19.3 17.13C19.01 18.33 18.25 19.04 17.05 19.32C16.47 19.44 15.88 19.5 15.28 19.49C13.04 19.49 10.81 19.49 8.57 19.49C8 19.5 7.43 19.43 6.87 19.3C5.67 19.01 4.95 18.25 4.67 17.05C4.53 16.44 4.5 15.83 4.5 15.21C4.5 14.14 4.5 13.06 4.5 11.99Z" fill="#FFFFFF" fill-opacity="0" fill-rule="nonzero"/>
		<path d="M4.5 8.47C4.49 7.91 4.56 7.34 4.7 6.79C5.01 5.63 5.77 4.94 6.93 4.67C7.51 4.55 8.11 4.49 8.7 4.5C10.95 4.5 13.2 4.5 15.45 4.5C16.01 4.49 16.58 4.56 17.13 4.69C18.33 4.98 19.05 5.74 19.32 6.93C19.44 7.5 19.5 8.07 19.49 8.65C19.49 10.92 19.49 13.19 19.49 15.46C19.5 16.03 19.43 16.59 19.3 17.13C19.01 18.33 18.25 19.04 17.05 19.32C16.47 19.44 15.88 19.5 15.28 19.49C13.04 19.49 10.81 19.49 8.57 19.49C8 19.5 7.43 19.43 6.87 19.3C5.67 19.01 4.95 18.25 4.67 17.05C4.53 16.44 4.5 15.83 4.5 15.21C4.5 14.14 4.5 13.06 4.5 11.99C4.5 10.82 4.49 9.65 4.5 8.47Z" stroke="#FFFFFF" stroke-opacity="0" stroke-width="2.000000" stroke-linejoin="round"/>
		<g opacity="0.200000">
			<path d="M4.5 11.99C4.5 10.82 4.49 9.65 4.5 8.47C4.49 7.91 4.56 7.34 4.7 6.79C5.01 5.63 5.77 4.94 6.93 4.67C7.51 4.55 8.11 4.49 8.7 4.5C10.95 4.5 13.2 4.5 15.45 4.5C16.01 4.49 16.58 4.56 17.13 4.69C18.33 4.98 19.05 5.74 19.32 6.93C19.44 7.5 19.5 8.07 19.49 8.65C19.49 10.92 19.49 13.19 19.49 15.46C19.5 16.03 19.43 16.59 19.3 17.13C19.01 18.33 18.25 19.04 17.05 19.32C16.47 19.44 15.88 19.5 15.28 19.49C13.04 19.49 10.81 19.49 8.57 19.49C8 19.5 7.43 19.43 6.87 19.3C5.67 19.01 4.95 18.25 4.67 17.05C4.53 16.44 4.5 15.83 4.5 15.21C4.5 14.14 4.5 13.06 4.5 11.99Z" fill="#000000" fill-opacity="0" fill-rule="nonzero"/>
			<path d="M4.5 8.47C4.49 7.91 4.56 7.34 4.7 6.79C5.01 5.63 5.77 4.94 6.93 4.67C7.51 4.55 8.11 4.49 8.7 4.5C10.95 4.5 13.2 4.5 15.45 4.5C16.01 4.49 16.58 4.56 17.13 4.69C18.33 4.98 19.05 5.74 19.32 6.93C19.44 7.5 19.5 8.07 19.49 8.65C19.49 10.92 19.49 13.19 19.49 15.46C19.5 16.03 19.43 16.59 19.3 17.13C19.01 18.33 18.25 19.04 17.05 19.32C16.47 19.44 15.88 19.5 15.28 19.49C13.04 19.49 10.81 19.49 8.57 19.49C8 19.5 7.43 19.43 6.87 19.3C5.67 19.01 4.95 18.25 4.67 17.05C4.53 16.44 4.5 15.83 4.5 15.21C4.5 14.14 4.5 13.06 4.5 11.99C4.5 10.82 4.49 9.65 4.5 8.47Z" stroke="#FFFFFF" stroke-opacity="0" stroke-width="2.000000" stroke-linejoin="round"/>
		</g>
		<circle cx="12.000000" cy="12.000000" r="8.000000" fill="#FFFFFF" fill-opacity="0"/>
		<circle cx="12.000000" cy="12.000000" r="8.000000" stroke="#000000" stroke-opacity="0" stroke-width="2.000000" stroke-linejoin="round"/>
		<path d="M13.85 5.81L13.83 5.83C13.27 5.83 12.83 5.39 12.83 4.83C12.83 4.27 13.27 3.83 13.83 3.83L13.85 3.85L13.85 5.81ZM20.14 10.14L20.16 10.16C20.16 10.72 19.72 11.16 19.16 11.16C18.6 11.16 18.16 10.72 18.16 10.16L18.18 10.14L20.14 10.14ZM18.29 4.32L18.29 4.29C18.68 3.89 19.31 3.89 19.7 4.29C20.1 4.68 20.1 5.31 19.7 5.7L19.67 5.7L18.29 4.32ZM14.65 10.72L14.65 10.75C14.26 11.15 13.64 11.15 13.24 10.75C12.84 10.35 12.84 9.73 13.24 9.34L13.27 9.34L14.65 10.72Z" fill="#000000" fill-opacity="0" fill-rule="nonzero"/>
		<path d="M13.83 4.83L18.83 4.83C19.01 4.83 19.16 4.98 19.16 5.16L19.16 10.16M18.99 5L13.95 10.04" stroke="#62B42E" stroke-opacity="1.000000" stroke-width="2.000000" stroke-linejoin="round" stroke-linecap="round"/>
		<circle cx="10.166626" cy="13.833336" r="5.333333" fill="#000000" fill-opacity="0"/>
		<circle cx="10.166626" cy="13.833336" r="5.333333" stroke="#62B42E" stroke-opacity="1.000000" stroke-width="2.000000" stroke-linejoin="round"/>
		<path d="M18.83 4.5C19.18 4.5 19.47 4.77 19.49 5.11L19.5 5.16L19.5 10.16C19.5 10.35 19.35 10.5 19.16 10.5C18.99 10.5 18.85 10.37 18.83 10.2L18.83 10.16L18.83 5.63L14.35 10.11C14.22 10.24 14.01 10.24 13.88 10.11C13.76 9.99 13.75 9.8 13.85 9.67L18.36 5.16L13.83 5.16C13.64 5.16 13.5 5.01 13.5 4.83C13.5 4.66 13.62 4.52 13.79 4.5L13.83 4.5L18.83 4.5Z" fill="#FFFFFF" fill-opacity="0" fill-rule="nonzero"/>
		<path d="M19.49 5.11L19.5 5.16L19.5 10.16C19.5 10.35 19.35 10.5 19.16 10.5C18.99 10.5 18.85 10.37 18.83 10.2L18.83 10.16L18.83 5.63L14.35 10.11C14.22 10.24 14.01 10.24 13.88 10.11C13.76 9.99 13.75 9.8 13.85 9.67L18.36 5.16L13.83 5.16C13.64 5.16 13.5 5.01 13.5 4.83C13.5 4.66 13.62 4.52 13.79 4.5L13.83 4.5L18.83 4.5C19.18 4.5 19.47 4.77 19.49 5.11Z" stroke="#FFFFFF" stroke-opacity="0" stroke-width="2.000000" stroke-linejoin="round"/>
		<path d="M10.16 8.16C7.03 8.16 4.5 10.7 4.5 13.83C4.5 16.96 7.03 19.5 10.16 19.5C13.29 19.5 15.83 16.96 15.83 13.83C15.83 10.7 13.29 8.16 10.16 8.16ZM10.16 8.83C12.92 8.83 15.16 11.07 15.16 13.83C15.16 16.59 12.92 18.83 10.16 18.83C7.4 18.83 5.16 16.59 5.16 13.83C5.16 11.07 7.4 8.83 10.16 8.83Z" fill="#FFFFFF" fill-opacity="0" fill-rule="nonzero"/>
		<path d="M4.5 13.83C4.5 16.96 7.03 19.5 10.16 19.5C13.29 19.5 15.83 16.96 15.83 13.83C15.83 10.7 13.29 8.16 10.16 8.16C7.03 8.16 4.5 10.7 4.5 13.83ZM15.16 13.83C15.16 16.59 12.92 18.83 10.16 18.83C7.4 18.83 5.16 16.59 5.16 13.83C5.16 11.07 7.4 8.83 10.16 8.83C12.92 8.83 15.16 11.07 15.16 13.83Z" stroke="#FFFFFF" stroke-opacity="0" stroke-width="2.000000" stroke-linejoin="round"/>
	</g>
</svg>
