<svg width="24.000000" height="24.000000" viewBox="0 0 24 24" fill="none" xmlns="http://www.w3.org/2000/svg" xmlns:xlink="http://www.w3.org/1999/xlink">
	<desc>
			Created with Pixso.
	</desc>
	<defs>
		<clipPath id="clip48_2095">
			<rect width="24.000000" height="24.000000" fill="white" fill-opacity="0"/>
		</clipPath>
	</defs>
	<g clip-path="url(#clip48_2095)">
		<path d="M18.83 3.83L13.83 3.83C13.27 3.83 12.83 4.27 12.83 4.83C12.83 5.39 13.27 5.83 13.83 5.83L16.75 5.83L13.88 8.7C12.83 7.94 11.55 7.5 10.16 7.5C6.66 7.5 3.83 10.33 3.83 13.83C3.83 17.33 6.66 20.16 10.16 20.16C13.66 20.16 16.5 17.33 16.5 13.83C16.5 12.44 16.05 11.16 15.29 10.11L18.16 7.24L18.16 10.16C18.16 10.72 18.6 11.16 19.16 11.16C19.72 11.16 20.16 10.72 20.16 10.16L20.16 5.16C20.16 5.07 20.15 4.98 20.13 4.89C20.12 4.81 20.09 4.72 20.06 4.64C19.99 4.48 19.89 4.34 19.77 4.22C19.71 4.16 19.64 4.1 19.57 4.05C19.5 4.01 19.43 3.97 19.35 3.93C19.18 3.86 19.01 3.83 18.83 3.83ZM10.16 9.5C7.77 9.5 5.83 11.44 5.83 13.83C5.83 16.22 7.77 18.16 10.16 18.16C12.56 18.16 14.5 16.22 14.5 13.83C14.5 11.44 12.56 9.5 10.16 9.5Z" fill="#191919" fill-opacity="1.000000" fill-rule="evenodd"/>
	</g>
</svg>
