<svg width="28.000000" height="28.000000" viewBox="0 0 28 28" fill="none" xmlns="http://www.w3.org/2000/svg" xmlns:xlink="http://www.w3.org/1999/xlink">
	<desc>
			Created with Pixso.
	</desc>
	<defs>
		<clipPath id="clip41_2858">
			<rect rx="14.000000" width="28.000000" height="28.000000" fill="white" fill-opacity="0"/>
		</clipPath>
	</defs>
	<rect rx="14.000000" width="28.000000" height="28.000000" fill="#000000" fill-opacity="0.050000"/>
	<g clip-path="url(#clip41_2858)">
		<path d="M14.86 13.13L14.86 6.34C14.86 6.28 14.85 6.23 14.84 6.17C14.83 6.11 14.81 6.06 14.79 6.01C14.74 5.9 14.68 5.81 14.6 5.74C14.43 5.58 14.23 5.5 14 5.5C13.76 5.5 13.56 5.58 13.39 5.74C13.31 5.81 13.25 5.9 13.2 6.01C13.16 6.11 13.13 6.23 13.13 6.34L13.13 13.13L6.34 13.13C6.28 13.13 6.23 13.14 6.17 13.15C6.11 13.16 6.06 13.18 6.01 13.2C5.9 13.25 5.81 13.31 5.74 13.39C5.58 13.56 5.5 13.76 5.5 14C5.5 14.23 5.58 14.43 5.74 14.6C5.81 14.68 5.9 14.74 6.01 14.79C6.06 14.81 6.11 14.83 6.17 14.84C6.23 14.85 6.28 14.86 6.34 14.86L13.13 14.86L13.13 21.65C13.13 21.71 13.14 21.76 13.15 21.82C13.16 21.88 13.18 21.93 13.2 21.98C13.25 22.09 13.31 22.18 13.39 22.25C13.56 22.41 13.76 22.5 14 22.5C14.23 22.5 14.43 22.41 14.6 22.25C14.68 22.18 14.74 22.09 14.79 21.98C14.83 21.88 14.86 21.76 14.86 21.65L14.86 14.86L21.65 14.86C21.71 14.86 21.76 14.85 21.82 14.84C21.88 14.83 21.93 14.81 21.98 14.79C22.09 14.74 22.18 14.68 22.25 14.6C22.33 14.52 22.39 14.43 22.43 14.33C22.47 14.23 22.5 14.12 22.5 14C22.5 13.87 22.47 13.76 22.43 13.66C22.39 13.56 22.33 13.47 22.25 13.39C22.18 13.31 22.09 13.25 21.98 13.2C21.88 13.16 21.76 13.13 21.65 13.13L14.86 13.13Z" fill="#191919" fill-opacity="1.000000" fill-rule="evenodd"/>
	</g>
</svg>
