<svg width="22.500000" height="22.500000" viewBox="0 0 22.5 22.5" fill="none" xmlns="http://www.w3.org/2000/svg" xmlns:xlink="http://www.w3.org/1999/xlink">
	<desc>
			Created with Pixso.
	</desc>
	<defs/>
	<path id="矢量 6" d="M8.92 0.12C8.71 0.04 8.49 0 8.25 0L1.75 0C1.16 0 0.72 0.14 0.43 0.43C0.14 0.72 0 1.16 0 1.75L0 8.25C0 8.83 0.14 9.27 0.43 9.56C0.72 9.85 1.16 10 1.75 10L8.25 10C8.49 10 8.71 9.95 8.92 9.87C9.12 9.78 9.31 9.65 9.48 9.48C9.65 9.31 9.78 9.12 9.87 8.92C9.95 8.71 10 8.49 10 8.25L10 1.75C10 1.5 9.95 1.28 9.87 1.07C9.78 0.87 9.65 0.68 9.48 0.51C9.31 0.34 9.12 0.21 8.92 0.12ZM21.42 0.12C21.21 0.04 20.99 0 20.75 0L14.25 0C13.66 0 13.22 0.14 12.93 0.43C12.64 0.72 12.5 1.16 12.5 1.75L12.5 8.25C12.5 8.83 12.64 9.27 12.93 9.56C13.22 9.85 13.66 10 14.25 10L20.75 10C20.99 10 21.21 9.95 21.42 9.87C21.62 9.78 21.81 9.65 21.98 9.48C22.32 9.14 22.5 8.73 22.5 8.25L22.5 1.75C22.5 1.5 22.45 1.28 22.37 1.07C22.28 0.87 22.15 0.68 21.98 0.51C21.81 0.34 21.62 0.21 21.42 0.12ZM1.75 1.5L8.25 1.5C8.41 1.5 8.5 1.58 8.5 1.75L8.5 8.25C8.5 8.41 8.41 8.5 8.25 8.5L1.75 8.5C1.72 8.48 1.59 8.45 1.57 8.42C1.52 8.37 1.5 8.31 1.5 8.25L1.5 1.75C1.51 1.72 1.54 1.59 1.57 1.57C1.59 1.54 1.72 1.51 1.75 1.5ZM14.25 1.5L20.75 1.5C20.91 1.5 21 1.58 21 1.75L21 8.25C21 8.41 20.91 8.5 20.75 8.5L14.25 8.5C14.22 8.48 14.09 8.45 14.07 8.42C14.02 8.37 14 8.31 14 8.25L14 1.75C14 1.68 14.02 1.62 14.07 1.57C14.09 1.54 14.22 1.51 14.25 1.5ZM4.5 6.25Q4.12 6.25 3.93 6.06C3.81 5.93 3.75 5.75 3.75 5.5L3.75 4.5Q3.75 4.12 3.93 3.93Q4.12 3.75 4.5 3.75L5.5 3.75C5.75 3.75 5.93 3.81 6.06 3.93C6.18 4.06 6.25 4.25 6.25 4.5L6.25 5.5C6.25 5.75 6.18 5.93 6.06 6.06C5.93 6.18 5.75 6.25 5.5 6.25L4.5 6.25ZM17 6.25Q16.62 6.25 16.43 6.06C16.31 5.93 16.25 5.75 16.25 5.5L16.25 4.5Q16.25 4.12 16.43 3.93Q16.62 3.75 17 3.75L18 3.75Q18.37 3.75 18.56 3.93Q18.75 4.12 18.75 4.5L18.75 5.5C18.75 5.75 18.68 5.93 18.56 6.06C18.43 6.18 18.25 6.25 18 6.25L17 6.25ZM8.92 12.62C8.71 12.54 8.49 12.5 8.25 12.5L1.75 12.5C1.5 12.5 1.28 12.54 1.07 12.62C0.87 12.71 0.68 12.84 0.51 13.01C0.17 13.35 0 13.76 0 14.25L0 20.75C0 20.99 0.04 21.21 0.12 21.42C0.21 21.62 0.34 21.81 0.51 21.98C0.85 22.32 1.26 22.5 1.75 22.5L8.25 22.5C8.83 22.5 9.27 22.35 9.56 22.06C9.85 21.77 10 21.33 10 20.75L10 14.25C10 14 9.95 13.78 9.87 13.57C9.78 13.37 9.65 13.18 9.48 13.01C9.31 12.84 9.12 12.71 8.92 12.62ZM17.5 16.75L17.5 13.25C17.5 13 17.43 12.81 17.31 12.68Q17.12 12.5 16.75 12.5L13.25 12.5C13 12.5 12.81 12.56 12.68 12.68C12.56 12.81 12.5 13 12.5 13.25L12.5 14.41C12.5 14.91 12.75 15.16 13.25 15.16L14.83 15.16L14.83 16.75C14.83 17 14.89 17.18 15.02 17.31C15.14 17.43 15.33 17.5 15.58 17.5L16.75 17.5Q17.12 17.5 17.31 17.31Q17.5 17.12 17.5 16.75ZM20.18 17.31Q20.37 17.5 20.75 17.5L21.75 17.5Q22.12 17.5 22.31 17.31Q22.5 17.12 22.5 16.75L22.5 13.25C22.5 13 22.43 12.81 22.31 12.68Q22.12 12.5 21.75 12.5L20.75 12.5Q20.37 12.5 20.18 12.68C20.06 12.81 20 13 20 13.25L20 16.75Q20 17.12 20.18 17.31ZM1.75 14L8.25 14C8.41 14 8.5 14.08 8.5 14.25L8.5 20.75C8.5 20.91 8.41 21 8.25 21L1.75 21C1.72 20.98 1.59 20.95 1.57 20.92C1.56 20.89 1.5 20.78 1.5 20.75L1.5 14.25C1.51 14.22 1.54 14.09 1.57 14.07C1.62 14.02 1.68 14 1.75 14ZM4.5 18.75Q4.12 18.75 3.93 18.56Q3.75 18.37 3.75 18L3.75 17Q3.75 16.62 3.93 16.43Q4.12 16.25 4.5 16.25L5.5 16.25C5.75 16.25 5.93 16.31 6.06 16.43C6.18 16.56 6.25 16.75 6.25 17L6.25 18Q6.25 18.37 6.06 18.56C5.93 18.68 5.75 18.75 5.5 18.75L4.5 18.75ZM12.68 22.31C12.81 22.43 13 22.5 13.25 22.5L14.25 22.5C14.5 22.5 14.68 22.43 14.81 22.31Q15 22.12 15 21.75L15 18.25Q15 17.87 14.81 17.68C14.68 17.56 14.5 17.5 14.25 17.5L13.25 17.5C13 17.5 12.81 17.56 12.68 17.68Q12.5 17.87 12.5 18.25L12.5 21.75Q12.5 22.12 12.68 22.31ZM17.68 19.81Q17.87 20 18.25 20L19.25 20Q19.62 20 19.81 19.81Q20 19.62 20 19.25L20 18.25Q20 17.87 19.81 17.68Q19.62 17.5 19.25 17.5L18.25 17.5Q17.87 17.5 17.68 17.68Q17.5 17.87 17.5 18.25L17.5 19.25Q17.5 19.62 17.68 19.81ZM20.18 22.31Q20.37 22.5 20.75 22.5L21.75 22.5Q22.12 22.5 22.31 22.31Q22.5 22.12 22.5 21.75L22.5 20.75Q22.5 20.37 22.31 20.18Q22.12 20 21.75 20L20.75 20Q20.37 20 20.18 20.18Q20 20.37 20 20.75L20 21.75Q20 22.12 20.18 22.31Z" fill="#191919" fill-opacity="1.000000" fill-rule="evenodd"/>
</svg>
