<svg width="16.000000" height="16.000000" viewBox="0 0 16 16" fill="none" xmlns="http://www.w3.org/2000/svg" xmlns:xlink="http://www.w3.org/1999/xlink">
	<desc>
			Created with Pixso.
	</desc>
	<defs>
		<clipPath id="clip1_171">
			<rect width="16.000000" height="16.000000" fill="white" fill-opacity="0"/>
		</clipPath>
	</defs>
	<g clip-path="url(#clip1_171)">
		<path d="M4.33 0.6L11.66 0.6C12.4 0.6 13 1.19 13 1.93L13 14.06C13 14.8 12.4 15.4 11.66 15.4L4.33 15.4C3.59 15.4 3 14.8 3 14.06L3 1.93C3 1.19 3.59 0.6 4.33 0.6Z" fill="#FFFFFF" fill-opacity="0" fill-rule="evenodd"/>
		<path d="M11.66 0.6C12.4 0.6 13 1.19 13 1.93L13 14.06C13 14.8 12.4 15.4 11.66 15.4L4.33 15.4C3.59 15.4 3 14.8 3 14.06L3 1.93C3 1.19 3.59 0.6 4.33 0.6L11.66 0.6Z" stroke="#000000" stroke-opacity="1.000000" stroke-width="1.000000" stroke-linejoin="round"/>
		<line x1="6.000000" y1="14.000000" x2="10.000000" y2="14.000000" stroke="#000000" stroke-opacity="1.000000" stroke-width="1.000000"/>
		<path d="M8 2C8.27 2 8.5 1.77 8.5 1.5C8.5 1.22 8.27 1 8 1C7.72 1 7.5 1.22 7.5 1.5C7.5 1.77 7.72 2 8 2Z" fill="#000000" fill-opacity="1.000000" fill-rule="evenodd"/>
		<path d="M8.5 1.5C8.5 1.22 8.27 1 8 1C7.72 1 7.5 1.22 7.5 1.5C7.5 1.77 7.72 2 8 2C8.27 2 8.5 1.77 8.5 1.5Z" stroke="#FFFFFF" stroke-opacity="0" stroke-width="1.000000" stroke-linejoin="round"/>
	</g>
</svg>
