<svg width="24.000000" height="24.000000" viewBox="0 0 24 24" fill="none" xmlns="http://www.w3.org/2000/svg" xmlns:xlink="http://www.w3.org/1999/xlink">
	<desc>
			Created with Pixso.
	</desc>
	<defs>
		<clipPath id="clip79_1807">
			<rect width="24.000000" height="24.000000" fill="white" fill-opacity="0"/>
		</clipPath>
	</defs>
	<g clip-path="url(#clip79_1807)">
		<g opacity="0.000000">
			<rect width="24.000000" height="24.000000" fill="#000000" fill-opacity="1.000000"/>
		</g>
		<path d="M13 10C13.54 10 14.04 9.86 14.5 9.59C14.97 9.32 15.33 8.96 15.6 8.5C15.86 8.04 16 7.54 16 7C16 6.45 15.86 5.95 15.6 5.49C15.33 5.03 14.97 4.67 14.5 4.4C14.04 4.13 13.54 4 13 4C12.46 4 11.96 4.13 11.5 4.4C11.04 4.67 10.67 5.03 10.4 5.49C10.13 5.95 10 6.45 10 7C10 7.54 10.13 8.04 10.4 8.5C10.67 8.96 11.04 9.32 11.5 9.59C11.96 9.86 12.46 10 13 10Z" fill="#FFD15D" fill-opacity="1.000000" fill-rule="nonzero"/>
		<path d="M13.37 14C12.36 14 11.36 14.26 10.37 14.8C9.38 15.34 8.57 16.07 7.94 17C7.31 17.92 7 18.93 7 20.03C7 20.57 7.18 21.04 7.54 21.42C7.9 21.8 8.33 22 8.83 22L19.14 22C19.65 22 20.09 21.8 20.45 21.42C20.81 21.04 21 20.57 21 20.03C21 18.93 20.68 17.92 20.04 17C19.4 16.07 18.59 15.34 17.61 14.8C16.61 14.26 15.61 14 14.6 14L13.37 14Z" fill="#FFD15D" fill-opacity="1.000000" fill-rule="nonzero"/>
		<path d="M11.99 11.15C12.84 11.15 13.62 10.94 14.35 10.52C15.06 10.1 15.64 9.53 16.05 8.81C16.47 8.09 16.67 7.3 16.67 6.45C16.67 5.6 16.47 4.82 16.05 4.1C15.64 3.37 15.06 2.81 14.35 2.38C13.62 1.96 12.84 1.75 11.99 1.75C11.15 1.75 10.36 1.96 9.64 2.38C8.92 2.81 8.35 3.37 7.92 4.1C7.5 4.82 7.29 5.6 7.29 6.45C7.29 7.3 7.5 8.09 7.92 8.81C8.35 9.53 8.92 10.1 9.64 10.52C10.36 10.94 11.15 11.15 11.99 11.15ZM11.99 3.23C12.57 3.23 13.1 3.38 13.6 3.66C14.08 3.95 14.47 4.35 14.75 4.85C15.04 5.34 15.18 5.87 15.18 6.45C15.18 7.03 15.04 7.56 14.75 8.05C14.47 8.53 14.08 8.92 13.6 9.21C13.1 9.5 12.57 9.64 11.99 9.64C11.42 9.64 10.89 9.5 10.39 9.21C9.89 8.92 9.5 8.53 9.21 8.05C8.92 7.56 8.77 7.03 8.77 6.45C8.77 5.87 8.92 5.34 9.21 4.85C9.5 4.35 9.89 3.95 10.39 3.66C10.89 3.38 11.42 3.23 11.99 3.23ZM11.17 12.36C9.85 12.36 8.54 12.69 7.24 13.36C5.94 14.02 4.88 14.92 4.06 16.07C3.24 17.2 2.82 18.45 2.82 19.82C2.82 20.49 3.06 21.06 3.53 21.54C4.01 22.01 4.57 22.25 5.22 22.25L18.73 22.25C19.41 22.25 19.98 22.01 20.45 21.54C20.93 21.06 21.17 20.49 21.17 19.82C21.17 18.45 20.75 17.2 19.92 16.07C19.08 14.92 18.02 14.02 16.73 13.36C15.42 12.69 14.11 12.36 12.79 12.36L11.17 12.36ZM5.22 20.76C4.97 20.76 4.75 20.66 4.57 20.48C4.4 20.29 4.31 20.08 4.31 19.82C4.31 18.75 4.66 17.76 5.34 16.84C6.03 15.91 6.91 15.18 7.98 14.64C9.06 14.11 10.12 13.85 11.17 13.85L12.79 13.85C13.85 13.85 14.91 14.11 15.98 14.64C17.05 15.18 17.93 15.91 18.61 16.84C19.31 17.76 19.66 18.75 19.66 19.82C19.66 20.08 19.56 20.29 19.39 20.48C19.21 20.66 18.99 20.76 18.73 20.76L5.22 20.76Z" fill="#000000" fill-opacity="1.000000" fill-rule="nonzero"/>
	</g>
</svg>
