<svg width="24.000000" height="24.000000" viewBox="0 0 24 24" fill="none" xmlns="http://www.w3.org/2000/svg" xmlns:xlink="http://www.w3.org/1999/xlink">
	<desc>
			Created with Pixso.
	</desc>
	<defs>
		<clipPath id="clip33_219">
			<rect width="24.000000" height="24.000000" fill="white" fill-opacity="0"/>
		</clipPath>
	</defs>
	<g clip-path="url(#clip33_219)">
		<g opacity="0.200000">
			<path d="M0.75 11.99C0.75 10.23 0.74 8.47 0.75 6.71C0.74 5.86 0.85 5.02 1.06 4.19C1.52 2.45 2.66 1.41 4.4 1.01C5.27 0.82 6.16 0.73 7.06 0.75C10.43 0.75 13.8 0.75 17.17 0.75C18.02 0.74 18.87 0.84 19.7 1.04C21.49 1.48 22.57 2.61 22.98 4.4C23.17 5.25 23.25 6.11 23.24 6.98C23.24 10.38 23.24 13.79 23.24 17.2C23.25 18.04 23.15 18.88 22.96 19.7C22.52 21.5 21.37 22.57 19.58 22.98C18.71 23.17 17.82 23.26 16.92 23.24C13.57 23.24 10.21 23.24 6.86 23.24C6 23.25 5.14 23.15 4.31 22.96C2.5 22.52 1.42 21.38 1.01 19.58C0.8 18.66 0.75 17.75 0.75 16.82C0.75 15.21 0.75 13.6 0.75 11.99Z" fill="#000000" fill-opacity="0" fill-rule="nonzero"/>
			<path d="M0.75 6.71C0.74 5.86 0.85 5.02 1.06 4.19C1.52 2.45 2.66 1.41 4.4 1.01C5.27 0.82 6.16 0.73 7.06 0.75C10.43 0.75 13.8 0.75 17.17 0.75C18.02 0.74 18.87 0.84 19.7 1.04C21.49 1.48 22.57 2.61 22.98 4.4C23.17 5.25 23.25 6.11 23.24 6.98C23.24 10.38 23.24 13.79 23.24 17.2C23.25 18.04 23.15 18.88 22.96 19.7C22.52 21.5 21.37 22.57 19.58 22.98C18.71 23.17 17.82 23.26 16.92 23.24C13.57 23.24 10.21 23.24 6.86 23.24C6 23.25 5.14 23.15 4.31 22.96C2.5 22.52 1.42 21.38 1.01 19.58C0.8 18.66 0.75 17.75 0.75 16.82C0.75 15.21 0.75 13.6 0.75 11.99C0.75 10.23 0.74 8.47 0.75 6.71Z" stroke="#FFFFFF" stroke-opacity="0" stroke-width="1.500000"/>
		</g>
		<circle cx="12.000000" cy="12.000000" r="12.000000" fill="#FFFFFF" fill-opacity="0"/>
		<circle cx="12.000000" cy="12.000000" r="12.000000" stroke="#000000" stroke-opacity="0" stroke-width="1.500000"/>
		<path d="M19.13 9.36L19.13 9.39C18.83 9.68 18.36 9.67 18.07 9.37C17.78 9.07 17.78 8.6 18.09 8.31L18.12 8.31L19.13 9.36ZM16.97 10.74L17 10.75C17.17 11.13 17.01 11.56 16.63 11.74C16.25 11.91 15.81 11.75 15.63 11.37L15.64 11.34L16.97 10.74Z" fill="#000000" fill-opacity="0" fill-rule="nonzero"/>
		<path d="M18.61 8.85L21.04 6.5C21.44 6.11 22.07 6.12 22.46 6.52C22.68 6.75 22.78 7.07 22.72 7.39L20.93 17.75C20.8 18.47 20.18 19 19.45 19L4.28 19C3.54 19 2.91 18.45 2.8 17.72L1.23 7.53C1.15 6.98 1.52 6.47 2.07 6.39C2.39 6.34 2.72 6.45 2.94 6.68L7.1 11.06L10.8 2.98C11.03 2.48 11.62 2.26 12.12 2.49C12.34 2.59 12.52 2.76 12.62 2.98L16.32 11.06" stroke="#666666" stroke-opacity="1.000000" stroke-width="1.500000" stroke-linejoin="round" stroke-linecap="round"/>
		<line x1="3.900024" y1="22.000000" x2="20.100037" y2="22.000000" stroke="#666666" stroke-opacity="1.000000" stroke-width="1.500000"/>
	</g>
</svg>
