<svg width="20.000000" height="20.000000" viewBox="0 0 20 20" fill="none" xmlns="http://www.w3.org/2000/svg">
	<g>
		<path d="M10.51 10.74L10.51 9.68L12.4 9.68C12.57 9.68 12.71 9.61 12.84 9.49C12.95 9.36 13.01 9.21 13.01 9.04C13.01 8.86 12.95 8.72 12.84 8.59C12.71 8.47 12.57 8.41 12.4 8.41L10.8 8.41L12.4 6.81C12.52 6.69 12.58 6.55 12.58 6.38C12.58 6.2 12.52 6.05 12.4 5.94C12.27 5.81 12.13 5.75 11.95 5.75C11.78 5.75 11.63 5.81 11.5 5.94L9.88 7.58L8.25 5.95C8.14 5.84 7.99 5.78 7.81 5.78C7.64 5.78 7.49 5.84 7.35 5.95C7.24 6.08 7.18 6.22 7.18 6.39C7.18 6.57 7.24 6.71 7.35 6.84L8.94 8.41L7.39 8.41C7.22 8.41 7.08 8.47 6.95 8.59C6.84 8.72 6.78 8.86 6.78 9.04C6.78 9.21 6.84 9.36 6.95 9.48C7.08 9.59 7.22 9.65 7.39 9.65L9.25 9.65L9.25 10.74L7.38 10.74C7.2 10.74 7.05 10.8 6.94 10.91C6.81 11.03 6.75 11.18 6.75 11.35C6.75 11.53 6.81 11.68 6.94 11.8C7.05 11.93 7.2 12 7.38 12L9.25 12L9.25 13.85C9.25 14.03 9.31 14.18 9.44 14.3C9.55 14.43 9.7 14.5 9.88 14.5C10.05 14.5 10.2 14.43 10.31 14.3C10.43 14.18 10.5 14.03 10.5 13.85L10.5 12L12.38 12C12.55 12 12.7 11.93 12.81 11.8C12.93 11.68 13 11.53 13 11.35C13 11.18 12.93 11.03 12.81 10.91C12.7 10.8 12.55 10.74 12.38 10.74L10.51 10.74Z" fill="#000000" fill-opacity="1.000000" fill-rule="nonzero"/>
		<path d="M4.28 1.65C3.75 1.65 3.28 1.77 2.88 2.01C2.48 2.26 2.17 2.57 1.95 2.95C1.74 3.34 1.64 3.76 1.64 4.21L1.64 9.94C1.64 10.1 1.69 10.23 1.8 10.34C1.92 10.44 2.05 10.51 2.2 10.53C2.36 10.55 2.5 10.51 2.61 10.44L5.14 8.65C5.27 8.56 5.35 8.43 5.39 8.25C5.42 8.08 5.38 7.92 5.28 7.78C5.18 7.65 5.05 7.56 4.88 7.53C4.7 7.5 4.54 7.53 4.39 7.64L2.88 8.71L2.88 4.28C2.88 3.9 3 3.58 3.24 3.3C3.48 3.03 3.78 2.9 4.15 2.9L15.64 2.9C15.97 2.9 16.25 2.96 16.46 3.09C16.68 3.21 16.85 3.4 16.95 3.65C17.04 3.89 17.1 4.19 17.1 4.54L17.1 6.65C17.1 6.83 17.16 6.97 17.29 7.1C17.41 7.22 17.56 7.28 17.74 7.28C17.9 7.28 18.04 7.22 18.16 7.1C18.29 6.97 18.35 6.83 18.35 6.65L18.35 4.54C18.35 3.67 18.11 2.97 17.64 2.45C17.15 1.92 16.49 1.65 15.64 1.65L4.28 1.65ZM18.35 9.98C18.35 9.85 18.3 9.72 18.2 9.61C18.09 9.51 17.96 9.45 17.81 9.43C17.67 9.41 17.53 9.43 17.41 9.51L14.85 11.34C14.72 11.43 14.64 11.56 14.6 11.74C14.57 11.91 14.61 12.07 14.71 12.21C14.81 12.35 14.93 12.43 15.1 12.46C15.26 12.5 15.42 12.46 15.6 12.35L17.1 11.25L17.1 15.51C17.1 16.03 16.98 16.43 16.75 16.69C16.51 16.95 16.14 17.08 15.64 17.08L4.34 17.08C3.88 17.08 3.52 16.96 3.26 16.71C3.01 16.47 2.88 16.13 2.88 15.7L2.88 13.34C2.88 13.16 2.82 13.02 2.69 12.9C2.57 12.77 2.43 12.71 2.25 12.71C2.08 12.71 1.93 12.77 1.81 12.9C1.69 13.02 1.64 13.16 1.64 13.34L1.64 15.7C1.64 16.48 1.88 17.12 2.38 17.6C2.87 18.09 3.52 18.34 4.34 18.34L15.84 18.34C16.58 18.34 17.19 18.09 17.65 17.6C18.12 17.12 18.35 16.49 18.35 15.71L18.35 9.98Z" fill="#000000" fill-opacity="1.000000" fill-rule="nonzero"/>
	</g>
</svg>
