<svg width="20.000000" height="20.000000" viewBox="0 0 20 20" fill="none" xmlns="http://www.w3.org/2000/svg">
	<g>
		<path d="M3.44 1.68C2.94 1.68 2.52 1.85 2.18 2.19C1.83 2.53 1.65 2.94 1.65 3.44L1.65 11.48C1.65 11.78 1.73 12.07 1.88 12.33C2.02 12.58 2.21 12.79 2.45 12.95C2.15 13.22 2.01 13.53 1.86 13.8C1.72 14.06 1.65 14.33 1.65 14.61L1.65 16.61C1.65 17.08 1.82 17.48 2.15 17.81C2.49 18.14 2.89 18.31 3.35 18.31L9.34 18.31C9.72 18.31 10.09 18.24 10.44 18.1C10.78 17.95 11.08 17.75 11.34 17.48L15.55 13.25L16.55 13.25C16.88 13.25 17.17 13.17 17.45 13.01C17.72 12.86 17.93 12.64 18.1 12.36C18.26 12.09 18.34 11.8 18.34 11.48L18.34 3.44C18.34 3.11 18.26 2.82 18.1 2.55C17.93 2.29 17.72 2.07 17.45 1.91C17.17 1.76 16.88 1.68 16.55 1.68L3.44 1.68ZM16.55 3.05C16.66 3.05 16.75 3.09 16.84 3.16C16.91 3.24 16.95 3.33 16.95 3.44L16.95 5L3.04 5L3.04 3.44C3.04 3.33 3.08 3.24 3.15 3.16C3.24 3.09 3.33 3.05 3.44 3.05L16.55 3.05ZM10.38 16.51C10.25 16.64 10.08 16.75 9.89 16.84C9.71 16.91 9.52 16.95 9.34 16.95L3.35 16.95C3.26 16.95 3.18 16.92 3.13 16.85C3.07 16.79 3.04 16.71 3.04 16.64L3.04 14.64C3.04 14.55 3.05 14.48 3.09 14.41C3.12 14.35 3.16 14.29 3.21 14.24L8.01 9.54C8.19 9.36 8.4 9.25 8.65 9.18C8.91 9.11 9.16 9.2 9.39 9.44C9.66 9.7 9.68 10.06 9.45 10.5C9.23 10.93 8.95 11.35 8.61 11.75L8.54 11.85C8.39 12.07 8.09 12.4 7.64 12.84C7.18 13.28 6.8 13.63 6.5 13.89C6.35 14.02 6.27 14.18 6.26 14.38C6.26 14.58 6.32 14.75 6.45 14.88C6.58 15.02 6.73 15.1 6.93 15.1C7.12 15.11 7.29 15.05 7.44 14.91L7.61 14.74C8.14 14.25 8.65 13.76 9.14 13.25L13.61 13.25L10.38 16.51ZM10.24 11.88C10.61 11.35 10.84 10.83 10.94 10.34C11 10 10.99 9.67 10.89 9.34C10.79 9 10.62 8.71 10.38 8.45C10.07 8.16 9.72 7.96 9.34 7.85C8.95 7.75 8.55 7.75 8.15 7.86C7.75 7.98 7.39 8.21 7.05 8.55L3.81 11.88C3.73 11.88 3.68 11.88 3.65 11.88C3.61 11.88 3.56 11.88 3.48 11.88C3.37 11.88 3.24 11.84 3.15 11.75C3.08 11.68 3.04 11.58 3.04 11.48L3.04 6.24L16.95 6.24L16.95 11.48C16.95 11.58 16.91 11.68 16.84 11.75C16.75 11.84 16.66 11.88 16.55 11.88L10.24 11.88Z" fill="#000000" fill-opacity="1.000000" fill-rule="nonzero"/>
	</g>
</svg>
