<svg width="20.000000" height="20.000000" viewBox="0 0 20 20" fill="none" xmlns="http://www.w3.org/2000/svg">
	<g>
		<path d="M3.94 3.28C4.15 2.96 4.42 2.71 4.76 2.53C5.11 2.34 5.47 2.25 5.85 2.25L14.15 2.25C14.53 2.25 14.88 2.34 15.21 2.53C15.55 2.71 15.83 2.96 16.05 3.28L17.65 5.59C17.96 6.03 18.11 6.5 18.11 6.98L18.11 15.55C18.11 15.95 18.02 16.32 17.83 16.64C17.63 16.97 17.37 17.23 17.04 17.43C16.72 17.62 16.35 17.71 15.95 17.71L4.04 17.71C3.64 17.71 3.27 17.62 2.95 17.43C2.62 17.23 2.36 16.97 2.16 16.64C1.97 16.32 1.88 15.95 1.88 15.55L1.88 6.98C1.88 6.72 1.92 6.48 2 6.25C2.07 6.03 2.19 5.81 2.35 5.61L3.94 3.28ZM5.85 3.51C5.68 3.51 5.52 3.55 5.36 3.64C5.21 3.71 5.08 3.83 4.98 3.98L4.44 4.8L15.58 4.8L15.01 3.98C14.92 3.84 14.8 3.73 14.65 3.64C14.49 3.56 14.33 3.51 14.15 3.51L5.85 3.51ZM3.11 15.55C3.11 15.81 3.2 16.03 3.39 16.2C3.56 16.39 3.78 16.48 4.04 16.48L15.95 16.48C16.21 16.48 16.43 16.39 16.6 16.2C16.79 16.03 16.88 15.81 16.88 15.55L16.88 6.98C16.88 6.71 16.79 6.49 16.6 6.31C16.43 6.14 16.21 6.05 15.95 6.05L4.04 6.05C3.78 6.05 3.56 6.14 3.39 6.33C3.2 6.51 3.11 6.72 3.11 6.98L3.11 15.55ZM12.5 7.69C12.75 7.69 12.93 7.8 13.04 8.01C13.14 8.23 13.15 8.44 13.05 8.64C12.95 8.85 12.76 8.95 12.5 8.95L7.5 8.95C7.24 8.95 7.06 8.85 6.96 8.64C6.86 8.44 6.86 8.23 6.96 8.01C7.06 7.8 7.24 7.69 7.5 7.69L12.5 7.69Z" fill="#000000" fill-opacity="1.000000" fill-rule="nonzero"/>
	</g>
</svg>
