<svg width="20.000000" height="20.000000" viewBox="0 0 20 20" fill="none" xmlns="http://www.w3.org/2000/svg">
	<g>
		<path d="M1.48 9.45C1.48 10.49 1.73 11.5 2.23 12.48C2.73 13.45 3.42 14.3 4.3 15.01C4.46 15.13 4.5 15.35 4.41 15.66C4.33 15.98 4.2 16.39 4 16.91L3.88 17.2C3.83 17.3 3.82 17.41 3.83 17.54C3.83 17.65 3.88 17.75 3.95 17.84C4.05 17.95 4.13 18.02 4.21 18.04C4.3 18.07 4.41 18.06 4.55 18.04C5.11 17.91 5.58 17.78 5.96 17.64C6.35 17.49 6.74 17.31 7.15 17.1C7.28 17.03 7.46 16.92 7.6 16.86C7.73 16.81 7.84 16.77 7.94 16.75C8.59 16.89 9.27 16.95 10 16.95C11.53 16.95 12.95 16.62 14.25 15.95C15.56 15.27 16.6 14.36 17.38 13.21C18.15 12.07 18.54 10.81 18.54 9.45C18.54 8.09 18.15 6.84 17.38 5.69C16.6 4.53 15.56 3.62 14.25 2.94C12.95 2.27 11.53 1.94 10 1.94C8.46 1.94 7.04 2.27 5.74 2.94C4.43 3.62 3.39 4.53 2.63 5.69C1.86 6.84 1.48 8.09 1.48 9.45ZM2.78 9.45C2.78 8.32 3.1 7.27 3.75 6.31C4.39 5.36 5.27 4.6 6.38 4.03C7.48 3.46 8.69 3.18 10 3.18C11.3 3.18 12.5 3.46 13.6 4.03C14.7 4.6 15.58 5.36 16.23 6.31C16.87 7.27 17.2 8.32 17.2 9.45C17.2 10.59 16.87 11.63 16.23 12.6C15.58 13.56 14.7 14.32 13.6 14.88C12.5 15.43 11.3 15.71 10 15.71C9.39 15.71 8.8 15.65 8.21 15.54C7.99 15.48 7.77 15.49 7.55 15.56C7.34 15.64 7.07 15.76 6.74 15.94L6.24 16.18C6 16.28 5.75 16.39 5.5 16.5C5.64 15.99 5.72 15.48 5.68 15.06C5.63 14.64 5.43 14.3 5.08 14.04C4.35 13.45 3.78 12.75 3.38 11.95C2.98 11.15 2.78 10.32 2.78 9.45Z" fill="#000000" fill-opacity="1.000000" fill-rule="nonzero"/>
		<path d="M7.08 8.58C6.78 8.58 6.53 8.68 6.31 8.89C6.1 9.09 6 9.35 6 9.65C6 9.95 6.1 10.2 6.31 10.41C6.53 10.63 6.78 10.74 7.08 10.74C7.38 10.74 7.64 10.63 7.85 10.41C8.05 10.2 8.15 9.95 8.15 9.65C8.15 9.35 8.05 9.09 7.85 8.89C7.64 8.68 7.38 8.58 7.08 8.58ZM12.91 8.58C12.62 8.58 12.37 8.68 12.15 8.89C11.94 9.09 11.84 9.35 11.84 9.65C11.84 9.95 11.94 10.2 12.15 10.41C12.37 10.63 12.62 10.74 12.91 10.74C13.22 10.74 13.48 10.63 13.69 10.41C13.89 10.2 14 9.95 14 9.65C14 9.35 13.89 9.09 13.69 8.89C13.48 8.68 13.22 8.58 12.91 8.58Z" fill="#000000" fill-opacity="1.000000" fill-rule="nonzero"/>
	</g>
</svg>
