<svg width="20.000000" height="20.000000" viewBox="0 0 20 20" fill="none" xmlns="http://www.w3.org/2000/svg">
	<g>
		<path d="M18.71 6.85C18.61 6.52 18.41 6.25 18.11 6.04C17.82 5.82 17.5 5.71 17.14 5.71L14.6 5.71C14.6 5.07 14.46 4.53 14.2 4.1C13.94 3.66 13.61 3.33 13.2 3.11C12.78 2.9 12.35 2.8 11.9 2.8L2.71 2.8C2.22 2.8 1.77 2.92 1.35 3.16C0.94 3.41 0.61 3.74 0.36 4.15C0.12 4.57 0 5.02 0 5.5L0 12.2C0 12.65 0.1 13.08 0.31 13.5C0.53 13.91 0.85 14.24 1.29 14.5C1.72 14.76 2.24 14.9 2.85 14.9C2.91 15.56 3.16 16.11 3.6 16.55C4.03 16.98 4.57 17.2 5.21 17.2C5.86 17.2 6.4 16.98 6.84 16.55C7.28 16.11 7.52 15.56 7.58 14.9L13.3 14.9C13.35 15.56 13.6 16.11 14.04 16.55C14.48 16.98 15.01 17.2 15.65 17.2C16.29 17.2 16.84 16.98 17.29 16.55C17.73 16.11 17.97 15.56 18.01 14.9C18.67 14.9 19.16 14.75 19.5 14.45C19.83 14.16 20 13.76 20 13.25L20 10.65L18.71 6.85ZM14.6 7.35C14.6 7.25 14.63 7.16 14.7 7.09C14.76 7.01 14.85 6.98 14.95 6.98L16.91 6.98C17.09 6.98 17.25 7.03 17.4 7.14C17.54 7.24 17.65 7.38 17.71 7.55L18.6 10.21C18.63 10.35 18.62 10.46 18.54 10.56C18.47 10.66 18.37 10.71 18.24 10.71L14.95 10.71C14.86 10.71 14.78 10.68 14.7 10.6C14.63 10.53 14.6 10.45 14.6 10.35L14.6 7.35ZM1.25 5.5C1.25 5.1 1.4 4.76 1.69 4.48C1.97 4.2 2.31 4.05 2.71 4.05L11.9 4.05C12.3 4.05 12.64 4.2 12.93 4.48C13.21 4.76 13.35 5.1 13.35 5.5L13.35 13.18C13.35 13.31 13.31 13.42 13.21 13.5C13.12 13.59 13.01 13.64 12.88 13.64L2.71 13.64C2.31 13.64 1.97 13.5 1.69 13.21C1.4 12.93 1.25 12.6 1.25 12.2L1.25 5.5ZM5.21 15.94C4.92 15.94 4.68 15.84 4.48 15.65C4.28 15.45 4.16 15.2 4.11 14.9L6.34 14.9C6.3 15.2 6.17 15.45 5.96 15.65C5.76 15.84 5.51 15.94 5.21 15.94ZM15.65 15.94C15.36 15.94 15.11 15.84 14.9 15.65C14.7 15.45 14.58 15.2 14.54 14.9L16.75 14.9C16.73 15.2 16.61 15.45 16.4 15.65C16.2 15.84 15.95 15.94 15.65 15.94ZM18.75 13.28C18.77 13.37 18.74 13.45 18.66 13.53C18.59 13.6 18.5 13.64 18.4 13.64L14.95 13.64C14.86 13.64 14.78 13.6 14.7 13.53C14.63 13.45 14.6 13.37 14.6 13.28L14.6 12.31C14.61 12.22 14.65 12.15 14.71 12.09C14.78 12.03 14.86 12 14.95 12L18.38 12C18.48 12 18.57 12.03 18.65 12.1C18.72 12.16 18.75 12.25 18.75 12.35L18.75 13.28Z" fill="#000000" fill-opacity="1.000000" fill-rule="nonzero"/>
	</g>
</svg>
