<?xml version="1.0" standalone="no"?>
<svg xmlns="http://www.w3.org/2000/svg" width="24" height="24">
    <rect width="24" height="24" opacity="0"/>
    <g>
        <path d="M17.18 16.08Q18.1 14.95 18.61 13.56Q19.13 12.17 19.13 10.68Q19.13 8.38 17.98 6.42Q16.82 4.46 14.87 3.32Q12.91 2.18 10.61 2.18Q8.3 2.18 6.35 3.32Q4.39 4.46 3.25 6.42Q2.11 8.38 2.11 10.68Q2.11 12.98 3.25 14.94Q4.39 16.9 6.35 18.04Q8.3 19.18 10.61 19.18Q12.17 19.18 13.57 18.65Q14.98 18.12 16.13 17.16L20.59 21.6Q20.81 21.82 21.12 21.82Q21.43 21.82 21.65 21.6Q21.86 21.38 21.86 21.07Q21.86 20.76 21.65 20.54L17.18 16.08ZM3.62 10.68Q3.62 8.78 4.57 7.18Q5.52 5.57 7.12 4.62Q8.71 3.67 10.61 3.67Q12.5 3.67 14.11 4.62Q15.72 5.57 16.67 7.18Q17.62 8.78 17.62 10.68Q17.62 12.58 16.67 14.18Q15.72 15.79 14.11 16.74Q12.5 17.69 10.61 17.69Q8.71 17.69 7.12 16.74Q5.52 15.79 4.57 14.18Q3.62 12.58 3.62 10.68Z" fill="rgba(0,0,0,0.9019607843137255)"/>
    </g>
</svg>