<?xml version="1.0" standalone="no"?><!DOCTYPE svg PUBLIC "-//W3C//DTD SVG 1.1//EN" "http://www.w3.org/Graphics/SVG/1.1/DTD/svg11.dtd"><svg t="1737854184849" class="icon" viewBox="0 0 1024 1024" version="1.1" xmlns="http://www.w3.org/2000/svg" p-id="1311" xmlns:xlink="http://www.w3.org/1999/xlink" width="216" height="216"><path d="M512 0a512 512 0 1 0 512 512A512 512 0 0 0 512 0z m232.777143 382.72l-310.857143 310.857143a18.285714 18.285714 0 0 1-25.965714 0l-129.28-129.28a18.285714 18.285714 0 0 1 0-25.965714L305.188571 512a18.285714 18.285714 0 0 1 25.782858 0l85.394285 85.394286a7.314286 7.314286 0 0 0 10.24 0L693.028571 330.971429a18.285714 18.285714 0 0 1 25.782858 0l25.965714 25.782857a18.285714 18.285714 0 0 1 0 25.965714z" fill="#333333" p-id="1312"></path></svg>