<svg width="16.000000" height="16.000000" viewBox="0 0 16 16" fill="none" xmlns="http://www.w3.org/2000/svg" xmlns:xlink="http://www.w3.org/1999/xlink">
	<desc>
			Created with Pixso.
	</desc>
	<defs>
		<clipPath id="clip10_516">
			<rect width="16.000000" height="16.000000" fill="white" fill-opacity="0"/>
		</clipPath>
	</defs>
	<g clip-path="url(#clip10_516)">
		<path d="M9.58 0.18C9.07 0.06 8.54 0 7.99 0C7.45 0 6.92 0.06 6.4 0.18C6.07 0.26 5.75 0.36 5.43 0.49C5 0.67 4.6 0.89 4.22 1.14C3.91 1.36 3.61 1.6 3.34 1.87C3.01 2.19 2.72 2.54 2.47 2.92C2.25 3.24 2.07 3.58 1.92 3.94C1.78 4.25 1.67 4.58 1.59 4.91C1.46 5.42 1.4 5.95 1.4 6.49C1.4 7.59 1.73 8.76 2.4 10C2.92 10.97 3.63 11.95 4.53 12.97C5.17 13.68 5.87 14.38 6.63 15.05C7.01 15.39 7.33 15.66 7.59 15.86C7.71 15.95 7.84 16 8 16C8.15 16 8.28 15.95 8.4 15.86C8.66 15.66 8.98 15.39 9.36 15.05C10.12 14.38 10.82 13.68 11.46 12.97C12.36 11.95 13.06 10.97 13.58 10C14.25 8.76 14.59 7.59 14.59 6.49C14.59 5.95 14.52 5.42 14.4 4.91C14.31 4.58 14.2 4.25 14.07 3.94C13.92 3.58 13.73 3.24 13.52 2.92C13.27 2.54 12.98 2.19 12.65 1.87C12.37 1.6 12.08 1.36 11.76 1.14C11.39 0.89 10.98 0.67 10.55 0.5C10.24 0.36 9.91 0.26 9.58 0.18ZM6.66 1.49C7.09 1.38 7.54 1.33 7.99 1.33C8.45 1.33 8.89 1.38 9.32 1.49C9.57 1.55 9.81 1.63 10.05 1.73C10.4 1.87 10.72 2.05 11.03 2.26C11.27 2.42 11.5 2.61 11.72 2.82C11.99 3.09 12.22 3.37 12.42 3.67C12.58 3.92 12.72 4.18 12.84 4.46C12.94 4.69 13.03 4.93 13.09 5.18C13.2 5.6 13.26 6.04 13.26 6.49C13.26 7.37 12.97 8.33 12.41 9.37C11.94 10.24 11.29 11.15 10.46 12.08C9.86 12.76 9.2 13.42 8.48 14.05C8.3 14.21 8.14 14.35 7.99 14.47C7.85 14.35 7.69 14.21 7.51 14.05C6.79 13.42 6.13 12.76 5.53 12.08C4.7 11.15 4.05 10.24 3.58 9.37C3.01 8.33 2.73 7.37 2.73 6.49C2.73 6.04 2.79 5.6 2.9 5.18C2.96 4.93 3.04 4.69 3.14 4.46C3.26 4.18 3.4 3.92 3.57 3.67C3.77 3.37 4 3.09 4.27 2.82C4.48 2.62 4.71 2.43 4.96 2.26C5.26 2.05 5.59 1.87 5.94 1.73C6.18 1.63 6.42 1.55 6.66 1.49Z" fill="#000000" fill-opacity="1.000000" fill-rule="evenodd"/>
		<path d="M5.46 6.59C5.46 5.19 6.59 4.05 7.99 4.05C9.4 4.05 10.53 5.19 10.53 6.59C10.53 7.99 9.4 9.13 7.99 9.13C6.59 9.13 5.46 7.99 5.46 6.59ZM6.79 6.59C6.79 5.92 7.33 5.39 7.99 5.39C8.66 5.39 9.2 5.92 9.2 6.59C9.2 7.26 8.66 7.8 7.99 7.8C7.33 7.8 6.79 7.26 6.79 6.59Z" fill="#000000" fill-opacity="1.000000" fill-rule="evenodd"/>
	</g>
</svg>
