<svg width="16.000000" height="16.000000" viewBox="0 0 16 16" fill="none" xmlns="http://www.w3.org/2000/svg" xmlns:xlink="http://www.w3.org/1999/xlink">
	<desc>
			Created with Pixso.
	</desc>
	<defs>
		<clipPath id="clip10_541">
			<rect width="16.000000" height="16.000000" fill="white" fill-opacity="0"/>
		</clipPath>
	</defs>
	<g clip-path="url(#clip10_541)">
		<path d="M9.51 1.01C9.22 1.05 8.95 1.15 8.68 1.32L2.13 5.27C1.86 5.43 1.64 5.63 1.46 5.87C1.29 6.11 1.16 6.39 1.08 6.71C1 7.02 0.98 7.33 1.01 7.63C1.05 7.93 1.15 8.22 1.3 8.5L4.17 13.7C4.24 13.83 4.32 13.94 4.4 14.05L3.21 14.05C2.95 14.05 2.75 14.26 2.75 14.52C2.75 14.79 2.95 15 3.21 15L12.88 15C13.13 15 13.33 14.79 13.33 14.52C13.33 14.26 13.13 14.05 12.88 14.05L8.13 14.05L13.81 10.62C14.35 10.29 14.71 9.81 14.87 9.18C14.95 8.86 14.97 8.56 14.93 8.26C14.89 7.96 14.8 7.67 14.64 7.38L11.77 2.19C11.61 1.9 11.42 1.67 11.19 1.48C10.96 1.3 10.7 1.17 10.39 1.08C10.09 1 9.8 0.97 9.51 1.01ZM2.59 6.09L9.13 2.14C9.29 2.04 9.46 1.98 9.63 1.96C9.8 1.93 9.98 1.95 10.16 2C10.34 2.05 10.5 2.13 10.64 2.24C10.78 2.35 10.89 2.49 10.99 2.66L13.86 7.86C13.95 8.03 14.01 8.2 14.03 8.38C14.05 8.56 14.04 8.75 13.99 8.94C13.94 9.12 13.87 9.29 13.76 9.44C13.65 9.58 13.52 9.7 13.36 9.8L6.82 13.75C6.65 13.84 6.49 13.91 6.31 13.93C6.14 13.95 5.97 13.94 5.79 13.89C5.6 13.84 5.44 13.76 5.31 13.65C5.17 13.54 5.05 13.4 4.96 13.23L2.09 8.03C2 7.86 1.94 7.68 1.91 7.5C1.89 7.32 1.9 7.14 1.95 6.95C2 6.76 2.08 6.59 2.18 6.45C2.29 6.31 2.42 6.19 2.59 6.09ZM2.27 7.19C2.31 6.93 2.54 6.76 2.79 6.8L7.34 7.55C7.43 7.56 7.51 7.55 7.58 7.5C7.66 7.46 7.71 7.39 7.75 7.31L9.62 2.67C9.72 2.42 9.98 2.31 10.21 2.41C10.45 2.52 10.55 2.79 10.45 3.03L8.58 7.68C8.55 7.75 8.52 7.82 8.48 7.89C8.44 7.95 8.4 8 8.35 8.06C8.26 8.17 8.15 8.26 8.02 8.33C7.9 8.4 7.77 8.45 7.63 8.48C7.49 8.51 7.34 8.51 7.2 8.48L2.65 7.73C2.4 7.69 2.23 7.45 2.27 7.19Z" fill="#000000" fill-opacity="0.600000" fill-rule="evenodd"/>
	</g>
</svg>
