<svg width="16.000000" height="16.000000" viewBox="0 0 16 16" fill="none" xmlns="http://www.w3.org/2000/svg" xmlns:xlink="http://www.w3.org/1999/xlink">
	<desc>
			Created with Pixso.
	</desc>
	<defs>
		<clipPath id="clip10_528">
			<rect width="16.000000" height="16.000000" fill="white" fill-opacity="0"/>
		</clipPath>
	</defs>
	<g clip-path="url(#clip10_528)">
		<path d="M1 2.73C1.13 4.16 1.37 5.36 1.72 6.31C2.14 7.82 2.79 9.14 3.68 10.28C3.94 10.62 4.22 10.93 4.52 11.24C5.85 12.56 7.57 13.57 9.67 14.26C10.62 14.62 11.82 14.86 13.26 14.99C13.31 14.99 13.36 15 13.41 15C13.62 15 13.83 14.95 14.03 14.87C14.22 14.79 14.38 14.68 14.53 14.53C14.68 14.38 14.79 14.22 14.87 14.03C14.95 13.83 14.99 13.62 15 13.41L14.99 11.59C14.99 11.49 14.98 11.39 14.96 11.3C14.95 11.21 14.92 11.12 14.89 11.04C14.83 10.87 14.73 10.71 14.61 10.57C14.49 10.43 14.35 10.31 14.19 10.22C14.03 10.12 13.85 10.06 13.66 10.03C13.2 9.96 12.84 9.89 12.57 9.82C12.17 9.72 11.55 9.54 10.72 9.26C10.64 9.23 10.55 9.22 10.46 9.23C10.04 9.27 9.69 9.37 9.42 9.53C9.28 9.62 9.16 9.72 9.07 9.84C8.75 9.69 8.4 9.47 8.04 9.18C7.57 8.81 7.17 8.41 6.84 7.97C6.56 7.61 6.36 7.24 6.22 6.87C6.31 6.78 6.39 6.68 6.46 6.57C6.62 6.3 6.72 5.95 6.76 5.53C6.77 5.44 6.76 5.35 6.73 5.27C6.45 4.44 6.27 3.82 6.17 3.42C6.1 3.15 6.03 2.79 5.96 2.33C5.93 2.14 5.87 1.96 5.77 1.8C5.68 1.64 5.56 1.5 5.42 1.38C5.28 1.26 5.12 1.16 4.95 1.1C4.87 1.07 4.79 1.04 4.7 1.03C4.6 1.01 4.5 1 4.4 1L2.58 1C2.37 1 2.16 1.04 1.96 1.12C1.87 1.16 1.79 1.21 1.71 1.26C1.62 1.32 1.54 1.38 1.46 1.46C1.38 1.54 1.32 1.62 1.26 1.71C1.21 1.79 1.16 1.87 1.12 1.96C1.08 2.06 1.05 2.15 1.03 2.25C1.01 2.36 1 2.47 1 2.58C1 2.63 1 2.68 1 2.73ZM2.3 2.61C2.3 2.53 2.32 2.44 2.38 2.38C2.41 2.35 2.44 2.33 2.47 2.32C2.51 2.3 2.54 2.29 2.58 2.29L4.39 2.3C4.46 2.3 4.53 2.32 4.58 2.37C4.63 2.41 4.67 2.47 4.68 2.54C4.76 3.03 4.83 3.42 4.9 3.72C5.01 4.14 5.19 4.75 5.45 5.54C5.43 5.7 5.39 5.81 5.35 5.89C4.92 5.98 4.72 6.28 4.81 6.7C4.97 7.4 5.31 8.09 5.8 8.75C6.2 9.28 6.68 9.77 7.24 10.21C7.71 10.58 8.16 10.86 8.59 11.05C8.81 11.15 9 11.21 9.16 11.23C9.3 11.26 9.43 11.25 9.55 11.22C9.66 11.18 9.77 11.13 9.85 11.05C9.96 10.95 10.03 10.82 10.06 10.68C10.14 10.63 10.29 10.56 10.45 10.54C11.24 10.8 11.85 10.98 12.27 11.09C12.57 11.16 12.96 11.23 13.45 11.31C13.52 11.32 13.58 11.36 13.62 11.41C13.67 11.46 13.69 11.53 13.69 11.6L13.7 13.41C13.7 13.49 13.67 13.55 13.61 13.61C13.55 13.67 13.49 13.7 13.41 13.7C12.07 13.58 10.96 13.36 10.11 13.04C8.2 12.42 6.63 11.5 5.44 10.32C5.22 10.09 5.01 9.86 4.81 9.61C3.96 8.57 3.35 7.35 2.97 5.94C2.65 5.09 2.41 3.94 2.3 2.61Z" fill="#191919" fill-opacity="0.600000" fill-rule="evenodd"/>
	</g>
</svg>
