<svg width="24.000000" height="24.000000" viewBox="0 0 24 24" fill="none" xmlns="http://www.w3.org/2000/svg" xmlns:xlink="http://www.w3.org/1999/xlink">
	<desc>
			Created with Pixso.
	</desc>
	<defs>
		<clipPath id="clip17_1095">
			<rect width="24.000000" height="24.000000" fill="white" fill-opacity="0"/>
		</clipPath>
	</defs>
	<g clip-path="url(#clip17_1095)">
		<circle cx="12.000000" cy="12.000000" r="12.000000" fill="#466DFA" fill-opacity="1.000000"/>
		<path d="M19 17.32L19 8.73C19 8.56 18.98 8.38 18.94 8.21C18.91 8.07 18.86 7.94 18.81 7.8C18.69 7.52 18.52 7.27 18.3 7.05C18.08 6.83 17.82 6.66 17.54 6.53C17.24 6.41 16.93 6.35 16.61 6.35L7.38 6.35C7.2 6.35 7.03 6.37 6.86 6.4C6.72 6.44 6.58 6.48 6.45 6.53C6.31 6.59 6.18 6.66 6.06 6.74C5.93 6.83 5.81 6.93 5.69 7.05C5.58 7.16 5.48 7.28 5.39 7.41C5.31 7.54 5.24 7.67 5.18 7.8C5.13 7.94 5.08 8.07 5.05 8.21C5.01 8.38 5 8.55 5 8.73L5 17.32C5 17.65 5.06 17.96 5.18 18.25C5.3 18.54 5.47 18.79 5.69 19.01C5.81 19.13 5.93 19.23 6.07 19.32C6.19 19.4 6.32 19.47 6.45 19.52C6.75 19.65 7.06 19.71 7.38 19.71L16.61 19.71C16.93 19.71 17.24 19.65 17.54 19.52C17.82 19.4 18.08 19.23 18.3 19.01C18.52 18.79 18.69 18.54 18.81 18.25C18.93 17.96 19 17.65 19 17.32ZM18 8.4C18.03 8.51 18.04 8.62 18.04 8.73L18.04 17.32C18.04 17.52 18 17.7 17.93 17.88C17.86 18.05 17.75 18.2 17.62 18.34C17.49 18.47 17.34 18.57 17.17 18.64C16.99 18.72 16.8 18.76 16.61 18.76L7.38 18.76C7.27 18.76 7.16 18.74 7.05 18.72C6.97 18.7 6.9 18.68 6.82 18.64C6.65 18.57 6.5 18.47 6.37 18.34C6.24 18.2 6.13 18.05 6.06 17.88C6.03 17.81 6 17.73 5.99 17.65C5.96 17.54 5.95 17.44 5.95 17.32L5.95 8.73C5.95 8.62 5.96 8.51 5.99 8.4C6.01 8.32 6.03 8.25 6.06 8.18C6.1 8.1 6.14 8.02 6.18 7.95C6.24 7.87 6.3 7.79 6.37 7.72C6.44 7.65 6.51 7.59 6.6 7.54C6.67 7.49 6.74 7.45 6.82 7.41C6.9 7.38 6.97 7.36 7.05 7.34C7.15 7.31 7.27 7.3 7.38 7.3L16.61 7.3C16.8 7.3 16.99 7.34 17.17 7.41C17.34 7.49 17.49 7.59 17.62 7.72C17.69 7.79 17.76 7.87 17.81 7.95C17.86 8.02 17.89 8.1 17.93 8.18C17.96 8.25 17.98 8.33 18 8.4Z" fill="#FFFFFF" fill-opacity="1.000000" fill-rule="evenodd"/>
		<path d="M9.9 5.71L9.9 6.83C9.9 7.24 9.58 7.55 9.18 7.55C8.78 7.55 8.47 7.24 8.47 6.83L8.47 5.71C8.47 5.31 8.78 5 9.18 5C9.58 5 9.9 5.31 9.9 5.71ZM15.52 5.71C15.52 5.31 15.2 5 14.8 5C14.4 5 14.09 5.31 14.09 5.71L14.09 6.83C14.09 7.24 14.4 7.55 14.8 7.55C15.2 7.55 15.52 7.24 15.52 6.83L15.52 5.71Z" fill="#FFFFFF" fill-opacity="1.000000" fill-rule="evenodd"/>
		<path d="M5.47 10.01L18.52 10.01L18.52 10.96L5.47 10.96L5.47 10.01Z" fill="#FFFFFF" fill-opacity="1.000000" fill-rule="evenodd"/>
		<path d="M12.61 12.18L11.46 12.18C11.31 12.18 11.19 12.3 11.19 12.45L11.19 13.6C11.19 13.75 11.31 13.87 11.46 13.87L12.61 13.87C12.76 13.87 12.88 13.75 12.88 13.6L12.88 12.45C12.88 12.3 12.76 12.18 12.61 12.18ZM15.98 12.18L14.83 12.18C14.68 12.18 14.56 12.3 14.56 12.45L14.56 13.6C14.56 13.75 14.68 13.87 14.83 13.87L15.98 13.87C16.12 13.87 16.25 13.75 16.25 13.6L16.25 12.45C16.25 12.3 16.12 12.18 15.98 12.18ZM8.09 15.56L9.23 15.56C9.38 15.56 9.5 15.68 9.5 15.83L9.5 16.97C9.5 17.12 9.38 17.24 9.23 17.24L8.09 17.24C7.94 17.24 7.82 17.12 7.82 16.97L7.82 15.83C7.82 15.68 7.94 15.56 8.09 15.56ZM12.61 15.56L11.46 15.56C11.31 15.56 11.19 15.68 11.19 15.83L11.19 16.97C11.19 17.12 11.31 17.24 11.46 17.24L12.61 17.24C12.76 17.24 12.88 17.12 12.88 16.97L12.88 15.83C12.88 15.68 12.76 15.56 12.61 15.56Z" fill="#FFFFFF" fill-opacity="1.000000" fill-rule="evenodd"/>
		<path d="M5 10.96L19 10.96L19 17.32C19 18.64 17.93 19.71 16.61 19.71L7.38 19.71C6.06 19.71 5 18.64 5 17.32L5 10.96ZM11.46 12.18L12.61 12.18C12.76 12.18 12.88 12.3 12.88 12.45L12.88 13.6C12.88 13.75 12.76 13.87 12.61 13.87L11.46 13.87C11.31 13.87 11.19 13.75 11.19 13.6L11.19 12.45C11.19 12.3 11.31 12.18 11.46 12.18ZM14.83 12.18L15.98 12.18C16.12 12.18 16.25 12.3 16.25 12.45L16.25 13.6C16.25 13.75 16.12 13.87 15.98 13.87L14.83 13.87C14.68 13.87 14.56 13.75 14.56 13.6L14.56 12.45C14.56 12.3 14.68 12.18 14.83 12.18ZM9.23 15.56L8.09 15.56C7.94 15.56 7.82 15.68 7.82 15.83L7.82 16.97C7.82 17.12 7.94 17.24 8.09 17.24L9.23 17.24C9.38 17.24 9.5 17.12 9.5 16.97L9.5 15.83C9.5 15.68 9.38 15.56 9.23 15.56ZM11.46 15.56L12.61 15.56C12.76 15.56 12.88 15.68 12.88 15.83L12.88 16.97C12.88 17.12 12.76 17.24 12.61 17.24L11.46 17.24C11.31 17.24 11.19 17.12 11.19 16.97L11.19 15.83C11.19 15.68 11.31 15.56 11.46 15.56Z" fill="#FFFFFF" fill-opacity="0" fill-rule="evenodd"/>
		<path d="M8.71 6.35L7.38 6.35C6.06 6.35 5 7.42 5 8.73L5 10.01L19 10.01L19 8.73C19 7.42 17.93 6.35 16.61 6.35L15.28 6.35L15.28 5.71C15.28 5.44 15.07 5.23 14.8 5.23C14.54 5.23 14.33 5.44 14.33 5.71L14.33 6.35L9.66 6.35L9.66 5.71C9.66 5.44 9.45 5.23 9.19 5.23C8.92 5.23 8.71 5.44 8.71 5.71L8.71 6.35Z" fill="#FFFFFF" fill-opacity="0" fill-rule="evenodd"/>
	</g>
</svg>
