<svg width="12.000000" height="12.000000" viewBox="0 0 12 12" fill="none" xmlns="http://www.w3.org/2000/svg" xmlns:xlink="http://www.w3.org/1999/xlink">
	<desc>
			Created with Pixso.
	</desc>
	<defs>
		<clipPath id="clip34_2059">
			<rect width="12.000000" height="12.000000" fill="white" fill-opacity="0"/>
		</clipPath>
	</defs>
	<g clip-path="url(#clip34_2059)">
		<path d="M12.12 3C12.12 2.85 12.1 2.71 12.07 2.57C12.05 2.45 12.01 2.33 11.96 2.22C11.86 1.98 11.72 1.77 11.53 1.58C11.44 1.48 11.33 1.4 11.22 1.33C11.12 1.26 11.01 1.2 10.9 1.15C10.65 1.05 10.39 1 10.12 1L1.87 1C1.72 1 1.58 1.01 1.44 1.04C1.32 1.07 1.21 1.1 1.09 1.15C0.98 1.2 0.87 1.26 0.77 1.33C0.66 1.4 0.55 1.48 0.46 1.58C0.36 1.68 0.27 1.78 0.2 1.89C0.13 1.99 0.08 2.1 0.03 2.22C-0.02 2.33 -0.06 2.45 -0.08 2.57C-0.11 2.71 -0.13 2.85 -0.13 3L-0.13 4.48C-0.13 4.67 -0.05 4.82 0.12 4.91C0.21 4.97 0.3 5.03 0.38 5.11C0.45 5.18 0.52 5.27 0.57 5.36C0.63 5.45 0.67 5.55 0.7 5.65C0.73 5.76 0.75 5.87 0.75 6C0.75 6.12 0.73 6.23 0.7 6.34C0.67 6.44 0.63 6.54 0.57 6.63C0.46 6.82 0.31 6.97 0.12 7.08C-0.05 7.17 -0.13 7.32 -0.13 7.51L-0.13 9C-0.13 9.14 -0.11 9.28 -0.08 9.42C-0.06 9.54 -0.02 9.66 0.03 9.77C0.08 9.89 0.13 10 0.2 10.1C0.27 10.21 0.36 10.31 0.46 10.41C0.64 10.59 0.85 10.74 1.09 10.84C1.34 10.94 1.6 11 1.87 11L10.12 11C10.39 11 10.65 10.94 10.9 10.84C11.14 10.74 11.35 10.59 11.53 10.41C11.72 10.22 11.86 10.01 11.96 9.77C12.07 9.53 12.12 9.27 12.12 9L12.12 7.51C12.12 7.32 12.04 7.17 11.87 7.08C11.68 6.97 11.53 6.82 11.42 6.63C11.36 6.54 11.32 6.44 11.29 6.34C11.26 6.23 11.25 6.12 11.25 6C11.25 5.87 11.26 5.76 11.29 5.65C11.32 5.55 11.36 5.45 11.42 5.36C11.53 5.17 11.68 5.02 11.87 4.91C11.95 4.86 12.02 4.8 12.06 4.73C12.1 4.66 12.12 4.58 12.12 4.48L12.12 3ZM11.04 2.61C11.09 2.73 11.12 2.86 11.12 3L11.12 4.21C11.05 4.27 10.98 4.33 10.91 4.4C10.77 4.53 10.66 4.68 10.56 4.85C10.35 5.2 10.25 5.59 10.25 6C10.25 6.21 10.27 6.41 10.33 6.61C10.38 6.79 10.46 6.97 10.56 7.14C10.7 7.39 10.89 7.6 11.12 7.78L11.12 8.99C11.12 9.13 11.09 9.26 11.04 9.38C10.99 9.5 10.92 9.61 10.83 9.7C10.78 9.75 10.72 9.8 10.66 9.83C10.61 9.87 10.56 9.89 10.51 9.92C10.39 9.97 10.26 10 10.12 10L1.87 10C1.79 10 1.71 9.99 1.64 9.97C1.59 9.96 1.53 9.94 1.48 9.92C1.43 9.89 1.38 9.87 1.33 9.83C1.27 9.8 1.21 9.75 1.16 9.7C1.07 9.61 1 9.5 0.95 9.38C0.93 9.33 0.91 9.28 0.9 9.23C0.88 9.15 0.87 9.07 0.87 9L0.87 7.78C1.1 7.6 1.29 7.39 1.43 7.14C1.53 6.97 1.61 6.79 1.66 6.61C1.72 6.41 1.75 6.21 1.75 6C1.75 5.59 1.64 5.21 1.43 4.85C1.33 4.68 1.22 4.53 1.08 4.4C1.01 4.33 0.94 4.27 0.87 4.21L0.87 2.99C0.87 2.92 0.88 2.84 0.9 2.76C0.91 2.71 0.93 2.66 0.95 2.61C0.97 2.55 1 2.5 1.03 2.45C1.07 2.39 1.11 2.34 1.16 2.29C1.21 2.24 1.27 2.19 1.33 2.16C1.38 2.12 1.43 2.1 1.48 2.07C1.53 2.05 1.59 2.03 1.64 2.02C1.71 2 1.79 2 1.87 2L10.12 2C10.26 2 10.39 2.02 10.51 2.07C10.56 2.1 10.61 2.12 10.66 2.16C10.72 2.19 10.78 2.24 10.83 2.29C10.88 2.34 10.92 2.39 10.96 2.45C10.99 2.5 11.02 2.55 11.04 2.61Z" fill="#191919" fill-opacity="1.000000" fill-rule="evenodd"/>
		<path d="M6.5 8C6.5 8.28 6.28 8.5 6 8.5C5.71 8.5 5.5 8.28 5.5 8L5.5 4C5.5 3.72 5.71 3.5 6 3.5C6.28 3.5 6.5 3.72 6.5 4L6.5 8Z" fill="#191919" fill-opacity="1.000000" fill-rule="evenodd"/>
	</g>
</svg>
