<svg width="12.000000" height="12.000000" viewBox="0 0 12 12" fill="none" xmlns="http://www.w3.org/2000/svg" xmlns:xlink="http://www.w3.org/1999/xlink">
	<desc>
			Created with Pixso.
	</desc>
	<defs>
		<clipPath id="clip34_2050">
			<rect width="12.000000" height="12.000000" fill="white" fill-opacity="0"/>
		</clipPath>
	</defs>
	<g clip-path="url(#clip34_2050)">
		<path d="M8.25 1.29L8 1.29L8 0.75Q8 0.58 7.94 0.44L7.94 0.44C7.9 0.34 7.84 0.26 7.76 0.18Q7.64 0.06 7.51 0Q7.5 0 7.5 0C7.41 -0.04 7.31 -0.05 7.19 -0.05L4.8 -0.05C4.68 -0.05 4.58 -0.04 4.49 0Q4.49 0 4.48 0L4.48 0Q4.35 0.06 4.23 0.18C4.15 0.26 4.09 0.34 4.05 0.44L4.05 0.44L4.05 0.44Q4 0.58 4 0.75L4 1.29L3.75 1.29C3.6 1.29 3.46 1.31 3.32 1.34C3.2 1.37 3.08 1.4 2.97 1.45C2.85 1.5 2.74 1.56 2.64 1.63C2.53 1.7 2.43 1.78 2.33 1.88C2.23 1.98 2.15 2.08 2.08 2.19Q1.97 2.35 1.9 2.52C1.85 2.63 1.82 2.75 1.79 2.87C1.76 3.01 1.75 3.15 1.75 3.29L1.75 9.29C1.75 9.44 1.76 9.58 1.79 9.72C1.82 9.84 1.85 9.96 1.9 10.07C1.95 10.19 2.01 10.3 2.08 10.4C2.15 10.51 2.23 10.61 2.33 10.71C2.46 10.83 2.59 10.94 2.75 11.03L2.75 11.55C2.75 11.83 2.96 12.05 3.25 12.05C3.53 12.05 3.75 11.83 3.75 11.55L3.75 11.3L8.25 11.3L8.25 11.55C8.25 11.83 8.46 12.05 8.75 12.05C9.03 12.05 9.25 11.83 9.25 11.55L9.25 11.03C9.4 10.94 9.53 10.83 9.66 10.71C9.76 10.61 9.84 10.51 9.91 10.4C9.98 10.3 10.04 10.19 10.09 10.07C10.19 9.83 10.25 9.57 10.25 9.29L10.25 3.29C10.25 3.15 10.23 3.01 10.2 2.87C10.17 2.75 10.14 2.63 10.09 2.52C10.04 2.4 9.98 2.29 9.91 2.19C9.84 2.08 9.76 1.98 9.66 1.88C9.56 1.78 9.46 1.7 9.35 1.63C9.25 1.56 9.14 1.5 9.02 1.45C8.78 1.35 8.52 1.29 8.25 1.29ZM7 1.29L5 1.29L5 0.95L7 0.95L7 1.29ZM3.75 2.29L8.25 2.29Q8.36 2.29 8.48 2.32L8.48 2.32C8.53 2.33 8.58 2.35 8.63 2.37C8.75 2.42 8.86 2.5 8.95 2.59C9.04 2.68 9.12 2.79 9.17 2.91Q9.2 2.98 9.22 3.06Q9.25 3.18 9.25 3.29L9.25 9.29Q9.25 9.41 9.22 9.53C9.21 9.58 9.19 9.63 9.17 9.68C9.12 9.8 9.04 9.91 8.95 10C8.9 10.05 8.85 10.1 8.79 10.13C8.74 10.17 8.69 10.19 8.63 10.22C8.51 10.27 8.38 10.3 8.25 10.3L3.75 10.3Q3.63 10.3 3.51 10.27L3.51 10.27C3.46 10.26 3.41 10.24 3.36 10.22C3.3 10.19 3.25 10.17 3.2 10.13Q3.11 10.08 3.04 10C2.95 9.91 2.87 9.8 2.82 9.68C2.8 9.63 2.78 9.58 2.77 9.53C2.75 9.45 2.75 9.37 2.75 9.29L2.75 3.29Q2.75 3.18 2.77 3.06C2.78 3.01 2.8 2.96 2.82 2.91C2.85 2.85 2.87 2.8 2.91 2.75C2.94 2.69 2.99 2.64 3.04 2.59C3.09 2.54 3.14 2.49 3.2 2.46C3.25 2.42 3.3 2.4 3.36 2.37C3.41 2.35 3.46 2.33 3.51 2.32L3.51 2.32Q3.63 2.29 3.75 2.29ZM4.75 3.54C5.03 3.54 5.25 3.76 5.25 4.04L5.25 8.54C5.25 8.82 5.03 9.04 4.75 9.04C4.46 9.04 4.25 8.82 4.25 8.54L4.25 4.04C4.25 3.76 4.46 3.54 4.75 3.54ZM7.25 3.54C7.53 3.54 7.75 3.76 7.75 4.04L7.75 8.54C7.75 8.82 7.53 9.04 7.25 9.04C6.96 9.04 6.75 8.82 6.75 8.54L6.75 4.04C6.75 3.76 6.96 3.54 7.25 3.54Z" fill="#191919" fill-opacity="1.000000" fill-rule="evenodd"/>
	</g>
</svg>
