<?xml version="1.0" standalone="no"?><!DOCTYPE svg PUBLIC "-//W3C//DTD SVG 1.1//EN" "http://www.w3.org/Graphics/SVG/1.1/DTD/svg11.dtd"><svg t="1744616883180" class="icon" viewBox="0 0 1024 1024" version="1.1" xmlns="http://www.w3.org/2000/svg" p-id="11336" width="128" height="128" data-spm-anchor-id="a313x.search_index.0.i29.216a3a81Zfnliu" xmlns:xlink="http://www.w3.org/1999/xlink"><path d="M701.2864 493.3632H325.8368c-3.1232 0-9.3184 3.4304-12.4416 3.4304-3.072 6.8608-6.1952 10.24-6.1952 17.1008 0 3.3792 6.1952 10.24 12.3904 17.0496 0 0 108.6464 112.7424 173.7728 184.4736 0 0 6.2464 6.8096 18.6368 6.8096 6.1952 0 12.3904 0 21.7088-10.24l176.896-187.904c3.072-3.3792 6.1952-10.24 6.1952-13.6192 0-6.8096-6.1952-17.1008-15.5136-17.1008z" fill="#000000" p-id="11337" data-spm-anchor-id="a313x.search_index.0.i25.216a3a81Zfnliu" class="selected"></path><path d="M322.7136 387.584h375.4496c3.1232 0 9.3184 0 12.4416-3.4816 3.072-7.0144 6.1952-10.496 6.1952-17.4592 0-3.4816-6.1952-10.496-12.3904-17.4592 0 0-108.6464-115.2512-173.7728-188.6208 0 0-6.2464-6.9632-18.6368-6.9632-6.1952 0-12.3904 0-21.7088 10.496L313.344 356.1472A27.904 27.904 0 0 0 307.2 370.176c0 6.9632 6.1952 17.4592 15.5136 17.4592z" fill="#000000" p-id="11338" data-spm-anchor-id="a313x.search_index.0.i24.216a3a81Zfnliu" class="selected"></path></svg>