<svg width="48.000000" height="48.000000" viewBox="0 0 48 48" fill="none" xmlns="http://www.w3.org/2000/svg" xmlns:xlink="http://www.w3.org/1999/xlink">
	<desc>
			Created with Pixso.
	</desc>
	<defs>
		<clipPath id="clip1_405">
			<rect width="48.000000" height="48.000000" fill="white" fill-opacity="0"/>
		</clipPath>
	</defs>
	<g clip-path="url(#clip1_405)">
		<path d="M41.17 20.66L26.11 8.77C24.82 7.74 22.79 7.74 21.49 8.77L6.45 20.66C5.93 21.07 5.85 21.82 6.25 22.33C6.65 22.84 7.39 22.93 7.9 22.53L8.37 22.15L8.37 36.53C8.37 38.56 10.52 40.09 12.4 40.09L36.15 40.09C38.01 40.09 39.24 38.66 39.24 36.53L39.24 22.2L39.67 22.53C39.89 22.7 40.16 22.78 40.42 22.78C40.77 22.78 41.12 22.63 41.36 22.33C41.77 21.82 41.68 21.07 41.17 20.66ZM22.62 37.71L22.62 31.13C22.62 30.8 23.21 30.64 23.8 30.64C24.4 30.64 24.99 30.8 24.99 31.13L24.99 37.71L22.62 37.71ZM36.87 36.53C36.87 37.31 36.65 37.71 36.15 37.71L27.39 37.71C27.39 37.7 27.36 37.68 27.36 37.66L27.36 31.13C27.36 29.75 26.25 28.26 23.8 28.26C21.35 28.26 20.24 29.75 20.24 31.13L20.24 37.66C20.24 37.68 20.27 37.7 20.27 37.71L12.41 37.71C11.66 37.71 10.75 37.07 10.75 36.53L10.75 20.26L22.95 10.63C23.39 10.29 24.18 10.29 24.61 10.63L36.86 20.32L36.86 36.53L36.87 36.53Z" fill="#666666" fill-opacity="1.000000" fill-rule="nonzero"/>
		<path d="M26.11 8.77C24.82 7.74 22.79 7.74 21.49 8.77L6.45 20.66C5.93 21.07 5.85 21.82 6.25 22.33C6.65 22.84 7.39 22.93 7.9 22.53L8.37 22.15L8.37 36.53C8.37 38.56 10.52 40.09 12.4 40.09L36.15 40.09C38.01 40.09 39.24 38.66 39.24 36.53L39.24 22.2L39.67 22.53C39.89 22.7 40.16 22.78 40.42 22.78C40.77 22.78 41.12 22.63 41.36 22.33C41.77 21.82 41.68 21.07 41.17 20.66L26.11 8.77ZM22.62 31.13C22.62 30.8 23.21 30.64 23.8 30.64C24.4 30.64 24.99 30.8 24.99 31.13L24.99 37.71L22.62 37.71L22.62 31.13ZM36.15 37.71L27.39 37.71C27.39 37.7 27.36 37.68 27.36 37.66L27.36 31.13C27.36 29.75 26.25 28.26 23.8 28.26C21.35 28.26 20.24 29.75 20.24 31.13L20.24 37.66C20.24 37.68 20.27 37.7 20.27 37.71L12.41 37.71C11.66 37.71 10.75 37.07 10.75 36.53L10.75 20.26L22.95 10.63C23.39 10.29 24.18 10.29 24.61 10.63L36.86 20.32L36.86 36.53L36.87 36.53C36.87 37.31 36.65 37.71 36.15 37.71Z" stroke="#666666" stroke-opacity="1.000000" stroke-width="1.000000"/>
	</g>
</svg>
