<svg width="48.000000" height="48.000000" viewBox="0 0 48 48" fill="none" xmlns="http://www.w3.org/2000/svg" xmlns:xlink="http://www.w3.org/1999/xlink">
	<desc>
			Created with Pixso.
	</desc>
	<defs/>
	<mask id="mask_1_398" fill="white">
		<path d="M21.6276 5.50012C25.6533 5.50012 28.9167 8.76221 28.9167 12.7875C28.9167 18.0951 27.0325 21.9469 23.8367 23.2177C23.1709 23.4824 22.4165 23.1572 22.1519 22.4915C21.8871 21.8257 22.2123 21.0714 22.8781 20.8066C24.9263 19.9923 26.3221 17.1388 26.3221 12.7875C26.3221 10.1954 24.2206 8.09473 21.6276 8.09473C19.0347 8.09473 16.9331 10.1954 16.9331 12.7875C16.9331 15.7648 17.8813 18.4524 19.3341 19.9331C19.4503 20.0228 19.5532 20.1339 19.6365 20.265C19.9678 20.7867 19.8801 21.4547 19.4618 21.875C19.3699 21.969 19.2671 22.0459 19.1575 22.106L12.4615 26.3573C11.3951 27.0347 10.594 28.0507 10.182 29.2365L10.0702 29.5972L9.09106 33.1918C8.87146 33.9978 9.42224 34.7921 10.224 34.8944L10.3994 34.9055L32.8549 34.9055C33.6899 34.9055 34.3115 34.1644 34.2003 33.3643L34.165 33.1921L33.1841 29.597C32.8528 28.3799 32.1179 27.3147 31.1053 26.5709L30.7933 26.3577L28.1001 24.6487C27.4951 24.2648 27.3159 23.4631 27.6998 22.8583C28.0488 22.3082 28.743 22.1101 29.3208 22.3671L29.4902 22.4579L32.184 24.1672C33.7806 25.1814 34.9722 26.7135 35.562 28.4984L35.6874 28.9148L36.6686 32.5107C37.3275 34.9375 35.5873 37.3293 33.1217 37.4915L32.8549 37.5001L10.3994 37.5001C7.88367 37.5001 6.03406 35.191 6.526 32.7695L6.58777 32.5096L7.56702 28.9142C8.06543 27.0907 9.17749 25.5017 10.7096 24.41L11.0706 24.1671L16.5842 20.6664C15.1628 18.6469 14.3385 15.8124 14.3385 12.7875C14.3385 8.76221 17.6019 5.50012 21.6276 5.50012Z" clip-rule="evenodd" fill="" fill-opacity="1.000000" fill-rule="evenodd"/>
	</mask>
	<path d="M21.6276 5.50012C25.6533 5.50012 28.9167 8.76221 28.9167 12.7875C28.9167 18.0951 27.0325 21.9469 23.8367 23.2177C23.1709 23.4824 22.4165 23.1572 22.1519 22.4915C21.8871 21.8257 22.2123 21.0714 22.8781 20.8066C24.9263 19.9923 26.3221 17.1388 26.3221 12.7875C26.3221 10.1954 24.2206 8.09473 21.6276 8.09473C19.0347 8.09473 16.9331 10.1954 16.9331 12.7875C16.9331 15.7648 17.8813 18.4524 19.3341 19.9331C19.4503 20.0228 19.5532 20.1339 19.6365 20.265C19.9678 20.7867 19.8801 21.4547 19.4618 21.875C19.3699 21.969 19.2671 22.0459 19.1575 22.106L12.4615 26.3573C11.3951 27.0347 10.594 28.0507 10.182 29.2365L10.0702 29.5972L9.09106 33.1918C8.87146 33.9978 9.42224 34.7921 10.224 34.8944L10.3994 34.9055L32.8549 34.9055C33.6899 34.9055 34.3115 34.1644 34.2003 33.3643L34.165 33.1921L33.1841 29.597C32.8528 28.3799 32.1179 27.3147 31.1053 26.5709L30.7933 26.3577L28.1001 24.6487C27.4951 24.2648 27.3159 23.4631 27.6998 22.8583C28.0488 22.3082 28.743 22.1101 29.3208 22.3671L29.4902 22.4579L32.184 24.1672C33.7806 25.1814 34.9722 26.7135 35.562 28.4984L35.6874 28.9148L36.6686 32.5107C37.3275 34.9375 35.5873 37.3293 33.1217 37.4915L32.8549 37.5001L10.3994 37.5001C7.88367 37.5001 6.03406 35.191 6.526 32.7695L6.58777 32.5096L7.56702 28.9142C8.06543 27.0907 9.17749 25.5017 10.7096 24.41L11.0706 24.1671L16.5842 20.6664C15.1628 18.6469 14.3385 15.8124 14.3385 12.7875C14.3385 8.76221 17.6019 5.50012 21.6276 5.50012Z" clip-rule="evenodd" fill="#666666" fill-opacity="1.000000" fill-rule="evenodd" mask="url(#mask_1_398)"/>
	<path d="" clip-rule="evenodd" fill="#979797" fill-opacity="0.000000" fill-rule="evenodd"/>
</svg>
