<svg width="48.000000" height="48.000000" viewBox="0 0 48 48" fill="none" xmlns="http://www.w3.org/2000/svg" xmlns:xlink="http://www.w3.org/1999/xlink">
	<desc>
			Created with Pixso.
	</desc>
	<defs/>
	<path d="M24.98 11.59C25.1 11.69 25.21 11.8 25.31 11.92L30.19 17.78L35.58 13.8C35.68 13.72 35.8 13.66 35.91 13.59C36.03 13.53 36.15 13.48 36.27 13.44C36.4 13.4 36.52 13.36 36.65 13.34C36.78 13.32 36.91 13.3 37.05 13.3C37.18 13.3 37.31 13.3 37.44 13.32C37.57 13.34 37.7 13.37 37.82 13.4C37.95 13.44 38.07 13.49 38.19 13.54C38.31 13.6 38.43 13.66 38.54 13.73C38.65 13.81 38.75 13.89 38.85 13.98C38.94 14.07 39.03 14.16 39.11 14.27C39.2 14.37 39.27 14.48 39.34 14.59C39.4 14.7 39.46 14.82 39.5 14.95C39.55 15.07 39.59 15.19 39.62 15.32C39.65 15.45 39.66 15.58 39.67 15.71C39.68 15.84 39.68 15.98 39.67 16.11C39.65 16.24 39.63 16.37 39.6 16.49L34.48 36.98L12.19 36.98L7.07 16.5C7.04 16.37 7.02 16.24 7.01 16.11C6.99 15.98 6.99 15.84 7 15.71C7.01 15.58 7.03 15.45 7.05 15.32C7.08 15.19 7.12 15.07 7.17 14.95C7.21 14.82 7.27 14.7 7.34 14.59C7.4 14.48 7.48 14.37 7.56 14.26C7.64 14.16 7.73 14.07 7.83 13.98C7.92 13.89 8.03 13.81 8.14 13.73C8.25 13.66 8.36 13.6 8.48 13.54C8.6 13.48 8.72 13.44 8.85 13.4C8.97 13.36 9.1 13.34 9.23 13.32C9.36 13.3 9.49 13.3 9.63 13.3C9.76 13.3 9.89 13.32 10.02 13.34C10.15 13.36 10.27 13.39 10.4 13.44C10.52 13.48 10.64 13.53 10.76 13.59C10.88 13.65 10.99 13.72 11.09 13.8L16.48 17.78L21.36 11.92C21.41 11.86 21.47 11.79 21.53 11.74C21.59 11.68 21.65 11.62 21.72 11.57C21.79 11.51 21.85 11.46 21.92 11.42C21.99 11.37 22.07 11.33 22.14 11.29C22.22 11.25 22.29 11.22 22.37 11.18C22.45 11.15 22.53 11.12 22.61 11.1C22.69 11.08 22.77 11.06 22.85 11.04C22.94 11.03 23.02 11.01 23.1 11.01C23.19 11 23.27 10.99 23.36 11C23.44 11 23.52 11 23.61 11.01C23.69 11.02 23.77 11.03 23.86 11.05C23.94 11.07 24.02 11.09 24.1 11.11C24.18 11.14 24.26 11.17 24.34 11.2C24.42 11.23 24.49 11.27 24.57 11.31C24.64 11.35 24.71 11.39 24.78 11.44C24.85 11.49 24.92 11.54 24.98 11.59ZM23.34 13.57L16.9 21.29L9.57 15.87L14.2 34.41L32.47 34.41L37.11 15.87L29.77 21.29L23.34 13.57ZM29.34 29.66L29.34 32.41L17.34 32.41L17.34 29.66L29.34 29.66Z" fill="#007DFF" fill-opacity="1.000000" fill-rule="nonzero"/>
</svg>
