<svg width="24.000000" height="24.000000" viewBox="0 0 24 24" fill="none" xmlns="http://www.w3.org/2000/svg" xmlns:xlink="http://www.w3.org/1999/xlink">
	<desc>
			Created with Pixso.
	</desc>
	<defs>
		<clipPath id="clip170_8498">
			<rect width="24.000000" height="24.000000" fill="white" fill-opacity="0"/>
		</clipPath>
		<clipPath id="clip170_8499">
			<rect width="24.000000" height="24.000000" fill="white" fill-opacity="0"/>
		</clipPath>
	</defs>
	<g clip-path="url(#clip170_8499)">
		<g clip-path="url(#clip170_8498)">
			<g opacity="0.000000">
				<rect width="24.000000" height="24.000000" fill="#D8D8D8" fill-opacity="1.000000"/>
				<rect width="24.000000" height="24.000000" stroke="#000000" stroke-opacity="0" stroke-width="1.000000"/>
			</g>
			<path d="M20.47 16.33C20.04 19.94 17.01 22 12 22C6.98 22 3.95 19.94 3.52 16.33C5 17.27 7.73 18.48 12 18.48C16.26 18.48 18.99 17.27 20.47 16.33ZM12 1.99C17.42 1.99 20.53 4.4 20.53 8.59L20.53 14.42C19.82 15.04 17.16 16.98 12 16.98C6.83 16.98 4.17 15.04 3.46 14.42L3.46 8.59C3.46 4.4 6.57 1.99 12 1.99ZM12 7.99C10.89 7.99 10 8.89 10 9.99L10 11.99C10 13.1 10.89 13.99 12 13.99C13.1 13.99 14 13.1 14 11.99L14 9.99C14 8.89 13.1 7.99 12 7.99Z" fill="#191919" fill-opacity="1.000000" fill-rule="evenodd"/>
			<path d="M12 22C6.98 22 3.95 19.94 3.52 16.33C5 17.27 7.73 18.48 12 18.48C16.26 18.48 18.99 17.27 20.47 16.33C20.04 19.94 17.01 22 12 22ZM20.53 8.59L20.53 14.42C19.82 15.04 17.16 16.98 12 16.98C6.83 16.98 4.17 15.04 3.46 14.42L3.46 8.59C3.46 4.4 6.57 1.99 12 1.99C17.42 1.99 20.53 4.4 20.53 8.59ZM10 9.99L10 11.99C10 13.1 10.89 13.99 12 13.99C13.1 13.99 14 13.1 14 11.99L14 9.99C14 8.89 13.1 7.99 12 7.99C10.89 7.99 10 8.89 10 9.99Z" stroke="#000000" stroke-opacity="0" stroke-width="1.000000"/>
		</g>
	</g>
</svg>
