<svg width="33.333496" height="30.000000" viewBox="0 0 33.3335 30" fill="none" xmlns="http://www.w3.org/2000/svg" xmlns:xlink="http://www.w3.org/1999/xlink">
	<desc>
			Created with Pixso.
	</desc>
	<defs/>
	<g opacity="0.400000">
		<path d="M8.62 0.36C11.57 1.15 13.57 3.59 13.56 6.13C12.82 5.17 11.67 4.56 10.38 4.56C8.16 4.56 6.29 6.36 6.29 8.59C6.29 10.68 7.93 12.4 9.96 12.61C9.89 12.95 9.85 13.32 9.84 13.71L9.84 14.11L9.84 14.16L9.85 14.22L9.85 16.11C9.84 16.11 9.84 16.11 9.84 16.11L9.83 29.21C9.83 29.64 9.48 29.99 9.05 30L6.71 30C6.28 30 5.92 29.64 5.92 29.21L5.93 13.94C5.81 12.36 5.14 11.14 3.94 10.26L3.91 10.24C1.33 8.97 -0.6 6.64 0.17 3.75C1.11 0.18 5.21 -0.57 8.62 0.36Z" fill="#A1A4B3" fill-opacity="1.000000" fill-rule="nonzero"/>
		<path d="M13.56 6.13C12.82 5.17 11.67 4.56 10.38 4.56C8.16 4.56 6.29 6.36 6.29 8.59C6.29 10.68 7.93 12.4 9.96 12.61C9.89 12.95 9.85 13.32 9.84 13.71L9.84 14.11L9.84 14.16L9.85 14.22L9.85 16.11C9.84 16.11 9.84 16.11 9.84 16.11L9.83 29.21C9.83 29.64 9.48 29.99 9.05 30L6.71 30C6.28 30 5.92 29.64 5.92 29.21L5.93 13.94C5.81 12.36 5.14 11.14 3.94 10.26L3.91 10.24C1.33 8.97 -0.6 6.64 0.17 3.75C1.11 0.18 5.21 -0.57 8.62 0.36C11.57 1.15 13.57 3.59 13.56 6.13Z" stroke="#000000" stroke-opacity="0" stroke-width="1.000000"/>
	</g>
	<g opacity="0.600000">
		<circle cx="2.961914" cy="3.768280" r="0.811287" fill="#000000" fill-opacity="1.000000"/>
		<circle cx="2.961914" cy="3.768280" r="0.811287" stroke="#000000" stroke-opacity="0" stroke-width="1.000000"/>
	</g>
	<g opacity="0.600000">
		<circle cx="3.333496" cy="6.666687" r="0.430107" fill="#FFFFFF" fill-opacity="1.000000"/>
		<circle cx="3.333496" cy="6.666687" r="0.430107" stroke="#000000" stroke-opacity="0" stroke-width="1.000000"/>
	</g>
	<g opacity="0.600000">
		<circle cx="6.397949" cy="2.150574" r="0.430107" fill="#FFFFFF" fill-opacity="1.000000"/>
		<circle cx="6.397949" cy="2.150574" r="0.430107" stroke="#000000" stroke-opacity="0" stroke-width="1.000000"/>
	</g>
	<g opacity="0.200000">
		<path d="M10.38 12.63C12.6 12.63 14.4 10.82 14.4 8.59C14.4 6.36 12.6 4.56 10.38 4.56C8.16 4.56 6.29 6.36 6.29 8.59C6.29 10.82 8.16 12.63 10.38 12.63Z" fill="#A1A4B3" fill-opacity="1.000000" fill-rule="nonzero"/>
		<path d="M14.4 8.59C14.4 6.36 12.6 4.56 10.38 4.56C8.16 4.56 6.29 6.36 6.29 8.59C6.29 10.82 8.16 12.63 10.38 12.63C12.6 12.63 14.4 10.82 14.4 8.59Z" stroke="#000000" stroke-opacity="0" stroke-width="1.000000"/>
	</g>
	<g opacity="0.400000">
		<ellipse cx="11.051025" cy="9.434357" rx="1.518392" ry="1.524330" fill="#505259" fill-opacity="1.000000"/>
		<ellipse cx="11.051025" cy="9.434357" rx="1.518392" ry="1.524330" stroke="#000000" stroke-opacity="0" stroke-width="1.000000"/>
	</g>
	<mask id="mask79_85" mask-type="alpha" maskUnits="userSpaceOnUse" x="9.532715" y="7.910034" width="3.036865" height="3.048676">
		<ellipse cx="11.051025" cy="9.434357" rx="1.518392" ry="1.524330" fill="#FFFFFF" fill-opacity="1.000000"/>
	</mask>
	<g mask="url(#mask79_85)">
		<g opacity="0.600000">
			<ellipse cx="10.630615" cy="9.087952" rx="1.104285" ry="1.108603" fill="#000000" fill-opacity="1.000000"/>
			<ellipse cx="10.630615" cy="9.087952" rx="1.104285" ry="1.108603" stroke="#000000" stroke-opacity="0" stroke-width="1.000000"/>
		</g>
	</g>
	<g opacity="0.400000">
		<path d="M24.7 0.36C21.75 1.15 19.75 3.59 19.77 6.13C20.5 5.17 21.65 4.56 22.95 4.56C25.17 4.56 27.03 6.36 27.03 8.59C27.03 10.68 25.4 12.4 23.37 12.61C23.43 12.95 23.47 13.32 23.48 13.71L23.48 14.11L23.48 14.16L23.48 14.22L23.48 16.11C23.48 16.11 23.48 16.11 23.48 16.11L23.49 29.21C23.49 29.64 23.84 29.99 24.28 30L26.61 30C27.05 30 27.4 29.64 27.4 29.21L27.39 13.94C27.52 12.36 28.18 11.14 29.38 10.26L29.42 10.24C31.99 8.97 33.93 6.64 33.16 3.75C32.21 0.18 28.12 -0.57 24.7 0.36Z" fill="#A1A4B3" fill-opacity="1.000000" fill-rule="nonzero"/>
		<path d="M19.77 6.13C20.5 5.17 21.65 4.56 22.95 4.56C25.17 4.56 27.03 6.36 27.03 8.59C27.03 10.68 25.4 12.4 23.37 12.61C23.43 12.95 23.47 13.32 23.48 13.71L23.48 14.11L23.48 14.16L23.48 14.22L23.48 16.11C23.48 16.11 23.48 16.11 23.48 16.11L23.49 29.21C23.49 29.64 23.84 29.99 24.28 30L26.61 30C27.05 30 27.4 29.64 27.4 29.21L27.39 13.94C27.52 12.36 28.18 11.14 29.38 10.26L29.42 10.24C31.99 8.97 33.93 6.64 33.16 3.75C32.21 0.18 28.12 -0.57 24.7 0.36C21.75 1.15 19.75 3.59 19.77 6.13Z" stroke="#000000" stroke-opacity="0" stroke-width="1.000000"/>
	</g>
	<g opacity="0.600000">
		<circle r="0.811287" transform="matrix(-1 0 0 1 30.3716 3.76828)" fill="#000000" fill-opacity="1.000000"/>
		<circle r="0.811287" transform="matrix(-1 0 0 1 30.3716 3.76828)" stroke="#000000" stroke-opacity="0" stroke-width="1.000000"/>
	</g>
	<g opacity="0.600000">
		<circle r="0.430108" transform="matrix(-1 0 0 1 30 6.66669)" fill="#FFFFFF" fill-opacity="1.000000"/>
		<circle r="0.430108" transform="matrix(-1 0 0 1 30 6.66669)" stroke="#000000" stroke-opacity="0" stroke-width="1.000000"/>
	</g>
	<g opacity="0.600000">
		<circle r="0.430108" transform="matrix(-1 0 0 1 26.9355 2.15057)" fill="#FFFFFF" fill-opacity="1.000000"/>
		<circle r="0.430108" transform="matrix(-1 0 0 1 26.9355 2.15057)" stroke="#000000" stroke-opacity="0" stroke-width="1.000000"/>
	</g>
	<g opacity="0.200000">
		<path d="M22.95 12.63C20.73 12.63 18.93 10.82 18.93 8.59C18.93 6.36 20.73 4.56 22.95 4.56C25.17 4.56 27.03 6.36 27.03 8.59C27.03 10.82 25.17 12.63 22.95 12.63Z" fill="#A1A4B3" fill-opacity="1.000000" fill-rule="nonzero"/>
		<path d="M18.93 8.59C18.93 6.36 20.73 4.56 22.95 4.56C25.17 4.56 27.03 6.36 27.03 8.59C27.03 10.82 25.17 12.63 22.95 12.63C20.73 12.63 18.93 10.82 18.93 8.59Z" stroke="#000000" stroke-opacity="0" stroke-width="1.000000"/>
	</g>
	<g opacity="0.400000">
		<ellipse rx="1.518392" ry="1.524330" transform="matrix(-1 0 0 1 22.2825 9.43436)" fill="#505259" fill-opacity="1.000000"/>
		<ellipse rx="1.518392" ry="1.524330" transform="matrix(-1 0 0 1 22.2825 9.43436)" stroke="#000000" stroke-opacity="0" stroke-width="1.000000"/>
	</g>
	<mask id="mask79_103" mask-type="alpha" maskUnits="userSpaceOnUse" x="20.763916" y="7.910034" width="3.036865" height="3.048676">
		<ellipse rx="1.518392" ry="1.524330" transform="matrix(-1 0 0 1 22.2825 9.43436)" fill="#FFFFFF" fill-opacity="1.000000"/>
	</mask>
	<g mask="url(#mask79_103)">
		<g opacity="0.600000">
			<ellipse rx="1.104285" ry="1.108603" transform="matrix(-1 0 0 1 22.7029 9.08795)" fill="#000000" fill-opacity="1.000000"/>
			<ellipse rx="1.104285" ry="1.108603" transform="matrix(-1 0 0 1 22.7029 9.08795)" stroke="#000000" stroke-opacity="0" stroke-width="1.000000"/>
		</g>
	</g>
</svg>
