<?xml version="1.0" standalone="no"?>
<svg xmlns="http://www.w3.org/2000/svg" width="24" height="24"><rect width="24" height="24" opacity="0"></rect><g><path d="M12 1.08Q9.14 1.08 6.71 2.5Q4.27 3.91 2.86 6.34Q1.44 8.76 1.44 11.62L1.44 19.42Q1.44 20.38 1.92 21.18Q2.4 21.98 3.2 22.45Q4.01 22.92 4.97 22.92Q5.93 22.92 6.73 22.45Q7.54 21.98 8.02 21.18Q8.5 20.38 8.5 19.42L8.5 16.44Q8.5 15.48 8.02 14.68Q7.54 13.87 6.73 13.39Q5.93 12.91 4.97 12.91Q3.86 12.91 2.95 13.56L2.95 11.62Q2.95 9.17 4.18 7.09Q5.4 5.02 7.48 3.79Q9.55 2.57 12 2.57Q14.45 2.57 16.52 3.79Q18.6 5.02 19.82 7.09Q21.05 9.17 21.05 11.62L21.05 13.56Q20.14 12.91 19.03 12.91Q18.07 12.91 17.27 13.39Q16.46 13.87 15.98 14.68Q15.5 15.48 15.5 16.44L15.5 19.42Q15.5 20.38 15.98 21.18Q16.46 21.98 17.27 22.45Q18.07 22.92 19.03 22.92Q19.99 22.92 20.8 22.45Q21.6 21.98 22.08 21.18Q22.56 20.38 22.56 19.42L22.56 11.62Q22.56 8.76 21.13 6.34Q19.7 3.91 17.28 2.5Q14.86 1.08 12 1.08Z" fill="rgba(0,0,0,0.9019607843137255)"></path></g></svg>