<svg width="48.333313" height="30.500000" viewBox="0 0 48.3333 30.5" fill="none" xmlns="http://www.w3.org/2000/svg" xmlns:xlink="http://www.w3.org/1999/xlink">
	<desc>
			Created with Pixso.
	</desc>
	<defs>
		<filter id="filter_49_196_dd" x="0.000000" y="7.500000" width="48.333313" height="23.000000" filterUnits="userSpaceOnUse" color-interpolation-filters="sRGB">
			<feFlood flood-opacity="0" result="BackgroundImageFix"/>
			<feColorMatrix in="SourceAlpha" type="matrix" values="0 0 0 0 0 0 0 0 0 0 0 0 0 0 0 0 0 0 127 0" result="hardAlpha"/>
			<feOffset dx="0" dy="4"/>
			<feGaussianBlur stdDeviation="1.33333"/>
			<feComposite in2="hardAlpha" operator="out" k2="-1" k3="1"/>
			<feColorMatrix type="matrix" values="0 0 0 0 0 0 0 0 0 0 0 0 0 0 0 0 0 0 0.25 0"/>
			<feBlend mode="normal" in2="BackgroundImageFix" result="effect_dropShadow_1"/>
			<feBlend mode="normal" in="SourceGraphic" in2="effect_dropShadow_1" result="shape"/>
		</filter>
		<linearGradient x1="24.166672" y1="21.249996" x2="24.166672" y2="23.750000" id="paint_linear_49_195_0" gradientUnits="userSpaceOnUse">
			<stop stop-color="#505259"/>
			<stop offset="1.000000" stop-color="#505259" stop-opacity="0.000000"/>
		</linearGradient>
	</defs>
	<ellipse cx="24.166687" cy="17.500000" rx="17.722221" ry="7.500000" fill="url(#paint_linear_49_195_0)" fill-opacity="1.000000"/>
	<g filter="url(#filter_49_196_dd)">
		<path d="M4.14 13.54C4.29 10.19 13.23 7.5 24.24 7.5C35.22 7.5 44.15 10.19 44.33 13.53L44.19 14.38C44.18 14.45 44.16 14.53 44.14 14.6C44.17 14.76 44.19 14.91 44.19 15.07C44.19 17.53 41.14 20.14 35.93 21.76L35.77 21.8C35.22 22.07 34.56 21.92 34.17 21.44L34.1 21.34C31.24 22.06 27.86 22.5 24.09 22.5C20.32 22.5 16.94 22.06 14.08 21.34C13.66 21.82 13 22.02 12.39 21.83L11.48 21.55L11.24 21.47L11.21 21.46C6.65 19.79 4 17.37 4 15.07C4 14.91 4.01 14.76 4.04 14.6C4.02 14.53 4.02 14.45 4.01 14.38L4.14 13.54Z" fill="#D9DBE1" fill-opacity="1.000000" fill-rule="evenodd"/>
		<path d="M24.24 7.5C35.22 7.5 44.15 10.19 44.33 13.53L44.19 14.38C44.18 14.45 44.16 14.53 44.14 14.6C44.17 14.76 44.19 14.91 44.19 15.07C44.19 17.53 41.14 20.14 35.93 21.76L35.77 21.8C35.22 22.07 34.56 21.92 34.17 21.44L34.1 21.34C31.24 22.06 27.86 22.5 24.09 22.5C20.32 22.5 16.94 22.06 14.08 21.34C13.66 21.82 13 22.02 12.39 21.83L11.48 21.55L11.24 21.47L11.21 21.46C6.65 19.79 4 17.37 4 15.07C4 14.91 4.01 14.76 4.04 14.6C4.02 14.53 4.02 14.45 4.01 14.38L4.14 13.54C4.29 10.19 13.23 7.5 24.24 7.5Z" stroke="#000000" stroke-opacity="0" stroke-width="1.000000"/>
	</g>
	<path d="M4 8.75C4 8.75 14.08 13.12 24.16 13.12C34.25 13.12 44.33 8.75 44.33 8.75L44.33 16.25C44.33 16.25 34.25 20.62 24.16 20.62C14.08 20.62 4 16.25 4 16.25L4 8.75Z" fill="#C4C4C4" fill-opacity="1.000000" fill-rule="evenodd"/>
	<path d="M4 8.75C4 6.67 13.02 3.75 24.16 3.75C35.3 3.75 44.33 6.67 44.33 8.75C44.33 10.82 35.3 13.12 24.16 13.12C13.02 13.12 4 10.82 4 8.75Z" fill="#D9DBE1" fill-opacity="1.000000" fill-rule="evenodd"/>
	<path d="M8.88 8.33C8.88 6.95 15.72 5 24.16 5C32.6 5 39.44 6.95 39.44 8.33C39.44 9.71 32.6 11.25 24.16 11.25C15.72 11.25 8.88 9.71 8.88 8.33Z" fill="#FFFFFF" fill-opacity="1.000000" fill-rule="evenodd"/>
</svg>
