<svg width="24.000000" height="24.000000" viewBox="0 0 24 24" fill="none" xmlns="http://www.w3.org/2000/svg" xmlns:xlink="http://www.w3.org/1999/xlink">
	<desc>
			Created with Pixso.
	</desc>
	<defs>
		<clipPath id="clip134_7992">
			<rect width="24.000000" height="24.000000" fill="white" fill-opacity="0"/>
		</clipPath>
	</defs>
	<g clip-path="url(#clip134_7992)">
		<g opacity="0.000000">
			<rect width="24.000000" height="24.000000" fill="#D8D8D8" fill-opacity="1.000000"/>
			<rect width="24.000000" height="24.000000" stroke="#000000" stroke-opacity="0" stroke-width="1.000000"/>
		</g>
		<path d="M14 20.08C14.55 20.08 15 20.53 15 21.08C15 21.64 14.55 22.08 14 22.08L10 22.08C9.44 22.08 9 21.64 9 21.08C9 20.53 9.44 20.08 10 20.08L14 20.08ZM12 6.38C14.85 6.38 17.16 8.69 17.16 11.54C17.16 13.27 16.31 14.81 15 15.74L15 17.52C15 18.35 14.32 19.02 13.5 19.02L10.5 19.02C9.67 19.02 9 18.35 9 17.52L8.99 15.74C7.69 14.81 6.83 13.27 6.83 11.54C6.83 8.69 9.14 6.38 12 6.38ZM5.03 11.29C5.58 11.29 6.03 11.74 6.03 12.29C6.03 12.8 5.64 13.22 5.15 13.28L5.03 13.29L3.25 13.29C2.69 13.29 2.25 12.84 2.25 12.29C2.25 11.78 2.63 11.35 3.13 11.3L3.25 11.29L5.03 11.29ZM20.75 11.29C21.3 11.29 21.75 11.74 21.75 12.29C21.75 12.8 21.36 13.22 20.87 13.28L20.75 13.29L18.96 13.29C18.41 13.29 17.96 12.84 17.96 12.29C17.96 11.78 18.35 11.35 18.85 11.3L18.96 11.29L20.75 11.29ZM6.01 5.14L7.36 6.48C7.75 6.87 7.75 7.5 7.36 7.9C7 8.26 6.44 8.28 6.04 7.98L4.69 6.63C4.3 6.24 4.3 5.61 4.69 5.22C5.05 4.86 5.62 4.83 6.01 5.14ZM19.3 5.22C19.66 5.58 19.69 6.15 19.39 6.54L18.04 7.9C17.65 8.29 17.02 8.29 16.63 7.9C16.27 7.53 16.24 6.97 16.54 6.58L17.89 5.22C18.28 4.83 18.91 4.83 19.3 5.22ZM12 1.89C12.51 1.89 12.93 2.28 12.99 2.77L13 2.89L13 4.67C13 5.23 12.55 5.67 12 5.67C11.48 5.67 11.06 5.29 11 4.79L11 4.67L11 2.89C11 2.34 11.44 1.89 12 1.89Z" fill="#191919" fill-opacity="1.000000" fill-rule="evenodd"/>
		<path d="M15 21.08C15 21.64 14.55 22.08 14 22.08L10 22.08C9.44 22.08 9 21.64 9 21.08C9 20.53 9.44 20.08 10 20.08L14 20.08C14.55 20.08 15 20.53 15 21.08ZM17.16 11.54C17.16 13.27 16.31 14.81 15 15.74L15 17.52C15 18.35 14.32 19.02 13.5 19.02L10.5 19.02C9.67 19.02 9 18.35 9 17.52L8.99 15.74C7.69 14.81 6.83 13.27 6.83 11.54C6.83 8.69 9.14 6.38 12 6.38C14.85 6.38 17.16 8.69 17.16 11.54ZM6.03 12.29C6.03 12.8 5.64 13.22 5.15 13.28L5.03 13.29L3.25 13.29C2.69 13.29 2.25 12.84 2.25 12.29C2.25 11.78 2.63 11.35 3.13 11.3L3.25 11.29L5.03 11.29C5.58 11.29 6.03 11.74 6.03 12.29ZM21.75 12.29C21.75 12.8 21.36 13.22 20.87 13.28L20.75 13.29L18.96 13.29C18.41 13.29 17.96 12.84 17.96 12.29C17.96 11.78 18.35 11.35 18.85 11.3L18.96 11.29L20.75 11.29C21.3 11.29 21.75 11.74 21.75 12.29ZM7.36 6.48C7.75 6.87 7.75 7.5 7.36 7.9C7 8.26 6.44 8.28 6.04 7.98L4.69 6.63C4.3 6.24 4.3 5.61 4.69 5.22C5.05 4.86 5.62 4.83 6.01 5.14L7.36 6.48ZM19.39 6.54L18.04 7.9C17.65 8.29 17.02 8.29 16.63 7.9C16.27 7.53 16.24 6.97 16.54 6.58L17.89 5.22C18.28 4.83 18.91 4.83 19.3 5.22C19.66 5.58 19.69 6.15 19.39 6.54ZM12.99 2.77L13 2.89L13 4.67C13 5.23 12.55 5.67 12 5.67C11.48 5.67 11.06 5.29 11 4.79L11 4.67L11 2.89C11 2.34 11.44 1.89 12 1.89C12.51 1.89 12.93 2.28 12.99 2.77Z" stroke="#000000" stroke-opacity="0" stroke-width="1.000000"/>
	</g>
</svg>
