<svg width="60.101334" height="34.249512" viewBox="0 0 60.1013 34.2495" fill="none" xmlns="http://www.w3.org/2000/svg" xmlns:xlink="http://www.w3.org/1999/xlink">
	<desc>
			Created with Pixso.
	</desc>
	<defs>
		<filter id="filter_80_188_dd" x="3.701866" y="20.523926" width="8.725777" height="8.890869" filterUnits="userSpaceOnUse" color-interpolation-filters="sRGB">
			<feFlood flood-opacity="0" result="BackgroundImageFix"/>
			<feColorMatrix in="SourceAlpha" type="matrix" values="0 0 0 0 0 0 0 0 0 0 0 0 0 0 0 0 0 0 127 0" result="hardAlpha"/>
			<feOffset dx="0" dy="4"/>
			<feGaussianBlur stdDeviation="1.27861"/>
			<feComposite in2="hardAlpha" operator="out" k2="-1" k3="1"/>
			<feColorMatrix type="matrix" values="0 0 0 0 0 0 0 0 0 0 0 0 0 0 0 0 0 0 0.25 0"/>
			<feBlend mode="normal" in2="BackgroundImageFix" result="effect_dropShadow_1"/>
			<feBlend mode="normal" in="SourceGraphic" in2="effect_dropShadow_1" result="shape"/>
		</filter>
		<filter id="filter_80_189_dd" x="6.761879" y="20.787598" width="2.605743" height="5.566650" filterUnits="userSpaceOnUse" color-interpolation-filters="sRGB">
			<feFlood flood-opacity="0" result="BackgroundImageFix"/>
			<feColorMatrix in="SourceAlpha" type="matrix" values="0 0 0 0 0 0 0 0 0 0 0 0 0 0 0 0 0 0 127 0" result="hardAlpha"/>
			<feOffset dx="0" dy="4"/>
			<feGaussianBlur stdDeviation="0.346448"/>
			<feComposite in2="hardAlpha" operator="out" k2="-1" k3="1"/>
			<feColorMatrix type="matrix" values="0 0 0 0 0 0 0 0 0 0 0 0 0 0 0 0 0 0 0.25 0"/>
			<feBlend mode="normal" in2="BackgroundImageFix" result="effect_dropShadow_1"/>
			<feBlend mode="normal" in="SourceGraphic" in2="effect_dropShadow_1" result="shape"/>
		</filter>
		<filter id="filter_80_191_dd" x="6.979019" y="20.804688" width="4.828255" height="6.623047" filterUnits="userSpaceOnUse" color-interpolation-filters="sRGB">
			<feFlood flood-opacity="0" result="BackgroundImageFix"/>
			<feColorMatrix in="SourceAlpha" type="matrix" values="0 0 0 0 0 0 0 0 0 0 0 0 0 0 0 0 0 0 127 0" result="hardAlpha"/>
			<feOffset dx="0" dy="4"/>
			<feGaussianBlur stdDeviation="0.73512"/>
			<feComposite in2="hardAlpha" operator="out" k2="-1" k3="1"/>
			<feColorMatrix type="matrix" values="0 0 0 0 0 0 0 0 0 0 0 0 0 0 0 0 0 0 0.25 0"/>
			<feBlend mode="normal" in2="BackgroundImageFix" result="effect_dropShadow_1"/>
			<feBlend mode="normal" in="SourceGraphic" in2="effect_dropShadow_1" result="shape"/>
		</filter>
		<filter id="filter_80_192_dd" x="8.351959" y="20.888428" width="2.082367" height="5.166748" filterUnits="userSpaceOnUse" color-interpolation-filters="sRGB">
			<feFlood flood-opacity="0" result="BackgroundImageFix"/>
			<feColorMatrix in="SourceAlpha" type="matrix" values="0 0 0 0 0 0 0 0 0 0 0 0 0 0 0 0 0 0 127 0" result="hardAlpha"/>
			<feOffset dx="0" dy="4"/>
			<feGaussianBlur stdDeviation="0.305307"/>
			<feComposite in2="hardAlpha" operator="out" k2="-1" k3="1"/>
			<feColorMatrix type="matrix" values="0 0 0 0 0 0 0 0 0 0 0 0 0 0 0 0 0 0 0.25 0"/>
			<feBlend mode="normal" in2="BackgroundImageFix" result="effect_dropShadow_1"/>
			<feBlend mode="normal" in="SourceGraphic" in2="effect_dropShadow_1" result="shape"/>
		</filter>
	</defs>
	<g opacity="0.600000">
		<path d="M13.88 23L13.31 29.21L13.28 29.21C13.2 30.37 13.11 31.02 13.01 31.14L12.96 31.14C12.85 29.68 12.74 24.37 13.05 23.68C13.08 23.63 13.03 23.02 13.87 23L13.88 23ZM45.12 23.09L45.17 23.09C45.33 23.1 45.46 23.11 45.56 23.11C45.76 23.12 46.1 23.23 46.13 23.6C46.2 23.82 46.35 28.55 46.12 31.02L45.74 29.15L45.72 29.15C45.68 28.7 45.49 26.72 45.13 23.21L45.12 23.09ZM44.02 25.74C44.13 26.18 44.21 26.68 44.26 27.26C44.15 27.01 44.04 26.76 43.93 26.52L15.3 26.52C15.14 26.95 14.99 27.35 14.85 27.74C14.85 27.7 14.86 27.66 14.86 27.62L14.87 27.54L14.87 27.51L14.88 27.36C14.94 26.65 15.01 25.96 15.06 25.74C20.51 25.42 37.22 25.46 44.02 25.74Z" fill="#505259" fill-opacity="1.000000" fill-rule="evenodd"/>
		<path d="M13.31 29.21L13.28 29.21C13.2 30.37 13.11 31.02 13.01 31.14L12.96 31.14C12.85 29.68 12.74 24.37 13.05 23.68C13.08 23.63 13.03 23.02 13.87 23L13.88 23L13.31 29.21ZM45.17 23.09C45.33 23.1 45.46 23.11 45.56 23.11C45.76 23.12 46.1 23.23 46.13 23.6C46.2 23.82 46.35 28.55 46.12 31.02L45.74 29.15L45.72 29.15C45.68 28.7 45.49 26.72 45.13 23.21L45.12 23.09L45.17 23.09ZM44.26 27.26C44.15 27.01 44.04 26.76 43.93 26.52L15.3 26.52C15.14 26.95 14.99 27.35 14.85 27.74C14.85 27.7 14.86 27.66 14.86 27.62L14.87 27.54L14.87 27.51L14.88 27.36C14.94 26.65 15.01 25.96 15.06 25.74C20.51 25.42 37.22 25.46 44.02 25.74C44.13 26.18 44.21 26.68 44.26 27.26Z" stroke="#000000" stroke-opacity="0" stroke-width="1.000000"/>
	</g>
	<g opacity="0.400000">
		<path d="M13.88 23C16.05 22.87 40.79 22.92 45.12 23.09C45.53 27.12 45.73 29.17 45.73 29.25C45.71 29.33 45.24 29.33 44.3 29.26C44.34 27.81 44.25 26.63 44.02 25.74C37.22 25.46 20.51 25.42 15.06 25.74C15.01 25.96 14.94 26.65 14.88 27.36L14.87 27.51C14.79 28.37 14.73 29.21 14.7 29.26C14.67 29.33 14.21 29.33 13.31 29.25L13.88 23Z" fill="#A1A4B3" fill-opacity="1.000000" fill-rule="evenodd"/>
		<path d="M45.12 23.09C45.53 27.12 45.73 29.17 45.73 29.25C45.71 29.33 45.24 29.33 44.3 29.26C44.34 27.81 44.25 26.63 44.02 25.74C37.22 25.46 20.51 25.42 15.06 25.74C15.01 25.96 14.94 26.65 14.88 27.36L14.87 27.51C14.79 28.37 14.73 29.21 14.7 29.26C14.67 29.33 14.21 29.33 13.31 29.25L13.88 23C16.05 22.87 40.79 22.92 45.12 23.09Z" stroke="#000000" stroke-opacity="0" stroke-width="1.000000"/>
	</g>
	<g opacity="0.400000">
		<path d="M60.1 13.14C60 18.17 59.83 21.16 59.58 22.12C59.34 23.08 58.68 26.29 57.6 31.73C52.32 31.41 48.48 31.24 46.1 31.22C46.36 28.83 46.2 23.82 46.13 23.6C46.1 23.23 45.76 23.12 45.56 23.11C42.89 22.93 16.07 22.86 13.87 23C13.03 23.02 13.08 23.63 13.05 23.68C12.72 24.42 12.87 30.49 12.98 31.4C8.88 31.34 6.37 31.28 5.48 31.22C2.8 31.05 1.23 28.07 0.78 22.3L0.77 22.12L0.1 17.79C0.14 17.68 0.19 17.58 0.23 17.48L0.77 20.97C0.69 22 1.91 22.51 4.42 22.51C6.93 22.51 24.15 22.54 56.07 22.6C58.17 22.47 59.34 21.93 59.58 20.97C59.81 20.08 59.97 17.47 60.07 13.13C60.08 13.13 60.09 13.13 60.1 13.14Z" fill="#A1A4B3" fill-opacity="1.000000" fill-rule="evenodd"/>
		<path d="M59.58 22.12C59.34 23.08 58.68 26.29 57.6 31.73C52.32 31.41 48.48 31.24 46.1 31.22C46.36 28.83 46.2 23.82 46.13 23.6C46.1 23.23 45.76 23.12 45.56 23.11C42.89 22.93 16.07 22.86 13.87 23C13.03 23.02 13.08 23.63 13.05 23.68C12.72 24.42 12.87 30.49 12.98 31.4C8.88 31.34 6.37 31.28 5.48 31.22C2.8 31.05 1.23 28.07 0.78 22.3L0.77 22.12L0.1 17.79C0.14 17.68 0.19 17.58 0.23 17.48L0.77 20.97C0.69 22 1.91 22.51 4.42 22.51C6.93 22.51 24.15 22.54 56.07 22.6C58.17 22.47 59.34 21.93 59.58 20.97C59.81 20.08 59.97 17.47 60.07 13.13C60.08 13.13 60.09 13.13 60.1 13.14C60 18.17 59.83 21.16 59.58 22.12Z" stroke="#000000" stroke-opacity="0" stroke-width="1.000000"/>
	</g>
	<path d="M3.16 0.1C3.16 0.1 2.14 5.99 0.1 17.79L0.77 22.12C1.2 28.01 2.77 31.05 5.48 31.22C8.18 31.4 25.56 31.57 57.6 31.73C58.68 26.29 59.34 23.09 59.58 22.12C59.83 21.16 59.76 14.02 59.38 0.71C21.9 0.3 3.16 0.1 3.16 0.1Z" fill="#000000" fill-opacity="0" fill-rule="evenodd"/>
	<path d="M0.1 17.79L0.77 22.12C1.2 28.01 2.77 31.05 5.48 31.22C8.18 31.4 25.56 31.57 57.6 31.73C58.68 26.29 59.34 23.09 59.58 22.12C59.83 21.16 59.76 14.02 59.38 0.71C21.9 0.3 3.16 0.1 3.16 0.1C3.16 0.1 2.14 5.99 0.1 17.79Z" stroke="#979797" stroke-opacity="1.000000" stroke-width="0.200000"/>
	<g opacity="0.600000">
		<path d="M4.96 5.62C4.96 5.62 6.57 5.81 9.8 6.18L9.67 6.64C9.5 6.58 9.4 6.44 9.36 6.2C6.29 6.2 4.54 6.85 4.1 8.15C2.15 13.06 1.07 15.81 0.84 16.38C0.75 16.55 0.67 16.71 0.61 16.88C0.21 18.34 1.19 19.08 3.54 19.08L56.42 19.08L56.48 19.08C58.51 19.08 59.61 18.53 59.78 17.43C59.78 17.23 59.78 17.09 59.77 17.02C59.63 16.17 59.53 16.34 57.61 11.69C58.43 11.79 59.26 11.88 60.1 11.98C60 17.01 59.83 20.01 59.58 20.97C59.34 21.93 58.17 22.47 56.07 22.6C24.79 22.54 7.63 22.52 4.59 22.51L4.42 22.51C1.91 22.51 0.69 22 0.77 20.97L0.1 16.63C3.34 9.29 4.96 5.62 4.96 5.62Z" fill="#505259" fill-opacity="1.000000" fill-rule="evenodd"/>
		<path d="M9.8 6.18L9.67 6.64C9.5 6.58 9.4 6.44 9.36 6.2C6.29 6.2 4.54 6.85 4.1 8.15C2.15 13.06 1.07 15.81 0.84 16.38C0.75 16.55 0.67 16.71 0.61 16.88C0.21 18.34 1.19 19.08 3.54 19.08L56.42 19.08L56.48 19.08C58.51 19.08 59.61 18.53 59.78 17.43C59.78 17.23 59.78 17.09 59.77 17.02C59.63 16.17 59.53 16.34 57.61 11.69C58.43 11.79 59.26 11.88 60.1 11.98C60 17.01 59.83 20.01 59.58 20.97C59.34 21.93 58.17 22.47 56.07 22.6C24.79 22.54 7.63 22.52 4.59 22.51L4.42 22.51C1.91 22.51 0.69 22 0.77 20.97L0.1 16.63C3.34 9.29 4.96 5.62 4.96 5.62C4.96 5.62 6.57 5.81 9.8 6.18Z" stroke="#000000" stroke-opacity="0" stroke-width="1.000000"/>
	</g>
	<g opacity="0.400000">
		<path d="M50.79 6.2C53.96 6.2 55.79 6.96 56.31 8.47C59.49 16.44 59.6 16.01 59.77 17.02C59.78 17.09 59.78 17.23 59.78 17.43C59.61 18.53 58.51 19.08 56.48 19.08L56.42 19.08L3.54 19.08C1.19 19.08 0.21 18.34 0.61 16.88C0.67 16.71 0.75 16.55 0.84 16.38C1.07 15.81 2.15 13.06 4.1 8.16C4.54 6.85 6.29 6.2 9.36 6.2C9.37 6.28 9.39 6.35 9.42 6.41L9.38 6.67L6.21 16.64L6.2 16.66C5.96 17.51 6.74 17.94 8.53 17.95L8.59 17.95L8.73 17.95C10.03 17.95 14.99 17.94 23.59 17.92C23.73 17.92 23.88 18.07 24.03 18.24L24.06 18.27L24.1 18.31C24.25 18.48 24.41 18.63 24.55 18.63C24.69 18.63 24.84 18.63 25 18.63L25.11 18.63L25.16 18.63L25.37 18.63C25.38 18.63 25.39 18.63 25.41 18.63L25.53 18.63C25.55 18.63 25.56 18.63 25.58 18.63L25.66 18.63C26.89 18.63 28.58 18.63 30.68 18.63L30.83 18.63L30.86 18.63L31.05 18.63L31.13 18.63L31.8 18.63C33 18.63 34.3 18.63 35.7 18.63C35.91 18.63 36.03 18.45 36.16 18.28L36.19 18.24L36.21 18.21C36.34 18.04 36.49 17.89 36.73 17.89C38.86 17.88 44.02 17.87 52.22 17.85C53.7 17.78 54.27 17.24 53.92 16.22C53.58 15.21 52.56 11.99 50.86 6.55L50.81 6.38L50.78 6.25L50.79 6.2ZM46.15 4.68C46.15 4.68 46.27 5.06 46.53 5.83L50.42 5.83L50.63 6.64L50.65 6.59C52.21 11.56 53.19 14.63 53.58 15.8L53.59 15.84L53.61 15.91C53.63 15.94 53.64 15.97 53.65 16C53.99 17 53.43 17.53 51.97 17.6C25.06 17.66 10.69 17.69 8.86 17.69C7.05 17.69 6.26 17.28 6.5 16.44L6.51 16.41L9.64 6.63C9.65 6.63 9.66 6.64 9.67 6.64L9.87 5.96L11.12 5.96L13.54 6.11L14.15 4.68L46.15 4.68ZM12.7 9.01C12.65 9.51 12.65 9.87 12.7 10.09C12.83 10.52 13.54 10.69 14.22 10.75L14.27 10.76C14.42 10.77 14.57 10.78 14.71 10.78C15.69 10.77 41.4 10.88 46.18 10.78C46.79 10.76 47.29 10.65 47.37 10.12C47.37 9.98 47.37 9.86 47.37 9.75L47.37 9.69C47.37 9.46 47.36 9.31 47.35 9.25C47.34 9.64 46.96 9.88 46.21 9.97L46.18 9.97L14.9 9.97L14.86 9.97C13.46 9.96 12.74 9.64 12.7 9.01Z" fill="#A1A4B3" fill-opacity="1.000000" fill-rule="evenodd"/>
		<path d="M56.31 8.47C59.49 16.44 59.6 16.01 59.77 17.02C59.78 17.09 59.78 17.23 59.78 17.43C59.61 18.53 58.51 19.08 56.48 19.08L56.42 19.08L3.54 19.08C1.19 19.08 0.21 18.34 0.61 16.88C0.67 16.71 0.75 16.55 0.84 16.38C1.07 15.81 2.15 13.06 4.1 8.16C4.54 6.85 6.29 6.2 9.36 6.2C9.37 6.28 9.39 6.35 9.42 6.41L9.38 6.67L6.21 16.64L6.2 16.66C5.96 17.51 6.74 17.94 8.53 17.95L8.59 17.95L8.73 17.95C10.03 17.95 14.99 17.94 23.59 17.92C23.73 17.92 23.88 18.07 24.03 18.24L24.06 18.27L24.1 18.31C24.25 18.48 24.41 18.63 24.55 18.63C24.69 18.63 24.84 18.63 25 18.63L25.11 18.63L25.16 18.63L25.37 18.63C25.38 18.63 25.39 18.63 25.41 18.63L25.53 18.63C25.55 18.63 25.56 18.63 25.58 18.63L25.66 18.63C26.89 18.63 28.58 18.63 30.68 18.63L30.83 18.63L30.86 18.63L31.05 18.63L31.13 18.63L31.8 18.63C33 18.63 34.3 18.63 35.7 18.63C35.91 18.63 36.03 18.45 36.16 18.28L36.19 18.24L36.21 18.21C36.34 18.04 36.49 17.89 36.73 17.89C38.86 17.88 44.02 17.87 52.22 17.85C53.7 17.78 54.27 17.24 53.92 16.22C53.58 15.21 52.56 11.99 50.86 6.55L50.81 6.38L50.78 6.25L50.79 6.2C53.96 6.2 55.79 6.96 56.31 8.47ZM46.53 5.83L50.42 5.83L50.63 6.64L50.65 6.59C52.21 11.56 53.19 14.63 53.58 15.8L53.59 15.84L53.61 15.91C53.63 15.94 53.64 15.97 53.65 16C53.99 17 53.43 17.53 51.97 17.6C25.06 17.66 10.69 17.69 8.86 17.69C7.05 17.69 6.26 17.28 6.5 16.44L6.51 16.41L9.64 6.63C9.65 6.63 9.66 6.64 9.67 6.64L9.87 5.96L11.12 5.96L13.54 6.11L14.15 4.68L46.15 4.68C46.15 4.68 46.27 5.06 46.53 5.83ZM12.7 10.09C12.83 10.52 13.54 10.69 14.22 10.75L14.27 10.76C14.42 10.77 14.57 10.78 14.71 10.78C15.69 10.77 41.4 10.88 46.18 10.78C46.79 10.76 47.29 10.65 47.37 10.12C47.37 9.98 47.37 9.86 47.37 9.75L47.37 9.69C47.37 9.46 47.36 9.31 47.35 9.25C47.34 9.64 46.96 9.88 46.21 9.97L46.18 9.97L14.9 9.97L14.86 9.97C13.46 9.96 12.74 9.64 12.7 9.01C12.65 9.51 12.65 9.87 12.7 10.09Z" stroke="#000000" stroke-opacity="0" stroke-width="1.000000"/>
	</g>
	<g filter="url(#filter_80_188_dd)">
		<ellipse cx="8.064751" cy="21.051270" rx="0.527056" ry="0.527446" fill="#33BBFF" fill-opacity="1.000000"/>
		<ellipse cx="8.064751" cy="21.051270" rx="0.527056" ry="0.527446" stroke="#000000" stroke-opacity="0" stroke-width="1.000000"/>
	</g>
	<g filter="url(#filter_80_189_dd)">
		<ellipse cx="8.064751" cy="21.051270" rx="0.263528" ry="0.263723" fill="#FFFFFF" fill-opacity="1.000000"/>
		<ellipse cx="8.064751" cy="21.051270" rx="0.263528" ry="0.263723" stroke="#000000" stroke-opacity="0" stroke-width="1.000000"/>
	</g>
	<g filter="url(#filter_80_191_dd)">
		<ellipse cx="9.393143" cy="21.013672" rx="0.208766" ry="0.208921" fill="#FABF5E" fill-opacity="1.000000"/>
		<ellipse cx="9.393143" cy="21.013672" rx="0.208766" ry="0.208921" stroke="#000000" stroke-opacity="0" stroke-width="1.000000"/>
	</g>
	<g filter="url(#filter_80_192_dd)">
		<ellipse cx="9.393143" cy="21.013672" rx="0.125260" ry="0.125352" fill="#FFFFFF" fill-opacity="1.000000"/>
		<ellipse cx="9.393143" cy="21.013672" rx="0.125260" ry="0.125352" stroke="#000000" stroke-opacity="0" stroke-width="1.000000"/>
	</g>
	<g opacity="0.900000">
		<rect x="4.194473" y="19.958496" rx="1.042546" width="2.893823" height="2.085092" fill="#FFFFFF" fill-opacity="1.000000"/>
		<rect x="4.194473" y="19.958496" rx="1.042546" width="2.893823" height="2.085092" stroke="#000000" stroke-opacity="0" stroke-width="1.000000"/>
	</g>
	<path d="" fill="#000000" fill-opacity="0" fill-rule="nonzero"/>
	<path d="M5.34 20.65C5.22 20.75 5.17 20.87 5.17 21.03C5.17 21.16 5.21 21.28 5.31 21.38C5.41 21.48 5.53 21.53 5.67 21.53C5.8 21.53 5.92 21.48 6.02 21.38C6.12 21.28 6.17 21.16 6.17 21.03C6.17 20.88 6.11 20.76 6 20.66L6.07 20.58C6.2 20.7 6.27 20.85 6.27 21.03C6.27 21.19 6.21 21.33 6.09 21.45C5.97 21.57 5.83 21.63 5.67 21.63C5.5 21.63 5.36 21.57 5.24 21.45C5.12 21.33 5.07 21.19 5.07 21.03C5.07 20.94 5.08 20.85 5.12 20.77C5.16 20.7 5.21 20.63 5.27 20.57L5.34 20.65ZM5.27 20.6L5.27 20.57C5.29 20.55 5.32 20.56 5.34 20.58C5.36 20.6 5.36 20.63 5.34 20.65L5.31 20.65L5.27 20.6ZM6.03 20.66L6 20.66C5.98 20.64 5.98 20.61 6 20.59C6.02 20.57 6.05 20.57 6.07 20.58L6.07 20.61L6.03 20.66Z" fill="#3084C8" fill-opacity="1.000000" fill-rule="evenodd"/>
	<path d="" fill="#000000" fill-opacity="0" fill-rule="nonzero"/>
	<path d="M5.7 20.46L5.7 21.23L5.6 21.23L5.6 20.46L5.7 20.46ZM5.62 20.48L5.6 20.46C5.6 20.43 5.62 20.41 5.65 20.41C5.68 20.41 5.7 20.43 5.7 20.46L5.68 20.48L5.62 20.48ZM5.68 21.21L5.7 21.23C5.7 21.26 5.68 21.28 5.65 21.28C5.62 21.28 5.6 21.26 5.6 21.23L5.62 21.21L5.68 21.21Z" fill="#3084C8" fill-opacity="1.000000" fill-rule="evenodd"/>
	<g opacity="0.600000">
		<path d="M9.71 4.63L9.97 4.63L9.64 6.63L6.51 16.41C6.24 17.27 7.03 17.69 8.86 17.69C10.69 17.69 25.06 17.66 51.97 17.6C53.43 17.53 53.99 17 53.65 16C53.64 15.97 53.63 15.94 53.61 15.91L53.59 15.84C53.2 14.68 52.2 11.51 50.57 6.35L50.13 4.73L50.36 4.73L50.81 6.38C52.54 11.92 53.58 15.2 53.92 16.22C54.27 17.24 53.7 17.78 52.22 17.85C44.02 17.87 38.86 17.88 36.73 17.89C36.2 17.89 36.13 18.63 35.7 18.63C34.3 18.63 33 18.63 31.8 18.63L31.13 18.63C28.65 18.63 26.69 18.63 25.37 18.63L25.16 18.63C24.94 18.63 24.73 18.63 24.55 18.63C24.41 18.63 24.25 18.48 24.1 18.31L24.06 18.27C23.9 18.09 23.73 17.92 23.59 17.92C14.99 17.94 10.03 17.95 8.73 17.95L8.59 17.95C6.73 17.95 5.94 17.51 6.21 16.64L9.38 6.67L9.71 4.63Z" fill="#505259" fill-opacity="1.000000" fill-rule="evenodd"/>
		<path d="M9.97 4.63L9.64 6.63L6.51 16.41C6.24 17.27 7.03 17.69 8.86 17.69C10.69 17.69 25.06 17.66 51.97 17.6C53.43 17.53 53.99 17 53.65 16C53.64 15.97 53.63 15.94 53.61 15.91L53.59 15.84C53.2 14.68 52.2 11.51 50.57 6.35L50.13 4.73L50.36 4.73L50.81 6.38C52.54 11.92 53.58 15.2 53.92 16.22C54.27 17.24 53.7 17.78 52.22 17.85C44.02 17.87 38.86 17.88 36.73 17.89C36.2 17.89 36.13 18.63 35.7 18.63C34.3 18.63 33 18.63 31.8 18.63L31.13 18.63C28.65 18.63 26.69 18.63 25.37 18.63L25.16 18.63C24.94 18.63 24.73 18.63 24.55 18.63C24.41 18.63 24.25 18.48 24.1 18.31L24.06 18.27C23.9 18.09 23.73 17.92 23.59 17.92C14.99 17.94 10.03 17.95 8.73 17.95L8.59 17.95C6.73 17.95 5.94 17.51 6.21 16.64L9.38 6.67L9.71 4.63L9.97 4.63Z" stroke="#000000" stroke-opacity="0" stroke-width="1.000000"/>
	</g>
	<g opacity="0.600000">
		<path d="M12.7 9.01C12.74 9.65 13.48 9.97 14.9 9.97L46.18 9.97L46.21 9.97C46.96 9.88 47.34 9.64 47.35 9.25C47.36 9.31 47.37 9.46 47.37 9.69L47.37 9.75C47.37 9.86 47.37 9.98 47.37 10.12C47.29 10.65 46.79 10.76 46.18 10.78C41.4 10.88 15.69 10.77 14.71 10.78C14.57 10.78 14.42 10.77 14.27 10.76L14.22 10.75C13.54 10.69 12.83 10.52 12.7 10.09C12.65 9.87 12.65 9.51 12.7 9.01Z" fill="#505259" fill-opacity="1.000000" fill-rule="evenodd"/>
		<path d="M14.9 9.97L46.18 9.97L46.21 9.97C46.96 9.88 47.34 9.64 47.35 9.25C47.36 9.31 47.37 9.46 47.37 9.69L47.37 9.75C47.37 9.86 47.37 9.98 47.37 10.12C47.29 10.65 46.79 10.76 46.18 10.78C41.4 10.88 15.69 10.77 14.71 10.78C14.57 10.78 14.42 10.77 14.27 10.76L14.22 10.75C13.54 10.69 12.83 10.52 12.7 10.09C12.65 9.87 12.65 9.51 12.7 9.01C12.74 9.65 13.48 9.97 14.9 9.97Z" stroke="#000000" stroke-opacity="0" stroke-width="1.000000"/>
	</g>
	<path d="M15.3 26.52C13.85 30.41 13.08 32.47 13 32.7C12.92 32.93 12.68 33.18 12.29 33.46C12.61 33.92 13.19 34.15 14.05 34.15C24.41 34.27 34.94 34.28 45.62 34.17C46.13 34.16 46.67 34.01 47.24 33.71C47.27 33.7 47.28 33.66 47.26 33.63C47.26 33.62 47.24 33.61 47.23 33.61C46.86 33.48 46.6 33.25 46.47 32.91C45.59 30.5 44.75 28.37 43.93 26.52L15.3 26.52Z" fill="#2E88E6" fill-opacity="0.200000" fill-rule="evenodd"/>
	<path d="M15.3 26.52C13.85 30.41 13.08 32.47 13 32.7C12.92 32.93 12.68 33.18 12.29 33.46C12.61 33.92 13.19 34.15 14.05 34.15C24.41 34.27 34.94 34.28 45.62 34.17C46.13 34.16 46.67 34.01 47.24 33.71C47.27 33.7 47.28 33.66 47.26 33.63C47.26 33.62 47.24 33.61 47.23 33.61C46.86 33.48 46.6 33.25 46.47 32.91C45.59 30.5 44.75 28.37 43.93 26.52" stroke="#000000" stroke-opacity="0" stroke-width="1.000000"/>
</svg>
