<svg width="25.484909" height="44.000000" viewBox="0 0 25.4849 44" fill="none" xmlns="http://www.w3.org/2000/svg" xmlns:xlink="http://www.w3.org/1999/xlink">
	<desc>
			Created with Pixso.
	</desc>
	<defs/>
	<path d="M20.93 36.19L20.93 41.7C20.93 41.86 20.84 42 20.7 42.08L20.7 42.07C20.7 41.12 19.92 40.36 18.96 40.36L6.58 40.36C5.62 40.36 4.85 41.12 4.85 42.07C4.85 42.07 4.85 42.08 4.85 42.08C4.71 42 4.62 41.86 4.62 41.7L4.62 36.34C6.7 38.35 9.55 39.58 12.7 39.58C15.92 39.58 18.83 38.28 20.93 36.19Z" fill="#505259" fill-opacity="1.000000" fill-rule="evenodd"/>
	<path d="M20.93 41.7C20.93 41.86 20.84 42 20.7 42.08L20.7 42.07C20.7 41.12 19.92 40.36 18.96 40.36L6.58 40.36C5.62 40.36 4.85 41.12 4.85 42.07C4.85 42.07 4.85 42.08 4.85 42.08C4.71 42 4.62 41.86 4.62 41.7L4.62 36.34C6.7 38.35 9.55 39.58 12.7 39.58C15.92 39.58 18.83 38.28 20.93 36.19L20.93 41.7Z" stroke="#000000" stroke-opacity="0" stroke-width="1.000000"/>
	<rect x="1.152359" y="0.333984" rx="11.550668" width="23.101336" height="39.251270" fill="#505259" fill-opacity="1.000000"/>
	<rect x="-0.847641" y="-1.666016" rx="13.550668" width="27.101336" height="43.251270" stroke="#000000" stroke-opacity="0" stroke-width="4.000000"/>
	<rect x="0.850388" rx="11.852644" width="23.705288" height="39.993263" fill="#000000" fill-opacity="0"/>
	<rect x="1.350388" y="0.500000" rx="11.352644" width="22.705288" height="38.993263" stroke="#737580" stroke-opacity="1.000000" stroke-width="1.000000"/>
	<path d="M22.67 23.75L24.54 23.72L24.54 24.13L22.67 24.16L22.67 23.75Z" fill="#505259" fill-opacity="1.000000" fill-rule="evenodd"/>
	<path d="M24.54 23.72L24.54 24.13L22.67 24.16L22.67 23.75L24.54 23.72Z" stroke="#000000" stroke-opacity="0" stroke-width="1.000000"/>
	<path d="M23.14 11L24.54 11L24.54 11.43L23.14 11.43L23.14 11Z" fill="#505259" fill-opacity="1.000000" fill-rule="evenodd"/>
	<path d="M24.54 11L24.54 11.43L23.14 11.43L23.14 11L24.54 11Z" stroke="#000000" stroke-opacity="0" stroke-width="1.000000"/>
	<g opacity="0.400000">
		<rect x="12.703018" y="11.907227" rx="0.150989" width="0.301978" height="3.561552" fill="#FFFFFF" fill-opacity="1.000000"/>
		<rect x="12.703018" y="11.907227" rx="0.150989" width="0.301978" height="3.561552" stroke="#000000" stroke-opacity="0" stroke-width="1.000000"/>
	</g>
	<g opacity="0.400000">
		<rect x="10.154785" y="17.807617" rx="0.148398" width="0.296796" height="3.623738" transform="rotate(90 10.154785 17.807617)" fill="#FFFFFF" fill-opacity="1.000000"/>
		<rect x="10.154785" y="17.807617" rx="0.148398" width="0.296796" height="3.623738" transform="rotate(90 10.154785 17.807617)" stroke="#000000" stroke-opacity="0" stroke-width="1.000000"/>
	</g>
	<g opacity="0.400000">
		<rect x="19.026001" y="17.807617" rx="0.148398" width="0.296795" height="3.623738" transform="rotate(90 19.026001 17.807617)" fill="#FFFFFF" fill-opacity="1.000000"/>
		<rect x="19.026001" y="17.807617" rx="0.148398" width="0.296795" height="3.623738" transform="rotate(90 19.026001 17.807617)" stroke="#000000" stroke-opacity="0" stroke-width="1.000000"/>
	</g>
	<g opacity="0.400000">
		<rect x="12.703018" y="20.443604" rx="0.150989" width="0.301978" height="3.561552" fill="#FFFFFF" fill-opacity="1.000000"/>
		<rect x="12.703018" y="20.443604" rx="0.150989" width="0.301978" height="3.561552" stroke="#000000" stroke-opacity="0" stroke-width="1.000000"/>
	</g>
	<rect x="4.549614" y="40.141602" rx="1.929174" width="16.457811" height="3.858348" fill="#737580" fill-opacity="1.000000"/>
	<rect x="4.549614" y="40.141602" rx="1.929174" width="16.457811" height="3.858348" stroke="#000000" stroke-opacity="0" stroke-width="1.000000"/>
	<rect x="4.851593" y="40.364258" rx="1.706578" width="15.853855" height="3.413156" fill="#737580" fill-opacity="1.000000"/>
	<rect x="4.851593" y="40.364258" rx="1.706578" width="15.853855" height="3.413156" stroke="#000000" stroke-opacity="0" stroke-width="1.000000"/>
	<rect x="6.889946" y="41.773926" rx="0.259697" width="11.777148" height="0.519393" fill="#505259" fill-opacity="1.000000"/>
	<rect x="6.889946" y="41.773926" rx="0.259697" width="11.777148" height="0.519393" stroke="#000000" stroke-opacity="0" stroke-width="1.000000"/>
	<rect x="10.664673" y="41.809326" rx="0.222596" width="4.303188" height="0.445193" fill="#737580" fill-opacity="0.498039"/>
	<rect x="10.664673" y="41.809326" rx="0.222596" width="4.303188" height="0.445193" stroke="#000000" stroke-opacity="0" stroke-width="1.000000"/>
	<path d="M24.99 11.85L24.57 11.85C24.53 11.85 24.5 11.88 24.5 11.92L24.5 23.13C24.5 23.17 24.53 23.2 24.57 23.2L24.99 23.2C25.26 23.2 25.48 22.98 25.48 22.72L25.48 12.33C25.48 12.06 25.26 11.85 24.99 11.85Z" fill="#505259" fill-opacity="1.000000" fill-rule="evenodd"/>
	<path d="M24.57 11.85C24.53 11.85 24.5 11.88 24.5 11.92L24.5 23.13C24.5 23.17 24.53 23.2 24.57 23.2L24.99 23.2C25.26 23.2 25.48 22.98 25.48 22.72L25.48 12.33C25.48 12.06 25.26 11.85 24.99 11.85L24.57 11.85Z" stroke="#000000" stroke-opacity="0" stroke-width="1.000000"/>
	<rect width="0.528462" height="11.055652" transform="matrix(-1 0 0 1 24.1709 12)" fill="#505259" fill-opacity="1.000000"/>
	<rect width="0.528462" height="11.055652" transform="matrix(-1 0 0 1 24.1709 12)" stroke="#000000" stroke-opacity="0" stroke-width="1.000000"/>
	<path d="M23.55 12.02L23.07 12.6C22.83 12.9 22.7 13.26 22.69 13.64C22.65 15.28 22.64 16.54 22.64 17.43C22.64 18.33 22.67 19.61 22.71 21.29C22.72 21.61 22.82 21.91 23 22.18L23.55 23.01L23.55 12.02Z" fill="#737580" fill-opacity="1.000000" fill-rule="evenodd"/>
	<path d="M23.07 12.6C22.83 12.9 22.7 13.26 22.69 13.64C22.65 15.28 22.64 16.54 22.64 17.43C22.64 18.33 22.67 19.61 22.71 21.29C22.72 21.61 22.82 21.91 23 22.18L23.55 23.01L23.55 12.02L23.07 12.6Z" stroke="#000000" stroke-opacity="0" stroke-width="1.000000"/>
	<path d="M2.8 11.41L0.94 11.44L0.94 11.03L2.8 11L2.8 11.41Z" fill="#505259" fill-opacity="1.000000" fill-rule="evenodd"/>
	<path d="M0.94 11.44L0.94 11.03L2.8 11L2.8 11.41L0.94 11.44Z" stroke="#000000" stroke-opacity="0" stroke-width="1.000000"/>
	<path d="M2.34 24.16L0.94 24.16L0.94 23.73L2.34 23.73L2.34 24.16Z" fill="#505259" fill-opacity="1.000000" fill-rule="evenodd"/>
	<path d="M0.94 24.16L0.94 23.73L2.34 23.73L2.34 24.16L0.94 24.16Z" stroke="#000000" stroke-opacity="0" stroke-width="1.000000"/>
	<path d="M0.49 23.31L0.9 23.31C0.94 23.31 0.98 23.28 0.98 23.24L0.98 12.03C0.98 11.99 0.94 11.96 0.9 11.96L0.49 11.96C0.21 11.96 0 12.18 0 12.44L0 22.83C0 23.1 0.21 23.31 0.49 23.31Z" fill="#505259" fill-opacity="1.000000" fill-rule="evenodd"/>
	<path d="M0.9 23.31C0.94 23.31 0.98 23.28 0.98 23.24L0.98 12.03C0.98 11.99 0.94 11.96 0.9 11.96L0.49 11.96C0.21 11.96 0 12.18 0 12.44L0 22.83C0 23.1 0.21 23.31 0.49 23.31L0.9 23.31Z" stroke="#000000" stroke-opacity="0" stroke-width="1.000000"/>
	<rect width="0.528462" height="11.055652" transform="matrix(1 0 0 -1 1.314 23.1702)" fill="#505259" fill-opacity="1.000000"/>
	<rect width="0.528462" height="11.055652" transform="matrix(1 0 0 -1 1.314 23.1702)" stroke="#000000" stroke-opacity="0" stroke-width="1.000000"/>
	<path d="M1.92 23.14L2.4 22.56C2.64 22.26 2.78 21.9 2.78 21.52C2.82 19.88 2.84 18.61 2.84 17.73C2.83 16.83 2.81 15.55 2.76 13.87C2.75 13.55 2.65 13.25 2.48 12.98L1.92 12.15L1.92 23.14Z" fill="#737580" fill-opacity="1.000000" fill-rule="evenodd"/>
	<path d="M2.4 22.56C2.64 22.26 2.78 21.9 2.78 21.52C2.82 19.88 2.84 18.61 2.84 17.73C2.83 16.83 2.81 15.55 2.76 13.87C2.75 13.55 2.65 13.25 2.48 12.98L1.92 12.15L1.92 23.14L2.4 22.56Z" stroke="#000000" stroke-opacity="0" stroke-width="1.000000"/>
</svg>
