<svg width="16.000000" height="16.000000" viewBox="0 0 16 16" fill="none" xmlns="http://www.w3.org/2000/svg" xmlns:xlink="http://www.w3.org/1999/xlink">
	<desc>
			Created with Pixso.
	</desc>
	<defs>
		<clipPath id="clip320_3621">
			<rect width="16.000000" height="16.000000" fill="white" fill-opacity="0"/>
		</clipPath>
	</defs>
	<g clip-path="url(#clip320_3621)">
		<rect width="16.000000" height="16.000000" fill="#FFFFFF" fill-opacity="0"/>
		<path d="M0 7.99C0 6.74 -0.01 5.49 0 4.24C-0.01 3.63 0.07 3.03 0.22 2.44C0.54 1.2 1.35 0.47 2.59 0.18C3.21 0.05 3.85 -0.02 4.48 0C6.88 0 9.28 0 11.68 0C12.28 -0.01 12.88 0.06 13.47 0.2C14.75 0.51 15.52 1.32 15.81 2.6C15.94 3.19 16 3.81 15.99 4.42C15.99 6.85 15.99 9.27 15.99 11.69C16 12.29 15.93 12.89 15.79 13.48C15.48 14.75 14.66 15.51 13.39 15.81C12.77 15.94 12.14 16 11.5 15.99C9.11 15.99 6.73 15.99 4.34 15.99C3.73 16 3.12 15.93 2.53 15.79C1.25 15.48 0.48 14.67 0.19 13.39C0.04 12.74 0 12.09 0 11.43C0 10.28 0 9.14 0 7.99Z" fill="#FFFFFF" fill-opacity="0" fill-rule="evenodd"/>
		<circle cx="8.000000" cy="8.000000" r="8.000000" fill="#FFFFFF" fill-opacity="0"/>
		<path d="M14.33 11.6C14.33 12.56 13.55 13.33 12.6 13.33L5.06 13.33C4.1 13.33 3.33 12.56 3.33 11.6L3.33 2.39C3.33 1.44 4.1 0.66 5.06 0.66L10.79 0.66L10.79 3.02C10.79 3.66 11.3 4.17 11.94 4.17L14.33 4.17L14.33 11.6Z" fill="#000000" fill-opacity="0" fill-rule="nonzero"/>
		<path d="M12.6 13.33L5.06 13.33C4.1 13.33 3.33 12.56 3.33 11.6L3.33 2.39C3.33 1.44 4.1 0.66 5.06 0.66L10.79 0.66L10.79 3.02C10.79 3.66 11.3 4.17 11.94 4.17L14.33 4.17L14.33 11.6C14.33 12.56 13.55 13.33 12.6 13.33Z" stroke="#FE4F35" stroke-opacity="1.000000" stroke-width="1.500000" stroke-linejoin="round"/>
		<mask id="mask320_3628" mask-type="alpha" maskUnits="userSpaceOnUse" x="0.000000" y="0.000000" width="16.000000" height="16.000000">
			<path d="M0 0L9.56 0L9.56 3.4C9.56 4.5 10.46 5.4 11.56 5.4L16 5.4L16 16L0 16L0 0Z" fill="#C4C4C4" fill-opacity="1.000000" fill-rule="evenodd"/>
		</mask>
		<g mask="url(#mask320_3628)">
			<path d="M10.79 0.66L10.79 3.02C10.79 3.66 11.31 4.17 11.95 4.17L14.33 4.17L14.33 11.6C14.33 12.55 13.54 13.33 12.58 13.33L5.08 13.33C4.11 13.33 3.33 12.55 3.33 11.6L3.33 2.39C3.33 1.44 4.11 0.66 5.08 0.66L10.79 0.66Z" fill="#FFFFFF" fill-opacity="0" fill-rule="evenodd"/>
			<path d="M14.33 11.6C14.33 12.55 13.54 13.33 12.58 13.33L5.08 13.33C4.11 13.33 3.33 12.55 3.33 11.6L3.33 2.39C3.33 1.44 4.11 0.66 5.08 0.66L10.79 0.66L10.79 3.02C10.79 3.66 11.31 4.17 11.95 4.17L14.33 4.17L14.33 11.6Z" fill="#000000" fill-opacity="0" fill-rule="nonzero"/>
			<path d="M12.58 13.33L5.08 13.33C4.11 13.33 3.33 12.55 3.33 11.6L3.33 2.39C3.33 1.44 4.11 0.66 5.08 0.66L10.79 0.66L10.79 3.02C10.79 3.66 11.31 4.17 11.95 4.17L14.33 4.17L14.33 11.6C14.33 12.55 13.54 13.33 12.58 13.33Z" stroke="#FFFFFF" stroke-opacity="0" stroke-width="1.500000" stroke-linejoin="round"/>
		</g>
		<path d="M10.79 0.66L10.79 3.02C10.79 3.66 11.31 4.17 11.95 4.17L14.33 4.17L14.33 4.12L10.87 0.66L10.79 0.66Z" fill="#FFFFFF" fill-opacity="0" fill-rule="evenodd"/>
		<path d="M10.79 3.02C10.79 3.66 11.31 4.17 11.95 4.17L14.33 4.17L14.33 4.12L10.87 0.66L10.79 0.66L10.79 3.02Z" fill="#000000" fill-opacity="0" fill-rule="nonzero"/>
		<path d="M11.95 4.17L14.33 4.17L14.33 4.12L10.87 0.66L10.79 0.66L10.79 3.02C10.79 3.66 11.31 4.17 11.95 4.17Z" stroke="#FE4F35" stroke-opacity="1.000000" stroke-width="1.500000" stroke-linejoin="round"/>
		<path d="M0.6 4.55L0.58 4.53C0.58 4.11 0.91 3.78 1.33 3.78C1.75 3.78 2.08 4.11 2.08 4.53L2.06 4.55L0.6 4.55ZM10.69 14.6L10.71 14.58C11.13 14.58 11.46 14.91 11.46 15.33C11.46 15.75 11.13 16.08 10.71 16.08L10.69 16.06L10.69 14.6Z" fill="#000000" fill-opacity="0" fill-rule="nonzero"/>
		<path d="M1.33 4.53L1.33 11.8C1.33 13.75 2.9 15.33 4.85 15.33L10.71 15.33" stroke="#FE4F35" stroke-opacity="1.000000" stroke-width="1.500000" stroke-linecap="round"/>
	</g>
</svg>
