<svg width="16.000000" height="16.000000" viewBox="0 0 16 16" fill="none" xmlns="http://www.w3.org/2000/svg" xmlns:xlink="http://www.w3.org/1999/xlink">
	<desc>
			Created with Pixso.
	</desc>
	<defs>
		<clipPath id="clip202_4691">
			<rect width="16.000000" height="16.000000" fill="white" fill-opacity="0"/>
		</clipPath>
	</defs>
	<g clip-path="url(#clip202_4691)">
		<path d="M4.73 7.37L4.62 7.37C4.33 7.37 4.08 7.55 3.98 7.81L2.39 12.22C2.37 12.29 2.35 12.37 2.35 12.45C2.35 12.82 2.65 13.12 3.03 13.12L12.96 13.12C13.04 13.12 13.12 13.11 13.19 13.08C13.54 12.95 13.72 12.57 13.6 12.22L12.01 7.82C11.92 7.55 11.66 7.37 11.38 7.37L11.26 7.37C11.22 7.45 11.17 7.54 11.12 7.62L11.38 7.62C11.56 7.62 11.72 7.73 11.78 7.9L11.96 8.4L8.11 11.74L3.56 9.72L4.22 7.9C4.28 7.73 4.44 7.62 4.62 7.62L4.87 7.62C4.82 7.54 4.77 7.45 4.73 7.37ZM8.36 11.85L12.05 8.65L13.36 12.3C13.44 12.52 13.33 12.77 13.11 12.84C13.06 12.86 13.01 12.87 12.96 12.87L10.66 12.87L8.36 11.85ZM2.63 12.3L3.48 9.96L10.05 12.87L3.03 12.87C2.79 12.87 2.6 12.68 2.6 12.45C2.6 12.4 2.61 12.35 2.63 12.3Z" fill="#62B42E" fill-opacity="1.000000" fill-rule="evenodd"/>
		<path d="M4.62 7.37C4.33 7.37 4.08 7.55 3.98 7.81L2.39 12.22C2.37 12.29 2.35 12.37 2.35 12.45C2.35 12.82 2.65 13.12 3.03 13.12L12.96 13.12C13.04 13.12 13.12 13.11 13.19 13.08C13.54 12.95 13.72 12.57 13.6 12.22L12.01 7.82C11.92 7.55 11.66 7.37 11.38 7.37L11.26 7.37C11.22 7.45 11.17 7.54 11.12 7.62L11.38 7.62C11.56 7.62 11.72 7.73 11.78 7.9L11.96 8.4L8.11 11.74L3.56 9.72L4.22 7.9C4.28 7.73 4.44 7.62 4.62 7.62L4.87 7.62C4.82 7.54 4.77 7.45 4.73 7.37L4.62 7.37ZM12.05 8.65L13.36 12.3C13.44 12.52 13.33 12.77 13.11 12.84C13.06 12.86 13.01 12.87 12.96 12.87L10.66 12.87L8.36 11.85L12.05 8.65ZM3.48 9.96L10.05 12.87L3.03 12.87C2.79 12.87 2.6 12.68 2.6 12.45C2.6 12.4 2.61 12.35 2.63 12.3L3.48 9.96Z" stroke="#62B42E" stroke-opacity="1.000000" stroke-width="0.500000" stroke-linejoin="round"/>
		<path d="M8 10C10 8.32 11 6.82 11 5.5C11 3.84 9.65 2.5 8 2.5C6.34 2.5 5 3.84 5 5.5C5 6.82 6 8.32 8 10Z" fill="#62B42E" fill-opacity="1.000000" fill-rule="evenodd"/>
		<circle cx="8.000000" cy="5.500000" r="1.000000" fill="#FFFFFF" fill-opacity="1.000000"/>
	</g>
</svg>
