<svg width="16.000000" height="16.000000" viewBox="0 0 16 16" fill="none" xmlns="http://www.w3.org/2000/svg" xmlns:xlink="http://www.w3.org/1999/xlink">
	<desc>
			Created with Pixso.
	</desc>
	<defs/>
	<rect width="16.000000" height="16.000000" fill="#FFFFFF" fill-opacity="0"/>
	<g opacity="0.600000">
		<path d="M6.62 1.29C6.51 1.33 6.42 1.38 6.34 1.44C6.26 1.51 6.2 1.59 6.15 1.69C6.1 1.79 6.07 1.89 6.06 1.99C6.05 2.09 6.06 2.2 6.09 2.3C6.13 2.41 6.18 2.5 6.24 2.58C6.31 2.66 6.39 2.72 6.49 2.77C6.59 2.83 6.69 2.86 6.79 2.86C6.89 2.87 7 2.86 7.1 2.83C7.28 2.77 7.46 2.72 7.65 2.69C7.94 2.63 8.25 2.6 8.56 2.6C8.93 2.6 9.28 2.64 9.63 2.72C9.91 2.79 10.17 2.87 10.44 2.98C10.71 3.1 10.96 3.23 11.2 3.39C11.48 3.57 11.73 3.78 11.97 4.02C12.21 4.26 12.42 4.51 12.6 4.79C12.76 5.03 12.89 5.28 13.01 5.55C13.12 5.82 13.2 6.08 13.27 6.36C13.35 6.71 13.39 7.06 13.39 7.43C13.39 7.75 13.36 8.06 13.3 8.36C13.26 8.55 13.21 8.75 13.15 8.93C13.11 9.04 13.1 9.14 13.11 9.25C13.12 9.35 13.14 9.45 13.19 9.55C13.24 9.65 13.31 9.73 13.39 9.8C13.46 9.86 13.56 9.91 13.66 9.95C13.77 9.98 13.87 10 13.97 9.99C14.08 9.98 14.18 9.95 14.28 9.9C14.38 9.85 14.46 9.79 14.53 9.71C14.59 9.63 14.64 9.54 14.68 9.43C14.77 9.16 14.84 8.89 14.89 8.61C14.96 8.23 15 7.83 15 7.43C15 6.95 14.94 6.49 14.84 6.03C14.76 5.65 14.64 5.29 14.49 4.93C14.34 4.56 14.15 4.22 13.94 3.89C13.7 3.53 13.42 3.19 13.11 2.88C12.8 2.57 12.46 2.29 12.1 2.05C11.77 1.84 11.43 1.65 11.06 1.5C10.7 1.35 10.34 1.23 9.96 1.15C9.5 1.05 9.04 1 8.56 1C8.17 1 7.78 1.03 7.4 1.1C7.14 1.15 6.88 1.21 6.62 1.29ZM6.56 4.44C6.58 4.55 6.61 4.65 6.66 4.73C6.72 4.82 6.79 4.9 6.88 4.96C6.97 5.03 7.06 5.08 7.16 5.1C7.26 5.13 7.36 5.13 7.47 5.11C7.91 5.05 8.35 5.09 8.82 5.23C9.24 5.37 9.69 5.64 10 5.9C10.24 6.11 10.43 6.35 10.58 6.61C10.65 6.74 10.72 6.89 10.77 7.03C10.92 7.45 10.97 7.92 10.91 8.42C10.9 8.53 10.9 8.63 10.93 8.73C10.96 8.83 11.01 8.92 11.08 9.01C11.15 9.1 11.23 9.16 11.32 9.21C11.41 9.26 11.51 9.29 11.62 9.31C11.73 9.32 11.83 9.31 11.93 9.28C12.03 9.25 12.12 9.21 12.21 9.14C12.3 9.07 12.36 8.99 12.41 8.9C12.46 8.81 12.5 8.71 12.51 8.6C12.58 7.97 12.54 7.37 12.38 6.81C12.35 6.69 12.31 6.57 12.27 6.45C12.17 6.19 12.06 5.94 11.92 5.71C11.69 5.34 11.42 5 11.08 4.7C10.97 4.6 10.86 4.51 10.74 4.42C10.31 4.11 9.83 3.86 9.29 3.7C8.71 3.52 8.13 3.44 7.56 3.49C7.45 3.49 7.34 3.51 7.24 3.52C7.13 3.54 7.03 3.57 6.94 3.63C6.85 3.68 6.78 3.75 6.71 3.84C6.64 3.93 6.6 4.02 6.57 4.12C6.55 4.22 6.54 4.33 6.56 4.44ZM7.43 6.63C8.5 6.63 9.36 7.49 9.36 8.56C9.36 9.62 8.5 10.49 7.43 10.49C7.13 10.49 6.85 10.42 6.6 10.3L6.19 10.71L8.91 13.43C8.09 14.39 6.86 15 5.5 15C3.01 15 1 12.98 1 10.49C1 9.13 1.6 7.9 2.56 7.08L5.28 9.8L5.69 9.39C5.57 9.14 5.5 8.86 5.5 8.56C5.5 7.49 6.37 6.63 7.43 6.63Z" fill="#62B42E" fill-opacity="1.000000" fill-rule="evenodd"/>
	</g>
</svg>
