<svg width="16.000000" height="16.000000" viewBox="0 0 16 16" fill="none" xmlns="http://www.w3.org/2000/svg" xmlns:xlink="http://www.w3.org/1999/xlink">
	<desc>
			Created with Pixso.
	</desc>
	<defs>
		<clipPath id="clip202_4703">
			<rect width="16.000000" height="16.000000" fill="white" fill-opacity="0"/>
		</clipPath>
	</defs>
	<g clip-path="url(#clip202_4703)">
		<path d="M7.25 2.86C7.25 3.1 7.34 3.3 7.51 3.47C7.68 3.64 7.88 3.72 8.11 3.72C8.36 3.72 8.56 3.63 8.73 3.46C8.89 3.29 8.97 3.09 8.97 2.86C8.97 2.62 8.89 2.42 8.72 2.25C8.55 2.08 8.35 2 8.11 2C7.88 2 7.68 2.08 7.51 2.25C7.34 2.42 7.25 2.62 7.25 2.86ZM5.52 5.76C5.48 5.81 5.43 5.92 5.39 6.09L4.78 8.6C4.78 8.66 4.8 8.72 4.83 8.76C4.87 8.8 4.91 8.83 4.96 8.85C5.02 8.86 5.07 8.86 5.13 8.84C5.18 8.82 5.21 8.79 5.24 8.75L6.4 6.4L6.81 5.94C7 5.76 7.13 5.68 7.18 5.72C7.24 5.75 7.17 5.9 6.97 6.16C6.81 6.37 6.69 6.58 6.62 6.8L6.57 8.21C6.57 8.32 6.59 8.41 6.63 8.5C6.66 8.59 6.72 8.66 6.79 8.72L8.71 10.62C8.73 10.65 8.76 10.7 8.79 10.77C8.82 10.84 8.85 10.91 8.87 10.97L10.04 13.75C10.1 13.88 10.18 13.96 10.29 13.98C10.4 14.01 10.5 13.99 10.59 13.93C10.69 13.86 10.73 13.77 10.72 13.66L10.06 10.39C10.03 10.2 9.94 10 9.8 9.81L8.43 7.86L8.88 5.37C8.94 5.11 8.9 4.85 8.78 4.59C8.7 4.41 8.57 4.27 8.4 4.15C8.23 4.03 8.03 3.96 7.82 3.95C7.63 3.93 7.44 3.96 7.25 4.05C7.07 4.14 6.91 4.27 6.78 4.43L5.52 5.76Z" fill="#62B42E" fill-opacity="1.000000" fill-rule="nonzero"/>
		<path d="M10.13 8.4C10.22 8.45 10.31 8.46 10.39 8.43C10.47 8.4 10.51 8.34 10.52 8.26C10.53 8.18 10.49 8.1 10.42 8.02L9.04 6.76C8.95 7.11 8.9 7.4 8.88 7.62C8.88 7.65 8.88 7.68 8.9 7.71C8.93 7.73 8.95 7.75 8.97 7.77L10.13 8.4ZM7.29 11.39C7.4 11.26 7.46 11.15 7.48 11.05L7.68 10.15L6.92 9.35L6.57 8.98L6.21 10.69L4.11 12.9C4.01 13.01 3.98 13.12 4 13.24C4.04 13.36 4.11 13.44 4.22 13.48C4.33 13.53 4.45 13.52 4.56 13.43L7.29 11.39Z" fill="#62B42E" fill-opacity="0.600000" fill-rule="nonzero"/>
	</g>
</svg>
