<svg width="12.000000" height="12.000000" viewBox="0 0 12 12" fill="none" xmlns="http://www.w3.org/2000/svg" xmlns:xlink="http://www.w3.org/1999/xlink">
	<desc>
			Created with Pixso.
	</desc>
	<defs>
		<clipPath id="clip45_794">
			<rect width="12.000000" height="12.000000" fill="white" fill-opacity="0"/>
		</clipPath>
	</defs>
	<g clip-path="url(#clip45_794)">
		<path d="M8.71 2.41C8.61 2.33 8.5 2.25 8.39 2.18C8.2 2.06 8 1.96 7.79 1.87C7.62 1.79 7.44 1.73 7.26 1.68C7.11 1.63 6.96 1.6 6.8 1.57C6.54 1.52 6.27 1.5 6 1.5C5.65 1.5 5.32 1.53 5 1.61C4.74 1.66 4.49 1.74 4.24 1.85C3.99 1.95 3.76 2.08 3.53 2.23C3.27 2.4 3.03 2.59 2.81 2.81C2.59 3.03 2.4 3.27 2.23 3.53C2.08 3.76 1.95 3.99 1.85 4.24C1.74 4.49 1.66 4.74 1.61 5C1.53 5.32 1.5 5.65 1.5 6C1.5 6.34 1.53 6.67 1.61 6.99C1.66 7.25 1.74 7.5 1.85 7.75C1.95 8 2.08 8.23 2.23 8.46C2.4 8.72 2.59 8.96 2.81 9.18C3.23 9.59 3.71 9.91 4.24 10.14C4.49 10.25 4.74 10.33 5 10.38C5.32 10.46 5.65 10.5 6 10.5C6.61 10.5 7.19 10.38 7.75 10.14C8 10.04 8.23 9.91 8.46 9.76C8.72 9.59 8.96 9.4 9.18 9.18C9.59 8.76 9.91 8.28 10.14 7.75C10.25 7.5 10.33 7.25 10.38 6.99C10.46 6.67 10.5 6.34 10.5 6C10.5 5.7 10.47 5.4 10.41 5.11C10.37 4.92 10.32 4.73 10.25 4.54C10.18 4.33 10.1 4.13 10 3.94C9.88 3.71 9.74 3.49 9.58 3.28C9.41 3.05 9.46 2.75 9.68 2.58C9.9 2.41 10.21 2.45 10.38 2.67C10.74 3.14 11.01 3.66 11.2 4.21C11.28 4.45 11.35 4.7 11.4 4.95C11.46 5.29 11.5 5.64 11.5 6C11.5 6.74 11.35 7.45 11.06 8.14C10.93 8.45 10.77 8.74 10.59 9.02C10.39 9.33 10.15 9.62 9.88 9.88Q9.48 10.29 9.02 10.59Q8.6 10.87 8.14 11.06C7.83 11.19 7.51 11.29 7.19 11.36C6.8 11.45 6.4 11.5 6 11.5C5.25 11.5 4.54 11.35 3.85 11.06C3.54 10.93 3.25 10.77 2.97 10.59C2.66 10.39 2.37 10.15 2.11 9.88C1.84 9.62 1.6 9.33 1.4 9.02C1.22 8.74 1.06 8.45 0.93 8.14Q0.73 7.67 0.63 7.19C0.54 6.8 0.5 6.4 0.5 6C0.5 5.59 0.54 5.19 0.63 4.8Q0.73 4.32 0.93 3.85C1.06 3.54 1.22 3.25 1.4 2.97C1.6 2.66 1.84 2.37 2.11 2.11Q2.51 1.7 2.97 1.4L2.97 1.4L2.97 1.4Q3.39 1.12 3.85 0.93C4.16 0.8 4.48 0.7 4.8 0.63C5.19 0.54 5.59 0.5 6 0.5C6.32 0.5 6.63 0.52 6.95 0.58C7.15 0.61 7.35 0.66 7.54 0.72C7.77 0.78 7.99 0.86 8.2 0.96C8.45 1.06 8.69 1.19 8.92 1.34C9.06 1.42 9.19 1.51 9.32 1.61C9.54 1.78 9.58 2.09 9.41 2.31C9.24 2.54 8.94 2.58 8.71 2.41ZM6 3.5C6.28 3.5 6.5 3.71 6.5 4L6.5 6.12L7.99 7.65C8.18 7.85 8.18 8.16 7.98 8.35C7.78 8.55 7.47 8.54 7.27 8.34L5.64 6.67Q5.57 6.6 5.53 6.51C5.51 6.45 5.5 6.39 5.5 6.32L5.5 4C5.5 3.71 5.72 3.5 6 3.5Z" fill="#000000" fill-opacity="0.600000" fill-rule="evenodd"/>
	</g>
</svg>
