<svg width="24.000000" height="24.000000" viewBox="0 0 24 24" fill="none" xmlns="http://www.w3.org/2000/svg" xmlns:xlink="http://www.w3.org/1999/xlink">
	<desc>
			Created with Pixso.
	</desc>
	<defs/>
	<path d="M5.07 8.42C4.85 7.47 5.14 6.46 5.84 5.77C6.22 5.34 6.59 5.09 6.94 5.02C7.46 4.92 7.99 5.13 8.32 5.54L9.44 6.93C9.5 6.99 9.54 7.05 9.57 7.08C10 7.56 10.01 8.31 9.57 8.78L8.79 9.52C8.48 9.82 8.43 10.29 8.66 10.65C9.09 11.36 9.91 12.3 10.81 13.18C11.69 14.08 12.63 14.9 13.34 15.33C13.7 15.56 14.17 15.51 14.47 15.2L15.18 14.45C15.64 14.02 16.36 13.97 16.84 14.36L16.96 14.46C17.24 14.69 18.1 15.39 18.45 15.67C18.86 16 19.07 16.53 18.97 17.05C18.9 17.4 18.65 17.77 18.22 18.15C17.53 18.85 16.52 19.14 15.57 18.92C13.53 18.45 11.12 16.85 9.12 14.87C7.14 12.87 5.54 10.46 5.07 8.42Z" fill="#FFFFFF" fill-opacity="1.000000" fill-rule="nonzero"/>
	<path d="M5.84 5.77C6.22 5.34 6.59 5.09 6.94 5.02C7.46 4.92 7.99 5.13 8.32 5.54L9.44 6.93C9.5 6.99 9.54 7.05 9.57 7.08C10 7.56 10.01 8.31 9.57 8.78L8.79 9.52C8.48 9.82 8.43 10.29 8.66 10.65C9.09 11.36 9.91 12.3 10.81 13.18C11.69 14.08 12.63 14.9 13.34 15.33C13.7 15.56 14.17 15.51 14.47 15.2L15.18 14.45C15.64 14.02 16.36 13.97 16.84 14.36L16.96 14.46C17.24 14.69 18.1 15.39 18.45 15.67C18.86 16 19.07 16.53 18.97 17.05C18.9 17.4 18.65 17.77 18.22 18.15C17.53 18.85 16.52 19.14 15.57 18.92C13.53 18.45 11.12 16.85 9.12 14.87C7.14 12.87 5.54 10.46 5.07 8.42C4.85 7.47 5.14 6.46 5.84 5.77Z" stroke="#000000" stroke-opacity="0" stroke-width="1.000000"/>
</svg>
