<svg width="32.000000" height="32.000000" viewBox="0 0 32 32" fill="none" xmlns="http://www.w3.org/2000/svg" xmlns:xlink="http://www.w3.org/1999/xlink">
	<desc>
			Created with Pixso.
	</desc>
	<defs>
		<clipPath id="clip46_1060">
			<rect rx="16.000000" width="32.000000" height="32.000000" fill="white" fill-opacity="0"/>
		</clipPath>
		<linearGradient x1="16.000000" y1="24.000000" x2="16.000000" y2="8.000000" id="paint_linear_46_1061_0" gradientUnits="userSpaceOnUse">
			<stop stop-color="#28C1D9"/>
			<stop offset="1.000000" stop-color="#97ECF9"/>
		</linearGradient>
	</defs>
	<rect rx="16.000000" width="32.000000" height="32.000000" fill="#28C1D9" fill-opacity="0.100000"/>
	<g clip-path="url(#clip46_1060)">
		<linearGradient x1="16.000000" y1="24.000000" x2="16.000000" y2="8.000000" id="paint_linear_46_10610_0" gradientUnits="userSpaceOnUse">
			<stop stop-color="#28C1D9"/>
			<stop offset="1.000000" stop-color="#97ECF9"/>
		</linearGradient>
		<path d="M19.52 12.46L19.52 10.24C19.52 9.83 19.42 9.46 19.22 9.12C19.03 8.77 18.76 8.5 18.41 8.29C18.06 8.09 17.69 8 17.28 8L10.23 8C9.83 8 9.46 8.09 9.11 8.29C8.78 8.5 8.5 8.77 8.3 9.12C8.1 9.46 8 9.83 8 10.24L8 21.75C8 22.16 8.1 22.53 8.3 22.87C8.5 23.22 8.78 23.49 9.11 23.7C9.46 23.9 9.83 24 10.23 24L17.28 24L21.18 24C21.7 24 22.17 23.87 22.6 23.62C23.03 23.37 23.37 23.03 23.61 22.6C23.87 22.17 24 21.7 24 21.2L24 15.28C24 14.77 23.87 14.31 23.61 13.87C23.37 13.43 23.03 13.09 22.6 12.84C22.17 12.59 21.7 12.46 21.18 12.46L19.52 12.46ZM9.12 10.24C9.12 9.92 9.23 9.66 9.46 9.45C9.67 9.23 9.93 9.12 10.23 9.12L17.28 9.12C17.59 9.12 17.86 9.23 18.08 9.45C18.3 9.66 18.41 9.92 18.41 10.24L18.41 21.75C18.41 22.05 18.31 22.31 18.11 22.51C17.9 22.72 17.65 22.84 17.35 22.87L16.17 22.87L16.17 18.24C16.17 17.88 16.05 17.57 15.8 17.31C15.55 17.06 15.24 16.93 14.88 16.93L12.68 16.93C12.33 16.93 12.02 17.06 11.76 17.31C11.51 17.57 11.38 17.88 11.38 18.24L11.38 22.87L10.23 22.87C9.93 22.87 9.67 22.76 9.46 22.54C9.23 22.31 9.12 22.05 9.12 21.75L9.12 10.24ZM12.51 18.24C12.51 18.2 12.52 18.17 12.54 18.14C12.56 18.13 12.65 18.06 12.68 18.06L14.88 18.06C14.93 18.06 14.98 18.08 15.01 18.11C15.05 18.15 15.06 18.19 15.06 18.24L15.06 22.83L12.51 22.83L12.51 18.24ZM22.87 21.18C22.87 21.65 22.71 22.04 22.38 22.37C22.05 22.7 21.65 22.87 21.18 22.87L19.22 22.87C19.31 22.7 19.38 22.52 19.44 22.33C19.49 22.14 19.52 21.95 19.52 21.75L19.52 13.59L21.18 13.59C21.65 13.59 22.05 13.75 22.38 14.08C22.71 14.41 22.87 14.81 22.87 15.28L22.87 21.18Z" fill="url(#paint_linear_46_10610_0)" fill-opacity="1.000000" fill-rule="nonzero"/>
		<path d="M14.66 12L14.66 10.28L13.52 10.28L13.52 12L11.8 12L11.8 13.14L13.52 13.14L13.52 14.85L14.66 14.85L14.66 13.14L16.38 13.14L16.38 12L14.66 12Z" fill="#EF3D3D" fill-opacity="1.000000" fill-rule="evenodd"/>
	</g>
</svg>
