<svg width="24.000000" height="24.000000" viewBox="0 0 24 24" fill="none" xmlns="http://www.w3.org/2000/svg" xmlns:xlink="http://www.w3.org/1999/xlink">
	<desc>
			Created with Pixso.
	</desc>
	<defs>
		<clipPath id="clip138_2313">
			<rect width="24.000000" height="24.000000" fill="white" fill-opacity="0"/>
		</clipPath>
	</defs>
	<g clip-path="url(#clip138_2313)">
		<path d="M13.74 12L6.78 5.03C6.64 4.87 6.57 4.69 6.57 4.49C6.57 4.29 6.64 4.12 6.78 3.95C6.93 3.81 7.11 3.73 7.31 3.73C7.52 3.73 7.7 3.81 7.84 3.95L14.83 10.94C15.11 11.23 15.25 11.58 15.25 12C15.25 12.41 15.11 12.76 14.83 13.06L7.86 19.99C7.74 20.13 7.57 20.2 7.35 20.2C7.13 20.2 6.95 20.13 6.81 19.99C6.67 19.85 6.59 19.67 6.59 19.45C6.59 19.25 6.67 19.08 6.81 18.94L13.74 12Z" fill="#000000" fill-opacity="0.400000" fill-rule="nonzero"/>
	</g>
</svg>
