<svg width="12.000000" height="12.000000" viewBox="0 0 12 12" fill="none" xmlns="http://www.w3.org/2000/svg" xmlns:xlink="http://www.w3.org/1999/xlink">
	<desc>
			Created with Pixso.
	</desc>
	<defs/>
	<path d="M0.65 4.21C0.33 3.36 0.11 2.27 0 0.96C0 0.93 0 0.91 0 0.88C0 0.39 0.39 0 0.88 0L2.59 0C3.03 0 3.4 0.31 3.47 0.74C3.54 1.19 3.61 1.54 3.67 1.81C3.77 2.21 3.95 2.81 4.22 3.61C4.16 4.22 3.95 4.57 3.59 4.64C4.17 7.15 7.27 8.77 7.35 8.4C7.42 8.04 7.77 7.83 8.38 7.77C9.18 8.04 9.78 8.22 10.18 8.32C10.45 8.38 10.8 8.45 11.25 8.52C11.68 8.59 11.99 8.96 11.99 9.4L12 11.11C11.99 11.6 11.6 11.99 11.11 12C11.08 12 11.06 11.99 11.03 11.99C9.72 11.88 8.63 11.66 7.78 11.34C3.98 10.09 1.61 7.72 0.65 4.21Z" fill="#007DFF" fill-opacity="1.000000" fill-rule="evenodd"/>
</svg>
