<svg width="12.000000" height="12.000000" viewBox="0 0 12 12" fill="none" xmlns="http://www.w3.org/2000/svg" xmlns:xlink="http://www.w3.org/1999/xlink">
	<desc>
			Created with Pixso.
	</desc>
	<defs>
		<clipPath id="clip46_1065">
			<rect width="12.000000" height="12.000000" fill="white" fill-opacity="0"/>
		</clipPath>
	</defs>
	<g clip-path="url(#clip46_1065)">
		<path d="M6 0C6.4 0 6.8 0.04 7.18 0.13C7.43 0.19 7.68 0.27 7.91 0.37C8.24 0.5 8.54 0.66 8.82 0.85C9.06 1.02 9.28 1.2 9.49 1.4C9.73 1.64 9.95 1.91 10.14 2.19C10.3 2.43 10.44 2.68 10.55 2.95C10.65 3.19 10.73 3.43 10.8 3.68C10.89 4.06 10.94 4.46 10.94 4.87C10.94 5.69 10.69 6.57 10.19 7.5C9.8 8.22 9.27 8.96 8.59 9.72C8.12 10.26 7.59 10.78 7.02 11.29C6.73 11.54 6.49 11.74 6.3 11.89C6.21 11.96 6.11 12 6 12C5.88 12 5.78 11.96 5.69 11.89C5.5 11.74 5.26 11.54 4.97 11.29C4.4 10.78 3.87 10.26 3.4 9.72Q2.39 8.58 1.8 7.5C1.3 6.57 1.05 5.69 1.05 4.87C1.05 4.46 1.1 4.06 1.19 3.68C1.25 3.43 1.34 3.19 1.44 2.95C1.55 2.68 1.69 2.43 1.85 2.19C2.04 1.91 2.25 1.64 2.5 1.4C2.71 1.2 2.93 1.02 3.17 0.86Q3.17 0.86 3.17 0.86Q3.59 0.57 4.07 0.37C4.31 0.27 4.55 0.19 4.8 0.13C5.19 0.04 5.59 0 6 0ZM6 1C5.65 1 5.32 1.04 5 1.12C4.81 1.16 4.63 1.22 4.45 1.3C4.19 1.4 3.94 1.54 3.72 1.69C3.53 1.82 3.36 1.96 3.2 2.12C3 2.31 2.82 2.53 2.67 2.75C2.55 2.94 2.45 3.14 2.36 3.34C2.28 3.52 2.22 3.7 2.17 3.88C2.09 4.2 2.05 4.53 2.05 4.87C2.05 5.52 2.26 6.24 2.68 7.03C3.03 7.68 3.52 8.36 4.15 9.06C4.6 9.57 5.09 10.06 5.63 10.54C5.76 10.66 5.89 10.76 5.99 10.85C6.1 10.76 6.23 10.66 6.36 10.54C6.9 10.06 7.39 9.57 7.84 9.06C8.47 8.36 8.95 7.68 9.31 7.03C9.73 6.24 9.94 5.52 9.94 4.87C9.94 4.53 9.9 4.2 9.82 3.88C9.77 3.7 9.71 3.52 9.63 3.34C9.54 3.14 9.44 2.94 9.31 2.75Q9.09 2.41 8.79 2.12C8.63 1.96 8.45 1.82 8.27 1.69C8.04 1.53 7.8 1.4 7.54 1.3C7.36 1.22 7.17 1.16 6.99 1.12C6.67 1.04 6.34 1 6 1ZM6 3.04C4.94 3.04 4.09 3.89 4.09 4.94C4.09 5.99 4.94 6.85 6 6.85C7.05 6.85 7.9 5.99 7.9 4.94C7.9 3.89 7.05 3.04 6 3.04ZM6 4.04C5.5 4.04 5.09 4.44 5.09 4.94C5.09 5.44 5.5 5.85 6 5.85C6.49 5.85 6.9 5.44 6.9 4.94C6.9 4.44 6.49 4.04 6 4.04Z" fill="#000000" fill-opacity="0.600000" fill-rule="evenodd"/>
	</g>
</svg>
