<svg width="48.000000" height="48.000000" viewBox="0 0 48 48" fill="none" xmlns="http://www.w3.org/2000/svg" xmlns:xlink="http://www.w3.org/1999/xlink">
	<desc>
			Created with Pixso.
	</desc>
	<defs>
		<clipPath id="clip38_1587">
			<rect rx="8.000000" width="48.000000" height="48.000000" fill="white" fill-opacity="0"/>
		</clipPath>
		<linearGradient x1="24.000000" y1="0.000000" x2="24.000000" y2="48.000000" id="paint_linear_99_1800_0" gradientUnits="userSpaceOnUse">
			<stop stop-color="#B9EC96"/>
			<stop offset="1.000000" stop-color="#58BC11"/>
		</linearGradient>
	</defs>
	<rect rx="8.000000" width="48.000000" height="48.000000" fill="#FFFFFF" fill-opacity="0"/>
	<g clip-path="url(#clip38_1587)">
		<linearGradient x1="24.000000" y1="0.000000" x2="24.000000" y2="48.000000" id="paint_linear_99_18000_0" gradientUnits="userSpaceOnUse">
			<stop stop-color="#B9EC96"/>
			<stop offset="1.000000" stop-color="#58BC11"/>
		</linearGradient>
		<path d="M0 0L48 0L48 48L0 48L0 0Z" fill="url(#paint_linear_99_18000_0)" fill-opacity="1.000000" fill-rule="evenodd"/>
		<path d="M19.86 4.22C19.49 4.07 19.09 4 18.66 4L7.11 4C6.07 4 5.29 4.25 4.77 4.77C4.25 5.29 4 6.07 4 7.11L4 18.66C4 19.7 4.25 20.48 4.77 21C5.29 21.51 6.07 21.77 7.11 21.77L18.66 21.77C19.09 21.77 19.49 21.7 19.86 21.55C20.22 21.39 20.56 21.17 20.86 20.86C21.17 20.56 21.39 20.22 21.55 19.86C21.7 19.49 21.77 19.09 21.77 18.66L21.77 7.11C21.77 6.68 21.7 6.28 21.55 5.91C21.39 5.55 21.17 5.21 20.86 4.91C20.56 4.6 20.22 4.37 19.86 4.22ZM42.08 4.22C41.71 4.07 41.31 4 40.88 4L29.33 4C28.29 4 27.51 4.25 27 4.77C26.48 5.29 26.22 6.07 26.22 7.11L26.22 18.66C26.22 19.7 26.48 20.48 27 21C27.51 21.51 28.29 21.77 29.33 21.77L40.88 21.77C41.31 21.77 41.71 21.7 42.08 21.55C42.44 21.39 42.78 21.17 43.08 20.86C43.39 20.56 43.62 20.22 43.77 19.86C43.92 19.49 44 19.09 44 18.66L44 7.11C44 6.68 43.92 6.28 43.77 5.91C43.62 5.55 43.39 5.21 43.08 4.91C42.78 4.6 42.44 4.37 42.08 4.22ZM7.11 6.66L18.66 6.66C18.81 6.66 18.92 6.7 19 6.77C19.07 6.85 19.11 6.96 19.11 7.11L19.11 18.66C19.11 18.81 19.07 18.92 19 19C18.92 19.07 18.81 19.11 18.66 19.11L7.11 19.11C7.05 19.08 6.84 19.02 6.79 18.98C6.77 18.92 6.66 18.72 6.66 18.66L6.66 7.11C6.68 7.05 6.75 6.84 6.79 6.79C6.84 6.75 7.05 6.68 7.11 6.66ZM29.33 6.66L40.88 6.66C41.03 6.66 41.14 6.7 41.22 6.77C41.29 6.85 41.33 6.96 41.33 7.11L41.33 18.66C41.33 18.81 41.29 18.92 41.22 19C41.14 19.07 41.03 19.11 40.88 19.11L29.33 19.11C29.28 19.08 29.06 19.02 29.01 18.98C28.99 18.92 28.88 18.72 28.88 18.66L28.88 7.11C28.91 7.05 28.97 6.84 29.01 6.79C29.06 6.75 29.28 6.68 29.33 6.66ZM19.86 26.45C19.49 26.29 19.09 26.22 18.66 26.22L7.11 26.22C6.68 26.22 6.28 26.29 5.91 26.45C5.55 26.6 5.21 26.82 4.91 27.13C4.6 27.43 4.37 27.77 4.22 28.13C4.07 28.5 4 28.9 4 29.33L4 40.88C4 41.31 4.07 41.71 4.22 42.08C4.37 42.44 4.6 42.78 4.91 43.08C5.21 43.39 5.55 43.62 5.91 43.77C6.28 43.92 6.68 44 7.11 44L18.66 44C19.7 44 20.48 43.74 21 43.22C21.51 42.7 21.77 41.92 21.77 40.88L21.77 29.33C21.77 28.9 21.7 28.5 21.55 28.13C21.39 27.77 21.17 27.43 20.86 27.13C20.56 26.82 20.22 26.6 19.86 26.45ZM7.11 28.88L18.66 28.88C18.81 28.88 18.92 28.92 19 29C19.07 29.07 19.11 29.18 19.11 29.33L19.11 40.88C19.11 41.03 19.07 41.14 19 41.22C18.92 41.29 18.81 41.33 18.66 41.33L7.11 41.33C7.05 41.31 6.84 41.24 6.79 41.2C6.77 41.15 6.66 40.95 6.66 40.88L6.66 29.33C6.68 29.28 6.75 29.06 6.79 29.01C6.84 28.97 7.05 28.91 7.11 28.88Z" fill="#FFFFFF" fill-opacity="1.000000" fill-rule="evenodd"/>
		<path d="M35.11 33.77L35.11 27.55C35.11 27.18 34.98 26.87 34.72 26.61C34.46 26.35 34.14 26.22 33.77 26.22L27.55 26.22C27.18 26.22 26.87 26.35 26.61 26.61C26.35 26.87 26.22 27.18 26.22 27.55L26.22 29.62C26.22 29.99 26.35 30.31 26.61 30.57C26.87 30.83 27.18 30.96 27.55 30.96L30.37 30.96L30.37 33.77C30.37 34.14 30.5 34.46 30.76 34.72C31.02 34.98 31.33 35.11 31.7 35.11L33.77 35.11C34.14 35.11 34.46 34.98 34.72 34.72C34.98 34.46 35.11 34.14 35.11 33.77ZM39.94 34.72C40.2 34.98 40.52 35.11 40.88 35.11L42.66 35.11C43.03 35.11 43.34 34.98 43.6 34.72C43.86 34.46 44 34.14 44 33.77L44 27.55C44 27.18 43.86 26.87 43.6 26.61C43.34 26.35 43.03 26.22 42.66 26.22L40.88 26.22C40.52 26.22 40.2 26.35 39.94 26.61C39.68 26.87 39.55 27.18 39.55 27.55L39.55 33.77C39.55 34.14 39.68 34.46 39.94 34.72ZM26.61 43.6C26.87 43.86 27.18 44 27.55 44L29.33 44C29.7 44 30.01 43.86 30.27 43.6C30.53 43.34 30.66 43.03 30.66 42.66L30.66 36.44C30.66 36.07 30.53 35.76 30.27 35.5C30.01 35.24 29.7 35.11 29.33 35.11L27.55 35.11C27.18 35.11 26.87 35.24 26.61 35.5C26.35 35.76 26.22 36.07 26.22 36.44L26.22 42.66C26.22 43.03 26.35 43.34 26.61 43.6ZM35.5 39.16C35.76 39.42 36.07 39.55 36.44 39.55L38.22 39.55C38.59 39.55 38.9 39.42 39.16 39.16C39.42 38.9 39.55 38.59 39.55 38.22L39.55 36.44C39.55 36.07 39.42 35.76 39.16 35.5C38.9 35.24 38.59 35.11 38.22 35.11L36.44 35.11C36.07 35.11 35.76 35.24 35.5 35.5C35.24 35.76 35.11 36.07 35.11 36.44L35.11 38.22C35.11 38.59 35.24 38.9 35.5 39.16ZM39.94 43.6C40.2 43.86 40.52 44 40.88 44L42.66 44C43.03 44 43.34 43.86 43.6 43.6C43.86 43.34 44 43.03 44 42.66L44 40.88C44 40.52 43.86 40.2 43.6 39.94C43.34 39.68 43.03 39.55 42.66 39.55L40.88 39.55C40.52 39.55 40.2 39.68 39.94 39.94C39.68 40.2 39.55 40.52 39.55 40.88L39.55 42.66C39.55 43.03 39.68 43.34 39.94 43.6Z" fill="#FFFFFF" fill-opacity="1.000000" fill-rule="evenodd"/>
		<path d="M11 14.77C11.22 15 11.55 15.11 12 15.11L13.77 15.11C14.22 15.11 14.55 15 14.77 14.77C15 14.55 15.11 14.22 15.11 13.77L15.11 12C15.11 11.55 15 11.22 14.77 11C14.55 10.77 14.22 10.66 13.77 10.66L12 10.66C11.55 10.66 11.22 10.77 11 11C10.77 11.22 10.66 11.55 10.66 12L10.66 13.77C10.66 14.22 10.77 14.55 11 14.77ZM33.22 14.77C33.44 15 33.77 15.11 34.22 15.11L36 15.11C36.44 15.11 36.77 15 37 14.77C37.22 14.55 37.33 14.22 37.33 13.77L37.33 12C37.33 11.55 37.22 11.22 37 11C36.77 10.77 36.44 10.66 36 10.66L34.22 10.66C33.77 10.66 33.44 10.77 33.22 11C33 11.22 32.88 11.55 32.88 12L32.88 13.77C32.88 14.22 33 14.55 33.22 14.77ZM11 37C11.22 37.22 11.55 37.33 12 37.33L13.77 37.33C14.22 37.33 14.55 37.22 14.77 37C15 36.77 15.11 36.44 15.11 36L15.11 34.22C15.11 33.77 15 33.44 14.77 33.22C14.55 33 14.22 32.88 13.77 32.88L12 32.88C11.55 32.88 11.22 33 11 33.22C10.77 33.44 10.66 33.77 10.66 34.22L10.66 36C10.66 36.44 10.77 36.77 11 37Z" fill="#FFFFFF" fill-opacity="1.000000" fill-rule="evenodd"/>
	</g>
</svg>
