<?xml version="1.0" standalone="no"?><!DOCTYPE svg PUBLIC "-//W3C//DTD SVG 1.1//EN" "http://www.w3.org/Graphics/SVG/1.1/DTD/svg11.dtd"><svg t="1737964573406" class="icon" viewBox="0 0 1024 1024" version="1.1" xmlns="http://www.w3.org/2000/svg" p-id="6079" xmlns:xlink="http://www.w3.org/1999/xlink" width="200" height="200"><path d="M440.577354 651.399064c14.634389 0 26.495498 11.94644 26.495498 26.666161v1.279976c0 14.762387-11.861108 26.73016-26.495498 26.73016H281.668367a26.602162 26.602162 0 0 1-26.474165-26.687494v-1.301309c0-14.741054 11.861108-26.687494 26.495498-26.687494h158.887654zM281.6897 529.289379h158.887654c14.634389 0 26.495498 11.94644 26.495498 26.666161v1.343975c0 14.719721-11.861108 26.666161-26.495498 26.666161H281.668367c-14.613056 0-26.474165-11.94644-26.474165-26.666161v-1.322642c0-14.741054 11.861108-26.687494 26.495498-26.687494z m-100.691425-72.958617v291.834467c0 25.151523 19.775625 45.567136 44.116497 45.567136h282.469312v54.740296H225.093439C171.483789 848.429995 128.00728 803.52418 128.00728 748.143896V273.912887c0-55.380283 43.476509-100.307432 97.086159-100.307432h70.633328v-18.879642C295.726767 139.963427 307.587875 128.016986 322.200932 128.016986c14.634389 0 26.495498 11.94644 26.495497 26.666161v18.900975h282.469312v-18.879642c0-9.535819 5.055904-18.367652 13.247749-23.146227a26.346167 26.346167 0 0 1 26.474164 0c8.213178 4.778576 13.247749 13.610409 13.247749 23.146227v18.879642h70.633328c53.60965 0 97.086159 44.927148 97.086159 100.328765v182.396542H180.998275z m0-54.718963H798.927894V273.93422c0-25.215522-19.775625-45.567136-44.159163-45.567136h-70.611995v55.337617c0 9.535819-5.034571 18.346319-13.247749 23.124895a26.388833 26.388833 0 0 1-26.495497 0 26.772826 26.772826 0 0 1-13.247749-23.124895V228.345751H348.696429v55.35895c0 14.719721-11.839776 26.666161-26.495497 26.666162-14.591723 0-26.452832-11.94644-26.452832-26.666162V228.345751H225.093439c-24.340872 0-44.116497 20.372947-44.116497 45.567136v127.67758h0.021333z m538.443126 474.167011c-97.491485 0-176.55132-81.641119-176.55132-182.396542 0-100.712757 79.059834-182.396542 176.55132-182.396542S895.99272 592.690844 895.99272 693.403601c0 100.755423-79.059834 182.396542-176.551319 182.396542z m0-54.718963c68.265372 0 123.581657-57.172249 123.581657-127.656246 0-70.50533-55.316285-127.656247-123.581657-127.656247-68.24404 0-123.581657 57.150917-123.581658 127.656247s55.337618 127.656247 123.581658 127.656246z m17.663665-145.917233h44.13783c14.613056 0 26.495498 11.989106 26.495497 26.73016v1.279975c0 14.762387-11.882441 26.708827-26.495497 26.708827H710.609568c-14.613056 0-26.495498-11.94644-26.495498-26.687494V628.914157c0-9.535819 5.055904-18.346319 13.247749-23.124895a26.282168 26.282168 0 0 1 26.495498 0c8.191845 4.778576 13.247749 13.589076 13.247749 23.124895v46.271123-0.021333z" fill="#231815" p-id="6080"></path></svg>