<svg width="16.000000" height="16.000000" viewBox="0 0 16 16" fill="none" xmlns="http://www.w3.org/2000/svg" xmlns:xlink="http://www.w3.org/1999/xlink">
	<desc>
			Created with Pixso.
	</desc>
	<defs>
		<clipPath id="clip99_1718">
			<rect width="16.000000" height="16.000000" fill="white" fill-opacity="0"/>
		</clipPath>
	</defs>
	<g clip-path="url(#clip99_1718)">
		<g opacity="0.000000"/>
		<path d="M13.31 3.21Q13.27 3.33 13.18 3.44L8.7 7.92L13.18 12.38Q13.26 12.46 13.29 12.57Q13.32 12.65 13.32 12.75Q13.32 12.86 13.28 12.95Q13.25 13.03 13.18 13.1Q13.11 13.16 13.03 13.2Q12.94 13.24 12.83 13.24Q12.71 13.24 12.62 13.2Q12.54 13.16 12.48 13.1L8 8.62L3.51 13.1Q3.45 13.16 3.37 13.2Q3.28 13.24 3.16 13.23Q3.05 13.23 2.95 13.19Q2.87 13.16 2.8 13.1Q2.75 13.05 2.72 12.99Q2.67 12.88 2.67 12.75Q2.67 12.63 2.71 12.53Q2.74 12.45 2.8 12.38L7.29 7.92L2.8 3.44Q2.72 3.34 2.69 3.24Q2.67 3.16 2.67 3.08Q2.67 2.96 2.71 2.86Q2.74 2.79 2.8 2.73Q2.9 2.63 3.02 2.59Q3.09 2.57 3.16 2.57Q3.25 2.57 3.33 2.6Q3.43 2.64 3.51 2.73L8 7.21L12.48 2.73Q12.56 2.64 12.66 2.6Q12.74 2.57 12.83 2.57Q12.92 2.57 13 2.6Q13.1 2.64 13.18 2.73Q13.25 2.8 13.29 2.89Q13.32 2.98 13.32 3.08Q13.32 3.15 13.31 3.21Z" fill="#000000" fill-opacity="0.898039" fill-rule="evenodd"/>
	</g>
</svg>
