<?xml version="1.0" standalone="no"?><!DOCTYPE svg PUBLIC "-//W3C//DTD SVG 1.1//EN" "http://www.w3.org/Graphics/SVG/1.1/DTD/svg11.dtd"><svg t="1737941868094" class="icon" viewBox="0 0 1024 1024" version="1.1" xmlns="http://www.w3.org/2000/svg" p-id="4037" xmlns:xlink="http://www.w3.org/1999/xlink" width="200" height="200"><path d="M512 512m-460.8 0a460.8 460.8 0 1 0 921.6 0 460.8 460.8 0 1 0-921.6 0Z" fill="#1BBF75" p-id="4038"></path><path d="M678.383 353.19c14.996-14.996 39.31-14.996 54.306 0 14.846 14.846 14.995 38.824 0.445 53.853l-0.445 0.453-260.681 260.68c-14.846 14.847-38.825 14.996-53.853 0.446l-0.453-0.445-130.34-130.34c-14.997-14.997-14.997-39.31 0-54.306 14.846-14.847 38.824-14.995 53.853-0.446l0.452 0.446 103.187 103.187 233.53-233.528z" fill="#FFFFFF" p-id="4039"></path></svg>