<svg width="16.000000" height="16.000000" viewBox="0 0 16 16" fill="none" xmlns="http://www.w3.org/2000/svg" xmlns:xlink="http://www.w3.org/1999/xlink">
	<desc>
			Created with Pixso.
	</desc>
	<defs>
		<clipPath id="clip14_1093">
			<rect width="16.000000" height="16.000000" fill="white" fill-opacity="0"/>
		</clipPath>
	</defs>
	<g clip-path="url(#clip14_1093)">
		<path d="M7.99 9.19C5.48 9.19 2.96 8.42 1.17 6.9C1.15 6.88 1.12 6.85 1.1 6.82C1.08 6.8 1.06 6.77 1.05 6.74C1.03 6.71 1.02 6.68 1.01 6.64C1 6.61 1 6.58 1 6.54C0.99 6.51 0.99 6.48 1 6.44C1 6.41 1.01 6.38 1.02 6.34C1.03 6.31 1.05 6.28 1.06 6.25C1.08 6.22 1.1 6.2 1.12 6.17C1.15 6.15 1.17 6.12 1.2 6.1C1.22 6.08 1.25 6.06 1.28 6.05C1.31 6.03 1.35 6.02 1.38 6.01C1.41 6 1.44 6 1.48 6C1.51 5.99 1.55 6 1.58 6C1.61 6 1.65 6.01 1.68 6.02C1.71 6.03 1.74 6.05 1.77 6.06C1.8 6.08 1.83 6.1 1.85 6.12C5.01 8.84 10.99 8.84 14.14 6.12C14.16 6.1 14.19 6.08 14.22 6.06C14.25 6.05 14.28 6.03 14.31 6.02C14.34 6.01 14.38 6 14.41 6C14.44 6 14.48 5.99 14.51 6C14.55 6 14.58 6 14.61 6.01C14.64 6.02 14.68 6.03 14.71 6.05C14.74 6.06 14.77 6.08 14.79 6.1C14.82 6.12 14.84 6.15 14.87 6.17C15.05 6.38 15.03 6.71 14.82 6.9C13.03 8.42 10.51 9.19 7.99 9.19ZM6.13 11.44C6.09 11.44 6.06 11.44 6.03 11.44C5.89 11.42 5.76 11.34 5.68 11.22C5.6 11.11 5.57 10.96 5.61 10.82L5.95 8.82C5.95 8.78 5.96 8.75 5.98 8.72C5.99 8.69 6 8.66 6.02 8.63C6.04 8.6 6.06 8.57 6.08 8.55C6.11 8.52 6.13 8.5 6.16 8.48C6.19 8.46 6.22 8.45 6.25 8.43C6.28 8.42 6.31 8.41 6.35 8.4C6.38 8.39 6.41 8.39 6.45 8.39C6.48 8.39 6.51 8.39 6.55 8.4C6.58 8.4 6.61 8.41 6.65 8.42C6.68 8.44 6.71 8.45 6.74 8.47C6.77 8.49 6.79 8.51 6.82 8.53C6.84 8.55 6.86 8.58 6.88 8.61C6.9 8.64 6.92 8.66 6.93 8.7C6.95 8.73 6.96 8.76 6.97 8.79C6.97 8.83 6.98 8.86 6.98 8.89C6.98 8.93 6.98 8.96 6.97 8.99L6.63 11C6.63 11.03 6.62 11.06 6.61 11.09C6.6 11.12 6.59 11.14 6.57 11.17C6.56 11.2 6.54 11.22 6.52 11.25C6.5 11.27 6.48 11.29 6.46 11.31C6.44 11.33 6.41 11.35 6.39 11.37C6.36 11.38 6.33 11.39 6.3 11.4C6.28 11.42 6.25 11.42 6.22 11.43C6.19 11.43 6.16 11.44 6.13 11.44ZM13.8 10.42C13.66 10.42 13.53 10.36 13.43 10.26L11.75 8.57C11.72 8.54 11.69 8.5 11.66 8.46C11.63 8.42 11.61 8.38 11.6 8.33C11.58 8.29 11.58 8.24 11.57 8.2C11.57 8.15 11.58 8.1 11.59 8.06C11.6 8.01 11.62 7.97 11.64 7.93C11.67 7.89 11.69 7.85 11.73 7.82C11.76 7.78 11.8 7.76 11.84 7.73C11.88 7.71 11.93 7.7 11.97 7.68C12.02 7.67 12.06 7.67 12.11 7.67C12.16 7.67 12.2 7.68 12.25 7.7C12.29 7.71 12.33 7.73 12.37 7.76C12.41 7.79 12.45 7.82 12.48 7.85L14.16 9.55C14.36 9.75 14.36 10.07 14.16 10.27C14.06 10.37 13.93 10.42 13.8 10.42ZM2.19 10.42C2.13 10.41 2.07 10.4 2.01 10.38C1.95 10.35 1.9 10.32 1.85 10.27C1.83 10.25 1.81 10.22 1.79 10.19C1.77 10.17 1.76 10.14 1.74 10.11C1.73 10.08 1.72 10.04 1.71 10.01C1.71 9.98 1.7 9.94 1.7 9.91C1.7 9.88 1.71 9.84 1.71 9.81C1.72 9.78 1.73 9.75 1.74 9.72C1.76 9.69 1.77 9.66 1.79 9.63C1.81 9.6 1.83 9.57 1.85 9.55L3.54 7.85C3.56 7.81 3.6 7.78 3.64 7.74C3.68 7.71 3.72 7.69 3.77 7.67C3.81 7.65 3.86 7.64 3.91 7.64C3.96 7.63 4.01 7.64 4.06 7.65C4.11 7.66 4.16 7.67 4.2 7.7C4.24 7.72 4.28 7.75 4.32 7.79C4.35 7.82 4.38 7.86 4.41 7.91C4.43 7.95 4.45 8 4.46 8.05C4.47 8.09 4.47 8.14 4.46 8.19C4.46 8.24 4.45 8.29 4.43 8.34C4.41 8.38 4.38 8.43 4.35 8.47C4.32 8.5 4.28 8.54 4.24 8.57L2.56 10.26C2.51 10.31 2.46 10.35 2.39 10.38C2.33 10.4 2.26 10.42 2.19 10.42ZM9.89 11.44C9.86 11.44 9.83 11.43 9.8 11.43C9.77 11.42 9.74 11.42 9.71 11.41C9.69 11.4 9.66 11.38 9.63 11.37C9.61 11.35 9.58 11.34 9.56 11.32C9.54 11.3 9.52 11.28 9.5 11.25C9.48 11.23 9.46 11.21 9.45 11.18C9.43 11.16 9.42 11.13 9.41 11.1C9.4 11.07 9.39 11.05 9.39 11.02L9.05 9.01C9.03 8.97 9.02 8.92 9.02 8.87C9.02 8.82 9.02 8.77 9.03 8.73C9.05 8.68 9.06 8.63 9.09 8.59C9.11 8.55 9.14 8.51 9.18 8.48C9.21 8.45 9.25 8.42 9.3 8.4C9.34 8.37 9.39 8.36 9.43 8.35C9.48 8.34 9.53 8.34 9.58 8.34C9.63 8.35 9.67 8.36 9.72 8.38C9.9 8.45 10.03 8.62 10.04 8.82L10.38 10.82C10.41 10.96 10.38 11.09 10.3 11.2C10.22 11.31 10.1 11.39 9.97 11.41C9.94 11.42 9.92 11.43 9.89 11.44Z" fill="#000000" fill-opacity="0.600000" fill-rule="nonzero"/>
	</g>
</svg>
