<svg width="26.000000" height="26.000000" viewBox="0 0 26 26" fill="none" xmlns="http://www.w3.org/2000/svg" xmlns:xlink="http://www.w3.org/1999/xlink">
	<desc>
			Created with Pixso.
	</desc>
	<defs>
		<clipPath id="clip38_1594">
			<rect width="26.000000" height="26.000000" fill="white" fill-opacity="0"/>
		</clipPath>
	</defs>
	<g clip-path="url(#clip38_1594)">
		<path d="M0.09 3.09C0.32 5.77 0.77 7.99 1.43 9.76C2.23 12.67 3.49 15.2 5.22 17.35C7.83 20.6 11.49 23 16.2 24.55C17.98 25.22 20.21 25.66 22.9 25.9C22.98 25.91 23.06 25.91 23.15 25.91C24.07 25.91 24.76 25.68 25.22 25.22C25.68 24.76 25.91 24.07 25.91 23.15L25.9 19.75C25.9 18.97 25.71 18.35 25.32 17.9C24.94 17.45 24.36 17.16 23.59 17.03C22.73 16.89 22.04 16.76 21.54 16.64C20.76 16.45 19.6 16.1 18.05 15.58C17.98 15.56 17.91 15.54 17.85 15.54C17.78 15.53 17.71 15.53 17.64 15.53C16.41 15.64 15.56 16.03 15.09 16.68C14.44 16.4 13.68 15.98 12.94 15.4C11.15 14 9.97 12.48 9.4 10.83C10 10.34 10.35 9.52 10.46 8.35C10.46 8.28 10.46 8.21 10.45 8.14C10.45 8.08 10.43 8.01 10.41 7.94C9.89 6.39 9.54 5.23 9.35 4.45C9.23 3.95 9.1 3.26 8.96 2.4C8.83 1.63 8.54 1.05 8.09 0.67C7.64 0.28 7.02 0.09 6.24 0.09L2.84 0.08C1.92 0.08 1.23 0.31 0.77 0.77C0.31 1.23 0.08 1.92 0.08 2.84C0.08 2.93 0.08 3.01 0.09 3.09ZM23.91 12.45C23.91 11.67 23.83 10.9 23.66 10.15C23.53 9.56 23.34 8.98 23.1 8.41C22.85 7.84 22.56 7.29 22.22 6.77C21.84 6.18 21.39 5.63 20.87 5.12C20.36 4.6 19.81 4.15 19.22 3.77C18.7 3.43 18.15 3.14 17.58 2.89C17.01 2.65 16.43 2.46 15.84 2.33L15.84 2.33Q14.72 2.08 13.54 2.08C12.98 2.08 12.54 1.64 12.54 1.08C12.54 0.52 12.98 0.08 13.54 0.08C14.46 0.08 15.36 0.18 16.24 0.37C16.96 0.53 17.66 0.76 18.35 1.05C19.05 1.35 19.71 1.7 20.33 2.11C21.03 2.57 21.68 3.1 22.29 3.7C22.89 4.31 23.42 4.96 23.88 5.66C24.29 6.28 24.64 6.94 24.94 7.64C25.23 8.33 25.46 9.03 25.62 9.75C25.81 10.63 25.91 11.53 25.91 12.45C25.91 13.01 25.47 13.45 24.91 13.45C24.35 13.45 23.91 13.01 23.91 12.45ZM2.08 2.9C2.08 2.65 2.14 2.39 2.27 2.27C2.39 2.14 2.59 2.08 2.84 2.08L6.24 2.08C6.45 2.08 6.62 2.13 6.75 2.24C6.87 2.35 6.95 2.51 6.99 2.72C7.14 3.63 7.28 4.36 7.41 4.92C7.6 5.71 7.95 6.86 8.45 8.37C8.37 8.95 8.23 9.27 8.02 9.33C7.75 9.39 7.53 9.54 7.38 9.77C7.23 10 7.18 10.25 7.24 10.52C7.26 10.61 7.29 10.72 7.31 10.81C7.91 13.09 9.38 15.14 11.71 16.97C12.58 17.65 13.41 18.17 14.2 18.53C14.6 18.7 14.93 18.81 15.21 18.85C15.68 18.93 16.03 18.86 16.28 18.66C16.47 18.51 16.59 18.29 16.66 17.98C16.71 17.77 17.04 17.62 17.62 17.54C19.13 18.04 20.28 18.39 21.07 18.58C21.63 18.71 22.36 18.85 23.27 19C23.48 19.04 23.64 19.12 23.75 19.24C23.85 19.37 23.91 19.54 23.91 19.75L23.91 23.15C23.91 23.4 23.85 23.6 23.72 23.72Q23.53 23.91 23.15 23.91C20.63 23.7 18.49 23.28 16.89 22.68C12.5 21.23 9.07 18.99 6.69 15.97C5.16 14.03 4.05 11.78 3.34 9.19C2.74 7.58 2.3 5.42 2.08 2.9ZM18.9 11.22C18.99 11.62 19.04 12.03 19.04 12.45C19.04 13.01 19.48 13.45 20.04 13.45C20.6 13.45 21.03 13.01 21.03 12.45C21.03 11.9 20.98 11.36 20.86 10.83C20.76 10.39 20.62 9.96 20.44 9.53C20.26 9.11 20.05 8.71 19.8 8.33C19.52 7.91 19.2 7.52 18.84 7.15C18.47 6.79 18.08 6.47 17.66 6.19C17.28 5.94 16.88 5.73 16.46 5.55Q15.82 5.28 15.17 5.13L15.16 5.13C14.63 5.01 14.09 4.96 13.54 4.96C12.98 4.96 12.54 5.39 12.54 5.95C12.54 6.51 12.98 6.95 13.54 6.95C13.96 6.95 14.37 7 14.77 7.09C15.08 7.16 15.38 7.26 15.68 7.38C15.98 7.51 16.27 7.67 16.54 7.84C16.86 8.05 17.15 8.29 17.43 8.56C17.7 8.84 17.94 9.13 18.15 9.44C18.32 9.72 18.48 10.01 18.61 10.31C18.73 10.61 18.83 10.91 18.9 11.22Z" fill="#FFFFFF" fill-opacity="1.000000" fill-rule="evenodd"/>
	</g>
</svg>
