<svg width="24.000000" height="24.000000" viewBox="0 0 24 24" fill="none" xmlns="http://www.w3.org/2000/svg" xmlns:xlink="http://www.w3.org/1999/xlink">
	<desc>
			Created with Pixso.
	</desc>
	<defs>
		<clipPath id="clip16_1967">
			<rect width="24.000000" height="24.000000" fill="white" fill-opacity="0"/>
		</clipPath>
		<linearGradient x1="11.985003" y1="2.229980" x2="11.985003" y2="21.769981" id="paint_linear_16_1965_0" gradientUnits="userSpaceOnUse">
			<stop stop-color="#966426"/>
			<stop offset="1.000000" stop-color="#966426" stop-opacity="0.000000"/>
		</linearGradient>
	</defs>
	<g clip-path="url(#clip16_1967)">
		<g opacity="0.000000">
			<rect width="24.000000" height="24.000000" fill="#000000" fill-opacity="1.000000"/>
		</g>
		<path d="M19.99 20.26L19.99 7.98C19.99 7.78 19.92 7.58 19.79 7.4C19.67 7.21 19.5 7.08 19.29 7.01L17.83 6.53C17.71 6.48 17.6 6.45 17.5 6.45C17.22 6.45 16.99 6.55 16.79 6.76C16.59 6.95 16.49 7.2 16.49 7.48L16.49 20.26L14.98 20.26L14.98 4.31C14.98 4 14.91 3.69 14.77 3.41C14.63 3.12 14.44 2.88 14.18 2.68C13.81 2.38 13.39 2.22 12.91 2.22C12.7 2.22 12.54 2.24 12.43 2.28L5.62 3.85C5.14 3.97 4.75 4.21 4.44 4.59C4.15 4.97 4.01 5.4 4.01 5.88L4.01 20.26L2.71 20.26C2.5 20.26 2.32 20.33 2.17 20.46C2.01 20.61 1.94 20.79 1.94 21C1.94 21.22 2.01 21.41 2.17 21.54C2.32 21.69 2.5 21.77 2.71 21.77L21.29 21.77C21.49 21.77 21.67 21.69 21.82 21.54C21.96 21.38 22.03 21.2 22.03 21C22.03 20.79 21.96 20.61 21.82 20.46C21.67 20.33 21.49 20.26 21.29 20.26L19.99 20.26ZM6.74 9.77C6.53 9.77 6.36 9.69 6.22 9.54C6.07 9.41 6 9.23 6 9.02C6 8.81 6.07 8.64 6.22 8.5C6.36 8.35 6.53 8.28 6.74 8.28L12.24 8.28C12.44 8.28 12.62 8.35 12.77 8.5C12.91 8.64 12.98 8.81 12.98 9.02C12.98 9.23 12.91 9.41 12.77 9.54C12.62 9.69 12.44 9.77 12.24 9.77L6.74 9.77ZM6.74 13.85C6.53 13.85 6.36 13.77 6.22 13.62C6.07 13.46 6 13.28 6 13.08C6 12.87 6.07 12.69 6.22 12.54C6.36 12.41 6.53 12.34 6.74 12.34L12.24 12.34C12.44 12.34 12.62 12.41 12.77 12.54C12.91 12.69 12.98 12.87 12.98 13.08C12.98 13.28 12.91 13.46 12.77 13.62C12.62 13.77 12.44 13.85 12.24 13.85L6.74 13.85Z" fill="url(#paint_linear_16_1965_0)" fill-opacity="1.000000" fill-rule="nonzero"/>
	</g>
</svg>
