<svg width="48.000000" height="48.000000" viewBox="0 0 48 48" fill="none" xmlns="http://www.w3.org/2000/svg" xmlns:xlink="http://www.w3.org/1999/xlink">
	<desc>
			Created with Pixso.
	</desc>
	<defs>
		<linearGradient x1="24.000000" y1="0.000000" x2="24.000000" y2="48.000000" id="paint_linear_48_4350_0" gradientUnits="userSpaceOnUse">
			<stop stop-color="#75A4FD"/>
			<stop offset="1.000000" stop-color="#3376FF"/>
		</linearGradient>
	</defs>
	<rect rx="24.000000" width="48.000000" height="48.000000" fill="url(#paint_linear_48_4350_0)" fill-opacity="1.000000"/>
	<circle cx="24.000000" cy="24.000000" r="12.000000" fill="#FFFFFF" fill-opacity="0"/>
	<circle cx="24.000000" cy="24.000000" r="12.000000" stroke="#000000" stroke-opacity="0" stroke-width="1.500000"/>
	<path d="M13 16L13 32C13 33.6569 14.3431 35 16 35L32 35C33.6569 35 35 33.6569 35 32L35 16C35 14.3431 33.6569 13 32 13L16 13C14.3431 13 13 14.3431 13 16ZM17.409 16.3484C17.112 16.0514 16.6453 16.0514 16.3484 16.3484C16.0514 16.6453 16.0514 17.112 16.3484 17.409L17.9393 19L16.3484 20.591C16.0514 20.888 16.0514 21.3547 16.3484 21.6516C16.6453 21.9486 17.112 21.9486 17.409 21.6516L19 20.0607L20.591 21.6516C20.888 21.9486 21.3547 21.9486 21.6516 21.6516C21.9486 21.3547 21.9486 20.888 21.6516 20.591L20.0607 19L21.6516 17.409C21.9486 17.112 21.9486 16.6453 21.6516 16.3484C21.3547 16.0514 20.888 16.0514 20.591 16.3484L19 17.9393L17.409 16.3484ZM30.8085 18.2522L18.0806 30.9801C17.7836 31.2771 17.3169 31.2771 17.0199 30.9801C16.7229 30.6831 16.7229 30.2164 17.0199 29.9194L29.7478 17.1915C30.0448 16.8945 30.5115 16.8945 30.8085 17.1915C31.1055 17.4885 31.1055 17.9552 30.8085 18.2522ZM29 25.25C26.9289 25.25 25.25 26.9289 25.25 29C25.25 31.0711 26.9289 32.75 29 32.75C31.0711 32.75 32.75 31.0711 32.75 29C32.75 26.9289 31.0711 25.25 29 25.25ZM29 26.75C27.7574 26.75 26.75 27.7574 26.75 29C26.75 30.2426 27.7574 31.25 29 31.25C30.2426 31.25 31.25 30.2426 31.25 29C31.25 27.7574 30.2426 26.75 29 26.75Z" clip-rule="evenodd" fill="#FFFFFF" fill-opacity="1.000000" fill-rule="evenodd"/>
</svg>
