<svg width="48.000000" height="48.000000" viewBox="0 0 48 48" fill="none" xmlns="http://www.w3.org/2000/svg" xmlns:xlink="http://www.w3.org/1999/xlink">
	<desc>
			Created with Pixso.
	</desc>
	<defs>
		<linearGradient x1="24.000000" y1="0.000000" x2="24.000000" y2="48.000000" id="paint_linear_48_4362_0" gradientUnits="userSpaceOnUse">
			<stop stop-color="#FBA7A5"/>
			<stop offset="1.000000" stop-color="#FD544E"/>
		</linearGradient>
	</defs>
	<rect rx="24.000000" width="48.000000" height="48.000000" fill="url(#paint_linear_48_4362_0)" fill-opacity="1.000000"/>
	<g opacity="0.000000">
		<rect x="12.000000" y="12.000000" width="24.000000" height="24.000000" fill="#000000" fill-opacity="1.000000"/>
	</g>
	<path d="M19.6345 16.6294C19.792 16.5751 19.9368 16.4841 20.069 16.3563C20.2989 16.1341 20.4138 15.8582 20.4138 15.5287L20.4138 13.1609C20.4138 12.9799 20.3791 12.8151 20.3098 12.6665C20.2529 12.5446 20.1726 12.4335 20.069 12.3333C19.9368 12.2056 19.792 12.1145 19.6345 12.0602L19.6345 12.0602C19.518 12.0201 19.3947 12 19.2644 12C18.9502 12 18.6782 12.1111 18.4483 12.3333C18.3447 12.4335 18.2644 12.5446 18.2075 12.6665C18.1381 12.8151 18.1035 12.9799 18.1035 13.1609L18.1035 15.5287C18.1035 15.8582 18.2184 16.1341 18.4483 16.3563C18.6782 16.5786 18.9502 16.6897 19.2644 16.6897C19.3947 16.6897 19.518 16.6696 19.6345 16.6294ZM28.9041 16.5968C29.0276 16.5414 29.14 16.4613 29.2414 16.3563C29.4636 16.1341 29.5747 15.8582 29.5747 15.5287L29.5747 13.1609C29.5747 12.9696 29.5373 12.7964 29.4624 12.6413C29.4083 12.5292 29.3346 12.4265 29.2414 12.3333C29.1401 12.2284 29.0276 12.1482 28.9041 12.0928L28.9041 12.0928C28.766 12.0309 28.6141 12 28.4483 12C28.1341 12 27.8621 12.1111 27.6322 12.3333C27.5286 12.4335 27.4483 12.5446 27.3914 12.6665C27.3221 12.8151 27.2874 12.9799 27.2874 13.1609L27.2874 15.5287C27.2874 15.8582 27.4023 16.1341 27.6322 16.3563C27.8621 16.5786 28.1341 16.6897 28.4483 16.6897C28.6141 16.6897 28.766 16.6587 28.9041 16.5968ZM30.954 13.5977L30.954 15.5632C30.954 15.8666 30.9052 16.1522 30.8074 16.42C30.6879 16.7473 30.4954 17.0479 30.2299 17.3218C29.7395 17.8199 29.1456 18.069 28.4483 18.069C28.1025 18.069 27.7813 18.0087 27.4846 17.8881C27.1828 17.7655 26.9063 17.5806 26.6552 17.3333C26.4105 17.0962 26.2259 16.8331 26.1014 16.5441C25.9725 16.2449 25.9081 15.9179 25.9081 15.5632L25.9081 13.5977L21.7931 13.5977L21.7931 15.5632C21.7931 15.8666 21.7442 16.1523 21.6465 16.42C21.527 16.7473 21.3345 17.0479 21.069 17.3218C20.8218 17.5729 20.5483 17.7607 20.2486 17.8852C19.9536 18.0077 19.6332 18.069 19.2874 18.069C18.9416 18.069 18.6204 18.0087 18.3236 17.8881C18.0219 17.7655 17.7454 17.5806 17.4943 17.3333C17.2495 17.0962 17.0649 16.8331 16.9405 16.5441C16.8116 16.2449 16.7471 15.9179 16.7471 15.5632L16.7471 13.5977L15.8161 13.5977C15.3393 13.5977 14.8967 13.6812 14.4882 13.8483C14.0761 14.0169 13.6988 14.2705 13.3563 14.6092C13.0203 14.9377 12.767 15.3016 12.5965 15.7008C12.4211 16.1118 12.3333 16.5602 12.3333 17.046L12.3333 19.5632L35.3448 19.5632L35.3448 17.046C35.3448 16.0881 35.0077 15.2758 34.3333 14.6092C33.6667 13.9349 32.8544 13.5977 31.8966 13.5977L30.954 13.5977ZM12.3333 32.5517C12.3333 33.5096 12.6705 34.3218 13.3448 34.9885C14.0115 35.6628 14.8238 36 15.7816 36L31.8966 36C32.8544 36 33.6667 35.6628 34.3333 34.9885C35.0077 34.3218 35.3448 33.5096 35.3448 32.5517L35.3448 21.2989L12.3333 21.2989L12.3333 32.5517ZM28.6664 26.9923C28.6352 27.0841 28.5798 27.1677 28.5003 27.243L26.5915 28.904C26.4606 29.0027 26.3951 29.1427 26.3951 29.324C26.3951 29.3559 26.4027 29.41 26.418 29.4863L27.0116 32.0304C27.0238 32.0908 27.0299 32.1402 27.0299 32.1783C27.0299 32.2611 27.0101 32.3438 26.9705 32.4265C26.931 32.5061 26.8746 32.5729 26.8016 32.627C26.7072 32.6938 26.6006 32.7272 26.4819 32.7272C26.3814 32.7272 26.284 32.697 26.1896 32.6366L24.0844 31.2142C24.0023 31.1537 23.9033 31.1235 23.7876 31.1235C23.6719 31.1235 23.5699 31.1537 23.4817 31.2142L21.3765 32.6366C21.2821 32.697 21.1831 32.7272 21.0796 32.7272C20.9639 32.7272 20.8619 32.6938 20.7737 32.627C20.6214 32.5125 20.5453 32.3597 20.5453 32.1688C20.5453 32.1052 20.5484 32.059 20.5545 32.0304L21.1573 29.4863C21.1725 29.4259 21.1801 29.3797 21.1801 29.3479C21.1801 29.2652 21.1618 29.1841 21.1253 29.1045C21.0887 29.0218 21.037 28.9549 20.97 28.904L19.0749 27.243C18.9954 27.1677 18.9401 27.0841 18.9088 26.9923C18.8886 26.933 18.8785 26.8701 18.8785 26.8039C18.8785 26.7434 18.8892 26.6861 18.9105 26.632C18.9409 26.527 18.9988 26.4379 19.084 26.3647C19.1723 26.2916 19.2712 26.2518 19.3809 26.2454L21.8468 26.0497C22.066 26.0434 22.2228 25.9256 22.3172 25.6965L23.2853 23.267C23.3279 23.1588 23.3949 23.0729 23.4862 23.0093C23.5775 22.9425 23.678 22.9091 23.7876 22.9091C23.8333 22.9091 23.8775 22.9149 23.92 22.9265C23.9795 22.9427 24.0358 22.9703 24.089 23.0093C24.1803 23.0729 24.2473 23.1588 24.2899 23.267L25.2581 25.6965C25.2946 25.8015 25.354 25.8843 25.4362 25.9447C25.5214 26.0084 25.6188 26.0434 25.7284 26.0497L28.1944 26.2454C28.304 26.2518 28.3999 26.2916 28.4821 26.3647C28.5673 26.4379 28.6282 26.527 28.6647 26.632C28.6861 26.6861 28.6967 26.7434 28.6967 26.8039C28.6967 26.8701 28.6866 26.933 28.6664 26.9923Z" clip-rule="evenodd" fill="#FFFFFF" fill-opacity="1.000000" fill-rule="evenodd"/>
</svg>
