<svg width="24.000000" height="24.000000" viewBox="0 0 24 24" fill="none" xmlns="http://www.w3.org/2000/svg" xmlns:xlink="http://www.w3.org/1999/xlink">
	<desc>
			Created with Pixso.
	</desc>
	<defs>
		<clipPath id="clip16_1953">
			<rect width="24.000000" height="24.000000" fill="white" fill-opacity="0"/>
		</clipPath>
		<linearGradient x1="11.999994" y1="1.869995" x2="11.999994" y2="22.129993" id="paint_linear_16_1951_0" gradientUnits="userSpaceOnUse">
			<stop stop-color="#966426"/>
			<stop offset="1.000000" stop-color="#966426" stop-opacity="0.000000"/>
		</linearGradient>
	</defs>
	<g clip-path="url(#clip16_1953)">
		<g opacity="0.000000">
			<rect width="24.000000" height="24.000000" fill="#000000" fill-opacity="1.000000"/>
		</g>
		<path d="M18.43 10.22C18.29 9.72 18.21 9.23 18.21 8.73C18.21 8.2 18.29 7.75 18.43 7.39C17.91 7.45 17.45 7.7 17.04 8.14C16.64 8.56 16.32 9.06 16.08 9.65C15.87 7.52 15.13 5.8 13.87 4.5C12.61 3.19 11.14 2.31 9.47 1.87C9.79 2.2 9.95 2.72 9.95 3.41C9.95 4.17 9.77 5.02 9.39 5.93C9.01 6.85 8.59 7.55 8.1 8.04C7.61 8.52 7.17 9.12 6.79 9.84C6.42 10.57 6.13 11.29 5.92 12C5.96 11.84 5.9 11.61 5.75 11.31C5.59 11.02 5.39 10.71 5.15 10.39C4.48 12.06 4.14 13.62 4.14 15.05C4.14 17 4.67 18.52 5.72 19.62C6.77 20.71 7.91 21.5 9.14 21.98C9.28 22.03 9.46 22.08 9.67 22.13C9.23 21.66 8.95 21.12 8.81 20.52C8.77 20.29 8.75 20.13 8.75 20.04C8.75 19.62 8.87 19.14 9.09 18.58C9.22 18.27 9.45 17.92 9.76 17.52C9.81 17.43 9.87 17.34 9.95 17.23C10.04 17.11 10.12 16.99 10.22 16.85C10.51 16.33 10.72 15.95 10.85 15.7C11.2 15.04 11.51 14.4 11.78 13.8C12.12 14.07 12.73 14.76 13.63 15.86C14.07 16.45 14.45 17.12 14.76 17.86C15.06 18.59 15.22 19.3 15.22 19.99C15.22 20.23 15.19 20.48 15.14 20.76C15.06 21.16 14.89 21.55 14.64 21.96C14.75 21.92 15.05 21.84 15.53 21.7C17.09 21.02 18.2 20.15 18.86 19.08C19.52 18 19.85 16.82 19.85 15.53C19.85 14.61 19.71 13.68 19.44 12.74C19.16 11.8 18.83 10.96 18.43 10.22Z" fill="url(#paint_linear_16_1951_0)" fill-opacity="1.000000" fill-rule="nonzero"/>
	</g>
</svg>
