<svg width="48.000000" height="48.000000" viewBox="0 0 48 48" fill="none" xmlns="http://www.w3.org/2000/svg" xmlns:xlink="http://www.w3.org/1999/xlink">
	<desc>
			Created with Pixso.
	</desc>
	<defs>
		<linearGradient x1="24.000000" y1="0.000000" x2="24.000000" y2="48.000000" id="paint_linear_48_4339_0" gradientUnits="userSpaceOnUse">
			<stop stop-color="#FB8B3D"/>
			<stop offset="1.000000" stop-color="#FC673F"/>
		</linearGradient>
	</defs>
	<rect rx="24.000000" width="48.000000" height="48.000000" fill="url(#paint_linear_48_4339_0)" fill-opacity="1.000000"/>
	<path d="M19.8136 15.2329C19.8136 15.5558 19.4952 15.8783 19.0161 15.8783C18.6174 15.8783 18.2188 15.6342 18.2186 15.2299L18.2186 12.6453C18.2186 12.3227 18.5371 12 19.0161 12C19.4149 12 19.8136 12.2412 19.8136 12.6453L19.8136 15.2329ZM28.5853 15.8783C29.0644 15.8783 29.3828 15.5558 29.3828 15.2329L29.3828 12.6453C29.3828 12.2412 29.0644 12 28.5853 12C28.1062 12 27.788 12.3227 27.788 12.6453L27.788 15.2299C27.788 15.6342 28.1864 15.8783 28.5853 15.8783ZM30.4566 14.1597C30.4566 13.6297 30.8863 13.2 31.4163 13.2C33.9473 13.2 35.9971 15.2719 36 17.8304L36 31.3697C36 33.9281 33.9502 36 31.4192 36L16.5808 36C14.0498 36 12 33.9281 12 31.3697L12 17.8304C12 15.2719 14.0498 13.2 16.5808 13.2C16.9315 13.2 17.2158 13.4843 17.2158 13.835L17.2158 16.5233C17.2216 17.423 18.1116 17.9681 19.0075 17.9681C20.0802 17.9681 20.7992 17.2442 20.7992 16.5233L20.7992 14.2C20.7992 13.6477 21.2469 13.2 21.7992 13.2L25.8732 13.2C26.4254 13.2 26.8732 13.6477 26.8732 14.2L26.8732 16.5233C26.8732 17.423 27.769 17.9681 28.6649 17.9681C29.7376 17.9681 30.4566 17.2442 30.4566 16.5233L30.4566 14.1597ZM29.4276 20.6271L29.4276 22.0142L24.921 22.0142L24.921 23.339L28.7575 23.339L28.7575 24.7142L19.5041 24.7142L19.5041 23.339L23.3674 23.339L23.3674 22.0142L18.837 22.0142L18.837 20.6271L23.3674 20.6271L23.3674 19.2756L24.921 19.2756L24.921 20.6271L29.4276 20.6271ZM21.4491 30.4558L19.9192 30.4558L19.9192 25.5786L28.3454 25.5786L28.3454 30.4558L26.8155 30.4558L26.8155 29.9568L21.4491 29.9568L21.4491 30.4558ZM26.8155 28.6083L26.8155 27.0014L21.4491 27.0014L21.4491 28.6083L26.8155 28.6083Z" clip-rule="evenodd" fill="#FFFFFF" fill-opacity="1.000000" fill-rule="evenodd"/>
</svg>
