<svg width="40.000000" height="40.000000" viewBox="0 0 40 40" fill="none" xmlns="http://www.w3.org/2000/svg" xmlns:xlink="http://www.w3.org/1999/xlink">
	<desc>
		Created with Pixso.
	</desc>
	<defs/>
	<g opacity="0.000000">
		<rect width="40.000000" height="40.000000" fill="#000000" fill-opacity="1.000000"/>
	</g>
	<circle cx="20.000000" cy="20.000000" r="16.000000" fill="#C4272B" fill-opacity="1.000000"/>
	<path d="M12 17.91C13.66 17.04 15.1 16.13 16.3 15.17C17.5 14.2 18.49 13.14 19.28 12L20.77 12C21.57 13.2 22.55 14.27 23.71 15.22C24.86 16.17 26.29 17.07 28 17.91L27.03 19.61C25.53 18.85 24.15 17.97 22.89 16.96C21.63 15.96 20.67 14.96 20.01 13.97C19.35 14.93 18.41 15.88 17.19 16.83C15.98 17.79 14.58 18.7 12.99 19.57L12 17.91ZM19.32 16.32C19.84 16.91 20.64 17.88 21.72 19.23L20.32 20.36C20.06 19.97 19.69 19.48 19.22 18.88C18.74 18.29 18.33 17.79 17.98 17.38L19.32 16.32ZM25.58 22.23C24.98 23.13 24.23 24.13 23.34 25.23C22.44 26.33 21.61 27.25 20.84 28L19.01 26.96C19.72 26.32 20.44 25.57 21.15 24.71C21.87 23.86 22.49 23.04 23.02 22.27L13.82 22.27L13.82 20.48L25.58 20.48L25.58 22.23Z" fill="#FFFFFF" fill-opacity="1.000000" fill-rule="nonzero"/>
</svg>
