<svg width="24.000000" height="24.000000" viewBox="0 0 24 24" fill="none" xmlns="http://www.w3.org/2000/svg" xmlns:xlink="http://www.w3.org/1999/xlink">
	<desc>
			Created with Pixso.
	</desc>
	<defs>
		<clipPath id="clip16_1825">
			<rect width="24.000000" height="24.000000" fill="white" fill-opacity="0"/>
		</clipPath>
		<linearGradient x1="12.000031" y1="2.500000" x2="12.000031" y2="22.500000" id="paint_linear_16_1957_0" gradientUnits="userSpaceOnUse">
			<stop stop-color="#966426"/>
			<stop offset="1.000000" stop-color="#966426" stop-opacity="0.000000"/>
		</linearGradient>
	</defs>
	<g clip-path="url(#clip16_1825)">
		<g opacity="0.000000">
			<rect width="24.000000" height="24.000000" fill="#000000" fill-opacity="1.000000"/>
		</g>
		<path d="M12 2.5C6.47717 2.5 2 6.97717 2 12.5C2 18.0228 6.47717 22.5 12 22.5C17.5229 22.5 22.0001 18.0228 22.0001 12.5C22.0001 6.97717 17.5229 2.5 12 2.5ZM11.964 8.18921C11.7057 8.18921 11.5256 8.30334 11.4235 8.53149L11.2523 8.91895C10.934 9.55554 10.5226 10.1261 10.0181 10.6306C9.51355 11.1351 8.94597 11.5376 8.31534 11.8379L8.05408 11.9459C7.80783 12.0781 7.68471 12.2883 7.68471 12.5765C7.68471 12.8529 7.80783 13.0541 8.05408 13.1802L8.39642 13.3334C9.01505 13.6216 9.56459 14.0031 10.0451 14.4775C10.5195 14.952 10.8919 15.5015 11.1622 16.1261L11.2973 16.4054C11.4235 16.6757 11.6397 16.8108 11.946 16.8108C12.2463 16.8108 12.4625 16.6757 12.5946 16.4054L12.7208 16.1622C13.009 15.5436 13.3964 14.991 13.8829 14.5045Q14.2467 14.1316 14.6634 13.8322Q15.0721 13.5385 15.5316 13.3153L15.964 13.1172C16.1982 13.015 16.3154 12.8348 16.3154 12.5765C16.3154 12.3003 16.1982 12.1201 15.964 12.036C15.2012 11.6757 14.5256 11.1923 13.937 10.5856Q13.4847 10.1241 13.1181 9.60254Q12.7618 9.09546 12.4865 8.53149C12.3964 8.30334 12.2223 8.18921 11.964 8.18921Z" clip-rule="evenodd" fill="url(#paint_linear_16_1957_0)" fill-opacity="1.000000" fill-rule="evenodd"/>
	</g>
</svg>
