<svg width="24.000000" height="24.000000" viewBox="0 0 24 24" fill="none" xmlns="http://www.w3.org/2000/svg" xmlns:xlink="http://www.w3.org/1999/xlink">
	<desc>
			Created with Pixso.
	</desc>
	<defs>
		<clipPath id="clip16_1945">
			<rect width="24.000000" height="24.000000" fill="white" fill-opacity="0"/>
		</clipPath>
		<linearGradient x1="11.990003" y1="4.970703" x2="11.990003" y2="19.029934" id="paint_linear_16_1943_0" gradientUnits="userSpaceOnUse">
			<stop stop-color="#966426"/>
			<stop offset="1.000000" stop-color="#966426" stop-opacity="0.000000"/>
		</linearGradient>
	</defs>
	<g clip-path="url(#clip16_1945)">
		<g opacity="0.000000">
			<rect width="24.000000" height="24.000000" fill="#000000" fill-opacity="1.000000"/>
		</g>
		<path d="M9.17 13.91C9.13 13.29 8.98 12.62 8.72 11.91C8.46 11.2 8 10.58 7.34 10.05C6.65 9.51 5.78 9.01 4.73 8.55C3.67 8.09 2.63 7.72 1.63 7.43C1.53 7.42 1.47 7.42 1.44 7.43C1.44 7.88 1.48 8.53 1.56 9.37C1.64 10.23 1.77 11.07 1.97 11.89C2.19 12.77 2.6 13.62 3.2 14.43C3.8 15.24 4.46 15.81 5.21 16.14C5.85 16.43 6.59 16.58 7.44 16.58C7.8 16.58 8.13 16.55 8.42 16.5C7.54 15.99 6.83 15.49 6.29 15.01C5.42 14.25 4.64 13.38 3.96 12.4C3.41 11.46 3.05 10.72 2.88 10.2C2.89 10.21 3.16 10.67 3.68 11.6C4.19 12.51 5.19 13.53 6.65 14.63C6.95 14.89 7.41 15.2 8.05 15.55C8.68 15.91 9.05 16.11 9.17 16.12L9.18 14.87L9.18 14.47C9.18 14.23 9.18 14.04 9.17 13.91ZM22.27 4.98C20.7 5.35 19.02 5.89 17.24 6.61C15.46 7.33 14 8.11 12.86 8.94C11.77 9.74 11.01 10.71 10.58 11.83C10.15 12.95 9.93 13.98 9.91 14.92L9.89 16.08L9.89 16.79L9.91 18.36C10.11 18.27 10.73 17.96 11.75 17.41C12.76 16.87 13.52 16.43 14.02 16.08C15.44 15.05 16.68 13.92 17.75 12.71C18.81 11.48 19.62 10.32 20.2 9.23C19.58 10.75 18.99 11.9 18.43 12.66C17.39 14.06 16.12 15.39 14.62 16.65C13.6 17.47 12.41 18.23 11.04 18.93C11.48 18.99 12.01 19.02 12.62 19.02C14.11 19.02 15.35 18.8 16.34 18.36C17.52 17.81 18.62 16.92 19.62 15.7C20.63 14.46 21.31 13.19 21.65 11.87C21.92 10.77 22.13 9.61 22.27 8.39C22.41 7.18 22.5 6.06 22.54 5.03C22.54 4.98 22.45 4.95 22.27 4.98Z" fill="url(#paint_linear_16_1943_0)" fill-opacity="1.000000" fill-rule="nonzero"/>
	</g>
</svg>
