<svg width="24.000000" height="24.000000" viewBox="0 0 24 24" fill="none" xmlns="http://www.w3.org/2000/svg" xmlns:xlink="http://www.w3.org/1999/xlink">
	<desc>
			Created with Pixso.
	</desc>
	<defs>
		<clipPath id="clip16_1937">
			<rect width="24.000000" height="24.000000" fill="white" fill-opacity="0"/>
		</clipPath>
		<linearGradient x1="12.000006" y1="1.099976" x2="12.000006" y2="22.899975" id="paint_linear_16_1935_0" gradientUnits="userSpaceOnUse">
			<stop stop-color="#966426"/>
			<stop offset="1.000000" stop-color="#966426" stop-opacity="0.000000"/>
		</linearGradient>
	</defs>
	<g clip-path="url(#clip16_1937)">
		<g opacity="0.000000">
			<rect width="24.000000" height="24.000000" fill="#000000" fill-opacity="1.000000"/>
		</g>
		<path d="M12 18.36C11.56 18.36 10.89 18 9.97 17.28C9.05 16.57 8.16 15.73 7.32 14.77C6.47 13.8 5.93 12.97 5.69 12.28C5.49 11.77 5.4 11.31 5.4 10.9L5.4 10.66C5.4 9.91 5.58 9.23 5.94 8.62C6.3 7.99 6.78 7.5 7.4 7.14C8.02 6.78 8.7 6.59 9.46 6.59C10.4 6.59 11.24 6.91 12 7.53C12.75 6.91 13.61 6.59 14.57 6.59C15.32 6.59 16 6.78 16.62 7.14C17.23 7.5 17.71 7.99 18.08 8.62C18.44 9.23 18.62 9.91 18.62 10.66C18.62 10.78 18.61 10.86 18.6 10.9C18.6 11.29 18.52 11.7 18.36 12.12C18.23 12.4 18.15 12.58 18.12 12.65L17.93 13.01C17.61 13.61 17.05 14.34 16.26 15.2C15.46 16.05 14.66 16.79 13.85 17.41C13.03 18.04 12.41 18.36 12 18.36ZM6.38 10.91C6.38 11.16 6.46 11.48 6.62 11.88C6.84 12.52 7.33 13.26 8.09 14.11C8.84 14.95 9.62 15.7 10.42 16.34C11.22 16.98 11.74 17.31 12 17.35C12.22 17.31 12.69 17.02 13.39 16.48C14.09 15.92 14.8 15.27 15.52 14.52C16.22 13.76 16.73 13.09 17.04 12.5C17.07 12.45 17.09 12.41 17.11 12.38C17.14 12.33 17.2 12.2 17.2 12.16L17.4 11.76C17.51 11.43 17.57 11.14 17.57 10.87L17.57 10.75C17.57 9.82 17.28 9.06 16.7 8.46C16.12 7.87 15.4 7.57 14.52 7.57C14.1 7.57 13.71 7.66 13.33 7.84C12.95 8.02 12.63 8.26 12.36 8.56C12.28 8.63 12.15 8.67 11.98 8.7C11.83 8.7 11.71 8.66 11.62 8.56C11.32 8.25 10.99 8 10.61 7.83C10.22 7.66 9.83 7.57 9.43 7.57C8.55 7.57 7.82 7.87 7.24 8.45C6.65 9.04 6.36 9.78 6.36 10.66L6.36 10.78L6.38 10.91ZM12 1.09C10.03 1.09 8.21 1.58 6.54 2.56C4.86 3.54 3.54 4.86 2.57 6.53C1.59 8.21 1.1 10.03 1.1 12C1.1 13.96 1.59 15.78 2.57 17.45C3.54 19.13 4.86 20.45 6.54 21.42C8.21 22.41 10.03 22.9 12 22.9C13.96 22.9 15.78 22.41 17.45 21.42C19.13 20.45 20.45 19.13 21.43 17.45C22.41 15.78 22.9 13.96 22.9 12C22.9 10.03 22.41 8.21 21.43 6.53C20.45 4.86 19.13 3.54 17.45 2.56C15.78 1.58 13.96 1.09 12 1.09Z" fill="url(#paint_linear_16_1935_0)" fill-opacity="1.000000" fill-rule="nonzero"/>
	</g>
</svg>
