<svg width="14.000000" height="14.000000" viewBox="0 0 14 14" fill="none" xmlns="http://www.w3.org/2000/svg" xmlns:xlink="http://www.w3.org/1999/xlink">
	<desc>
			Created with Pixso.
	</desc>
	<defs>
		<clipPath id="clip77_135">
			<rect width="14.000000" height="14.000000" fill="white" fill-opacity="0"/>
		</clipPath>
	</defs>
	<g clip-path="url(#clip77_135)">
		<g opacity="0.000000">
			<rect width="14.000000" height="14.000000" fill="#D8D8D8" fill-opacity="1.000000"/>
			<rect width="14.000000" height="14.000000" stroke="#000000" stroke-opacity="0" stroke-width="1.000000"/>
		</g>
		<path d="M9.03 0.72C9.76 0.72 10.35 1.31 10.35 2.04L10.35 11.95C10.35 12.68 9.76 13.27 9.03 13.27L4.96 13.27C4.23 13.27 3.64 12.68 3.64 11.95L3.64 2.04C3.64 1.31 4.23 0.72 4.96 0.72L9.03 0.72ZM9.03 1.6L7.43 1.6L7.43 1.66C7.4 1.87 7.22 2.04 7 2.04C6.75 2.04 6.56 1.84 6.56 1.6L4.96 1.6C4.71 1.6 4.52 1.8 4.52 2.04L4.52 11.95C4.52 12.19 4.71 12.39 4.96 12.39L9.03 12.39C9.28 12.39 9.47 12.19 9.47 11.95L9.47 2.04C9.47 1.8 9.28 1.6 9.03 1.6ZM7.58 11.37C7.74 11.37 7.87 11.5 7.87 11.66C7.87 11.8 7.77 11.92 7.63 11.95L6.41 11.95C6.25 11.95 6.12 11.82 6.12 11.66C6.12 11.52 6.22 11.4 6.36 11.37L7.58 11.37Z" fill="#191919" fill-opacity="1.000000" fill-rule="evenodd"/>
		<path d="M10.35 2.04L10.35 11.95C10.35 12.68 9.76 13.27 9.03 13.27L4.96 13.27C4.23 13.27 3.64 12.68 3.64 11.95L3.64 2.04C3.64 1.31 4.23 0.72 4.96 0.72L9.03 0.72C9.76 0.72 10.35 1.31 10.35 2.04ZM7.43 1.6L7.43 1.66C7.4 1.87 7.22 2.04 7 2.04C6.75 2.04 6.56 1.84 6.56 1.6L4.96 1.6C4.71 1.6 4.52 1.8 4.52 2.04L4.52 11.95C4.52 12.19 4.71 12.39 4.96 12.39L9.03 12.39C9.28 12.39 9.47 12.19 9.47 11.95L9.47 2.04C9.47 1.8 9.28 1.6 9.03 1.6L7.43 1.6ZM7.87 11.66C7.87 11.8 7.77 11.92 7.63 11.95L6.41 11.95C6.25 11.95 6.12 11.82 6.12 11.66C6.12 11.52 6.22 11.4 6.36 11.37L7.58 11.37C7.74 11.37 7.87 11.5 7.87 11.66Z" stroke="#000000" stroke-opacity="0" stroke-width="1.000000"/>
	</g>
</svg>
