<svg width="14.000000" height="14.000000" viewBox="0 0 14 14" fill="none" xmlns="http://www.w3.org/2000/svg" xmlns:xlink="http://www.w3.org/1999/xlink">
	<desc>
			Created with Pixso.
	</desc>
	<defs>
		<clipPath id="clip77_257">
			<rect width="14.000000" height="14.000000" fill="white" fill-opacity="0"/>
		</clipPath>
		<clipPath id="clip77_230">
			<rect width="14.000000" height="14.000000" fill="white" fill-opacity="0"/>
		</clipPath>
	</defs>
	<g clip-path="url(#clip77_230)">
		<g clip-path="url(#clip77_257)">
			<g opacity="0.000000">
				<rect width="14.000000" height="14.000000" fill="#D8D8D8" fill-opacity="1.000000"/>
				<rect width="14.000000" height="14.000000" stroke="#000000" stroke-opacity="0" stroke-width="1.000000"/>
			</g>
			<path d="M6.67 1.86C6.67 1.26 7.34 0.93 7.81 1.26L11.15 4.09C11.52 4.4 11.48 4.96 11.11 5.24L11.04 5.28L8.01 7L11.04 8.71C11.46 8.95 11.53 9.51 11.21 9.85L7.87 12.68C7.41 13.07 6.72 12.77 6.67 12.2L6.67 12.13L6.66 7.76L3.24 9.71C3.04 9.82 2.8 9.77 2.67 9.6C2.56 9.4 2.58 9.11 2.75 8.98L6.24 7L2.8 5.04C2.61 4.93 2.53 4.7 2.61 4.5C2.72 4.31 2.98 4.18 3.18 4.26L6.66 6.23L6.67 1.86ZM7.54 7.73L7.54 11.81L10.43 9.37L7.54 7.73ZM7.54 2.18L7.54 6.26L10.43 4.62L7.54 2.18Z" fill="#191919" fill-opacity="1.000000" fill-rule="evenodd"/>
			<path d="M7.81 1.26L11.15 4.09C11.52 4.4 11.48 4.96 11.11 5.24L11.04 5.28L8.01 7L11.04 8.71C11.46 8.95 11.53 9.51 11.21 9.85L7.87 12.68C7.41 13.07 6.72 12.77 6.67 12.2L6.67 12.13L6.66 7.76L3.24 9.71C3.04 9.82 2.8 9.77 2.67 9.6C2.56 9.4 2.58 9.11 2.75 8.98L6.24 7L2.8 5.04C2.61 4.93 2.53 4.7 2.61 4.5C2.72 4.31 2.98 4.18 3.18 4.26L6.66 6.23L6.67 1.86C6.67 1.26 7.34 0.93 7.81 1.26ZM7.54 11.81L10.43 9.37L7.54 7.73L7.54 11.81ZM7.54 6.26L10.43 4.62L7.54 2.18L7.54 6.26Z" stroke="#000000" stroke-opacity="0" stroke-width="1.000000"/>
		</g>
	</g>
</svg>
