<svg width="11.998985" height="11.999023" viewBox="0 0 11.999 11.999" fill="none" xmlns="http://www.w3.org/2000/svg" xmlns:xlink="http://www.w3.org/1999/xlink">
	<desc>
			Created with Pixso.
	</desc>
	<defs/>
	<path d="M0 5.99C0 5.05 -0.01 4.12 0 3.18C-0.01 2.72 0.05 2.27 0.16 1.83C0.41 0.9 1.01 0.35 1.94 0.14C2.41 0.04 2.89 -0.01 3.36 0C5.16 0 6.96 0 8.76 0C9.21 -0.01 9.66 0.04 10.1 0.15C11.06 0.38 11.64 0.99 11.85 1.95C11.95 2.4 12 2.86 11.99 3.32C11.99 5.14 11.99 6.95 11.99 8.77C12 9.22 11.95 9.67 11.84 10.1C11.61 11.06 11 11.63 10.04 11.85C9.58 11.95 9.1 12 8.62 11.99C6.83 11.99 5.04 11.99 3.25 11.99C2.8 12 2.34 11.95 1.9 11.84C0.93 11.61 0.36 11 0.14 10.04C0.03 9.55 0 9.06 0 8.57C0 7.71 0 6.85 0 5.99Z" fill="#FFFFFF" fill-opacity="0" fill-rule="evenodd"/>
	<path d="M2.07 7.53L0.75 11L4.21 9.67L10.03 3.84L7.9 1.7L2.07 7.53Z" fill="#F1F3F5" fill-opacity="1.000000" fill-rule="nonzero"/>
	<path d="M8.42 1.17L10.56 3.31L10.8 3.08C11.39 2.48 11.39 1.53 10.8 0.94C10.21 0.35 9.25 0.34 8.66 0.94L8.42 1.17Z" fill="#F1F3F5" fill-opacity="1.000000" fill-rule="evenodd"/>
	<path d="M10.56 3.31L10.8 3.08C11.39 2.48 11.39 1.53 10.8 0.94C10.21 0.35 9.25 0.34 8.66 0.94L8.42 1.17L10.56 3.31Z" fill="#F1F3F5" fill-opacity="1.000000" fill-rule="nonzero"/>
	<path d="M10.74 10.97C10.83 10.97 10.89 11.04 10.89 11.12C10.89 11.2 10.83 11.27 10.74 11.27L6.24 11.27C6.16 11.27 6.09 11.2 6.09 11.12C6.09 11.04 6.16 10.97 6.24 10.97L10.74 10.97Z" fill="#F1F3F5" fill-opacity="1.000000" fill-rule="evenodd"/>
	<path d="M10.74 10C10.83 10 10.89 10.06 10.89 10.14C10.89 10.23 10.83 10.3 10.74 10.3L6.24 10.3C6.16 10.3 6.09 10.23 6.09 10.14C6.09 10.06 6.16 10 6.24 10L10.74 10Z" fill="#F1F3F5" fill-opacity="1.000000" fill-rule="evenodd"/>
</svg>
