<svg width="20.000000" height="20.000000" viewBox="0 0 20 20" fill="none" xmlns="http://www.w3.org/2000/svg" xmlns:xlink="http://www.w3.org/1999/xlink">
	<desc>
			Created with Pixso.
	</desc>
	<defs>
		<clipPath id="clip102_89">
			<rect width="20.000000" height="20.000000" fill="white" fill-opacity="0"/>
		</clipPath>
	</defs>
	<g clip-path="url(#clip102_89)">
		<path d="M3.88 7.13L3.88 7.13L3.88 7.13Q3.8 7.46 3.77 7.81C3.69 7.83 3.62 7.86 3.54 7.89C3.43 7.94 3.32 7.99 3.21 8.06C3.1 8.14 3 8.22 2.9 8.32C2.81 8.42 2.72 8.52 2.65 8.63C2.58 8.73 2.52 8.84 2.47 8.96C2.42 9.07 2.38 9.19 2.36 9.31C2.33 9.45 2.31 9.6 2.31 9.74L2.31 11.58C2.31 11.72 2.33 11.86 2.36 12C2.38 12.12 2.42 12.24 2.47 12.36C2.52 12.48 2.58 12.59 2.64 12.69C2.72 12.8 2.8 12.91 2.9 13C3 13.1 3.1 13.19 3.22 13.26C3.32 13.33 3.43 13.39 3.54 13.44C3.66 13.48 3.78 13.52 3.9 13.55C4.04 13.58 4.18 13.6 4.33 13.6C4.47 13.6 4.61 13.58 4.75 13.55C4.87 13.53 4.99 13.49 5.11 13.44C5.23 13.39 5.33 13.33 5.43 13.26C5.55 13.19 5.65 13.1 5.75 13C5.85 12.9 5.94 12.8 6.01 12.68C6.08 12.58 6.14 12.48 6.19 12.36C6.24 12.24 6.28 12.12 6.3 12C6.33 11.86 6.34 11.72 6.34 11.58L6.34 9.74C6.34 9.6 6.33 9.45 6.3 9.31C6.27 9.19 6.23 9.08 6.19 8.96C6.14 8.84 6.08 8.74 6.01 8.63C5.94 8.52 5.85 8.42 5.75 8.32C5.66 8.22 5.55 8.14 5.44 8.06C5.34 7.99 5.23 7.94 5.11 7.89C5.07 7.87 5.02 7.85 4.97 7.83C4.99 7.68 5.02 7.52 5.05 7.37C5.12 7.08 5.21 6.8 5.33 6.52C5.45 6.24 5.59 5.97 5.75 5.72C5.94 5.43 6.16 5.16 6.41 4.91C6.66 4.66 6.93 4.44 7.22 4.25C7.47 4.09 7.74 3.95 8.02 3.83Q8.44 3.65 8.87 3.55C9.23 3.47 9.61 3.43 10 3.43C10.38 3.43 10.75 3.47 11.11 3.55C11.4 3.62 11.69 3.71 11.97 3.83C12.25 3.95 12.51 4.09 12.77 4.25C13.06 4.44 13.33 4.66 13.58 4.91C13.83 5.16 14.05 5.43 14.24 5.72C14.4 5.98 14.54 6.24 14.66 6.52C14.78 6.8 14.87 7.08 14.94 7.37C14.97 7.52 15 7.68 15.02 7.83C14.97 7.85 14.92 7.87 14.88 7.89C14.76 7.94 14.65 7.99 14.55 8.06C14.44 8.14 14.33 8.22 14.24 8.32C14.14 8.42 14.05 8.52 13.98 8.63C13.91 8.73 13.85 8.84 13.8 8.96C13.76 9.07 13.72 9.19 13.69 9.31C13.66 9.45 13.65 9.6 13.65 9.74L13.65 11.58C13.65 11.72 13.66 11.86 13.69 12C13.72 12.12 13.75 12.24 13.8 12.36C13.85 12.48 13.91 12.59 13.98 12.69C14.05 12.8 14.14 12.91 14.24 13C14.33 13.1 14.44 13.19 14.55 13.26C14.65 13.33 14.76 13.39 14.88 13.44C14.92 13.45 14.96 13.47 15 13.48C15 13.49 15 13.5 15 13.51C14.96 13.66 14.92 13.81 14.85 13.95C14.79 14.1 14.72 14.23 14.64 14.36C14.54 14.52 14.42 14.66 14.29 14.79C14.16 14.92 14.02 15.04 13.86 15.14C13.73 15.22 13.6 15.29 13.45 15.35C13.32 15.41 13.19 15.45 13.06 15.48C12.81 14.94 12.25 14.56 11.61 14.56C10.73 14.56 10.01 15.28 10.01 16.16C10.01 17.05 10.73 17.76 11.61 17.76C12.31 17.76 12.9 17.32 13.12 16.7C13.16 16.69 13.21 16.68 13.25 16.67C13.48 16.62 13.7 16.55 13.92 16.46C14.14 16.37 14.34 16.26 14.53 16.13C14.75 15.99 14.95 15.82 15.14 15.64C15.32 15.45 15.49 15.25 15.63 15.03C15.76 14.84 15.87 14.64 15.96 14.42C16.05 14.2 16.12 13.98 16.17 13.75C16.19 13.67 16.2 13.6 16.22 13.52C16.29 13.49 16.37 13.47 16.45 13.44C16.56 13.39 16.67 13.33 16.77 13.26C16.88 13.19 16.99 13.1 17.09 13C17.19 12.9 17.27 12.8 17.35 12.68C17.41 12.58 17.47 12.48 17.52 12.36C17.57 12.24 17.61 12.12 17.63 12C17.66 11.86 17.68 11.72 17.68 11.58L17.68 9.74C17.68 9.6 17.66 9.45 17.63 9.31C17.61 9.19 17.57 9.08 17.52 8.96C17.47 8.84 17.41 8.74 17.35 8.63C17.27 8.52 17.18 8.42 17.09 8.32C16.99 8.22 16.88 8.14 16.77 8.06C16.67 7.99 16.56 7.94 16.45 7.89C16.37 7.86 16.3 7.83 16.23 7.81Q16.19 7.47 16.11 7.14L16.11 7.14L16.11 7.13C16.03 6.77 15.92 6.41 15.77 6.06C15.62 5.7 15.44 5.37 15.23 5.05C15 4.7 14.73 4.37 14.43 4.06C14.12 3.76 13.79 3.49 13.44 3.26C13.12 3.05 12.79 2.87 12.43 2.72C12.08 2.57 11.72 2.46 11.35 2.37C10.91 2.28 10.46 2.23 10 2.23C9.53 2.23 9.07 2.28 8.63 2.38C8.26 2.46 7.91 2.57 7.56 2.72C7.2 2.87 6.87 3.05 6.55 3.26C6.2 3.49 5.87 3.76 5.56 4.06C5.26 4.37 4.99 4.7 4.76 5.05C4.55 5.37 4.37 5.7 4.22 6.06Q4 6.58 3.88 7.12L3.88 7.12Q3.88 7.12 3.88 7.13ZM4.33 12.39C4.39 12.39 4.45 12.39 4.51 12.38C4.55 12.36 4.6 12.35 4.64 12.33C4.69 12.31 4.73 12.29 4.76 12.27C4.81 12.24 4.86 12.2 4.9 12.15C4.95 12.11 4.99 12.06 5.02 12.01C5.04 11.98 5.06 11.94 5.08 11.89C5.1 11.85 5.11 11.8 5.13 11.76C5.14 11.7 5.15 11.64 5.15 11.58L5.15 9.74C5.15 9.68 5.14 9.62 5.12 9.55C5.11 9.51 5.1 9.47 5.08 9.43C5.06 9.38 5.04 9.34 5.02 9.31C4.98 9.26 4.95 9.21 4.91 9.17C4.86 9.13 4.82 9.09 4.77 9.06C4.73 9.03 4.69 9.01 4.65 8.99C4.6 8.97 4.56 8.96 4.51 8.95C4.45 8.94 4.39 8.93 4.33 8.93C4.26 8.93 4.19 8.94 4.13 8.95C4.09 8.96 4.05 8.98 4.01 8.99C3.97 9.01 3.92 9.03 3.88 9.06C3.84 9.09 3.79 9.13 3.75 9.17C3.71 9.21 3.67 9.25 3.64 9.3C3.62 9.34 3.59 9.38 3.58 9.43C3.56 9.47 3.55 9.51 3.54 9.55C3.52 9.61 3.51 9.68 3.51 9.74L3.51 11.58C3.51 11.64 3.52 11.7 3.53 11.76C3.54 11.81 3.56 11.85 3.58 11.9C3.59 11.94 3.62 11.98 3.64 12.02C3.67 12.07 3.71 12.11 3.75 12.16C3.79 12.2 3.84 12.24 3.89 12.27C3.93 12.29 3.97 12.31 4.01 12.33C4.05 12.35 4.09 12.36 4.14 12.37L4.14 12.37Q4.23 12.39 4.33 12.39ZM15.84 12.38C15.78 12.39 15.72 12.39 15.66 12.39C15.6 12.39 15.53 12.39 15.47 12.37C15.43 12.36 15.39 12.35 15.34 12.33C15.3 12.31 15.26 12.29 15.22 12.27C15.17 12.24 15.13 12.2 15.08 12.16C15.04 12.11 15.01 12.07 14.97 12.02C14.95 11.98 14.93 11.94 14.91 11.9C14.89 11.85 14.88 11.81 14.87 11.76C14.85 11.7 14.85 11.64 14.85 11.58L14.85 9.74C14.85 9.68 14.85 9.61 14.87 9.55C14.88 9.51 14.89 9.47 14.91 9.43C14.93 9.38 14.95 9.34 14.98 9.3C15.01 9.25 15.04 9.21 15.08 9.17C15.13 9.13 15.17 9.09 15.22 9.06C15.26 9.03 15.3 9.01 15.34 8.99C15.38 8.98 15.42 8.96 15.46 8.95C15.53 8.94 15.59 8.93 15.66 8.93C15.73 8.93 15.79 8.94 15.85 8.95C15.89 8.96 15.94 8.97 15.98 8.99C16.02 9.01 16.06 9.03 16.1 9.06C16.15 9.09 16.2 9.13 16.24 9.17C16.28 9.21 16.32 9.26 16.35 9.31C16.37 9.34 16.4 9.38 16.41 9.43C16.43 9.47 16.45 9.51 16.46 9.55C16.47 9.62 16.48 9.68 16.48 9.74L16.48 11.58C16.48 11.64 16.47 11.7 16.46 11.76C16.45 11.8 16.43 11.85 16.41 11.89C16.4 11.94 16.38 11.98 16.35 12.01C16.32 12.06 16.28 12.11 16.24 12.15C16.19 12.2 16.15 12.24 16.1 12.27C16.06 12.29 16.02 12.31 15.98 12.33C15.93 12.35 15.89 12.36 15.84 12.38ZM11.61 15.76C11.39 15.76 11.21 15.94 11.21 16.16C11.21 16.38 11.39 16.56 11.61 16.56C11.83 16.56 12.01 16.38 12.01 16.16C12.01 15.94 11.83 15.76 11.61 15.76Z" fill="#191919" fill-opacity="1.000000" fill-rule="evenodd"/>
	</g>
</svg>
