<?xml version="1.0" encoding="UTF-8"?>
<svg width="40px" height="40px" viewBox="0 0 40 40" version="1.1" xmlns="http://www.w3.org/2000/svg" xmlns:xlink="http://www.w3.org/1999/xlink">
    <title>画板备份</title>
    <defs>
        <path d="M1.2823403,0.189219417 L1.31524592,0.219494523 L8.47397876,6.75351957 C9.16078327,7.42301887 9.1750917,8.4998256 8.51690404,9.18629605 L8.47397876,9.22957553 L1.31405144,15.7766082 C1.18178416,15.9055427 1.01335754,15.9777461 0.840591783,15.9932183 L0.793390176,15.9960314 L0.746116848,15.9960314 C0.557071351,15.9904051 0.369747158,15.9172641 0.225455584,15.7766082 C-0.0644158811,15.4940405 -0.0747684334,15.042178 0.194397927,14.7475178 L0.225455584,14.7154413 L7.02251762,8.52213097 C7.31238908,8.2395633 7.32274163,7.78770078 7.05357527,7.49304063 L7.02251762,7.46096413 L0.226650064,1.28066136 C-0.0739573811,0.987628231 -0.0739573811,0.512527654 0.226650064,0.219494523 C0.371585797,0.0782106922 0.559939226,0.00504585111 0.749843287,0 L0.797327379,0 C0.971376489,0.00593938724 1.1437969,0.0689599651 1.2823403,0.189219417 Z" id="path-1"></path>
    </defs>
    <g id="画板备份" stroke="none" stroke-width="1" fill="none" fill-rule="evenodd">
        <g id="hwid_next_ic_appback" transform="translate(15.000000, 12.000000)">
            <g id="Public/Icon/Symbol/Color/Light/Primary-Clipped" transform="translate(4.500021, 7.998016) scale(-1, 1) translate(-4.500021, -7.998016) translate(-0.000000, -0.000000)">
                <mask id="mask-2" fill="white">
                    <use xlink:href="#path-1"></use>
                </mask>
                <g id="path-1"></g>
                <g id="Public/Icon/Symbol/Color/Light/Primary" mask="url(#mask-2)" fill-opacity="0.901960784">
                    <g transform="translate(-7.499958, -4.004794)" id="矩形">
                        <rect fill="#000000" fill-rule="nonzero" x="0" y="0" width="24" height="24"></rect>
                    </g>
                </g>
            </g>
        </g>
    </g>
</svg>