<svg width="16.000000" height="16.000000" viewBox="0 0 16 16" fill="none" xmlns="http://www.w3.org/2000/svg" xmlns:xlink="http://www.w3.org/1999/xlink">
	<desc>
			Created with Pixso.
	</desc>
	<defs>
		<clipPath id="clip172_8458">
			<rect width="16.000000" height="16.000000" fill="white" fill-opacity="0"/>
		</clipPath>
	</defs>
	<g clip-path="url(#clip172_8458)">
		<path d="M0.5 7.99C0.5 6.82 0.49 5.65 0.5 4.47C0.49 3.91 0.56 3.34 0.7 2.79C1.01 1.63 1.77 0.94 2.93 0.67C3.51 0.55 4.11 0.49 4.7 0.5C6.95 0.5 9.2 0.5 11.45 0.5C12.01 0.49 12.58 0.56 13.13 0.69C14.33 0.98 15.05 1.74 15.32 2.93C15.44 3.5 15.5 4.07 15.49 4.65C15.49 6.92 15.49 9.19 15.49 11.46C15.5 12.03 15.43 12.59 15.3 13.13C15.01 14.33 14.25 15.04 13.05 15.32C12.47 15.44 11.88 15.5 11.28 15.49C9.04 15.49 6.81 15.49 4.57 15.49C4 15.5 3.43 15.43 2.87 15.3C1.67 15.01 0.95 14.25 0.67 13.05C0.53 12.44 0.5 11.83 0.5 11.21C0.5 10.14 0.5 9.06 0.5 7.99Z" fill="#FFFFFF" fill-opacity="0" fill-rule="nonzero"/>
		<path d="M0.5 4.47C0.49 3.91 0.56 3.34 0.7 2.79C1.01 1.63 1.77 0.94 2.93 0.67C3.51 0.55 4.11 0.49 4.7 0.5C6.95 0.5 9.2 0.5 11.45 0.5C12.01 0.49 12.58 0.56 13.13 0.69C14.33 0.98 15.05 1.74 15.32 2.93C15.44 3.5 15.5 4.07 15.49 4.65C15.49 6.92 15.49 9.19 15.49 11.46C15.5 12.03 15.43 12.59 15.3 13.13C15.01 14.33 14.25 15.04 13.05 15.32C12.47 15.44 11.88 15.5 11.28 15.49C9.04 15.49 6.81 15.49 4.57 15.49C4 15.5 3.43 15.43 2.87 15.3C1.67 15.01 0.95 14.25 0.67 13.05C0.53 12.44 0.5 11.83 0.5 11.21C0.5 10.14 0.5 9.06 0.5 7.99C0.5 6.82 0.49 5.65 0.5 4.47Z" stroke="#FFFFFF" stroke-opacity="0" stroke-width="1.500000"/>
		<g opacity="0.200000">
			<path d="M0.5 7.99C0.5 6.82 0.49 5.65 0.5 4.47C0.49 3.91 0.56 3.34 0.7 2.79C1.01 1.63 1.77 0.94 2.93 0.67C3.51 0.55 4.11 0.49 4.7 0.5C6.95 0.5 9.2 0.5 11.45 0.5C12.01 0.49 12.58 0.56 13.13 0.69C14.33 0.98 15.05 1.74 15.32 2.93C15.44 3.5 15.5 4.07 15.49 4.65C15.49 6.92 15.49 9.19 15.49 11.46C15.5 12.03 15.43 12.59 15.3 13.13C15.01 14.33 14.25 15.04 13.05 15.32C12.47 15.44 11.88 15.5 11.28 15.49C9.04 15.49 6.81 15.49 4.57 15.49C4 15.5 3.43 15.43 2.87 15.3C1.67 15.01 0.95 14.25 0.67 13.05C0.53 12.44 0.5 11.83 0.5 11.21C0.5 10.14 0.5 9.06 0.5 7.99Z" fill="#000000" fill-opacity="0" fill-rule="nonzero"/>
			<path d="M0.5 4.47C0.49 3.91 0.56 3.34 0.7 2.79C1.01 1.63 1.77 0.94 2.93 0.67C3.51 0.55 4.11 0.49 4.7 0.5C6.95 0.5 9.2 0.5 11.45 0.5C12.01 0.49 12.58 0.56 13.13 0.69C14.33 0.98 15.05 1.74 15.32 2.93C15.44 3.5 15.5 4.07 15.49 4.65C15.49 6.92 15.49 9.19 15.49 11.46C15.5 12.03 15.43 12.59 15.3 13.13C15.01 14.33 14.25 15.04 13.05 15.32C12.47 15.44 11.88 15.5 11.28 15.49C9.04 15.49 6.81 15.49 4.57 15.49C4 15.5 3.43 15.43 2.87 15.3C1.67 15.01 0.95 14.25 0.67 13.05C0.53 12.44 0.5 11.83 0.5 11.21C0.5 10.14 0.5 9.06 0.5 7.99C0.5 6.82 0.49 5.65 0.5 4.47Z" stroke="#FFFFFF" stroke-opacity="0" stroke-width="1.500000"/>
		</g>
		<circle cx="8.000000" cy="8.000000" r="8.000000" fill="#FFFFFF" fill-opacity="0"/>
		<circle cx="8.000000" cy="8.000000" r="8.000000" stroke="#000000" stroke-opacity="0" stroke-width="1.500000"/>
		<path d="M10.28 9.02L10.26 9C10.26 8.57 10.59 8.25 11.01 8.25C11.43 8.25 11.76 8.57 11.76 9L11.74 9.02L10.28 9.02ZM7.35 13.39L7.33 13.41C6.91 13.41 6.58 13.08 6.58 12.66C6.58 12.24 6.91 11.91 7.33 11.91L7.35 11.93L7.35 13.39ZM1.39 10.64L1.41 10.66C1.41 11.08 1.08 11.41 0.66 11.41C0.24 11.41 -0.09 11.08 -0.09 10.66L-0.07 10.64L1.39 10.64ZM11.74 4.64L11.76 4.66C11.76 5.08 11.43 5.41 11.01 5.41C10.59 5.41 10.26 5.08 10.26 4.66L10.28 4.64L11.74 4.64Z" fill="#000000" fill-opacity="0" fill-rule="nonzero"/>
		<path d="M11.01 9L11.01 10.66C11.01 11.77 10.11 12.66 9.01 12.66C8.32 12.66 7.67 12.66 7.33 12.66M0.66 10.66L0.66 2.66C0.66 1.56 1.56 0.66 2.66 0.66L9.01 0.66C10.11 0.66 11.01 1.56 11.01 2.66L11.01 4.66" stroke="#E84026" stroke-opacity="1.000000" stroke-width="1.500000" stroke-linejoin="round" stroke-linecap="round"/>
		<path d="M3.15 3.73L3.13 3.75C2.73 3.62 2.51 3.21 2.63 2.81C2.75 2.41 3.16 2.19 3.56 2.31L3.57 2.33L3.15 3.73ZM-0.07 4.63L-0.09 4.61C-0.09 4.19 0.24 3.86 0.66 3.86C1.08 3.86 1.41 4.19 1.41 4.61L1.39 4.63L-0.07 4.63Z" fill="#000000" fill-opacity="0" fill-rule="nonzero"/>
		<path d="M3.34 3.03C5.36 3.63 6.41 3.96 6.5 4C7.02 4.27 7.33 4.65 7.33 5.32L7.33 13.99C7.33 14.72 6.74 15.32 6.01 15.32C5.87 15.32 5.72 15.3 5.59 15.25L1.57 13.9C1.03 13.72 0.66 13.21 0.66 12.63L0.66 4.61" stroke="#E84026" stroke-opacity="1.000000" stroke-width="1.500000" stroke-linejoin="round" stroke-linecap="round"/>
		<path d="M12.61 5.31L12.58 5.31C12.29 5.01 12.29 4.55 12.58 4.25C12.88 3.95 13.35 3.95 13.64 4.25L13.64 4.28L12.61 5.31ZM13.64 9.38L13.64 9.41C13.35 9.7 12.88 9.7 12.58 9.41C12.29 9.11 12.29 8.64 12.58 8.35L12.61 8.35L13.64 9.38ZM10.18 7.56L10.16 7.58C9.74 7.58 9.41 7.25 9.41 6.83C9.41 6.41 9.74 6.08 10.16 6.08L10.18 6.1L10.18 7.56Z" fill="#000000" fill-opacity="0" fill-rule="nonzero"/>
		<path d="M13.11 8.88L15.16 6.83L13.11 4.78M15.16 6.83L10.16 6.83" stroke="#E84026" stroke-opacity="1.000000" stroke-width="1.500000" stroke-linejoin="round" stroke-linecap="round"/>
		<path d="M9.01 0.66C10.21 0.66 11.18 1.63 11.18 2.83L11.18 4.5C11.18 4.59 11.1 4.66 11.01 4.66C10.92 4.66 10.84 4.59 10.84 4.5L10.84 2.83C10.84 1.82 10.02 1 9.01 1L2.83 1C1.98 1 1.27 1.57 1.06 2.35C4.03 3.22 5.82 3.76 6.37 3.94L6.43 3.96C6.48 3.97 6.51 3.99 6.53 3.99C7.06 4.26 7.39 4.65 7.39 5.32L7.39 12.66L9.01 12.66C10.02 12.66 10.84 11.84 10.84 10.83L10.84 9.16C10.84 9.07 10.92 9 11.01 9C11.1 9 11.18 9.07 11.18 9.16L11.18 10.83C11.18 12.02 10.21 13 9.01 13L7.39 13L7.39 13.99C7.39 14.72 6.79 15.32 6.06 15.32C5.91 15.32 5.77 15.3 5.63 15.25L1.57 13.9C1.03 13.72 0.66 13.21 0.66 12.63L0.66 2.67C0.66 2.64 0.67 2.6 0.68 2.57C0.8 1.5 1.72 0.66 2.83 0.66L9.01 0.66Z" fill="#FFFFFF" fill-opacity="0" fill-rule="evenodd"/>
		<path d="M11.18 2.83L11.18 4.5C11.18 4.59 11.1 4.66 11.01 4.66C10.92 4.66 10.84 4.59 10.84 4.5L10.84 2.83C10.84 1.82 10.02 1 9.01 1L2.83 1C1.98 1 1.27 1.57 1.06 2.35C4.03 3.22 5.82 3.76 6.37 3.94L6.43 3.96C6.48 3.97 6.51 3.99 6.53 3.99C7.06 4.26 7.39 4.65 7.39 5.32L7.39 12.66L9.01 12.66C10.02 12.66 10.84 11.84 10.84 10.83L10.84 9.16C10.84 9.07 10.92 9 11.01 9C11.1 9 11.18 9.07 11.18 9.16L11.18 10.83C11.18 12.02 10.21 13 9.01 13L7.39 13L7.39 13.99C7.39 14.72 6.79 15.32 6.06 15.32C5.91 15.32 5.77 15.3 5.63 15.25L1.57 13.9C1.03 13.72 0.66 13.21 0.66 12.63L0.66 2.67C0.66 2.64 0.67 2.6 0.68 2.57C0.8 1.5 1.72 0.66 2.83 0.66L9.01 0.66C10.21 0.66 11.18 1.63 11.18 2.83Z" stroke="#FFFFFF" stroke-opacity="0" stroke-width="1.500000" stroke-linejoin="round"/>
		<path d="M15.33 6.85L15.32 6.89L15.3 6.92L13.23 9C13.17 9.06 13.06 9.06 13 9C12.93 8.93 12.93 8.82 13 8.76L14.76 6.99L10.16 7C10.08 7 10.01 6.94 10 6.86C10 6.77 10.07 6.66 10.16 6.66L14.76 6.66L13 4.9C12.94 4.84 12.93 4.75 12.98 4.68C13.04 4.62 13.17 4.6 13.23 4.66L15.28 6.71L15.31 6.74L15.32 6.78L15.33 6.81L15.33 6.85Z" fill="#FFFFFF" fill-opacity="0" fill-rule="nonzero"/>
		<path d="M15.32 6.89L15.3 6.92L13.23 9C13.17 9.06 13.06 9.06 13 9C12.93 8.93 12.93 8.82 13 8.76L14.76 6.99L10.16 7C10.08 7 10.01 6.94 10 6.86C10 6.77 10.07 6.66 10.16 6.66L14.76 6.66L13 4.9C12.94 4.84 12.93 4.75 12.98 4.68C13.04 4.62 13.17 4.6 13.23 4.66L15.28 6.71L15.31 6.74L15.32 6.78L15.33 6.81L15.33 6.85L15.32 6.89Z" stroke="#FFFFFF" stroke-opacity="0" stroke-width="1.500000" stroke-linejoin="round"/>
	</g>
</svg>
