<svg width="14.000000" height="14.000000" viewBox="0 0 14 14" fill="none" xmlns="http://www.w3.org/2000/svg" xmlns:xlink="http://www.w3.org/1999/xlink">
	<desc>
			Created with Pixso.
	</desc>
	<defs>
		<clipPath id="clip172_8468">
			<rect width="14.000000" height="14.000000" fill="white" fill-opacity="0"/>
		</clipPath>
	</defs>
	<g clip-path="url(#clip172_8468)">
		<path d="M6.13 7.87L7.86 7.87C10.44 7.87 12.54 9.96 12.54 12.55C12.54 13.02 12.15 13.41 11.67 13.41L2.32 13.41C1.84 13.41 1.45 13.02 1.45 12.55C1.45 9.96 3.54 7.87 6.13 7.87Z" fill="#FFFFFF" fill-opacity="0" fill-rule="evenodd"/>
		<path d="M7.86 6.87C10.44 6.87 12.54 8.96 12.54 11.55C12.54 12.02 12.15 12.41 11.67 12.41L2.32 12.41C1.84 12.41 1.45 12.02 1.45 11.55C1.45 8.96 3.54 6.87 6.13 6.87L7.86 6.87Z" fill="#000000" fill-opacity="0" fill-rule="nonzero"/>
		<path d="M12.54 11.55C12.54 8.96 10.44 6.87 7.86 6.87L6.13 6.87C3.54 6.87 1.45 8.96 1.45 11.55C1.45 12.02 1.84 12.41 2.32 12.41L11.67 12.41C12.15 12.41 12.54 12.02 12.54 11.55ZM11.53 11.41Q11.52 11.05 11.44 10.71Q11.37 10.41 11.25 10.11Q11.12 9.81 10.94 9.54Q10.73 9.22 10.46 8.95Q10.19 8.67 9.87 8.47Q9.6 8.29 9.29 8.16Q9 8.04 8.69 7.96Q8.29 7.87 7.86 7.87L6.13 7.87Q5.7 7.87 5.29 7.97Q4.99 8.04 4.7 8.16Q4.39 8.29 4.12 8.47Q3.8 8.67 3.53 8.95Q3.26 9.22 3.05 9.53Q2.87 9.81 2.74 10.11Q2.62 10.4 2.55 10.71Q2.47 11.05 2.46 11.41L11.53 11.41Z" fill="#E84026" fill-opacity="1.000000" fill-rule="evenodd"/>
		<circle cx="7.000000" cy="3.354248" r="2.770833" fill="#FFFFFF" fill-opacity="0"/>
		<circle cx="7.000000" cy="3.354248" r="2.770833" fill="#000000" fill-opacity="0"/>
		<circle cx="7.000000" cy="3.354248" r="2.270833" stroke="#E84026" stroke-opacity="1.000000" stroke-width="1.000000" stroke-linejoin="round" style=""/>
	</g>
</svg>
