<?xml version="1.0" standalone="no"?>
<svg xmlns="http://www.w3.org/2000/svg" width="48" height="48"><rect width="48" height="48" opacity="0"></rect><g mask="url(#hms_mask_0)"><path d="M3.02 24Q3.02 29.71 5.83 34.51Q8.64 39.31 13.46 42.14Q18.29 44.98 24 44.98Q29.71 44.98 34.54 42.14Q39.36 39.31 42.19 34.49Q45.02 29.66 45.02 24Q45.02 18.29 42.19 13.46Q39.36 8.64 34.54 5.81Q29.71 2.98 24 2.98Q18.29 2.98 13.46 5.81Q8.64 8.64 5.83 13.46Q3.02 18.29 3.02 24Z" fill="rgba(214,214,214,1)"></path></g><defs><mask id="hms_mask_0"><rect width="48" height="48" fill="#ffffff"></rect><g><path d="M11.04 35.81Q11.81 33.46 13.66 31.63Q15.5 29.81 17.93 28.8Q20.35 27.79 22.8 27.79L25.2 27.79Q27.65 27.79 30.07 28.8Q32.5 29.81 34.32 31.63Q36.14 33.46 36.91 35.81Q34.37 38.59 31.06 40.06Q27.74 41.52 24 41.52Q20.16 41.52 16.85 40.03Q13.54 38.54 11.04 35.81ZM19.3 12.96Q21.26 10.99 23.98 11.02Q26.69 11.04 28.66 13.01Q30.62 14.98 30.65 17.69Q30.67 20.4 28.7 22.37Q26.74 24.34 24.02 24.31Q21.31 24.29 19.34 22.32Q17.38 20.35 17.35 17.64Q17.33 14.93 19.3 12.96Z" fill="#000000"></path></g></mask></defs></svg>