<svg width="14.000000" height="14.000000" viewBox="0 0 14 14" fill="none" xmlns="http://www.w3.org/2000/svg" xmlns:xlink="http://www.w3.org/1999/xlink">
	<desc>
			Created with Pixso.
	</desc>
	<defs>
		<clipPath id="clip77_145">
			<rect width="14.000000" height="14.000000" fill="white" fill-opacity="0"/>
		</clipPath>
		<clipPath id="clip77_126">
			<rect width="14.000000" height="14.000000" fill="white" fill-opacity="0"/>
		</clipPath>
	</defs>
	<g clip-path="url(#clip77_126)">
		<g clip-path="url(#clip77_145)">
			<g opacity="0.000000">
				<rect width="14.000000" height="14.000000" fill="#D8D8D8" fill-opacity="1.000000"/>
				<rect width="14.000000" height="14.000000" stroke="#000000" stroke-opacity="0" stroke-width="1.000000"/>
			</g>
			<path d="M6.99 12.22C6.97 12.22 6.94 12.22 6.93 12.22C6.92 12.22 6.86 12.2 6.85 12.2C6.84 12.19 6.78 12.17 6.77 12.16L6.66 12.09L6.52 12L6.35 11.88L6.06 11.67L5.84 11.51L5.48 11.24L5.24 11.04L4.86 10.74L4.61 10.53L4.49 10.42C2.98 9.09 1.86 7.73 1.37 6.38C0.72 4.6 1.64 2.62 3.42 1.98C4.85 1.46 6.44 1.94 7.34 3.13C7.49 3.33 7.45 3.6 7.26 3.75C7.07 3.89 6.79 3.85 6.65 3.66C5.97 2.77 4.79 2.41 3.72 2.8C2.39 3.28 1.71 4.75 2.19 6.08C2.62 7.26 3.65 8.52 5.07 9.76L5.3 9.96L5.66 10.26L5.9 10.45L6.13 10.63L6.45 10.88L6.74 11.09L6.99 11.26L7.16 11.15L7.41 10.97C7.91 10.61 8.42 10.2 8.92 9.76C10.34 8.52 11.37 7.26 11.8 6.08C12.28 4.75 11.6 3.28 10.27 2.8C9.64 2.57 8.91 2.62 8.32 2.88C8.09 2.97 7.84 2.87 7.74 2.65C7.65 2.43 7.75 2.17 7.97 2.07C8.77 1.73 9.73 1.67 10.57 1.98C12.35 2.62 13.27 4.6 12.62 6.38C12.13 7.73 11.01 9.09 9.5 10.42L9.18 10.69L8.87 10.95C8.82 10.99 8.77 11.03 8.72 11.07L8.42 11.31C8.37 11.35 8.32 11.38 8.27 11.42L8 11.63L7.74 11.81C7.7 11.84 7.66 11.87 7.62 11.89L7.41 12.04C7.34 12.08 7.28 12.12 7.23 12.16C7.21 12.17 7.18 12.18 7.16 12.19C7.12 12.21 7.03 12.22 6.99 12.22Z" fill="#191919" fill-opacity="1.000000" fill-rule="evenodd"/>
			<path d="M6.93 12.22C6.92 12.22 6.86 12.2 6.85 12.2C6.84 12.19 6.78 12.17 6.77 12.16L6.66 12.09L6.52 12L6.35 11.88L6.06 11.67L5.84 11.51L5.48 11.24L5.24 11.04L4.86 10.74L4.61 10.53L4.49 10.42C2.98 9.09 1.86 7.73 1.37 6.38C0.72 4.6 1.64 2.62 3.42 1.98C4.85 1.46 6.44 1.94 7.34 3.13C7.49 3.33 7.45 3.6 7.26 3.75C7.07 3.89 6.79 3.85 6.65 3.66C5.97 2.77 4.79 2.41 3.72 2.8C2.39 3.28 1.71 4.75 2.19 6.08C2.62 7.26 3.65 8.52 5.07 9.76L5.3 9.96L5.66 10.26L5.9 10.45L6.13 10.63L6.45 10.88L6.74 11.09L6.99 11.26L7.16 11.15L7.41 10.97C7.91 10.61 8.42 10.2 8.92 9.76C10.34 8.52 11.37 7.26 11.8 6.08C12.28 4.75 11.6 3.28 10.27 2.8C9.64 2.57 8.91 2.62 8.32 2.88C8.09 2.97 7.84 2.87 7.74 2.65C7.65 2.43 7.75 2.17 7.97 2.07C8.77 1.73 9.73 1.67 10.57 1.98C12.35 2.62 13.27 4.6 12.62 6.38C12.13 7.73 11.01 9.09 9.5 10.42L9.18 10.69L8.87 10.95C8.82 10.99 8.77 11.03 8.72 11.07L8.42 11.31C8.37 11.35 8.32 11.38 8.27 11.42L8 11.63L7.74 11.81C7.7 11.84 7.66 11.87 7.62 11.89L7.41 12.04C7.34 12.08 7.28 12.12 7.23 12.16C7.21 12.17 7.18 12.18 7.16 12.19C7.12 12.21 7.03 12.22 6.99 12.22C6.97 12.22 6.94 12.22 6.93 12.22Z" stroke="#000000" stroke-opacity="0" stroke-width="1.000000"/>
		</g>
	</g>
</svg>
