<svg width="24.000000" height="24.000000" viewBox="0 0 24 24" fill="none" xmlns="http://www.w3.org/2000/svg" xmlns:xlink="http://www.w3.org/1999/xlink">
	<desc>
			Created with Pixso.
	</desc>
	<defs>
		<clipPath id="clip10_5">
			<rect width="24.000000" height="24.000000" fill="white" fill-opacity="0"/>
		</clipPath>
	</defs>
	<g clip-path="url(#clip10_5)">
		<g opacity="0.000000">
			<rect width="24.000000" height="24.000000" fill="#333333" fill-opacity="1.000000"/>
			<rect width="24.000000" height="24.000000" stroke="#000000" stroke-opacity="0" stroke-width="1.000000"/>
		</g>
		<path d="M14.86 20.24C14.32 21.28 13.24 22 12 22C10.75 22 9.67 21.28 9.13 20.24L14.86 20.24ZM12 1.99C12.38 1.99 12.69 2.28 12.74 2.64L12.75 2.74L12.75 3.04C15.84 3.41 18.25 6.05 18.25 9.25L18.25 11.25C18.25 12.55 18.45 13.9 18.97 15.31C19.19 15.92 19.45 16.36 19.82 16.83L20.4 17.55C20.47 17.64 20.53 17.71 20.6 17.8C20.97 18.29 20.61 19 20 19L4 19C3.38 19 3.03 18.3 3.39 17.8C3.47 17.69 3.56 17.58 3.67 17.44L4.17 16.81C4.54 16.31 4.81 15.84 5.04 15.19C5.52 13.83 5.73 12.51 5.75 11.25L5.75 9.25C5.75 6.05 8.15 3.41 11.24 3.04L11.25 2.74C11.25 2.33 11.58 1.99 12 1.99ZM12 4.5C9.37 4.5 7.25 6.62 7.25 9.25L7.24 11.25C7.23 12.68 7 14.16 6.45 15.7C6.24 16.29 5.99 16.78 5.69 17.25L5.52 17.49L18.44 17.49L18.31 17.31C18.06 16.94 17.85 16.55 17.67 16.1L17.56 15.83C16.98 14.24 16.75 12.71 16.75 11.25L16.75 9.25C16.75 6.62 14.62 4.5 12 4.5Z" fill="#333333" fill-opacity="1.000000" fill-rule="evenodd"/>
		<path d="M12 22C10.75 22 9.67 21.28 9.13 20.24L14.86 20.24C14.32 21.28 13.24 22 12 22ZM12.74 2.64L12.75 2.74L12.75 3.04C15.84 3.41 18.25 6.05 18.25 9.25L18.25 11.25C18.25 12.55 18.45 13.9 18.97 15.31C19.19 15.92 19.45 16.36 19.82 16.83L20.4 17.55C20.47 17.64 20.53 17.71 20.6 17.8C20.97 18.29 20.61 19 20 19L4 19C3.38 19 3.03 18.3 3.39 17.8C3.47 17.69 3.56 17.58 3.67 17.44L4.17 16.81C4.54 16.31 4.81 15.84 5.04 15.19C5.52 13.83 5.73 12.51 5.75 11.25L5.75 9.25C5.75 6.05 8.15 3.41 11.24 3.04L11.25 2.74C11.25 2.33 11.58 1.99 12 1.99C12.38 1.99 12.69 2.28 12.74 2.64ZM7.25 9.25L7.24 11.25C7.23 12.68 7 14.16 6.45 15.7C6.24 16.29 5.99 16.78 5.69 17.25L5.52 17.49L18.44 17.49L18.31 17.31C18.06 16.94 17.85 16.55 17.67 16.1L17.56 15.83C16.98 14.24 16.75 12.71 16.75 11.25L16.75 9.25C16.75 6.62 14.62 4.5 12 4.5C9.37 4.5 7.25 6.62 7.25 9.25Z" stroke="#000000" stroke-opacity="0" stroke-width="1.000000"/>
	</g>
</svg>
