<svg width="14.000000" height="14.000000" viewBox="0 0 14 14" fill="none" xmlns="http://www.w3.org/2000/svg" xmlns:xlink="http://www.w3.org/1999/xlink">
	<desc>
			Created with Pixso.
	</desc>
	<defs>
		<clipPath id="clip77_140">
			<rect width="14.000000" height="14.000000" fill="white" fill-opacity="0"/>
		</clipPath>
		<clipPath id="clip77_119">
			<rect width="14.000000" height="14.000000" fill="white" fill-opacity="0"/>
		</clipPath>
	</defs>
	<g clip-path="url(#clip77_119)">
		<g clip-path="url(#clip77_140)">
			<g opacity="0.000000">
				<rect width="14.000000" height="14.000000" fill="#D8D8D8" fill-opacity="1.000000"/>
				<rect width="14.000000" height="14.000000" stroke="#000000" stroke-opacity="0" stroke-width="1.000000"/>
			</g>
			<path d="M10.48 1.76C11.41 1.76 12.18 2.49 12.23 3.41L12.23 3.51L12.23 9.02C12.23 9.27 12.04 9.46 11.79 9.46C11.65 9.46 11.53 9.39 11.45 9.29L9.55 7.39C9.29 7.13 8.87 7.11 8.58 7.34L8.52 7.39L5.28 10.64C5.11 10.81 4.83 10.82 4.64 10.66C4.47 10.51 4.45 10.26 4.6 10.09L7.9 6.78C8.5 6.18 9.46 6.15 10.09 6.7L10.17 6.78L11.36 7.96L11.36 3.51C11.36 3.06 11.01 2.68 10.57 2.64L10.48 2.63L3.51 2.63C3.06 2.63 2.68 2.98 2.64 3.42L2.63 3.51L2.63 10.48C2.63 10.93 2.98 11.31 3.42 11.35L3.51 11.36L10.48 11.36C10.93 11.36 11.31 11.01 11.35 10.57L11.36 10.48C11.36 10.24 11.55 10.04 11.79 10.04C12.04 10.04 12.23 10.24 12.23 10.48C12.23 11.41 11.5 12.18 10.58 12.23L10.48 12.23L3.51 12.23C2.58 12.23 1.81 11.5 1.76 10.58L1.76 10.48L1.76 3.51C1.76 2.58 2.49 1.81 3.4 1.76L3.51 1.76L10.48 1.76ZM5.24 4.52C5.65 4.52 5.97 4.84 5.97 5.25C5.97 5.65 5.65 5.97 5.24 5.97C4.84 5.97 4.52 5.65 4.52 5.25C4.52 4.84 4.84 4.52 5.24 4.52Z" fill="#191919" fill-opacity="1.000000" fill-rule="evenodd"/>
			<path d="M12.23 3.41L12.23 3.51L12.23 9.02C12.23 9.27 12.04 9.46 11.79 9.46C11.65 9.46 11.53 9.39 11.45 9.29L9.55 7.39C9.29 7.13 8.87 7.11 8.58 7.34L8.52 7.39L5.28 10.64C5.11 10.81 4.83 10.82 4.64 10.66C4.47 10.51 4.45 10.26 4.6 10.09L7.9 6.78C8.5 6.18 9.46 6.15 10.09 6.7L10.17 6.78L11.36 7.96L11.36 3.51C11.36 3.06 11.01 2.68 10.57 2.64L10.48 2.63L3.51 2.63C3.06 2.63 2.68 2.98 2.64 3.42L2.63 3.51L2.63 10.48C2.63 10.93 2.98 11.31 3.42 11.35L3.51 11.36L10.48 11.36C10.93 11.36 11.31 11.01 11.35 10.57L11.36 10.48C11.36 10.24 11.55 10.04 11.79 10.04C12.04 10.04 12.23 10.24 12.23 10.48C12.23 11.41 11.5 12.18 10.58 12.23L10.48 12.23L3.51 12.23C2.58 12.23 1.81 11.5 1.76 10.58L1.76 10.48L1.76 3.51C1.76 2.58 2.49 1.81 3.4 1.76L3.51 1.76L10.48 1.76C11.41 1.76 12.18 2.49 12.23 3.41ZM5.97 5.25C5.97 5.65 5.65 5.97 5.24 5.97C4.84 5.97 4.52 5.65 4.52 5.25C4.52 4.84 4.84 4.52 5.24 4.52C5.65 4.52 5.97 4.84 5.97 5.25Z" stroke="#000000" stroke-opacity="0" stroke-width="1.000000"/>
		</g>
	</g>
</svg>
