<svg width="11.800049" height="11.800049" viewBox="0 0 11.8 11.8" fill="none" xmlns="http://www.w3.org/2000/svg" xmlns:xlink="http://www.w3.org/1999/xlink">
	<desc>
			Created with Pixso.
	</desc>
	<defs/>
	<path d="M7.59 5.19L7.59 5.78C7.59 5.91 7.58 6.04 7.55 6.16C7.53 6.27 7.5 6.38 7.45 6.48C7.41 6.59 7.36 6.69 7.29 6.78C7.23 6.88 7.15 6.97 7.06 7.06C6.97 7.15 6.88 7.23 6.78 7.29C6.69 7.36 6.59 7.41 6.48 7.45C6.38 7.5 6.27 7.53 6.16 7.55C6.04 7.58 5.91 7.59 5.78 7.59L1.82 7.59C1.68 7.59 1.55 7.58 1.43 7.55C1.32 7.53 1.21 7.5 1.11 7.45C1 7.41 0.9 7.36 0.81 7.29C0.71 7.23 0.62 7.15 0.53 7.06C0.44 6.97 0.36 6.88 0.3 6.78L0.3 6.78Q0.2 6.64 0.14 6.48C0.09 6.38 0.06 6.27 0.04 6.16C0.01 6.04 0 5.91 0 5.78L0 1.81C0 1.68 0.01 1.55 0.04 1.43C0.06 1.32 0.09 1.21 0.14 1.11C0.18 1 0.23 0.9 0.3 0.81C0.36 0.71 0.44 0.62 0.53 0.53C0.62 0.44 0.71 0.36 0.81 0.3C0.9 0.23 1 0.18 1.11 0.14C1.21 0.09 1.32 0.06 1.43 0.04C1.55 0.01 1.68 0 1.82 0L5.78 0C5.91 0 6.04 0.01 6.16 0.04C6.27 0.06 6.38 0.09 6.48 0.14C6.59 0.18 6.69 0.23 6.78 0.3C6.88 0.36 6.97 0.44 7.06 0.53C7.15 0.62 7.23 0.71 7.29 0.81C7.36 0.9 7.41 1 7.45 1.11C7.5 1.21 7.53 1.32 7.55 1.43C7.58 1.55 7.59 1.68 7.59 1.81L7.59 3.19C7.59 3.47 7.38 3.69 7.09 3.69C6.82 3.69 6.59 3.47 6.59 3.19L6.59 1.81C6.59 1.7 6.57 1.6 6.53 1.5L6.53 1.5Q6.47 1.36 6.35 1.24C6.27 1.16 6.19 1.1 6.09 1.06C5.99 1.02 5.89 1 5.78 1L1.82 1C1.7 1 1.6 1.02 1.5 1.06C1.4 1.1 1.32 1.16 1.24 1.24Q1.12 1.36 1.06 1.5L1.06 1.5C1.02 1.6 1 1.7 1 1.81L1 5.78C1 5.89 1.02 5.99 1.06 6.09C1.1 6.19 1.16 6.27 1.24 6.35C1.32 6.43 1.4 6.49 1.5 6.53C1.6 6.57 1.7 6.59 1.82 6.59L4.2 6.59L4.2 6.02C4.2 5.88 4.21 5.75 4.24 5.63C4.26 5.52 4.29 5.41 4.34 5.31C4.38 5.2 4.43 5.1 4.5 5.01L4.5 5.01Q4.6 4.86 4.73 4.73C4.82 4.64 4.91 4.56 5.01 4.5L5.01 4.5Q5.15 4.4 5.31 4.34C5.41 4.29 5.52 4.26 5.63 4.24C5.75 4.21 5.88 4.19 6.02 4.19L9.98 4.19C10.11 4.19 10.24 4.21 10.36 4.24C10.47 4.26 10.58 4.29 10.68 4.34C10.79 4.38 10.89 4.43 10.98 4.5C11.08 4.56 11.17 4.64 11.26 4.73C11.35 4.82 11.43 4.91 11.49 5.01C11.56 5.1 11.61 5.2 11.65 5.31C11.7 5.41 11.73 5.52 11.75 5.63C11.78 5.75 11.8 5.88 11.8 6.02L11.8 9.97C11.8 10.11 11.78 10.24 11.75 10.36C11.73 10.47 11.7 10.58 11.65 10.68Q11.59 10.84 11.49 10.98L11.49 10.98C11.43 11.08 11.35 11.17 11.26 11.26C11.17 11.35 11.08 11.43 10.98 11.49C10.89 11.56 10.79 11.61 10.68 11.65C10.58 11.7 10.47 11.73 10.36 11.75C10.24 11.78 10.11 11.8 9.98 11.8L6.02 11.8C5.88 11.8 5.75 11.78 5.63 11.75C5.52 11.73 5.41 11.7 5.31 11.65C5.2 11.61 5.1 11.56 5.01 11.49C4.91 11.43 4.82 11.35 4.73 11.26C4.64 11.17 4.56 11.08 4.5 10.98C4.43 10.89 4.38 10.79 4.34 10.68C4.29 10.58 4.26 10.47 4.24 10.36C4.21 10.24 4.2 10.11 4.2 9.97L4.2 8.59C4.2 8.31 4.42 8.09 4.7 8.09C4.98 8.09 5.2 8.31 5.2 8.59L5.2 9.97C5.2 10.09 5.22 10.19 5.26 10.29Q5.32 10.43 5.44 10.55C5.52 10.63 5.6 10.7 5.7 10.74C5.8 10.78 5.9 10.8 6.02 10.8L9.98 10.8C10.09 10.8 10.19 10.78 10.29 10.74C10.39 10.7 10.47 10.63 10.55 10.55Q10.68 10.43 10.74 10.29C10.78 10.19 10.8 10.09 10.8 9.97L10.8 6.02C10.8 5.9 10.78 5.8 10.74 5.7C10.7 5.6 10.64 5.52 10.55 5.44C10.47 5.36 10.39 5.3 10.29 5.26C10.19 5.21 10.09 5.19 9.98 5.19L7.59 5.19ZM6.59 5.19L6.02 5.19C5.9 5.19 5.8 5.21 5.7 5.26L5.7 5.26Q5.56 5.32 5.44 5.44C5.36 5.52 5.3 5.6 5.26 5.7C5.22 5.8 5.2 5.9 5.2 6.02L5.2 6.59L5.78 6.59C5.89 6.59 5.99 6.57 6.09 6.53C6.19 6.49 6.27 6.43 6.35 6.35C6.43 6.27 6.49 6.19 6.53 6.09C6.57 5.99 6.59 5.89 6.59 5.78L6.59 5.19Z" fill="#0A59F7" fill-opacity="1.000000" fill-rule="evenodd"/>
</svg>
