<svg width="28.000000" height="28.000000" viewBox="0 0 28 28" fill="none" xmlns="http://www.w3.org/2000/svg"
>
    <desc>
        Created with Pixso.
    </desc>
    <defs>
        <clipPath id="clip28_5731">
            <rect id="ic_public_message" width="16.000000" height="16.000000" transform="translate(6.000000 6.000000)"
                  fill="white" fill-opacity="0"/>
        </clipPath>
    </defs>
    <circle id="椭圆 1" cx="14.000000" cy="14.000000" r="14.000000" fill="#46B1E3" fill-opacity="1.000000"/>
    <path id="path1"
          d="M6.5 13.99C6.5 12.82 6.49 11.65 6.5 10.47C6.49 9.91 6.56 9.34 6.7 8.79C7.01 7.63 7.77 6.94 8.93 6.67C9.51 6.55 10.11 6.49 10.7 6.5C12.95 6.5 15.2 6.5 17.45 6.5C18.01 6.49 18.58 6.56 19.13 6.69C20.33 6.98 21.05 7.74 21.32 8.93C21.44 9.5 21.5 10.07 21.49 10.65C21.49 12.92 21.49 15.19 21.49 17.46C21.5 18.03 21.43 18.59 21.3 19.13C21.01 20.33 20.25 21.04 19.05 21.32C18.47 21.44 17.88 21.5 17.28 21.49C15.04 21.49 12.81 21.49 10.57 21.49C10 21.5 9.43 21.43 8.87 21.3C7.67 21.01 6.95 20.25 6.67 19.05C6.53 18.44 6.5 17.83 6.5 17.21C6.5 16.14 6.5 15.06 6.5 13.99Z"
          fill="#FFFFFF" fill-opacity="0" fill-rule="nonzero"/>
    <path id="path1"
          d="M6.5 10.47C6.49 9.91 6.56 9.34 6.7 8.79C7.01 7.63 7.77 6.94 8.93 6.67C9.51 6.55 10.11 6.49 10.7 6.5C12.95 6.5 15.2 6.5 17.45 6.5C18.01 6.49 18.58 6.56 19.13 6.69C20.33 6.98 21.05 7.74 21.32 8.93C21.44 9.5 21.5 10.07 21.49 10.65C21.49 12.92 21.49 15.19 21.49 17.46C21.5 18.03 21.43 18.59 21.3 19.13C21.01 20.33 20.25 21.04 19.05 21.32C18.47 21.44 17.88 21.5 17.28 21.49C15.04 21.49 12.81 21.49 10.57 21.49C10 21.5 9.43 21.43 8.87 21.3C7.67 21.01 6.95 20.25 6.67 19.05C6.53 18.44 6.5 17.83 6.5 17.21C6.5 16.14 6.5 15.06 6.5 13.99C6.5 12.82 6.49 11.65 6.5 10.47Z"
          stroke="#FFFFFF" stroke-opacity="0" stroke-width="1.500000"/>
    <path id="path2" opacity="0.200000"
          d="M6.5 13.99C6.5 12.82 6.49 11.65 6.5 10.47C6.49 9.91 6.56 9.34 6.7 8.79C7.01 7.63 7.77 6.94 8.93 6.67C9.51 6.55 10.11 6.49 10.7 6.5C12.95 6.5 15.2 6.5 17.45 6.5C18.01 6.49 18.58 6.56 19.13 6.69C20.33 6.98 21.05 7.74 21.32 8.93C21.44 9.5 21.5 10.07 21.49 10.65C21.49 12.92 21.49 15.19 21.49 17.46C21.5 18.03 21.43 18.59 21.3 19.13C21.01 20.33 20.25 21.04 19.05 21.32C18.47 21.44 17.88 21.5 17.28 21.49C15.04 21.49 12.81 21.49 10.57 21.49C10 21.5 9.43 21.43 8.87 21.3C7.67 21.01 6.95 20.25 6.67 19.05C6.53 18.44 6.5 17.83 6.5 17.21C6.5 16.14 6.5 15.06 6.5 13.99Z"
          fill="#000000" fill-opacity="0" fill-rule="nonzero"/>
    <path id="path2" opacity="0.200000"
          d="M6.5 10.47C6.49 9.91 6.56 9.34 6.7 8.79C7.01 7.63 7.77 6.94 8.93 6.67C9.51 6.55 10.11 6.49 10.7 6.5C12.95 6.5 15.2 6.5 17.45 6.5C18.01 6.49 18.58 6.56 19.13 6.69C20.33 6.98 21.05 7.74 21.32 8.93C21.44 9.5 21.5 10.07 21.49 10.65C21.49 12.92 21.49 15.19 21.49 17.46C21.5 18.03 21.43 18.59 21.3 19.13C21.01 20.33 20.25 21.04 19.05 21.32C18.47 21.44 17.88 21.5 17.28 21.49C15.04 21.49 12.81 21.49 10.57 21.49C10 21.5 9.43 21.43 8.87 21.3C7.67 21.01 6.95 20.25 6.67 19.05C6.53 18.44 6.5 17.83 6.5 17.21C6.5 16.14 6.5 15.06 6.5 13.99C6.5 12.82 6.49 11.65 6.5 10.47Z"
          stroke="#FFFFFF" stroke-opacity="0" stroke-width="1.500000"/>
    <circle id="path3" cx="14.000000" cy="14.000000" r="8.000000" fill="#FFFFFF" fill-opacity="0"/>
    <circle id="path3" cx="14.000000" cy="14.000000" r="8.000000" stroke="#000000" stroke-opacity="0"
            stroke-width="1.500000"/>
    <mask id="mask28_5738" mask-type="alpha" maskUnits="userSpaceOnUse" x="6.000000" y="6.000000" width="16.000000"
          height="16.000000">
        <path id="path-1"
              d="M22 6L22 22L6 22L6 6L22 6ZM17.39 7.8L9 7.8C7.45 7.8 6.19 9.05 6.19 10.6L6.19 19C6.19 20.54 7.45 21.8 9 21.8L17.39 21.8C18.94 21.8 20.2 20.54 20.2 19L20.2 10.6C20.2 9.05 18.94 7.8 17.39 7.8Z"
              fill="#FFFFFF" fill-opacity="1.000000" fill-rule="nonzero"/>
    </mask>
    <g mask="url(#mask28_5738)">
        <path id="path5"
              d="M12.16 7.19L17.43 7.19C19.29 7.19 20.8 8.7 20.8 10.56L20.8 12.63C20.8 14.49 19.29 16 17.43 16L12.16 16C10.3 16 8.8 14.49 8.8 12.63L8.8 10.56C8.8 8.7 10.3 7.19 12.16 7.19Z"
              fill="#000000" fill-opacity="0" fill-rule="evenodd"/>
        <path id="path5"
              d="M17.43 7.19C19.29 7.19 20.8 8.7 20.8 10.56L20.8 12.63C20.8 14.49 19.29 16 17.43 16L12.16 16C10.3 16 8.8 14.49 8.8 12.63L8.8 10.56C8.8 8.7 10.3 7.19 12.16 7.19L17.43 7.19Z"
              stroke="#FFFFFF" stroke-opacity="1.000000" stroke-width="1.500000" stroke-linejoin="round"/>
    </g>
    <mask id="mask28_5743" mask-type="alpha" maskUnits="userSpaceOnUse" x="6.000000" y="6.000000" width="16.000000"
          height="16.000000">
        <path id="path-1"
              d="M22 6L22 22L6 22L6 6L22 6ZM17.39 7.8L9 7.8C7.45 7.8 6.19 9.05 6.19 10.6L6.19 19C6.19 20.54 7.45 21.8 9 21.8L17.39 21.8C18.94 21.8 20.2 20.54 20.2 19L20.2 10.6C20.2 9.05 18.94 7.8 17.39 7.8Z"
              fill="#FFFFFF" fill-opacity="1.000000" fill-rule="nonzero"/>
    </mask>
    <g mask="url(#mask28_5743)">
        <path id="path6"
              d="M12.16 6.8L17.84 6.8C19.69 6.8 21.2 8.3 21.2 10.16L21.2 12.64C21.2 14.49 19.69 16 17.84 16L12.16 16C10.3 16 8.8 14.49 8.8 12.64L8.8 10.16C8.8 8.3 10.3 6.8 12.16 6.8Z"
              fill="#FFFFFF" fill-opacity="0" fill-rule="evenodd"/>
        <path id="path6"
              d="M17.84 6.8C19.69 6.8 21.2 8.3 21.2 10.16L21.2 12.64C21.2 14.49 19.69 16 17.84 16L12.16 16C10.3 16 8.8 14.49 8.8 12.64L8.8 10.16C8.8 8.3 10.3 6.8 12.16 6.8L17.84 6.8Z"
              stroke="#FFFFFF" stroke-opacity="0" stroke-width="1.500000" stroke-linejoin="round"/>
    </g>
    <path id="path7"
          d="M9.19 18C9.11 18 8.97 18 8.8 18C7.69 18 6.8 17.1 6.8 16L6.8 11.2C6.8 10.09 7.69 9.19 8.8 9.19L16.79 9.19C17.9 9.19 18.79 10.09 18.79 11.2L18.79 16C18.79 17.1 17.9 18 16.79 18C14.28 18 13.34 18 12.39 18L9.53 20.51C9.44 20.58 9.32 20.57 9.24 20.49C9.21 20.45 9.19 20.4 9.19 20.35L9.19 18Z"
          fill="#FFFFFF" fill-opacity="0" fill-rule="evenodd"/>
    <path id="path7"
          d="M8.8 18C7.69 18 6.8 17.1 6.8 16L6.8 11.2C6.8 10.09 7.69 9.19 8.8 9.19L16.79 9.19C17.9 9.19 18.79 10.09 18.79 11.2L18.79 16C18.79 17.1 17.9 18 16.79 18C14.28 18 13.34 18 12.39 18L9.53 20.51C9.44 20.58 9.32 20.57 9.24 20.49C9.21 20.45 9.19 20.4 9.19 20.35L9.19 18C9.11 18 8.97 18 8.8 18Z"
          stroke="#FFFFFF" stroke-opacity="1.000000" stroke-width="1.500000" stroke-linejoin="round"/>
    <path id="path8"
          d="M9.21 12.73L9.19 12.75C8.78 12.75 8.44 12.41 8.44 12C8.44 11.58 8.78 11.25 9.19 11.25L9.21 11.27L9.21 12.73ZM16.37 11.27L16.39 11.25C16.82 11.25 17.14 11.58 17.14 12C17.14 12.41 16.82 12.75 16.39 12.75L16.37 12.73L16.37 11.27ZM9.21 15.92L9.19 15.95C8.78 15.95 8.44 15.62 8.44 15.2C8.44 14.78 8.78 14.45 9.19 14.45L9.21 14.47L9.21 15.92ZM12.37 14.47L12.39 14.45C12.82 14.45 13.14 14.78 13.14 15.2C13.14 15.62 12.82 15.95 12.39 15.95L12.37 15.92L12.37 14.47Z"
          fill="#000000" fill-opacity="0" fill-rule="nonzero"/>
    <path id="path8" d="M9.19 12L16.39 12M9.19 15.2L12.39 15.2" stroke="#FFFFFF" stroke-opacity="1.000000"
          stroke-width="1.500000" stroke-linejoin="round" stroke-linecap="round"/>
</svg>
