<svg width="28.000000" height="28.000000" viewBox="0 0 28 28" fill="none" xmlns="http://www.w3.org/2000/svg"
>
    <desc>
        Created with Pixso.
    </desc>
    <defs>
        <clipPath id="clip28_5750">
            <rect id="ic_public_notice" width="16.000000" height="16.000000" transform="translate(6.000000 6.000000)"
                  fill="white" fill-opacity="0"/>
        </clipPath>
    </defs>
    <circle id="椭圆 2" cx="14.000000" cy="14.000000" r="14.000000" fill="#E64566" fill-opacity="1.000000"/>
    <path id="path1"
          d="M6.5 13.99C6.5 12.82 6.49 11.65 6.5 10.47C6.49 9.91 6.56 9.34 6.7 8.79C7.01 7.63 7.77 6.94 8.93 6.67C9.51 6.55 10.11 6.49 10.7 6.5C12.95 6.5 15.2 6.5 17.45 6.5C18.01 6.49 18.58 6.56 19.13 6.69C20.33 6.98 21.05 7.74 21.32 8.93C21.44 9.5 21.5 10.07 21.49 10.65C21.49 12.92 21.49 15.19 21.49 17.46C21.5 18.03 21.43 18.59 21.3 19.13C21.01 20.33 20.25 21.04 19.05 21.32C18.47 21.44 17.88 21.5 17.28 21.49C15.04 21.49 12.81 21.49 10.57 21.49C10 21.5 9.43 21.43 8.87 21.3C7.67 21.01 6.95 20.25 6.67 19.05C6.53 18.44 6.5 17.83 6.5 17.21C6.5 16.14 6.5 15.06 6.5 13.99Z"
          fill="#FFFFFF" fill-opacity="0" fill-rule="nonzero"/>
    <path id="path1"
          d="M6.5 10.47C6.49 9.91 6.56 9.34 6.7 8.79C7.01 7.63 7.77 6.94 8.93 6.67C9.51 6.55 10.11 6.49 10.7 6.5C12.95 6.5 15.2 6.5 17.45 6.5C18.01 6.49 18.58 6.56 19.13 6.69C20.33 6.98 21.05 7.74 21.32 8.93C21.44 9.5 21.5 10.07 21.49 10.65C21.49 12.92 21.49 15.19 21.49 17.46C21.5 18.03 21.43 18.59 21.3 19.13C21.01 20.33 20.25 21.04 19.05 21.32C18.47 21.44 17.88 21.5 17.28 21.49C15.04 21.49 12.81 21.49 10.57 21.49C10 21.5 9.43 21.43 8.87 21.3C7.67 21.01 6.95 20.25 6.67 19.05C6.53 18.44 6.5 17.83 6.5 17.21C6.5 16.14 6.5 15.06 6.5 13.99C6.5 12.82 6.49 11.65 6.5 10.47Z"
          stroke="#FFFFFF" stroke-opacity="0" stroke-width="1.500000"/>
    <g opacity="0.200000">
        <path id="path2"
              d="M6.5 13.99C6.5 12.82 6.49 11.65 6.5 10.47C6.49 9.91 6.56 9.34 6.7 8.79C7.01 7.63 7.77 6.94 8.93 6.67C9.51 6.55 10.11 6.49 10.7 6.5C12.95 6.5 15.2 6.5 17.45 6.5C18.01 6.49 18.58 6.56 19.13 6.69C20.33 6.98 21.05 7.74 21.32 8.93C21.44 9.5 21.5 10.07 21.49 10.65C21.49 12.92 21.49 15.19 21.49 17.46C21.5 18.03 21.43 18.59 21.3 19.13C21.01 20.33 20.25 21.04 19.05 21.32C18.47 21.44 17.88 21.5 17.28 21.49C15.04 21.49 12.81 21.49 10.57 21.49C10 21.5 9.43 21.43 8.87 21.3C7.67 21.01 6.95 20.25 6.67 19.05C6.53 18.44 6.5 17.83 6.5 17.21C6.5 16.14 6.5 15.06 6.5 13.99Z"
              fill="#000000" fill-opacity="0" fill-rule="nonzero"/>
        <path id="path2"
              d="M6.5 10.47C6.49 9.91 6.56 9.34 6.7 8.79C7.01 7.63 7.77 6.94 8.93 6.67C9.51 6.55 10.11 6.49 10.7 6.5C12.95 6.5 15.2 6.5 17.45 6.5C18.01 6.49 18.58 6.56 19.13 6.69C20.33 6.98 21.05 7.74 21.32 8.93C21.44 9.5 21.5 10.07 21.49 10.65C21.49 12.92 21.49 15.19 21.49 17.46C21.5 18.03 21.43 18.59 21.3 19.13C21.01 20.33 20.25 21.04 19.05 21.32C18.47 21.44 17.88 21.5 17.28 21.49C15.04 21.49 12.81 21.49 10.57 21.49C10 21.5 9.43 21.43 8.87 21.3C7.67 21.01 6.95 20.25 6.67 19.05C6.53 18.44 6.5 17.83 6.5 17.21C6.5 16.14 6.5 15.06 6.5 13.99C6.5 12.82 6.49 11.65 6.5 10.47Z"
              stroke="#FFFFFF" stroke-opacity="0" stroke-width="1.500000"/>
    </g>
    <circle id="path3" cx="14.000000" cy="14.000000" r="8.000000" fill="#FFFFFF" fill-opacity="0"/>
    <circle id="path3" cx="14.000000" cy="14.000000" r="8.000000" stroke="#000000" stroke-opacity="0"
            stroke-width="1.500000"/>
    <path id="path-1" d="M22 20.75L22 22L6 22L6 20.75L22 20.75Z" fill="#FFFFFF" fill-opacity="0"
          fill-rule="nonzero"/>
    <path id="path-1" d="M22 22L6 22L6 20.75L22 20.75L22 22Z" stroke="#000000" stroke-opacity="0"
          stroke-width="1.500000"/>
    <mask id="mask28_5758" mask-type="alpha" maskUnits="userSpaceOnUse" x="6.000000" y="20.751953" width="16.000000"
          height="1.248047">
        <path id="path-1" d="M22 20.75L22 22L6 22L6 20.75L22 20.75Z" fill="#FFFFFF" fill-opacity="1.000000"
              fill-rule="nonzero"/>
    </mask>
    <g mask="url(#mask28_5758)">
        <circle id="path5" cx="14.000000" cy="18.352051" r="3.000000" fill="#FFFFFF" fill-opacity="1.000000"/>
        <circle id="path5" cx="14.000000" cy="18.352051" r="3.000000" stroke="#FFFFFF" stroke-opacity="1.000000"
                stroke-width="1.500000" stroke-linejoin="round"/>
    </g>
    <path id="path6"
          d="M18.05 10.97C17.53 9.12 15.83 7.77 13.8 7.77C11.78 7.77 10.07 9.12 9.55 10.97C9.52 11.08 9.49 11.19 9.47 11.3C9.45 11.3 9.42 11.3 9.4 11.29C8.98 11.29 8.65 11.62 8.64 12.04L8.66 12.06L9.39 12.06C9.39 12.09 9.39 12.12 9.39 12.15Q9.39 16.81 7.7 18.83C7.65 18.89 7.62 18.96 7.62 19.03C7.62 19.2 7.76 19.34 7.93 19.35L19.91 19.35C19.99 19.35 20.07 19.31 20.13 19.26C20.25 19.14 20.26 18.94 20.14 18.82Q18.21 16.8 18.21 12.15C18.21 12.11 18.21 12.06 18.21 12.02C18.2 11.64 18.15 11.29 18.05 10.97Z"
          fill="#FFFFFF" fill-opacity="0" fill-rule="evenodd"/>
    <path id="path6"
          d="M18.05 10.97C18.15 11.29 18.2 11.64 18.21 12.02C18.21 12.06 18.21 12.11 18.21 12.15C18.21 15.25 18.86 17.47 20.14 18.82C20.26 18.94 20.25 19.14 20.13 19.26C20.07 19.31 19.99 19.35 19.91 19.35L7.93 19.35C7.76 19.34 7.62 19.2 7.62 19.03C7.62 18.96 7.65 18.89 7.7 18.83C8.83 17.48 9.39 15.26 9.39 12.15C9.39 12.09 9.39 12.02 9.39 11.96C9.4 11.94 9.4 11.92 9.4 11.9C9.41 11.57 9.47 11.26 9.55 10.97C10.07 9.12 11.78 7.77 13.8 7.77C15.83 7.77 17.53 9.12 18.05 10.97ZM9.39 12.15L9.39 12.04"
          stroke="#FFFFFF" stroke-opacity="1.000000" stroke-width="1.500000" stroke-linejoin="round"
          stroke-linecap="round"/>
    <line id="path7" x1="13.807129" y1="6.833008" x2="13.807129" y2="7.701172" stroke="#FFFFFF"
          stroke-opacity="1.000000" stroke-width="1.500000"/>
    <path id="path8"
          d="M13.8 6.63C13.91 6.63 14 6.72 14 6.83L14 7.7C14 7.81 13.91 7.9 13.8 7.9C13.69 7.9 13.6 7.81 13.6 7.7L13.6 6.83C13.6 6.72 13.69 6.63 13.8 6.63Z"
          fill="#FFFFFF" fill-opacity="0" fill-rule="nonzero"/>
    <path id="path8"
          d="M14 6.83L14 7.7C14 7.81 13.91 7.9 13.8 7.9C13.69 7.9 13.6 7.81 13.6 7.7L13.6 6.83C13.6 6.72 13.69 6.63 13.8 6.63C13.91 6.63 14 6.72 14 6.83Z"
          stroke="#FFFFFF" stroke-opacity="0" stroke-width="1.500000" stroke-linejoin="round"/>
</svg>
