<svg width="48.000000" height="48.000000" viewBox="0 0 48 48" fill="none" xmlns="http://www.w3.org/2000/svg" xmlns:xlink="http://www.w3.org/1999/xlink">
	<desc>
			Created with Pixso.
	</desc>
	<defs>
		<linearGradient x1="24.000000" y1="0.000000" x2="24.000000" y2="48.000000" id="paint_linear_83_9685_0" gradientUnits="userSpaceOnUse">
			<stop stop-color="#64BB5C" stop-opacity="0.000000"/>
			<stop offset="1.000000" stop-color="#64BB5C" stop-opacity="0.200000"/>
		</linearGradient>
	</defs>
	<circle id="椭圆 22" cx="24.000000" cy="24.000000" r="24.000000" fill="url(#paint_linear_83_9685_0)" fill-opacity="1.000000"/>
	<g opacity="0.400000">
		<path id="path" d="M28.25 13.15L34.26 15.81C35.95 16.55 37.04 18.22 37.04 20.07L37.04 28.72C37.04 31.29 34.95 33.37 32.38 33.37L24.37 33.37L24.37 15.68C24.37 14.16 25.61 12.92 27.13 12.92C27.52 12.92 27.9 13 28.25 13.15Z" fill="#64BB5C" fill-opacity="1.000000" fill-rule="evenodd"/>
		<path id="path" d="M34.26 15.81C35.95 16.55 37.04 18.22 37.04 20.07L37.04 28.72C37.04 31.29 34.95 33.37 32.38 33.37L24.37 33.37L24.37 15.68C24.37 14.16 25.61 12.92 27.13 12.92C27.52 12.92 27.9 13 28.25 13.15L34.26 15.81Z" stroke="#000000" stroke-opacity="0" stroke-width="1.000000"/>
	</g>
	<path id="path" d="M15.32 1.37L24.05 1.37C26.46 1.37 28.41 3.33 28.41 5.74L28.41 29.01C28.41 31.42 26.46 33.37 24.05 33.37L15.32 33.37C12.91 33.37 10.95 31.42 10.95 29.01L10.95 5.74C10.95 3.33 12.91 1.37 15.32 1.37ZM16.77 15.71L22.59 15.71C23.39 15.71 24.05 16.37 24.05 17.17C24.05 17.97 23.39 18.62 22.59 18.62L16.77 18.62C15.97 18.62 15.32 17.97 15.32 17.17C15.32 16.37 15.97 15.71 16.77 15.71ZM16.77 8.44L22.59 8.44C23.39 8.44 24.05 9.09 24.05 9.9C24.05 10.7 23.39 11.35 22.59 11.35L16.77 11.35C15.97 11.35 15.32 10.7 15.32 9.9C15.32 9.09 15.97 8.44 16.77 8.44Z" fill="#64BB5C" fill-opacity="1.000000" fill-rule="evenodd"/>
	<path id="path" d="M24.05 1.37C26.46 1.37 28.41 3.33 28.41 5.74L28.41 29.01C28.41 31.42 26.46 33.37 24.05 33.37L15.32 33.37C12.91 33.37 10.95 31.42 10.95 29.01L10.95 5.74C10.95 3.33 12.91 1.37 15.32 1.37L24.05 1.37ZM22.59 15.71C23.39 15.71 24.05 16.37 24.05 17.17C24.05 17.97 23.39 18.62 22.59 18.62L16.77 18.62C15.97 18.62 15.32 17.97 15.32 17.17C15.32 16.37 15.97 15.71 16.77 15.71L22.59 15.71ZM22.59 8.44C23.39 8.44 24.05 9.09 24.05 9.9C24.05 10.7 23.39 11.35 22.59 11.35L16.77 11.35C15.97 11.35 15.32 10.7 15.32 9.9C15.32 9.09 15.97 8.44 16.77 8.44L22.59 8.44Z" stroke="#000000" stroke-opacity="0" stroke-width="1.000000"/>
</svg>
