<svg width="48.000000" height="48.000000" viewBox="0 0 48 48" fill="none" xmlns="http://www.w3.org/2000/svg" xmlns:xlink="http://www.w3.org/1999/xlink">
	<desc>
			Created with Pixso.
	</desc>
	<defs>
		<linearGradient x1="24.000000" y1="0.000000" x2="24.000000" y2="48.000000" id="paint_linear_83_9664_0" gradientUnits="userSpaceOnUse">
			<stop stop-color="#64BB5C" stop-opacity="0.000000"/>
			<stop offset="1.000000" stop-color="#64BB5C" stop-opacity="0.200000"/>
		</linearGradient>
	</defs>
	<circle id="椭圆 24" cx="24.000000" cy="24.000000" r="24.000000" fill="url(#paint_linear_83_9664_0)" fill-opacity="1.000000"/>
	<path id="合并" d="M36.8235 0.56543C36.2637 0.333496 35.6558 0.217773 35 0.217773L13 0.217773C12.3442 0.217773 11.7363 0.333496 11.1765 0.56543L11.1765 0.56543L11.1765 0.56543L11.1765 0.56543L11.1765 0.56543C10.6167 0.797363 10.105 1.14551 9.64136 1.60889C9.17749 2.07275 8.82959 2.58447 8.5979 3.14453L8.5979 3.14453L8.5979 3.14453C8.36597 3.7041 8.25 4.31201 8.25 4.96777L8.25 26.9678C8.25 27.6235 8.36597 28.2314 8.5979 28.791C8.82959 29.3511 9.17749 29.8628 9.64136 30.3267C10.105 30.79 10.6167 31.1382 11.1765 31.3701C11.7363 31.6021 12.3442 31.7178 13 31.7178L35 31.7178C35.6558 31.7178 36.2637 31.6021 36.8235 31.3701C37.3833 31.1382 37.895 30.79 38.3586 30.3267C38.8225 29.8628 39.1704 29.3511 39.4021 28.791L39.4021 28.791C39.634 28.2314 39.75 27.6235 39.75 26.9678L39.75 4.96777C39.75 4.31201 39.634 3.7041 39.4021 3.14453L39.4021 3.14453C39.1704 2.58447 38.8225 2.07275 38.3586 1.60889C37.895 1.14502 37.3833 0.797363 36.8235 0.56543ZM13 1.71777L35 1.71777C36.0833 1.71777 36.8958 1.98877 37.4375 2.53027C37.9792 3.07178 38.25 3.88428 38.25 4.96777L38.25 26.9678C38.25 28.0513 37.9792 28.8638 37.4375 29.4053C36.8958 29.9468 36.0833 30.2178 35 30.2178L13 30.2178C11.9167 30.2178 11.1042 29.9468 10.5625 29.4053C10.0208 28.8638 9.75 28.0513 9.75 26.9678L9.75 4.96777C9.75 3.88428 10.0208 3.07178 10.5625 2.53027C11.1042 1.98877 11.9167 1.71777 13 1.71777ZM30.9851 8.47021C31.072 8.47021 31.1587 8.46582 31.2451 8.45752C31.3318 8.44922 31.4175 8.43652 31.5027 8.41992C31.5454 8.41113 31.5879 8.40186 31.6301 8.39111L31.6311 8.39111C31.6729 8.38037 31.7144 8.36914 31.7554 8.35693C31.8386 8.33154 31.9204 8.30225 32.0007 8.26904C32.0408 8.25293 32.0801 8.23535 32.1191 8.2168L32.1199 8.2168C32.1592 8.19824 32.198 8.17871 32.2363 8.1582C32.313 8.11719 32.3875 8.07275 32.4597 8.02441C32.532 7.97656 32.6018 7.9248 32.6692 7.86963C32.7363 7.81445 32.8008 7.75635 32.8623 7.69482C32.8931 7.66406 32.9229 7.63281 32.9521 7.60059L32.9531 7.59961C32.9819 7.56787 33.01 7.53516 33.0374 7.50195C33.0925 7.43506 33.1443 7.36523 33.1926 7.29297C33.241 7.22119 33.2856 7.14648 33.3267 7.06982C33.3677 6.99316 33.4048 6.91504 33.4382 6.83447C33.4717 6.75439 33.501 6.67285 33.5261 6.58936C33.5515 6.50635 33.5728 6.42236 33.5896 6.33691C33.6067 6.25195 33.6194 6.16602 33.6282 6.07959C33.6367 5.99316 33.6411 5.90625 33.6411 5.81934C33.6411 5.73242 33.637 5.646 33.6284 5.55908C33.6201 5.47266 33.6074 5.38672 33.5906 5.30176C33.5737 5.21631 33.5525 5.13232 33.5273 5.04883C33.5022 4.96582 33.4731 4.88428 33.4399 4.80371C33.4067 4.72363 33.3696 4.64502 33.3286 4.56836C33.2878 4.4917 33.2432 4.41699 33.1951 4.34473C33.1467 4.27246 33.095 4.20264 33.04 4.13574C32.9849 4.06836 32.9268 4.00391 32.8652 3.94238C32.8037 3.88086 32.7395 3.82275 32.6724 3.76758C32.6052 3.7124 32.5356 3.66064 32.4634 3.6123C32.3911 3.56396 32.3167 3.51953 32.24 3.47852C32.1633 3.4375 32.085 3.40039 32.0046 3.3667C31.9243 3.3335 31.8428 3.3042 31.7595 3.2793C31.6765 3.25391 31.5923 3.23291 31.5071 3.21582C31.4219 3.19873 31.3359 3.18604 31.2495 3.17725C31.1628 3.16895 31.0762 3.16455 30.9893 3.16455C30.9023 3.16455 30.8157 3.16846 30.7292 3.17725C30.6428 3.18555 30.5569 3.19824 30.4717 3.21533C30.3865 3.23242 30.3022 3.25342 30.219 3.27832C30.136 3.30371 30.0542 3.33301 29.9739 3.36621C29.8936 3.39941 29.8149 3.43652 29.7385 3.47754C29.6619 3.51807 29.5874 3.56299 29.5151 3.61133C29.4426 3.65967 29.373 3.71094 29.3059 3.76611C29.272 3.79395 29.239 3.82227 29.2068 3.85156L29.2061 3.85205C29.1743 3.88086 29.1433 3.91064 29.1128 3.94092C29.0513 4.00244 28.9932 4.06689 28.938 4.13379C28.8828 4.20117 28.8311 4.271 28.7827 4.34326C28.7344 4.41553 28.6899 4.48975 28.6489 4.56641C28.6079 4.64307 28.5708 4.72168 28.5376 4.80176C28.5042 4.88232 28.4751 4.96387 28.4497 5.04688C28.4246 5.13037 28.4033 5.21436 28.3865 5.2998C28.3696 5.38477 28.3567 5.4707 28.3481 5.55713C28.3398 5.64355 28.3354 5.73047 28.3354 5.81738C28.3357 5.90381 28.3398 5.99072 28.3486 6.07715C28.3572 6.16357 28.3699 6.24902 28.387 6.33398C28.4038 6.41943 28.425 6.50342 28.4502 6.58643C28.4756 6.66943 28.5046 6.75098 28.5378 6.83105C28.5713 6.91162 28.6082 6.98975 28.6492 7.06641C28.6902 7.14258 28.7346 7.21729 28.783 7.28955C28.8311 7.36133 28.8828 7.43115 28.9377 7.49805C28.9927 7.56543 29.051 7.62939 29.1123 7.69092C29.1736 7.75244 29.2378 7.81055 29.3049 7.86572C29.3718 7.9209 29.4414 7.97266 29.5137 8.021C29.5857 8.06934 29.6599 8.11377 29.7363 8.15479C29.813 8.1958 29.8914 8.23291 29.9714 8.2666C30.0515 8.2998 30.1331 8.3291 30.2161 8.35449C30.2991 8.37988 30.3831 8.40088 30.4683 8.41797C30.5532 8.43506 30.6389 8.44824 30.7253 8.45654C30.8118 8.46533 30.8982 8.46973 30.9851 8.47021ZM17.4211 8.46338C17.335 8.47217 17.2485 8.47656 17.1619 8.47656C17.0752 8.47656 16.9885 8.47217 16.9023 8.46387C16.8159 8.45557 16.7305 8.44287 16.6453 8.42578C16.5603 8.40869 16.4763 8.3877 16.3933 8.36279C16.3103 8.3374 16.2288 8.30859 16.1487 8.27539C16.0686 8.24219 15.9902 8.20508 15.9138 8.16406C15.8372 8.12354 15.7629 8.07861 15.6907 8.03076C15.6187 7.98242 15.5491 7.93115 15.4819 7.87598C15.415 7.82129 15.3508 7.76318 15.2893 7.70166C15.228 7.64062 15.1699 7.57617 15.1147 7.50928C15.0598 7.44238 15.0081 7.37256 14.96 7.30078C14.9116 7.22852 14.8672 7.1543 14.8262 7.07812C14.7852 7.00146 14.748 6.92334 14.7148 6.84326C14.6816 6.76318 14.6523 6.68164 14.6272 6.59863C14.6018 6.51562 14.5808 6.43164 14.5637 6.34668C14.5466 6.26172 14.5339 6.17578 14.5254 6.08984C14.5166 6.00342 14.5125 5.91699 14.5122 5.83008C14.5122 5.74365 14.5164 5.65723 14.5249 5.5708C14.5334 5.48486 14.5461 5.39893 14.563 5.31396C14.5801 5.229 14.6011 5.14502 14.6262 5.06201C14.6514 4.979 14.6804 4.89795 14.7136 4.81787C14.7468 4.73779 14.7837 4.65918 14.8245 4.58301C14.8655 4.50635 14.9099 4.43213 14.958 4.36035C15.0061 4.28809 15.0576 4.21875 15.1125 4.15186C15.1675 4.08447 15.2258 4.02051 15.2869 3.95947C15.3481 3.89795 15.4124 3.83984 15.4792 3.78467C15.5464 3.72998 15.6157 3.67822 15.6877 3.63037C15.7598 3.58203 15.834 3.5376 15.9104 3.49658C15.9485 3.47607 15.9871 3.45703 16.0261 3.43848L16.0266 3.43799C16.0657 3.41943 16.1052 3.40234 16.1453 3.38574C16.2251 3.35254 16.3066 3.32324 16.3896 3.29785C16.4724 3.27295 16.5564 3.25195 16.6414 3.23486C16.7263 3.21777 16.812 3.20508 16.8982 3.19678C16.9844 3.18799 17.0708 3.18359 17.1575 3.18359C17.2009 3.18359 17.2441 3.18506 17.2876 3.18701C17.3306 3.18896 17.3738 3.19238 17.417 3.19629C17.5032 3.20508 17.5889 3.21777 17.6738 3.23438C17.7588 3.25146 17.8428 3.27246 17.9255 3.29736C18.0085 3.32227 18.0901 3.35156 18.1702 3.38477C18.2502 3.41797 18.3284 3.45459 18.4048 3.49561C18.4814 3.53662 18.5557 3.58105 18.6277 3.62891C18.6997 3.67725 18.7693 3.72852 18.8364 3.78369C18.9033 3.83838 18.9675 3.89648 19.0288 3.95801C19.0901 4.01904 19.1482 4.08301 19.2034 4.1499C19.2583 4.2168 19.3098 4.28662 19.3582 4.3584C19.4062 4.43066 19.4507 4.50488 19.4917 4.58105C19.5327 4.65771 19.5696 4.73584 19.6028 4.81592C19.636 4.896 19.6653 4.97705 19.6904 5.06006C19.7158 5.14307 19.7368 5.22705 19.7539 5.31201C19.7708 5.39697 19.7834 5.48242 19.792 5.56885C19.8005 5.65479 19.8049 5.74121 19.8049 5.82812C19.8052 5.91455 19.801 6.00098 19.7925 6.0874C19.7842 6.17383 19.7715 6.25928 19.7546 6.34424C19.7378 6.4292 19.7168 6.51318 19.6917 6.59619C19.6667 6.6792 19.6377 6.76074 19.6045 6.84082C19.5715 6.9209 19.5344 6.99902 19.4937 7.07568C19.4529 7.15186 19.4084 7.22607 19.3604 7.29834C19.3123 7.37061 19.261 7.43994 19.2061 7.50684C19.1511 7.57422 19.093 7.63818 19.0317 7.69971C18.9707 7.76074 18.9065 7.81934 18.8396 7.87402C18.7727 7.9292 18.7031 7.98096 18.6311 8.02881C18.5593 8.07715 18.4851 8.12158 18.4087 8.1626C18.3323 8.20361 18.2542 8.24072 18.1741 8.27393C18.094 8.30713 18.0127 8.33643 17.9297 8.36182C17.8469 8.38721 17.7629 8.4082 17.678 8.42529C17.593 8.44238 17.5073 8.45508 17.4211 8.46338ZM25.25 27.9678L25.25 3.96777C25.25 3.54785 24.9199 3.21777 24.5 3.21777C24.0801 3.21777 23.75 3.54785 23.75 3.96777L23.75 27.9678C23.75 28.3877 24.0801 28.7178 24.5 28.7178C24.9199 28.7178 25.25 28.3877 25.25 27.9678ZM35.0811 10.7295C34.9341 10.6206 34.783 10.5176 34.6277 10.4209C34.4727 10.3242 34.3137 10.2339 34.1514 10.1499C33.989 10.0659 33.8235 9.98828 33.655 9.91748C33.4863 9.84619 33.3152 9.78223 33.1416 9.7251C32.9678 9.66797 32.7922 9.61768 32.6145 9.57422C32.4368 9.53076 32.2576 9.49463 32.0771 9.46582C31.8965 9.43701 31.7151 9.41504 31.5327 9.40039C31.4419 9.39307 31.3508 9.3877 31.2598 9.38428L31.2593 9.38428L31.259 9.38428C31.1677 9.38037 31.0764 9.37891 30.9851 9.37891C30.8936 9.37891 30.8022 9.38037 30.7107 9.38428C30.6196 9.3877 30.5283 9.39307 30.4373 9.40039C30.2551 9.41504 30.0735 9.43701 29.8931 9.46582C29.7124 9.49463 29.5334 9.53076 29.3557 9.57422C29.178 9.61768 29.0022 9.66797 28.8286 9.7251C28.655 9.78223 28.4839 9.84619 28.3152 9.91748C28.1467 9.98828 27.9812 10.0659 27.8188 10.1499C27.6565 10.2339 27.4976 10.3242 27.3423 10.4209C27.1873 10.5176 27.0361 10.6206 26.8892 10.7295C26.8313 10.7808 26.7864 10.8423 26.7546 10.9131C26.7229 10.9839 26.7068 11.0581 26.7068 11.1357L26.7068 19.27C26.707 19.3408 26.7209 19.4092 26.748 19.4746C26.7754 19.54 26.814 19.5977 26.864 19.6479C26.9138 19.6982 26.9714 19.7373 27.0369 19.7651C27.1021 19.7925 27.1702 19.8066 27.241 19.8076L28.3899 19.8076L29.0972 28.2686C29.1028 28.3364 29.1204 28.4009 29.1504 28.4624C29.1802 28.5234 29.2202 28.5771 29.2703 28.6235C29.3203 28.6694 29.377 28.7051 29.4404 28.73C29.5039 28.7549 29.5698 28.7676 29.6379 28.7676L29.6826 28.7676C29.9834 28.7422 31.99 28.7422 32.2908 28.7676L32.3354 28.7676C32.4036 28.7676 32.469 28.7549 32.5322 28.73C32.5955 28.7051 32.6521 28.6694 32.7019 28.623C32.7517 28.5771 32.7913 28.5229 32.8208 28.4619C32.8503 28.4009 32.8679 28.3364 32.873 28.2686L33.5706 19.8076L34.7258 19.8076C34.7615 19.8076 34.7966 19.8042 34.8315 19.7974C34.8665 19.7905 34.9004 19.7803 34.9333 19.7666C34.9663 19.7529 34.9976 19.7363 35.0271 19.7168C35.042 19.707 35.0562 19.6963 35.0698 19.6851L35.0698 19.6851C35.0837 19.6738 35.0967 19.6621 35.1094 19.6494C35.1221 19.6367 35.134 19.6235 35.1453 19.6099L35.1455 19.6099C35.1567 19.5962 35.1672 19.582 35.177 19.5674C35.197 19.5381 35.2139 19.5068 35.2275 19.4741C35.2344 19.4575 35.2405 19.4409 35.2456 19.4243C35.251 19.4072 35.2554 19.3901 35.2588 19.3726C35.2661 19.3379 35.2698 19.3022 35.2698 19.2671L35.2698 11.1357C35.2681 11.0576 35.2507 10.9834 35.218 10.9126C35.1851 10.8423 35.1394 10.7808 35.0811 10.7295ZM17.1619 9.39502C19.6833 9.39502 20.1443 10.9277 20.1633 10.9951L22.5825 19.1133C22.6067 19.1953 22.6111 19.2783 22.5957 19.3618C22.5806 19.4458 22.5474 19.522 22.4963 19.5903C22.4463 19.6597 22.3831 19.7134 22.3069 19.752C22.2305 19.79 22.1497 19.8091 22.0642 19.8076L19.7603 19.8076L19.0562 28.2495C19.0535 28.2832 19.0476 28.3164 19.0388 28.3486L19.0386 28.3486C19.0298 28.3813 19.0178 28.4126 19.0029 28.4434C18.9731 28.5044 18.9331 28.5581 18.8831 28.6045C18.833 28.6504 18.7761 28.686 18.7129 28.7109C18.6494 28.7358 18.5835 28.7485 18.5154 28.7485L15.821 28.7485C15.7529 28.7485 15.687 28.7358 15.6238 28.7109C15.5603 28.686 15.5034 28.6504 15.4534 28.6045C15.4033 28.5581 15.3633 28.5044 15.3335 28.4434C15.3186 28.4126 15.3066 28.3813 15.2979 28.3491L15.2979 28.3486L15.2979 28.3486C15.2888 28.3164 15.283 28.2832 15.2803 28.2495L14.5793 19.8076L12.2754 19.8076C12.2549 19.8076 12.2346 19.8062 12.2144 19.8037L12.2126 19.8037C12.1919 19.8008 12.1711 19.7969 12.1506 19.792C12.1099 19.7817 12.0706 19.7671 12.033 19.748C11.9954 19.7285 11.9607 19.7056 11.9285 19.6782C11.8965 19.6509 11.8679 19.6201 11.8428 19.5859C11.8179 19.5522 11.7971 19.5156 11.7805 19.4771C11.7642 19.438 11.7522 19.3979 11.7451 19.3564C11.7378 19.3145 11.7356 19.2729 11.738 19.231C11.7407 19.1885 11.748 19.1475 11.7603 19.1069L14.1602 10.9951C14.1763 10.9404 14.6401 9.39502 17.1619 9.39502Z" clip-rule="evenodd" fill="#64BB5C" fill-opacity="1.000000" fill-rule="evenodd"/>
</svg>
