<svg width="52.793945" height="49.027832" viewBox="0 0 52.7939 49.0278" fill="none" xmlns="http://www.w3.org/2000/svg" xmlns:xlink="http://www.w3.org/1999/xlink">
	<desc>
			Created with Pixso.
	</desc>
	<defs>
		<filter id="filter_83_9931_dd" x="0.000000" y="0.000000" width="52.793945" height="46.424805" filterUnits="userSpaceOnUse" color-interpolation-filters="sRGB">
			<feFlood flood-opacity="0" result="BackgroundImageFix"/>
			<feColorMatrix in="SourceAlpha" type="matrix" values="0 0 0 0 0 0 0 0 0 0 0 0 0 0 0 0 0 0 127 0" result="hardAlpha"/>
			<feOffset dx="0" dy="4"/>
			<feGaussianBlur stdDeviation="3"/>
			<feComposite in2="hardAlpha" operator="out" k2="-1" k3="1"/>
			<feColorMatrix type="matrix" values="0 0 0 0 0 0 0 0 0 0 0 0 0 0 0 0 0 0 0.2 0"/>
			<feBlend mode="normal" in2="BackgroundImageFix" result="effect_dropShadow_1"/>
			<feBlend mode="normal" in="SourceGraphic" in2="effect_dropShadow_1" result="shape"/>
		</filter>
		<linearGradient x1="26.395996" y1="1.028076" x2="26.395996" y2="49.028076" id="paint_linear_83_9593_0" gradientUnits="userSpaceOnUse">
			<stop stop-color="#F3F3F3" stop-opacity="0.000000"/>
			<stop offset="1.000000" stop-color="#F3F3F3"/>
		</linearGradient>
	</defs>
	<circle id="椭圆 22" cx="26.395996" cy="25.028076" r="24.000000" fill="url(#paint_linear_83_9593_0)" fill-opacity="1.000000"/>
	<rect id="矩形 129" x="10.396973" y="3.212402" width="32.000000" height="32.000000" fill="#C4C4C4" fill-opacity="0"/>
	<g filter="url(#filter_83_9931_dd)">
		<g opacity="0.400000">
			<path id="合并" d="M42.6702 16.0393L42.6648 16.385L42.6394 16.8572C42.6348 16.9148 42.6265 16.9717 42.6145 17.0276C42.5928 17.1296 42.5586 17.2292 42.512 17.3262C42.4761 17.4011 42.4341 17.4717 42.386 17.5381C42.3435 17.5962 42.2964 17.6511 42.2446 17.7026C42.1643 17.7825 42.0767 17.8503 41.9819 17.9055C41.9338 17.9336 41.884 17.9585 41.8325 17.9802C41.7297 18.0234 41.625 18.052 41.5183 18.0662C41.4351 18.0771 41.3506 18.0791 41.2646 18.0725C41.176 18.0654 41.0898 18.0498 41.0063 18.0254C40.928 18.0022 40.8516 17.9717 40.7776 17.9331C40.7053 17.8958 40.6379 17.8523 40.5752 17.8027C40.5103 17.7515 40.4502 17.6936 40.3953 17.6294C40.3406 17.5652 40.2927 17.4968 40.2522 17.4246C40.2131 17.355 40.1809 17.2815 40.155 17.2041C40.1287 17.125 40.1104 17.0449 40.1001 16.9639C40.0889 16.8774 40.0869 16.79 40.0938 16.7012L40.1033 16.5693C40.1147 16.3906 40.1204 16.2092 40.1204 16.0249C40.1204 15.3818 40.051 14.7544 39.9121 14.1428C39.8027 13.6609 39.6504 13.1887 39.4548 12.7263C39.2549 12.2542 39.0168 11.8069 38.7402 11.3848C38.4233 10.9009 38.0559 10.4502 37.6382 10.0322C37.2202 9.6145 36.7695 9.24707 36.2856 8.93018C35.8635 8.65356 35.4163 8.41553 34.9438 8.21558C34.4817 8.02002 34.0095 7.86768 33.5276 7.7583C32.916 7.61938 32.2886 7.55005 31.6453 7.55005C31.0605 7.55005 30.4875 7.60791 29.9265 7.72339C29.5168 7.80786 29.1135 7.9231 28.7166 8.06934C28.3042 8.22095 27.9087 8.40234 27.5295 8.61328L27.5293 8.61328L27.5293 8.61328C27.051 8.87939 26.5989 9.19287 26.1731 9.55322C26.1052 9.61084 26.033 9.66016 25.9563 9.70166C25.8845 9.74072 25.8088 9.77246 25.7292 9.79736C25.6514 9.82153 25.573 9.83813 25.4937 9.84717C25.4111 9.85645 25.3279 9.85767 25.2437 9.85083C25.1594 9.84375 25.0776 9.82886 24.998 9.80591C24.9211 9.78394 24.8464 9.75464 24.7737 9.71802C24.6995 9.68042 24.6299 9.63647 24.5654 9.58618C24.4968 9.53247 24.4336 9.47192 24.3762 9.40381C24.3186 9.33594 24.2693 9.26367 24.2278 9.18701C24.1887 9.11523 24.157 9.03955 24.1321 8.95996C24.1079 8.88232 24.0913 8.80371 24.0823 8.72437C24.073 8.64209 24.0718 8.55859 24.0786 8.47461C24.0857 8.39038 24.1006 8.30835 24.1235 8.22876C24.1455 8.15186 24.1748 8.07715 24.2114 8.00464C24.249 7.93018 24.293 7.86084 24.3433 7.79639C24.397 7.72754 24.4575 7.66455 24.5256 7.60693C25.0659 7.14941 25.6392 6.75024 26.2451 6.40942L26.2451 6.40942C26.7524 6.12427 27.2825 5.87988 27.8357 5.67627C28.3743 5.47803 28.9214 5.32349 29.4773 5.2124C30.1858 5.0708 30.9084 5 31.6453 5C32.4666 5 33.2683 5.08716 34.0505 5.26147C34.6924 5.40454 35.3213 5.6062 35.937 5.8667C36.5593 6.12988 37.1477 6.44409 37.7029 6.80933C38.3245 7.21851 38.9038 7.69189 39.4412 8.22925C39.9785 8.76636 40.4517 9.34595 40.8608 9.96753C41.2263 10.5225 41.5405 11.1111 41.8037 11.7334C42.064 12.3491 42.2659 12.978 42.4089 13.6199C42.5833 14.4021 42.6702 15.2183 42.6702 16.0393Z" clip-rule="evenodd" fill="#000000" fill-opacity="1.000000" fill-rule="evenodd"/>
		</g>
		<path id="合并" d="M9 23.5249C9 23.2197 9.04077 22.9268 9.12256 22.6453C9.20435 22.364 9.3269 22.0945 9.49048 21.8369L17.7354 8.84473C17.8586 8.65088 17.999 8.47412 18.157 8.31445C18.2925 8.17773 18.4407 8.05371 18.6018 7.94214C18.7627 7.83081 18.9309 7.73584 19.1064 7.65747C19.2983 7.57153 19.4988 7.50537 19.708 7.4585C19.917 7.41187 20.1267 7.38647 20.3367 7.38232C20.5291 7.37866 20.7217 7.39307 20.9146 7.42529C21.1077 7.45752 21.2947 7.50659 21.4756 7.57275L21.4756 7.57275C21.6865 7.6499 21.8889 7.75 22.083 7.87305C22.2893 8.00391 22.4758 8.1543 22.6426 8.32397C22.8093 8.4939 22.9565 8.68311 23.0837 8.8916L28.5864 17.9077L31.9187 14.6775C32.0818 14.5193 32.2576 14.3813 32.446 14.2639C32.6089 14.1626 32.7812 14.0762 32.9629 14.0051C33.144 13.9343 33.3284 13.8809 33.5161 13.845C33.7207 13.8057 33.9294 13.7869 34.1421 13.7891C34.3547 13.791 34.5632 13.8137 34.7671 13.8572C34.9541 13.8967 35.1375 13.9539 35.3169 14.0281C35.4968 14.1025 35.667 14.1919 35.8274 14.2961C36.0139 14.4175 36.1875 14.5588 36.3479 14.7207L42.8801 21.3066C43.042 21.4697 43.1831 21.646 43.3035 21.8357C43.4067 21.998 43.4949 22.1702 43.5676 22.3521C43.6406 22.5334 43.6958 22.7188 43.7334 22.9072L43.7334 22.9075C43.7744 23.1133 43.7944 23.3235 43.7937 23.5378C43.7927 23.7522 43.771 23.9622 43.728 24.1677C43.689 24.3562 43.6323 24.5408 43.5581 24.7217C43.4836 24.9028 43.3943 25.0745 43.2896 25.2361L43.2896 25.2361C43.1675 25.4246 43.0249 25.5996 42.8618 25.7615C42.7144 25.9077 42.5557 26.0371 42.386 26.1499C42.2161 26.2625 42.0352 26.3584 41.843 26.4375C41.6511 26.5166 41.4551 26.5759 41.2551 26.6155C41.0552 26.655 40.8513 26.6748 40.6436 26.6748L12.1499 26.6748C11.9202 26.6748 11.6956 26.6509 11.4763 26.603C11.2883 26.562 11.104 26.5032 10.9236 26.427C10.7437 26.3508 10.5735 26.2598 10.4133 26.1538L10.4128 26.1536C10.2375 26.0376 10.0742 25.9038 9.92261 25.7522C9.771 25.6006 9.63721 25.4373 9.52148 25.2622L9.52148 25.2622C9.41528 25.1018 9.32422 24.9314 9.2478 24.7512C9.17163 24.5708 9.11279 24.3867 9.07178 24.1985C9.02393 23.9792 9 23.7546 9 23.5249ZM41.0991 29.2139C41.1494 29.0767 41.1746 28.9302 41.1746 28.7747C41.1746 28.6858 41.1655 28.5986 41.1477 28.5134L41.1477 28.5132C41.1311 28.4333 41.1064 28.355 41.074 28.2781C41.0422 28.2031 41.0042 28.1326 40.9597 28.0662C40.9136 27.9971 40.8608 27.9329 40.801 27.873C40.7412 27.8135 40.677 27.7605 40.6082 27.7144C40.5417 27.6699 40.4709 27.6318 40.396 27.6003C40.3201 27.5681 40.2424 27.5437 40.1633 27.5269C40.0771 27.5088 39.9893 27.4998 39.8994 27.4998L12.751 27.5059C12.6018 27.5327 12.3857 27.5964 12.262 27.6677L12.262 27.6677C12.1365 27.74 12.0239 27.8352 11.9246 27.9529C11.8247 28.0713 11.7498 28.199 11.7 28.3354L11.6997 28.3357C11.6497 28.4727 11.6245 28.6191 11.6245 28.7747C11.6245 28.8638 11.6333 28.9507 11.6511 29.0359L11.6514 29.0361L11.6514 29.0361C11.668 29.1162 11.6926 29.1946 11.7251 29.2712C11.7568 29.3462 11.7949 29.417 11.8394 29.4834L11.8398 29.4841C11.8857 29.5527 11.9385 29.6167 11.998 29.6763C12.0576 29.7361 12.1221 29.7888 12.1909 29.835C12.2573 29.8794 12.3279 29.9175 12.4028 29.9492C12.479 29.9812 12.5564 30.0056 12.6357 30.0225L12.6357 30.0225L12.636 30.0225C12.7219 30.0405 12.8098 30.0498 12.8997 30.0498L40.0481 30.0437C40.1973 30.0166 40.4133 29.9529 40.5369 29.8816C40.6626 29.8093 40.7749 29.7144 40.8743 29.5964C40.9741 29.478 41.0491 29.3506 41.0991 29.2139ZM38.0991 32.5889C38.1494 32.4517 38.1746 32.3052 38.1746 32.1497C38.1746 32.0608 38.1655 31.9736 38.1477 31.8884C38.1311 31.8083 38.1064 31.73 38.074 31.6531C38.0422 31.5781 38.0042 31.5076 37.9597 31.4412C37.9136 31.3721 37.8608 31.3079 37.801 31.248C37.7412 31.1885 37.677 31.1355 37.6082 31.0894C37.5417 31.0449 37.4709 31.0068 37.396 30.9753C37.3203 30.9431 37.2429 30.9189 37.1638 30.9021C37.0776 30.8838 36.9895 30.8748 36.8992 30.8748L15.751 30.8809C15.6018 30.9077 15.3857 30.9714 15.262 31.0427C15.1365 31.115 15.0239 31.21 14.9246 31.3279C14.8247 31.4463 14.7498 31.574 14.7 31.7104C14.6497 31.8477 14.6245 31.9941 14.6245 32.1497C14.6245 32.2388 14.6333 32.3257 14.6514 32.4111C14.668 32.4912 14.6926 32.5696 14.7251 32.6462C14.7568 32.7212 14.7949 32.792 14.8394 32.8584C14.8853 32.9272 14.9382 32.9915 14.998 33.0513C15.0576 33.1111 15.1221 33.1638 15.1909 33.21C15.2573 33.2544 15.3279 33.2925 15.4028 33.3242C15.4788 33.3562 15.5562 33.3806 15.635 33.3972C15.7214 33.4155 15.8096 33.4248 15.8997 33.4248L37.0481 33.4187C37.1973 33.3916 37.4133 33.3279 37.5369 33.2566C37.6626 33.1843 37.7749 33.0894 37.8743 32.9714C37.9741 32.853 38.0491 32.7256 38.0991 32.5889Z" clip-rule="evenodd" fill="#000000" fill-opacity="1.000000" fill-rule="evenodd"/>
	</g>
</svg>
