<svg width="48.000000" height="51.622803" viewBox="0 0 48 51.6228" fill="none" xmlns="http://www.w3.org/2000/svg" xmlns:xlink="http://www.w3.org/1999/xlink">
	<desc>
			Created with Pixso.
	</desc>
	<defs>
		<filter id="filter_48_5784_dd" x="1.958008" y="0.000000" width="44.084961" height="50.000122" filterUnits="userSpaceOnUse" color-interpolation-filters="sRGB">
			<feFlood flood-opacity="0" result="BackgroundImageFix"/>
			<feColorMatrix in="SourceAlpha" type="matrix" values="0 0 0 0 0 0 0 0 0 0 0 0 0 0 0 0 0 0 127 0" result="hardAlpha"/>
			<feOffset dx="0" dy="4"/>
			<feGaussianBlur stdDeviation="3"/>
			<feComposite in2="hardAlpha" operator="out" k2="-1" k3="1"/>
			<feColorMatrix type="matrix" values="0 0 0 0 0 0 0 0 0 0 0 0 0 0 0 0 0 0 0.2 0"/>
			<feBlend mode="normal" in2="BackgroundImageFix" result="effect_dropShadow_1"/>
			<feBlend mode="normal" in="SourceGraphic" in2="effect_dropShadow_1" result="shape"/>
		</filter>
		<linearGradient x1="24.000000" y1="3.622803" x2="24.000000" y2="51.622803" id="paint_linear_48_5783_0" gradientUnits="userSpaceOnUse">
			<stop stop-color="#F3F3F3" stop-opacity="0.000000"/>
			<stop offset="1.000000" stop-color="#F3F3F3"/>
		</linearGradient>
	</defs>
	<circle id="椭圆 22" cx="24.000000" cy="27.622803" r="24.000000" fill="url(#paint_linear_48_5783_0)" fill-opacity="1.000000"/>
	<g filter="url(#filter_48_5784_dd)">
		<g opacity="0.400000">
			<path id="path" d="M28.25 16.78L34.26 19.43C35.95 20.18 37.04 21.85 37.04 23.69L37.04 32.34C37.04 34.91 34.95 37 32.38 37L24.37 37L24.37 19.31C24.37 17.78 25.61 16.54 27.13 16.54C27.52 16.54 27.9 16.62 28.25 16.78Z" fill="#000000" fill-opacity="1.000000" fill-rule="evenodd"/>
			<path id="path" d="M34.26 19.43C35.95 20.18 37.04 21.85 37.04 23.69L37.04 32.34C37.04 34.91 34.95 37 32.38 37L24.37 37L24.37 19.31C24.37 17.78 25.61 16.54 27.13 16.54C27.52 16.54 27.9 16.62 28.25 16.78L34.26 19.43Z" stroke="#000000" stroke-opacity="0" stroke-width="1.000000"/>
		</g>
		<path id="path" d="M15.32 5L24.05 5C26.46 5 28.41 6.95 28.41 9.36L28.41 32.63C28.41 35.04 26.46 37 24.05 37L15.32 37C12.91 37 10.95 35.04 10.95 32.63L10.95 9.36C10.95 6.95 12.91 5 15.32 5ZM16.77 19.34L22.59 19.34C23.39 19.34 24.05 19.99 24.05 20.79C24.05 21.6 23.39 22.25 22.59 22.25L16.77 22.25C15.97 22.25 15.32 21.6 15.32 20.79C15.32 19.99 15.97 19.34 16.77 19.34ZM16.77 12.06L22.59 12.06C23.39 12.06 24.05 12.72 24.05 13.52C24.05 14.32 23.39 14.97 22.59 14.97L16.77 14.97C15.97 14.97 15.32 14.32 15.32 13.52C15.32 12.72 15.97 12.06 16.77 12.06Z" fill="#000000" fill-opacity="1.000000" fill-rule="evenodd"/>
		<path id="path" d="M24.05 5C26.46 5 28.41 6.95 28.41 9.36L28.41 32.63C28.41 35.04 26.46 37 24.05 37L15.32 37C12.91 37 10.95 35.04 10.95 32.63L10.95 9.36C10.95 6.95 12.91 5 15.32 5L24.05 5ZM22.59 19.34C23.39 19.34 24.05 19.99 24.05 20.79C24.05 21.6 23.39 22.25 22.59 22.25L16.77 22.25C15.97 22.25 15.32 21.6 15.32 20.79C15.32 19.99 15.97 19.34 16.77 19.34L22.59 19.34ZM22.59 12.06C23.39 12.06 24.05 12.72 24.05 13.52C24.05 14.32 23.39 14.97 22.59 14.97L16.77 14.97C15.97 14.97 15.32 14.32 15.32 13.52C15.32 12.72 15.97 12.06 16.77 12.06L22.59 12.06Z" stroke="#000000" stroke-opacity="0" stroke-width="1.000000"/>
	</g>
</svg>
