<svg width="48.000000" height="48.000000" viewBox="0 0 48 48" fill="none" xmlns="http://www.w3.org/2000/svg" xmlns:xlink="http://www.w3.org/1999/xlink">
	<desc>
			Created with Pixso.
	</desc>
	<defs>
		<linearGradient x1="24.000000" y1="0.000000" x2="24.000000" y2="48.000000" id="paint_linear_83_9692_0" gradientUnits="userSpaceOnUse">
			<stop stop-color="#64BB5C" stop-opacity="0.000000"/>
			<stop offset="1.000000" stop-color="#64BB5C" stop-opacity="0.200000"/>
		</linearGradient>
	</defs>
	<circle id="椭圆 22" cx="24.000000" cy="24.000000" r="24.000000" fill="url(#paint_linear_83_9692_0)" fill-opacity="1.000000"/>
	<rect id="矩形 129" x="8.000977" y="0.996582" width="32.000000" height="32.000000" fill="#C4C4C4" fill-opacity="0"/>
	<path id="path-1" d="M34.43 2.49C34.74 2.49 35 2.73 35 3.03L35 30.4C35 31 34.49 31.49 33.86 31.49L33.11 31.49C32.48 31.49 31.97 31 31.97 30.4L31.97 19.22L28.76 19.22C27.51 19.22 26.5 18.24 26.5 17.04L26.5 10.11C26.5 5.9 29.13 2.51 33.86 2.51C33.93 2.49 34.01 2.49 34.08 2.49L34.43 2.49ZM17.5 2.99C18.1 2.99 18.6 3.48 18.6 4.07L18.6 12.02C18.6 12.61 19.09 13.1 19.7 13.1C20.3 13.1 20.8 12.61 20.8 12.02L20.8 4.43C20.8 3.84 21.29 3.35 21.9 3.35C22.5 3.35 23 3.84 23 4.43L23 12.37C23 14.86 21.29 16.96 18.96 17.59L18.96 30.05C18.96 30.85 18.31 31.49 17.5 31.49C16.69 31.49 16.03 30.85 16.03 30.05L16.03 17.59C13.7 16.96 12 14.86 12 12.37L12 4.43C12 3.84 12.49 3.35 13.1 3.35C13.7 3.35 14.2 3.84 14.2 4.43L14.2 12.02C14.2 12.61 14.69 13.1 15.3 13.1C15.9 13.1 16.4 12.61 16.4 12.02L16.4 4.07C16.4 3.48 16.89 2.99 17.5 2.99Z" fill="#64BB5C" fill-opacity="1.000000" fill-rule="nonzero"/>
</svg>
