<svg width="48.000000" height="48.003174" viewBox="0 0 48 48.0032" fill="none" xmlns="http://www.w3.org/2000/svg" xmlns:xlink="http://www.w3.org/1999/xlink">
	<desc>
			Created with Pixso.
	</desc>
	<defs>
		<clipPath id="clip70_8330">
			<rect id="ic_bpit_scenic_spot_filled" width="36.000000" height="36.000000" transform="translate(6.000977 0.000000)" fill="white" fill-opacity="0"/>
		</clipPath>
		<linearGradient x1="24.000000" y1="0.003174" x2="24.000000" y2="48.003174" id="paint_linear_70_8295_0" gradientUnits="userSpaceOnUse">
			<stop stop-color="#64BB5C" stop-opacity="0.000000"/>
			<stop offset="1.000000" stop-color="#64BB5C" stop-opacity="0.200000"/>
		</linearGradient>
	</defs>
	<circle id="椭圆 22" cx="24.000000" cy="24.003174" r="24.000000" fill="url(#paint_linear_70_8295_0)" fill-opacity="1.000000"/>
	<g clip-path="url(#clip70_8330)">
		<path id="path1" d="M7.12 17.98C7.12 15.35 7.12 12.71 7.12 10.07C7.12 8.8 7.28 7.53 7.59 6.29C8.28 3.67 9.99 2.12 12.6 1.52C13.91 1.23 15.25 1.1 16.59 1.12C21.65 1.12 26.7 1.12 31.76 1.12C33.04 1.11 34.31 1.26 35.55 1.56C38.24 2.22 39.86 3.92 40.48 6.61C40.75 7.87 40.88 9.17 40.87 10.47C40.87 15.58 40.87 20.69 40.87 25.8C40.88 27.06 40.73 28.32 40.44 29.55C39.78 32.25 38.06 33.86 35.38 34.47C34.07 34.75 32.73 34.89 31.39 34.87C26.36 34.87 21.32 34.87 16.29 34.87C15 34.88 13.72 34.73 12.46 34.44C9.76 33.78 8.14 32.07 7.52 29.37C7.21 28 7.12 26.62 7.12 25.24C7.12 22.82 7.12 20.4 7.12 17.98Z" fill="#FFFFFF" fill-opacity="0" fill-rule="nonzero"/>
		<path id="path1" d="M7.12 10.07C7.12 8.8 7.28 7.53 7.59 6.29C8.28 3.67 9.99 2.12 12.6 1.52C13.91 1.23 15.25 1.1 16.59 1.12C21.65 1.12 26.7 1.12 31.76 1.12C33.04 1.11 34.31 1.26 35.55 1.56C38.24 2.22 39.86 3.92 40.48 6.61C40.75 7.87 40.88 9.17 40.87 10.47C40.87 15.58 40.87 20.69 40.87 25.8C40.88 27.06 40.73 28.32 40.44 29.55C39.78 32.25 38.06 33.86 35.38 34.47C34.07 34.75 32.73 34.89 31.39 34.87C26.36 34.87 21.32 34.87 16.29 34.87C15 34.88 13.72 34.73 12.46 34.44C9.76 33.78 8.14 32.07 7.52 29.37C7.21 28 7.12 26.62 7.12 25.24C7.12 22.82 7.12 20.4 7.12 17.98C7.12 15.35 7.12 12.71 7.12 10.07Z" stroke="#FFFFFF" stroke-opacity="0" stroke-width="1.800000"/>
		<g opacity="0.200000">
			<path id="path2" d="M7.12 17.98C7.12 15.35 7.12 12.71 7.12 10.07C7.12 8.8 7.28 7.53 7.59 6.29C8.28 3.67 9.99 2.12 12.6 1.52C13.91 1.23 15.25 1.1 16.59 1.12C21.65 1.12 26.7 1.12 31.76 1.12C33.04 1.11 34.31 1.26 35.55 1.56C38.24 2.22 39.86 3.92 40.48 6.61C40.75 7.87 40.88 9.17 40.87 10.47C40.87 15.58 40.87 20.69 40.87 25.8C40.88 27.06 40.73 28.32 40.44 29.55C39.78 32.25 38.06 33.86 35.38 34.47C34.07 34.75 32.73 34.89 31.39 34.87C26.36 34.87 21.32 34.87 16.29 34.87C15 34.88 13.72 34.73 12.46 34.44C9.76 33.78 8.14 32.07 7.52 29.37C7.21 28 7.12 26.62 7.12 25.24C7.12 22.82 7.12 20.4 7.12 17.98Z" fill="#000000" fill-opacity="0" fill-rule="nonzero"/>
			<path id="path2" d="M7.12 10.07C7.12 8.8 7.28 7.53 7.59 6.29C8.28 3.67 9.99 2.12 12.6 1.52C13.91 1.23 15.25 1.1 16.59 1.12C21.65 1.12 26.7 1.12 31.76 1.12C33.04 1.11 34.31 1.26 35.55 1.56C38.24 2.22 39.86 3.92 40.48 6.61C40.75 7.87 40.88 9.17 40.87 10.47C40.87 15.58 40.87 20.69 40.87 25.8C40.88 27.06 40.73 28.32 40.44 29.55C39.78 32.25 38.06 33.86 35.38 34.47C34.07 34.75 32.73 34.89 31.39 34.87C26.36 34.87 21.32 34.87 16.29 34.87C15 34.88 13.72 34.73 12.46 34.44C9.76 33.78 8.14 32.07 7.52 29.37C7.21 28 7.12 26.62 7.12 25.24C7.12 22.82 7.12 20.4 7.12 17.98C7.12 15.35 7.12 12.71 7.12 10.07Z" stroke="#FFFFFF" stroke-opacity="0" stroke-width="1.800000"/>
		</g>
		<circle id="path3" cx="24.000977" cy="18.000000" r="18.000000" fill="#FFFFFF" fill-opacity="0"/>
		<circle id="path3" cx="24.000977" cy="18.000000" r="18.000000" stroke="#000000" stroke-opacity="0" stroke-width="1.800000"/>
		<g opacity="0.400000">
			<path id="合并" d="M40.2744 15.0142L40.2695 15.3597L40.2441 15.832C40.2393 15.8896 40.2314 15.9464 40.2188 16.0024C40.1973 16.1046 40.1631 16.2041 40.1162 16.301C40.0801 16.3761 40.0381 16.4467 39.9902 16.5128C39.9482 16.5712 39.9014 16.626 39.8496 16.6775C39.7686 16.7574 39.6807 16.8251 39.5859 16.8805C39.5381 16.9084 39.4883 16.9333 39.4365 16.955C39.334 16.9982 39.2295 17.0269 39.123 17.0409C39.0391 17.0519 38.9551 17.0541 38.8691 17.0474C38.7803 17.0403 38.6943 17.0247 38.6113 17.0001C38.5322 16.9772 38.4561 16.9464 38.3818 16.9081C38.3096 16.8706 38.2422 16.8271 38.1797 16.7776C38.1143 16.7263 38.0547 16.6685 38 16.6042C37.9453 16.54 37.8975 16.4717 37.8564 16.3994C37.8174 16.3297 37.7852 16.2562 37.7598 16.1791C37.7334 16.1 37.7148 16.0199 37.7041 15.9387C37.6934 15.8524 37.6914 15.7648 37.6982 15.6761L37.708 15.5442C37.7188 15.3656 37.7246 15.1841 37.7246 14.9999C37.7246 14.3567 37.6553 13.7292 37.5166 13.1176C37.4072 12.6357 37.2549 12.1636 37.0596 11.7013C36.8594 11.2289 36.6211 10.7817 36.3447 10.3596C36.0273 9.87573 35.6602 9.42493 35.2422 9.00708C34.8252 8.58936 34.374 8.22192 33.8896 7.90491L33.8896 7.90491C33.4678 7.62842 33.0205 7.39026 32.5488 7.19055C32.0859 6.995 31.6143 6.84253 31.1318 6.73315C30.5205 6.59424 29.8926 6.5249 29.25 6.5249C28.665 6.5249 28.0918 6.58264 27.5312 6.69824L27.5312 6.69836C27.1211 6.78271 26.7178 6.89807 26.3213 7.04407C25.9092 7.1958 25.5127 7.3772 25.1338 7.58813C24.6553 7.85425 24.2031 8.1676 23.7773 8.52808C23.71 8.58557 23.6377 8.63501 23.5605 8.67651C23.4893 8.71545 23.4131 8.74731 23.334 8.77222C23.2559 8.79639 23.1777 8.81299 23.0977 8.82202C23.0156 8.83142 22.9326 8.83264 22.8486 8.82556C22.7637 8.8186 22.6816 8.80371 22.6025 8.78088C22.5254 8.75891 22.4512 8.72949 22.3779 8.69275C22.3037 8.65515 22.2344 8.61121 22.1699 8.56091C22.1016 8.50745 22.0381 8.44666 21.9805 8.37878C21.9229 8.31079 21.874 8.23853 21.832 8.16199L21.832 8.16199C21.793 8.09009 21.7617 8.01428 21.7363 7.93481C21.7119 7.85706 21.6953 7.77856 21.6865 7.69922C21.6777 7.61682 21.6758 7.53357 21.6836 7.44934C21.6904 7.36511 21.7051 7.2832 21.7275 7.20361C21.75 7.12671 21.7793 7.052 21.8164 6.97937C21.8535 6.90503 21.8975 6.83557 21.9482 6.77112C22.001 6.70239 22.0625 6.63928 22.1299 6.58179C22.6709 6.12439 23.2432 5.72522 23.8496 5.3844L23.8496 5.3844C24.3564 5.09912 24.8867 4.85461 25.4404 4.65112C25.9785 4.45288 26.5254 4.29822 27.082 4.18713L27.082 4.18713C27.79 4.04565 28.5127 3.97485 29.25 3.97485C30.0713 3.97485 30.873 4.06201 31.6553 4.23633C32.2969 4.37939 32.9258 4.58118 33.542 4.84167C34.1641 5.10474 34.752 5.41895 35.3076 5.7843L35.3076 5.7843C35.9287 6.19348 36.5088 6.66675 37.0459 7.20398C37.583 7.74133 38.0566 8.3208 38.4658 8.9425C38.8311 9.49744 39.1445 10.0859 39.4082 10.7081C39.6689 11.324 39.8701 11.9528 40.0137 12.5947C40.1875 13.377 40.2744 14.1931 40.2744 15.0142Z" clip-rule="evenodd" fill="#64BB5C" fill-opacity="1.000000" fill-rule="evenodd"/>
		</g>
		<path id="合并" d="M6.60547 22.5C6.60547 22.1949 6.64648 21.9017 6.72852 21.6205C6.80957 21.3391 6.93262 21.0697 7.0957 20.8121L15.3408 7.81995C15.4639 7.62585 15.6045 7.4491 15.7627 7.28967C15.8984 7.15283 16.0459 7.02869 16.207 6.91724C16.3682 6.80603 16.5361 6.71106 16.7119 6.63245C16.9033 6.54663 17.1045 6.48035 17.3135 6.43359C17.5225 6.38684 17.7324 6.36145 17.9424 6.35754C18.1348 6.35388 18.3271 6.36816 18.5205 6.40027C18.7129 6.4325 18.9004 6.48157 19.0811 6.54761L19.0811 6.54761L19.0811 6.54785L19.0811 6.54785L19.0811 6.54785C19.292 6.62488 19.4941 6.72498 19.6885 6.84814C19.8945 6.979 20.0811 7.12939 20.248 7.29919C20.415 7.46887 20.5615 7.65808 20.6895 7.8667L26.1924 16.8828L29.5244 13.6525C29.6875 13.4944 29.8633 13.3566 30.0518 13.2391C30.2148 13.1376 30.3867 13.0514 30.5684 12.9802C30.749 12.9094 30.9336 12.8561 31.1211 12.8199C31.3262 12.7806 31.5352 12.7621 31.748 12.7642C31.96 12.7662 32.1689 12.7889 32.373 12.8322C32.5596 12.8718 32.7432 12.9288 32.9229 13.0032C33.1025 13.0776 33.2725 13.167 33.4326 13.2712C33.6191 13.3926 33.793 13.5341 33.9531 13.6958L40.4854 20.2817C40.6475 20.4449 40.7881 20.6212 40.9092 20.8107C41.0127 20.9731 41.1006 21.1453 41.1729 21.327C41.2461 21.5087 41.3008 21.6937 41.3389 21.8823C41.3799 22.0884 41.4004 22.2986 41.3994 22.5129C41.3984 22.7273 41.376 22.9373 41.334 23.1429C41.2949 23.3312 41.2373 23.5159 41.1631 23.6968C41.0889 23.8781 41 24.0494 40.8955 24.2111C40.7734 24.3995 40.6309 24.5747 40.4678 24.7365C40.3203 24.8828 40.1611 25.0122 39.9912 25.125C39.8213 25.2377 39.6406 25.3335 39.4482 25.4126C39.2568 25.4918 39.0605 25.5511 38.8604 25.5907C38.6611 25.6302 38.457 25.65 38.249 25.65L9.75586 25.65C9.52539 25.65 9.30078 25.626 9.08203 25.5781C8.89355 25.537 8.70898 25.4784 8.5293 25.4021C8.34863 25.3258 8.17871 25.2347 8.01855 25.1285C7.84277 25.0127 7.67969 24.8789 7.52832 24.7274C7.37695 24.5758 7.24316 24.4125 7.12695 24.2373L7.12695 24.2372C7.02051 24.0768 6.92969 23.9065 6.85352 23.7263C6.77734 23.5459 6.71875 23.3617 6.67773 23.1736C6.62988 22.9542 6.60547 22.7297 6.60547 22.5ZM38.7041 28.189C38.7539 28.0518 38.7793 27.9054 38.7793 27.7498C38.7793 27.6609 38.7705 27.5739 38.7529 27.4886L38.7529 27.4885L38.7529 27.4884C38.7354 27.4084 38.7109 27.33 38.6787 27.2532C38.6465 27.1782 38.6094 27.1075 38.5645 27.0411C38.5186 26.9723 38.4658 26.908 38.4062 26.8483C38.3457 26.7885 38.2812 26.7356 38.2129 26.6895C38.1465 26.6451 38.0762 26.6071 38.001 26.5753C37.9248 26.5432 37.8477 26.5188 37.7676 26.5021L37.7676 26.5021C37.6816 26.4839 37.5938 26.4747 37.5039 26.4747L10.3555 26.4808C10.207 26.5079 9.99023 26.5715 9.86719 26.6428C9.74121 26.7151 9.62891 26.8102 9.5293 26.928C9.42969 27.0464 9.35449 27.174 9.30469 27.3107L9.30469 27.3107C9.25391 27.4479 9.22949 27.5942 9.22949 27.7498C9.22949 27.8387 9.23828 27.9259 9.25586 28.0111C9.27246 28.0912 9.29688 28.1696 9.33008 28.2463C9.36133 28.3213 9.39941 28.392 9.44434 28.4584C9.49023 28.5273 9.54297 28.5916 9.60254 28.6514C9.66211 28.7111 9.72656 28.764 9.7959 28.8101C9.8623 28.8545 9.93262 28.8926 10.0078 28.9242C10.084 28.9563 10.1611 28.9808 10.2402 28.9976L10.2412 28.9976C10.3271 29.0157 10.415 29.0248 10.5049 29.0248L37.6523 29.0187C37.8018 28.9917 38.0176 28.9281 38.1416 28.8568C38.2676 28.7844 38.3799 28.6895 38.4795 28.5715C38.5791 28.4531 38.6543 28.3257 38.7041 28.189ZM35.7041 31.564C35.7539 31.4268 35.7793 31.2804 35.7793 31.1248C35.7793 31.0358 35.7705 30.9487 35.7529 30.8634C35.7354 30.7834 35.7109 30.705 35.6787 30.6282C35.6465 30.5532 35.6094 30.4825 35.5645 30.4161C35.5186 30.3473 35.4658 30.283 35.4062 30.2233C35.3457 30.1635 35.2812 30.1106 35.2129 30.0645C35.1465 30.0201 35.0762 29.9821 35.001 29.9503C34.9248 29.9183 34.8477 29.8939 34.7686 29.8772C34.6826 29.8589 34.5938 29.8497 34.5039 29.8497L13.3555 29.8558C13.2061 29.8829 12.9902 29.9465 12.8672 30.0178C12.7412 30.0901 12.6289 30.1852 12.5293 30.303C12.4297 30.4214 12.3545 30.549 12.3047 30.6857C12.2539 30.8229 12.2295 30.9692 12.2295 31.1248C12.2295 31.2137 12.2383 31.3009 12.2559 31.3861C12.2725 31.4662 12.2969 31.5446 12.3301 31.6213C12.3613 31.6963 12.3994 31.767 12.4443 31.8334C12.4902 31.9023 12.543 31.9666 12.6025 32.0264C12.6621 32.0861 12.7266 32.139 12.7959 32.1851C12.8623 32.2295 12.9326 32.2676 13.0078 32.2992C13.083 32.3313 13.1611 32.3557 13.2402 32.3724C13.3262 32.3906 13.4141 32.3998 13.5049 32.3998L34.6523 32.3937C34.8018 32.3667 35.0176 32.3031 35.1416 32.2318C35.2676 32.1594 35.3799 32.0645 35.4795 31.9467C35.5791 31.8281 35.6543 31.7007 35.7041 31.564Z" clip-rule="evenodd" fill="#64BB5C" fill-opacity="1.000000" fill-rule="evenodd"/>
	</g>
</svg>
