<svg width="49.500000" height="52.782471" viewBox="0 0 49.5 52.7825" fill="none" xmlns="http://www.w3.org/2000/svg" xmlns:xlink="http://www.w3.org/1999/xlink">
	<desc>
			Created with Pixso.
	</desc>
	<defs>
		<filter id="filter_210_8617_dd" x="0.000000" y="0.000000" width="49.500000" height="49.499756" filterUnits="userSpaceOnUse" color-interpolation-filters="sRGB">
			<feFlood flood-opacity="0" result="BackgroundImageFix"/>
			<feColorMatrix in="SourceAlpha" type="matrix" values="0 0 0 0 0 0 0 0 0 0 0 0 0 0 0 0 0 0 127 0" result="hardAlpha"/>
			<feOffset dx="0" dy="4"/>
			<feGaussianBlur stdDeviation="3"/>
			<feComposite in2="hardAlpha" operator="out" k2="-1" k3="1"/>
			<feColorMatrix type="matrix" values="0 0 0 0 0 0 0 0 0 0 0 0 0 0 0 0 0 0 0.2 0"/>
			<feBlend mode="normal" in2="BackgroundImageFix" result="effect_dropShadow_1"/>
			<feBlend mode="normal" in="SourceGraphic" in2="effect_dropShadow_1" result="shape"/>
		</filter>
		<linearGradient x1="24.750000" y1="4.782471" x2="24.750000" y2="52.782471" id="paint_linear_83_9611_0" gradientUnits="userSpaceOnUse">
			<stop stop-color="#F3F3F3" stop-opacity="0.000000"/>
			<stop offset="1.000000" stop-color="#F3F3F3"/>
		</linearGradient>
	</defs>
	<circle id="椭圆 24" cx="24.750000" cy="28.782471" r="24.000000" fill="url(#paint_linear_83_9611_0)" fill-opacity="1.000000"/>
	<g filter="url(#filter_210_8617_dd)">
		<path id="合并" d="M37.5735 5.3479C37.0137 5.11597 36.4058 5 35.75 5L13.75 5C13.0942 5 12.4863 5.11597 11.9265 5.3479L11.9265 5.3479L11.9265 5.3479L11.9265 5.3479L11.9265 5.3479C11.3667 5.57959 10.855 5.92749 10.3914 6.39136C9.92749 6.85498 9.57959 7.3667 9.3479 7.92651L9.3479 7.92651L9.3479 7.92651C9.11597 8.48633 9 9.09424 9 9.75L9 31.75C9 32.4058 9.11597 33.0137 9.3479 33.5735C9.57959 34.1333 9.92749 34.645 10.3914 35.1086C10.855 35.5725 11.3667 35.9204 11.9265 36.1521C12.4863 36.384 13.0942 36.5 13.75 36.5L35.75 36.5C36.4058 36.5 37.0137 36.384 37.5735 36.1521C38.1333 35.9204 38.645 35.5725 39.1086 35.1086C39.5725 34.645 39.9204 34.1333 40.1521 33.5735L40.1521 33.5735C40.384 33.0137 40.5 32.4058 40.5 31.75L40.5 9.75C40.5 9.09424 40.384 8.48633 40.1521 7.92651L40.1521 7.92651C39.9204 7.3667 39.5725 6.85498 39.1086 6.39136C38.645 5.92749 38.1333 5.57959 37.5735 5.3479ZM13.75 6.5L35.75 6.5C36.8333 6.5 37.6458 6.77075 38.1875 7.3125C38.7292 7.85425 39 8.66675 39 9.75L39 31.75C39 32.8333 38.7292 33.6458 38.1875 34.1875C37.6458 34.7292 36.8333 35 35.75 35L13.75 35C12.6667 35 11.8542 34.7292 11.3125 34.1875C10.7708 33.6458 10.5 32.8333 10.5 31.75L10.5 9.75C10.5 8.66675 10.7708 7.85425 11.3125 7.3125C11.8542 6.77075 12.6667 6.5 13.75 6.5ZM31.7351 13.2522C31.822 13.2524 31.9087 13.2483 31.9951 13.2397C32.0818 13.2314 32.1675 13.2188 32.2527 13.2019C32.2954 13.1936 32.3379 13.1841 32.3801 13.1736L32.3811 13.1733C32.4229 13.1628 32.4644 13.1514 32.5054 13.1389C32.5886 13.1138 32.6704 13.0847 32.7507 13.0515C32.7908 13.0349 32.8301 13.0176 32.8691 12.999L32.8699 12.9988C32.9092 12.9802 32.948 12.9609 32.9863 12.9404C33.063 12.8994 33.1375 12.855 33.2097 12.8069C33.282 12.7585 33.3518 12.707 33.4192 12.6519C33.4863 12.5969 33.5508 12.5386 33.6123 12.4773C33.6431 12.4465 33.6729 12.415 33.7021 12.3828L33.7031 12.3818C33.7319 12.3501 33.76 12.3176 33.7874 12.2844C33.8425 12.2173 33.8943 12.1477 33.9426 12.0754C33.991 12.0032 34.0356 11.9287 34.0767 11.8523C34.1177 11.7756 34.1548 11.6973 34.1882 11.6169C34.2217 11.5366 34.251 11.4548 34.2761 11.3718C34.3015 11.2886 34.3228 11.2046 34.3396 11.1191C34.3567 11.0339 34.3694 10.9482 34.3782 10.8618C34.3867 10.7751 34.3911 10.6885 34.3911 10.6016C34.3911 10.5146 34.387 10.428 34.3784 10.3416C34.3701 10.2551 34.3574 10.1692 34.3406 10.084C34.3237 9.99878 34.3025 9.91455 34.2773 9.8313C34.2522 9.74805 34.2231 9.66626 34.1899 9.58594C34.1567 9.50562 34.1196 9.42725 34.0786 9.35059C34.0378 9.27393 33.9932 9.19946 33.9451 9.1272C33.8967 9.05493 33.845 8.98511 33.79 8.91797C33.7349 8.85059 33.6768 8.78638 33.6152 8.72485C33.5537 8.66333 33.4895 8.60498 33.4224 8.5498C33.3552 8.49463 33.2856 8.44287 33.2134 8.39453C33.1411 8.34619 33.0667 8.30151 32.99 8.2605C32.9133 8.21948 32.835 8.18237 32.7546 8.14917C32.6743 8.11572 32.5928 8.08667 32.5095 8.06128C32.4265 8.03613 32.3423 8.01489 32.2571 7.9978C32.1719 7.98096 32.0859 7.96802 31.9995 7.95947C31.9128 7.95093 31.8262 7.94678 31.7393 7.94678C31.6523 7.94678 31.5657 7.95093 31.4792 7.95947C31.3928 7.96777 31.3069 7.98047 31.2217 7.99756C31.1365 8.0144 31.0522 8.0354 30.969 8.06079C30.886 8.08594 30.8042 8.11499 30.7239 8.14844C30.6436 8.18164 30.5649 8.21875 30.4885 8.25952C30.4119 8.30054 30.3374 8.34521 30.2651 8.39331C30.1926 8.44165 30.123 8.49341 30.0559 8.54858C30.022 8.57617 29.989 8.60449 29.9568 8.63379L29.9561 8.63452C29.9243 8.66333 29.8933 8.69287 29.8628 8.72339C29.8013 8.78467 29.7432 8.84912 29.688 8.91626C29.6328 8.9834 29.5811 9.05298 29.5327 9.12524C29.4844 9.19751 29.4399 9.27197 29.3989 9.34863C29.3579 9.42529 29.3208 9.50366 29.2876 9.58398C29.2542 9.66431 29.2251 9.74609 29.1997 9.82935C29.1746 9.91235 29.1533 9.99658 29.1365 10.0818C29.1196 10.167 29.1067 10.2529 29.0981 10.3394C29.0898 10.4258 29.0854 10.5127 29.0854 10.5996C29.0857 10.6863 29.0898 10.7729 29.0986 10.8591C29.1072 10.9456 29.1199 11.0312 29.137 11.1165C29.1538 11.2014 29.175 11.2856 29.2002 11.3687C29.2256 11.4517 29.2546 11.5332 29.2878 11.6135C29.3213 11.6936 29.3582 11.772 29.3992 11.8484C29.4402 11.925 29.4846 11.9993 29.533 12.0715C29.5811 12.1438 29.6328 12.2134 29.6877 12.2805C29.7427 12.3477 29.801 12.4119 29.8623 12.4731C29.9236 12.5347 29.9878 12.593 30.0549 12.6479C30.1218 12.7031 30.1914 12.7549 30.2637 12.8032C30.3357 12.8513 30.4099 12.896 30.4863 12.937C30.563 12.978 30.6414 13.0151 30.7214 13.0486C30.8015 13.082 30.8831 13.1113 30.9661 13.1365C31.0491 13.1619 31.1331 13.1831 31.2183 13.2002C31.3032 13.2173 31.3889 13.2302 31.4753 13.239C31.5618 13.2476 31.6482 13.2522 31.7351 13.2522ZM18.1711 13.2458C18.085 13.2544 17.9985 13.2588 17.9119 13.2588C17.8252 13.2588 17.7385 13.2546 17.6523 13.2461C17.5659 13.2375 17.4805 13.2249 17.3953 13.208C17.3103 13.1912 17.2263 13.1702 17.1433 13.1448C17.0603 13.1196 16.9788 13.0906 16.8987 13.0574C16.8186 13.0242 16.7402 12.9873 16.6638 12.9465C16.5872 12.9055 16.5129 12.8611 16.4407 12.813C16.3687 12.7649 16.2991 12.7131 16.2319 12.6582C16.165 12.6033 16.1008 12.5452 16.0393 12.4839C15.978 12.4226 15.9199 12.3584 15.8647 12.2915C15.8098 12.2246 15.7581 12.155 15.71 12.083C15.6616 12.0107 15.6172 11.9365 15.5762 11.8601C15.5352 11.7837 15.498 11.7056 15.4648 11.6255C15.4316 11.5454 15.4023 11.4639 15.3772 11.3809C15.3518 11.2979 15.3308 11.2139 15.3137 11.1289C15.2966 11.0439 15.2839 10.9583 15.2754 10.8718C15.2666 10.7856 15.2625 10.6992 15.2622 10.6123C15.2622 10.5259 15.2664 10.4392 15.2749 10.353C15.2834 10.2668 15.2961 10.1812 15.313 10.0962C15.3301 10.0112 15.3511 9.92725 15.3762 9.84448C15.4014 9.76147 15.4304 9.67993 15.4636 9.59985C15.4968 9.51978 15.5337 9.44165 15.5745 9.36523C15.6155 9.28882 15.6599 9.2146 15.708 9.14258C15.7561 9.07031 15.8076 9.00098 15.8625 8.93384C15.9175 8.86694 15.9758 8.80273 16.0369 8.74146C16.0981 8.68018 16.1624 8.62207 16.2292 8.56714C16.2964 8.51221 16.3657 8.46045 16.4377 8.41235C16.5098 8.36426 16.584 8.31982 16.6604 8.27881C16.6985 8.25854 16.7371 8.23901 16.7761 8.22046L16.7766 8.22021C16.8157 8.2019 16.8552 8.18433 16.8953 8.16772C16.9751 8.13452 17.0566 8.10547 17.1396 8.08032C17.2224 8.05493 17.3064 8.03394 17.3914 8.01709C17.4763 8 17.562 7.9873 17.6482 7.97876C17.7344 7.97021 17.8208 7.96606 17.9075 7.96606C17.9509 7.96606 17.9941 7.96704 18.0376 7.96924C18.0806 7.97119 18.1238 7.97437 18.167 7.97876C18.2532 7.98706 18.3389 7.99976 18.4238 8.0166C18.5088 8.03345 18.5928 8.05444 18.6755 8.07959C18.7585 8.10474 18.8401 8.13379 18.9202 8.16699C19.0002 8.19995 19.0784 8.23706 19.1548 8.27783C19.2314 8.3186 19.3057 8.36304 19.3777 8.41113C19.4497 8.45923 19.5193 8.51074 19.5864 8.56567C19.6533 8.62061 19.7175 8.67871 19.7788 8.73999C19.8401 8.80127 19.8982 8.86523 19.9534 8.93237C20.0083 8.99927 20.0598 9.0686 20.1082 9.14062C20.1562 9.21265 20.2007 9.28687 20.2417 9.36328C20.2827 9.4397 20.3196 9.51782 20.3528 9.5979C20.386 9.67798 20.4153 9.75952 20.4404 9.84229C20.4658 9.92529 20.4868 10.0093 20.5039 10.0942C20.5208 10.1792 20.5334 10.2646 20.542 10.3511C20.5505 10.4373 20.5549 10.5237 20.5549 10.6104C20.5552 10.697 20.551 10.7834 20.5425 10.8696C20.5342 10.9558 20.5215 11.0415 20.5046 11.1265C20.4878 11.2114 20.4668 11.2954 20.4417 11.3784C20.4167 11.4614 20.3877 11.5427 20.3545 11.623C20.3215 11.7031 20.2844 11.7812 20.2437 11.8577C20.2029 11.9341 20.1584 12.0085 20.1104 12.0806C20.0623 12.1526 20.011 12.2222 19.9561 12.2893C19.9011 12.3562 19.843 12.4204 19.7817 12.4819C19.7207 12.5432 19.6565 12.6013 19.5896 12.6565C19.5227 12.7114 19.4531 12.7629 19.3811 12.8113C19.3093 12.8594 19.2351 12.9041 19.1587 12.9451C19.0823 12.9858 19.0042 13.0229 18.9241 13.0562C18.844 13.0896 18.7627 13.1187 18.6797 13.144C18.5969 13.1692 18.5129 13.1904 18.428 13.2073C18.343 13.2244 18.2573 13.2371 18.1711 13.2458ZM26 32.75L26 8.75C26 8.33008 25.6699 8 25.25 8C24.8301 8 24.5 8.33008 24.5 8.75L24.5 32.75C24.5 33.1699 24.8301 33.5 25.25 33.5C25.6699 33.5 26 33.1699 26 32.75ZM35.8311 15.5115C35.6841 15.4028 35.533 15.3 35.3777 15.2031C35.2227 15.1064 35.0637 15.0161 34.9014 14.9319C34.739 14.8479 34.5735 14.7705 34.405 14.6995C34.2363 14.6287 34.0652 14.5645 33.8916 14.5073C33.7178 14.45 33.5422 14.3997 33.3645 14.3564C33.1868 14.3132 33.0076 14.2771 32.8271 14.248C32.6465 14.219 32.4651 14.1973 32.2827 14.1826C32.1919 14.1755 32.1008 14.1699 32.0098 14.1665L32.0093 14.1663L32.009 14.1663C31.9177 14.1628 31.8264 14.1609 31.7351 14.1609C31.6436 14.1609 31.5522 14.1628 31.4607 14.1663C31.3696 14.1699 31.2783 14.1755 31.1873 14.1826C31.0051 14.1973 30.8235 14.219 30.6431 14.248C30.4624 14.2771 30.2834 14.3132 30.1057 14.3564C29.928 14.3997 29.7522 14.45 29.5786 14.5073C29.405 14.5645 29.2339 14.6287 29.0652 14.6995C28.8967 14.7705 28.7312 14.8479 28.5688 14.9319C28.4065 15.0161 28.2476 15.1064 28.0923 15.2031C27.9373 15.3 27.7861 15.4028 27.6392 15.5115C27.5813 15.5632 27.5364 15.6245 27.5046 15.6953C27.4729 15.7661 27.4568 15.8403 27.4568 15.918L27.4568 24.0522C27.457 24.1233 27.4709 24.1914 27.498 24.2568C27.5254 24.3223 27.564 24.3801 27.614 24.4304C27.6638 24.4807 27.7214 24.5195 27.7869 24.5471C27.8521 24.575 27.9202 24.5891 27.991 24.5898L29.1399 24.5898L29.8472 33.0508C29.8528 33.1187 29.8704 33.1831 29.9004 33.2444C29.9302 33.3057 29.9702 33.3594 30.0203 33.4055C30.0703 33.4519 30.127 33.4873 30.1904 33.5122C30.2539 33.5371 30.3198 33.5498 30.3879 33.5498L30.4326 33.5498C30.7334 33.5242 32.74 33.5242 33.0408 33.5498L33.0854 33.5498C33.1536 33.5498 33.219 33.5371 33.2822 33.5122C33.3455 33.4873 33.4021 33.4517 33.4519 33.4053C33.5017 33.3591 33.5413 33.3054 33.5708 33.2441C33.6003 33.1829 33.6179 33.1184 33.623 33.0508L34.3206 24.5898L35.4758 24.5898C35.5115 24.5898 35.5466 24.5864 35.5815 24.5796C35.6165 24.5725 35.6504 24.5623 35.6833 24.5488C35.7163 24.5352 35.7476 24.5186 35.7771 24.4988C35.792 24.489 35.8062 24.4785 35.8198 24.4673L35.8198 24.4673C35.8337 24.4561 35.8467 24.4443 35.8594 24.4316C35.8721 24.4192 35.884 24.406 35.8953 24.3923L35.8955 24.3923C35.9067 24.3787 35.9172 24.3645 35.927 24.3499C35.947 24.3203 35.9639 24.2891 35.9775 24.2563C35.9844 24.24 35.9905 24.2234 35.9956 24.2065C36.001 24.1895 36.0054 24.1724 36.0088 24.1548C36.0161 24.1199 36.0198 24.0847 36.0198 24.0491L36.0198 15.918C36.0181 15.8401 36.0007 15.7656 35.968 15.6951C35.9351 15.6243 35.8894 15.5632 35.8311 15.5115ZM17.9119 14.1772C20.4333 14.1772 20.8943 15.71 20.9133 15.7771L23.3325 23.8955C23.3567 23.9775 23.3611 24.0603 23.3457 24.1443C23.3306 24.228 23.2974 24.3042 23.2463 24.3723C23.1963 24.4417 23.1331 24.4956 23.0569 24.5339C22.9805 24.5723 22.8997 24.5911 22.8142 24.5901L20.5103 24.5901L19.8062 33.0315C19.8035 33.0657 19.7976 33.0986 19.7888 33.1311L19.7886 33.1311C19.7798 33.1633 19.7678 33.1948 19.7529 33.2253C19.7231 33.2866 19.6831 33.3403 19.6331 33.3865C19.583 33.4329 19.5261 33.4683 19.4629 33.4932C19.3994 33.5181 19.3335 33.5308 19.2654 33.5308L16.571 33.5308C16.5029 33.5308 16.437 33.5181 16.3738 33.4932C16.3103 33.4683 16.2534 33.4329 16.2034 33.3865C16.1533 33.3403 16.1133 33.2866 16.0835 33.2253C16.0686 33.1948 16.0566 33.1633 16.0479 33.1311L16.0479 33.1311L16.0479 33.1311C16.0388 33.0986 16.033 33.0657 16.0303 33.0315L15.3293 24.5901L13.0254 24.5901C13.0049 24.5898 12.9846 24.5884 12.9644 24.5859L12.9626 24.5857C12.9419 24.583 12.9211 24.5793 12.9006 24.5742C12.8599 24.564 12.8206 24.5493 12.783 24.53C12.7454 24.511 12.7107 24.4875 12.6785 24.4602C12.6465 24.4329 12.6179 24.4023 12.5928 24.3682C12.5679 24.3342 12.5471 24.2979 12.5305 24.259C12.5142 24.2202 12.5022 24.1799 12.4951 24.1384C12.4878 24.0969 12.4856 24.0552 12.488 24.0129C12.4907 23.9709 12.498 23.9297 12.5103 23.8892L14.9102 15.7771C14.9263 15.7229 15.3901 14.1772 17.9119 14.1772Z" clip-rule="evenodd" fill="#000000" fill-opacity="1.000000" fill-rule="evenodd"/>
	</g>
</svg>
