<svg width="120.000000" height="120.000000" viewBox="0 0 56 56" fill="none" xmlns="http://www.w3.org/2000/svg" xmlns:xlink="http://www.w3.org/1999/xlink">
	<desc>
			Created with Pixso.
	</desc>
	<defs>
		<clipPath id="clip83_9843">
			<rect id="ic_public_gps" width="56.000000" height="56.000000" fill="white" fill-opacity="0"/>
		</clipPath>
		<clipPath id="clip83_9853">
			<rect id="ic_bpit_scenic_spot_filled (1)" width="24.000000" height="24.000000" transform="translate(16.000000 9.000000)" fill="white" fill-opacity="0"/>
		</clipPath>
	</defs>
	<g clip-path="url(#clip83_9843)">
		<path id="path-1" d="M28 2.07C39.92 2.07 49.59 11.56 49.59 23.28C49.59 27.84 48.21 32.3 45.64 36.81C44.04 39.62 42.12 42.26 39.58 45.28L38.96 46.01L38.31 46.76C38.09 47.01 37.87 47.26 37.64 47.52C37.13 48.1 36.56 48.7 35.92 49.34L35.43 49.82C35.1 50.14 34.75 50.48 34.39 50.82L33.83 51.33L33.54 51.59L32.94 52.12C32.74 52.3 32.54 52.49 32.33 52.67L31.68 53.22C29.65 54.97 26.65 55.02 24.53 53.34L23.59 52.53L23.11 52.11L22.44 51.51L21.81 50.94L21.23 50.41L20.69 49.91L20.36 49.59L20.05 49.29L19.76 49.01L19.49 48.74L19.24 48.48L18.91 48.12L18.37 47.52L17.77 46.84C17.67 46.73 17.57 46.61 17.47 46.5L16.9 45.83L16.34 45.17L16.06 44.84L15.52 44.18L15 43.52C9.4 36.46 6.42 30.11 6.42 23.28C6.42 11.64 15.66 2.26 27.38 2.07L27.72 2.07L28 2.07ZM28 2.07Z" fill="#E84026" fill-opacity="1.000000" fill-rule="nonzero"/>
		<path id="path-1" d="M49.59 23.28C49.59 27.84 48.21 32.3 45.64 36.81C44.04 39.62 42.12 42.26 39.58 45.28L38.96 46.01L38.31 46.76C38.09 47.01 37.87 47.26 37.64 47.52C37.13 48.1 36.56 48.7 35.92 49.34L35.43 49.82C35.1 50.14 34.75 50.48 34.39 50.82L33.83 51.33L33.54 51.59L32.94 52.12C32.74 52.3 32.54 52.49 32.33 52.67L31.68 53.22C29.65 54.97 26.65 55.02 24.53 53.34L23.59 52.53L23.11 52.11L22.44 51.51L21.81 50.94L21.23 50.41L20.69 49.91L20.36 49.59L20.05 49.29L19.76 49.01L19.49 48.74L19.24 48.48L18.91 48.12L18.37 47.52L17.77 46.84C17.67 46.73 17.57 46.61 17.47 46.5L16.9 45.83L16.34 45.17L16.06 44.84L15.52 44.18L15 43.52C9.4 36.46 6.42 30.11 6.42 23.28C6.42 11.64 15.66 2.26 27.38 2.07L27.72 2.07L28 2.07C39.92 2.07 49.59 11.56 49.59 23.28Z" stroke="#000000" stroke-opacity="0" stroke-width="2.333333"/>
	</g>
	<g clip-path="url(#clip83_9853)"/>
	<g opacity="0.400000">
		<path id="path" d="M31.18 17.83L35.7 19.82C36.96 20.38 37.78 21.63 37.78 23.02L37.78 29.5C37.78 31.43 36.21 32.99 34.29 32.99L28.27 32.99L28.27 19.73C28.27 18.58 29.2 17.65 30.35 17.65C30.64 17.65 30.92 17.71 31.18 17.83Z" fill="#FFFFFF" fill-opacity="1.000000" fill-rule="evenodd"/>
	</g>
	<path id="path" d="M21.49 9L28.03 9C29.84 9 31.31 10.46 31.31 12.27L31.31 29.72C31.31 31.53 29.84 33 28.03 33L21.49 33C19.68 33 18.21 31.53 18.21 29.72L18.21 12.27C18.21 10.46 19.68 9 21.49 9ZM22.58 19.75L26.94 19.75C27.54 19.75 28.03 20.24 28.03 20.84C28.03 21.45 27.54 21.93 26.94 21.93L22.58 21.93C21.98 21.93 21.49 21.45 21.49 20.84C21.49 20.24 21.98 19.75 22.58 19.75ZM22.58 14.3L26.94 14.3C27.54 14.3 28.03 14.79 28.03 15.39C28.03 15.99 27.54 16.48 26.94 16.48L22.58 16.48C21.98 16.48 21.49 15.99 21.49 15.39C21.49 14.79 21.98 14.3 22.58 14.3Z" fill="#FFFFFF" fill-opacity="1.000000" fill-rule="evenodd"/>
</svg>
