<svg width="120.000000" height="120.000000" viewBox="0 0 56 56" fill="none" xmlns="http://www.w3.org/2000/svg" xmlns:xlink="http://www.w3.org/1999/xlink">
	<desc>
			Created with Pixso.
	</desc>
	<defs>
		<clipPath id="clip83_9811">
			<rect id="ic_public_gps" width="56.000000" height="56.000000" fill="white" fill-opacity="0"/>
		</clipPath>
		<clipPath id="clip83_9815">
			<rect id="ic_bpit_scenic_spot_filled (1)" width="24.000000" height="24.000000" transform="translate(16.000000 9.000000)" fill="white" fill-opacity="0"/>
		</clipPath>
	</defs>
	<g clip-path="url(#clip83_9811)">
		<path id="path-1" d="M28 2.07C39.92 2.07 49.59 11.56 49.59 23.28C49.59 27.84 48.21 32.3 45.64 36.81C44.04 39.62 42.12 42.26 39.58 45.28L38.96 46.01L38.31 46.76C38.09 47.01 37.87 47.26 37.64 47.52C37.13 48.1 36.56 48.7 35.92 49.34L35.43 49.82C35.1 50.14 34.75 50.48 34.39 50.82L33.83 51.33L33.54 51.59L32.94 52.12C32.74 52.3 32.54 52.49 32.33 52.67L31.68 53.22C29.65 54.97 26.65 55.02 24.53 53.34L23.59 52.53L23.11 52.11L22.44 51.51L21.81 50.94L21.23 50.41L20.69 49.91L20.36 49.59L20.05 49.29L19.76 49.01L19.49 48.74L19.24 48.48L18.91 48.12L18.37 47.52L17.77 46.84C17.67 46.73 17.57 46.61 17.47 46.5L16.9 45.83L16.34 45.17L16.06 44.84L15.52 44.18L15 43.52C9.4 36.46 6.42 30.11 6.42 23.28C6.42 11.64 15.66 2.26 27.38 2.07L27.72 2.07L28 2.07ZM28 2.07Z" fill="#E84026" fill-opacity="1.000000" fill-rule="nonzero"/>
		<path id="path-1" d="M49.59 23.28C49.59 27.84 48.21 32.3 45.64 36.81C44.04 39.62 42.12 42.26 39.58 45.28L38.96 46.01L38.31 46.76C38.09 47.01 37.87 47.26 37.64 47.52C37.13 48.1 36.56 48.7 35.92 49.34L35.43 49.82C35.1 50.14 34.75 50.48 34.39 50.82L33.83 51.33L33.54 51.59L32.94 52.12C32.74 52.3 32.54 52.49 32.33 52.67L31.68 53.22C29.65 54.97 26.65 55.02 24.53 53.34L23.59 52.53L23.11 52.11L22.44 51.51L21.81 50.94L21.23 50.41L20.69 49.91L20.36 49.59L20.05 49.29L19.76 49.01L19.49 48.74L19.24 48.48L18.91 48.12L18.37 47.52L17.77 46.84C17.67 46.73 17.57 46.61 17.47 46.5L16.9 45.83L16.34 45.17L16.06 44.84L15.52 44.18L15 43.52C9.4 36.46 6.42 30.11 6.42 23.28C6.42 11.64 15.66 2.26 27.38 2.07L27.72 2.07L28 2.07C39.92 2.07 49.59 11.56 49.59 23.28Z" stroke="#000000" stroke-opacity="0" stroke-width="2.333333"/>
	</g>
	<g clip-path="url(#clip83_9815)">
		<path id="path1" d="M16.75 20.99C16.75 19.23 16.74 17.47 16.75 15.71C16.74 14.86 16.85 14.02 17.06 13.19C17.52 11.45 18.66 10.41 20.4 10.01C21.27 9.82 22.16 9.73 23.06 9.75C26.43 9.75 29.8 9.75 33.17 9.75C34.02 9.74 34.87 9.84 35.7 10.04C37.49 10.48 38.57 11.61 38.98 13.4C39.17 14.25 39.25 15.11 39.24 15.98C39.24 19.38 39.24 22.79 39.24 26.2C39.25 27.04 39.15 27.88 38.96 28.7C38.52 30.5 37.37 31.57 35.58 31.98C34.71 32.17 33.82 32.26 32.92 32.24C29.57 32.24 26.21 32.24 22.86 32.24C22 32.25 21.14 32.15 20.31 31.96C18.5 31.52 17.42 30.38 17.01 28.58C16.8 27.66 16.75 26.75 16.75 25.82C16.75 24.21 16.75 22.6 16.75 20.99Z" fill="#FFFFFF" fill-opacity="0" fill-rule="nonzero"/>
		<path id="path1" d="M16.75 15.71C16.74 14.86 16.85 14.02 17.06 13.19C17.52 11.45 18.66 10.41 20.4 10.01C21.27 9.82 22.16 9.73 23.06 9.75C26.43 9.75 29.8 9.75 33.17 9.75C34.02 9.74 34.87 9.84 35.7 10.04C37.49 10.48 38.57 11.61 38.98 13.4C39.17 14.25 39.25 15.11 39.24 15.98C39.24 19.38 39.24 22.79 39.24 26.2C39.25 27.04 39.15 27.88 38.96 28.7C38.52 30.5 37.37 31.57 35.58 31.98C34.71 32.17 33.82 32.26 32.92 32.24C29.57 32.24 26.21 32.24 22.86 32.24C22 32.25 21.14 32.15 20.31 31.96C18.5 31.52 17.42 30.38 17.01 28.58C16.8 27.66 16.75 26.75 16.75 25.82C16.75 24.21 16.75 22.6 16.75 20.99C16.75 19.23 16.74 17.47 16.75 15.71Z" stroke="#FFFFFF" stroke-opacity="0" stroke-width="1.500000"/>
		<g opacity="0.200000">
			<path id="path2" d="M16.75 20.99C16.75 19.23 16.74 17.47 16.75 15.71C16.74 14.86 16.85 14.02 17.06 13.19C17.52 11.45 18.66 10.41 20.4 10.01C21.27 9.82 22.16 9.73 23.06 9.75C26.43 9.75 29.8 9.75 33.17 9.75C34.02 9.74 34.87 9.84 35.7 10.04C37.49 10.48 38.57 11.61 38.98 13.4C39.17 14.25 39.25 15.11 39.24 15.98C39.24 19.38 39.24 22.79 39.24 26.2C39.25 27.04 39.15 27.88 38.96 28.7C38.52 30.5 37.37 31.57 35.58 31.98C34.71 32.17 33.82 32.26 32.92 32.24C29.57 32.24 26.21 32.24 22.86 32.24C22 32.25 21.14 32.15 20.31 31.96C18.5 31.52 17.42 30.38 17.01 28.58C16.8 27.66 16.75 26.75 16.75 25.82C16.75 24.21 16.75 22.6 16.75 20.99Z" fill="#000000" fill-opacity="0" fill-rule="nonzero"/>
			<path id="path2" d="M16.75 15.71C16.74 14.86 16.85 14.02 17.06 13.19C17.52 11.45 18.66 10.41 20.4 10.01C21.27 9.82 22.16 9.73 23.06 9.75C26.43 9.75 29.8 9.75 33.17 9.75C34.02 9.74 34.87 9.84 35.7 10.04C37.49 10.48 38.57 11.61 38.98 13.4C39.17 14.25 39.25 15.11 39.24 15.98C39.24 19.38 39.24 22.79 39.24 26.2C39.25 27.04 39.15 27.88 38.96 28.7C38.52 30.5 37.37 31.57 35.58 31.98C34.71 32.17 33.82 32.26 32.92 32.24C29.57 32.24 26.21 32.24 22.86 32.24C22 32.25 21.14 32.15 20.31 31.96C18.5 31.52 17.42 30.38 17.01 28.58C16.8 27.66 16.75 26.75 16.75 25.82C16.75 24.21 16.75 22.6 16.75 20.99C16.75 19.23 16.74 17.47 16.75 15.71Z" stroke="#FFFFFF" stroke-opacity="0" stroke-width="1.500000"/>
		</g>
		<circle id="path3" cx="28.000000" cy="21.000000" r="12.000000" fill="#FFFFFF" fill-opacity="0"/>
		<circle id="path3" cx="28.000000" cy="21.000000" r="12.000000" stroke="#000000" stroke-opacity="0" stroke-width="1.500000"/>
		<path id="path4" d="" fill="#000000" fill-opacity="0" fill-rule="nonzero"/>
		<path id="path4" d="M37.97 19.51C37.98 19.48 37.98 19.45 37.98 19.42C37.99 19.28 38 19.14 38 19C38 15.41 35.08 12.5 31.5 12.5C29.9 12.5 28.43 13.07 27.3 14.03" stroke="#FFFFFF" stroke-opacity="0" stroke-width="1.500000" stroke-linejoin="round" stroke-linecap="round"/>
		<path id="path5" d="M31.5 12.25C35.22 12.25 38.25 15.27 38.25 19L38.24 19.21L38.23 19.5C38.22 19.64 38.09 19.77 37.96 19.76C37.82 19.75 37.71 19.63 37.73 19.49L37.73 19.4C37.74 19.27 37.75 19.13 37.75 19C37.75 15.54 34.95 12.75 31.5 12.75C30 12.75 28.58 13.27 27.46 14.22C27.35 14.31 27.2 14.3 27.11 14.19C27.02 14.09 27.03 13.93 27.14 13.84C28.35 12.82 29.88 12.25 31.5 12.25Z" fill="#FFFFFF" fill-opacity="1.000000" fill-rule="nonzero"/>
		<path id="path5" d="M38.25 19L38.24 19.21L38.23 19.5C38.22 19.64 38.09 19.77 37.96 19.76C37.82 19.75 37.71 19.63 37.73 19.49L37.73 19.4C37.74 19.27 37.75 19.13 37.75 19C37.75 15.54 34.95 12.75 31.5 12.75C30 12.75 28.58 13.27 27.46 14.22C27.35 14.31 27.2 14.3 27.11 14.19C27.02 14.09 27.03 13.93 27.14 13.84C28.35 12.82 29.88 12.25 31.5 12.25C35.22 12.25 38.25 15.27 38.25 19Z" stroke="#FFFFFF" stroke-opacity="1.000000" stroke-width="1.500000"/>
		<path id="path6" d="M18.5 25.5C17.67 25.5 17 24.82 17 24C17 23.71 17.08 23.43 17.23 23.19L22.73 14.53C23.17 13.83 24.1 13.62 24.8 14.07C24.99 14.19 25.16 14.36 25.28 14.55L29.33 21.2L32.1 18.53C32.69 17.96 33.63 17.96 34.2 18.55L38.56 22.94C39.14 23.53 39.14 24.48 38.55 25.06C38.27 25.34 37.89 25.5 37.49 25.5L18.5 25.5Z" fill="#FFFFFF" fill-opacity="1.000000" fill-rule="evenodd"/>
		<path id="path6" d="M17 24C17 23.71 17.08 23.43 17.23 23.19L22.73 14.53C23.17 13.83 24.1 13.62 24.8 14.07C24.99 14.19 25.16 14.36 25.28 14.55L29.33 21.2L32.1 18.53C32.69 17.96 33.63 17.96 34.2 18.55L38.56 22.94C39.14 23.53 39.14 24.48 38.55 25.06C38.27 25.34 37.89 25.5 37.49 25.5L18.5 25.5C17.67 25.5 17 24.82 17 24Z" stroke="#FFFFFF" stroke-opacity="1.000000" stroke-width="1.500000" stroke-linejoin="round"/>
		<path id="path7" d="" fill="#000000" fill-opacity="0" fill-rule="nonzero"/>
		<path id="path7" d="M19 27.5L37 27.5M21 29.75L35 29.75" stroke="#FFFFFF" stroke-opacity="0" stroke-width="1.500000" stroke-linejoin="round" stroke-linecap="round"/>
		<path id="path8" d="M37 27.25C37.13 27.25 37.25 27.36 37.25 27.5C37.25 27.62 37.16 27.72 37.04 27.74L19 27.75C18.86 27.75 18.75 27.63 18.75 27.5C18.75 27.37 18.83 27.27 18.95 27.25L37 27.25ZM35 29.5C35.13 29.5 35.25 29.61 35.25 29.75C35.25 29.87 35.16 29.97 35.04 29.99L21 30C20.86 30 20.75 29.88 20.75 29.75C20.75 29.62 20.83 29.52 20.95 29.5L35 29.5Z" fill="#FFFFFF" fill-opacity="1.000000" fill-rule="nonzero"/>
		<path id="path8" d="M37.25 27.5C37.25 27.62 37.16 27.72 37.04 27.74L19 27.75C18.86 27.75 18.75 27.63 18.75 27.5C18.75 27.37 18.83 27.27 18.95 27.25L37 27.25C37.13 27.25 37.25 27.36 37.25 27.5ZM35.25 29.75C35.25 29.87 35.16 29.97 35.04 29.99L21 30C20.86 30 20.75 29.88 20.75 29.75C20.75 29.62 20.83 29.52 20.95 29.5L35 29.5C35.13 29.5 35.25 29.61 35.25 29.75Z" stroke="#FFFFFF" stroke-opacity="1.000000" stroke-width="1.500000"/>
	</g>
</svg>
