<svg width="120.000000" height="120.000000" viewBox="0 0 56 56" fill="none" xmlns="http://www.w3.org/2000/svg" xmlns:xlink="http://www.w3.org/1999/xlink">
	<desc>
			Created with Pixso.
	</desc>
	<defs>
		<clipPath id="clip83_9828">
			<rect id="ic_public_gps" width="56.000000" height="56.000000" fill="white" fill-opacity="0"/>
		</clipPath>
	</defs>
	<g clip-path="url(#clip83_9828)">
		<path id="path-1" d="M28 2.07C39.92 2.07 49.59 11.56 49.59 23.28C49.59 27.84 48.21 32.3 45.64 36.81C44.04 39.62 42.12 42.26 39.58 45.28L38.96 46.01L38.31 46.76C38.09 47.01 37.87 47.26 37.64 47.52C37.13 48.1 36.56 48.7 35.92 49.34L35.43 49.82C35.1 50.14 34.75 50.48 34.39 50.82L33.83 51.33L33.54 51.59L32.94 52.12C32.74 52.3 32.54 52.49 32.33 52.67L31.68 53.22C29.65 54.97 26.65 55.02 24.53 53.34L23.59 52.53L23.11 52.11L22.44 51.51L21.81 50.94L21.23 50.41L20.69 49.91L20.36 49.59L20.05 49.29L19.76 49.01L19.49 48.74L19.24 48.48L18.91 48.12L18.37 47.52L17.77 46.84C17.67 46.73 17.57 46.61 17.47 46.5L16.9 45.83L16.34 45.17L16.06 44.84L15.52 44.18L15 43.52C9.4 36.46 6.42 30.11 6.42 23.28C6.42 11.64 15.66 2.26 27.38 2.07L27.72 2.07L28 2.07ZM28 2.07Z" fill="#E84026" fill-opacity="1.000000" fill-rule="nonzero"/>
		<path id="path-1" d="M49.59 23.28C49.59 27.84 48.21 32.3 45.64 36.81C44.04 39.62 42.12 42.26 39.58 45.28L38.96 46.01L38.31 46.76C38.09 47.01 37.87 47.26 37.64 47.52C37.13 48.1 36.56 48.7 35.92 49.34L35.43 49.82C35.1 50.14 34.75 50.48 34.39 50.82L33.83 51.33L33.54 51.59L32.94 52.12C32.74 52.3 32.54 52.49 32.33 52.67L31.68 53.22C29.65 54.97 26.65 55.02 24.53 53.34L23.59 52.53L23.11 52.11L22.44 51.51L21.81 50.94L21.23 50.41L20.69 49.91L20.36 49.59L20.05 49.29L19.76 49.01L19.49 48.74L19.24 48.48L18.91 48.12L18.37 47.52L17.77 46.84C17.67 46.73 17.57 46.61 17.47 46.5L16.9 45.83L16.34 45.17L16.06 44.84L15.52 44.18L15 43.52C9.4 36.46 6.42 30.11 6.42 23.28C6.42 11.64 15.66 2.26 27.38 2.07L27.72 2.07L28 2.07C39.92 2.07 49.59 11.56 49.59 23.28Z" stroke="#000000" stroke-opacity="0" stroke-width="2.333333"/>
	</g>
	<rect id="矩形 129" x="16.000000" y="9.000000" width="24.000000" height="24.000000" fill="#C4C4C4" fill-opacity="0"/>
	<path id="path-1" d="M35.82 10.12C36.06 10.12 36.25 10.3 36.25 10.53L36.25 31.05C36.25 31.5 35.86 31.87 35.39 31.87L34.83 31.87C34.36 31.87 33.98 31.5 33.98 31.05L33.98 22.66L31.57 22.66C30.63 22.66 29.87 21.93 29.87 21.03L29.87 15.84C29.87 12.68 31.85 10.13 35.39 10.13C35.45 10.12 35.5 10.12 35.56 10.12L35.82 10.12ZM23.12 10.5C23.58 10.5 23.95 10.86 23.95 11.31L23.95 17.26C23.95 17.71 24.31 18.07 24.77 18.07C25.23 18.07 25.6 17.71 25.6 17.26L25.6 11.58C25.6 11.13 25.96 10.77 26.42 10.77C26.88 10.77 27.25 11.13 27.25 11.58L27.25 17.53C27.25 19.4 25.96 20.97 24.22 21.44L24.22 30.79C24.22 31.39 23.73 31.87 23.12 31.87C22.51 31.87 22.02 31.39 22.02 30.79L22.02 21.44C20.28 20.97 19 19.4 19 17.53L19 11.58C19 11.13 19.36 10.77 19.82 10.77C20.28 10.77 20.64 11.13 20.64 11.58L20.64 17.26C20.64 17.71 21.01 18.07 21.47 18.07C21.93 18.07 22.3 17.71 22.3 17.26L22.3 11.31C22.3 10.86 22.66 10.5 23.12 10.5Z" fill="#FFFFFF" fill-opacity="1.000000" fill-rule="nonzero"/>
</svg>
