<svg width="120.000000" height="120.000000" viewBox="0 0 56 56" fill="none" xmlns="http://www.w3.org/2000/svg" xmlns:xlink="http://www.w3.org/1999/xlink">
	<desc>
			Created with Pixso.
	</desc>
	<defs>
		<clipPath id="clip83_9858">
			<rect id="ic_public_gps" width="56.000000" height="56.000000" fill="white" fill-opacity="0"/>
		</clipPath>
	</defs>
	<g clip-path="url(#clip83_9858)">
		<path id="path-1" d="M28 2.07C39.92 2.07 49.59 11.56 49.59 23.28C49.59 27.84 48.21 32.3 45.64 36.81C44.04 39.62 42.12 42.26 39.58 45.28L38.96 46.01L38.31 46.76C38.09 47.01 37.87 47.26 37.64 47.52C37.13 48.1 36.56 48.7 35.92 49.34L35.43 49.82C35.1 50.14 34.75 50.48 34.39 50.82L33.83 51.33L33.54 51.59L32.94 52.12C32.74 52.3 32.54 52.49 32.33 52.67L31.68 53.22C29.65 54.97 26.65 55.02 24.53 53.34L23.59 52.53L23.11 52.11L22.44 51.51L21.81 50.94L21.23 50.41L20.69 49.91L20.36 49.59L20.05 49.29L19.76 49.01L19.49 48.74L19.24 48.48L18.91 48.12L18.37 47.52L17.77 46.84C17.67 46.73 17.57 46.61 17.47 46.5L16.9 45.83L16.34 45.17L16.06 44.84L15.52 44.18L15 43.52C9.4 36.46 6.42 30.11 6.42 23.28C6.42 11.64 15.66 2.26 27.38 2.07L27.72 2.07L28 2.07ZM28 2.07Z" fill="#E84026" fill-opacity="1.000000" fill-rule="nonzero"/>
		<path id="path-1" d="M49.59 23.28C49.59 27.84 48.21 32.3 45.64 36.81C44.04 39.62 42.12 42.26 39.58 45.28L38.96 46.01L38.31 46.76C38.09 47.01 37.87 47.26 37.64 47.52C37.13 48.1 36.56 48.7 35.92 49.34L35.43 49.82C35.1 50.14 34.75 50.48 34.39 50.82L33.83 51.33L33.54 51.59L32.94 52.12C32.74 52.3 32.54 52.49 32.33 52.67L31.68 53.22C29.65 54.97 26.65 55.02 24.53 53.34L23.59 52.53L23.11 52.11L22.44 51.51L21.81 50.94L21.23 50.41L20.69 49.91L20.36 49.59L20.05 49.29L19.76 49.01L19.49 48.74L19.24 48.48L18.91 48.12L18.37 47.52L17.77 46.84C17.67 46.73 17.57 46.61 17.47 46.5L16.9 45.83L16.34 45.17L16.06 44.84L15.52 44.18L15 43.52C9.4 36.46 6.42 30.11 6.42 23.28C6.42 11.64 15.66 2.26 27.38 2.07L27.72 2.07L28 2.07C39.92 2.07 49.59 11.56 49.59 23.28Z" stroke="#000000" stroke-opacity="0" stroke-width="2.333333"/>
	</g>
	<path id="合并" d="M37.7703 9.26514C37.3438 9.08838 36.8806 9 36.3809 9L19.6191 9C19.1194 9 18.6562 9.08838 18.2297 9.26514L18.2297 9.26514L18.2297 9.26514C17.8032 9.44189 17.4133 9.70654 17.0601 10.0601C16.7068 10.4131 16.4417 10.8032 16.2649 11.2295L16.2649 11.23L16.2649 11.23C16.0884 11.6562 16 12.1191 16 12.6191L16 29.3809C16 29.8809 16.0884 30.3438 16.2649 30.77L16.2651 30.7705C16.4417 31.1968 16.7068 31.5869 17.0601 31.9399C17.4133 32.2935 17.8032 32.5581 18.2297 32.7349L18.2297 32.7349C18.6562 32.9116 19.1194 33 19.6191 33L36.3809 33C36.8806 33 37.3438 32.9116 37.7703 32.7349C38.1968 32.5581 38.5867 32.2935 38.9399 31.9399C39.2935 31.5869 39.5583 31.1968 39.7351 30.77C39.9116 30.3438 40 29.8809 40 29.3809L40 12.6191C40 12.1191 39.9116 11.6562 39.7351 11.23C39.5583 10.8032 39.2935 10.4131 38.9399 10.0601C38.5867 9.70654 38.1968 9.44189 37.7703 9.26514ZM19.6191 10.1431L36.3809 10.1431C37.2063 10.1431 37.8254 10.3491 38.238 10.7617C38.6509 11.1748 38.8572 11.7935 38.8572 12.6191L38.8572 29.3809C38.8572 30.2065 38.6509 30.8252 38.238 31.2383C37.8254 31.6509 37.2063 31.8569 36.3809 31.8569L19.6191 31.8569C18.7937 31.8569 18.1746 31.6509 17.762 31.2383C17.3491 30.8252 17.1428 30.2065 17.1428 29.3809L17.1428 12.6191C17.1428 11.7935 17.3491 11.1748 17.762 10.7617C18.1746 10.3491 18.7937 10.1431 19.6191 10.1431ZM33.322 15.2871C33.3882 15.2876 33.4543 15.2842 33.5203 15.2778C33.5862 15.2715 33.6516 15.2617 33.7166 15.249C33.7815 15.2358 33.8457 15.2202 33.9089 15.2012C33.9724 15.1816 34.0347 15.1597 34.0959 15.1343C34.157 15.1089 34.2168 15.0811 34.2754 15.0498C34.3337 15.0186 34.3904 14.9844 34.4456 14.9478C34.5007 14.9111 34.554 14.8716 34.605 14.8296C34.6562 14.7881 34.7053 14.7437 34.7522 14.6968C34.7991 14.6499 34.8435 14.6011 34.8855 14.5498C34.9277 14.4985 34.967 14.4458 35.0039 14.3906C35.0408 14.3354 35.075 14.2788 35.1062 14.2207C35.1375 14.1621 35.1658 14.1025 35.1912 14.0415C35.2166 13.98 35.2388 13.918 35.2581 13.8545C35.2678 13.8228 35.2766 13.791 35.2847 13.7588L35.2847 13.7588L35.2849 13.7583C35.2927 13.7266 35.3 13.6943 35.3064 13.6621C35.3193 13.5972 35.3291 13.5317 35.3357 13.4658C35.3423 13.3999 35.3457 13.334 35.3457 13.2676C35.3457 13.2017 35.3425 13.1353 35.3362 13.0693C35.3296 13.0039 35.3201 12.9385 35.3071 12.8735C35.2942 12.8086 35.2783 12.7441 35.259 12.6807C35.2397 12.6177 35.2175 12.5552 35.1924 12.4941C35.167 12.4326 35.1389 12.373 35.1077 12.3145C35.0764 12.2563 35.0425 12.1992 35.0059 12.1445C34.969 12.0894 34.9297 12.0361 34.8877 11.9849C34.8457 11.9336 34.8013 11.8848 34.7546 11.8379C34.7078 11.791 34.6587 11.7466 34.6077 11.7046C34.5564 11.6626 34.5034 11.623 34.4482 11.5864C34.3933 11.5493 34.3367 11.5151 34.2781 11.4839C34.2197 11.4526 34.1602 11.4243 34.0989 11.3994C34.0376 11.374 33.9753 11.3516 33.9121 11.332C33.8804 11.3228 33.8484 11.314 33.8164 11.3057C33.7844 11.2979 33.7522 11.2905 33.7197 11.2842C33.6548 11.271 33.5894 11.2612 33.5234 11.2549C33.4575 11.248 33.3916 11.2451 33.3252 11.2451C33.259 11.2451 33.1931 11.248 33.1272 11.2544C33.0613 11.2612 32.9958 11.2705 32.9309 11.2837C32.866 11.2964 32.8018 11.3125 32.7383 11.3315C32.675 11.3511 32.6128 11.373 32.5515 11.3984C32.4905 11.4238 32.4307 11.4521 32.3721 11.4834C32.3137 11.5146 32.2571 11.5483 32.2019 11.5854C32.147 11.6221 32.0938 11.6616 32.0425 11.7036C31.9915 11.7456 31.9424 11.79 31.8955 11.8364C31.8486 11.8833 31.8042 11.9326 31.7622 11.9834C31.7202 12.0347 31.6809 12.0879 31.644 12.1431C31.6072 12.1982 31.5732 12.2549 31.542 12.313C31.5107 12.3716 31.4827 12.4312 31.4573 12.4927C31.4319 12.5537 31.4097 12.6157 31.3904 12.6792C31.3711 12.7427 31.355 12.8066 31.342 12.8716C31.3291 12.9365 31.3196 13.002 31.313 13.0679C31.3066 13.1338 31.3032 13.1997 31.3032 13.2661C31.3035 13.332 31.3066 13.3984 31.3132 13.4639C31.3198 13.5298 31.3296 13.5952 31.3425 13.6602C31.3555 13.7246 31.3716 13.7891 31.3906 13.8521C31.4099 13.9155 31.4321 13.9775 31.4575 14.0386C31.4829 14.0996 31.5112 14.1597 31.5422 14.2178C31.5735 14.2759 31.6074 14.3325 31.644 14.3877C31.6809 14.4429 31.7202 14.4956 31.7622 14.5469C31.804 14.5981 31.8484 14.647 31.895 14.6938C31.9419 14.7407 31.9907 14.7847 32.0417 14.8267C32.093 14.8687 32.146 14.9082 32.2009 14.9453C32.2559 14.9819 32.3125 15.0161 32.3706 15.0474C32.429 15.0786 32.4885 15.1069 32.5496 15.1323C32.6108 15.1577 32.6729 15.1797 32.7361 15.1992C32.7993 15.2183 32.8633 15.2344 32.9282 15.2476C32.9932 15.2607 33.0583 15.2705 33.1243 15.2773C33.1899 15.2837 33.2559 15.2871 33.322 15.2871ZM22.9873 15.2822C22.9216 15.2886 22.8557 15.292 22.7898 15.292C22.7236 15.292 22.6577 15.2891 22.592 15.2822C22.5264 15.2759 22.4609 15.2661 22.3962 15.2534C22.3313 15.2407 22.2673 15.2246 22.2041 15.2056C22.1409 15.186 22.0789 15.1641 22.0178 15.1387C21.9568 15.1133 21.897 15.0854 21.8389 15.0542C21.7805 15.0229 21.7239 14.9893 21.6689 14.9526C21.614 14.916 21.561 14.8765 21.5098 14.8345C21.4587 14.793 21.4099 14.7485 21.363 14.7017C21.3164 14.6553 21.272 14.6064 21.23 14.5552C21.1882 14.5039 21.1487 14.4512 21.1121 14.3965C21.0752 14.3413 21.0413 14.2847 21.0103 14.2266C20.979 14.1685 20.9507 14.1089 20.9253 14.0479C20.8999 13.9868 20.8777 13.9243 20.8584 13.8613C20.8394 13.7983 20.8232 13.7344 20.8103 13.6694C20.7971 13.6045 20.7874 13.5396 20.781 13.4736C20.7744 13.4077 20.771 13.3418 20.771 13.2759C20.771 13.21 20.7742 13.144 20.7808 13.0781C20.7871 13.0127 20.7969 12.9473 20.8098 12.8828C20.8225 12.8179 20.8386 12.7539 20.8577 12.6909C20.877 12.6274 20.8992 12.5654 20.9243 12.5044C20.9497 12.4434 20.9778 12.3838 21.009 12.3257C21.04 12.2676 21.074 12.2109 21.1106 12.1558C21.1472 12.1011 21.1865 12.0479 21.2285 11.9971C21.2703 11.9458 21.3147 11.897 21.3613 11.8506C21.408 11.8037 21.4568 11.7593 21.5078 11.7178C21.5588 11.6758 21.6118 11.6362 21.6667 11.5996C21.7214 11.563 21.7781 11.5288 21.8364 11.498C21.8945 11.4668 21.9541 11.4385 22.0151 11.4131C22.0762 11.3882 22.1382 11.3657 22.2014 11.3467C22.2644 11.3271 22.3284 11.3115 22.3933 11.2983C22.458 11.2856 22.5232 11.2759 22.5889 11.2695C22.6545 11.2627 22.7205 11.2598 22.7864 11.2598C22.8525 11.2598 22.9185 11.2627 22.9841 11.269C23.0498 11.2754 23.115 11.2852 23.1797 11.2983C23.2446 11.311 23.3086 11.3271 23.3716 11.3462C23.4348 11.3652 23.4968 11.3872 23.5579 11.4126C23.5884 11.4253 23.6184 11.4385 23.6482 11.4526C23.6782 11.4668 23.7075 11.4814 23.7368 11.4971C23.7952 11.5283 23.8516 11.562 23.9065 11.5986C23.9614 11.6353 24.0144 11.6748 24.0654 11.7163C24.1165 11.7583 24.1655 11.8027 24.2122 11.8491C24.2588 11.896 24.3032 11.9448 24.3452 11.9956C24.387 12.0469 24.4263 12.0996 24.4631 12.1548C24.4998 12.2095 24.5337 12.2661 24.5649 12.3242C24.5959 12.3823 24.6243 12.4419 24.6497 12.5029C24.6748 12.564 24.697 12.626 24.7163 12.689C24.7356 12.7524 24.7517 12.8164 24.7646 12.8809C24.7776 12.9458 24.7871 13.0107 24.7937 13.0767C24.8003 13.1426 24.8035 13.208 24.8037 13.2744C24.8037 13.3403 24.8005 13.4062 24.7939 13.4717C24.7876 13.5376 24.7781 13.6025 24.7651 13.6675C24.7524 13.7324 24.7363 13.7964 24.7173 13.8594C24.6982 13.9229 24.676 13.9849 24.6509 14.0459C24.6255 14.1069 24.5974 14.1665 24.5664 14.2246C24.5354 14.2827 24.5015 14.3394 24.4648 14.3945C24.4282 14.4492 24.3889 14.5024 24.3472 14.5537C24.3054 14.6045 24.261 14.6533 24.2144 14.7002C24.1677 14.7471 24.1189 14.791 24.0681 14.833C24.0171 14.875 23.9641 14.9146 23.9092 14.9512C23.8545 14.9878 23.7979 15.022 23.7397 15.0532C23.6814 15.0845 23.6218 15.1123 23.561 15.1377C23.5 15.1631 23.438 15.1855 23.3748 15.2046C23.3115 15.2241 23.2476 15.2402 23.1829 15.2529C23.1182 15.2661 23.053 15.2759 22.9873 15.2822ZM28.9524 30.1431L28.9524 11.8569C28.9524 11.5371 28.7009 11.2856 28.3809 11.2856C28.0608 11.2856 27.8093 11.5371 27.8093 11.8569L27.8093 30.1431C27.8093 30.4629 28.0608 30.7144 28.3809 30.7144C28.7009 30.7144 28.9524 30.4629 28.9524 30.1431ZM36.4429 17.0088C36.3308 16.9258 36.2156 16.8477 36.0974 16.7739C35.9792 16.7002 35.8582 16.6313 35.7344 16.5669C35.6106 16.5029 35.4846 16.4438 35.3562 16.3901C35.2278 16.3359 35.0974 16.2871 34.9651 16.2437C34.8328 16.1997 34.699 16.1616 34.5635 16.1284C34.4282 16.0957 34.2917 16.0679 34.1541 16.0459C34.0166 16.0239 33.8782 16.0073 33.7393 15.9961C33.6006 15.9854 33.4614 15.9795 33.322 15.9795C33.1826 15.9795 33.0435 15.9854 32.9048 15.9961C32.7659 16.0073 32.6274 16.0239 32.49 16.0459C32.3523 16.0679 32.2158 16.0957 32.0806 16.1284C31.9451 16.1616 31.8113 16.1997 31.679 16.2437C31.5466 16.2871 31.4163 16.3359 31.2878 16.3901C31.1594 16.4438 31.0334 16.5029 30.9097 16.5669C30.7859 16.6313 30.6648 16.7002 30.5466 16.7739C30.4285 16.8477 30.3132 16.9258 30.2012 17.0088C30.1572 17.0479 30.123 17.0947 30.0989 17.1484C30.0747 17.2026 30.0625 17.2593 30.0623 17.3184L30.0623 23.5156C30.0625 23.5698 30.0732 23.6216 30.0938 23.6719C30.1042 23.6968 30.1167 23.7202 30.1313 23.7422L30.1316 23.7422C30.1462 23.7642 30.1631 23.7847 30.1821 23.8037C30.2202 23.8423 30.2642 23.8721 30.3137 23.8931C30.3635 23.9141 30.4155 23.9248 30.4695 23.9253L31.3447 23.9253L31.8835 30.3716C31.8879 30.4233 31.9014 30.4727 31.9241 30.5195C31.9468 30.5659 31.9773 30.6069 32.0154 30.6421C32.0537 30.6772 32.0969 30.7046 32.1453 30.7236C32.1694 30.7329 32.1938 30.7402 32.219 30.7446C32.2441 30.7495 32.2695 30.752 32.2957 30.752L32.3298 30.752C32.5588 30.7324 34.0876 30.7324 34.3167 30.752L34.3508 30.752C34.4026 30.752 34.4526 30.7422 34.501 30.7236C34.5491 30.7046 34.592 30.6772 34.6301 30.6421C34.668 30.6069 34.6982 30.5659 34.7207 30.519C34.7432 30.4727 34.7566 30.4233 34.7605 30.3716L35.292 23.9253L36.1721 23.9253C36.1992 23.9253 36.2261 23.9229 36.2527 23.9175C36.2793 23.9121 36.3052 23.9043 36.3303 23.894C36.3552 23.8838 36.3792 23.8711 36.4016 23.856C36.4243 23.8413 36.4451 23.8242 36.4644 23.8052C36.4836 23.7856 36.5007 23.7651 36.5159 23.7427C36.531 23.7202 36.5439 23.6963 36.5544 23.6714C36.5649 23.6465 36.5728 23.6206 36.5784 23.5938C36.5811 23.5806 36.583 23.5674 36.5845 23.5542C36.5857 23.5405 36.5867 23.5269 36.5867 23.5137L36.5867 17.3184C36.5852 17.2588 36.572 17.2021 36.5471 17.1484C36.522 17.0947 36.4873 17.0479 36.4429 17.0088ZM22.7898 15.9917C24.7109 15.9917 25.062 17.1597 25.0767 17.2109L26.9199 23.3965C26.9382 23.459 26.9414 23.522 26.9299 23.5859C26.9182 23.6499 26.8931 23.7075 26.854 23.7598C26.8159 23.8125 26.7678 23.8535 26.7097 23.8828C26.6516 23.9121 26.5898 23.9263 26.5249 23.9253L24.7695 23.9253L24.2332 30.3569C24.2288 30.4087 24.2153 30.458 24.1926 30.5049C24.1697 30.5513 24.1394 30.5923 24.1011 30.6274C24.063 30.6626 24.0198 30.6899 23.9714 30.709C23.9231 30.728 23.873 30.7373 23.821 30.7373L21.7681 30.7373C21.7163 30.7373 21.666 30.728 21.6177 30.709C21.5693 30.6899 21.5261 30.6626 21.488 30.6274C21.45 30.5923 21.4194 30.5513 21.3967 30.5049C21.374 30.458 21.3604 30.4087 21.3562 30.3569L20.8223 23.9253L19.0667 23.9253C19.0347 23.9253 19.0029 23.9209 18.9717 23.9136C18.9404 23.9058 18.9106 23.8945 18.8821 23.8799C18.8535 23.8652 18.8269 23.8477 18.8025 23.8267C18.7903 23.8164 18.7786 23.8052 18.7678 23.7935L18.7678 23.7935L18.7676 23.7935C18.7568 23.7817 18.7466 23.7695 18.7371 23.7563C18.718 23.7305 18.7024 23.7031 18.6897 23.6733C18.6772 23.6436 18.6682 23.6133 18.6626 23.5815C18.6572 23.5498 18.6555 23.5181 18.6575 23.4858C18.6594 23.4536 18.665 23.4224 18.6743 23.3916L20.5027 17.2109C20.5149 17.1694 20.8684 15.9917 22.7898 15.9917Z" clip-rule="evenodd" fill="#FFFFFF" fill-opacity="1.000000" fill-rule="evenodd"/>
</svg>
