<svg width="16.000000" height="16.000000" viewBox="0 0 16 16" fill="none" xmlns="http://www.w3.org/2000/svg" xmlns:xlink="http://www.w3.org/1999/xlink">
	<desc>
			Created with Pixso.
	</desc>
	<defs>
		<clipPath id="clip70_8457">
			<rect id="ic_public_notes" width="16.000000" height="16.000000" fill="white" fill-opacity="0"/>
		</clipPath>
	</defs>
	<g clip-path="url(#clip70_8457)">
		<path id="path-1" d="M10.58 0.66C11.74 0.66 12.18 0.78 12.6 1C13.02 1.22 13.37 1.56 13.61 1.96C13.84 2.4 14 2.89 14 4.08L14 11.91L13.99 12.06C13.98 13.11 13.87 13.53 13.65 13.94C13.43 14.35 13.1 14.71 12.69 14.94C12.26 15.17 11.77 15.33 10.58 15.33L5.41 15.33L5.27 15.33C4.21 15.32 3.79 15.2 3.39 14.99C2.97 14.77 2.62 14.43 2.38 14.03C2.15 13.59 2 13.1 2 11.91L2 4.08C2 2.92 2.11 2.48 2.34 2.05C2.56 1.64 2.89 1.28 3.3 1.05C3.73 0.82 4.22 0.66 5.41 0.66L10.58 0.66ZM10.71 1.66L5.34 1.66L5.21 1.66C4.43 1.67 4.13 1.74 3.83 1.9C3.57 2.04 3.37 2.24 3.23 2.5C3.06 2.83 3 3.15 3 4.08L3 11.98L3 12.11C3 12.89 3.07 13.19 3.23 13.49C3.37 13.75 3.57 13.95 3.83 14.09C4.14 14.26 4.45 14.32 5.28 14.33L5.41 14.33L10.58 14.33C11.51 14.33 11.83 14.27 12.16 14.09C12.42 13.95 12.62 13.75 12.76 13.49C12.92 13.18 12.99 12.87 13 12.05L13 11.91L13 4.08C13 3.15 12.93 2.83 12.76 2.5C12.62 2.24 12.42 2.04 12.16 1.9C11.85 1.73 11.54 1.67 10.71 1.66ZM8 10.83C8.27 10.83 8.5 11.05 8.5 11.33C8.5 11.6 8.27 11.83 8 11.83L5 11.83C4.72 11.83 4.5 11.6 4.5 11.33C4.5 11.05 4.72 10.83 5 10.83L8 10.83ZM11 7.5C11.27 7.5 11.5 7.72 11.5 8C11.5 8.27 11.27 8.5 11 8.5L5 8.5C4.72 8.5 4.5 8.27 4.5 8C4.5 7.72 4.72 7.5 5 7.5L11 7.5ZM11 4.16C11.27 4.16 11.5 4.39 11.5 4.66C11.5 4.94 11.27 5.16 11 5.16L5 5.16C4.72 5.16 4.5 4.94 4.5 4.66C4.5 4.39 4.72 4.16 5 4.16L11 4.16Z" fill="#000000" fill-opacity="1.000000" fill-rule="nonzero"/>
		<path id="path-1" d="M12.6 1C13.02 1.22 13.37 1.56 13.61 1.96C13.84 2.4 14 2.89 14 4.08L14 11.91L13.99 12.06C13.98 13.11 13.87 13.53 13.65 13.94C13.43 14.35 13.1 14.71 12.69 14.94C12.26 15.17 11.77 15.33 10.58 15.33L5.41 15.33L5.27 15.33C4.21 15.32 3.79 15.2 3.39 14.99C2.97 14.77 2.62 14.43 2.38 14.03C2.15 13.59 2 13.1 2 11.91L2 4.08C2 2.92 2.11 2.48 2.34 2.05C2.56 1.64 2.89 1.28 3.3 1.05C3.73 0.82 4.22 0.66 5.41 0.66L10.58 0.66C11.74 0.66 12.18 0.78 12.6 1ZM5.34 1.66L5.21 1.66C4.43 1.67 4.13 1.74 3.83 1.9C3.57 2.04 3.37 2.24 3.23 2.5C3.06 2.83 3 3.15 3 4.08L3 11.98L3 12.11C3 12.89 3.07 13.19 3.23 13.49C3.37 13.75 3.57 13.95 3.83 14.09C4.14 14.26 4.45 14.32 5.28 14.33L5.41 14.33L10.58 14.33C11.51 14.33 11.83 14.27 12.16 14.09C12.42 13.95 12.62 13.75 12.76 13.49C12.92 13.18 12.99 12.87 13 12.05L13 11.91L13 4.08C13 3.15 12.93 2.83 12.76 2.5C12.62 2.24 12.42 2.04 12.16 1.9C11.85 1.73 11.54 1.67 10.71 1.66L5.34 1.66ZM8.5 11.33C8.5 11.6 8.27 11.83 8 11.83L5 11.83C4.72 11.83 4.5 11.6 4.5 11.33C4.5 11.05 4.72 10.83 5 10.83L8 10.83C8.27 10.83 8.5 11.05 8.5 11.33ZM11.5 8C11.5 8.27 11.27 8.5 11 8.5L5 8.5C4.72 8.5 4.5 8.27 4.5 8C4.5 7.72 4.72 7.5 5 7.5L11 7.5C11.27 7.5 11.5 7.72 11.5 8ZM11.5 4.66C11.5 4.94 11.27 5.16 11 5.16L5 5.16C4.72 5.16 4.5 4.94 4.5 4.66C4.5 4.39 4.72 4.16 5 4.16L11 4.16C11.27 4.16 11.5 4.39 11.5 4.66Z" stroke="#000000" stroke-opacity="0" stroke-width="0.666667"/>
	</g>
</svg>
