<svg width="16.000000" height="16.000000" viewBox="0 0 16 16" fill="none" xmlns="http://www.w3.org/2000/svg" xmlns:xlink="http://www.w3.org/1999/xlink">
	<desc>
			Created with Pixso.
	</desc>
	<defs/>
	<g opacity="0.000000">
		<rect width="16.000000" height="16.000000" fill="#D8D8D8" fill-opacity="1.000000"/>
		<rect width="16.000000" height="16.000000" stroke="#000000" stroke-opacity="0" stroke-width="1.000000"/>
	</g>
	<path d="M9.74 13.16C9.38 13.85 8.66 14.33 7.83 14.33C7.04 14.33 6.36 13.9 5.98 13.27L5.92 13.16L9.74 13.16ZM7.83 1C8.1 1 8.33 1.22 8.33 1.5L8.33 1.69C10.39 1.94 12 3.7 12 5.83L12 7.16C12 8.09 12.16 9 12.48 9.87C12.71 10.49 12.98 10.82 13.27 11.17C13.37 11.29 13.47 11.41 13.56 11.53C13.68 11.68 13.69 11.88 13.61 12.05C13.52 12.22 13.35 12.33 13.16 12.33L2.5 12.33C2.31 12.33 2.13 12.22 2.05 12.05C1.96 11.89 1.98 11.69 2.09 11.53C2.18 11.41 2.27 11.29 2.37 11.18C2.67 10.81 2.95 10.45 3.19 9.79C3.49 8.94 3.65 8.06 3.66 7.16L3.66 5.83C3.66 3.7 5.27 1.94 7.33 1.69L7.33 1.5C7.33 1.22 7.55 1 7.83 1Z" fill="#FE4F35" fill-opacity="1.000000" fill-rule="evenodd"/>
	<path d="M7.83 14.33C7.04 14.33 6.36 13.9 5.98 13.27L5.92 13.16L9.74 13.16C9.38 13.85 8.66 14.33 7.83 14.33ZM8.33 1.5L8.33 1.69C10.39 1.94 12 3.7 12 5.83L12 7.16C12 8.09 12.16 9 12.48 9.87C12.71 10.49 12.98 10.82 13.27 11.17C13.37 11.29 13.47 11.41 13.56 11.53C13.68 11.68 13.69 11.88 13.61 12.05C13.52 12.22 13.35 12.33 13.16 12.33L2.5 12.33C2.31 12.33 2.13 12.22 2.05 12.05C1.96 11.89 1.98 11.69 2.09 11.53C2.18 11.41 2.27 11.29 2.37 11.18C2.67 10.81 2.95 10.45 3.19 9.79C3.49 8.94 3.65 8.06 3.66 7.16L3.66 5.83C3.66 3.7 5.27 1.94 7.33 1.69L7.33 1.5C7.33 1.22 7.55 1 7.83 1C8.1 1 8.33 1.22 8.33 1.5Z" stroke="#000000" stroke-opacity="0" stroke-width="1.000000"/>
</svg>
