<svg width="16.000000" height="16.000000" viewBox="0 0 16 16" fill="none" xmlns="http://www.w3.org/2000/svg" xmlns:xlink="http://www.w3.org/1999/xlink">
	<desc>
			Created with Pixso.
	</desc>
	<defs>
		<clipPath id="clip81_253">
			<rect width="16.000000" height="16.000000" fill="white" fill-opacity="0"/>
		</clipPath>
	</defs>
	<g clip-path="url(#clip81_253)">
		<g opacity="0.000000">
			<rect width="16.000000" height="16.000000" fill="#D8D8D8" fill-opacity="1.000000"/>
			<rect width="16.000000" height="16.000000" stroke="#000000" stroke-opacity="0" stroke-width="1.000000"/>
		</g>
		<path d="M8.01 1.33C10.88 1.35 13.21 3.7 13.21 6.56C13.21 10.31 9.1 13.89 8.38 14.48C8.31 14.54 8.15 14.66 7.98 14.66C7.81 14.66 7.65 14.52 7.59 14.47C6.83 13.83 2.78 10.28 2.78 6.56C2.78 3.7 5.15 1.36 8.01 1.33ZM8.01 4.89C7.09 4.89 6.34 5.64 6.34 6.56C6.34 7.48 7.09 8.22 8.01 8.22C8.93 8.22 9.68 7.48 9.68 6.56C9.68 5.64 8.93 4.89 8.01 4.89Z" fill="#FE4F35" fill-opacity="1.000000" fill-rule="evenodd"/>
		<path d="M13.21 6.56C13.21 10.31 9.1 13.89 8.38 14.48C8.31 14.54 8.15 14.66 7.98 14.66C7.81 14.66 7.65 14.52 7.59 14.47C6.83 13.83 2.78 10.28 2.78 6.56C2.78 3.7 5.15 1.36 8.01 1.33C10.88 1.35 13.21 3.7 13.21 6.56ZM6.34 6.56C6.34 7.48 7.09 8.22 8.01 8.22C8.93 8.22 9.68 7.48 9.68 6.56C9.68 5.64 8.93 4.89 8.01 4.89C7.09 4.89 6.34 5.64 6.34 6.56Z" stroke="#000000" stroke-opacity="0" stroke-width="1.000000"/>
	</g>
</svg>
