<svg width="16.000000" height="16.000000" viewBox="0 0 16 16" fill="none" xmlns="http://www.w3.org/2000/svg" xmlns:xlink="http://www.w3.org/1999/xlink">
	<desc>
			Created with Pixso.
	</desc>
	<defs>
		<clipPath id="clip136_674">
			<rect width="16.000000" height="16.000000" fill="white" fill-opacity="0"/>
		</clipPath>
		<clipPath id="clip136_669">
			<rect width="16.000000" height="16.000000" fill="white" fill-opacity="0"/>
		</clipPath>
	</defs>
	<g clip-path="url(#clip136_669)">
		<g clip-path="url(#clip136_674)">
			<g opacity="0.000000">
				<rect width="16.000000" height="16.000000" fill="#D8D8D8" fill-opacity="1.000000"/>
				<rect width="16.000000" height="16.000000" stroke="#000000" stroke-opacity="0" stroke-width="1.000000"/>
			</g>
			<path d="M8 1.33C11.67 1.33 14.66 4.32 14.66 8C14.66 11.67 11.67 14.66 8 14.66C4.32 14.66 1.33 11.67 1.33 8C1.33 4.32 4.32 1.33 8 1.33ZM11.11 8.66L4.88 8.66C4.75 8.66 4.65 8.77 4.65 8.9C4.65 10.74 6.15 12.24 8 12.24C9.84 12.24 11.34 10.74 11.34 8.9C11.34 8.77 11.24 8.66 11.11 8.66ZM10.66 5.2C10.2 5.2 9.83 5.58 9.83 6.04C9.83 6.5 10.2 6.87 10.66 6.87C11.12 6.87 11.5 6.5 11.5 6.04C11.5 5.58 11.12 5.2 10.66 5.2ZM5.33 5.2C4.87 5.2 4.5 5.58 4.5 6.04C4.5 6.5 4.87 6.87 5.33 6.87C5.79 6.87 6.16 6.5 6.16 6.04C6.16 5.58 5.79 5.2 5.33 5.2Z" fill="#FE4F35" fill-opacity="1.000000" fill-rule="evenodd"/>
			<path d="M14.66 8C14.66 11.67 11.67 14.66 8 14.66C4.32 14.66 1.33 11.67 1.33 8C1.33 4.32 4.32 1.33 8 1.33C11.67 1.33 14.66 4.32 14.66 8ZM4.88 8.66C4.75 8.66 4.65 8.77 4.65 8.9C4.65 10.74 6.15 12.24 8 12.24C9.84 12.24 11.34 10.74 11.34 8.9C11.34 8.77 11.24 8.66 11.11 8.66L4.88 8.66ZM9.83 6.04C9.83 6.5 10.2 6.87 10.66 6.87C11.12 6.87 11.5 6.5 11.5 6.04C11.5 5.58 11.12 5.2 10.66 5.2C10.2 5.2 9.83 5.58 9.83 6.04ZM4.5 6.04C4.5 6.5 4.87 6.87 5.33 6.87C5.79 6.87 6.16 6.5 6.16 6.04C6.16 5.58 5.79 5.2 5.33 5.2C4.87 5.2 4.5 5.58 4.5 6.04Z" stroke="#000000" stroke-opacity="0" stroke-width="1.000000"/>
		</g>
	</g>
</svg>
