<svg width="16.000000" height="16.000000" viewBox="0 0 16 16" fill="none" xmlns="http://www.w3.org/2000/svg" xmlns:xlink="http://www.w3.org/1999/xlink">
	<desc>
			Created with Pixso.
	</desc>
	<defs>
		<clipPath id="clip81_245">
			<rect width="16.000000" height="16.000000" fill="white" fill-opacity="0"/>
		</clipPath>
	</defs>
	<g clip-path="url(#clip81_245)">
		<g opacity="0.000000">
			<rect width="16.000000" height="16.000000" fill="#D8D8D8" fill-opacity="1.000000"/>
			<rect width="16.000000" height="16.000000" stroke="#000000" stroke-opacity="0" stroke-width="1.000000"/>
		</g>
		<path d="M14 6.4L14 12.26C14 13.36 13.1 14.26 12 14.26L4 14.26C2.89 14.26 2 13.36 2 12.26L2 6.4L14 6.4ZM8.33 10.23L7.66 10.23C7.48 10.23 7.33 10.38 7.33 10.56L7.33 11.23C7.33 11.42 7.48 11.56 7.66 11.56L8.33 11.56C8.51 11.56 8.66 11.42 8.66 11.23L8.66 10.56C8.66 10.38 8.51 10.23 8.33 10.23ZM5.66 10.23L5 10.23C4.81 10.23 4.66 10.38 4.66 10.56L4.66 11.23C4.66 11.42 4.81 11.56 5 11.56L5.66 11.56C5.85 11.56 6 11.42 6 11.23L6 10.56C6 10.38 5.85 10.23 5.66 10.23ZM11 7.56L10.33 7.56C10.14 7.56 10 7.71 10 7.9L10 8.56C10 8.75 10.14 8.9 10.33 8.9L11 8.9C11.18 8.9 11.33 8.75 11.33 8.56L11.33 7.9C11.33 7.71 11.18 7.56 11 7.56ZM8.33 7.56L7.66 7.56C7.48 7.56 7.33 7.71 7.33 7.9L7.33 8.56C7.33 8.75 7.48 8.9 7.66 8.9L8.33 8.9C8.51 8.9 8.66 8.75 8.66 8.56L8.66 7.9C8.66 7.71 8.51 7.56 8.33 7.56ZM10.33 1.73C10.6 1.73 10.83 1.95 10.83 2.23L10.83 2.87L12 2.87C12.45 2.87 12.86 3.03 13.2 3.28L13.3 3.37C13.69 3.73 14 4.3 14 4.87L14 5.4L2 5.4L2 4.87C2 4.3 2.24 3.79 2.62 3.42C2.97 3.12 3.49 2.87 4 2.87L5.16 2.87L5.16 2.23C5.16 1.95 5.39 1.73 5.66 1.73C5.94 1.73 6.16 1.95 6.16 2.23L6.16 2.87L9.83 2.87L9.83 2.23C9.83 1.95 10.05 1.73 10.33 1.73Z" fill="#FE4F35" fill-opacity="1.000000" fill-rule="evenodd"/>
		<path d="M14 12.26C14 13.36 13.1 14.26 12 14.26L4 14.26C2.89 14.26 2 13.36 2 12.26L2 6.4L14 6.4L14 12.26ZM7.66 10.23C7.48 10.23 7.33 10.38 7.33 10.56L7.33 11.23C7.33 11.42 7.48 11.56 7.66 11.56L8.33 11.56C8.51 11.56 8.66 11.42 8.66 11.23L8.66 10.56C8.66 10.38 8.51 10.23 8.33 10.23L7.66 10.23ZM5 10.23C4.81 10.23 4.66 10.38 4.66 10.56L4.66 11.23C4.66 11.42 4.81 11.56 5 11.56L5.66 11.56C5.85 11.56 6 11.42 6 11.23L6 10.56C6 10.38 5.85 10.23 5.66 10.23L5 10.23ZM10.33 7.56C10.14 7.56 10 7.71 10 7.9L10 8.56C10 8.75 10.14 8.9 10.33 8.9L11 8.9C11.18 8.9 11.33 8.75 11.33 8.56L11.33 7.9C11.33 7.71 11.18 7.56 11 7.56L10.33 7.56ZM7.66 7.56C7.48 7.56 7.33 7.71 7.33 7.9L7.33 8.56C7.33 8.75 7.48 8.9 7.66 8.9L8.33 8.9C8.51 8.9 8.66 8.75 8.66 8.56L8.66 7.9C8.66 7.71 8.51 7.56 8.33 7.56L7.66 7.56ZM10.83 2.23L10.83 2.87L12 2.87C12.45 2.87 12.86 3.03 13.2 3.28L13.3 3.37C13.69 3.73 14 4.3 14 4.87L14 5.4L2 5.4L2 4.87C2 4.3 2.24 3.79 2.62 3.42C2.97 3.12 3.49 2.87 4 2.87L5.16 2.87L5.16 2.23C5.16 1.95 5.39 1.73 5.66 1.73C5.94 1.73 6.16 1.95 6.16 2.23L6.16 2.87L9.83 2.87L9.83 2.23C9.83 1.95 10.05 1.73 10.33 1.73C10.6 1.73 10.83 1.95 10.83 2.23Z" stroke="#000000" stroke-opacity="0" stroke-width="1.000000"/>
	</g>
</svg>
