<svg width="24.000000" height="24.000000" viewBox="0 0 24 24" fill="none" xmlns="http://www.w3.org/2000/svg" xmlns:xlink="http://www.w3.org/1999/xlink">
	<desc>
			Created with Pixso.
	</desc>
	<defs>
		<linearGradient x1="12.000000" y1="0.000000" x2="12.000000" y2="24.000000" id="paint_linear_52_1152_0" gradientUnits="userSpaceOnUse">
			<stop offset="0.175573" stop-color="#F5A1A1"/>
			<stop offset="1.000000" stop-color="#EF3D3D"/>
		</linearGradient>
	</defs>
	<rect width="24.000000" height="24.000000" fill="#FF0000" fill-opacity="0"/>
	<circle cx="12.000000" cy="12.000000" r="12.000000" fill="url(#paint_linear_52_1152_0)" fill-opacity="1.000000"/>
	<path d="M14.98 6.41L16.15 6.41C16.38 6.41 16.53 6.67 16.4 6.87L13.66 11.36C13.54 11.56 13.69 11.82 13.92 11.82L15.49 11.82C15.65 11.82 15.79 11.95 15.79 12.12L15.79 12.83C15.79 13 15.65 13.13 15.49 13.13L13.24 13.13C13.07 13.13 12.94 13.27 12.94 13.43L12.94 13.93C12.94 14.1 13.07 14.23 13.24 14.23L15.49 14.23C15.65 14.23 15.79 14.37 15.79 14.53L15.79 15.26C15.79 15.43 15.65 15.56 15.49 15.56L13.24 15.56C13.07 15.56 12.94 15.7 12.94 15.86L12.94 17.82C12.94 17.99 12.81 18.12 12.64 18.12L11.53 18.12C11.36 18.12 11.23 17.99 11.23 17.82L11.23 15.86C11.23 15.7 11.09 15.56 10.93 15.56L8.81 15.56C8.64 15.56 8.51 15.43 8.51 15.26L8.51 14.53C8.51 14.37 8.64 14.23 8.81 14.23L10.93 14.23C11.09 14.23 11.23 14.1 11.23 13.93L11.23 13.43C11.23 13.27 11.09 13.13 10.93 13.13L8.81 13.13C8.64 13.13 8.51 13 8.51 12.83L8.51 12.12C8.51 11.95 8.64 11.82 8.81 11.82L10.22 11.82C10.45 11.82 10.6 11.56 10.47 11.36L7.6 6.87C7.47 6.67 7.62 6.41 7.86 6.41L9.17 6.41C9.28 6.41 9.37 6.47 9.43 6.55L11.89 10.51C12.01 10.7 12.29 10.69 12.41 10.5L14.72 6.56C14.78 6.47 14.88 6.41 14.98 6.41Z" fill="#FFFFFF" fill-opacity="0.901961" fill-rule="nonzero"/>
</svg>
