<svg width="24.000000" height="24.000000" viewBox="0 0 24 24" fill="none" xmlns="http://www.w3.org/2000/svg" xmlns:xlink="http://www.w3.org/1999/xlink">
	<desc>
			Created with Pixso.
	</desc>
	<defs>
		<clipPath id="clip44_805">
			<rect width="24.000000" height="24.000000" fill="white" fill-opacity="0"/>
		</clipPath>
	</defs>
	<g clip-path="url(#clip44_805)">
		<path d="M5.75 22.18C4.25 22.18 3.03 20.98 3 19.5L3 12.37L4.5 10.95L4.5 19.43C4.5 20.1 5.03 20.65 5.69 20.68L8.25 20.68L8.25 16.43C8.25 14.42 9.82 12.78 11.8 12.68L12 12.68C14.07 12.68 15.75 14.36 15.75 16.43L15.75 20.68L18.25 20.68C18.92 20.68 19.47 20.15 19.49 19.48L19.5 10.95L20.9 12.29L21 19.43C21 20.92 19.8 22.14 18.32 22.18L5.75 22.18ZM12 14.18C10.75 14.18 9.75 15.18 9.75 16.43L9.75 20.68L14.25 20.68L14.25 16.43C14.25 15.24 13.32 14.26 12.15 14.18L12 14.18ZM9.56 2.71C11.01 1.47 13.18 1.52 14.58 2.85L22.51 10.38C22.74 10.67 22.8 11.17 22.54 11.44C22.25 11.74 21.78 11.76 21.48 11.47L13.54 3.93L13.43 3.83C12.56 3.11 11.28 3.14 10.45 3.93L2.51 11.47C2.21 11.69 1.71 11.72 1.45 11.44C1.17 11.14 1.18 10.67 1.48 10.38L9.41 2.85L9.56 2.71Z" fill="#000000" fill-opacity="1.000000" fill-rule="nonzero"/>
		<path d="M3 19.5L3 12.37L4.5 10.95L4.5 19.43C4.5 20.1 5.03 20.65 5.69 20.68L8.25 20.68L8.25 16.43C8.25 14.42 9.82 12.78 11.8 12.68L12 12.68C14.07 12.68 15.75 14.36 15.75 16.43L15.75 20.68L18.25 20.68C18.92 20.68 19.47 20.15 19.49 19.48L19.5 10.95L20.9 12.29L21 19.43C21 20.92 19.8 22.14 18.32 22.18L5.75 22.18C4.25 22.18 3.03 20.98 3 19.5ZM9.75 16.43L9.75 20.68L14.25 20.68L14.25 16.43C14.25 15.24 13.32 14.26 12.15 14.18L12 14.18C10.75 14.18 9.75 15.18 9.75 16.43ZM14.58 2.85L22.51 10.38C22.74 10.67 22.8 11.17 22.54 11.44C22.25 11.74 21.78 11.76 21.48 11.47L13.54 3.93L13.43 3.83C12.56 3.11 11.28 3.14 10.45 3.93L2.51 11.47C2.21 11.69 1.71 11.72 1.45 11.44C1.17 11.14 1.18 10.67 1.48 10.38L9.41 2.85L9.56 2.71C11.01 1.47 13.18 1.52 14.58 2.85Z" stroke="#000000" stroke-opacity="0" stroke-width="1.000000"/>
	</g>
</svg>
