<svg width="24.000000" height="24.000000" viewBox="0 0 24 24" fill="none" xmlns="http://www.w3.org/2000/svg" xmlns:xlink="http://www.w3.org/1999/xlink">
	<desc>
			Created with Pixso.
	</desc>
	<defs>
		<clipPath id="clip24_895">
			<rect width="24.000000" height="24.000000" fill="white" fill-opacity="0"/>
		</clipPath>
	</defs>
	<g clip-path="url(#clip24_895)">
		<path d="M12.55 4.73L12.68 4.84L21 12.76L21 19.43C21 21.03 19.75 22.33 18.17 22.42L18 22.43L6 22.43C4.4 22.43 3.09 21.18 3 19.6L3 19.43L3 12.76L11.31 4.84C11.65 4.51 12.18 4.47 12.55 4.73ZM12 13.68C10.4 13.68 9.09 14.93 9 16.5L9 16.68L9 20.43L15 20.43L15 16.68C15 15.02 13.65 13.68 12 13.68ZM9.39 2.52C10.94 1.2 13.25 1.24 14.75 2.66L22.43 9.95C22.75 10.34 22.82 10.99 22.47 11.37C22.09 11.77 21.46 11.78 21.06 11.4L13.37 4.11L13.26 4.01C12.49 3.38 11.35 3.41 10.62 4.11L2.93 11.4C2.53 11.7 1.87 11.74 1.52 11.37C1.14 10.96 1.16 10.33 1.56 9.95L9.24 2.66L9.39 2.52Z" fill="#007DFF" fill-opacity="1.000000" fill-rule="nonzero"/>
		<path d="M12.68 4.84L21 12.76L21 19.43C21 21.03 19.75 22.33 18.17 22.42L18 22.43L6 22.43C4.4 22.43 3.09 21.18 3 19.6L3 19.43L3 12.76L11.31 4.84C11.65 4.51 12.18 4.47 12.55 4.73L12.68 4.84ZM9 16.5L9 16.68L9 20.43L15 20.43L15 16.68C15 15.02 13.65 13.68 12 13.68C10.4 13.68 9.09 14.93 9 16.5ZM14.75 2.66L22.43 9.95C22.75 10.34 22.82 10.99 22.47 11.37C22.09 11.77 21.46 11.78 21.06 11.4L13.37 4.11L13.26 4.01C12.49 3.38 11.35 3.41 10.62 4.11L2.93 11.4C2.53 11.7 1.87 11.74 1.52 11.37C1.14 10.96 1.16 10.33 1.56 9.95L9.24 2.66L9.39 2.52C10.94 1.2 13.25 1.24 14.75 2.66Z" stroke="#000000" stroke-opacity="0" stroke-width="1.000000"/>
	</g>
</svg>
