<svg width="32.000000" height="32.000000" viewBox="0 0 32 32" fill="none" xmlns="http://www.w3.org/2000/svg" xmlns:xlink="http://www.w3.org/1999/xlink">
	<desc>
			Created with Pixso.
	</desc>
	<defs>
		<clipPath id="clip22_912">
			<rect rx="8.000000" width="32.000000" height="32.000000" fill="white" fill-opacity="0"/>
		</clipPath>
		<linearGradient x1="16.500000" y1="27.000000" x2="16.500000" y2="6.000000" id="paint_linear_22_915_0" gradientUnits="userSpaceOnUse">
			<stop stop-color="#28C1D9"/>
			<stop offset="1.000000" stop-color="#97ECF9"/>
		</linearGradient>
	</defs>
	<rect rx="8.000000" width="32.000000" height="32.000000" fill="#28C1D9" fill-opacity="0.101961"/>
	<g clip-path="url(#clip22_912)">
		<path d="M21.12 11.85L21.12 8.94C21.12 8.4 20.99 7.91 20.73 7.47C20.48 7.02 20.12 6.66 19.67 6.39C19.21 6.13 18.72 6 18.19 6L8.93 6C8.4 6 7.91 6.13 7.46 6.39C7.02 6.66 6.66 7.02 6.4 7.47C6.13 7.91 6 8.4 6 8.94L6 24.05C6 24.59 6.13 25.08 6.4 25.52C6.66 25.97 7.02 26.33 7.46 26.6C7.91 26.86 8.4 27 8.93 27L18.19 27L23.31 27C23.98 27 24.6 26.83 25.17 26.5C25.73 26.18 26.17 25.73 26.5 25.16C26.83 24.6 27 23.99 27 23.32L27 15.55C27 14.89 26.83 14.28 26.5 13.71C26.17 13.13 25.73 12.68 25.17 12.35C24.6 12.02 23.98 11.85 23.31 11.85L21.12 11.85ZM7.47 8.94C7.47 8.53 7.62 8.18 7.91 7.9C8.2 7.62 8.54 7.48 8.93 7.48L18.19 7.48C18.59 7.48 18.94 7.62 19.24 7.9C19.52 8.18 19.67 8.53 19.67 8.94L19.67 24.05C19.67 24.44 19.53 24.78 19.26 25.05C19 25.33 18.67 25.48 18.28 25.51L16.73 25.51L16.73 19.44C16.73 18.97 16.57 18.56 16.24 18.22C15.91 17.89 15.51 17.72 15.04 17.72L12.15 17.72C11.68 17.72 11.28 17.89 10.94 18.22C10.6 18.56 10.44 18.97 10.44 19.44L10.44 25.51L8.93 25.51C8.54 25.51 8.2 25.37 7.91 25.08C7.62 24.79 7.47 24.44 7.47 24.05L7.47 8.94ZM11.92 19.44C11.92 19.39 11.93 19.35 11.95 19.31C11.99 19.3 12.1 19.2 12.15 19.2L15.04 19.2C15.1 19.2 15.16 19.23 15.2 19.27C15.25 19.32 15.27 19.37 15.27 19.44L15.27 25.46L11.92 25.46L11.92 19.44ZM25.52 23.31C25.52 23.91 25.3 24.43 24.87 24.87C24.44 25.3 23.92 25.51 23.31 25.51L20.72 25.51C20.85 25.3 20.94 25.06 21.02 24.81C21.09 24.56 21.12 24.31 21.12 24.05L21.12 13.34L23.31 13.34C23.92 13.34 24.44 13.55 24.87 13.98C25.3 14.41 25.52 14.94 25.52 15.55L25.52 23.31Z" fill="url(#paint_linear_22_915_0)" fill-opacity="1.000000" fill-rule="nonzero"/>
		<path d="M14.75 11.25L14.75 9L13.25 9L13.25 11.25L11 11.25L11 12.75L13.25 12.75L13.25 15L14.75 15L14.75 12.75L17 12.75L17 11.25L14.75 11.25Z" fill="#EF3D3D" fill-opacity="1.000000" fill-rule="evenodd"/>
	</g>
</svg>
