<svg width="19.500000" height="24.000000" viewBox="0 0 19.5 24" fill="none" xmlns="http://www.w3.org/2000/svg" xmlns:xlink="http://www.w3.org/1999/xlink">
	<desc>
			Created with Pixso.
	</desc>
	<defs>
		<linearGradient x1="9.750000" y1="0.000000" x2="9.750000" y2="24.000000" id="paint_linear_52_1149_0" gradientUnits="userSpaceOnUse">
			<stop stop-color="#74E1F2"/>
			<stop offset="0.994318" stop-color="#16BED8"/>
		</linearGradient>
	</defs>
	<linearGradient x1="9.750000" y1="0.000000" x2="9.750000" y2="24.000000" id="paint_linear_52_11490_0" gradientUnits="userSpaceOnUse">
		<stop stop-color="#74E1F2"/>
		<stop offset="0.994318" stop-color="#16BED8"/>
	</linearGradient>
	<path d="M2.16 0L17.33 0C18.52 0 19.5 0.97 19.5 2.18L19.5 21.81C19.5 23.02 18.53 24 17.33 24L2.16 24C0.97 24 0 23.02 0 21.81L0 2.18C0 0.97 0.97 0 2.16 0Z" fill="url(#paint_linear_52_11490_0)" fill-opacity="1.000000" fill-rule="evenodd"/>
	<path d="M10.83 3.27L16.25 3.27C16.84 3.27 17.33 3.76 17.33 4.36C17.33 4.96 16.84 5.45 16.25 5.45L10.83 5.45C10.23 5.45 9.75 4.96 9.75 4.36C9.75 3.76 10.23 3.27 10.83 3.27Z" fill="#FFFFFF" fill-opacity="1.000000" fill-rule="evenodd"/>
	<path d="M10.83 6.54L16.25 6.54C16.84 6.54 17.33 7.03 17.33 7.63C17.33 8.23 16.84 8.72 16.25 8.72L10.83 8.72C10.23 8.72 9.75 8.23 9.75 7.63C9.75 7.03 10.23 6.54 10.83 6.54Z" fill="#FFFFFF" fill-opacity="1.000000" fill-rule="evenodd"/>
	<path d="M2.7 10.9L16.79 10.9C17.09 10.9 17.33 11.15 17.33 11.45C17.33 11.75 17.09 12 16.79 12L2.7 12C2.4 12 2.16 11.75 2.16 11.45C2.16 11.15 2.4 10.9 2.7 10.9Z" fill="#FFFFFF" fill-opacity="1.000000" fill-rule="evenodd"/>
	<path d="M2.7 14.18L16.79 14.18C17.09 14.18 17.33 14.42 17.33 14.72C17.33 15.02 17.09 15.27 16.79 15.27L2.7 15.27C2.4 15.27 2.16 15.02 2.16 14.72C2.16 14.42 2.4 14.18 2.7 14.18Z" fill="#FFFFFF" fill-opacity="1.000000" fill-rule="evenodd"/>
	<path d="M2.7 17.45L8.12 17.45C8.42 17.45 8.66 17.69 8.66 18C8.66 18.3 8.42 18.54 8.12 18.54L2.7 18.54C2.4 18.54 2.16 18.3 2.16 18C2.16 17.69 2.4 17.45 2.7 17.45Z" fill="#FFFFFF" fill-opacity="1.000000" fill-rule="evenodd"/>
	<path d="M5.41 1.98C5.11 1.98 4.83 2.06 4.58 2.2C4.32 2.35 4.12 2.56 3.97 2.81C3.83 3.07 3.75 3.35 3.75 3.65C3.75 3.96 3.83 4.24 3.97 4.5C4.12 4.75 4.32 4.96 4.58 5.11C4.83 5.26 5.11 5.34 5.41 5.34C5.71 5.34 5.99 5.26 6.25 5.11C6.5 4.96 6.7 4.75 6.85 4.5C7 4.24 7.07 3.96 7.07 3.65C7.07 3.35 7 3.07 6.85 2.81C6.7 2.56 6.5 2.35 6.25 2.2C5.99 2.06 5.71 1.98 5.41 1.98ZM5.13 5.76C4.66 5.76 4.2 5.88 3.73 6.12C3.28 6.36 2.9 6.68 2.6 7.09C2.31 7.49 2.16 7.94 2.16 8.43C2.16 8.67 2.25 8.87 2.41 9.04C2.58 9.21 2.78 9.29 3.02 9.29L7.8 9.29C8.04 9.29 8.24 9.21 8.41 9.04C8.58 8.87 8.66 8.67 8.66 8.43C8.66 7.94 8.51 7.49 8.22 7.09C7.93 6.68 7.55 6.36 7.09 6.12C6.63 5.88 6.16 5.76 5.69 5.76L5.13 5.76Z" fill="#FFFFFF" fill-opacity="0.901961" fill-rule="nonzero"/>
	<path d="M11.58 19.82L16.18 16.94C16.69 16.62 17.36 16.77 17.68 17.28C17.99 17.8 17.84 18.47 17.33 18.79L12.73 21.67L11.58 19.82Z" fill="#FFFFFF" fill-opacity="1.000000" fill-rule="evenodd"/>
	<path d="M10.32 21.9L12.19 21.83L11.2 20.23L10.32 21.9Z" fill="#FFFFFF" fill-opacity="1.000000" fill-rule="evenodd"/>
</svg>
