<svg width="24.000000" height="24.000000" viewBox="0 0 24 24" fill="none" xmlns="http://www.w3.org/2000/svg" xmlns:xlink="http://www.w3.org/1999/xlink">
	<desc>
			Created with Pixso.
	</desc>
	<defs>
		<clipPath id="clip31_1299">
			<rect width="24.000000" height="24.000000" fill="white" fill-opacity="0"/>
		</clipPath>
	</defs>
	<g clip-path="url(#clip31_1299)">
		<path d="M3.06 17.9C3.71 16.57 5.4 12.62 12 12.62C18.6 12.62 20.32 16.57 20.94 17.9C21.18 18.4 21.34 19.07 21.43 19.91C21.55 21.01 20.75 21.99 19.65 22.11C19.58 22.12 19.51 22.12 19.44 22.12L4.55 22.12C3.44 22.12 2.55 21.22 2.55 20.12C2.55 20.05 2.55 19.98 2.56 19.92C2.65 19.07 2.81 18.4 3.06 17.9ZM12 2.12C9.38 2.12 7.25 4.25 7.25 6.87C7.25 9.49 9.38 11.62 12 11.62C14.63 11.62 16.75 9.49 16.75 6.87C16.75 4.25 14.63 2.12 12 2.12Z" fill="#007DFF" fill-opacity="1.000000" fill-rule="nonzero"/>
		<path d="M12 12.62C18.6 12.62 20.32 16.57 20.94 17.9C21.18 18.4 21.34 19.07 21.43 19.91C21.55 21.01 20.75 21.99 19.65 22.11C19.58 22.12 19.51 22.12 19.44 22.12L4.55 22.12C3.44 22.12 2.55 21.22 2.55 20.12C2.55 20.05 2.55 19.98 2.56 19.92C2.65 19.07 2.81 18.4 3.06 17.9C3.71 16.57 5.4 12.62 12 12.62ZM7.25 6.87C7.25 9.49 9.38 11.62 12 11.62C14.63 11.62 16.75 9.49 16.75 6.87C16.75 4.25 14.63 2.12 12 2.12C9.38 2.12 7.25 4.25 7.25 6.87Z" stroke="#000000" stroke-opacity="0" stroke-width="1.000000"/>
	</g>
</svg>
