<svg width="24.000000" height="24.000000" viewBox="0 0 24 24" fill="none" xmlns="http://www.w3.org/2000/svg" xmlns:xlink="http://www.w3.org/1999/xlink">
	<desc>
			Created with Pixso.
	</desc>
	<defs>
		<clipPath id="clip24_911">
			<rect width="24.000000" height="24.000000" fill="white" fill-opacity="0"/>
		</clipPath>
	</defs>
	<g clip-path="url(#clip24_911)">
		<path d="M12 2.5C14.89 2.5 17.25 4.85 17.25 7.75C17.25 10.57 15.01 12.88 12.21 12.99L12 13C11.16 13 10.36 13.12 9.6 13.36L9.38 13.43C9.21 13.49 9.05 13.55 8.9 13.62C8.86 13.63 8.82 13.65 8.79 13.67L8.9 13.62C8.83 13.64 8.85 13.64 8.79 13.67C8.71 13.7 8.64 13.73 8.57 13.76L8.79 13.67C8.7 13.71 8.53 13.78 8.44 13.83L8.57 13.76C8.5 13.8 8.51 13.79 8.44 13.83C8.35 13.87 8.26 13.92 8.18 13.96L8.44 13.83C8.37 13.86 8.24 13.93 8.18 13.96C8.05 14.03 7.91 14.11 7.78 14.2C7.73 14.23 7.68 14.26 7.63 14.29C7.51 14.37 7.4 14.44 7.29 14.52C7.22 14.58 7.15 14.63 7.08 14.68L7.29 14.52C7.23 14.57 7.14 14.64 7.08 14.68C7.02 14.73 6.96 14.78 6.9 14.83L7.08 14.68C7.01 14.74 6.97 14.77 6.9 14.83C6.83 14.88 6.77 14.94 6.71 14.99L6.9 14.83C6.83 14.88 6.77 14.94 6.71 14.99C6.64 15.05 6.58 15.11 6.52 15.16L6.71 14.99C6.65 15.04 6.57 15.12 6.52 15.16C6.38 15.29 6.25 15.42 6.13 15.56C6.03 15.67 5.93 15.78 5.83 15.89C5.79 15.95 5.75 16 5.7 16.06L5.83 15.89C5.79 15.95 5.75 16 5.7 16.06C5.65 16.12 5.6 16.19 5.55 16.25L5.7 16.06C5.64 16.13 5.53 16.28 5.47 16.36L5.55 16.25C5.5 16.32 5.45 16.39 5.4 16.46L5.47 16.36C5.43 16.42 5.45 16.4 5.4 16.46C5.35 16.53 5.31 16.6 5.26 16.67L5.4 16.46C5.35 16.54 5.24 16.7 5.19 16.78L5.26 16.67C5.22 16.74 5.23 16.71 5.19 16.78C5.04 17.02 4.9 17.28 4.78 17.53C4.76 17.57 4.75 17.6 4.73 17.64L4.78 17.53C4.74 17.61 4.71 17.68 4.68 17.76L4.73 17.64C4.7 17.71 4.7 17.69 4.68 17.76C4.64 17.85 4.6 17.93 4.57 18.02L4.68 17.76C4.64 17.84 4.6 17.94 4.57 18.02C4.54 18.09 4.51 18.16 4.48 18.24L4.57 18.02C4.53 18.11 4.48 18.26 4.44 18.35L4.48 18.24C4.46 18.29 4.46 18.3 4.44 18.35C4.32 18.69 4.23 19.04 4.15 19.4C4.14 19.46 4.13 19.51 4.12 19.56L4.15 19.4C4.14 19.49 4.14 19.48 4.12 19.56C4.11 19.65 4.09 19.74 4.08 19.83L4.12 19.56C4.11 19.66 4.08 19.85 4.06 19.95L4.08 19.83C4.07 19.9 4.06 19.98 4.05 20.06L4.06 19.95C4.05 20.03 4.04 20.11 4.04 20.19L4.05 20.06C4.04 20.16 4.03 20.26 4.02 20.37L4.04 20.19C4.02 20.37 4.01 20.54 4 20.72C4 20.81 4 20.9 4 20.99L4 20.72C4 20.81 4 20.9 4 20.99C4 21.4 3.66 21.75 3.25 21.75C2.83 21.75 2.5 21.41 2.5 21C2.5 20.8 2.5 20.6 2.51 20.4C2.52 20.35 2.52 20.3 2.52 20.25C2.53 20.21 2.53 20.17 2.53 20.13C2.54 20.08 2.54 20.03 2.55 19.99C2.55 19.94 2.56 19.88 2.57 19.83C2.57 19.79 2.57 19.76 2.58 19.72C2.62 19.44 2.67 19.16 2.73 18.89C2.76 18.76 2.8 18.61 2.83 18.49C2.85 18.42 2.86 18.36 2.88 18.3C2.9 18.23 2.94 18.11 2.96 18.05C2.97 18.01 2.99 17.97 3 17.93C3.01 17.89 3.03 17.84 3.05 17.8C3.06 17.76 3.08 17.72 3.09 17.68C3.15 17.51 3.22 17.34 3.29 17.18C3.38 16.97 3.49 16.76 3.59 16.55C3.62 16.51 3.65 16.46 3.67 16.41C3.7 16.37 3.76 16.25 3.79 16.21C3.81 16.16 3.84 16.12 3.87 16.08C3.91 16 4.02 15.84 4.06 15.76C4.14 15.65 4.22 15.53 4.3 15.42C4.39 15.3 4.55 15.09 4.65 14.97C4.68 14.93 4.79 14.81 4.83 14.76C4.88 14.7 5 14.57 5.05 14.51C5.24 14.31 5.45 14.1 5.65 13.92C5.7 13.88 5.75 13.84 5.8 13.79C5.85 13.75 5.95 13.66 6.01 13.62C6.03 13.6 6.14 13.52 6.16 13.49C6.22 13.45 6.28 13.4 6.34 13.36C6.39 13.32 6.49 13.25 6.54 13.22C6.61 13.17 6.77 13.06 6.84 13.01C6.88 12.99 6.92 12.96 6.96 12.94C7 12.91 7.04 12.89 7.08 12.86C7.14 12.83 7.27 12.75 7.33 12.72C7.4 12.68 7.5 12.62 7.57 12.59C7.62 12.56 7.74 12.5 7.79 12.47C8.13 12.31 8.56 12.13 8.92 12C7.6 11.05 6.75 9.5 6.75 7.75C6.75 4.85 9.1 2.5 12 2.5ZM16.12 12.44C19.3 13.97 21.5 17.23 21.5 21C21.5 21.41 21.16 21.75 20.75 21.75C20.33 21.75 20 21.41 20 21C20 17.49 17.74 14.51 14.6 13.43C15.16 13.17 15.67 12.84 16.12 12.44ZM12 4C9.92 4 8.25 5.67 8.25 7.75C8.25 9.82 9.92 11.5 12 11.5C14.07 11.5 15.75 9.82 15.75 7.75C15.75 5.67 14.07 4 12 4Z" fill="#000000" fill-opacity="1.000000" fill-rule="nonzero"/>
		<path d="M4.12 19.56C4.11 19.66 4.08 19.85 4.06 19.95C4.05 20.03 4.04 20.11 4.04 20.19C4.02 20.37 4.01 20.54 4 20.72C4 20.81 4 20.9 4 20.99C4 21.4 3.66 21.75 3.25 21.75C2.83 21.75 2.5 21.41 2.5 21C2.5 20.8 2.5 20.6 2.51 20.4C2.52 20.35 2.52 20.3 2.52 20.25C2.53 20.21 2.53 20.17 2.53 20.13C2.54 20.08 2.54 20.03 2.55 19.99C2.55 19.94 2.56 19.88 2.57 19.83C2.57 19.79 2.57 19.76 2.58 19.72C2.62 19.44 2.67 19.16 2.73 18.89C2.76 18.76 2.8 18.61 2.83 18.49C2.85 18.42 2.86 18.36 2.88 18.3C2.9 18.23 2.94 18.11 2.96 18.05C2.97 18.01 2.99 17.97 3 17.93C3.01 17.89 3.03 17.84 3.05 17.8C3.06 17.76 3.08 17.72 3.09 17.68C3.15 17.51 3.22 17.34 3.29 17.18C3.38 16.97 3.49 16.76 3.59 16.55C3.62 16.51 3.65 16.46 3.67 16.41C3.7 16.37 3.76 16.25 3.79 16.21C3.81 16.16 3.84 16.12 3.87 16.08C3.91 16 4.02 15.84 4.06 15.76C4.14 15.65 4.22 15.53 4.3 15.42C4.39 15.3 4.55 15.09 4.65 14.97C4.68 14.93 4.79 14.81 4.83 14.76C4.88 14.7 5 14.57 5.05 14.51C5.24 14.31 5.45 14.1 5.65 13.92C5.7 13.88 5.75 13.84 5.8 13.79C5.85 13.75 5.95 13.66 6.01 13.62C6.03 13.6 6.14 13.52 6.16 13.49C6.22 13.45 6.28 13.4 6.34 13.36C6.39 13.32 6.49 13.25 6.54 13.22C6.61 13.17 6.77 13.06 6.84 13.01C6.88 12.99 6.92 12.96 6.96 12.94C7 12.91 7.04 12.89 7.08 12.86C7.14 12.83 7.27 12.75 7.33 12.72C7.4 12.68 7.5 12.62 7.57 12.59C7.62 12.56 7.74 12.5 7.79 12.47C8.13 12.31 8.56 12.13 8.92 12C7.6 11.05 6.75 9.5 6.75 7.75C6.75 4.85 9.1 2.5 12 2.5C14.89 2.5 17.25 4.85 17.25 7.75C17.25 10.57 15.01 12.88 12.21 12.99L12 13C11.16 13 10.36 13.12 9.6 13.36L9.38 13.43C9.21 13.49 9.05 13.55 8.9 13.62C8.83 13.64 8.85 13.64 8.79 13.67C8.7 13.71 8.53 13.78 8.44 13.83M8.9 13.62C8.86 13.63 8.82 13.65 8.79 13.67M8.79 13.67L8.9 13.62M8.79 13.67C8.71 13.7 8.64 13.73 8.57 13.76C8.5 13.8 8.51 13.79 8.44 13.83C8.37 13.86 8.24 13.93 8.18 13.96M8.57 13.76L8.79 13.67M8.44 13.83L8.57 13.76M8.44 13.83C8.35 13.87 8.26 13.92 8.18 13.96C8.05 14.03 7.91 14.11 7.78 14.2C7.73 14.23 7.68 14.26 7.63 14.29C7.51 14.37 7.4 14.44 7.29 14.52C7.22 14.58 7.15 14.63 7.08 14.68M8.18 13.96L8.44 13.83M7.08 14.68L7.29 14.52M7.29 14.52C7.23 14.57 7.14 14.64 7.08 14.68C7.01 14.74 6.97 14.77 6.9 14.83C6.83 14.88 6.77 14.94 6.71 14.99M7.08 14.68C7.02 14.73 6.96 14.78 6.9 14.83M6.9 14.83L7.08 14.68M6.9 14.83C6.83 14.88 6.77 14.94 6.71 14.99C6.64 15.05 6.58 15.11 6.52 15.16C6.38 15.29 6.25 15.42 6.13 15.56C6.03 15.67 5.93 15.78 5.83 15.89C5.79 15.95 5.75 16 5.7 16.06C5.65 16.12 5.6 16.19 5.55 16.25C5.5 16.32 5.45 16.39 5.4 16.46C5.35 16.53 5.31 16.6 5.26 16.67C5.22 16.74 5.23 16.71 5.19 16.78M6.71 14.99L6.9 14.83M6.52 15.16L6.71 14.99M6.71 14.99C6.65 15.04 6.57 15.12 6.52 15.16M5.7 16.06L5.83 15.89M5.83 15.89C5.79 15.95 5.75 16 5.7 16.06M5.55 16.25L5.7 16.06M5.7 16.06C5.64 16.13 5.53 16.28 5.47 16.36C5.43 16.42 5.45 16.4 5.4 16.46M5.47 16.36L5.55 16.25M5.4 16.46L5.47 16.36M5.26 16.67L5.4 16.46M5.4 16.46C5.35 16.54 5.24 16.7 5.19 16.78C5.04 17.02 4.9 17.28 4.78 17.53C4.74 17.61 4.71 17.68 4.68 17.76C4.64 17.85 4.6 17.93 4.57 18.02C4.54 18.09 4.51 18.16 4.48 18.24C4.46 18.29 4.46 18.3 4.44 18.35M5.19 16.78L5.26 16.67M4.78 17.53C4.76 17.57 4.75 17.6 4.73 17.64C4.7 17.71 4.7 17.69 4.68 17.76M4.73 17.64L4.78 17.53M4.68 17.76L4.73 17.64M4.57 18.02L4.68 17.76M4.68 17.76C4.64 17.84 4.6 17.94 4.57 18.02M4.48 18.24L4.57 18.02M4.57 18.02C4.53 18.11 4.48 18.26 4.44 18.35C4.32 18.69 4.23 19.04 4.15 19.4C4.14 19.49 4.14 19.48 4.12 19.56M4.44 18.35L4.48 18.24M4.15 19.4C4.14 19.46 4.13 19.51 4.12 19.56C4.11 19.65 4.09 19.74 4.08 19.83C4.07 19.9 4.06 19.98 4.05 20.06C4.04 20.16 4.03 20.26 4.02 20.37L4.04 20.19M4.12 19.56L4.15 19.4M4.08 19.83L4.12 19.56M4.06 19.95L4.08 19.83M4.05 20.06L4.06 19.95M4.04 20.19L4.05 20.06M4 20.72C4 20.81 4 20.9 4 20.99M4 20.99L4 20.72M21.5 21C21.5 21.41 21.16 21.75 20.75 21.75C20.33 21.75 20 21.41 20 21C20 17.49 17.74 14.51 14.6 13.43C15.16 13.17 15.67 12.84 16.12 12.44C19.3 13.97 21.5 17.23 21.5 21ZM8.25 7.75C8.25 9.82 9.92 11.5 12 11.5C14.07 11.5 15.75 9.82 15.75 7.75C15.75 5.67 14.07 4 12 4C9.92 4 8.25 5.67 8.25 7.75Z" stroke="#000000" stroke-opacity="0" stroke-width="1.000000"/>
	</g>
</svg>
