<svg width="24.000000" height="24.000000" viewBox="0 0 24 24" fill="none" xmlns="http://www.w3.org/2000/svg" xmlns:xlink="http://www.w3.org/1999/xlink">
	<desc>
			Created with Pixso.
	</desc>
	<defs>
		<clipPath id="clip24_905">
			<rect width="24.000000" height="24.000000" fill="white" fill-opacity="0"/>
		</clipPath>
	</defs>
	<g clip-path="url(#clip24_905)">
		<path d="M20 3.08C20 2.48 19.5 2 18.89 2L5.1 2C4.49 2 4 2.48 4 3.08L4 18.75C4 20.54 5.48 22 7.31 22L18.89 22C19.5 22 20 21.51 20 20.91L20 3.08ZM19.17 3.08C19.17 2.93 19.04 2.81 18.89 2.81L5.1 2.81C4.95 2.81 4.82 2.93 4.82 3.08L4.82 18.75C4.82 20.1 5.93 21.18 7.31 21.18L18.89 21.18C19.04 21.18 19.17 21.06 19.17 20.91L19.17 3.08ZM6.2 4.16L13.37 4.16C13.68 4.16 13.93 4.4 13.93 4.7L13.93 7.94C13.93 8.24 13.68 8.48 13.37 8.48L6.2 8.48C5.9 8.48 5.65 8.24 5.65 7.94L5.65 4.7C5.65 4.4 5.9 4.16 6.2 4.16ZM17.24 11.18L6.2 11.18C5.9 11.18 5.65 11.43 5.65 11.72C5.65 12.02 5.9 12.27 6.2 12.27L17.24 12.27C17.54 12.27 17.79 12.02 17.79 11.72C17.79 11.43 17.54 11.18 17.24 11.18ZM17.24 14.43L6.2 14.43C5.9 14.43 5.65 14.67 5.65 14.97C5.65 15.27 5.9 15.51 6.2 15.51L17.24 15.51C17.54 15.51 17.79 15.27 17.79 14.97C17.79 14.67 17.54 14.43 17.24 14.43ZM6.2 17.67L13.37 17.67C13.68 17.67 13.93 17.91 13.93 18.21C13.93 18.51 13.68 18.75 13.37 18.75L6.2 18.75C5.9 18.75 5.65 18.51 5.65 18.21C5.65 17.91 5.9 17.67 6.2 17.67Z" fill="#666666" fill-opacity="1.000000" fill-rule="evenodd"/>
	</g>
</svg>
