<?xml version="1.0" standalone="no"?><!DOCTYPE svg PUBLIC "-//W3C//DTD SVG 1.1//EN"
        "http://www.w3.org/Graphics/SVG/1.1/DTD/svg11.dtd">
<svg t="1733907444078" class="icon" viewBox="0 0 1024 1024" version="1.1" xmlns="http://www.w3.org/2000/svg" p-id="2418"
     xmlns:xlink="http://www.w3.org/1999/xlink" width="200" height="200">
    <path d="M793.6 661.504a116.992 116.992 0 0 0-44.544 8.704c-1.28-1.536-1.28-2.816-2.816-2.816l-279.808-285.44a69.632 69.632 0 0 0-70.912-18.688 4.352 4.352 0 0 0-2.816 1.536 63.488 63.488 0 0 0-25.6 14.336C196.864 483.584 78.848 740.096 78.848 952.32a410.88 410.88 0 0 0 0 71.68h537.6V744.448l25.6 27.136a61.952 61.952 0 0 0 15.36 11.52 51.2 51.2 0 0 0 51.2 47.36 51.2 51.2 0 0 0 51.2-43.008h1.28v-11.52a30.464 30.464 0 1 1 61.184 0v244.992h81.92v-241.92A113.152 113.152 0 0 0 793.6 661.504z m153.6-523.008c-4.096-17.152-55.552-38.656-72.192-34.304l-9.728 2.816-48.64-57.344a395.264 395.264 0 0 0-51.2-45.824c-27.904-17.152-247.296 31.488-274.944 76.8a169.728 169.728 0 0 0-19.456 52.992l-16.64 87.552-9.728 2.816c-16.64 4.352-51.2 51.2-45.824 67.328a28.672 28.672 0 0 0 37.376 21.504l65.28-17.152a179.2 179.2 0 0 0 358.4-33.024 179.2 179.2 0 0 0-11.008-61.696l76.8-21.504a33.024 33.024 0 0 0 20.736-40.192zM809.472 42.24l5.632 7.168c1.28 2.816 1.28 1.536-5.632-7.168z"
          fill="#FFF" p-id="2419"></path>
</svg>