<svg width="44.000000" height="44.000000" viewBox="0 0 44 44" fill="none" xmlns="http://www.w3.org/2000/svg" xmlns:xlink="http://www.w3.org/1999/xlink">
	<desc>
			Created with Pixso.
	</desc>
	<defs/>
	<path d="M17.44 0.25C17.04 0.08 16.6 0 16.13 0L3.42 0C2.28 0 1.42 0.28 0.85 0.85C0.28 1.42 0 2.28 0 3.42L0 16.13C0 17.27 0.28 18.12 0.85 18.7C1.42 19.27 2.28 19.55 3.42 19.55L16.13 19.55C16.6 19.55 17.04 19.47 17.44 19.3C17.85 19.13 18.21 18.88 18.55 18.55C18.88 18.21 19.13 17.85 19.3 17.44C19.47 17.04 19.55 16.6 19.55 16.13L19.55 3.42C19.55 2.94 19.47 2.51 19.3 2.1C19.13 1.7 18.88 1.33 18.55 1C18.21 0.66 17.85 0.41 17.44 0.25ZM41.89 0.25C41.48 0.08 41.05 0 40.57 0L27.86 0C26.72 0 25.87 0.28 25.3 0.85C24.72 1.42 24.44 2.28 24.44 3.42L24.44 16.13C24.44 17.27 24.72 18.12 25.3 18.7C25.87 19.27 26.72 19.55 27.86 19.55L40.57 19.55C41.05 19.55 41.48 19.47 41.89 19.3C42.29 19.13 42.66 18.88 42.99 18.55C43.33 18.21 43.58 17.85 43.74 17.44C43.91 17.04 44 16.6 44 16.13L44 3.42C44 2.94 43.91 2.51 43.74 2.1C43.58 1.7 43.33 1.33 42.99 1C42.66 0.66 42.29 0.41 41.89 0.25ZM3.42 2.93L16.13 2.93C16.29 2.93 16.41 2.97 16.5 3.05C16.58 3.13 16.62 3.25 16.62 3.42L16.62 16.13C16.62 16.29 16.58 16.41 16.5 16.5C16.41 16.58 16.29 16.62 16.13 16.62L3.42 16.62C3.36 16.59 3.12 16.52 3.07 16.47C3.05 16.42 2.93 16.2 2.93 16.13L2.93 3.42C2.95 3.36 3.02 3.12 3.07 3.07C3.12 3.02 3.36 2.95 3.42 2.93ZM27.86 2.93L40.57 2.93C40.74 2.93 40.86 2.97 40.94 3.05C41.02 3.13 41.06 3.25 41.06 3.42L41.06 16.13C41.06 16.29 41.02 16.41 40.94 16.5C40.86 16.58 40.74 16.62 40.57 16.62L27.86 16.62C27.8 16.59 27.56 16.52 27.52 16.47C27.49 16.42 27.37 16.2 27.37 16.13L27.37 3.42C27.4 3.36 27.47 3.12 27.52 3.07C27.56 3.02 27.8 2.95 27.86 2.93ZM8.8 12.22Q8.06 12.22 7.7 11.85Q7.33 11.48 7.33 10.75L7.33 8.8Q7.33 8.06 7.7 7.7C7.94 7.45 8.31 7.33 8.8 7.33L10.75 7.33Q11.48 7.33 11.85 7.7C12.1 7.94 12.22 8.31 12.22 8.8L12.22 10.75Q12.22 11.48 11.85 11.85C11.61 12.1 11.24 12.22 10.75 12.22L8.8 12.22ZM33.24 12.22C32.75 12.22 32.38 12.1 32.14 11.85C31.9 11.61 31.77 11.24 31.77 10.75L31.77 8.8C31.77 8.31 31.9 7.94 32.14 7.7C32.38 7.45 32.75 7.33 33.24 7.33L35.2 7.33C35.68 7.33 36.05 7.45 36.3 7.7C36.54 7.94 36.66 8.31 36.66 8.8L36.66 10.75C36.66 11.24 36.54 11.61 36.3 11.85C36.05 12.1 35.68 12.22 35.2 12.22L33.24 12.22ZM17.44 24.69C17.04 24.52 16.6 24.44 16.13 24.44L3.42 24.44C2.94 24.44 2.51 24.52 2.1 24.69C1.7 24.86 1.33 25.11 1 25.44C0.66 25.78 0.41 26.14 0.25 26.55C0.08 26.95 0 27.39 0 27.86L0 40.57C0 41.05 0.08 41.48 0.25 41.89C0.41 42.29 0.66 42.66 1 42.99C1.33 43.33 1.7 43.58 2.1 43.74C2.51 43.91 2.94 44 3.42 44L16.13 44C17.27 44 18.12 43.71 18.7 43.14C19.27 42.57 19.55 41.71 19.55 40.57L19.55 27.86C19.55 27.39 19.47 26.95 19.3 26.55C19.13 26.14 18.88 25.78 18.55 25.44C18.21 25.11 17.85 24.86 17.44 24.69ZM34.22 32.75L34.22 25.91C34.22 25.5 34.07 25.16 33.79 24.87C33.5 24.58 33.16 24.44 32.75 24.44L25.91 24.44C25.5 24.44 25.16 24.58 24.87 24.87C24.58 25.16 24.44 25.5 24.44 25.91L24.44 28.19C24.44 28.59 24.58 28.94 24.87 29.22C25.16 29.51 25.5 29.65 25.91 29.65L29 29.65L29 32.75C29 33.16 29.15 33.5 29.43 33.79C29.72 34.07 30.06 34.22 30.47 34.22L32.75 34.22C33.16 34.22 33.5 34.07 33.79 33.79C34.07 33.5 34.22 33.16 34.22 32.75ZM39.54 33.79C39.82 34.07 40.17 34.22 40.57 34.22L42.53 34.22C42.93 34.22 43.28 34.07 43.57 33.79C43.85 33.5 44 33.16 44 32.75L44 25.91C44 25.5 43.85 25.16 43.57 24.87C43.28 24.58 42.93 24.44 42.53 24.44L40.57 24.44C40.17 24.44 39.82 24.58 39.54 24.87C39.25 25.16 39.11 25.5 39.11 25.91L39.11 32.75C39.11 33.16 39.25 33.5 39.54 33.79ZM3.42 27.37L16.13 27.37C16.29 27.37 16.41 27.41 16.5 27.5C16.58 27.58 16.62 27.7 16.62 27.86L16.62 40.57C16.62 40.74 16.58 40.86 16.5 40.94C16.41 41.02 16.29 41.06 16.13 41.06L3.42 41.06C3.36 41.04 3.12 40.97 3.07 40.92C3.05 40.86 2.93 40.64 2.93 40.57L2.93 27.86C2.95 27.8 3.02 27.56 3.07 27.52C3.12 27.47 3.36 27.4 3.42 27.37ZM8.8 36.66C8.31 36.66 7.94 36.54 7.7 36.3C7.45 36.05 7.33 35.68 7.33 35.2L7.33 33.24C7.33 32.75 7.45 32.38 7.7 32.14C7.94 31.9 8.31 31.77 8.8 31.77L10.75 31.77C11.24 31.77 11.61 31.9 11.85 32.14C12.1 32.38 12.22 32.75 12.22 33.24L12.22 35.2C12.22 35.68 12.1 36.05 11.85 36.3C11.61 36.54 11.24 36.66 10.75 36.66L8.8 36.66ZM24.87 43.57C25.16 43.85 25.5 44 25.91 44L27.86 44C28.27 44 28.61 43.85 28.9 43.57C29.19 43.28 29.33 42.93 29.33 42.53L29.33 35.68C29.33 35.28 29.19 34.93 28.9 34.65C28.61 34.36 28.27 34.22 27.86 34.22L25.91 34.22C25.5 34.22 25.16 34.36 24.87 34.65C24.58 34.93 24.44 35.28 24.44 35.68L24.44 42.53C24.44 42.93 24.58 43.28 24.87 43.57ZM34.65 38.68C34.93 38.96 35.28 39.11 35.68 39.11L37.64 39.11C38.04 39.11 38.39 38.96 38.68 38.68C38.96 38.39 39.11 38.04 39.11 37.64L39.11 35.68C39.11 35.28 38.96 34.93 38.68 34.65C38.39 34.36 38.04 34.22 37.64 34.22L35.68 34.22C35.28 34.22 34.93 34.36 34.65 34.65C34.36 34.93 34.22 35.28 34.22 35.68L34.22 37.64C34.22 38.04 34.36 38.39 34.65 38.68ZM39.54 43.57C39.82 43.85 40.17 44 40.57 44L42.53 44C42.93 44 43.28 43.85 43.57 43.57C43.85 43.28 44 42.93 44 42.53L44 40.57C44 40.17 43.85 39.82 43.57 39.54C43.28 39.25 42.93 39.11 42.53 39.11L40.57 39.11C40.17 39.11 39.82 39.25 39.54 39.54C39.25 39.82 39.11 40.17 39.11 40.57L39.11 42.53C39.11 42.93 39.25 43.28 39.54 43.57Z" fill="#FFFFFF" fill-opacity="1.000000" fill-rule="evenodd"/>
</svg>
