<svg width="24.000000" height="24.000000" viewBox="0 0 24 24" fill="none" xmlns="http://www.w3.org/2000/svg" xmlns:xlink="http://www.w3.org/1999/xlink">
	<desc>
			Created with Pixso.
	</desc>
	<defs/>
	<path d="M9.51 0.13C9.29 0.04 9.05 0 8.8 0L1.86 0C1.24 0 0.77 0.15 0.46 0.46C0.15 0.77 0 1.24 0 1.86L0 8.79C0 9.42 0.15 9.88 0.46 10.2C0.77 10.51 1.24 10.66 1.86 10.66L8.8 10.66C9.05 10.66 9.29 10.62 9.51 10.53C9.73 10.43 9.93 10.3 10.11 10.11C10.3 9.93 10.43 9.73 10.53 9.51C10.62 9.29 10.66 9.05 10.66 8.79L10.66 1.86C10.66 1.6 10.62 1.37 10.53 1.15C10.43 0.93 10.3 0.72 10.11 0.54C9.93 0.36 9.73 0.22 9.51 0.13ZM22.84 0.13C22.62 0.04 22.39 0 22.13 0L15.2 0C14.57 0 14.11 0.15 13.8 0.46C13.48 0.77 13.33 1.24 13.33 1.86L13.33 8.79C13.33 9.42 13.48 9.88 13.8 10.2C14.11 10.51 14.57 10.66 15.2 10.66L22.13 10.66C22.39 10.66 22.62 10.62 22.84 10.53C23.06 10.43 23.27 10.3 23.45 10.11C23.63 9.93 23.77 9.73 23.86 9.51C23.95 9.29 24 9.05 24 8.79L24 1.86C24 1.6 23.95 1.37 23.86 1.15C23.77 0.93 23.63 0.72 23.45 0.54C23.27 0.36 23.06 0.22 22.84 0.13ZM1.86 1.59L8.8 1.59C8.88 1.59 8.95 1.62 9 1.66C9.04 1.71 9.06 1.77 9.06 1.86L9.06 8.79C9.06 8.88 9.04 8.95 9 9C8.95 9.04 8.88 9.06 8.8 9.06L1.86 9.06C1.83 9.05 1.7 9.01 1.67 8.98C1.66 8.95 1.6 8.83 1.6 8.79L1.6 1.86C1.61 1.83 1.65 1.7 1.67 1.67C1.7 1.65 1.83 1.61 1.86 1.59ZM15.2 1.59L22.13 1.59C22.22 1.59 22.28 1.62 22.33 1.66C22.37 1.71 22.4 1.77 22.4 1.86L22.4 8.79C22.4 8.88 22.37 8.95 22.33 9C22.28 9.04 22.22 9.06 22.13 9.06L15.2 9.06C15.16 9.05 15.03 9.01 15.01 8.98C14.99 8.95 14.93 8.83 14.93 8.79L14.93 1.86C14.94 1.83 14.98 1.7 15.01 1.67C15.03 1.65 15.16 1.61 15.2 1.59ZM4.8 6.66Q4.4 6.66 4.19 6.46C4.06 6.33 4 6.13 4 5.86L4 4.79Q4 4.4 4.19 4.2C4.33 4.06 4.53 4 4.8 4L5.86 4Q6.26 4 6.46 4.2C6.6 4.33 6.66 4.53 6.66 4.79L6.66 5.86Q6.66 6.26 6.46 6.46C6.33 6.59 6.13 6.66 5.86 6.66L4.8 6.66ZM18.13 6.66C17.86 6.66 17.66 6.59 17.53 6.46C17.4 6.33 17.33 6.13 17.33 5.86L17.33 4.79C17.33 4.53 17.4 4.33 17.53 4.2C17.66 4.06 17.86 4 18.13 4L19.2 4C19.46 4 19.66 4.06 19.79 4.2C19.93 4.33 20 4.53 20 4.79L20 5.86C20 6.13 19.93 6.33 19.79 6.46C19.66 6.59 19.46 6.66 19.2 6.66L18.13 6.66ZM9.51 13.47C9.29 13.37 9.05 13.33 8.8 13.33L1.86 13.33C1.6 13.33 1.37 13.37 1.15 13.47C0.93 13.56 0.72 13.69 0.54 13.88C0.36 14.06 0.22 14.26 0.13 14.48C0.04 14.7 0 14.94 0 15.2L0 22.13C0 22.39 0.04 22.62 0.13 22.84C0.22 23.06 0.36 23.27 0.54 23.45C0.72 23.63 0.93 23.77 1.15 23.86C1.37 23.95 1.6 24 1.86 24L8.8 24C9.42 24 9.88 23.84 10.2 23.53C10.51 23.22 10.66 22.75 10.66 22.13L10.66 15.2C10.66 14.94 10.62 14.7 10.53 14.48C10.43 14.26 10.3 14.06 10.11 13.88C9.93 13.69 9.73 13.56 9.51 13.47ZM18.66 17.86L18.66 14.13C18.66 13.91 18.58 13.72 18.43 13.56C18.27 13.41 18.08 13.33 17.86 13.33L14.13 13.33C13.91 13.33 13.72 13.41 13.56 13.56C13.41 13.72 13.33 13.91 13.33 14.13L13.33 15.37C13.33 15.59 13.41 15.78 13.56 15.94C13.72 16.09 13.91 16.17 14.13 16.17L15.82 16.17L15.82 17.86C15.82 18.08 15.9 18.27 16.05 18.43C16.21 18.58 16.4 18.66 16.62 18.66L17.86 18.66C18.08 18.66 18.27 18.58 18.43 18.43C18.58 18.27 18.66 18.08 18.66 17.86ZM21.56 18.43C21.72 18.58 21.91 18.66 22.13 18.66L23.2 18.66C23.42 18.66 23.6 18.58 23.76 18.43C23.92 18.27 24 18.08 24 17.86L24 14.13C24 13.91 23.92 13.72 23.76 13.56C23.6 13.41 23.42 13.33 23.2 13.33L22.13 13.33C21.91 13.33 21.72 13.41 21.56 13.56C21.41 13.72 21.33 13.91 21.33 14.13L21.33 17.86C21.33 18.08 21.41 18.27 21.56 18.43ZM1.86 14.93L8.8 14.93C8.88 14.93 8.95 14.95 9 15C9.04 15.04 9.06 15.11 9.06 15.2L9.06 22.13C9.06 22.22 9.04 22.28 9 22.33C8.95 22.37 8.88 22.4 8.8 22.4L1.86 22.4C1.83 22.38 1.7 22.34 1.67 22.32C1.66 22.29 1.6 22.17 1.6 22.13L1.6 15.2C1.61 15.16 1.65 15.03 1.67 15.01C1.7 14.98 1.83 14.94 1.86 14.93ZM4.8 20C4.53 20 4.33 19.93 4.19 19.79C4.06 19.66 4 19.46 4 19.2L4 18.13C4 17.86 4.06 17.66 4.19 17.53C4.33 17.4 4.53 17.33 4.8 17.33L5.86 17.33C6.13 17.33 6.33 17.4 6.46 17.53C6.6 17.66 6.66 17.86 6.66 18.13L6.66 19.2C6.66 19.46 6.6 19.66 6.46 19.79C6.33 19.93 6.13 20 5.86 20L4.8 20ZM13.56 23.76C13.72 23.92 13.91 24 14.13 24L15.2 24C15.42 24 15.6 23.92 15.76 23.76C15.92 23.6 16 23.42 16 23.2L16 19.46C16 19.24 15.92 19.05 15.76 18.9C15.6 18.74 15.42 18.66 15.2 18.66L14.13 18.66C13.91 18.66 13.72 18.74 13.56 18.9C13.41 19.05 13.33 19.24 13.33 19.46L13.33 23.2C13.33 23.42 13.41 23.6 13.56 23.76ZM18.9 21.09C19.05 21.25 19.24 21.33 19.46 21.33L20.53 21.33C20.75 21.33 20.94 21.25 21.09 21.09C21.25 20.94 21.33 20.75 21.33 20.53L21.33 19.46C21.33 19.24 21.25 19.05 21.09 18.9C20.94 18.74 20.75 18.66 20.53 18.66L19.46 18.66C19.24 18.66 19.05 18.74 18.9 18.9C18.74 19.05 18.66 19.24 18.66 19.46L18.66 20.53C18.66 20.75 18.74 20.94 18.9 21.09ZM21.56 23.76C21.72 23.92 21.91 24 22.13 24L23.2 24C23.42 24 23.6 23.92 23.76 23.76C23.92 23.6 24 23.42 24 23.2L24 22.13C24 21.91 23.92 21.72 23.76 21.56C23.6 21.41 23.42 21.33 23.2 21.33L22.13 21.33C21.91 21.33 21.72 21.41 21.56 21.56C21.41 21.72 21.33 21.91 21.33 22.13L21.33 23.2C21.33 23.42 21.41 23.6 21.56 23.76Z" fill="#84C802" fill-opacity="1.000000" fill-rule="evenodd"/>
</svg>
