<svg width="24.000000" height="24.000000" viewBox="0 0 24 24" fill="none" xmlns="http://www.w3.org/2000/svg" xmlns:xlink="http://www.w3.org/1999/xlink">
	<desc>
			Created with Pixso.
	</desc>
	<defs>
		<clipPath id="clip24_901">
			<rect width="24.000000" height="24.000000" fill="white" fill-opacity="0"/>
		</clipPath>
	</defs>
	<g clip-path="url(#clip24_901)">
		<path d="M6.01 12.75L7.36 12.75C8.55 12.75 9.1 12.89 9.62 13.17C10.14 13.45 10.54 13.85 10.82 14.37L10.87 14.47C11.12 14.96 11.25 15.52 11.25 16.63L11.25 17.86C11.25 19.05 11.1 19.6 10.82 20.12C10.54 20.64 10.14 21.04 9.62 21.32L9.52 21.37C9.03 21.62 8.47 21.75 7.36 21.75L6.13 21.75C4.94 21.75 4.39 21.6 3.87 21.32C3.35 21.04 2.95 20.64 2.67 20.12L2.62 20.02C2.38 19.55 2.25 19.01 2.25 17.98L2.25 16.63C2.25 15.44 2.39 14.89 2.67 14.37C2.95 13.85 3.35 13.45 3.87 13.17L3.97 13.12C4.44 12.88 4.98 12.75 6.01 12.75ZM16.51 12.75L17.86 12.75C19.05 12.75 19.6 12.89 20.12 13.17C20.64 13.45 21.04 13.85 21.32 14.37L21.37 14.47C21.62 14.96 21.75 15.52 21.75 16.63L21.75 17.86C21.75 19.05 21.6 19.6 21.32 20.12C21.04 20.64 20.64 21.04 20.12 21.32L20.02 21.37C19.53 21.62 18.97 21.75 17.86 21.75L16.63 21.75C15.44 21.75 14.89 21.6 14.37 21.32C13.85 21.04 13.45 20.64 13.17 20.12L13.12 20.02C12.88 19.55 12.75 19.01 12.75 17.98L12.75 16.63C12.75 15.44 12.89 14.89 13.17 14.37C13.45 13.85 13.85 13.45 14.37 13.17L14.47 13.12C14.94 12.88 15.48 12.75 16.51 12.75ZM7.36 14.25L6.03 14.25L5.86 14.25C5.24 14.26 4.93 14.32 4.69 14.44L4.58 14.49C4.32 14.63 4.13 14.82 3.99 15.08C3.83 15.37 3.76 15.68 3.75 16.37L3.75 16.63L3.75 17.96L3.75 18.13C3.76 18.75 3.82 19.06 3.94 19.3L3.99 19.41C4.13 19.67 4.32 19.86 4.58 20C4.87 20.16 5.18 20.23 5.87 20.24L6.13 20.25L7.36 20.25L7.53 20.24C8.21 20.24 8.55 20.17 8.8 20.05L8.91 20C9.17 19.86 9.36 19.67 9.5 19.41C9.66 19.12 9.73 18.81 9.74 18.12L9.75 17.86L9.75 16.63L9.74 16.46C9.74 15.78 9.67 15.44 9.55 15.19L9.5 15.08C9.36 14.82 9.17 14.63 8.91 14.49C8.62 14.33 8.31 14.26 7.62 14.25L7.36 14.25ZM17.86 14.25L16.53 14.25L16.36 14.25C15.74 14.26 15.43 14.32 15.19 14.44L15.08 14.49C14.82 14.63 14.63 14.82 14.49 15.08C14.33 15.37 14.26 15.68 14.25 16.37L14.25 16.63L14.25 17.96L14.25 18.13C14.26 18.75 14.32 19.06 14.44 19.3L14.49 19.41C14.63 19.67 14.82 19.86 15.08 20C15.37 20.16 15.68 20.23 16.37 20.24L16.63 20.25L17.86 20.25L18.03 20.24C18.71 20.24 19.05 20.17 19.3 20.05L19.41 20C19.67 19.86 19.86 19.67 20 19.41C20.16 19.12 20.23 18.81 20.24 18.12L20.25 17.86L20.25 16.63L20.24 16.46C20.24 15.78 20.17 15.44 20.05 15.19L20 15.08C19.86 14.82 19.67 14.63 19.41 14.49C19.12 14.33 18.81 14.26 18.12 14.25L17.86 14.25ZM6.01 2.25L7.36 2.25C8.55 2.25 9.1 2.39 9.62 2.67C10.14 2.95 10.54 3.35 10.82 3.87L10.87 3.97C11.12 4.46 11.25 5.02 11.25 6.13L11.25 7.36C11.25 8.55 11.1 9.1 10.82 9.62C10.54 10.14 10.14 10.54 9.62 10.82L9.52 10.87C9.03 11.12 8.47 11.25 7.36 11.25L6.13 11.25C4.94 11.25 4.39 11.1 3.87 10.82C3.35 10.54 2.95 10.14 2.67 9.62L2.62 9.52C2.38 9.05 2.25 8.51 2.25 7.48L2.25 6.13C2.25 4.94 2.39 4.39 2.67 3.87C2.95 3.35 3.35 2.95 3.87 2.67L3.97 2.62C4.44 2.38 4.98 2.25 6.01 2.25ZM16.51 2.25L17.86 2.25C19.05 2.25 19.6 2.39 20.12 2.67C20.64 2.95 21.04 3.35 21.32 3.87L21.37 3.97C21.62 4.46 21.75 5.02 21.75 6.13L21.75 7.36C21.75 8.55 21.6 9.1 21.32 9.62C21.04 10.14 20.64 10.54 20.12 10.82L20.02 10.87C19.53 11.12 18.97 11.25 17.86 11.25L16.63 11.25C15.44 11.25 14.89 11.1 14.37 10.82C13.85 10.54 13.45 10.14 13.17 9.62L13.12 9.52C12.88 9.05 12.75 8.51 12.75 7.48L12.75 6.13C12.75 4.94 12.89 4.39 13.17 3.87C13.45 3.35 13.85 2.95 14.37 2.67L14.47 2.62C14.94 2.38 15.48 2.25 16.51 2.25ZM7.36 3.75L6.03 3.75L5.86 3.75C5.24 3.76 4.93 3.82 4.69 3.94L4.58 3.99C4.32 4.13 4.13 4.32 3.99 4.58C3.83 4.87 3.76 5.18 3.75 5.87L3.75 6.13L3.75 7.46L3.75 7.63C3.76 8.25 3.82 8.56 3.94 8.8L3.99 8.91C4.13 9.17 4.32 9.36 4.58 9.5C4.87 9.66 5.18 9.73 5.87 9.74L6.13 9.75L7.36 9.75L7.53 9.74C8.21 9.74 8.55 9.67 8.8 9.55L8.91 9.5C9.17 9.36 9.36 9.17 9.5 8.91C9.66 8.62 9.73 8.31 9.74 7.62L9.75 7.36L9.75 6.13L9.74 5.96C9.74 5.28 9.67 4.94 9.55 4.69L9.5 4.58C9.36 4.32 9.17 4.13 8.91 3.99C8.62 3.83 8.31 3.76 7.62 3.75L7.36 3.75ZM17.86 3.75L16.53 3.75L16.36 3.75C15.74 3.76 15.43 3.82 15.19 3.94L15.08 3.99C14.82 4.13 14.63 4.32 14.49 4.58C14.33 4.87 14.26 5.18 14.25 5.87L14.25 6.13L14.25 7.46L14.25 7.63C14.26 8.25 14.32 8.56 14.44 8.8L14.49 8.91C14.63 9.17 14.82 9.36 15.08 9.5C15.37 9.66 15.68 9.73 16.37 9.74L16.63 9.75L17.86 9.75L18.03 9.74C18.71 9.74 19.05 9.67 19.3 9.55L19.41 9.5C19.67 9.36 19.86 9.17 20 8.91C20.16 8.62 20.23 8.31 20.24 7.62L20.25 7.36L20.25 6.13L20.24 5.96C20.24 5.28 20.17 4.94 20.05 4.69L20 4.58C19.86 4.32 19.67 4.13 19.41 3.99C19.12 3.83 18.81 3.76 18.12 3.75L17.86 3.75Z" fill="#000000" fill-opacity="1.000000" fill-rule="nonzero"/>
		<path d="M7.36 12.75C8.55 12.75 9.1 12.89 9.62 13.17C10.14 13.45 10.54 13.85 10.82 14.37L10.87 14.47C11.12 14.96 11.25 15.52 11.25 16.63L11.25 17.86C11.25 19.05 11.1 19.6 10.82 20.12C10.54 20.64 10.14 21.04 9.62 21.32L9.52 21.37C9.03 21.62 8.47 21.75 7.36 21.75L6.13 21.75C4.94 21.75 4.39 21.6 3.87 21.32C3.35 21.04 2.95 20.64 2.67 20.12L2.62 20.02C2.38 19.55 2.25 19.01 2.25 17.98L2.25 16.63C2.25 15.44 2.39 14.89 2.67 14.37C2.95 13.85 3.35 13.45 3.87 13.17L3.97 13.12C4.44 12.88 4.98 12.75 6.01 12.75L7.36 12.75ZM17.86 12.75C19.05 12.75 19.6 12.89 20.12 13.17C20.64 13.45 21.04 13.85 21.32 14.37L21.37 14.47C21.62 14.96 21.75 15.52 21.75 16.63L21.75 17.86C21.75 19.05 21.6 19.6 21.32 20.12C21.04 20.64 20.64 21.04 20.12 21.32L20.02 21.37C19.53 21.62 18.97 21.75 17.86 21.75L16.63 21.75C15.44 21.75 14.89 21.6 14.37 21.32C13.85 21.04 13.45 20.64 13.17 20.12L13.12 20.02C12.88 19.55 12.75 19.01 12.75 17.98L12.75 16.63C12.75 15.44 12.89 14.89 13.17 14.37C13.45 13.85 13.85 13.45 14.37 13.17L14.47 13.12C14.94 12.88 15.48 12.75 16.51 12.75L17.86 12.75ZM6.03 14.25L5.86 14.25C5.24 14.26 4.93 14.32 4.69 14.44L4.58 14.49C4.32 14.63 4.13 14.82 3.99 15.08C3.83 15.37 3.76 15.68 3.75 16.37L3.75 16.63L3.75 17.96L3.75 18.13C3.76 18.75 3.82 19.06 3.94 19.3L3.99 19.41C4.13 19.67 4.32 19.86 4.58 20C4.87 20.16 5.18 20.23 5.87 20.24L6.13 20.25L7.36 20.25L7.53 20.24C8.21 20.24 8.55 20.17 8.8 20.05L8.91 20C9.17 19.86 9.36 19.67 9.5 19.41C9.66 19.12 9.73 18.81 9.74 18.12L9.75 17.86L9.75 16.63L9.74 16.46C9.74 15.78 9.67 15.44 9.55 15.19L9.5 15.08C9.36 14.82 9.17 14.63 8.91 14.49C8.62 14.33 8.31 14.26 7.62 14.25L7.36 14.25L6.03 14.25ZM16.53 14.25L16.36 14.25C15.74 14.26 15.43 14.32 15.19 14.44L15.08 14.49C14.82 14.63 14.63 14.82 14.49 15.08C14.33 15.37 14.26 15.68 14.25 16.37L14.25 16.63L14.25 17.96L14.25 18.13C14.26 18.75 14.32 19.06 14.44 19.3L14.49 19.41C14.63 19.67 14.82 19.86 15.08 20C15.37 20.16 15.68 20.23 16.37 20.24L16.63 20.25L17.86 20.25L18.03 20.24C18.71 20.24 19.05 20.17 19.3 20.05L19.41 20C19.67 19.86 19.86 19.67 20 19.41C20.16 19.12 20.23 18.81 20.24 18.12L20.25 17.86L20.25 16.63L20.24 16.46C20.24 15.78 20.17 15.44 20.05 15.19L20 15.08C19.86 14.82 19.67 14.63 19.41 14.49C19.12 14.33 18.81 14.26 18.12 14.25L17.86 14.25L16.53 14.25ZM7.36 2.25C8.55 2.25 9.1 2.39 9.62 2.67C10.14 2.95 10.54 3.35 10.82 3.87L10.87 3.97C11.12 4.46 11.25 5.02 11.25 6.13L11.25 7.36C11.25 8.55 11.1 9.1 10.82 9.62C10.54 10.14 10.14 10.54 9.62 10.82L9.52 10.87C9.03 11.12 8.47 11.25 7.36 11.25L6.13 11.25C4.94 11.25 4.39 11.1 3.87 10.82C3.35 10.54 2.95 10.14 2.67 9.62L2.62 9.52C2.38 9.05 2.25 8.51 2.25 7.48L2.25 6.13C2.25 4.94 2.39 4.39 2.67 3.87C2.95 3.35 3.35 2.95 3.87 2.67L3.97 2.62C4.44 2.38 4.98 2.25 6.01 2.25L7.36 2.25ZM17.86 2.25C19.05 2.25 19.6 2.39 20.12 2.67C20.64 2.95 21.04 3.35 21.32 3.87L21.37 3.97C21.62 4.46 21.75 5.02 21.75 6.13L21.75 7.36C21.75 8.55 21.6 9.1 21.32 9.62C21.04 10.14 20.64 10.54 20.12 10.82L20.02 10.87C19.53 11.12 18.97 11.25 17.86 11.25L16.63 11.25C15.44 11.25 14.89 11.1 14.37 10.82C13.85 10.54 13.45 10.14 13.17 9.62L13.12 9.52C12.88 9.05 12.75 8.51 12.75 7.48L12.75 6.13C12.75 4.94 12.89 4.39 13.17 3.87C13.45 3.35 13.85 2.95 14.37 2.67L14.47 2.62C14.94 2.38 15.48 2.25 16.51 2.25L17.86 2.25ZM6.03 3.75L5.86 3.75C5.24 3.76 4.93 3.82 4.69 3.94L4.58 3.99C4.32 4.13 4.13 4.32 3.99 4.58C3.83 4.87 3.76 5.18 3.75 5.87L3.75 6.13L3.75 7.46L3.75 7.63C3.76 8.25 3.82 8.56 3.94 8.8L3.99 8.91C4.13 9.17 4.32 9.36 4.58 9.5C4.87 9.66 5.18 9.73 5.87 9.74L6.13 9.75L7.36 9.75L7.53 9.74C8.21 9.74 8.55 9.67 8.8 9.55L8.91 9.5C9.17 9.36 9.36 9.17 9.5 8.91C9.66 8.62 9.73 8.31 9.74 7.62L9.75 7.36L9.75 6.13L9.74 5.96C9.74 5.28 9.67 4.94 9.55 4.69L9.5 4.58C9.36 4.32 9.17 4.13 8.91 3.99C8.62 3.83 8.31 3.76 7.62 3.75L7.36 3.75L6.03 3.75ZM16.53 3.75L16.36 3.75C15.74 3.76 15.43 3.82 15.19 3.94L15.08 3.99C14.82 4.13 14.63 4.32 14.49 4.58C14.33 4.87 14.26 5.18 14.25 5.87L14.25 6.13L14.25 7.46L14.25 7.63C14.26 8.25 14.32 8.56 14.44 8.8L14.49 8.91C14.63 9.17 14.82 9.36 15.08 9.5C15.37 9.66 15.68 9.73 16.37 9.74L16.63 9.75L17.86 9.75L18.03 9.74C18.71 9.74 19.05 9.67 19.3 9.55L19.41 9.5C19.67 9.36 19.86 9.17 20 8.91C20.16 8.62 20.23 8.31 20.24 7.62L20.25 7.36L20.25 6.13L20.24 5.96C20.24 5.28 20.17 4.94 20.05 4.69L20 4.58C19.86 4.32 19.67 4.13 19.41 3.99C19.12 3.83 18.81 3.76 18.12 3.75L17.86 3.75L16.53 3.75Z" stroke="#000000" stroke-opacity="0" stroke-width="1.000000"/>
	</g>
</svg>
