<svg width="24.000000" height="24.000000" viewBox="0 0 24 24" fill="none" xmlns="http://www.w3.org/2000/svg" xmlns:xlink="http://www.w3.org/1999/xlink">
	<desc>
			Created with Pixso.
	</desc>
	<defs>
		<clipPath id="clip24_1150">
			<rect width="24.000000" height="24.000000" fill="white" fill-opacity="0"/>
		</clipPath>
	</defs>
	<g clip-path="url(#clip24_1150)">
		<path d="M7.36 12.75C8.55 12.75 9.1 12.89 9.62 13.17C10.14 13.45 10.54 13.85 10.82 14.37L10.87 14.47C11.12 14.96 11.25 15.52 11.25 16.63L11.25 17.86C11.25 19.05 11.1 19.6 10.82 20.12C10.54 20.64 10.14 21.04 9.62 21.32L9.52 21.37C9.03 21.62 8.47 21.75 7.36 21.75L6.13 21.75C4.94 21.75 4.39 21.6 3.87 21.32C3.35 21.04 2.95 20.64 2.67 20.12L2.62 20.02C2.38 19.55 2.25 19.01 2.25 17.98L2.25 16.63C2.25 15.44 2.39 14.89 2.67 14.37C2.95 13.85 3.35 13.45 3.87 13.17L3.97 13.12C4.44 12.88 4.98 12.75 6.01 12.75L7.36 12.75ZM17.86 12.75C19.05 12.75 19.6 12.89 20.12 13.17C20.64 13.45 21.04 13.85 21.32 14.37L21.37 14.47C21.62 14.96 21.75 15.52 21.75 16.63L21.75 17.86C21.75 19.05 21.6 19.6 21.32 20.12C21.04 20.64 20.64 21.04 20.12 21.32L20.02 21.37C19.53 21.62 18.97 21.75 17.86 21.75L16.63 21.75C15.44 21.75 14.89 21.6 14.37 21.32C13.85 21.04 13.45 20.64 13.17 20.12L13.12 20.02C12.88 19.55 12.75 19.01 12.75 17.98L12.75 16.63C12.75 15.44 12.89 14.89 13.17 14.37C13.45 13.85 13.85 13.45 14.37 13.17L14.47 13.12C14.94 12.88 15.48 12.75 16.51 12.75L17.86 12.75ZM7.36 2.25C8.55 2.25 9.1 2.39 9.62 2.67C10.14 2.95 10.54 3.35 10.82 3.87L10.87 3.97C11.12 4.46 11.25 5.02 11.25 6.13L11.25 7.36C11.25 8.55 11.1 9.1 10.82 9.62C10.54 10.14 10.14 10.54 9.62 10.82L9.52 10.87C9.03 11.12 8.47 11.25 7.36 11.25L6.13 11.25C4.94 11.25 4.39 11.1 3.87 10.82C3.35 10.54 2.95 10.14 2.67 9.62L2.62 9.52C2.38 9.05 2.25 8.51 2.25 7.48L2.25 6.13C2.25 4.94 2.39 4.39 2.67 3.87C2.95 3.35 3.35 2.95 3.87 2.67L3.97 2.62C4.44 2.38 4.98 2.25 6.01 2.25L7.36 2.25ZM17.86 2.25C19.05 2.25 19.6 2.39 20.12 2.67C20.64 2.95 21.04 3.35 21.32 3.87L21.37 3.97C21.62 4.46 21.75 5.02 21.75 6.13L21.75 7.36C21.75 8.55 21.6 9.1 21.32 9.62C21.04 10.14 20.64 10.54 20.12 10.82L20.02 10.87C19.53 11.12 18.97 11.25 17.86 11.25L16.63 11.25C15.44 11.25 14.89 11.1 14.37 10.82C13.85 10.54 13.45 10.14 13.17 9.62L13.12 9.52C12.88 9.05 12.75 8.51 12.75 7.48L12.75 6.13C12.75 4.94 12.89 4.39 13.17 3.87C13.45 3.35 13.85 2.95 14.37 2.67L14.47 2.62C14.94 2.38 15.48 2.25 16.51 2.25L17.86 2.25Z" fill="#007DFF" fill-opacity="1.000000" fill-rule="nonzero"/>
		<path d="M9.62 13.17C10.14 13.45 10.54 13.85 10.82 14.37L10.87 14.47C11.12 14.96 11.25 15.52 11.25 16.63L11.25 17.86C11.25 19.05 11.1 19.6 10.82 20.12C10.54 20.64 10.14 21.04 9.62 21.32L9.52 21.37C9.03 21.62 8.47 21.75 7.36 21.75L6.13 21.75C4.94 21.75 4.39 21.6 3.87 21.32C3.35 21.04 2.95 20.64 2.67 20.12L2.62 20.02C2.38 19.55 2.25 19.01 2.25 17.98L2.25 16.63C2.25 15.44 2.39 14.89 2.67 14.37C2.95 13.85 3.35 13.45 3.87 13.17L3.97 13.12C4.44 12.88 4.98 12.75 6.01 12.75L7.36 12.75C8.55 12.75 9.1 12.89 9.62 13.17ZM20.12 13.17C20.64 13.45 21.04 13.85 21.32 14.37L21.37 14.47C21.62 14.96 21.75 15.52 21.75 16.63L21.75 17.86C21.75 19.05 21.6 19.6 21.32 20.12C21.04 20.64 20.64 21.04 20.12 21.32L20.02 21.37C19.53 21.62 18.97 21.75 17.86 21.75L16.63 21.75C15.44 21.75 14.89 21.6 14.37 21.32C13.85 21.04 13.45 20.64 13.17 20.12L13.12 20.02C12.88 19.55 12.75 19.01 12.75 17.98L12.75 16.63C12.75 15.44 12.89 14.89 13.17 14.37C13.45 13.85 13.85 13.45 14.37 13.17L14.47 13.12C14.94 12.88 15.48 12.75 16.51 12.75L17.86 12.75C19.05 12.75 19.6 12.89 20.12 13.17ZM9.62 2.67C10.14 2.95 10.54 3.35 10.82 3.87L10.87 3.97C11.12 4.46 11.25 5.02 11.25 6.13L11.25 7.36C11.25 8.55 11.1 9.1 10.82 9.62C10.54 10.14 10.14 10.54 9.62 10.82L9.52 10.87C9.03 11.12 8.47 11.25 7.36 11.25L6.13 11.25C4.94 11.25 4.39 11.1 3.87 10.82C3.35 10.54 2.95 10.14 2.67 9.62L2.62 9.52C2.38 9.05 2.25 8.51 2.25 7.48L2.25 6.13C2.25 4.94 2.39 4.39 2.67 3.87C2.95 3.35 3.35 2.95 3.87 2.67L3.97 2.62C4.44 2.38 4.98 2.25 6.01 2.25L7.36 2.25C8.55 2.25 9.1 2.39 9.62 2.67ZM20.12 2.67C20.64 2.95 21.04 3.35 21.32 3.87L21.37 3.97C21.62 4.46 21.75 5.02 21.75 6.13L21.75 7.36C21.75 8.55 21.6 9.1 21.32 9.62C21.04 10.14 20.64 10.54 20.12 10.82L20.02 10.87C19.53 11.12 18.97 11.25 17.86 11.25L16.63 11.25C15.44 11.25 14.89 11.1 14.37 10.82C13.85 10.54 13.45 10.14 13.17 9.62L13.12 9.52C12.88 9.05 12.75 8.51 12.75 7.48L12.75 6.13C12.75 4.94 12.89 4.39 13.17 3.87C13.45 3.35 13.85 2.95 14.37 2.67L14.47 2.62C14.94 2.38 15.48 2.25 16.51 2.25L17.86 2.25C19.05 2.25 19.6 2.39 20.12 2.67Z" stroke="#000000" stroke-opacity="0" stroke-width="1.000000"/>
	</g>
</svg>
