<svg width="24.000000" height="24.000000" viewBox="0 0 24 24" fill="none" xmlns="http://www.w3.org/2000/svg" xmlns:xlink="http://www.w3.org/1999/xlink">
	<desc>
			Created with Pixso.
	</desc>
	<defs>
		<clipPath id="clip5_2318">
			<rect width="24.000000" height="24.000000" fill="white" fill-opacity="0"/>
		</clipPath>
	</defs>
	<g clip-path="url(#clip5_2318)">
		<path d="M9.84 12.13L3.67 7.98C3.5 7.86 3.37 7.73 3.25 7.57C3.23 7.53 3.21 7.5 3.18 7.46Q3.1 7.32 3.04 7.16L3.04 7.16C3.01 7.05 2.98 6.94 2.97 6.82C2.95 6.72 2.95 6.62 2.96 6.53C2.96 6.4 2.99 6.28 3.02 6.15C3.05 6.07 3.07 6 3.11 5.92C3.17 5.79 3.25 5.66 3.35 5.54C3.44 5.42 3.55 5.32 3.67 5.23L3.67 5.23Q3.88 5.07 4.14 4.98L5.49 4.49C5.61 4.44 5.74 4.41 5.87 4.39C5.97 4.38 6.08 4.37 6.19 4.37C6.34 4.38 6.48 4.4 6.62 4.43C6.71 4.46 6.8 4.49 6.88 4.52L16.23 8.42C16.28 8.44 16.32 8.45 16.36 8.45C16.41 8.46 16.47 8.45 16.52 8.43L19.51 7.34C19.85 7.22 20.19 7.14 20.54 7.1L20.54 7.1Q20.93 7.06 21.33 7.1C21.73 7.13 22.11 7.22 22.47 7.37C22.67 7.45 22.87 7.54 23.05 7.66C23.14 7.71 23.23 7.78 23.31 7.85C23.38 7.92 23.45 8 23.51 8.09C23.57 8.18 23.63 8.27 23.67 8.37C23.71 8.46 23.74 8.55 23.76 8.64C23.79 8.76 23.8 8.88 23.8 8.99C23.8 9.08 23.79 9.17 23.77 9.27C23.75 9.37 23.72 9.46 23.69 9.56C23.64 9.66 23.58 9.77 23.51 9.87C23.42 9.99 23.32 10.1 23.2 10.19C23.07 10.3 22.91 10.39 22.73 10.45L4.03 17.26C3.88 17.31 3.74 17.32 3.59 17.28C3.44 17.24 3.32 17.17 3.22 17.06L1.14 14.79C1.02 14.65 0.93 14.51 0.86 14.35C0.84 14.3 0.82 14.25 0.81 14.19C0.78 14.1 0.76 14.01 0.75 13.91C0.74 13.79 0.74 13.67 0.75 13.55C0.76 13.46 0.78 13.38 0.81 13.29C0.84 13.17 0.89 13.06 0.95 12.94Q1.01 12.84 1.08 12.74L1.08 12.74Q1.21 12.58 1.38 12.45C1.45 12.39 1.52 12.34 1.59 12.3C1.68 12.25 1.78 12.21 1.87 12.17L2.77 11.84C2.88 11.8 2.99 11.77 3.1 11.76C3.19 11.74 3.29 11.73 3.38 11.73C3.52 11.73 3.65 11.74 3.77 11.76C3.85 11.78 3.93 11.8 4 11.82L5.63 12.35C5.68 12.36 5.75 12.35 5.81 12.33L7.14 11.84C7.54 11.7 7.96 11.9 8.11 12.29C8.25 12.69 8.05 13.11 7.66 13.25L6.32 13.74C6.21 13.78 6.1 13.81 5.99 13.83C5.89 13.84 5.8 13.85 5.71 13.85C5.57 13.86 5.44 13.85 5.32 13.82C5.24 13.81 5.16 13.79 5.09 13.76L3.46 13.23C3.4 13.22 3.34 13.23 3.28 13.25L2.31 13.62C2.27 13.65 2.25 13.74 2.25 13.77L3.99 15.68L22.22 9.04C22.25 9.03 22.25 8.96 22.27 8.94C22.18 8.88 22.09 8.84 22 8.8L22 8.8Q21.63 8.63 21.2 8.59Q20.97 8.57 20.74 8.59C20.5 8.61 20.26 8.67 20.03 8.75L17.04 9.84C16.91 9.88 16.79 9.92 16.66 9.94C16.55 9.95 16.45 9.96 16.34 9.95C16.13 9.95 15.84 9.88 15.66 9.81L6.2 5.88C6.14 5.86 6.07 5.87 6 5.9L4.66 6.39C4.61 6.4 4.54 6.46 4.51 6.49C4.47 6.53 4.45 6.58 4.45 6.62C4.45 6.63 4.51 6.73 4.51 6.73L10.68 10.89C11.02 11.12 11.11 11.58 10.88 11.93C10.65 12.28 10.19 12.37 9.84 12.13ZM20.5 19.25L3.5 19.25C3.08 19.25 2.75 19.58 2.75 20C2.75 20.42 3.08 20.75 3.5 20.75L20.5 20.75C20.92 20.75 21.25 20.42 21.25 20C21.25 19.58 20.92 19.25 20.5 19.25Z" fill="#000000" fill-opacity="0.600000" fill-rule="evenodd"/>
	</g>
</svg>
