<svg width="24.000000" height="24.000000" viewBox="0 0 24 24" fill="none" xmlns="http://www.w3.org/2000/svg" xmlns:xlink="http://www.w3.org/1999/xlink">
	<desc>
			Created with Pixso.
	</desc>
	<defs>
		<clipPath id="clip5_2333">
			<rect width="24.000000" height="24.000000" fill="white" fill-opacity="0"/>
		</clipPath>
	</defs>
	<g clip-path="url(#clip5_2333)">
		<path d="M10.26 11.51L4.09 7.36C3.65 7.05 3.58 6.45 3.93 6.02C4.05 5.87 4.21 5.75 4.4 5.68L5.75 5.19C6.02 5.09 6.32 5.1 6.58 5.21L15.95 9.11C16.2 9.23 16.5 9.23 16.78 9.13L19.77 8.05C20.75 7.69 21.82 7.78 22.66 8.3C23.05 8.53 23.18 9.05 22.9 9.43C22.8 9.57 22.65 9.68 22.48 9.74L3.77 16.55L1.69 14.28C1.37 13.91 1.44 13.36 1.85 13.03C1.93 12.97 2.03 12.91 2.13 12.87L3.02 12.55C3.27 12.46 3.53 12.46 3.77 12.53L5.32 13.05C5.56 13.13 5.82 13.12 6.06 13.03L10.26 11.51Z" fill="#0A59F7" fill-opacity="1.000000" fill-rule="evenodd"/>
		<path d="M3.35 7.69C3.44 7.79 3.54 7.89 3.66 7.97L8.62 11.31L5.81 12.33C5.75 12.35 5.68 12.36 5.63 12.35L4 11.82C3.93 11.8 3.85 11.78 3.77 11.76C3.65 11.74 3.52 11.73 3.38 11.73C3.29 11.73 3.19 11.74 3.1 11.76C2.99 11.77 2.88 11.8 2.77 11.84L1.87 12.17C1.78 12.21 1.68 12.25 1.59 12.3C1.52 12.34 1.45 12.39 1.38 12.45C1.27 12.54 1.17 12.63 1.08 12.74C1.04 12.81 0.99 12.87 0.95 12.94C0.89 13.06 0.84 13.17 0.81 13.29C0.78 13.38 0.76 13.46 0.75 13.55C0.74 13.67 0.74 13.79 0.75 13.91C0.76 14.01 0.78 14.1 0.81 14.19C0.82 14.25 0.84 14.3 0.86 14.35C0.93 14.51 1.02 14.65 1.14 14.79L3.22 17.06C3.32 17.17 3.44 17.24 3.59 17.28C3.74 17.32 3.88 17.31 4.03 17.26L22.73 10.45C22.91 10.39 23.07 10.3 23.2 10.19C23.32 10.1 23.42 9.99 23.51 9.87C23.58 9.77 23.64 9.66 23.69 9.56C23.72 9.46 23.75 9.37 23.77 9.27C23.79 9.17 23.8 9.08 23.8 8.99C23.8 8.88 23.79 8.76 23.76 8.64C23.74 8.55 23.71 8.46 23.67 8.37C23.63 8.27 23.57 8.18 23.51 8.09C23.45 8 23.38 7.92 23.31 7.85C23.23 7.78 23.14 7.71 23.05 7.66C22.87 7.54 22.67 7.45 22.47 7.37C22.11 7.22 21.73 7.13 21.33 7.1C21.07 7.08 20.8 7.08 20.54 7.1C20.19 7.14 19.85 7.22 19.51 7.34L16.52 8.43C16.47 8.45 16.41 8.46 16.36 8.45C16.32 8.45 16.28 8.44 16.23 8.42L6.88 4.52C6.8 4.49 6.71 4.46 6.62 4.43C6.48 4.4 6.34 4.38 6.19 4.37C6.08 4.37 5.97 4.38 5.87 4.39C5.74 4.41 5.61 4.44 5.49 4.49L4.14 4.98C3.97 5.04 3.81 5.13 3.67 5.23C3.55 5.32 3.44 5.42 3.35 5.54C3.25 5.66 3.17 5.79 3.11 5.92C3.07 6 3.05 6.07 3.02 6.15C2.99 6.28 2.96 6.4 2.96 6.53C2.95 6.62 2.95 6.72 2.97 6.82C2.98 6.94 3.01 7.05 3.04 7.16C3.08 7.27 3.13 7.36 3.18 7.46C3.23 7.54 3.29 7.62 3.35 7.69ZM4.51 6.74C4.51 6.73 4.45 6.63 4.45 6.62C4.45 6.58 4.47 6.53 4.51 6.49C4.54 6.46 4.61 6.4 4.66 6.39L6 5.9C6.07 5.87 6.14 5.86 6.2 5.88L15.66 9.81C15.84 9.88 16.13 9.95 16.34 9.95C16.45 9.96 16.55 9.95 16.66 9.94C16.79 9.92 16.91 9.88 17.04 9.84L20.03 8.75C20.26 8.67 20.5 8.61 20.74 8.59C20.89 8.58 21.05 8.58 21.2 8.59C21.49 8.62 21.75 8.69 22 8.8C22.09 8.84 22.18 8.88 22.27 8.94C22.25 8.96 22.25 9.03 22.22 9.04L3.99 15.68L2.25 13.77C2.25 13.74 2.27 13.65 2.31 13.62L3.28 13.25C3.34 13.23 3.4 13.22 3.46 13.23L5.09 13.76C5.16 13.79 5.24 13.81 5.32 13.82C5.44 13.85 5.57 13.86 5.71 13.85C5.8 13.85 5.89 13.84 5.99 13.83C6.1 13.81 6.21 13.78 6.32 13.74L10.51 12.21C10.71 12.14 10.85 12.01 10.94 11.83C11.02 11.64 11.03 11.45 10.96 11.25C10.94 11.18 10.9 11.11 10.85 11.05C10.8 10.98 10.74 10.93 10.68 10.89L4.51 6.74Z" fill="#0A59F7" fill-opacity="1.000000" fill-rule="evenodd"/>
		<path d="M3.5 19.25L20.5 19.25C20.92 19.25 21.25 19.58 21.25 20C21.25 20.42 20.92 20.75 20.5 20.75L3.5 20.75C3.08 20.75 2.75 20.42 2.75 20C2.75 19.58 3.08 19.25 3.5 19.25Z" fill="#0A59F7" fill-opacity="0.600000" fill-rule="evenodd"/>
	</g>
</svg>
