<svg width="24.000000" height="24.000000" viewBox="0 0 24 24" fill="none" xmlns="http://www.w3.org/2000/svg" xmlns:xlink="http://www.w3.org/1999/xlink">
	<desc>
			Created with Pixso.
	</desc>
	<defs/>
	<g opacity="0.600000">
		<path d="M6.76 20.79C5.51 20.79 4.49 19.79 4.46 18.55L4.46 12.58L5.72 11.4L5.72 18.49C5.72 19.05 6.16 19.51 6.72 19.54L8.86 19.54L8.86 15.98C8.86 14.3 10.17 12.93 11.83 12.84L12 12.84C13.73 12.84 15.13 14.24 15.13 15.98L15.13 19.54L17.23 19.54C17.79 19.54 18.25 19.09 18.27 18.54L18.27 11.4L19.45 12.51L19.53 18.49C19.53 19.74 18.53 20.76 17.29 20.79L6.76 20.79ZM12 14.09C10.95 14.09 10.11 14.94 10.11 15.98L10.11 19.54L13.88 19.54L13.88 15.98C13.88 14.98 13.1 14.17 12.12 14.1L12 14.09ZM9.96 4.5C11.17 3.46 12.99 3.5 14.16 4.61L20.8 10.92C20.99 11.16 21.04 11.58 20.82 11.81C20.58 12.06 20.19 12.07 19.93 11.83L13.29 5.52L13.2 5.43C12.47 4.83 11.39 4.86 10.7 5.52L4.06 11.83C3.8 12.01 3.39 12.04 3.17 11.81C2.93 11.55 2.94 11.16 3.19 10.92L9.83 4.61L9.96 4.5Z" fill="#000000" fill-opacity="1.000000" fill-rule="nonzero"/>
		<path d="M4.46 18.55L4.46 12.58L5.72 11.4L5.72 18.49C5.72 19.05 6.16 19.51 6.72 19.54L8.86 19.54L8.86 15.98C8.86 14.3 10.17 12.93 11.83 12.84L12 12.84C13.73 12.84 15.13 14.24 15.13 15.98L15.13 19.54L17.23 19.54C17.79 19.54 18.25 19.09 18.27 18.54L18.27 11.4L19.45 12.51L19.53 18.49C19.53 19.74 18.53 20.76 17.29 20.79L6.76 20.79C5.51 20.79 4.49 19.79 4.46 18.55ZM10.11 15.98L10.11 19.54L13.88 19.54L13.88 15.98C13.88 14.98 13.1 14.17 12.12 14.1L12 14.09C10.95 14.09 10.11 14.94 10.11 15.98ZM14.16 4.61L20.8 10.92C20.99 11.16 21.04 11.58 20.82 11.81C20.58 12.06 20.19 12.07 19.93 11.83L13.29 5.52L13.2 5.43C12.47 4.83 11.39 4.86 10.7 5.52L4.06 11.83C3.8 12.01 3.39 12.04 3.17 11.81C2.93 11.55 2.94 11.16 3.19 10.92L9.83 4.61L9.96 4.5C11.17 3.46 12.99 3.5 14.16 4.61Z" stroke="#000000" stroke-opacity="0" stroke-width="1.000000"/>
	</g>
</svg>
