<svg width="24.000000" height="24.000000" viewBox="0 0 24 24" fill="none" xmlns="http://www.w3.org/2000/svg" xmlns:xlink="http://www.w3.org/1999/xlink">
	<desc>
			Created with Pixso.
	</desc>
	<defs/>
	<path d="M12.46 6.4L12.57 6.49L19.53 13.12L19.53 18.7C19.53 20.04 18.48 21.13 17.17 21.21L17.02 21.21L6.97 21.21C5.63 21.21 4.54 20.17 4.46 18.85L4.46 18.7L4.46 13.12L11.42 6.49C11.71 6.21 12.15 6.18 12.46 6.4ZM12 13.89C10.66 13.89 9.56 14.93 9.49 16.25L9.48 16.4L9.48 19.54L14.51 19.54L14.51 16.4C14.51 15.01 13.38 13.89 12 13.89ZM9.82 4.55C11.11 3.44 13.05 3.48 14.3 4.66L20.73 10.77C21 11.09 21.06 11.64 20.77 11.95C20.45 12.29 19.92 12.3 19.58 11.98L13.15 5.88L13.05 5.8C12.41 5.27 11.46 5.3 10.84 5.88L4.41 11.98C4.07 12.23 3.52 12.26 3.22 11.95C2.91 11.62 2.92 11.09 3.26 10.77L9.69 4.66L9.82 4.55Z" fill="#0A59F7" fill-opacity="1.000000" fill-rule="nonzero"/>
</svg>
