<svg width="24.000000" height="24.000000" viewBox="0 0 24 24" fill="none" xmlns="http://www.w3.org/2000/svg" xmlns:xlink="http://www.w3.org/1999/xlink">
	<desc>
			Created with Pixso.
	</desc>
	<defs/>
	<rect rx="0.000000" width="23.000000" height="23.000000" transform="translate(0.500000 0.500000)" fill="#FFFFFF" fill-opacity="1.000000"/>
	<path d="M4.2 17.2C4.79 16 6.31 12.45 12.25 12.45C18.19 12.45 19.74 16 20.3 17.2C20.51 17.65 20.66 18.25 20.74 19.01C20.84 20 20.12 20.88 19.14 20.99C19.07 20.99 19.01 21 18.95 21L5.54 21C4.55 21 3.75 20.19 3.75 19.2C3.75 19.13 3.75 19.07 3.75 19.01C3.83 18.25 3.98 17.65 4.2 17.2ZM12.25 3C9.89 3 7.98 4.91 7.98 7.27C7.98 9.63 9.89 11.55 12.25 11.55C14.61 11.55 16.53 9.63 16.53 7.27C16.53 4.91 14.61 3 12.25 3Z" fill="#0A59F7" fill-opacity="1.000000" fill-rule="nonzero"/>
	<rect rx="0.000000" width="23.000000" height="23.000000" transform="translate(0.500000 0.500000)" stroke="#FFFFFF" stroke-opacity="1.000000" stroke-width="1.000000"/>
</svg>
