<svg width="24.000000" height="24.000000" viewBox="0 0 24 24" fill="none" xmlns="http://www.w3.org/2000/svg" xmlns:xlink="http://www.w3.org/1999/xlink">
	<desc>
			Created with Pixso.
	</desc>
	<defs/>
	<g opacity="0.600000">
		<path d="M11.88 3C14.59 3 16.79 5.19 16.79 7.9C16.79 10.55 14.7 12.7 12.08 12.81L11.88 12.81C11.1 12.81 10.35 12.93 9.64 13.15L9.43 13.22C9.28 13.28 9.13 13.33 8.98 13.39C8.95 13.41 8.91 13.42 8.88 13.44L8.98 13.39C8.92 13.42 8.94 13.41 8.88 13.44C8.81 13.47 8.74 13.5 8.67 13.53L8.88 13.44C8.79 13.48 8.63 13.55 8.55 13.59L8.67 13.53C8.61 13.56 8.62 13.56 8.55 13.59C8.47 13.63 8.39 13.67 8.31 13.72L8.55 13.59C8.49 13.62 8.37 13.69 8.31 13.72C8.19 13.78 8.06 13.86 7.93 13.94C7.89 13.97 7.84 14 7.79 14.03C7.69 14.1 7.58 14.17 7.48 14.24C7.41 14.29 7.35 14.34 7.28 14.39L7.48 14.24C7.42 14.29 7.34 14.35 7.28 14.39C7.22 14.44 7.17 14.48 7.11 14.53L7.28 14.39C7.21 14.45 7.18 14.47 7.11 14.53C7.05 14.58 6.99 14.63 6.93 14.68L7.11 14.53C7.05 14.58 6.99 14.63 6.93 14.68C6.87 14.73 6.81 14.79 6.76 14.84L6.93 14.68C6.88 14.72 6.8 14.8 6.76 14.84C6.63 14.96 6.51 15.08 6.39 15.21C6.3 15.31 6.21 15.42 6.12 15.52C6.08 15.57 6.03 15.62 5.99 15.67L6.12 15.52C6.08 15.57 6.03 15.62 5.99 15.67C5.95 15.74 5.9 15.8 5.85 15.86L5.99 15.67C5.94 15.75 5.83 15.89 5.78 15.96L5.85 15.86C5.8 15.93 5.76 15.99 5.71 16.06L5.78 15.96C5.74 16.02 5.75 15.99 5.71 16.06C5.67 16.12 5.62 16.19 5.58 16.25L5.71 16.06C5.67 16.13 5.56 16.28 5.52 16.35L5.58 16.25C5.54 16.31 5.56 16.29 5.52 16.35C5.38 16.58 5.25 16.82 5.13 17.06C5.12 17.09 5.1 17.12 5.09 17.16L5.13 17.06C5.1 17.13 5.07 17.2 5.03 17.27L5.09 17.16C5.06 17.22 5.06 17.21 5.03 17.27C5 17.35 4.96 17.43 4.93 17.51L5.03 17.27C5 17.34 4.96 17.44 4.93 17.51C4.9 17.58 4.88 17.65 4.85 17.71L4.93 17.51C4.9 17.6 4.85 17.73 4.82 17.82L4.85 17.71C4.84 17.76 4.83 17.77 4.82 17.82C4.7 18.14 4.61 18.47 4.55 18.8C4.54 18.86 4.53 18.91 4.52 18.96L4.55 18.8C4.53 18.88 4.53 18.87 4.52 18.96C4.5 19.04 4.49 19.12 4.48 19.2L4.52 18.96C4.5 19.05 4.47 19.23 4.46 19.32L4.48 19.2C4.47 19.27 4.46 19.35 4.45 19.42L4.46 19.32C4.45 19.39 4.44 19.47 4.44 19.54L4.45 19.42C4.44 19.52 4.43 19.61 4.42 19.71L4.44 19.54C4.42 19.71 4.41 19.87 4.4 20.04C4.4 20.12 4.4 20.21 4.4 20.29L4.4 20.04C4.4 20.12 4.4 20.2 4.4 20.29C4.4 20.68 4.08 21 3.7 21C3.31 21 3 20.68 3 20.29C3 20.11 3 19.92 3.01 19.74C3.01 19.69 3.02 19.65 3.02 19.6C3.02 19.56 3.03 19.52 3.03 19.48C3.04 19.44 3.04 19.4 3.04 19.35C3.05 19.3 3.06 19.25 3.06 19.2C3.07 19.17 3.07 19.14 3.07 19.1C3.11 18.84 3.16 18.58 3.21 18.32C3.24 18.21 3.28 18.06 3.31 17.95C3.32 17.89 3.34 17.83 3.36 17.77C3.38 17.71 3.41 17.6 3.43 17.54C3.44 17.5 3.45 17.47 3.47 17.43C3.48 17.39 3.5 17.35 3.51 17.3C3.52 17.26 3.54 17.23 3.55 17.19C3.61 17.03 3.67 16.88 3.74 16.73C3.83 16.53 3.92 16.33 4.02 16.14C4.05 16.1 4.07 16.05 4.1 16.01C4.12 15.97 4.18 15.86 4.2 15.82C4.23 15.78 4.25 15.73 4.28 15.69C4.32 15.62 4.42 15.47 4.46 15.4C4.53 15.29 4.61 15.19 4.69 15.08C4.77 14.97 4.92 14.77 5.01 14.66C5.04 14.62 5.14 14.51 5.18 14.46C5.22 14.41 5.34 14.28 5.39 14.23C5.56 14.05 5.76 13.85 5.95 13.68C5.99 13.64 6.04 13.6 6.08 13.56C6.13 13.52 6.23 13.44 6.28 13.4C6.3 13.38 6.4 13.3 6.43 13.28C6.48 13.24 6.54 13.2 6.59 13.15C6.64 13.12 6.73 13.06 6.77 13.02C6.84 12.97 6.99 12.87 7.06 12.83C7.1 12.8 7.14 12.78 7.17 12.76C7.21 12.74 7.24 12.71 7.28 12.69C7.34 12.66 7.46 12.59 7.52 12.55C7.58 12.52 7.68 12.46 7.74 12.43C7.78 12.41 7.9 12.35 7.95 12.33C8.27 12.17 8.67 12 9.01 11.89C7.77 10.99 6.97 9.54 6.97 7.9C6.97 5.19 9.17 3 11.88 3ZM15.74 12.29C18.71 13.73 20.76 16.77 20.76 20.29C20.76 20.68 20.45 21 20.06 21C19.67 21 19.36 20.68 19.36 20.29C19.36 17.01 17.25 14.23 14.31 13.22C14.83 12.98 15.31 12.67 15.74 12.29ZM11.88 4.4C9.94 4.4 8.37 5.97 8.37 7.9C8.37 9.84 9.94 11.41 11.88 11.41C13.81 11.41 15.38 9.84 15.38 7.9C15.38 5.97 13.81 4.4 11.88 4.4Z" fill="#000000" fill-opacity="1.000000" fill-rule="nonzero"/>
		<path d="M4.52 18.96C4.5 19.05 4.47 19.23 4.46 19.32C4.45 19.39 4.44 19.47 4.44 19.54C4.42 19.71 4.41 19.87 4.4 20.04C4.4 20.12 4.4 20.2 4.4 20.29C4.4 20.68 4.08 21 3.7 21C3.31 21 3 20.68 3 20.29C3 20.11 3 19.92 3.01 19.74C3.01 19.69 3.02 19.65 3.02 19.6C3.02 19.56 3.03 19.52 3.03 19.48C3.04 19.44 3.04 19.4 3.04 19.35C3.05 19.3 3.06 19.25 3.06 19.2C3.07 19.17 3.07 19.14 3.07 19.1C3.11 18.84 3.16 18.58 3.21 18.32C3.24 18.21 3.28 18.06 3.31 17.95C3.32 17.89 3.34 17.83 3.36 17.77C3.38 17.71 3.41 17.6 3.43 17.54C3.44 17.5 3.45 17.47 3.47 17.43C3.48 17.39 3.5 17.35 3.51 17.3C3.52 17.26 3.54 17.23 3.55 17.19C3.61 17.03 3.67 16.88 3.74 16.73C3.83 16.53 3.92 16.33 4.02 16.14C4.05 16.1 4.07 16.05 4.1 16.01C4.12 15.97 4.18 15.86 4.2 15.82C4.23 15.78 4.25 15.73 4.28 15.69C4.32 15.62 4.42 15.47 4.46 15.4C4.53 15.29 4.61 15.19 4.69 15.08C4.77 14.97 4.92 14.77 5.01 14.66C5.04 14.62 5.14 14.51 5.18 14.46C5.22 14.41 5.34 14.28 5.39 14.23C5.56 14.05 5.76 13.85 5.95 13.68C5.99 13.64 6.04 13.6 6.08 13.56C6.13 13.52 6.23 13.44 6.28 13.4C6.3 13.38 6.4 13.3 6.43 13.28C6.48 13.24 6.54 13.2 6.59 13.15C6.64 13.12 6.73 13.06 6.77 13.02C6.84 12.97 6.99 12.87 7.06 12.83C7.1 12.8 7.14 12.78 7.17 12.76C7.21 12.74 7.24 12.71 7.28 12.69C7.34 12.66 7.46 12.59 7.52 12.55C7.58 12.52 7.68 12.46 7.74 12.43C7.78 12.41 7.9 12.35 7.95 12.33C8.27 12.17 8.67 12 9.01 11.89C7.77 10.99 6.97 9.54 6.97 7.9C6.97 5.19 9.17 3 11.88 3C14.59 3 16.79 5.19 16.79 7.9C16.79 10.55 14.7 12.7 12.08 12.81L11.88 12.81C11.1 12.81 10.35 12.93 9.64 13.15L9.43 13.22C9.28 13.28 9.13 13.33 8.98 13.39C8.92 13.42 8.94 13.41 8.88 13.44C8.79 13.48 8.63 13.55 8.55 13.59C8.47 13.63 8.39 13.67 8.31 13.72C8.19 13.78 8.06 13.86 7.93 13.94C7.89 13.97 7.84 14 7.79 14.03C7.69 14.1 7.58 14.17 7.48 14.24C7.41 14.29 7.35 14.34 7.28 14.39M8.98 13.39C8.95 13.41 8.91 13.42 8.88 13.44M8.88 13.44L8.98 13.39M8.88 13.44C8.81 13.47 8.74 13.5 8.67 13.53C8.61 13.56 8.62 13.56 8.55 13.59M8.67 13.53L8.88 13.44M8.55 13.59L8.67 13.53M8.31 13.72L8.55 13.59M8.55 13.59C8.49 13.62 8.37 13.69 8.31 13.72M7.28 14.39L7.48 14.24M7.48 14.24C7.42 14.29 7.34 14.35 7.28 14.39C7.21 14.45 7.18 14.47 7.11 14.53M7.28 14.39C7.22 14.44 7.17 14.48 7.11 14.53C7.05 14.58 6.99 14.63 6.93 14.68M7.11 14.53L7.28 14.39M6.93 14.68L7.11 14.53M7.11 14.53C7.05 14.58 6.99 14.63 6.93 14.68C6.88 14.72 6.8 14.8 6.76 14.84M6.93 14.68C6.87 14.73 6.81 14.79 6.76 14.84C6.63 14.96 6.51 15.08 6.39 15.21C6.3 15.31 6.21 15.42 6.12 15.52C6.08 15.57 6.03 15.62 5.99 15.67C5.95 15.74 5.9 15.8 5.85 15.86C5.8 15.93 5.76 15.99 5.71 16.06C5.67 16.12 5.62 16.19 5.58 16.25C5.54 16.31 5.56 16.29 5.52 16.35M6.76 14.84L6.93 14.68M5.99 15.67L6.12 15.52M6.12 15.52C6.08 15.57 6.03 15.62 5.99 15.67M5.85 15.86L5.99 15.67M5.99 15.67C5.94 15.75 5.83 15.89 5.78 15.96C5.74 16.02 5.75 15.99 5.71 16.06M5.78 15.96L5.85 15.86M5.71 16.06L5.78 15.96M5.58 16.25L5.71 16.06M5.71 16.06C5.67 16.13 5.56 16.28 5.52 16.35C5.38 16.58 5.25 16.82 5.13 17.06C5.1 17.13 5.07 17.2 5.03 17.27C5 17.35 4.96 17.43 4.93 17.51M5.52 16.35L5.58 16.25M5.13 17.06C5.12 17.09 5.1 17.12 5.09 17.16C5.06 17.22 5.06 17.21 5.03 17.27M5.09 17.16L5.13 17.06M5.03 17.27L5.09 17.16M4.93 17.51L5.03 17.27M5.03 17.27C5 17.34 4.96 17.44 4.93 17.51C4.9 17.6 4.85 17.73 4.82 17.82C4.7 18.14 4.61 18.47 4.55 18.8C4.53 18.88 4.53 18.87 4.52 18.96M4.93 17.51C4.9 17.58 4.88 17.65 4.85 17.71C4.84 17.76 4.83 17.77 4.82 17.82M4.85 17.71L4.93 17.51M4.82 17.82L4.85 17.71M4.55 18.8C4.54 18.86 4.53 18.91 4.52 18.96C4.5 19.04 4.49 19.12 4.48 19.2C4.47 19.27 4.46 19.35 4.45 19.42C4.44 19.52 4.43 19.61 4.42 19.71L4.44 19.54M4.52 18.96L4.55 18.8M4.48 19.2L4.52 18.96M4.46 19.32L4.48 19.2M4.45 19.42L4.46 19.32M4.44 19.54L4.45 19.42M4.4 20.04C4.4 20.12 4.4 20.21 4.4 20.29M4.4 20.29L4.4 20.04M20.76 20.29C20.76 20.68 20.45 21 20.06 21C19.67 21 19.36 20.68 19.36 20.29C19.36 17.01 17.25 14.23 14.31 13.22C14.83 12.98 15.31 12.67 15.74 12.29C18.71 13.73 20.76 16.77 20.76 20.29ZM8.37 7.9C8.37 9.84 9.94 11.41 11.88 11.41C13.81 11.41 15.38 9.84 15.38 7.9C15.38 5.97 13.81 4.4 11.88 4.4C9.94 4.4 8.37 5.97 8.37 7.9Z" stroke="#000000" stroke-opacity="0" stroke-width="1.000000"/>
	</g>
</svg>
