<svg width="24.000000" height="24.000000" viewBox="0 0 24 24" fill="none" xmlns="http://www.w3.org/2000/svg" xmlns:xlink="http://www.w3.org/1999/xlink">
	<desc>
			Created with Pixso.
	</desc>
	<defs>
		<clipPath id="clip5_2271">
			<rect width="24.000000" height="24.000000" fill="white" fill-opacity="0"/>
		</clipPath>
	</defs>
	<g clip-path="url(#clip5_2271)">
		<g opacity="0.600000">
			<path d="M7.3 21L7.3 19.75C7.3 19.69 7.29 19.64 7.28 19.59C7.27 19.53 7.24 19.48 7.22 19.42C7.18 19.37 7.08 19.23 7.03 19.18C6.96 19.13 6.89 19.09 6.82 19.06C6.72 19.02 6.61 19 6.5 19C6.38 19 6.27 19.02 6.17 19.06C6.1 19.09 6.03 19.13 5.96 19.18C5.91 19.23 5.87 19.28 5.83 19.33C5.8 19.38 5.72 19.53 5.71 19.59C5.7 19.64 5.69 19.69 5.69 19.75L5.69 21C5.69 21.05 5.7 21.1 5.71 21.15C5.72 21.21 5.75 21.26 5.77 21.32C5.81 21.37 5.91 21.51 5.96 21.56C6.03 21.61 6.1 21.65 6.17 21.68C6.27 21.72 6.38 21.75 6.5 21.75C6.61 21.75 6.72 21.72 6.82 21.68C6.89 21.65 6.96 21.61 7.03 21.56C7.08 21.51 7.12 21.46 7.16 21.41C7.19 21.36 7.27 21.21 7.28 21.15C7.29 21.1 7.3 21.05 7.3 21ZM18.29 21L18.29 19.75C18.29 19.69 18.29 19.64 18.28 19.59C18.27 19.53 18.24 19.48 18.22 19.42C18.18 19.37 18.08 19.23 18.03 19.18C17.96 19.13 17.89 19.09 17.82 19.06C17.72 19.02 17.61 19 17.5 19C17.38 19 17.27 19.02 17.17 19.06C17.1 19.09 17.03 19.13 16.96 19.18C16.91 19.23 16.87 19.28 16.83 19.33C16.8 19.38 16.72 19.53 16.71 19.59C16.7 19.64 16.7 19.69 16.7 19.75L16.7 21C16.7 21.05 16.7 21.1 16.71 21.15C16.72 21.21 16.75 21.26 16.77 21.32C16.81 21.37 16.91 21.51 16.96 21.56C17.03 21.61 17.1 21.65 17.17 21.68C17.27 21.72 17.38 21.75 17.5 21.75C17.61 21.75 17.72 21.72 17.82 21.68C17.89 21.65 17.96 21.61 18.03 21.56C18.08 21.51 18.12 21.46 18.16 21.41C18.19 21.36 18.27 21.21 18.28 21.15C18.29 21.1 18.29 21.05 18.29 21Z" fill="#191919" fill-opacity="1.000000" fill-rule="evenodd"/>
			<path d="M15.5 4.79L15.5 3.6C15.5 3.53 15.49 3.46 15.47 3.39C15.45 3.3 15.42 3.2 15.36 3.11C15.29 3 15.17 2.85 15.05 2.77C14.98 2.72 14.91 2.67 14.83 2.64C14.64 2.54 14.42 2.5 14.18 2.5L9.81 2.5C9.57 2.5 9.35 2.54 9.16 2.64C9.08 2.67 9.01 2.72 8.94 2.77C8.82 2.85 8.73 2.95 8.65 3.07C8.6 3.16 8.54 3.3 8.52 3.39C8.5 3.46 8.5 3.53 8.5 3.6L8.5 4.79C8.5 4.85 8.5 4.9 8.51 4.95C8.53 5.01 8.55 5.07 8.58 5.12C8.62 5.18 8.72 5.3 8.78 5.34C8.83 5.38 8.89 5.41 8.94 5.43C9.04 5.47 9.15 5.5 9.27 5.5C9.38 5.5 9.49 5.47 9.59 5.43C9.65 5.41 9.7 5.38 9.76 5.34C9.81 5.3 9.86 5.25 9.91 5.19C9.94 5.14 10.01 5.01 10.02 4.95C10.03 4.9 10.04 4.85 10.04 4.79L10.04 3.89L13.95 3.89L13.95 4.79C13.95 4.85 13.96 4.9 13.97 4.95C13.98 5.01 14.01 5.07 14.04 5.12C14.08 5.18 14.18 5.3 14.23 5.34C14.29 5.38 14.34 5.41 14.4 5.43C14.5 5.47 14.61 5.5 14.72 5.5C14.84 5.5 14.95 5.47 15.05 5.43C15.1 5.41 15.16 5.38 15.21 5.34C15.27 5.3 15.32 5.25 15.36 5.19C15.39 5.14 15.46 5.01 15.48 4.95C15.49 4.9 15.5 4.85 15.5 4.79Z" fill="#191919" fill-opacity="1.000000" fill-rule="evenodd"/>
			<path d="M17.5 4.62C17.18 4.54 16.84 4.5 16.5 4.5L7.5 4.5C7.15 4.5 6.81 4.54 6.49 4.62C6.38 4.65 6.27 4.68 6.16 4.72C5.8 4.85 5.47 5.02 5.18 5.24C5.14 5.27 5.1 5.31 5.05 5.34C4.77 5.58 4.54 5.85 4.37 6.15C4.34 6.2 4.31 6.24 4.28 6.3C4.17 6.52 4.09 6.75 4.04 6.99C4.01 7.15 4 7.32 4 7.5L4 17.5C4 17.67 4.01 17.84 4.04 18C4.09 18.24 4.17 18.47 4.28 18.69C4.31 18.75 4.34 18.79 4.37 18.84C4.54 19.14 4.77 19.41 5.05 19.65C5.1 19.68 5.14 19.72 5.18 19.75C5.47 19.97 5.8 20.14 6.16 20.27C6.27 20.31 6.38 20.34 6.49 20.37C6.81 20.45 7.15 20.5 7.5 20.5L16.5 20.5C16.84 20.5 17.18 20.45 17.5 20.37C17.61 20.34 17.72 20.31 17.83 20.27C18.19 20.14 18.52 19.97 18.81 19.75C18.85 19.72 18.89 19.68 18.94 19.65C19.22 19.41 19.45 19.14 19.62 18.84C19.65 18.79 19.68 18.75 19.71 18.69C19.82 18.47 19.9 18.24 19.95 18C19.98 17.84 20 17.67 20 17.5L20 7.5C20 7.32 19.98 7.15 19.95 6.99C19.9 6.75 19.82 6.52 19.71 6.3C19.68 6.24 19.65 6.2 19.62 6.15C19.45 5.85 19.22 5.58 18.94 5.34C18.89 5.31 18.85 5.27 18.81 5.24C18.52 5.02 18.19 4.85 17.83 4.72C17.72 4.68 17.61 4.65 17.5 4.62ZM7.5 5.5L16.5 5.5C16.78 5.5 17.06 5.53 17.33 5.61C17.39 5.63 17.44 5.64 17.5 5.66C17.8 5.77 18.07 5.92 18.3 6.11C18.52 6.3 18.69 6.51 18.81 6.75C18.89 6.9 18.94 7.06 18.97 7.22C18.99 7.31 19 7.4 19 7.5L19 17.5C19 17.59 18.99 17.68 18.97 17.77C18.94 17.93 18.89 18.09 18.81 18.24C18.69 18.48 18.52 18.69 18.3 18.88C18.07 19.07 17.8 19.22 17.5 19.33C17.44 19.35 17.39 19.36 17.33 19.38C17.06 19.46 16.78 19.5 16.5 19.5L7.5 19.5C7.21 19.5 6.93 19.46 6.66 19.38C6.6 19.36 6.55 19.35 6.49 19.33C6.19 19.22 5.92 19.07 5.69 18.88C5.47 18.69 5.3 18.48 5.18 18.24C5.1 18.09 5.05 17.93 5.02 17.77C5 17.68 5 17.59 5 17.5L5 7.5C5 7.4 5 7.31 5.02 7.22C5.05 7.06 5.1 6.9 5.18 6.75C5.3 6.51 5.47 6.3 5.69 6.11C5.92 5.92 6.19 5.77 6.49 5.66C6.55 5.64 6.6 5.63 6.66 5.61C6.93 5.53 7.21 5.5 7.5 5.5Z" fill="#191919" fill-opacity="1.000000" fill-rule="evenodd"/>
			<path d="M10.25 8.75L10.25 16.25C10.25 16.67 9.92 17 9.5 17C9.07 17 8.75 16.67 8.75 16.25L8.75 8.75C8.75 8.32 9.07 8 9.5 8C9.92 8 10.25 8.32 10.25 8.75ZM15.25 8.75C15.25 8.32 14.92 8 14.5 8C14.08 8 13.75 8.32 13.75 8.75L13.75 16.25C13.75 16.67 14.08 17 14.5 17C14.92 17 15.25 16.67 15.25 16.25L15.25 8.75Z" fill="#1A1A1A" fill-opacity="1.000000" fill-rule="evenodd"/>
		</g>
	</g>
</svg>
