<svg width="28.000000" height="28.000000" viewBox="0 0 28 28" fill="none" xmlns="http://www.w3.org/2000/svg" xmlns:xlink="http://www.w3.org/1999/xlink">
	<desc>
			Created with Pixso.
	</desc>
	<defs>
		<clipPath id="clip74_5161">
			<rect id="parking-fill.svg" width="28.000000" height="28.000000" fill="white" fill-opacity="0"/>
		</clipPath>
	</defs>
	<g clip-path="url(#clip74_5161)">
		<path id="path" d="M7 3.5L15.16 3.5C15.39 3.5 15.62 3.51 15.85 3.53C16.08 3.55 16.3 3.58 16.53 3.63C16.75 3.67 16.97 3.73 17.19 3.8C17.41 3.86 17.63 3.94 17.84 4.03C18.05 4.12 18.26 4.21 18.46 4.32C18.66 4.43 18.86 4.55 19.05 4.67C19.24 4.8 19.43 4.94 19.6 5.08C19.78 5.23 19.95 5.38 20.11 5.55C20.27 5.71 20.43 5.88 20.57 6.05C20.72 6.23 20.85 6.42 20.98 6.61C21.11 6.8 21.23 6.99 21.34 7.2C21.44 7.4 21.54 7.6 21.63 7.82C21.72 8.03 21.79 8.24 21.86 8.46C21.93 8.68 21.98 8.9 22.03 9.13C22.07 9.35 22.11 9.58 22.13 9.81C22.15 10.04 22.16 10.27 22.16 10.5C22.16 10.72 22.15 10.95 22.13 11.18C22.11 11.41 22.07 11.64 22.03 11.86C21.98 12.09 21.93 12.31 21.86 12.53C21.79 12.75 21.72 12.96 21.63 13.17C21.54 13.39 21.44 13.59 21.34 13.79C21.23 14 21.11 14.19 20.98 14.38C20.85 14.57 20.72 14.76 20.57 14.94C20.43 15.11 20.27 15.28 20.11 15.44C19.95 15.61 19.78 15.76 19.6 15.91C19.43 16.05 19.24 16.19 19.05 16.32C18.86 16.44 18.66 16.56 18.46 16.67C18.26 16.78 18.05 16.87 17.84 16.96C17.63 17.05 17.41 17.13 17.19 17.19C16.97 17.26 16.75 17.32 16.53 17.36C16.3 17.41 16.08 17.44 15.85 17.46C15.62 17.48 15.39 17.5 15.16 17.5L11.66 17.5L11.66 24.5L7 24.5L7 3.5ZM11.66 8.16L11.66 12.83L15.16 12.83C15.24 12.83 15.31 12.82 15.39 12.82C15.47 12.81 15.54 12.8 15.62 12.78C15.69 12.77 15.77 12.75 15.84 12.73C15.91 12.71 15.98 12.68 16.05 12.65C16.13 12.62 16.19 12.59 16.26 12.55C16.33 12.52 16.39 12.48 16.46 12.44C16.52 12.39 16.58 12.35 16.64 12.3C16.7 12.25 16.76 12.2 16.81 12.14C16.87 12.09 16.92 12.03 16.97 11.98C17.01 11.92 17.06 11.85 17.1 11.79C17.14 11.73 17.18 11.66 17.22 11.59C17.26 11.53 17.29 11.46 17.32 11.39C17.35 11.32 17.37 11.25 17.39 11.17C17.42 11.1 17.44 11.03 17.45 10.95C17.47 10.88 17.48 10.8 17.48 10.72C17.49 10.65 17.5 10.57 17.5 10.5C17.5 10.42 17.49 10.34 17.48 10.27C17.48 10.19 17.47 10.11 17.45 10.04C17.44 9.96 17.42 9.89 17.39 9.82C17.37 9.74 17.35 9.67 17.32 9.6C17.29 9.53 17.26 9.46 17.22 9.4C17.18 9.33 17.14 9.26 17.1 9.2C17.06 9.14 17.01 9.07 16.97 9.01C16.92 8.96 16.87 8.9 16.81 8.85C16.76 8.79 16.7 8.74 16.64 8.69C16.58 8.64 16.52 8.6 16.46 8.55C16.39 8.51 16.33 8.47 16.26 8.44C16.19 8.4 16.13 8.37 16.05 8.34C15.98 8.31 15.91 8.28 15.84 8.26C15.77 8.24 15.69 8.22 15.62 8.21C15.54 8.19 15.47 8.18 15.39 8.17C15.31 8.17 15.24 8.16 15.16 8.16L11.66 8.16Z" fill="#FFFFFF" fill-opacity="1.000000" fill-rule="nonzero"/>
	</g>
</svg>
