<svg width="64.000000" height="64.079384" viewBox="0 0 64 64.0794" fill="none" xmlns="http://www.w3.org/2000/svg"
     xmlns:xlink="http://www.w3.org/1999/xlink">
    <desc>
        Created with Pixso.
    </desc>
    <defs>
        <linearGradient x1="24.260769" y1="62.024853" x2="40.149399" y2="62.024853" id="paint_linear_74_5089_0"
                        gradientUnits="userSpaceOnUse">
            <stop stop-color="#4D4D4D"/>
            <stop offset="1.000000" stop-color="#000000"/>
        </linearGradient>
        <linearGradient x1="24.260769" y1="62.024853" x2="40.149399" y2="62.024853" id="paint_linear_74_5090_0"
                        gradientUnits="userSpaceOnUse">
            <stop stop-color="#000000"/>
            <stop offset="1.000000" stop-color="#000000"/>
        </linearGradient>
        <linearGradient x1="46.821400" y1="63.325348" x2="61.339508" y2="63.325348" id="paint_linear_74_5111_0"
                        gradientUnits="userSpaceOnUse">
            <stop stop-color="#4D4D4D"/>
            <stop offset="1.000000" stop-color="#000000"/>
        </linearGradient>
        <linearGradient x1="46.821400" y1="63.325348" x2="61.339508" y2="63.325348" id="paint_linear_74_5112_0"
                        gradientUnits="userSpaceOnUse">
            <stop stop-color="#000000"/>
            <stop offset="1.000000" stop-color="#000000"/>
        </linearGradient>
        <linearGradient x1="3.278329" y1="63.046898" x2="17.199093" y2="63.046898" id="paint_linear_74_5129_0"
                        gradientUnits="userSpaceOnUse">
            <stop stop-color="#4D4D4D"/>
            <stop offset="1.000000" stop-color="#000000"/>
        </linearGradient>
        <linearGradient x1="3.278329" y1="63.046898" x2="17.199093" y2="63.046898" id="paint_linear_74_5130_0"
                        gradientUnits="userSpaceOnUse">
            <stop stop-color="#000000"/>
            <stop offset="1.000000" stop-color="#000000"/>
        </linearGradient>
    </defs>
    <path id="path"
          d="M31.97 63.15C33.47 63.12 34.97 63.1 36.46 62.96C37.2 62.89 37.96 62.79 38.67 62.58C39.23 62.41 39.82 62.13 40.08 61.6C40.12 61.53 40.15 61.45 40.13 61.36C40.12 61.28 40.07 61.21 40.01 61.15C39.71 60.86 39.24 60.85 38.81 60.85C34.68 60.91 30.55 60.99 26.42 61.32C25.68 61.38 24.84 61.5 24.41 62.11C23.48 63.45 26.69 63.15 27.27 63.17C28.84 63.2 30.41 63.18 31.97 63.15Z"
          fill="url(#paint_linear_74_5089_0)" fill-opacity="1.000000" fill-rule="nonzero"/>
    <path id="path"
          d="M31.97 63.15C33.47 63.12 34.97 63.1 36.46 62.96C37.2 62.89 37.96 62.79 38.67 62.58C39.23 62.41 39.82 62.13 40.08 61.6C40.12 61.53 40.15 61.45 40.13 61.36C40.12 61.28 40.07 61.21 40.01 61.15C39.71 60.86 39.24 60.85 38.81 60.85C34.68 60.91 30.55 60.99 26.42 61.32C25.68 61.38 24.84 61.5 24.41 62.11C23.48 63.45 26.69 63.15 27.27 63.17C28.84 63.2 30.41 63.18 31.97 63.15Z"
          fill="url(#paint_linear_74_5090_0)" fill-opacity="1.000000" fill-rule="nonzero"/>
    <path id="path"
          d="M21.44 43.49C22.55 48.99 25.73 53.9 26.84 59.4C26.91 59.76 26.98 60.13 27.18 60.44C27.38 60.74 27.76 60.97 28.11 60.87C28.74 60.7 28.74 59.81 28.65 59.16C28.39 57.21 28.61 55.23 28.84 53.27C29.2 50.23 29.55 47.18 29.9 44.13C30.17 43.85 30.65 43.92 30.94 44.17C31.23 44.41 31.37 44.79 31.49 45.15C32.01 46.78 32.22 48.48 32.44 50.16C32.87 53.55 33.3 56.93 33.35 60.34C33.66 60.36 33.97 60.38 34.27 60.4C35.54 57.02 36.48 53.54 37.38 50.06C37.83 48.29 38.27 46.52 38.55 44.71C38.93 42.35 39.03 39.94 39.11 37.55C39.12 37.07 39.13 36.55 38.85 36.15C38.61 35.79 38.18 35.61 37.78 35.45C34.29 34.11 30.54 33.61 26.82 33.32C25.77 33.24 24.71 33.17 23.68 33.36C22.87 33.51 21.98 33.83 21.37 34.42C20.68 35.08 20.91 36.13 20.9 37.04C20.89 39.2 21.01 41.37 21.44 43.49Z"
          fill="#666666" fill-opacity="1.000000" fill-rule="nonzero"/>
    <path id="path"
          d="M19.23 31.29C18.89 32.34 18.62 33.57 19.25 34.47C19.56 34.9 20.01 35.17 20.48 35.41C23.09 36.73 26.07 37.03 28.97 37.32C31.59 37.57 34.22 37.83 36.84 37.69C38.1 37.62 39.41 37.44 40.39 36.65C41.32 35.9 41.8 34.7 41.93 33.52C42.06 32.33 41.89 31.13 41.7 29.95C41.51 28.66 41.31 27.36 40.97 26.1C40.38 23.9 39.35 21.82 37.98 20.01C36.93 18.65 35.67 17.41 34.11 16.68C32.64 15.99 30.41 15.67 28.88 16.42C27.36 17.16 25.95 19.29 24.93 20.61C22.44 23.81 20.5 27.44 19.23 31.29Z"
          fill="#FCEE9F" fill-opacity="1.000000" fill-rule="nonzero"/>
    <path id="path"
          d="M33.79 12.88C33.78 13.15 33.76 13.44 33.68 13.71C33.49 14.35 32.91 14.93 32.12 15.24C31.32 15.55 30.34 15.58 29.52 15.31C28.72 15.05 28.12 14.52 27.65 13.97C26.66 12.83 26.08 11.46 26.21 10.1C26.23 9.89 26.28 9.68 26.45 9.52C26.69 9.29 27.13 9.24 27.52 9.21C28.81 9.09 32.38 8.28 33.43 8.9C34.48 9.52 33.85 12.02 33.79 12.88Z"
          fill="#F2D6C9" fill-opacity="1.000000" fill-rule="nonzero"/>
    <path id="path"
          d="M23.39 8.97C23.58 9.77 24.59 10.38 25.68 10.52C26.77 10.66 27.89 10.4 28.84 9.98C29.85 9.53 30.8 8.88 31.98 8.84C32.2 8.83 32.42 8.85 32.61 8.92C32.82 9.01 32.97 9.16 33.09 9.31C33.76 10.14 33.86 11.16 33.95 12.13C34.31 11.28 34.59 10.43 34.8 9.55C35.02 8.6 35.08 7.49 34.14 6.83C33.43 6.32 32.33 6.23 31.34 6.32C29.95 6.45 28.61 6.87 27.53 7.53C27.1 7.79 26.71 8.09 26.24 8.32C25.78 8.55 25.21 8.7 24.66 8.63C24.06 8.55 23.93 8.17 23.51 7.97C23.34 8.26 23.31 8.65 23.39 8.97Z"
          fill="#D1B380" fill-opacity="1.000000" fill-rule="nonzero"/>
    <path id="path"
          d="M35.95 22.6C35.56 21.89 34.99 21.31 34.51 20.66C34.03 20.01 33.63 19.25 33.67 18.44C33.72 17.64 34.35 16.82 35.15 16.83C35.48 16.83 35.8 16.96 36.09 17.12C37.06 17.6 37.94 18.26 38.66 19.07C38.95 19.38 39.21 19.72 39.39 20.1C39.65 20.66 39.73 21.29 39.8 21.91C39.91 22.99 40 24.1 39.77 25.16C39.43 26.68 38.35 28.04 36.91 28.65C36.6 28.78 36.14 29.01 35.84 28.84C35.53 28.66 35.47 28.26 35.54 27.95C35.72 27.1 36.3 26.4 36.43 25.5C36.56 24.51 36.43 23.48 35.95 22.6Z"
          fill="#F2D6C9" fill-opacity="1.000000" fill-rule="nonzero"/>
    <path id="path"
          d="M34.27 28.54C34.21 28.58 34.15 28.63 34.1 28.69C33.99 28.84 33.98 29.03 33.98 29.22C33.98 29.52 34.01 29.87 34.27 30.02C34.38 30.09 34.52 30.1 34.66 30.11C34.8 30.11 34.94 30.12 35.08 30.13C35.23 30.14 35.39 30.14 35.52 30.06C35.65 29.97 35.71 29.82 35.76 29.67C35.88 29.31 36.01 28.96 36.14 28.6C36.16 28.53 36.18 28.46 36.15 28.41C36.14 28.37 36.1 28.34 36.07 28.32C35.77 28.09 35.63 27.98 35.25 28.06C34.93 28.13 34.5 28.31 34.27 28.54Z"
          fill="#F2D6C9" fill-opacity="1.000000" fill-rule="nonzero"/>
    <path id="path"
          d="M37.08 60.64C36.9 60.47 36.62 60.44 36.37 60.43C35.99 60.4 35.62 60.37 35.24 60.34C35.08 60.33 34.91 60.32 34.78 60.22C34.73 60.19 34.69 60.13 34.65 60.08C34.53 60.08 34.41 60.08 34.29 60.08C33.86 60.07 33.43 60.23 33.01 60.36C33.1 60.73 33.18 61.1 33.27 61.47C33.28 61.54 33.3 61.62 33.36 61.67C33.42 61.71 33.5 61.72 33.58 61.72C34.83 61.75 36.09 61.7 37.33 61.58C37.34 61.24 37.33 60.86 37.08 60.64Z"
          fill="#000000" fill-opacity="1.000000" fill-rule="nonzero"/>
    <path id="path"
          d="M28.45 60.31C28.47 60.8 28.49 61.33 28.26 61.77C28.1 62.08 27.82 62.32 27.56 62.55C27.42 62.67 27.28 62.79 27.14 62.92C27.11 62.95 27.06 62.99 27.02 63C26.96 63.02 26.91 63.02 26.85 63.01C26.62 63 26.38 63.02 26.14 63.01C25.91 62.99 25.66 62.92 25.49 62.75C25.33 62.57 25.28 62.28 25.42 62.09C25.52 61.97 25.67 61.92 25.81 61.85C26.22 61.66 26.57 61.35 26.81 60.97C26.96 60.73 27.11 60.48 27.38 60.38C27.49 60.34 28.45 60.23 28.45 60.31Z"
          fill="#000000" fill-opacity="1.000000" fill-rule="nonzero"/>
    <path id="path"
          d="M36.87 27.5C36.81 27.38 36.75 27.26 36.65 27.18C36.52 27.07 36.34 27.07 36.18 27.06C33.28 26.97 30.37 26.87 27.46 26.78C27.23 26.77 27.02 26.92 26.92 27.15C26.45 28.26 25.89 29.19 25.54 30.34C25.49 30.5 25.6 30.65 25.75 30.66C29.68 30.71 33.8 31.13 37.71 30.81C37.98 30.78 38.14 30.48 38.03 30.23C37.64 29.34 37.26 28.3 36.87 27.5Z"
          fill="#7F7F7F" fill-opacity="1.000000" fill-rule="nonzero"/>
    <path id="path"
          d="M36.79 27.25C36.73 27.13 36.68 27.01 36.57 26.92C36.44 26.82 36.27 26.81 36.11 26.81C33.26 26.71 30.41 26.61 27.56 26.52C27.33 26.51 27.12 26.66 27.03 26.89C26.56 28 26.02 28.93 25.67 30.08C25.62 30.24 25.73 30.4 25.89 30.4C29.73 30.46 33.78 30.88 37.62 30.55C37.88 30.53 38.04 30.23 37.93 29.97C37.55 29.08 37.17 28.04 36.79 27.25Z"
          fill="#666666" fill-opacity="1.000000" fill-rule="nonzero"/>
    <path id="path"
          d="M36.34 27.48C36.29 27.4 36.23 27.31 36.14 27.25C36.03 27.18 35.87 27.17 35.72 27.17C33.15 27.1 30.58 27.03 28.01 26.96C27.8 26.95 27.62 27.06 27.53 27.23C27.11 28.02 26.62 28.69 26.31 29.52C26.27 29.63 26.36 29.74 26.5 29.75C29.97 29.79 33.62 30.09 37.08 29.85C37.32 29.84 37.46 29.62 37.36 29.44C37.02 28.8 36.68 28.05 36.34 27.48Z"
          fill="#F0F0F0" fill-opacity="1.000000" fill-rule="nonzero"/>
    <path id="path"
          d="M32.95 27.71C32.94 27.73 32.94 27.76 32.95 27.79C33.05 28.39 33.16 29 33.39 29.56C34.08 29.56 34.76 29.56 35.45 29.57C35.67 29.57 35.89 29.57 36.1 29.53C35.87 28.93 35.63 28.33 35.41 27.74C34.62 27.76 33.83 27.74 33.05 27.69C33.01 27.69 32.98 27.69 32.95 27.71Z"
          fill="#E0C74E" fill-opacity="1.000000" fill-rule="nonzero"/>
    <path id="path"
          d="M32.09 27.65C30.82 27.72 29.57 27.7 28.3 27.65C28.2 27.64 28.2 27.8 28.3 27.81C29.56 27.9 30.83 27.88 32.09 27.82C32.2 27.82 32.2 27.64 32.09 27.65Z"
          fill="#CACACA" fill-opacity="1.000000" fill-rule="nonzero"/>
    <path id="path"
          d="M32.22 28.14C30.98 28.13 29.74 28.17 28.5 28.23C28.41 28.24 28.41 28.39 28.5 28.38C29.74 28.32 30.98 28.31 32.22 28.31C32.33 28.31 32.33 28.14 32.22 28.14Z"
          fill="#CACACA" fill-opacity="1.000000" fill-rule="nonzero"/>
    <path id="path"
          d="M32.22 28.75C30.92 28.69 29.61 28.68 28.3 28.68C28.21 28.68 28.21 28.84 28.3 28.84C29.61 28.86 30.92 28.9 32.22 28.93C32.33 28.93 32.33 28.75 32.22 28.75Z"
          fill="#CACACA" fill-opacity="1.000000" fill-rule="nonzero"/>
    <path id="path"
          d="M31.87 29.21C30.71 29.2 29.55 29.22 28.39 29.23C28.29 29.23 28.29 29.38 28.39 29.38C29.55 29.39 30.71 29.42 31.87 29.41C32 29.41 32 29.22 31.87 29.21Z"
          fill="#CACACA" fill-opacity="1.000000" fill-rule="nonzero"/>
    <path id="path"
          d="M27.07 28.57C27.29 28.59 27.51 28.61 27.72 28.57C27.9 28.54 28.07 28.46 28.22 28.36C28.45 28.2 28.62 27.94 28.63 27.65C28.64 27.37 28.47 27.08 28.19 27C28.07 26.96 27.94 26.98 27.81 27C27.24 27.1 26.71 27.43 26.14 27.47C25.92 27.49 25.68 27.47 25.53 27.62C25.45 27.7 25.41 27.82 25.38 27.94C25.36 28.06 25.36 28.2 25.42 28.31C25.54 28.53 25.89 28.46 26.1 28.47C26.42 28.51 26.75 28.54 27.07 28.57Z"
          fill="#F2D6C9" fill-opacity="1.000000" fill-rule="nonzero"/>
    <path id="path"
          d="M23.27 18.54C22.31 19.26 21.53 20.19 20.78 21.13C20.09 22.01 19.41 22.92 19.07 23.98C18.73 25.04 18.79 26.29 19.48 27.16C20.18 28.05 21.34 28.37 22.45 28.58C22.89 28.67 23.34 28.75 23.78 28.72C24.28 28.68 25.08 28.78 25.55 28.62C25.81 28.54 25.81 28.29 26 28.1C26.19 27.92 26.23 27.51 26.1 27.28C25.3 27.23 24.49 27.14 23.7 27.03C23.03 26.93 22.31 26.78 21.89 26.27C21.42 25.72 21.45 24.86 21.8 24.23C22.14 23.59 22.74 23.13 23.36 22.76C23.98 22.39 24.64 22.08 25.22 21.65C26.2 20.89 30.33 17.9 29.15 16.64C28.22 15.65 24.08 17.93 23.27 18.54Z"
          fill="#F2D6C9" fill-opacity="1.000000" fill-rule="nonzero"/>
    <path id="path"
          d="M39.94 20.57C39.98 20.27 39.78 19.99 39.59 19.76C39.18 19.25 38.77 18.73 38.35 18.22C38.15 17.97 37.96 17.72 37.71 17.52C37.23 17.11 36.6 16.92 35.99 16.74C35.3 16.54 34.49 16.36 33.91 16.79C33.51 17.08 33.33 17.6 33.33 18.09C33.33 18.59 33.49 19.06 33.66 19.53C33.92 20.22 34.21 20.93 34.58 21.57C34.88 22.11 35.23 22.07 35.75 21.83C37.11 21.22 38.46 20.75 39.94 20.57Z"
          fill="#FCEE9F" fill-opacity="1.000000" fill-rule="nonzero"/>
    <path id="path"
          d="M23.99 19.96C24.44 20.67 24.99 21.32 25.54 21.95C25.58 22.01 25.63 22.06 25.7 22.06C25.75 22.06 25.8 22.03 25.84 22C26.27 21.66 26.56 21.19 26.94 20.79C27.68 20 28.76 19.54 29.35 18.64C29.68 18.12 29.83 17.49 29.75 16.87C29.73 16.66 29.67 16.44 29.53 16.28C29.34 16.04 29.02 15.95 28.72 15.95C28.29 15.95 27.87 16.1 27.47 16.26C26.33 16.7 25.2 17.19 24.1 17.73C23.83 17.86 23.55 17.99 23.28 18.13C22.92 18.31 22.84 18.31 23.06 18.62C23.39 19.05 23.7 19.49 23.99 19.96Z"
          fill="#FCEE9F" fill-opacity="1.000000" fill-rule="nonzero"/>
    <path id="path"
          d="M58.33 64.07C59.34 64.07 60.36 64.06 61.31 63.76C61.39 63.53 61.25 63.27 61.05 63.14C60.85 63 60.61 62.96 60.37 62.93C59.57 62.83 58.76 62.8 57.94 62.77C54.79 62.68 51.63 62.59 48.47 62.56C48.07 62.56 46.42 62.67 46.89 63.47C47.2 64.01 48.67 63.82 49.18 63.85C51.12 63.94 53.07 64.01 55.02 64.04C56.12 64.06 57.23 64.07 58.33 64.07Z"
          fill="url(#paint_linear_74_5111_0)" fill-opacity="1.000000" fill-rule="nonzero"/>
    <path id="path"
          d="M58.33 64.07C59.34 64.07 60.36 64.06 61.31 63.76C61.39 63.53 61.25 63.27 61.05 63.14C60.85 63 60.61 62.96 60.37 62.93C59.57 62.83 58.76 62.8 57.94 62.77C54.79 62.68 51.63 62.59 48.47 62.56C48.07 62.56 46.42 62.67 46.89 63.47C47.2 64.01 48.67 63.82 49.18 63.85C51.12 63.94 53.07 64.01 55.02 64.04C56.12 64.06 57.23 64.07 58.33 64.07Z"
          fill="url(#paint_linear_74_5112_0)" fill-opacity="1.000000" fill-rule="nonzero"/>
    <path id="path"
          d="M60.91 32.07C60.91 32.07 61.08 29.27 56.02 29.47C55.92 29.47 55.83 29.47 55.73 29.48C55.7 29.5 55.67 29.51 55.63 29.54C55.56 29.72 55.49 29.91 55.45 30.11C55.43 30.16 55.42 30.24 55.41 30.32C55.41 30.26 55.44 30.2 55.45 30.11C55.43 30.23 55.39 30.33 55.37 30.45C55.22 31.57 55.25 32.7 55.15 33.82C55.07 34.77 54.88 35.73 54.67 36.67C54.87 36.66 55.09 36.67 55.22 36.72C55.47 36.81 55.59 60.01 55.15 61.45L57.17 61.47C57.17 61.48 61.07 37.65 60.91 32.07Z"
          fill="#97A8B2" fill-opacity="1.000000" fill-rule="nonzero"/>
    <path id="path"
          d="M55.38 19.04C54.79 18.96 54.16 19.27 53.88 19.79C53.69 20.12 53.65 20.52 53.6 20.9C53.43 22.25 53.22 23.6 52.96 24.94C52.79 25.85 52.77 27.66 51.49 27.75C51.01 27.79 50.51 27.42 50.04 27.35C49.26 27.22 48.53 27.18 47.78 26.91C47.18 26.69 46.78 26.36 46.32 25.93C46.05 25.66 45.67 25.13 45.31 25.03C45.05 24.96 44.72 25.26 44.88 25.48C44.56 25.28 44.09 25.59 44.08 25.97C44.04 26.7 45.47 27.11 45.98 27.42C46.76 27.92 47.53 28.43 48.38 28.8C49.72 29.37 51.17 29.7 52.63 29.72C52.88 29.73 53.15 29.72 53.37 29.59C53.84 29.3 54.09 28.63 54.45 28.21C54.78 27.82 54.96 27.57 55.11 27.06C55.52 25.68 55.88 24.27 56.16 22.85C56.41 21.66 57.29 19.33 55.38 19.04Z"
          fill="#EADDD0" fill-opacity="1.000000" fill-rule="nonzero"/>
    <path id="path"
          d="M49.48 40.4C49.51 41.29 49.57 42.19 49.63 43.08C49.72 44.42 49.81 45.75 49.89 47.09C49.91 47.52 49.96 47.98 50.22 48.32C50.24 48.35 50.27 48.38 50.32 48.4C50.46 48.45 50.57 48.27 50.61 48.13C51.17 46.45 52 44.86 53.05 43.44C53.32 43.08 53.62 42.72 54.01 42.49C54.3 42.33 54.63 42.24 54.97 42.15C55.62 41.99 56.29 41.82 56.94 41.65C57.33 41.55 57.73 41.45 58.03 41.19C58.27 40.99 58.43 40.71 58.58 40.43C59.35 39.04 60.13 37.62 60.52 36.08C60.81 34.95 60.88 33.78 60.86 32.62C60.86 32.5 60.85 32.38 60.81 32.28C60.75 32.13 60.63 32.02 60.5 31.93C60 31.6 59.37 31.56 58.78 31.53C56.52 31.43 54.21 31.39 52 31.91C51.32 32.08 50.16 32.24 49.83 32.97C49.42 33.86 49.54 35.24 49.5 36.2C49.43 37.59 49.42 39 49.48 40.4Z"
          fill="#97A8B2" fill-opacity="1.000000" fill-rule="nonzero"/>
    <path id="path"
          d="M54.09 38.85C52.83 38.67 51.56 38.51 50.3 38.34C50.24 38.17 50.55 38.34 50.53 38.51C49.87 43.8 50.12 49.18 50.65 54.5C50.88 56.8 50.9 59.1 50.66 61.39C51.18 61.45 52.07 61.52 52.59 61.58C53.55 54.45 54.13 47.3 55.09 40.16C55.13 39.8 55.17 39.39 54.89 39.12C54.69 38.93 54.38 38.88 54.09 38.85Z"
          fill="#97A8B2" fill-opacity="1.000000" fill-rule="nonzero"/>
    <path id="path"
          d="M52.45 15.49C53.21 15.46 53.98 14.95 54.79 14.78C54.58 14.13 54.83 13.42 54.9 12.73C54.99 11.79 54.73 10.86 54.46 9.97C54.24 9.25 54 8.5 53.48 7.95C53.38 7.84 53.26 7.73 53.12 7.69C52.99 7.66 52.86 7.68 52.74 7.7C51.84 7.84 49.37 7.94 49.13 8.94C48.81 10.32 49.75 12.14 50.29 13.36C50.54 13.93 50.79 14.52 51.23 14.96C51.63 15.38 52.04 15.51 52.45 15.49Z"
          fill="#EADDD0" fill-opacity="1.000000" fill-rule="nonzero"/>
    <path id="path"
          d="M61.09 35.16C61.11 35.13 61.18 35.06 61.2 35.03C61.46 34.62 61.69 34.19 61.93 33.77C62.37 28.83 61.81 23.83 60.26 18.98C59.77 17.45 59.29 15.77 57.48 14.72C57.38 14.67 57.28 14.62 57.17 14.6C57.02 14.57 56.86 14.61 56.71 14.65C55.73 14.9 54.75 15.15 53.77 15.41C53.58 15.46 53.38 15.51 53.18 15.55C52.97 15.6 52.76 15.64 52.55 15.67C52.18 15.73 50.75 16.07 50.7 16.42C50.57 17.3 50.46 18.18 50.36 19.07C50.11 21.26 49.92 23.44 49.93 25.64C49.93 27.83 49.73 30.01 49.37 32.18C49.35 32.35 49.22 33.23 49.06 34.13C49.18 34.37 49.35 34.65 49.5 34.88C49.51 34.9 49.54 34.93 49.57 34.98C49.73 35.17 49.96 35.39 50.15 35.57C50.17 35.58 50.19 35.6 50.22 35.63C49.96 35.38 50.24 35.64 50.32 35.69C50.52 35.83 50.73 35.95 50.94 36.06C50.99 36.09 51.21 36.18 51.23 36.19C51.25 36.2 51.28 36.21 51.3 36.22C54.38 36.09 57.45 35.87 60.5 35.57C60.69 35.41 60.89 35.26 61.09 35.16Z"
          fill="#E8E8E8" fill-opacity="1.000000" fill-rule="nonzero"/>
    <path id="path"
          d="M50.79 61.19C50.76 61.19 50.73 61.19 50.7 61.2C50.66 61.21 50.63 61.23 50.6 61.25C50.49 61.36 50.41 61.48 50.36 61.61C50.32 61.73 50.31 61.86 50.22 61.97C50.12 62.09 49.94 62.16 49.76 62.22C49.29 62.37 48.79 62.48 48.29 62.52C48.17 62.53 48.06 62.54 47.95 62.57C47.66 62.67 47.59 62.93 47.55 63.15C47.54 63.22 47.54 63.3 47.62 63.33C47.66 63.35 47.71 63.35 47.76 63.35C49.22 63.35 49.84 63.35 51.3 63.35C51.65 63.35 52.02 63.34 52.37 63.27C52.41 63.26 52.46 63.26 52.5 63.23C52.53 63.21 52.55 63.17 52.56 63.13C52.76 62.63 52.78 62.08 52.74 61.57C52.72 61.4 52.69 61.27 52.44 61.24C52.07 61.18 52.48 61.23 52.1 61.22C51.67 61.21 51.23 61.2 50.79 61.19Z"
          fill="#97A8B2" fill-opacity="1.000000" fill-rule="nonzero"/>
    <path id="path"
          d="M57.09 10.33C57.1 9.88 56.84 9.47 56.62 9.08C56.25 8.43 55.96 7.72 55.51 7.12C55.07 6.52 54.4 6.02 53.65 6C53.34 5.99 53.03 6.06 52.73 6.13C51.44 6.45 50.13 6.76 48.96 7.38C48.81 7.46 48.66 7.54 48.56 7.68C48.48 7.8 48.46 7.96 48.43 8.1C48.39 8.31 48.36 8.51 48.32 8.72C48.3 8.85 48.27 8.98 48.3 9.11C48.38 9.5 48.84 9.67 49.24 9.7C49.63 9.72 50.02 9.66 50.42 9.61C50.79 9.55 51.68 9.24 51.98 9.58C52.13 9.75 52.08 10.03 52.19 10.23C52.31 10.47 52.55 10.62 52.7 10.84C52.87 11.04 52.98 11.33 52.86 11.56C53.08 11.43 53.35 11.38 53.6 11.45C53.69 11.47 53.78 11.5 53.84 11.57C53.95 11.71 53.9 11.92 53.78 12.04C53.66 12.17 53.49 12.22 53.32 12.28C54.03 12.96 54.29 14.07 53.96 15.01C54.5 14.95 54.96 14.58 55.33 14.18C55.67 13.82 55.98 13.43 56.2 12.98C56.3 12.77 56.37 12.56 56.45 12.34C56.6 11.92 56.76 11.48 56.91 11.05C57.01 10.81 57.09 10.57 57.09 10.33Z"
          fill="#333333" fill-opacity="1.000000" fill-rule="nonzero"/>
    <path id="path"
          d="M55.32 61.24C55.29 61.24 55.26 61.24 55.23 61.24C55.19 61.25 55.16 61.28 55.13 61.3C55.02 61.41 54.94 61.53 54.89 61.66C54.85 61.78 54.84 61.91 54.75 62.02C54.65 62.14 54.47 62.21 54.29 62.27C53.83 62.42 53.32 62.52 52.82 62.57C52.7 62.58 52.59 62.59 52.49 62.62C52.19 62.72 52.12 62.98 52.08 63.2C52.07 63.26 52.07 63.34 52.15 63.38C52.19 63.4 52.24 63.4 52.29 63.4C53.75 63.4 54.37 63.4 55.83 63.4C56.18 63.4 56.55 63.38 56.9 63.32C56.94 63.31 56.99 63.31 57.03 63.28C57.06 63.25 57.08 63.22 57.09 63.18C57.29 62.68 57.31 62.13 57.27 61.61C57.25 61.45 57.22 61.32 56.97 61.28C56.6 61.23 57.01 61.27 56.64 61.26C56.2 61.26 55.76 61.25 55.32 61.24Z"
          fill="#97A8B2" fill-opacity="1.000000" fill-rule="nonzero"/>
    <path id="path"
          d="M45.17 26.4C45.02 26.7 44.85 27 44.66 27.28C44.63 27.32 44.6 27.36 44.56 27.37C44.51 27.39 44.46 27.36 44.41 27.34C43.91 27.09 43.41 26.84 42.9 26.59C43.02 25.4 42.95 23.96 43.3 22.83C43.35 22.66 45.83 23.1 45.99 23.55C46.16 24 45.7 25.08 45.55 25.52C45.44 25.82 45.32 26.11 45.17 26.4Z"
          fill="#C7B299" fill-opacity="1.000000" fill-rule="nonzero"/>
    <path id="path"
          d="M43.14 22.95C43.21 22.97 43.28 22.97 43.36 22.98C43.51 22.99 43.66 23.03 43.81 23.06C44.56 23.23 45.29 23.48 46 23.75C46.05 23.77 46.09 23.79 46.15 23.78C46.22 23.77 46.28 23.7 46.3 23.63C46.32 23.55 46.31 23.47 46.3 23.39C46.29 23.38 46.27 23.33 46.25 23.33C46.21 23.31 46.18 23.3 46.14 23.29C45.97 23.22 45.8 23.17 45.63 23.12C44.88 22.92 44.13 22.72 43.38 22.54C43.35 22.53 43.3 22.53 43.27 22.55C43.21 22.59 43.18 22.7 43.16 22.76C43.14 22.81 43.05 22.94 43.14 22.95Z"
          fill="#534741" fill-opacity="1.000000" fill-rule="nonzero"/>
    <path id="path" d="M43.1 25.08L45.33 26.06L45.78 24.87L43.1 23.78L43.1 25.08Z" fill="#5B8C87"
          fill-opacity="1.000000" fill-rule="nonzero"/>
    <path id="path"
          d="M51.47 11.69C51.46 11.64 51.41 11.6 51.35 11.6C50.79 11.66 50.24 11.79 49.71 11.92C49.52 11.97 49.6 12.25 49.79 12.19C50.27 12.07 50.77 11.97 51.25 11.86C51.31 12.11 51.36 12.37 51.4 12.63C51.41 12.75 51.42 12.86 51.42 12.98C51.42 13.19 51.11 13.2 50.97 13.23C50.81 13.26 50.64 13.27 50.47 13.27C50.23 13.29 50.21 13.18 50.12 13.01C49.98 12.77 49.87 12.51 49.77 12.25C49.74 12.17 49.61 12.2 49.63 12.29C49.74 12.66 49.88 13.04 50.09 13.38C50.24 13.63 50.8 13.48 51.03 13.45C51.29 13.41 51.61 13.35 51.65 13.06C51.7 12.62 51.59 12.13 51.47 11.69Z"
          fill="#333333" fill-opacity="1.000000" fill-rule="nonzero"/>
    <path id="path"
          d="M52.81 11.2C52.33 11.38 51.87 11.66 51.41 11.89C51.32 11.93 51.39 12.08 51.48 12.05C51.96 11.88 52.49 11.75 52.95 11.53C53.14 11.45 53 11.13 52.81 11.2Z"
          fill="#333333" fill-opacity="1.000000" fill-rule="nonzero"/>
    <path id="path"
          d="M56.96 19.08C56.77 18.36 55.99 16.85 55.16 17.94C54.91 18.26 54.85 18.7 54.81 19.12C54.4 22.45 54 25.77 53.6 29.1C53.39 30.83 53.16 32.62 52.26 34.12C52.12 34.36 51.95 34.59 51.89 34.87C51.81 35.14 51.85 35.46 52.07 35.64C51.78 36 52.02 36.8 52.55 36.76C52.67 36.75 52.77 36.7 52.87 36.63C53.4 36.26 53.27 35.57 53.39 35C53.56 34.21 53.8 33.45 54.04 32.69C54.96 29.76 56.11 26.9 56.72 23.91C57.05 22.31 57.37 20.65 56.96 19.08Z"
          fill="#EADDD0" fill-opacity="1.000000" fill-rule="nonzero"/>
    <path id="path"
          d="M54.87 17.28C54.66 17.33 54.45 17.38 54.29 17.52C54.09 17.71 54.02 17.99 53.97 18.26C53.34 21.27 52.87 24.31 52.54 27.37C53.58 27.63 54.61 27.89 55.64 28.16C56.96 25.29 57.55 22.1 57.34 18.96C57.3 18.4 57.21 17.78 56.78 17.42C56.25 17.01 55.51 17.14 54.87 17.28Z"
          fill="#6087A2" fill-opacity="1.000000" fill-rule="nonzero"/>
    <path id="path"
          d="M12.15 63.63C13.2 63.6 14.25 63.56 15.29 63.48C15.8 63.45 16.32 63.4 16.78 63.18C17.03 63.06 17.28 62.79 17.17 62.54C17.07 62.33 16.79 62.3 16.56 62.3C12.78 62.29 8.99 62.29 5.22 62.54C4.54 62.59 3.76 62.69 3.37 63.25C2.89 63.95 4.32 63.76 4.62 63.76C5.45 63.77 6.28 63.77 7.1 63.76C8.79 63.74 10.47 63.69 12.15 63.63Z"
          fill="url(#paint_linear_74_5129_0)" fill-opacity="1.000000" fill-rule="nonzero"/>
    <path id="path"
          d="M12.15 63.63C13.2 63.6 14.25 63.56 15.29 63.48C15.8 63.45 16.32 63.4 16.78 63.18C17.03 63.06 17.28 62.79 17.17 62.54C17.07 62.33 16.79 62.3 16.56 62.3C12.78 62.29 8.99 62.29 5.22 62.54C4.54 62.59 3.76 62.69 3.37 63.25C2.89 63.95 4.32 63.76 4.62 63.76C5.45 63.77 6.28 63.77 7.1 63.76C8.79 63.74 10.47 63.69 12.15 63.63Z"
          fill="url(#paint_linear_74_5130_0)" fill-opacity="1.000000" fill-rule="nonzero"/>
    <path id="path"
          d="M19.81 25.97C19.91 26.06 20 26.14 20.13 26.18C20.3 26.23 20.48 26.17 20.65 26.11C20.77 26.08 20.87 26.03 20.99 26C21.03 25.98 21.08 25.97 21.1 25.93C21.13 25.88 21.12 25.84 21.12 25.78C21.01 24.73 20.81 23.68 20.52 22.66C20.06 22.88 19.6 23.09 19.13 23.31C18.88 23.42 18.04 23.65 18.03 23.96C18.01 24.26 18.61 24.77 18.8 24.97C19.12 25.32 19.45 25.66 19.81 25.97Z"
          fill="#FFFFFF" fill-opacity="1.000000" fill-rule="nonzero"/>
    <path id="path"
          d="M20.02 22.47C20.16 22.41 20.3 22.36 20.45 22.38C20.6 22.4 20.74 22.53 20.72 22.67C20.71 22.78 20.16 23.03 20.06 23.09C19.82 23.23 19.57 23.36 19.32 23.48C19.07 23.61 18.82 23.73 18.56 23.83C18.42 23.9 18.11 24.09 17.94 24.03C17.33 23.82 18.4 23.23 18.58 23.13C19.04 22.88 19.53 22.67 20.02 22.47Z"
          fill="#333333" fill-opacity="1.000000" fill-rule="nonzero"/>
    <path id="path"
          d="M14.64 61.83C14.41 61.84 14.19 61.86 13.97 61.8C13.75 61.74 13.54 61.59 13.47 61.38C13.41 61.2 13.44 60.95 13.28 60.85C13.25 60.82 13.21 60.81 13.16 60.81C13.14 56.98 13.23 54.77 13.21 50.86C13.4 49.56 13.28 48.35 13.25 47.09C13.16 43.12 13.07 39.14 12.98 35.16C12.97 34.64 12.94 34.09 12.68 33.6C12.26 32.8 11.32 32.35 10.44 32.01C7.83 30.98 4.86 29.52 4.14 32.81C3.95 33.68 3.79 34.56 3.66 35.45C3.57 36.08 3.5 36.74 3.73 37.37C4.12 38.43 4.84 41.05 5.76 41.83C8.15 43.84 9.2 46.12 9.98 48.8C9.74 49.69 10.03 50.95 10.13 51.64C10.65 54.95 11.7 58.03 12.22 61.34C12 61.74 11.9 62.22 11.96 62.68C11.98 62.77 12 62.87 12.06 62.94C12.15 63.03 12.29 63.06 12.42 63.07C12.79 63.09 13.16 63.1 13.53 63.1C13.82 63.09 14.13 63.07 14.35 62.88C14.63 62.64 14.65 62.21 14.64 61.83Z"
          fill="#998675" fill-opacity="1.000000" fill-rule="nonzero"/>
    <path id="path"
          d="M11.52 39.21C10.79 37.58 8.1 36.49 5.56 38.35C4.04 39.45 5.19 40.69 5.53 41.78C5.93 43.12 6.2 44.49 6.33 45.89C6.57 48.58 6.3 51.37 5.49 54.16C4.96 56.02 4.95 58.06 4.58 59.92C4.38 60.95 3.73 62.33 3.88 63.37C4.46 63.37 5.03 63.38 5.6 63.38C6.1 63.39 6.64 63.38 7.06 63.11C7.49 62.83 7.69 62.17 7.34 61.81C6.99 61.93 6.62 62.04 6.26 61.96C4.68 61.58 6.75 58 7.05 57.21C8.34 53.85 9.62 50.48 10.56 47.12C11.25 44.66 12.53 41.43 11.52 39.21Z"
          fill="#998675" fill-opacity="1.000000" fill-rule="nonzero"/>
    <path id="path"
          d="M12.01 21.27C12.63 22.81 13.26 24.35 13.88 25.89C14.06 26.31 14.23 26.76 14.14 27.21C14 27.99 13.14 28.42 12.36 28.6C10.82 26.41 9.2 24.27 7.51 22.2C6.54 21.03 5.04 18.31 7.26 17.49C9.77 16.57 11.26 19.43 12.01 21.27Z"
          fill="#ACB18F" fill-opacity="1.000000" fill-rule="nonzero"/>
    <path id="path"
          d="M17.64 18.93C17.85 18.63 18.14 18.76 18.39 19.02C17.68 21.61 17.04 24.23 16.48 26.86C16.31 27.67 16.09 28.57 15.4 29.04C15.11 29.24 14.75 29.34 14.4 29.39C13.77 29.5 13.01 29.45 12.66 28.91C12.15 28.15 12.78 27.41 13.28 26.88C13.87 26.25 14.12 25.85 14.48 25.01C15.32 23.05 16.46 20.71 17.64 18.93Z"
          fill="#ACB18F" fill-opacity="1.000000" fill-rule="nonzero"/>
    <path id="path"
          d="M18.84 18.81C18.89 18.74 18.92 18.65 18.96 18.56C19.05 18.33 19.14 18.1 19.23 17.88C19.27 17.77 19.31 17.67 19.32 17.56C19.32 17.45 19.29 17.33 19.21 17.26C19.13 17.19 19.02 17.17 18.91 17.19C18.81 17.21 18.73 17.27 18.64 17.33C18.46 17.48 18.31 17.66 18.21 17.87C18.12 18.03 18.07 18.22 17.94 18.35C17.88 18.41 17.81 18.45 17.76 18.52C17.68 18.62 17.67 18.76 17.72 18.88C17.89 19.26 18.64 19.07 18.84 18.81Z"
          fill="#F2D6C9" fill-opacity="1.000000" fill-rule="nonzero"/>
    <path id="path"
          d="M14.76 39.75C14.5 34.16 13.92 28.58 13.17 23.03C12.89 20.99 12.56 18.57 10.43 17.62C8.46 16.73 6.03 16.51 4.75 18.49C4.03 19.61 3.87 20.96 3.72 22.26C2.81 30.25 1.9 38.24 1 46.23C1.99 46.29 13.91 48.06 13.96 47.31C14.04 47.31 14.11 47.26 14.18 47.23C14.45 47.11 14.52 46.79 14.57 46.52C14.92 44.28 14.87 42.01 14.76 39.75Z"
          fill="#EBEFEB" fill-opacity="1.000000" fill-rule="nonzero"/>
    <path id="path"
          d="M18.43 25.1C18.46 25.04 18.48 24.98 18.52 24.93C18.6 24.82 18.73 24.78 18.87 24.76C19 24.74 19.13 24.75 19.26 24.73C19.67 24.66 20 24.26 20.41 24.32C20.54 24.34 20.65 24.4 20.76 24.48C20.89 24.58 21.02 24.71 21.05 24.87C21.1 25.13 20.92 25.37 20.76 25.57C20.66 25.68 20.56 25.79 20.44 25.86C20.33 25.92 20.21 25.94 20.09 25.97C19.81 26.03 19.52 26.14 19.29 26.34C19.1 26.5 18.95 26.72 18.71 26.78C18.28 26.89 17.88 26.42 17.84 26.03C17.78 25.63 18.29 25.43 18.43 25.1Z"
          fill="#F2D6C9" fill-opacity="1.000000" fill-rule="nonzero"/>
    <path id="path"
          d="M18.72 26.47C18.53 26.1 18.35 25.72 18.16 25.35C17.57 25.44 17.13 25.91 16.71 26.33C16.12 26.91 15.49 27.45 14.82 27.93C14.43 28.21 13.97 28.48 13.49 28.41C12.91 28.32 12.53 27.75 12.23 27.24C11.1 25.31 9.98 23.38 8.85 21.45C7.96 19.92 6.96 20.48 6.32 21.85C5.74 23.1 6.49 24.5 7.06 25.63C7.8 27.09 8.62 28.51 9.52 29.88C10.05 30.69 10.68 31.53 11.62 31.75C12.06 31.85 12.54 31.79 12.99 31.66C14.42 31.25 15.56 30.18 16.62 29.13C17.3 28.44 17.98 27.74 18.64 27.04C18.71 26.96 18.79 26.88 18.81 26.77C18.82 26.67 18.77 26.57 18.72 26.47Z"
          fill="#ACB18F" fill-opacity="1.000000" fill-rule="nonzero"/>
    <path id="path"
          d="M12.33 9.93C12.1 9.23 11.73 8.36 10.97 8.18C10.16 7.99 9 8.53 8.4 9.05C7.67 9.69 7.21 10.6 6.95 11.54C6.67 12.56 6.63 13.7 7.08 14.66C7.54 15.63 8.59 16.35 9.64 16.19C10.34 16.09 10.94 15.62 11.4 15.08C12.58 13.68 12.91 11.65 12.33 9.93Z"
          fill="#F2D6C9" fill-opacity="1.000000" fill-rule="nonzero"/>
    <path id="path"
          d="M8.82 12.55C8.58 12.14 7.87 12.16 7.66 12.59C7.51 12.9 8.07 14.17 8.15 14.57C8.37 15.61 7.26 22.7 7.54 23.73C5.87 23.77 4.18 23.58 2.59 23.07C2.42 23.02 2.25 22.96 2.14 22.83C1.99 22.65 1.99 22.4 2 22.18C2.12 18.81 5.22 7.36 9.38 7.46C9.89 7.47 10.4 7.58 10.9 7.7C11.23 7.78 11.56 7.87 11.85 8.04C12.46 8.39 12.84 9.05 12.99 9.74C13.14 10.42 13.1 11.13 13.06 11.83C13.05 12.04 10.56 11.82 10.32 11.79C10.05 11.74 9.54 11.53 9.27 11.64C8.96 11.78 8.92 12.27 8.82 12.55Z"
          fill="#534741" fill-opacity="1.000000" fill-rule="nonzero"/>
    <g opacity="0.190000">
        <path id="path"
              d="M5.18 34.57C4.46 34.43 3.8 34.08 3.16 33.73C3.26 33.42 3.37 33.1 3.47 32.79C6.41 33.85 9.75 33.76 12.63 32.53C12.67 33.03 12.72 33.53 12.76 34.02C11.98 34.19 11.18 34.25 10.39 34.32C9.31 34.41 8.23 34.5 7.14 34.59C6.49 34.65 5.82 34.7 5.18 34.57Z"
              fill="#FFFFFF" fill-opacity="1.000000" fill-rule="nonzero"/>
    </g>
</svg>
