<svg width="32.000000" height="32.000000" viewBox="0 0 32 32" fill="none" xmlns="http://www.w3.org/2000/svg" xmlns:xlink="http://www.w3.org/1999/xlink">
	<desc>
			Created with Pixso.
	</desc>
	<defs>
		<clipPath id="clip74_5157">
			<rect id="讲解.svg" width="32.000000" height="32.000000" fill="white" fill-opacity="0"/>
		</clipPath>
	</defs>
	<g clip-path="url(#clip74_5157)">
		<path id="path" d="M12.05 22.52C12.13 22.52 12.21 22.51 12.29 22.5C12.37 22.48 12.45 22.46 12.53 22.42C12.61 22.39 12.68 22.35 12.75 22.31C12.82 22.26 12.88 22.21 12.94 22.15C13 22.09 13.05 22.03 13.1 21.96C13.15 21.89 13.18 21.81 13.22 21.74C13.25 21.66 13.27 21.58 13.29 21.5C13.31 21.42 13.31 21.34 13.31 21.25C13.31 21.17 13.31 21.09 13.29 21.01C13.27 20.92 13.25 20.84 13.22 20.77C13.18 20.69 13.15 20.62 13.1 20.55C13.05 20.48 13 20.42 12.94 20.36C12.88 20.3 12.82 20.25 12.75 20.2C12.68 20.15 12.61 20.11 12.53 20.08C12.45 20.05 12.37 20.03 12.29 20.01C12.21 19.99 12.13 19.99 12.05 19.99C11.96 19.99 11.88 19.99 11.8 20.01C11.72 20.03 11.64 20.05 11.56 20.08C11.48 20.12 11.41 20.15 11.34 20.2C11.27 20.25 11.21 20.3 11.15 20.36C11.09 20.42 11.04 20.48 10.99 20.55C10.95 20.62 10.91 20.69 10.88 20.77C10.84 20.85 10.82 20.92 10.8 21.01C10.79 21.09 10.78 21.17 10.78 21.25C10.78 21.34 10.79 21.42 10.8 21.5C10.82 21.58 10.84 21.66 10.88 21.74C10.91 21.81 10.95 21.89 10.99 21.96C11.04 22.03 11.09 22.09 11.15 22.15C11.21 22.21 11.27 22.26 11.34 22.31C11.41 22.35 11.48 22.39 11.56 22.42C11.64 22.45 11.72 22.48 11.8 22.5C11.88 22.51 11.96 22.52 12.05 22.52ZM21.27 21.25C21.27 21.34 21.26 21.42 21.25 21.5C21.23 21.58 21.21 21.66 21.18 21.74C21.14 21.81 21.1 21.89 21.06 21.96C21.01 22.03 20.96 22.09 20.9 22.15C20.84 22.21 20.78 22.26 20.71 22.31C20.64 22.35 20.57 22.39 20.49 22.42C20.41 22.46 20.33 22.48 20.25 22.5C20.17 22.51 20.09 22.52 20.01 22.52C19.92 22.52 19.84 22.51 19.76 22.5C19.68 22.48 19.6 22.46 19.52 22.42C19.44 22.39 19.37 22.35 19.3 22.31C19.23 22.26 19.17 22.21 19.11 22.15C19.05 22.09 19 22.03 18.95 21.96C18.91 21.89 18.87 21.81 18.83 21.74C18.8 21.66 18.78 21.58 18.76 21.5C18.75 21.42 18.74 21.34 18.74 21.25C18.74 21.17 18.75 21.09 18.76 21.01C18.78 20.92 18.8 20.85 18.83 20.77C18.87 20.69 18.91 20.62 18.95 20.55C19 20.48 19.05 20.42 19.11 20.36C19.17 20.3 19.23 20.25 19.3 20.2C19.37 20.15 19.44 20.11 19.52 20.08C19.6 20.05 19.68 20.03 19.76 20.01C19.84 19.99 19.92 19.99 20.01 19.99C20.09 19.99 20.17 19.99 20.25 20.01C20.33 20.03 20.41 20.05 20.49 20.08C20.57 20.11 20.64 20.15 20.71 20.2C20.78 20.25 20.84 20.3 20.9 20.36C20.96 20.42 21.01 20.48 21.06 20.55C21.1 20.62 21.14 20.69 21.18 20.77C21.21 20.85 21.23 20.92 21.25 21.01C21.26 21.09 21.27 21.17 21.27 21.25Z" fill="#FFFFFF" fill-opacity="1.000000" fill-rule="nonzero"/>
		<path id="path" d="M19.88 6.61L19.88 6.6C19.88 4.32 17.91 2.48 15.49 2.48C13.06 2.48 11.09 4.32 11.09 6.6C11.09 6.79 11.11 6.99 11.13 7.17C8.26 8.93 6.19 12.2 5.72 16.05C4.84 16.19 4.16 17.09 4.16 18.19C4.16 19.33 4.9 20.27 5.84 20.34C6.93 25.54 10.99 29.51 15.97 29.51C20.96 29.51 25.01 25.54 26.1 20.34C27.06 20.3 27.83 19.35 27.83 18.19C27.83 17.13 27.2 16.25 26.36 16.07C25.85 11.75 23.31 8.16 19.88 6.61ZM24.9 18C24.9 18.19 24.9 18.39 24.91 18.58C24.84 19.36 24.7 20.12 24.5 20.85C23.68 22.25 21.55 24.09 16.75 24.46C16.71 24.39 16.66 24.33 16.6 24.28C16.54 24.22 16.48 24.18 16.41 24.14C16.34 24.1 16.27 24.06 16.2 24.04C16.12 24.01 16.05 24 15.97 23.99C15.89 23.98 15.81 23.98 15.73 23.99C15.65 24 15.58 24.02 15.5 24.04C15.43 24.07 15.35 24.1 15.29 24.14C15.22 24.19 15.16 24.23 15.1 24.29C15.04 24.34 14.99 24.4 14.95 24.47C14.91 24.54 14.87 24.61 14.84 24.68C14.81 24.76 14.79 24.83 14.78 24.91C14.77 24.99 14.77 25.07 14.77 25.15C14.78 25.22 14.79 25.3 14.82 25.38C14.84 25.45 14.87 25.53 14.91 25.6C14.95 25.67 14.99 25.73 15.04 25.79C15.1 25.85 15.16 25.9 15.22 25.95C15.28 25.99 15.35 26.03 15.43 26.06C15.5 26.1 15.57 26.12 15.65 26.13C15.73 26.15 15.81 26.16 15.89 26.15C15.97 26.15 16.04 26.14 16.12 26.12C16.2 26.1 16.27 26.07 16.34 26.04C16.41 26 16.48 25.96 16.54 25.91C16.6 25.86 16.66 25.8 16.71 25.74C16.76 25.68 16.8 25.61 16.83 25.54C19.79 25.31 21.89 24.54 23.33 23.57C21.68 26.31 18.97 28.06 15.97 28.06C11.59 28.06 7.82 24.32 7.11 19.24C9.35 19.03 12.58 17.82 14.37 14.02C15.65 15.77 19.42 18.78 24.9 18Z" fill="#FFFFFF" fill-opacity="1.000000" fill-rule="nonzero"/>
	</g>
</svg>
