<svg width="27.820312" height="24.000000" viewBox="0 0 27.8203 24" fill="none" xmlns="http://www.w3.org/2000/svg" xmlns:xlink="http://www.w3.org/1999/xlink">
	<desc>
			Created with Pixso.
	</desc>
	<defs>
		<clipPath id="clip74_5168">
			<rect id="博物馆 (1).svg" width="27.820312" height="24.000000" fill="white" fill-opacity="0"/>
		</clipPath>
	</defs>
	<g clip-path="url(#clip74_5168)">
		<path id="path" d="M5.3 7.73L6.43 7.73C6.47 7.73 6.51 7.73 6.55 7.74C6.58 7.74 6.62 7.76 6.65 7.77C6.69 7.78 6.72 7.8 6.75 7.82C6.79 7.84 6.82 7.86 6.84 7.89C6.87 7.91 6.9 7.94 6.92 7.97C6.94 8 6.96 8.03 6.98 8.07C6.99 8.1 7 8.14 7.01 8.17C7.02 8.21 7.03 8.25 7.03 8.28L7.34 18.67C7.34 18.71 7.34 18.75 7.33 18.79C7.33 18.83 7.31 18.86 7.3 18.9C7.28 18.94 7.27 18.97 7.24 19C7.22 19.04 7.2 19.07 7.17 19.09C7.14 19.12 7.11 19.15 7.08 19.17C7.05 19.19 7.01 19.21 6.97 19.22C6.94 19.24 6.9 19.25 6.86 19.26C6.82 19.27 6.78 19.27 6.75 19.27L5.03 19.27C4.99 19.27 4.95 19.27 4.92 19.26C4.88 19.25 4.84 19.24 4.8 19.22C4.77 19.21 4.73 19.19 4.7 19.17C4.67 19.15 4.64 19.12 4.61 19.09C4.58 19.07 4.56 19.04 4.53 19C4.51 18.97 4.49 18.94 4.48 18.9C4.46 18.86 4.45 18.83 4.44 18.79C4.44 18.75 4.43 18.71 4.43 18.67L4.73 8.29C4.73 8.25 4.73 8.22 4.74 8.18C4.75 8.15 4.76 8.11 4.78 8.08C4.79 8.04 4.81 8.01 4.83 7.98C4.86 7.95 4.88 7.92 4.91 7.9C4.93 7.87 4.96 7.85 4.99 7.83C5.02 7.81 5.05 7.79 5.09 7.78C5.12 7.76 5.16 7.75 5.19 7.74C5.23 7.73 5.27 7.73 5.3 7.73ZM3.44 19.83L24.1 19.83C24.14 19.83 24.18 19.84 24.22 19.84C24.26 19.85 24.3 19.86 24.33 19.88C24.37 19.89 24.4 19.91 24.44 19.93C24.47 19.96 24.5 19.98 24.53 20.01C24.55 20.04 24.58 20.07 24.6 20.1C24.62 20.13 24.64 20.17 24.66 20.2C24.67 20.24 24.68 20.28 24.69 20.31C24.7 20.35 24.7 20.39 24.7 20.43C24.7 20.47 24.71 20.51 24.71 20.55C24.72 20.59 24.73 20.62 24.75 20.66C24.76 20.7 24.78 20.73 24.8 20.76C24.82 20.8 24.85 20.83 24.88 20.85C24.91 20.88 24.94 20.91 24.97 20.93C25 20.95 25.04 20.97 25.07 20.98C25.11 21 25.15 21.01 25.18 21.02C25.22 21.03 25.26 21.03 25.3 21.03L25.9 21.03C25.94 21.03 25.98 21.04 26.01 21.05C26.05 21.06 26.08 21.07 26.12 21.08C26.15 21.1 26.19 21.12 26.22 21.14C26.25 21.16 26.28 21.19 26.3 21.22C26.33 21.24 26.35 21.27 26.37 21.31C26.39 21.34 26.41 21.37 26.43 21.41C26.44 21.44 26.45 21.48 26.46 21.52C26.47 21.55 26.47 21.59 26.47 21.63L26.47 22.23C26.47 22.27 26.48 22.3 26.49 22.34C26.49 22.38 26.51 22.41 26.52 22.45C26.54 22.48 26.56 22.52 26.58 22.55C26.6 22.58 26.63 22.61 26.65 22.63C26.68 22.66 26.71 22.68 26.74 22.7C26.78 22.72 26.81 22.74 26.85 22.75C26.88 22.77 26.92 22.78 26.95 22.79C26.99 22.79 27.03 22.8 27.07 22.8C27.11 22.8 27.15 22.8 27.18 22.81C27.22 22.82 27.26 22.83 27.3 22.84C27.33 22.86 27.37 22.88 27.4 22.9C27.43 22.92 27.46 22.94 27.49 22.97C27.52 23 27.54 23.03 27.57 23.06C27.59 23.1 27.61 23.13 27.62 23.17C27.64 23.2 27.65 23.24 27.66 23.28C27.66 23.32 27.67 23.36 27.67 23.4C27.67 23.44 27.66 23.47 27.66 23.51C27.65 23.55 27.64 23.59 27.62 23.63C27.61 23.66 27.59 23.7 27.57 23.73C27.54 23.76 27.52 23.79 27.49 23.82C27.46 23.85 27.43 23.87 27.4 23.89C27.37 23.92 27.33 23.93 27.3 23.95C27.26 23.96 27.22 23.98 27.18 23.98C27.15 23.99 27.11 24 27.07 24L0.59 24C0.55 24 0.52 23.99 0.48 23.98C0.44 23.98 0.4 23.96 0.36 23.95C0.33 23.93 0.29 23.92 0.26 23.89C0.23 23.87 0.2 23.85 0.17 23.82C0.14 23.79 0.12 23.76 0.1 23.73C0.07 23.7 0.06 23.66 0.04 23.63C0.03 23.59 0.01 23.55 0.01 23.51C0 23.47 0 23.44 0 23.4C0 23.36 0 23.32 0.01 23.28C0.01 23.24 0.03 23.2 0.04 23.17C0.06 23.13 0.07 23.1 0.1 23.06C0.12 23.03 0.14 23 0.17 22.97C0.2 22.94 0.23 22.92 0.26 22.9C0.29 22.88 0.33 22.86 0.36 22.84C0.4 22.83 0.44 22.82 0.48 22.81C0.52 22.8 0.55 22.8 0.59 22.8C0.63 22.8 0.67 22.79 0.71 22.79C0.74 22.78 0.78 22.77 0.82 22.75C0.85 22.74 0.89 22.72 0.92 22.7C0.95 22.68 0.98 22.66 1.01 22.63C1.04 22.61 1.06 22.58 1.08 22.55C1.1 22.52 1.12 22.48 1.14 22.45C1.15 22.41 1.17 22.38 1.18 22.34C1.19 22.3 1.19 22.27 1.19 22.23L1.19 21.56C1.19 21.52 1.2 21.48 1.2 21.44C1.21 21.4 1.22 21.36 1.24 21.33C1.25 21.29 1.27 21.26 1.29 21.22C1.32 21.19 1.34 21.16 1.37 21.13C1.4 21.11 1.43 21.08 1.46 21.06C1.49 21.04 1.53 21.02 1.56 21C1.6 20.99 1.64 20.98 1.68 20.97C1.71 20.96 1.75 20.96 1.79 20.96L2.39 20.96C2.43 20.96 2.47 20.95 2.51 20.95C2.55 20.94 2.58 20.93 2.62 20.91C2.66 20.9 2.69 20.88 2.72 20.86C2.76 20.84 2.79 20.81 2.81 20.78C2.84 20.76 2.87 20.72 2.89 20.69C2.91 20.66 2.93 20.62 2.94 20.59C2.96 20.55 2.97 20.51 2.98 20.48C2.99 20.44 2.99 20.4 2.99 20.36C3 20.3 3.01 20.24 3.03 20.18C3.06 20.12 3.09 20.07 3.13 20.02C3.17 19.98 3.22 19.94 3.27 19.9C3.32 19.87 3.38 19.85 3.44 19.83ZM25.82 5.95L14.87 0.26C14.7 0.18 14.52 0.11 14.33 0.07C14.15 0.02 13.96 0 13.77 0C13.58 0 13.39 0.02 13.21 0.07C13.02 0.11 12.84 0.18 12.67 0.26L1.71 5.95L1.71 6.63L25.82 6.63L25.82 5.95ZM4.59 7.18L22.95 7.18C22.99 7.18 23.03 7.19 23.07 7.19C23.11 7.2 23.15 7.21 23.18 7.23C23.22 7.24 23.25 7.26 23.29 7.28C23.32 7.31 23.35 7.33 23.38 7.36C23.4 7.39 23.43 7.42 23.45 7.45C23.47 7.48 23.49 7.52 23.51 7.55C23.52 7.59 23.53 7.63 23.54 7.66C23.55 7.7 23.55 7.74 23.55 7.78C23.55 7.82 23.55 7.86 23.54 7.9C23.53 7.94 23.52 7.97 23.51 8.01C23.49 8.05 23.47 8.08 23.45 8.11C23.43 8.15 23.4 8.18 23.38 8.2C23.35 8.23 23.32 8.26 23.29 8.28C23.25 8.3 23.22 8.32 23.18 8.33C23.15 8.35 23.11 8.36 23.07 8.37C23.03 8.38 22.99 8.38 22.95 8.38L4.59 8.38C4.55 8.38 4.51 8.38 4.47 8.37C4.43 8.36 4.4 8.35 4.36 8.33C4.32 8.32 4.29 8.3 4.26 8.28C4.22 8.26 4.19 8.23 4.17 8.2C4.14 8.18 4.11 8.15 4.09 8.11C4.07 8.08 4.05 8.05 4.04 8.01C4.02 7.97 4.01 7.94 4 7.9C3.99 7.86 3.99 7.82 3.99 7.78C3.99 7.74 3.99 7.7 4 7.66C4.01 7.63 4.02 7.59 4.04 7.55C4.05 7.52 4.07 7.48 4.09 7.45C4.11 7.42 4.14 7.39 4.17 7.36C4.19 7.33 4.22 7.31 4.26 7.28C4.29 7.26 4.32 7.24 4.36 7.23C4.4 7.21 4.43 7.2 4.47 7.19C4.51 7.19 4.55 7.18 4.59 7.18ZM20.51 7.7L22.2 7.7C22.24 7.7 22.27 7.71 22.31 7.71C22.35 7.72 22.38 7.73 22.42 7.74C22.45 7.76 22.49 7.78 22.52 7.8C22.55 7.82 22.58 7.84 22.61 7.86C22.64 7.89 22.66 7.92 22.68 7.95C22.7 7.98 22.72 8.01 22.74 8.04C22.76 8.08 22.77 8.11 22.78 8.15C22.79 8.19 22.79 8.22 22.8 8.26L23.11 18.65C23.11 18.69 23.1 18.72 23.1 18.76C23.09 18.8 23.08 18.84 23.06 18.88C23.05 18.91 23.03 18.95 23.01 18.98C22.99 19.01 22.96 19.04 22.93 19.07C22.91 19.1 22.87 19.12 22.84 19.14C22.81 19.17 22.78 19.18 22.74 19.2C22.7 19.21 22.66 19.23 22.63 19.23C22.59 19.24 22.55 19.25 22.51 19.25L20.8 19.25C20.76 19.25 20.72 19.24 20.68 19.23C20.64 19.23 20.6 19.21 20.57 19.2C20.53 19.18 20.5 19.17 20.46 19.14C20.43 19.12 20.4 19.1 20.37 19.07C20.35 19.04 20.32 19.01 20.3 18.98C20.28 18.95 20.26 18.91 20.24 18.88C20.23 18.84 20.22 18.8 20.21 18.76C20.2 18.72 20.2 18.69 20.2 18.65L20.49 7.7L20.51 7.7ZM15.81 7.7L16.95 7.7C16.98 7.7 17.02 7.71 17.06 7.71C17.09 7.72 17.13 7.73 17.17 7.74C17.2 7.76 17.23 7.78 17.27 7.8C17.3 7.82 17.33 7.84 17.35 7.86C17.38 7.89 17.41 7.92 17.43 7.95C17.45 7.98 17.47 8.01 17.49 8.04C17.5 8.08 17.52 8.11 17.53 8.15C17.54 8.19 17.54 8.22 17.54 8.26L17.85 18.65C17.85 18.69 17.85 18.72 17.84 18.76C17.83 18.8 17.82 18.84 17.8 18.88C17.79 18.91 17.77 18.95 17.75 18.98C17.73 19.01 17.7 19.04 17.67 19.07C17.65 19.1 17.62 19.12 17.58 19.14C17.55 19.17 17.52 19.18 17.48 19.2C17.44 19.21 17.41 19.23 17.37 19.23C17.33 19.24 17.29 19.25 17.25 19.25L15.57 19.25C15.53 19.25 15.49 19.24 15.45 19.23C15.41 19.23 15.37 19.21 15.34 19.2C15.3 19.18 15.27 19.17 15.23 19.14C15.2 19.12 15.17 19.1 15.14 19.07C15.12 19.04 15.09 19.01 15.07 18.98C15.05 18.95 15.03 18.91 15.01 18.88C15 18.84 14.99 18.8 14.98 18.76C14.97 18.72 14.97 18.69 14.97 18.65L15.24 8.27C15.24 8.23 15.25 8.2 15.26 8.16C15.27 8.13 15.28 8.09 15.3 8.06C15.31 8.03 15.33 8 15.35 7.97C15.37 7.94 15.4 7.91 15.42 7.89C15.45 7.86 15.48 7.84 15.51 7.82C15.54 7.8 15.57 7.79 15.6 7.77C15.64 7.76 15.67 7.75 15.71 7.74C15.74 7.73 15.78 7.73 15.81 7.73L15.81 7.7ZM10.56 7.7L11.69 7.7C11.73 7.71 11.76 7.71 11.8 7.72C11.84 7.73 11.87 7.74 11.9 7.75C11.94 7.77 11.97 7.78 12 7.81C12.03 7.83 12.06 7.85 12.08 7.87C12.11 7.9 12.13 7.93 12.15 7.96C12.17 7.99 12.19 8.02 12.21 8.05C12.22 8.08 12.24 8.12 12.24 8.15C12.25 8.19 12.26 8.22 12.26 8.26L12.57 18.67C12.57 18.71 12.57 18.75 12.56 18.79C12.55 18.83 12.54 18.86 12.53 18.9C12.51 18.94 12.49 18.97 12.47 19C12.45 19.04 12.43 19.07 12.4 19.09C12.37 19.12 12.34 19.15 12.31 19.17C12.27 19.19 12.24 19.21 12.2 19.22C12.17 19.24 12.13 19.25 12.09 19.26C12.05 19.27 12.01 19.27 11.97 19.27L10.29 19.27C10.25 19.27 10.21 19.27 10.17 19.26C10.13 19.25 10.09 19.24 10.06 19.22C10.02 19.21 9.98 19.19 9.95 19.17C9.92 19.15 9.89 19.12 9.86 19.09C9.83 19.07 9.81 19.04 9.79 19C9.77 18.97 9.75 18.94 9.73 18.9C9.72 18.86 9.71 18.83 9.7 18.79C9.69 18.75 9.69 18.71 9.69 18.67L9.96 8.29C9.96 8.25 9.97 8.22 9.98 8.18C9.99 8.14 10 8.11 10.02 8.07C10.03 8.04 10.05 8.01 10.07 7.97C10.1 7.94 10.12 7.92 10.15 7.89C10.18 7.86 10.21 7.84 10.24 7.82C10.27 7.8 10.3 7.78 10.34 7.77C10.37 7.76 10.41 7.74 10.45 7.74C10.49 7.73 10.52 7.73 10.56 7.73L10.56 7.7Z" fill="#FFFFFF" fill-opacity="1.000000" fill-rule="nonzero"/>
	</g>
</svg>
