<svg width="64.000000" height="64.079842" viewBox="0 0 64 64.0798" fill="none" xmlns="http://www.w3.org/2000/svg"
     xmlns:xlink="http://www.w3.org/1999/xlink">
    <desc>
        Created with Pixso.
    </desc>
    <defs>
        <linearGradient x1="10.830286" y1="62.801392" x2="62.051926" y2="62.801392" id="paint_linear_74_5011_0"
                        gradientUnits="userSpaceOnUse">
            <stop stop-color="#4D4D4D"/>
            <stop offset="1.000000" stop-color="#000000"/>
        </linearGradient>
        <linearGradient x1="10.830286" y1="62.801392" x2="62.051926" y2="62.801392" id="paint_linear_74_5012_0"
                        gradientUnits="userSpaceOnUse">
            <stop stop-color="#000000"/>
            <stop offset="1.000000" stop-color="#000000"/>
        </linearGradient>
    </defs>
    <path id="path"
          d="M14.41 61.97C13.15 62.05 11.73 62.2 11.06 62.82C10.9 62.97 10.8 63.14 10.83 63.31C10.94 63.82 12.07 63.97 12.96 63.99C25.33 64.27 37.72 63.79 50.1 63.88C53.77 63.91 57.58 63.98 60.96 63.15C61.57 63.01 62.27 62.66 61.97 62.32C61.77 62.09 61.25 62.05 60.8 62.04C54.5 61.85 48.2 61.71 41.89 61.62C38.7 61.58 35.51 61.55 32.33 61.52C29.79 61.5 27.41 61.75 24.86 61.72C21.37 61.68 17.88 61.77 14.41 61.97Z"
          fill="url(#paint_linear_74_5011_0)" fill-opacity="1.000000" fill-rule="nonzero"/>
    <path id="path"
          d="M14.41 61.97C13.15 62.05 11.73 62.2 11.06 62.82C10.9 62.97 10.8 63.14 10.83 63.31C10.94 63.82 12.07 63.97 12.96 63.99C25.33 64.27 37.72 63.79 50.1 63.88C53.77 63.91 57.58 63.98 60.96 63.15C61.57 63.01 62.27 62.66 61.97 62.32C61.77 62.09 61.25 62.05 60.8 62.04C54.5 61.85 48.2 61.71 41.89 61.62C38.7 61.58 35.51 61.55 32.33 61.52C29.79 61.5 27.41 61.75 24.86 61.72C21.37 61.68 17.88 61.77 14.41 61.97Z"
          fill="url(#paint_linear_74_5012_0)" fill-opacity="1.000000" fill-rule="nonzero"/>
    <path id="path"
          d="M26.34 58.6C25.68 58.83 24.99 58.6 24.41 58.07C26.26 52.76 25.6 47.07 27.78 41.83C27.98 41.37 28.2 40.9 28.59 40.51C29.36 39.77 31.56 39.45 31.26 40.76C30.96 42.12 30.21 43.5 29.77 44.84C28.81 47.73 27.99 50.65 27.32 53.59C26.95 55.25 26.62 56.93 26.34 58.6Z"
          fill="#E2CBB7" fill-opacity="1.000000" fill-rule="nonzero"/>
    <path id="path"
          d="M35.25 59.12C34.74 59.19 34.22 59.2 33.7 59.16C33.65 53.32 33.28 47.48 32.59 41.66C32.53 41.15 32.47 40.62 32.65 40.12C33.04 39.06 34.93 38.59 35.65 39.7C36.28 40.66 35.86 42.4 35.88 43.42C35.91 46.77 35.84 50.11 35.66 53.44C35.56 55.34 35.43 57.23 35.25 59.12Z"
          fill="#E2CBB7" fill-opacity="1.000000" fill-rule="nonzero"/>
    <path id="path"
          d="M30.39 15.24C29.93 14.62 29.25 14.18 28.83 13.53C28.46 12.98 28.31 12.27 28.53 11.64C28.75 11.02 29.4 10.54 30.06 10.63L29.34 10.59C28.66 10.78 27.9 11.03 27.62 11.69C27.42 12.17 27.55 12.71 27.65 13.22C27.81 13.94 27.89 14.71 27.7 15.42C27.56 15.97 27.26 16.47 27.07 17C26.88 17.54 26.81 18.17 27.11 18.65C27.37 19.06 27.86 19.28 28.35 19.31C28.83 19.33 29.31 19.17 29.74 18.97C30.13 18.79 30.5 18.56 30.74 18.21C30.98 17.84 31.05 17.38 31.02 16.94C30.97 16.32 30.75 15.73 30.39 15.24Z"
          fill="#534741" fill-opacity="1.000000" fill-rule="nonzero"/>
    <path id="path"
          d="M41.31 5.06C42.83 10.62 42.26 10.58 41.23 13.78C41.03 14.39 40.56 15.41 40.25 15.97C39.73 16.92 38.91 17.66 38.11 18.4C37.94 18.55 37.76 18.7 37.55 18.78C37.36 18.85 37.16 18.85 36.96 18.82C36.35 18.72 35.84 18.26 35.63 17.7C35.37 17.02 35.77 16.75 36.28 16.37C37.3 15.62 37.78 14.92 38.6 13.92C39.07 13.37 39.35 12.68 39.6 12C40.25 10.28 40.55 10.28 40.53 7.71C40.52 7.26 40.23 5.86 40.03 5.46C39.78 4.99 39.61 4.59 39.44 4.21C39.31 4.07 39.25 3.77 39.21 3.65C39.12 3.41 38.96 3.19 38.77 3.01C38.67 2.91 38.54 2.82 38.51 2.68C38.51 2.63 38.51 2.59 38.49 2.54C38.48 2.49 38.45 2.44 38.42 2.4C38.36 2.32 38.28 2.24 38.2 2.17C38.14 2.12 38.08 2.07 38.05 2C37.99 1.86 37.97 1.48 38.07 1.35C38.14 1.27 38.59 0.97 38.75 1C38.87 1.02 38.99 0.97 39.1 1.01C39.24 1.06 39.38 1.12 39.5 1.2C39.63 1.3 39.75 1.41 39.85 1.53C40.22 1.91 40.25 2.7 40.55 3.14L41.31 5.06Z"
          fill="#E2CBB7" fill-opacity="1.000000" fill-rule="nonzero"/>
    <path id="path"
          d="M33.13 16.11C34.11 16.02 35.22 15.78 35.98 16.37C36.54 16.81 36.7 17.54 36.79 18.21C37.57 23.65 36.99 29.17 37.33 34.64C37.43 36.34 37.63 38.02 37.9 39.7C37.99 40.21 38.09 40.73 38.35 41.19C38.5 41.45 38.7 41.69 38.81 41.97C39.12 42.79 38.5 43.72 37.67 44.11C36.84 44.5 35.87 44.48 34.95 44.46C32.06 44.37 29.17 44.3 26.28 44.21C25.55 44.19 24.75 44.14 24.23 43.65C23.72 43.16 23.67 42.4 23.7 41.71C23.85 38.24 25.13 34.92 25.98 31.55C26.81 28.21 27.23 24.79 28.05 21.44C28.42 19.9 28.78 18.05 29.6 16.66C30.36 15.4 31.84 16.21 33.13 16.11Z"
          fill="#D9924E" fill-opacity="1.000000" fill-rule="nonzero"/>
    <path id="path"
          d="M23.35 20.21C22.81 20.64 22.12 21.08 21.49 20.81C21.05 20.63 20.82 20.16 20.62 19.73C19.7 17.73 18.74 15.76 17.77 13.78C17.37 14.01 16.92 14.29 16.87 14.75C16.85 14.99 16.95 15.23 17.05 15.46C18.2 18.05 19.45 20.59 20.8 23.09C20.93 23.32 21.08 23.58 21.31 23.7C21.6 23.86 21.95 23.8 22.27 23.72C24.14 23.27 25.89 22.41 27.56 21.46C28 21.2 28.47 20.92 28.67 20.45C28.84 20.07 28.8 19.64 28.76 19.24C28.65 18.15 28.09 16.39 26.75 17.41C25.58 18.28 24.49 19.3 23.35 20.21Z"
          fill="#E2CBB7" fill-opacity="1.000000" fill-rule="nonzero"/>
    <path id="path"
          d="M17.49 12.62C17.36 12.52 17.18 12.52 17.02 12.47C16.64 12.32 16.46 11.84 16.1 11.63C15.78 11.43 15.33 11.49 15.07 11.77C14.82 12.03 14.75 12.43 14.7 12.8C14.68 12.94 14.66 13.07 14.69 13.2C14.73 13.34 14.83 13.46 14.93 13.56C15.41 14.07 15.97 14.49 16.6 14.8C16.72 14.86 16.85 14.92 16.99 14.93C17.53 14.97 17.85 14.43 17.85 13.99C17.86 13.73 17.72 12.79 17.49 12.62Z"
          fill="#E2CBB7" fill-opacity="1.000000" fill-rule="nonzero"/>
    <path id="path"
          d="M35.74 9.55C35.63 9.12 35.5 8.69 35.32 8.3C34.66 6.9 32.68 5.07 31.04 6.06C30.66 6.29 30.37 6.64 30.09 6.99C29.81 7.35 29.55 7.72 29.34 8.13C28.94 8.9 28.75 9.82 28.85 10.69C28.96 11.49 29.35 12.28 29.73 12.99C30.21 13.94 30.86 14.89 31.86 15.25C33.19 15.74 34.73 14.92 35.42 13.68C36.09 12.45 36.06 10.93 35.74 9.55Z"
          fill="#E2CBB7" fill-opacity="1.000000" fill-rule="nonzero"/>
    <path id="path"
          d="M31.5 7.48C31.16 8.06 30.67 8.53 30.17 8.97C29.78 9.31 29.36 9.67 29.21 10.16C29.08 10.57 29.16 11.01 29.06 11.42C28.76 11.47 28.53 11.17 28.37 10.91C28.14 10.51 27.9 10.1 27.81 9.64C27.74 9.3 27.77 8.95 27.79 8.62C27.84 7.97 27.92 7.3 28.21 6.73C28.52 6.13 29.07 5.65 29.72 5.43C30.25 5.24 31.26 5.15 31.73 5.57C32.25 6.04 31.79 7.01 31.5 7.48Z"
          fill="#534741" fill-opacity="1.000000" fill-rule="nonzero"/>
    <path id="path"
          d="M41.62 15.9C41.36 15.46 40.98 15.09 40.67 14.67C39.81 13.55 39.43 12.13 38.83 10.85C38.58 10.31 38.25 9.77 37.73 9.48C37.43 9.32 36.85 9.26 36.49 9.45C36.49 9.33 36.51 9.2 36.51 9.08C36.53 7.82 36.18 6.5 35.29 5.61C34.4 4.72 32.91 4.38 31.84 5.05C31.12 5.5 30.75 6.73 31.75 7.12C32.08 7.25 32.5 7.19 32.85 7.29C33.38 7.44 33.89 7.69 34.31 8.04C35.01 8.61 35.49 9.51 35.4 10.41C35.49 10.27 35.56 10.12 35.61 9.96C35.88 10.14 35.75 10.55 35.66 10.86C35.49 11.49 35.62 12.15 35.76 12.78C35.98 12.04 36.19 11.29 36.34 10.54C36.59 10.94 37.01 11.33 37.19 11.59C38.25 13.06 38.49 14.98 38.38 16.79C38.35 17.32 38.29 17.88 38.51 18.37C38.79 19.03 39.57 19.41 40.28 19.31C40.99 19.21 41.6 18.66 41.84 17.98C42.08 17.3 41.98 16.53 41.62 15.9Z"
          fill="#534741" fill-opacity="1.000000" fill-rule="nonzero"/>
    <path id="path"
          d="M35.44 58.05C35.55 58.06 35.66 58.08 35.75 58.14C35.86 58.23 35.91 58.37 35.93 58.51C36.05 59.09 35.95 59.73 36.22 60.26C36.36 60.54 36.59 60.76 36.87 60.88C37.17 61.01 37.5 61.03 37.79 61.16C38.08 61.29 38.34 61.61 38.25 61.91C38.13 62.27 37.64 62.33 37.26 62.31C36.58 62.28 35.88 62.25 35.2 62.22C34.71 62.2 34.17 62.16 33.82 61.82C33.53 61.53 33.45 61.1 33.4 60.7C33.32 60.1 33.04 58.73 33.42 58.2C33.76 57.71 34.95 57.99 35.44 58.05Z"
          fill="#ACB18F" fill-opacity="1.000000" fill-rule="nonzero"/>
    <path id="path"
          d="M25.96 57.4C26.1 57.44 26.26 57.5 26.35 57.62C26.45 57.75 26.45 57.93 26.45 58.11C26.45 58.79 26.45 59.47 26.43 60.14C26.43 60.44 26.42 60.75 26.31 61.03C26.08 61.62 25.39 61.99 24.76 61.86C24.45 61.8 24.16 61.64 23.89 61.47C23.78 61.41 23.67 61.34 23.59 61.24C23.49 61.11 23.47 60.93 23.47 60.77C23.47 60.29 23.61 59.84 23.75 59.38C23.96 58.7 24.1 57.92 24.39 57.27C24.65 56.69 25.5 57.24 25.96 57.4Z"
          fill="#ACB18F" fill-opacity="1.000000" fill-rule="nonzero"/>
    <path id="path"
          d="M35.12 6.52C34.89 6.32 34.65 6.59 34.51 6.76C34.27 7.07 34.02 7.4 33.84 7.74C33.77 7.85 33.88 7.97 33.99 7.97C34.03 8.01 34.07 8.05 34.12 8.08C34.19 8.11 34.27 8.12 34.33 8.08C34.47 7.99 34.59 7.83 34.71 7.71C34.86 7.55 35.01 7.39 35.16 7.23C35.41 6.99 35.41 6.76 35.12 6.52Z"
          fill="#DD7A8F" fill-opacity="1.000000" fill-rule="nonzero"/>
    <path id="path"
          d="M36.1 7.55C36.03 7.4 35.87 7.29 35.7 7.36C35.5 7.46 35.32 7.7 35.16 7.86C34.99 8.05 34.83 8.25 34.69 8.46C34.64 8.55 34.71 8.65 34.8 8.68C34.8 8.75 34.85 8.82 34.94 8.87C35.14 8.98 35.32 8.8 35.45 8.67C35.63 8.51 35.8 8.32 35.95 8.12C36.08 7.96 36.19 7.76 36.1 7.55Z"
          fill="#DD7A8F" fill-opacity="1.000000" fill-rule="nonzero"/>
    <path id="path"
          d="M44.29 28.65C44.52 28.79 44.78 28.92 45.04 28.87C45.42 28.79 45.62 28.39 45.76 28.03C46.27 26.72 46.77 25.4 47.28 24.09C47.74 22.9 48.21 21.65 48.15 20.36C48.13 19.76 47.8 19.03 47.21 19.08C46.86 19.1 46.61 19.41 46.41 19.69C45.64 20.81 45.59 21.97 45.27 23.3C45.14 23.84 44.85 25.13 44.55 25.59C44.24 26.05 43.69 25.67 43.18 25.47C42.75 25.29 41.99 24.49 41.69 24.14C41.04 23.37 40.88 23.23 40.39 22.83C40.07 22.57 40.02 22.6 39.61 22.59C37.44 22.53 40.16 25.29 40.62 25.75C41.7 26.87 42.94 27.85 44.29 28.65Z"
          fill="#B79A7D" fill-opacity="1.000000" fill-rule="nonzero"/>
    <path id="path"
          d="M53.84 30.96C51.26 31.04 48.56 30.39 46.03 31.1C46.02 40.85 46.56 51.66 47.4 61.34C48.21 61.34 49.02 61.34 49.82 61.34C50.48 56.08 50.29 51.1 50.45 45.82C50.74 48.28 51.31 49.69 51.89 52.74C52.17 54.15 52.49 55.54 52.72 56.97C52.84 57.69 52.97 58.42 53.11 59.14C53.23 59.76 53.45 60.41 53.43 61.06C54.22 61.19 55.03 60.85 55.8 60.66C55.8 59.36 55.8 58.05 55.8 56.74C55.8 55.03 55.72 53.38 55.57 51.69C55.43 50.1 55.21 48.47 55.21 46.87C55.12 45.81 55.04 44.75 54.98 43.69C54.84 41.3 55.51 37.98 55.41 35.58C55.36 34.39 54.6 34.13 54.48 32.94C54.42 32.37 54.36 31.79 54.27 31.23C54.24 31.02 54.25 30.72 54.07 30.7C54.04 30.68 53.95 30.95 53.84 30.96Z"
          fill="#B79A7D" fill-opacity="1.000000" fill-rule="nonzero"/>
    <path id="path"
          d="M50.19 16.45C50.66 16.08 51.06 15.52 51.33 14.79C51.82 13.43 52.16 11.99 51.97 10.56C51.74 8.91 50.51 6.99 48.69 6.85C46.54 6.7 45.92 9.33 45.55 11.1C45.25 12.51 45.34 14.05 46.08 15.27C47.19 17.1 48.93 17.42 50.19 16.45Z"
          fill="#B79A7D" fill-opacity="1.000000" fill-rule="nonzero"/>
    <path id="path"
          d="M47.43 8.53C47.53 8.74 47.78 8.86 48.01 8.79C48.23 8.74 48.39 8.5 48.36 8.27C48.62 8.8 49.45 8.91 49.83 8.47C49.66 8.42 49.73 8.73 49.88 8.81C50.2 8.95 50.58 8.96 50.9 8.81C50.66 8.95 50.81 9.3 50.99 9.51C51.12 9.67 51.25 9.84 51.38 10C51.14 10.37 51.57 10.93 51.99 10.81C51.7 10.95 51.62 11.39 51.83 11.63C51.63 11.85 51.49 12.13 51.44 12.43C51.62 12.45 51.69 12.74 51.53 12.83C51.67 12.93 51.86 12.95 52.02 12.88C51.93 12.9 51.96 13.07 52.06 13.08C52.16 13.1 52.24 13.01 52.29 12.92C52.43 12.68 52.48 12.38 52.4 12.11C52.7 11.97 52.77 11.59 52.81 11.26C52.83 11.09 52.85 10.93 52.87 10.76C52.89 10.6 52.91 10.44 52.84 10.29C52.78 10.14 52.61 10.02 52.46 10.08C52.82 10.02 53.02 9.51 52.79 9.23C53.3 9.04 53.34 8.18 52.85 7.95C53.01 7.62 52.94 7.21 52.68 6.96C52.42 6.71 52 6.64 51.68 6.8C51.74 6.87 51.86 6.82 51.89 6.74C51.91 6.66 51.87 6.57 51.82 6.5C51.48 6.03 50.79 5.85 50.26 6.1C49.96 5.67 49.32 5.52 48.87 5.78C48.97 5.83 49.09 5.78 49.13 5.68C48.87 5.44 48.55 5.22 48.19 5.22C47.83 5.23 47.48 5.59 47.6 5.92C47.05 5.64 46.28 6.2 46.39 6.81C46.02 6.79 45.63 6.87 45.38 7.13C45.13 7.39 45.1 7.88 45.38 8.11C44.96 8.09 44.56 8.42 44.49 8.83C44.41 9.23 44.66 9.68 45.06 9.82C44.71 10.06 44.47 10.44 44.37 10.84C44.49 11 44.63 11.13 44.8 11.22C44.7 11.27 44.65 11.4 44.69 11.5C44.91 11.67 45.17 11.85 45.45 11.81C45.73 11.78 45.94 11.4 45.74 11.21C46.16 11.01 46.38 10.47 46.22 10.04C46.32 10.02 46.42 9.99 46.53 9.96C46.67 9.75 46.75 9.39 46.51 9.32C46.74 9.49 47.08 9.48 47.3 9.3C47.52 9.12 47.57 8.77 47.43 8.53Z"
          fill="#333333" fill-opacity="1.000000" fill-rule="nonzero"/>
    <path id="path"
          d="M53.59 4.79C53.86 4.9 53.81 5.35 53.55 5.5C53.3 5.64 52.98 5.55 52.71 5.43C52.85 5.46 52.92 5.66 52.84 5.77C52.43 5.88 51.98 5.79 51.65 5.54C51.74 5.5 51.84 5.64 51.8 5.74C51.76 5.83 51.65 5.88 51.54 5.9C51.2 5.95 50.85 5.8 50.65 5.52C50.9 5.45 51.07 5.85 50.9 6.05C50.73 6.25 50.41 6.24 50.17 6.15C50.1 6.12 50.02 6.08 50 6.01C50.15 6.01 50.23 6.22 50.15 6.34C50.06 6.47 49.88 6.5 49.75 6.44C49.61 6.38 49.51 6.26 49.43 6.13C49.47 6.21 49.47 6.31 49.44 6.38C49.16 6.37 48.91 6.15 48.87 5.87C48.83 5.83 48.9 5.75 48.95 5.78C48.65 5.63 48.39 5.38 48.24 5.08C48.01 5.22 47.66 5.13 47.52 4.89C47.33 4.92 47.13 4.86 46.99 4.73C46.92 4.85 46.75 4.9 46.61 4.85C46.48 4.81 46.37 4.69 46.31 4.56C46.28 4.5 46.26 4.43 46.29 4.36C46.33 4.31 46.44 4.31 46.44 4.38C46.11 4.37 45.81 4.07 45.79 3.74C45.9 3.74 46 3.79 46.06 3.87C45.83 3.85 45.65 3.58 45.73 3.35C45.81 3.13 46.12 3.03 46.31 3.16C46.17 3.02 46.11 2.79 46.16 2.6C46.24 2.58 46.33 2.55 46.41 2.53C46.16 2.44 46.16 2.02 46.39 1.9C46.62 1.77 46.95 1.97 46.98 2.23C46.75 2.12 46.75 1.75 46.97 1.63C47.19 1.52 47.5 1.73 47.47 1.97C47.48 1.8 47.64 1.65 47.81 1.67C47.98 1.67 48.13 1.84 48.12 2.01C48.16 1.81 48.27 1.6 48.48 1.56C48.67 1.53 48.88 1.79 48.74 1.94C48.65 1.67 48.98 1.42 49.25 1.47C49.52 1.51 49.74 1.72 49.93 1.93C49.96 1.76 50.12 1.63 50.28 1.64C50.45 1.65 50.59 1.8 50.59 1.97C50.47 1.84 50.52 1.61 50.68 1.55C50.84 1.48 51.04 1.63 51.03 1.79C51.14 1.6 51.39 1.49 51.6 1.55C51.82 1.6 51.99 1.8 52.01 2.02C52.02 1.88 52.16 1.77 52.31 1.75C52.45 1.73 52.59 1.77 52.73 1.81C52.9 1.86 53.08 1.91 53.17 2.06C53.25 2.21 53.17 2.46 53 2.44C53.23 2.44 53.49 2.45 53.64 2.62C53.78 2.8 53.61 3.16 53.41 3.06C53.68 3.03 53.99 3.16 54.08 3.41C54.18 3.66 53.95 4.01 53.69 3.94C53.91 3.98 54.09 4.21 54.06 4.43C54.04 4.63 53.81 4.81 53.59 4.79Z"
          fill="#333333" fill-opacity="1.000000" fill-rule="nonzero"/>
    <path id="path" d="M53.74 18.7L53.8 18.85C53.78 18.8 53.76 18.75 53.74 18.7Z" fill="#B79A7D" fill-opacity="1.000000"
          fill-rule="nonzero"/>
    <path id="path"
          d="M49.73 62.21C49.74 61.86 49.75 61.5 49.75 61.15C49.14 60.94 48.44 60.98 47.87 61.28C47.8 61.31 47.68 61.29 47.72 61.24C47.19 61.72 46.57 62.11 45.91 62.38C45.76 62.45 45.6 62.5 45.48 62.62C45.24 62.85 45.28 63.32 45.56 63.51C45.82 63.69 46.18 63.63 46.49 63.56C47.37 63.36 48.25 63.17 49.14 62.97C49.3 62.94 49.47 62.9 49.58 62.78C49.72 62.63 49.73 62.41 49.73 62.21Z"
          fill="#4D4D4D" fill-opacity="1.000000" fill-rule="nonzero"/>
    <path id="path"
          d="M55.87 61.1C55.74 60.77 55.61 60.44 55.49 60.11C54.84 60.14 54.21 60.44 53.79 60.94C53.74 60.99 53.62 61.01 53.64 60.95C53.32 61.59 52.89 62.18 52.38 62.69C52.27 62.8 52.14 62.92 52.08 63.06C51.95 63.37 52.15 63.79 52.48 63.86C52.79 63.93 53.1 63.74 53.36 63.57C54.1 63.06 54.85 62.54 55.6 62.03C55.74 61.94 55.88 61.83 55.94 61.68C56.01 61.49 55.94 61.29 55.87 61.1Z"
          fill="#4D4D4D" fill-opacity="1.000000" fill-rule="nonzero"/>
    <path id="path"
          d="M44.43 37.89C44.24 38.16 43.99 38.38 43.79 38.65C43.24 39.4 43.25 40.48 43.71 41.29C44.17 42.1 45.03 42.64 45.94 42.85C46.87 43.05 47.83 42.93 48.77 43.05C49.73 43.17 50.65 43.53 51.61 43.62C53.03 43.74 54.42 43.24 55.76 42.76C56.72 42.41 57.83 41.9 58.04 40.89C58.14 40.38 57.99 39.87 57.82 39.38C57.4 38.16 56.91 36.96 56.34 35.8C56.26 35.63 56.17 35.46 56.02 35.33C55.7 35.06 55.22 35.12 54.8 35.2C52.71 35.58 50.59 35.79 48.48 35.85C47.97 35.86 47.46 35.86 46.96 35.86C46.51 35.85 45.71 35.66 45.29 35.8C44.85 35.95 44.99 36.21 44.89 36.72C44.81 37.14 44.68 37.54 44.43 37.89Z"
          fill="#662E2A" fill-opacity="1.000000" fill-rule="nonzero"/>
    <path id="path"
          d="M51.68 18.01C51.84 18 52.02 17.98 52.18 18.03C52.53 18.13 52.66 18.47 52.75 18.77C53.06 19.86 53.36 20.95 53.67 22.04C53.92 22.9 54.16 23.76 54.41 24.63C55.16 27.26 55.91 29.91 56.36 32.59C56.51 33.47 56.63 34.35 56.71 35.23C56.72 35.33 56.73 35.44 56.67 35.52C56.6 35.62 56.46 35.67 56.33 35.72C52.61 36.9 48.36 37.42 44.68 36.17C44.76 34.27 44.84 32.37 44.92 30.47C44.99 28.81 45.05 27.17 45.24 25.52C45.46 23.44 45.88 21.37 46.48 19.35C46.57 19.06 46.65 18.12 46.96 17.94C47.28 17.75 47.89 18.08 48.27 18.14C49.4 18.3 50.56 18.13 51.68 18.01Z"
          fill="#AA4A4D" fill-opacity="1.000000" fill-rule="nonzero"/>
    <path id="path"
          d="M53.17 18.88C54.51 21.83 55.85 24.78 57.19 27.73C57.33 28.02 57.47 28.34 57.43 28.65C57.39 29.02 57.13 29.33 56.88 29.61C55.43 31.26 53.92 32.96 51.91 33.84C51.58 33.99 51.23 34.11 50.87 34.06C50.52 34.02 50.17 33.76 50.12 33.41C50.06 32.92 50.55 32.57 50.97 32.3C52.12 31.57 53.15 30.63 53.99 29.56C54.32 29.14 54.62 28.69 54.68 28.16C54.74 27.58 54.49 27.01 54.23 26.48C53.39 24.7 52.4 23.02 51.47 21.29C51.12 20.65 50.95 20.11 51.37 19.46C51.72 18.93 52.75 17.97 53.17 18.88Z"
          fill="#B79A7D" fill-opacity="1.000000" fill-rule="nonzero"/>
    <path id="path"
          d="M50.27 9.56C50.19 9.72 50.09 9.9 50.1 10.09C50.1 10.28 50.24 10.49 50.43 10.48C50.1 10.65 50.06 11.21 50.38 11.43C50.15 11.63 50.2 12.06 50.47 12.22C50.28 12.41 50.36 12.8 50.62 12.89C50.44 13.01 50.37 13.27 50.47 13.46C50.57 13.66 50.83 13.75 51.03 13.67C50.92 13.79 50.8 13.92 50.8 14.09C50.79 14.25 50.96 14.43 51.11 14.36C50.87 14.54 50.89 14.96 51.14 15.13C51.39 15.29 51.79 15.14 51.86 14.85C51.98 15 52.23 15.02 52.39 14.91C52.56 14.8 52.64 14.61 52.68 14.42C52.9 14.43 53.13 14.41 53.3 14.28C53.47 14.15 53.55 13.88 53.41 13.71C53.6 13.73 53.79 13.62 53.88 13.45C53.97 13.28 53.95 13.06 53.82 12.91C54.06 12.82 54.28 12.63 54.32 12.38C54.36 12.12 54.14 11.84 53.89 11.88C54.25 11.72 54.46 11.28 54.35 10.89C54.32 10.79 54.19 10.68 54.12 10.77C54.33 10.61 54.48 10.36 54.47 10.1C54.46 9.84 54.24 9.59 53.98 9.58C54.18 9.46 54.27 9.18 54.17 8.96C54.07 8.75 53.78 8.64 53.57 8.74C53.59 8.57 53.62 8.41 53.64 8.25C53.64 8.19 53.65 8.12 53.61 8.07C53.58 8.04 53.52 8.03 53.46 8.03C53.29 8.02 53.11 8.05 52.95 8.11C53 7.93 52.91 7.74 52.75 7.66C52.59 7.58 52.38 7.63 52.28 7.77C51.76 7.34 50.87 7.55 50.58 8.15C50.2 7.87 49.94 8.4 49.87 8.7C49.83 8.88 49.82 9.09 49.9 9.26C49.92 9.29 50.22 9.65 50.27 9.56Z"
          fill="#333333" fill-opacity="1.000000" fill-rule="nonzero"/>
    <path id="path"
          d="M31.51 32.05C31.53 32.15 31.55 32.26 31.6 32.35C31.65 32.43 31.74 32.51 31.84 32.51C31.89 32.51 31.94 32.5 31.98 32.51C32.05 32.52 32.1 32.59 32.13 32.66C32.25 32.91 32.18 33.22 32.37 33.42C32.51 33.58 32.77 33.59 32.97 33.52C33.14 33.46 33.3 33.33 33.37 33.15C33.42 32.98 33.38 32.78 33.32 32.61C33.09 32.01 32.65 31.5 32.57 30.87C32.55 30.78 32.55 30.68 32.49 30.61C32.39 30.49 32.22 30.5 32.08 30.53C31.87 30.58 31.4 30.67 31.33 30.91C31.29 31.06 31.38 31.29 31.41 31.44C31.44 31.64 31.47 31.85 31.51 32.05Z"
          fill="#F9E9DE" fill-opacity="1.000000" fill-rule="nonzero"/>
    <path id="path"
          d="M5.54 15.34C5.45 14.96 5.41 14.57 5.28 14.2C5.25 14.09 5.2 13.99 5.12 13.92C5.06 13.87 4.99 13.85 4.92 13.81C4.59 13.6 4.56 13.05 4.19 12.9C3.98 12.82 3.73 12.9 3.55 13.05C3.27 13.27 3.09 13.62 3.09 13.98C3.08 14.42 3.3 14.83 3.56 15.18C3.83 15.53 4.14 15.86 4.33 16.25C4.42 16.4 4.48 16.58 4.58 16.72C4.68 16.87 4.84 17 5.01 17.01C5.23 17.03 5.41 16.88 5.59 16.75C5.81 16.57 6.11 16.44 5.91 16.14C5.73 15.9 5.62 15.64 5.54 15.34Z"
          fill="#F9E9DE" fill-opacity="1.000000" fill-rule="nonzero"/>
    <path id="path"
          d="M22.56 44.27C22.61 45.04 22.66 45.81 22.81 46.57C22.92 47.16 23.09 47.74 23.27 48.31C24.29 51.58 25.56 54.78 27.08 57.85C27.2 58.11 27.35 58.39 27.62 58.51C28.04 58.68 28.54 58.33 28.68 57.89C28.82 57.45 28.7 56.98 28.59 56.53C28.02 54.26 27.45 52 26.88 49.72C26.74 49.18 26.61 48.63 26.52 48.07C26.43 47.41 26.41 46.75 26.4 46.09C26.36 44.87 26.33 43.64 26.47 42.43C26.56 41.57 26.73 40.73 26.89 39.88C27.18 38.36 27.41 36.83 27.59 35.29C27.64 34.85 27.69 34.39 27.59 33.96C27.34 32.85 26.17 32.13 25.04 32.13C24.2 32.13 23.29 32.45 22.62 32.96C22.06 33.38 22.13 33.79 22.16 34.44C22.26 36.53 22.29 38.62 22.38 40.71C22.44 41.9 22.49 43.09 22.56 44.27Z"
          fill="#ADADAD" fill-opacity="1.000000" fill-rule="nonzero"/>
    <path id="path"
          d="M16.32 35.86C16.34 34.94 16.36 34.01 16.59 33.14C16.83 32.28 17.3 31.47 17.98 31.14C18.8 30.73 19.81 31.09 20.46 31.88C21.11 32.68 21.41 33.83 21.38 34.94C21.36 35.51 21.25 36.08 21.19 36.65C21.06 37.72 21.07 38.82 21.04 39.9C20.97 43.29 20.65 46.65 20.33 50.01C20.1 52.41 19.88 54.81 19.65 57.21C19.6 57.8 19.55 58.4 19.49 58.99C19.42 59.68 19.35 59.92 18.72 59.86C17.93 59.78 17.89 59.13 17.8 58.28C17.25 53.49 16.78 48.68 16.51 43.86C16.37 41.2 16.28 38.52 16.32 35.86Z"
          fill="#ADADAD" fill-opacity="1.000000" fill-rule="nonzero"/>
    <path id="path"
          d="M14.07 34.94C13.71 35.76 13.13 36.49 12.85 37.34C12.58 38.2 12.72 39.31 13.51 39.74C14.37 40.22 15.53 39.65 16.41 40.09C17.07 40.41 17.4 41.22 18.05 41.56C18.62 41.86 19.32 41.74 19.92 41.52C20.52 41.3 21.09 40.97 21.72 40.84C22.39 40.7 23.11 40.81 23.72 41.13C24.23 41.41 24.71 41.85 25.3 41.87C26.36 41.88 27.02 40.51 28.07 40.44C28.52 40.41 28.94 40.62 29.39 40.59C30.25 40.53 30.79 39.56 30.74 38.7C30.7 37.84 30.26 37.07 29.92 36.28C29.52 35.37 29.25 34.41 29.11 33.43C28.99 32.6 28.89 31.63 28.18 31.21C27.83 30.99 27.39 30.96 26.97 30.96C24.13 30.93 21.31 31.51 18.46 31.4C17.48 31.37 16.07 30.74 15.38 31.57C14.63 32.5 14.55 33.87 14.07 34.94Z"
          fill="#F2F2F2" fill-opacity="1.000000" fill-rule="nonzero"/>
    <path id="path"
          d="M17.42 57.6C17.3 57.91 17.4 58.26 17.47 58.58C17.62 59.21 17.68 59.86 17.66 60.5C17.66 60.55 17.65 60.6 17.63 60.65C17.58 60.77 17.44 60.81 17.32 60.84C16.84 60.94 16.34 60.96 15.85 60.89C15.54 60.85 15.18 60.78 14.93 60.98C14.79 61.1 14.72 61.28 14.67 61.46C14.59 61.71 14.54 61.96 14.5 62.21C14.46 62.54 14.46 62.94 14.73 63.14C14.9 63.27 15.12 63.29 15.34 63.29C16.65 63.34 17.98 63.3 19.29 63.16C19.54 63.14 19.82 63.09 19.95 62.87C20.02 62.75 20.02 62.6 20.02 62.46C20.01 61.46 19.98 60.45 19.94 59.45C19.91 58.95 19.88 58.44 19.85 57.94C19.84 57.79 19.88 57.54 19.71 57.46C19.57 57.39 19.19 57.53 19.04 57.55C18.88 57.57 17.44 57.57 17.42 57.6Z"
          fill="#736357" fill-opacity="1.000000" fill-rule="nonzero"/>
    <path id="path"
          d="M28.54 55.81C28.81 56.74 29.09 57.68 29.36 58.61C29.46 58.95 29.57 59.3 29.73 59.61C29.83 59.79 29.94 59.95 30.05 60.12C30.35 60.59 30.59 61.12 30.75 61.66C30.78 61.78 30.81 61.9 30.8 62.03C30.78 62.18 30.7 62.31 30.61 62.43C30.2 62.95 29.48 63.22 28.83 63.09C28.7 63.06 28.56 63.02 28.46 62.94C28.33 62.83 28.25 62.67 28.19 62.52C27.74 61.4 27.77 60.13 27.27 59.03C27.15 58.76 27 58.51 26.88 58.23C26.79 58.03 26.72 57.82 26.65 57.61C26.57 57.36 26.36 56.97 26.36 56.71C26.36 56.46 26.65 56.41 26.87 56.31C27.42 56.08 27.97 55.92 28.54 55.81Z"
          fill="#736357" fill-opacity="1.000000" fill-rule="nonzero"/>
    <path id="path"
          d="M14.44 32C14.54 32.09 14.69 32.12 14.8 32.2C14.93 32.3 14.99 32.49 14.93 32.65C14.87 32.8 14.71 32.93 14.74 33.09C14.78 33.31 15.09 33.33 15.28 33.22C15.47 33.12 15.66 32.96 15.88 32.99C16.12 33.02 16.25 33.28 16.37 33.5C16.48 33.72 16.69 33.96 16.92 33.9C17.09 33.85 17.21 33.66 17.39 33.64C17.65 33.61 17.78 33.94 17.92 34.16C18.09 34.43 18.43 34.62 18.74 34.52C19 34.42 19.17 34.14 19.44 34.11C19.72 34.08 19.95 34.32 20.14 34.52C20.34 34.71 20.64 34.9 20.88 34.76C20.96 34.71 21.01 34.64 21.06 34.58C21.35 34.27 21.82 34.14 22.23 34.26C22.49 34.34 22.71 34.5 22.96 34.59C23.21 34.69 23.53 34.69 23.71 34.49C23.79 34.39 23.83 34.27 23.92 34.18C24.13 33.95 24.5 34.01 24.79 34.11C25.08 34.22 25.4 34.35 25.68 34.22C25.96 34.08 26.1 33.7 26.41 33.64C26.6 33.61 26.78 33.7 26.96 33.71C27.28 33.73 27.58 33.48 27.63 33.17C27.85 33.19 28.09 33.2 28.3 33.11C28.5 33.01 28.66 32.77 28.57 32.56C28.87 32.57 29.07 32.14 28.86 31.92C28.75 31.81 28.57 31.75 28.53 31.6C28.5 31.47 28.59 31.3 28.48 31.21C28.18 31.34 28 31.64 27.77 31.87C27.42 32.22 26.93 32.4 26.44 32.53C24.62 33.01 22.69 32.86 20.81 32.7C19.48 32.58 18.12 32.45 16.86 31.98C16.65 31.89 16.43 31.8 16.21 31.75C15.78 31.64 15.33 31.54 14.9 31.45C14.6 31.38 14.14 31.69 14.44 32Z"
          fill="#FFFFFF" fill-opacity="1.000000" fill-rule="nonzero"/>
    <path id="path"
          d="M21.6 9.08C21.27 9.38 20.81 9.49 20.38 9.63C19.95 9.76 19.5 9.93 19.22 10.28C19.02 10.53 18.94 10.85 18.86 11.15C18.71 11.71 18.56 12.34 18.83 12.86C18.96 13.13 19.2 13.34 19.29 13.62C19.41 13.98 19.29 14.37 19.12 14.71C18.95 15.04 18.75 15.37 18.7 15.74C18.66 16.01 18.71 16.3 18.63 16.55C18.49 17.01 17.98 17.28 17.51 17.3C17.03 17.31 16.57 17.13 16.12 16.95C15.82 16.83 15.48 16.67 15.4 16.35C15.35 16.11 15.47 15.88 15.61 15.69C15.76 15.49 15.94 15.34 16.06 15.13C16.11 15.02 16.16 14.89 16.11 14.78C16.04 14.64 15.85 14.58 15.79 14.44C15.71 14.27 15.86 14.08 16.02 13.97C16.17 13.87 16.36 13.76 16.41 13.58C16.48 13.27 16.09 13.04 15.99 12.73C15.89 12.4 16.14 12.07 16.37 11.82C16.61 11.56 16.86 11.23 16.75 10.9C16.69 10.71 16.51 10.54 16.55 10.35C16.62 10.09 16.98 10.08 17.18 9.9C17.5 9.6 17.2 9.06 17.3 8.63C17.4 8.18 17.93 7.94 18.05 7.5C18.08 7.37 18.08 7.24 18.12 7.13C18.18 6.98 18.31 6.87 18.43 6.77C18.87 6.39 19.33 6.01 19.9 5.9C20.27 5.82 20.66 5.88 21.03 5.96C21.36 6.03 21.7 6.12 21.92 6.38C22.42 6.95 22.16 8.6 21.6 9.08Z"
          fill="#C6B697" fill-opacity="1.000000" fill-rule="nonzero"/>
    <path id="path"
          d="M7.74 16.91C9.47 17.43 11.29 17.93 13.08 17.66C15.11 17.37 16.96 16.11 19.01 16.09C19.13 16.09 19.27 16.1 19.37 16.16C19.45 16.22 19.51 16.31 19.56 16.4C20.03 17.26 20.14 18.31 19.86 19.25C19.71 19.77 19.44 20.26 19.05 20.64C18.76 20.92 18.42 21.13 18.07 21.3C16.85 21.9 15.45 22.07 14.11 21.93C12.76 21.81 11.45 21.39 10.2 20.88C9.25 20.48 8.32 20.03 7.48 19.43C6.55 18.77 5.74 17.95 4.95 17.13C4.91 17.09 4.86 17.03 4.85 16.97C4.83 16.52 5.75 16.14 6.11 16.23C6.65 16.36 7.18 16.75 7.74 16.91Z"
          fill="#D5AFCB" fill-opacity="1.000000" fill-rule="nonzero"/>
    <path id="path"
          d="M23.43 15.61C23.73 15.53 24.04 15.43 24.34 15.49C24.73 15.56 24.97 15.85 25.14 16.12C26.37 18 26.85 20.1 27.27 22.16C27.88 25.1 28.69 27.82 28.67 30.8C28.66 31.51 28.58 32.31 27.85 32.77C27.48 32.99 27.01 33.1 26.55 33.17C24.55 33.47 22.23 33.57 20.21 33.43C19.32 33.37 18.42 33.31 17.56 33.13C16.57 32.92 15.57 32.52 15.11 31.83C14.7 31.22 14.77 30.49 14.88 29.81C15.24 27.2 15.77 24.59 16.44 22.02C16.89 20.29 17.41 18.56 17.93 16.84C18.15 16.07 18.5 15.21 19.74 15.44C21.04 15.68 22.07 15.97 23.43 15.61Z"
          fill="#D5AFCB" fill-opacity="1.000000" fill-rule="nonzero"/>
    <path id="path"
          d="M22.1 15.27C21.69 15.31 21.2 15.39 20.8 15.32C19.69 15.12 19.02 13.97 18.45 12.97C17.93 12.05 18.09 10.37 18.26 9.31C18.32 8.95 18.39 8.58 18.59 8.28C18.98 7.71 19.74 7.58 20.41 7.55C21.59 7.48 22.82 7.56 23.84 8.18C26.26 9.63 24.97 14.99 22.1 15.27Z"
          fill="#F9E9DE" fill-opacity="1.000000" fill-rule="nonzero"/>
    <path id="path"
          d="M27.1 17.62C30.13 21.18 31.35 25.8 32.5 30.26C32.52 30.36 32.55 30.47 32.51 30.56C32.43 30.77 31.73 30.87 31.42 30.97C31.27 31.02 31.12 30.96 31.06 30.82C30.23 28.81 29.19 26.57 27.74 24.57C26.58 22.96 25.78 21.46 23.92 20.51C23.14 20.11 22.96 19.73 23.02 18.85C23.08 18 23.66 17.1 24.36 16.69C25.42 16.05 26.43 16.83 27.1 17.62Z"
          fill="#D5AFCB" fill-opacity="1.000000" fill-rule="nonzero"/>
    <path id="path"
          d="M19.94 17.89C20.16 18.94 20.31 20.01 20.47 21.08C20.5 21.23 20.54 21.41 20.68 21.48C20.88 21.59 21.11 21.39 21.24 21.2C21.94 20.14 22.05 18.8 22.55 17.63C22.75 17.14 23.03 16.67 23.16 16.16C23.19 16.06 23.21 15.96 23.17 15.86C23.09 15.67 22.82 15.65 22.62 15.65C22.28 15.67 21.95 15.66 21.62 15.65C21.36 15.63 21.1 15.62 20.85 15.55C20.54 15.46 20.19 15.22 19.87 15.23C19.57 15.24 19.59 15.46 19.59 15.71C19.6 16.46 19.79 17.17 19.94 17.89Z"
          fill="#F7F7F7" fill-opacity="1.000000" fill-rule="nonzero"/>
    <path id="path"
          d="M19.08 16C19.1 16.11 19.23 16.19 19.25 16.31C19.27 16.44 19.13 16.55 19.01 16.6C18.88 16.63 18.73 16.64 18.62 16.71C18.5 16.78 18.45 16.96 18.55 17.05C18.59 17.08 18.65 17.09 18.71 17.1C18.92 17.15 19.11 17.37 19.03 17.57C18.98 17.7 18.85 17.77 18.76 17.88C18.67 17.99 18.64 18.19 18.77 18.24C18.82 18.26 18.87 18.25 18.91 18.25C19.08 18.26 19.23 18.41 19.22 18.57C19.21 18.71 19.09 18.82 19.01 18.92C18.92 19.02 18.84 19.17 18.91 19.29C18.98 19.41 19.16 19.43 19.23 19.55C19.39 19.81 18.87 20.14 19.05 20.38C19.14 20.5 19.34 20.48 19.43 20.6C19.53 20.74 19.38 20.94 19.24 21.06C19.1 21.17 18.95 21.37 19.06 21.51C19.14 21.62 19.3 21.6 19.44 21.6C19.57 21.58 19.75 21.63 19.77 21.76C19.78 21.88 19.65 21.97 19.63 22.1C19.6 22.34 20 22.4 20.11 22.62C20.25 22.9 19.84 23.16 19.86 23.47C19.86 23.73 20.15 23.91 20.16 24.16C20.18 24.35 20.02 24.54 20.06 24.73C20.07 24.79 20.1 24.84 20.11 24.89C20.13 25.01 20.07 25.12 20.01 25.23C19.93 25.4 19.89 25.59 19.96 25.75C20.03 25.92 20.26 26.02 20.4 25.92C20.51 25.84 20.54 25.68 20.52 25.55C20.51 25.42 20.47 25.28 20.48 25.14C20.51 24.82 20.84 24.57 20.83 24.25C20.82 24.07 20.72 23.91 20.72 23.74C20.7 23.45 20.96 23.18 20.9 22.9C20.87 22.74 20.73 22.61 20.68 22.45C20.59 22.18 20.77 21.89 20.78 21.6C20.79 21.46 20.75 21.32 20.72 21.18C20.6 20.7 20.48 20.22 20.37 19.75C20.34 19.63 20.31 19.52 20.31 19.4C20.31 19.29 20.35 19.18 20.36 19.08C20.42 18.68 20.27 18.28 20.18 17.89C20.04 17.38 19.98 16.86 19.99 16.33C20 16.07 20.04 15.6 19.72 15.52C19.5 15.46 19.01 15.73 19.08 16Z"
          fill="#FFFFFF" fill-opacity="1.000000" fill-rule="nonzero"/>
    <path id="path"
          d="M23.87 16.09C24.01 16.36 23.9 16.71 23.69 16.94C23.64 16.99 23.59 17.04 23.57 17.1C23.47 17.36 23.89 17.58 23.83 17.84C23.78 18.15 23.24 18.1 23.13 18.38C23.07 18.55 23.17 18.72 23.27 18.87C23.36 19.01 23.45 19.22 23.33 19.36C23.15 19.59 22.67 19.34 22.52 19.59C22.44 19.73 22.54 19.9 22.6 20.06C22.67 20.24 22.65 20.47 22.49 20.57C22.32 20.68 22.06 20.59 21.91 20.72C21.8 20.81 21.8 20.99 21.79 21.13C21.79 21.28 21.74 21.46 21.6 21.5C21.57 21.51 21.52 21.51 21.49 21.54C21.45 21.57 21.45 21.63 21.45 21.68C21.44 21.87 21.44 22.06 21.43 22.25C21.28 22.2 21.1 22.33 21.09 22.49C21.09 22.58 21.12 22.67 21.08 22.74C21.04 22.82 20.92 22.84 20.84 22.79C20.75 22.75 20.7 22.67 20.65 22.58C20.52 22.34 20.42 22.04 20.51 21.78C20.58 21.57 20.75 21.41 20.89 21.23C21.14 20.92 21.27 20.54 21.41 20.17C21.76 19.22 22.14 18.27 22.54 17.33C22.74 16.9 22.91 16.44 23.12 16.02C23.28 15.73 23.7 15.76 23.87 16.09Z"
          fill="#FFFFFF" fill-opacity="1.000000" fill-rule="nonzero"/>
    <path id="path"
          d="M23.68 9.88C24.08 10.14 24.42 10.54 24.53 11.01C24.69 11.64 24.43 12.31 24.08 12.85C23.73 13.4 23.3 13.9 23.05 14.5C22.95 14.76 22.87 15.04 22.82 15.32C22.74 15.81 22.7 16.32 22.86 16.78C23.01 17.24 23.39 17.66 23.87 17.75C24.36 17.84 24.91 17.51 24.97 17.02C25 16.76 24.9 16.46 25.07 16.25C25.3 15.98 25.85 16.11 25.97 15.77C26.09 15.45 25.61 15.2 25.56 14.85C25.51 14.38 26.26 14.19 26.36 13.73C26.46 13.32 26.01 12.9 26.15 12.52C26.22 12.33 26.41 12.22 26.55 12.09C26.7 11.96 26.82 11.75 26.73 11.57C26.69 11.51 26.63 11.46 26.59 11.4C26.48 11.24 26.5 11.03 26.52 10.84C26.61 9.93 26.39 8.98 25.9 8.2C25.71 7.89 25.48 7.62 25.24 7.35C24.97 7.06 24.68 6.78 24.34 6.56C23.75 6.17 23.02 5.98 22.32 6.03C22.04 6.04 21.76 6.1 21.51 6.24C20.82 6.61 20.53 7.76 20.92 8.43C21.53 9.49 22.75 9.28 23.68 9.88Z"
          fill="#C6B697" fill-opacity="1.000000" fill-rule="nonzero"/>
    <path id="path"
          d="M6.65 13.03C6.69 13.13 6.74 13.25 6.7 13.36C6.67 13.43 6.61 13.47 6.55 13.52C5.34 14.37 4.12 15.26 2.86 16.04C2.78 16.09 2.69 16.14 2.59 16.17C2.39 16.22 2.26 16.38 2.09 16.25C1.93 16.13 1.65 15.65 1.54 15.48C1.39 15.23 1.17 14.88 1.06 14.62C1.02 14.53 0.99 14.44 1 14.35C1.01 14.23 1.11 14.13 1.19 14.04C1.49 13.76 1.87 13.58 2.18 13.32C2.62 12.94 3.08 12.67 3.57 12.36C3.91 12.14 4.24 11.85 4.59 11.67C4.84 11.55 5.12 11.33 5.38 11.28C5.57 11.24 5.66 11.37 5.76 11.51C6.09 11.99 6.41 12.5 6.65 13.03Z"
          fill="#FF8FA0" fill-opacity="1.000000" fill-rule="nonzero"/>
    <path id="path"
          d="M6.37 13.05C6.41 13.14 6.46 13.25 6.42 13.34C6.39 13.39 6.34 13.43 6.3 13.46C5.29 14.19 4.35 14.87 3.3 15.53C3.23 15.57 3 15.75 2.92 15.77C2.75 15.81 2.8 15.81 2.66 15.7C2.52 15.6 2.28 15.19 2.19 15.04C2.06 14.82 1.87 14.52 1.77 14.28C1.74 14.2 1.71 14.13 1.72 14.05C1.74 13.94 1.81 13.86 1.88 13.79C2.12 13.55 2.36 13.48 2.62 13.25C2.99 12.93 3.37 12.7 3.78 12.43C4.06 12.25 4.34 12 4.63 11.85C4.83 11.75 5.07 11.56 5.29 11.52C5.45 11.49 5.53 11.61 5.61 11.73C5.89 12.15 6.16 12.59 6.37 13.05Z"
          fill="#FFFFFF" fill-opacity="1.000000" fill-rule="nonzero"/>
    <path id="path"
          d="M6.37 13.05C6.41 13.14 6.46 13.25 6.42 13.34C6.39 13.39 6.34 13.43 6.3 13.46C5.29 14.19 4.35 14.87 3.3 15.53C3.23 15.57 3 15.75 2.92 15.77C2.75 15.81 2.8 15.81 2.66 15.7C2.52 15.6 2.28 15.19 2.19 15.04C2.06 14.82 1.87 14.52 1.77 14.28C1.74 14.2 1.71 14.13 1.72 14.05C1.74 13.94 1.81 13.86 1.88 13.79C2.12 13.55 2.36 13.48 2.62 13.25C2.99 12.93 3.37 12.7 3.78 12.43C4.06 12.25 4.34 12 4.63 11.85C4.83 11.75 5.07 11.56 5.29 11.52C5.45 11.49 5.53 11.61 5.61 11.73C5.89 12.15 6.16 12.59 6.37 13.05Z"
          fill="#FFFFFF" fill-opacity="1.000000" fill-rule="nonzero"/>
    <path id="path"
          d="M6.37 13.05C6.41 13.14 6.46 13.25 6.42 13.34C6.39 13.39 6.34 13.43 6.3 13.46C5.29 14.19 4.35 14.87 3.3 15.53C3.23 15.57 3 15.75 2.92 15.77C2.75 15.81 2.8 15.81 2.66 15.7C2.52 15.6 2.28 15.19 2.19 15.04C2.06 14.82 1.87 14.52 1.77 14.28C1.74 14.2 1.71 14.13 1.72 14.05C1.74 13.94 1.81 13.86 1.88 13.79C2.12 13.55 2.36 13.48 2.62 13.25C2.99 12.93 3.37 12.7 3.78 12.43C4.06 12.25 4.34 12 4.63 11.85C4.83 11.75 5.07 11.56 5.29 11.52C5.45 11.49 5.53 11.61 5.61 11.73C5.89 12.15 6.16 12.59 6.37 13.05Z"
          fill="#FFFFFF" fill-opacity="1.000000" fill-rule="nonzero"/>
    <path id="path"
          d="M2 14.95C1.94 14.91 1.86 14.9 1.79 14.92C1.71 14.94 1.65 15.01 1.63 15.09C1.61 15.18 1.62 15.27 1.65 15.34C1.66 15.37 1.68 15.41 1.71 15.43C1.75 15.47 1.81 15.48 1.86 15.47C1.91 15.46 1.96 15.44 2.01 15.41C2.05 15.37 2.1 15.34 2.12 15.28C2.2 15.15 2.12 15.02 2 14.95Z"
          fill="#E5E5E5" fill-opacity="1.000000" fill-rule="nonzero"/>
    <path id="path"
          d="M6.28 12.48C6.3 12.5 6.31 12.52 6.31 12.54C6.29 12.54 6.23 12.57 6.23 12.55C6.17 12.45 6.11 12.36 6.05 12.26C6.04 12.23 6.01 12.18 6.05 12.16C6.09 12.15 6.11 12.19 6.13 12.22C6.18 12.31 6.23 12.4 6.28 12.48Z"
          fill="#8A8A8A" fill-opacity="1.000000" fill-rule="nonzero"/>
    <path id="path" d="" fill="#8A8A8A" fill-opacity="1.000000" fill-rule="nonzero"/>
    <path id="path"
          d="M3.79 15.27C3.76 15.28 3.67 15.31 3.64 15.29C3.53 15.21 3.42 15.13 3.31 15.04C3.21 14.97 3.11 14.89 3.05 14.78C3.02 14.73 3.01 14.65 3.06 14.63C3.1 14.62 3.13 14.62 3.16 14.64C3.28 14.69 3.34 14.79 3.44 14.88C3.48 14.92 3.57 15 3.62 15.03C3.67 15.05 3.69 14.99 3.72 14.95C3.75 14.91 3.77 14.81 3.78 14.76C3.79 14.67 3.8 14.65 3.82 14.59C4 14.48 3.96 14.78 3.95 14.85C3.91 14.99 3.86 15.13 3.79 15.27Z"
          fill="#B79A7D" fill-opacity="1.000000" fill-rule="nonzero"/>
    <path id="path"
          d="M4.25 13.45C4.26 13.38 4.29 13.31 4.3 13.23C4.3 13.17 4.28 13.1 4.23 13.06C4.17 13.02 4.1 13.01 4.05 13.05C4.11 13.03 4.24 12.97 4.3 13.01C4.34 13.04 4.36 13.1 4.38 13.14C4.4 13.21 4.44 13.27 4.49 13.32C4.52 13.36 4.58 13.39 4.62 13.42C4.66 13.45 4.7 13.5 4.7 13.56C4.7 13.6 4.67 13.65 4.63 13.67C4.59 13.7 4.55 13.71 4.5 13.72C4.46 13.73 4.42 13.73 4.38 13.71C4.34 13.69 4.31 13.66 4.29 13.62C4.26 13.57 4.24 13.51 4.25 13.45Z"
          fill="#534741" fill-opacity="1.000000" fill-rule="nonzero"/>
    <path id="path"
          d="M2.83 13.17C2.99 13.71 3.03 13.67 3.28 13.88C3.32 13.92 3.42 13.99 3.47 14.01C3.56 14.06 3.67 14.08 3.77 14.1C3.79 14.11 3.81 14.11 3.83 14.11C3.88 14.07 3.95 13.98 3.93 13.92C3.92 13.85 3.88 13.85 3.81 13.85C3.69 13.83 3.62 13.8 3.5 13.76C3.43 13.74 3.37 13.7 3.32 13.66C3.18 13.55 3.15 13.56 3.02 13.35C2.99 13.31 2.95 13.18 2.94 13.14C2.94 13.09 2.93 13.04 2.93 13.01C2.92 12.98 2.92 12.9 2.93 12.87C2.93 12.87 2.93 12.81 2.93 12.81C2.93 12.8 2.92 12.71 2.91 12.71C2.9 12.7 2.85 12.7 2.83 12.71C2.83 12.73 2.77 12.8 2.77 12.82C2.76 12.87 2.8 12.93 2.8 12.99L2.83 13.17Z"
          fill="#E2CBB7" fill-opacity="1.000000" fill-rule="nonzero"/>
    <path id="path"
          d="M4.07 13.66C3.98 13.71 3.88 13.74 3.84 13.83C3.82 13.89 3.84 13.96 3.87 14.02C4.09 14.51 4.41 14.93 4.66 15.4C4.74 15.55 4.81 15.69 4.87 15.84C4.89 15.89 4.91 15.94 4.91 15.99C4.91 16.02 4.91 16.05 4.91 16.08C4.92 16.16 5.03 16.21 5.12 16.2C5.2 16.19 5.28 16.14 5.36 16.09C5.59 15.94 5.83 15.78 6.06 15.63C6.11 15.59 6.18 15.55 6.2 15.48C6.21 15.41 6.18 15.34 6.14 15.28C5.95 15 5.67 14.8 5.43 14.57C5.19 14.34 4.98 14.08 4.75 13.84C4.64 13.73 4.51 13.6 4.37 13.53C4.26 13.46 4.18 13.6 4.07 13.66Z"
          fill="#D9924E" fill-opacity="1.000000" fill-rule="nonzero"/>
    <path id="path"
          d="M5.08 13.5C5.15 13.51 5.23 13.51 5.27 13.46C5.29 13.42 5.29 13.37 5.28 13.32C5.26 13.11 5.23 12.9 5.21 12.69C5.26 12.69 5.31 12.69 5.33 12.72C5.34 12.74 5.35 12.76 5.35 12.79C5.39 13.06 5.41 13.34 5.43 13.61C5.43 13.64 5.43 13.67 5.42 13.69C5.41 13.71 5.38 13.73 5.34 13.74C5.17 13.8 4.98 13.81 4.79 13.82C4.74 13.82 4.69 13.82 4.64 13.8C4.61 13.77 4.59 13.74 4.58 13.7C4.53 13.6 4.49 13.43 4.64 13.45C4.8 13.46 4.94 13.48 5.08 13.5Z"
          fill="#E2CBB7" fill-opacity="1.000000" fill-rule="nonzero"/>
    <path id="path"
          d="M5.18 12.57C5.2 12.54 5.22 12.45 5.24 12.42C5.26 12.39 5.3 12.37 5.34 12.38C5.37 12.39 5.4 12.42 5.42 12.45C5.43 12.46 5.44 12.5 5.44 12.52C5.43 12.59 5.4 12.65 5.36 12.71C5.32 12.74 5.24 12.74 5.22 12.71C5.2 12.68 5.17 12.6 5.18 12.57Z"
          fill="#E2CBB7" fill-opacity="1.000000" fill-rule="nonzero"/>
    <path id="path"
          d="M4.66 12.5C4.7 12.5 4.75 12.49 4.79 12.48C4.83 12.47 4.87 12.46 4.91 12.47C4.94 12.48 4.96 12.5 4.99 12.52C5.03 12.56 5.07 12.61 5.08 12.66C5.08 12.69 5.07 12.72 5.08 12.75C5.08 12.79 5.12 12.82 5.15 12.83C5.18 12.85 5.21 12.87 5.24 12.9C5.26 12.92 5.26 12.94 5.28 12.96C5.32 12.99 5.37 12.99 5.41 12.97C5.45 12.94 5.48 12.9 5.51 12.87C5.53 12.84 5.55 12.81 5.53 12.78C5.52 12.77 5.44 12.72 5.42 12.71C5.42 12.69 5.41 12.65 5.41 12.64C5.39 12.64 5.33 12.61 5.31 12.6C5.29 12.58 5.31 12.54 5.31 12.51C5.3 12.48 5.26 12.47 5.23 12.45C5.2 12.45 5.16 12.43 5.15 12.4C5.13 12.38 5.09 12.34 5.06 12.33C5.02 12.33 5.02 12.26 4.99 12.24C4.96 12.2 4.9 12.21 4.87 12.18C4.85 12.17 4.82 12.14 4.8 12.14C4.74 12.13 4.68 12.12 4.63 12.14C4.6 12.15 4.57 12.18 4.54 12.2C4.52 12.23 4.5 12.26 4.49 12.29C4.48 12.36 4.59 12.48 4.66 12.5Z"
          fill="#C6B697" fill-opacity="1.000000" fill-rule="nonzero"/>
    <path id="path"
          d="M6.2 12.43C6.09 12.56 5.96 12.69 5.8 12.76C5.62 12.85 5.4 12.83 5.23 12.94C5.24 13.03 5.25 13.18 5.32 13.24C5.36 13.28 5.41 13.31 5.46 13.31C5.5 13.32 5.54 13.32 5.57 13.32C5.71 13.31 5.83 13.25 5.93 13.17C6.03 13.09 6.12 12.99 6.2 12.88C6.25 12.8 6.31 12.71 6.35 12.62C6.39 12.52 6.42 12.41 6.44 12.3C6.42 12.26 6.32 12.26 6.3 12.28C6.26 12.33 6.24 12.39 6.2 12.43Z"
          fill="#D5AFCB" fill-opacity="1.000000" fill-rule="nonzero"/>
    <path id="path"
          d="M4.84 13.13C4.82 13.13 4.79 13.15 4.76 13.17C4.73 13.19 4.73 13.23 4.73 13.26C4.72 13.48 4.79 13.67 4.86 13.87C4.96 14.14 5.03 14.41 5.19 14.65C5.22 14.71 5.27 14.77 5.35 14.77C5.39 14.77 5.44 14.75 5.48 14.74C5.66 14.66 5.85 14.55 6.01 14.43C6.08 14.38 6.15 14.33 6.21 14.27C6.28 14.2 6.35 14.12 6.35 14.04C6.35 13.97 6.31 13.91 6.27 13.86C6.1 13.66 5.93 13.48 5.74 13.3C5.61 13.18 5.48 13.06 5.35 12.95C5.29 12.9 5.22 12.85 5.13 12.92C5.04 13.01 4.97 13.08 4.84 13.13Z"
          fill="#D5AFCB" fill-opacity="1.000000" fill-rule="nonzero"/>
    <path id="path"
          d="M4.93 13.03C4.97 13.01 5.01 12.99 5.04 12.97C5.12 12.89 5.12 12.76 5.12 12.66C5.11 12.55 5.01 12.42 4.94 12.34C4.92 12.32 4.9 12.29 4.87 12.27C4.8 12.25 4.73 12.27 4.68 12.31C4.58 12.36 4.48 12.43 4.43 12.54C4.3 12.78 4.68 13.15 4.93 13.03Z"
          fill="#F9E9DE" fill-opacity="1.000000" fill-rule="nonzero"/>
    <path id="path"
          d="M4.64 13.48C4.57 13.92 4.71 14.37 4.84 14.79C4.86 14.81 4.94 14.81 4.97 14.8C4.94 14.59 4.92 14.32 4.94 14.08C4.96 13.89 4.94 13.73 5.05 13.55C5.1 13.48 5.09 13.44 5.04 13.37C4.99 13.3 4.9 13.25 4.82 13.26C4.7 13.27 4.66 13.38 4.64 13.48Z"
          fill="#D5AFCB" fill-opacity="1.000000" fill-rule="nonzero"/>
    <path id="path"
          d="M6.3 12.19C6.28 12.15 6.27 12.12 6.26 12.08C6.28 12.05 6.27 11.94 6.28 11.91C6.32 11.92 6.41 11.92 6.42 11.94C6.45 11.98 6.45 12.03 6.44 12.06C6.44 12.11 6.43 12.15 6.44 12.19C6.44 12.21 6.44 12.28 6.42 12.29C6.4 12.28 6.31 12.29 6.31 12.26C6.31 12.24 6.31 12.22 6.3 12.19Z"
          fill="#F9E9DE" fill-opacity="1.000000" fill-rule="nonzero"/>
    <path id="path"
          d="M5.01 14.9C5.01 14.9 4.99 14.97 4.99 14.97C4.99 15 5.01 15.02 5.01 15.05C4.99 15.06 4.92 15.09 4.91 15.07C4.9 15.02 4.89 14.9 4.86 14.85C4.88 14.84 4.95 14.77 4.97 14.79C4.98 14.81 5.01 14.88 5.01 14.9Z"
          fill="#F9E9DE" fill-opacity="1.000000" fill-rule="nonzero"/>
    <path id="path"
          d="M5.24 13.13C5.28 13.23 5.32 13.32 5.36 13.43C5.25 13.38 5.12 13.32 5.01 13.25C4.97 13.22 4.92 13.2 4.89 13.16C4.88 13.14 4.89 13.1 4.91 13.09C4.93 13.07 4.96 13.06 4.99 13.04C5.01 13.01 5.08 12.93 5.11 12.92C5.15 12.97 5.22 13.07 5.24 13.13Z"
          fill="#F7F7F7" fill-opacity="1.000000" fill-rule="nonzero"/>
    <path id="path"
          d="M5.22 12.94C5.23 12.93 5.27 12.97 5.29 12.97C5.27 12.98 5.28 13.05 5.3 13.06C5.29 13.07 5.33 13.15 5.34 13.16C5.35 13.17 5.4 13.19 5.4 13.2C5.4 13.24 5.45 13.27 5.45 13.3C5.45 13.32 5.45 13.36 5.47 13.36C5.45 13.37 5.45 13.43 5.46 13.45C5.47 13.46 5.47 13.51 5.47 13.53C5.47 13.57 5.52 13.57 5.54 13.59C5.55 13.61 5.54 13.64 5.55 13.66C5.55 13.67 5.6 13.74 5.62 13.74C5.62 13.76 5.64 13.82 5.62 13.82C5.61 13.82 5.62 13.76 5.62 13.74C5.6 13.72 5.57 13.69 5.55 13.66C5.54 13.65 5.55 13.61 5.54 13.59C5.52 13.57 5.48 13.56 5.47 13.53C5.47 13.51 5.38 13.5 5.36 13.48C5.35 13.43 5.31 13.35 5.3 13.31C5.27 13.27 5.24 13.18 5.22 13.14C5.21 13.09 5.24 12.98 5.22 12.94C5.2 12.92 5.12 12.94 5.14 12.92C5.15 12.91 5.21 12.91 5.22 12.94Z"
          fill="#FFFFFF" fill-opacity="1.000000" fill-rule="nonzero"/>
    <path id="path"
          d="M4.83 13.18C4.83 13.22 4.86 13.24 4.89 13.25C4.91 13.27 4.91 13.31 4.92 13.33C4.94 13.35 4.98 13.32 5 13.34C5 13.36 5.02 13.42 5.03 13.43C5.06 13.43 5.08 13.39 5.11 13.41C5.12 13.43 5.15 13.49 5.16 13.49C5.17 13.49 5.24 13.49 5.25 13.5C5.26 13.51 5.33 13.55 5.34 13.57C5.34 13.57 5.41 13.59 5.41 13.58C5.41 13.55 5.41 13.5 5.39 13.48C5.35 13.46 5.26 13.41 5.24 13.39C5.16 13.32 5.08 13.27 5 13.21C4.96 13.18 4.87 13.2 4.83 13.18Z"
          fill="#FFFFFF" fill-opacity="1.000000" fill-rule="nonzero"/>
    <path id="path"
          d="M4.53 12.67C4.51 12.71 4.51 12.76 4.52 12.81C4.54 12.87 4.59 12.91 4.65 12.94C4.71 12.96 4.77 12.98 4.82 13.02C4.85 13.04 4.87 13.06 4.89 13.08C4.92 13.11 4.95 13.15 4.96 13.2C4.97 13.24 4.96 13.3 4.92 13.33C4.89 13.36 4.83 13.36 4.8 13.32C4.77 13.31 4.68 13.29 4.65 13.27C4.63 13.25 4.65 13.21 4.64 13.18C4.62 13.13 4.55 13.16 4.52 13.13C4.49 13.1 4.51 13.04 4.47 13.02C4.45 13.01 4.38 12.99 4.38 12.97C4.38 12.96 4.37 12.92 4.35 12.9C4.3 12.83 4.27 12.75 4.27 12.66C4.27 12.62 4.28 12.59 4.28 12.55C4.29 12.52 4.3 12.48 4.31 12.45C4.35 12.38 4.39 12.33 4.45 12.3C4.48 12.29 4.51 12.27 4.53 12.27C4.61 12.27 4.69 12.35 4.69 12.43C4.68 12.52 4.58 12.57 4.53 12.67Z"
          fill="#C6B697" fill-opacity="1.000000" fill-rule="nonzero"/>
    <path id="path"
          d="M3.52 13.25C3.51 13.22 3.5 13.17 3.49 13.13C3.47 12.98 3.54 12.73 3.72 12.73C3.77 12.73 3.81 12.74 3.85 12.75C3.9 12.76 3.93 12.78 3.97 12.81C4.04 12.85 4.11 12.92 4.14 12.99C4.18 13.06 4.18 13.15 4.19 13.23C4.19 13.33 4.19 13.45 4.13 13.52C4.05 13.63 3.88 13.64 3.76 13.57C3.64 13.52 3.56 13.39 3.52 13.25Z"
          fill="#E2CBB7" fill-opacity="1.000000" fill-rule="nonzero"/>
    <path id="path"
          d="M3.76 12.87C3.82 12.9 3.88 12.92 3.95 12.93C4 12.94 4.05 12.95 4.09 12.98C4.12 13.01 4.13 13.05 4.16 13.08C4.19 13.06 4.19 13.03 4.19 13C4.19 12.96 4.19 12.91 4.18 12.87C4.16 12.83 4.14 12.81 4.12 12.78C4.09 12.73 4.05 12.68 3.99 12.65C3.93 12.62 3.86 12.61 3.8 12.62C3.75 12.63 3.66 12.68 3.64 12.73C3.62 12.79 3.71 12.85 3.76 12.87Z"
          fill="#534741" fill-opacity="1.000000" fill-rule="nonzero"/>
    <path id="path"
          d="M3.36 14.08C3.36 14.03 3.37 13.98 3.37 13.94C3.38 13.8 3.34 13.66 3.32 13.53C3.32 13.47 3.32 13.41 3.34 13.36C3.36 13.32 3.41 13.29 3.44 13.29C3.38 13.19 3.32 13.03 3.35 12.91C3.37 12.79 3.48 12.69 3.6 12.69C3.69 12.69 3.78 12.77 3.72 12.85C3.7 12.88 3.66 12.9 3.64 12.92C3.6 12.96 3.57 13.01 3.55 13.06C3.52 13.14 3.53 13.24 3.58 13.31C3.63 13.35 3.66 13.46 3.68 13.52C3.62 13.47 3.57 13.42 3.51 13.37C3.51 13.41 3.5 13.47 3.5 13.5C3.48 13.68 3.56 13.85 3.66 13.99C3.69 14.04 3.72 14.08 3.73 14.13C3.74 14.2 3.7 14.27 3.64 14.3C3.57 14.32 3.5 14.31 3.44 14.27C3.39 14.22 3.36 14.15 3.36 14.08Z"
          fill="#534741" fill-opacity="1.000000" fill-rule="nonzero"/>
    <path id="path"
          d="M2.68 14.57C2.62 14.56 2.56 14.53 2.5 14.49C2.4 14.4 2.29 14.3 2.24 14.17C2.17 14.02 2.17 13.8 2.32 13.7C2.48 13.58 2.68 13.76 2.8 13.89C2.89 13.99 2.96 14.12 2.97 14.26C2.96 14.46 2.83 14.58 2.68 14.57Z"
          fill="#B79A7D" fill-opacity="1.000000" fill-rule="nonzero"/>
    <path id="path"
          d="M2.5 13.77C2.48 13.78 2.43 13.81 2.41 13.8C2.42 13.85 2.36 13.9 2.31 13.88C2.29 13.91 2.27 13.97 2.24 13.97C2.26 13.97 2.27 14.01 2.27 14.03C2.31 14.05 2.29 14.18 2.26 14.18C2.28 14.19 2.36 14.27 2.39 14.29C2.38 14.3 2.38 14.35 2.36 14.36C2.34 14.34 2.3 14.34 2.29 14.31C2.26 14.32 2.24 14.29 2.22 14.26C2.21 14.25 2.17 14.2 2.16 14.18C2.13 14.2 2.1 14.13 2.11 14.09C2.06 14.11 2.01 14.04 2.04 13.99C2.01 13.97 2 13.94 2 13.9C2.01 13.87 2.04 13.84 2.08 13.84C2.08 13.85 2.01 13.91 2 13.9C2 13.9 2.08 13.85 2.08 13.84C2.08 13.78 2.1 13.71 2.16 13.71C2.16 13.66 2.21 13.61 2.26 13.61C2.26 13.58 2.26 13.55 2.28 13.53C2.31 13.52 2.36 13.53 2.36 13.56C2.4 13.51 2.48 13.52 2.51 13.57C2.54 13.55 2.57 13.54 2.61 13.55C2.64 13.55 2.68 13.59 2.66 13.63C2.69 13.61 2.75 13.61 2.77 13.64C2.8 13.67 2.8 13.72 2.78 13.75C2.82 13.75 2.86 13.77 2.89 13.8C2.9 13.8 2.89 13.86 2.89 13.87C2.88 13.9 2.87 13.92 2.85 13.94C2.8 13.94 2.7 13.88 2.69 13.83C2.68 13.86 2.53 13.78 2.5 13.77Z"
          fill="#333333" fill-opacity="1.000000" fill-rule="nonzero"/>
    <path id="path"
          d="M1.81 13.78C1.83 13.78 1.89 13.81 1.91 13.78C1.94 13.77 1.98 13.78 2 13.74C2.03 13.73 2.08 13.72 2.08 13.69C2.11 13.69 2.14 13.73 2.15 13.71C2.16 13.7 2.22 13.69 2.22 13.67C2.24 13.65 2.26 13.55 2.26 13.52C2.28 13.52 2.34 13.45 2.35 13.43C2.37 13.41 2.41 13.32 2.4 13.29C2.38 13.27 2.33 13.25 2.33 13.27C2.34 13.25 2.28 13.16 2.25 13.17C2.26 13.15 2.21 13.17 2.19 13.17C2.17 13.16 2.13 13.2 2.12 13.22C2.1 13.22 2.04 13.28 2.06 13.29C2.05 13.26 2.01 13.25 1.99 13.27C1.97 13.29 1.96 13.32 1.96 13.34C1.96 13.32 1.89 13.35 1.87 13.35C1.86 13.34 1.81 13.38 1.8 13.39C1.79 13.4 1.73 13.46 1.72 13.47C1.72 13.49 1.72 13.55 1.73 13.54C1.73 13.56 1.72 13.63 1.72 13.61C1.7 13.62 1.68 13.65 1.68 13.67C1.66 13.69 1.72 13.74 1.74 13.76C1.76 13.79 1.79 13.8 1.81 13.78Z"
          fill="#333333" fill-opacity="1.000000" fill-rule="nonzero"/>
    <path id="path"
          d="M2.64 14.77C2.61 14.79 2.58 14.86 2.59 14.88C2.62 14.99 2.65 15.09 2.68 15.2C2.71 15.28 2.73 15.37 2.75 15.45C2.82 15.7 2.9 15.96 3 16.21C3.03 16.29 3.07 16.37 3.11 16.44C3.48 16.35 3.91 16.19 4.15 15.9C4.05 15.75 3.94 15.6 3.84 15.44C3.75 15.31 3.66 15.18 3.56 15.05C3.43 14.89 3.29 14.74 3.14 14.6C3.11 14.58 3.06 14.51 3.03 14.51C2.99 14.51 2.96 14.57 2.93 14.6C2.84 14.68 2.73 14.72 2.64 14.77Z"
          fill="#AA4A4D" fill-opacity="1.000000" fill-rule="nonzero"/>
    <path id="path"
          d="M2.56 14.92C2.6 15.23 2.64 15.54 2.68 15.85C2.69 15.88 2.69 15.91 2.71 15.94C2.73 15.97 2.76 15.98 2.8 15.99C3.01 16.05 3.22 16.11 3.43 16.09C3.46 16.08 3.5 16.07 3.53 16.05C3.55 16.04 3.57 15.99 3.55 15.96C3.53 15.91 3.48 15.91 3.43 15.91C3.29 15.91 3.16 15.89 3.04 15.84C2.99 15.83 2.94 15.81 2.91 15.76C2.88 15.72 2.87 15.66 2.86 15.6C2.84 15.41 2.83 15.22 2.82 15.04C2.82 14.97 2.8 14.92 2.74 14.88C2.68 14.85 2.55 14.82 2.56 14.92Z"
          fill="#B79A7D" fill-opacity="1.000000" fill-rule="nonzero"/>
    <path id="path"
          d="M2.32 14C2.33 14.01 2.37 14.08 2.36 14.09C2.4 14.09 2.43 14.13 2.41 14.16C2.44 14.17 2.45 14.21 2.44 14.23C2.47 14.24 2.48 14.28 2.46 14.3C2.46 14.32 2.49 14.38 2.47 14.38C2.47 14.39 2.51 14.44 2.49 14.44C2.52 14.45 2.54 14.48 2.53 14.51C2.52 14.53 2.48 14.54 2.45 14.52C2.43 14.52 2.38 14.54 2.36 14.53C2.35 14.53 2.26 14.53 2.27 14.51C2.25 14.5 2.19 14.48 2.19 14.46C2.17 14.47 2.14 14.46 2.12 14.44C2.1 14.43 2.11 14.39 2.14 14.38C2.1 14.39 2.06 14.36 2.05 14.32C2.03 14.3 1.99 14.22 2.01 14.2C2.01 14.17 1.98 14.11 2 14.11C2 14.1 1.97 14.05 1.97 14.04C1.96 14.03 2 13.99 2.01 13.98C2.03 13.92 2.16 13.88 2.21 13.91C2.23 13.87 2.28 13.9 2.3 13.92C2.31 13.93 2.32 13.99 2.32 14Z"
          fill="#333333" fill-opacity="1.000000" fill-rule="nonzero"/>
</svg>
