<svg width="24.000000" height="24.000000" viewBox="0 0 24 24" fill="none" xmlns="http://www.w3.org/2000/svg" xmlns:xlink="http://www.w3.org/1999/xlink">
	<desc>
			Created with Pixso.
	</desc>
	<defs>
		<clipPath id="clip74_5164">
			<rect id="地图 (2).svg" width="24.000000" height="24.000000" fill="white" fill-opacity="0"/>
		</clipPath>
	</defs>
	<g clip-path="url(#clip74_5164)">
		<path id="path" d="M20.39 13.2L16.28 13.2C15.25 14.74 14.12 16.21 12.89 17.6L12 18.6L11.1 17.6C9.87 16.21 8.74 14.74 7.71 13.2L3.6 13.2L0 24L24 24L20.39 13.2Z" fill="#FFFFFF" fill-opacity="1.000000" fill-rule="nonzero"/>
		<path id="path" d="M18 6C18 5.8 17.99 5.6 17.97 5.41C17.95 5.21 17.92 5.02 17.88 4.82C17.84 4.63 17.79 4.44 17.74 4.25C17.68 4.07 17.61 3.88 17.54 3.7C17.46 3.52 17.38 3.34 17.29 3.17C17.19 2.99 17.09 2.82 16.98 2.66C16.87 2.5 16.76 2.34 16.63 2.19C16.51 2.04 16.38 1.89 16.24 1.75C16.1 1.61 15.95 1.48 15.8 1.36C15.65 1.23 15.49 1.12 15.33 1.01C15.16 0.9 15 0.8 14.82 0.7C14.65 0.61 14.47 0.53 14.29 0.45C14.11 0.38 13.92 0.31 13.74 0.25C13.55 0.2 13.36 0.15 13.17 0.11C12.97 0.07 12.78 0.04 12.58 0.02C12.39 0 12.19 0 12 0C11.8 0 11.6 0 11.41 0.02C11.21 0.04 11.02 0.07 10.82 0.11C10.63 0.15 10.44 0.2 10.25 0.25C10.07 0.31 9.88 0.38 9.7 0.45C9.52 0.53 9.34 0.61 9.17 0.7C8.99 0.8 8.83 0.9 8.66 1.01C8.5 1.12 8.34 1.23 8.19 1.36C8.04 1.48 7.89 1.61 7.75 1.75C7.61 1.89 7.48 2.04 7.36 2.19C7.23 2.34 7.12 2.5 7.01 2.66C6.9 2.82 6.8 2.99 6.7 3.17C6.61 3.34 6.53 3.52 6.45 3.7C6.38 3.88 6.31 4.07 6.25 4.25C6.2 4.44 6.15 4.63 6.11 4.82C6.07 5.02 6.04 5.21 6.02 5.41C6 5.6 6 5.8 6 6C6 10.1 12 16.79 12 16.79C12 16.79 18 10.1 18 6ZM9.6 6C9.6 5.92 9.6 5.84 9.61 5.76C9.61 5.68 9.63 5.6 9.64 5.53C9.66 5.45 9.68 5.37 9.7 5.3C9.72 5.22 9.75 5.15 9.78 5.08C9.81 5 9.84 4.93 9.88 4.86C9.92 4.79 9.96 4.73 10 4.66C10.04 4.6 10.09 4.53 10.14 4.47C10.19 4.41 10.24 4.35 10.3 4.3C10.35 4.24 10.41 4.19 10.47 4.14C10.53 4.09 10.6 4.04 10.66 4C10.73 3.96 10.79 3.92 10.86 3.88C10.93 3.84 11 3.81 11.08 3.78C11.15 3.75 11.22 3.72 11.3 3.7C11.37 3.68 11.45 3.66 11.53 3.64C11.6 3.63 11.68 3.61 11.76 3.61C11.84 3.6 11.92 3.6 12 3.6C12.07 3.6 12.15 3.6 12.23 3.61C12.31 3.61 12.39 3.63 12.46 3.64C12.54 3.66 12.62 3.68 12.69 3.7C12.77 3.72 12.84 3.75 12.91 3.78C12.99 3.81 13.06 3.84 13.13 3.88C13.2 3.92 13.26 3.96 13.33 4C13.39 4.04 13.46 4.09 13.52 4.14C13.58 4.19 13.64 4.24 13.69 4.3C13.75 4.35 13.8 4.41 13.85 4.47C13.9 4.53 13.95 4.6 13.99 4.66C14.03 4.73 14.07 4.79 14.11 4.86C14.15 4.93 14.18 5 14.21 5.08C14.24 5.15 14.27 5.22 14.29 5.3C14.31 5.37 14.33 5.45 14.35 5.53C14.36 5.6 14.38 5.68 14.38 5.76C14.39 5.84 14.39 5.92 14.39 6C14.39 6.07 14.39 6.15 14.38 6.23C14.38 6.31 14.36 6.39 14.35 6.46C14.33 6.54 14.31 6.62 14.29 6.69C14.27 6.77 14.24 6.84 14.21 6.91C14.18 6.99 14.15 7.06 14.11 7.13C14.07 7.2 14.03 7.26 13.99 7.33C13.95 7.39 13.9 7.46 13.85 7.52C13.8 7.58 13.75 7.64 13.69 7.69C13.64 7.75 13.58 7.8 13.52 7.85C13.46 7.9 13.39 7.95 13.33 7.99C13.26 8.03 13.2 8.07 13.13 8.11C13.06 8.15 12.99 8.18 12.91 8.21C12.84 8.24 12.77 8.27 12.69 8.29C12.62 8.31 12.54 8.33 12.46 8.35C12.39 8.36 12.31 8.38 12.23 8.38C12.15 8.39 12.07 8.39 12 8.39C11.92 8.39 11.84 8.39 11.76 8.38C11.68 8.38 11.6 8.36 11.53 8.35C11.45 8.33 11.37 8.31 11.3 8.29C11.22 8.27 11.15 8.24 11.08 8.21C11 8.18 10.93 8.15 10.86 8.11C10.79 8.07 10.73 8.03 10.66 7.99C10.6 7.95 10.53 7.9 10.47 7.85C10.41 7.8 10.35 7.75 10.3 7.69C10.24 7.64 10.19 7.58 10.14 7.52C10.09 7.46 10.04 7.39 10 7.33C9.96 7.26 9.92 7.2 9.88 7.13C9.84 7.06 9.81 6.99 9.78 6.91C9.75 6.84 9.72 6.77 9.7 6.69C9.68 6.62 9.66 6.54 9.64 6.46C9.63 6.39 9.61 6.31 9.61 6.23C9.6 6.15 9.6 6.07 9.6 6Z" fill="#FFFFFF" fill-opacity="1.000000" fill-rule="nonzero"/>
	</g>
</svg>
